<?xml version="1.0" standalone="no"?>
<!DOCTYPE svg PUBLIC "-//W3C//DTD SVG 1.1//EN" "http://www.w3.org/Graphics/SVG/1.1/DTD/svg11.dtd">
<svg width="100%" height="100%" viewBox="0 0 1280 1150" version="1.1" xmlns="http://www.w3.org/2000/svg" xmlns:xlink="http://www.w3.org/1999/xlink" xml:space="preserve" style="fill-rule:evenodd;clip-rule:evenodd;stroke-linecap:round;stroke-linejoin:round;stroke-miterlimit:1.41421;">
    <g id="Ebene2">
        <g id="drunter" transform="matrix(-0.720338,4.0811e-16,-3.6433e-16,-0.643063,1144.39,1522.16)">
            <path d="M103.846,834.306L103.846,829.36L114.756,822.625L1211.53,822.625L1222.82,829.36L1222.82,834.306L103.846,834.306Z" style="fill:rgb(216,218,217);stroke-width:0.73px;stroke:black;"/>
            <path d="M103.842,829.36L1222.75,829.36" style="fill:rgb(216,218,217);stroke-width:0.73px;stroke:black;"/>
        </g>
        <g id="Boden" transform="matrix(-1.00645,5.70209e-16,-5.66554e-16,-1,1330.24,1808.28)">
            <path d="M103.846,834.306L103.846,829.36L114.756,822.625L1211.53,822.625L1222.82,829.36L1222.82,834.306L103.846,834.306Z" style="fill:rgb(216,218,217);stroke-width:0.5px;stroke:black;"/>
            <path d="M103.842,829.36L1222.75,829.36" style="fill:rgb(216,218,217);stroke-width:0.5px;stroke:black;"/>
        </g>
        <g id="standgummis">
            <path d="M177.751,985.947L177.751,993.432C177.676,995.655 178.866,996.692 181.105,996.747L240.337,996.747C242.813,996.858 244.149,995.831 244.109,993.432L244.109,985.947L177.751,985.947Z" style="fill:black;stroke-width:1px;stroke:black;"/>
            <g transform="matrix(1,-2.44929e-16,2.44929e-16,1,905.912,5.16626e-14)">
                <path d="M177.751,985.947L177.751,993.432C177.676,995.655 178.866,996.692 181.105,996.747L240.337,996.747C242.813,996.858 244.149,995.831 244.109,993.432L244.109,985.947L177.751,985.947Z" style="fill:black;stroke-width:1px;stroke:black;"/>
            </g>
        </g>
        <g id="Deckel">
            <path d="M103.846,834.306L103.846,829.36L114.756,822.625L1211.53,822.625L1222.82,829.36L1222.82,834.306L103.846,834.306Z" style="fill:rgb(216,218,217);stroke-width:0.5px;stroke-linecap:butt;stroke:black;"/>
            <path d="M103.842,829.36L1222.75,829.36" style="fill:rgb(216,218,217);stroke-width:0.5px;stroke:black;"/>
        </g>
        <rect x="88.185" y="841.627" width="1150.03" height="123.932" style="fill:rgb(51,51,51);stroke-width:0.5px;stroke:black;"/>
        <g id="Mittelrippen">
            <g id="Rippe">
                <g transform="matrix(0.934201,0,0,0.945756,5.38543,46.5774)">
                    <path d="M1325.87,861.927C1325.87,860.123 1324.39,858.66 1322.56,858.66L85.153,858.66C83.328,858.66 81.846,860.123 81.846,861.927L81.846,869.691C81.846,871.494 83.328,872.958 85.153,872.958L1322.56,872.958C1324.39,872.958 1325.87,871.494 1325.87,869.691L1325.87,861.927Z" style="fill:rgb(77,77,77);stroke-width:0.53px;stroke:black;"/>
                </g>
                <g transform="matrix(11.5618,0,0,2.93472,-864.167,-1666.66)">
                    <rect x="81.823" y="861.451" width="100.514" height="2.756" style="fill:rgb(51,51,51);stroke-width:0.06px;stroke:black;"/>
                </g>
            </g>
            <g id="Rippe1" transform="matrix(1,0,0,1,0,25.9614)">
                <g transform="matrix(0.934201,0,0,0.945756,5.38543,46.5774)">
                    <path d="M1325.87,861.927C1325.87,860.123 1324.39,858.66 1322.56,858.66L85.153,858.66C83.328,858.66 81.846,860.123 81.846,861.927L81.846,869.691C81.846,871.494 83.328,872.958 85.153,872.958L1322.56,872.958C1324.39,872.958 1325.87,871.494 1325.87,869.691L1325.87,861.927Z" style="fill:rgb(77,77,77);stroke-width:0.53px;stroke:black;"/>
                </g>
                <g transform="matrix(11.5618,0,0,2.93472,-864.167,-1666.66)">
                    <rect x="81.823" y="861.451" width="100.514" height="2.756" style="fill:rgb(51,51,51);stroke-width:0.06px;stroke:black;"/>
                </g>
            </g>
            <g id="Rippe2" transform="matrix(1,0,0,1,0,51.1811)">
                <g transform="matrix(0.934201,0,0,0.945756,5.38543,46.5774)">
                    <path d="M1325.87,861.927C1325.87,860.123 1324.39,858.66 1322.56,858.66L85.153,858.66C83.328,858.66 81.846,860.123 81.846,861.927L81.846,869.691C81.846,871.494 83.328,872.958 85.153,872.958L1322.56,872.958C1324.39,872.958 1325.87,871.494 1325.87,869.691L1325.87,861.927Z" style="fill:rgb(77,77,77);stroke-width:0.53px;stroke:black;"/>
                </g>
                <g transform="matrix(11.5618,0,0,2.93472,-864.167,-1666.66)">
                    <rect x="81.823" y="861.451" width="100.514" height="2.756" style="fill:rgb(51,51,51);stroke-width:0.06px;stroke:black;"/>
                </g>
            </g>
            <g id="Rippe3" transform="matrix(1,0,0,1,0,76.4851)">
                <g transform="matrix(0.934201,0,0,0.945756,5.38543,46.5774)">
                    <path d="M1325.87,861.927C1325.87,860.123 1324.39,858.66 1322.56,858.66L85.153,858.66C83.328,858.66 81.846,860.123 81.846,861.927L81.846,869.691C81.846,871.494 83.328,872.958 85.153,872.958L1322.56,872.958C1324.39,872.958 1325.87,871.494 1325.87,869.691L1325.87,861.927Z" style="fill:rgb(77,77,77);stroke-width:0.53px;stroke:black;"/>
                </g>
                <g transform="matrix(11.5618,0,0,2.93472,-864.167,-1666.66)">
                    <rect x="81.823" y="861.451" width="100.514" height="2.756" style="fill:rgb(51,51,51);stroke-width:0.06px;stroke:black;"/>
                </g>
            </g>
            <g id="Rippe4" transform="matrix(1,0,0,1,0,-24.1256)">
                <g transform="matrix(0.934201,0,0,0.945756,5.38543,46.5774)">
                    <path d="M1325.87,861.927C1325.87,860.123 1324.39,858.66 1322.56,858.66L85.153,858.66C83.328,858.66 81.846,860.123 81.846,861.927L81.846,869.691C81.846,871.494 83.328,872.958 85.153,872.958L1322.56,872.958C1324.39,872.958 1325.87,871.494 1325.87,869.691L1325.87,861.927Z" style="fill:rgb(77,77,77);stroke-width:0.53px;stroke:black;"/>
                </g>
                <g transform="matrix(11.5618,0,0,2.93472,-864.167,-1666.66)">
                    <rect x="81.823" y="861.451" width="100.514" height="2.756" style="fill:rgb(51,51,51);stroke-width:0.06px;stroke:black;"/>
                </g>
            </g>
            <g id="Rippe5" transform="matrix(1,0,0,1,0,101.804)">
                <g transform="matrix(0.934201,0,0,0.945756,5.38543,46.5774)">
                    <path d="M1325.87,861.927C1325.87,860.123 1324.39,858.66 1322.56,858.66L85.153,858.66C83.328,858.66 81.846,860.123 81.846,861.927L81.846,869.691C81.846,871.494 83.328,872.958 85.153,872.958L1322.56,872.958C1324.39,872.958 1325.87,871.494 1325.87,869.691L1325.87,861.927Z" style="fill:rgb(77,77,77);stroke-width:0.53px;stroke:black;"/>
                </g>
                <g transform="matrix(11.5618,0,0,2.93472,-864.167,-1666.66)">
                    <rect x="81.823" y="861.451" width="100.514" height="2.756" style="fill:rgb(51,51,51);stroke-width:0.06px;stroke:black;"/>
                </g>
            </g>
        </g>
        <rect id="Blende" x="263.294" y="845.061" width="800.976" height="117.543" style="fill:rgb(52,59,79);stroke-width:0.5px;stroke:black;"/>
    </g>
    <g transform="matrix(1.26803,0,0,1.26803,248.216,6.92844)">
        <g id="Antennen 1043">
            <g id="new Antenne 1043">
                <path d="M652.036,619.119L703.126,619.119L700.344,526.551L655.39,526.551L652.036,619.119Z" style="fill:rgb(49,49,49);stroke-width:0.39px;stroke-linecap:butt;stroke:black;"/>
                <rect x="665.084" y="199.138" width="27.899" height="28.754" style="fill:rgb(49,49,49);stroke-width:0.39px;stroke-linecap:butt;stroke:black;"/>
                <path d="M649.084,733.319L650.988,616.958C669.108,618.552 687.221,618.824 705.323,616.958L708.576,733.319C708.675,736.851 707.533,740.021 703.908,740.021L654.293,740.021C651.034,740.021 649.022,737.092 649.084,733.319Z" style="fill:rgb(51,51,51);stroke-width:0.39px;stroke-linecap:butt;stroke:black;"/>
                <g transform="matrix(0.909618,0,0,0.788626,86.9669,-5.46395)">
                    <path d="M618.082,936.798L683.33,936.798" style="fill:none;stroke-width:0.46px;stroke:black;"/>
                </g>
                <path d="M650.848,597.162L650.848,612.298C668.997,614.545 687.229,614.718 705.566,612.298L705.566,597.162C687.342,599.115 669.101,598.905 650.848,597.162Z" style="fill:rgb(49,49,49);stroke-width:0.39px;stroke-linecap:butt;stroke:black;"/>
                <path d="M663.141,341.639L694.434,341.639L694.434,223.461L663.746,223.461L663.141,341.639Z" style="fill:rgb(49,49,49);stroke-width:0.39px;stroke-linecap:butt;stroke:black;"/>
                <path d="M651.347,593.426C669.264,594.991 687.044,594.958 704.694,593.426L703.132,552.011C686.546,553.968 669.625,553.864 652.419,552.011L651.347,593.426Z" style="fill:rgb(49,49,49);stroke-width:0.39px;stroke-linecap:butt;stroke:black;"/>
                <path d="M653.079,547.908C669.797,549.558 686.475,549.685 703.103,547.908L702.503,533.319C686.288,534.981 669.99,534.936 653.614,533.319L653.079,547.908Z" style="fill:rgb(49,49,49);stroke-width:0.39px;stroke-linecap:butt;stroke:black;"/>
                <path d="M653.614,529.948C669.993,531.254 686.296,531.355 702.503,529.948L697.191,338.329C685.178,340.346 673.138,340.435 661.07,338.329L653.614,529.948Z" style="fill:rgb(49,49,49);stroke-width:0.39px;stroke-linecap:butt;stroke:black;"/>
                <rect x="663.746" y="205.104" width="30.688" height="14.659" style="fill:rgb(49,49,49);stroke-width:0.39px;stroke-linecap:butt;stroke:black;"/>
                <path d="M663.687,200.966L694.443,200.966L694.443,144.136C688.239,128.631 671.247,128.6 663.687,144.136L663.687,200.966Z" style="fill:rgb(49,49,49);stroke-width:0.39px;stroke-linecap:butt;stroke:black;"/>
            </g>
        </g>
    </g>
    <g id="WAN" transform="matrix(-1,3.67394e-16,-3.67394e-16,-1,894.796,1889.08)">
        <path d="M430.126,958.534L520.049,958.534L520.049,1035.48L430.126,1035.48L430.126,958.534" style="fill:rgb(0,158,224);stroke-width:1px;stroke:black;"/>
        <path d="M463.538,961.757L487.377,961.757L487.377,969.841L494.601,969.841L494.601,977.802L508.571,977.802L508.571,989.68L513.332,989.68L513.332,1005.6L508.571,1005.6L508.571,1018.27L440.482,1018.27L440.482,1005.6L437.015,1005.6L437.015,989.68L440.482,989.68L440.482,977.802L455.182,977.802L455.182,969.841L463.538,969.841L463.538,961.757" style="fill:rgb(166,229,255);stroke-width:1px;stroke:black;"/>
        <rect x="436.816" y="989.68" width="9.385" height="15.92" style="fill:black;stroke-width:1px;stroke:black;"/>
        <g transform="matrix(1,0,0,1,67.0669,-0.0235958)">
            <rect x="436.816" y="989.68" width="9.385" height="15.92" style="fill:black;stroke-width:1px;stroke:black;"/>
        </g>
        <path d="M450.462,1000.22L450.462,1012.69" style="fill:none;stroke-width:1px;stroke:black;"/>
        <g transform="matrix(1,0,0,1,5.18811,0.142889)">
            <path d="M450.462,1000.22L450.462,1012.69" style="fill:none;stroke-width:1px;stroke:black;"/>
        </g>
        <g transform="matrix(1,0,0,1,10.8216,0.142889)">
            <path d="M450.462,1000.22L450.462,1012.69" style="fill:none;stroke-width:1px;stroke:black;"/>
        </g>
        <g transform="matrix(1,0,0,1,22.0044,0.291919)">
            <path d="M450.462,1000.07L450.462,1012.69" style="fill:none;stroke-width:1px;stroke:black;"/>
        </g>
        <g transform="matrix(1,0,0,1,27.0496,0.291919)">
            <path d="M450.462,1000.05L450.462,1012.69" style="fill:none;stroke-width:1px;stroke:black;"/>
        </g>
        <g transform="matrix(1,0,0,1,49.4509,0.192566)">
            <path d="M450.462,1000.16L450.462,1012.69" style="fill:none;stroke-width:1px;stroke:black;"/>
        </g>
        <path d="M466.922,1000.38L466.922,1018.21" style="fill:none;stroke-width:1px;stroke:black;"/>
        <g transform="matrix(1,0,0,1,16.0399,-0.0558162)">
            <path d="M466.922,1000.41L466.922,1018.27" style="fill:none;stroke-width:1px;stroke:black;"/>
        </g>
        <g transform="matrix(1,0,0,1,21.7443,-0.154611)">
            <path d="M466.922,1000.5L466.922,1018.4" style="fill:none;stroke-width:1px;stroke:black;"/>
        </g>
        <g transform="matrix(1,0,0,1,27.6257,-0.353316)">
            <path d="M466.922,1000.67L466.922,1018.4" style="fill:none;stroke-width:1px;stroke:black;"/>
        </g>
    </g>
    <g id="lan4" transform="matrix(-1,1.22465e-16,-1.22465e-16,-1,1344.87,1888.8)">
        <g transform="matrix(3.73365,0,0,1,-1085.67,-0.000264784)">
            <path d="M430.126,958.534L520.049,958.534L520.049,1035.48L430.126,1035.48L430.126,958.534" style="fill:rgb(255,180,0);stroke-width:0.37px;stroke:black;"/>
        </g>
        <g transform="matrix(1,0,0,1,93.3029,-0.747357)">
            <path d="M463.538,961.757L487.377,961.757L487.377,969.841L494.601,969.841L494.601,977.802L508.571,977.802L508.571,989.68L513.332,989.68L513.332,1005.6L508.571,1005.6L508.571,1018.27L440.482,1018.27L440.482,1005.6L437.015,1005.6L437.015,989.68L440.482,989.68L440.482,977.802L455.182,977.802L455.182,969.841L463.538,969.841L463.538,961.757" style="fill:rgb(255,225,153);stroke-width:1px;stroke:black;"/>
        </g>
        <g transform="matrix(1,0,0,1,172.876,-0.661805)">
            <path d="M463.538,961.757L487.377,961.757L487.377,969.841L494.601,969.841L494.601,977.802L508.571,977.802L508.571,989.68L513.332,989.68L513.332,1005.6L508.571,1005.6L508.571,1018.27L440.482,1018.27L440.482,1005.6L437.015,1005.6L437.015,989.68L440.482,989.68L440.482,977.802L455.182,977.802L455.182,969.841L463.538,969.841L463.538,961.757" style="fill:rgb(255,225,153);stroke-width:1px;stroke:black;"/>
        </g>
        <g transform="matrix(1,0,0,1,252.488,-0.755912)">
            <path d="M463.538,961.757L487.377,961.757L487.377,969.841L494.601,969.841L494.601,977.802L508.571,977.802L508.571,989.68L513.332,989.68L513.332,1005.6L508.571,1005.6L508.571,1018.27L440.482,1018.27L440.482,1005.6L437.015,1005.6L437.015,989.68L440.482,989.68L440.482,977.802L455.182,977.802L455.182,969.841L463.538,969.841L463.538,961.757" style="fill:rgb(255,225,153);stroke-width:1px;stroke:black;"/>
        </g>
        <g transform="matrix(1,0,0,1,332.053,-0.509522)">
            <path d="M463.538,961.757L487.377,961.757L487.377,969.841L494.601,969.841L494.601,977.802L508.571,977.802L508.571,989.68L513.332,989.68L513.332,1005.6L508.571,1005.6L508.571,1018.27L440.482,1018.27L440.482,1005.6L437.015,1005.6L437.015,989.68L440.482,989.68L440.482,977.802L455.182,977.802L455.182,969.841L463.538,969.841L463.538,961.757" style="fill:rgb(255,225,153);stroke-width:1px;stroke:black;"/>
        </g>
        <g transform="matrix(1,0,0,1,93.3029,-0.747357)">
            <rect x="436.816" y="989.68" width="9.385" height="15.92" style="fill:black;stroke-width:1px;stroke:black;"/>
        </g>
        <g transform="matrix(1,0,0,1,172.876,-0.661805)">
            <rect x="436.816" y="989.68" width="9.385" height="15.92" style="fill:black;stroke-width:1px;stroke:black;"/>
        </g>
        <g transform="matrix(1,0,0,1,252.488,-0.755912)">
            <rect x="436.816" y="989.68" width="9.385" height="15.92" style="fill:black;stroke-width:1px;stroke:black;"/>
        </g>
        <g transform="matrix(1,0,0,1,332.053,-0.509522)">
            <rect x="436.816" y="989.68" width="9.385" height="15.92" style="fill:black;stroke-width:1px;stroke:black;"/>
        </g>
        <g transform="matrix(1,0,0,1,160.37,-0.770952)">
            <rect x="436.816" y="989.68" width="9.385" height="15.92" style="fill:black;stroke-width:1px;stroke:black;"/>
        </g>
        <g transform="matrix(1,0,0,1,239.942,-0.685401)">
            <rect x="436.816" y="989.68" width="9.385" height="15.92" style="fill:black;stroke-width:1px;stroke:black;"/>
        </g>
        <g transform="matrix(1,0,0,1,319.555,-0.779508)">
            <rect x="436.816" y="989.68" width="9.385" height="15.92" style="fill:black;stroke-width:1px;stroke:black;"/>
        </g>
        <g transform="matrix(1,0,0,1,399.12,-0.533118)">
            <rect x="436.816" y="989.68" width="9.385" height="15.92" style="fill:black;stroke-width:1px;stroke:black;"/>
        </g>
        <g transform="matrix(1,0,0,1,93.3029,-0.747357)">
            <path d="M450.462,1000.22L450.462,1012.69" style="fill:none;stroke-width:1px;stroke:black;"/>
        </g>
        <g transform="matrix(1,0,0,1,172.876,-0.661805)">
            <path d="M450.462,1000.22L450.462,1012.69" style="fill:none;stroke-width:1px;stroke:black;"/>
        </g>
        <g transform="matrix(1,0,0,1,252.488,-0.755912)">
            <path d="M450.462,1000.22L450.462,1012.69" style="fill:none;stroke-width:1px;stroke:black;"/>
        </g>
        <g transform="matrix(1,0,0,1,332.053,-0.509522)">
            <path d="M450.462,1000.22L450.462,1012.69" style="fill:none;stroke-width:1px;stroke:black;"/>
        </g>
        <g transform="matrix(1,0,0,1,98.491,-0.604467)">
            <path d="M450.462,1000.22L450.462,1012.69" style="fill:none;stroke-width:1px;stroke:black;"/>
        </g>
        <g transform="matrix(1,0,0,1,178.064,-0.518915)">
            <path d="M450.462,1000.22L450.462,1012.69" style="fill:none;stroke-width:1px;stroke:black;"/>
        </g>
        <g transform="matrix(1,0,0,1,257.676,-0.613022)">
            <path d="M450.462,1000.22L450.462,1012.69" style="fill:none;stroke-width:1px;stroke:black;"/>
        </g>
        <g transform="matrix(1,0,0,1,337.242,-0.366633)">
            <path d="M450.462,1000.22L450.462,1012.69" style="fill:none;stroke-width:1px;stroke:black;"/>
        </g>
        <g transform="matrix(1,0,0,1,104.125,-0.604467)">
            <path d="M450.462,1000.22L450.462,1012.69" style="fill:none;stroke-width:1px;stroke:black;"/>
        </g>
        <g transform="matrix(1,0,0,1,183.697,-0.518915)">
            <path d="M450.462,1000.22L450.462,1012.69" style="fill:none;stroke-width:1px;stroke:black;"/>
        </g>
        <g transform="matrix(1,0,0,1,263.309,-0.613022)">
            <path d="M450.462,1000.22L450.462,1012.69" style="fill:none;stroke-width:1px;stroke:black;"/>
        </g>
        <g transform="matrix(1,0,0,1,342.875,-0.366633)">
            <path d="M450.462,1000.22L450.462,1012.69" style="fill:none;stroke-width:1px;stroke:black;"/>
        </g>
        <g transform="matrix(1,0,0,1,115.307,-0.455438)">
            <path d="M450.462,1000.07L450.462,1012.69" style="fill:none;stroke-width:1px;stroke:black;"/>
        </g>
        <g transform="matrix(1,0,0,1,194.88,-0.369886)">
            <path d="M450.462,1000.07L450.462,1012.69" style="fill:none;stroke-width:1px;stroke:black;"/>
        </g>
        <g transform="matrix(1,0,0,1,274.492,-0.463993)">
            <path d="M450.462,1000.07L450.462,1012.69" style="fill:none;stroke-width:1px;stroke:black;"/>
        </g>
        <g transform="matrix(1,0,0,1,354.058,-0.217604)">
            <path d="M450.462,1000.07L450.462,1012.69" style="fill:none;stroke-width:1px;stroke:black;"/>
        </g>
        <g transform="matrix(1,0,0,1,120.353,-0.455438)">
            <path d="M450.462,1000.05L450.462,1012.69" style="fill:none;stroke-width:1px;stroke:black;"/>
        </g>
        <g transform="matrix(1,0,0,1,199.925,-0.369886)">
            <path d="M450.462,1000.05L450.462,1012.69" style="fill:none;stroke-width:1px;stroke:black;"/>
        </g>
        <g transform="matrix(1,0,0,1,279.537,-0.463993)">
            <path d="M450.462,1000.05L450.462,1012.69" style="fill:none;stroke-width:1px;stroke:black;"/>
        </g>
        <g transform="matrix(1,0,0,1,359.103,-0.217604)">
            <path d="M450.462,1000.05L450.462,1012.69" style="fill:none;stroke-width:1px;stroke:black;"/>
        </g>
        <g transform="matrix(1,0,0,1,142.754,-0.554791)">
            <path d="M450.462,1000.16L450.462,1012.69" style="fill:none;stroke-width:1px;stroke:black;"/>
        </g>
        <g transform="matrix(1,0,0,1,222.326,-0.469239)">
            <path d="M450.462,1000.16L450.462,1012.69" style="fill:none;stroke-width:1px;stroke:black;"/>
        </g>
        <g transform="matrix(1,0,0,1,301.939,-0.563346)">
            <path d="M450.462,1000.16L450.462,1012.69" style="fill:none;stroke-width:1px;stroke:black;"/>
        </g>
        <g transform="matrix(1,0,0,1,381.504,-0.316957)">
            <path d="M450.462,1000.16L450.462,1012.69" style="fill:none;stroke-width:1px;stroke:black;"/>
        </g>
        <g transform="matrix(1,0,0,1,93.3029,-0.747357)">
            <path d="M466.922,1000.38L466.922,1018.21" style="fill:none;stroke-width:1px;stroke:black;"/>
        </g>
        <g transform="matrix(1,0,0,1,172.876,-0.661805)">
            <path d="M466.922,1000.38L466.922,1018.21" style="fill:none;stroke-width:1px;stroke:black;"/>
        </g>
        <g transform="matrix(1,0,0,1,252.488,-0.755912)">
            <path d="M466.922,1000.38L466.922,1018.21" style="fill:none;stroke-width:1px;stroke:black;"/>
        </g>
        <g transform="matrix(1,0,0,1,332.053,-0.509522)">
            <path d="M466.922,1000.38L466.922,1018.21" style="fill:none;stroke-width:1px;stroke:black;"/>
        </g>
        <g transform="matrix(1,0,0,1,109.343,-0.803173)">
            <path d="M466.922,1000.41L466.922,1018.27" style="fill:none;stroke-width:1px;stroke:black;"/>
        </g>
        <g transform="matrix(1,0,0,1,188.915,-0.717621)">
            <path d="M466.922,1000.41L466.922,1018.27" style="fill:none;stroke-width:1px;stroke:black;"/>
        </g>
        <g transform="matrix(1,0,0,1,268.528,-0.811728)">
            <path d="M466.922,1000.41L466.922,1018.27" style="fill:none;stroke-width:1px;stroke:black;"/>
        </g>
        <g transform="matrix(1,0,0,1,348.093,-0.565338)">
            <path d="M466.922,1000.41L466.922,1018.27" style="fill:none;stroke-width:1px;stroke:black;"/>
        </g>
        <g transform="matrix(1,0,0,1,115.047,-0.901967)">
            <path d="M466.922,1000.5L466.922,1018.4" style="fill:none;stroke-width:1px;stroke:black;"/>
        </g>
        <g transform="matrix(1,0,0,1,194.62,-0.816415)">
            <path d="M466.922,1000.5L466.922,1018.4" style="fill:none;stroke-width:1px;stroke:black;"/>
        </g>
        <g transform="matrix(1,0,0,1,274.232,-0.910523)">
            <path d="M466.922,1000.5L466.922,1018.4" style="fill:none;stroke-width:1px;stroke:black;"/>
        </g>
        <g transform="matrix(1,0,0,1,353.798,-0.664133)">
            <path d="M466.922,1000.5L466.922,1018.4" style="fill:none;stroke-width:1px;stroke:black;"/>
        </g>
        <g transform="matrix(1,0,0,1,120.929,-1.10067)">
            <path d="M466.922,1000.67L466.922,1018.4" style="fill:none;stroke-width:1px;stroke:black;"/>
        </g>
        <g transform="matrix(1,0,0,1,200.501,-1.01512)">
            <path d="M466.922,1000.67L466.922,1018.4" style="fill:none;stroke-width:1px;stroke:black;"/>
        </g>
        <g transform="matrix(1,0,0,1,280.113,-1.10923)">
            <path d="M466.922,1000.67L466.922,1018.4" style="fill:none;stroke-width:1px;stroke:black;"/>
        </g>
        <g transform="matrix(1,0,0,1,359.679,-0.862839)">
            <path d="M466.922,1000.67L466.922,1018.4" style="fill:none;stroke-width:1px;stroke:black;"/>
        </g>
    </g>
    <g id="Power" transform="matrix(1,0,0,1,-71.1236,-108.884)">
        <rect x="360.529" y="973.018" width="50.745" height="61.322" style="fill:rgb(72,72,74);stroke-width:3.5px;stroke:black;"/>
        <g transform="matrix(1,0,0,1,-0.754159,0.503051)">
            <ellipse cx="387.025" cy="998.035" rx="16.88" ry="17.207" style="fill:rgb(72,72,74);stroke-width:1px;stroke:black;"/>
        </g>
        <ellipse cx="386.992" cy="998.717" rx="8.879" ry="8.391" style="fill:rgb(99,100,102);stroke-width:1px;stroke:black;"/>
        <g transform="matrix(1,0,0,1,-0.111324,-0.214278)">
            <ellipse cx="387.249" cy="998.987" rx="5.203" ry="5.065" style="fill:rgb(216,217,218);stroke-width:3px;stroke:rgb(58,57,59);"/>
        </g>
        <path d="M378.699,1011.21L394.491,1011.21L394.491,1012.99L392.11,1014.15L380.447,1014.15L378.699,1013.38L378.699,1011.21Z" style="fill:rgb(47,45,46);stroke-width:0.1px;stroke:rgb(35,31,32);"/>
    </g>
    <g transform="matrix(1.10209,0,0,1.10209,33.1088,-209.55)">
        <g id="reset">
            <ellipse cx="882.113" cy="1013.72" rx="10.926" ry="10.594" style="fill:black;stroke-width:5.9px;stroke:rgb(204,204,204);"/>
        </g>
    </g>
    <g transform="matrix(0.89,0,0,1,-525.057,-26.4605)">
        <path d="M920.807,979.725L920.807,968.272L925.128,968.272C925.888,968.272 926.469,968.308 926.87,968.381C927.432,968.475 927.904,968.653 928.284,968.916C928.664,969.18 928.97,969.548 929.202,970.022C929.434,970.496 929.55,971.017 929.55,971.584C929.55,972.558 929.24,973.383 928.62,974.057C928,974.732 926.88,975.069 925.261,975.069L922.323,975.069L922.323,979.725L920.807,979.725ZM922.323,973.717L925.284,973.717C926.263,973.717 926.958,973.535 927.37,973.17C927.781,972.806 927.987,972.293 927.987,971.631C927.987,971.152 927.866,970.742 927.624,970.401C927.382,970.06 927.063,969.834 926.667,969.725C926.412,969.657 925.94,969.624 925.253,969.624L922.323,969.624L922.323,973.717Z" style="fill:rgb(216,218,217);fill-rule:nonzero;"/>
        <path d="M931.018,974.147C931.018,972.246 931.529,970.758 932.55,969.682C933.57,968.607 934.888,968.069 936.503,968.069C937.56,968.069 938.513,968.321 939.362,968.827C940.211,969.332 940.858,970.036 941.303,970.94C941.749,971.844 941.971,972.868 941.971,974.014C941.971,975.176 941.737,976.215 941.268,977.131C940.8,978.048 940.136,978.742 939.276,979.213C938.417,979.685 937.49,979.92 936.495,979.92C935.417,979.92 934.453,979.66 933.604,979.139C932.755,978.618 932.112,977.907 931.675,977.006C931.237,976.105 931.018,975.152 931.018,974.147ZM932.581,974.17C932.581,975.551 932.952,976.638 933.694,977.432C934.436,978.226 935.367,978.624 936.487,978.624C937.628,978.624 938.567,978.222 939.303,977.42C940.04,976.618 940.409,975.48 940.409,974.006C940.409,973.074 940.251,972.26 939.936,971.565C939.621,970.87 939.16,970.331 938.553,969.948C937.947,969.565 937.266,969.374 936.511,969.374C935.438,969.374 934.514,969.742 933.741,970.479C932.968,971.216 932.581,972.446 932.581,974.17Z" style="fill:rgb(216,218,217);fill-rule:nonzero;"/>
        <path d="M945.925,979.725L942.886,968.272L944.44,968.272L946.182,975.78C946.37,976.566 946.531,977.347 946.667,978.124C946.958,976.9 947.13,976.194 947.182,976.006L949.362,968.272L951.19,968.272L952.831,974.069C953.242,975.506 953.539,976.858 953.721,978.124C953.867,977.4 954.057,976.569 954.292,975.631L956.089,968.272L957.612,968.272L954.471,979.725L953.011,979.725L950.596,970.999C950.393,970.269 950.274,969.821 950.237,969.655C950.117,970.181 950.005,970.629 949.901,970.999L947.471,979.725L945.925,979.725Z" style="fill:rgb(216,218,217);fill-rule:nonzero;"/>
        <path d="M959.057,979.725L959.057,968.272L967.339,968.272L967.339,969.624L960.573,969.624L960.573,973.131L966.909,973.131L966.909,974.475L960.573,974.475L960.573,978.374L967.604,978.374L967.604,979.725L959.057,979.725Z" style="fill:rgb(216,218,217);fill-rule:nonzero;"/>
        <path d="M969.721,979.725L969.721,968.272L974.8,968.272C975.82,968.272 976.596,968.375 977.128,968.581C977.659,968.786 978.083,969.15 978.401,969.67C978.719,970.191 978.878,970.767 978.878,971.397C978.878,972.209 978.615,972.894 978.089,973.452C977.563,974.009 976.75,974.363 975.651,974.514C976.052,974.707 976.357,974.897 976.565,975.084C977.008,975.491 977.427,975.999 977.823,976.608L979.815,979.725L977.909,979.725L976.393,977.342C975.951,976.655 975.586,976.129 975.3,975.764C975.013,975.4 974.757,975.144 974.53,974.999C974.303,974.853 974.073,974.751 973.839,974.694C973.667,974.657 973.386,974.639 972.995,974.639L971.237,974.639L971.237,979.725L969.721,979.725ZM971.237,973.327L974.495,973.327C975.188,973.327 975.729,973.255 976.12,973.112C976.511,972.969 976.807,972.739 977.011,972.424C977.214,972.109 977.315,971.767 977.315,971.397C977.315,970.855 977.119,970.41 976.725,970.061C976.332,969.712 975.711,969.538 974.862,969.538L971.237,969.538L971.237,973.327Z" style="fill:rgb(216,218,217);fill-rule:nonzero;"/>
        <path d="M1044.16,979.725L1041.12,968.272L1042.67,968.272L1044.41,975.78C1044.6,976.566 1044.76,977.347 1044.9,978.124C1045.19,976.9 1045.36,976.194 1045.41,976.006L1047.59,968.272L1049.42,968.272L1051.06,974.069C1051.47,975.506 1051.77,976.858 1051.95,978.124C1052.1,977.4 1052.29,976.569 1052.52,975.631L1054.32,968.272L1055.84,968.272L1052.7,979.725L1051.24,979.725L1048.83,970.999C1048.62,970.269 1048.51,969.821 1048.47,969.655C1048.35,970.181 1048.24,970.629 1048.13,970.999L1045.7,979.725L1044.16,979.725Z" style="fill:rgb(216,218,217);fill-rule:nonzero;"/>
        <path d="M1055.33,979.725L1059.73,968.272L1061.36,968.272L1066.05,979.725L1064.33,979.725L1062.99,976.256L1058.2,976.256L1056.94,979.725L1055.33,979.725ZM1058.64,975.022L1062.52,975.022L1061.33,971.85C1060.96,970.887 1060.69,970.095 1060.51,969.475C1060.37,970.209 1060.16,970.939 1059.89,971.663L1058.64,975.022Z" style="fill:rgb(216,218,217);fill-rule:nonzero;"/>
        <path d="M1067.25,979.725L1067.25,968.272L1068.8,968.272L1074.82,977.264L1074.82,968.272L1076.27,968.272L1076.27,979.725L1074.71,979.725L1068.7,970.725L1068.7,979.725L1067.25,979.725Z" style="fill:rgb(216,218,217);fill-rule:nonzero;"/>
        <path d="M1194.11,979.725L1194.11,976.983L1189.14,976.983L1189.14,975.694L1194.37,968.272L1195.52,968.272L1195.52,975.694L1197.07,975.694L1197.07,976.983L1195.52,976.983L1195.52,979.725L1194.11,979.725ZM1194.11,975.694L1194.11,970.53L1190.53,975.694L1194.11,975.694Z" style="fill:rgb(216,218,217);fill-rule:nonzero;"/>
        <path d="M1279.4,976.702L1280.81,976.514C1280.97,977.311 1281.25,977.885 1281.63,978.237C1282.02,978.588 1282.49,978.764 1283.05,978.764C1283.71,978.764 1284.27,978.535 1284.73,978.077C1285.18,977.618 1285.41,977.051 1285.41,976.374C1285.41,975.728 1285.2,975.195 1284.78,974.776C1284.36,974.357 1283.82,974.147 1283.17,974.147C1282.9,974.147 1282.57,974.199 1282.18,974.303L1282.33,973.069C1282.43,973.079 1282.5,973.084 1282.56,973.084C1283.16,973.084 1283.7,972.928 1284.18,972.616C1284.66,972.303 1284.89,971.821 1284.89,971.17C1284.89,970.655 1284.72,970.228 1284.37,969.889C1284.02,969.551 1283.57,969.381 1283.02,969.381C1282.47,969.381 1282.02,969.553 1281.65,969.897C1281.29,970.241 1281.05,970.756 1280.95,971.444L1279.54,971.194C1279.71,970.251 1280.11,969.521 1280.71,969.002C1281.33,968.484 1282.08,968.225 1282.99,968.225C1283.61,968.225 1284.19,968.359 1284.71,968.627C1285.24,968.896 1285.64,969.262 1285.92,969.725C1286.2,970.189 1286.34,970.681 1286.34,971.202C1286.34,971.696 1286.21,972.147 1285.94,972.553C1285.68,972.959 1285.28,973.282 1284.76,973.522C1285.44,973.678 1285.96,974.002 1286.34,974.495C1286.71,974.987 1286.9,975.603 1286.9,976.342C1286.9,977.342 1286.54,978.19 1285.81,978.885C1285.08,979.581 1284.16,979.928 1283.04,979.928C1282.04,979.928 1281.2,979.629 1280.54,979.03C1279.88,978.431 1279.5,977.655 1279.4,976.702Z" style="fill:rgb(216,218,217);fill-rule:nonzero;"/>
        <path d="M1372.57,978.374L1372.57,979.725L1365,979.725C1364.99,979.387 1365.05,979.061 1365.16,978.749C1365.36,978.233 1365.67,977.725 1366.09,977.225C1366.52,976.725 1367.13,976.147 1367.93,975.491C1369.18,974.47 1370.02,973.661 1370.45,973.065C1370.89,972.469 1371.11,971.905 1371.11,971.374C1371.11,970.816 1370.91,970.346 1370.51,969.963C1370.12,969.581 1369.6,969.389 1368.95,969.389C1368.28,969.389 1367.74,969.592 1367.33,969.999C1366.92,970.405 1366.72,970.967 1366.71,971.686L1365.27,971.538C1365.37,970.459 1365.74,969.638 1366.38,969.073C1367.03,968.508 1367.9,968.225 1368.99,968.225C1370.09,968.225 1370.95,968.53 1371.6,969.139C1372.24,969.749 1372.56,970.504 1372.56,971.405C1372.56,971.863 1372.46,972.314 1372.28,972.756C1372.09,973.199 1371.78,973.665 1371.34,974.155C1370.91,974.644 1370.18,975.316 1369.17,976.17C1368.33,976.879 1367.79,977.359 1367.55,977.612C1367.31,977.864 1367.11,978.118 1366.95,978.374L1372.57,978.374Z" style="fill:rgb(216,218,217);fill-rule:nonzero;"/>
        <path d="M1464.71,979.725L1463.31,979.725L1463.31,970.764C1462.97,971.087 1462.52,971.41 1461.97,971.733C1461.42,972.056 1460.93,972.298 1460.49,972.459L1460.49,971.1C1461.28,970.73 1461.97,970.282 1462.56,969.756C1463.14,969.23 1463.56,968.72 1463.81,968.225L1464.71,968.225L1464.71,979.725Z" style="fill:rgb(216,218,217);fill-rule:nonzero;"/>
        <path d="M1588.85,968.272L1590.37,968.272L1590.37,974.889C1590.37,976.04 1590.24,976.954 1589.98,977.631C1589.72,978.308 1589.25,978.859 1588.57,979.284C1587.88,979.708 1586.99,979.92 1585.89,979.92C1584.82,979.92 1583.94,979.736 1583.26,979.366C1582.57,978.996 1582.09,978.461 1581.8,977.76C1581.5,977.06 1581.36,976.103 1581.36,974.889L1581.36,968.272L1582.87,968.272L1582.87,974.881C1582.87,975.876 1582.97,976.609 1583.15,977.081C1583.34,977.552 1583.65,977.915 1584.1,978.17C1584.55,978.426 1585.11,978.553 1585.76,978.553C1586.87,978.553 1587.66,978.301 1588.14,977.795C1588.61,977.29 1588.85,976.319 1588.85,974.881L1588.85,968.272Z" style="fill:rgb(216,218,217);fill-rule:nonzero;"/>
        <path d="M1592.37,976.045L1593.8,975.92C1593.87,976.493 1594.03,976.963 1594.28,977.331C1594.52,977.698 1594.91,977.995 1595.43,978.221C1595.95,978.448 1596.54,978.561 1597.19,978.561C1597.76,978.561 1598.27,978.475 1598.72,978.303C1599.16,978.131 1599.49,977.896 1599.7,977.596C1599.92,977.297 1600.03,976.97 1600.03,976.616C1600.03,976.256 1599.92,975.943 1599.72,975.674C1599.51,975.406 1599.16,975.181 1598.69,974.999C1598.38,974.879 1597.7,974.693 1596.65,974.44C1595.6,974.187 1594.86,973.949 1594.44,973.725C1593.89,973.439 1593.48,973.083 1593.21,972.659C1592.94,972.234 1592.81,971.759 1592.81,971.233C1592.81,970.655 1592.98,970.114 1593.3,969.612C1593.63,969.109 1594.11,968.728 1594.74,968.467C1595.37,968.207 1596.07,968.077 1596.84,968.077C1597.69,968.077 1598.44,968.213 1599.09,968.487C1599.74,968.76 1600.24,969.163 1600.58,969.694C1600.93,970.225 1601.12,970.827 1601.15,971.499L1599.69,971.608C1599.62,970.884 1599.35,970.337 1598.9,969.967C1598.45,969.597 1597.79,969.413 1596.9,969.413C1595.99,969.413 1595.32,969.581 1594.9,969.916C1594.48,970.252 1594.27,970.657 1594.27,971.131C1594.27,971.543 1594.42,971.881 1594.72,972.147C1595.01,972.413 1595.77,972.685 1597,972.963C1598.23,973.242 1599.08,973.486 1599.54,973.694C1600.2,974.001 1600.7,974.39 1601.01,974.862C1601.33,975.333 1601.49,975.876 1601.49,976.491C1601.49,977.1 1601.32,977.674 1600.97,978.213C1600.62,978.752 1600.12,979.172 1599.46,979.471C1598.81,979.771 1598.07,979.92 1597.26,979.92C1596.22,979.92 1595.35,979.769 1594.65,979.467C1593.95,979.165 1593.4,978.711 1593,978.104C1592.6,977.497 1592.39,976.811 1592.37,976.045Z" style="fill:rgb(216,218,217);fill-rule:nonzero;"/>
        <path d="M1603.5,979.725L1603.5,968.272L1607.8,968.272C1608.67,968.272 1609.37,968.388 1609.9,968.62C1610.43,968.851 1610.84,969.208 1611.14,969.69C1611.44,970.172 1611.59,970.676 1611.59,971.202C1611.59,971.691 1611.46,972.152 1611.19,972.584C1610.93,973.017 1610.53,973.366 1609.99,973.631C1610.68,973.834 1611.22,974.181 1611.59,974.67C1611.96,975.16 1612.15,975.738 1612.15,976.405C1612.15,976.941 1612.03,977.44 1611.81,977.901C1611.58,978.362 1611.3,978.717 1610.97,978.967C1610.63,979.217 1610.22,979.406 1609.71,979.534C1609.21,979.661 1608.6,979.725 1607.87,979.725L1603.5,979.725ZM1605.01,973.084L1607.49,973.084C1608.16,973.084 1608.64,973.04 1608.94,972.952C1609.32,972.837 1609.61,972.647 1609.81,972.381C1610,972.116 1610.1,971.782 1610.1,971.381C1610.1,971.001 1610.01,970.666 1609.83,970.377C1609.64,970.088 1609.38,969.89 1609.05,969.784C1608.71,969.677 1608.13,969.624 1607.3,969.624L1605.01,969.624L1605.01,973.084ZM1605.01,978.374L1607.87,978.374C1608.36,978.374 1608.7,978.355 1608.9,978.319C1609.25,978.256 1609.54,978.152 1609.77,978.006C1610.01,977.861 1610.2,977.648 1610.35,977.37C1610.5,977.091 1610.58,976.769 1610.58,976.405C1610.58,975.978 1610.47,975.607 1610.25,975.291C1610.03,974.976 1609.73,974.755 1609.34,974.627C1608.95,974.5 1608.39,974.436 1607.66,974.436L1605.01,974.436L1605.01,978.374Z" style="fill:rgb(216,218,217);fill-rule:nonzero;"/>
        <path d="M1693.82,979.725L1693.82,968.272L1698.89,968.272C1699.91,968.272 1700.69,968.375 1701.22,968.581C1701.75,968.786 1702.18,969.15 1702.5,969.67C1702.81,970.191 1702.97,970.767 1702.97,971.397C1702.97,972.209 1702.71,972.894 1702.18,973.452C1701.66,974.009 1700.84,974.363 1699.75,974.514C1700.15,974.707 1700.45,974.897 1700.66,975.084C1701.1,975.491 1701.52,975.999 1701.92,976.608L1703.91,979.725L1702,979.725L1700.49,977.342C1700.05,976.655 1699.68,976.129 1699.39,975.764C1699.11,975.4 1698.85,975.144 1698.62,974.999C1698.4,974.853 1698.17,974.751 1697.93,974.694C1697.76,974.657 1697.48,974.639 1697.09,974.639L1695.33,974.639L1695.33,979.725L1693.82,979.725ZM1695.33,973.327L1698.59,973.327C1699.28,973.327 1699.82,973.255 1700.21,973.112C1700.61,972.969 1700.9,972.739 1701.11,972.424C1701.31,972.109 1701.41,971.767 1701.41,971.397C1701.41,970.855 1701.21,970.41 1700.82,970.061C1700.43,969.712 1699.81,969.538 1698.96,969.538L1695.33,969.538L1695.33,973.327Z" style="fill:rgb(216,218,217);fill-rule:nonzero;"/>
        <path d="M1705.38,979.725L1705.38,968.272L1713.66,968.272L1713.66,969.624L1706.89,969.624L1706.89,973.131L1713.23,973.131L1713.23,974.475L1706.89,974.475L1706.89,978.374L1713.92,978.374L1713.92,979.725L1705.38,979.725Z" style="fill:rgb(216,218,217);fill-rule:nonzero;"/>
        <path d="M1715.5,976.045L1716.93,975.92C1717,976.493 1717.16,976.963 1717.4,977.331C1717.65,977.698 1718.04,977.995 1718.56,978.221C1719.08,978.448 1719.66,978.561 1720.32,978.561C1720.89,978.561 1721.4,978.475 1721.85,978.303C1722.29,978.131 1722.62,977.896 1722.84,977.596C1723.05,977.297 1723.16,976.97 1723.16,976.616C1723.16,976.256 1723.06,975.943 1722.85,975.674C1722.64,975.406 1722.3,975.181 1721.82,974.999C1721.51,974.879 1720.83,974.693 1719.78,974.44C1718.72,974.187 1717.99,973.949 1717.57,973.725C1717.02,973.439 1716.61,973.083 1716.34,972.659C1716.08,972.234 1715.94,971.759 1715.94,971.233C1715.94,970.655 1716.11,970.114 1716.43,969.612C1716.76,969.109 1717.24,968.728 1717.87,968.467C1718.5,968.207 1719.2,968.077 1719.97,968.077C1720.82,968.077 1721.57,968.213 1722.22,968.487C1722.87,968.76 1723.37,969.163 1723.71,969.694C1724.06,970.225 1724.25,970.827 1724.28,971.499L1722.82,971.608C1722.75,970.884 1722.48,970.337 1722.03,969.967C1721.58,969.597 1720.91,969.413 1720.03,969.413C1719.12,969.413 1718.45,969.581 1718.03,969.916C1717.61,970.252 1717.4,970.657 1717.4,971.131C1717.4,971.543 1717.55,971.881 1717.85,972.147C1718.14,972.413 1718.9,972.685 1720.13,972.963C1721.36,973.242 1722.21,973.486 1722.67,973.694C1723.33,974.001 1723.83,974.39 1724.14,974.862C1724.46,975.333 1724.62,975.876 1724.62,976.491C1724.62,977.1 1724.45,977.674 1724.1,978.213C1723.75,978.752 1723.25,979.172 1722.59,979.471C1721.94,979.771 1721.2,979.92 1720.39,979.92C1719.35,979.92 1718.48,979.769 1717.78,979.467C1717.08,979.165 1716.53,978.711 1716.13,978.104C1715.73,977.497 1715.52,976.811 1715.5,976.045Z" style="fill:rgb(216,218,217);fill-rule:nonzero;"/>
        <path d="M1726.72,979.725L1726.72,968.272L1735,968.272L1735,969.624L1728.24,969.624L1728.24,973.131L1734.57,973.131L1734.57,974.475L1728.24,974.475L1728.24,978.374L1735.27,978.374L1735.27,979.725L1726.72,979.725Z" style="fill:rgb(216,218,217);fill-rule:nonzero;"/>
        <path d="M1740.28,979.725L1740.28,969.624L1736.5,969.624L1736.5,968.272L1745.58,968.272L1745.58,969.624L1741.79,969.624L1741.79,979.725L1740.28,979.725Z" style="fill:rgb(216,218,217);fill-rule:nonzero;"/>
    </g>
    <g id="USB Port Hochkant" transform="matrix(1,0,0,1,72.103,-100.62)">
        <g transform="matrix(1.24266,0,0,1.04702,-187.856,-45.2159)">
            <rect x="797.162" y="952.18" width="35.211" height="82.069" style="fill:rgb(49,49,49);stroke-width:0.87px;stroke:black;"/>
        </g>
        <g transform="matrix(0.939579,0,0,0.964472,49.6788,34.9392)">
            <path d="M844.035,961.651C838.659,962.357 842.018,957.286 840.263,955.504C838.409,953.621 833.887,957.121 833.851,951.73L813.483,951.73C813.06,958.195 809.277,954.793 807.442,956.539C805.548,958.341 809.127,962.125 803.299,961.651L803.299,1027.15C809.777,1026.59 805.868,1031.08 807.46,1033.07C808.993,1034.98 813.523,1031.2 813.484,1036.95C813.484,1037.02 813.536,1037.07 813.6,1037.07C815.252,1037.07 833.851,1037.07 833.851,1037.07C833.819,1031.53 837.723,1034.41 839.72,1033.19C841.739,1031.96 837.786,1027.04 844.035,1027.15L844.035,961.651Z" style="fill:rgb(130,115,92);stroke-width:3.15px;stroke:rgb(203,203,203);"/>
        </g>
        <g transform="matrix(1,0,0,1,-0.730877,0.338846)">
            <rect x="822.968" y="966.895" width="5.718" height="8.772" style="fill:black;stroke-width:0.5px;stroke:black;"/>
        </g>
        <g transform="matrix(1,0,0,1,-0.794451,13.8694)">
            <rect x="822.968" y="966.895" width="5.718" height="8.772" style="fill:black;stroke-width:0.5px;stroke:black;"/>
        </g>
        <g transform="matrix(1,0,0,1,-0.812951,26.3374)">
            <rect x="822.968" y="966.895" width="5.718" height="8.772" style="fill:black;stroke-width:0.5px;stroke:black;"/>
        </g>
        <g transform="matrix(1,0,0,1,-0.864451,40.5344)">
            <rect x="822.968" y="966.895" width="5.718" height="8.772" style="fill:black;stroke-width:0.5px;stroke:black;"/>
        </g>
        <g transform="matrix(1,0,0,1.03333,0,-34.1453)">
            <rect x="814.95" y="963.194" width="9.175" height="61.293" style="fill:rgb(203,203,203);stroke-width:0.49px;stroke:black;"/>
        </g>
    </g>
</svg>
