<?xml version="1.0" standalone="no"?>
<!DOCTYPE svg PUBLIC "-//W3C//DTD SVG 1.1//EN" "http://www.w3.org/Graphics/SVG/1.1/DTD/svg11.dtd">
<svg width="100%" height="100%" viewBox="0 0 1280 1150" version="1.1" xmlns="http://www.w3.org/2000/svg" xmlns:xlink="http://www.w3.org/1999/xlink" xml:space="preserve" style="fill-rule:evenodd;clip-rule:evenodd;stroke-linecap:round;stroke-linejoin:round;stroke-miterlimit:1.41421;">
    <g id="Nanostation">
        <g id="mast-schiene">
            <path d="M431.327,976.213L447.519,973.399L497.939,910.183L497.939,895.762L431.327,895.762L431.327,976.213Z" style="fill:rgb(252,252,252);stroke-width:3px;stroke:black;"/>
            <g transform="matrix(-1,0,0,1,1184.29,0)">
                <path d="M431.327,976.213L447.519,973.399L497.939,910.183L497.939,895.762L431.327,895.762L431.327,976.213Z" style="fill:rgb(252,252,252);stroke-width:3px;stroke:black;"/>
            </g>
            <path d="M431.331,976.122C431.304,983.251 444.974,983.577 450.218,976.122C526.872,857.315 666.41,866.452 734.751,976.122C734.793,976.16 734.852,976.185 734.875,976.235C738.256,983.52 751.752,983.704 752.963,976.122C681.851,832.818 496.3,841.711 431.331,976.122Z" style="fill:rgb(191,191,191);stroke-width:3px;stroke:black;"/>
        </g>
        <path d="M933.149,560.58L940.556,597.998L940.556,702.289L906.065,824.446L840.709,881.808L762.36,900.324L414.957,900.324L337.316,881.808L281.764,824.446L244.691,702.289L244.691,597.998L251.534,560.58L933.149,560.58Z" style="fill:rgb(252,252,252);stroke-width:2px;stroke-linecap:square;stroke:black;"/>
        <g id="frontgrauseite">
            <g transform="matrix(1,0,0,1.09976,0,-83.3975)">
                <rect x="762.861" y="845.871" width="27.502" height="14.432" style="fill:rgb(191,191,191);stroke-width:1.9px;stroke:black;"/>
            </g>
            <g transform="matrix(1,0,0,1.09976,-374.025,-83.3975)">
                <rect x="762.861" y="845.871" width="27.502" height="14.432" style="fill:rgb(191,191,191);stroke-width:1.9px;stroke:black;"/>
            </g>
            <path d="M513.784,863.958L513.784,830.604C513.784,826.316 516.856,824.343 521.513,824.343L663.75,824.343C667.618,824.343 671.719,825.868 671.719,830.604L671.719,864.586L671.719,820.629C671.719,816.854 669.542,812.797 663.75,812.797L622.847,812.797L622.847,800.639L545.033,800.639L545.033,812.797L521.513,812.797C516.736,812.797 513.784,814.822 513.784,820.629L513.784,863.958Z" style="fill:rgb(191,191,191);stroke-width:2px;stroke:black;"/>
        </g>
        <g id="leisteSoMiddich">
            <g>
                <path d="M771.111,824.145L762.851,843.128" style="fill:none;stroke-width:2px;stroke:black;"/>
                <g transform="matrix(1,0,0,1,-0.886824,0)">
                    <path d="M771.111,751.454L771.111,822.381" style="fill:none;stroke-width:4px;stroke-linecap:square;stroke:black;"/>
                </g>
            </g>
            <g transform="matrix(-1,0,0,1,1205.86,0)">
                <path d="M771.111,824.145L762.148,843.167L762.148,856.535" style="fill:none;stroke-width:2px;stroke:black;"/>
                <g transform="matrix(1,0,0,1,-0.886824,0)">
                    <path d="M771.111,751.454L771.111,822.381" style="fill:none;stroke-width:4px;stroke-linecap:square;stroke:black;"/>
                </g>
            </g>
        </g>
        <g id="Bohrung">
            <path d="M651.324,846.993C651.324,843.188 648.235,840.098 644.429,840.098L537.755,840.098C533.95,840.098 530.861,843.188 530.861,846.993L530.861,860.782C530.861,864.587 533.95,867.676 537.755,867.676L644.429,867.676C648.235,867.676 651.324,864.587 651.324,860.782L651.324,846.993Z" style="fill:rgb(191,191,191);stroke-width:2px;stroke:black;"/>
            <g transform="matrix(1,0,0,0.660052,-0.00345923,294.969)">
                <path d="M651.324,849.985C651.324,844.529 648.4,840.098 644.798,840.098L537.387,840.098C533.785,840.098 530.861,844.529 530.861,849.985L530.861,857.789C530.861,863.246 533.785,867.676 537.387,867.676L644.798,867.676C648.4,867.676 651.324,863.246 651.324,857.789L651.324,849.985Z" style="fill:rgb(252,252,252);stroke-width:2.36px;stroke:black;"/>
            </g>
        </g>
        <path d="M768.759,750.784L402.592,750.784C324.084,750.784 284.787,691.757 284.787,568.522L897.513,568.522C897.513,664.074 865.43,750.784 768.759,750.784Z" style="fill:rgb(252,252,252);stroke-width:3px;stroke:black;"/>
        <g>
            <path d="M890.763,568.202L890.763,610.638L907.805,610.638L907.805,697.613C901.013,793.267 857.843,844.751 790.401,857.096L790.401,843.013L762.846,843.013L762.846,862.445L671.736,862.445L671.736,875.917L762.846,875.917L762.846,846.837L790.401,846.837L790.401,875.917C878.263,857.991 921.282,797.674 922.258,697.613L922.258,622.455L915.287,568.202L890.763,568.202Z" style="fill:rgb(252,252,252);stroke-width:2px;stroke:black;"/>
            <g transform="matrix(-1,0,0,1,1179.24,0)">
                <path d="M890.763,568.061L890.763,610.638L907.805,610.638L907.805,697.613C901.013,793.267 857.843,844.148 790.401,856.493L790.401,843.013L762.846,843.013L762.846,856.493L735.528,856.493L735.528,864.135L665.46,864.135L665.46,875.917L762.846,875.917L762.846,846.785L790.401,846.785L790.401,875.917C878.263,857.991 921.282,797.674 922.258,697.613L922.258,622.455L915.287,568.061L890.763,568.061Z" style="fill:rgb(252,252,252);stroke-width:2px;stroke:black;"/>
            </g>
        </g>
        <g id="Lan nubsi" transform="matrix(1,0,0,1,-227.3,0)">
            <g transform="matrix(1,0,0,1,0,-13.8426)">
                <path d="M671.715,882.459L731.84,882.459L731.84,849.188L726.371,849.188C710.274,866.137 694.27,866.436 678.363,849.188L671.715,849.188L671.715,882.459Z" style="fill:rgb(252,252,252);stroke-width:2px;stroke:black;"/>
            </g>
            <path d="M671.715,882.459L731.84,882.459L731.84,849.188L726.371,849.188C710.598,864.406 694.642,864.632 678.363,849.188L671.715,849.188L671.715,882.459Z" style="fill:rgb(252,252,252);stroke-width:2px;stroke:black;"/>
            <g transform="matrix(1.05274,0,0,1.01643,-35.9721,-14.1581)">
                <rect x="672.229" y="835.771" width="5.886" height="13.607" style="fill:rgb(252,252,252);stroke-width:1.93px;stroke:black;"/>
            </g>
            <g transform="matrix(0.915241,0,0,1.01643,111.277,-14.1581)">
                <rect x="672.229" y="835.771" width="5.886" height="13.607" style="fill:rgb(252,252,252);stroke-width:2.07px;stroke:black;"/>
            </g>
        </g>
        <path d="M875.724,172.244L945.44,594.279L945.44,660.392C948.185,803.411 902.387,902.699 750.339,906.272L435.017,906.272C285.447,908.774 237.584,808.094 236.07,660.392L236.07,594.279L309.721,172.244C311.849,163.161 316.893,159.342 324.189,159.587L251.843,594.279L251.843,686.365C259.458,800.091 299.527,876.784 400.895,891.466C407.411,892.409 423.614,893 435.017,892.833L750.339,892.833C759.346,892.884 768.5,892.82 777.588,891.466C888.784,879.147 927.633,798.326 929.774,686.365L929.774,594.279L860.848,159.587C869.077,159.381 874.627,162.799 875.724,172.244Z" style="fill:rgb(252,252,252);stroke-width:3px;stroke:black;"/>
        <g id="öse">
            <path d="M566.562,572.217L564.763,582.362L602.339,582.362L601.041,572.217L566.562,572.217Z" style="fill:rgb(252,252,252);stroke-width:1px;stroke:black;"/>
            <g transform="matrix(1,0,0,0.99987,-1.13687e-13,0.0799267)">
                <path d="M564.763,616.716L570.181,616.716L570.181,596.276L596.762,596.276L596.762,616.716L602.336,616.716L602.336,582.35L564.763,582.35L564.763,616.716Z" style="fill:rgb(191,191,191);stroke-width:1px;stroke:black;"/>
            </g>
        </g>
        <g id="Deckel">
            <path d="M324.237,159.551L260.193,556.09L260.193,568.512L921.777,568.512L921.777,554.07L860.84,159.551L324.237,159.551Z" style="fill:rgb(252,252,252);stroke-width:3px;stroke:black;"/>
            <g transform="matrix(26.9665,0,0,0.404501,-7103.72,333.285)">
                <rect x="273.076" y="554.462" width="24.533" height="26.986" style="fill:rgb(191,191,191);stroke-width:0.16px;stroke:black;"/>
            </g>
        </g>
        <g transform="matrix(1,0,0,1.04415,0,-35.3583)">
            <path d="M545.067,800.793L622.916,800.793L622.357,753.273L545.505,753.273L545.067,800.793Z" style="fill:rgb(252,252,252);stroke-width:1.96px;stroke:black;"/>
        </g>
        <g id="Bohrnubsi">
            <path d="M565.218,779.477C582.175,786.509 599.03,786.662 615.778,779.477L616.312,732.12L565.218,732.12L565.218,779.477Z" style="fill:rgb(252,252,252);stroke-width:2px;stroke:black;"/>
            <g>
                <ellipse cx="590.754" cy="732.176" rx="25.573" ry="6.878" style="fill:rgb(252,252,252);stroke-width:2px;stroke:black;"/>
                <g transform="matrix(1,0,0,1,-0.545573,0.194525)">
                    <ellipse cx="591.962" cy="731.945" rx="13.862" ry="2.151" style="fill:rgb(51,51,51);stroke-width:2px;stroke:rgb(51,51,51);"/>
                </g>
            </g>
            <path d="M586.343,745.933L596.558,745.933L596.558,754.83L586.343,754.83L586.343,745.933L586.343,792.884L596.558,792.884L596.558,754.83L586.343,754.83" style="fill:rgb(252,252,252);stroke-width:2px;stroke:black;"/>
        </g>
        <g>
            <path d="M886.805,618.525L908.106,618.525L908.106,608.731L892.501,608.731L892.501,569.242L886.805,569.242L886.805,618.525Z" style="fill:rgb(252,252,252);stroke-width:2px;stroke:black;"/>
            <g transform="matrix(-1,0,0,1,1179.56,0)">
                <path d="M886.805,618.525L908.106,618.525L908.106,608.731L892.501,608.731L892.501,569.242L886.805,569.242L886.805,618.525Z" style="fill:rgb(252,252,252);stroke-width:2px;stroke:black;"/>
            </g>
            <path d="M892.475,597.431L886.899,597.431" style="fill:none;stroke-width:2px;stroke-linecap:square;stroke:black;"/>
            <g transform="matrix(4.1736,0,0,1,-3418.52,0)">
                <path d="M889.178,597.431L887.89,597.431" style="fill:none;stroke-width:0.66px;stroke-linecap:square;stroke:black;"/>
            </g>
        </g>
    </g>
    <g id="bedienteile">
        <g id="Lan MAIN" transform="matrix(1.48104,0,0,1.48104,-230.797,-788.593)">
            <g transform="matrix(1,0,0,0.875709,1.24345e-14,128.701)">
                <path d="M430.126,958.534L520.049,958.534L520.049,1035.48L430.126,1035.48L430.126,958.534" style="fill:rgb(204,204,204);stroke-width:0.72px;stroke:black;"/>
            </g>
            <path d="M455.182,962.039L494.601,962.039L494.601,976.433L508.997,976.433L508.997,1024.83L438.954,1024.83L438.954,976.433L455.182,976.433L455.182,962.039Z" style="fill:rgb(51,51,51);stroke-width:0.68px;stroke:black;"/>
            <g id="pins" transform="matrix(1,0,0,1,0,5.57445)">
                <path d="M450.462,1000.22L450.462,1012.69" style="fill:none;stroke-width:0.68px;stroke:black;"/>
                <g transform="matrix(1,0,0,1,5.18811,0.142889)">
                    <path d="M450.462,1000.22L450.462,1012.69" style="fill:none;stroke-width:0.68px;stroke:black;"/>
                </g>
                <g transform="matrix(1,0,0,1,10.8216,0.142889)">
                    <path d="M450.462,1000.22L450.462,1012.69" style="fill:none;stroke-width:0.68px;stroke:black;"/>
                </g>
                <g transform="matrix(1,0,0,1,22.0044,0.291919)">
                    <path d="M450.462,1000.07L450.462,1012.69" style="fill:none;stroke-width:0.68px;stroke:black;"/>
                </g>
                <g transform="matrix(1,0,0,1,27.0496,0.291919)">
                    <path d="M450.462,1000.05L450.462,1012.69" style="fill:none;stroke-width:0.68px;stroke:black;"/>
                </g>
                <g transform="matrix(1,0,0,1,49.4509,0.192566)">
                    <path d="M450.462,1000.16L450.462,1012.69" style="fill:none;stroke-width:0.68px;stroke:black;"/>
                </g>
                <path d="M466.922,1000.38L466.922,1018.21" style="fill:none;stroke-width:0.68px;stroke:black;"/>
                <g transform="matrix(1,0,0,1,16.0399,-0.0558162)">
                    <path d="M466.922,1000.41L466.922,1018.27" style="fill:none;stroke-width:0.68px;stroke:black;"/>
                </g>
                <g transform="matrix(1,0,0,1,21.7443,-0.154611)">
                    <path d="M466.922,1000.5L466.922,1018.4" style="fill:none;stroke-width:0.68px;stroke:black;"/>
                </g>
                <g transform="matrix(1,0,0,1,27.6257,-0.353316)">
                    <path d="M466.922,1000.67L466.922,1018.4" style="fill:none;stroke-width:0.68px;stroke:black;"/>
                </g>
            </g>
        </g>
        <g id="Reset">
            <rect x="800.306" y="636.233" width="38.909" height="26.928" style="fill:rgb(51,51,51);stroke-width:1px;stroke:black;"/>
            <g transform="matrix(1,0,0,1,-1.40428,-0.0972839)">
                <rect x="805.618" y="650.895" width="31.654" height="12.363" style="fill:rgb(179,179,179);stroke-width:1px;stroke:black;"/>
            </g>
            <g transform="matrix(1,0,0,1,-3.11495,0.0767834)">
                <rect x="813.313" y="655.727" width="19.703" height="5.352" style="fill:black;stroke-width:1px;stroke:black;"/>
            </g>
        </g>
    </g>
    <g id="Beschriftungen">
        <g transform="matrix(1,0,0,1,35.354,14.0616)">
            <path d="M415.261,594.158L415.261,575.546L417.724,575.546L417.724,591.961L426.89,591.961L426.89,594.158L415.261,594.158Z" style="fill:black;fill-rule:nonzero;"/>
            <path d="M427.778,594.158L434.926,575.546L437.579,575.546L445.196,594.158L442.391,594.158L440.22,588.521L432.437,588.521L430.393,594.158L427.778,594.158ZM433.148,586.515L439.458,586.515L437.516,581.361C436.923,579.795 436.483,578.508 436.195,577.501C435.958,578.695 435.624,579.88 435.192,581.056L433.148,586.515Z" style="fill:black;fill-rule:nonzero;"/>
            <path d="M447.139,594.158L447.139,575.546L449.665,575.546L459.44,590.158L459.44,575.546L461.802,575.546L461.802,594.158L459.275,594.158L449.5,579.533L449.5,594.158L447.139,594.158Z" style="fill:black;fill-rule:nonzero;"/>
        </g>
        <g transform="matrix(1,0,0,1,388.54,10.9987)">
            <path d="M414.614,594.158L414.614,582.704L419.692,582.704C420.713,582.704 421.489,582.807 422.02,583.013C422.552,583.219 422.976,583.582 423.294,584.103C423.612,584.624 423.77,585.199 423.77,585.829C423.77,586.642 423.507,587.327 422.981,587.884C422.455,588.441 421.643,588.796 420.544,588.947C420.945,589.139 421.25,589.329 421.458,589.517C421.901,589.923 422.32,590.431 422.716,591.04L424.708,594.158L422.802,594.158L421.286,591.775C420.843,591.087 420.479,590.561 420.192,590.197C419.906,589.832 419.649,589.577 419.423,589.431C419.196,589.285 418.966,589.184 418.731,589.126C418.559,589.09 418.278,589.072 417.888,589.072L416.13,589.072L416.13,594.158L414.614,594.158ZM416.13,587.759L419.388,587.759C420.08,587.759 420.622,587.687 421.013,587.544C421.403,587.401 421.7,587.172 421.903,586.857C422.106,586.542 422.208,586.199 422.208,585.829C422.208,585.288 422.011,584.842 421.618,584.493C421.225,584.144 420.604,583.97 419.755,583.97L416.13,583.97L416.13,587.759Z" style="fill:black;fill-rule:nonzero;"/>
            <path d="M431.645,591.486L433.099,591.665C432.869,592.514 432.445,593.173 431.825,593.642C431.205,594.111 430.414,594.345 429.45,594.345C428.237,594.345 427.274,593.971 426.563,593.224C425.852,592.477 425.497,591.428 425.497,590.079C425.497,588.684 425.856,587.6 426.575,586.829C427.294,586.059 428.226,585.673 429.372,585.673C430.481,585.673 431.388,586.051 432.091,586.806C432.794,587.561 433.145,588.624 433.145,589.993C433.145,590.077 433.143,590.202 433.138,590.368L426.95,590.368C427.002,591.28 427.26,591.978 427.724,592.462C428.187,592.947 428.765,593.189 429.458,593.189C429.974,593.189 430.414,593.053 430.778,592.783C431.143,592.512 431.432,592.079 431.645,591.486ZM427.028,589.212L431.661,589.212C431.599,588.514 431.421,587.991 431.13,587.642C430.682,587.1 430.101,586.829 429.388,586.829C428.742,586.829 428.199,587.046 427.759,587.478C427.319,587.91 427.075,588.488 427.028,589.212Z" style="fill:black;fill-rule:nonzero;"/>
            <path d="M434.302,591.681L435.692,591.462C435.77,592.019 435.988,592.447 436.345,592.743C436.701,593.04 437.2,593.189 437.841,593.189C438.487,593.189 438.966,593.057 439.278,592.794C439.591,592.531 439.747,592.223 439.747,591.868C439.747,591.551 439.609,591.301 439.333,591.118C439.14,590.993 438.661,590.835 437.895,590.642C436.864,590.381 436.149,590.156 435.751,589.966C435.352,589.776 435.05,589.513 434.845,589.177C434.639,588.841 434.536,588.47 434.536,588.064C434.536,587.694 434.621,587.352 434.79,587.036C434.959,586.721 435.19,586.46 435.481,586.251C435.7,586.09 435.998,585.953 436.376,585.841C436.753,585.729 437.158,585.673 437.591,585.673C438.242,585.673 438.813,585.767 439.306,585.954C439.798,586.142 440.161,586.396 440.395,586.716C440.63,587.036 440.791,587.465 440.88,588.001L439.505,588.189C439.442,587.762 439.261,587.428 438.962,587.189C438.662,586.949 438.239,586.829 437.692,586.829C437.046,586.829 436.586,586.936 436.309,587.15C436.033,587.363 435.895,587.613 435.895,587.9C435.895,588.082 435.953,588.246 436.067,588.392C436.182,588.543 436.362,588.668 436.606,588.767C436.747,588.819 437.161,588.939 437.849,589.126C438.843,589.392 439.537,589.609 439.931,589.779C440.324,589.948 440.632,590.194 440.856,590.517C441.08,590.84 441.192,591.241 441.192,591.72C441.192,592.189 441.056,592.63 440.782,593.044C440.509,593.458 440.114,593.779 439.599,594.005C439.083,594.232 438.5,594.345 437.849,594.345C436.77,594.345 435.949,594.121 435.384,593.673C434.819,593.225 434.458,592.561 434.302,591.681Z" style="fill:black;fill-rule:nonzero;"/>
            <path d="M448.544,591.486L449.997,591.665C449.768,592.514 449.343,593.173 448.724,593.642C448.104,594.111 447.312,594.345 446.349,594.345C445.135,594.345 444.173,593.971 443.462,593.224C442.751,592.477 442.395,591.428 442.395,590.079C442.395,588.684 442.755,587.6 443.474,586.829C444.192,586.059 445.125,585.673 446.27,585.673C447.38,585.673 448.286,586.051 448.989,586.806C449.692,587.561 450.044,588.624 450.044,589.993C450.044,590.077 450.041,590.202 450.036,590.368L443.849,590.368C443.901,591.28 444.158,591.978 444.622,592.462C445.086,592.947 445.664,593.189 446.356,593.189C446.872,593.189 447.312,593.053 447.677,592.783C448.041,592.512 448.33,592.079 448.544,591.486ZM443.927,589.212L448.559,589.212C448.497,588.514 448.32,587.991 448.028,587.642C447.58,587.1 447,586.829 446.286,586.829C445.64,586.829 445.097,587.046 444.657,587.478C444.217,587.91 443.974,588.488 443.927,589.212Z" style="fill:black;fill-rule:nonzero;"/>
            <path d="M454.833,592.9L455.036,594.142C454.64,594.225 454.286,594.267 453.974,594.267C453.463,594.267 453.067,594.186 452.786,594.025C452.505,593.863 452.307,593.651 452.192,593.388C452.078,593.125 452.02,592.572 452.02,591.728L452.02,586.954L450.989,586.954L450.989,585.861L452.02,585.861L452.02,583.806L453.419,582.962L453.419,585.861L454.833,585.861L454.833,586.954L453.419,586.954L453.419,591.806C453.419,592.207 453.444,592.465 453.493,592.579C453.543,592.694 453.623,592.785 453.735,592.853C453.847,592.921 454.007,592.954 454.216,592.954C454.372,592.954 454.578,592.936 454.833,592.9Z" style="fill:black;fill-rule:nonzero;"/>
        </g>
    </g>
    <g transform="matrix(1,0,0,1,-0.00756351,0.0736163)">
        <path d="M260.298,557.499L921.51,557.499" style="fill:none;stroke-width:2px;stroke:black;"/>
    </g>
</svg>
