<?xml version="1.0" standalone="no"?>
<!DOCTYPE svg PUBLIC "-//W3C//DTD SVG 1.1//EN" "http://www.w3.org/Graphics/SVG/1.1/DTD/svg11.dtd">
<svg width="100%" height="100%" viewBox="0 0 100 100" version="1.1" xmlns="http://www.w3.org/2000/svg" xmlns:xlink="http://www.w3.org/1999/xlink" xml:space="preserve" style="fill-rule:evenodd;clip-rule:evenodd;stroke-linecap:round;stroke-miterlimit:1.41421;">
    <circle cx="57.766" cy="49.436" r="23.93" style="fill:none;stroke-width:0.94px;stroke:#dc0067;" />
    <circle cx="57.766" cy="49.436" r="26.465" style="fill:none;stroke-width:2.34px;stroke:#dc0067;" />
    <circle cx="57.766" cy="49.436" r="26.465" stroke="#ffb400" fill="none" stroke-width="0.94px" stroke-linecap="round">
        <animate attributeName="stroke-dashoffset" dur="2s" repeatCount="indefinite" from="0" to="502"></animate>
        <animate attributeName="stroke-dasharray" dur="2s" repeatCount="indefinite" values="225.9 25.099999999999994;1 250;225.9 25.099999999999994"></animate>
    </circle>
    <circle cx="27.457" cy="59.82" r="17.833" style="fill:none;stroke-width:2.5px;stroke:#dc0067;" />
    <!-- <circle cx="27.457" cy="59.82" r="17.833" style="fill:none;stroke-width:1px;stroke:#fff;" /> -->
    <circle cx="27.457" cy="59.82" r="17.833" stroke="#ffb400" fill="none" stroke-width="1px" stroke-linecap="round">
        <animate attributeName="stroke-dashoffset" dur="2s" repeatCount="indefinite" from="0" to="502"></animate>
        <animate attributeName="stroke-dasharray" dur="2s" repeatCount="indefinite" values="225.9 25.099999999999994;1 250;225.9 25.099999999999994"></animate>
    </circle>
    <path d="M57.555,56.311l4.772,4.771l-6.441,0l-7.157,-7.157l7.157,-7.157l6.441,0l-4.772,4.771l14.53,0l0,4.772l-14.53,0Z" style="fill:#ffb400;" />
    <path d="M23.413,52.916l-2.489,-2.489l3.36,0l3.733,3.733l-3.733,3.733l-3.36,0l2.489,-2.489l-5.025,0l0,-2.488l5.025,0Z" style="fill:#ffb400;" />
</svg>
