<?xml version="1.0" standalone="no"?>
<!DOCTYPE svg PUBLIC "-//W3C//DTD SVG 1.1//EN" "http://www.w3.org/Graphics/SVG/1.1/DTD/svg11.dtd">
<svg width="100%" height="100%" viewBox="0 0 1280 1150" version="1.1" xmlns="http://www.w3.org/2000/svg" xmlns:xlink="http://www.w3.org/1999/xlink" xml:space="preserve" style="fill-rule:evenodd;clip-rule:evenodd;stroke-linecap:round;stroke-linejoin:round;stroke-miterlimit:1.41421;">
    <g id="Ebene1">
        <g transform="matrix(0.981956,-4.4742e-18,-4.41943e-18,1.01239,5.8796,-2.07574)">
            <path d="M682.285,167.504C879.005,167.504 1038.72,322.414 1038.72,513.22C1038.72,704.025 879.005,858.935 682.285,858.935C485.565,858.935 325.854,704.025 325.854,513.22C325.854,322.414 485.565,167.504 682.285,167.504ZM682.285,320.578C791.902,320.578 880.898,406.898 880.898,513.22C880.898,619.542 791.902,705.862 682.285,705.862C572.668,705.862 483.672,619.542 483.672,513.22C483.672,406.898 572.668,320.578 682.285,320.578Z" style="fill:rgb(206,206,206);stroke-width:0.45px;stroke:black;"/>
        </g>
        <g transform="matrix(0.981956,-4.4742e-18,-4.41943e-18,1.01239,-1.49781,-13.0396)">
            <path d="M682.285,167.504C879.005,167.504 1038.72,322.414 1038.72,513.22C1038.72,704.025 879.005,858.935 682.285,858.935C485.565,858.935 325.854,704.025 325.854,513.22C325.854,322.414 485.565,167.504 682.285,167.504ZM682.285,321.465C791.397,321.465 879.983,407.388 879.983,513.22C879.983,619.052 791.397,704.974 682.285,704.974C573.173,704.974 484.587,619.052 484.587,513.22C484.587,407.388 573.173,321.465 682.285,321.465Z" style="fill:rgb(230,178,127);stroke-width:0.45px;stroke:black;"/>
        </g>
        <g transform="matrix(1,0,0,1,-18.1806,114.211)">
            <text x="629.628px" y="503.512px" style="font-family:'RobotoRegular';font-size:288px;fill:black;">?</text>
        </g>
    </g>
</svg>
