<?xml version="1.0" standalone="no"?>
<!DOCTYPE svg PUBLIC "-//W3C//DTD SVG 1.1//EN" "http://www.w3.org/Graphics/SVG/1.1/DTD/svg11.dtd">
<svg width="100%" height="100%" viewBox="0 0 1280 1150" version="1.1" xmlns="http://www.w3.org/2000/svg" xmlns:xlink="http://www.w3.org/1999/xlink" xml:space="preserve" style="fill-rule:evenodd;clip-rule:evenodd;stroke-linecap:round;stroke-linejoin:round;stroke-miterlimit:1.41421;">
    <g id="Ebene2">
        <g id="drunter" transform="matrix(-0.720338,4.0811e-16,-3.6433e-16,-0.643063,1144.39,1522.16)">
            <path d="M103.846,834.306L103.846,829.36L114.756,822.625L1211.53,822.625L1222.82,829.36L1222.82,834.306L103.846,834.306Z" style="fill:rgb(216,218,217);stroke-width:0.73px;stroke:black;"/>
            <path d="M103.842,829.36L1222.75,829.36" style="fill:rgb(216,218,217);stroke-width:0.73px;stroke:black;"/>
        </g>
        <g id="Boden" transform="matrix(-1.00645,5.70209e-16,-5.66554e-16,-1,1330.24,1808.28)">
            <path d="M103.846,834.306L103.846,829.36L114.756,822.625L1211.53,822.625L1222.82,829.36L1222.82,834.306L103.846,834.306Z" style="fill:rgb(216,218,217);stroke-width:0.5px;stroke:black;"/>
            <path d="M103.842,829.36L1222.75,829.36" style="fill:rgb(216,218,217);stroke-width:0.5px;stroke:black;"/>
        </g>
        <g id="standgummis">
            <path d="M177.751,985.947L177.751,993.432C177.676,995.655 178.866,996.692 181.105,996.747L240.337,996.747C242.813,996.858 244.149,995.831 244.109,993.432L244.109,985.947L177.751,985.947Z" style="fill:black;stroke-width:1px;stroke:black;"/>
            <g transform="matrix(1,-2.44929e-16,2.44929e-16,1,905.912,5.16626e-14)">
                <path d="M177.751,985.947L177.751,993.432C177.676,995.655 178.866,996.692 181.105,996.747L240.337,996.747C242.813,996.858 244.149,995.831 244.109,993.432L244.109,985.947L177.751,985.947Z" style="fill:black;stroke-width:1px;stroke:black;"/>
            </g>
        </g>
        <g id="Deckel">
            <path d="M103.846,834.306L103.846,829.36L114.756,822.625L1211.53,822.625L1222.82,829.36L1222.82,834.306L103.846,834.306Z" style="fill:rgb(216,218,217);stroke-width:0.5px;stroke-linecap:butt;stroke:black;"/>
            <path d="M103.842,829.36L1222.75,829.36" style="fill:rgb(216,218,217);stroke-width:0.5px;stroke:black;"/>
        </g>
        <rect x="88.185" y="841.627" width="1150.03" height="123.932" style="fill:rgb(51,51,51);stroke-width:0.5px;stroke:black;"/>
        <g id="Mittelrippen">
            <g id="Rippe">
                <g transform="matrix(0.934201,0,0,0.945756,5.38543,46.5774)">
                    <path d="M1325.87,861.927C1325.87,860.123 1324.39,858.66 1322.56,858.66L85.153,858.66C83.328,858.66 81.846,860.123 81.846,861.927L81.846,869.691C81.846,871.494 83.328,872.958 85.153,872.958L1322.56,872.958C1324.39,872.958 1325.87,871.494 1325.87,869.691L1325.87,861.927Z" style="fill:rgb(77,77,77);stroke-width:0.53px;stroke:black;"/>
                </g>
                <g transform="matrix(11.5618,0,0,2.93472,-864.167,-1666.66)">
                    <rect x="81.823" y="861.451" width="100.514" height="2.756" style="fill:rgb(51,51,51);stroke-width:0.06px;stroke:black;"/>
                </g>
            </g>
            <g id="Rippe1" transform="matrix(1,0,0,1,0,25.9614)">
                <g transform="matrix(0.934201,0,0,0.945756,5.38543,46.5774)">
                    <path d="M1325.87,861.927C1325.87,860.123 1324.39,858.66 1322.56,858.66L85.153,858.66C83.328,858.66 81.846,860.123 81.846,861.927L81.846,869.691C81.846,871.494 83.328,872.958 85.153,872.958L1322.56,872.958C1324.39,872.958 1325.87,871.494 1325.87,869.691L1325.87,861.927Z" style="fill:rgb(77,77,77);stroke-width:0.53px;stroke:black;"/>
                </g>
                <g transform="matrix(11.5618,0,0,2.93472,-864.167,-1666.66)">
                    <rect x="81.823" y="861.451" width="100.514" height="2.756" style="fill:rgb(51,51,51);stroke-width:0.06px;stroke:black;"/>
                </g>
            </g>
            <g id="Rippe2" transform="matrix(1,0,0,1,0,51.1811)">
                <g transform="matrix(0.934201,0,0,0.945756,5.38543,46.5774)">
                    <path d="M1325.87,861.927C1325.87,860.123 1324.39,858.66 1322.56,858.66L85.153,858.66C83.328,858.66 81.846,860.123 81.846,861.927L81.846,869.691C81.846,871.494 83.328,872.958 85.153,872.958L1322.56,872.958C1324.39,872.958 1325.87,871.494 1325.87,869.691L1325.87,861.927Z" style="fill:rgb(77,77,77);stroke-width:0.53px;stroke:black;"/>
                </g>
                <g transform="matrix(11.5618,0,0,2.93472,-864.167,-1666.66)">
                    <rect x="81.823" y="861.451" width="100.514" height="2.756" style="fill:rgb(51,51,51);stroke-width:0.06px;stroke:black;"/>
                </g>
            </g>
            <g id="Rippe3" transform="matrix(1,0,0,1,0,76.4851)">
                <g transform="matrix(0.934201,0,0,0.945756,5.38543,46.5774)">
                    <path d="M1325.87,861.927C1325.87,860.123 1324.39,858.66 1322.56,858.66L85.153,858.66C83.328,858.66 81.846,860.123 81.846,861.927L81.846,869.691C81.846,871.494 83.328,872.958 85.153,872.958L1322.56,872.958C1324.39,872.958 1325.87,871.494 1325.87,869.691L1325.87,861.927Z" style="fill:rgb(77,77,77);stroke-width:0.53px;stroke:black;"/>
                </g>
                <g transform="matrix(11.5618,0,0,2.93472,-864.167,-1666.66)">
                    <rect x="81.823" y="861.451" width="100.514" height="2.756" style="fill:rgb(51,51,51);stroke-width:0.06px;stroke:black;"/>
                </g>
            </g>
            <g id="Rippe4" transform="matrix(1,0,0,1,0,-24.1256)">
                <g transform="matrix(0.934201,0,0,0.945756,5.38543,46.5774)">
                    <path d="M1325.87,861.927C1325.87,860.123 1324.39,858.66 1322.56,858.66L85.153,858.66C83.328,858.66 81.846,860.123 81.846,861.927L81.846,869.691C81.846,871.494 83.328,872.958 85.153,872.958L1322.56,872.958C1324.39,872.958 1325.87,871.494 1325.87,869.691L1325.87,861.927Z" style="fill:rgb(77,77,77);stroke-width:0.53px;stroke:black;"/>
                </g>
                <g transform="matrix(11.5618,0,0,2.93472,-864.167,-1666.66)">
                    <rect x="81.823" y="861.451" width="100.514" height="2.756" style="fill:rgb(51,51,51);stroke-width:0.06px;stroke:black;"/>
                </g>
            </g>
            <g id="Rippe5" transform="matrix(1,0,0,1,0,101.804)">
                <g transform="matrix(0.934201,0,0,0.945756,5.38543,46.5774)">
                    <path d="M1325.87,861.927C1325.87,860.123 1324.39,858.66 1322.56,858.66L85.153,858.66C83.328,858.66 81.846,860.123 81.846,861.927L81.846,869.691C81.846,871.494 83.328,872.958 85.153,872.958L1322.56,872.958C1324.39,872.958 1325.87,871.494 1325.87,869.691L1325.87,861.927Z" style="fill:rgb(77,77,77);stroke-width:0.53px;stroke:black;"/>
                </g>
                <g transform="matrix(11.5618,0,0,2.93472,-864.167,-1666.66)">
                    <rect x="81.823" y="861.451" width="100.514" height="2.756" style="fill:rgb(51,51,51);stroke-width:0.06px;stroke:black;"/>
                </g>
            </g>
        </g>
        <rect id="Blende" x="263.294" y="845.061" width="800.976" height="117.543" style="fill:rgb(52,59,79);stroke-width:0.5px;stroke:black;"/>
    </g>
    <g id="Antennen 1043">
        <g id="new Antenne 1043" transform="matrix(1.26803,0,0,1.26803,-209.245,6.92844)">
            <path d="M652.036,619.119L703.126,619.119L700.344,526.551L655.39,526.551L652.036,619.119Z" style="fill:rgb(49,49,49);stroke-width:0.39px;stroke-linecap:butt;stroke:black;"/>
            <rect x="665.084" y="199.138" width="27.899" height="28.754" style="fill:rgb(49,49,49);stroke-width:0.39px;stroke-linecap:butt;stroke:black;"/>
            <path d="M649.084,733.319L650.988,616.958C669.108,618.552 687.221,618.824 705.323,616.958L708.576,733.319C708.675,736.851 707.533,740.021 703.908,740.021L654.293,740.021C651.034,740.021 649.022,737.092 649.084,733.319Z" style="fill:rgb(51,51,51);stroke-width:0.39px;stroke-linecap:butt;stroke:black;"/>
            <g transform="matrix(0.909618,0,0,0.788626,86.9669,-5.46395)">
                <path d="M618.082,936.798L683.33,936.798" style="fill:none;stroke-width:0.46px;stroke:black;"/>
            </g>
            <path d="M650.848,597.162L650.848,612.298C668.997,614.545 687.229,614.718 705.566,612.298L705.566,597.162C687.342,599.115 669.101,598.905 650.848,597.162Z" style="fill:rgb(49,49,49);stroke-width:0.39px;stroke-linecap:butt;stroke:black;"/>
            <path d="M663.141,341.639L694.434,341.639L694.434,223.461L663.746,223.461L663.141,341.639Z" style="fill:rgb(49,49,49);stroke-width:0.39px;stroke-linecap:butt;stroke:black;"/>
            <path d="M651.347,593.426C669.264,594.991 687.044,594.958 704.694,593.426L703.132,552.011C686.546,553.968 669.625,553.864 652.419,552.011L651.347,593.426Z" style="fill:rgb(49,49,49);stroke-width:0.39px;stroke-linecap:butt;stroke:black;"/>
            <path d="M653.079,547.908C669.797,549.558 686.475,549.685 703.103,547.908L702.503,533.319C686.288,534.981 669.99,534.936 653.614,533.319L653.079,547.908Z" style="fill:rgb(49,49,49);stroke-width:0.39px;stroke-linecap:butt;stroke:black;"/>
            <path d="M653.614,529.948C669.993,531.254 686.296,531.355 702.503,529.948L697.191,338.329C685.178,340.346 673.138,340.435 661.07,338.329L653.614,529.948Z" style="fill:rgb(49,49,49);stroke-width:0.39px;stroke-linecap:butt;stroke:black;"/>
            <rect x="663.746" y="205.104" width="30.688" height="14.659" style="fill:rgb(49,49,49);stroke-width:0.39px;stroke-linecap:butt;stroke:black;"/>
            <path d="M663.687,200.966L694.443,200.966L694.443,144.136C688.239,128.631 671.247,128.6 663.687,144.136L663.687,200.966Z" style="fill:rgb(49,49,49);stroke-width:0.39px;stroke-linecap:butt;stroke:black;"/>
        </g>
        <g id="new Antenne 10431" transform="matrix(1.26803,0,0,1.26803,248.216,6.92844)">
            <path d="M652.036,619.119L703.126,619.119L700.344,526.551L655.39,526.551L652.036,619.119Z" style="fill:rgb(49,49,49);stroke-width:0.39px;stroke-linecap:butt;stroke:black;"/>
            <rect x="665.084" y="199.138" width="27.899" height="28.754" style="fill:rgb(49,49,49);stroke-width:0.39px;stroke-linecap:butt;stroke:black;"/>
            <path d="M649.084,733.319L650.988,616.958C669.108,618.552 687.221,618.824 705.323,616.958L708.576,733.319C708.675,736.851 707.533,740.021 703.908,740.021L654.293,740.021C651.034,740.021 649.022,737.092 649.084,733.319Z" style="fill:rgb(51,51,51);stroke-width:0.39px;stroke-linecap:butt;stroke:black;"/>
            <g transform="matrix(0.909618,0,0,0.788626,86.9669,-5.46395)">
                <path d="M618.082,936.798L683.33,936.798" style="fill:none;stroke-width:0.46px;stroke:black;"/>
            </g>
            <path d="M650.848,597.162L650.848,612.298C668.997,614.545 687.229,614.718 705.566,612.298L705.566,597.162C687.342,599.115 669.101,598.905 650.848,597.162Z" style="fill:rgb(49,49,49);stroke-width:0.39px;stroke-linecap:butt;stroke:black;"/>
            <path d="M663.141,341.639L694.434,341.639L694.434,223.461L663.746,223.461L663.141,341.639Z" style="fill:rgb(49,49,49);stroke-width:0.39px;stroke-linecap:butt;stroke:black;"/>
            <path d="M651.347,593.426C669.264,594.991 687.044,594.958 704.694,593.426L703.132,552.011C686.546,553.968 669.625,553.864 652.419,552.011L651.347,593.426Z" style="fill:rgb(49,49,49);stroke-width:0.39px;stroke-linecap:butt;stroke:black;"/>
            <path d="M653.079,547.908C669.797,549.558 686.475,549.685 703.103,547.908L702.503,533.319C686.288,534.981 669.99,534.936 653.614,533.319L653.079,547.908Z" style="fill:rgb(49,49,49);stroke-width:0.39px;stroke-linecap:butt;stroke:black;"/>
            <path d="M653.614,529.948C669.993,531.254 686.296,531.355 702.503,529.948L697.191,338.329C685.178,340.346 673.138,340.435 661.07,338.329L653.614,529.948Z" style="fill:rgb(49,49,49);stroke-width:0.39px;stroke-linecap:butt;stroke:black;"/>
            <rect x="663.746" y="205.104" width="30.688" height="14.659" style="fill:rgb(49,49,49);stroke-width:0.39px;stroke-linecap:butt;stroke:black;"/>
            <path d="M663.687,200.966L694.443,200.966L694.443,144.136C688.239,128.631 671.247,128.6 663.687,144.136L663.687,200.966Z" style="fill:rgb(49,49,49);stroke-width:0.39px;stroke-linecap:butt;stroke:black;"/>
        </g>
        <g id="new Antenne 10432" transform="matrix(1.26803,0,0,1.26803,-644.355,6.92844)">
            <path d="M652.036,619.119L703.126,619.119L700.344,526.551L655.39,526.551L652.036,619.119Z" style="fill:rgb(49,49,49);stroke-width:0.39px;stroke-linecap:butt;stroke:black;"/>
            <rect x="665.084" y="199.138" width="27.899" height="28.754" style="fill:rgb(49,49,49);stroke-width:0.39px;stroke-linecap:butt;stroke:black;"/>
            <path d="M649.084,733.319L650.988,616.958C669.108,618.552 687.221,618.824 705.323,616.958L708.576,733.319C708.675,736.851 707.533,740.021 703.908,740.021L654.293,740.021C651.034,740.021 649.022,737.092 649.084,733.319Z" style="fill:rgb(51,51,51);stroke-width:0.39px;stroke-linecap:butt;stroke:black;"/>
            <g transform="matrix(0.909618,0,0,0.788626,86.9669,-5.46395)">
                <path d="M618.082,936.798L683.33,936.798" style="fill:none;stroke-width:0.46px;stroke:black;"/>
            </g>
            <path d="M650.848,597.162L650.848,612.298C668.997,614.545 687.229,614.718 705.566,612.298L705.566,597.162C687.342,599.115 669.101,598.905 650.848,597.162Z" style="fill:rgb(49,49,49);stroke-width:0.39px;stroke-linecap:butt;stroke:black;"/>
            <path d="M663.141,341.639L694.434,341.639L694.434,223.461L663.746,223.461L663.141,341.639Z" style="fill:rgb(49,49,49);stroke-width:0.39px;stroke-linecap:butt;stroke:black;"/>
            <path d="M651.347,593.426C669.264,594.991 687.044,594.958 704.694,593.426L703.132,552.011C686.546,553.968 669.625,553.864 652.419,552.011L651.347,593.426Z" style="fill:rgb(49,49,49);stroke-width:0.39px;stroke-linecap:butt;stroke:black;"/>
            <path d="M653.079,547.908C669.797,549.558 686.475,549.685 703.103,547.908L702.503,533.319C686.288,534.981 669.99,534.936 653.614,533.319L653.079,547.908Z" style="fill:rgb(49,49,49);stroke-width:0.39px;stroke-linecap:butt;stroke:black;"/>
            <path d="M653.614,529.948C669.993,531.254 686.296,531.355 702.503,529.948L697.191,338.329C685.178,340.346 673.138,340.435 661.07,338.329L653.614,529.948Z" style="fill:rgb(49,49,49);stroke-width:0.39px;stroke-linecap:butt;stroke:black;"/>
            <rect x="663.746" y="205.104" width="30.688" height="14.659" style="fill:rgb(49,49,49);stroke-width:0.39px;stroke-linecap:butt;stroke:black;"/>
            <path d="M663.687,200.966L694.443,200.966L694.443,144.136C688.239,128.631 671.247,128.6 663.687,144.136L663.687,200.966Z" style="fill:rgb(49,49,49);stroke-width:0.39px;stroke-linecap:butt;stroke:black;"/>
        </g>
    </g>
    <g id="WAN" transform="matrix(-1,3.67394e-16,-3.67394e-16,-1,1010.62,1892.02)">
        <path d="M430.126,958.534L520.049,958.534L520.049,1035.48L430.126,1035.48L430.126,958.534" style="fill:rgb(0,158,224);stroke-width:1px;stroke:black;"/>
        <path d="M463.538,961.757L487.377,961.757L487.377,969.841L494.601,969.841L494.601,977.802L508.571,977.802L508.571,989.68L513.332,989.68L513.332,1005.6L508.571,1005.6L508.571,1018.27L440.482,1018.27L440.482,1005.6L437.015,1005.6L437.015,989.68L440.482,989.68L440.482,977.802L455.182,977.802L455.182,969.841L463.538,969.841L463.538,961.757" style="fill:rgb(166,229,255);stroke-width:1px;stroke:black;"/>
        <rect x="436.816" y="989.68" width="9.385" height="15.92" style="fill:black;stroke-width:1px;stroke:black;"/>
        <g transform="matrix(1,0,0,1,67.0669,-0.0235958)">
            <rect x="436.816" y="989.68" width="9.385" height="15.92" style="fill:black;stroke-width:1px;stroke:black;"/>
        </g>
        <path d="M450.462,1000.22L450.462,1012.69" style="fill:none;stroke-width:1px;stroke:black;"/>
        <g transform="matrix(1,0,0,1,5.18811,0.142889)">
            <path d="M450.462,1000.22L450.462,1012.69" style="fill:none;stroke-width:1px;stroke:black;"/>
        </g>
        <g transform="matrix(1,0,0,1,10.8216,0.142889)">
            <path d="M450.462,1000.22L450.462,1012.69" style="fill:none;stroke-width:1px;stroke:black;"/>
        </g>
        <g transform="matrix(1,0,0,1,22.0044,0.291919)">
            <path d="M450.462,1000.07L450.462,1012.69" style="fill:none;stroke-width:1px;stroke:black;"/>
        </g>
        <g transform="matrix(1,0,0,1,27.0496,0.291919)">
            <path d="M450.462,1000.05L450.462,1012.69" style="fill:none;stroke-width:1px;stroke:black;"/>
        </g>
        <g transform="matrix(1,0,0,1,49.4509,0.192566)">
            <path d="M450.462,1000.16L450.462,1012.69" style="fill:none;stroke-width:1px;stroke:black;"/>
        </g>
        <path d="M466.922,1000.38L466.922,1018.21" style="fill:none;stroke-width:1px;stroke:black;"/>
        <g transform="matrix(1,0,0,1,16.0399,-0.0558162)">
            <path d="M466.922,1000.41L466.922,1018.27" style="fill:none;stroke-width:1px;stroke:black;"/>
        </g>
        <g transform="matrix(1,0,0,1,21.7443,-0.154611)">
            <path d="M466.922,1000.5L466.922,1018.4" style="fill:none;stroke-width:1px;stroke:black;"/>
        </g>
        <g transform="matrix(1,0,0,1,27.6257,-0.353316)">
            <path d="M466.922,1000.67L466.922,1018.4" style="fill:none;stroke-width:1px;stroke:black;"/>
        </g>
    </g>
    <g id="lan4" transform="matrix(-1,1.22465e-16,-1.22465e-16,-1,1555.25,1892.09)">
        <g transform="matrix(3.73365,0,0,1,-1085.67,-0.000264784)">
            <path d="M430.126,958.534L520.049,958.534L520.049,1035.48L430.126,1035.48L430.126,958.534" style="fill:rgb(255,180,0);stroke-width:0.37px;stroke:black;"/>
        </g>
        <g transform="matrix(1,0,0,1,93.3029,-0.747357)">
            <path d="M463.538,961.757L487.377,961.757L487.377,969.841L494.601,969.841L494.601,977.802L508.571,977.802L508.571,989.68L513.332,989.68L513.332,1005.6L508.571,1005.6L508.571,1018.27L440.482,1018.27L440.482,1005.6L437.015,1005.6L437.015,989.68L440.482,989.68L440.482,977.802L455.182,977.802L455.182,969.841L463.538,969.841L463.538,961.757" style="fill:rgb(255,225,153);stroke-width:1px;stroke:black;"/>
        </g>
        <g transform="matrix(1,0,0,1,172.876,-0.661805)">
            <path d="M463.538,961.757L487.377,961.757L487.377,969.841L494.601,969.841L494.601,977.802L508.571,977.802L508.571,989.68L513.332,989.68L513.332,1005.6L508.571,1005.6L508.571,1018.27L440.482,1018.27L440.482,1005.6L437.015,1005.6L437.015,989.68L440.482,989.68L440.482,977.802L455.182,977.802L455.182,969.841L463.538,969.841L463.538,961.757" style="fill:rgb(255,225,153);stroke-width:1px;stroke:black;"/>
        </g>
        <g transform="matrix(1,0,0,1,252.488,-0.755912)">
            <path d="M463.538,961.757L487.377,961.757L487.377,969.841L494.601,969.841L494.601,977.802L508.571,977.802L508.571,989.68L513.332,989.68L513.332,1005.6L508.571,1005.6L508.571,1018.27L440.482,1018.27L440.482,1005.6L437.015,1005.6L437.015,989.68L440.482,989.68L440.482,977.802L455.182,977.802L455.182,969.841L463.538,969.841L463.538,961.757" style="fill:rgb(255,225,153);stroke-width:1px;stroke:black;"/>
        </g>
        <g transform="matrix(1,0,0,1,332.053,-0.509522)">
            <path d="M463.538,961.757L487.377,961.757L487.377,969.841L494.601,969.841L494.601,977.802L508.571,977.802L508.571,989.68L513.332,989.68L513.332,1005.6L508.571,1005.6L508.571,1018.27L440.482,1018.27L440.482,1005.6L437.015,1005.6L437.015,989.68L440.482,989.68L440.482,977.802L455.182,977.802L455.182,969.841L463.538,969.841L463.538,961.757" style="fill:rgb(255,225,153);stroke-width:1px;stroke:black;"/>
        </g>
        <g transform="matrix(1,0,0,1,93.3029,-0.747357)">
            <rect x="436.816" y="989.68" width="9.385" height="15.92" style="fill:black;stroke-width:1px;stroke:black;"/>
        </g>
        <g transform="matrix(1,0,0,1,172.876,-0.661805)">
            <rect x="436.816" y="989.68" width="9.385" height="15.92" style="fill:black;stroke-width:1px;stroke:black;"/>
        </g>
        <g transform="matrix(1,0,0,1,252.488,-0.755912)">
            <rect x="436.816" y="989.68" width="9.385" height="15.92" style="fill:black;stroke-width:1px;stroke:black;"/>
        </g>
        <g transform="matrix(1,0,0,1,332.053,-0.509522)">
            <rect x="436.816" y="989.68" width="9.385" height="15.92" style="fill:black;stroke-width:1px;stroke:black;"/>
        </g>
        <g transform="matrix(1,0,0,1,160.37,-0.770952)">
            <rect x="436.816" y="989.68" width="9.385" height="15.92" style="fill:black;stroke-width:1px;stroke:black;"/>
        </g>
        <g transform="matrix(1,0,0,1,239.942,-0.685401)">
            <rect x="436.816" y="989.68" width="9.385" height="15.92" style="fill:black;stroke-width:1px;stroke:black;"/>
        </g>
        <g transform="matrix(1,0,0,1,319.555,-0.779508)">
            <rect x="436.816" y="989.68" width="9.385" height="15.92" style="fill:black;stroke-width:1px;stroke:black;"/>
        </g>
        <g transform="matrix(1,0,0,1,399.12,-0.533118)">
            <rect x="436.816" y="989.68" width="9.385" height="15.92" style="fill:black;stroke-width:1px;stroke:black;"/>
        </g>
        <g transform="matrix(1,0,0,1,93.3029,-0.747357)">
            <path d="M450.462,1000.22L450.462,1012.69" style="fill:none;stroke-width:1px;stroke:black;"/>
        </g>
        <g transform="matrix(1,0,0,1,172.876,-0.661805)">
            <path d="M450.462,1000.22L450.462,1012.69" style="fill:none;stroke-width:1px;stroke:black;"/>
        </g>
        <g transform="matrix(1,0,0,1,252.488,-0.755912)">
            <path d="M450.462,1000.22L450.462,1012.69" style="fill:none;stroke-width:1px;stroke:black;"/>
        </g>
        <g transform="matrix(1,0,0,1,332.053,-0.509522)">
            <path d="M450.462,1000.22L450.462,1012.69" style="fill:none;stroke-width:1px;stroke:black;"/>
        </g>
        <g transform="matrix(1,0,0,1,98.491,-0.604467)">
            <path d="M450.462,1000.22L450.462,1012.69" style="fill:none;stroke-width:1px;stroke:black;"/>
        </g>
        <g transform="matrix(1,0,0,1,178.064,-0.518915)">
            <path d="M450.462,1000.22L450.462,1012.69" style="fill:none;stroke-width:1px;stroke:black;"/>
        </g>
        <g transform="matrix(1,0,0,1,257.676,-0.613022)">
            <path d="M450.462,1000.22L450.462,1012.69" style="fill:none;stroke-width:1px;stroke:black;"/>
        </g>
        <g transform="matrix(1,0,0,1,337.242,-0.366633)">
            <path d="M450.462,1000.22L450.462,1012.69" style="fill:none;stroke-width:1px;stroke:black;"/>
        </g>
        <g transform="matrix(1,0,0,1,104.125,-0.604467)">
            <path d="M450.462,1000.22L450.462,1012.69" style="fill:none;stroke-width:1px;stroke:black;"/>
        </g>
        <g transform="matrix(1,0,0,1,183.697,-0.518915)">
            <path d="M450.462,1000.22L450.462,1012.69" style="fill:none;stroke-width:1px;stroke:black;"/>
        </g>
        <g transform="matrix(1,0,0,1,263.309,-0.613022)">
            <path d="M450.462,1000.22L450.462,1012.69" style="fill:none;stroke-width:1px;stroke:black;"/>
        </g>
        <g transform="matrix(1,0,0,1,342.875,-0.366633)">
            <path d="M450.462,1000.22L450.462,1012.69" style="fill:none;stroke-width:1px;stroke:black;"/>
        </g>
        <g transform="matrix(1,0,0,1,115.307,-0.455438)">
            <path d="M450.462,1000.07L450.462,1012.69" style="fill:none;stroke-width:1px;stroke:black;"/>
        </g>
        <g transform="matrix(1,0,0,1,194.88,-0.369886)">
            <path d="M450.462,1000.07L450.462,1012.69" style="fill:none;stroke-width:1px;stroke:black;"/>
        </g>
        <g transform="matrix(1,0,0,1,274.492,-0.463993)">
            <path d="M450.462,1000.07L450.462,1012.69" style="fill:none;stroke-width:1px;stroke:black;"/>
        </g>
        <g transform="matrix(1,0,0,1,354.058,-0.217604)">
            <path d="M450.462,1000.07L450.462,1012.69" style="fill:none;stroke-width:1px;stroke:black;"/>
        </g>
        <g transform="matrix(1,0,0,1,120.353,-0.455438)">
            <path d="M450.462,1000.05L450.462,1012.69" style="fill:none;stroke-width:1px;stroke:black;"/>
        </g>
        <g transform="matrix(1,0,0,1,199.925,-0.369886)">
            <path d="M450.462,1000.05L450.462,1012.69" style="fill:none;stroke-width:1px;stroke:black;"/>
        </g>
        <g transform="matrix(1,0,0,1,279.537,-0.463993)">
            <path d="M450.462,1000.05L450.462,1012.69" style="fill:none;stroke-width:1px;stroke:black;"/>
        </g>
        <g transform="matrix(1,0,0,1,359.103,-0.217604)">
            <path d="M450.462,1000.05L450.462,1012.69" style="fill:none;stroke-width:1px;stroke:black;"/>
        </g>
        <g transform="matrix(1,0,0,1,142.754,-0.554791)">
            <path d="M450.462,1000.16L450.462,1012.69" style="fill:none;stroke-width:1px;stroke:black;"/>
        </g>
        <g transform="matrix(1,0,0,1,222.326,-0.469239)">
            <path d="M450.462,1000.16L450.462,1012.69" style="fill:none;stroke-width:1px;stroke:black;"/>
        </g>
        <g transform="matrix(1,0,0,1,301.939,-0.563346)">
            <path d="M450.462,1000.16L450.462,1012.69" style="fill:none;stroke-width:1px;stroke:black;"/>
        </g>
        <g transform="matrix(1,0,0,1,381.504,-0.316957)">
            <path d="M450.462,1000.16L450.462,1012.69" style="fill:none;stroke-width:1px;stroke:black;"/>
        </g>
        <g transform="matrix(1,0,0,1,93.3029,-0.747357)">
            <path d="M466.922,1000.38L466.922,1018.21" style="fill:none;stroke-width:1px;stroke:black;"/>
        </g>
        <g transform="matrix(1,0,0,1,172.876,-0.661805)">
            <path d="M466.922,1000.38L466.922,1018.21" style="fill:none;stroke-width:1px;stroke:black;"/>
        </g>
        <g transform="matrix(1,0,0,1,252.488,-0.755912)">
            <path d="M466.922,1000.38L466.922,1018.21" style="fill:none;stroke-width:1px;stroke:black;"/>
        </g>
        <g transform="matrix(1,0,0,1,332.053,-0.509522)">
            <path d="M466.922,1000.38L466.922,1018.21" style="fill:none;stroke-width:1px;stroke:black;"/>
        </g>
        <g transform="matrix(1,0,0,1,109.343,-0.803173)">
            <path d="M466.922,1000.41L466.922,1018.27" style="fill:none;stroke-width:1px;stroke:black;"/>
        </g>
        <g transform="matrix(1,0,0,1,188.915,-0.717621)">
            <path d="M466.922,1000.41L466.922,1018.27" style="fill:none;stroke-width:1px;stroke:black;"/>
        </g>
        <g transform="matrix(1,0,0,1,268.528,-0.811728)">
            <path d="M466.922,1000.41L466.922,1018.27" style="fill:none;stroke-width:1px;stroke:black;"/>
        </g>
        <g transform="matrix(1,0,0,1,348.093,-0.565338)">
            <path d="M466.922,1000.41L466.922,1018.27" style="fill:none;stroke-width:1px;stroke:black;"/>
        </g>
        <g transform="matrix(1,0,0,1,115.047,-0.901967)">
            <path d="M466.922,1000.5L466.922,1018.4" style="fill:none;stroke-width:1px;stroke:black;"/>
        </g>
        <g transform="matrix(1,0,0,1,194.62,-0.816415)">
            <path d="M466.922,1000.5L466.922,1018.4" style="fill:none;stroke-width:1px;stroke:black;"/>
        </g>
        <g transform="matrix(1,0,0,1,274.232,-0.910523)">
            <path d="M466.922,1000.5L466.922,1018.4" style="fill:none;stroke-width:1px;stroke:black;"/>
        </g>
        <g transform="matrix(1,0,0,1,353.798,-0.664133)">
            <path d="M466.922,1000.5L466.922,1018.4" style="fill:none;stroke-width:1px;stroke:black;"/>
        </g>
        <g transform="matrix(1,0,0,1,120.929,-1.10067)">
            <path d="M466.922,1000.67L466.922,1018.4" style="fill:none;stroke-width:1px;stroke:black;"/>
        </g>
        <g transform="matrix(1,0,0,1,200.501,-1.01512)">
            <path d="M466.922,1000.67L466.922,1018.4" style="fill:none;stroke-width:1px;stroke:black;"/>
        </g>
        <g transform="matrix(1,0,0,1,280.113,-1.10923)">
            <path d="M466.922,1000.67L466.922,1018.4" style="fill:none;stroke-width:1px;stroke:black;"/>
        </g>
        <g transform="matrix(1,0,0,1,359.679,-0.862839)">
            <path d="M466.922,1000.67L466.922,1018.4" style="fill:none;stroke-width:1px;stroke:black;"/>
        </g>
    </g>
    <g id="Power" transform="matrix(1,0,0,1,-62.5838,-99.7661)">
        <rect x="360.529" y="973.018" width="50.745" height="61.322" style="fill:rgb(72,72,74);stroke-width:3.5px;stroke:black;"/>
        <g transform="matrix(1,0,0,1,-0.754159,0.503051)">
            <ellipse cx="387.025" cy="998.035" rx="16.88" ry="17.207" style="fill:rgb(72,72,74);stroke-width:1px;stroke:black;"/>
        </g>
        <ellipse cx="386.992" cy="998.717" rx="8.879" ry="8.391" style="fill:rgb(99,100,102);stroke-width:1px;stroke:black;"/>
        <g transform="matrix(1,0,0,1,-0.111324,-0.214278)">
            <ellipse cx="387.249" cy="998.987" rx="5.203" ry="5.065" style="fill:rgb(216,217,218);stroke-width:3px;stroke:rgb(58,57,59);"/>
        </g>
        <path d="M378.699,1011.21L394.491,1011.21L394.491,1012.99L392.11,1014.15L380.447,1014.15L378.699,1013.38L378.699,1011.21Z" style="fill:rgb(47,45,46);stroke-width:0.1px;stroke:rgb(35,31,32);"/>
    </g>
    <g transform="matrix(1.10209,0,0,1.10209,-569.235,-204.319)">
        <g id="reset">
            <ellipse cx="882.113" cy="1013.72" rx="10.926" ry="10.594" style="fill:black;stroke-width:5.9px;stroke:rgb(204,204,204);"/>
        </g>
    </g>
    <g transform="matrix(0.89,0,0,1,-521.339,-26.4605)">
        <path d="M920.807,979.725L920.807,968.272L925.128,968.272C925.888,968.272 926.469,968.308 926.87,968.381C927.432,968.475 927.904,968.653 928.284,968.916C928.664,969.18 928.97,969.548 929.202,970.022C929.434,970.496 929.55,971.017 929.55,971.584C929.55,972.558 929.24,973.383 928.62,974.057C928,974.732 926.88,975.069 925.261,975.069L922.323,975.069L922.323,979.725L920.807,979.725ZM922.323,973.717L925.284,973.717C926.263,973.717 926.958,973.535 927.37,973.17C927.781,972.806 927.987,972.293 927.987,971.631C927.987,971.152 927.866,970.742 927.624,970.401C927.382,970.06 927.063,969.834 926.667,969.725C926.412,969.657 925.94,969.624 925.253,969.624L922.323,969.624L922.323,973.717Z" style="fill:rgb(216,218,217);fill-rule:nonzero;"/>
        <path d="M931.018,974.147C931.018,972.246 931.529,970.758 932.55,969.682C933.57,968.607 934.888,968.069 936.503,968.069C937.56,968.069 938.513,968.321 939.362,968.827C940.211,969.332 940.858,970.036 941.303,970.94C941.749,971.844 941.971,972.868 941.971,974.014C941.971,975.176 941.737,976.215 941.268,977.131C940.8,978.048 940.136,978.742 939.276,979.213C938.417,979.685 937.49,979.92 936.495,979.92C935.417,979.92 934.453,979.66 933.604,979.139C932.755,978.618 932.112,977.907 931.675,977.006C931.237,976.105 931.018,975.152 931.018,974.147ZM932.581,974.17C932.581,975.551 932.952,976.638 933.694,977.432C934.436,978.226 935.367,978.624 936.487,978.624C937.628,978.624 938.567,978.222 939.303,977.42C940.04,976.618 940.409,975.48 940.409,974.006C940.409,973.074 940.251,972.26 939.936,971.565C939.621,970.87 939.16,970.331 938.553,969.948C937.947,969.565 937.266,969.374 936.511,969.374C935.438,969.374 934.514,969.742 933.741,970.479C932.968,971.216 932.581,972.446 932.581,974.17Z" style="fill:rgb(216,218,217);fill-rule:nonzero;"/>
        <path d="M945.925,979.725L942.886,968.272L944.44,968.272L946.182,975.78C946.37,976.566 946.531,977.347 946.667,978.124C946.958,976.9 947.13,976.194 947.182,976.006L949.362,968.272L951.19,968.272L952.831,974.069C953.242,975.506 953.539,976.858 953.721,978.124C953.867,977.4 954.057,976.569 954.292,975.631L956.089,968.272L957.612,968.272L954.471,979.725L953.011,979.725L950.596,970.999C950.393,970.269 950.274,969.821 950.237,969.655C950.117,970.181 950.005,970.629 949.901,970.999L947.471,979.725L945.925,979.725Z" style="fill:rgb(216,218,217);fill-rule:nonzero;"/>
        <path d="M959.057,979.725L959.057,968.272L967.339,968.272L967.339,969.624L960.573,969.624L960.573,973.131L966.909,973.131L966.909,974.475L960.573,974.475L960.573,978.374L967.604,978.374L967.604,979.725L959.057,979.725Z" style="fill:rgb(216,218,217);fill-rule:nonzero;"/>
        <path d="M969.721,979.725L969.721,968.272L974.8,968.272C975.82,968.272 976.596,968.375 977.128,968.581C977.659,968.786 978.083,969.15 978.401,969.67C978.719,970.191 978.878,970.767 978.878,971.397C978.878,972.209 978.615,972.894 978.089,973.452C977.563,974.009 976.75,974.363 975.651,974.514C976.052,974.707 976.357,974.897 976.565,975.084C977.008,975.491 977.427,975.999 977.823,976.608L979.815,979.725L977.909,979.725L976.393,977.342C975.951,976.655 975.586,976.129 975.3,975.764C975.013,975.4 974.757,975.144 974.53,974.999C974.303,974.853 974.073,974.751 973.839,974.694C973.667,974.657 973.386,974.639 972.995,974.639L971.237,974.639L971.237,979.725L969.721,979.725ZM971.237,973.327L974.495,973.327C975.188,973.327 975.729,973.255 976.12,973.112C976.511,972.969 976.807,972.739 977.011,972.424C977.214,972.109 977.315,971.767 977.315,971.397C977.315,970.855 977.119,970.41 976.725,970.061C976.332,969.712 975.711,969.538 974.862,969.538L971.237,969.538L971.237,973.327Z" style="fill:rgb(216,218,217);fill-rule:nonzero;"/>
        <path d="M1015.07,979.725L1015.07,968.272L1020.14,968.272C1021.17,968.272 1021.94,968.375 1022.47,968.581C1023,968.786 1023.43,969.15 1023.75,969.67C1024.06,970.191 1024.22,970.767 1024.22,971.397C1024.22,972.209 1023.96,972.894 1023.43,973.452C1022.91,974.009 1022.09,974.363 1021,974.514C1021.4,974.707 1021.7,974.897 1021.91,975.084C1022.35,975.491 1022.77,975.999 1023.17,976.608L1025.16,979.725L1023.25,979.725L1021.74,977.342C1021.3,976.655 1020.93,976.129 1020.64,975.764C1020.36,975.4 1020.1,975.144 1019.87,974.999C1019.65,974.853 1019.42,974.751 1019.18,974.694C1019.01,974.657 1018.73,974.639 1018.34,974.639L1016.58,974.639L1016.58,979.725L1015.07,979.725ZM1016.58,973.327L1019.84,973.327C1020.53,973.327 1021.07,973.255 1021.46,973.112C1021.86,972.969 1022.15,972.739 1022.36,972.424C1022.56,972.109 1022.66,971.767 1022.66,971.397C1022.66,970.855 1022.46,970.41 1022.07,970.061C1021.68,969.712 1021.06,969.538 1020.21,969.538L1016.58,969.538L1016.58,973.327Z" style="fill:rgb(216,218,217);fill-rule:nonzero;"/>
        <path d="M1026.63,979.725L1026.63,968.272L1034.91,968.272L1034.91,969.624L1028.14,969.624L1028.14,973.131L1034.48,973.131L1034.48,974.475L1028.14,974.475L1028.14,978.374L1035.17,978.374L1035.17,979.725L1026.63,979.725Z" style="fill:rgb(216,218,217);fill-rule:nonzero;"/>
        <path d="M1036.75,976.045L1038.18,975.92C1038.25,976.493 1038.41,976.963 1038.65,977.331C1038.9,977.698 1039.29,977.995 1039.81,978.221C1040.33,978.448 1040.91,978.561 1041.57,978.561C1042.14,978.561 1042.65,978.475 1043.1,978.303C1043.54,978.131 1043.87,977.896 1044.09,977.596C1044.3,977.297 1044.41,976.97 1044.41,976.616C1044.41,976.256 1044.31,975.943 1044.1,975.674C1043.89,975.406 1043.55,975.181 1043.07,974.999C1042.76,974.879 1042.08,974.693 1041.03,974.44C1039.97,974.187 1039.24,973.949 1038.82,973.725C1038.27,973.439 1037.86,973.083 1037.59,972.659C1037.33,972.234 1037.19,971.759 1037.19,971.233C1037.19,970.655 1037.36,970.114 1037.68,969.612C1038.01,969.109 1038.49,968.728 1039.12,968.467C1039.75,968.207 1040.45,968.077 1041.22,968.077C1042.07,968.077 1042.82,968.213 1043.47,968.487C1044.12,968.76 1044.62,969.163 1044.96,969.694C1045.31,970.225 1045.5,970.827 1045.53,971.499L1044.07,971.608C1044,970.884 1043.73,970.337 1043.28,969.967C1042.83,969.597 1042.16,969.413 1041.28,969.413C1040.37,969.413 1039.7,969.581 1039.28,969.916C1038.86,970.252 1038.65,970.657 1038.65,971.131C1038.65,971.543 1038.8,971.881 1039.1,972.147C1039.39,972.413 1040.15,972.685 1041.38,972.963C1042.61,973.242 1043.46,973.486 1043.92,973.694C1044.58,974.001 1045.08,974.39 1045.39,974.862C1045.71,975.333 1045.87,975.876 1045.87,976.491C1045.87,977.1 1045.7,977.674 1045.35,978.213C1045,978.752 1044.5,979.172 1043.84,979.471C1043.19,979.771 1042.45,979.92 1041.64,979.92C1040.6,979.92 1039.73,979.769 1039.03,979.467C1038.33,979.165 1037.78,978.711 1037.38,978.104C1036.98,977.497 1036.77,976.811 1036.75,976.045Z" style="fill:rgb(216,218,217);fill-rule:nonzero;"/>
        <path d="M1047.97,979.725L1047.97,968.272L1056.25,968.272L1056.25,969.624L1049.49,969.624L1049.49,973.131L1055.82,973.131L1055.82,974.475L1049.49,974.475L1049.49,978.374L1056.52,978.374L1056.52,979.725L1047.97,979.725Z" style="fill:rgb(216,218,217);fill-rule:nonzero;"/>
        <path d="M1061.53,979.725L1061.53,969.624L1057.75,969.624L1057.75,968.272L1066.83,968.272L1066.83,969.624L1063.04,969.624L1063.04,979.725L1061.53,979.725Z" style="fill:rgb(216,218,217);fill-rule:nonzero;"/>
        <path d="M1088.91,968.272L1090.43,968.272L1090.43,974.889C1090.43,976.04 1090.3,976.954 1090.04,977.631C1089.78,978.308 1089.31,978.859 1088.63,979.284C1087.95,979.708 1087.06,979.92 1085.95,979.92C1084.88,979.92 1084,979.736 1083.32,979.366C1082.64,978.996 1082.15,978.461 1081.86,977.76C1081.57,977.06 1081.42,976.103 1081.42,974.889L1081.42,968.272L1082.94,968.272L1082.94,974.881C1082.94,975.876 1083.03,976.609 1083.21,977.081C1083.4,977.552 1083.72,977.915 1084.17,978.17C1084.62,978.426 1085.17,978.553 1085.82,978.553C1086.93,978.553 1087.73,978.301 1088.2,977.795C1088.68,977.29 1088.91,976.319 1088.91,974.881L1088.91,968.272Z" style="fill:rgb(216,218,217);fill-rule:nonzero;"/>
        <path d="M1092.44,976.045L1093.87,975.92C1093.93,976.493 1094.09,976.963 1094.34,977.331C1094.59,977.698 1094.97,977.995 1095.49,978.221C1096.01,978.448 1096.6,978.561 1097.25,978.561C1097.83,978.561 1098.34,978.475 1098.78,978.303C1099.22,978.131 1099.55,977.896 1099.77,977.596C1099.98,977.297 1100.09,976.97 1100.09,976.616C1100.09,976.256 1099.99,975.943 1099.78,975.674C1099.57,975.406 1099.23,975.181 1098.75,974.999C1098.44,974.879 1097.76,974.693 1096.71,974.44C1095.66,974.187 1094.92,973.949 1094.5,973.725C1093.95,973.439 1093.54,973.083 1093.28,972.659C1093.01,972.234 1092.87,971.759 1092.87,971.233C1092.87,970.655 1093.04,970.114 1093.37,969.612C1093.69,969.109 1094.17,968.728 1094.8,968.467C1095.43,968.207 1096.13,968.077 1096.9,968.077C1097.75,968.077 1098.5,968.213 1099.15,968.487C1099.8,968.76 1100.3,969.163 1100.65,969.694C1101,970.225 1101.18,970.827 1101.21,971.499L1099.76,971.608C1099.68,970.884 1099.41,970.337 1098.96,969.967C1098.51,969.597 1097.85,969.413 1096.97,969.413C1096.05,969.413 1095.38,969.581 1094.96,969.916C1094.54,970.252 1094.34,970.657 1094.34,971.131C1094.34,971.543 1094.48,971.881 1094.78,972.147C1095.07,972.413 1095.83,972.685 1097.07,972.963C1098.3,973.242 1099.14,973.486 1099.6,973.694C1100.27,974.001 1100.76,974.39 1101.08,974.862C1101.39,975.333 1101.55,975.876 1101.55,976.491C1101.55,977.1 1101.38,977.674 1101.03,978.213C1100.68,978.752 1100.18,979.172 1099.53,979.471C1098.87,979.771 1098.14,979.92 1097.32,979.92C1096.28,979.92 1095.41,979.769 1094.71,979.467C1094.01,979.165 1093.46,978.711 1093.07,978.104C1092.67,977.497 1092.46,976.811 1092.44,976.045Z" style="fill:rgb(216,218,217);fill-rule:nonzero;"/>
        <path d="M1103.56,979.725L1103.56,968.272L1107.86,968.272C1108.73,968.272 1109.43,968.388 1109.96,968.62C1110.49,968.851 1110.91,969.208 1111.21,969.69C1111.51,970.172 1111.65,970.676 1111.65,971.202C1111.65,971.691 1111.52,972.152 1111.26,972.584C1110.99,973.017 1110.59,973.366 1110.05,973.631C1110.75,973.834 1111.28,974.181 1111.65,974.67C1112.02,975.16 1112.21,975.738 1112.21,976.405C1112.21,976.941 1112.1,977.44 1111.87,977.901C1111.64,978.362 1111.36,978.717 1111.03,978.967C1110.7,979.217 1110.28,979.406 1109.78,979.534C1109.27,979.661 1108.66,979.725 1107.93,979.725L1103.56,979.725ZM1105.08,973.084L1107.55,973.084C1108.23,973.084 1108.71,973.04 1109,972.952C1109.38,972.837 1109.67,972.647 1109.87,972.381C1110.07,972.116 1110.16,971.782 1110.16,971.381C1110.16,971.001 1110.07,970.666 1109.89,970.377C1109.71,970.088 1109.45,969.89 1109.11,969.784C1108.77,969.677 1108.19,969.624 1107.37,969.624L1105.08,969.624L1105.08,973.084ZM1105.08,978.374L1107.93,978.374C1108.42,978.374 1108.76,978.355 1108.96,978.319C1109.31,978.256 1109.6,978.152 1109.84,978.006C1110.07,977.861 1110.26,977.648 1110.41,977.37C1110.56,977.091 1110.64,976.769 1110.64,976.405C1110.64,975.978 1110.53,975.607 1110.31,975.291C1110.09,974.976 1109.79,974.755 1109.4,974.627C1109.01,974.5 1108.45,974.436 1107.73,974.436L1105.08,974.436L1105.08,978.374Z" style="fill:rgb(216,218,217);fill-rule:nonzero;"/>
        <path d="M1174.39,979.725L1171.36,968.272L1172.91,968.272L1174.65,975.78C1174.84,976.566 1175,977.347 1175.14,978.124C1175.43,976.9 1175.6,976.194 1175.65,976.006L1177.83,968.272L1179.66,968.272L1181.3,974.069C1181.71,975.506 1182.01,976.858 1182.19,978.124C1182.34,977.4 1182.53,976.569 1182.76,975.631L1184.56,968.272L1186.08,968.272L1182.94,979.725L1181.48,979.725L1179.07,970.999C1178.86,970.269 1178.74,969.821 1178.71,969.655C1178.59,970.181 1178.48,970.629 1178.37,970.999L1175.94,979.725L1174.39,979.725Z" style="fill:rgb(216,218,217);fill-rule:nonzero;"/>
        <path d="M1185.57,979.725L1189.97,968.272L1191.6,968.272L1196.29,979.725L1194.56,979.725L1193.23,976.256L1188.44,976.256L1187.18,979.725L1185.57,979.725ZM1188.88,975.022L1192.76,975.022L1191.56,971.85C1191.2,970.887 1190.93,970.095 1190.75,969.475C1190.61,970.209 1190.4,970.939 1190.13,971.663L1188.88,975.022Z" style="fill:rgb(216,218,217);fill-rule:nonzero;"/>
        <path d="M1197.49,979.725L1197.49,968.272L1199.04,968.272L1205.06,977.264L1205.06,968.272L1206.51,968.272L1206.51,979.725L1204.95,979.725L1198.94,970.725L1198.94,979.725L1197.49,979.725Z" style="fill:rgb(216,218,217);fill-rule:nonzero;"/>
        <path d="M1428.71,979.725L1427.3,979.725L1427.3,970.764C1426.96,971.087 1426.52,971.41 1425.97,971.733C1425.42,972.056 1424.93,972.298 1424.49,972.459L1424.49,971.1C1425.28,970.73 1425.96,970.282 1426.55,969.756C1427.14,969.23 1427.56,968.72 1427.8,968.225L1428.71,968.225L1428.71,979.725Z" style="fill:rgb(216,218,217);fill-rule:nonzero;"/>
        <path d="M1520.59,978.374L1520.59,979.725L1513.02,979.725C1513.01,979.387 1513.07,979.061 1513.18,978.749C1513.38,978.233 1513.69,977.725 1514.11,977.225C1514.54,976.725 1515.15,976.147 1515.95,975.491C1517.2,974.47 1518.04,973.661 1518.48,973.065C1518.91,972.469 1519.13,971.905 1519.13,971.374C1519.13,970.816 1518.93,970.346 1518.53,969.963C1518.13,969.581 1517.62,969.389 1516.98,969.389C1516.3,969.389 1515.76,969.592 1515.35,969.999C1514.94,970.405 1514.74,970.967 1514.73,971.686L1513.29,971.538C1513.39,970.459 1513.76,969.638 1514.4,969.073C1515.05,968.508 1515.92,968.225 1517.01,968.225C1518.11,968.225 1518.98,968.53 1519.62,969.139C1520.26,969.749 1520.58,970.504 1520.58,971.405C1520.58,971.863 1520.48,972.314 1520.3,972.756C1520.11,973.199 1519.8,973.665 1519.36,974.155C1518.93,974.644 1518.2,975.316 1517.19,976.17C1516.35,976.879 1515.81,977.359 1515.57,977.612C1515.33,977.864 1515.13,978.118 1514.98,978.374L1520.59,978.374Z" style="fill:rgb(216,218,217);fill-rule:nonzero;"/>
        <path d="M1603,976.702L1604.4,976.514C1604.57,977.311 1604.84,977.885 1605.23,978.237C1605.62,978.588 1606.09,978.764 1606.65,978.764C1607.31,978.764 1607.87,978.535 1608.32,978.077C1608.78,977.618 1609.01,977.051 1609.01,976.374C1609.01,975.728 1608.8,975.195 1608.37,974.776C1607.95,974.357 1607.41,974.147 1606.76,974.147C1606.5,974.147 1606.17,974.199 1605.77,974.303L1605.93,973.069C1606.02,973.079 1606.1,973.084 1606.15,973.084C1606.75,973.084 1607.29,972.928 1607.77,972.616C1608.25,972.303 1608.49,971.821 1608.49,971.17C1608.49,970.655 1608.32,970.228 1607.97,969.889C1607.62,969.551 1607.17,969.381 1606.62,969.381C1606.07,969.381 1605.61,969.553 1605.25,969.897C1604.88,970.241 1604.65,970.756 1604.55,971.444L1603.14,971.194C1603.31,970.251 1603.7,969.521 1604.31,969.002C1604.92,968.484 1605.68,968.225 1606.58,968.225C1607.21,968.225 1607.79,968.359 1608.31,968.627C1608.84,968.896 1609.24,969.262 1609.52,969.725C1609.8,970.189 1609.94,970.681 1609.94,971.202C1609.94,971.696 1609.8,972.147 1609.54,972.553C1609.27,972.959 1608.88,973.282 1608.36,973.522C1609.04,973.678 1609.56,974.002 1609.94,974.495C1610.31,974.987 1610.5,975.603 1610.5,976.342C1610.5,977.342 1610.13,978.19 1609.4,978.885C1608.67,979.581 1607.75,979.928 1606.64,979.928C1605.63,979.928 1604.8,979.629 1604.13,979.03C1603.47,978.431 1603.09,977.655 1603,976.702Z" style="fill:rgb(216,218,217);fill-rule:nonzero;"/>
        <path d="M1693.28,979.725L1693.28,976.983L1688.32,976.983L1688.32,975.694L1693.54,968.272L1694.69,968.272L1694.69,975.694L1696.24,975.694L1696.24,976.983L1694.69,976.983L1694.69,979.725L1693.28,979.725ZM1693.28,975.694L1693.28,970.53L1689.7,975.694L1693.28,975.694Z" style="fill:rgb(216,218,217);fill-rule:nonzero;"/>
    </g>
    <g id="USB Port Hochkant" transform="matrix(1,0,0,1,-370.568,-100.62)">
        <g transform="matrix(1.24266,0,0,1.04702,-187.856,-45.2159)">
            <rect x="797.162" y="952.18" width="35.211" height="82.069" style="fill:rgb(49,49,49);stroke-width:0.87px;stroke:black;"/>
        </g>
        <g transform="matrix(0.939579,0,0,0.964472,49.6788,34.9392)">
            <path d="M844.035,961.651C838.659,962.357 842.018,957.286 840.263,955.504C838.409,953.621 833.887,957.121 833.851,951.73L813.483,951.73C813.06,958.195 809.277,954.793 807.442,956.539C805.548,958.341 809.127,962.125 803.299,961.651L803.299,1027.15C809.777,1026.59 805.868,1031.08 807.46,1033.07C808.993,1034.98 813.523,1031.2 813.484,1036.95C813.484,1037.02 813.536,1037.07 813.6,1037.07C815.252,1037.07 833.851,1037.07 833.851,1037.07C833.819,1031.53 837.723,1034.41 839.72,1033.19C841.739,1031.96 837.786,1027.04 844.035,1027.15L844.035,961.651Z" style="fill:rgb(130,115,92);stroke-width:3.15px;stroke:rgb(203,203,203);"/>
        </g>
        <g transform="matrix(1,0,0,1,-0.730877,0.338846)">
            <rect x="822.968" y="966.895" width="5.718" height="8.772" style="fill:black;stroke-width:0.5px;stroke:black;"/>
        </g>
        <g transform="matrix(1,0,0,1,-0.794451,13.8694)">
            <rect x="822.968" y="966.895" width="5.718" height="8.772" style="fill:black;stroke-width:0.5px;stroke:black;"/>
        </g>
        <g transform="matrix(1,0,0,1,-0.812951,26.3374)">
            <rect x="822.968" y="966.895" width="5.718" height="8.772" style="fill:black;stroke-width:0.5px;stroke:black;"/>
        </g>
        <g transform="matrix(1,0,0,1,-0.864451,40.5344)">
            <rect x="822.968" y="966.895" width="5.718" height="8.772" style="fill:black;stroke-width:0.5px;stroke:black;"/>
        </g>
        <g transform="matrix(1,0,0,1.03333,0,-34.1453)">
            <rect x="814.95" y="963.194" width="9.175" height="61.293" style="fill:rgb(203,203,203);stroke-width:0.49px;stroke:black;"/>
        </g>
    </g>
</svg>
