<?xml version="1.0" standalone="no"?><!DOCTYPE svg PUBLIC "-//W3C//DTD SVG 1.1//EN" "http://www.w3.org/Graphics/SVG/1.1/DTD/svg11.dtd"><svg width="100%" height="100%" viewBox="0 0 1280 1150" version="1.1" xmlns="http://www.w3.org/2000/svg" xmlns:xlink="http://www.w3.org/1999/xlink" xml:space="preserve" style="fill-rule:evenodd;clip-rule:evenodd;stroke-linecap:round;stroke-linejoin:round;stroke-miterlimit:1.41421;"><path id="Außen" d="M286.509,269.256l733.126,0l89.187,89.188l0,472.456c-31.195,29.613 -60.794,55.742 -77.855,54.51l-919.836,0l0,-466.939l129.732,-130.201c14.619,-13.795 29.513,-19.014 45.646,-19.014Z" style="fill:#e0ba2e;stroke-width:3px;stroke:#000;"/><path d="M244.371,793.875l-86.72,0l-25.85,-49.9l0,-298.103l21.669,0l0,-23.905l-32.734,0l0,437.021l11.065,20.742l112.57,0l0,-24.752l-75.4,0l-11.32,-11.968l0,-22.764l86.72,0l0,-26.371Z" style="fill:#ffe9ae;stroke-width:1px;stroke:#2c2c49;"/><path d="M240.863,843.979l0,38.116l30.521,0l0,-38.116l821.61,0l14.787,-13.965l0,-470.98l-46.439,-46.012l-789.958,0l0,-38.292l-6.192,0l-24.329,21.777l0,547.472Z" style="fill:#a3377c;stroke-width:0.8px;stroke:#000;"/><path d="M347.08,550.445c0,-15.376 -12.483,-27.859 -27.859,-27.859l-23.738,0c-15.376,0 -27.86,12.483 -27.86,27.859l0,22.217c0,15.376 12.484,27.86 27.86,27.86l23.738,0c15.376,0 27.859,-12.484 27.859,-27.86l0,-22.217Z" style="fill:#f0e8af;"/><path d="M319.401,522.586l0.18,0.002l0.179,0.003l0.18,0.004l0.178,0.005l0.179,0.006l0.179,0.007l0.178,0.009l0.177,0.01l0.178,0.01l0.177,0.012l0.177,0.013l0.177,0.014l0.176,0.015l0.176,0.016l0.176,0.018l0.175,0.018l0.175,0.019l0.175,0.021l0.174,0.022l0.174,0.022l0.174,0.024l0.173,0.025l0.173,0.026l0.173,0.027l0.172,0.028l0.172,0.029l0.172,0.03l0.171,0.031l0.171,0.033l0.17,0.033l0.171,0.034l0.169,0.035l0.17,0.037l0.169,0.037l0.168,0.039l0.169,0.039l0.167,0.04l0.168,0.042l0.167,0.042l0.167,0.044l0.166,0.044l0.166,0.046l0.165,0.046l0.165,0.048l0.165,0.048l0.164,0.05l0.164,0.05l0.163,0.051l0.163,0.053l0.162,0.053l0.162,0.054l0.162,0.056l0.161,0.056l0.161,0.057l0.16,0.058l0.16,0.059l0.159,0.06l0.159,0.061l0.158,0.062l0.158,0.063l0.157,0.064l0.157,0.065l0.157,0.065l0.156,0.067l0.155,0.068l0.155,0.068l0.155,0.069l0.154,0.07l0.153,0.072l0.153,0.072l0.153,0.073l0.152,0.073l0.151,0.075l0.151,0.076l0.15,0.076l0.15,0.078l0.15,0.078l0.149,0.079l0.148,0.08l0.148,0.081l0.147,0.082l0.146,0.082l0.147,0.084l0.145,0.084l0.145,0.085l0.145,0.086l0.143,0.087l0.144,0.088l0.143,0.089l0.142,0.089l0.141,0.09l0.141,0.091l0.141,0.092l0.14,0.093l0.139,0.093l0.139,0.095l0.138,0.095l0.137,0.096l0.137,0.096l0.136,0.098l0.136,0.098l0.135,0.099l0.134,0.1l0.134,0.101l0.133,0.102l0.133,0.102l0.132,0.103l0.131,0.104l0.131,0.104l0.13,0.106l0.129,0.106l0.129,0.107l0.128,0.107l0.127,0.109l0.127,0.109l0.126,0.11l0.125,0.11l0.125,0.112l0.124,0.112l0.123,0.112l0.123,0.114l0.122,0.114l0.121,0.115l0.121,0.116l0.12,0.116l0.119,0.118l0.119,0.117l0.118,0.119l0.117,0.119l0.116,0.12l0.116,0.121l0.115,0.121l0.114,0.122l0.114,0.123l0.112,0.123l0.112,0.124l0.112,0.125l0.11,0.125l0.11,0.126l0.109,0.127l0.109,0.127l0.107,0.128l0.107,0.129l0.106,0.13l0.106,0.129l0.104,0.131l0.104,0.131l0.103,0.132l0.102,0.133l0.102,0.133l0.101,0.134l0.1,0.134l0.099,0.135l0.098,0.136l0.098,0.136l0.096,0.137l0.096,0.137l0.095,0.138l0.095,0.139l0.093,0.139l0.093,0.14l0.092,0.141l0.091,0.141l0.09,0.141l0.089,0.142l0.089,0.143l0.088,0.144l0.087,0.143l0.086,0.145l0.085,0.145l0.084,0.145l0.084,0.147l0.082,0.146l0.082,0.147l0.081,0.148l0.08,0.148l0.079,0.149l0.078,0.15l0.078,0.15l0.076,0.15l0.076,0.151l0.075,0.151l0.073,0.152l0.073,0.153l0.072,0.153l0.072,0.153l0.07,0.154l0.069,0.155l0.069,0.155l0.067,0.155l0.067,0.156l0.065,0.157l0.065,0.157l0.064,0.157l0.063,0.158l0.062,0.158l0.061,0.159l0.06,0.159l0.059,0.16l0.058,0.16l0.057,0.161l0.056,0.161l0.056,0.162l0.054,0.162l0.053,0.162l0.053,0.163l0.051,0.163l0.05,0.164l0.05,0.164l0.048,0.165l0.048,0.165l0.046,0.165l0.046,0.166l0.044,0.166l0.044,0.167l0.042,0.167l0.042,0.168l0.04,0.167l0.039,0.169l0.039,0.168l0.037,0.169l0.037,0.17l0.035,0.169l0.034,0.171l0.034,0.17l0.032,0.171l0.031,0.171l0.03,0.172l0.029,0.172l0.028,0.172l0.027,0.173l0.026,0.173l0.025,0.173l0.024,0.174l0.022,0.174l0.022,0.174l0.021,0.175l0.019,0.175l0.018,0.175l0.018,0.176l0.016,0.176l0.015,0.176l0.014,0.177l0.013,0.177l0.012,0.177l0.011,0.178l0.009,0.177l0.009,0.178l0.007,0.179l0.006,0.179l0.005,0.179l0.004,0.179l0.003,0.179l0.002,0.18l0,0.18l0,22.217l0,0.18l-0.002,0.18l-0.003,0.179l-0.004,0.18l-0.005,0.179l-0.006,0.178l-0.007,0.179l-0.009,0.178l-0.009,0.178l-0.011,0.177l-0.012,0.177l-0.013,0.177l-0.014,0.177l-0.015,0.176l-0.016,0.176l-0.018,0.176l-0.018,0.175l-0.019,0.175l-0.021,0.175l-0.022,0.174l-0.022,0.174l-0.024,0.174l-0.025,0.173l-0.026,0.173l-0.027,0.173l-0.028,0.172l-0.029,0.172l-0.03,0.172l-0.031,0.171l-0.032,0.171l-0.034,0.171l-0.034,0.17l-0.035,0.17l-0.037,0.169l-0.037,0.169l-0.039,0.169l-0.039,0.168l-0.04,0.168l-0.042,0.167l-0.042,0.167l-0.044,0.167l-0.044,0.166l-0.046,0.166l-0.046,0.165l-0.048,0.165l-0.048,0.165l-0.05,0.164l-0.05,0.164l-0.051,0.163l-0.053,0.163l-0.053,0.162l-0.054,0.162l-0.056,0.162l-0.056,0.161l-0.057,0.161l-0.058,0.16l-0.059,0.16l-0.06,0.159l-0.061,0.159l-0.062,0.158l-0.063,0.158l-0.064,0.157l-0.065,0.157l-0.065,0.157l-0.067,0.156l-0.067,0.155l-0.069,0.155l-0.069,0.155l-0.07,0.154l-0.072,0.153l-0.072,0.153l-0.073,0.153l-0.073,0.152l-0.075,0.151l-0.076,0.151l-0.076,0.151l-0.078,0.149l-0.078,0.15l-0.079,0.149l-0.08,0.148l-0.081,0.148l-0.082,0.147l-0.082,0.147l-0.084,0.146l-0.084,0.145l-0.085,0.145l-0.086,0.145l-0.087,0.144l-0.088,0.143l-0.089,0.143l-0.089,0.142l-0.09,0.141l-0.091,0.141l-0.092,0.141l-0.093,0.14l-0.093,0.139l-0.095,0.139l-0.095,0.138l-0.096,0.137l-0.096,0.137l-0.098,0.136l-0.098,0.136l-0.099,0.135l-0.1,0.134l-0.101,0.134l-0.102,0.133l-0.102,0.133l-0.103,0.132l-0.104,0.131l-0.104,0.131l-0.106,0.13l-0.106,0.129l-0.107,0.129l-0.107,0.128l-0.109,0.127l-0.109,0.127l-0.11,0.126l-0.11,0.125l-0.112,0.125l-0.112,0.124l-0.112,0.123l-0.114,0.123l-0.114,0.122l-0.115,0.121l-0.116,0.121l-0.116,0.12l-0.117,0.119l-0.118,0.119l-0.119,0.118l-0.119,0.117l-0.12,0.116l-0.121,0.116l-0.121,0.115l-0.122,0.114l-0.123,0.114l-0.123,0.113l-0.124,0.112l-0.125,0.111l-0.125,0.111l-0.126,0.109l-0.127,0.11l-0.127,0.108l-0.128,0.108l-0.129,0.106l-0.129,0.107l-0.13,0.105l-0.131,0.104l-0.131,0.104l-0.132,0.103l-0.133,0.103l-0.133,0.101l-0.134,0.101l-0.134,0.1l-0.135,0.099l-0.136,0.098l-0.136,0.098l-0.137,0.096l-0.137,0.096l-0.138,0.096l-0.139,0.094l-0.139,0.093l-0.14,0.093l-0.141,0.092l-0.141,0.091l-0.141,0.09l-0.142,0.09l-0.143,0.088l-0.144,0.088l-0.143,0.087l-0.145,0.086l-0.145,0.085l-0.145,0.084l-0.147,0.084l-0.146,0.082l-0.147,0.082l-0.148,0.081l-0.148,0.08l-0.149,0.079l-0.15,0.078l-0.15,0.078l-0.15,0.076l-0.151,0.076l-0.151,0.075l-0.152,0.074l-0.153,0.072l-0.153,0.073l-0.153,0.071l-0.154,0.07l-0.155,0.069l-0.155,0.069l-0.155,0.067l-0.156,0.067l-0.157,0.065l-0.157,0.065l-0.157,0.064l-0.158,0.063l-0.158,0.062l-0.159,0.061l-0.159,0.06l-0.16,0.059l-0.16,0.058l-0.161,0.057l-0.161,0.056l-0.162,0.056l-0.162,0.054l-0.162,0.053l-0.163,0.053l-0.163,0.051l-0.164,0.051l-0.164,0.049l-0.165,0.048l-0.165,0.048l-0.165,0.046l-0.166,0.046l-0.166,0.044l-0.167,0.044l-0.167,0.042l-0.168,0.042l-0.167,0.04l-0.169,0.04l-0.168,0.038l-0.169,0.037l-0.17,0.037l-0.169,0.035l-0.171,0.034l-0.17,0.034l-0.171,0.032l-0.171,0.031l-0.172,0.03l-0.172,0.029l-0.172,0.028l-0.173,0.027l-0.173,0.026l-0.173,0.025l-0.174,0.024l-0.174,0.023l-0.174,0.021l-0.175,0.021l-0.175,0.019l-0.175,0.019l-0.176,0.017l-0.176,0.016l-0.176,0.015l-0.177,0.014l-0.177,0.013l-0.177,0.012l-0.178,0.011l-0.177,0.009l-0.178,0.009l-0.179,0.007l-0.179,0.006l-0.178,0.005l-0.18,0.004l-0.179,0.003l-0.18,0.002l-0.18,0.001l-23.738,0l-0.18,-0.001l-0.18,-0.002l-0.18,-0.003l-0.179,-0.004l-0.179,-0.005l-0.179,-0.006l-0.178,-0.007l-0.178,-0.009l-0.178,-0.009l-0.177,-0.011l-0.178,-0.012l-0.177,-0.013l-0.176,-0.014l-0.176,-0.015l-0.176,-0.016l-0.176,-0.017l-0.175,-0.019l-0.175,-0.019l-0.175,-0.021l-0.175,-0.021l-0.174,-0.023l-0.173,-0.024l-0.174,-0.025l-0.173,-0.026l-0.172,-0.027l-0.173,-0.028l-0.172,-0.029l-0.171,-0.03l-0.171,-0.031l-0.171,-0.032l-0.171,-0.034l-0.17,-0.034l-0.17,-0.035l-0.169,-0.037l-0.169,-0.037l-0.169,-0.038l-0.168,-0.04l-0.168,-0.04l-0.167,-0.042l-0.167,-0.042l-0.167,-0.044l-0.166,-0.044l-0.166,-0.046l-0.166,-0.046l-0.165,-0.048l-0.164,-0.048l-0.164,-0.049l-0.164,-0.051l-0.163,-0.051l-0.163,-0.053l-0.163,-0.053l-0.162,-0.054l-0.161,-0.056l-0.161,-0.056l-0.161,-0.057l-0.16,-0.058l-0.16,-0.059l-0.159,-0.06l-0.159,-0.061l-0.158,-0.062l-0.158,-0.063l-0.158,-0.064l-0.157,-0.065l-0.156,-0.065l-0.156,-0.067l-0.156,-0.067l-0.155,-0.069l-0.154,-0.069l-0.154,-0.07l-0.154,-0.071l-0.153,-0.073l-0.152,-0.072l-0.152,-0.074l-0.152,-0.075l-0.15,-0.076l-0.151,-0.076l-0.15,-0.078l-0.149,-0.078l-0.149,-0.079l-0.148,-0.08l-0.148,-0.081l-0.147,-0.082l-0.147,-0.082l-0.146,-0.084l-0.146,-0.084l-0.145,-0.085l-0.144,-0.086l-0.144,-0.087l-0.143,-0.088l-0.143,-0.088l-0.142,-0.09l-0.142,-0.09l-0.141,-0.091l-0.14,-0.092l-0.14,-0.093l-0.139,-0.093l-0.139,-0.094l-0.138,-0.096l-0.137,-0.096l-0.137,-0.096l-0.137,-0.098l-0.135,-0.098l-0.135,-0.099l-0.135,-0.1l-0.133,-0.101l-0.134,-0.101l-0.132,-0.103l-0.132,-0.103l-0.131,-0.104l-0.131,-0.104l-0.13,-0.105l-0.129,-0.107l-0.129,-0.106l-0.128,-0.108l-0.127,-0.108l-0.127,-0.11l-0.126,-0.109l-0.126,-0.111l-0.124,-0.111l-0.124,-0.112l-0.124,-0.113l-0.122,-0.114l-0.122,-0.114l-0.122,-0.115l-0.12,-0.116l-0.12,-0.116l-0.12,-0.117l-0.118,-0.118l-0.118,-0.119l-0.117,-0.119l-0.116,-0.12l-0.116,-0.121l-0.115,-0.121l-0.114,-0.122l-0.114,-0.123l-0.113,-0.123l-0.112,-0.124l-0.111,-0.125l-0.111,-0.125l-0.11,-0.126l-0.109,-0.127l-0.108,-0.127l-0.108,-0.128l-0.107,-0.129l-0.106,-0.129l-0.105,-0.13l-0.105,-0.131l-0.104,-0.131l-0.103,-0.132l-0.102,-0.133l-0.101,-0.133l-0.101,-0.134l-0.1,-0.134l-0.099,-0.135l-0.098,-0.136l-0.098,-0.136l-0.097,-0.137l-0.096,-0.137l-0.095,-0.138l-0.094,-0.139l-0.094,-0.139l-0.092,-0.14l-0.092,-0.141l-0.091,-0.141l-0.09,-0.141l-0.09,-0.142l-0.088,-0.143l-0.088,-0.143l-0.087,-0.144l-0.086,-0.145l-0.085,-0.145l-0.085,-0.145l-0.083,-0.146l-0.083,-0.147l-0.081,-0.147l-0.081,-0.148l-0.08,-0.148l-0.079,-0.149l-0.079,-0.15l-0.077,-0.149l-0.077,-0.151l-0.075,-0.151l-0.075,-0.151l-0.074,-0.152l-0.073,-0.153l-0.072,-0.153l-0.071,-0.153l-0.07,-0.154l-0.07,-0.155l-0.068,-0.155l-0.067,-0.155l-0.067,-0.156l-0.066,-0.157l-0.064,-0.157l-0.064,-0.157l-0.063,-0.158l-0.062,-0.158l-0.061,-0.159l-0.06,-0.159l-0.059,-0.16l-0.058,-0.16l-0.057,-0.161l-0.057,-0.161l-0.055,-0.162l-0.054,-0.162l-0.054,-0.162l-0.052,-0.163l-0.051,-0.163l-0.051,-0.164l-0.049,-0.164l-0.049,-0.165l-0.047,-0.165l-0.047,-0.165l-0.045,-0.166l-0.045,-0.166l-0.043,-0.167l-0.043,-0.167l-0.041,-0.167l-0.04,-0.168l-0.04,-0.168l-0.038,-0.169l-0.038,-0.169l-0.036,-0.169l-0.035,-0.17l-0.035,-0.17l-0.033,-0.171l-0.032,-0.171l-0.031,-0.171l-0.03,-0.172l-0.03,-0.172l-0.028,-0.172l-0.027,-0.173l-0.025,-0.173l-0.025,-0.173l-0.024,-0.174l-0.023,-0.174l-0.021,-0.174l-0.021,-0.175l-0.019,-0.175l-0.019,-0.175l-0.017,-0.176l-0.016,-0.176l-0.015,-0.176l-0.015,-0.177l-0.012,-0.177l-0.012,-0.177l-0.011,-0.177l-0.01,-0.178l-0.008,-0.178l-0.007,-0.179l-0.007,-0.178l-0.005,-0.179l-0.004,-0.18l-0.003,-0.179l-0.001,-0.18l-0.001,-0.18l0,-22.217l0.001,-0.18l0.001,-0.18l0.003,-0.179l0.004,-0.179l0.005,-0.179l0.007,-0.179l0.007,-0.179l0.008,-0.178l0.01,-0.177l0.011,-0.178l0.012,-0.177l0.012,-0.177l0.015,-0.177l0.015,-0.176l0.016,-0.176l0.017,-0.176l0.019,-0.175l0.019,-0.175l0.021,-0.175l0.021,-0.174l0.023,-0.174l0.024,-0.174l0.025,-0.173l0.025,-0.173l0.027,-0.173l0.028,-0.172l0.03,-0.172l0.03,-0.172l0.031,-0.171l0.032,-0.171l0.033,-0.17l0.035,-0.171l0.035,-0.169l0.036,-0.17l0.038,-0.169l0.038,-0.168l0.04,-0.169l0.04,-0.167l0.041,-0.168l0.043,-0.167l0.043,-0.167l0.045,-0.166l0.045,-0.166l0.047,-0.165l0.047,-0.165l0.049,-0.165l0.049,-0.164l0.051,-0.164l0.051,-0.163l0.052,-0.163l0.054,-0.162l0.054,-0.162l0.055,-0.162l0.057,-0.161l0.057,-0.161l0.058,-0.16l0.059,-0.16l0.06,-0.159l0.061,-0.159l0.062,-0.158l0.063,-0.158l0.064,-0.157l0.064,-0.157l0.066,-0.157l0.067,-0.156l0.067,-0.155l0.068,-0.155l0.07,-0.155l0.07,-0.154l0.071,-0.153l0.072,-0.153l0.073,-0.153l0.074,-0.152l0.075,-0.151l0.075,-0.151l0.077,-0.15l0.077,-0.15l0.079,-0.15l0.079,-0.149l0.08,-0.148l0.081,-0.148l0.081,-0.147l0.083,-0.146l0.083,-0.147l0.085,-0.145l0.085,-0.145l0.086,-0.145l0.087,-0.143l0.088,-0.144l0.088,-0.143l0.09,-0.142l0.09,-0.141l0.091,-0.141l0.092,-0.141l0.092,-0.14l0.094,-0.139l0.094,-0.139l0.095,-0.138l0.096,-0.137l0.097,-0.137l0.098,-0.136l0.098,-0.136l0.099,-0.135l0.1,-0.134l0.101,-0.134l0.101,-0.133l0.102,-0.133l0.103,-0.132l0.104,-0.131l0.105,-0.131l0.105,-0.129l0.106,-0.13l0.107,-0.129l0.108,-0.128l0.108,-0.127l0.109,-0.127l0.11,-0.126l0.111,-0.125l0.111,-0.125l0.112,-0.124l0.113,-0.123l0.114,-0.123l0.114,-0.122l0.115,-0.121l0.116,-0.121l0.116,-0.12l0.117,-0.119l0.118,-0.119l0.118,-0.117l0.12,-0.118l0.12,-0.116l0.12,-0.116l0.122,-0.115l0.122,-0.114l0.122,-0.114l0.124,-0.112l0.124,-0.112l0.124,-0.112l0.126,-0.11l0.126,-0.11l0.127,-0.109l0.127,-0.109l0.128,-0.107l0.129,-0.107l0.129,-0.106l0.13,-0.106l0.131,-0.104l0.131,-0.104l0.132,-0.103l0.132,-0.102l0.134,-0.102l0.133,-0.101l0.135,-0.1l0.135,-0.099l0.135,-0.098l0.137,-0.098l0.137,-0.096l0.137,-0.096l0.138,-0.095l0.139,-0.095l0.139,-0.093l0.14,-0.093l0.14,-0.092l0.141,-0.091l0.142,-0.09l0.142,-0.089l0.143,-0.089l0.143,-0.088l0.144,-0.087l0.144,-0.086l0.145,-0.085l0.146,-0.084l0.146,-0.084l0.147,-0.082l0.147,-0.082l0.148,-0.081l0.148,-0.08l0.149,-0.079l0.149,-0.078l0.15,-0.078l0.151,-0.076l0.15,-0.076l0.152,-0.075l0.152,-0.073l0.152,-0.073l0.153,-0.072l0.154,-0.072l0.154,-0.07l0.154,-0.069l0.155,-0.068l0.156,-0.068l0.156,-0.067l0.156,-0.065l0.157,-0.065l0.158,-0.064l0.158,-0.063l0.158,-0.062l0.159,-0.061l0.159,-0.06l0.16,-0.059l0.16,-0.058l0.161,-0.057l0.161,-0.056l0.161,-0.056l0.162,-0.054l0.163,-0.053l0.163,-0.053l0.163,-0.051l0.164,-0.05l0.164,-0.05l0.164,-0.048l0.165,-0.048l0.166,-0.046l0.166,-0.046l0.166,-0.044l0.167,-0.044l0.167,-0.042l0.167,-0.042l0.168,-0.04l0.168,-0.039l0.169,-0.039l0.169,-0.037l0.169,-0.037l0.17,-0.035l0.17,-0.034l0.171,-0.033l0.171,-0.033l0.171,-0.031l0.171,-0.03l0.172,-0.029l0.173,-0.028l0.172,-0.027l0.173,-0.026l0.174,-0.025l0.173,-0.024l0.174,-0.022l0.175,-0.022l0.175,-0.021l0.175,-0.019l0.175,-0.018l0.176,-0.018l0.176,-0.016l0.176,-0.015l0.176,-0.014l0.177,-0.013l0.178,-0.012l0.177,-0.01l0.178,-0.01l0.178,-0.009l0.178,-0.007l0.179,-0.006l0.179,-0.005l0.179,-0.004l0.18,-0.003l0.18,-0.002l0.18,0l23.738,0l0.18,0ZM295.49,527.586l-0.155,0l-0.148,0.002l-0.149,0.002l-0.147,0.003l-0.148,0.004l-0.146,0.005l-0.147,0.007l-0.147,0.006l-0.146,0.008l-0.145,0.009l-0.146,0.01l-0.146,0.011l-0.145,0.011l-0.145,0.012l-0.144,0.014l-0.144,0.014l-0.144,0.015l-0.144,0.016l-0.143,0.017l-0.144,0.018l-0.143,0.018l-0.141,0.02l-0.142,0.02l-0.142,0.021l-0.142,0.023l-0.141,0.023l-0.141,0.023l-0.142,0.025l-0.14,0.026l-0.139,0.026l-0.14,0.027l-0.139,0.028l-0.14,0.029l-0.139,0.03l-0.138,0.031l-0.138,0.031l-0.138,0.032l-0.138,0.034l-0.137,0.034l-0.136,0.034l-0.138,0.036l-0.135,0.036l-0.135,0.037l-0.137,0.039l-0.135,0.039l-0.134,0.039l-0.135,0.041l-0.134,0.041l-0.133,0.042l-0.134,0.043l-0.133,0.044l-0.133,0.044l-0.132,0.046l-0.131,0.045l-0.133,0.047l-0.131,0.048l-0.13,0.048l-0.132,0.05l-0.129,0.05l-0.13,0.05l-0.129,0.052l-0.13,0.052l-0.128,0.053l-0.128,0.054l-0.128,0.054l-0.128,0.056l-0.127,0.056l-0.126,0.057l-0.126,0.057l-0.127,0.059l-0.124,0.059l-0.125,0.059l-0.126,0.061l-0.124,0.061l-0.123,0.062l-0.123,0.063l-0.123,0.063l-0.123,0.065l-0.122,0.065l-0.122,0.065l-0.121,0.067l-0.12,0.067l-0.121,0.068l-0.12,0.068l-0.119,0.069l-0.119,0.07l-0.119,0.071l-0.118,0.071l-0.117,0.072l-0.117,0.072l-0.117,0.074l-0.116,0.074l-0.116,0.075l-0.115,0.075l-0.115,0.076l-0.115,0.077l-0.113,0.077l-0.114,0.079l-0.113,0.078l-0.112,0.08l-0.112,0.08l-0.111,0.081l-0.111,0.081l-0.111,0.082l-0.109,0.083l-0.11,0.083l-0.109,0.084l-0.108,0.085l-0.108,0.085l-0.107,0.086l-0.107,0.086l-0.106,0.088l-0.106,0.088l-0.106,0.088l-0.104,0.089l-0.104,0.09l-0.104,0.09l-0.103,0.091l-0.103,0.092l-0.101,0.092l-0.101,0.092l-0.101,0.094l-0.101,0.094l-0.099,0.094l-0.1,0.095l-0.098,0.096l-0.098,0.096l-0.098,0.097l-0.097,0.097l-0.096,0.098l-0.095,0.099l-0.095,0.099l-0.095,0.1l-0.094,0.1l-0.093,0.101l-0.093,0.101l-0.092,0.102l-0.091,0.103l-0.091,0.103l-0.091,0.103l-0.089,0.104l-0.089,0.105l-0.089,0.105l-0.088,0.106l-0.087,0.106l-0.087,0.107l-0.085,0.108l-0.086,0.107l-0.084,0.109l-0.084,0.108l-0.084,0.11l-0.083,0.11l-0.082,0.11l-0.081,0.111l-0.08,0.111l-0.08,0.112l-0.08,0.113l-0.079,0.113l-0.078,0.113l-0.077,0.114l-0.077,0.114l-0.076,0.115l-0.076,0.115l-0.074,0.116l-0.074,0.116l-0.074,0.117l-0.073,0.117l-0.071,0.118l-0.072,0.118l-0.07,0.118l-0.07,0.119l-0.07,0.12l-0.068,0.12l-0.068,0.12l-0.067,0.121l-0.066,0.121l-0.066,0.122l-0.065,0.121l-0.064,0.123l-0.063,0.123l-0.063,0.123l-0.062,0.124l-0.061,0.124l-0.061,0.125l-0.06,0.125l-0.059,0.125l-0.058,0.126l-0.058,0.126l-0.057,0.127l-0.056,0.127l-0.055,0.127l-0.055,0.128l-0.053,0.129l-0.053,0.128l-0.053,0.129l-0.051,0.129l-0.051,0.131l-0.05,0.129l-0.049,0.13l-0.048,0.132l-0.048,0.131l-0.047,0.131l-0.046,0.132l-0.045,0.133l-0.045,0.132l-0.043,0.133l-0.043,0.134l-0.042,0.133l-0.042,0.135l-0.04,0.134l-0.04,0.135l-0.039,0.135l-0.038,0.136l-0.037,0.135l-0.036,0.137l-0.036,0.136l-0.035,0.137l-0.034,0.137l-0.033,0.138l-0.032,0.137l-0.032,0.138l-0.03,0.139l-0.03,0.139l-0.029,0.139l-0.028,0.139l-0.027,0.14l-0.027,0.14l-0.025,0.14l-0.025,0.141l-0.024,0.141l-0.023,0.141l-0.022,0.142l-0.021,0.142l-0.021,0.142l-0.019,0.143l-0.019,0.142l-0.018,0.143l-0.016,0.144l-0.016,0.143l-0.015,0.144l-0.015,0.144l-0.013,0.145l-0.012,0.145l-0.012,0.145l-0.011,0.145l-0.009,0.146l-0.009,0.146l-0.008,0.146l-0.007,0.146l-0.006,0.147l-0.005,0.147l-0.004,0.147l-0.004,0.148l-0.002,0.148l-0.001,0.148l-0.001,0.156l0,22.201l0.001,0.157l0.001,0.147l0.002,0.148l0.004,0.148l0.004,0.147l0.005,0.147l0.006,0.147l0.007,0.146l0.008,0.146l0.009,0.147l0.009,0.145l0.011,0.145l0.012,0.145l0.012,0.145l0.013,0.145l0.015,0.144l0.015,0.144l0.016,0.143l0.016,0.144l0.018,0.143l0.019,0.143l0.019,0.143l0.021,0.142l0.021,0.141l0.022,0.142l0.023,0.141l0.024,0.141l0.025,0.141l0.025,0.14l0.027,0.14l0.027,0.14l0.028,0.139l0.029,0.139l0.03,0.139l0.03,0.139l0.032,0.138l0.032,0.137l0.033,0.138l0.034,0.137l0.035,0.137l0.036,0.137l0.036,0.136l0.037,0.136l0.038,0.135l0.039,0.135l0.04,0.135l0.04,0.134l0.042,0.135l0.042,0.133l0.043,0.134l0.043,0.133l0.045,0.132l0.045,0.133l0.046,0.132l0.047,0.131l0.048,0.132l0.048,0.131l0.049,0.13l0.05,0.13l0.051,0.13l0.051,0.129l0.053,0.129l0.053,0.129l0.053,0.128l0.055,0.128l0.055,0.127l0.056,0.127l0.057,0.127l0.058,0.126l0.058,0.126l0.059,0.125l0.06,0.125l0.061,0.125l0.061,0.124l0.062,0.124l0.063,0.123l0.063,0.123l0.064,0.123l0.065,0.122l0.066,0.121l0.066,0.122l0.067,0.12l0.068,0.12l0.068,0.12l0.07,0.12l0.07,0.119l0.07,0.118l0.072,0.119l0.071,0.117l0.073,0.117l0.074,0.117l0.074,0.117l0.074,0.115l0.075,0.115l0.077,0.115l0.077,0.114l0.077,0.114l0.078,0.113l0.079,0.113l0.08,0.113l0.08,0.112l0.08,0.111l0.081,0.111l0.082,0.11l0.083,0.11l0.084,0.11l0.084,0.108l0.084,0.109l0.086,0.108l0.085,0.107l0.087,0.107l0.087,0.106l0.088,0.106l0.089,0.105l0.088,0.104l0.09,0.105l0.091,0.103l0.091,0.103l0.091,0.103l0.092,0.102l0.093,0.101l0.093,0.101l0.094,0.101l0.095,0.099l0.095,0.099l0.095,0.099l0.096,0.098l0.097,0.097l0.098,0.098l0.098,0.095l0.098,0.096l0.1,0.095l0.099,0.095l0.101,0.094l0.101,0.093l0.101,0.093l0.101,0.091l0.103,0.092l0.103,0.091l0.104,0.091l0.104,0.089l0.104,0.089l0.106,0.088l0.106,0.088l0.106,0.088l0.107,0.086l0.107,0.086l0.108,0.086l0.108,0.084l0.109,0.084l0.11,0.083l0.109,0.083l0.111,0.082l0.111,0.082l0.111,0.08l0.112,0.081l0.112,0.079l0.113,0.078l0.114,0.079l0.113,0.077l0.115,0.077l0.115,0.076l0.115,0.076l0.116,0.074l0.116,0.074l0.117,0.074l0.117,0.072l0.117,0.072l0.118,0.072l0.119,0.07l0.119,0.07l0.119,0.069l0.12,0.068l0.121,0.069l0.12,0.066l0.121,0.067l0.122,0.065l0.122,0.065l0.123,0.065l0.123,0.063l0.123,0.063l0.123,0.062l0.124,0.061l0.126,0.061l0.125,0.06l0.124,0.058l0.127,0.059l0.126,0.058l0.126,0.056l0.127,0.056l0.128,0.056l0.128,0.054l0.128,0.054l0.128,0.053l0.13,0.052l0.129,0.052l0.13,0.051l0.129,0.049l0.132,0.05l0.13,0.048l0.131,0.048l0.133,0.047l0.131,0.046l0.132,0.045l0.133,0.044l0.133,0.044l0.134,0.043l0.133,0.042l0.134,0.041l0.135,0.041l0.134,0.04l0.135,0.038l0.137,0.039l0.135,0.037l0.135,0.036l0.138,0.036l0.136,0.035l0.137,0.033l0.138,0.034l0.138,0.032l0.138,0.031l0.138,0.031l0.139,0.03l0.14,0.029l0.139,0.028l0.14,0.027l0.139,0.027l0.14,0.025l0.142,0.025l0.141,0.024l0.141,0.023l0.142,0.022l0.142,0.021l0.142,0.02l0.141,0.02l0.143,0.018l0.144,0.018l0.143,0.017l0.144,0.016l0.144,0.015l0.144,0.014l0.144,0.014l0.145,0.012l0.145,0.012l0.146,0.01l0.146,0.01l0.145,0.009l0.146,0.008l0.147,0.007l0.147,0.006l0.146,0.005l0.148,0.004l0.147,0.003l0.149,0.003l0.148,0.001l0.155,0.001l23.723,0l0.156,-0.001l0.148,-0.001l0.148,-0.003l0.148,-0.003l0.148,-0.004l0.146,-0.005l0.147,-0.006l0.146,-0.007l0.146,-0.008l0.146,-0.009l0.145,-0.01l0.146,-0.01l0.146,-0.012l0.145,-0.012l0.144,-0.014l0.144,-0.014l0.144,-0.015l0.143,-0.016l0.143,-0.017l0.144,-0.018l0.143,-0.018l0.142,-0.02l0.142,-0.02l0.142,-0.021l0.142,-0.022l0.141,-0.023l0.141,-0.024l0.141,-0.025l0.14,-0.025l0.14,-0.027l0.139,-0.027l0.14,-0.028l0.139,-0.029l0.139,-0.03l0.139,-0.031l0.138,-0.031l0.137,-0.032l0.138,-0.034l0.137,-0.033l0.137,-0.035l0.137,-0.036l0.136,-0.036l0.135,-0.037l0.136,-0.039l0.135,-0.038l0.135,-0.04l0.135,-0.041l0.134,-0.041l0.133,-0.042l0.134,-0.043l0.133,-0.044l0.133,-0.044l0.132,-0.045l0.131,-0.046l0.132,-0.047l0.131,-0.048l0.131,-0.048l0.132,-0.05l0.129,-0.049l0.129,-0.051l0.13,-0.052l0.129,-0.052l0.129,-0.053l0.127,-0.054l0.128,-0.054l0.128,-0.056l0.127,-0.056l0.126,-0.056l0.127,-0.058l0.126,-0.059l0.125,-0.058l0.125,-0.06l0.125,-0.061l0.124,-0.061l0.123,-0.062l0.124,-0.063l0.123,-0.063l0.122,-0.065l0.123,-0.065l0.121,-0.065l0.121,-0.066l0.121,-0.068l0.121,-0.068l0.119,-0.068l0.119,-0.069l0.12,-0.07l0.118,-0.071l0.119,-0.071l0.117,-0.072l0.117,-0.072l0.117,-0.074l0.116,-0.074l0.115,-0.074l0.116,-0.076l0.115,-0.076l0.114,-0.077l0.114,-0.077l0.114,-0.079l0.112,-0.078l0.113,-0.08l0.112,-0.08l0.111,-0.08l0.11,-0.082l0.111,-0.082l0.11,-0.083l0.11,-0.083l0.109,-0.084l0.107,-0.084l0.109,-0.086l0.107,-0.086l0.106,-0.086l0.107,-0.088l0.106,-0.088l0.105,-0.088l0.105,-0.089l0.104,-0.089l0.103,-0.091l0.103,-0.091l0.103,-0.091l0.102,-0.092l0.101,-0.093l0.101,-0.093l0.1,-0.094l0.1,-0.095l0.099,-0.095l0.099,-0.096l0.097,-0.095l0.098,-0.098l0.097,-0.098l0.096,-0.097l0.096,-0.099l0.095,-0.099l0.094,-0.099l0.094,-0.101l0.094,-0.101l0.092,-0.101l0.093,-0.102l0.091,-0.103l0.091,-0.103l0.09,-0.103l0.09,-0.104l0.089,-0.105l0.088,-0.105l0.088,-0.106l0.087,-0.106l0.087,-0.107l0.086,-0.107l0.085,-0.108l0.085,-0.109l0.084,-0.108l0.083,-0.109l0.083,-0.111l0.082,-0.11l0.081,-0.111l0.081,-0.111l0.08,-0.112l0.08,-0.113l0.079,-0.113l0.078,-0.113l0.077,-0.114l0.077,-0.114l0.076,-0.115l0.075,-0.115l0.075,-0.116l0.074,-0.116l0.073,-0.117l0.073,-0.117l0.072,-0.117l0.071,-0.119l0.071,-0.118l0.07,-0.119l0.069,-0.119l0.069,-0.121l0.067,-0.12l0.067,-0.12l0.067,-0.122l0.066,-0.122l0.064,-0.121l0.064,-0.123l0.064,-0.123l0.063,-0.123l0.062,-0.124l0.061,-0.124l0.061,-0.125l0.059,-0.125l0.059,-0.125l0.059,-0.126l0.057,-0.126l0.057,-0.127l0.056,-0.127l0.055,-0.127l0.055,-0.128l0.054,-0.128l0.053,-0.129l0.052,-0.129l0.052,-0.129l0.05,-0.13l0.051,-0.13l0.049,-0.131l0.048,-0.13l0.048,-0.132l0.047,-0.132l0.046,-0.131l0.045,-0.133l0.044,-0.132l0.044,-0.133l0.043,-0.133l0.042,-0.134l0.041,-0.135l0.041,-0.134l0.039,-0.135l0.039,-0.135l0.038,-0.135l0.038,-0.136l0.036,-0.136l0.036,-0.137l0.034,-0.137l0.034,-0.137l0.033,-0.137l0.033,-0.138l0.031,-0.138l0.031,-0.139l0.03,-0.139l0.029,-0.138l0.028,-0.14l0.027,-0.14l0.026,-0.14l0.026,-0.14l0.025,-0.141l0.024,-0.141l0.022,-0.141l0.023,-0.141l0.021,-0.142l0.02,-0.143l0.02,-0.142l0.018,-0.143l0.018,-0.143l0.017,-0.144l0.016,-0.143l0.015,-0.144l0.014,-0.144l0.014,-0.145l0.012,-0.144l0.011,-0.146l0.011,-0.145l0.01,-0.145l0.009,-0.147l0.008,-0.146l0.006,-0.146l0.007,-0.147l0.005,-0.147l0.004,-0.147l0.003,-0.148l0.002,-0.147l0.002,-0.149l0,-0.156l0,-22.201l0,-0.156l-0.002,-0.149l-0.002,-0.147l-0.003,-0.148l-0.004,-0.147l-0.005,-0.147l-0.007,-0.147l-0.006,-0.146l-0.008,-0.146l-0.009,-0.146l-0.01,-0.146l-0.011,-0.145l-0.011,-0.146l-0.012,-0.144l-0.014,-0.145l-0.014,-0.144l-0.015,-0.144l-0.016,-0.143l-0.017,-0.144l-0.018,-0.143l-0.018,-0.142l-0.02,-0.143l-0.02,-0.142l-0.021,-0.142l-0.023,-0.142l-0.022,-0.141l-0.024,-0.141l-0.025,-0.14l-0.026,-0.141l-0.026,-0.14l-0.027,-0.14l-0.028,-0.139l-0.029,-0.139l-0.03,-0.139l-0.031,-0.139l-0.031,-0.138l-0.033,-0.138l-0.033,-0.137l-0.034,-0.137l-0.034,-0.137l-0.036,-0.136l-0.036,-0.137l-0.038,-0.135l-0.038,-0.136l-0.039,-0.135l-0.039,-0.135l-0.041,-0.134l-0.041,-0.135l-0.042,-0.133l-0.043,-0.134l-0.044,-0.133l-0.044,-0.132l-0.045,-0.133l-0.046,-0.131l-0.047,-0.132l-0.048,-0.132l-0.048,-0.13l-0.049,-0.13l-0.051,-0.131l-0.05,-0.13l-0.052,-0.129l-0.052,-0.129l-0.053,-0.128l-0.054,-0.129l-0.055,-0.128l-0.055,-0.127l-0.056,-0.127l-0.057,-0.127l-0.057,-0.126l-0.059,-0.126l-0.059,-0.125l-0.059,-0.125l-0.061,-0.125l-0.061,-0.124l-0.062,-0.124l-0.063,-0.123l-0.064,-0.123l-0.064,-0.123l-0.064,-0.121l-0.066,-0.122l-0.067,-0.121l-0.067,-0.121l-0.067,-0.12l-0.069,-0.12l-0.069,-0.12l-0.07,-0.119l-0.071,-0.118l-0.071,-0.118l-0.072,-0.118l-0.073,-0.117l-0.073,-0.117l-0.074,-0.116l-0.075,-0.115l-0.075,-0.116l-0.076,-0.115l-0.077,-0.114l-0.077,-0.114l-0.078,-0.113l-0.079,-0.113l-0.08,-0.113l-0.08,-0.111l-0.081,-0.112l-0.081,-0.111l-0.082,-0.11l-0.083,-0.11l-0.083,-0.11l-0.084,-0.108l-0.085,-0.109l-0.085,-0.108l-0.086,-0.107l-0.087,-0.107l-0.087,-0.106l-0.087,-0.105l-0.089,-0.106l-0.089,-0.105l-0.09,-0.104l-0.09,-0.103l-0.091,-0.103l-0.091,-0.102l-0.093,-0.103l-0.092,-0.101l-0.094,-0.101l-0.094,-0.1l-0.094,-0.1l-0.095,-0.099l-0.096,-0.099l-0.096,-0.097l-0.097,-0.098l-0.098,-0.097l-0.097,-0.096l-0.099,-0.096l-0.099,-0.095l-0.1,-0.094l-0.1,-0.094l-0.101,-0.094l-0.101,-0.093l-0.102,-0.091l-0.103,-0.092l-0.103,-0.091l-0.103,-0.09l-0.104,-0.09l-0.105,-0.089l-0.105,-0.088l-0.106,-0.088l-0.107,-0.088l-0.106,-0.086l-0.107,-0.086l-0.109,-0.085l-0.107,-0.085l-0.109,-0.084l-0.11,-0.083l-0.11,-0.083l-0.111,-0.082l-0.11,-0.081l-0.111,-0.081l-0.112,-0.08l-0.113,-0.08l-0.112,-0.078l-0.114,-0.079l-0.114,-0.077l-0.114,-0.076l-0.115,-0.077l-0.116,-0.076l-0.115,-0.074l-0.116,-0.074l-0.117,-0.074l-0.117,-0.072l-0.117,-0.072l-0.119,-0.071l-0.118,-0.071l-0.12,-0.07l-0.119,-0.069l-0.119,-0.068l-0.121,-0.068l-0.121,-0.067l-0.121,-0.067l-0.121,-0.065l-0.123,-0.065l-0.122,-0.065l-0.123,-0.063l-0.124,-0.063l-0.123,-0.062l-0.124,-0.061l-0.125,-0.061l-0.125,-0.059l-0.125,-0.059l-0.126,-0.059l-0.127,-0.057l-0.126,-0.057l-0.127,-0.056l-0.128,-0.056l-0.128,-0.054l-0.127,-0.054l-0.129,-0.053l-0.129,-0.052l-0.13,-0.052l-0.129,-0.05l-0.129,-0.05l-0.132,-0.05l-0.131,-0.048l-0.131,-0.048l-0.132,-0.047l-0.131,-0.045l-0.132,-0.046l-0.133,-0.044l-0.133,-0.044l-0.134,-0.043l-0.133,-0.042l-0.134,-0.041l-0.135,-0.041l-0.135,-0.039l-0.135,-0.039l-0.136,-0.039l-0.135,-0.037l-0.136,-0.036l-0.137,-0.036l-0.137,-0.034l-0.137,-0.034l-0.138,-0.034l-0.137,-0.032l-0.138,-0.031l-0.139,-0.031l-0.139,-0.03l-0.139,-0.029l-0.14,-0.028l-0.139,-0.027l-0.14,-0.026l-0.14,-0.026l-0.141,-0.025l-0.141,-0.024l-0.141,-0.022l-0.142,-0.023l-0.142,-0.021l-0.142,-0.02l-0.142,-0.02l-0.143,-0.018l-0.144,-0.018l-0.143,-0.017l-0.143,-0.016l-0.144,-0.015l-0.144,-0.014l-0.144,-0.014l-0.145,-0.012l-0.146,-0.011l-0.146,-0.011l-0.145,-0.01l-0.146,-0.009l-0.146,-0.008l-0.146,-0.006l-0.147,-0.007l-0.146,-0.005l-0.148,-0.004l-0.148,-0.003l-0.148,-0.002l-0.148,-0.002l-0.156,0l-23.723,0Z" style="fill:#2c2c49;"/><text x="344.839px" y="582.123px" style="font-family:'AppleSDGothicNeo-Heavy';font-size:48px;fill:#f0e8af;">Omega</text><g id="lötoben"><g id="Lötp"><ellipse cx="342.17" cy="292.449" rx="18.939" ry="18.489" style="fill:#959a93;stroke-width:3px;stroke:#728072;"/><rect x="337.194" y="287.774" width="9.159" height="9.787" style="fill:#f1f1e3;stroke-width:1px;stroke-linecap:square;stroke-linejoin:miter;stroke:#728072;"/></g><g id="Lötp1"><ellipse cx="763.874" cy="292.449" rx="18.939" ry="18.489" style="fill:#959a93;stroke-width:3px;stroke:#728072;"/><rect x="758.898" y="287.774" width="9.159" height="9.787" style="fill:#f1f1e3;stroke-width:1px;stroke-linecap:square;stroke-linejoin:miter;stroke:#728072;"/></g><g id="Lötp2"><ellipse cx="486.179" cy="292.449" rx="18.939" ry="18.489" style="fill:#959a93;stroke-width:3px;stroke:#728072;"/><rect x="481.203" y="287.774" width="9.159" height="9.787" style="fill:#f1f1e3;stroke-width:1px;stroke-linecap:square;stroke-linejoin:miter;stroke:#728072;"/></g><g id="Lötp3"><ellipse cx="907.883" cy="292.449" rx="18.939" ry="18.489" style="fill:#959a93;stroke-width:3px;stroke:#728072;"/><rect x="902.907" y="287.774" width="9.159" height="9.787" style="fill:#f1f1e3;stroke-width:1px;stroke-linecap:square;stroke-linejoin:miter;stroke:#728072;"/></g><g id="Lötp4"><ellipse cx="624.486" cy="292.449" rx="18.939" ry="18.489" style="fill:#959a93;stroke-width:3px;stroke:#728072;"/><rect x="619.509" y="287.774" width="9.159" height="9.787" style="fill:#f1f1e3;stroke-width:1px;stroke-linecap:square;stroke-linejoin:miter;stroke:#728072;"/></g><g id="Lötp5"><ellipse cx="294.399" cy="292.449" rx="18.939" ry="18.489" style="fill:#959a93;stroke-width:3px;stroke:#728072;"/><rect x="289.422" y="287.774" width="9.159" height="9.787" style="fill:#f1f1e3;stroke-width:1px;stroke-linecap:square;stroke-linejoin:miter;stroke:#728072;"/></g><g id="Lötp6"><ellipse cx="716.103" cy="292.449" rx="18.939" ry="18.489" style="fill:#959a93;stroke-width:3px;stroke:#728072;"/><rect x="711.126" y="287.774" width="9.159" height="9.787" style="fill:#f1f1e3;stroke-width:1px;stroke-linecap:square;stroke-linejoin:miter;stroke:#728072;"/></g><g id="Lötp7"><ellipse cx="438.407" cy="292.449" rx="18.939" ry="18.489" style="fill:#959a93;stroke-width:3px;stroke:#728072;"/><rect x="433.431" y="287.774" width="9.159" height="9.787" style="fill:#f1f1e3;stroke-width:1px;stroke-linecap:square;stroke-linejoin:miter;stroke:#728072;"/></g><g id="Lötp8"><ellipse cx="860.111" cy="292.449" rx="18.939" ry="18.489" style="fill:#959a93;stroke-width:3px;stroke:#728072;"/><rect x="855.135" y="287.774" width="9.159" height="9.787" style="fill:#f1f1e3;stroke-width:1px;stroke-linecap:square;stroke-linejoin:miter;stroke:#728072;"/></g><g id="Lötp9"><ellipse cx="576.714" cy="292.449" rx="18.939" ry="18.489" style="fill:#959a93;stroke-width:3px;stroke:#728072;"/><rect x="571.738" y="287.774" width="9.159" height="9.787" style="fill:#f1f1e3;stroke-width:1px;stroke-linecap:square;stroke-linejoin:miter;stroke:#728072;"/></g><g id="Lötp10"><ellipse cx="998.418" cy="292.449" rx="18.939" ry="18.489" style="fill:#959a93;stroke-width:3px;stroke:#728072;"/><rect x="993.442" y="287.774" width="9.159" height="9.787" style="fill:#f1f1e3;stroke-width:1px;stroke-linecap:square;stroke-linejoin:miter;stroke:#728072;"/></g><g id="Lötp11"><ellipse cx="387.248" cy="292.449" rx="18.939" ry="18.489" style="fill:#959a93;stroke-width:3px;stroke:#728072;"/><rect x="382.272" y="287.774" width="9.159" height="9.787" style="fill:#f1f1e3;stroke-width:1px;stroke-linecap:square;stroke-linejoin:miter;stroke:#728072;"/></g><g id="Lötp12"><ellipse cx="808.952" cy="292.449" rx="18.939" ry="18.489" style="fill:#959a93;stroke-width:3px;stroke:#728072;"/><rect x="803.976" y="287.774" width="9.159" height="9.787" style="fill:#f1f1e3;stroke-width:1px;stroke-linecap:square;stroke-linejoin:miter;stroke:#728072;"/></g><g id="Lötp13"><ellipse cx="531.257" cy="292.449" rx="18.939" ry="18.489" style="fill:#959a93;stroke-width:3px;stroke:#728072;"/><rect x="526.28" y="287.774" width="9.159" height="9.787" style="fill:#f1f1e3;stroke-width:1px;stroke-linecap:square;stroke-linejoin:miter;stroke:#728072;"/></g><g id="Lötp14"><ellipse cx="952.961" cy="292.449" rx="18.939" ry="18.489" style="fill:#959a93;stroke-width:3px;stroke:#728072;"/><rect x="947.984" y="287.774" width="9.159" height="9.787" style="fill:#f1f1e3;stroke-width:1px;stroke-linecap:square;stroke-linejoin:miter;stroke:#728072;"/></g><g id="Lötp15"><ellipse cx="669.563" cy="292.449" rx="18.939" ry="18.489" style="fill:#959a93;stroke-width:3px;stroke:#728072;"/><rect x="664.587" y="287.774" width="9.159" height="9.787" style="fill:#f1f1e3;stroke-width:1px;stroke-linecap:square;stroke-linejoin:miter;stroke:#728072;"/></g></g><g id="lötoben1"><g id="Lötp16"><ellipse cx="342.17" cy="860.86" rx="18.939" ry="18.489" style="fill:#959a93;stroke-width:3px;stroke:#728072;"/><rect x="337.194" y="856.186" width="9.159" height="9.787" style="fill:#f1f1e3;stroke-width:1px;stroke-linecap:square;stroke-linejoin:miter;stroke:#728072;"/></g><g id="Lötp17"><ellipse cx="763.874" cy="860.86" rx="18.939" ry="18.489" style="fill:#959a93;stroke-width:3px;stroke:#728072;"/><rect x="758.898" y="856.186" width="9.159" height="9.787" style="fill:#f1f1e3;stroke-width:1px;stroke-linecap:square;stroke-linejoin:miter;stroke:#728072;"/></g><g id="Lötp18"><ellipse cx="486.179" cy="860.86" rx="18.939" ry="18.489" style="fill:#959a93;stroke-width:3px;stroke:#728072;"/><rect x="481.203" y="856.186" width="9.159" height="9.787" style="fill:#f1f1e3;stroke-width:1px;stroke-linecap:square;stroke-linejoin:miter;stroke:#728072;"/></g><g id="Lötp19"><ellipse cx="907.883" cy="860.86" rx="18.939" ry="18.489" style="fill:#959a93;stroke-width:3px;stroke:#728072;"/><rect x="902.907" y="856.186" width="9.159" height="9.787" style="fill:#f1f1e3;stroke-width:1px;stroke-linecap:square;stroke-linejoin:miter;stroke:#728072;"/></g><g id="Lötp20"><ellipse cx="624.486" cy="860.86" rx="18.939" ry="18.489" style="fill:#959a93;stroke-width:3px;stroke:#728072;"/><rect x="619.509" y="856.186" width="9.159" height="9.787" style="fill:#f1f1e3;stroke-width:1px;stroke-linecap:square;stroke-linejoin:miter;stroke:#728072;"/></g><g id="Lötp21"><ellipse cx="294.399" cy="860.86" rx="18.939" ry="18.489" style="fill:#959a93;stroke-width:3px;stroke:#728072;"/><rect x="289.422" y="856.186" width="9.159" height="9.787" style="fill:#f1f1e3;stroke-width:1px;stroke-linecap:square;stroke-linejoin:miter;stroke:#728072;"/></g><g id="Lötp22"><ellipse cx="716.103" cy="860.86" rx="18.939" ry="18.489" style="fill:#959a93;stroke-width:3px;stroke:#728072;"/><rect x="711.126" y="856.186" width="9.159" height="9.787" style="fill:#f1f1e3;stroke-width:1px;stroke-linecap:square;stroke-linejoin:miter;stroke:#728072;"/></g><g id="Lötp23"><ellipse cx="438.407" cy="860.86" rx="18.939" ry="18.489" style="fill:#959a93;stroke-width:3px;stroke:#728072;"/><rect x="433.431" y="856.186" width="9.159" height="9.787" style="fill:#f1f1e3;stroke-width:1px;stroke-linecap:square;stroke-linejoin:miter;stroke:#728072;"/></g><g id="Lötp24"><ellipse cx="860.111" cy="860.86" rx="18.939" ry="18.489" style="fill:#959a93;stroke-width:3px;stroke:#728072;"/><rect x="855.135" y="856.186" width="9.159" height="9.787" style="fill:#f1f1e3;stroke-width:1px;stroke-linecap:square;stroke-linejoin:miter;stroke:#728072;"/></g><g id="Lötp25"><ellipse cx="576.714" cy="860.86" rx="18.939" ry="18.489" style="fill:#959a93;stroke-width:3px;stroke:#728072;"/><rect x="571.738" y="856.186" width="9.159" height="9.787" style="fill:#f1f1e3;stroke-width:1px;stroke-linecap:square;stroke-linejoin:miter;stroke:#728072;"/></g><g id="Lötp26"><ellipse cx="998.418" cy="860.86" rx="18.939" ry="18.489" style="fill:#959a93;stroke-width:3px;stroke:#728072;"/><rect x="993.442" y="856.186" width="9.159" height="9.787" style="fill:#f1f1e3;stroke-width:1px;stroke-linecap:square;stroke-linejoin:miter;stroke:#728072;"/></g><g id="Lötp27"><ellipse cx="387.248" cy="860.86" rx="18.939" ry="18.489" style="fill:#959a93;stroke-width:3px;stroke:#728072;"/><rect x="382.272" y="856.186" width="9.159" height="9.787" style="fill:#f1f1e3;stroke-width:1px;stroke-linecap:square;stroke-linejoin:miter;stroke:#728072;"/></g><g id="Lötp28"><ellipse cx="808.952" cy="860.86" rx="18.939" ry="18.489" style="fill:#959a93;stroke-width:3px;stroke:#728072;"/><rect x="803.976" y="856.186" width="9.159" height="9.787" style="fill:#f1f1e3;stroke-width:1px;stroke-linecap:square;stroke-linejoin:miter;stroke:#728072;"/></g><g id="Lötp29"><ellipse cx="531.257" cy="860.86" rx="18.939" ry="18.489" style="fill:#959a93;stroke-width:3px;stroke:#728072;"/><rect x="526.28" y="856.186" width="9.159" height="9.787" style="fill:#f1f1e3;stroke-width:1px;stroke-linecap:square;stroke-linejoin:miter;stroke:#728072;"/></g><g id="Lötp30"><ellipse cx="952.961" cy="860.86" rx="18.939" ry="18.489" style="fill:#959a93;stroke-width:3px;stroke:#728072;"/><rect x="947.984" y="856.186" width="9.159" height="9.787" style="fill:#f1f1e3;stroke-width:1px;stroke-linecap:square;stroke-linejoin:miter;stroke:#728072;"/></g><g id="Lötp31"><ellipse cx="669.563" cy="860.86" rx="18.939" ry="18.489" style="fill:#959a93;stroke-width:3px;stroke:#728072;"/><rect x="664.587" y="856.186" width="9.159" height="9.787" style="fill:#f1f1e3;stroke-width:1px;stroke-linecap:square;stroke-linejoin:miter;stroke:#728072;"/></g></g><rect x="553.832" y="418.666" width="266.256" height="266.05" style="fill:#617873;stroke-width:1px;stroke-linecap:square;stroke-linejoin:miter;stroke:#728072;"/><rect x="900.587" y="425.121" width="189.893" height="294.372" style="fill:#607973;stroke-width:1px;stroke-linecap:square;stroke-linejoin:miter;stroke:#728072;"/><g><rect x="783.527" y="341.347" width="76.033" height="39.596" style="fill:#f2f9ff;stroke-width:1px;stroke-linecap:square;stroke-linejoin:miter;stroke:#728072;"/><rect x="792.68" y="335.235" width="60.853" height="50.289" style="fill:#8f9e9f;stroke-width:1px;stroke-linecap:square;stroke-linejoin:miter;stroke:#728072;"/></g><g><rect x="291.432" y="352.388" width="211.413" height="19.155" style="fill:#cad0c8;stroke-width:1px;stroke-linecap:square;stroke-linejoin:miter;stroke:#728072;"/><rect x="291.432" y="384.63" width="211.413" height="19.155" style="fill:#cad0c8;stroke-width:1px;stroke-linecap:square;stroke-linejoin:miter;stroke:#728072;"/><rect x="291.432" y="414.403" width="211.413" height="19.155" style="fill:#cad0c8;stroke-width:1px;stroke-linecap:square;stroke-linejoin:miter;stroke:#728072;"/><rect x="291.432" y="445.006" width="211.413" height="19.155" style="fill:#cad0c8;stroke-width:1px;stroke-linecap:square;stroke-linejoin:miter;stroke:#728072;"/><rect x="337.647" y="342.336" width="123.425" height="124.588" style="fill:#426259;stroke-width:1px;stroke-linecap:square;stroke-linejoin:miter;stroke:#728072;"/></g><g><path d="M654.356,750.481c0,-7.843 -6.368,-14.211 -14.211,-14.211l-46.798,0c-7.843,0 -14.211,6.368 -14.211,14.211l0,28.423c0,7.844 6.368,14.212 14.211,14.212l46.798,0c7.843,0 14.211,-6.368 14.211,-14.212l0,-28.423Z" style="fill:#dadeda;"/><path d="M640.328,736.271l0.183,0.003l0.183,0.006l0.182,0.008l0.181,0.011l0.181,0.012l0.18,0.015l0.179,0.017l0.179,0.02l0.178,0.021l0.177,0.024l0.177,0.026l0.176,0.028l0.175,0.03l0.175,0.032l0.173,0.035l0.173,0.036l0.173,0.039l0.171,0.041l0.171,0.043l0.17,0.044l0.169,0.047l0.168,0.049l0.167,0.051l0.166,0.053l0.166,0.055l0.164,0.057l0.164,0.059l0.163,0.061l0.162,0.062l0.161,0.065l0.159,0.066l0.159,0.069l0.158,0.07l0.157,0.072l0.156,0.074l0.155,0.076l0.153,0.078l0.153,0.079l0.152,0.081l0.15,0.083l0.149,0.085l0.149,0.086l0.147,0.089l0.146,0.089l0.144,0.092l0.144,0.093l0.142,0.095l0.141,0.097l0.14,0.098l0.139,0.1l0.138,0.102l0.136,0.103l0.135,0.105l0.133,0.106l0.133,0.108l0.13,0.109l0.13,0.111l0.128,0.113l0.127,0.114l0.126,0.115l0.124,0.117l0.123,0.118l0.121,0.12l0.12,0.122l0.118,0.122l0.117,0.124l0.116,0.126l0.114,0.127l0.112,0.128l0.111,0.13l0.109,0.131l0.108,0.132l0.107,0.134l0.104,0.134l0.103,0.137l0.102,0.137l0.1,0.139l0.098,0.14l0.097,0.141l0.095,0.142l0.093,0.144l0.092,0.145l0.09,0.145l0.088,0.148l0.086,0.148l0.085,0.149l0.083,0.151l0.081,0.151l0.08,0.153l0.077,0.154l0.076,0.154l0.074,0.156l0.072,0.157l0.07,0.158l0.069,0.159l0.066,0.16l0.065,0.161l0.063,0.161l0.06,0.163l0.059,0.164l0.057,0.164l0.055,0.166l0.053,0.166l0.051,0.167l0.049,0.169l0.047,0.169l0.045,0.169l0.042,0.171l0.041,0.171l0.039,0.173l0.036,0.173l0.035,0.174l0.032,0.174l0.03,0.175l0.028,0.176l0.026,0.177l0.024,0.177l0.022,0.178l0.019,0.179l0.017,0.18l0.015,0.18l0.012,0.18l0.011,0.181l0.008,0.182l0.006,0.183l0.003,0.183l0.001,0.183l0,28.423l-0.001,0.184l-0.003,0.183l-0.006,0.182l-0.008,0.182l-0.011,0.181l-0.012,0.181l-0.015,0.18l-0.017,0.179l-0.019,0.179l-0.022,0.178l-0.024,0.178l-0.026,0.176l-0.028,0.176l-0.03,0.176l-0.032,0.174l-0.035,0.174l-0.036,0.173l-0.039,0.172l-0.041,0.172l-0.042,0.17l-0.045,0.17l-0.047,0.169l-0.049,0.168l-0.051,0.167l-0.053,0.167l-0.055,0.165l-0.057,0.165l-0.059,0.164l-0.06,0.162l-0.063,0.162l-0.065,0.161l-0.066,0.16l-0.069,0.159l-0.07,0.158l-0.072,0.156l-0.074,0.156l-0.076,0.155l-0.077,0.154l-0.08,0.152l-0.081,0.152l-0.083,0.15l-0.085,0.15l-0.086,0.148l-0.088,0.147l-0.09,0.146l-0.092,0.145l-0.093,0.143l-0.095,0.143l-0.097,0.141l-0.098,0.14l-0.1,0.139l-0.102,0.137l-0.103,0.136l-0.104,0.135l-0.107,0.134l-0.108,0.132l-0.109,0.131l-0.111,0.13l-0.112,0.128l-0.114,0.127l-0.116,0.125l-0.117,0.124l-0.118,0.123l-0.12,0.121l-0.121,0.12l-0.123,0.119l-0.124,0.117l-0.126,0.115l-0.127,0.114l-0.128,0.112l-0.13,0.111l-0.13,0.11l-0.133,0.108l-0.133,0.106l-0.135,0.105l-0.136,0.103l-0.138,0.101l-0.139,0.1l-0.14,0.099l-0.141,0.096l-0.142,0.095l-0.144,0.094l-0.144,0.091l-0.146,0.09l-0.147,0.088l-0.149,0.087l-0.149,0.084l-0.15,0.083l-0.152,0.082l-0.153,0.079l-0.153,0.078l-0.155,0.075l-0.156,0.074l-0.157,0.073l-0.158,0.07l-0.159,0.068l-0.159,0.067l-0.161,0.064l-0.162,0.063l-0.163,0.061l-0.164,0.059l-0.164,0.057l-0.166,0.054l-0.166,0.053l-0.167,0.051l-0.168,0.049l-0.169,0.047l-0.17,0.045l-0.171,0.043l-0.171,0.041l-0.173,0.038l-0.173,0.037l-0.173,0.034l-0.175,0.033l-0.175,0.03l-0.176,0.028l-0.177,0.026l-0.177,0.023l-0.178,0.022l-0.179,0.019l-0.179,0.017l-0.18,0.015l-0.181,0.013l-0.181,0.01l-0.182,0.008l-0.183,0.006l-0.183,0.004l-0.183,0.001l-46.798,0l-0.183,-0.001l-0.183,-0.004l-0.183,-0.006l-0.181,-0.008l-0.182,-0.01l-0.18,-0.013l-0.18,-0.015l-0.18,-0.017l-0.178,-0.019l-0.178,-0.022l-0.178,-0.023l-0.177,-0.026l-0.176,-0.028l-0.175,-0.03l-0.174,-0.033l-0.174,-0.034l-0.173,-0.037l-0.172,-0.038l-0.172,-0.041l-0.17,-0.043l-0.17,-0.045l-0.169,-0.047l-0.168,-0.049l-0.168,-0.051l-0.166,-0.053l-0.166,-0.054l-0.164,-0.057l-0.164,-0.059l-0.163,-0.061l-0.161,-0.063l-0.161,-0.064l-0.16,-0.067l-0.159,-0.068l-0.158,-0.07l-0.157,-0.073l-0.155,-0.074l-0.155,-0.075l-0.154,-0.078l-0.153,-0.079l-0.151,-0.082l-0.151,-0.083l-0.149,-0.084l-0.148,-0.087l-0.147,-0.088l-0.146,-0.09l-0.145,-0.091l-0.144,-0.094l-0.142,-0.095l-0.141,-0.096l-0.14,-0.099l-0.139,-0.1l-0.137,-0.101l-0.136,-0.103l-0.135,-0.105l-0.134,-0.106l-0.132,-0.108l-0.131,-0.11l-0.13,-0.111l-0.128,-0.112l-0.127,-0.114l-0.125,-0.115l-0.125,-0.117l-0.122,-0.119l-0.122,-0.12l-0.119,-0.121l-0.119,-0.123l-0.117,-0.124l-0.115,-0.125l-0.114,-0.127l-0.113,-0.128l-0.111,-0.13l-0.109,-0.131l-0.108,-0.132l-0.106,-0.134l-0.105,-0.135l-0.103,-0.136l-0.102,-0.137l-0.1,-0.139l-0.098,-0.14l-0.097,-0.141l-0.094,-0.143l-0.094,-0.143l-0.091,-0.145l-0.09,-0.146l-0.089,-0.147l-0.086,-0.148l-0.085,-0.15l-0.083,-0.15l-0.081,-0.152l-0.079,-0.152l-0.078,-0.154l-0.076,-0.155l-0.074,-0.156l-0.072,-0.156l-0.07,-0.158l-0.068,-0.159l-0.067,-0.16l-0.065,-0.161l-0.062,-0.162l-0.061,-0.162l-0.059,-0.164l-0.057,-0.165l-0.055,-0.165l-0.053,-0.167l-0.051,-0.167l-0.048,-0.168l-0.047,-0.169l-0.045,-0.17l-0.043,-0.17l-0.041,-0.172l-0.038,-0.172l-0.037,-0.173l-0.035,-0.174l-0.032,-0.174l-0.03,-0.176l-0.028,-0.176l-0.026,-0.176l-0.024,-0.178l-0.021,-0.178l-0.02,-0.179l-0.017,-0.179l-0.015,-0.18l-0.012,-0.181l-0.01,-0.181l-0.009,-0.182l-0.005,-0.182l-0.004,-0.183l-0.001,-0.184l0,-28.423l0.001,-0.183l0.004,-0.183l0.005,-0.183l0.009,-0.182l0.01,-0.181l0.012,-0.18l0.015,-0.18l0.017,-0.18l0.02,-0.179l0.021,-0.178l0.024,-0.177l0.026,-0.177l0.028,-0.176l0.03,-0.175l0.032,-0.174l0.035,-0.174l0.037,-0.173l0.038,-0.173l0.041,-0.171l0.043,-0.171l0.045,-0.169l0.047,-0.169l0.048,-0.169l0.051,-0.167l0.053,-0.166l0.055,-0.166l0.057,-0.164l0.059,-0.164l0.061,-0.163l0.062,-0.161l0.065,-0.161l0.067,-0.16l0.068,-0.159l0.07,-0.158l0.072,-0.157l0.074,-0.156l0.076,-0.154l0.078,-0.154l0.079,-0.153l0.081,-0.151l0.083,-0.151l0.085,-0.149l0.086,-0.148l0.089,-0.148l0.09,-0.145l0.091,-0.145l0.094,-0.144l0.094,-0.142l0.097,-0.141l0.098,-0.14l0.1,-0.139l0.102,-0.137l0.103,-0.137l0.105,-0.134l0.106,-0.134l0.108,-0.132l0.109,-0.131l0.111,-0.13l0.113,-0.128l0.114,-0.127l0.115,-0.126l0.117,-0.124l0.119,-0.122l0.119,-0.122l0.122,-0.12l0.122,-0.118l0.125,-0.117l0.125,-0.115l0.127,-0.114l0.128,-0.113l0.13,-0.111l0.131,-0.109l0.132,-0.108l0.134,-0.106l0.135,-0.105l0.136,-0.103l0.137,-0.102l0.139,-0.1l0.14,-0.098l0.141,-0.097l0.142,-0.095l0.144,-0.093l0.145,-0.092l0.146,-0.089l0.147,-0.089l0.148,-0.086l0.149,-0.085l0.151,-0.083l0.151,-0.081l0.153,-0.079l0.154,-0.078l0.155,-0.076l0.155,-0.074l0.157,-0.072l0.158,-0.07l0.159,-0.069l0.16,-0.066l0.161,-0.065l0.161,-0.062l0.163,-0.061l0.164,-0.059l0.164,-0.057l0.166,-0.055l0.166,-0.053l0.168,-0.051l0.168,-0.049l0.169,-0.047l0.17,-0.044l0.17,-0.043l0.172,-0.041l0.172,-0.039l0.173,-0.036l0.174,-0.035l0.174,-0.032l0.175,-0.03l0.176,-0.028l0.177,-0.026l0.178,-0.024l0.178,-0.021l0.178,-0.02l0.18,-0.017l0.18,-0.015l0.18,-0.012l0.182,-0.011l0.181,-0.008l0.183,-0.006l0.183,-0.003l0.183,-0.001l46.798,0l0.183,0.001ZM593.362,740.77l-0.14,0.001l-0.127,0.002l-0.126,0.004l-0.124,0.006l-0.125,0.007l-0.124,0.008l-0.123,0.011l-0.122,0.011l-0.123,0.013l-0.122,0.015l-0.121,0.016l-0.12,0.018l-0.12,0.019l-0.119,0.021l-0.119,0.022l-0.119,0.023l-0.117,0.025l-0.118,0.027l-0.117,0.027l-0.116,0.029l-0.116,0.031l-0.115,0.032l-0.115,0.033l-0.113,0.035l-0.113,0.036l-0.113,0.037l-0.112,0.039l-0.112,0.04l-0.11,0.041l-0.11,0.043l-0.11,0.044l-0.109,0.046l-0.108,0.046l-0.108,0.048l-0.107,0.049l-0.106,0.051l-0.106,0.052l-0.104,0.052l-0.105,0.055l-0.104,0.055l-0.101,0.056l-0.103,0.059l-0.102,0.059l-0.1,0.06l-0.099,0.061l-0.099,0.063l-0.099,0.064l-0.097,0.065l-0.097,0.066l-0.096,0.067l-0.095,0.069l-0.094,0.069l-0.093,0.071l-0.093,0.072l-0.091,0.072l-0.09,0.074l-0.09,0.075l-0.089,0.076l-0.089,0.078l-0.086,0.078l-0.086,0.079l-0.085,0.08l-0.084,0.081l-0.084,0.082l-0.082,0.084l-0.081,0.083l-0.08,0.085l-0.079,0.087l-0.078,0.087l-0.077,0.088l-0.077,0.089l-0.075,0.09l-0.074,0.09l-0.072,0.091l-0.072,0.093l-0.071,0.093l-0.069,0.094l-0.068,0.095l-0.068,0.096l-0.066,0.097l-0.065,0.097l-0.064,0.099l-0.062,0.098l-0.062,0.1l-0.06,0.1l-0.059,0.102l-0.058,0.102l-0.057,0.102l-0.055,0.104l-0.055,0.104l-0.052,0.105l-0.052,0.106l-0.051,0.106l-0.049,0.107l-0.048,0.108l-0.046,0.108l-0.045,0.108l-0.045,0.11l-0.042,0.111l-0.042,0.111l-0.04,0.111l-0.038,0.112l-0.038,0.113l-0.036,0.112l-0.034,0.114l-0.034,0.115l-0.032,0.115l-0.03,0.116l-0.03,0.116l-0.027,0.116l-0.027,0.118l-0.025,0.118l-0.023,0.118l-0.022,0.12l-0.021,0.118l-0.019,0.121l-0.017,0.12l-0.017,0.121l-0.014,0.122l-0.014,0.123l-0.011,0.122l-0.01,0.124l-0.009,0.123l-0.007,0.124l-0.006,0.126l-0.004,0.125l-0.002,0.126l-0.001,0.141l0,28.394l0.001,0.141l0.002,0.125l0.004,0.126l0.006,0.125l0.007,0.124l0.009,0.124l0.01,0.123l0.011,0.123l0.014,0.122l0.014,0.123l0.017,0.12l0.017,0.121l0.019,0.12l0.021,0.119l0.022,0.119l0.023,0.119l0.025,0.118l0.027,0.117l0.027,0.117l0.03,0.116l0.03,0.115l0.032,0.115l0.033,0.115l0.035,0.114l0.036,0.113l0.038,0.113l0.038,0.111l0.04,0.112l0.042,0.111l0.043,0.111l0.043,0.109l0.046,0.108l0.046,0.109l0.048,0.108l0.049,0.107l0.051,0.106l0.052,0.106l0.052,0.104l0.055,0.105l0.055,0.103l0.057,0.103l0.058,0.102l0.059,0.101l0.06,0.101l0.061,0.099l0.063,0.099l0.064,0.099l0.065,0.097l0.066,0.096l0.068,0.097l0.068,0.094l0.069,0.094l0.071,0.094l0.072,0.092l0.072,0.091l0.074,0.091l0.075,0.09l0.076,0.089l0.078,0.088l0.078,0.087l0.079,0.086l0.08,0.085l0.081,0.084l0.082,0.083l0.084,0.083l0.084,0.081l0.085,0.08l0.086,0.079l0.086,0.078l0.089,0.077l0.089,0.076l0.09,0.075l0.09,0.075l0.091,0.072l0.093,0.072l0.093,0.07l0.094,0.07l0.096,0.069l0.095,0.067l0.096,0.066l0.098,0.065l0.099,0.064l0.099,0.062l0.099,0.062l0.1,0.06l0.102,0.059l0.103,0.058l0.102,0.057l0.103,0.055l0.104,0.054l0.105,0.053l0.106,0.052l0.106,0.05l0.107,0.049l0.108,0.049l0.108,0.046l0.109,0.045l0.109,0.044l0.111,0.043l0.111,0.042l0.112,0.04l0.111,0.038l0.113,0.038l0.113,0.036l0.113,0.034l0.115,0.033l0.116,0.033l0.115,0.03l0.116,0.029l0.117,0.028l0.117,0.026l0.117,0.025l0.12,0.024l0.119,0.022l0.119,0.02l0.12,0.02l0.12,0.017l0.121,0.016l0.122,0.015l0.123,0.013l0.122,0.012l0.124,0.01l0.124,0.009l0.123,0.007l0.126,0.005l0.125,0.004l0.126,0.003l0.141,0.001l46.768,0l0.141,-0.001l0.126,-0.003l0.126,-0.004l0.125,-0.005l0.124,-0.007l0.124,-0.009l0.123,-0.01l0.123,-0.012l0.122,-0.013l0.122,-0.015l0.121,-0.016l0.12,-0.017l0.121,-0.02l0.119,-0.02l0.119,-0.022l0.119,-0.024l0.117,-0.025l0.117,-0.026l0.117,-0.028l0.117,-0.029l0.115,-0.03l0.115,-0.032l0.115,-0.034l0.113,-0.034l0.114,-0.036l0.113,-0.038l0.111,-0.038l0.111,-0.04l0.112,-0.042l0.11,-0.043l0.11,-0.044l0.108,-0.045l0.108,-0.046l0.108,-0.049l0.107,-0.048l0.106,-0.051l0.106,-0.052l0.106,-0.053l0.103,-0.054l0.103,-0.055l0.103,-0.057l0.102,-0.058l0.102,-0.059l0.1,-0.06l0.1,-0.062l0.099,-0.062l0.098,-0.064l0.098,-0.065l0.096,-0.066l0.096,-0.067l0.095,-0.069l0.094,-0.07l0.093,-0.07l0.093,-0.072l0.091,-0.073l0.09,-0.073l0.09,-0.076l0.09,-0.076l0.088,-0.077l0.086,-0.078l0.086,-0.079l0.086,-0.08l0.084,-0.082l0.083,-0.081l0.082,-0.084l0.082,-0.085l0.08,-0.084l0.078,-0.086l0.079,-0.087l0.077,-0.088l0.076,-0.089l0.075,-0.089l0.074,-0.091l0.073,-0.092l0.072,-0.093l0.07,-0.093l0.07,-0.094l0.068,-0.095l0.067,-0.096l0.066,-0.096l0.065,-0.097l0.064,-0.099l0.063,-0.099l0.061,-0.099l0.061,-0.101l0.059,-0.101l0.058,-0.102l0.056,-0.103l0.055,-0.103l0.055,-0.105l0.053,-0.105l0.051,-0.105l0.051,-0.106l0.049,-0.108l0.048,-0.107l0.047,-0.108l0.045,-0.11l0.044,-0.109l0.043,-0.11l0.041,-0.111l0.04,-0.111l0.039,-0.112l0.037,-0.113l0.036,-0.113l0.035,-0.115l0.033,-0.114l0.032,-0.114l0.031,-0.116l0.029,-0.116l0.028,-0.117l0.026,-0.118l0.025,-0.117l0.023,-0.118l0.022,-0.119l0.021,-0.121l0.019,-0.119l0.018,-0.121l0.016,-0.121l0.015,-0.122l0.013,-0.122l0.012,-0.123l0.01,-0.122l0.008,-0.124l0.008,-0.125l0.005,-0.125l0.004,-0.126l0.002,-0.125l0.001,-0.14l0,-28.396l-0.001,-0.14l-0.002,-0.126l-0.004,-0.125l-0.005,-0.125l-0.008,-0.125l-0.008,-0.124l-0.01,-0.123l-0.012,-0.122l-0.013,-0.123l-0.015,-0.121l-0.016,-0.122l-0.018,-0.12l-0.019,-0.12l-0.021,-0.12l-0.022,-0.119l-0.023,-0.118l-0.025,-0.118l-0.026,-0.118l-0.028,-0.116l-0.029,-0.116l-0.031,-0.116l-0.032,-0.115l-0.033,-0.114l-0.035,-0.115l-0.036,-0.112l-0.037,-0.113l-0.039,-0.112l-0.04,-0.112l-0.041,-0.11l-0.043,-0.11l-0.044,-0.11l-0.046,-0.11l-0.046,-0.108l-0.048,-0.107l-0.049,-0.107l-0.051,-0.107l-0.051,-0.105l-0.053,-0.105l-0.055,-0.104l-0.055,-0.104l-0.056,-0.102l-0.058,-0.102l-0.059,-0.102l-0.061,-0.1l-0.061,-0.1l-0.063,-0.098l-0.064,-0.099l-0.065,-0.097l-0.066,-0.097l-0.067,-0.095l-0.068,-0.096l-0.07,-0.094l-0.07,-0.093l-0.072,-0.093l-0.073,-0.091l-0.074,-0.091l-0.075,-0.089l-0.076,-0.089l-0.077,-0.088l-0.078,-0.087l-0.08,-0.087l-0.08,-0.084l-0.081,-0.085l-0.082,-0.083l-0.083,-0.082l-0.084,-0.081l-0.086,-0.08l-0.086,-0.079l-0.086,-0.078l-0.088,-0.078l-0.09,-0.076l-0.09,-0.075l-0.09,-0.074l-0.091,-0.072l-0.093,-0.072l-0.093,-0.071l-0.094,-0.069l-0.095,-0.069l-0.096,-0.067l-0.097,-0.066l-0.097,-0.065l-0.098,-0.064l-0.099,-0.063l-0.1,-0.061l-0.1,-0.06l-0.102,-0.06l-0.102,-0.058l-0.102,-0.056l-0.104,-0.055l-0.104,-0.055l-0.105,-0.052l-0.106,-0.053l-0.106,-0.05l-0.107,-0.049l-0.108,-0.048l-0.107,-0.046l-0.109,-0.046l-0.111,-0.044l-0.109,-0.042l-0.111,-0.042l-0.112,-0.04l-0.112,-0.039l-0.113,-0.037l-0.112,-0.036l-0.114,-0.035l-0.115,-0.033l-0.115,-0.032l-0.115,-0.03l-0.117,-0.03l-0.116,-0.027l-0.118,-0.027l-0.118,-0.025l-0.118,-0.023l-0.119,-0.022l-0.119,-0.021l-0.121,-0.019l-0.12,-0.018l-0.121,-0.016l-0.122,-0.014l-0.122,-0.014l-0.123,-0.011l-0.123,-0.011l-0.124,-0.008l-0.125,-0.007l-0.124,-0.006l-0.126,-0.004l-0.126,-0.002l-0.141,-0.001l-46.768,0Z" style="fill:#fbd689;"/></g></svg>