<?xml version="1.0" encoding="UTF-8" standalone="no"?>
<!DOCTYPE svg PUBLIC "-//W3C//DTD SVG 1.1//EN" "http://www.w3.org/Graphics/SVG/1.1/DTD/svg11.dtd">
<svg width="100%" height="100%" viewBox="0 0 1280 1150" version="1.1" xmlns="http://www.w3.org/2000/svg" xmlns:xlink="http://www.w3.org/1999/xlink" xml:space="preserve" style="fill-rule:evenodd;clip-rule:evenodd;stroke-linecap:round;stroke-linejoin:round;stroke-miterlimit:1.41421;">
    <g transform="matrix(0.938265,-0.345917,0.345917,0.938265,-171.3,275.006)">
        <path d="M618.888,169.886L621.253,179.638L1023.8,237.839L733.446,978.157L331.821,978.157L621.253,179.638L323.816,968.117L331.821,978.157" style="fill:rgb(242,242,242);stroke-width:1px;stroke:black;"/>
    </g>
    <g transform="matrix(0.938265,-0.345917,0.345917,0.938265,-171.3,275.006)">
        <path d="M621.253,179.638L1023.8,237.839L928.587,171.167L920.673,169.886L998.569,225.153L618.888,169.886L621.253,179.638Z" style="fill:rgb(242,242,242);stroke-width:1px;stroke:black;"/>
    </g>
    <g transform="matrix(0.938265,-0.345917,0.345917,0.938265,-171.3,275.006)">
        <path d="M607.625,164.452L618.888,169.886L998.569,225.153L920.673,169.886L529.855,109.068L607.625,164.452Z" style="fill:white;stroke-width:1px;stroke:black;"/>
    </g>
    <g transform="matrix(0.938265,-0.345917,0.345917,0.938265,-171.3,275.006)">
        <path d="M529.855,109.068L607.625,164.452L311.318,961.023L240.143,899.448L529.855,109.068Z" style="fill:white;stroke-width:1px;stroke:black;"/>
    </g>
    <g transform="matrix(0.938265,-0.345917,0.345917,0.938265,-171.3,275.006)">
        <path d="M618.888,169.886L323.816,968.117L311.318,961.023L607.625,164.452L618.888,169.886Z" style="fill:white;stroke-width:1px;stroke:black;"/>
    </g>
    <g id="Blau" transform="matrix(0.938265,-0.345917,0.345917,0.938265,-171.3,275.006)">
        <path d="M597.945,190.479L609.171,196.171L333.397,942.195L320.765,935.624L597.945,190.479Z" style="fill:rgb(0,24,80);stroke-width:1px;stroke:black;"/>
    </g>
    <g transform="matrix(0.976506,-0.215491,-0.0449103,1.03397,74.7257,92.9825)">
        <path d="M667.706,247.013L687.877,247.013L687.877,252.316L681.109,252.316L681.109,268.487L674.474,268.487L674.474,252.316L667.706,252.316L667.706,247.013Z" style="fill:black;fill-rule:nonzero;"/>
        <path d="M690.851,247.013L701.881,247.013C704.283,247.013 706.083,247.584 707.279,248.727C708.475,249.869 709.073,251.495 709.073,253.605C709.073,255.773 708.421,257.467 707.118,258.688C705.814,259.908 703.824,260.519 701.149,260.519L697.516,260.519L697.516,268.487L690.851,268.487L690.851,247.013ZM697.516,256.168L699.142,256.168C700.421,256.168 701.319,255.946 701.837,255.502C702.355,255.057 702.613,254.488 702.613,253.795C702.613,253.121 702.389,252.55 701.94,252.081C701.49,251.612 700.646,251.378 699.405,251.378L697.516,251.378L697.516,256.168Z" style="fill:black;fill-rule:nonzero;"/>
        <rect x="711.007" y="258.351" width="8.672" height="4.614" style="fill:black;fill-rule:nonzero;"/>
        <path d="M722.535,247.013L729.171,247.013L729.171,263.199L739.527,263.199L739.527,268.487L722.535,268.487L722.535,247.013Z" style="fill:black;fill-rule:nonzero;"/>
        <rect x="742.809" y="247.013" width="6.65" height="21.475" style="fill:black;fill-rule:nonzero;"/>
        <path d="M754.264,247.013L760.46,247.013L768.546,258.893L768.546,247.013L774.801,247.013L774.801,268.487L768.546,268.487L760.504,256.695L760.504,268.487L754.264,268.487L754.264,247.013Z" style="fill:black;fill-rule:nonzero;"/>
        <path d="M779.239,247.013L785.875,247.013L785.875,255.128L792.833,247.013L801.651,247.013L793.829,255.113L802.003,268.487L793.829,268.487L789.303,259.654L785.875,263.243L785.875,268.487L779.239,268.487L779.239,247.013Z" style="fill:black;fill-rule:nonzero;"/>
    </g>
</svg>
