<?xml version="1.0" standalone="no"?>
<!DOCTYPE svg PUBLIC "-//W3C//DTD SVG 1.1//EN" "http://www.w3.org/Graphics/SVG/1.1/DTD/svg11.dtd">
<svg width="100%" height="100%" viewBox="0 0 1280 1150" version="1.1" xmlns="http://www.w3.org/2000/svg" xmlns:xlink="http://www.w3.org/1999/xlink" xml:space="preserve" style="fill-rule:evenodd;clip-rule:evenodd;stroke-linecap:round;stroke-linejoin:round;stroke-miterlimit:1.41421;">
    <g>
        <path d="M115.873,640.282L443.311,640.282C464.599,645.969 483.363,654.271 495.327,669.613C508.235,704.619 505.644,736.877 495.327,767.764L458.464,791.232L73.324,791.232L42.542,767.764C37.344,736.525 25.302,707.231 42.542,669.613C61.635,647.754 86.853,639.727 115.873,640.282Z" style="fill:rgb(204,205,204);stroke-width:1px;stroke:rgb(26,25,25);"/>
        <g transform="matrix(1.58,0,0,1,-90.8857,0)">
            <path d="M156.913,676.739C156.913,676.13 157.109,675.658 157.499,675.321C157.89,674.984 158.437,674.816 159.141,674.816C159.849,674.816 160.396,674.985 160.78,675.324C161.164,675.663 161.356,676.148 161.356,676.778L161.356,678.339L159.459,678.339L159.459,676.642C159.459,676.469 159.435,676.35 159.387,676.283C159.34,676.216 159.258,676.182 159.141,676.182C159.02,676.182 158.935,676.218 158.885,676.289C158.836,676.36 158.811,676.478 158.811,676.642L158.811,677.491C158.811,677.633 158.829,677.757 158.866,677.863C158.903,677.969 158.962,678.071 159.044,678.171L160.877,680.185C161.05,680.371 161.173,680.567 161.246,680.774C161.32,680.982 161.356,681.312 161.356,681.765L161.356,682.879C161.356,683.493 161.163,683.964 160.777,684.295C160.39,684.625 159.841,684.79 159.128,684.79C158.399,684.79 157.847,684.617 157.473,684.272C157.1,683.927 156.913,683.417 156.913,682.743L156.913,680.956L158.811,680.956L158.811,682.879C158.811,683.044 158.836,683.162 158.885,683.236C158.935,683.309 159.02,683.346 159.141,683.346C159.254,683.346 159.335,683.31 159.384,683.239C159.434,683.168 159.459,683.048 159.459,682.879L159.459,681.869C159.459,681.731 159.434,681.602 159.384,681.484C159.335,681.365 159.249,681.236 159.128,681.098L157.405,679.149C157.228,678.95 157.102,678.75 157.027,678.55C156.951,678.349 156.913,678.08 156.913,677.743L156.913,677.601L156.913,676.739Z" style="fill:black;fill-rule:nonzero;"/>
            <path d="M161.888,684.576L161.888,675.023L165.443,675.023L165.443,676.351L163.798,676.351L163.798,678.553L165.404,678.553L165.404,679.932L163.798,679.932L163.798,683.132L165.443,683.132L165.443,684.576L161.888,684.576Z" style="fill:black;fill-rule:nonzero;"/>
            <path d="M165.923,677.283C165.923,676.39 166.094,675.755 166.438,675.379C166.781,675.003 167.348,674.816 168.138,674.816C168.932,674.816 169.502,675.002 169.848,675.376C170.193,675.749 170.366,676.385 170.366,677.283L170.366,678.339L168.468,678.339L168.468,676.642C168.468,676.474 168.443,676.355 168.394,676.286C168.344,676.217 168.259,676.182 168.138,676.182C168.021,676.182 167.939,676.217 167.892,676.286C167.844,676.355 167.82,676.474 167.82,676.642L167.82,682.879C167.82,683.048 167.845,683.168 167.895,683.239C167.945,683.31 168.026,683.346 168.138,683.346C168.259,683.346 168.344,683.309 168.394,683.236C168.443,683.162 168.468,683.044 168.468,682.879L168.468,680.956L170.366,680.956L170.366,682.335C170.366,683.225 170.194,683.856 169.851,684.23C169.508,684.603 168.937,684.79 168.138,684.79C167.343,684.79 166.775,684.606 166.434,684.236C166.093,683.867 165.923,683.234 165.923,682.335L165.923,677.283Z" style="fill:black;fill-rule:nonzero;"/>
            <path d="M170.819,677.283C170.819,676.394 170.992,675.76 171.337,675.382C171.683,675.005 172.253,674.816 173.047,674.816C173.842,674.816 174.412,675.002 174.757,675.376C175.103,675.749 175.275,676.385 175.275,677.283L175.275,682.322C175.275,683.216 175.104,683.851 174.76,684.227C174.417,684.602 173.846,684.79 173.047,684.79C172.248,684.79 171.677,684.602 171.334,684.227C170.991,683.851 170.819,683.216 170.819,682.322L170.819,677.283ZM172.73,676.642L172.73,682.879C172.73,683.048 172.755,683.168 172.804,683.239C172.854,683.31 172.935,683.346 173.047,683.346C173.168,683.346 173.253,683.309 173.303,683.236C173.353,683.162 173.378,683.044 173.378,682.879L173.378,676.642C173.378,676.474 173.353,676.355 173.303,676.286C173.253,676.217 173.168,676.182 173.047,676.182C172.935,676.182 172.854,676.219 172.804,676.292C172.755,676.366 172.73,676.482 172.73,676.642Z" style="fill:black;fill-rule:nonzero;"/>
            <path d="M175.832,684.576L175.832,675.023L178.449,675.023L179.123,679.071C179.183,679.434 179.235,679.84 179.278,680.289C179.321,680.738 179.358,681.252 179.388,681.83L179.466,681.83C179.436,681.157 179.413,680.568 179.398,680.065C179.383,679.562 179.375,679.201 179.375,678.98L179.362,675.023L180.858,675.023L180.858,684.576L178.617,684.576L177.639,679.388C177.601,679.185 177.552,678.879 177.494,678.469C177.435,678.058 177.376,677.609 177.316,677.121L177.264,677.121C177.29,677.519 177.31,677.866 177.325,678.164C177.34,678.462 177.348,678.706 177.348,678.896L177.348,684.576L175.832,684.576Z" style="fill:black;fill-rule:nonzero;"/>
            <path d="M183.365,676.312L183.365,683.223L183.469,683.223C183.667,683.223 183.808,683.182 183.89,683.1C183.972,683.018 184.013,682.882 184.013,682.692L184.013,676.869C184.013,676.649 183.971,676.501 183.886,676.425C183.802,676.35 183.628,676.312 183.365,676.312ZM181.467,684.576L181.467,675.023L183.695,675.023C184.507,675.023 185.081,675.199 185.418,675.551C185.755,675.903 185.923,676.51 185.923,677.374L185.923,682.212C185.923,683.072 185.742,683.68 185.379,684.039C185.017,684.397 184.412,684.576 183.566,684.576L181.467,684.576Z" style="fill:black;fill-rule:nonzero;"/>
            <path d="M186.267,684.576L187.795,675.023L190.237,675.023L191.364,684.576L189.389,684.576L189.201,682.031L188.255,682.031L188.009,684.576L186.267,684.576ZM188.404,680.625L189.11,680.625L188.896,677.711C188.883,677.547 188.873,677.251 188.864,676.824C188.86,676.638 188.858,676.493 188.858,676.39L188.786,676.39C188.769,676.757 188.754,677.049 188.741,677.267C188.728,677.485 188.717,677.629 188.709,677.698L188.404,680.625Z" style="fill:black;fill-rule:nonzero;"/>
            <path d="M194.292,678.3L194.292,676.778C194.292,676.562 194.25,676.418 194.165,676.344C194.081,676.271 193.912,676.234 193.657,676.234L193.657,678.844L193.761,678.844C193.959,678.844 194.097,678.804 194.175,678.724C194.253,678.645 194.292,678.503 194.292,678.3ZM191.746,684.576L191.746,675.023L193.974,675.023C194.752,675.023 195.315,675.16 195.665,675.434C196.015,675.708 196.189,676.148 196.189,676.752L196.189,677.756C196.189,678.257 196.066,678.641 195.82,678.909C195.574,679.177 195.207,679.324 194.719,679.35L194.719,679.401C195.263,679.436 195.644,679.571 195.862,679.806C196.08,680.041 196.189,680.442 196.189,681.008L196.189,683.436C196.189,683.631 196.205,683.826 196.235,684.023C196.265,684.219 196.308,684.404 196.364,684.576L194.48,684.576C194.419,684.412 194.373,684.23 194.34,684.029C194.308,683.828 194.292,683.614 194.292,683.385L194.292,683.035L194.292,680.956C194.292,680.688 194.241,680.486 194.139,680.35C194.038,680.214 193.886,680.146 193.683,680.146L193.657,680.146L193.657,684.576L191.746,684.576Z" style="fill:black;fill-rule:nonzero;"/>
            <path d="M197.796,684.576L197.796,680.956L196.351,675.023L198.314,675.023L198.657,677.199C198.7,677.467 198.735,677.727 198.761,677.98C198.787,678.232 198.806,678.486 198.819,678.741L198.897,678.741C198.936,678.404 198.971,678.108 199.004,677.853C199.036,677.599 199.067,677.385 199.098,677.212L199.48,675.023L201.177,675.023L199.693,680.956L199.693,684.576L197.796,684.576Z" style="fill:black;fill-rule:nonzero;"/>
        </g>
        <g transform="matrix(1.58,0,0,1,81.9531,0.209298)">
            <path d="M157.004,684.576L157.004,675.023L159.737,675.023L160.359,680.01C160.411,680.399 160.46,680.932 160.508,681.61C160.512,681.666 160.517,681.709 160.521,681.74L160.586,681.733C160.607,681.431 160.634,681.134 160.667,680.842C160.699,680.551 160.743,680.23 160.799,679.881L161.544,675.023L164.154,675.023L164.154,684.576L162.419,684.576L162.419,679.524C162.419,679.261 162.422,678.958 162.428,678.614C162.435,678.271 162.445,677.886 162.457,677.458L162.406,677.452C162.38,678.013 162.319,678.557 162.224,679.084C162.22,679.106 162.218,679.119 162.218,679.123L161.292,684.576L159.672,684.576L158.785,679.395C158.755,679.222 158.724,678.968 158.691,678.634C158.659,678.299 158.627,677.907 158.597,677.458L158.532,677.452C158.532,677.469 158.532,677.542 158.532,677.672C158.541,679.671 158.545,681.973 158.545,684.576L157.004,684.576Z" style="fill:black;fill-rule:nonzero;"/>
            <path d="M164.537,684.576L166.065,675.023L168.507,675.023L169.634,684.576L167.658,684.576L167.471,682.031L166.525,682.031L166.279,684.576L164.537,684.576ZM166.674,680.625L167.38,680.625L167.166,677.711C167.153,677.547 167.142,677.251 167.134,676.824C167.13,676.638 167.127,676.493 167.127,676.39L167.056,676.39C167.039,676.757 167.024,677.049 167.011,677.267C166.998,677.485 166.987,677.629 166.978,677.698L166.674,680.625Z" style="fill:black;fill-rule:nonzero;"/>
            <rect x="170.003" y="675.023" width="1.911" height="9.553" style="fill:black;fill-rule:nonzero;"/>
            <path d="M172.51,684.576L172.51,675.023L175.126,675.023L175.8,679.071C175.86,679.434 175.912,679.84 175.955,680.289C175.999,680.738 176.035,681.252 176.066,681.83L176.143,681.83C176.113,681.157 176.09,680.568 176.075,680.065C176.06,679.562 176.053,679.201 176.053,678.98L176.04,675.023L177.536,675.023L177.536,684.576L175.295,684.576L174.317,679.388C174.278,679.185 174.229,678.879 174.171,678.469C174.113,678.058 174.053,677.609 173.993,677.121L173.941,677.121C173.967,677.519 173.988,677.866 174.003,678.164C174.018,678.462 174.025,678.706 174.025,678.896L174.025,684.576L172.51,684.576Z" style="fill:black;fill-rule:nonzero;"/>
        </g>
        <g transform="matrix(1.58,0,0,1,3.69632,-18.6914)">
            <path d="M159.549,678.3L159.549,676.778C159.549,676.562 159.507,676.418 159.423,676.344C159.339,676.271 159.169,676.234 158.915,676.234L158.915,678.844L159.018,678.844C159.217,678.844 159.355,678.804 159.433,678.724C159.51,678.645 159.549,678.503 159.549,678.3ZM157.004,684.576L157.004,675.023L159.232,675.023C160.009,675.023 160.573,675.16 160.922,675.434C161.272,675.708 161.447,676.148 161.447,676.752L161.447,677.756C161.447,678.257 161.324,678.641 161.078,678.909C160.832,679.177 160.465,679.324 159.977,679.35L159.977,679.401C160.521,679.436 160.902,679.571 161.12,679.806C161.338,680.041 161.447,680.442 161.447,681.008L161.447,683.436C161.447,683.631 161.462,683.826 161.492,684.023C161.523,684.219 161.566,684.404 161.622,684.576L159.737,684.576C159.677,684.412 159.63,684.23 159.598,684.029C159.566,683.828 159.549,683.614 159.549,683.385L159.549,683.035L159.549,680.956C159.549,680.688 159.499,680.486 159.397,680.35C159.296,680.214 159.143,680.146 158.941,680.146L158.915,680.146L158.915,684.576L157.004,684.576Z" style="fill:black;fill-rule:nonzero;"/>
            <path d="M161.952,684.576L161.952,675.023L165.508,675.023L165.508,676.351L163.863,676.351L163.863,678.553L165.469,678.553L165.469,679.932L163.863,679.932L163.863,683.132L165.508,683.132L165.508,684.576L161.952,684.576Z" style="fill:black;fill-rule:nonzero;"/>
            <path d="M165.936,676.739C165.936,676.13 166.131,675.658 166.522,675.321C166.913,674.984 167.46,674.816 168.164,674.816C168.872,674.816 169.418,674.985 169.802,675.324C170.187,675.663 170.379,676.148 170.379,676.778L170.379,678.339L168.481,678.339L168.481,676.642C168.481,676.469 168.457,676.35 168.41,676.283C168.362,676.216 168.28,676.182 168.164,676.182C168.043,676.182 167.957,676.218 167.908,676.289C167.858,676.36 167.833,676.478 167.833,676.642L167.833,677.491C167.833,677.633 167.852,677.757 167.888,677.863C167.925,677.969 167.984,678.071 168.067,678.171L169.899,680.185C170.072,680.371 170.195,680.567 170.269,680.774C170.342,680.982 170.379,681.312 170.379,681.765L170.379,682.879C170.379,683.493 170.186,683.964 169.799,684.295C169.413,684.625 168.863,684.79 168.151,684.79C167.421,684.79 166.869,684.617 166.496,684.272C166.122,683.927 165.936,683.417 165.936,682.743L165.936,680.956L167.833,680.956L167.833,682.879C167.833,683.044 167.858,683.162 167.908,683.236C167.957,683.309 168.043,683.346 168.164,683.346C168.276,683.346 168.357,683.31 168.407,683.239C168.456,683.168 168.481,683.048 168.481,682.879L168.481,681.869C168.481,681.731 168.456,681.602 168.407,681.484C168.357,681.365 168.272,681.236 168.151,681.098L166.428,679.149C166.251,678.95 166.125,678.75 166.049,678.55C165.973,678.349 165.936,678.08 165.936,677.743L165.936,677.601L165.936,676.739Z" style="fill:black;fill-rule:nonzero;"/>
            <path d="M170.91,684.576L170.91,675.023L174.466,675.023L174.466,676.351L172.821,676.351L172.821,678.553L174.427,678.553L174.427,679.932L172.821,679.932L172.821,683.132L174.466,683.132L174.466,684.576L170.91,684.576Z" style="fill:black;fill-rule:nonzero;"/>
            <path d="M175.955,684.576L175.955,676.377L174.731,676.377L174.731,675.023L179.084,675.023L179.084,676.377L177.847,676.377L177.847,684.576L175.955,684.576Z" style="fill:black;fill-rule:nonzero;"/>
        </g>
        <path d="M23.853,737.677L40.771,737.677C44.257,753.134 49.652,765.504 57.003,774.712L57.003,735.898L66.936,735.898L66.936,715.269L55.493,715.269L55.493,709.658L77.425,709.658L77.425,774.712L460.628,774.712L460.628,709.658L482.784,709.658L482.784,715.269L471.018,715.269L471.018,735.898L481.139,735.898L481.139,774.712C488.366,764.883 494.137,752.968 497.551,737.677L514.266,737.677C507.995,777.302 495.154,804.121 471.018,804.121L66.936,804.121C40.483,804.121 30.808,773.118 23.853,737.677Z" style="fill:rgb(191,193,192);stroke-width:1px;stroke-linecap:butt;stroke:black;"/>
        <path d="M23.853,737.668L40.771,737.668C37.418,708.077 42.763,680.395 64.638,656.34L81.827,647.938L456.285,647.938L473.436,656.34C492.913,680.677 502.106,707.401 497.471,737.334L514.152,737.334C516.548,705.832 508.266,678.767 493.108,654.56C471.577,641.532 447.963,634.897 423.254,631.627L115.873,631.627C90.426,633.697 66.858,641.418 45.096,654.56C26.56,681.218 22.69,709.213 23.853,737.668Z" style="fill:rgb(229,229,228);stroke-width:1px;stroke:rgb(26,25,25);"/>
        <g transform="matrix(0.882339,0,0,0.882339,-507.276,149.296)">
            <g id="LAN rechts" transform="matrix(0.401968,0,0,0.338314,543.937,453.116)">
                <g transform="matrix(2.80113,0,0,2.48628,-1595.63,-1009.35)">
                    <rect x="740.742" y="604.188" width="97.412" height="98.569" style="fill:rgb(241,239,238);stroke-width:1.14px;stroke:black;"/>
                </g>
                <g transform="matrix(1,0,0,1,0.448016,-16.3012)">
                    <path d="M500.826,597.447L500.826,729.999L727.358,729.999L727.358,597.447L690.744,597.447L690.744,562.703L656.263,562.703L656.263,534.994L569.758,534.994L569.758,562.703L537.669,562.703L537.669,597.447L500.826,597.447Z" style="fill:black;stroke-width:2.75px;stroke:black;"/>
                    <g transform="matrix(2.32486,0,0,2.92652,-1230.98,-1317.53)">
                        <rect x="745.442" y="655.542" width="4.667" height="43.399" style="fill:rgb(179,179,179);"/>
                    </g>
                    <g transform="matrix(2.48776,0,0,2.95583,-1351.03,-1337.35)">
                        <path d="M749.247,654.888L745.786,654.888C744.886,654.888 744.886,654.89 744.886,655.747L749.247,655.747L749.247,654.888Z" style="fill:rgb(179,179,179);"/>
                    </g>
                    <g transform="matrix(2.48776,0,0,2.95583,-1353.18,-1339.33)">
                        <path d="M745.848,699.426L750.225,663.354L835.578,663.354L835.578,699.426L745.848,699.426Z" style="fill:rgb(179,179,179);stroke-width:0.23px;stroke:black;"/>
                    </g>
                    <g>
                        <path d="M554.209,632.623C554.209,631.655 553.548,630.87 552.734,630.87L549.784,630.87C548.97,630.87 548.309,631.655 548.309,632.623L548.309,713.866C548.309,714.833 548.97,715.619 549.784,715.619L552.734,715.619C553.548,715.619 554.209,714.833 554.209,713.866L554.209,632.623Z" style="fill:url(#_Linear1);"/>
                        <g transform="matrix(1,0,0,1,20.1115,-0.240574)">
                            <path d="M554.209,632.623C554.209,631.655 553.548,630.87 552.734,630.87L549.784,630.87C548.97,630.87 548.309,631.655 548.309,632.623L548.309,713.866C548.309,714.833 548.97,715.619 549.784,715.619L552.734,715.619C553.548,715.619 554.209,714.833 554.209,713.866L554.209,632.623Z" style="fill:url(#_Linear2);"/>
                        </g>
                        <g transform="matrix(1,0,0,1,38.1953,0)">
                            <path d="M554.209,632.623C554.209,631.655 553.548,630.87 552.734,630.87L549.784,630.87C548.97,630.87 548.309,631.655 548.309,632.623L548.309,713.866C548.309,714.833 548.97,715.619 549.784,715.619L552.734,715.619C553.548,715.619 554.209,714.833 554.209,713.866L554.209,632.623Z" style="fill:url(#_Linear3);"/>
                        </g>
                        <g transform="matrix(1,0,0,1,57.9658,0)">
                            <path d="M554.209,632.623C554.209,631.655 553.548,630.87 552.734,630.87L549.784,630.87C548.97,630.87 548.309,631.655 548.309,632.623L548.309,713.866C548.309,714.833 548.97,715.619 549.784,715.619L552.734,715.619C553.548,715.619 554.209,714.833 554.209,713.866L554.209,632.623Z" style="fill:url(#_Linear4);"/>
                        </g>
                        <g transform="matrix(1,0,0,1,76.3136,0)">
                            <path d="M554.209,632.623C554.209,631.655 553.548,630.87 552.734,630.87L549.784,630.87C548.97,630.87 548.309,631.655 548.309,632.623L548.309,713.866C548.309,714.833 548.97,715.619 549.784,715.619L552.734,715.619C553.548,715.619 554.209,714.833 554.209,713.866L554.209,632.623Z" style="fill:url(#_Linear5);"/>
                        </g>
                        <g transform="matrix(1,0,0,1,95.5008,0)">
                            <path d="M554.209,632.623C554.209,631.655 553.548,630.87 552.734,630.87L549.784,630.87C548.97,630.87 548.309,631.655 548.309,632.623L548.309,713.866C548.309,714.833 548.97,715.619 549.784,715.619L552.734,715.619C553.548,715.619 554.209,714.833 554.209,713.866L554.209,632.623Z" style="fill:url(#_Linear6);"/>
                        </g>
                        <g transform="matrix(1,0,0,1,114.936,0)">
                            <path d="M554.209,632.623C554.209,631.655 553.548,630.87 552.734,630.87L549.784,630.87C548.97,630.87 548.309,631.655 548.309,632.623L548.309,713.866C548.309,714.833 548.97,715.619 549.784,715.619L552.734,715.619C553.548,715.619 554.209,714.833 554.209,713.866L554.209,632.623Z" style="fill:url(#_Linear7);"/>
                        </g>
                        <g transform="matrix(1,0,0,1,132.667,0)">
                            <path d="M554.209,632.623C554.209,631.655 553.548,630.87 552.734,630.87L549.784,630.87C548.97,630.87 548.309,631.655 548.309,632.623L548.309,713.866C548.309,714.833 548.97,715.619 549.784,715.619L552.734,715.619C553.548,715.619 554.209,714.833 554.209,713.866L554.209,632.623Z" style="fill:url(#_Linear8);"/>
                        </g>
                    </g>
                </g>
            </g>
            <g id="LAN rechts1" transform="matrix(0.401968,0,0,0.338314,721.284,453.116)">
                <g transform="matrix(2.80113,0,0,2.48628,-1595.63,-1009.35)">
                    <rect x="740.742" y="604.188" width="97.412" height="98.569" style="fill:rgb(241,239,238);stroke-width:1.14px;stroke:black;"/>
                </g>
                <g transform="matrix(1,0,0,1,0.448016,-16.3012)">
                    <path d="M500.826,597.447L500.826,729.999L727.358,729.999L727.358,597.447L690.744,597.447L690.744,562.703L656.263,562.703L656.263,534.994L569.758,534.994L569.758,562.703L537.669,562.703L537.669,597.447L500.826,597.447Z" style="fill:black;stroke-width:2.75px;stroke:black;"/>
                    <g transform="matrix(2.32486,0,0,2.92652,-1230.98,-1317.53)">
                        <rect x="745.442" y="655.542" width="4.667" height="43.399" style="fill:rgb(179,179,179);"/>
                    </g>
                    <g transform="matrix(2.48776,0,0,2.95583,-1351.03,-1337.35)">
                        <path d="M749.247,654.888L745.786,654.888C744.886,654.888 744.886,654.89 744.886,655.747L749.247,655.747L749.247,654.888Z" style="fill:rgb(179,179,179);"/>
                    </g>
                    <g transform="matrix(2.48776,0,0,2.95583,-1353.18,-1339.33)">
                        <path d="M745.848,699.426L750.225,663.354L835.578,663.354L835.578,699.426L745.848,699.426Z" style="fill:rgb(179,179,179);stroke-width:0.23px;stroke:black;"/>
                    </g>
                    <g>
                        <path d="M554.209,632.623C554.209,631.655 553.548,630.87 552.734,630.87L549.784,630.87C548.97,630.87 548.309,631.655 548.309,632.623L548.309,713.866C548.309,714.833 548.97,715.619 549.784,715.619L552.734,715.619C553.548,715.619 554.209,714.833 554.209,713.866L554.209,632.623Z" style="fill:url(#_Linear9);"/>
                        <g transform="matrix(1,0,0,1,20.1115,-0.240574)">
                            <path d="M554.209,632.623C554.209,631.655 553.548,630.87 552.734,630.87L549.784,630.87C548.97,630.87 548.309,631.655 548.309,632.623L548.309,713.866C548.309,714.833 548.97,715.619 549.784,715.619L552.734,715.619C553.548,715.619 554.209,714.833 554.209,713.866L554.209,632.623Z" style="fill:url(#_Linear10);"/>
                        </g>
                        <g transform="matrix(1,0,0,1,38.1953,0)">
                            <path d="M554.209,632.623C554.209,631.655 553.548,630.87 552.734,630.87L549.784,630.87C548.97,630.87 548.309,631.655 548.309,632.623L548.309,713.866C548.309,714.833 548.97,715.619 549.784,715.619L552.734,715.619C553.548,715.619 554.209,714.833 554.209,713.866L554.209,632.623Z" style="fill:url(#_Linear11);"/>
                        </g>
                        <g transform="matrix(1,0,0,1,57.9658,0)">
                            <path d="M554.209,632.623C554.209,631.655 553.548,630.87 552.734,630.87L549.784,630.87C548.97,630.87 548.309,631.655 548.309,632.623L548.309,713.866C548.309,714.833 548.97,715.619 549.784,715.619L552.734,715.619C553.548,715.619 554.209,714.833 554.209,713.866L554.209,632.623Z" style="fill:url(#_Linear12);"/>
                        </g>
                        <g transform="matrix(1,0,0,1,76.3136,0)">
                            <path d="M554.209,632.623C554.209,631.655 553.548,630.87 552.734,630.87L549.784,630.87C548.97,630.87 548.309,631.655 548.309,632.623L548.309,713.866C548.309,714.833 548.97,715.619 549.784,715.619L552.734,715.619C553.548,715.619 554.209,714.833 554.209,713.866L554.209,632.623Z" style="fill:url(#_Linear13);"/>
                        </g>
                        <g transform="matrix(1,0,0,1,95.5008,0)">
                            <path d="M554.209,632.623C554.209,631.655 553.548,630.87 552.734,630.87L549.784,630.87C548.97,630.87 548.309,631.655 548.309,632.623L548.309,713.866C548.309,714.833 548.97,715.619 549.784,715.619L552.734,715.619C553.548,715.619 554.209,714.833 554.209,713.866L554.209,632.623Z" style="fill:url(#_Linear14);"/>
                        </g>
                        <g transform="matrix(1,0,0,1,114.936,0)">
                            <path d="M554.209,632.623C554.209,631.655 553.548,630.87 552.734,630.87L549.784,630.87C548.97,630.87 548.309,631.655 548.309,632.623L548.309,713.866C548.309,714.833 548.97,715.619 549.784,715.619L552.734,715.619C553.548,715.619 554.209,714.833 554.209,713.866L554.209,632.623Z" style="fill:url(#_Linear15);"/>
                        </g>
                        <g transform="matrix(1,0,0,1,132.667,0)">
                            <path d="M554.209,632.623C554.209,631.655 553.548,630.87 552.734,630.87L549.784,630.87C548.97,630.87 548.309,631.655 548.309,632.623L548.309,713.866C548.309,714.833 548.97,715.619 549.784,715.619L552.734,715.619C553.548,715.619 554.209,714.833 554.209,713.866L554.209,632.623Z" style="fill:url(#_Linear16);"/>
                        </g>
                    </g>
                </g>
            </g>
            <g transform="matrix(1.13335,0,0,1.13335,574.922,-169.205)">
                <rect x="259.632" y="673.957" width="18.781" height="10.077" style="fill:rgb(52,53,52);stroke-width:2.5px;stroke-linecap:butt;stroke-linejoin:miter;stroke:rgb(26,25,25);"/>
            </g>
        </g>
    </g>
    <g id="unifyapoutdoor">
        <g id="Bullet rechts">
            <path d="M583.366,657.57L547.931,813.253L590.053,857.529L1193.03,857.529L1242,813.253L1209.72,656.787L583.366,657.57Z" style="fill:rgb(229,229,228);stroke-width:1px;stroke:black;"/>
            <path d="M633.372,701.673L610.425,854.347L1182.08,854.347L1155.31,689.022L640.322,689.022L633.372,701.673Z" style="fill:rgb(201,202,200);stroke-width:1px;stroke:black;"/>
            <path d="M583.36,618.396L654.561,245.339C656.609,230.25 667.756,221.665 686.9,218.794C824.41,200.903 963.131,197.409 1103.94,218.794C1124.62,222.468 1133.62,232.337 1136.7,245.339L1207.31,618.396C1207.31,618.396 585.804,618.396 583.36,618.396Z" style="fill:rgb(216,217,216);stroke-width:1px;stroke:black;"/>
            <path d="M633.343,702.883L1157.42,702.883L1205.44,656.735L1209.69,656.735C1209.09,645.358 1208.87,636.472 1208.19,625.117C1206.81,601.796 1189.46,587.549 1167.28,584.516C1096.82,571.873 1026.73,566.615 955.053,564.937L839.333,565.303C766.794,565.391 694.869,571.411 622.873,583.911C596.676,588.459 583.29,597.409 583.36,618.396L583.36,657.579L633.343,702.883Z" style="fill:rgb(241,239,238);stroke-width:1px;stroke:black;"/>
            <path d="M633.343,702.883L1157.42,702.883L1197.62,667.333L1197.62,629.16C1196.24,605.84 1179.59,597.414 1157.42,594.38C1086.95,581.737 1015.52,577.822 943.847,576.143L850.173,576.143C777.635,576.232 705.338,581.881 633.343,594.38C607.145,598.929 594.054,608.174 594.124,629.16L594.124,667.333L633.343,702.883Z" style="fill:url(#_Linear17);stroke-width:1px;stroke:black;"/>
            <g id="schiene rechts">
                <path d="M1232.88,799.419L1232.88,806.756L1222.81,806.756L1222.81,818.084L1213.39,818.084L1213.39,799.419L1232.88,799.419Z" style="fill:rgb(181,182,180);stroke-width:1px;stroke:black;"/>
                <path d="M1203.78,818.084L1179.55,683.375L1179.55,619.316L1213.36,799.428L1213.36,818.084L1203.78,818.084Z" style="fill:rgb(211,212,211);stroke-width:1px;stroke:black;"/>
                <path d="M1195.91,619.316L1179.55,619.316L1213.37,799.425L1232.88,799.425L1199.36,624.414L1197.11,624.414C1197.11,622.615 1196.57,621.19 1195.91,619.316Z" style="fill:rgb(229,229,228);stroke-width:1px;stroke:black;"/>
            </g>
            <g id="schiene rechts1" transform="matrix(-1,0,0,1,1789.93,0)">
                <path d="M1232.88,799.419L1232.88,806.756L1222.81,806.756L1222.81,818.084L1213.39,818.084L1213.39,799.419L1232.88,799.419Z" style="fill:rgb(181,182,180);stroke-width:1px;stroke:black;"/>
                <path d="M1203.78,818.084L1179.55,683.375L1179.55,619.316L1213.36,799.428L1213.36,818.084L1203.78,818.084Z" style="fill:rgb(211,212,211);stroke-width:1px;stroke:black;"/>
                <path d="M1194.7,619.316L1179.55,619.316L1213.37,799.425L1232.88,799.425L1199.36,624.414L1195.52,624.414C1195.52,622.287 1195.11,621.866 1194.7,619.316Z" style="fill:rgb(229,229,228);stroke-width:1px;stroke:black;"/>
            </g>
            <g id="Reset">
                <rect x="1105.54" y="625.19" width="29.257" height="14.08" style="fill:none;stroke-width:1px;stroke:black;"/>
                <g transform="matrix(1,0,0,0.541831,0,286.443)">
                    <rect x="1105.54" y="625.19" width="29.257" height="14.08" style="fill:black;stroke-width:1.24px;stroke:black;"/>
                </g>
            </g>
            <g id="front">
                <g transform="matrix(1,0,0,1,15.5548,-8.60208)">
                    <path d="M1226.45,821.85L993.277,821.85C993.277,853.606 948.543,853.479 948.543,821.85L795.837,821.85C795.837,851.733 751.035,851.892 751.035,821.85L532.366,821.85L532.366,830.451C534.574,849.376 546.88,881.173 567.45,890.702L699.838,952.026C711.3,957.336 719.602,955.79 735.722,952.026L865.21,921.791C874.303,919.668 883.408,919.548 893.116,921.791L1023.95,952.026C1036.14,954.844 1048.74,957.6 1060.7,952.026L1192.27,890.702C1205.55,884.513 1224.36,852.381 1226.45,830.451L1226.45,821.85Z" style="fill:rgb(241,239,238);stroke-width:1px;stroke:black;"/>
                </g>
                <g transform="matrix(1,0,0,1,15.5548,0)">
                    <path d="M1226.45,821.85L993.245,821.85C993.245,854.132 948.447,853.815 948.447,821.85L795.837,821.85C795.837,851.733 751.035,851.892 751.035,821.85L532.366,821.85L536.001,853.006C538.209,871.931 546.88,881.173 567.45,890.702L699.838,952.026C711.3,957.336 719.602,955.79 735.722,952.026L865.21,921.791C874.303,919.668 883.408,919.548 893.116,921.791L1023.95,952.026C1036.14,954.844 1048.74,957.6 1060.7,952.026L1192.27,890.702C1205.55,884.513 1221.4,874.936 1223.49,853.006L1226.45,821.85Z" style="fill:rgb(176,176,175);stroke-width:1px;stroke:black;"/>
                </g>
                <g id="font 2 linien">
                    <path d="M811.392,813.248L811.392,821.848" style="fill:none;stroke-width:1px;stroke:black;"/>
                    <path d="M766.59,813.248L766.59,821.848" style="fill:none;stroke-width:1px;stroke:black;"/>
                </g>
                <g id="font 2 linien1" transform="matrix(1,0,0,1,197.405,0)">
                    <path d="M811.392,813.248L811.392,821.848" style="fill:none;stroke-width:1px;stroke:black;"/>
                    <path d="M766.59,813.248L766.59,821.848" style="fill:none;stroke-width:1px;stroke:black;"/>
                </g>
                <g>
                    <g transform="matrix(0.88226,0,0,1,86.2881,0)">
                        <ellipse cx="729.395" cy="927.203" rx="8.575" ry="5.588" style="fill:rgb(241,239,238);stroke-width:1.06px;stroke:black;"/>
                    </g>
                    <g transform="matrix(0.783646,0,0,0.696204,158.223,279.983)">
                        <ellipse cx="729.395" cy="927.203" rx="8.575" ry="5.588" style="fill:rgb(201,202,200);stroke-width:1.35px;stroke:black;"/>
                    </g>
                </g>
                <g transform="matrix(1,0,0,1,336.038,0)">
                    <g transform="matrix(0.88226,0,0,1,86.2881,0)">
                        <ellipse cx="729.395" cy="927.203" rx="8.575" ry="5.588" style="fill:rgb(241,239,238);stroke-width:1.06px;stroke:black;"/>
                    </g>
                    <g transform="matrix(0.783646,0,0,0.696204,158.223,279.983)">
                        <ellipse cx="729.395" cy="927.203" rx="8.575" ry="5.588" style="fill:rgb(201,202,200);stroke-width:1.35px;stroke:black;"/>
                    </g>
                </g>
            </g>
            <g id="Anzeige">
                <path d="M738.107,471.146L1050.34,471.146C944.525,465.513 840.636,466.124 738.107,471.146Z" style="fill:rgb(181,182,180);stroke-width:1px;stroke-linecap:butt;stroke:black;"/>
                <path d="M734.011,522.654C841.79,518.64 949.613,518.237 1057.49,522.654C1062.34,522.298 1065.81,520.328 1067.46,516.266L1063.11,477.261C1059.84,472.848 1055.12,471.47 1049.89,471.181L738.337,471.181C733.607,471.022 730.044,473.116 727.544,477.261L722.905,516.266C723.326,520.216 726.734,522.508 734.011,522.654Z" style="fill:none;stroke-width:1px;stroke-linecap:butt;stroke:black;"/>
            </g>
            <g transform="matrix(1,0,0,1.00656,0,-5.32956)">
                <path d="M1223.31,812.747L1223.31,813.748L1241.5,813.748L1241.38,812.747L1223.31,812.747Z" style="fill:url(#_Linear18);"/>
            </g>
            <g transform="matrix(-0.999637,0,0,1.00656,1789.49,-5.32956)">
                <path d="M1223.31,812.747L1223.31,813.748L1241.52,813.748L1241.38,812.747L1223.31,812.747Z" style="fill:url(#_Linear19);"/>
            </g>
            <g id="LAN rechts2" transform="matrix(0.401968,0,0,0.338314,543.937,453.116)">
                <g transform="matrix(2.80113,0,0,2.48628,-1595.63,-1009.35)">
                    <rect x="740.742" y="604.188" width="97.412" height="98.569" style="fill:rgb(241,239,238);stroke-width:1.01px;stroke:black;"/>
                </g>
                <g transform="matrix(1,0,0,1,0.448016,-16.3012)">
                    <path d="M500.826,597.447L500.826,729.999L727.358,729.999L727.358,597.447L690.744,597.447L690.744,562.703L656.263,562.703L656.263,534.994L569.758,534.994L569.758,562.703L537.669,562.703L537.669,597.447L500.826,597.447Z" style="fill:black;stroke-width:2.42px;stroke:black;"/>
                    <g transform="matrix(2.32486,0,0,2.92652,-1230.98,-1317.53)">
                        <rect x="745.442" y="655.542" width="4.667" height="43.399" style="fill:rgb(179,179,179);"/>
                    </g>
                    <g transform="matrix(2.48776,0,0,2.95583,-1351.03,-1337.35)">
                        <path d="M749.247,654.888L745.786,654.888C744.886,654.888 744.886,654.89 744.886,655.747L749.247,655.747L749.247,654.888Z" style="fill:rgb(179,179,179);"/>
                    </g>
                    <g transform="matrix(2.48776,0,0,2.95583,-1353.18,-1339.33)">
                        <path d="M745.848,699.426L750.225,663.354L835.578,663.354L835.578,699.426L745.848,699.426Z" style="fill:rgb(179,179,179);stroke-width:0.2px;stroke:black;"/>
                    </g>
                    <g>
                        <path d="M554.209,632.623C554.209,631.655 553.548,630.87 552.734,630.87L549.784,630.87C548.97,630.87 548.309,631.655 548.309,632.623L548.309,713.866C548.309,714.833 548.97,715.619 549.784,715.619L552.734,715.619C553.548,715.619 554.209,714.833 554.209,713.866L554.209,632.623Z" style="fill:url(#_Linear20);"/>
                        <g transform="matrix(1,0,0,1,20.1115,-0.240574)">
                            <path d="M554.209,632.623C554.209,631.655 553.548,630.87 552.734,630.87L549.784,630.87C548.97,630.87 548.309,631.655 548.309,632.623L548.309,713.866C548.309,714.833 548.97,715.619 549.784,715.619L552.734,715.619C553.548,715.619 554.209,714.833 554.209,713.866L554.209,632.623Z" style="fill:url(#_Linear21);"/>
                        </g>
                        <g transform="matrix(1,0,0,1,38.1953,0)">
                            <path d="M554.209,632.623C554.209,631.655 553.548,630.87 552.734,630.87L549.784,630.87C548.97,630.87 548.309,631.655 548.309,632.623L548.309,713.866C548.309,714.833 548.97,715.619 549.784,715.619L552.734,715.619C553.548,715.619 554.209,714.833 554.209,713.866L554.209,632.623Z" style="fill:url(#_Linear22);"/>
                        </g>
                        <g transform="matrix(1,0,0,1,57.9658,0)">
                            <path d="M554.209,632.623C554.209,631.655 553.548,630.87 552.734,630.87L549.784,630.87C548.97,630.87 548.309,631.655 548.309,632.623L548.309,713.866C548.309,714.833 548.97,715.619 549.784,715.619L552.734,715.619C553.548,715.619 554.209,714.833 554.209,713.866L554.209,632.623Z" style="fill:url(#_Linear23);"/>
                        </g>
                        <g transform="matrix(1,0,0,1,76.3136,0)">
                            <path d="M554.209,632.623C554.209,631.655 553.548,630.87 552.734,630.87L549.784,630.87C548.97,630.87 548.309,631.655 548.309,632.623L548.309,713.866C548.309,714.833 548.97,715.619 549.784,715.619L552.734,715.619C553.548,715.619 554.209,714.833 554.209,713.866L554.209,632.623Z" style="fill:url(#_Linear24);"/>
                        </g>
                        <g transform="matrix(1,0,0,1,95.5008,0)">
                            <path d="M554.209,632.623C554.209,631.655 553.548,630.87 552.734,630.87L549.784,630.87C548.97,630.87 548.309,631.655 548.309,632.623L548.309,713.866C548.309,714.833 548.97,715.619 549.784,715.619L552.734,715.619C553.548,715.619 554.209,714.833 554.209,713.866L554.209,632.623Z" style="fill:url(#_Linear25);"/>
                        </g>
                        <g transform="matrix(1,0,0,1,114.936,0)">
                            <path d="M554.209,632.623C554.209,631.655 553.548,630.87 552.734,630.87L549.784,630.87C548.97,630.87 548.309,631.655 548.309,632.623L548.309,713.866C548.309,714.833 548.97,715.619 549.784,715.619L552.734,715.619C553.548,715.619 554.209,714.833 554.209,713.866L554.209,632.623Z" style="fill:url(#_Linear26);"/>
                        </g>
                        <g transform="matrix(1,0,0,1,132.667,0)">
                            <path d="M554.209,632.623C554.209,631.655 553.548,630.87 552.734,630.87L549.784,630.87C548.97,630.87 548.309,631.655 548.309,632.623L548.309,713.866C548.309,714.833 548.97,715.619 549.784,715.619L552.734,715.619C553.548,715.619 554.209,714.833 554.209,713.866L554.209,632.623Z" style="fill:url(#_Linear27);"/>
                        </g>
                    </g>
                </g>
            </g>
            <g id="LAN rechts3" transform="matrix(0.401968,0,0,0.338314,727.321,453.116)">
                <g transform="matrix(2.80113,0,0,2.48628,-1595.63,-1009.35)">
                    <rect x="740.742" y="604.188" width="97.412" height="98.569" style="fill:rgb(241,239,238);stroke-width:1.01px;stroke:black;"/>
                </g>
                <g transform="matrix(1,0,0,1,0.448016,-16.3012)">
                    <path d="M500.826,597.447L500.826,729.999L727.358,729.999L727.358,597.447L690.744,597.447L690.744,562.703L656.263,562.703L656.263,534.994L569.758,534.994L569.758,562.703L537.669,562.703L537.669,597.447L500.826,597.447Z" style="fill:black;stroke-width:2.42px;stroke:black;"/>
                    <g transform="matrix(2.32486,0,0,2.92652,-1230.98,-1317.53)">
                        <rect x="745.442" y="655.542" width="4.667" height="43.399" style="fill:rgb(179,179,179);"/>
                    </g>
                    <g transform="matrix(2.48776,0,0,2.95583,-1351.03,-1337.35)">
                        <path d="M749.247,654.888L745.786,654.888C744.886,654.888 744.886,654.89 744.886,655.747L749.247,655.747L749.247,654.888Z" style="fill:rgb(179,179,179);"/>
                    </g>
                    <g transform="matrix(2.48776,0,0,2.95583,-1353.18,-1339.33)">
                        <path d="M745.848,699.426L750.225,663.354L835.578,663.354L835.578,699.426L745.848,699.426Z" style="fill:rgb(179,179,179);stroke-width:0.2px;stroke:black;"/>
                    </g>
                    <g>
                        <path d="M554.209,632.623C554.209,631.655 553.548,630.87 552.734,630.87L549.784,630.87C548.97,630.87 548.309,631.655 548.309,632.623L548.309,713.866C548.309,714.833 548.97,715.619 549.784,715.619L552.734,715.619C553.548,715.619 554.209,714.833 554.209,713.866L554.209,632.623Z" style="fill:url(#_Linear28);"/>
                        <g transform="matrix(1,0,0,1,20.1115,-0.240574)">
                            <path d="M554.209,632.623C554.209,631.655 553.548,630.87 552.734,630.87L549.784,630.87C548.97,630.87 548.309,631.655 548.309,632.623L548.309,713.866C548.309,714.833 548.97,715.619 549.784,715.619L552.734,715.619C553.548,715.619 554.209,714.833 554.209,713.866L554.209,632.623Z" style="fill:url(#_Linear29);"/>
                        </g>
                        <g transform="matrix(1,0,0,1,38.1953,0)">
                            <path d="M554.209,632.623C554.209,631.655 553.548,630.87 552.734,630.87L549.784,630.87C548.97,630.87 548.309,631.655 548.309,632.623L548.309,713.866C548.309,714.833 548.97,715.619 549.784,715.619L552.734,715.619C553.548,715.619 554.209,714.833 554.209,713.866L554.209,632.623Z" style="fill:url(#_Linear30);"/>
                        </g>
                        <g transform="matrix(1,0,0,1,57.9658,0)">
                            <path d="M554.209,632.623C554.209,631.655 553.548,630.87 552.734,630.87L549.784,630.87C548.97,630.87 548.309,631.655 548.309,632.623L548.309,713.866C548.309,714.833 548.97,715.619 549.784,715.619L552.734,715.619C553.548,715.619 554.209,714.833 554.209,713.866L554.209,632.623Z" style="fill:url(#_Linear31);"/>
                        </g>
                        <g transform="matrix(1,0,0,1,76.3136,0)">
                            <path d="M554.209,632.623C554.209,631.655 553.548,630.87 552.734,630.87L549.784,630.87C548.97,630.87 548.309,631.655 548.309,632.623L548.309,713.866C548.309,714.833 548.97,715.619 549.784,715.619L552.734,715.619C553.548,715.619 554.209,714.833 554.209,713.866L554.209,632.623Z" style="fill:url(#_Linear32);"/>
                        </g>
                        <g transform="matrix(1,0,0,1,95.5008,0)">
                            <path d="M554.209,632.623C554.209,631.655 553.548,630.87 552.734,630.87L549.784,630.87C548.97,630.87 548.309,631.655 548.309,632.623L548.309,713.866C548.309,714.833 548.97,715.619 549.784,715.619L552.734,715.619C553.548,715.619 554.209,714.833 554.209,713.866L554.209,632.623Z" style="fill:url(#_Linear33);"/>
                        </g>
                        <g transform="matrix(1,0,0,1,114.936,0)">
                            <path d="M554.209,632.623C554.209,631.655 553.548,630.87 552.734,630.87L549.784,630.87C548.97,630.87 548.309,631.655 548.309,632.623L548.309,713.866C548.309,714.833 548.97,715.619 549.784,715.619L552.734,715.619C553.548,715.619 554.209,714.833 554.209,713.866L554.209,632.623Z" style="fill:url(#_Linear34);"/>
                        </g>
                        <g transform="matrix(1,0,0,1,132.667,0)">
                            <path d="M554.209,632.623C554.209,631.655 553.548,630.87 552.734,630.87L549.784,630.87C548.97,630.87 548.309,631.655 548.309,632.623L548.309,713.866C548.309,714.833 548.97,715.619 549.784,715.619L552.734,715.619C553.548,715.619 554.209,714.833 554.209,713.866L554.209,632.623Z" style="fill:url(#_Linear35);"/>
                        </g>
                    </g>
                </g>
            </g>
        </g>
        <g>
            <g transform="matrix(1,0,0,1,460.33,24.0798)">
                <path d="M285.881,586.523L287.132,586.414C287.191,586.915 287.329,587.326 287.545,587.647C287.762,587.969 288.098,588.229 288.553,588.427C289.009,588.625 289.522,588.724 290.091,588.724C290.597,588.724 291.044,588.649 291.431,588.499C291.819,588.348 292.107,588.142 292.296,587.88C292.485,587.618 292.58,587.332 292.58,587.022C292.58,586.708 292.489,586.433 292.306,586.198C292.124,585.964 291.823,585.766 291.404,585.607C291.135,585.502 290.54,585.339 289.62,585.118C288.699,584.897 288.054,584.689 287.685,584.493C287.207,584.242 286.85,583.931 286.615,583.56C286.381,583.188 286.263,582.772 286.263,582.312C286.263,581.806 286.407,581.333 286.694,580.894C286.981,580.454 287.4,580.12 287.952,579.892C288.503,579.664 289.116,579.55 289.791,579.55C290.534,579.55 291.189,579.67 291.756,579.909C292.323,580.148 292.76,580.5 293.065,580.965C293.37,581.43 293.535,581.957 293.557,582.544L292.286,582.64C292.217,582.007 291.986,581.528 291.592,581.205C291.198,580.881 290.616,580.719 289.845,580.719C289.043,580.719 288.459,580.866 288.092,581.16C287.725,581.454 287.542,581.808 287.542,582.223C287.542,582.583 287.672,582.879 287.931,583.112C288.187,583.344 288.853,583.582 289.931,583.826C291.009,584.07 291.748,584.283 292.149,584.465C292.732,584.734 293.163,585.075 293.441,585.487C293.719,585.9 293.858,586.375 293.858,586.913C293.858,587.446 293.705,587.948 293.4,588.42C293.095,588.892 292.656,589.258 292.084,589.521C291.512,589.783 290.869,589.914 290.153,589.914C289.246,589.914 288.486,589.781 287.873,589.517C287.26,589.253 286.779,588.855 286.431,588.324C286.082,587.793 285.899,587.193 285.881,586.523Z" style="fill:black;fill-rule:nonzero;"/>
                <path d="M295.697,589.743L295.697,579.721L302.943,579.721L302.943,580.904L297.023,580.904L297.023,583.973L302.567,583.973L302.567,585.149L297.023,585.149L297.023,588.56L303.175,588.56L303.175,589.743L295.697,589.743Z" style="fill:black;fill-rule:nonzero;"/>
                <path d="M312.158,586.229L313.484,586.564C313.206,587.653 312.706,588.484 311.984,589.056C311.261,589.628 310.378,589.914 309.335,589.914C308.255,589.914 307.376,589.694 306.699,589.254C306.023,588.814 305.508,588.177 305.154,587.343C304.801,586.509 304.625,585.614 304.625,584.657C304.625,583.613 304.824,582.703 305.223,581.926C305.622,581.149 306.189,580.559 306.925,580.155C307.661,579.752 308.471,579.55 309.355,579.55C310.358,579.55 311.201,579.805 311.884,580.316C312.568,580.826 313.044,581.544 313.313,582.469L312.008,582.777C311.775,582.048 311.438,581.517 310.996,581.184C310.554,580.851 309.998,580.685 309.328,580.685C308.558,580.685 307.914,580.87 307.397,581.239C306.879,581.608 306.516,582.104 306.306,582.726C306.097,583.348 305.992,583.989 305.992,584.65C305.992,585.502 306.116,586.246 306.364,586.882C306.613,587.518 306.999,587.993 307.523,588.307C308.047,588.622 308.615,588.779 309.225,588.779C309.968,588.779 310.597,588.565 311.112,588.136C311.627,587.708 311.976,587.072 312.158,586.229Z" style="fill:black;fill-rule:nonzero;"/>
                <path d="M314.715,584.862C314.715,583.198 315.161,581.896 316.054,580.955C316.948,580.014 318.101,579.543 319.513,579.543C320.438,579.543 321.272,579.764 322.015,580.207C322.758,580.649 323.324,581.265 323.714,582.056C324.104,582.846 324.299,583.743 324.299,584.746C324.299,585.762 324.093,586.671 323.683,587.473C323.273,588.275 322.692,588.882 321.94,589.295C321.188,589.707 320.377,589.914 319.507,589.914C318.563,589.914 317.72,589.686 316.977,589.23C316.234,588.774 315.672,588.152 315.289,587.364C314.906,586.575 314.715,585.741 314.715,584.862ZM316.082,584.882C316.082,586.09 316.406,587.041 317.056,587.736C317.705,588.431 318.52,588.779 319.5,588.779C320.498,588.779 321.319,588.428 321.964,587.726C322.609,587.024 322.931,586.028 322.931,584.739C322.931,583.923 322.793,583.211 322.518,582.603C322.242,581.994 321.839,581.522 321.308,581.187C320.777,580.853 320.181,580.685 319.52,580.685C318.581,580.685 317.774,581.007 317.097,581.652C316.42,582.297 316.082,583.374 316.082,584.882Z" style="fill:black;fill-rule:nonzero;"/>
                <path d="M325.994,589.743L325.994,579.721L327.354,579.721L332.618,587.589L332.618,579.721L333.889,579.721L333.889,589.743L332.529,589.743L327.265,581.868L327.265,589.743L325.994,589.743Z" style="fill:black;fill-rule:nonzero;"/>
                <path d="M336.118,589.743L336.118,579.721L339.57,579.721C340.349,579.721 340.944,579.769 341.354,579.865C341.928,579.997 342.418,580.236 342.824,580.583C343.353,581.029 343.748,581.6 344.01,582.295C344.272,582.99 344.403,583.784 344.403,584.677C344.403,585.438 344.314,586.113 344.136,586.701C343.959,587.289 343.731,587.775 343.453,588.16C343.175,588.545 342.871,588.848 342.54,589.069C342.21,589.29 341.811,589.458 341.344,589.572C340.877,589.686 340.34,589.743 339.734,589.743L336.118,589.743ZM337.444,588.56L339.584,588.56C340.244,588.56 340.763,588.499 341.139,588.375C341.515,588.252 341.814,588.079 342.038,587.856C342.352,587.541 342.597,587.119 342.773,586.588C342.948,586.057 343.036,585.413 343.036,584.657C343.036,583.609 342.864,582.803 342.52,582.24C342.176,581.677 341.758,581.3 341.265,581.109C340.91,580.972 340.338,580.904 339.549,580.904L337.444,580.904L337.444,588.56Z" style="fill:black;fill-rule:nonzero;"/>
                <path d="M345.128,589.743L348.976,579.721L350.405,579.721L354.507,589.743L352.996,589.743L351.827,586.708L347.636,586.708L346.536,589.743L345.128,589.743ZM348.019,585.627L351.417,585.627L350.371,582.852C350.052,582.009 349.815,581.316 349.66,580.774C349.532,581.416 349.352,582.055 349.12,582.688L348.019,585.627Z" style="fill:black;fill-rule:nonzero;"/>
                <path d="M355.587,589.743L355.587,579.721L360.03,579.721C360.923,579.721 361.602,579.811 362.067,579.991C362.532,580.171 362.903,580.489 363.181,580.945C363.459,581.401 363.598,581.904 363.598,582.456C363.598,583.166 363.368,583.766 362.908,584.253C362.448,584.741 361.737,585.051 360.775,585.183C361.126,585.352 361.393,585.518 361.575,585.682C361.962,586.038 362.329,586.482 362.675,587.015L364.419,589.743L362.751,589.743L361.424,587.658C361.037,587.056 360.718,586.596 360.467,586.277C360.217,585.958 359.992,585.735 359.794,585.607C359.596,585.479 359.394,585.39 359.189,585.34C359.039,585.308 358.793,585.292 358.451,585.292L356.913,585.292L356.913,589.743L355.587,589.743ZM356.913,584.144L359.763,584.144C360.369,584.144 360.843,584.081 361.185,583.956C361.527,583.831 361.787,583.63 361.965,583.354C362.142,583.079 362.231,582.779 362.231,582.456C362.231,581.982 362.059,581.592 361.715,581.287C361.371,580.981 360.827,580.829 360.085,580.829L356.913,580.829L356.913,584.144Z" style="fill:black;fill-rule:nonzero;"/>
                <path d="M368.5,589.743L368.5,585.498L364.637,579.721L366.251,579.721L368.226,582.743C368.591,583.308 368.93,583.873 369.245,584.438C369.546,583.914 369.91,583.324 370.339,582.667L372.28,579.721L373.825,579.721L369.826,585.498L369.826,589.743L368.5,589.743Z" style="fill:black;fill-rule:nonzero;"/>
            </g>
            <g transform="matrix(1,0,0,1,0.951098,0.123437)">
                <path d="M967.841,487.018C967.841,484.763 966.011,482.933 963.756,482.933L823.916,482.933C821.661,482.933 819.831,484.763 819.831,487.018L819.831,504.057C819.831,506.312 821.661,508.142 823.916,508.142L963.756,508.142C966.011,508.142 967.841,506.312 967.841,504.057L967.841,487.018Z" style="fill:rgb(145,196,65);stroke-width:1px;stroke-linecap:butt;stroke:rgb(102,102,102);"/>
            </g>
            <g transform="matrix(1,0,0,1,671.847,24.0798)">
                <path d="M286.291,589.743L286.291,579.721L288.287,579.721L290.659,586.817C290.878,587.478 291.037,587.972 291.137,588.3C291.251,587.936 291.429,587.4 291.671,586.694L294.07,579.721L295.854,579.721L295.854,589.743L294.576,589.743L294.576,581.355L291.664,589.743L290.467,589.743L287.569,581.211L287.569,589.743L286.291,589.743Z" style="fill:black;fill-rule:nonzero;"/>
                <path d="M296.893,589.743L300.742,579.721L302.171,579.721L306.272,589.743L304.761,589.743L303.592,586.708L299.402,586.708L298.301,589.743L296.893,589.743ZM299.785,585.627L303.182,585.627L302.136,582.852C301.817,582.009 301.58,581.316 301.425,580.774C301.298,581.416 301.118,582.055 300.885,582.688L299.785,585.627Z" style="fill:black;fill-rule:nonzero;"/>
                <rect x="307.557" y="579.721" width="1.326" height="10.021" style="fill:black;fill-rule:nonzero;"/>
                <path d="M311.208,589.743L311.208,579.721L312.568,579.721L317.832,587.589L317.832,579.721L319.103,579.721L319.103,589.743L317.743,589.743L312.479,581.868L312.479,589.743L311.208,589.743Z" style="fill:black;fill-rule:nonzero;"/>
            </g>
            <g transform="matrix(1,0,0,1,821.66,28.7012)">
                <path d="M286.038,589.743L286.038,582.584L289.212,582.584C289.85,582.584 290.335,582.649 290.667,582.777C290.999,582.906 291.264,583.133 291.463,583.458C291.661,583.784 291.76,584.144 291.76,584.538C291.76,585.045 291.596,585.473 291.267,585.822C290.938,586.17 290.431,586.391 289.744,586.486C289.994,586.606 290.185,586.725 290.315,586.842C290.592,587.096 290.854,587.414 291.101,587.794L292.346,589.743L291.155,589.743L290.208,588.253C289.931,587.824 289.703,587.495 289.524,587.267C289.345,587.039 289.185,586.88 289.043,586.789C288.902,586.697 288.758,586.634 288.611,586.598C288.504,586.575 288.328,586.564 288.084,586.564L286.985,586.564L286.985,589.743L286.038,589.743ZM286.985,585.744L289.021,585.744C289.454,585.744 289.793,585.699 290.037,585.609C290.281,585.52 290.466,585.377 290.593,585.18C290.72,584.983 290.784,584.769 290.784,584.538C290.784,584.199 290.661,583.921 290.415,583.703C290.169,583.485 289.781,583.375 289.251,583.375L286.985,583.375L286.985,585.744Z" style="fill:black;fill-rule:nonzero;"/>
                <path d="M296.682,588.073L297.591,588.185C297.447,588.716 297.182,589.127 296.795,589.42C296.407,589.713 295.912,589.86 295.31,589.86C294.552,589.86 293.95,589.626 293.506,589.159C293.062,588.692 292.84,588.037 292.84,587.194C292.84,586.321 293.064,585.644 293.513,585.163C293.963,584.681 294.545,584.44 295.261,584.44C295.955,584.44 296.521,584.676 296.961,585.148C297.4,585.62 297.62,586.284 297.62,587.14C297.62,587.192 297.618,587.27 297.615,587.375L293.748,587.375C293.78,587.944 293.941,588.38 294.231,588.683C294.521,588.986 294.882,589.137 295.315,589.137C295.637,589.137 295.912,589.053 296.14,588.883C296.368,588.714 296.549,588.444 296.682,588.073ZM293.797,586.652L296.692,586.652C296.653,586.216 296.542,585.889 296.36,585.67C296.08,585.332 295.717,585.163 295.271,585.163C294.868,585.163 294.528,585.298 294.253,585.568C293.978,585.838 293.826,586.199 293.797,586.652Z" style="fill:black;fill-rule:nonzero;"/>
                <path d="M298.342,588.195L299.212,588.058C299.26,588.406 299.396,588.673 299.619,588.859C299.842,589.044 300.154,589.137 300.554,589.137C300.958,589.137 301.258,589.055 301.453,588.891C301.648,588.726 301.746,588.533 301.746,588.312C301.746,588.113 301.66,587.957 301.487,587.843C301.367,587.765 301.067,587.666 300.589,587.545C299.944,587.383 299.497,587.242 299.248,587.123C298.999,587.004 298.81,586.84 298.682,586.63C298.553,586.42 298.489,586.188 298.489,585.934C298.489,585.703 298.542,585.489 298.648,585.292C298.753,585.095 298.897,584.931 299.08,584.801C299.216,584.7 299.403,584.615 299.639,584.545C299.875,584.475 300.128,584.44 300.398,584.44C300.805,584.44 301.162,584.499 301.47,584.616C301.778,584.733 302.005,584.892 302.151,585.092C302.298,585.292 302.398,585.56 302.454,585.895L301.594,586.012C301.555,585.745 301.442,585.537 301.255,585.387C301.068,585.237 300.803,585.163 300.462,585.163C300.058,585.163 299.77,585.229 299.597,585.363C299.425,585.496 299.339,585.653 299.339,585.832C299.339,585.945 299.374,586.048 299.446,586.139C299.518,586.234 299.63,586.312 299.783,586.374C299.871,586.406 300.13,586.481 300.559,586.598C301.181,586.764 301.615,586.9 301.861,587.006C302.106,587.112 302.299,587.265 302.439,587.467C302.579,587.669 302.649,587.92 302.649,588.219C302.649,588.512 302.564,588.788 302.393,589.047C302.222,589.306 301.975,589.506 301.653,589.647C301.331,589.789 300.966,589.86 300.559,589.86C299.885,589.86 299.372,589.72 299.019,589.44C298.666,589.16 298.44,588.745 298.342,588.195Z" style="fill:black;fill-rule:nonzero;"/>
                <path d="M307.244,588.073L308.152,588.185C308.009,588.716 307.744,589.127 307.356,589.42C306.969,589.713 306.474,589.86 305.872,589.86C305.113,589.86 304.512,589.626 304.068,589.159C303.623,588.692 303.401,588.037 303.401,587.194C303.401,586.321 303.626,585.644 304.075,585.163C304.524,584.681 305.107,584.44 305.823,584.44C306.516,584.44 307.083,584.676 307.522,585.148C307.962,585.62 308.181,586.284 308.181,587.14C308.181,587.192 308.18,587.27 308.176,587.375L304.309,587.375C304.342,587.944 304.503,588.38 304.793,588.683C305.082,588.986 305.444,589.137 305.877,589.137C306.199,589.137 306.474,589.053 306.702,588.883C306.93,588.714 307.11,588.444 307.244,588.073ZM304.358,586.652L307.254,586.652C307.215,586.216 307.104,585.889 306.922,585.67C306.642,585.332 306.279,585.163 305.833,585.163C305.429,585.163 305.09,585.298 304.815,585.568C304.54,585.838 304.387,586.199 304.358,586.652Z" style="fill:black;fill-rule:nonzero;"/>
                <path d="M311.174,588.957L311.301,589.733C311.054,589.785 310.833,589.811 310.637,589.811C310.318,589.811 310.071,589.761 309.895,589.66C309.719,589.559 309.596,589.426 309.524,589.262C309.452,589.097 309.417,588.751 309.417,588.224L309.417,585.241L308.772,585.241L308.772,584.557L309.417,584.557L309.417,583.273L310.291,582.746L310.291,584.557L311.174,584.557L311.174,585.241L310.291,585.241L310.291,588.273C310.291,588.524 310.306,588.685 310.337,588.756C310.368,588.828 310.418,588.885 310.488,588.927C310.558,588.97 310.659,588.991 310.789,588.991C310.886,588.991 311.015,588.979 311.174,588.957Z" style="fill:black;fill-rule:nonzero;"/>
            </g>
        </g>
    </g>
    <defs>
        <linearGradient id="_Linear1" x1="0" y1="0" x2="1" y2="0" gradientUnits="userSpaceOnUse" gradientTransform="matrix(0.483531,74.7961,-74.7961,0.483531,547.703,635.649)"><stop offset="0%" style="stop-color:rgb(116,76,45);stop-opacity:1"/><stop offset="54%" style="stop-color:rgb(139,94,51);stop-opacity:1"/><stop offset="74%" style="stop-color:rgb(188,131,63);stop-opacity:1"/><stop offset="94%" style="stop-color:rgb(236,167,75);stop-opacity:1"/><stop offset="94%" style="stop-color:rgb(236,167,75);stop-opacity:1"/><stop offset="100%" style="stop-color:rgb(116,76,45);stop-opacity:1"/></linearGradient>
        <linearGradient id="_Linear2" x1="0" y1="0" x2="1" y2="0" gradientUnits="userSpaceOnUse" gradientTransform="matrix(0.483531,74.7961,-74.7961,0.483531,547.703,635.649)"><stop offset="0%" style="stop-color:rgb(116,76,45);stop-opacity:1"/><stop offset="54%" style="stop-color:rgb(139,94,51);stop-opacity:1"/><stop offset="74%" style="stop-color:rgb(188,131,63);stop-opacity:1"/><stop offset="94%" style="stop-color:rgb(236,167,75);stop-opacity:1"/><stop offset="94%" style="stop-color:rgb(236,167,75);stop-opacity:1"/><stop offset="100%" style="stop-color:rgb(116,76,45);stop-opacity:1"/></linearGradient>
        <linearGradient id="_Linear3" x1="0" y1="0" x2="1" y2="0" gradientUnits="userSpaceOnUse" gradientTransform="matrix(0.483531,74.7961,-74.7961,0.483531,547.703,635.649)"><stop offset="0%" style="stop-color:rgb(116,76,45);stop-opacity:1"/><stop offset="54%" style="stop-color:rgb(139,94,51);stop-opacity:1"/><stop offset="74%" style="stop-color:rgb(188,131,63);stop-opacity:1"/><stop offset="94%" style="stop-color:rgb(236,167,75);stop-opacity:1"/><stop offset="94%" style="stop-color:rgb(236,167,75);stop-opacity:1"/><stop offset="100%" style="stop-color:rgb(116,76,45);stop-opacity:1"/></linearGradient>
        <linearGradient id="_Linear4" x1="0" y1="0" x2="1" y2="0" gradientUnits="userSpaceOnUse" gradientTransform="matrix(0.483531,74.7961,-74.7961,0.483531,547.703,635.649)"><stop offset="0%" style="stop-color:rgb(116,76,45);stop-opacity:1"/><stop offset="54%" style="stop-color:rgb(139,94,51);stop-opacity:1"/><stop offset="74%" style="stop-color:rgb(188,131,63);stop-opacity:1"/><stop offset="94%" style="stop-color:rgb(236,167,75);stop-opacity:1"/><stop offset="94%" style="stop-color:rgb(236,167,75);stop-opacity:1"/><stop offset="100%" style="stop-color:rgb(116,76,45);stop-opacity:1"/></linearGradient>
        <linearGradient id="_Linear5" x1="0" y1="0" x2="1" y2="0" gradientUnits="userSpaceOnUse" gradientTransform="matrix(0.483531,74.7961,-74.7961,0.483531,547.703,635.649)"><stop offset="0%" style="stop-color:rgb(116,76,45);stop-opacity:1"/><stop offset="54%" style="stop-color:rgb(139,94,51);stop-opacity:1"/><stop offset="74%" style="stop-color:rgb(188,131,63);stop-opacity:1"/><stop offset="94%" style="stop-color:rgb(236,167,75);stop-opacity:1"/><stop offset="94%" style="stop-color:rgb(236,167,75);stop-opacity:1"/><stop offset="100%" style="stop-color:rgb(116,76,45);stop-opacity:1"/></linearGradient>
        <linearGradient id="_Linear6" x1="0" y1="0" x2="1" y2="0" gradientUnits="userSpaceOnUse" gradientTransform="matrix(0.483531,74.7961,-74.7961,0.483531,547.703,635.649)"><stop offset="0%" style="stop-color:rgb(116,76,45);stop-opacity:1"/><stop offset="54%" style="stop-color:rgb(139,94,51);stop-opacity:1"/><stop offset="74%" style="stop-color:rgb(188,131,63);stop-opacity:1"/><stop offset="94%" style="stop-color:rgb(236,167,75);stop-opacity:1"/><stop offset="94%" style="stop-color:rgb(236,167,75);stop-opacity:1"/><stop offset="100%" style="stop-color:rgb(116,76,45);stop-opacity:1"/></linearGradient>
        <linearGradient id="_Linear7" x1="0" y1="0" x2="1" y2="0" gradientUnits="userSpaceOnUse" gradientTransform="matrix(0.483531,74.7961,-74.7961,0.483531,547.703,635.649)"><stop offset="0%" style="stop-color:rgb(116,76,45);stop-opacity:1"/><stop offset="54%" style="stop-color:rgb(139,94,51);stop-opacity:1"/><stop offset="74%" style="stop-color:rgb(188,131,63);stop-opacity:1"/><stop offset="94%" style="stop-color:rgb(236,167,75);stop-opacity:1"/><stop offset="94%" style="stop-color:rgb(236,167,75);stop-opacity:1"/><stop offset="100%" style="stop-color:rgb(116,76,45);stop-opacity:1"/></linearGradient>
        <linearGradient id="_Linear8" x1="0" y1="0" x2="1" y2="0" gradientUnits="userSpaceOnUse" gradientTransform="matrix(0.483531,74.7961,-74.7961,0.483531,547.703,635.649)"><stop offset="0%" style="stop-color:rgb(116,76,45);stop-opacity:1"/><stop offset="54%" style="stop-color:rgb(139,94,51);stop-opacity:1"/><stop offset="74%" style="stop-color:rgb(188,131,63);stop-opacity:1"/><stop offset="94%" style="stop-color:rgb(236,167,75);stop-opacity:1"/><stop offset="94%" style="stop-color:rgb(236,167,75);stop-opacity:1"/><stop offset="100%" style="stop-color:rgb(116,76,45);stop-opacity:1"/></linearGradient>
        <linearGradient id="_Linear9" x1="0" y1="0" x2="1" y2="0" gradientUnits="userSpaceOnUse" gradientTransform="matrix(0.483531,74.7961,-74.7961,0.483531,547.703,635.649)"><stop offset="0%" style="stop-color:rgb(116,76,45);stop-opacity:1"/><stop offset="54%" style="stop-color:rgb(139,94,51);stop-opacity:1"/><stop offset="74%" style="stop-color:rgb(188,131,63);stop-opacity:1"/><stop offset="94%" style="stop-color:rgb(236,167,75);stop-opacity:1"/><stop offset="94%" style="stop-color:rgb(236,167,75);stop-opacity:1"/><stop offset="100%" style="stop-color:rgb(116,76,45);stop-opacity:1"/></linearGradient>
        <linearGradient id="_Linear10" x1="0" y1="0" x2="1" y2="0" gradientUnits="userSpaceOnUse" gradientTransform="matrix(0.483531,74.7961,-74.7961,0.483531,547.703,635.649)"><stop offset="0%" style="stop-color:rgb(116,76,45);stop-opacity:1"/><stop offset="54%" style="stop-color:rgb(139,94,51);stop-opacity:1"/><stop offset="74%" style="stop-color:rgb(188,131,63);stop-opacity:1"/><stop offset="94%" style="stop-color:rgb(236,167,75);stop-opacity:1"/><stop offset="94%" style="stop-color:rgb(236,167,75);stop-opacity:1"/><stop offset="100%" style="stop-color:rgb(116,76,45);stop-opacity:1"/></linearGradient>
        <linearGradient id="_Linear11" x1="0" y1="0" x2="1" y2="0" gradientUnits="userSpaceOnUse" gradientTransform="matrix(0.483531,74.7961,-74.7961,0.483531,547.703,635.649)"><stop offset="0%" style="stop-color:rgb(116,76,45);stop-opacity:1"/><stop offset="54%" style="stop-color:rgb(139,94,51);stop-opacity:1"/><stop offset="74%" style="stop-color:rgb(188,131,63);stop-opacity:1"/><stop offset="94%" style="stop-color:rgb(236,167,75);stop-opacity:1"/><stop offset="94%" style="stop-color:rgb(236,167,75);stop-opacity:1"/><stop offset="100%" style="stop-color:rgb(116,76,45);stop-opacity:1"/></linearGradient>
        <linearGradient id="_Linear12" x1="0" y1="0" x2="1" y2="0" gradientUnits="userSpaceOnUse" gradientTransform="matrix(0.483531,74.7961,-74.7961,0.483531,547.703,635.649)"><stop offset="0%" style="stop-color:rgb(116,76,45);stop-opacity:1"/><stop offset="54%" style="stop-color:rgb(139,94,51);stop-opacity:1"/><stop offset="74%" style="stop-color:rgb(188,131,63);stop-opacity:1"/><stop offset="94%" style="stop-color:rgb(236,167,75);stop-opacity:1"/><stop offset="94%" style="stop-color:rgb(236,167,75);stop-opacity:1"/><stop offset="100%" style="stop-color:rgb(116,76,45);stop-opacity:1"/></linearGradient>
        <linearGradient id="_Linear13" x1="0" y1="0" x2="1" y2="0" gradientUnits="userSpaceOnUse" gradientTransform="matrix(0.483531,74.7961,-74.7961,0.483531,547.703,635.649)"><stop offset="0%" style="stop-color:rgb(116,76,45);stop-opacity:1"/><stop offset="54%" style="stop-color:rgb(139,94,51);stop-opacity:1"/><stop offset="74%" style="stop-color:rgb(188,131,63);stop-opacity:1"/><stop offset="94%" style="stop-color:rgb(236,167,75);stop-opacity:1"/><stop offset="94%" style="stop-color:rgb(236,167,75);stop-opacity:1"/><stop offset="100%" style="stop-color:rgb(116,76,45);stop-opacity:1"/></linearGradient>
        <linearGradient id="_Linear14" x1="0" y1="0" x2="1" y2="0" gradientUnits="userSpaceOnUse" gradientTransform="matrix(0.483531,74.7961,-74.7961,0.483531,547.703,635.649)"><stop offset="0%" style="stop-color:rgb(116,76,45);stop-opacity:1"/><stop offset="54%" style="stop-color:rgb(139,94,51);stop-opacity:1"/><stop offset="74%" style="stop-color:rgb(188,131,63);stop-opacity:1"/><stop offset="94%" style="stop-color:rgb(236,167,75);stop-opacity:1"/><stop offset="94%" style="stop-color:rgb(236,167,75);stop-opacity:1"/><stop offset="100%" style="stop-color:rgb(116,76,45);stop-opacity:1"/></linearGradient>
        <linearGradient id="_Linear15" x1="0" y1="0" x2="1" y2="0" gradientUnits="userSpaceOnUse" gradientTransform="matrix(0.483531,74.7961,-74.7961,0.483531,547.703,635.649)"><stop offset="0%" style="stop-color:rgb(116,76,45);stop-opacity:1"/><stop offset="54%" style="stop-color:rgb(139,94,51);stop-opacity:1"/><stop offset="74%" style="stop-color:rgb(188,131,63);stop-opacity:1"/><stop offset="94%" style="stop-color:rgb(236,167,75);stop-opacity:1"/><stop offset="94%" style="stop-color:rgb(236,167,75);stop-opacity:1"/><stop offset="100%" style="stop-color:rgb(116,76,45);stop-opacity:1"/></linearGradient>
        <linearGradient id="_Linear16" x1="0" y1="0" x2="1" y2="0" gradientUnits="userSpaceOnUse" gradientTransform="matrix(0.483531,74.7961,-74.7961,0.483531,547.703,635.649)"><stop offset="0%" style="stop-color:rgb(116,76,45);stop-opacity:1"/><stop offset="54%" style="stop-color:rgb(139,94,51);stop-opacity:1"/><stop offset="74%" style="stop-color:rgb(188,131,63);stop-opacity:1"/><stop offset="94%" style="stop-color:rgb(236,167,75);stop-opacity:1"/><stop offset="94%" style="stop-color:rgb(236,167,75);stop-opacity:1"/><stop offset="100%" style="stop-color:rgb(116,76,45);stop-opacity:1"/></linearGradient>
        <linearGradient id="_Linear17" x1="0" y1="0" x2="1" y2="0" gradientUnits="userSpaceOnUse" gradientTransform="matrix(7.02234e-15,114.684,-114.684,7.02234e-15,927.708,574.813)"><stop offset="0%" style="stop-color:rgb(105,106,106);stop-opacity:1"/><stop offset="17%" style="stop-color:rgb(165,166,165);stop-opacity:1"/><stop offset="33%" style="stop-color:rgb(186,187,186);stop-opacity:1"/><stop offset="33%" style="stop-color:rgb(186,187,186);stop-opacity:1"/></linearGradient>
        <linearGradient id="_Linear18" x1="0" y1="0" x2="1" y2="0" gradientUnits="userSpaceOnUse" gradientTransform="matrix(6.98557e-17,-1.14083,1.14083,6.98557e-17,1232.68,813.814)"><stop offset="0%" style="stop-color:rgb(241,239,238);stop-opacity:1"/><stop offset="100%" style="stop-color:rgb(229,229,228);stop-opacity:1"/></linearGradient>
        <linearGradient id="_Linear19" x1="0" y1="0" x2="1" y2="0" gradientUnits="userSpaceOnUse" gradientTransform="matrix(6.98557e-17,-1.14083,1.14083,6.98557e-17,1232.68,813.814)"><stop offset="0%" style="stop-color:rgb(241,239,238);stop-opacity:1"/><stop offset="100%" style="stop-color:rgb(229,229,228);stop-opacity:1"/></linearGradient>
        <linearGradient id="_Linear20" x1="0" y1="0" x2="1" y2="0" gradientUnits="userSpaceOnUse" gradientTransform="matrix(0.483531,74.7961,-74.7961,0.483531,547.703,635.649)"><stop offset="0%" style="stop-color:rgb(116,76,45);stop-opacity:1"/><stop offset="54%" style="stop-color:rgb(139,94,51);stop-opacity:1"/><stop offset="74%" style="stop-color:rgb(188,131,63);stop-opacity:1"/><stop offset="94%" style="stop-color:rgb(236,167,75);stop-opacity:1"/><stop offset="94%" style="stop-color:rgb(236,167,75);stop-opacity:1"/><stop offset="100%" style="stop-color:rgb(116,76,45);stop-opacity:1"/></linearGradient>
        <linearGradient id="_Linear21" x1="0" y1="0" x2="1" y2="0" gradientUnits="userSpaceOnUse" gradientTransform="matrix(0.483531,74.7961,-74.7961,0.483531,547.703,635.649)"><stop offset="0%" style="stop-color:rgb(116,76,45);stop-opacity:1"/><stop offset="54%" style="stop-color:rgb(139,94,51);stop-opacity:1"/><stop offset="74%" style="stop-color:rgb(188,131,63);stop-opacity:1"/><stop offset="94%" style="stop-color:rgb(236,167,75);stop-opacity:1"/><stop offset="94%" style="stop-color:rgb(236,167,75);stop-opacity:1"/><stop offset="100%" style="stop-color:rgb(116,76,45);stop-opacity:1"/></linearGradient>
        <linearGradient id="_Linear22" x1="0" y1="0" x2="1" y2="0" gradientUnits="userSpaceOnUse" gradientTransform="matrix(0.483531,74.7961,-74.7961,0.483531,547.703,635.649)"><stop offset="0%" style="stop-color:rgb(116,76,45);stop-opacity:1"/><stop offset="54%" style="stop-color:rgb(139,94,51);stop-opacity:1"/><stop offset="74%" style="stop-color:rgb(188,131,63);stop-opacity:1"/><stop offset="94%" style="stop-color:rgb(236,167,75);stop-opacity:1"/><stop offset="94%" style="stop-color:rgb(236,167,75);stop-opacity:1"/><stop offset="100%" style="stop-color:rgb(116,76,45);stop-opacity:1"/></linearGradient>
        <linearGradient id="_Linear23" x1="0" y1="0" x2="1" y2="0" gradientUnits="userSpaceOnUse" gradientTransform="matrix(0.483531,74.7961,-74.7961,0.483531,547.703,635.649)"><stop offset="0%" style="stop-color:rgb(116,76,45);stop-opacity:1"/><stop offset="54%" style="stop-color:rgb(139,94,51);stop-opacity:1"/><stop offset="74%" style="stop-color:rgb(188,131,63);stop-opacity:1"/><stop offset="94%" style="stop-color:rgb(236,167,75);stop-opacity:1"/><stop offset="94%" style="stop-color:rgb(236,167,75);stop-opacity:1"/><stop offset="100%" style="stop-color:rgb(116,76,45);stop-opacity:1"/></linearGradient>
        <linearGradient id="_Linear24" x1="0" y1="0" x2="1" y2="0" gradientUnits="userSpaceOnUse" gradientTransform="matrix(0.483531,74.7961,-74.7961,0.483531,547.703,635.649)"><stop offset="0%" style="stop-color:rgb(116,76,45);stop-opacity:1"/><stop offset="54%" style="stop-color:rgb(139,94,51);stop-opacity:1"/><stop offset="74%" style="stop-color:rgb(188,131,63);stop-opacity:1"/><stop offset="94%" style="stop-color:rgb(236,167,75);stop-opacity:1"/><stop offset="94%" style="stop-color:rgb(236,167,75);stop-opacity:1"/><stop offset="100%" style="stop-color:rgb(116,76,45);stop-opacity:1"/></linearGradient>
        <linearGradient id="_Linear25" x1="0" y1="0" x2="1" y2="0" gradientUnits="userSpaceOnUse" gradientTransform="matrix(0.483531,74.7961,-74.7961,0.483531,547.703,635.649)"><stop offset="0%" style="stop-color:rgb(116,76,45);stop-opacity:1"/><stop offset="54%" style="stop-color:rgb(139,94,51);stop-opacity:1"/><stop offset="74%" style="stop-color:rgb(188,131,63);stop-opacity:1"/><stop offset="94%" style="stop-color:rgb(236,167,75);stop-opacity:1"/><stop offset="94%" style="stop-color:rgb(236,167,75);stop-opacity:1"/><stop offset="100%" style="stop-color:rgb(116,76,45);stop-opacity:1"/></linearGradient>
        <linearGradient id="_Linear26" x1="0" y1="0" x2="1" y2="0" gradientUnits="userSpaceOnUse" gradientTransform="matrix(0.483531,74.7961,-74.7961,0.483531,547.703,635.649)"><stop offset="0%" style="stop-color:rgb(116,76,45);stop-opacity:1"/><stop offset="54%" style="stop-color:rgb(139,94,51);stop-opacity:1"/><stop offset="74%" style="stop-color:rgb(188,131,63);stop-opacity:1"/><stop offset="94%" style="stop-color:rgb(236,167,75);stop-opacity:1"/><stop offset="94%" style="stop-color:rgb(236,167,75);stop-opacity:1"/><stop offset="100%" style="stop-color:rgb(116,76,45);stop-opacity:1"/></linearGradient>
        <linearGradient id="_Linear27" x1="0" y1="0" x2="1" y2="0" gradientUnits="userSpaceOnUse" gradientTransform="matrix(0.483531,74.7961,-74.7961,0.483531,547.703,635.649)"><stop offset="0%" style="stop-color:rgb(116,76,45);stop-opacity:1"/><stop offset="54%" style="stop-color:rgb(139,94,51);stop-opacity:1"/><stop offset="74%" style="stop-color:rgb(188,131,63);stop-opacity:1"/><stop offset="94%" style="stop-color:rgb(236,167,75);stop-opacity:1"/><stop offset="94%" style="stop-color:rgb(236,167,75);stop-opacity:1"/><stop offset="100%" style="stop-color:rgb(116,76,45);stop-opacity:1"/></linearGradient>
        <linearGradient id="_Linear28" x1="0" y1="0" x2="1" y2="0" gradientUnits="userSpaceOnUse" gradientTransform="matrix(0.483531,74.7961,-74.7961,0.483531,547.703,635.649)"><stop offset="0%" style="stop-color:rgb(116,76,45);stop-opacity:1"/><stop offset="54%" style="stop-color:rgb(139,94,51);stop-opacity:1"/><stop offset="74%" style="stop-color:rgb(188,131,63);stop-opacity:1"/><stop offset="94%" style="stop-color:rgb(236,167,75);stop-opacity:1"/><stop offset="94%" style="stop-color:rgb(236,167,75);stop-opacity:1"/><stop offset="100%" style="stop-color:rgb(116,76,45);stop-opacity:1"/></linearGradient>
        <linearGradient id="_Linear29" x1="0" y1="0" x2="1" y2="0" gradientUnits="userSpaceOnUse" gradientTransform="matrix(0.483531,74.7961,-74.7961,0.483531,547.703,635.649)"><stop offset="0%" style="stop-color:rgb(116,76,45);stop-opacity:1"/><stop offset="54%" style="stop-color:rgb(139,94,51);stop-opacity:1"/><stop offset="74%" style="stop-color:rgb(188,131,63);stop-opacity:1"/><stop offset="94%" style="stop-color:rgb(236,167,75);stop-opacity:1"/><stop offset="94%" style="stop-color:rgb(236,167,75);stop-opacity:1"/><stop offset="100%" style="stop-color:rgb(116,76,45);stop-opacity:1"/></linearGradient>
        <linearGradient id="_Linear30" x1="0" y1="0" x2="1" y2="0" gradientUnits="userSpaceOnUse" gradientTransform="matrix(0.483531,74.7961,-74.7961,0.483531,547.703,635.649)"><stop offset="0%" style="stop-color:rgb(116,76,45);stop-opacity:1"/><stop offset="54%" style="stop-color:rgb(139,94,51);stop-opacity:1"/><stop offset="74%" style="stop-color:rgb(188,131,63);stop-opacity:1"/><stop offset="94%" style="stop-color:rgb(236,167,75);stop-opacity:1"/><stop offset="94%" style="stop-color:rgb(236,167,75);stop-opacity:1"/><stop offset="100%" style="stop-color:rgb(116,76,45);stop-opacity:1"/></linearGradient>
        <linearGradient id="_Linear31" x1="0" y1="0" x2="1" y2="0" gradientUnits="userSpaceOnUse" gradientTransform="matrix(0.483531,74.7961,-74.7961,0.483531,547.703,635.649)"><stop offset="0%" style="stop-color:rgb(116,76,45);stop-opacity:1"/><stop offset="54%" style="stop-color:rgb(139,94,51);stop-opacity:1"/><stop offset="74%" style="stop-color:rgb(188,131,63);stop-opacity:1"/><stop offset="94%" style="stop-color:rgb(236,167,75);stop-opacity:1"/><stop offset="94%" style="stop-color:rgb(236,167,75);stop-opacity:1"/><stop offset="100%" style="stop-color:rgb(116,76,45);stop-opacity:1"/></linearGradient>
        <linearGradient id="_Linear32" x1="0" y1="0" x2="1" y2="0" gradientUnits="userSpaceOnUse" gradientTransform="matrix(0.483531,74.7961,-74.7961,0.483531,547.703,635.649)"><stop offset="0%" style="stop-color:rgb(116,76,45);stop-opacity:1"/><stop offset="54%" style="stop-color:rgb(139,94,51);stop-opacity:1"/><stop offset="74%" style="stop-color:rgb(188,131,63);stop-opacity:1"/><stop offset="94%" style="stop-color:rgb(236,167,75);stop-opacity:1"/><stop offset="94%" style="stop-color:rgb(236,167,75);stop-opacity:1"/><stop offset="100%" style="stop-color:rgb(116,76,45);stop-opacity:1"/></linearGradient>
        <linearGradient id="_Linear33" x1="0" y1="0" x2="1" y2="0" gradientUnits="userSpaceOnUse" gradientTransform="matrix(0.483531,74.7961,-74.7961,0.483531,547.703,635.649)"><stop offset="0%" style="stop-color:rgb(116,76,45);stop-opacity:1"/><stop offset="54%" style="stop-color:rgb(139,94,51);stop-opacity:1"/><stop offset="74%" style="stop-color:rgb(188,131,63);stop-opacity:1"/><stop offset="94%" style="stop-color:rgb(236,167,75);stop-opacity:1"/><stop offset="94%" style="stop-color:rgb(236,167,75);stop-opacity:1"/><stop offset="100%" style="stop-color:rgb(116,76,45);stop-opacity:1"/></linearGradient>
        <linearGradient id="_Linear34" x1="0" y1="0" x2="1" y2="0" gradientUnits="userSpaceOnUse" gradientTransform="matrix(0.483531,74.7961,-74.7961,0.483531,547.703,635.649)"><stop offset="0%" style="stop-color:rgb(116,76,45);stop-opacity:1"/><stop offset="54%" style="stop-color:rgb(139,94,51);stop-opacity:1"/><stop offset="74%" style="stop-color:rgb(188,131,63);stop-opacity:1"/><stop offset="94%" style="stop-color:rgb(236,167,75);stop-opacity:1"/><stop offset="94%" style="stop-color:rgb(236,167,75);stop-opacity:1"/><stop offset="100%" style="stop-color:rgb(116,76,45);stop-opacity:1"/></linearGradient>
        <linearGradient id="_Linear35" x1="0" y1="0" x2="1" y2="0" gradientUnits="userSpaceOnUse" gradientTransform="matrix(0.483531,74.7961,-74.7961,0.483531,547.703,635.649)"><stop offset="0%" style="stop-color:rgb(116,76,45);stop-opacity:1"/><stop offset="54%" style="stop-color:rgb(139,94,51);stop-opacity:1"/><stop offset="74%" style="stop-color:rgb(188,131,63);stop-opacity:1"/><stop offset="94%" style="stop-color:rgb(236,167,75);stop-opacity:1"/><stop offset="94%" style="stop-color:rgb(236,167,75);stop-opacity:1"/><stop offset="100%" style="stop-color:rgb(116,76,45);stop-opacity:1"/></linearGradient>
    </defs>
</svg>
