<?xml version="1.0" encoding="UTF-8" standalone="no"?>
<!DOCTYPE svg PUBLIC "-//W3C//DTD SVG 1.1//EN" "http://www.w3.org/Graphics/SVG/1.1/DTD/svg11.dtd">
<svg width="100%" height="100%" viewBox="0 0 1280 1150" version="1.1" xmlns="http://www.w3.org/2000/svg" xmlns:xlink="http://www.w3.org/1999/xlink" xml:space="preserve" xmlns:serif="http://www.serif.com/" style="fill-rule:evenodd;clip-rule:evenodd;stroke-linecap:round;stroke-linejoin:round;stroke-miterlimit:1.41421;">
    <path d="M284,960C285.226,962.506 287.005,964.651 290,966L304,966C306.439,978.041 309.43,978.254 319,982C335.553,988.479 355.149,992.006 378,992L429,992L429,1018L877,1017L877,991L948,991C970.381,989.803 969.389,989.621 990,982C999.437,978.511 1003,975.916 1003,966L1017,966C1019.78,965.489 1022.2,963.785 1024,960C1023.58,966.766 1021.7,975.047 1015.5,980.5C1008.82,986.376 976.1,995.616 955,998L902,998.5L897,998.5L896.5,1016L893,1019.5L879.5,1025L816,1027L440,1027L414,1019L408,1001L408,998L369,998C343.428,997.501 320.433,992.492 300,983C290.544,978.607 285.311,975.95 284,960Z" style="fill:rgb(226,226,224);stroke:black;stroke-width:1.5px;"/>
    <path d="M284,960C285.226,962.506 287.005,964.651 290,966L304,966C306.439,978.041 309.43,978.254 319,982C335.553,988.479 355.149,992.006 378,992L429,992L429,1018L877,1017L877,991L948,991C970.381,989.803 969.389,989.621 990,982C999.437,978.511 1003,975.916 1003,966L1017,966C1019.78,965.489 1022.2,963.785 1024,960C1009.33,934.094 971.487,927 925,927L380,927C331.721,927 299.605,937.014 284,960Z" style="fill:rgb(226,226,224);stroke:black;stroke-width:1.5px;"/>
    <g transform="matrix(1,0,0,1,0,3)">
        <path d="M284.025,956.964L320,177C321.184,150.251 358.661,140 400,140L902,140C942.265,140 988.891,149.9 990,177C990,177 1022.2,960.772 1024,956.987L1022.13,956.987C1006.3,933.539 969.631,927 925,927L380,927C334.062,927 302.871,936.283 286.5,956.964L284.025,956.964Z" style="fill:rgb(235,236,233);stroke:black;stroke-width:1.5px;"/>
    </g>
    <path d="M284,960C285.226,962.506 320,177 320,177C321.184,150.251 358.661,140 400,140L902,140C942.265,140 988.891,149.9 990,177C990,177 1022.2,963.785 1024,960C1009.33,934.094 971.487,927 925,927L380,927C331.721,927 299.605,937.014 284,960Z" style="fill:rgb(235,236,233);stroke:black;stroke-width:1.5px;"/>
    <g id="Kontakte">
        <path d="M756,973L756,997.5C756,999.277 758.5,999.333 758.5,997.5L758.5,973" style="fill:rgb(227,196,42);stroke:rgb(207,171,29);stroke-width:0.45px;"/>
        <g transform="matrix(1,0,0,1,13.5315,0)">
            <path d="M756,973L756,997.5C756,999.277 758.5,999.333 758.5,997.5L758.5,973" style="fill:rgb(227,196,42);stroke:rgb(207,171,29);stroke-width:0.45px;"/>
        </g>
        <g transform="matrix(1,0,0,1,26.3097,0)">
            <path d="M756,973L756,997.5C756,999.277 758.5,999.333 758.5,997.5L758.5,973" style="fill:rgb(227,196,42);stroke:rgb(207,171,29);stroke-width:0.45px;"/>
        </g>
        <g transform="matrix(1,0,0,1,39.8023,0)">
            <path d="M756,964L756,997.5C756,999.277 758.5,999.333 758.5,997.5L758.5,964" style="fill:rgb(227,196,42);stroke:rgb(207,171,29);stroke-width:0.45px;"/>
        </g>
        <g transform="matrix(1,0,0,1,51.6362,0)">
            <path d="M756,964L756,997.5C756,999.277 758.5,999.333 758.5,997.5L758.5,964" style="fill:rgb(227,196,42);stroke:rgb(207,171,29);stroke-width:0.45px;"/>
        </g>
        <g transform="matrix(1,0,0,1,64.6863,0)">
            <path d="M756,964L756,997.5C756,999.277 758.5,999.333 758.5,997.5L758.5,964" style="fill:rgb(227,196,42);stroke:rgb(207,171,29);stroke-width:0.45px;"/>
        </g>
        <g transform="matrix(1,0,0,1,76.75,0)">
            <path d="M756,973L756,997.5C756,999.277 758.5,999.333 758.5,997.5L758.5,973" style="fill:rgb(227,196,42);stroke:rgb(207,171,29);stroke-width:0.45px;"/>
        </g>
        <g transform="matrix(1,0,0,1,89.5322,0)">
            <path d="M756,973L756,997.5C756,999.277 758.5,999.333 758.5,997.5L758.5,973" style="fill:rgb(227,196,42);stroke:rgb(207,171,29);stroke-width:0.45px;"/>
        </g>
    </g>
    <path d="M732,964L795,964L795,966L786,966L786,973L744,973L744,985L738,985L738,998L743,998L743,1010L866,1010L866,998L872,998L872,986L866,986L866,973L827,973L827,966L819,966L819,964L877,964L877,1017L732,1017L732,964Z" style="fill:rgb(210,210,210);stroke:rgb(55,53,53);stroke-width:1.5px;"/>
    <path d="M897,998.5L902,998.5C901.886,1004.35 901.063,1009.51 899,1015C897.98,1017.71 896.233,1020.51 892,1023C870.638,1033.95 849.309,1038.81 828,1040L494,1041C464.821,1040.98 432.329,1032.8 418,1025C412.708,1022.12 410.544,1018.4 409,1013C407.564,1007.97 406.674,1002.98 406,998L410.5,998C410.546,1003.73 411.445,1009.39 414,1015C416.38,1018.46 419.932,1021.34 426,1023L878,1023C884.376,1023 894.66,1018.16 896,1013C897.264,1008.13 897.217,1003.44 897,998.5Z" style="fill:rgb(226,226,224);stroke:black;stroke-width:1.5px;"/>
    <path d="M819,964L795,964" style="fill:none;stroke:rgb(55,53,53);stroke-width:1.5px;"/>
    <rect x="738" y="985" width="4.5" height="13" style="fill:rgb(210,210,210);stroke:rgb(55,53,53);stroke-width:1.5px;"/>
    <rect x="867" y="986" width="5" height="12" style="fill:rgb(210,210,210);stroke:rgb(55,53,53);stroke-width:1.5px;"/>
    <path d="M688,160C687.976,155.665 691.199,153 696,153L872.5,153C877.812,153 881.824,155.528 882,160L911,897C911.169,901.29 906.351,905 902,905L701,905C695.892,905 692.024,901.495 692,897L688,160Z" style="fill:rgb(174,15,14);stroke:rgb(149,51,50);stroke-width:1.5px;"/>
    <g id="Led">
        <g transform="matrix(1,0,0,0.933333,0,28.2)">
            <path d="M765,417.375C765,416.34 764.216,415.5 763.25,415.5L711.75,415.5C710.784,415.5 710,416.34 710,417.375L710,421.125C710,422.16 710.784,423 711.75,423L763.25,423C764.216,423 765,422.16 765,421.125L765,417.375Z" style="fill:white;stroke:rgb(149,51,50);stroke-width:1.55px;"/>
        </g>
        <g transform="matrix(0.836364,0,0,0.933333,125.182,57.3008)">
            <path d="M765,417.375C765,416.34 764.062,415.5 762.908,415.5L712.092,415.5C710.938,415.5 710,416.34 710,417.375L710,421.125C710,422.16 710.938,423 712.092,423L762.908,423C764.062,423 765,422.16 765,421.125L765,417.375Z" style="fill:white;stroke:rgb(149,51,50);stroke-width:1.69px;"/>
        </g>
        <g transform="matrix(0.663636,0,0,0.933333,257.318,87.229)">
            <path d="M765,417.375C765,416.34 763.818,415.5 762.363,415.5L712.637,415.5C711.182,415.5 710,416.34 710,417.375L710,421.125C710,422.16 711.182,423 712.637,423L762.363,423C763.818,423 765,422.16 765,421.125L765,417.375Z" style="fill:white;stroke:rgb(149,51,50);stroke-width:1.85px;"/>
        </g>
        <g transform="matrix(0.509091,0,0,0.933333,375.545,117.117)">
            <path d="M765,417.375C765,416.34 763.46,415.5 761.563,415.5L713.438,415.5C711.54,415.5 710,416.34 710,417.375L710,421.125C710,422.16 711.54,423 713.438,423L761.563,423C763.46,423 765,422.16 765,421.125L765,417.375Z" style="fill:white;stroke:rgb(149,51,50);stroke-width:2px;"/>
        </g>
        <g transform="matrix(0.354545,0,0,0.933333,493.773,147.448)">
            <path d="M765,417.375C765,416.34 762.788,415.5 760.064,415.5L714.936,415.5C712.212,415.5 710,416.34 710,417.375L710,421.125C710,422.16 712.212,423 714.936,423L760.064,423C762.788,423 765,422.16 765,421.125L765,417.375Z" style="fill:white;stroke:rgb(149,51,50);stroke-width:2.12px;"/>
        </g>
        <g transform="matrix(0.970588,0,0,1.07143,22.9412,-35.8571)">
            <path d="M814,509C814,505.137 810.538,502 806.273,502L787.727,502C783.462,502 780,505.137 780,509C780,512.863 783.462,516 787.727,516L806.273,516C810.538,516 814,512.863 814,509Z" style="fill:rgb(237,245,131);stroke:rgb(127,18,3);stroke-width:1.47px;"/>
        </g>
        <g transform="matrix(0.970588,0,0,1.07143,22.9412,-65.5923)">
            <path d="M814,509C814,505.137 810.538,502 806.273,502L787.727,502C783.462,502 780,505.137 780,509C780,512.863 783.462,516 787.727,516L806.273,516C810.538,516 814,512.863 814,509Z" style="fill:rgb(237,245,131);stroke:rgb(127,18,3);stroke-width:1.47px;"/>
        </g>
        <g transform="matrix(0.970588,0,0,1.07143,22.9412,-95.8912)">
            <path d="M814,509C814,505.137 810.538,502 806.273,502L787.727,502C783.462,502 780,505.137 780,509C780,512.863 783.462,516 787.727,516L806.273,516C810.538,516 814,512.863 814,509Z" style="fill:rgb(237,245,131);stroke:rgb(127,18,3);stroke-width:1.47px;"/>
        </g>
        <g transform="matrix(0.970588,0,0,1.07143,22.9412,-125.306)">
            <path d="M814,509C814,505.137 810.538,502 806.273,502L787.727,502C783.462,502 780,505.137 780,509C780,512.863 783.462,516 787.727,516L806.273,516C810.538,516 814,512.863 814,509Z" style="fill:rgb(237,245,131);stroke:rgb(127,18,3);stroke-width:1.47px;"/>
        </g>
        <g transform="matrix(0.970588,0,0,1.07143,22.9412,-5.81218)">
            <path d="M814,509C814,505.137 810.538,502 806.273,502L787.727,502C783.462,502 780,505.137 780,509C780,512.863 783.462,516 787.727,516L806.273,516C810.538,516 814,512.863 814,509Z" style="fill:rgb(237,245,131);stroke:rgb(127,18,3);stroke-width:1.47px;"/>
        </g>
        <g transform="matrix(0.970588,0,0,1.07143,25.9412,97.6429)">
            <path d="M814,509C814,505.137 810.538,502 806.273,502L787.727,502C783.462,502 780,505.137 780,509C780,512.863 783.462,516 787.727,516L806.273,516C810.538,516 814,512.863 814,509Z" style="fill:rgb(237,245,131);stroke:rgb(127,18,3);stroke-width:1.47px;"/>
        </g>
        <g transform="matrix(0.970588,0,0,1.07143,25.9412,129.257)">
            <path d="M814,509C814,505.137 810.538,502 806.273,502L787.727,502C783.462,502 780,505.137 780,509C780,512.863 783.462,516 787.727,516L806.273,516C810.538,516 814,512.863 814,509Z" style="fill:rgb(237,245,131);stroke:rgb(127,18,3);stroke-width:1.47px;"/>
        </g>
        <g transform="matrix(0.970588,0,0,1.07143,25.9412,161.207)">
            <path d="M814,509C814,505.137 810.538,502 806.273,502L787.727,502C783.462,502 780,505.137 780,509C780,512.863 783.462,516 787.727,516L806.273,516C810.538,516 814,512.863 814,509Z" style="fill:rgb(237,245,131);stroke:rgb(127,18,3);stroke-width:1.47px;"/>
        </g>
    </g>
    <g transform="matrix(0.985981,0,0,1.01676,12.3458,-10.676)">
        <ellipse cx="898.5" cy="592.25" rx="53.5" ry="44.75" style="fill:rgb(151,152,149);stroke:rgb(55,53,53);stroke-width:1.5px;"/>
    </g>
    <g transform="matrix(0.896011,0,-1.03352e-32,0.989933,285.628,-242.237)">
        <g transform="matrix(1.01105,0,0,1,-5.21476,0)">
            <text x="472px" y="900px" style="font-family:'Arial-Black', 'Arial Black', sans-serif;font-weight:900;font-size:20.827px;fill:white;">P<tspan x="486.064px " y="900px ">o</tspan></text>
        </g>
        <g transform="matrix(1.01105,0,0,1,-5.51794,0)">
            <text x="499.442px" y="900px" style="font-family:'Arial-Black', 'Arial Black', sans-serif;font-weight:900;font-size:20.827px;fill:white;">w</text>
        </g>
        <g transform="matrix(1.01105,0,0,1,-5.72706,0)">
            <text x="518.369px" y="900px" style="font-family:'Arial-Black', 'Arial Black', sans-serif;font-weight:900;font-size:20.827px;fill:white;">e<tspan x="531.823px " y="900px ">r</tspan></text>
        </g>
    </g>
    <g transform="matrix(0.905911,0,-1.03352e-32,0.989933,282.782,-210.181)">
        <text x="472px" y="900px" style="font-family:'Arial-Black', 'Arial Black', sans-serif;font-weight:900;font-size:20.827px;fill:white;">W<tspan x="492.39px 505.844px 521.607px " y="900px 900px 900px ">LAN</tspan></text>
    </g>
    <g transform="matrix(1.65914,0,-1.91376e-32,1.83306,71.2948,-1046.09)">
        <g transform="matrix(1.09943,0,0,1,-46.9328,0)">
            <text x="472px" y="900px" style="font-family:'Arial-Black', 'Arial Black', sans-serif;font-weight:900;font-size:20.827px;fill:rgb(132,132,130);stroke:rgb(72,73,70);stroke-width:0.55px;stroke-linecap:butt;">W</text>
        </g>
        <g transform="matrix(1.01105,0,0,1,-5.46774,0)">
            <text x="494.898px" y="900px" style="font-family:'Arial-Black', 'Arial Black', sans-serif;font-weight:900;font-size:20.827px;fill:rgb(132,132,130);stroke:rgb(72,73,70);stroke-width:0.57px;stroke-linecap:butt;">PS</text>
        </g>
    </g>
    <g transform="matrix(0.905911,0,-1.03352e-32,0.989933,302.77,-178.181)">
        <text x="472px" y="900px" style="font-family:'Arial-Black', 'Arial Black', sans-serif;font-weight:900;font-size:20.827px;fill:white;">L<tspan x="485.454px 501.217px " y="900px 900px ">AN</tspan></text>
    </g>
</svg>
