<?xml version="1.0" encoding="UTF-8" standalone="no"?>
<!DOCTYPE svg PUBLIC "-//W3C//DTD SVG 1.1//EN" "http://www.w3.org/Graphics/SVG/1.1/DTD/svg11.dtd">
<svg width="100%" height="100%" viewBox="0 0 1280 1150" version="1.1" xmlns="http://www.w3.org/2000/svg" xmlns:xlink="http://www.w3.org/1999/xlink" xml:space="preserve" style="fill-rule:evenodd;clip-rule:evenodd;stroke-linecap:round;stroke-linejoin:round;stroke-miterlimit:1.41421;">
    <path d="M913.071,45.71C975.844,45.825 1033.81,100.229 1033.81,179.306L1033.81,961.93C1033.81,1041.15 967.527,1102.05 913.071,1102.05L405.719,1102.05C327.584,1102.05 267.607,1047.85 267.607,961.93L267.607,179.306C267.607,93.52 317.586,45.71 405.719,45.71L913.071,45.71" style="fill:rgb(232,232,232);stroke-width:3px;stroke:black;"/>
    <g id="power">
        <path d="M908.007,408.985L908.007,416.051" style="fill:none;stroke-width:1.5px;stroke:rgb(182,183,188);"/>
        <path d="M904.847,411.997C902.178,414.652 902.145,417.315 904.847,420.006C906.579,421.419 908.899,421.489 910.998,420.006C913.859,417.431 913.939,414.657 910.998,411.997" style="fill:none;stroke-width:1.5px;stroke:rgb(182,183,188);"/>
    </g>
    <g id="LEDS">
        <g transform="matrix(0.718624,-1.20881e-17,-1.20881e-17,0.767978,263.781,42.4802)">
            <ellipse cx="936.616" cy="182.05" rx="3.688" ry="3.465" style="fill:rgb(162,230,37);stroke-width:2.69px;stroke:rgb(144,223,0);"/>
        </g>
        <g transform="matrix(0.718624,-1.20881e-17,-1.20881e-17,0.767978,263.781,81.7637)">
            <ellipse cx="936.616" cy="182.05" rx="3.688" ry="3.465" style="fill:rgb(162,230,37);stroke-width:2.69px;stroke:rgb(144,223,0);"/>
        </g>
        <g transform="matrix(0.686684,-1.15509e-17,-1.15509e-17,0.733844,293.578,126.715)">
            <ellipse cx="936.616" cy="182.05" rx="3.688" ry="3.465" style="fill:rgb(162,230,37);stroke-width:2.81px;stroke:rgb(144,223,0);"/>
        </g>
        <g transform="matrix(0.686684,-1.15509e-17,-1.15509e-17,0.733844,293.578,165.711)">
            <ellipse cx="936.616" cy="182.05" rx="3.688" ry="3.465" style="fill:rgb(162,230,37);stroke-width:2.81px;stroke:rgb(144,223,0);"/>
        </g>
        <g transform="matrix(0.686684,-1.15509e-17,-1.15509e-17,0.733844,293.578,243.461)">
            <ellipse cx="936.616" cy="182.05" rx="3.688" ry="3.465" style="fill:rgb(162,230,37);stroke-width:2.81px;stroke:rgb(144,223,0);"/>
        </g>
        <g transform="matrix(0.686684,-1.15509e-17,-1.15509e-17,0.733844,293.578,283.215)">
            <ellipse cx="936.616" cy="182.05" rx="3.688" ry="3.465" style="fill:rgb(162,230,37);stroke-width:2.81px;stroke:rgb(144,223,0);"/>
        </g>
    </g>
    <g id="wifi-signal">
        <path d="M903.505,234.23L912.867,234.23" style="fill:none;stroke-width:2px;stroke:rgb(182,183,188);"/>
        <g transform="matrix(0.743683,0,0,0.743683,233.983,64.2715)">
            <path d="M903.505,234.23L912.867,234.23" style="fill:none;stroke-width:2.69px;stroke:rgb(182,183,188);"/>
        </g>
        <g transform="matrix(0.476695,0,0,0.476695,477.708,130.799)">
            <path d="M903.505,234.23L912.867,234.23" style="fill:none;stroke-width:4.2px;stroke:rgb(182,183,188);"/>
        </g>
        <g transform="matrix(0.248262,0,0,0.248262,686.237,188.367)">
            <path d="M903.505,234.23L912.867,234.23" style="fill:none;stroke-width:8.06px;stroke:rgb(182,183,188);"/>
        </g>
    </g>
    <g id="ethernet">
        <path d="M912.506,373.651L916.226,377.326L912.506,380.731" style="fill:none;stroke-width:2px;stroke:rgb(182,183,188);"/>
        <path d="M904.849,377.87L904.849,376.591" style="fill:none;stroke-width:1.5px;stroke-linecap:butt;stroke:rgb(182,183,188);"/>
        <g transform="matrix(1,0,0,1,3.00693,0)">
            <path d="M904.849,377.87L904.849,376.591" style="fill:none;stroke-width:1.5px;stroke-linecap:butt;stroke:rgb(182,183,188);"/>
        </g>
        <g transform="matrix(1,0,0,1,6.47868,0)">
            <path d="M904.849,377.87L904.849,376.591" style="fill:none;stroke-width:1.5px;stroke-linecap:butt;stroke:rgb(182,183,188);"/>
        </g>
        <path d="M903.204,373.689L900.058,377.326L903.204,380.747" style="fill:none;stroke-width:2px;stroke:rgb(182,183,188);"/>
    </g>
    <g id="cisco">
        <g transform="matrix(1,0,0,1,6.36667,0.779376)">
            <path d="M618.471,1005.39C616.472,1006.28 614.086,1006.73 611.316,1006.73C607.931,1006.73 605.295,1005.77 603.407,1003.87C601.519,1001.96 600.576,999.3 600.576,995.888C600.576,992.41 601.526,989.734 603.428,987.861C605.33,985.987 608.042,985.05 611.567,985.05C613.817,985.05 616.053,985.315 618.276,985.845L618.276,989.207C615.756,988.323 613.645,987.881 611.943,987.881C609.767,987.881 608.089,988.572 606.908,989.953C605.727,991.334 605.137,993.293 605.137,995.832C605.137,998.324 605.771,1000.27 607.041,1001.66C608.31,1003.06 610.074,1003.75 612.334,1003.75C614.361,1003.75 616.406,1003.24 618.471,1002.22L618.471,1005.39Z" style="fill:rgb(108,127,138);fill-rule:nonzero;"/>
            <rect x="622.209" y="985.566" width="4.296" height="20.643" style="fill:rgb(108,127,138);fill-rule:nonzero;"/>
            <path d="M630.522,1006.03L630.522,1002.49C632.744,1003.42 634.646,1003.88 636.226,1003.88C637.333,1003.88 638.205,1003.63 638.842,1003.14C639.479,1002.65 639.797,1001.98 639.797,1001.13C639.797,1000.46 639.597,999.898 639.197,999.437C638.797,998.977 638.04,998.431 636.924,997.798L635.543,997.031C633.693,995.99 632.386,994.993 631.624,994.039C630.861,993.086 630.48,991.973 630.48,990.699C630.48,988.997 631.105,987.63 632.356,986.598C633.607,985.566 635.259,985.05 637.314,985.05C638.96,985.05 640.815,985.287 642.88,985.761L642.88,989.067C640.769,988.277 639.1,987.881 637.872,987.881C636.924,987.881 636.164,988.093 635.592,988.516C635.02,988.939 634.734,989.495 634.734,990.183C634.734,990.75 634.934,991.248 635.334,991.675C635.734,992.103 636.487,992.628 637.593,993.251L639.072,994.074C641.062,995.19 642.433,996.218 643.186,997.157C643.94,998.096 644.316,999.24 644.316,1000.59C644.316,1002.5 643.605,1004 642.182,1005.09C640.759,1006.18 638.797,1006.73 636.296,1006.73C634.641,1006.73 632.716,1006.49 630.522,1006.03Z" style="fill:rgb(108,127,138);fill-rule:nonzero;"/>
            <path d="M664.61,1005.39C662.611,1006.28 660.226,1006.73 657.455,1006.73C654.07,1006.73 651.434,1005.77 649.547,1003.87C647.659,1001.96 646.715,999.3 646.715,995.888C646.715,992.41 647.666,989.734 649.568,987.861C651.469,985.987 654.182,985.05 657.706,985.05C659.956,985.05 662.193,985.315 664.415,985.845L664.415,989.207C661.895,988.323 659.784,987.881 658.083,987.881C655.907,987.881 654.228,988.572 653.048,989.953C651.867,991.334 651.276,993.293 651.276,995.832C651.276,998.324 651.911,1000.27 653.18,1001.66C654.449,1003.06 656.214,1003.75 658.473,1003.75C660.5,1003.75 662.546,1003.24 664.61,1002.22L664.61,1005.39Z" style="fill:rgb(108,127,138);fill-rule:nonzero;"/>
            <path d="M677.401,1006.73C674.267,1006.73 671.761,1005.74 669.883,1003.77C668.004,1001.8 667.065,999.17 667.065,995.888C667.065,992.568 668.009,989.932 669.897,987.979C671.784,986.026 674.332,985.05 677.54,985.05C680.729,985.05 683.27,986.026 685.163,987.979C687.055,989.932 688.001,992.554 688.001,995.846C688.001,999.212 687.055,1001.87 685.163,1003.81C683.27,1005.75 680.683,1006.73 677.401,1006.73ZM677.456,1003.88C679.297,1003.88 680.755,1003.16 681.829,1001.71C682.903,1000.26 683.44,998.305 683.44,995.832C683.44,993.433 682.901,991.508 681.822,990.057C680.743,988.607 679.316,987.881 677.54,987.881C675.745,987.881 674.311,988.607 673.237,990.057C672.163,991.508 671.626,993.447 671.626,995.874C671.626,998.282 672.161,1000.22 673.23,1001.68C674.299,1003.15 675.708,1003.88 677.456,1003.88Z" style="fill:rgb(108,127,138);fill-rule:nonzero;"/>
        </g>
        <g id="sf-gg-bridge">
            <path d="M593.591,964.454L593.591,969.728" style="fill:none;stroke-width:6px;stroke:rgb(108,127,138);"/>
            <g transform="matrix(1,0,0,1,56.0735,0)">
                <path d="M593.591,964.454L593.591,969.728" style="fill:none;stroke-width:6px;stroke:rgb(108,127,138);"/>
            </g>
            <g transform="matrix(1,0,0,1,56.0735,0)">
                <path d="M593.591,964.454L593.591,969.728" style="fill:none;stroke-width:6px;stroke:rgb(108,127,138);"/>
            </g>
            <g transform="matrix(1,0,0,1,113.041,0)">
                <path d="M593.591,964.454L593.591,969.728" style="fill:none;stroke-width:6px;stroke:rgb(108,127,138);"/>
            </g>
            <g transform="matrix(2.27881,0,0,2.27881,-660.99,-1240.09)">
                <path d="M593.591,964.454L593.591,969.728" style="fill:none;stroke-width:2.63px;stroke:rgb(108,127,138);"/>
            </g>
            <g transform="matrix(2.27881,0,0,2.27881,-688.822,-1240.09)">
                <path d="M593.591,964.454L593.591,969.728" style="fill:none;stroke-width:2.63px;stroke:rgb(108,127,138);"/>
            </g>
            <g transform="matrix(2.27881,0,0,2.27881,-717.749,-1240.27)">
                <path d="M593.591,964.454L593.591,969.728" style="fill:none;stroke-width:2.63px;stroke:rgb(108,127,138);"/>
            </g>
            <g transform="matrix(2.27881,0,0,2.27881,-745.141,-1240.27)">
                <path d="M593.591,964.454L593.591,969.728" style="fill:none;stroke-width:2.63px;stroke:rgb(108,127,138);"/>
            </g>
            <g transform="matrix(5.00075,0,0,5.00075,-2346.78,-3875.09)">
                <path d="M593.591,964.454L593.591,969.728" style="fill:none;stroke-width:1.2px;stroke:rgb(108,127,138);"/>
            </g>
            <g transform="matrix(5.00075,0,0,5.00075,-2290.31,-3875.09)">
                <path d="M593.591,964.454L593.591,969.728" style="fill:none;stroke-width:1.2px;stroke:rgb(108,127,138);"/>
            </g>
        </g>
    </g>
</svg>
