<?xml version="1.0" standalone="no"?>
<!DOCTYPE svg PUBLIC "-//W3C//DTD SVG 1.1//EN" "http://www.w3.org/Graphics/SVG/1.1/DTD/svg11.dtd">
<svg width="100%" height="100%" viewBox="0 0 1280 1150" version="1.1" xmlns="http://www.w3.org/2000/svg" xmlns:xlink="http://www.w3.org/1999/xlink" xml:space="preserve" style="fill-rule:evenodd;clip-rule:evenodd;stroke-linejoin:round;stroke-miterlimit:1.41421;">
    <g id="Ebene2">
        <rect x="-41.75" y="-24.119" width="1948.68" height="1287.74" style="fill:rgb(0,158,224);"/>
        <rect x="48.072" y="48.615" width="1184.56" height="1050" style="fill:white;"/>
        <g transform="matrix(1,0,0,1,445.102,133.143)">
            <path d="M-42.908,191.382L-42.908,341.429L-40.658,341.429C-36.346,341.429 -33.299,340.538 -31.518,338.757C-29.737,336.976 -28.846,334.023 -28.846,329.898L-28.846,203.476C-28.846,198.694 -29.76,195.484 -31.588,193.843C-33.416,192.202 -37.19,191.382 -42.908,191.382ZM-84.112,370.819L-84.112,163.398L-35.737,163.398C-18.112,163.398 -5.643,167.218 1.67,174.859C8.982,182.499 12.638,195.694 12.638,214.444L12.638,319.491C12.638,338.148 8.701,351.366 0.826,359.148C-7.049,366.929 -20.174,370.819 -38.549,370.819L-84.112,370.819Z" style="fill:black;fill-rule:nonzero;"/>
            <path d="M111.076,204.882L111.076,370.819L75.076,370.819L75.076,357.038L74.232,357.038C71.138,362.757 67.506,366.952 63.334,369.624C59.162,372.296 54.17,373.632 48.357,373.632C40.388,373.632 34.412,371.312 30.428,366.671C26.443,362.03 24.451,355.069 24.451,345.788L24.451,204.882L61.013,204.882L61.013,333.694C61.013,337.351 61.553,339.882 62.631,341.288C63.709,342.694 65.467,343.398 67.904,343.398C70.154,343.398 71.771,342.648 72.756,341.148C73.74,339.648 74.232,337.163 74.232,333.694L74.232,204.882L111.076,204.882Z" style="fill:black;fill-rule:nonzero;"/>
            <path d="M122.607,370.819L122.607,204.882L158.326,204.882L158.326,218.804L158.888,218.804C161.795,213.085 165.428,208.819 169.787,206.007C174.146,203.194 179.232,201.788 185.045,201.788C190.576,201.788 195.217,203.218 198.967,206.077C202.717,208.937 205.482,213.179 207.263,218.804L207.826,218.804C211.107,213.085 214.928,208.819 219.287,206.007C223.646,203.194 228.685,201.788 234.404,201.788C242.467,201.788 248.42,204.085 252.263,208.679C256.107,213.273 258.029,220.398 258.029,230.054L258.029,370.819L221.326,370.819L221.326,242.148C221.326,238.304 220.834,235.702 219.849,234.343C218.865,232.984 217.154,232.304 214.717,232.304C212.467,232.304 210.803,233.101 209.724,234.694C208.646,236.288 208.107,238.773 208.107,242.148L208.107,370.819L172.107,370.819L172.107,242.148C172.107,238.304 171.615,235.702 170.631,234.343C169.646,232.984 167.935,232.304 165.498,232.304C163.248,232.304 161.584,233.101 160.506,234.694C159.428,236.288 158.888,238.773 158.888,242.148L158.888,370.819L122.607,370.819Z" style="fill:black;fill-rule:nonzero;"/>
            <path d="M269.42,370.819L269.42,204.882L305.138,204.882L305.138,218.804L305.701,218.804C308.607,213.085 312.24,208.819 316.599,206.007C320.959,203.194 326.045,201.788 331.857,201.788C337.388,201.788 342.029,203.218 345.779,206.077C349.529,208.937 352.295,213.179 354.076,218.804L354.638,218.804C357.92,213.085 361.74,208.819 366.099,206.007C370.459,203.194 375.498,201.788 381.217,201.788C389.279,201.788 395.232,204.085 399.076,208.679C402.92,213.273 404.842,220.398 404.842,230.054L404.842,370.819L368.138,370.819L368.138,242.148C368.138,238.304 367.646,235.702 366.662,234.343C365.678,232.984 363.967,232.304 361.529,232.304C359.279,232.304 357.615,233.101 356.537,234.694C355.459,236.288 354.92,238.773 354.92,242.148L354.92,370.819L318.92,370.819L318.92,242.148C318.92,238.304 318.428,235.702 317.443,234.343C316.459,232.984 314.748,232.304 312.31,232.304C310.06,232.304 308.396,233.101 307.318,234.694C306.24,236.288 305.701,238.773 305.701,242.148L305.701,370.819L269.42,370.819Z" style="fill:black;fill-rule:nonzero;"/>
            <path d="M475.857,371.944C473.701,386.101 470.209,395.687 465.381,400.702C460.553,405.718 452.701,408.226 441.826,408.226L410.748,408.226L410.748,381.507L426.357,381.507C428.795,381.507 430.553,381.109 431.631,380.312C432.709,379.515 433.248,378.179 433.248,376.304C433.248,375.648 433.154,374.523 432.967,372.929C432.779,371.335 432.404,368.335 431.842,363.929L407.654,204.882L445.342,204.882L451.67,288.273C451.951,292.21 452.232,297.601 452.513,304.444C452.795,311.288 453.123,319.585 453.498,329.335L454.482,329.335C454.951,323.148 455.49,316.655 456.099,309.859C456.709,303.062 457.529,294.694 458.56,284.757L466.857,204.882L501.17,204.882L475.857,371.944Z" style="fill:black;fill-rule:nonzero;"/>
            <path d="M-39.463,537.601L-39.463,489.507C-39.463,484.819 -40.283,481.679 -41.924,480.085C-43.565,478.491 -46.776,477.694 -51.557,477.694L-53.244,477.694L-53.244,549.132L-50.713,549.132C-46.401,549.132 -43.447,548.288 -41.854,546.601C-40.26,544.913 -39.463,541.913 -39.463,537.601ZM-94.729,658.819L-94.729,451.398L-46.354,451.398C-29.76,451.398 -17.596,454.421 -9.862,460.468C-2.127,466.515 1.74,476.007 1.74,488.944L1.74,533.241C1.74,549.366 -2.08,560.851 -9.721,567.694C-17.362,574.538 -30.229,577.96 -48.322,577.96L-53.244,577.96L-53.244,658.819L-94.729,658.819Z" style="fill:black;fill-rule:nonzero;"/>
            <path d="M16.646,658.819L16.646,492.882L53.209,492.882L53.209,658.819L16.646,658.819ZM16.646,482.898L16.646,451.398L53.209,451.398L53.209,482.898L16.646,482.898Z" style="fill:black;fill-rule:nonzero;"/>
            <path d="M64.74,615.648L64.74,536.194C64.74,518.757 68.021,506.523 74.584,499.491C81.146,492.46 92.162,488.944 107.631,488.944C121.224,488.944 131.865,492.109 139.553,498.437C147.24,504.765 151.084,513.507 151.084,524.663L151.084,550.819L114.521,550.819L114.521,524.944C114.521,521.288 114.006,518.687 112.974,517.14C111.943,515.593 110.256,514.819 107.912,514.819C105.568,514.819 103.881,515.593 102.849,517.14C101.818,518.687 101.303,521.288 101.303,524.944L101.303,625.351C101.303,629.007 101.818,631.609 102.849,633.155C103.881,634.702 105.568,635.476 107.912,635.476C110.256,635.476 111.943,634.702 112.974,633.155C114.006,631.609 114.521,629.007 114.521,625.351L114.521,594.273L151.084,594.273L151.084,625.069C151.084,637.069 147.31,646.374 139.763,652.984C132.217,659.593 121.599,662.898 107.912,662.898C92.443,662.898 81.381,659.335 74.724,652.21C68.068,645.085 64.74,632.898 64.74,615.648Z" style="fill:black;fill-rule:nonzero;"/>
            <path d="M155.724,519.46L155.724,492.882L165.006,492.882L165.006,462.085L201.849,462.085L201.849,492.882L212.537,492.882L212.537,519.46L201.849,519.46L201.849,620.288C201.849,625.444 202.482,628.702 203.748,630.062C205.013,631.421 207.521,632.101 211.271,632.101L212.537,632.101L212.537,658.819L189.474,658.819C180.568,658.819 174.263,656.78 170.56,652.702C166.857,648.624 165.006,640.96 165.006,629.71L165.006,519.46L155.724,519.46Z" style="fill:black;fill-rule:nonzero;"/>
            <path d="M305.49,492.882L305.49,658.819L269.49,658.819L269.49,645.038L268.646,645.038C265.553,650.757 261.92,654.952 257.748,657.624C253.576,660.296 248.584,661.632 242.771,661.632C234.803,661.632 228.826,659.312 224.842,654.671C220.857,650.03 218.865,643.069 218.865,633.788L218.865,492.882L255.428,492.882L255.428,621.694C255.428,625.351 255.967,627.882 257.045,629.288C258.123,630.694 259.881,631.398 262.318,631.398C264.568,631.398 266.185,630.648 267.17,629.148C268.154,627.648 268.646,625.163 268.646,621.694L268.646,492.882L305.49,492.882Z" style="fill:black;fill-rule:nonzero;"/>
            <path d="M317.021,658.819L317.021,492.882L353.021,492.882L353.021,506.804L353.584,506.804C356.678,500.991 360.381,496.702 364.693,493.937C369.006,491.171 374.021,489.788 379.74,489.788C387.709,489.788 393.685,492.155 397.67,496.89C401.654,501.624 403.646,508.679 403.646,518.054L403.646,582.179L366.803,582.179L366.803,530.148C366.803,526.304 366.31,523.702 365.326,522.343C364.342,520.984 362.631,520.304 360.193,520.304C357.943,520.304 356.279,521.101 355.201,522.694C354.123,524.288 353.584,526.773 353.584,530.148L353.584,658.819L317.021,658.819Z" style="fill:black;fill-rule:nonzero;"/>
            <path d="M453.709,524.944L453.709,556.304L466.928,556.304L466.928,524.944C466.928,521.288 466.412,518.687 465.381,517.14C464.349,515.593 462.662,514.819 460.318,514.819C457.974,514.819 456.287,515.593 455.256,517.14C454.224,518.687 453.709,521.288 453.709,524.944ZM453.709,625.351C453.709,629.007 454.224,631.609 455.256,633.155C456.287,634.702 457.974,635.476 460.318,635.476C462.662,635.476 464.349,634.702 465.381,633.155C466.412,631.609 466.928,629.007 466.928,625.351L466.928,594.273L503.49,594.273L503.49,625.069C503.49,637.069 499.717,646.374 492.17,652.984C484.623,659.593 474.006,662.898 460.318,662.898C444.849,662.898 433.787,659.335 427.131,652.21C420.474,645.085 417.146,632.898 417.146,615.648L417.146,536.194C417.146,518.757 420.428,506.523 426.99,499.491C433.553,492.46 444.568,488.944 460.037,488.944C473.631,488.944 484.271,492.109 491.959,498.437C499.646,504.765 503.49,513.507 503.49,524.663L503.49,581.054L453.709,581.054L453.709,625.351Z" style="fill:black;fill-rule:nonzero;"/>
        </g>
    </g>
</svg>
