<?xml version="1.0" encoding="UTF-8" standalone="no"?>
<!DOCTYPE svg PUBLIC "-//W3C//DTD SVG 1.1//EN" "http://www.w3.org/Graphics/SVG/1.1/DTD/svg11.dtd">
<svg width="100%" height="100%" viewBox="0 0 1280 1150" version="1.1" xmlns="http://www.w3.org/2000/svg" xmlns:xlink="http://www.w3.org/1999/xlink" xml:space="preserve" style="fill-rule:evenodd;clip-rule:evenodd;stroke-linecap:round;stroke-linejoin:round;stroke-miterlimit:1.41421;">
    <g transform="matrix(1.01124,0,0,1.00511,-3.08145,0.948779)">
        <rect x="174.908" y="88.156" width="965.796" height="1013.85" style="fill:rgb(17,17,17);stroke-width:0.64px;stroke:rgb(204,205,197);"/>
    </g>
    <path d="M717.021,893.081L773.183,893.081L773.183,922.075L803.295,922.075L803.295,1020.18L717.021,1020.18L717.021,893.081Z" style="fill:rgb(225,197,113);stroke-width:2.5px;stroke:rgb(26,26,26);"/>
    <rect x="562.894" y="721.14" width="53.652" height="52.372" style="fill:rgb(225,197,113);"/>
    <g id="jtag">
        <path d="M186.907,794.95L240.175,794.95L240.175,620.651L194.814,620.651L186.907,628.557L186.907,794.95Z" style="fill:none;stroke-width:2px;stroke:white;"/>
        <g id="JTAG" transform="matrix(-1.60812e-16,-1,1,-1.60812e-16,-615.372,993.821)">
            <path d="M214.444,870.938C214.444,871.851 214.374,872.53 214.234,872.973C214.094,873.416 213.823,873.771 213.42,874.038C213.018,874.305 212.583,874.438 212.117,874.438C211.652,874.438 211.222,874.366 210.828,874.221C210.435,874.076 209.971,873.773 209.438,873.312L210.062,872.389C210.587,872.769 210.985,873.023 211.256,873.149C211.527,873.276 211.792,873.339 212.05,873.339C212.307,873.339 212.545,873.244 212.762,873.054C212.979,872.864 213.117,872.618 213.176,872.315C213.235,872.012 213.264,871.539 213.264,870.897L213.264,864.262L214.444,864.262L214.444,870.938Z" style="fill:white;fill-rule:nonzero;"/>
            <path d="M221.188,865.402L219.017,865.402L219.017,874.194L217.837,874.194L217.837,865.402L215.652,865.402L215.652,864.262L221.188,864.262L221.188,865.402Z" style="fill:white;fill-rule:nonzero;"/>
            <path d="M231.161,874.194L229.926,874.194L228.393,870.87L224.295,870.87L222.775,874.194L221.486,874.194L226.181,863.869L226.534,863.869L231.161,874.194ZM227.864,869.689L226.358,866.338L224.838,869.689L227.864,869.689Z" style="fill:white;fill-rule:nonzero;"/>
            <path d="M242.64,869.337C242.612,870.947 242.144,872.2 241.235,873.095C240.326,873.991 239.13,874.438 237.646,874.438C235.946,874.438 234.589,873.916 233.576,872.871C232.563,871.826 232.056,870.603 232.056,869.201C232.056,867.799 232.563,866.584 233.576,865.558C234.589,864.531 235.896,864.018 237.497,864.018C238.366,864.018 239.173,864.178 239.919,864.499C240.665,864.821 241.396,865.311 242.11,865.972L241.215,866.826C240.663,866.293 240.066,865.883 239.424,865.598C238.782,865.314 238.121,865.171 237.443,865.171C236.764,865.171 236.091,865.352 235.421,865.714C234.752,866.076 234.227,866.564 233.847,867.179C233.467,867.794 233.277,868.459 233.277,869.174C233.277,870.286 233.696,871.257 234.532,872.084C235.369,872.912 236.416,873.326 237.674,873.326C238.605,873.326 239.41,873.07 240.089,872.559C240.767,872.048 241.183,871.349 241.337,870.463L238.243,870.463L238.243,869.337L242.64,869.337Z" style="fill:white;fill-rule:nonzero;"/>
        </g>
        <g transform="matrix(1,0,0,1,0,98.2211)">
            <path d="M197.929,624.159L231.056,624.159L237.534,629.061L237.534,639.024L231.056,644.992L197.929,644.992L190.804,639.024L190.804,629.061L197.929,624.159Z" style="fill:rgb(35,36,31);stroke-width:2px;stroke:rgb(19,18,16);"/>
            <g transform="matrix(0.529822,0,0,0.494308,-3.08959,488.473)">
                <rect x="381.477" y="287.99" width="11.716" height="12.521" style="fill:rgb(193,173,112);stroke-width:1.95px;stroke-linecap:square;stroke-linejoin:miter;stroke:rgb(91,73,37);"/>
            </g>
            <g transform="matrix(0.529822,0,0,0.494308,19.7718,488.473)">
                <rect x="381.477" y="287.99" width="11.716" height="12.521" style="fill:rgb(193,173,112);stroke-width:1.95px;stroke-linecap:square;stroke-linejoin:miter;stroke:rgb(91,73,37);"/>
            </g>
        </g>
        <g transform="matrix(1,0,0,1,0,25.1702)">
            <path d="M197.929,624.159L231.056,624.159L237.534,629.061L237.534,639.024L231.056,644.992L197.929,644.992L190.804,639.024L190.804,629.061L197.929,624.159Z" style="fill:rgb(35,36,31);stroke-width:2px;stroke:rgb(19,18,16);"/>
            <g transform="matrix(0.529822,0,0,0.494308,-3.08959,488.473)">
                <rect x="381.477" y="287.99" width="11.716" height="12.521" style="fill:rgb(193,173,112);stroke-width:1.95px;stroke-linecap:square;stroke-linejoin:miter;stroke:rgb(91,73,37);"/>
            </g>
            <g transform="matrix(0.529822,0,0,0.494308,19.7718,488.473)">
                <rect x="381.477" y="287.99" width="11.716" height="12.521" style="fill:rgb(193,173,112);stroke-width:1.95px;stroke-linecap:square;stroke-linejoin:miter;stroke:rgb(91,73,37);"/>
            </g>
        </g>
        <g transform="matrix(1,0,0,1,0,-0.232075)">
            <path d="M197.929,624.159L231.056,624.159L237.534,629.061L237.534,639.024L231.056,644.992L197.929,644.992L190.804,639.024L190.804,629.061L197.929,624.159Z" style="fill:rgb(35,36,31);stroke-width:2px;stroke:rgb(19,18,16);"/>
            <g transform="matrix(0.529822,0,0,0.494308,-3.08959,488.473)">
                <rect x="381.477" y="287.99" width="11.716" height="12.521" style="fill:rgb(193,173,112);stroke-width:1.95px;stroke-linecap:square;stroke-linejoin:miter;stroke:rgb(91,73,37);"/>
            </g>
            <g transform="matrix(0.529822,0,0,0.494308,19.7718,488.473)">
                <rect x="381.477" y="287.99" width="11.716" height="12.521" style="fill:rgb(193,173,112);stroke-width:1.95px;stroke-linecap:square;stroke-linejoin:miter;stroke:rgb(91,73,37);"/>
            </g>
        </g>
        <g transform="matrix(1,0,0,1,0,146.425)">
            <path d="M197.929,624.159L231.056,624.159L237.534,629.061L237.534,639.024L231.056,644.992L197.929,644.992L190.804,639.024L190.804,629.061L197.929,624.159Z" style="fill:rgb(35,36,31);stroke-width:2px;stroke:rgb(19,18,16);"/>
            <g transform="matrix(0.529822,0,0,0.494308,-3.08959,488.473)">
                <rect x="381.477" y="287.99" width="11.716" height="12.521" style="fill:rgb(193,173,112);stroke-width:1.95px;stroke-linecap:square;stroke-linejoin:miter;stroke:rgb(91,73,37);"/>
            </g>
            <g transform="matrix(0.529822,0,0,0.494308,19.7718,488.473)">
                <rect x="381.477" y="287.99" width="11.716" height="12.521" style="fill:rgb(193,173,112);stroke-width:1.95px;stroke-linecap:square;stroke-linejoin:miter;stroke:rgb(91,73,37);"/>
            </g>
        </g>
        <g transform="matrix(1,0,0,1,0,73.3746)">
            <path d="M197.929,624.159L231.056,624.159L237.534,629.061L237.534,639.024L231.056,644.992L197.929,644.992L190.804,639.024L190.804,629.061L197.929,624.159Z" style="fill:rgb(35,36,31);stroke-width:2px;stroke:rgb(19,18,16);"/>
            <g transform="matrix(0.529822,0,0,0.494308,-3.08959,488.473)">
                <rect x="381.477" y="287.99" width="11.716" height="12.521" style="fill:rgb(193,173,112);stroke-width:1.95px;stroke-linecap:square;stroke-linejoin:miter;stroke:rgb(91,73,37);"/>
            </g>
            <g transform="matrix(0.529822,0,0,0.494308,19.7718,488.473)">
                <rect x="381.477" y="287.99" width="11.716" height="12.521" style="fill:rgb(193,173,112);stroke-width:1.95px;stroke-linecap:square;stroke-linejoin:miter;stroke:rgb(91,73,37);"/>
            </g>
        </g>
        <g transform="matrix(1,0,0,1,0,122.396)">
            <path d="M197.929,624.159L231.056,624.159L237.534,629.061L237.534,639.024L231.056,644.992L197.929,644.992L190.804,639.024L190.804,629.061L197.929,624.159Z" style="fill:rgb(35,36,31);stroke-width:2px;stroke:rgb(19,18,16);"/>
            <g transform="matrix(0.529822,0,0,0.494308,-3.08959,488.473)">
                <rect x="381.477" y="287.99" width="11.716" height="12.521" style="fill:rgb(193,173,112);stroke-width:1.95px;stroke-linecap:square;stroke-linejoin:miter;stroke:rgb(91,73,37);"/>
            </g>
            <g transform="matrix(0.529822,0,0,0.494308,19.7718,488.473)">
                <rect x="381.477" y="287.99" width="11.716" height="12.521" style="fill:rgb(193,173,112);stroke-width:1.95px;stroke-linecap:square;stroke-linejoin:miter;stroke:rgb(91,73,37);"/>
            </g>
        </g>
        <g transform="matrix(1,0,0,1,0,49.3453)">
            <path d="M197.929,624.159L231.056,624.159L237.534,629.061L237.534,639.024L231.056,644.992L197.929,644.992L190.804,639.024L190.804,629.061L197.929,624.159Z" style="fill:rgb(35,36,31);stroke-width:2px;stroke:rgb(19,18,16);"/>
            <g transform="matrix(0.529822,0,0,0.494308,-3.08959,488.473)">
                <rect x="381.477" y="287.99" width="11.716" height="12.521" style="fill:rgb(193,173,112);stroke-width:1.95px;stroke-linecap:square;stroke-linejoin:miter;stroke:rgb(91,73,37);"/>
            </g>
            <g transform="matrix(0.529822,0,0,0.494308,19.7718,488.473)">
                <rect x="381.477" y="287.99" width="11.716" height="12.521" style="fill:rgb(193,173,112);stroke-width:1.95px;stroke-linecap:square;stroke-linejoin:miter;stroke:rgb(91,73,37);"/>
            </g>
        </g>
    </g>
    <g id="uart">
        <rect x="190.79" y="855.842" width="24.532" height="146.839" style="fill:none;stroke-width:2px;stroke:white;"/>
        <g transform="matrix(1,0,0,1.03469,-1.59286,214.608)">
            <path d="M197.929,624.159L209.398,624.159L216.522,629.061L216.522,639.024L209.398,644.992L197.929,644.992L190.804,639.024L190.804,629.061L197.929,624.159Z" style="fill:rgb(35,36,31);stroke-width:1.97px;stroke:rgb(19,18,16);"/>
            <g transform="matrix(0.529822,0,0,0.494308,-1.81205,488.736)">
                <rect x="381.477" y="287.99" width="11.716" height="12.521" style="fill:rgb(193,173,112);stroke-width:1.92px;stroke-linecap:square;stroke-linejoin:miter;stroke:rgb(91,73,37);"/>
            </g>
        </g>
        <g transform="matrix(1,0,0,1.03469,42.683,357.932)">
            <path d="M197.929,624.159L209.398,624.159L216.522,629.061L216.522,639.024L209.398,644.992L197.929,644.992L190.804,639.024L190.804,629.061L197.929,624.159Z" style="fill:rgb(35,36,31);stroke-width:1.97px;stroke:rgb(19,18,16);"/>
            <g transform="matrix(0.529822,0,0,0.494308,-1.81205,488.736)">
                <rect x="381.477" y="287.99" width="11.716" height="12.521" style="fill:rgb(193,173,112);stroke-width:1.92px;stroke-linecap:square;stroke-linejoin:miter;stroke:rgb(91,73,37);"/>
            </g>
        </g>
        <g transform="matrix(1,0,0,1.03469,908.458,357.932)">
            <path d="M197.929,624.159L209.398,624.159L216.522,629.061L216.522,639.024L209.398,644.992L197.929,644.992L190.804,639.024L190.804,629.061L197.929,624.159Z" style="fill:rgb(35,36,31);stroke-width:1.97px;stroke:rgb(19,18,16);"/>
            <g transform="matrix(0.529822,0,0,0.494308,-1.81205,488.736)">
                <rect x="381.477" y="287.99" width="11.716" height="12.521" style="fill:rgb(193,173,112);stroke-width:1.92px;stroke-linecap:square;stroke-linejoin:miter;stroke:rgb(91,73,37);"/>
            </g>
        </g>
        <g transform="matrix(1,0,0,1.03469,42.9315,-499.348)">
            <path d="M197.929,624.159L209.398,624.159L216.522,629.061L216.522,639.024L209.398,644.992L197.929,644.992L190.804,639.024L190.804,629.061L197.929,624.159Z" style="fill:rgb(35,36,31);stroke-width:1.97px;stroke:rgb(19,18,16);"/>
            <g transform="matrix(0.529822,0,0,0.494308,-1.81205,488.736)">
                <rect x="381.477" y="287.99" width="11.716" height="12.521" style="fill:rgb(193,173,112);stroke-width:1.92px;stroke-linecap:square;stroke-linejoin:miter;stroke:rgb(91,73,37);"/>
            </g>
        </g>
        <g transform="matrix(1,0,0,1.03469,-1.59286,263.882)">
            <path d="M197.929,624.159L209.398,624.159L216.522,629.061L216.522,639.024L209.398,644.992L197.929,644.992L190.804,639.024L190.804,629.061L197.929,624.159Z" style="fill:rgb(35,36,31);stroke-width:1.97px;stroke:rgb(19,18,16);"/>
            <g transform="matrix(0.529822,0,0,0.494308,-1.81205,488.736)">
                <rect x="381.477" y="287.99" width="11.716" height="12.521" style="fill:rgb(193,173,112);stroke-width:1.92px;stroke-linecap:square;stroke-linejoin:miter;stroke:rgb(91,73,37);"/>
            </g>
        </g>
        <g transform="matrix(1,0,0,1.03469,-1.59286,314.35)">
            <path d="M197.929,624.159L209.398,624.159L216.522,629.061L216.522,639.024L209.398,644.992L197.929,644.992L190.804,639.024L190.804,629.061L197.929,624.159Z" style="fill:rgb(35,36,31);stroke-width:1.97px;stroke:rgb(19,18,16);"/>
            <g transform="matrix(0.529822,0,0,0.494308,-1.81205,488.736)">
                <rect x="381.477" y="287.99" width="11.716" height="12.521" style="fill:rgb(193,173,112);stroke-width:1.92px;stroke-linecap:square;stroke-linejoin:miter;stroke:rgb(91,73,37);"/>
            </g>
        </g>
        <g transform="matrix(1,0,0,1.03469,-1.59286,239.347)">
            <path d="M197.929,624.159L209.398,624.159L216.522,629.061L216.522,639.024L209.398,644.992L197.929,644.992L190.804,639.024L190.804,629.061L197.929,624.159Z" style="fill:rgb(35,36,31);stroke-width:1.97px;stroke:rgb(19,18,16);"/>
            <g transform="matrix(0.529822,0,0,0.494308,-1.81205,488.736)">
                <rect x="381.477" y="287.99" width="11.716" height="12.521" style="fill:rgb(193,173,112);stroke-width:1.92px;stroke-linecap:square;stroke-linejoin:miter;stroke:rgb(91,73,37);"/>
            </g>
        </g>
        <g transform="matrix(1,0,0,1.03469,-1.59286,288.621)">
            <path d="M197.929,624.159L209.398,624.159L216.522,629.061L216.522,639.024L209.398,644.992L197.929,644.992L190.804,639.024L190.804,629.061L197.929,624.159Z" style="fill:rgb(35,36,31);stroke-width:1.97px;stroke:rgb(19,18,16);"/>
            <g transform="matrix(0.529822,0,0,0.494308,-1.81205,488.736)">
                <rect x="381.477" y="287.99" width="11.716" height="12.521" style="fill:rgb(193,173,112);stroke-width:1.92px;stroke-linecap:square;stroke-linejoin:miter;stroke:rgb(91,73,37);"/>
            </g>
        </g>
        <g transform="matrix(1,0,0,1.03469,-1.59286,339.089)">
            <path d="M197.929,624.159L209.398,624.159L216.522,629.061L216.522,639.024L209.398,644.992L197.929,644.992L190.804,639.024L190.804,629.061L197.929,624.159Z" style="fill:rgb(35,36,31);stroke-width:1.97px;stroke:rgb(19,18,16);"/>
            <g transform="matrix(0.529822,0,0,0.494308,-1.81205,488.736)">
                <rect x="381.477" y="287.99" width="11.716" height="12.521" style="fill:rgb(193,173,112);stroke-width:1.92px;stroke-linecap:square;stroke-linejoin:miter;stroke:rgb(91,73,37);"/>
            </g>
        </g>
        <g transform="matrix(1,0,0,1,13.6524,0.982671)">
            <path d="M217.341,868.604C217.875,868.866 218.289,869.228 218.583,869.689C218.877,870.151 219.024,870.653 219.024,871.195C219.024,872.082 218.7,872.844 218.054,873.482C217.407,874.119 216.591,874.438 215.605,874.438C214.718,874.438 213.992,874.183 213.427,873.672C212.861,873.161 212.479,872.403 212.28,871.399L213.434,871.399C213.605,872.041 213.861,872.518 214.2,872.83C214.539,873.143 215.023,873.299 215.652,873.299C216.281,873.299 216.808,873.102 217.233,872.708C217.658,872.315 217.87,871.82 217.87,871.223C217.87,870.626 217.629,870.151 217.145,869.798C216.661,869.445 215.948,869.26 215.008,869.242L215.008,868.156C215.686,868.156 216.233,868.011 216.649,867.722C217.065,867.432 217.273,867.073 217.273,866.643C217.273,866.214 217.113,865.856 216.792,865.571C216.471,865.286 216.082,865.144 215.625,865.144C215.168,865.144 214.797,865.273 214.512,865.531C214.227,865.788 213.985,866.18 213.786,866.704L212.606,866.704C212.805,865.836 213.167,865.171 213.691,864.71C214.216,864.248 214.863,864.018 215.632,864.018C216.401,864.018 217.068,864.271 217.633,864.778C218.198,865.284 218.481,865.899 218.481,866.623C218.481,867.455 218.101,868.115 217.341,868.604Z" style="fill:white;fill-rule:nonzero;"/>
            <path d="M221.493,871.874C221.747,871.874 221.961,871.962 222.138,872.138C222.314,872.315 222.402,872.532 222.402,872.79C222.402,873.048 222.314,873.265 222.138,873.441C221.961,873.617 221.749,873.706 221.5,873.706C221.251,873.706 221.036,873.615 220.856,873.434C220.675,873.253 220.584,873.036 220.584,872.783C220.584,872.53 220.675,872.315 220.856,872.138C221.036,871.962 221.249,871.874 221.493,871.874Z" style="fill:white;fill-rule:nonzero;"/>
            <path d="M228.617,868.604C229.15,868.866 229.564,869.228 229.858,869.689C230.152,870.151 230.299,870.653 230.299,871.195C230.299,872.082 229.976,872.844 229.329,873.482C228.682,874.119 227.866,874.438 226.88,874.438C225.993,874.438 225.268,874.183 224.702,873.672C224.137,873.161 223.755,872.403 223.556,871.399L224.709,871.399C224.881,872.041 225.136,872.518 225.476,872.83C225.815,873.143 226.299,873.299 226.927,873.299C227.556,873.299 228.083,873.102 228.508,872.708C228.933,872.315 229.146,871.82 229.146,871.223C229.146,870.626 228.904,870.151 228.42,869.798C227.936,869.445 227.224,869.26 226.283,869.242L226.283,868.156C226.961,868.156 227.509,868.011 227.925,867.722C228.341,867.432 228.549,867.073 228.549,866.643C228.549,866.214 228.388,865.856 228.067,865.571C227.746,865.286 227.357,865.144 226.9,865.144C226.443,865.144 226.073,865.273 225.788,865.531C225.503,865.788 225.261,866.18 225.062,866.704L223.881,866.704C224.08,865.836 224.442,865.171 224.967,864.71C225.491,864.248 226.138,864.018 226.907,864.018C227.676,864.018 228.343,864.271 228.908,864.778C229.474,865.284 229.756,865.899 229.756,866.623C229.756,867.455 229.376,868.115 228.617,868.604Z" style="fill:white;fill-rule:nonzero;"/>
            <path d="M239.933,864.262L235.604,874.438L235.292,874.438L231.032,864.262L232.28,864.262L235.455,871.901L238.684,864.262L239.933,864.262Z" style="fill:white;fill-rule:nonzero;"/>
        </g>
        <g transform="matrix(1,0,0,1,13.6524,25.2487)">
            <path d="M217.674,866.447C217.312,865.958 217.004,865.63 216.751,865.463C216.498,865.295 216.202,865.212 215.862,865.212C215.523,865.212 215.238,865.32 215.008,865.537C214.777,865.755 214.662,866.033 214.662,866.372C214.662,866.711 214.77,867.007 214.987,867.261C215.204,867.514 215.704,867.928 216.487,868.502C217.269,869.077 217.841,869.617 218.203,870.124C218.565,870.63 218.746,871.164 218.746,871.725C218.746,872.457 218.463,873.093 217.898,873.631C217.332,874.169 216.674,874.438 215.923,874.438C214.603,874.438 213.567,873.701 212.816,872.227L213.807,871.657C214.395,872.751 215.055,873.299 215.788,873.299C216.258,873.299 216.661,873.149 216.995,872.851C217.33,872.552 217.497,872.204 217.497,871.806C217.497,871.408 217.357,871.03 217.077,870.673C216.796,870.316 216.312,869.877 215.625,869.357C214.937,868.837 214.465,868.441 214.207,868.17C213.949,867.898 213.762,867.609 213.644,867.301C213.526,866.994 213.468,866.686 213.468,866.379C213.468,865.718 213.696,865.16 214.153,864.703C214.61,864.246 215.2,864.018 215.923,864.018C216.484,864.018 216.973,864.16 217.389,864.445C217.805,864.73 218.212,865.153 218.61,865.714L217.674,866.447Z" style="fill:white;fill-rule:nonzero;"/>
            <rect x="219.519" y="875.022" width="6.784" height="0.868" style="fill:white;fill-rule:nonzero;"/>
            <rect x="227.253" y="864.262" width="1.167" height="9.932" style="fill:white;fill-rule:nonzero;"/>
            <path d="M238.311,874.194L237.959,874.194L231.663,866.989L231.663,874.194L230.469,874.194L230.469,864.262L230.822,864.262L237.158,871.562L237.158,864.262L238.311,864.262L238.311,874.194Z" style="fill:white;fill-rule:nonzero;"/>
        </g>
        <g transform="matrix(1,0,0,1,13.6524,98.043)">
            <path d="M210.998,866.447C210.636,865.958 210.329,865.63 210.075,865.463C209.822,865.295 209.526,865.212 209.187,865.212C208.848,865.212 208.563,865.32 208.332,865.537C208.101,865.755 207.986,866.033 207.986,866.372C207.986,866.711 208.094,867.007 208.312,867.261C208.529,867.514 209.028,867.928 209.811,868.502C210.593,869.077 211.165,869.617 211.527,870.124C211.889,870.63 212.07,871.164 212.07,871.725C212.07,872.457 211.787,873.093 211.222,873.631C210.657,874.169 209.999,874.438 209.248,874.438C207.927,874.438 206.891,873.701 206.141,872.227L207.131,871.657C207.719,872.751 208.379,873.299 209.112,873.299C209.582,873.299 209.985,873.149 210.32,872.851C210.654,872.552 210.822,872.204 210.822,871.806C210.822,871.408 210.682,871.03 210.401,870.673C210.121,870.316 209.637,869.877 208.949,869.357C208.262,868.837 207.789,868.441 207.531,868.17C207.274,867.898 207.086,867.609 206.968,867.301C206.851,866.994 206.792,866.686 206.792,866.379C206.792,865.718 207.02,865.16 207.477,864.703C207.934,864.246 208.524,864.018 209.248,864.018C209.809,864.018 210.297,864.16 210.713,864.445C211.129,864.73 211.536,865.153 211.934,865.714L210.998,866.447Z" style="fill:white;fill-rule:nonzero;"/>
            <rect x="212.843" y="875.022" width="6.784" height="0.868" style="fill:white;fill-rule:nonzero;"/>
            <path d="M225.462,864.018C226.43,864.018 227.321,864.246 228.135,864.703C228.949,865.16 229.589,865.791 230.055,866.596C230.521,867.401 230.754,868.276 230.754,869.221C230.754,870.167 230.523,871.042 230.062,871.847C229.6,872.652 228.967,873.285 228.162,873.746C227.357,874.208 226.482,874.438 225.537,874.438C224.591,874.438 223.712,874.21 222.898,873.753C222.083,873.296 221.446,872.668 220.984,871.867C220.523,871.067 220.292,870.194 220.292,869.248C220.292,868.303 220.523,867.426 220.984,866.616C221.446,865.807 222.077,865.171 222.877,864.71C223.678,864.248 224.539,864.018 225.462,864.018ZM225.503,873.299C226.633,873.299 227.59,872.914 228.372,872.145C229.155,871.376 229.546,870.413 229.546,869.255C229.546,868.097 229.15,867.125 228.359,866.338C227.567,865.551 226.615,865.158 225.503,865.158C224.363,865.158 223.411,865.553 222.647,866.345C221.882,867.136 221.5,868.1 221.5,869.235C221.5,870.37 221.894,871.331 222.68,872.118C223.467,872.905 224.408,873.299 225.503,873.299Z" style="fill:white;fill-rule:nonzero;"/>
            <path d="M239.18,870.232C239.18,871.236 239.078,872.007 238.874,872.546C238.671,873.084 238.309,873.534 237.789,873.896C237.269,874.257 236.66,874.438 235.964,874.438C235.412,874.438 234.915,874.35 234.471,874.174C234.028,873.997 233.66,873.749 233.366,873.427C233.072,873.106 232.861,872.749 232.735,872.356C232.608,871.962 232.545,871.254 232.545,870.232L232.545,864.262L233.712,864.262L233.712,870.232C233.712,870.874 233.73,871.338 233.766,871.623C233.802,871.908 233.906,872.184 234.078,872.451C234.25,872.717 234.496,872.93 234.817,873.088C235.139,873.247 235.503,873.326 235.91,873.326C236.398,873.326 236.821,873.183 237.178,872.898C237.536,872.613 237.766,872.283 237.87,871.908C237.974,871.532 238.026,870.974 238.026,870.232L238.026,864.262L239.18,864.262L239.18,870.232Z" style="fill:white;fill-rule:nonzero;"/>
            <path d="M245.964,865.402L243.793,865.402L243.793,874.194L242.612,874.194L242.612,865.402L240.428,865.402L240.428,864.262L245.964,864.262L245.964,865.402Z" style="fill:white;fill-rule:nonzero;"/>
        </g>
        <g transform="matrix(1,0,0,1,13.6524,121.96)">
            <path d="M221.391,869.337C221.364,870.947 220.896,872.2 219.987,873.095C219.078,873.991 217.882,874.438 216.398,874.438C214.698,874.438 213.341,873.916 212.328,872.871C211.315,871.826 210.808,870.603 210.808,869.201C210.808,867.799 211.315,866.584 212.328,865.558C213.341,864.531 214.648,864.018 216.249,864.018C217.117,864.018 217.925,864.178 218.671,864.499C219.417,864.821 220.148,865.311 220.862,865.972L219.967,866.826C219.415,866.293 218.818,865.883 218.176,865.598C217.534,865.314 216.873,865.171 216.195,865.171C215.516,865.171 214.842,865.352 214.173,865.714C213.504,866.076 212.979,866.564 212.599,867.179C212.219,867.794 212.029,868.459 212.029,869.174C212.029,870.286 212.448,871.257 213.284,872.084C214.121,872.912 215.168,873.326 216.425,873.326C217.357,873.326 218.162,873.07 218.841,872.559C219.519,872.048 219.935,871.349 220.089,870.463L216.995,870.463L216.995,869.337L221.391,869.337Z" style="fill:white;fill-rule:nonzero;"/>
            <path d="M230.876,874.194L230.523,874.194L224.227,866.989L224.227,874.194L223.033,874.194L223.033,864.262L223.386,864.262L229.722,871.562L229.722,864.262L230.876,864.262L230.876,874.194Z" style="fill:white;fill-rule:nonzero;"/>
            <path d="M233.06,864.262L235.177,864.262C236.606,864.262 237.646,864.368 238.298,864.581C238.949,864.793 239.512,865.124 239.987,865.571C240.462,866.019 240.826,866.564 241.079,867.206C241.333,867.849 241.459,868.59 241.459,869.432C241.459,870.273 241.271,871.067 240.896,871.813C240.521,872.559 239.987,873.143 239.295,873.563C238.603,873.984 237.592,874.194 236.262,874.194L233.06,874.194L233.06,864.262ZM234.186,873.081L235.218,873.081C236.366,873.081 237.203,873.023 237.728,872.905C238.252,872.787 238.709,872.561 239.098,872.227C239.487,871.892 239.783,871.483 239.987,870.999C240.191,870.515 240.292,869.956 240.292,869.323C240.292,868.69 240.172,868.104 239.933,867.566C239.693,867.028 239.352,866.589 238.908,866.25C238.465,865.911 237.945,865.684 237.348,865.571C236.751,865.458 235.896,865.402 234.784,865.402L234.186,865.402L234.186,873.081Z" style="fill:white;fill-rule:nonzero;"/>
        </g>
        <g transform="matrix(-1.60812e-16,-1,1,-1.60812e-16,-634.112,1154.75)">
            <path d="M217.375,870.232C217.375,871.236 217.273,872.007 217.07,872.546C216.866,873.084 216.505,873.534 215.984,873.896C215.464,874.257 214.856,874.438 214.16,874.438C213.608,874.438 213.11,874.35 212.667,874.174C212.224,873.997 211.855,873.749 211.561,873.427C211.267,873.106 211.057,872.749 210.93,872.356C210.804,871.962 210.74,871.254 210.74,870.232L210.74,864.262L211.907,864.262L211.907,870.232C211.907,870.874 211.925,871.338 211.961,871.623C211.998,871.908 212.102,872.184 212.274,872.451C212.445,872.717 212.692,872.93 213.013,873.088C213.334,873.247 213.698,873.326 214.105,873.326C214.594,873.326 215.017,873.183 215.374,872.898C215.731,872.613 215.962,872.283 216.066,871.908C216.17,871.532 216.222,870.974 216.222,870.232L216.222,864.262L217.375,864.262L217.375,870.232Z" style="fill:white;fill-rule:nonzero;"/>
            <path d="M228.352,874.194L227.117,874.194L225.584,870.87L221.486,870.87L219.967,874.194L218.678,874.194L223.372,863.869L223.725,863.869L228.352,874.194ZM225.055,869.689L223.549,866.338L222.029,869.689L225.055,869.689Z" style="fill:white;fill-rule:nonzero;"/>
            <path d="M236.222,874.194L234.756,874.194L231.256,869.662L230.849,869.662L230.849,874.194L229.682,874.194L229.682,864.262L231.717,864.262C232.803,864.262 233.549,864.309 233.956,864.404C234.363,864.499 234.716,864.66 235.014,864.886C235.313,865.112 235.548,865.404 235.72,865.761C235.892,866.119 235.978,866.514 235.978,866.949C235.978,867.772 235.697,868.43 235.136,868.923C234.575,869.416 233.766,869.662 232.708,869.662L236.222,874.194ZM230.849,868.522L232.436,868.522C233.232,868.532 233.82,868.412 234.2,868.163C234.58,867.914 234.77,867.516 234.77,866.969C234.77,866.422 234.584,866.024 234.214,865.775C233.843,865.526 233.264,865.402 232.477,865.402L230.849,865.402L230.849,868.522Z" style="fill:white;fill-rule:nonzero;"/>
            <path d="M242.436,865.402L240.265,865.402L240.265,874.194L239.085,874.194L239.085,865.402L236.9,865.402L236.9,864.262L242.436,864.262L242.436,865.402Z" style="fill:white;fill-rule:nonzero;"/>
        </g>
    </g>
    <g id="bohrungen">
        <g transform="matrix(0.81894,0,0,0.889487,38.4445,118.072)">
            <ellipse cx="212.159" cy="1065.02" rx="22.216" ry="19.948" style="fill:white;stroke-width:6.43px;stroke-linecap:butt;stroke:rgb(225,197,113);"/>
        </g>
        <g transform="matrix(0.81894,0,0,0.889487,38.4445,-824.7)">
            <ellipse cx="212.159" cy="1065.02" rx="22.216" ry="19.948" style="fill:white;stroke-width:6.43px;stroke-linecap:butt;stroke:rgb(225,197,113);"/>
        </g>
        <g transform="matrix(0.81894,0,0,0.889487,395.326,-645.73)">
            <ellipse cx="212.159" cy="1065.02" rx="22.216" ry="19.948" style="fill:white;stroke-width:6.43px;stroke-linecap:butt;stroke:rgb(225,197,113);"/>
        </g>
        <g transform="matrix(0.81894,0,0,0.889487,329.495,-401.952)">
            <ellipse cx="212.159" cy="1065.02" rx="22.216" ry="19.948" style="fill:white;stroke-width:6.43px;stroke-linecap:butt;stroke:rgb(225,197,113);"/>
        </g>
        <g transform="matrix(0.81894,0,0,0.889487,336.27,32.9552)">
            <ellipse cx="212.159" cy="1065.02" rx="22.216" ry="19.948" style="fill:white;stroke-width:6.43px;stroke-linecap:butt;stroke:rgb(225,197,113);"/>
        </g>
        <g transform="matrix(0.81894,0,0,0.889487,565.061,-8.46961)">
            <ellipse cx="212.159" cy="1065.02" rx="22.216" ry="19.948" style="fill:white;stroke-width:6.43px;stroke-linecap:butt;stroke:rgb(225,197,113);"/>
        </g>
        <g transform="matrix(1.68113,0,0,1.82595,612.355,-921.226)">
            <ellipse cx="212.159" cy="1065.02" rx="22.216" ry="19.948" style="fill:white;stroke-width:7.41px;stroke-linecap:butt;stroke:rgb(225,197,113);"/>
        </g>
        <g transform="matrix(0.81894,0,0,0.889487,939.256,118.072)">
            <ellipse cx="212.159" cy="1065.02" rx="22.216" ry="19.948" style="fill:white;stroke-width:6.43px;stroke-linecap:butt;stroke:rgb(225,197,113);"/>
        </g>
        <g transform="matrix(0.81894,0,0,0.889487,939.256,-818.161)">
            <ellipse cx="212.159" cy="1065.02" rx="22.216" ry="19.948" style="fill:white;stroke-width:6.43px;stroke-linecap:butt;stroke:rgb(225,197,113);"/>
        </g>
    </g>
    <g id="pcie-slot">
        <rect x="280.916" y="430.545" width="767.9" height="661.387" style="fill:none;stroke-width:26px;stroke-linecap:butt;stroke:rgb(221,222,218);"/>
        <path d="M590.75,429.998L590.75,1091.16L309.016,1091.16L309.016,536.179L342.726,536.179L342.726,515.005L309.016,515.005L309.016,429.998L590.75,429.998" style="fill:none;stroke-width:2px;stroke:white;"/>
        <g>
            <rect x="372.162" y="1032.72" width="198.844" height="28.08" style="fill:rgb(197,195,182);stroke-width:4px;stroke:rgb(200,199,181);"/>
            <path d="M436.553,1033.33C474.072,1029.32 511.557,1030.39 549.03,1033.33C556.487,1034.6 562.19,1037.25 565.494,1041.77C562.273,1049.03 555.316,1053.5 545.805,1056.05C531.005,1060.25 520.333,1058.81 516.245,1050.53C515.535,1049.1 516.864,1047.43 519.876,1046.97C529.886,1045.46 539.599,1042.91 549.03,1039.27C512.786,1036.06 476.557,1034.87 440.37,1039.27C436.455,1039.83 432.21,1039.64 431.74,1036.56C431.463,1034.74 434.069,1033.6 436.553,1033.33Z" style="fill:rgb(177,176,156);stroke-width:1px;stroke:rgb(166,166,166);"/>
            <path d="M508.043,1057.27C521.432,1057.91 534.826,1058.09 548.234,1057.27C549.496,1057.19 549.959,1058.58 549.661,1059.9C548.948,1063.06 546.687,1065.33 542.43,1065.33L516.199,1065.33C508.997,1065.61 506.851,1063.1 505.936,1059.9C505.553,1058.56 506.488,1057.19 508.043,1057.27Z" style="fill:rgb(177,176,156);stroke-width:1px;stroke:rgb(166,166,166);"/>
        </g>
        <g transform="matrix(1,0,0,-1,0.174324,1521.47)">
            <rect x="372.162" y="1032.72" width="198.844" height="28.08" style="fill:rgb(197,195,182);stroke-width:4px;stroke:rgb(200,199,181);"/>
            <path d="M436.553,1033.33C474.072,1029.32 511.557,1030.39 549.03,1033.33C556.487,1034.6 562.19,1037.25 565.494,1041.77C562.273,1049.03 555.316,1053.5 545.805,1056.05C531.005,1060.25 520.333,1058.81 516.245,1050.53C515.535,1049.1 516.864,1047.43 519.876,1046.97C529.886,1045.46 539.599,1042.91 549.03,1039.27C512.786,1036.06 476.557,1034.87 440.37,1039.27C436.455,1039.83 432.21,1039.64 431.74,1036.56C431.463,1034.74 434.069,1033.6 436.553,1033.33Z" style="fill:rgb(177,176,156);stroke-width:1px;stroke:rgb(166,166,166);"/>
            <path d="M508.043,1057.27C521.432,1057.91 534.826,1058.09 548.234,1057.27C549.496,1057.19 549.959,1058.58 549.661,1059.9C548.948,1063.06 546.687,1065.33 542.43,1065.33L516.199,1065.33C508.997,1065.61 506.851,1063.1 505.936,1059.9C505.553,1058.56 506.488,1057.19 508.043,1057.27Z" style="fill:rgb(177,176,156);stroke-width:1px;stroke:rgb(166,166,166);"/>
        </g>
        <g transform="matrix(0.136231,0,0,-21.4041,321.637,23166.1)">
            <rect x="372.162" y="1032.72" width="198.844" height="28.08" style="fill:rgb(197,195,182);stroke-width:0.26px;stroke:rgb(200,199,181);"/>
        </g>
        <g id="pins-golden">
            <path d="M376.43,551.584L417.682,551.584" style="fill:none;stroke-width:4px;stroke:rgb(227,200,129);"/>
            <g transform="matrix(1,0,0,1,0,-40.5881)">
                <path d="M376.43,551.584L417.682,551.584" style="fill:none;stroke-width:4px;stroke:rgb(227,200,129);"/>
            </g>
            <g transform="matrix(1,0,0,1,0,276.571)">
                <path d="M376.43,551.584L417.682,551.584" style="fill:none;stroke-width:4px;stroke:rgb(227,200,129);"/>
            </g>
            <g transform="matrix(1,0,0,1,0,92.1881)">
                <path d="M376.43,551.584L417.682,551.584" style="fill:none;stroke-width:4px;stroke:rgb(227,200,129);"/>
            </g>
            <g transform="matrix(1,0,0,1,0,368.759)">
                <path d="M376.43,551.584L417.682,551.584" style="fill:none;stroke-width:4px;stroke:rgb(227,200,129);"/>
            </g>
            <g transform="matrix(1,0,0,1,0,184.404)">
                <path d="M376.43,551.584L417.682,551.584" style="fill:none;stroke-width:4px;stroke:rgb(227,200,129);"/>
            </g>
            <g transform="matrix(1,0,0,1,0,460.975)">
                <path d="M376.43,551.584L417.682,551.584" style="fill:none;stroke-width:4px;stroke:rgb(227,200,129);"/>
            </g>
            <g transform="matrix(1,0,0,1,0,46.0232)">
                <path d="M376.43,551.584L417.682,551.584" style="fill:none;stroke-width:4px;stroke:rgb(227,200,129);"/>
            </g>
            <g transform="matrix(1,0,0,1,0,322.594)">
                <path d="M376.43,551.584L417.682,551.584" style="fill:none;stroke-width:4px;stroke:rgb(227,200,129);"/>
            </g>
            <g transform="matrix(1,0,0,1,0,138.211)">
                <path d="M376.43,551.584L417.682,551.584" style="fill:none;stroke-width:4px;stroke:rgb(227,200,129);"/>
            </g>
            <g transform="matrix(1,0,0,1,0,414.782)">
                <path d="M376.43,551.584L417.682,551.584" style="fill:none;stroke-width:4px;stroke:rgb(227,200,129);"/>
            </g>
            <g transform="matrix(1,0,0,1,0,230.427)">
                <path d="M376.43,551.584L417.682,551.584" style="fill:none;stroke-width:4px;stroke:rgb(227,200,129);"/>
            </g>
            <g transform="matrix(1,0,0,1,0,23.0844)">
                <path d="M376.43,551.584L417.682,551.584" style="fill:none;stroke-width:4px;stroke:rgb(227,200,129);"/>
            </g>
            <g transform="matrix(1,0,0,1,0,299.655)">
                <path d="M376.43,551.584L417.682,551.584" style="fill:none;stroke-width:4px;stroke:rgb(227,200,129);"/>
            </g>
            <g transform="matrix(1,0,0,1,0,115.273)">
                <path d="M376.43,551.584L417.682,551.584" style="fill:none;stroke-width:4px;stroke:rgb(227,200,129);"/>
            </g>
            <g transform="matrix(1,0,0,1,0,391.843)">
                <path d="M376.43,551.584L417.682,551.584" style="fill:none;stroke-width:4px;stroke:rgb(227,200,129);"/>
            </g>
            <g transform="matrix(1,0,0,1,0,207.488)">
                <path d="M376.43,551.584L417.682,551.584" style="fill:none;stroke-width:4px;stroke:rgb(227,200,129);"/>
            </g>
            <g transform="matrix(1,0,0,1,0,69.1075)">
                <path d="M376.43,551.584L417.682,551.584" style="fill:none;stroke-width:4px;stroke:rgb(227,200,129);"/>
            </g>
            <g transform="matrix(1,0,0,1,0,345.678)">
                <path d="M376.43,551.584L417.682,551.584" style="fill:none;stroke-width:4px;stroke:rgb(227,200,129);"/>
            </g>
            <g transform="matrix(1,0,0,1,0,161.296)">
                <path d="M376.43,551.584L417.682,551.584" style="fill:none;stroke-width:4px;stroke:rgb(227,200,129);"/>
            </g>
            <g transform="matrix(1,0,0,1,0,437.866)">
                <path d="M376.43,551.584L417.682,551.584" style="fill:none;stroke-width:4px;stroke:rgb(227,200,129);"/>
            </g>
            <g transform="matrix(1,0,0,1,0,253.512)">
                <path d="M376.43,551.584L417.682,551.584" style="fill:none;stroke-width:4px;stroke:rgb(227,200,129);"/>
            </g>
            <g transform="matrix(1,0,0,1,0,7.59668)">
                <path d="M376.43,551.584L417.682,551.584" style="fill:none;stroke-width:4px;stroke:rgb(227,200,129);"/>
            </g>
            <g transform="matrix(1,0,0,1,0,284.167)">
                <path d="M376.43,551.584L417.682,551.584" style="fill:none;stroke-width:4px;stroke:rgb(227,200,129);"/>
            </g>
            <g transform="matrix(1,0,0,1,0,99.7848)">
                <path d="M376.43,551.584L417.682,551.584" style="fill:none;stroke-width:4px;stroke:rgb(227,200,129);"/>
            </g>
            <g transform="matrix(1,0,0,1,0,376.356)">
                <path d="M376.43,551.584L417.682,551.584" style="fill:none;stroke-width:4px;stroke:rgb(227,200,129);"/>
            </g>
            <g transform="matrix(1,0,0,1,0,192.001)">
                <path d="M376.43,551.584L417.682,551.584" style="fill:none;stroke-width:4px;stroke:rgb(227,200,129);"/>
            </g>
            <g transform="matrix(1,0,0,1,0,53.6198)">
                <path d="M376.43,551.584L417.682,551.584" style="fill:none;stroke-width:4px;stroke:rgb(227,200,129);"/>
            </g>
            <g transform="matrix(1,0,0,1,0,330.191)">
                <path d="M376.43,551.584L417.682,551.584" style="fill:none;stroke-width:4px;stroke:rgb(227,200,129);"/>
            </g>
            <g transform="matrix(1,0,0,1,0,145.808)">
                <path d="M376.43,551.584L417.682,551.584" style="fill:none;stroke-width:4px;stroke:rgb(227,200,129);"/>
            </g>
            <g transform="matrix(1,0,0,1,0,422.379)">
                <path d="M376.43,551.584L417.682,551.584" style="fill:none;stroke-width:4px;stroke:rgb(227,200,129);"/>
            </g>
            <g transform="matrix(1,0,0,1,0,238.024)">
                <path d="M376.43,551.584L417.682,551.584" style="fill:none;stroke-width:4px;stroke:rgb(227,200,129);"/>
            </g>
            <g transform="matrix(1,0,0,1,0,30.6811)">
                <path d="M376.43,551.584L417.682,551.584" style="fill:none;stroke-width:4px;stroke:rgb(227,200,129);"/>
            </g>
            <g transform="matrix(1,0,0,1,0,307.252)">
                <path d="M376.43,551.584L417.682,551.584" style="fill:none;stroke-width:4px;stroke:rgb(227,200,129);"/>
            </g>
            <g transform="matrix(1,0,0,1,0,122.869)">
                <path d="M376.43,551.584L417.682,551.584" style="fill:none;stroke-width:4px;stroke:rgb(227,200,129);"/>
            </g>
            <g transform="matrix(1,0,0,1,0,399.44)">
                <path d="M376.43,551.584L417.682,551.584" style="fill:none;stroke-width:4px;stroke:rgb(227,200,129);"/>
            </g>
            <g transform="matrix(1,0,0,1,0,215.085)">
                <path d="M376.43,551.584L417.682,551.584" style="fill:none;stroke-width:4px;stroke:rgb(227,200,129);"/>
            </g>
            <g transform="matrix(1,0,0,1,0,76.7042)">
                <path d="M376.43,551.584L417.682,551.584" style="fill:none;stroke-width:4px;stroke:rgb(227,200,129);"/>
            </g>
            <g transform="matrix(1,0,0,1,0,353.275)">
                <path d="M376.43,551.584L417.682,551.584" style="fill:none;stroke-width:4px;stroke:rgb(227,200,129);"/>
            </g>
            <g transform="matrix(1,0,0,1,0,168.892)">
                <path d="M376.43,551.584L417.682,551.584" style="fill:none;stroke-width:4px;stroke:rgb(227,200,129);"/>
            </g>
            <g transform="matrix(1,0,0,1,0,445.463)">
                <path d="M376.43,551.584L417.682,551.584" style="fill:none;stroke-width:4px;stroke:rgb(227,200,129);"/>
            </g>
            <g transform="matrix(1,0,0,1,0,261.108)">
                <path d="M376.43,551.584L417.682,551.584" style="fill:none;stroke-width:4px;stroke:rgb(227,200,129);"/>
            </g>
            <g transform="matrix(1,0,0,1,0,15.5948)">
                <path d="M376.43,551.584L417.682,551.584" style="fill:none;stroke-width:4px;stroke:rgb(227,200,129);"/>
            </g>
            <g transform="matrix(1,0,0,1,0,292.166)">
                <path d="M376.43,551.584L417.682,551.584" style="fill:none;stroke-width:4px;stroke:rgb(227,200,129);"/>
            </g>
            <g transform="matrix(1,0,0,1,0,107.783)">
                <path d="M376.43,551.584L417.682,551.584" style="fill:none;stroke-width:4px;stroke:rgb(227,200,129);"/>
            </g>
            <g transform="matrix(1,0,0,1,0,384.354)">
                <path d="M376.43,551.584L417.682,551.584" style="fill:none;stroke-width:4px;stroke:rgb(227,200,129);"/>
            </g>
            <g transform="matrix(1,0,0,1,0,199.999)">
                <path d="M376.43,551.584L417.682,551.584" style="fill:none;stroke-width:4px;stroke:rgb(227,200,129);"/>
            </g>
            <g transform="matrix(1,0,0,1,0,61.618)">
                <path d="M376.43,551.584L417.682,551.584" style="fill:none;stroke-width:4px;stroke:rgb(227,200,129);"/>
            </g>
            <g transform="matrix(1,0,0,1,0,338.189)">
                <path d="M376.43,551.584L417.682,551.584" style="fill:none;stroke-width:4px;stroke:rgb(227,200,129);"/>
            </g>
            <g transform="matrix(1,0,0,1,0,153.806)">
                <path d="M376.43,551.584L417.682,551.584" style="fill:none;stroke-width:4px;stroke:rgb(227,200,129);"/>
            </g>
            <g transform="matrix(1,0,0,1,0,430.377)">
                <path d="M376.43,551.584L417.682,551.584" style="fill:none;stroke-width:4px;stroke:rgb(227,200,129);"/>
            </g>
            <g transform="matrix(1,0,0,1,0,246.022)">
                <path d="M376.43,551.584L417.682,551.584" style="fill:none;stroke-width:4px;stroke:rgb(227,200,129);"/>
            </g>
            <g transform="matrix(1,0,0,1,0,38.6792)">
                <path d="M376.43,551.584L417.682,551.584" style="fill:none;stroke-width:4px;stroke:rgb(227,200,129);"/>
            </g>
            <g transform="matrix(1,0,0,1,0,315.25)">
                <path d="M376.43,551.584L417.682,551.584" style="fill:none;stroke-width:4px;stroke:rgb(227,200,129);"/>
            </g>
            <g transform="matrix(1,0,0,1,0,130.867)">
                <path d="M376.43,551.584L417.682,551.584" style="fill:none;stroke-width:4px;stroke:rgb(227,200,129);"/>
            </g>
            <g transform="matrix(1,0,0,1,0,407.438)">
                <path d="M376.43,551.584L417.682,551.584" style="fill:none;stroke-width:4px;stroke:rgb(227,200,129);"/>
            </g>
            <g transform="matrix(1,0,0,1,0,223.083)">
                <path d="M376.43,551.584L417.682,551.584" style="fill:none;stroke-width:4px;stroke:rgb(227,200,129);"/>
            </g>
            <g transform="matrix(1,0,0,1,0,84.7024)">
                <path d="M376.43,551.584L417.682,551.584" style="fill:none;stroke-width:4px;stroke:rgb(227,200,129);"/>
            </g>
            <g transform="matrix(1,0,0,1,0,361.273)">
                <path d="M376.43,551.584L417.682,551.584" style="fill:none;stroke-width:4px;stroke:rgb(227,200,129);"/>
            </g>
            <g transform="matrix(1,0,0,1,0,176.89)">
                <path d="M376.43,551.584L417.682,551.584" style="fill:none;stroke-width:4px;stroke:rgb(227,200,129);"/>
            </g>
            <g transform="matrix(1,0,0,1,0,453.461)">
                <path d="M376.43,551.584L417.682,551.584" style="fill:none;stroke-width:4px;stroke:rgb(227,200,129);"/>
            </g>
            <g transform="matrix(1,0,0,1,0,269.106)">
                <path d="M376.43,551.584L417.682,551.584" style="fill:none;stroke-width:4px;stroke:rgb(227,200,129);"/>
            </g>
        </g>
        <g id="pins-silver">
            <path d="M330.731,1008.52L317.083,1008.52" style="fill:none;stroke-width:4px;stroke:rgb(192,194,183);"/>
            <g transform="matrix(1,0,0,1,0,-184.339)">
                <path d="M330.731,1008.52L317.083,1008.52" style="fill:none;stroke-width:4px;stroke:rgb(192,194,183);"/>
            </g>
            <g transform="matrix(1,0,0,1,0,-45.5094)">
                <path d="M330.731,1008.52L317.083,1008.52" style="fill:none;stroke-width:4px;stroke:rgb(192,194,183);"/>
            </g>
            <g transform="matrix(1,0,0,1,0,-229.848)">
                <path d="M330.731,1008.52L317.083,1008.52" style="fill:none;stroke-width:4px;stroke:rgb(192,194,183);"/>
            </g>
            <g transform="matrix(1,0,0,1,0,-91.89)">
                <path d="M330.731,1008.52L317.083,1008.52" style="fill:none;stroke-width:4px;stroke:rgb(192,194,183);"/>
            </g>
            <g transform="matrix(1,0,0,1,0,-276.229)">
                <path d="M330.731,1008.52L317.083,1008.52" style="fill:none;stroke-width:4px;stroke:rgb(192,194,183);"/>
            </g>
            <g transform="matrix(1,0,0,1,0,-137.983)">
                <path d="M330.731,1008.52L317.083,1008.52" style="fill:none;stroke-width:4px;stroke:rgb(192,194,183);"/>
            </g>
            <g transform="matrix(1,0,0,1,0,-322.322)">
                <path d="M330.731,1008.52L317.083,1008.52" style="fill:none;stroke-width:4px;stroke:rgb(192,194,183);"/>
            </g>
            <g transform="matrix(1,0,0,1,0,-384.605)">
                <path d="M330.731,1008.52L317.083,1008.52" style="fill:none;stroke-width:4px;stroke:rgb(192,194,183);"/>
            </g>
            <g transform="matrix(1,0,0,1,0,-15.1302)">
                <path d="M330.731,1008.52L317.083,1008.52" style="fill:none;stroke-width:4px;stroke:rgb(192,194,183);"/>
            </g>
            <g transform="matrix(1,0,0,1,0,-199.469)">
                <path d="M330.731,1008.52L317.083,1008.52" style="fill:none;stroke-width:4px;stroke:rgb(192,194,183);"/>
            </g>
            <g transform="matrix(1,0,0,1,0,-60.6396)">
                <path d="M330.731,1008.52L317.083,1008.52" style="fill:none;stroke-width:4px;stroke:rgb(192,194,183);"/>
            </g>
            <g transform="matrix(1,0,0,1,0,-244.978)">
                <path d="M330.731,1008.52L317.083,1008.52" style="fill:none;stroke-width:4px;stroke:rgb(192,194,183);"/>
            </g>
            <g transform="matrix(1,0,0,1,0,-107.02)">
                <path d="M330.731,1008.52L317.083,1008.52" style="fill:none;stroke-width:4px;stroke:rgb(192,194,183);"/>
            </g>
            <g transform="matrix(1,0,0,1,0,-291.359)">
                <path d="M330.731,1008.52L317.083,1008.52" style="fill:none;stroke-width:4px;stroke:rgb(192,194,183);"/>
            </g>
            <g transform="matrix(1,0,0,1,0,-153.113)">
                <path d="M330.731,1008.52L317.083,1008.52" style="fill:none;stroke-width:4px;stroke:rgb(192,194,183);"/>
            </g>
            <g transform="matrix(1,0,0,1,0,-337.452)">
                <path d="M330.731,1008.52L317.083,1008.52" style="fill:none;stroke-width:4px;stroke:rgb(192,194,183);"/>
            </g>
            <g transform="matrix(1,0,0,1,0,-399.735)">
                <path d="M330.731,1008.52L317.083,1008.52" style="fill:none;stroke-width:4px;stroke:rgb(192,194,183);"/>
            </g>
            <g transform="matrix(1,0,0,1,0,-438.422)">
                <path d="M330.731,1008.52L317.083,1008.52" style="fill:none;stroke-width:4px;stroke:rgb(192,194,183);"/>
            </g>
            <g transform="matrix(1,0,0,1,0,-30.2721)">
                <path d="M330.731,1008.52L317.083,1008.52" style="fill:none;stroke-width:4px;stroke:rgb(192,194,183);"/>
            </g>
            <g transform="matrix(1,0,0,1,0,-214.611)">
                <path d="M330.731,1008.52L317.083,1008.52" style="fill:none;stroke-width:4px;stroke:rgb(192,194,183);"/>
            </g>
            <g transform="matrix(1,0,0,1,0,-75.7815)">
                <path d="M330.731,1008.52L317.083,1008.52" style="fill:none;stroke-width:4px;stroke:rgb(192,194,183);"/>
            </g>
            <g transform="matrix(1,0,0,1,0,-260.12)">
                <path d="M330.731,1008.52L317.083,1008.52" style="fill:none;stroke-width:4px;stroke:rgb(192,194,183);"/>
            </g>
            <g transform="matrix(1,0,0,1,0,-122.162)">
                <path d="M330.731,1008.52L317.083,1008.52" style="fill:none;stroke-width:4px;stroke:rgb(192,194,183);"/>
            </g>
            <g transform="matrix(1,0,0,1,0,-306.501)">
                <path d="M330.731,1008.52L317.083,1008.52" style="fill:none;stroke-width:4px;stroke:rgb(192,194,183);"/>
            </g>
            <g transform="matrix(1,0,0,1,0,-368.784)">
                <path d="M330.731,1008.52L317.083,1008.52" style="fill:none;stroke-width:4px;stroke:rgb(192,194,183);"/>
            </g>
            <g transform="matrix(1,0,0,1,0,-168.255)">
                <path d="M330.731,1008.52L317.083,1008.52" style="fill:none;stroke-width:4px;stroke:rgb(192,194,183);"/>
            </g>
            <g transform="matrix(1,0,0,1,0,-352.594)">
                <path d="M330.731,1008.52L317.083,1008.52" style="fill:none;stroke-width:4px;stroke:rgb(192,194,183);"/>
            </g>
            <g transform="matrix(1,0,0,1,0,-414.877)">
                <path d="M330.731,1008.52L317.083,1008.52" style="fill:none;stroke-width:4px;stroke:rgb(192,194,183);"/>
            </g>
            <g transform="matrix(1,0,0,1,0,-453.564)">
                <path d="M330.731,1008.52L317.083,1008.52" style="fill:none;stroke-width:4px;stroke:rgb(192,194,183);"/>
            </g>
            <g transform="matrix(1,0,0,1,0,-7.50266)">
                <path d="M330.731,1008.52L317.083,1008.52" style="fill:none;stroke-width:4px;stroke:rgb(192,194,183);"/>
            </g>
            <g transform="matrix(1,0,0,1,0,-191.842)">
                <path d="M330.731,1008.52L317.083,1008.52" style="fill:none;stroke-width:4px;stroke:rgb(192,194,183);"/>
            </g>
            <g transform="matrix(1,0,0,1,0,-53.012)">
                <path d="M330.731,1008.52L317.083,1008.52" style="fill:none;stroke-width:4px;stroke:rgb(192,194,183);"/>
            </g>
            <g transform="matrix(1,0,0,1,0,-237.351)">
                <path d="M330.731,1008.52L317.083,1008.52" style="fill:none;stroke-width:4px;stroke:rgb(192,194,183);"/>
            </g>
            <g transform="matrix(1,0,0,1,0,-99.3926)">
                <path d="M330.731,1008.52L317.083,1008.52" style="fill:none;stroke-width:4px;stroke:rgb(192,194,183);"/>
            </g>
            <g transform="matrix(1,0,0,1,0,-283.732)">
                <path d="M330.731,1008.52L317.083,1008.52" style="fill:none;stroke-width:4px;stroke:rgb(192,194,183);"/>
            </g>
            <g transform="matrix(1,0,0,1,0,-145.486)">
                <path d="M330.731,1008.52L317.083,1008.52" style="fill:none;stroke-width:4px;stroke:rgb(192,194,183);"/>
            </g>
            <g transform="matrix(1,0,0,1,0,-329.825)">
                <path d="M330.731,1008.52L317.083,1008.52" style="fill:none;stroke-width:4px;stroke:rgb(192,194,183);"/>
            </g>
            <g transform="matrix(1,0,0,1,0,-392.108)">
                <path d="M330.731,1008.52L317.083,1008.52" style="fill:none;stroke-width:4px;stroke:rgb(192,194,183);"/>
            </g>
            <g transform="matrix(1,0,0,1,0,-430.795)">
                <path d="M330.731,1008.52L317.083,1008.52" style="fill:none;stroke-width:4px;stroke:rgb(192,194,183);"/>
            </g>
            <g transform="matrix(1,0,0,1,0,-22.6329)">
                <path d="M330.731,1008.52L317.083,1008.52" style="fill:none;stroke-width:4px;stroke:rgb(192,194,183);"/>
            </g>
            <g transform="matrix(1,0,0,1,0,-206.972)">
                <path d="M330.731,1008.52L317.083,1008.52" style="fill:none;stroke-width:4px;stroke:rgb(192,194,183);"/>
            </g>
            <g transform="matrix(1,0,0,1,0,-68.1423)">
                <path d="M330.731,1008.52L317.083,1008.52" style="fill:none;stroke-width:4px;stroke:rgb(192,194,183);"/>
            </g>
            <g transform="matrix(1,0,0,1,0,-252.481)">
                <path d="M330.731,1008.52L317.083,1008.52" style="fill:none;stroke-width:4px;stroke:rgb(192,194,183);"/>
            </g>
            <g transform="matrix(1,0,0,1,0,-114.523)">
                <path d="M330.731,1008.52L317.083,1008.52" style="fill:none;stroke-width:4px;stroke:rgb(192,194,183);"/>
            </g>
            <g transform="matrix(1,0,0,1,0,-298.862)">
                <path d="M330.731,1008.52L317.083,1008.52" style="fill:none;stroke-width:4px;stroke:rgb(192,194,183);"/>
            </g>
            <g transform="matrix(1,0,0,1,0,-160.616)">
                <path d="M330.731,1008.52L317.083,1008.52" style="fill:none;stroke-width:4px;stroke:rgb(192,194,183);"/>
            </g>
            <g transform="matrix(1,0,0,1,0,-344.955)">
                <path d="M330.731,1008.52L317.083,1008.52" style="fill:none;stroke-width:4px;stroke:rgb(192,194,183);"/>
            </g>
            <g transform="matrix(1,0,0,1,0,-407.238)">
                <path d="M330.731,1008.52L317.083,1008.52" style="fill:none;stroke-width:4px;stroke:rgb(192,194,183);"/>
            </g>
            <g transform="matrix(1,0,0,1,0,-445.925)">
                <path d="M330.731,1008.52L317.083,1008.52" style="fill:none;stroke-width:4px;stroke:rgb(192,194,183);"/>
            </g>
            <g transform="matrix(1,0,0,1,0,-37.7748)">
                <path d="M330.731,1008.52L317.083,1008.52" style="fill:none;stroke-width:4px;stroke:rgb(192,194,183);"/>
            </g>
            <g transform="matrix(1,0,0,1,0,-222.114)">
                <path d="M330.731,1008.52L317.083,1008.52" style="fill:none;stroke-width:4px;stroke:rgb(192,194,183);"/>
            </g>
            <g transform="matrix(1,0,0,1,0,-83.2841)">
                <path d="M330.731,1008.52L317.083,1008.52" style="fill:none;stroke-width:4px;stroke:rgb(192,194,183);"/>
            </g>
            <g transform="matrix(1,0,0,1,0,-267.623)">
                <path d="M330.731,1008.52L317.083,1008.52" style="fill:none;stroke-width:4px;stroke:rgb(192,194,183);"/>
            </g>
            <g transform="matrix(1,0,0,1,0,-129.665)">
                <path d="M330.731,1008.52L317.083,1008.52" style="fill:none;stroke-width:4px;stroke:rgb(192,194,183);"/>
            </g>
            <g transform="matrix(1,0,0,1,0,-314.004)">
                <path d="M330.731,1008.52L317.083,1008.52" style="fill:none;stroke-width:4px;stroke:rgb(192,194,183);"/>
            </g>
            <g transform="matrix(1,0,0,1,0,-376.287)">
                <path d="M330.731,1008.52L317.083,1008.52" style="fill:none;stroke-width:4px;stroke:rgb(192,194,183);"/>
            </g>
            <g transform="matrix(1,0,0,1,0,-175.758)">
                <path d="M330.731,1008.52L317.083,1008.52" style="fill:none;stroke-width:4px;stroke:rgb(192,194,183);"/>
            </g>
            <g transform="matrix(1,0,0,1,0,-360.097)">
                <path d="M330.731,1008.52L317.083,1008.52" style="fill:none;stroke-width:4px;stroke:rgb(192,194,183);"/>
            </g>
            <g transform="matrix(1,0,0,1,0,-422.38)">
                <path d="M330.731,1008.52L317.083,1008.52" style="fill:none;stroke-width:4px;stroke:rgb(192,194,183);"/>
            </g>
            <g transform="matrix(1,0,0,1,0,-461.067)">
                <path d="M330.731,1008.52L317.083,1008.52" style="fill:none;stroke-width:4px;stroke:rgb(192,194,183);"/>
            </g>
            <g transform="matrix(1,0,0,1,0,-501.282)">
                <path d="M330.731,1008.52L317.083,1008.52" style="fill:none;stroke-width:4px;stroke:rgb(192,194,183);"/>
            </g>
        </g>
        <path d="M314.714,455.759L314.714,482.679L326.928,482.679L326.928,1039.48L314.714,1039.48L314.714,1066.79L405.609,1066.79L405.609,1059.25C405.609,1059.25 380.448,1059.64 380.448,1059.25C380.448,1058.86 380.448,463.64 380.448,463.64L405.609,463.64L405.609,455.759L314.714,455.759" style="fill:rgb(239,232,213);stroke-width:2px;stroke:rgb(231,220,190);"/>
    </g>
    <g transform="matrix(1,-2.22045e-16,2.22045e-16,1,874.895,-663.327)">
        <path d="M213.624,864.262L215.659,864.262C216.817,864.262 217.577,864.307 217.938,864.398C218.3,864.488 218.633,864.651 218.936,864.886C219.239,865.121 219.476,865.415 219.648,865.768C219.82,866.121 219.906,866.519 219.906,866.962C219.906,867.405 219.822,867.803 219.655,868.156C219.487,868.509 219.248,868.801 218.936,869.031C218.624,869.262 218.241,869.425 217.789,869.52C217.337,869.615 216.536,869.662 215.387,869.662L214.79,869.662L214.79,874.194L213.624,874.194L213.624,864.262ZM214.79,868.536L216.337,868.536C217.251,868.554 217.873,868.409 218.203,868.102C218.533,867.794 218.698,867.41 218.698,866.949C218.698,865.917 217.938,865.402 216.419,865.402L214.79,865.402L214.79,868.536Z" style="fill:white;fill-rule:nonzero;"/>
        <path d="M226.405,864.018C227.373,864.018 228.264,864.246 229.078,864.703C229.892,865.16 230.532,865.791 230.998,866.596C231.464,867.401 231.697,868.276 231.697,869.221C231.697,870.167 231.466,871.042 231.005,871.847C230.543,872.652 229.91,873.285 229.105,873.746C228.3,874.208 227.425,874.438 226.48,874.438C225.534,874.438 224.655,874.21 223.841,873.753C223.026,873.296 222.389,872.668 221.927,871.867C221.466,871.067 221.235,870.194 221.235,869.248C221.235,868.303 221.466,867.426 221.927,866.616C222.389,865.807 223.02,865.171 223.82,864.71C224.621,864.248 225.482,864.018 226.405,864.018ZM226.446,873.299C227.576,873.299 228.533,872.914 229.315,872.145C230.098,871.376 230.489,870.413 230.489,869.255C230.489,868.097 230.093,867.125 229.302,866.338C228.51,865.551 227.558,865.158 226.446,865.158C225.306,865.158 224.354,865.553 223.59,866.345C222.825,867.136 222.443,868.1 222.443,869.235C222.443,870.37 222.837,871.331 223.623,872.118C224.41,872.905 225.351,873.299 226.446,873.299Z" style="fill:white;fill-rule:nonzero;"/>
        <path d="M239.241,865.415L234.627,865.415L234.627,868.265L239.2,868.265L239.2,869.404L234.627,869.404L234.627,873.041L239.2,873.041L239.2,874.194L233.461,874.194L233.461,864.262L239.241,864.262L239.241,865.415Z" style="fill:white;fill-rule:nonzero;"/>
        <path d="M206.493,877.101L208.529,877.101C209.686,877.101 210.446,877.146 210.808,877.236C211.17,877.327 211.502,877.49 211.805,877.725C212.108,877.96 212.346,878.254 212.518,878.607C212.69,878.96 212.776,879.358 212.776,879.801C212.776,880.244 212.692,880.642 212.525,880.995C212.357,881.348 212.117,881.639 211.805,881.87C211.493,882.101 211.111,882.264 210.659,882.359C210.207,882.454 209.406,882.501 208.257,882.501L207.66,882.501L207.66,887.033L206.493,887.033L206.493,877.101ZM207.66,881.375L209.207,881.375C210.121,881.393 210.743,881.248 211.073,880.941C211.403,880.633 211.568,880.249 211.568,879.787C211.568,878.756 210.808,878.241 209.288,878.241L207.66,878.241L207.66,881.375Z" style="fill:white;fill-rule:nonzero;"/>
        <path d="M219.275,876.857C220.243,876.857 221.134,877.085 221.948,877.542C222.762,877.999 223.402,878.63 223.868,879.435C224.334,880.24 224.566,881.115 224.566,882.06C224.566,883.005 224.336,883.88 223.875,884.686C223.413,885.491 222.78,886.124 221.975,886.585C221.17,887.046 220.295,887.277 219.349,887.277C218.404,887.277 217.525,887.049 216.71,886.592C215.896,886.135 215.259,885.506 214.797,884.706C214.336,883.905 214.105,883.032 214.105,882.087C214.105,881.142 214.336,880.265 214.797,879.455C215.259,878.645 215.89,878.01 216.69,877.549C217.491,877.087 218.352,876.857 219.275,876.857ZM219.316,886.137C220.446,886.137 221.403,885.753 222.185,884.984C222.968,884.215 223.359,883.252 223.359,882.094C223.359,880.936 222.963,879.964 222.172,879.177C221.38,878.39 220.428,877.996 219.316,877.996C218.176,877.996 217.224,878.392 216.459,879.184C215.695,879.975 215.313,880.938 215.313,882.074C215.313,883.209 215.706,884.17 216.493,884.957C217.28,885.744 218.221,886.137 219.316,886.137Z" style="fill:white;fill-rule:nonzero;"/>
        <path d="M232.911,887.033L231.446,887.033L227.945,882.501L227.538,882.501L227.538,887.033L226.371,887.033L226.371,877.101L228.406,877.101C229.492,877.101 230.238,877.148 230.645,877.243C231.052,877.338 231.405,877.499 231.703,877.725C232.002,877.951 232.237,878.243 232.409,878.6C232.581,878.957 232.667,879.353 232.667,879.787C232.667,880.61 232.386,881.269 231.826,881.762C231.265,882.255 230.455,882.501 229.397,882.501L232.911,887.033ZM227.538,881.361L229.125,881.361C229.921,881.37 230.509,881.25 230.889,881.002C231.269,880.753 231.459,880.355 231.459,879.808C231.459,879.26 231.274,878.862 230.903,878.614C230.532,878.365 229.953,878.241 229.166,878.241L227.538,878.241L227.538,881.361Z" style="fill:white;fill-rule:nonzero;"/>
        <path d="M239.125,878.241L236.954,878.241L236.954,887.033L235.774,887.033L235.774,878.241L233.589,878.241L233.589,877.101L239.125,877.101L239.125,878.241Z" style="fill:white;fill-rule:nonzero;"/>
        <path d="M243.766,887.033L242.612,887.033L242.612,878.241L240.998,878.241L241.703,877.101L243.766,877.101L243.766,887.033Z" style="fill:white;fill-rule:nonzero;"/>
    </g>
    <g transform="matrix(1,-2.22045e-16,2.22045e-16,1,904.657,-199.862)">
        <path d="M217.348,866.447C216.986,865.958 216.679,865.63 216.425,865.463C216.172,865.295 215.876,865.212 215.537,865.212C215.198,865.212 214.913,865.32 214.682,865.537C214.451,865.755 214.336,866.033 214.336,866.372C214.336,866.711 214.444,867.007 214.662,867.261C214.879,867.514 215.378,867.928 216.161,868.502C216.943,869.077 217.515,869.617 217.877,870.124C218.239,870.63 218.42,871.164 218.42,871.725C218.42,872.457 218.137,873.093 217.572,873.631C217.007,874.169 216.349,874.438 215.598,874.438C214.277,874.438 213.241,873.701 212.491,872.227L213.481,871.657C214.069,872.751 214.729,873.299 215.462,873.299C215.932,873.299 216.335,873.149 216.67,872.851C217.004,872.552 217.172,872.204 217.172,871.806C217.172,871.408 217.032,871.03 216.751,870.673C216.471,870.316 215.987,869.877 215.299,869.357C214.612,868.837 214.139,868.441 213.881,868.17C213.624,867.898 213.436,867.609 213.318,867.301C213.201,866.994 213.142,866.686 213.142,866.379C213.142,865.718 213.37,865.16 213.827,864.703C214.284,864.246 214.874,864.018 215.598,864.018C216.159,864.018 216.647,864.16 217.063,864.445C217.479,864.73 217.886,865.153 218.284,865.714L217.348,866.447Z" style="fill:white;fill-rule:nonzero;"/>
        <path d="M231.717,864.262L228.868,874.438L228.528,874.438L225.706,867.016L222.83,874.438L222.504,874.438L219.709,864.262L220.917,864.262L222.83,871.29L225.543,864.262L225.869,864.262L228.556,871.304L230.509,864.262L231.717,864.262Z" style="fill:white;fill-rule:nonzero;"/>
        <path d="M238.99,865.375L235.503,865.375L235.055,867.803C235.444,867.704 235.81,867.654 236.154,867.654C237.031,867.654 237.764,867.964 238.352,868.584C238.94,869.203 239.234,869.992 239.234,870.951C239.234,871.91 238.917,872.731 238.284,873.414C237.651,874.097 236.805,874.438 235.747,874.438C234.933,874.438 234.245,874.19 233.684,873.692C233.124,873.195 232.784,872.512 232.667,871.643L233.847,871.643C233.965,872.186 234.205,872.602 234.566,872.892C234.928,873.181 235.34,873.326 235.801,873.326C236.416,873.326 236.945,873.093 237.389,872.627C237.832,872.161 238.053,871.584 238.053,870.897C238.053,870.282 237.861,869.775 237.477,869.377C237.092,868.979 236.575,868.78 235.923,868.78C235.272,868.78 234.512,868.966 233.644,869.337L234.594,864.262L238.99,864.262L238.99,865.375Z" style="fill:white;fill-rule:nonzero;"/>
    </g>
    <g transform="matrix(1,-2.22045e-16,2.22045e-16,1,429.607,-710.4)">
        <path d="M217.348,866.447C216.986,865.958 216.679,865.63 216.425,865.463C216.172,865.295 215.876,865.212 215.537,865.212C215.198,865.212 214.913,865.32 214.682,865.537C214.451,865.755 214.336,866.033 214.336,866.372C214.336,866.711 214.444,867.007 214.662,867.261C214.879,867.514 215.378,867.928 216.161,868.502C216.943,869.077 217.515,869.617 217.877,870.124C218.239,870.63 218.42,871.164 218.42,871.725C218.42,872.457 218.137,873.093 217.572,873.631C217.007,874.169 216.349,874.438 215.598,874.438C214.277,874.438 213.241,873.701 212.491,872.227L213.481,871.657C214.069,872.751 214.729,873.299 215.462,873.299C215.932,873.299 216.335,873.149 216.67,872.851C217.004,872.552 217.172,872.204 217.172,871.806C217.172,871.408 217.032,871.03 216.751,870.673C216.471,870.316 215.987,869.877 215.299,869.357C214.612,868.837 214.139,868.441 213.881,868.17C213.624,867.898 213.436,867.609 213.318,867.301C213.201,866.994 213.142,866.686 213.142,866.379C213.142,865.718 213.37,865.16 213.827,864.703C214.284,864.246 214.874,864.018 215.598,864.018C216.159,864.018 216.647,864.16 217.063,864.445C217.479,864.73 217.886,865.153 218.284,865.714L217.348,866.447Z" style="fill:white;fill-rule:nonzero;"/>
        <path d="M231.717,864.262L228.868,874.438L228.528,874.438L225.706,867.016L222.83,874.438L222.504,874.438L219.709,864.262L220.917,864.262L222.83,871.29L225.543,864.262L225.869,864.262L228.556,871.304L230.509,864.262L231.717,864.262Z" style="fill:white;fill-rule:nonzero;"/>
        <path d="M239.465,871.928L238.284,871.928L238.284,874.194L237.131,874.194L237.131,871.928L232.368,871.928L237.945,864.018L238.284,864.018L238.284,870.802L239.465,870.802L239.465,871.928ZM237.131,870.802L237.131,867.139L234.539,870.802L237.131,870.802Z" style="fill:white;fill-rule:nonzero;"/>
    </g>
    <g>
        <g transform="matrix(1,0,0,1,-1.25538,-0.84088)">
            <circle cx="1091.68" cy="643.189" r="8.105" style="fill:rgb(234,236,228);stroke-width:0.65px;stroke:rgb(197,177,114);"/>
        </g>
        <g transform="matrix(1,0,0,1,-1.25538,-66.6282)">
            <circle cx="1091.68" cy="643.189" r="8.105" style="fill:rgb(234,236,228);stroke-width:0.65px;stroke:rgb(197,177,114);"/>
        </g>
        <rect x="1071.35" y="562.229" width="56.163" height="93.667" style="fill:none;stroke-width:2px;stroke-linecap:square;stroke-linejoin:miter;stroke:white;"/>
        <path d="M1138.21,594.473L1145.03,594.473L1147.06,596.989L1147.06,624.515L1145.03,626.656L1139.9,626.656L1138.21,594.473Z" style="fill:rgb(38,38,38);stroke-width:1px;stroke-linecap:square;stroke-linejoin:miter;stroke:rgb(26,26,26);"/>
        <rect x="1103.5" y="583.6" width="39.609" height="56.129" style="fill:rgb(38,38,38);stroke-width:1px;stroke-linecap:square;stroke-linejoin:miter;stroke:rgb(26,26,26);"/>
        <path d="M1077.68,575.871L1133.85,575.871C1137.44,575.871 1138.34,576.748 1138.34,581.274L1138.34,637.529C1138.34,643.241 1138.37,643.75 1133.85,643.75L1077.68,643.75" style="fill:none;stroke-width:3px;stroke:rgb(146,147,142);"/>
        <g transform="matrix(0.369593,0,0,0.35678,966.418,485.113)">
            <rect x="381.477" y="287.99" width="11.716" height="12.521" style="fill:rgb(193,173,112);stroke-width:2.75px;stroke-linecap:square;stroke-linejoin:miter;stroke:rgb(91,73,37);"/>
        </g>
        <g transform="matrix(0.369593,0,0,0.35678,966.418,527.897)">
            <rect x="381.477" y="287.99" width="11.716" height="12.521" style="fill:rgb(193,173,112);stroke-width:2.75px;stroke-linecap:square;stroke-linejoin:miter;stroke:rgb(91,73,37);"/>
        </g>
    </g>
    <g transform="matrix(-1.60812e-16,-1,1,-1.60812e-16,70.2677,1221.3)">
        <g transform="matrix(1,0,0,1,-1.25538,-0.84088)">
            <circle cx="1091.68" cy="643.189" r="8.105" style="fill:rgb(234,236,228);stroke-width:0.65px;stroke:rgb(197,177,114);"/>
        </g>
        <g transform="matrix(1,0,0,1,-1.25538,-66.6282)">
            <circle cx="1091.68" cy="643.189" r="8.105" style="fill:rgb(234,236,228);stroke-width:0.65px;stroke:rgb(197,177,114);"/>
        </g>
        <rect x="1071.35" y="562.229" width="56.163" height="93.667" style="fill:none;stroke-width:2px;stroke-linecap:square;stroke-linejoin:miter;stroke:white;"/>
        <path d="M1138.21,594.473L1145.03,594.473L1147.06,596.989L1147.06,624.515L1145.03,626.656L1139.9,626.656L1138.21,594.473Z" style="fill:rgb(38,38,38);stroke-width:1px;stroke-linecap:square;stroke-linejoin:miter;stroke:rgb(26,26,26);"/>
        <rect x="1103.5" y="583.6" width="39.609" height="56.129" style="fill:rgb(38,38,38);stroke-width:1px;stroke-linecap:square;stroke-linejoin:miter;stroke:rgb(26,26,26);"/>
        <path d="M1077.68,575.871L1133.85,575.871C1137.44,575.871 1138.34,576.748 1138.34,581.274L1138.34,637.529C1138.34,643.241 1138.37,643.75 1133.85,643.75L1077.68,643.75" style="fill:none;stroke-width:3px;stroke:rgb(146,147,142);"/>
        <g transform="matrix(0.369593,0,0,0.35678,966.418,485.113)">
            <rect x="381.477" y="287.99" width="11.716" height="12.521" style="fill:rgb(193,173,112);stroke-width:2.75px;stroke-linecap:square;stroke-linejoin:miter;stroke:rgb(91,73,37);"/>
        </g>
        <g transform="matrix(0.369593,0,0,0.35678,966.418,527.897)">
            <rect x="381.477" y="287.99" width="11.716" height="12.521" style="fill:rgb(193,173,112);stroke-width:2.75px;stroke-linecap:square;stroke-linejoin:miter;stroke:rgb(91,73,37);"/>
        </g>
    </g>
    <g id="Lan">
        <g transform="matrix(0.53101,0,0,0.576754,955.662,-505.542)">
            <ellipse cx="212.159" cy="1065.02" rx="22.216" ry="19.948" style="fill:rgb(148,144,107);stroke-width:5.41px;stroke-linecap:butt;stroke:rgb(225,197,113);"/>
        </g>
        <g transform="matrix(0.53101,0,0,0.576754,807.439,-505.542)">
            <ellipse cx="212.159" cy="1065.02" rx="22.216" ry="19.948" style="fill:rgb(141,139,118);stroke-width:5.41px;stroke-linecap:butt;stroke:rgb(225,197,113);"/>
        </g>
        <g transform="matrix(0.53101,0,0,0.576754,807.439,-445.828)">
            <ellipse cx="212.159" cy="1065.02" rx="22.216" ry="19.948" style="fill:white;stroke-width:5.41px;stroke-linecap:butt;stroke:rgb(225,197,113);"/>
        </g>
        <g transform="matrix(0.53101,0,0,0.576754,954.234,-445.828)">
            <ellipse cx="212.159" cy="1065.02" rx="22.216" ry="19.948" style="fill:white;stroke-width:5.41px;stroke-linecap:butt;stroke:rgb(225,197,113);"/>
        </g>
        <rect x="920.586" y="56.514" width="142.473" height="180.809" style="fill:rgb(170,168,152);stroke-width:2px;stroke-linecap:square;stroke-linejoin:miter;stroke:rgb(146,140,112);"/>
        <path d="M964.555,56.589L964.555,90.145C964.555,93.973 971.778,94.033 971.778,90.145L1009.27,90.145C1009.27,94.719 1016.19,94.604 1016.19,90.145L1016.19,56.589L964.555,56.589Z" style="fill:rgb(63,60,55);stroke-width:2px;stroke-linecap:square;stroke-linejoin:miter;stroke:rgb(146,140,112);"/>
        <rect x="972.51" y="56.498" width="35.515" height="30.037" style="fill:rgb(243,241,220);stroke-width:2px;stroke-linecap:square;stroke-linejoin:miter;stroke:rgb(146,140,112);"/>
    </g>
    <rect x="1101.83" y="416.098" width="15.765" height="9.488" style="fill:rgb(170,168,153);"/>
    <g transform="matrix(1,0,0,1,0,120.333)">
        <rect x="1101.83" y="416.098" width="15.765" height="9.488" style="fill:rgb(170,168,153);"/>
    </g>
    <g id="chip">
        <path d="M848.058,300.212L848.058,261.689L1099.39,261.689L1099.39,363.823L848.058,363.823L848.058,325.709L877.675,325.709L877.675,300.212L848.058,300.212Z" style="fill:none;stroke-width:1px;stroke-linecap:butt;stroke:white;"/>
        <rect x="853.479" y="267.613" width="240.977" height="92.897" style="fill:black;stroke-width:2.5px;stroke:rgb(26,26,26);"/>
    </g>
    <g>
        <rect x="1089.88" y="425.846" width="45.868" height="109.595" style="fill:rgb(50,51,51);stroke-width:3px;stroke-linecap:butt;stroke:rgb(146,140,112);"/>
        <path d="M1132.38,451.674C1132.38,440.229 1123.08,430.937 1111.64,430.937C1100.19,430.937 1090.9,440.229 1090.9,451.674L1090.9,510.739C1090.9,522.183 1100.19,531.475 1111.64,531.475C1123.08,531.475 1132.38,522.183 1132.38,510.739L1132.38,451.674Z" style="fill:rgb(152,146,122);stroke-width:4.5px;stroke-linecap:butt;stroke:rgb(167,158,119);"/>
    </g>
</svg>
