<?xml version="1.0" standalone="no"?>
<!DOCTYPE svg PUBLIC "-//W3C//DTD SVG 1.1//EN" "http://www.w3.org/Graphics/SVG/1.1/DTD/svg11.dtd">
<svg width="100%" height="100%" viewBox="0 0 1280 1150" version="1.1" xmlns="http://www.w3.org/2000/svg" xmlns:xlink="http://www.w3.org/1999/xlink" xml:space="preserve" style="fill-rule:evenodd;clip-rule:evenodd;stroke-linecap:round;stroke-linejoin:round;stroke-miterlimit:1.41421;">
    <g id="Nanostation">
        <g id="mast-schiene">
            <path d="M431.327,976.213L447.519,973.399L497.939,910.183L497.939,895.762L431.327,895.762L431.327,976.213Z" style="fill:rgb(252,252,252);stroke-width:3px;stroke:black;"/>
            <g transform="matrix(-1,0,0,1,1184.29,0)">
                <path d="M431.327,976.213L447.519,973.399L497.939,910.183L497.939,895.762L431.327,895.762L431.327,976.213Z" style="fill:rgb(252,252,252);stroke-width:3px;stroke:black;"/>
            </g>
            <path d="M431.331,976.122C431.304,983.251 444.974,983.577 450.218,976.122C526.872,857.315 666.41,866.452 734.751,976.122C734.793,976.16 734.852,976.185 734.875,976.235C738.256,983.52 751.752,983.704 752.963,976.122C681.851,832.818 496.3,841.711 431.331,976.122Z" style="fill:rgb(191,191,191);stroke-width:3px;stroke:black;"/>
        </g>
        <path d="M933.149,560.58L940.556,597.998L940.556,702.289L906.065,824.446L840.709,881.808L762.36,900.324L414.957,900.324L337.316,881.808L281.764,824.446L244.691,702.289L244.691,597.998L251.534,560.58L933.149,560.58Z" style="fill:rgb(252,252,252);stroke-width:2px;stroke-linecap:square;stroke:black;"/>
        <g id="frontgrauseite">
            <g transform="matrix(1,0,0,1.09976,0,-83.3975)">
                <rect x="762.861" y="845.871" width="27.502" height="14.432" style="fill:rgb(191,191,191);stroke-width:1.9px;stroke:black;"/>
            </g>
            <g transform="matrix(1,0,0,1.09976,-374.025,-83.3975)">
                <rect x="762.861" y="845.871" width="27.502" height="14.432" style="fill:rgb(191,191,191);stroke-width:1.9px;stroke:black;"/>
            </g>
            <path d="M513.784,863.958L513.784,830.604C513.784,826.316 516.856,824.343 521.513,824.343L663.75,824.343C667.618,824.343 671.719,825.868 671.719,830.604L671.719,864.586L671.719,820.629C671.719,816.854 669.542,812.797 663.75,812.797L622.847,812.797L622.847,800.639L545.033,800.639L545.033,812.797L521.513,812.797C516.736,812.797 513.784,814.822 513.784,820.629L513.784,863.958Z" style="fill:rgb(191,191,191);stroke-width:2px;stroke:black;"/>
        </g>
        <g id="leisteSoMiddich">
            <g>
                <path d="M771.111,824.145L762.851,843.128" style="fill:none;stroke-width:2px;stroke:black;"/>
                <g transform="matrix(1,0,0,1,-0.886824,0)">
                    <path d="M771.111,751.454L771.111,822.381" style="fill:none;stroke-width:4px;stroke-linecap:square;stroke:black;"/>
                </g>
            </g>
            <g transform="matrix(-1,0,0,1,1205.86,0)">
                <path d="M771.111,824.145L762.148,843.167L762.148,856.535" style="fill:none;stroke-width:2px;stroke:black;"/>
                <g transform="matrix(1,0,0,1,-0.886824,0)">
                    <path d="M771.111,751.454L771.111,822.381" style="fill:none;stroke-width:4px;stroke-linecap:square;stroke:black;"/>
                </g>
            </g>
        </g>
        <g id="Bohrung">
            <path d="M651.324,846.993C651.324,843.188 648.235,840.098 644.429,840.098L537.755,840.098C533.95,840.098 530.861,843.188 530.861,846.993L530.861,860.782C530.861,864.587 533.95,867.676 537.755,867.676L644.429,867.676C648.235,867.676 651.324,864.587 651.324,860.782L651.324,846.993Z" style="fill:rgb(191,191,191);stroke-width:2px;stroke:black;"/>
            <g transform="matrix(1,0,0,0.660052,-0.00345923,294.969)">
                <path d="M651.324,849.985C651.324,844.529 648.4,840.098 644.798,840.098L537.387,840.098C533.785,840.098 530.861,844.529 530.861,849.985L530.861,857.789C530.861,863.246 533.785,867.676 537.387,867.676L644.798,867.676C648.4,867.676 651.324,863.246 651.324,857.789L651.324,849.985Z" style="fill:rgb(252,252,252);stroke-width:2.36px;stroke:black;"/>
            </g>
        </g>
        <g id="Lan nubsi">
            <g transform="matrix(1,0,0,1,0,-13.8426)">
                <path d="M671.715,882.459L731.84,882.459L731.84,849.188L726.371,849.188C710.274,866.137 694.27,866.436 678.363,849.188L671.715,849.188L671.715,882.459Z" style="fill:rgb(252,252,252);stroke-width:2px;stroke:black;"/>
            </g>
            <path d="M671.715,882.459L731.84,882.459L731.84,849.188L726.371,849.188C710.598,864.406 694.642,864.632 678.363,849.188L671.715,849.188L671.715,882.459Z" style="fill:rgb(252,252,252);stroke-width:2px;stroke:black;"/>
            <g transform="matrix(1.05274,0,0,1.01643,-35.9721,-14.1581)">
                <rect x="672.229" y="835.771" width="5.886" height="13.607" style="fill:rgb(252,252,252);stroke-width:1.93px;stroke:black;"/>
            </g>
            <g transform="matrix(0.915241,0,0,1.01643,111.277,-14.1581)">
                <rect x="672.229" y="835.771" width="5.886" height="13.607" style="fill:rgb(252,252,252);stroke-width:2.07px;stroke:black;"/>
            </g>
        </g>
        <path d="M768.759,750.784L402.592,750.784C324.084,750.784 284.787,691.757 284.787,568.522L897.513,568.522C897.513,664.074 865.43,750.784 768.759,750.784Z" style="fill:rgb(252,252,252);stroke-width:3px;stroke:black;"/>
        <g>
            <path d="M890.763,568.202L890.763,610.638L907.805,610.638L907.805,697.613C901.013,793.267 857.843,844.751 790.401,857.096L790.401,843.013L762.846,843.013L762.846,862.445L731.926,862.445L731.926,875.917L762.846,875.917L762.846,846.837L790.401,846.837L790.401,875.917C878.263,857.991 921.282,797.674 922.258,697.613L922.258,622.455L915.287,568.202L890.763,568.202Z" style="fill:rgb(252,252,252);stroke-width:2px;stroke:black;"/>
            <g transform="matrix(-1,0,0,1,1179.24,0)">
                <path d="M890.763,568.061L890.763,610.638L907.805,610.638L907.805,697.613C901.013,793.267 857.843,844.148 790.401,856.493L790.401,843.013L762.846,843.013L762.846,856.493L735.528,856.493L735.528,864.135L665.46,864.135L665.46,875.917L762.846,875.917L762.846,846.785L790.401,846.785L790.401,875.917C878.263,857.991 921.282,797.674 922.258,697.613L922.258,622.455L915.287,568.061L890.763,568.061Z" style="fill:rgb(252,252,252);stroke-width:2px;stroke:black;"/>
            </g>
        </g>
        <path d="M875.724,172.244L945.44,594.279L945.44,660.392C948.185,803.411 902.387,902.699 750.339,906.272L435.017,906.272C285.447,908.774 237.584,808.094 236.07,660.392L236.07,594.279L309.721,172.244C311.849,163.161 316.893,159.342 324.189,159.587L251.843,594.279L251.843,686.365C259.458,800.091 299.527,876.784 400.895,891.466C407.411,892.409 423.614,893 435.017,892.833L750.339,892.833C759.346,892.884 768.5,892.82 777.588,891.466C888.784,879.147 927.633,798.326 929.774,686.365L929.774,594.279L860.848,159.587C869.077,159.381 874.627,162.799 875.724,172.244Z" style="fill:rgb(252,252,252);stroke-width:3px;stroke:black;"/>
        <g id="öse">
            <path d="M566.562,572.217L564.763,582.362L602.339,582.362L601.041,572.217L566.562,572.217Z" style="fill:rgb(252,252,252);stroke-width:1px;stroke:black;"/>
            <g transform="matrix(1,0,0,0.99987,-1.13687e-13,0.0799267)">
                <path d="M564.763,616.716L570.181,616.716L570.181,596.276L596.762,596.276L596.762,616.716L602.336,616.716L602.336,582.35L564.763,582.35L564.763,616.716Z" style="fill:rgb(191,191,191);stroke-width:1px;stroke:black;"/>
            </g>
        </g>
        <g transform="matrix(1,0,0,1.04415,0,-35.3583)">
            <path d="M545.067,800.793L622.916,800.793L622.357,753.273L545.505,753.273L545.067,800.793Z" style="fill:rgb(252,252,252);stroke-width:1.96px;stroke:black;"/>
        </g>
        <g id="Bohrnubsi">
            <path d="M565.218,779.477C582.175,786.509 599.03,786.662 615.778,779.477L616.312,732.12L565.218,732.12L565.218,779.477Z" style="fill:rgb(252,252,252);stroke-width:2px;stroke:black;"/>
            <g>
                <ellipse cx="590.754" cy="732.176" rx="25.573" ry="6.878" style="fill:rgb(252,252,252);stroke-width:2px;stroke:black;"/>
                <g transform="matrix(1,0,0,1,-0.545573,0.194525)">
                    <ellipse cx="591.962" cy="731.945" rx="13.862" ry="2.151" style="fill:rgb(51,51,51);stroke-width:2px;stroke:rgb(51,51,51);"/>
                </g>
            </g>
            <path d="M586.343,745.933L596.558,745.933L596.558,754.83L586.343,754.83L586.343,745.933L586.343,792.884L596.558,792.884L596.558,754.83L586.343,754.83" style="fill:rgb(252,252,252);stroke-width:2px;stroke:black;"/>
        </g>
        <g>
            <path d="M886.805,618.525L908.106,618.525L908.106,608.731L892.501,608.731L892.501,569.242L886.805,569.242L886.805,618.525Z" style="fill:rgb(252,252,252);stroke-width:2px;stroke:black;"/>
            <g transform="matrix(-1,0,0,1,1179.56,0)">
                <path d="M886.805,618.525L908.106,618.525L908.106,608.731L892.501,608.731L892.501,569.242L886.805,569.242L886.805,618.525Z" style="fill:rgb(252,252,252);stroke-width:2px;stroke:black;"/>
            </g>
            <path d="M892.475,597.431L886.899,597.431" style="fill:none;stroke-width:2px;stroke-linecap:square;stroke:black;"/>
            <g transform="matrix(4.1736,0,0,1,-3418.52,0)">
                <path d="M889.178,597.431L887.89,597.431" style="fill:none;stroke-width:0.66px;stroke-linecap:square;stroke:black;"/>
            </g>
        </g>
        <g id="Deckel">
            <path d="M324.237,159.551L260.193,556.09L260.193,568.512L921.777,568.512L921.777,554.07L860.84,159.551L324.237,159.551Z" style="fill:rgb(252,252,252);stroke-width:3px;stroke:black;"/>
        </g>
    </g>
    <g transform="matrix(1,0,0,1,0,-0.217305)">
        <path d="M260.948,557.73L921.554,557.73" style="fill:none;stroke-width:3px;stroke:black;"/>
    </g>
    <g id="bedienteile">
        <g id="Lan MAIN" transform="matrix(1.48104,0,0,1.48104,-8.21937,-788.593)">
            <g transform="matrix(1,0,0,0.875709,1.24345e-14,128.701)">
                <path d="M430.126,958.534L520.049,958.534L520.049,1035.48L430.126,1035.48L430.126,958.534" style="fill:rgb(204,204,204);stroke-width:0.72px;stroke:black;"/>
            </g>
            <path d="M455.182,962.039L494.601,962.039L494.601,976.433L508.997,976.433L508.997,1024.83L438.954,1024.83L438.954,976.433L455.182,976.433L455.182,962.039Z" style="fill:rgb(51,51,51);stroke-width:0.68px;stroke:black;"/>
            <g id="pins" transform="matrix(1,0,0,1,0,5.57445)">
                <path d="M450.462,1000.22L450.462,1012.69" style="fill:none;stroke-width:0.68px;stroke:black;"/>
                <g transform="matrix(1,0,0,1,5.18811,0.142889)">
                    <path d="M450.462,1000.22L450.462,1012.69" style="fill:none;stroke-width:0.68px;stroke:black;"/>
                </g>
                <g transform="matrix(1,0,0,1,10.8216,0.142889)">
                    <path d="M450.462,1000.22L450.462,1012.69" style="fill:none;stroke-width:0.68px;stroke:black;"/>
                </g>
                <g transform="matrix(1,0,0,1,22.0044,0.291919)">
                    <path d="M450.462,1000.07L450.462,1012.69" style="fill:none;stroke-width:0.68px;stroke:black;"/>
                </g>
                <g transform="matrix(1,0,0,1,27.0496,0.291919)">
                    <path d="M450.462,1000.05L450.462,1012.69" style="fill:none;stroke-width:0.68px;stroke:black;"/>
                </g>
                <g transform="matrix(1,0,0,1,49.4509,0.192566)">
                    <path d="M450.462,1000.16L450.462,1012.69" style="fill:none;stroke-width:0.68px;stroke:black;"/>
                </g>
                <path d="M466.922,1000.38L466.922,1018.21" style="fill:none;stroke-width:0.68px;stroke:black;"/>
                <g transform="matrix(1,0,0,1,16.0399,-0.0558162)">
                    <path d="M466.922,1000.41L466.922,1018.27" style="fill:none;stroke-width:0.68px;stroke:black;"/>
                </g>
                <g transform="matrix(1,0,0,1,21.7443,-0.154611)">
                    <path d="M466.922,1000.5L466.922,1018.4" style="fill:none;stroke-width:0.68px;stroke:black;"/>
                </g>
                <g transform="matrix(1,0,0,1,27.6257,-0.353316)">
                    <path d="M466.922,1000.67L466.922,1018.4" style="fill:none;stroke-width:0.68px;stroke:black;"/>
                </g>
            </g>
        </g>
        <g id="Lan MAIN1" transform="matrix(1.48104,0,0,1.48104,-230.797,-788.593)">
            <g transform="matrix(1,0,0,0.875709,1.24345e-14,128.701)">
                <path d="M430.126,958.534L520.049,958.534L520.049,1035.48L430.126,1035.48L430.126,958.534" style="fill:rgb(204,204,204);stroke-width:0.72px;stroke:black;"/>
            </g>
            <path d="M455.182,962.039L494.601,962.039L494.601,976.433L508.997,976.433L508.997,1024.83L438.954,1024.83L438.954,976.433L455.182,976.433L455.182,962.039Z" style="fill:rgb(51,51,51);stroke-width:0.68px;stroke:black;"/>
            <g id="pins1" transform="matrix(1,0,0,1,0,5.57445)">
                <path d="M450.462,1000.22L450.462,1012.69" style="fill:none;stroke-width:0.68px;stroke:black;"/>
                <g transform="matrix(1,0,0,1,5.18811,0.142889)">
                    <path d="M450.462,1000.22L450.462,1012.69" style="fill:none;stroke-width:0.68px;stroke:black;"/>
                </g>
                <g transform="matrix(1,0,0,1,10.8216,0.142889)">
                    <path d="M450.462,1000.22L450.462,1012.69" style="fill:none;stroke-width:0.68px;stroke:black;"/>
                </g>
                <g transform="matrix(1,0,0,1,22.0044,0.291919)">
                    <path d="M450.462,1000.07L450.462,1012.69" style="fill:none;stroke-width:0.68px;stroke:black;"/>
                </g>
                <g transform="matrix(1,0,0,1,27.0496,0.291919)">
                    <path d="M450.462,1000.05L450.462,1012.69" style="fill:none;stroke-width:0.68px;stroke:black;"/>
                </g>
                <g transform="matrix(1,0,0,1,49.4509,0.192566)">
                    <path d="M450.462,1000.16L450.462,1012.69" style="fill:none;stroke-width:0.68px;stroke:black;"/>
                </g>
                <path d="M466.922,1000.38L466.922,1018.21" style="fill:none;stroke-width:0.68px;stroke:black;"/>
                <g transform="matrix(1,0,0,1,16.0399,-0.0558162)">
                    <path d="M466.922,1000.41L466.922,1018.27" style="fill:none;stroke-width:0.68px;stroke:black;"/>
                </g>
                <g transform="matrix(1,0,0,1,21.7443,-0.154611)">
                    <path d="M466.922,1000.5L466.922,1018.4" style="fill:none;stroke-width:0.68px;stroke:black;"/>
                </g>
                <g transform="matrix(1,0,0,1,27.6257,-0.353316)">
                    <path d="M466.922,1000.67L466.922,1018.4" style="fill:none;stroke-width:0.68px;stroke:black;"/>
                </g>
            </g>
        </g>
        <g id="Reset">
            <rect x="800.306" y="636.233" width="38.909" height="26.928" style="fill:rgb(51,51,51);stroke-width:1px;stroke:black;"/>
            <g transform="matrix(1,0,0,1,-1.40428,-0.0972839)">
                <rect x="805.618" y="650.895" width="31.654" height="12.363" style="fill:rgb(179,179,179);stroke-width:1px;stroke:black;"/>
            </g>
            <g transform="matrix(1,0,0,1,-3.11495,0.0767834)">
                <rect x="813.313" y="655.727" width="19.703" height="5.352" style="fill:black;stroke-width:1px;stroke:black;"/>
            </g>
        </g>
    </g>
    <g id="Beschriftungen">
        <g transform="matrix(1,0,0,1,0.600257,14.0616)">
            <path d="M414.524,588.178L416.848,587.975C416.958,588.906 417.214,589.67 417.616,590.266C418.018,590.863 418.642,591.345 419.488,591.714C420.335,592.082 421.287,592.266 422.345,592.266C423.284,592.266 424.114,592.126 424.833,591.847C425.552,591.568 426.088,591.185 426.439,590.698C426.79,590.211 426.966,589.68 426.966,589.105C426.966,588.521 426.796,588.011 426.458,587.575C426.119,587.139 425.561,586.773 424.782,586.477C424.283,586.282 423.178,585.98 421.469,585.569C419.759,585.159 418.561,584.771 417.876,584.408C416.987,583.942 416.325,583.364 415.889,582.675C415.453,581.985 415.235,581.213 415.235,580.358C415.235,579.418 415.502,578.54 416.035,577.723C416.568,576.907 417.347,576.287 418.371,575.864C419.395,575.44 420.533,575.229 421.786,575.229C423.166,575.229 424.382,575.451 425.436,575.895C426.49,576.34 427.3,576.993 427.867,577.857C428.434,578.72 428.739,579.698 428.781,580.789L426.42,580.967C426.293,579.791 425.863,578.902 425.131,578.301C424.399,577.7 423.318,577.4 421.888,577.4C420.398,577.4 419.313,577.673 418.631,578.219C417.95,578.764 417.609,579.422 417.609,580.193C417.609,580.861 417.85,581.411 418.333,581.843C418.807,582.275 420.045,582.717 422.046,583.17C424.048,583.623 425.421,584.018 426.166,584.357C427.249,584.856 428.049,585.489 428.565,586.255C429.082,587.021 429.34,587.903 429.34,588.902C429.34,589.892 429.056,590.825 428.489,591.701C427.922,592.577 427.107,593.258 426.045,593.745C424.983,594.232 423.788,594.475 422.459,594.475C420.775,594.475 419.363,594.229 418.225,593.739C417.087,593.248 416.194,592.509 415.546,591.523C414.899,590.537 414.558,589.422 414.524,588.178Z" style="fill:black;fill-rule:nonzero;"/>
            <path d="M441.642,589.816L444.003,590.108C443.63,591.487 442.941,592.558 441.933,593.32C440.926,594.081 439.64,594.462 438.074,594.462C436.102,594.462 434.538,593.855 433.383,592.64C432.228,591.426 431.65,589.723 431.65,587.531C431.65,585.262 432.234,583.502 433.402,582.249C434.57,580.997 436.085,580.37 437.947,580.37C439.75,580.37 441.223,580.984 442.365,582.211C443.508,583.438 444.079,585.165 444.079,587.391C444.079,587.526 444.075,587.729 444.066,588L434.012,588C434.096,589.481 434.515,590.616 435.268,591.403C436.022,592.19 436.961,592.583 438.087,592.583C438.925,592.583 439.64,592.363 440.232,591.923C440.825,591.483 441.294,590.781 441.642,589.816ZM434.139,586.121L441.667,586.121C441.565,584.987 441.278,584.137 440.804,583.57C440.076,582.689 439.132,582.249 437.973,582.249C436.923,582.249 436.041,582.601 435.326,583.303C434.61,584.005 434.215,584.945 434.139,586.121Z" style="fill:black;fill-rule:nonzero;"/>
            <path d="M455.67,589.219L457.917,589.511C457.671,591.06 457.043,592.272 456.032,593.148C455.02,594.024 453.778,594.462 452.306,594.462C450.461,594.462 448.977,593.859 447.856,592.653C446.734,591.447 446.174,589.718 446.174,587.467C446.174,586.011 446.415,584.738 446.897,583.646C447.38,582.554 448.114,581.735 449.1,581.189C450.086,580.643 451.159,580.37 452.318,580.37C453.782,580.37 454.98,580.741 455.911,581.481C456.842,582.222 457.439,583.273 457.701,584.636L455.479,584.979C455.268,584.073 454.893,583.392 454.356,582.935C453.818,582.478 453.169,582.249 452.407,582.249C451.256,582.249 450.321,582.662 449.601,583.487C448.882,584.312 448.522,585.618 448.522,587.404C448.522,589.215 448.869,590.531 449.563,591.352C450.257,592.173 451.163,592.583 452.28,592.583C453.177,592.583 453.926,592.308 454.527,591.758C455.128,591.208 455.509,590.362 455.67,589.219Z" style="fill:black;fill-rule:nonzero;"/>
            <path d="M459.021,587.416C459.021,584.92 459.715,583.07 461.103,581.868C462.263,580.87 463.676,580.37 465.344,580.37C467.197,580.37 468.712,580.978 469.889,582.192C471.065,583.407 471.653,585.085 471.653,587.226C471.653,588.961 471.393,590.326 470.872,591.32C470.352,592.315 469.594,593.087 468.6,593.637C467.606,594.187 466.52,594.462 465.344,594.462C463.456,594.462 461.931,593.857 460.767,592.647C459.603,591.436 459.021,589.693 459.021,587.416ZM461.37,587.416C461.37,589.143 461.747,590.436 462.5,591.295C463.253,592.154 464.201,592.583 465.344,592.583C466.478,592.583 467.421,592.152 468.175,591.288C468.928,590.425 469.305,589.109 469.305,587.34C469.305,585.673 468.926,584.41 468.168,583.551C467.411,582.692 466.469,582.262 465.344,582.262C464.201,582.262 463.253,582.689 462.5,583.544C461.747,584.399 461.37,585.69 461.37,587.416Z" style="fill:black;fill-rule:nonzero;"/>
            <path d="M474.332,594.158L474.332,580.675L476.389,580.675L476.389,582.592C477.379,581.111 478.809,580.37 480.68,580.37C481.492,580.37 482.239,580.516 482.92,580.808C483.602,581.1 484.112,581.483 484.45,581.957C484.789,582.431 485.026,582.994 485.161,583.646C485.246,584.069 485.288,584.81 485.288,585.867L485.288,594.158L483.003,594.158L483.003,585.956C483.003,585.025 482.914,584.329 482.736,583.868C482.558,583.407 482.243,583.039 481.79,582.763C481.338,582.488 480.807,582.351 480.197,582.351C479.224,582.351 478.384,582.66 477.677,583.278C476.97,583.895 476.617,585.068 476.617,586.794L476.617,594.158L474.332,594.158Z" style="fill:black;fill-rule:nonzero;"/>
            <path d="M497.539,594.158L497.539,592.456C496.684,593.794 495.427,594.462 493.768,594.462C492.694,594.462 491.705,594.166 490.804,593.574C489.903,592.981 489.204,592.154 488.709,591.092C488.214,590.029 487.967,588.809 487.967,587.429C487.967,586.083 488.191,584.862 488.64,583.766C489.088,582.67 489.761,581.83 490.658,581.246C491.555,580.662 492.558,580.37 493.667,580.37C494.479,580.37 495.203,580.542 495.838,580.885C496.473,581.227 496.989,581.674 497.387,582.224L497.387,575.546L499.659,575.546L499.659,594.158L497.539,594.158ZM490.315,587.429C490.315,589.156 490.679,590.446 491.407,591.301C492.135,592.156 492.994,592.583 493.984,592.583C494.983,592.583 495.831,592.175 496.53,591.358C497.228,590.541 497.577,589.295 497.577,587.619C497.577,585.774 497.222,584.42 496.511,583.557C495.8,582.694 494.924,582.262 493.883,582.262C492.867,582.262 492.019,582.677 491.337,583.506C490.656,584.336 490.315,585.643 490.315,587.429Z" style="fill:black;fill-rule:nonzero;"/>
            <path d="M512.05,592.494C511.203,593.214 510.389,593.722 509.606,594.018C508.823,594.314 507.983,594.462 507.086,594.462C505.605,594.462 504.466,594.1 503.671,593.377C502.875,592.653 502.477,591.728 502.477,590.603C502.477,589.943 502.628,589.34 502.928,588.794C503.229,588.248 503.622,587.81 504.109,587.48C504.595,587.15 505.143,586.9 505.753,586.731C506.201,586.612 506.878,586.498 507.784,586.388C509.629,586.168 510.988,585.906 511.859,585.601C511.868,585.288 511.872,585.089 511.872,585.004C511.872,584.073 511.656,583.417 511.225,583.036C510.641,582.52 509.773,582.262 508.622,582.262C507.547,582.262 506.754,582.45 506.242,582.827C505.73,583.204 505.351,583.87 505.105,584.826L502.871,584.522C503.074,583.565 503.408,582.793 503.874,582.205C504.339,581.617 505.012,581.164 505.892,580.846C506.773,580.529 507.793,580.37 508.952,580.37C510.103,580.37 511.038,580.506 511.758,580.777C512.477,581.047 513.006,581.388 513.345,581.799C513.683,582.209 513.92,582.727 514.056,583.354C514.132,583.743 514.17,584.446 514.17,585.461L514.17,588.508C514.17,590.632 514.218,591.976 514.316,592.539C514.413,593.102 514.606,593.641 514.893,594.158L512.507,594.158C512.27,593.684 512.117,593.129 512.05,592.494ZM511.859,587.391C511.03,587.729 509.786,588.017 508.127,588.254C507.187,588.39 506.523,588.542 506.134,588.711C505.744,588.88 505.444,589.128 505.232,589.454C505.021,589.78 504.915,590.142 504.915,590.539C504.915,591.149 505.146,591.657 505.607,592.063C506.068,592.469 506.743,592.672 507.632,592.672C508.512,592.672 509.295,592.48 509.98,592.095C510.666,591.709 511.169,591.183 511.491,590.514C511.737,589.998 511.859,589.236 511.859,588.229L511.859,587.391Z" style="fill:black;fill-rule:nonzero;"/>
            <path d="M517.686,594.158L517.686,580.675L519.743,580.675L519.743,582.719C520.268,581.763 520.752,581.132 521.197,580.827C521.641,580.523 522.13,580.37 522.663,580.37C523.433,580.37 524.216,580.616 525.012,581.107L524.225,583.227C523.666,582.897 523.107,582.732 522.549,582.732C522.049,582.732 521.601,582.882 521.203,583.182C520.805,583.483 520.522,583.9 520.352,584.433C520.099,585.245 519.972,586.134 519.972,587.099L519.972,594.158L517.686,594.158Z" style="fill:black;fill-rule:nonzero;"/>
            <path d="M526.268,599.35L526.015,597.204C526.514,597.34 526.95,597.408 527.322,597.408C527.83,597.408 528.236,597.323 528.541,597.154C528.846,596.984 529.095,596.747 529.29,596.443C529.434,596.214 529.667,595.647 529.988,594.741C530.031,594.615 530.098,594.428 530.191,594.183L525.075,580.675L527.538,580.675L530.344,588.483C530.708,589.473 531.033,590.514 531.321,591.606C531.584,590.556 531.897,589.532 532.261,588.533L535.142,580.675L537.428,580.675L532.299,594.386C531.749,595.867 531.321,596.887 531.017,597.446C530.61,598.199 530.145,598.751 529.62,599.102C529.095,599.454 528.469,599.629 527.741,599.629C527.301,599.629 526.81,599.536 526.268,599.35Z" style="fill:black;fill-rule:nonzero;"/>
        </g>
        <g transform="matrix(1,0,0,1,255.569,13.736)">
            <path d="M415.286,594.158L415.286,575.546L418.993,575.546L423.398,588.724C423.805,589.951 424.101,590.869 424.287,591.479C424.499,590.802 424.829,589.807 425.277,588.495L429.733,575.546L433.047,575.546L433.047,594.158L430.673,594.158L430.673,578.58L425.265,594.158L423.043,594.158L417.66,578.314L417.66,594.158L415.286,594.158Z" style="fill:black;fill-rule:nonzero;"/>
            <path d="M445.526,592.494C444.68,593.214 443.865,593.722 443.082,594.018C442.3,594.314 441.46,594.462 440.562,594.462C439.081,594.462 437.943,594.1 437.147,593.377C436.352,592.653 435.954,591.728 435.954,590.603C435.954,589.943 436.104,589.34 436.405,588.794C436.705,588.248 437.099,587.81 437.585,587.48C438.072,587.15 438.62,586.9 439.229,586.731C439.678,586.612 440.355,586.498 441.261,586.388C443.106,586.168 444.464,585.906 445.336,585.601C445.344,585.288 445.349,585.089 445.349,585.004C445.349,584.073 445.133,583.417 444.701,583.036C444.117,582.52 443.25,582.262 442.099,582.262C441.024,582.262 440.23,582.45 439.718,582.827C439.206,583.204 438.827,583.87 438.582,584.826L436.348,584.522C436.551,583.565 436.885,582.793 437.35,582.205C437.816,581.617 438.489,581.164 439.369,580.846C440.249,580.529 441.269,580.37 442.429,580.37C443.58,580.37 444.515,580.506 445.234,580.777C445.954,581.047 446.483,581.388 446.821,581.799C447.16,582.209 447.397,582.727 447.532,583.354C447.608,583.743 447.646,584.446 447.646,585.461L447.646,588.508C447.646,590.632 447.695,591.976 447.792,592.539C447.89,593.102 448.082,593.641 448.37,594.158L445.983,594.158C445.746,593.684 445.594,593.129 445.526,592.494ZM445.336,587.391C444.506,587.729 443.262,588.017 441.603,588.254C440.664,588.39 440,588.542 439.61,588.711C439.221,588.88 438.92,589.128 438.709,589.454C438.497,589.78 438.392,590.142 438.392,590.539C438.392,591.149 438.622,591.657 439.083,592.063C439.545,592.469 440.22,592.672 441.108,592.672C441.989,592.672 442.771,592.48 443.457,592.095C444.142,591.709 444.646,591.183 444.968,590.514C445.213,589.998 445.336,589.236 445.336,588.229L445.336,587.391Z" style="fill:black;fill-rule:nonzero;"/>
            <path d="M451.201,578.174L451.201,575.546L453.486,575.546L453.486,578.174L451.201,578.174ZM451.201,594.158L451.201,580.675L453.486,580.675L453.486,594.158L451.201,594.158Z" style="fill:black;fill-rule:nonzero;"/>
            <path d="M456.965,594.158L456.965,580.675L459.021,580.675L459.021,582.592C460.012,581.111 461.442,580.37 463.312,580.37C464.125,580.37 464.872,580.516 465.553,580.808C466.234,581.1 466.744,581.483 467.083,581.957C467.421,582.431 467.658,582.994 467.794,583.646C467.878,584.069 467.921,584.81 467.921,585.867L467.921,594.158L465.636,594.158L465.636,585.956C465.636,585.025 465.547,584.329 465.369,583.868C465.191,583.407 464.876,583.039 464.423,582.763C463.97,582.488 463.439,582.351 462.83,582.351C461.857,582.351 461.017,582.66 460.31,583.278C459.603,583.895 459.25,585.068 459.25,586.794L459.25,594.158L456.965,594.158Z" style="fill:black;fill-rule:nonzero;"/>
        </g>
        <g transform="matrix(1,0,0,1,388.54,10.9987)">
            <path d="M414.614,594.158L414.614,582.704L419.692,582.704C420.713,582.704 421.489,582.807 422.02,583.013C422.552,583.219 422.976,583.582 423.294,584.103C423.612,584.624 423.77,585.199 423.77,585.829C423.77,586.642 423.507,587.327 422.981,587.884C422.455,588.441 421.643,588.796 420.544,588.947C420.945,589.139 421.25,589.329 421.458,589.517C421.901,589.923 422.32,590.431 422.716,591.04L424.708,594.158L422.802,594.158L421.286,591.775C420.843,591.087 420.479,590.561 420.192,590.197C419.906,589.832 419.649,589.577 419.423,589.431C419.196,589.285 418.966,589.184 418.731,589.126C418.559,589.09 418.278,589.072 417.888,589.072L416.13,589.072L416.13,594.158L414.614,594.158ZM416.13,587.759L419.388,587.759C420.08,587.759 420.622,587.687 421.013,587.544C421.403,587.401 421.7,587.172 421.903,586.857C422.106,586.542 422.208,586.199 422.208,585.829C422.208,585.288 422.011,584.842 421.618,584.493C421.225,584.144 420.604,583.97 419.755,583.97L416.13,583.97L416.13,587.759Z" style="fill:black;fill-rule:nonzero;"/>
            <path d="M431.645,591.486L433.099,591.665C432.869,592.514 432.445,593.173 431.825,593.642C431.205,594.111 430.414,594.345 429.45,594.345C428.237,594.345 427.274,593.971 426.563,593.224C425.852,592.477 425.497,591.428 425.497,590.079C425.497,588.684 425.856,587.6 426.575,586.829C427.294,586.059 428.226,585.673 429.372,585.673C430.481,585.673 431.388,586.051 432.091,586.806C432.794,587.561 433.145,588.624 433.145,589.993C433.145,590.077 433.143,590.202 433.138,590.368L426.95,590.368C427.002,591.28 427.26,591.978 427.724,592.462C428.187,592.947 428.765,593.189 429.458,593.189C429.974,593.189 430.414,593.053 430.778,592.783C431.143,592.512 431.432,592.079 431.645,591.486ZM427.028,589.212L431.661,589.212C431.599,588.514 431.421,587.991 431.13,587.642C430.682,587.1 430.101,586.829 429.388,586.829C428.742,586.829 428.199,587.046 427.759,587.478C427.319,587.91 427.075,588.488 427.028,589.212Z" style="fill:black;fill-rule:nonzero;"/>
            <path d="M434.302,591.681L435.692,591.462C435.77,592.019 435.988,592.447 436.345,592.743C436.701,593.04 437.2,593.189 437.841,593.189C438.487,593.189 438.966,593.057 439.278,592.794C439.591,592.531 439.747,592.223 439.747,591.868C439.747,591.551 439.609,591.301 439.333,591.118C439.14,590.993 438.661,590.835 437.895,590.642C436.864,590.381 436.149,590.156 435.751,589.966C435.352,589.776 435.05,589.513 434.845,589.177C434.639,588.841 434.536,588.47 434.536,588.064C434.536,587.694 434.621,587.352 434.79,587.036C434.959,586.721 435.19,586.46 435.481,586.251C435.7,586.09 435.998,585.953 436.376,585.841C436.753,585.729 437.158,585.673 437.591,585.673C438.242,585.673 438.813,585.767 439.306,585.954C439.798,586.142 440.161,586.396 440.395,586.716C440.63,587.036 440.791,587.465 440.88,588.001L439.505,588.189C439.442,587.762 439.261,587.428 438.962,587.189C438.662,586.949 438.239,586.829 437.692,586.829C437.046,586.829 436.586,586.936 436.309,587.15C436.033,587.363 435.895,587.613 435.895,587.9C435.895,588.082 435.953,588.246 436.067,588.392C436.182,588.543 436.362,588.668 436.606,588.767C436.747,588.819 437.161,588.939 437.849,589.126C438.843,589.392 439.537,589.609 439.931,589.779C440.324,589.948 440.632,590.194 440.856,590.517C441.08,590.84 441.192,591.241 441.192,591.72C441.192,592.189 441.056,592.63 440.782,593.044C440.509,593.458 440.114,593.779 439.599,594.005C439.083,594.232 438.5,594.345 437.849,594.345C436.77,594.345 435.949,594.121 435.384,593.673C434.819,593.225 434.458,592.561 434.302,591.681Z" style="fill:black;fill-rule:nonzero;"/>
            <path d="M448.544,591.486L449.997,591.665C449.768,592.514 449.343,593.173 448.724,593.642C448.104,594.111 447.312,594.345 446.349,594.345C445.135,594.345 444.173,593.971 443.462,593.224C442.751,592.477 442.395,591.428 442.395,590.079C442.395,588.684 442.755,587.6 443.474,586.829C444.192,586.059 445.125,585.673 446.27,585.673C447.38,585.673 448.286,586.051 448.989,586.806C449.692,587.561 450.044,588.624 450.044,589.993C450.044,590.077 450.041,590.202 450.036,590.368L443.849,590.368C443.901,591.28 444.158,591.978 444.622,592.462C445.086,592.947 445.664,593.189 446.356,593.189C446.872,593.189 447.312,593.053 447.677,592.783C448.041,592.512 448.33,592.079 448.544,591.486ZM443.927,589.212L448.559,589.212C448.497,588.514 448.32,587.991 448.028,587.642C447.58,587.1 447,586.829 446.286,586.829C445.64,586.829 445.097,587.046 444.657,587.478C444.217,587.91 443.974,588.488 443.927,589.212Z" style="fill:black;fill-rule:nonzero;"/>
            <path d="M454.833,592.9L455.036,594.142C454.64,594.225 454.286,594.267 453.974,594.267C453.463,594.267 453.067,594.186 452.786,594.025C452.505,593.863 452.307,593.651 452.192,593.388C452.078,593.125 452.02,592.572 452.02,591.728L452.02,586.954L450.989,586.954L450.989,585.861L452.02,585.861L452.02,583.806L453.419,582.962L453.419,585.861L454.833,585.861L454.833,586.954L453.419,586.954L453.419,591.806C453.419,592.207 453.444,592.465 453.493,592.579C453.543,592.694 453.623,592.785 453.735,592.853C453.847,592.921 454.007,592.954 454.216,592.954C454.372,592.954 454.578,592.936 454.833,592.9Z" style="fill:black;fill-rule:nonzero;"/>
        </g>
    </g>
    <g transform="matrix(26.9665,0,0,0.404501,-7103.72,333.285)">
        <rect x="273.076" y="554.462" width="24.533" height="26.986" style="fill:rgb(191,191,191);stroke-width:0.16px;stroke:black;"/>
    </g>
</svg>
