<?xml version="1.0" standalone="no"?>
<!DOCTYPE svg PUBLIC "-//W3C//DTD SVG 1.1//EN" "http://www.w3.org/Graphics/SVG/1.1/DTD/svg11.dtd">
<svg width="100%" height="100%" viewBox="0 0 1280 1150" version="1.1" xmlns="http://www.w3.org/2000/svg" xmlns:xlink="http://www.w3.org/1999/xlink" xml:space="preserve" style="fill-rule:evenodd;clip-rule:evenodd;stroke-linecap:round;stroke-linejoin:round;stroke-miterlimit:1.41421;">
    <path d="M336.274,135.022C337.037,121.042 342.982,112.374 355.452,110.164C513.007,80.181 670.622,81.777 828.287,110.164C844.377,113.06 856.747,117.419 856.676,135.022C872.368,403.499 885.236,672.045 890.866,940.768C892.578,983.547 863.527,997.427 828.287,1005.97C699.852,1041.05 467.255,1042.18 351.868,1003.23C323.663,993.708 308.822,978.444 309.458,940.768C314.017,670.736 323.206,402.237 336.274,135.022Z" style="fill:white;stroke-width:3px;stroke:black;"/>
    <g id="Ring beschriftung">
        <g>
            <g transform="matrix(0.873121,0,0,1,93.9142,0)">
                <path d="M751.789,777.847C793.419,777.847 827.218,807.606 827.218,844.26C827.218,880.915 793.419,910.674 751.789,910.674C710.159,910.674 676.36,880.915 676.36,844.26C676.36,807.606 710.159,777.847 751.789,777.847ZM751.789,794.45C783.012,794.45 808.361,816.769 808.361,844.26C808.361,871.751 783.012,894.07 751.789,894.07C720.567,894.07 695.218,871.751 695.218,844.26C695.218,816.769 720.567,794.45 751.789,794.45Z" style="fill:rgb(251,211,11);stroke-width:2.13px;stroke:rgb(152,122,0);"/>
            </g>
            <g id="lock wifi">
                <g id="Lock" transform="matrix(1.14325,0,0,2.04895,-174.291,-1188.82)">
                    <g transform="matrix(1,0,0,1,0,96.2592)">
                        <rect x="803.72" y="895.022" width="12.343" height="4.453" style="fill:none;stroke-width:1.21px;stroke:rgb(153,153,153);"/>
                    </g>
                    <g transform="matrix(1,0,0,0.720904,-2.84217e-14,346.056)">
                        <path d="M805.459,895.022C805.495,890.478 813.687,890.502 813.741,895.022" style="fill:none;stroke-width:1.51px;stroke:rgb(153,153,153);"/>
                    </g>
                </g>
                <g transform="matrix(-1.10378e-16,-0.686376,0.686376,-1.10378e-16,52.428,1211.93)">
                    <path d="M532.5,1001.56C535.537,998.5 538.583,999.103 541.634,1001.56" style="fill:none;stroke-width:2.91px;stroke:rgb(153,153,153);"/>
                    <path d="M529.218,994.65C534.394,990.708 539.528,990.83 544.623,994.65" style="fill:none;stroke-width:2.91px;stroke:rgb(153,153,153);"/>
                    <path d="M526.539,988.847C533.32,983.95 540.233,983.383 547.33,988.847" style="fill:none;stroke-width:2.91px;stroke:rgb(153,153,153);"/>
                </g>
                <g transform="matrix(1.94435e-16,0.686376,-0.686376,1.94435e-16,1450.89,474.847)">
                    <path d="M532.5,1001.56C535.537,998.5 538.583,999.103 541.634,1001.56" style="fill:none;stroke-width:2.91px;stroke:rgb(153,153,153);"/>
                    <path d="M529.218,994.65C534.394,990.708 539.528,990.83 544.623,994.65" style="fill:none;stroke-width:2.91px;stroke:rgb(153,153,153);"/>
                    <path d="M526.539,988.847C533.32,983.95 540.233,983.383 547.33,988.847" style="fill:none;stroke-width:2.91px;stroke:rgb(153,153,153);"/>
                </g>
            </g>
        </g>
        <g id="beschriftung">
            <g transform="matrix(1,0,0,1,296.233,-274.999)">
                <path d="M414.658,1038.16L414.658,1036.09C414.658,1035.8 414.6,1035.6 414.486,1035.5C414.372,1035.4 414.142,1035.35 413.796,1035.35L413.796,1038.9L413.937,1038.9C414.206,1038.9 414.394,1038.84 414.499,1038.73C414.605,1038.62 414.658,1038.43 414.658,1038.16ZM411.204,1046.67L411.204,1033.71L414.227,1033.71C415.282,1033.71 416.046,1033.9 416.521,1034.27C416.996,1034.64 417.233,1035.24 417.233,1036.06L417.233,1037.42C417.233,1038.1 417.066,1038.62 416.732,1038.98C416.398,1039.35 415.9,1039.55 415.238,1039.58L415.238,1039.65C415.976,1039.7 416.493,1039.88 416.789,1040.2C417.085,1040.52 417.233,1041.06 417.233,1041.83L417.233,1045.13C417.233,1045.39 417.253,1045.66 417.294,1045.92C417.335,1046.19 417.394,1046.44 417.47,1046.67L414.913,1046.67C414.83,1046.45 414.767,1046.2 414.724,1045.93C414.68,1045.66 414.658,1045.37 414.658,1045.06L414.658,1044.58L414.658,1041.76C414.658,1041.4 414.589,1041.12 414.451,1040.94C414.313,1040.76 414.107,1040.66 413.831,1040.66L413.796,1040.66L413.796,1046.67L411.204,1046.67Z" style="fill:rgb(153,153,153);fill-rule:nonzero;"/>
                <path d="M417.918,1046.67L417.918,1033.71L422.744,1033.71L422.744,1035.51L420.511,1035.51L420.511,1038.5L422.691,1038.5L422.691,1040.37L420.511,1040.37L420.511,1044.71L422.744,1044.71L422.744,1046.67L417.918,1046.67Z" style="fill:rgb(153,153,153);fill-rule:nonzero;"/>
            </g>
            <g transform="matrix(1,0,0,1,198.874,-223.812)">
                <path d="M412.285,1046.67L410.993,1033.71L413.594,1033.71L413.902,1038.66C413.931,1039.09 413.956,1039.57 413.976,1040.09C413.997,1040.61 414.022,1041.35 414.051,1042.33L414.139,1042.33C414.18,1041.75 414.223,1041.21 414.267,1040.7C414.31,1040.19 414.353,1039.77 414.394,1039.42L415.071,1033.71L417.813,1033.71L418.349,1039.83C418.355,1039.93 418.381,1040.26 418.428,1040.83C418.475,1041.4 418.516,1041.9 418.551,1042.33L418.639,1042.33C418.663,1041.62 418.69,1040.96 418.723,1040.35C418.755,1039.74 418.791,1039.15 418.832,1038.58L419.237,1033.71L421.408,1033.71L420.01,1046.67L417.022,1046.67L416.371,1039.72C416.348,1039.48 416.326,1039.19 416.306,1038.87C416.285,1038.54 416.266,1038.12 416.248,1037.6L416.152,1037.6L415.238,1046.67L412.285,1046.67Z" style="fill:rgb(153,153,153);fill-rule:nonzero;"/>
                <path d="M422.058,1046.67L422.058,1036.3L424.343,1036.3L424.343,1046.67L422.058,1046.67ZM422.058,1035.68L422.058,1033.71L424.343,1033.71L424.343,1035.68L422.058,1035.68Z" style="fill:rgb(153,153,153);fill-rule:nonzero;"/>
                <path d="M425.099,1046.67L425.099,1036.3L427.349,1036.3L427.349,1037.17L427.384,1037.17C427.578,1036.81 427.809,1036.54 428.079,1036.37C428.348,1036.2 428.662,1036.11 429.019,1036.11C429.517,1036.11 429.891,1036.26 430.14,1036.55C430.389,1036.85 430.513,1037.29 430.513,1037.88L430.513,1041.88L428.21,1041.88L428.21,1038.63C428.21,1038.39 428.18,1038.23 428.118,1038.14C428.057,1038.06 427.95,1038.02 427.797,1038.02C427.657,1038.02 427.553,1038.07 427.485,1038.17C427.418,1038.27 427.384,1038.42 427.384,1038.63L427.384,1046.67L425.099,1046.67Z" style="fill:rgb(153,153,153);fill-rule:nonzero;"/>
                <path d="M433.642,1038.31L433.642,1040.27L434.468,1040.27L434.468,1038.31C434.468,1038.08 434.436,1037.92 434.371,1037.82C434.307,1037.72 434.202,1037.67 434.055,1037.67C433.909,1037.67 433.803,1037.72 433.739,1037.82C433.674,1037.92 433.642,1038.08 433.642,1038.31ZM433.642,1044.58C433.642,1044.81 433.674,1044.97 433.739,1045.07C433.803,1045.17 433.909,1045.21 434.055,1045.21C434.202,1045.21 434.307,1045.17 434.371,1045.07C434.436,1044.97 434.468,1044.81 434.468,1044.58L434.468,1042.64L436.753,1042.64L436.753,1044.57C436.753,1045.32 436.517,1045.9 436.046,1046.31C435.574,1046.72 434.911,1046.93 434.055,1046.93C433.088,1046.93 432.397,1046.71 431.981,1046.26C431.565,1045.82 431.357,1045.05 431.357,1043.98L431.357,1039.01C431.357,1037.92 431.562,1037.16 431.972,1036.72C432.382,1036.28 433.071,1036.06 434.038,1036.06C434.887,1036.06 435.552,1036.26 436.033,1036.65C436.513,1037.05 436.753,1037.59 436.753,1038.29L436.753,1041.81L433.642,1041.81L433.642,1044.58Z" style="fill:rgb(153,153,153);fill-rule:nonzero;"/>
                <rect x="437.474" y="1033.71" width="2.285" height="12.964" style="fill:rgb(153,153,153);fill-rule:nonzero;"/>
                <path d="M442.765,1038.31L442.765,1040.27L443.591,1040.27L443.591,1038.31C443.591,1038.08 443.559,1037.92 443.495,1037.82C443.43,1037.72 443.325,1037.67 443.178,1037.67C443.032,1037.67 442.926,1037.72 442.862,1037.82C442.797,1037.92 442.765,1038.08 442.765,1038.31ZM442.765,1044.58C442.765,1044.81 442.797,1044.97 442.862,1045.07C442.926,1045.17 443.032,1045.21 443.178,1045.21C443.325,1045.21 443.43,1045.17 443.495,1045.07C443.559,1044.97 443.591,1044.81 443.591,1044.58L443.591,1042.64L445.876,1042.64L445.876,1044.57C445.876,1045.32 445.641,1045.9 445.169,1046.31C444.697,1046.72 444.034,1046.93 443.178,1046.93C442.211,1046.93 441.52,1046.71 441.104,1046.26C440.688,1045.82 440.48,1045.05 440.48,1043.98L440.48,1039.01C440.48,1037.92 440.685,1037.16 441.095,1036.72C441.505,1036.28 442.194,1036.06 443.161,1036.06C444.01,1036.06 444.675,1036.26 445.156,1036.65C445.636,1037.05 445.876,1037.59 445.876,1038.29L445.876,1041.81L442.765,1041.81L442.765,1044.58Z" style="fill:rgb(153,153,153);fill-rule:nonzero;"/>
                <path d="M451.941,1044.53C451.941,1045.3 451.709,1045.9 451.246,1046.31C450.784,1046.72 450.116,1046.93 449.243,1046.93C448.387,1046.93 447.721,1046.72 447.243,1046.31C446.766,1045.89 446.527,1045.31 446.527,1044.57L446.527,1042.64L448.83,1042.64L448.83,1044.58C448.83,1044.81 448.862,1044.97 448.926,1045.07C448.991,1045.17 449.096,1045.21 449.243,1045.21C449.389,1045.21 449.495,1045.17 449.559,1045.07C449.623,1044.97 449.656,1044.81 449.656,1044.58L449.656,1043.65C449.656,1043.23 449.275,1042.71 448.513,1042.1C448.349,1041.97 448.22,1041.87 448.126,1041.8L448.109,1041.78C447.054,1040.91 446.527,1040.03 446.527,1039.15L446.527,1038.23C446.527,1037.54 446.764,1037.01 447.239,1036.63C447.713,1036.25 448.375,1036.06 449.225,1036.06C450.086,1036.06 450.754,1036.26 451.229,1036.65C451.704,1037.05 451.941,1037.62 451.941,1038.34L451.941,1039.92L449.656,1039.92L449.656,1038.31C449.656,1038.08 449.623,1037.92 449.559,1037.82C449.495,1037.72 449.389,1037.67 449.243,1037.67C449.096,1037.67 448.991,1037.72 448.926,1037.82C448.862,1037.92 448.83,1038.08 448.83,1038.31L448.83,1038.86C448.83,1039.33 449.196,1039.85 449.928,1040.41C450.098,1040.54 450.23,1040.64 450.324,1040.71C451.044,1041.3 451.494,1041.75 451.673,1042.07C451.851,1042.4 451.941,1042.82 451.941,1043.34L451.941,1044.53Z" style="fill:rgb(153,153,153);fill-rule:nonzero;"/>
                <path d="M457.935,1044.53C457.935,1045.3 457.704,1045.9 457.241,1046.31C456.778,1046.72 456.11,1046.93 455.237,1046.93C454.381,1046.93 453.715,1046.72 453.237,1046.31C452.76,1045.89 452.521,1045.31 452.521,1044.57L452.521,1042.64L454.824,1042.64L454.824,1044.58C454.824,1044.81 454.856,1044.97 454.92,1045.07C454.985,1045.17 455.09,1045.21 455.237,1045.21C455.383,1045.21 455.489,1045.17 455.553,1045.07C455.618,1044.97 455.65,1044.81 455.65,1044.58L455.65,1043.65C455.65,1043.23 455.269,1042.71 454.507,1042.1C454.343,1041.97 454.214,1041.87 454.121,1041.8L454.103,1041.78C453.048,1040.91 452.521,1040.03 452.521,1039.15L452.521,1038.23C452.521,1037.54 452.758,1037.01 453.233,1036.63C453.707,1036.25 454.37,1036.06 455.219,1036.06C456.08,1036.06 456.748,1036.26 457.223,1036.65C457.698,1037.05 457.935,1037.62 457.935,1038.34L457.935,1039.92L455.65,1039.92L455.65,1038.31C455.65,1038.08 455.618,1037.92 455.553,1037.82C455.489,1037.72 455.383,1037.67 455.237,1037.67C455.09,1037.67 454.985,1037.72 454.92,1037.82C454.856,1037.92 454.824,1038.08 454.824,1038.31L454.824,1038.86C454.824,1039.33 455.19,1039.85 455.922,1040.41C456.092,1040.54 456.224,1040.64 456.318,1040.71C457.038,1041.3 457.488,1041.75 457.667,1042.07C457.846,1042.4 457.935,1042.82 457.935,1043.34L457.935,1044.53Z" style="fill:rgb(153,153,153);fill-rule:nonzero;"/>
            </g>
            <g transform="matrix(1,0,0,1,223.119,-170.599)">
                <path d="M414.658,1039.1L414.658,1036.09C414.658,1035.8 414.606,1035.6 414.504,1035.5C414.401,1035.4 414.201,1035.35 413.902,1035.35L413.796,1035.35L413.796,1039.82L413.955,1039.82C414.224,1039.82 414.409,1039.77 414.508,1039.66C414.608,1039.56 414.658,1039.37 414.658,1039.1ZM411.204,1046.67L411.204,1033.71L414.227,1033.71C415.264,1033.71 416.024,1033.9 416.508,1034.28C416.991,1034.65 417.233,1035.25 417.233,1036.06L417.233,1038.83C417.233,1039.83 416.994,1040.55 416.517,1040.98C416.039,1041.41 415.235,1041.62 414.104,1041.62L413.796,1041.62L413.796,1046.67L411.204,1046.67Z" style="fill:rgb(153,153,153);fill-rule:nonzero;"/>
                <path d="M420.098,1038.31L420.098,1044.58C420.098,1044.81 420.13,1044.97 420.195,1045.07C420.259,1045.17 420.365,1045.21 420.511,1045.21C420.658,1045.21 420.763,1045.17 420.828,1045.07C420.892,1044.97 420.924,1044.81 420.924,1044.58L420.924,1038.31C420.924,1038.09 420.891,1037.92 420.823,1037.82C420.756,1037.72 420.646,1037.67 420.494,1037.67C420.353,1037.67 420.252,1037.72 420.19,1037.82C420.129,1037.91 420.098,1038.07 420.098,1038.31ZM417.795,1039.01C417.795,1037.94 418.005,1037.18 418.424,1036.73C418.843,1036.28 419.533,1036.06 420.494,1036.06C421.455,1036.06 422.144,1036.28 422.563,1036.73C422.982,1037.18 423.192,1037.94 423.192,1039.01L423.192,1043.98C423.192,1045.04 422.982,1045.8 422.563,1046.25C422.144,1046.7 421.455,1046.93 420.494,1046.93C419.533,1046.93 418.843,1046.7 418.424,1046.25C418.005,1045.8 417.795,1045.04 417.795,1043.98L417.795,1039.01Z" style="fill:rgb(153,153,153);fill-rule:nonzero;"/>
                <path d="M424.809,1046.67L423.394,1036.3L425.714,1036.3L426.145,1041.67C426.168,1042.01 426.186,1042.39 426.198,1042.8C426.209,1043.21 426.215,1043.64 426.215,1044.1L426.303,1044.1C426.327,1043.24 426.388,1042.38 426.488,1041.54C426.494,1041.48 426.499,1041.43 426.505,1041.4L427.077,1036.3L429.476,1036.3L429.942,1041.67C429.948,1041.73 429.961,1042.02 429.981,1042.55C430.002,1043.09 430.024,1043.6 430.047,1044.1L430.144,1044.1C430.179,1043.33 430.235,1042.54 430.311,1041.73C430.329,1041.56 430.337,1041.46 430.337,1041.42L430.803,1036.3L433.018,1036.3L431.471,1046.67L428.826,1046.67L428.395,1041.92C428.383,1041.77 428.369,1041.48 428.351,1041.04C428.333,1040.6 428.316,1040.1 428.298,1039.53L428.21,1039.53C428.181,1040.3 428.122,1041.03 428.035,1041.73L428.035,1041.76L427.419,1046.67L424.809,1046.67Z" style="fill:rgb(153,153,153);fill-rule:nonzero;"/>
                <path d="M435.453,1038.31L435.453,1040.27L436.279,1040.27L436.279,1038.31C436.279,1038.08 436.246,1037.92 436.182,1037.82C436.118,1037.72 436.012,1037.67 435.866,1037.67C435.719,1037.67 435.614,1037.72 435.549,1037.82C435.485,1037.92 435.453,1038.08 435.453,1038.31ZM435.453,1044.58C435.453,1044.81 435.485,1044.97 435.549,1045.07C435.614,1045.17 435.719,1045.21 435.866,1045.21C436.012,1045.21 436.118,1045.17 436.182,1045.07C436.246,1044.97 436.279,1044.81 436.279,1044.58L436.279,1042.64L438.564,1042.64L438.564,1044.57C438.564,1045.32 438.328,1045.9 437.856,1046.31C437.385,1046.72 436.721,1046.93 435.866,1046.93C434.899,1046.93 434.207,1046.71 433.791,1046.26C433.375,1045.82 433.167,1045.05 433.167,1043.98L433.167,1039.01C433.167,1037.92 433.372,1037.16 433.783,1036.72C434.193,1036.28 434.881,1036.06 435.848,1036.06C436.698,1036.06 437.363,1036.26 437.843,1036.65C438.324,1037.05 438.564,1037.59 438.564,1038.29L438.564,1041.81L435.453,1041.81L435.453,1044.58Z" style="fill:rgb(153,153,153);fill-rule:nonzero;"/>
                <path d="M439.285,1046.67L439.285,1036.3L441.535,1036.3L441.535,1037.17L441.57,1037.17C441.763,1036.81 441.995,1036.54 442.264,1036.37C442.534,1036.2 442.847,1036.11 443.205,1036.11C443.703,1036.11 444.076,1036.26 444.325,1036.55C444.574,1036.85 444.699,1037.29 444.699,1037.88L444.699,1041.88L442.396,1041.88L442.396,1038.63C442.396,1038.39 442.365,1038.23 442.304,1038.14C442.242,1038.06 442.135,1038.02 441.983,1038.02C441.842,1038.02 441.738,1038.07 441.671,1038.17C441.603,1038.27 441.57,1038.42 441.57,1038.63L441.57,1046.67L439.285,1046.67Z" style="fill:rgb(153,153,153);fill-rule:nonzero;"/>
            </g>
            <g transform="matrix(1,0,0,1,256.247,-118.223)">
                <path d="M411.204,1046.67L411.204,1033.71L416.029,1033.71L416.029,1035.51L413.796,1035.51L413.796,1038.5L415.976,1038.5L415.976,1040.37L413.796,1040.37L413.796,1044.71L416.029,1044.71L416.029,1046.67L411.204,1046.67Z" style="fill:rgb(153,153,153);fill-rule:nonzero;"/>
                <path d="M416.336,1037.96L416.336,1036.3L416.916,1036.3L416.916,1034.38L419.219,1034.38L419.219,1036.3L419.887,1036.3L419.887,1037.96L419.219,1037.96L419.219,1044.27C419.219,1044.59 419.259,1044.79 419.338,1044.88C419.417,1044.96 419.574,1045.01 419.808,1045.01L419.887,1045.01L419.887,1046.67L418.446,1046.67C417.889,1046.67 417.495,1046.55 417.264,1046.29C417.032,1046.04 416.916,1045.56 416.916,1044.86L416.916,1037.96L416.336,1037.96Z" style="fill:rgb(153,153,153);fill-rule:nonzero;"/>
                <path d="M420.283,1046.67L420.283,1033.71L422.568,1033.71L422.568,1037.17L422.603,1037.17C422.773,1036.81 422.99,1036.54 423.253,1036.37C423.517,1036.2 423.833,1036.11 424.203,1036.11C424.701,1036.11 425.074,1036.26 425.323,1036.55C425.572,1036.85 425.697,1037.29 425.697,1037.88L425.697,1046.67L423.394,1046.67L423.394,1038.63C423.394,1038.39 423.363,1038.23 423.302,1038.14C423.24,1038.06 423.133,1038.02 422.981,1038.02C422.84,1038.02 422.736,1038.07 422.669,1038.17C422.601,1038.27 422.568,1038.42 422.568,1038.63L422.568,1046.67L420.283,1046.67Z" style="fill:rgb(153,153,153);fill-rule:nonzero;"/>
                <path d="M428.667,1038.31L428.667,1040.27L429.494,1040.27L429.494,1038.31C429.494,1038.08 429.461,1037.92 429.397,1037.82C429.332,1037.72 429.227,1037.67 429.08,1037.67C428.934,1037.67 428.829,1037.72 428.764,1037.82C428.7,1037.92 428.667,1038.08 428.667,1038.31ZM428.667,1044.58C428.667,1044.81 428.7,1044.97 428.764,1045.07C428.829,1045.17 428.934,1045.21 429.08,1045.21C429.227,1045.21 429.332,1045.17 429.397,1045.07C429.461,1044.97 429.494,1044.81 429.494,1044.58L429.494,1042.64L431.779,1042.64L431.779,1044.57C431.779,1045.32 431.543,1045.9 431.071,1046.31C430.6,1046.72 429.936,1046.93 429.08,1046.93C428.114,1046.93 427.422,1046.71 427.006,1046.26C426.59,1045.82 426.382,1045.05 426.382,1043.98L426.382,1039.01C426.382,1037.92 426.587,1037.16 426.997,1036.72C427.408,1036.28 428.096,1036.06 429.063,1036.06C429.913,1036.06 430.578,1036.26 431.058,1036.65C431.538,1037.05 431.779,1037.59 431.779,1038.29L431.779,1041.81L428.667,1041.81L428.667,1044.58Z" style="fill:rgb(153,153,153);fill-rule:nonzero;"/>
                <path d="M432.499,1046.67L432.499,1036.3L434.749,1036.3L434.749,1037.17L434.785,1037.17C434.978,1036.81 435.209,1036.54 435.479,1036.37C435.748,1036.2 436.062,1036.11 436.419,1036.11C436.917,1036.11 437.291,1036.26 437.54,1036.55C437.789,1036.85 437.913,1037.29 437.913,1037.88L437.913,1041.88L435.611,1041.88L435.611,1038.63C435.611,1038.39 435.58,1038.23 435.518,1038.14C435.457,1038.06 435.35,1038.02 435.198,1038.02C435.057,1038.02 434.953,1038.07 434.886,1038.17C434.818,1038.27 434.785,1038.42 434.785,1038.63L434.785,1046.67L432.499,1046.67Z" style="fill:rgb(153,153,153);fill-rule:nonzero;"/>
                <path d="M438.792,1046.67L438.792,1036.3L441.042,1036.3L441.042,1037.17L441.078,1037.17C441.271,1036.81 441.502,1036.54 441.772,1036.37C442.041,1036.2 442.355,1036.11 442.712,1036.11C443.21,1036.11 443.584,1036.26 443.833,1036.55C444.082,1036.85 444.206,1037.29 444.206,1037.88L444.206,1046.67L441.904,1046.67L441.904,1038.63C441.904,1038.39 441.873,1038.23 441.811,1038.14C441.75,1038.06 441.643,1038.02 441.491,1038.02C441.35,1038.02 441.246,1038.07 441.179,1038.17C441.111,1038.27 441.078,1038.42 441.078,1038.63L441.078,1046.67L438.792,1046.67Z" style="fill:rgb(153,153,153);fill-rule:nonzero;"/>
                <path d="M447.177,1038.31L447.177,1040.27L448.003,1040.27L448.003,1038.31C448.003,1038.08 447.971,1037.92 447.907,1037.82C447.842,1037.72 447.737,1037.67 447.59,1037.67C447.444,1037.67 447.338,1037.72 447.274,1037.82C447.209,1037.92 447.177,1038.08 447.177,1038.31ZM447.177,1044.58C447.177,1044.81 447.209,1044.97 447.274,1045.07C447.338,1045.17 447.444,1045.21 447.59,1045.21C447.737,1045.21 447.842,1045.17 447.907,1045.07C447.971,1044.97 448.003,1044.81 448.003,1044.58L448.003,1042.64L450.288,1042.64L450.288,1044.57C450.288,1045.32 450.053,1045.9 449.581,1046.31C449.109,1046.72 448.446,1046.93 447.59,1046.93C446.623,1046.93 445.932,1046.71 445.516,1046.26C445.1,1045.82 444.892,1045.05 444.892,1043.98L444.892,1039.01C444.892,1037.92 445.097,1037.16 445.507,1036.72C445.917,1036.28 446.606,1036.06 447.573,1036.06C448.422,1036.06 449.087,1036.26 449.568,1036.65C450.048,1037.05 450.288,1037.59 450.288,1038.29L450.288,1041.81L447.177,1041.81L447.177,1044.58Z" style="fill:rgb(153,153,153);fill-rule:nonzero;"/>
                <path d="M450.649,1037.96L450.649,1036.3L451.229,1036.3L451.229,1034.38L453.532,1034.38L453.532,1036.3L454.2,1036.3L454.2,1037.96L453.532,1037.96L453.532,1044.27C453.532,1044.59 453.571,1044.79 453.65,1044.88C453.729,1044.96 453.886,1045.01 454.121,1045.01L454.2,1045.01L454.2,1046.67L452.758,1046.67C452.202,1046.67 451.808,1046.55 451.576,1046.29C451.345,1046.04 451.229,1045.56 451.229,1044.86L451.229,1037.96L450.649,1037.96Z" style="fill:rgb(153,153,153);fill-rule:nonzero;"/>
            </g>
        </g>
        <g id="Wifi">
            <g transform="matrix(1,0,0,1.14801,0,-136.267)">
                <rect x="781.424" y="920.643" width="4.018" height="6.774" style="fill:rgb(153,153,153);"/>
            </g>
            <g transform="matrix(1,0,0,1.73567,8.44955,-681.272)">
                <rect x="781.424" y="920.643" width="4.018" height="6.774" style="fill:rgb(153,153,153);"/>
            </g>
            <g transform="matrix(1,0,0,2.34821,16.2547,-1249.35)">
                <rect x="781.424" y="920.643" width="4.018" height="6.774" style="fill:rgb(153,153,153);"/>
            </g>
            <g transform="matrix(1,0,0,2.9393,24.7591,-1797.54)">
                <rect x="781.424" y="920.643" width="4.018" height="6.774" style="fill:rgb(153,153,153);"/>
            </g>
            <g transform="matrix(1,0,0,3.70429,33.181,-2507.01)">
                <rect x="781.424" y="920.643" width="4.018" height="6.774" style="fill:rgb(153,153,153);"/>
            </g>
        </g>
    </g>
</svg>
