<?xml version="1.0" standalone="no"?>
<!DOCTYPE svg PUBLIC "-//W3C//DTD SVG 1.1//EN" "http://www.w3.org/Graphics/SVG/1.1/DTD/svg11.dtd">
<svg width="100%" height="100%" viewBox="0 0 1280 1150" version="1.1" xmlns="http://www.w3.org/2000/svg" xmlns:xlink="http://www.w3.org/1999/xlink" xml:space="preserve" style="fill-rule:evenodd;clip-rule:evenodd;stroke-linecap:round;stroke-linejoin:round;stroke-miterlimit:1.41421;">
    <g id="Ebene2">
        <g id="drunter" transform="matrix(-0.720338,4.0811e-16,-3.6433e-16,-0.643063,1144.39,1522.16)">
            <path d="M103.846,834.306L103.846,829.36L114.756,822.625L1211.53,822.625L1222.82,829.36L1222.82,834.306L103.846,834.306Z" style="fill:rgb(216,218,217);stroke-width:0.73px;stroke:black;"/>
            <path d="M103.842,829.36L1222.75,829.36" style="fill:rgb(216,218,217);stroke-width:0.73px;stroke:black;"/>
        </g>
        <g id="Boden" transform="matrix(-1.00645,5.70209e-16,-5.66554e-16,-1,1330.24,1808.28)">
            <path d="M103.846,834.306L103.846,829.36L114.756,822.625L1211.53,822.625L1222.82,829.36L1222.82,834.306L103.846,834.306Z" style="fill:rgb(216,218,217);stroke-width:0.5px;stroke:black;"/>
            <path d="M103.842,829.36L1222.75,829.36" style="fill:rgb(216,218,217);stroke-width:0.5px;stroke:black;"/>
        </g>
        <g id="standgummis">
            <path d="M177.751,985.947L177.751,993.432C177.676,995.655 178.866,996.692 181.105,996.747L240.337,996.747C242.813,996.858 244.149,995.831 244.109,993.432L244.109,985.947L177.751,985.947Z" style="fill:black;stroke-width:1px;stroke:black;"/>
            <g transform="matrix(1,-2.44929e-16,2.44929e-16,1,905.912,5.16626e-14)">
                <path d="M177.751,985.947L177.751,993.432C177.676,995.655 178.866,996.692 181.105,996.747L240.337,996.747C242.813,996.858 244.149,995.831 244.109,993.432L244.109,985.947L177.751,985.947Z" style="fill:black;stroke-width:1px;stroke:black;"/>
            </g>
        </g>
        <g id="Deckel">
            <path d="M103.846,834.306L103.846,829.36L114.756,822.625L1211.53,822.625L1222.82,829.36L1222.82,834.306L103.846,834.306Z" style="fill:rgb(216,218,217);stroke-width:0.5px;stroke-linecap:butt;stroke:black;"/>
            <path d="M103.842,829.36L1222.75,829.36" style="fill:rgb(216,218,217);stroke-width:0.5px;stroke:black;"/>
        </g>
        <rect x="88.185" y="841.627" width="1150.03" height="123.932" style="fill:rgb(51,51,51);stroke-width:0.5px;stroke:black;"/>
        <g id="Mittelrippen">
            <g id="Rippe">
                <g transform="matrix(0.934201,0,0,0.945756,5.38543,46.5774)">
                    <path d="M1325.87,861.927C1325.87,860.123 1324.39,858.66 1322.56,858.66L85.153,858.66C83.328,858.66 81.846,860.123 81.846,861.927L81.846,869.691C81.846,871.494 83.328,872.958 85.153,872.958L1322.56,872.958C1324.39,872.958 1325.87,871.494 1325.87,869.691L1325.87,861.927Z" style="fill:rgb(77,77,77);stroke-width:0.53px;stroke:black;"/>
                </g>
                <g transform="matrix(11.5618,0,0,2.93472,-864.167,-1666.66)">
                    <rect x="81.823" y="861.451" width="100.514" height="2.756" style="fill:rgb(51,51,51);stroke-width:0.06px;stroke:black;"/>
                </g>
            </g>
            <g id="Rippe1" transform="matrix(1,0,0,1,0,25.9614)">
                <g transform="matrix(0.934201,0,0,0.945756,5.38543,46.5774)">
                    <path d="M1325.87,861.927C1325.87,860.123 1324.39,858.66 1322.56,858.66L85.153,858.66C83.328,858.66 81.846,860.123 81.846,861.927L81.846,869.691C81.846,871.494 83.328,872.958 85.153,872.958L1322.56,872.958C1324.39,872.958 1325.87,871.494 1325.87,869.691L1325.87,861.927Z" style="fill:rgb(77,77,77);stroke-width:0.53px;stroke:black;"/>
                </g>
                <g transform="matrix(11.5618,0,0,2.93472,-864.167,-1666.66)">
                    <rect x="81.823" y="861.451" width="100.514" height="2.756" style="fill:rgb(51,51,51);stroke-width:0.06px;stroke:black;"/>
                </g>
            </g>
            <g id="Rippe2" transform="matrix(1,0,0,1,0,51.1811)">
                <g transform="matrix(0.934201,0,0,0.945756,5.38543,46.5774)">
                    <path d="M1325.87,861.927C1325.87,860.123 1324.39,858.66 1322.56,858.66L85.153,858.66C83.328,858.66 81.846,860.123 81.846,861.927L81.846,869.691C81.846,871.494 83.328,872.958 85.153,872.958L1322.56,872.958C1324.39,872.958 1325.87,871.494 1325.87,869.691L1325.87,861.927Z" style="fill:rgb(77,77,77);stroke-width:0.53px;stroke:black;"/>
                </g>
                <g transform="matrix(11.5618,0,0,2.93472,-864.167,-1666.66)">
                    <rect x="81.823" y="861.451" width="100.514" height="2.756" style="fill:rgb(51,51,51);stroke-width:0.06px;stroke:black;"/>
                </g>
            </g>
            <g id="Rippe3" transform="matrix(1,0,0,1,0,76.4851)">
                <g transform="matrix(0.934201,0,0,0.945756,5.38543,46.5774)">
                    <path d="M1325.87,861.927C1325.87,860.123 1324.39,858.66 1322.56,858.66L85.153,858.66C83.328,858.66 81.846,860.123 81.846,861.927L81.846,869.691C81.846,871.494 83.328,872.958 85.153,872.958L1322.56,872.958C1324.39,872.958 1325.87,871.494 1325.87,869.691L1325.87,861.927Z" style="fill:rgb(77,77,77);stroke-width:0.53px;stroke:black;"/>
                </g>
                <g transform="matrix(11.5618,0,0,2.93472,-864.167,-1666.66)">
                    <rect x="81.823" y="861.451" width="100.514" height="2.756" style="fill:rgb(51,51,51);stroke-width:0.06px;stroke:black;"/>
                </g>
            </g>
            <g id="Rippe4" transform="matrix(1,0,0,1,0,-24.1256)">
                <g transform="matrix(0.934201,0,0,0.945756,5.38543,46.5774)">
                    <path d="M1325.87,861.927C1325.87,860.123 1324.39,858.66 1322.56,858.66L85.153,858.66C83.328,858.66 81.846,860.123 81.846,861.927L81.846,869.691C81.846,871.494 83.328,872.958 85.153,872.958L1322.56,872.958C1324.39,872.958 1325.87,871.494 1325.87,869.691L1325.87,861.927Z" style="fill:rgb(77,77,77);stroke-width:0.53px;stroke:black;"/>
                </g>
                <g transform="matrix(11.5618,0,0,2.93472,-864.167,-1666.66)">
                    <rect x="81.823" y="861.451" width="100.514" height="2.756" style="fill:rgb(51,51,51);stroke-width:0.06px;stroke:black;"/>
                </g>
            </g>
            <g id="Rippe5" transform="matrix(1,0,0,1,0,101.804)">
                <g transform="matrix(0.934201,0,0,0.945756,5.38543,46.5774)">
                    <path d="M1325.87,861.927C1325.87,860.123 1324.39,858.66 1322.56,858.66L85.153,858.66C83.328,858.66 81.846,860.123 81.846,861.927L81.846,869.691C81.846,871.494 83.328,872.958 85.153,872.958L1322.56,872.958C1324.39,872.958 1325.87,871.494 1325.87,869.691L1325.87,861.927Z" style="fill:rgb(77,77,77);stroke-width:0.53px;stroke:black;"/>
                </g>
                <g transform="matrix(11.5618,0,0,2.93472,-864.167,-1666.66)">
                    <rect x="81.823" y="861.451" width="100.514" height="2.756" style="fill:rgb(51,51,51);stroke-width:0.06px;stroke:black;"/>
                </g>
            </g>
        </g>
        <rect id="Blende" x="263.294" y="845.061" width="800.976" height="117.543" style="fill:rgb(52,59,79);stroke-width:0.5px;stroke:black;"/>
    </g>
    <g transform="matrix(1.26803,0,0,1.26803,248.216,6.92844)">
        <g id="Antennen 1043">
            <g id="new Antenne 1043">
                <path d="M652.036,619.119L703.126,619.119L700.344,526.551L655.39,526.551L652.036,619.119Z" style="fill:rgb(49,49,49);stroke-width:0.39px;stroke-linecap:butt;stroke:black;"/>
                <rect x="665.084" y="199.138" width="27.899" height="28.754" style="fill:rgb(49,49,49);stroke-width:0.39px;stroke-linecap:butt;stroke:black;"/>
                <path d="M649.084,733.319L650.988,616.958C669.108,618.552 687.221,618.824 705.323,616.958L708.576,733.319C708.675,736.851 707.533,740.021 703.908,740.021L654.293,740.021C651.034,740.021 649.022,737.092 649.084,733.319Z" style="fill:rgb(51,51,51);stroke-width:0.39px;stroke-linecap:butt;stroke:black;"/>
                <g transform="matrix(0.909618,0,0,0.788626,86.9669,-5.46395)">
                    <path d="M618.082,936.798L683.33,936.798" style="fill:none;stroke-width:0.46px;stroke:black;"/>
                </g>
                <path d="M650.848,597.162L650.848,612.298C668.997,614.545 687.229,614.718 705.566,612.298L705.566,597.162C687.342,599.115 669.101,598.905 650.848,597.162Z" style="fill:rgb(49,49,49);stroke-width:0.39px;stroke-linecap:butt;stroke:black;"/>
                <path d="M663.141,341.639L694.434,341.639L694.434,223.461L663.746,223.461L663.141,341.639Z" style="fill:rgb(49,49,49);stroke-width:0.39px;stroke-linecap:butt;stroke:black;"/>
                <path d="M651.347,593.426C669.264,594.991 687.044,594.958 704.694,593.426L703.132,552.011C686.546,553.968 669.625,553.864 652.419,552.011L651.347,593.426Z" style="fill:rgb(49,49,49);stroke-width:0.39px;stroke-linecap:butt;stroke:black;"/>
                <path d="M653.079,547.908C669.797,549.558 686.475,549.685 703.103,547.908L702.503,533.319C686.288,534.981 669.99,534.936 653.614,533.319L653.079,547.908Z" style="fill:rgb(49,49,49);stroke-width:0.39px;stroke-linecap:butt;stroke:black;"/>
                <path d="M653.614,529.948C669.993,531.254 686.296,531.355 702.503,529.948L697.191,338.329C685.178,340.346 673.138,340.435 661.07,338.329L653.614,529.948Z" style="fill:rgb(49,49,49);stroke-width:0.39px;stroke-linecap:butt;stroke:black;"/>
                <rect x="663.746" y="205.104" width="30.688" height="14.659" style="fill:rgb(49,49,49);stroke-width:0.39px;stroke-linecap:butt;stroke:black;"/>
                <path d="M663.687,200.966L694.443,200.966L694.443,144.136C688.239,128.631 671.247,128.6 663.687,144.136L663.687,200.966Z" style="fill:rgb(49,49,49);stroke-width:0.39px;stroke-linecap:butt;stroke:black;"/>
            </g>
        </g>
    </g>
    <g id="WAN" transform="matrix(-1,3.67394e-16,-3.67394e-16,-1,1017.98,1889.08)">
        <path d="M430.126,958.534L520.049,958.534L520.049,1035.48L430.126,1035.48L430.126,958.534" style="fill:rgb(0,158,224);stroke-width:1px;stroke:black;"/>
        <path d="M463.538,961.757L487.377,961.757L487.377,969.841L494.601,969.841L494.601,977.802L508.571,977.802L508.571,989.68L513.332,989.68L513.332,1005.6L508.571,1005.6L508.571,1018.27L440.482,1018.27L440.482,1005.6L437.015,1005.6L437.015,989.68L440.482,989.68L440.482,977.802L455.182,977.802L455.182,969.841L463.538,969.841L463.538,961.757" style="fill:rgb(166,229,255);stroke-width:1px;stroke:black;"/>
        <rect x="436.816" y="989.68" width="9.385" height="15.92" style="fill:black;stroke-width:1px;stroke:black;"/>
        <g transform="matrix(1,0,0,1,67.0669,-0.0235958)">
            <rect x="436.816" y="989.68" width="9.385" height="15.92" style="fill:black;stroke-width:1px;stroke:black;"/>
        </g>
        <path d="M450.462,1000.22L450.462,1012.69" style="fill:none;stroke-width:1px;stroke:black;"/>
        <g transform="matrix(1,0,0,1,5.18811,0.142889)">
            <path d="M450.462,1000.22L450.462,1012.69" style="fill:none;stroke-width:1px;stroke:black;"/>
        </g>
        <g transform="matrix(1,0,0,1,10.8216,0.142889)">
            <path d="M450.462,1000.22L450.462,1012.69" style="fill:none;stroke-width:1px;stroke:black;"/>
        </g>
        <g transform="matrix(1,0,0,1,22.0044,0.291919)">
            <path d="M450.462,1000.07L450.462,1012.69" style="fill:none;stroke-width:1px;stroke:black;"/>
        </g>
        <g transform="matrix(1,0,0,1,27.0496,0.291919)">
            <path d="M450.462,1000.05L450.462,1012.69" style="fill:none;stroke-width:1px;stroke:black;"/>
        </g>
        <g transform="matrix(1,0,0,1,49.4509,0.192566)">
            <path d="M450.462,1000.16L450.462,1012.69" style="fill:none;stroke-width:1px;stroke:black;"/>
        </g>
        <path d="M466.922,1000.38L466.922,1018.21" style="fill:none;stroke-width:1px;stroke:black;"/>
        <g transform="matrix(1,0,0,1,16.0399,-0.0558162)">
            <path d="M466.922,1000.41L466.922,1018.27" style="fill:none;stroke-width:1px;stroke:black;"/>
        </g>
        <g transform="matrix(1,0,0,1,21.7443,-0.154611)">
            <path d="M466.922,1000.5L466.922,1018.4" style="fill:none;stroke-width:1px;stroke:black;"/>
        </g>
        <g transform="matrix(1,0,0,1,27.6257,-0.353316)">
            <path d="M466.922,1000.67L466.922,1018.4" style="fill:none;stroke-width:1px;stroke:black;"/>
        </g>
    </g>
    <g id="lan4" transform="matrix(-1,1.22465e-16,-1.22465e-16,-1,1468.05,1888.8)">
        <g transform="matrix(3.73365,0,0,1,-1085.67,-0.000264784)">
            <path d="M430.126,958.534L520.049,958.534L520.049,1035.48L430.126,1035.48L430.126,958.534" style="fill:rgb(255,180,0);stroke-width:0.37px;stroke:black;"/>
        </g>
        <g transform="matrix(1,0,0,1,93.3029,-0.747357)">
            <path d="M463.538,961.757L487.377,961.757L487.377,969.841L494.601,969.841L494.601,977.802L508.571,977.802L508.571,989.68L513.332,989.68L513.332,1005.6L508.571,1005.6L508.571,1018.27L440.482,1018.27L440.482,1005.6L437.015,1005.6L437.015,989.68L440.482,989.68L440.482,977.802L455.182,977.802L455.182,969.841L463.538,969.841L463.538,961.757" style="fill:rgb(255,225,153);stroke-width:1px;stroke:black;"/>
        </g>
        <g transform="matrix(1,0,0,1,172.876,-0.661805)">
            <path d="M463.538,961.757L487.377,961.757L487.377,969.841L494.601,969.841L494.601,977.802L508.571,977.802L508.571,989.68L513.332,989.68L513.332,1005.6L508.571,1005.6L508.571,1018.27L440.482,1018.27L440.482,1005.6L437.015,1005.6L437.015,989.68L440.482,989.68L440.482,977.802L455.182,977.802L455.182,969.841L463.538,969.841L463.538,961.757" style="fill:rgb(255,225,153);stroke-width:1px;stroke:black;"/>
        </g>
        <g transform="matrix(1,0,0,1,252.488,-0.755912)">
            <path d="M463.538,961.757L487.377,961.757L487.377,969.841L494.601,969.841L494.601,977.802L508.571,977.802L508.571,989.68L513.332,989.68L513.332,1005.6L508.571,1005.6L508.571,1018.27L440.482,1018.27L440.482,1005.6L437.015,1005.6L437.015,989.68L440.482,989.68L440.482,977.802L455.182,977.802L455.182,969.841L463.538,969.841L463.538,961.757" style="fill:rgb(255,225,153);stroke-width:1px;stroke:black;"/>
        </g>
        <g transform="matrix(1,0,0,1,332.053,-0.509522)">
            <path d="M463.538,961.757L487.377,961.757L487.377,969.841L494.601,969.841L494.601,977.802L508.571,977.802L508.571,989.68L513.332,989.68L513.332,1005.6L508.571,1005.6L508.571,1018.27L440.482,1018.27L440.482,1005.6L437.015,1005.6L437.015,989.68L440.482,989.68L440.482,977.802L455.182,977.802L455.182,969.841L463.538,969.841L463.538,961.757" style="fill:rgb(255,225,153);stroke-width:1px;stroke:black;"/>
        </g>
        <g transform="matrix(1,0,0,1,93.3029,-0.747357)">
            <rect x="436.816" y="989.68" width="9.385" height="15.92" style="fill:black;stroke-width:1px;stroke:black;"/>
        </g>
        <g transform="matrix(1,0,0,1,172.876,-0.661805)">
            <rect x="436.816" y="989.68" width="9.385" height="15.92" style="fill:black;stroke-width:1px;stroke:black;"/>
        </g>
        <g transform="matrix(1,0,0,1,252.488,-0.755912)">
            <rect x="436.816" y="989.68" width="9.385" height="15.92" style="fill:black;stroke-width:1px;stroke:black;"/>
        </g>
        <g transform="matrix(1,0,0,1,332.053,-0.509522)">
            <rect x="436.816" y="989.68" width="9.385" height="15.92" style="fill:black;stroke-width:1px;stroke:black;"/>
        </g>
        <g transform="matrix(1,0,0,1,160.37,-0.770952)">
            <rect x="436.816" y="989.68" width="9.385" height="15.92" style="fill:black;stroke-width:1px;stroke:black;"/>
        </g>
        <g transform="matrix(1,0,0,1,239.942,-0.685401)">
            <rect x="436.816" y="989.68" width="9.385" height="15.92" style="fill:black;stroke-width:1px;stroke:black;"/>
        </g>
        <g transform="matrix(1,0,0,1,319.555,-0.779508)">
            <rect x="436.816" y="989.68" width="9.385" height="15.92" style="fill:black;stroke-width:1px;stroke:black;"/>
        </g>
        <g transform="matrix(1,0,0,1,399.12,-0.533118)">
            <rect x="436.816" y="989.68" width="9.385" height="15.92" style="fill:black;stroke-width:1px;stroke:black;"/>
        </g>
        <g transform="matrix(1,0,0,1,93.3029,-0.747357)">
            <path d="M450.462,1000.22L450.462,1012.69" style="fill:none;stroke-width:1px;stroke:black;"/>
        </g>
        <g transform="matrix(1,0,0,1,172.876,-0.661805)">
            <path d="M450.462,1000.22L450.462,1012.69" style="fill:none;stroke-width:1px;stroke:black;"/>
        </g>
        <g transform="matrix(1,0,0,1,252.488,-0.755912)">
            <path d="M450.462,1000.22L450.462,1012.69" style="fill:none;stroke-width:1px;stroke:black;"/>
        </g>
        <g transform="matrix(1,0,0,1,332.053,-0.509522)">
            <path d="M450.462,1000.22L450.462,1012.69" style="fill:none;stroke-width:1px;stroke:black;"/>
        </g>
        <g transform="matrix(1,0,0,1,98.491,-0.604467)">
            <path d="M450.462,1000.22L450.462,1012.69" style="fill:none;stroke-width:1px;stroke:black;"/>
        </g>
        <g transform="matrix(1,0,0,1,178.064,-0.518915)">
            <path d="M450.462,1000.22L450.462,1012.69" style="fill:none;stroke-width:1px;stroke:black;"/>
        </g>
        <g transform="matrix(1,0,0,1,257.676,-0.613022)">
            <path d="M450.462,1000.22L450.462,1012.69" style="fill:none;stroke-width:1px;stroke:black;"/>
        </g>
        <g transform="matrix(1,0,0,1,337.242,-0.366633)">
            <path d="M450.462,1000.22L450.462,1012.69" style="fill:none;stroke-width:1px;stroke:black;"/>
        </g>
        <g transform="matrix(1,0,0,1,104.125,-0.604467)">
            <path d="M450.462,1000.22L450.462,1012.69" style="fill:none;stroke-width:1px;stroke:black;"/>
        </g>
        <g transform="matrix(1,0,0,1,183.697,-0.518915)">
            <path d="M450.462,1000.22L450.462,1012.69" style="fill:none;stroke-width:1px;stroke:black;"/>
        </g>
        <g transform="matrix(1,0,0,1,263.309,-0.613022)">
            <path d="M450.462,1000.22L450.462,1012.69" style="fill:none;stroke-width:1px;stroke:black;"/>
        </g>
        <g transform="matrix(1,0,0,1,342.875,-0.366633)">
            <path d="M450.462,1000.22L450.462,1012.69" style="fill:none;stroke-width:1px;stroke:black;"/>
        </g>
        <g transform="matrix(1,0,0,1,115.307,-0.455438)">
            <path d="M450.462,1000.07L450.462,1012.69" style="fill:none;stroke-width:1px;stroke:black;"/>
        </g>
        <g transform="matrix(1,0,0,1,194.88,-0.369886)">
            <path d="M450.462,1000.07L450.462,1012.69" style="fill:none;stroke-width:1px;stroke:black;"/>
        </g>
        <g transform="matrix(1,0,0,1,274.492,-0.463993)">
            <path d="M450.462,1000.07L450.462,1012.69" style="fill:none;stroke-width:1px;stroke:black;"/>
        </g>
        <g transform="matrix(1,0,0,1,354.058,-0.217604)">
            <path d="M450.462,1000.07L450.462,1012.69" style="fill:none;stroke-width:1px;stroke:black;"/>
        </g>
        <g transform="matrix(1,0,0,1,120.353,-0.455438)">
            <path d="M450.462,1000.05L450.462,1012.69" style="fill:none;stroke-width:1px;stroke:black;"/>
        </g>
        <g transform="matrix(1,0,0,1,199.925,-0.369886)">
            <path d="M450.462,1000.05L450.462,1012.69" style="fill:none;stroke-width:1px;stroke:black;"/>
        </g>
        <g transform="matrix(1,0,0,1,279.537,-0.463993)">
            <path d="M450.462,1000.05L450.462,1012.69" style="fill:none;stroke-width:1px;stroke:black;"/>
        </g>
        <g transform="matrix(1,0,0,1,359.103,-0.217604)">
            <path d="M450.462,1000.05L450.462,1012.69" style="fill:none;stroke-width:1px;stroke:black;"/>
        </g>
        <g transform="matrix(1,0,0,1,142.754,-0.554791)">
            <path d="M450.462,1000.16L450.462,1012.69" style="fill:none;stroke-width:1px;stroke:black;"/>
        </g>
        <g transform="matrix(1,0,0,1,222.326,-0.469239)">
            <path d="M450.462,1000.16L450.462,1012.69" style="fill:none;stroke-width:1px;stroke:black;"/>
        </g>
        <g transform="matrix(1,0,0,1,301.939,-0.563346)">
            <path d="M450.462,1000.16L450.462,1012.69" style="fill:none;stroke-width:1px;stroke:black;"/>
        </g>
        <g transform="matrix(1,0,0,1,381.504,-0.316957)">
            <path d="M450.462,1000.16L450.462,1012.69" style="fill:none;stroke-width:1px;stroke:black;"/>
        </g>
        <g transform="matrix(1,0,0,1,93.3029,-0.747357)">
            <path d="M466.922,1000.38L466.922,1018.21" style="fill:none;stroke-width:1px;stroke:black;"/>
        </g>
        <g transform="matrix(1,0,0,1,172.876,-0.661805)">
            <path d="M466.922,1000.38L466.922,1018.21" style="fill:none;stroke-width:1px;stroke:black;"/>
        </g>
        <g transform="matrix(1,0,0,1,252.488,-0.755912)">
            <path d="M466.922,1000.38L466.922,1018.21" style="fill:none;stroke-width:1px;stroke:black;"/>
        </g>
        <g transform="matrix(1,0,0,1,332.053,-0.509522)">
            <path d="M466.922,1000.38L466.922,1018.21" style="fill:none;stroke-width:1px;stroke:black;"/>
        </g>
        <g transform="matrix(1,0,0,1,109.343,-0.803173)">
            <path d="M466.922,1000.41L466.922,1018.27" style="fill:none;stroke-width:1px;stroke:black;"/>
        </g>
        <g transform="matrix(1,0,0,1,188.915,-0.717621)">
            <path d="M466.922,1000.41L466.922,1018.27" style="fill:none;stroke-width:1px;stroke:black;"/>
        </g>
        <g transform="matrix(1,0,0,1,268.528,-0.811728)">
            <path d="M466.922,1000.41L466.922,1018.27" style="fill:none;stroke-width:1px;stroke:black;"/>
        </g>
        <g transform="matrix(1,0,0,1,348.093,-0.565338)">
            <path d="M466.922,1000.41L466.922,1018.27" style="fill:none;stroke-width:1px;stroke:black;"/>
        </g>
        <g transform="matrix(1,0,0,1,115.047,-0.901967)">
            <path d="M466.922,1000.5L466.922,1018.4" style="fill:none;stroke-width:1px;stroke:black;"/>
        </g>
        <g transform="matrix(1,0,0,1,194.62,-0.816415)">
            <path d="M466.922,1000.5L466.922,1018.4" style="fill:none;stroke-width:1px;stroke:black;"/>
        </g>
        <g transform="matrix(1,0,0,1,274.232,-0.910523)">
            <path d="M466.922,1000.5L466.922,1018.4" style="fill:none;stroke-width:1px;stroke:black;"/>
        </g>
        <g transform="matrix(1,0,0,1,353.798,-0.664133)">
            <path d="M466.922,1000.5L466.922,1018.4" style="fill:none;stroke-width:1px;stroke:black;"/>
        </g>
        <g transform="matrix(1,0,0,1,120.929,-1.10067)">
            <path d="M466.922,1000.67L466.922,1018.4" style="fill:none;stroke-width:1px;stroke:black;"/>
        </g>
        <g transform="matrix(1,0,0,1,200.501,-1.01512)">
            <path d="M466.922,1000.67L466.922,1018.4" style="fill:none;stroke-width:1px;stroke:black;"/>
        </g>
        <g transform="matrix(1,0,0,1,280.113,-1.10923)">
            <path d="M466.922,1000.67L466.922,1018.4" style="fill:none;stroke-width:1px;stroke:black;"/>
        </g>
        <g transform="matrix(1,0,0,1,359.679,-0.862839)">
            <path d="M466.922,1000.67L466.922,1018.4" style="fill:none;stroke-width:1px;stroke:black;"/>
        </g>
    </g>
    <g id="Power" transform="matrix(1,0,0,1,-71.1236,-108.884)">
        <rect x="360.529" y="973.018" width="50.745" height="61.322" style="fill:rgb(72,72,74);stroke-width:3.5px;stroke:black;"/>
        <g transform="matrix(1,0,0,1,-0.754159,0.503051)">
            <ellipse cx="387.025" cy="998.035" rx="16.88" ry="17.207" style="fill:rgb(72,72,74);stroke-width:1px;stroke:black;"/>
        </g>
        <ellipse cx="386.992" cy="998.717" rx="8.879" ry="8.391" style="fill:rgb(99,100,102);stroke-width:1px;stroke:black;"/>
        <g transform="matrix(1,0,0,1,-0.111324,-0.214278)">
            <ellipse cx="387.249" cy="998.987" rx="5.203" ry="5.065" style="fill:rgb(216,217,218);stroke-width:3px;stroke:rgb(58,57,59);"/>
        </g>
        <path d="M378.699,1011.21L394.491,1011.21L394.491,1012.99L392.11,1014.15L380.447,1014.15L378.699,1013.38L378.699,1011.21Z" style="fill:rgb(47,45,46);stroke-width:0.1px;stroke:rgb(35,31,32);"/>
    </g>
    <g transform="matrix(1.10209,0,0,1.10209,33.1088,-209.55)">
        <g id="reset">
            <ellipse cx="882.113" cy="1013.72" rx="10.926" ry="10.594" style="fill:black;stroke-width:5.9px;stroke:rgb(204,204,204);"/>
        </g>
    </g>
    <g transform="matrix(0.89,0,0,1,-525.057,-26.4605)">
        <path d="M920.807,979.725L920.807,968.272L925.128,968.272C925.888,968.272 926.469,968.308 926.87,968.381C927.432,968.475 927.904,968.653 928.284,968.916C928.664,969.18 928.97,969.548 929.202,970.022C929.434,970.496 929.55,971.017 929.55,971.584C929.55,972.558 929.24,973.383 928.62,974.057C928,974.732 926.88,975.069 925.261,975.069L922.323,975.069L922.323,979.725L920.807,979.725ZM922.323,973.717L925.284,973.717C926.263,973.717 926.958,973.535 927.37,973.17C927.781,972.806 927.987,972.293 927.987,971.631C927.987,971.152 927.866,970.742 927.624,970.401C927.382,970.06 927.063,969.834 926.667,969.725C926.412,969.657 925.94,969.624 925.253,969.624L922.323,969.624L922.323,973.717Z" style="fill:rgb(216,218,217);fill-rule:nonzero;"/>
        <path d="M931.018,974.147C931.018,972.246 931.529,970.758 932.55,969.682C933.57,968.607 934.888,968.069 936.503,968.069C937.56,968.069 938.513,968.321 939.362,968.827C940.211,969.332 940.858,970.036 941.303,970.94C941.749,971.844 941.971,972.868 941.971,974.014C941.971,975.176 941.737,976.215 941.268,977.131C940.8,978.048 940.136,978.742 939.276,979.213C938.417,979.685 937.49,979.92 936.495,979.92C935.417,979.92 934.453,979.66 933.604,979.139C932.755,978.618 932.112,977.907 931.675,977.006C931.237,976.105 931.018,975.152 931.018,974.147ZM932.581,974.17C932.581,975.551 932.952,976.638 933.694,977.432C934.436,978.226 935.367,978.624 936.487,978.624C937.628,978.624 938.567,978.222 939.303,977.42C940.04,976.618 940.409,975.48 940.409,974.006C940.409,973.074 940.251,972.26 939.936,971.565C939.621,970.87 939.16,970.331 938.553,969.948C937.947,969.565 937.266,969.374 936.511,969.374C935.438,969.374 934.514,969.742 933.741,970.479C932.968,971.216 932.581,972.446 932.581,974.17Z" style="fill:rgb(216,218,217);fill-rule:nonzero;"/>
        <path d="M945.925,979.725L942.886,968.272L944.44,968.272L946.182,975.78C946.37,976.566 946.531,977.347 946.667,978.124C946.958,976.9 947.13,976.194 947.182,976.006L949.362,968.272L951.19,968.272L952.831,974.069C953.242,975.506 953.539,976.858 953.721,978.124C953.867,977.4 954.057,976.569 954.292,975.631L956.089,968.272L957.612,968.272L954.471,979.725L953.011,979.725L950.596,970.999C950.393,970.269 950.274,969.821 950.237,969.655C950.117,970.181 950.005,970.629 949.901,970.999L947.471,979.725L945.925,979.725Z" style="fill:rgb(216,218,217);fill-rule:nonzero;"/>
        <path d="M959.057,979.725L959.057,968.272L967.339,968.272L967.339,969.624L960.573,969.624L960.573,973.131L966.909,973.131L966.909,974.475L960.573,974.475L960.573,978.374L967.604,978.374L967.604,979.725L959.057,979.725Z" style="fill:rgb(216,218,217);fill-rule:nonzero;"/>
        <path d="M969.721,979.725L969.721,968.272L974.8,968.272C975.82,968.272 976.596,968.375 977.128,968.581C977.659,968.786 978.083,969.15 978.401,969.67C978.719,970.191 978.878,970.767 978.878,971.397C978.878,972.209 978.615,972.894 978.089,973.452C977.563,974.009 976.75,974.363 975.651,974.514C976.052,974.707 976.357,974.897 976.565,975.084C977.008,975.491 977.427,975.999 977.823,976.608L979.815,979.725L977.909,979.725L976.393,977.342C975.951,976.655 975.586,976.129 975.3,975.764C975.013,975.4 974.757,975.144 974.53,974.999C974.303,974.853 974.073,974.751 973.839,974.694C973.667,974.657 973.386,974.639 972.995,974.639L971.237,974.639L971.237,979.725L969.721,979.725ZM971.237,973.327L974.495,973.327C975.188,973.327 975.729,973.255 976.12,973.112C976.511,972.969 976.807,972.739 977.011,972.424C977.214,972.109 977.315,971.767 977.315,971.397C977.315,970.855 977.119,970.41 976.725,970.061C976.332,969.712 975.711,969.538 974.862,969.538L971.237,969.538L971.237,973.327Z" style="fill:rgb(216,218,217);fill-rule:nonzero;"/>
        <path d="M1187.73,979.725L1184.69,968.272L1186.25,968.272L1187.99,975.78C1188.18,976.566 1188.34,977.347 1188.47,978.124C1188.76,976.9 1188.94,976.194 1188.99,976.006L1191.17,968.272L1193,968.272L1194.64,974.069C1195.05,975.506 1195.35,976.858 1195.53,978.124C1195.67,977.4 1195.86,976.569 1196.1,975.631L1197.89,968.272L1199.42,968.272L1196.28,979.725L1194.82,979.725L1192.4,970.999C1192.2,970.269 1192.08,969.821 1192.04,969.655C1191.92,970.181 1191.81,970.629 1191.71,970.999L1189.28,979.725L1187.73,979.725Z" style="fill:rgb(216,218,217);fill-rule:nonzero;"/>
        <path d="M1198.91,979.725L1203.31,968.272L1204.94,968.272L1209.63,979.725L1207.9,979.725L1206.56,976.256L1201.77,976.256L1200.52,979.725L1198.91,979.725ZM1202.21,975.022L1206.1,975.022L1204.9,971.85C1204.54,970.887 1204.26,970.095 1204.09,969.475C1203.94,970.209 1203.74,970.939 1203.47,971.663L1202.21,975.022Z" style="fill:rgb(216,218,217);fill-rule:nonzero;"/>
        <path d="M1210.82,979.725L1210.82,968.272L1212.38,968.272L1218.39,977.264L1218.39,968.272L1219.85,968.272L1219.85,979.725L1218.29,979.725L1212.27,970.725L1212.27,979.725L1210.82,979.725Z" style="fill:rgb(216,218,217);fill-rule:nonzero;"/>
        <path d="M1333.68,979.725L1333.68,976.983L1328.72,976.983L1328.72,975.694L1333.94,968.272L1335.09,968.272L1335.09,975.694L1336.64,975.694L1336.64,976.983L1335.09,976.983L1335.09,979.725L1333.68,979.725ZM1333.68,975.694L1333.68,970.53L1330.1,975.694L1333.68,975.694Z" style="fill:rgb(216,218,217);fill-rule:nonzero;"/>
        <path d="M1418.97,976.702L1420.38,976.514C1420.54,977.311 1420.82,977.885 1421.2,978.237C1421.59,978.588 1422.07,978.764 1422.62,978.764C1423.28,978.764 1423.84,978.535 1424.3,978.077C1424.75,977.618 1424.98,977.051 1424.98,976.374C1424.98,975.728 1424.77,975.195 1424.35,974.776C1423.93,974.357 1423.39,974.147 1422.74,974.147C1422.47,974.147 1422.14,974.199 1421.75,974.303L1421.9,973.069C1422,973.079 1422.07,973.084 1422.13,973.084C1422.73,973.084 1423.27,972.928 1423.75,972.616C1424.23,972.303 1424.47,971.821 1424.47,971.17C1424.47,970.655 1424.29,970.228 1423.94,969.889C1423.59,969.551 1423.14,969.381 1422.59,969.381C1422.04,969.381 1421.59,969.553 1421.22,969.897C1420.86,970.241 1420.62,970.756 1420.52,971.444L1419.12,971.194C1419.29,970.251 1419.68,969.521 1420.29,969.002C1420.9,968.484 1421.65,968.225 1422.56,968.225C1423.18,968.225 1423.76,968.359 1424.29,968.627C1424.81,968.896 1425.21,969.262 1425.49,969.725C1425.77,970.189 1425.91,970.681 1425.91,971.202C1425.91,971.696 1425.78,972.147 1425.51,972.553C1425.25,972.959 1424.85,973.282 1424.33,973.522C1425.01,973.678 1425.54,974.002 1425.91,974.495C1426.29,974.987 1426.47,975.603 1426.47,976.342C1426.47,977.342 1426.11,978.19 1425.38,978.885C1424.65,979.581 1423.73,979.928 1422.62,979.928C1421.61,979.928 1420.78,979.629 1420.11,979.03C1419.45,978.431 1419.07,977.655 1418.97,976.702Z" style="fill:rgb(216,218,217);fill-rule:nonzero;"/>
        <path d="M1516.15,978.374L1516.15,979.725L1508.58,979.725C1508.57,979.387 1508.62,979.061 1508.74,978.749C1508.93,978.233 1509.24,977.725 1509.67,977.225C1510.09,976.725 1510.7,976.147 1511.51,975.491C1512.75,974.47 1513.59,973.661 1514.03,973.065C1514.47,972.469 1514.68,971.905 1514.68,971.374C1514.68,970.816 1514.49,970.346 1514.09,969.963C1513.69,969.581 1513.17,969.389 1512.53,969.389C1511.85,969.389 1511.31,969.592 1510.9,969.999C1510.5,970.405 1510.29,970.967 1510.29,971.686L1508.84,971.538C1508.94,970.459 1509.31,969.638 1509.96,969.073C1510.61,968.508 1511.47,968.225 1512.56,968.225C1513.66,968.225 1514.53,968.53 1515.17,969.139C1515.81,969.749 1516.13,970.504 1516.13,971.405C1516.13,971.863 1516.04,972.314 1515.85,972.756C1515.66,973.199 1515.35,973.665 1514.92,974.155C1514.48,974.644 1513.76,975.316 1512.75,976.17C1511.9,976.879 1511.36,977.359 1511.12,977.612C1510.88,977.864 1510.68,978.118 1510.53,978.374L1516.15,978.374Z" style="fill:rgb(216,218,217);fill-rule:nonzero;"/>
        <path d="M1603.84,979.725L1602.44,979.725L1602.44,970.764C1602.1,971.087 1601.65,971.41 1601.1,971.733C1600.55,972.056 1600.06,972.298 1599.62,972.459L1599.62,971.1C1600.41,970.73 1601.1,970.282 1601.69,969.756C1602.27,969.23 1602.69,968.72 1602.94,968.225L1603.84,968.225L1603.84,979.725Z" style="fill:rgb(216,218,217);fill-rule:nonzero;"/>
        <path d="M1693.82,979.725L1693.82,968.272L1698.89,968.272C1699.91,968.272 1700.69,968.375 1701.22,968.581C1701.75,968.786 1702.18,969.15 1702.5,969.67C1702.81,970.191 1702.97,970.767 1702.97,971.397C1702.97,972.209 1702.71,972.894 1702.18,973.452C1701.66,974.009 1700.84,974.363 1699.75,974.514C1700.15,974.707 1700.45,974.897 1700.66,975.084C1701.1,975.491 1701.52,975.999 1701.92,976.608L1703.91,979.725L1702,979.725L1700.49,977.342C1700.05,976.655 1699.68,976.129 1699.39,975.764C1699.11,975.4 1698.85,975.144 1698.62,974.999C1698.4,974.853 1698.17,974.751 1697.93,974.694C1697.76,974.657 1697.48,974.639 1697.09,974.639L1695.33,974.639L1695.33,979.725L1693.82,979.725ZM1695.33,973.327L1698.59,973.327C1699.28,973.327 1699.82,973.255 1700.21,973.112C1700.61,972.969 1700.9,972.739 1701.11,972.424C1701.31,972.109 1701.41,971.767 1701.41,971.397C1701.41,970.855 1701.21,970.41 1700.82,970.061C1700.43,969.712 1699.81,969.538 1698.96,969.538L1695.33,969.538L1695.33,973.327Z" style="fill:rgb(216,218,217);fill-rule:nonzero;"/>
        <path d="M1705.38,979.725L1705.38,968.272L1713.66,968.272L1713.66,969.624L1706.89,969.624L1706.89,973.131L1713.23,973.131L1713.23,974.475L1706.89,974.475L1706.89,978.374L1713.92,978.374L1713.92,979.725L1705.38,979.725Z" style="fill:rgb(216,218,217);fill-rule:nonzero;"/>
        <path d="M1715.5,976.045L1716.93,975.92C1717,976.493 1717.16,976.963 1717.4,977.331C1717.65,977.698 1718.04,977.995 1718.56,978.221C1719.08,978.448 1719.66,978.561 1720.32,978.561C1720.89,978.561 1721.4,978.475 1721.85,978.303C1722.29,978.131 1722.62,977.896 1722.84,977.596C1723.05,977.297 1723.16,976.97 1723.16,976.616C1723.16,976.256 1723.06,975.943 1722.85,975.674C1722.64,975.406 1722.3,975.181 1721.82,974.999C1721.51,974.879 1720.83,974.693 1719.78,974.44C1718.72,974.187 1717.99,973.949 1717.57,973.725C1717.02,973.439 1716.61,973.083 1716.34,972.659C1716.08,972.234 1715.94,971.759 1715.94,971.233C1715.94,970.655 1716.11,970.114 1716.43,969.612C1716.76,969.109 1717.24,968.728 1717.87,968.467C1718.5,968.207 1719.2,968.077 1719.97,968.077C1720.82,968.077 1721.57,968.213 1722.22,968.487C1722.87,968.76 1723.37,969.163 1723.71,969.694C1724.06,970.225 1724.25,970.827 1724.28,971.499L1722.82,971.608C1722.75,970.884 1722.48,970.337 1722.03,969.967C1721.58,969.597 1720.91,969.413 1720.03,969.413C1719.12,969.413 1718.45,969.581 1718.03,969.916C1717.61,970.252 1717.4,970.657 1717.4,971.131C1717.4,971.543 1717.55,971.881 1717.85,972.147C1718.14,972.413 1718.9,972.685 1720.13,972.963C1721.36,973.242 1722.21,973.486 1722.67,973.694C1723.33,974.001 1723.83,974.39 1724.14,974.862C1724.46,975.333 1724.62,975.876 1724.62,976.491C1724.62,977.1 1724.45,977.674 1724.1,978.213C1723.75,978.752 1723.25,979.172 1722.59,979.471C1721.94,979.771 1721.2,979.92 1720.39,979.92C1719.35,979.92 1718.48,979.769 1717.78,979.467C1717.08,979.165 1716.53,978.711 1716.13,978.104C1715.73,977.497 1715.52,976.811 1715.5,976.045Z" style="fill:rgb(216,218,217);fill-rule:nonzero;"/>
        <path d="M1726.72,979.725L1726.72,968.272L1735,968.272L1735,969.624L1728.24,969.624L1728.24,973.131L1734.57,973.131L1734.57,974.475L1728.24,974.475L1728.24,978.374L1735.27,978.374L1735.27,979.725L1726.72,979.725Z" style="fill:rgb(216,218,217);fill-rule:nonzero;"/>
        <path d="M1740.28,979.725L1740.28,969.624L1736.5,969.624L1736.5,968.272L1745.58,968.272L1745.58,969.624L1741.79,969.624L1741.79,979.725L1740.28,979.725Z" style="fill:rgb(216,218,217);fill-rule:nonzero;"/>
    </g>
</svg>
