<?xml version="1.0" standalone="no"?>
<!DOCTYPE svg PUBLIC "-//W3C//DTD SVG 1.1//EN" "http://www.w3.org/Graphics/SVG/1.1/DTD/svg11.dtd">
<svg width="100%" height="100%" viewBox="0 0 1280 1150" version="1.1" xmlns="http://www.w3.org/2000/svg" xmlns:xlink="http://www.w3.org/1999/xlink" xml:space="preserve" style="fill-rule:evenodd;clip-rule:evenodd;stroke-linecap:round;stroke-linejoin:round;stroke-miterlimit:1.41421;">
    <g id="Ebene1" transform="matrix(1.20378,0,0,1.20378,-153.995,-586.94)">
        <g>
            <g transform="matrix(0.83072,0,0,0.83072,127.927,703.4)">
                <path d="M549.672,605.265C661.55,645.087 643.933,640.787 760.247,593.529L1053.92,469.793C1096.42,451.885 1098.96,447.346 1098.96,433.652L1098.96,192.281L1046.38,221.521L760.247,337.775C646.655,383.928 661.762,386.332 549.672,345.47C503.109,330.309 156.469,199.377 156.469,199.377L156.469,441.527C156.469,454.709 165.767,460.343 190.801,469.793L549.672,605.265Z" style="fill:white;stroke-width:3px;stroke:black;"/>
            </g>
            <g transform="matrix(0.83072,0,0,0.83072,127.927,487.582)">
                <path d="M549.672,605.265C661.55,645.087 643.933,644.829 760.247,597.571L1055.7,477.53C1119.26,451.705 1107.18,448.548 1055.7,432.1L666.324,307.702C619.678,292.799 585.477,301.664 549.672,314.304L190.801,440.999C145.492,456.994 144.56,461.072 190.801,477.53L549.672,605.265Z" style="fill:white;stroke-width:3px;stroke:black;"/>
            </g>
            <g transform="matrix(0.83072,0,0,0.83072,127.927,487.582)">
                <path d="M593.607,605.265C652.953,626.557 668.073,615.408 712.531,597.571L1011.72,477.53C1087.23,447.236 1087.59,453.569 1020.2,432.1L657.625,316.587C618.093,303.993 591.854,310.006 549.672,324.999L223.318,440.999C169.626,460.083 172.262,454.098 237.576,477.53L593.607,605.265Z" style="fill:white;stroke-width:3px;stroke:black;"/>
            </g>
        </g>
        <g transform="matrix(0.648598,0.257394,0.00243461,0.894709,286.958,422.648)">
            <path d="M54.278,711.562L48.88,691.218L51.642,691.218L54.736,704.554C55.069,705.951 55.356,707.339 55.597,708.717C56.115,706.543 56.42,705.289 56.512,704.956L60.384,691.218L63.631,691.218L66.546,701.515C67.277,704.068 67.804,706.469 68.128,708.717C68.387,707.431 68.724,705.956 69.141,704.29L72.332,691.218L75.038,691.218L69.46,711.562L66.865,711.562L62.577,696.061C62.216,694.766 62.003,693.97 61.938,693.674C61.726,694.609 61.527,695.404 61.342,696.061L57.026,711.562L54.278,711.562Z" style="fill:black;fill-rule:nonzero;"/>
            <path d="M74.06,711.562L81.873,691.218L84.774,691.218L93.1,711.562L90.033,711.562L87.66,705.4L79.153,705.4L76.919,711.562L74.06,711.562ZM79.931,703.208L86.828,703.208L84.704,697.574C84.057,695.862 83.576,694.456 83.261,693.355C83.002,694.66 82.637,695.955 82.165,697.241L79.931,703.208Z" style="fill:black;fill-rule:nonzero;"/>
            <path d="M95.223,711.562L95.223,691.218L97.985,691.218L108.67,707.191L108.67,691.218L111.251,691.218L111.251,711.562L108.49,711.562L97.804,695.575L97.804,711.562L95.223,711.562Z" style="fill:black;fill-rule:nonzero;"/>
            <path d="M218.66,711.562L218.66,691.218L221.352,691.218L221.352,709.161L231.371,709.161L231.371,711.562L218.66,711.562Z" style="fill:black;fill-rule:nonzero;"/>
            <path d="M232.343,711.562L240.155,691.218L243.056,691.218L251.382,711.562L248.315,711.562L245.942,705.4L237.435,705.4L235.201,711.562L232.343,711.562ZM238.213,703.208L245.11,703.208L242.986,697.574C242.339,695.862 241.858,694.456 241.543,693.355C241.284,694.66 240.919,695.955 240.447,697.241L238.213,703.208Z" style="fill:black;fill-rule:nonzero;"/>
            <path d="M253.505,711.562L253.505,691.218L256.267,691.218L266.952,707.191L266.952,691.218L269.533,691.218L269.533,711.562L266.772,711.562L256.086,695.575L256.086,711.562L253.505,711.562Z" style="fill:black;fill-rule:nonzero;"/>
            <path d="M400.166,691.218L402.858,691.218L402.858,702.972C402.858,705.017 402.626,706.64 402.164,707.843C401.701,709.046 400.866,710.024 399.659,710.778C398.452,711.532 396.867,711.909 394.906,711.909C393,711.909 391.441,711.58 390.229,710.924C389.017,710.267 388.152,709.316 387.634,708.072C387.116,706.828 386.857,705.128 386.857,702.972L386.857,691.218L389.549,691.218L389.549,702.958C389.549,704.725 389.714,706.027 390.042,706.865C390.371,707.702 390.935,708.347 391.735,708.8C392.535,709.254 393.514,709.48 394.67,709.48C396.65,709.48 398.061,709.032 398.903,708.134C399.745,707.237 400.166,705.512 400.166,702.958L400.166,691.218Z" style="fill:black;fill-rule:nonzero;"/>
            <path d="M406.424,705.026L408.964,704.804C409.084,705.821 409.364,706.656 409.803,707.309C410.243,707.961 410.925,708.488 411.85,708.891C412.775,709.293 413.816,709.494 414.972,709.494C415.999,709.494 416.906,709.342 417.692,709.036C418.479,708.731 419.064,708.312 419.448,707.78C419.832,707.248 420.024,706.668 420.024,706.039C420.024,705.4 419.839,704.843 419.469,704.367C419.099,703.89 418.488,703.49 417.637,703.166C417.091,702.953 415.884,702.623 414.015,702.174C412.146,701.725 410.837,701.302 410.088,700.904C409.116,700.395 408.392,699.764 407.916,699.01C407.439,698.256 407.201,697.412 407.201,696.477C407.201,695.451 407.493,694.491 408.076,693.598C408.658,692.705 409.509,692.027 410.629,691.565C411.748,691.102 412.993,690.871 414.362,690.871C415.87,690.871 417.2,691.114 418.352,691.6C419.503,692.085 420.389,692.8 421.009,693.744C421.629,694.687 421.962,695.756 422.008,696.949L419.427,697.144C419.288,695.858 418.819,694.886 418.019,694.229C417.218,693.572 416.036,693.244 414.473,693.244C412.845,693.244 411.658,693.542 410.913,694.139C410.169,694.736 409.796,695.455 409.796,696.297C409.796,697.028 410.06,697.629 410.587,698.101C411.105,698.573 412.458,699.056 414.646,699.551C416.834,700.046 418.335,700.479 419.15,700.849C420.334,701.395 421.208,702.086 421.772,702.923C422.337,703.761 422.619,704.725 422.619,705.817C422.619,706.899 422.309,707.919 421.689,708.877C421.069,709.834 420.179,710.579 419.018,711.111C417.857,711.643 416.55,711.909 415.097,711.909C413.256,711.909 411.714,711.641 410.469,711.104C409.225,710.567 408.249,709.76 407.541,708.682C406.834,707.605 406.461,706.386 406.424,705.026Z" style="fill:black;fill-rule:nonzero;"/>
            <path d="M426.185,711.562L426.185,691.218L433.818,691.218C435.372,691.218 436.619,691.424 437.558,691.836C438.497,692.247 439.232,692.881 439.764,693.737C440.296,694.592 440.562,695.488 440.562,696.422C440.562,697.292 440.326,698.11 439.854,698.878C439.382,699.646 438.67,700.266 437.717,700.738C438.948,701.099 439.894,701.714 440.555,702.583C441.217,703.453 441.547,704.48 441.547,705.664C441.547,706.617 441.346,707.503 440.944,708.322C440.541,709.14 440.044,709.772 439.452,710.216C438.86,710.66 438.117,710.995 437.225,711.222C436.332,711.449 435.238,711.562 433.943,711.562L426.185,711.562ZM428.877,699.766L433.277,699.766C434.47,699.766 435.326,699.688 435.844,699.53C436.528,699.327 437.044,698.989 437.391,698.517C437.738,698.046 437.912,697.453 437.912,696.741C437.912,696.066 437.75,695.471 437.426,694.958C437.102,694.444 436.639,694.093 436.038,693.903C435.437,693.714 434.405,693.619 432.943,693.619L428.877,693.619L428.877,699.766ZM428.877,709.161L433.943,709.161C434.812,709.161 435.423,709.129 435.774,709.064C436.394,708.953 436.912,708.768 437.329,708.509C437.745,708.25 438.087,707.873 438.356,707.378C438.624,706.883 438.758,706.312 438.758,705.664C438.758,704.906 438.564,704.246 438.175,703.687C437.787,703.127 437.248,702.734 436.558,702.507C435.869,702.28 434.877,702.167 433.582,702.167L428.877,702.167L428.877,709.161Z" style="fill:black;fill-rule:nonzero;"/>
            <path d="M457.367,709.161L457.367,711.562L443.92,711.562C443.902,710.961 443.999,710.382 444.212,709.827C444.554,708.911 445.102,708.009 445.856,707.121C446.61,706.233 447.7,705.206 449.124,704.041C451.335,702.227 452.83,700.791 453.607,699.732C454.384,698.672 454.772,697.671 454.772,696.727C454.772,695.737 454.418,694.902 453.711,694.222C453.003,693.542 452.08,693.202 450.942,693.202C449.74,693.202 448.777,693.563 448.056,694.285C447.334,695.006 446.969,696.006 446.959,697.282L444.392,697.019C444.568,695.104 445.229,693.644 446.377,692.64C447.524,691.637 449.064,691.135 450.998,691.135C452.95,691.135 454.495,691.676 455.633,692.758C456.771,693.841 457.34,695.182 457.34,696.783C457.34,697.597 457.173,698.397 456.84,699.184C456.507,699.97 455.954,700.798 455.182,701.668C454.409,702.537 453.126,703.731 451.331,705.248C449.832,706.506 448.87,707.359 448.444,707.808C448.019,708.257 447.667,708.708 447.39,709.161L457.367,709.161Z" style="fill:black;fill-rule:nonzero;"/>
            <rect x="461.447" y="708.717" width="2.845" height="2.845" style="fill:black;fill-rule:nonzero;"/>
            <path d="M467.942,701.529C467.942,699.123 468.189,697.187 468.684,695.721C469.179,694.255 469.915,693.124 470.891,692.328C471.867,691.533 473.095,691.135 474.575,691.135C475.667,691.135 476.624,691.354 477.448,691.794C478.271,692.233 478.951,692.867 479.488,693.695C480.024,694.523 480.445,695.531 480.75,696.72C481.056,697.909 481.208,699.512 481.208,701.529C481.208,703.916 480.963,705.842 480.473,707.309C479.983,708.775 479.249,709.908 478.273,710.709C477.297,711.509 476.065,711.909 474.575,711.909C472.614,711.909 471.073,711.206 469.954,709.8C468.613,708.107 467.942,705.35 467.942,701.529ZM470.509,701.529C470.509,704.869 470.9,707.091 471.682,708.197C472.463,709.302 473.428,709.855 474.575,709.855C475.722,709.855 476.687,709.3 477.468,708.19C478.25,707.08 478.641,704.859 478.641,701.529C478.641,698.18 478.25,695.955 477.468,694.854C476.687,693.753 475.713,693.202 474.547,693.202C473.4,693.202 472.484,693.688 471.8,694.66C470.939,695.899 470.509,698.189 470.509,701.529Z" style="fill:black;fill-rule:nonzero;"/>
        </g>
        <g transform="matrix(0.83072,0,0,0.83072,127.927,487.582)">
            <path d="M694.614,337.633L668.205,350.512L705.681,362.723L735.204,350.512L694.614,337.633Z" style="fill:black;stroke-width:0.65px;stroke:white;"/>
        </g>
        <g id="Reset" transform="matrix(0.83072,0,0,0.83072,127.927,487.582)">
            <path d="M872.133,600.27L872.133,723.012C872.133,728.529 871.574,730.233 876.424,728.388L907.486,716.572C911.032,715.223 912.515,714.16 912.675,707.8L915.825,583.245" style="fill:none;stroke-width:2.5px;stroke:black;"/>
        </g>
        <g id="usb">
            <g transform="matrix(0.83072,0,0,0.83072,127.927,487.582)">
                <path d="M783.185,742.33L783.185,761.81L793.206,768.633L835.407,750.757L849.337,733.422L849.337,718.888C849.337,710.063 846.741,711.013 840.478,713.724L787.76,736.544C784.552,737.932 783.185,738.894 783.185,742.33Z" style="fill:rgb(143,143,143);stroke-width:0.8px;stroke:black;"/>
            </g>
            <g transform="matrix(0.83072,0,0,0.83072,127.927,487.582)">
                <path d="M783.185,742.33L783.185,761.706L828.813,742.33L840.478,725.873L840.478,713.724L787.76,736.544C784.552,737.932 783.185,738.894 783.185,742.33Z" style="fill:rgb(93,93,93);stroke-width:0.8px;stroke:black;"/>
            </g>
            <g transform="matrix(0.83072,0,0,0.83072,127.927,487.582)">
                <path d="M783.185,742.33L783.185,753.862L819.427,738.382L829.229,725.873L829.229,718.592L787.76,736.544C784.552,737.932 783.185,738.894 783.185,742.33Z" style="fill:rgb(11,11,11);stroke-width:0.8px;stroke:black;"/>
            </g>
            <g id="USB" transform="matrix(0.83072,0,0,0.83072,127.927,487.582)">
                <path d="M829.179,718.609L829.179,725.785L840.466,725.785L840.466,713.733L829.179,718.609Z" style="fill:rgb(191,191,191);stroke-width:0.8px;stroke:black;"/>
            </g>
        </g>
        <g id="usb1">
            <g transform="matrix(0.83072,0,0,0.83072,127.927,487.582)">
                <path d="M484.757,684.321L484.757,752.104L608.844,799.389L608.844,728.815L484.757,684.321Z" style="fill:rgb(123,123,123);stroke-width:3px;stroke:black;"/>
            </g>
            <g transform="matrix(0.83072,0,0,0.83072,127.927,487.582)">
                <path d="M493.361,688.789L493.361,746.384L607.112,789.068L607.112,729.455L493.361,688.789Z" style="fill:rgb(14,14,14);stroke-width:0.8px;stroke:black;"/>
            </g>
            <g transform="matrix(0.83072,0,0,0.83072,127.927,487.582)">
                <path d="M561.324,733.999L545.67,726.41L532.567,747.359L546.49,752.997L561.324,733.999Z" style="fill:rgb(37,37,37);stroke-width:0.65px;stroke:black;"/>
            </g>
            <g transform="matrix(0.83072,0,0,0.83072,173.46,506.597)">
                <path d="M551.025,742.373L551.025,728.921L545.67,726.41L532.567,747.359L546.49,752.997L551.025,742.373Z" style="fill:rgb(37,37,37);stroke-width:0.65px;stroke:black;"/>
            </g>
            <g transform="matrix(0.83072,0,0,0.83072,157.625,491.466)">
                <path d="M561.324,733.999L545.67,726.41L532.567,747.359L546.49,752.997L561.324,733.999Z" style="fill:rgb(37,37,37);stroke-width:0.65px;stroke:black;"/>
            </g>
            <g transform="matrix(1,0,0,1,0.621372,0.295409)">
                <g transform="matrix(0.83072,0,0,0.83072,129.557,488.817)">
                    <path d="M506.006,701.83L506.006,718.4L604.404,754.418L604.404,737.88L506.006,701.83Z" style="fill:rgb(228,228,228);stroke-width:0.8px;stroke:black;"/>
                </g>
                <g transform="matrix(0.83072,0,0,0.83072,129.557,488.817)">
                    <path d="M604.404,754.418C600.251,748.991 599.585,743.492 604.404,737.88" style="fill:none;stroke-width:0.8px;stroke:black;"/>
                </g>
            </g>
            <g transform="matrix(0.83072,0,0,0.83072,127.927,487.582)">
                <path d="M508.716,703.672L607.114,739.722L607.114,729.425L517.539,697.431L508.716,703.672Z" style="fill:rgb(171,171,171);stroke-width:0.8px;stroke:black;"/>
            </g>
        </g>
        <g transform="matrix(0.83072,0,0,0.83072,23.1835,341.515)">
            <path d="M316.291,681.165L316.291,826.391L585.238,930.244L585.238,775.875L316.291,681.165Z" style="fill:rgb(249,208,66);stroke-width:3px;stroke:black;"/>
        </g>
        <g id="Lan-Buchsen" transform="matrix(0.83072,0,0,0.83072,11.4616,331.892)">
            <g id="Lan-Buchse">
                <g transform="matrix(1.21949,0,0,1.14492,-19.9427,-341.192)">
                    <g transform="matrix(0.83072,0,0,0.83072,126.839,482.661)">
                        <path d="M257.554,664.625L248.174,639.026L316.365,610.105L316.365,615.737L321.692,617.429L321.692,635.816L257.554,664.625Z" style="fill:rgb(177,122,31);stroke-width:0.66px;stroke:rgb(178,122,30);"/>
                    </g>
                    <g transform="matrix(0.83072,0,0,0.83072,126.839,482.661)">
                        <path d="M256.369,662.046L248.174,639.026L316.426,609.363L316.426,615.753L321.653,617.727L321.653,632.821L256.369,662.046Z" style="fill:rgb(157,93,29);stroke-width:0.66px;stroke:rgb(157,93,29);"/>
                    </g>
                    <g transform="matrix(0.83072,0,0,0.83072,126.839,482.661)">
                        <path d="M254.95,659.318L248.174,639.026L316.048,615.572L321.512,618.053L321.512,629.548L254.95,659.318Z" style="fill:rgb(129,62,7);stroke-width:0.66px;stroke:rgb(129,62,8);"/>
                    </g>
                    <g transform="matrix(0.83072,0,0,0.83072,126.839,482.661)">
                        <path d="M253.97,656.558L248.174,639.026L316.933,615.906L321.37,617.715L321.37,626.358L253.97,656.558Z" style="fill:rgb(90,21,23);stroke-width:0.66px;stroke:rgb(90,21,24);"/>
                    </g>
                </g>
                <g transform="matrix(0.933293,0,0,1.12743,42.247,-93.9024)">
                    <path d="M442.267,835.966L442.267,819.403L447.402,820.869L447.93,816.295L416.566,826.833L442.267,835.966Z" style="fill:none;stroke-width:0.63px;stroke-linejoin:miter;stroke:black;"/>
                </g>
                <g transform="matrix(0.933293,0,0,1.12743,42.247,-93.9024)">
                    <path d="M327.768,778.798L333.335,780.763L417.155,756.035L410.679,753.863L327.768,778.798Z" style="fill:none;stroke-width:0.63px;stroke-linejoin:miter;stroke:black;"/>
                </g>
                <g transform="matrix(0.933293,0,0,1.12743,42.247,-93.9024)">
                    <path d="M367.616,826.728L384.667,820.771L384.667,829.448L367.616,835.722L367.616,826.728Z" style="fill:rgb(224,183,77);stroke-width:0.63px;stroke:black;"/>
                </g>
                <g transform="matrix(0.933293,0,0,1.1315,33.3144,-112.493)">
                    <path d="M367.378,819.278L453.005,792.152L453.005,803.512L456.871,805.927L367.378,835.746L367.378,819.278Z" style="fill:rgb(224,183,77);stroke-width:0.63px;stroke-linejoin:miter;stroke:black;"/>
                </g>
                <g id="(Kurve)" transform="matrix(0.933293,0,0,1.1315,10.5402,-140.697)">
                    <path d="M367.378,819.278L450.172,794.88L474.069,801.898L367.378,835.746L367.378,819.278Z" style="fill:rgb(224,183,77);stroke-width:0.63px;stroke-linejoin:miter;stroke:black;"/>
                </g>
                <g transform="matrix(0.933293,0,0,1.1315,33.3585,-131.254)">
                    <path d="M342.219,827.876L449.62,793.552L451.76,794.945L451.76,809.106L367.378,835.746L342.219,827.876Z" style="fill:none;stroke-width:0.63px;stroke-linejoin:miter;stroke:black;"/>
                </g>
                <g transform="matrix(0.933293,0,0,1.1315,5.61806,-162.182)">
                    <path d="M367.378,809.235L371.712,811.02L409.615,799.882L448.797,811.756L367.378,836.056L367.378,809.235Z" style="fill:rgb(224,183,77);stroke-width:0.63px;stroke:black;"/>
                </g>
                <g transform="matrix(0.933293,0,0,1.12743,42.247,-93.9024)">
                    <path d="M357.183,822.534L368.13,826.4L384.667,820.771L373.972,816.886L357.183,822.534Z" style="fill:rgb(249,208,66);stroke-width:0.63px;stroke:black;"/>
                </g>
                <g transform="matrix(0.933293,0,0,1.12743,43.3005,-125.519)">
                    <path d="M331.966,759.139L331.966,781.257L369.24,770.257L331.966,759.139Z" style="fill:rgb(224,183,77);stroke-width:0.63px;stroke-linejoin:miter;stroke:black;"/>
                </g>
                <g transform="matrix(0.933293,0,0,1.12743,42.247,-93.9024)">
                    <path d="M326.996,779.236L332.247,781.082L332.247,798.404L356.671,806.379L356.671,822.556L367.144,825.939L367.144,835.542L406.428,848.015L406.428,839.059L416.839,842.27L416.839,827.84L442.461,835.542L442.461,819.403L447.63,821.026L447.63,791.815L442.461,790.207L442.461,763.612L332.247,730.174L332.247,752.379L326.996,750.744L326.996,779.236Z" style="fill:none;stroke-width:2.9px;stroke:black;"/>
                </g>
            </g>
            <g id="Lan-Buchse1" transform="matrix(1,0,0,1,126.627,46.6239)">
                <g transform="matrix(1.21949,0,0,1.14492,-19.9427,-341.192)">
                    <g transform="matrix(0.83072,0,0,0.83072,126.839,482.661)">
                        <path d="M257.554,664.625L248.174,639.026L316.365,610.105L316.365,615.737L321.692,617.429L321.692,635.816L257.554,664.625Z" style="fill:rgb(177,122,31);stroke-width:0.66px;stroke:rgb(178,122,30);"/>
                    </g>
                    <g transform="matrix(0.83072,0,0,0.83072,126.839,482.661)">
                        <path d="M256.369,662.046L248.174,639.026L316.426,609.363L316.426,615.753L321.653,617.727L321.653,632.821L256.369,662.046Z" style="fill:rgb(157,93,29);stroke-width:0.66px;stroke:rgb(157,93,29);"/>
                    </g>
                    <g transform="matrix(0.83072,0,0,0.83072,126.839,482.661)">
                        <path d="M254.95,659.318L248.174,639.026L316.048,615.572L321.512,618.053L321.512,629.548L254.95,659.318Z" style="fill:rgb(129,62,7);stroke-width:0.66px;stroke:rgb(129,62,8);"/>
                    </g>
                    <g transform="matrix(0.83072,0,0,0.83072,126.839,482.661)">
                        <path d="M253.97,656.558L248.174,639.026L316.933,615.906L321.37,617.715L321.37,626.358L253.97,656.558Z" style="fill:rgb(90,21,23);stroke-width:0.66px;stroke:rgb(90,21,24);"/>
                    </g>
                </g>
                <g transform="matrix(0.933293,0,0,1.12743,42.247,-93.9024)">
                    <path d="M442.267,835.966L442.267,819.403L447.402,820.869L447.93,816.295L416.566,826.833L442.267,835.966Z" style="fill:none;stroke-width:0.63px;stroke-linejoin:miter;stroke:black;"/>
                </g>
                <g transform="matrix(0.933293,0,0,1.12743,42.247,-93.9024)">
                    <path d="M327.768,778.798L333.335,780.763L417.155,756.035L410.679,753.863L327.768,778.798Z" style="fill:none;stroke-width:0.63px;stroke-linejoin:miter;stroke:black;"/>
                </g>
                <g transform="matrix(0.933293,0,0,1.12743,42.247,-93.9024)">
                    <path d="M367.616,826.728L384.667,820.771L384.667,829.448L367.616,835.722L367.616,826.728Z" style="fill:rgb(224,183,77);stroke-width:0.63px;stroke:black;"/>
                </g>
                <g transform="matrix(0.933293,0,0,1.1315,33.3144,-112.493)">
                    <path d="M367.378,819.278L453.005,792.152L453.005,803.512L456.871,805.927L367.378,835.746L367.378,819.278Z" style="fill:rgb(224,183,77);stroke-width:0.63px;stroke-linejoin:miter;stroke:black;"/>
                </g>
                <g id="(Kurve)1" transform="matrix(0.933293,0,0,1.1315,10.5402,-140.697)">
                    <path d="M367.378,819.278L450.172,794.88L474.069,801.898L367.378,835.746L367.378,819.278Z" style="fill:rgb(224,183,77);stroke-width:0.63px;stroke-linejoin:miter;stroke:black;"/>
                </g>
                <g transform="matrix(0.933293,0,0,1.1315,33.3585,-131.254)">
                    <path d="M342.219,827.876L449.62,793.552L451.76,794.945L451.76,809.106L367.378,835.746L342.219,827.876Z" style="fill:none;stroke-width:0.63px;stroke-linejoin:miter;stroke:black;"/>
                </g>
                <g transform="matrix(0.933293,0,0,1.1315,5.61806,-162.182)">
                    <path d="M367.378,809.235L371.712,811.02L409.615,799.882L448.797,811.756L367.378,836.056L367.378,809.235Z" style="fill:rgb(224,183,77);stroke-width:0.63px;stroke:black;"/>
                </g>
                <g transform="matrix(0.933293,0,0,1.12743,42.247,-93.9024)">
                    <path d="M357.183,822.534L368.13,826.4L384.667,820.771L373.972,816.886L357.183,822.534Z" style="fill:rgb(249,208,66);stroke-width:0.63px;stroke:black;"/>
                </g>
                <g transform="matrix(0.933293,0,0,1.12743,43.3005,-125.519)">
                    <path d="M331.966,759.139L331.966,781.257L369.24,770.257L331.966,759.139Z" style="fill:rgb(224,183,77);stroke-width:0.63px;stroke-linejoin:miter;stroke:black;"/>
                </g>
                <g transform="matrix(0.933293,0,0,1.12743,42.247,-93.9024)">
                    <path d="M326.996,779.236L332.247,781.082L332.247,798.404L356.671,806.379L356.671,822.556L367.144,825.939L367.144,835.542L406.428,848.015L406.428,839.059L416.839,842.27L416.839,827.84L442.461,835.542L442.461,819.403L447.63,821.026L447.63,791.815L442.461,790.207L442.461,763.612L332.247,730.174L332.247,752.379L326.996,750.744L326.996,779.236Z" style="fill:none;stroke-width:2.9px;stroke:black;"/>
                </g>
            </g>
        </g>
        <g transform="matrix(0.762149,-0.33049,-0.0251794,0.916378,255.51,659.378)">
            <path d="M725.804,810.323L725.804,795.466L730.618,795.466C732.442,795.466 733.631,795.54 734.185,795.689C735.037,795.912 735.75,796.396 736.324,797.143C736.898,797.89 737.185,798.854 737.185,800.036C737.185,800.949 737.02,801.715 736.689,802.337C736.358,802.959 735.937,803.447 735.427,803.802C734.917,804.156 734.398,804.391 733.871,804.506C733.155,804.648 732.118,804.719 730.76,804.719L728.804,804.719L728.804,810.323L725.804,810.323ZM728.804,797.979L728.804,802.195L730.446,802.195C731.628,802.195 732.419,802.117 732.817,801.962C733.216,801.807 733.528,801.563 733.755,801.232C733.981,800.901 734.094,800.516 734.094,800.077C734.094,799.536 733.935,799.091 733.618,798.739C733.3,798.388 732.898,798.168 732.412,798.08C732.054,798.013 731.334,797.979 730.253,797.979L728.804,797.979Z" style="fill:black;fill-rule:nonzero;"/>
            <path d="M738.969,804.79C738.969,803.844 739.202,802.928 739.668,802.043C740.135,801.158 740.795,800.482 741.65,800.016C742.504,799.55 743.459,799.317 744.513,799.317C746.141,799.317 747.476,799.846 748.516,800.903C749.557,801.96 750.077,803.297 750.077,804.911C750.077,806.54 749.552,807.889 748.501,808.96C747.45,810.031 746.128,810.567 744.533,810.567C743.547,810.567 742.606,810.344 741.711,809.898C740.815,809.452 740.135,808.798 739.668,807.937C739.202,807.075 738.969,806.026 738.969,804.79ZM741.888,804.942C741.888,806.009 742.141,806.827 742.648,807.394C743.155,807.962 743.78,808.246 744.523,808.246C745.266,808.246 745.889,807.962 746.393,807.394C746.896,806.827 747.148,806.003 747.148,804.921C747.148,803.867 746.896,803.057 746.393,802.489C745.889,801.922 745.266,801.638 744.523,801.638C743.78,801.638 743.155,801.922 742.648,802.489C742.141,803.057 741.888,803.874 741.888,804.942Z" style="fill:black;fill-rule:nonzero;"/>
            <path d="M754.313,810.323L750.908,799.56L753.675,799.56L755.692,806.614L757.546,799.56L760.293,799.56L762.087,806.614L764.144,799.56L766.951,799.56L763.495,810.323L760.759,810.323L758.904,803.401L757.08,810.323L754.313,810.323Z" style="fill:black;fill-rule:nonzero;"/>
            <path d="M774.684,806.898L777.522,807.374C777.157,808.415 776.581,809.207 775.794,809.751C775.007,810.295 774.022,810.567 772.84,810.567C770.968,810.567 769.583,809.955 768.684,808.732C767.975,807.752 767.62,806.516 767.62,805.023C767.62,803.239 768.086,801.842 769.019,800.832C769.951,799.822 771.13,799.317 772.556,799.317C774.157,799.317 775.421,799.846 776.346,800.903C777.272,801.96 777.715,803.58 777.674,805.763L770.539,805.763C770.559,806.607 770.789,807.264 771.228,807.734C771.667,808.203 772.215,808.438 772.87,808.438C773.316,808.438 773.691,808.317 773.995,808.073C774.299,807.83 774.529,807.438 774.684,806.898ZM774.846,804.019C774.826,803.195 774.613,802.568 774.208,802.139C773.803,801.71 773.309,801.496 772.728,801.496C772.107,801.496 771.593,801.722 771.188,802.175C770.782,802.628 770.583,803.242 770.59,804.019L774.846,804.019Z" style="fill:black;fill-rule:nonzero;"/>
            <path d="M782.721,810.323L779.873,810.323L779.873,799.56L782.518,799.56L782.518,801.09C782.971,800.368 783.378,799.891 783.74,799.661C784.101,799.432 784.512,799.317 784.971,799.317C785.62,799.317 786.245,799.496 786.846,799.854L785.964,802.337C785.485,802.026 785.039,801.871 784.627,801.871C784.228,801.871 783.89,801.981 783.613,802.2C783.336,802.42 783.118,802.817 782.959,803.391C782.801,803.965 782.721,805.168 782.721,806.999L782.721,810.323Z" style="fill:black;fill-rule:nonzero;"/>
            <path d="M809.416,810.323L809.416,795.466L815.73,795.466C817.318,795.466 818.472,795.599 819.191,795.866C819.911,796.133 820.487,796.608 820.919,797.29C821.352,797.972 821.568,798.753 821.568,799.631C821.568,800.746 821.24,801.666 820.585,802.393C819.93,803.119 818.95,803.577 817.646,803.766C818.294,804.144 818.83,804.56 819.252,805.013C819.674,805.465 820.244,806.269 820.96,807.425L822.774,810.323L819.186,810.323L817.017,807.09C816.247,805.935 815.72,805.207 815.436,804.906C815.153,804.606 814.852,804.4 814.534,804.288C814.217,804.177 813.713,804.121 813.024,804.121L812.416,804.121L812.416,810.323L809.416,810.323ZM812.416,801.749L814.636,801.749C816.075,801.749 816.974,801.688 817.332,801.567C817.69,801.445 817.97,801.236 818.173,800.938C818.376,800.641 818.477,800.27 818.477,799.824C818.477,799.324 818.343,798.92 818.077,798.613C817.81,798.305 817.433,798.111 816.946,798.03C816.703,797.996 815.974,797.979 814.757,797.979L812.416,797.979L812.416,801.749Z" style="fill:black;fill-rule:nonzero;"/>
            <path d="M830.608,806.898L833.446,807.374C833.081,808.415 832.505,809.207 831.718,809.751C830.931,810.295 829.946,810.567 828.764,810.567C826.892,810.567 825.507,809.955 824.608,808.732C823.899,807.752 823.544,806.516 823.544,805.023C823.544,803.239 824.01,801.842 824.943,800.832C825.875,799.822 827.054,799.317 828.48,799.317C830.081,799.317 831.345,799.846 832.27,800.903C833.196,801.96 833.639,803.58 833.598,805.763L826.463,805.763C826.483,806.607 826.713,807.264 827.152,807.734C827.591,808.203 828.139,808.438 828.794,808.438C829.24,808.438 829.615,808.317 829.919,808.073C830.223,807.83 830.453,807.438 830.608,806.898ZM830.77,804.019C830.75,803.195 830.537,802.568 830.132,802.139C829.727,801.71 829.233,801.496 828.652,801.496C828.031,801.496 827.517,801.722 827.112,802.175C826.706,802.628 826.507,803.242 826.514,804.019L830.77,804.019Z" style="fill:black;fill-rule:nonzero;"/>
            <path d="M834.916,807.252L837.774,806.817C837.895,807.371 838.142,807.791 838.513,808.078C838.885,808.366 839.405,808.509 840.074,808.509C840.811,808.509 841.365,808.374 841.736,808.104C841.986,807.915 842.111,807.661 842.111,807.344C842.111,807.127 842.044,806.948 841.909,806.807C841.767,806.671 841.449,806.546 840.956,806.432C838.659,805.925 837.203,805.462 836.588,805.043C835.736,804.462 835.311,803.655 835.311,802.621C835.311,801.688 835.679,800.905 836.416,800.27C837.152,799.634 838.294,799.317 839.841,799.317C841.314,799.317 842.409,799.557 843.125,800.036C843.841,800.516 844.334,801.226 844.604,802.165L841.919,802.661C841.804,802.242 841.586,801.922 841.265,801.699C840.944,801.476 840.486,801.364 839.892,801.364C839.142,801.364 838.605,801.469 838.28,801.678C838.064,801.827 837.956,802.02 837.956,802.256C837.956,802.459 838.051,802.631 838.24,802.773C838.497,802.962 839.383,803.229 840.9,803.574C842.417,803.918 843.476,804.34 844.077,804.84C844.672,805.347 844.969,806.053 844.969,806.959C844.969,807.945 844.557,808.793 843.733,809.502C842.909,810.212 841.689,810.567 840.074,810.567C838.608,810.567 837.448,810.269 836.593,809.675C835.738,809.08 835.179,808.273 834.916,807.252Z" style="fill:black;fill-rule:nonzero;"/>
            <path d="M853.695,806.898L856.533,807.374C856.168,808.415 855.592,809.207 854.805,809.751C854.018,810.295 853.033,810.567 851.851,810.567C849.979,810.567 848.594,809.955 847.696,808.732C846.986,807.752 846.631,806.516 846.631,805.023C846.631,803.239 847.098,801.842 848.03,800.832C848.962,799.822 850.141,799.317 851.567,799.317C853.168,799.317 854.432,799.846 855.358,800.903C856.283,801.96 856.726,803.58 856.685,805.763L849.55,805.763C849.571,806.607 849.8,807.264 850.239,807.734C850.679,808.203 851.226,808.438 851.881,808.438C852.327,808.438 852.702,808.317 853.006,808.073C853.31,807.83 853.54,807.438 853.695,806.898ZM853.858,804.019C853.837,803.195 853.624,802.568 853.219,802.139C852.814,801.71 852.32,801.496 851.739,801.496C851.118,801.496 850.604,801.722 850.199,802.175C849.794,802.628 849.594,803.242 849.601,804.019L853.858,804.019Z" style="fill:black;fill-rule:nonzero;"/>
            <path d="M863.942,799.56L863.942,801.83L861.996,801.83L861.996,806.168C861.996,807.046 862.014,807.558 862.052,807.703C862.089,807.849 862.173,807.969 862.305,808.063C862.437,808.158 862.597,808.205 862.786,808.205C863.05,808.205 863.432,808.114 863.932,807.932L864.175,810.141C863.513,810.425 862.763,810.567 861.925,810.567C861.411,810.567 860.949,810.48 860.536,810.308C860.124,810.136 859.822,809.913 859.629,809.639C859.437,809.366 859.303,808.996 859.229,808.529C859.168,808.198 859.138,807.529 859.138,806.523L859.138,801.83L857.83,801.83L857.83,799.56L859.138,799.56L859.138,797.422L861.996,795.76L861.996,799.56L863.942,799.56Z" style="fill:black;fill-rule:nonzero;"/>
        </g>
    </g>
</svg>
