<?xml version="1.0" standalone="no"?>
<!DOCTYPE svg PUBLIC "-//W3C//DTD SVG 1.1//EN" "http://www.w3.org/Graphics/SVG/1.1/DTD/svg11.dtd">
<svg width="100%" height="100%" viewBox="0 0 1280 1150" version="1.1" xmlns="http://www.w3.org/2000/svg" xmlns:xlink="http://www.w3.org/1999/xlink" xml:space="preserve" style="fill-rule:evenodd;clip-rule:evenodd;stroke-linecap:round;stroke-linejoin:round;stroke-miterlimit:1.41421;">
    <g id="back 901ND" transform="matrix(1,0,0,1,-7.34323,131.744)">
        <g id="Füsse" transform="matrix(1.06553,0,0,1.12465,-58.8721,-245.226)">
            <g transform="matrix(1,0,0,1,26.9723,-0.553293)">
                <path d="M962.639,1069.2L983.568,1069.2L983.568,1077.09C976.577,1079.61 969.602,1079.4 962.639,1077.09L962.639,1069.2Z" style="fill:rgb(51,51,51);stroke-width:1.83px;stroke:black;"/>
            </g>
            <g transform="matrix(1,0,0,1,-664.54,0)">
                <path d="M962.639,1069.2L983.568,1069.2L983.568,1077.09C976.577,1079.61 969.602,1079.4 962.639,1077.09L962.639,1069.2Z" style="fill:rgb(51,51,51);stroke-width:1.83px;stroke:black;"/>
            </g>
        </g>
        <g id="rumpf">
            <g id="rumpfs außen" transform="matrix(1.06553,0,0,1.12465,-45.0948,-202.243)">
                <path d="M254.764,1030.64L213.301,1030.64C190.589,1024.3 179.105,1006.95 181.416,976.056C182.609,960.11 210.294,922.614 240.765,908.731C303.485,880.154 348.149,871.472 403.472,865.5C547.237,855.892 690.645,851.8 833.348,862.124C903.492,867.525 973.507,881.623 1035.84,908.731C1062.24,923.849 1087.26,943.34 1097.93,976.056C1106.57,1004.74 1096.15,1023.49 1072.83,1030.64L1025.04,1030.64L254.764,1030.64Z" style="fill:white;stroke-width:0.64px;stroke:black;"/>
            </g>
            <g id="rumpf innen" transform="matrix(1.06553,0,0,1.12465,-45.0948,-202.243)">
                <path d="M254.764,1030.64L213.301,1030.64C193.615,1020.12 192.098,994.611 192.896,976.056C193.583,960.08 219.027,931.347 249.498,917.464C312.218,888.887 348.149,882.432 403.472,876.46C547.237,866.851 690.645,862.918 833.348,873.243C903.492,878.644 964.928,888.416 1027.26,915.524C1053.66,930.642 1075.85,943.34 1086.52,976.056C1090.21,994.545 1090.1,1022.96 1072.83,1030.64L1025.04,1030.64L254.764,1030.64Z" style="fill:rgb(230,230,230);stroke-width:0.64px;stroke:black;"/>
            </g>
            <g transform="matrix(1.06553,0,0,1.12465,-45.0948,-202.243)">
                <path d="M258.534,1032.84L1022.11,1032.84C1042.11,972.318 1027.64,931.849 952.002,911.518C841.399,881.791 417.187,883.348 328.934,911.518C234.429,928.901 237.298,977.891 258.534,1032.84Z" style="fill:rgb(242,242,242);stroke-width:0.64px;stroke:black;"/>
            </g>
        </g>
        <g id="LüftungBack" transform="matrix(1,0,0,1,0,-0.838999)">
            <rect x="400.888" y="957.702" width="6.676" height="2.472" style="fill:rgb(51,51,51);stroke-width:0.7px;stroke:black;"/>
            <g transform="matrix(1,0,0,1,14.0644,0)">
                <rect x="400.888" y="957.702" width="6.676" height="2.472" style="fill:rgb(51,51,51);stroke-width:0.7px;stroke:black;"/>
            </g>
            <g transform="matrix(1,0,0,1,26.9949,0)">
                <rect x="400.888" y="957.702" width="6.676" height="2.472" style="fill:rgb(51,51,51);stroke-width:0.7px;stroke:black;"/>
            </g>
            <g transform="matrix(1,0,0,1,40.8265,0)">
                <rect x="400.888" y="957.702" width="6.676" height="2.472" style="fill:rgb(51,51,51);stroke-width:0.7px;stroke:black;"/>
            </g>
            <g transform="matrix(1,0,0,1,53.9452,0)">
                <rect x="400.888" y="957.702" width="6.676" height="2.472" style="fill:rgb(51,51,51);stroke-width:0.7px;stroke:black;"/>
            </g>
            <g transform="matrix(1,0,0,1,67.8013,0)">
                <rect x="400.888" y="957.702" width="6.676" height="2.472" style="fill:rgb(51,51,51);stroke-width:0.7px;stroke:black;"/>
            </g>
            <g transform="matrix(1,0,0,1,81.3522,0)">
                <rect x="400.888" y="957.702" width="6.676" height="2.472" style="fill:rgb(51,51,51);stroke-width:0.7px;stroke:black;"/>
            </g>
            <g transform="matrix(1,0,0,1,95.4084,0)">
                <rect x="400.888" y="957.702" width="6.676" height="2.472" style="fill:rgb(51,51,51);stroke-width:0.7px;stroke:black;"/>
            </g>
            <g transform="matrix(1,0,0,1,109.323,0)">
                <rect x="400.888" y="957.702" width="6.676" height="2.472" style="fill:rgb(51,51,51);stroke-width:0.7px;stroke:black;"/>
            </g>
            <g transform="matrix(1,0,0,1,122.055,0)">
                <rect x="400.888" y="957.702" width="6.676" height="2.472" style="fill:rgb(51,51,51);stroke-width:0.7px;stroke:black;"/>
            </g>
            <g transform="matrix(1,0,0,1,135.438,0)">
                <rect x="400.888" y="957.702" width="6.676" height="2.472" style="fill:rgb(51,51,51);stroke-width:0.7px;stroke:black;"/>
            </g>
            <g transform="matrix(1,0,0,1,149.62,0)">
                <rect x="400.888" y="957.702" width="6.676" height="2.472" style="fill:rgb(51,51,51);stroke-width:0.7px;stroke:black;"/>
            </g>
            <g transform="matrix(1,0,0,1,162.754,0)">
                <rect x="400.888" y="957.702" width="6.676" height="2.472" style="fill:rgb(51,51,51);stroke-width:0.7px;stroke:black;"/>
            </g>
            <g transform="matrix(1,0,0,1,177.916,0)">
                <rect x="400.888" y="957.702" width="6.676" height="2.472" style="fill:rgb(51,51,51);stroke-width:0.7px;stroke:black;"/>
            </g>
            <g transform="matrix(1,0,0,1,190.433,0)">
                <rect x="400.888" y="957.702" width="6.676" height="2.472" style="fill:rgb(51,51,51);stroke-width:0.7px;stroke:black;"/>
            </g>
            <g transform="matrix(1,0,0,1,203.703,0)">
                <rect x="400.888" y="957.702" width="6.676" height="2.472" style="fill:rgb(51,51,51);stroke-width:0.7px;stroke:black;"/>
            </g>
            <g transform="matrix(1,0,0,1,217,0)">
                <rect x="400.888" y="957.702" width="6.676" height="2.472" style="fill:rgb(51,51,51);stroke-width:0.7px;stroke:black;"/>
            </g>
            <g transform="matrix(1,0,0,1,230.845,0)">
                <rect x="400.888" y="957.702" width="6.676" height="2.472" style="fill:rgb(51,51,51);stroke-width:0.7px;stroke:black;"/>
            </g>
            <g transform="matrix(1,0,0,1,244.732,0)">
                <rect x="400.888" y="957.702" width="6.676" height="2.472" style="fill:rgb(51,51,51);stroke-width:0.7px;stroke:black;"/>
            </g>
            <g transform="matrix(1,0,0,1,257.662,0)">
                <rect x="400.888" y="957.702" width="6.676" height="2.472" style="fill:rgb(51,51,51);stroke-width:0.7px;stroke:black;"/>
            </g>
            <g transform="matrix(1,0,0,1,270.972,0)">
                <rect x="400.888" y="957.702" width="6.676" height="2.472" style="fill:rgb(51,51,51);stroke-width:0.7px;stroke:black;"/>
            </g>
            <g transform="matrix(1,0,0,1,284.579,0)">
                <rect x="400.888" y="957.702" width="6.676" height="2.472" style="fill:rgb(51,51,51);stroke-width:0.7px;stroke:black;"/>
            </g>
            <g transform="matrix(1,0,0,1,299.33,0)">
                <rect x="400.888" y="957.702" width="6.676" height="2.472" style="fill:rgb(51,51,51);stroke-width:0.7px;stroke:black;"/>
            </g>
            <g transform="matrix(1,0,0,1,311.923,0)">
                <rect x="400.888" y="957.702" width="6.676" height="2.472" style="fill:rgb(51,51,51);stroke-width:0.7px;stroke:black;"/>
            </g>
            <g transform="matrix(1,0,0,1,325.57,0)">
                <rect x="400.888" y="957.702" width="6.676" height="2.472" style="fill:rgb(51,51,51);stroke-width:0.7px;stroke:black;"/>
            </g>
            <g transform="matrix(1,0,0,1,339.641,0)">
                <rect x="400.888" y="957.702" width="6.676" height="2.472" style="fill:rgb(51,51,51);stroke-width:0.7px;stroke:black;"/>
            </g>
            <g transform="matrix(1,0,0,1,352.862,0)">
                <rect x="400.888" y="957.702" width="6.676" height="2.472" style="fill:rgb(51,51,51);stroke-width:0.7px;stroke:black;"/>
            </g>
            <g transform="matrix(1,0,0,1,366.385,0)">
                <rect x="400.888" y="957.702" width="6.676" height="2.472" style="fill:rgb(51,51,51);stroke-width:0.7px;stroke:black;"/>
            </g>
            <g transform="matrix(1,0,0,1,380.209,0)">
                <rect x="400.888" y="957.702" width="6.676" height="2.472" style="fill:rgb(51,51,51);stroke-width:0.7px;stroke:black;"/>
            </g>
            <g transform="matrix(1,0,0,1,393.734,0)">
                <rect x="400.888" y="957.702" width="6.676" height="2.472" style="fill:rgb(51,51,51);stroke-width:0.7px;stroke:black;"/>
            </g>
            <g transform="matrix(1,0,0,1,407.874,0)">
                <rect x="400.888" y="957.702" width="6.676" height="2.472" style="fill:rgb(51,51,51);stroke-width:0.7px;stroke:black;"/>
            </g>
            <g transform="matrix(1,0,0,1,420.695,0)">
                <rect x="400.888" y="957.702" width="6.676" height="2.472" style="fill:rgb(51,51,51);stroke-width:0.7px;stroke:black;"/>
            </g>
            <g transform="matrix(1,0,0,1,434.706,0)">
                <rect x="400.888" y="957.702" width="6.676" height="2.472" style="fill:rgb(51,51,51);stroke-width:0.7px;stroke:black;"/>
            </g>
            <g transform="matrix(1,0,0,1,448.196,0)">
                <rect x="400.888" y="957.702" width="6.676" height="2.472" style="fill:rgb(51,51,51);stroke-width:0.7px;stroke:black;"/>
            </g>
            <g transform="matrix(1,0,0,1,462.608,0)">
                <rect x="400.888" y="957.702" width="6.676" height="2.472" style="fill:rgb(51,51,51);stroke-width:0.7px;stroke:black;"/>
            </g>
            <g transform="matrix(1,0,0,1,476.348,0)">
                <rect x="400.888" y="957.702" width="6.676" height="2.472" style="fill:rgb(51,51,51);stroke-width:0.7px;stroke:black;"/>
            </g>
            <g transform="matrix(1,0,0,1,489.909,0)">
                <rect x="400.888" y="957.702" width="6.676" height="2.472" style="fill:rgb(51,51,51);stroke-width:0.7px;stroke:black;"/>
            </g>
            <g transform="matrix(1,0,0,1,503.567,0)">
                <rect x="400.888" y="957.702" width="6.676" height="2.472" style="fill:rgb(51,51,51);stroke-width:0.7px;stroke:black;"/>
            </g>
            <g transform="matrix(1,0,0,1,517.344,0)">
                <rect x="400.888" y="957.702" width="6.676" height="2.472" style="fill:rgb(51,51,51);stroke-width:0.7px;stroke:black;"/>
            </g>
            <g transform="matrix(1,0,0,1,530.76,0)">
                <rect x="400.888" y="957.702" width="6.676" height="2.472" style="fill:rgb(51,51,51);stroke-width:0.7px;stroke:black;"/>
            </g>
            <g transform="matrix(1,0,0,1,543.578,0)">
                <rect x="400.888" y="957.702" width="6.676" height="2.472" style="fill:rgb(51,51,51);stroke-width:0.7px;stroke:black;"/>
            </g>
            <g transform="matrix(1,0,0,1,558.145,0)">
                <rect x="400.888" y="957.702" width="6.676" height="2.472" style="fill:rgb(51,51,51);stroke-width:0.7px;stroke:black;"/>
            </g>
            <g transform="matrix(1,0,0,1,571.209,0)">
                <rect x="400.888" y="957.702" width="6.676" height="2.472" style="fill:rgb(51,51,51);stroke-width:0.7px;stroke:black;"/>
            </g>
            <g transform="matrix(1,0,0,1,584.131,0)">
                <rect x="400.888" y="957.702" width="6.676" height="2.472" style="fill:rgb(51,51,51);stroke-width:0.7px;stroke:black;"/>
            </g>
            <g transform="matrix(1,0,0,1,613.06,0)">
                <rect x="400.888" y="957.702" width="6.676" height="2.472" style="fill:rgb(51,51,51);stroke-width:0.7px;stroke:black;"/>
            </g>
            <g transform="matrix(1,0,0,1,597.684,0)">
                <rect x="400.888" y="957.702" width="6.676" height="2.472" style="fill:rgb(51,51,51);stroke-width:0.7px;stroke:black;"/>
            </g>
            <g transform="matrix(1,0,0,1,625.461,0)">
                <rect x="400.888" y="957.702" width="6.676" height="2.472" style="fill:rgb(51,51,51);stroke-width:0.7px;stroke:black;"/>
            </g>
            <g transform="matrix(1,0,0,1,-13.4413,0)">
                <rect x="400.888" y="957.702" width="6.676" height="2.472" style="fill:rgb(51,51,51);stroke-width:0.7px;stroke:black;"/>
            </g>
            <g transform="matrix(1,0,0,1,-26.981,0)">
                <rect x="400.888" y="957.702" width="6.676" height="2.472" style="fill:rgb(51,51,51);stroke-width:0.7px;stroke:black;"/>
            </g>
            <g transform="matrix(1,0,0,1,-26.981,0)">
                <rect x="400.888" y="957.702" width="6.676" height="2.472" style="fill:rgb(51,51,51);stroke-width:0.7px;stroke:black;"/>
            </g>
            <g transform="matrix(1,0,0,1,-40.5702,0)">
                <rect x="400.888" y="957.702" width="6.676" height="2.472" style="fill:rgb(51,51,51);stroke-width:0.7px;stroke:black;"/>
            </g>
            <g transform="matrix(1,0,0,1,-53.8955,0)">
                <rect x="400.888" y="957.702" width="6.676" height="2.472" style="fill:rgb(51,51,51);stroke-width:0.7px;stroke:black;"/>
            </g>
            <g transform="matrix(1,0,0,1,-67.2787,0)">
                <rect x="400.888" y="957.702" width="6.676" height="2.472" style="fill:rgb(51,51,51);stroke-width:0.7px;stroke:black;"/>
            </g>
            <g transform="matrix(1,0,0,1,-81.6865,0)">
                <rect x="400.888" y="957.702" width="6.676" height="2.472" style="fill:rgb(51,51,51);stroke-width:0.7px;stroke:black;"/>
            </g>
            <g transform="matrix(1,0,0,1,-95.016,0)">
                <rect x="400.888" y="957.702" width="6.676" height="2.472" style="fill:rgb(51,51,51);stroke-width:0.7px;stroke:black;"/>
            </g>
            <g transform="matrix(1,0,0,1,-95.016,0)">
                <rect x="400.888" y="957.702" width="6.676" height="2.472" style="fill:rgb(51,51,51);stroke-width:0.7px;stroke:black;"/>
            </g>
            <g transform="matrix(1,0,0,1,-107.749,0)">
                <rect x="400.888" y="957.702" width="6.676" height="2.472" style="fill:rgb(51,51,51);stroke-width:0.7px;stroke:black;"/>
            </g>
            <g transform="matrix(1,0,0,1,-121.264,0)">
                <rect x="400.888" y="957.702" width="6.676" height="2.472" style="fill:rgb(51,51,51);stroke-width:0.7px;stroke:black;"/>
            </g>
            <g transform="matrix(1,0,0,1,-135.317,0)">
                <rect x="400.888" y="957.702" width="6.676" height="2.472" style="fill:rgb(51,51,51);stroke-width:0.7px;stroke:black;"/>
            </g>
            <g transform="matrix(1,0,0,1,-148.517,0)">
                <rect x="400.888" y="957.702" width="6.676" height="2.472" style="fill:rgb(51,51,51);stroke-width:0.7px;stroke:black;"/>
            </g>
            <g transform="matrix(1,0,0,1,-163.327,0)">
                <rect x="400.888" y="957.702" width="6.676" height="2.472" style="fill:rgb(51,51,51);stroke-width:0.7px;stroke:black;"/>
            </g>
        </g>
        <g transform="matrix(1.04243,0,0,1.04243,713.79,-141.592)">
            <g id="Antenne Links">
                <g>
                    <g transform="matrix(1,0,0,1,-774.378,-3.15595)">
                        <path d="M1016.53,124.619L1020.93,301.171L1038.98,522.435L1043.24,1048.51L1043.34,1047.87C1042.55,1048.66 1036.04,1054.15 1004.23,1054.77C972.911,1055.37 970.935,1051.94 967.466,1051.24L967.191,1051.3L967.191,524.062L984.513,301.705L982.747,124.897C994.27,123.665 1005.51,123.655 1016.53,124.619Z" style="fill:white;stroke-width:3.36px;stroke:black;"/>
                    </g>
                    <g transform="matrix(1,0,0,1,-774.378,-3.15595)">
                        <path d="M984.703,117.906L984.703,124.656L982.618,124.676C996.416,123.902 1007.78,123.949 1017.13,124.676L1014.86,123.88L1014.86,118.475L1016.74,117.906C1007.39,117.18 996.023,117.133 982.225,117.906L982.438,117.653C982.428,113.255 981.481,92.528 982.438,76.704C983.201,64.092 991.781,61.281 998.604,61.255C1007.64,61.221 1015.03,65.675 1015.74,76.704C1016.77,92.72 1017.06,113.91 1017.08,117.653" style="fill:white;stroke-width:3.36px;stroke:black;"/>
                    </g>
                </g>
            </g>
        </g>
        <g id="back" transform="matrix(-1,5.66554e-16,-5.66554e-16,-1,1564.29,1832.05)">
            <g id="WAN" transform="matrix(1,-2.44929e-16,2.44929e-16,1,461.196,-42.0161)">
                <path d="M430.126,958.534L520.049,958.534L520.049,1035.48L430.126,1035.48L430.126,958.534" style="fill:rgb(230,230,230);stroke-width:1px;stroke:black;"/>
                <path d="M463.538,961.757L487.377,961.757L487.377,969.841L494.601,969.841L494.601,977.802L508.571,977.802L508.571,989.68L513.332,989.68L513.332,1005.6L508.571,1005.6L508.571,1018.27L440.482,1018.27L440.482,1005.6L437.015,1005.6L437.015,989.68L440.482,989.68L440.482,977.802L455.182,977.802L455.182,969.841L463.538,969.841L463.538,961.757" style="fill:white;stroke-width:1px;stroke:black;"/>
                <rect x="436.816" y="989.68" width="9.385" height="15.92" style="fill:black;stroke-width:1px;stroke:black;"/>
                <g transform="matrix(1,0,0,1,67.0669,-0.0235958)">
                    <rect x="436.816" y="989.68" width="9.385" height="15.92" style="fill:black;stroke-width:1px;stroke:black;"/>
                </g>
                <path d="M450.462,1000.22L450.462,1012.69" style="fill:none;stroke-width:1px;stroke:black;"/>
                <g transform="matrix(1,0,0,1,5.18811,0.142889)">
                    <path d="M450.462,1000.22L450.462,1012.69" style="fill:none;stroke-width:1px;stroke:black;"/>
                </g>
                <g transform="matrix(1,0,0,1,10.8216,0.142889)">
                    <path d="M450.462,1000.22L450.462,1012.69" style="fill:none;stroke-width:1px;stroke:black;"/>
                </g>
                <g transform="matrix(1,0,0,1,22.0044,0.291919)">
                    <path d="M450.462,1000.07L450.462,1012.69" style="fill:none;stroke-width:1px;stroke:black;"/>
                </g>
                <g transform="matrix(1,0,0,1,27.0496,0.291919)">
                    <path d="M450.462,1000.05L450.462,1012.69" style="fill:none;stroke-width:1px;stroke:black;"/>
                </g>
                <g transform="matrix(1,0,0,1,49.4509,0.192566)">
                    <path d="M450.462,1000.16L450.462,1012.69" style="fill:none;stroke-width:1px;stroke:black;"/>
                </g>
                <path d="M466.922,1000.38L466.922,1018.21" style="fill:none;stroke-width:1px;stroke:black;"/>
                <g transform="matrix(1,0,0,1,16.0399,-0.0558162)">
                    <path d="M466.922,1000.41L466.922,1018.27" style="fill:none;stroke-width:1px;stroke:black;"/>
                </g>
                <g transform="matrix(1,0,0,1,21.7443,-0.154611)">
                    <path d="M466.922,1000.5L466.922,1018.4" style="fill:none;stroke-width:1px;stroke:black;"/>
                </g>
                <g transform="matrix(1,0,0,1,27.6257,-0.353316)">
                    <path d="M466.922,1000.67L466.922,1018.4" style="fill:none;stroke-width:1px;stroke:black;"/>
                </g>
            </g>
            <g id="Power" transform="matrix(-1,-5.66554e-16,5.66554e-16,-1,1448.11,1948.99)">
                <rect x="360.529" y="973.018" width="50.745" height="61.322" style="fill:rgb(72,72,74);stroke-width:3.5px;stroke:black;"/>
                <g transform="matrix(1,0,0,1,-0.754159,0.503051)">
                    <ellipse cx="387.025" cy="998.035" rx="16.88" ry="17.207" style="fill:rgb(72,72,74);stroke-width:1px;stroke:black;"/>
                </g>
                <ellipse cx="386.992" cy="998.717" rx="8.879" ry="8.391" style="fill:rgb(99,100,102);stroke-width:1px;stroke:black;"/>
                <g transform="matrix(1,0,0,1,-0.111324,-0.214278)">
                    <ellipse cx="387.249" cy="998.987" rx="5.203" ry="5.065" style="fill:rgb(216,217,218);stroke-width:3px;stroke:rgb(58,57,59);"/>
                </g>
                <path d="M378.699,1011.21L394.491,1011.21L394.491,1012.99L392.11,1014.15L380.447,1014.15L378.699,1013.38L378.699,1011.21Z" style="fill:rgb(47,45,46);stroke-width:0.1px;stroke:rgb(35,31,32);"/>
            </g>
            <g id="(Ellipse)" transform="matrix(-1,-5.66554e-16,5.66554e-16,-1,1564.29,1832.05)">
                <ellipse cx="863.208" cy="894.633" rx="8.951" ry="9.498" style="fill:black;stroke-width:0.4px;stroke-linecap:butt;stroke:black;"/>
            </g>
            <g transform="matrix(1,0,0,1,-72.5892,-76.5509)">
                <g id="reset">
                    <ellipse cx="882.113" cy="1013.72" rx="10.926" ry="10.594" style="fill:rgb(91,92,94);stroke-width:3.5px;stroke:rgb(35,31,32);"/>
                </g>
            </g>
        </g>
        <g transform="matrix(0.89,0,0,1,76.0054,0.866463)">
            <path d="M337.529,926.719C337.529,925.698 337.681,924.842 337.987,924.149C338.214,923.639 338.526,923.181 338.92,922.775C339.314,922.369 339.746,922.069 340.215,921.873C340.839,921.608 341.56,921.476 342.375,921.476C343.852,921.476 345.033,921.934 345.92,922.85C346.806,923.766 347.249,925.04 347.249,926.671C347.249,928.289 346.81,929.555 345.93,930.469C345.05,931.383 343.875,931.839 342.403,931.839C340.912,931.839 339.728,931.385 338.848,930.476C337.968,929.566 337.529,928.314 337.529,926.719ZM339.614,926.651C339.614,927.786 339.876,928.646 340.4,929.231C340.924,929.817 341.589,930.11 342.396,930.11C343.202,930.11 343.864,929.819 344.382,929.238C344.899,928.657 345.158,927.786 345.158,926.624C345.158,925.475 344.906,924.618 344.402,924.053C343.899,923.488 343.23,923.206 342.396,923.206C341.562,923.206 340.89,923.492 340.379,924.064C339.869,924.635 339.614,925.498 339.614,926.651Z" style="fill:rgb(252,252,252);fill-rule:nonzero;stroke-width:0.42px;stroke-linecap:butt;stroke:black;"/>
            <path d="M348.849,931.668L348.849,921.647L350.818,921.647L354.919,928.339L354.919,921.647L356.799,921.647L356.799,931.668L354.769,931.668L350.729,925.133L350.729,931.668L348.849,931.668Z" style="fill:rgb(252,252,252);fill-rule:nonzero;stroke-width:0.42px;stroke-linecap:butt;stroke:black;"/>
            <path d="M361.789,931.839L364.271,921.476L365.713,921.476L363.204,931.839L361.789,931.839Z" style="fill:rgb(252,252,252);fill-rule:nonzero;stroke-width:0.42px;stroke-linecap:butt;stroke:black;"/>
            <path d="M370.198,926.719C370.198,925.698 370.35,924.842 370.656,924.149C370.883,923.639 371.194,923.181 371.589,922.775C371.983,922.369 372.415,922.069 372.884,921.873C373.508,921.608 374.228,921.476 375.044,921.476C376.521,921.476 377.702,921.934 378.589,922.85C379.475,923.766 379.918,925.04 379.918,926.671C379.918,928.289 379.478,929.555 378.599,930.469C377.719,931.383 376.544,931.839 375.072,931.839C373.581,931.839 372.396,931.385 371.517,930.476C370.637,929.566 370.198,928.314 370.198,926.719ZM372.283,926.651C372.283,927.786 372.545,928.646 373.069,929.231C373.593,929.817 374.258,930.11 375.065,930.11C375.871,930.11 376.533,929.819 377.051,929.238C377.568,928.657 377.826,927.786 377.826,926.624C377.826,925.475 377.575,924.618 377.071,924.053C376.568,923.488 375.899,923.206 375.065,923.206C374.231,923.206 373.559,923.492 373.048,924.064C372.538,924.635 372.283,925.498 372.283,926.651Z" style="fill:rgb(252,252,252);fill-rule:nonzero;stroke-width:0.42px;stroke-linecap:butt;stroke:black;"/>
            <path d="M381.511,931.668L381.511,921.647L388.381,921.647L388.381,923.342L383.534,923.342L383.534,925.714L387.718,925.714L387.718,927.41L383.534,927.41L383.534,931.668L381.511,931.668Z" style="fill:rgb(252,252,252);fill-rule:nonzero;stroke-width:0.42px;stroke-linecap:butt;stroke:black;"/>
            <path d="M390.063,931.668L390.063,921.647L396.933,921.647L396.933,923.342L392.086,923.342L392.086,925.714L396.27,925.714L396.27,927.41L392.086,927.41L392.086,931.668L390.063,931.668Z" style="fill:rgb(252,252,252);fill-rule:nonzero;stroke-width:0.42px;stroke-linecap:butt;stroke:black;"/>
            <path d="M459.287,931.668L459.287,921.647L462.534,921.647C463.765,921.647 464.567,921.697 464.94,921.797C465.515,921.948 465.995,922.275 466.383,922.778C466.77,923.282 466.964,923.932 466.964,924.73C466.964,925.345 466.852,925.863 466.629,926.282C466.406,926.701 466.122,927.03 465.778,927.27C465.434,927.509 465.084,927.667 464.729,927.745C464.245,927.84 463.546,927.888 462.63,927.888L461.311,927.888L461.311,931.668L459.287,931.668ZM461.311,923.342L461.311,926.186L462.418,926.186C463.215,926.186 463.749,926.134 464.018,926.029C464.286,925.924 464.497,925.76 464.65,925.537C464.803,925.313 464.879,925.054 464.879,924.757C464.879,924.393 464.772,924.092 464.558,923.855C464.343,923.618 464.072,923.47 463.744,923.411C463.503,923.365 463.017,923.342 462.288,923.342L461.311,923.342Z" style="fill:rgb(252,252,252);fill-rule:nonzero;stroke-width:0.42px;stroke-linecap:butt;stroke:black;"/>
            <path d="M468.215,926.719C468.215,925.698 468.368,924.842 468.673,924.149C468.901,923.639 469.212,923.181 469.606,922.775C470,922.369 470.432,922.069 470.901,921.873C471.526,921.608 472.246,921.476 473.062,921.476C474.538,921.476 475.72,921.934 476.606,922.85C477.492,923.766 477.936,925.04 477.936,926.671C477.936,928.289 477.496,929.555 476.616,930.469C475.737,931.383 474.561,931.839 473.089,931.839C471.599,931.839 470.414,931.385 469.534,930.476C468.655,929.566 468.215,928.314 468.215,926.719ZM470.3,926.651C470.3,927.786 470.562,928.646 471.086,929.231C471.61,929.817 472.275,930.11 473.082,930.11C473.889,930.11 474.551,929.819 475.068,929.238C475.585,928.657 475.844,927.786 475.844,926.624C475.844,925.475 475.592,924.618 475.088,924.053C474.585,923.488 473.916,923.206 473.082,923.206C472.248,923.206 471.576,923.492 471.065,924.064C470.555,924.635 470.3,925.498 470.3,926.651Z" style="fill:rgb(252,252,252);fill-rule:nonzero;stroke-width:0.42px;stroke-linecap:butt;stroke:black;"/>
            <path d="M480.937,931.668L478.544,921.647L480.615,921.647L482.126,928.531L483.958,921.647L486.364,921.647L488.121,928.647L489.659,921.647L491.696,921.647L489.263,931.668L487.116,931.668L485.12,924.176L483.131,931.668L480.937,931.668Z" style="fill:rgb(252,252,252);fill-rule:nonzero;stroke-width:0.42px;stroke-linecap:butt;stroke:black;"/>
            <path d="M492.729,931.668L492.729,921.647L500.159,921.647L500.159,923.342L494.752,923.342L494.752,925.564L499.783,925.564L499.783,927.252L494.752,927.252L494.752,929.98L500.351,929.98L500.351,931.668L492.729,931.668Z" style="fill:rgb(252,252,252);fill-rule:nonzero;stroke-width:0.42px;stroke-linecap:butt;stroke:black;"/>
            <path d="M502.073,931.668L502.073,921.647L506.332,921.647C507.403,921.647 508.181,921.737 508.666,921.917C509.152,922.097 509.54,922.417 509.832,922.877C510.124,923.338 510.27,923.864 510.27,924.457C510.27,925.209 510.048,925.829 509.606,926.319C509.164,926.809 508.504,927.118 507.624,927.246C508.062,927.501 508.423,927.781 508.708,928.086C508.992,928.392 509.376,928.934 509.859,929.713L511.083,931.668L508.663,931.668L507.2,929.488C506.681,928.709 506.325,928.217 506.134,928.015C505.942,927.812 505.74,927.673 505.525,927.598C505.311,927.523 504.972,927.485 504.507,927.485L504.097,927.485L504.097,931.668L502.073,931.668ZM504.097,925.885L505.594,925.885C506.564,925.885 507.171,925.844 507.412,925.762C507.654,925.68 507.843,925.539 507.979,925.338C508.116,925.138 508.185,924.887 508.185,924.586C508.185,924.249 508.095,923.977 507.915,923.77C507.735,923.562 507.48,923.431 507.152,923.377C506.988,923.354 506.496,923.342 505.676,923.342L504.097,923.342L504.097,925.885Z" style="fill:rgb(252,252,252);fill-rule:nonzero;stroke-width:0.42px;stroke-linecap:butt;stroke:black;"/>
            <path d="M584.525,931.668L584.525,921.647L591.956,921.647L591.956,923.342L586.548,923.342L586.548,925.564L591.58,925.564L591.58,927.252L586.548,927.252L586.548,929.98L592.147,929.98L592.147,931.668L584.525,931.668Z" style="fill:rgb(252,252,252);fill-rule:nonzero;stroke-width:0.42px;stroke-linecap:butt;stroke:black;"/>
            <path d="M596.119,931.668L596.119,923.342L593.145,923.342L593.145,921.647L601.109,921.647L601.109,923.342L598.142,923.342L598.142,931.668L596.119,931.668Z" style="fill:rgb(252,252,252);fill-rule:nonzero;stroke-width:0.42px;stroke-linecap:butt;stroke:black;"/>
            <path d="M602.422,931.668L602.422,921.647L604.445,921.647L604.445,925.591L608.41,925.591L608.41,921.647L610.433,921.647L610.433,931.668L608.41,931.668L608.41,927.287L604.445,927.287L604.445,931.668L602.422,931.668Z" style="fill:rgb(252,252,252);fill-rule:nonzero;stroke-width:0.42px;stroke-linecap:butt;stroke:black;"/>
            <path d="M612.525,931.668L612.525,921.647L619.956,921.647L619.956,923.342L614.548,923.342L614.548,925.564L619.58,925.564L619.58,927.252L614.548,927.252L614.548,929.98L620.147,929.98L620.147,931.668L612.525,931.668Z" style="fill:rgb(252,252,252);fill-rule:nonzero;stroke-width:0.42px;stroke-linecap:butt;stroke:black;"/>
            <path d="M621.87,931.668L621.87,921.647L626.129,921.647C627.2,921.647 627.978,921.737 628.463,921.917C628.948,922.097 629.337,922.417 629.629,922.877C629.92,923.338 630.066,923.864 630.066,924.457C630.066,925.209 629.845,925.829 629.403,926.319C628.961,926.809 628.3,927.118 627.421,927.246C627.858,927.501 628.219,927.781 628.504,928.086C628.789,928.392 629.173,928.934 629.656,929.713L630.88,931.668L628.46,931.668L626.997,929.488C626.477,928.709 626.122,928.217 625.93,928.015C625.739,927.812 625.536,927.673 625.322,927.598C625.108,927.523 624.768,927.485 624.303,927.485L623.893,927.485L623.893,931.668L621.87,931.668ZM623.893,925.885L625.39,925.885C626.361,925.885 626.967,925.844 627.209,925.762C627.45,925.68 627.639,925.539 627.776,925.338C627.913,925.138 627.981,924.887 627.981,924.586C627.981,924.249 627.891,923.977 627.711,923.77C627.531,923.562 627.277,923.431 626.949,923.377C626.785,923.354 626.293,923.342 625.472,923.342L623.893,923.342L623.893,925.885Z" style="fill:rgb(252,252,252);fill-rule:nonzero;stroke-width:0.42px;stroke-linecap:butt;stroke:black;"/>
            <path d="M631.994,931.668L631.994,921.647L633.963,921.647L638.064,928.339L638.064,921.647L639.944,921.647L639.944,931.668L637.914,931.668L633.874,925.133L633.874,931.668L631.994,931.668Z" style="fill:rgb(252,252,252);fill-rule:nonzero;stroke-width:0.42px;stroke-linecap:butt;stroke:black;"/>
            <path d="M642.084,931.668L642.084,921.647L649.514,921.647L649.514,923.342L644.107,923.342L644.107,925.564L649.138,925.564L649.138,927.252L644.107,927.252L644.107,929.98L649.706,929.98L649.706,931.668L642.084,931.668Z" style="fill:rgb(252,252,252);fill-rule:nonzero;stroke-width:0.42px;stroke-linecap:butt;stroke:black;"/>
            <path d="M653.677,931.668L653.677,923.342L650.704,923.342L650.704,921.647L658.668,921.647L658.668,923.342L655.701,923.342L655.701,931.668L653.677,931.668Z" style="fill:rgb(252,252,252);fill-rule:nonzero;stroke-width:0.42px;stroke-linecap:butt;stroke:black;"/>
            <path d="M751.634,931.668L749.242,921.647L751.313,921.647L752.824,928.531L754.656,921.647L757.062,921.647L758.819,928.647L760.357,921.647L762.394,921.647L759.961,931.668L757.814,931.668L755.818,924.176L753.829,931.668L751.634,931.668Z" style="fill:rgb(252,252,252);fill-rule:nonzero;stroke-width:0.42px;stroke-linecap:butt;stroke:black;"/>
            <path d="M763.426,931.668L763.426,921.647L766.673,921.647C767.904,921.647 768.706,921.697 769.08,921.797C769.654,921.948 770.135,922.275 770.522,922.778C770.909,923.282 771.103,923.932 771.103,924.73C771.103,925.345 770.991,925.863 770.768,926.282C770.545,926.701 770.261,927.03 769.917,927.27C769.573,927.509 769.223,927.667 768.868,927.745C768.385,927.84 767.685,927.888 766.769,927.888L765.45,927.888L765.45,931.668L763.426,931.668ZM765.45,923.342L765.45,926.186L766.557,926.186C767.355,926.186 767.888,926.134 768.157,926.029C768.426,925.924 768.636,925.76 768.789,925.537C768.942,925.313 769.018,925.054 769.018,924.757C769.018,924.393 768.911,924.092 768.697,923.855C768.483,923.618 768.211,923.47 767.883,923.411C767.642,923.365 767.156,923.342 766.427,923.342L765.45,923.342Z" style="fill:rgb(252,252,252);fill-rule:nonzero;stroke-width:0.42px;stroke-linecap:butt;stroke:black;"/>
            <path d="M772.252,928.408L774.22,928.216C774.339,928.877 774.579,929.363 774.941,929.672C775.304,929.982 775.793,930.137 776.408,930.137C777.059,930.137 777.551,929.999 777.881,929.724C778.211,929.448 778.377,929.126 778.377,928.756C778.377,928.519 778.307,928.318 778.168,928.151C778.029,927.985 777.786,927.84 777.44,927.717C777.203,927.635 776.663,927.489 775.82,927.28C774.735,927.011 773.974,926.681 773.537,926.289C772.921,925.737 772.614,925.065 772.614,924.272C772.614,923.762 772.759,923.284 773.048,922.84C773.337,922.396 773.754,922.057 774.299,921.825C774.843,921.592 775.501,921.476 776.271,921.476C777.529,921.476 778.476,921.752 779.111,922.303C779.747,922.855 780.081,923.591 780.113,924.511L778.089,924.6C778.003,924.085 777.817,923.715 777.532,923.489C777.247,923.264 776.82,923.151 776.251,923.151C775.663,923.151 775.202,923.272 774.87,923.513C774.655,923.668 774.548,923.876 774.548,924.135C774.548,924.372 774.649,924.575 774.849,924.744C775.104,924.958 775.724,925.181 776.709,925.414C777.693,925.646 778.421,925.886 778.893,926.135C779.364,926.383 779.733,926.723 780,927.153C780.267,927.584 780.4,928.116 780.4,928.75C780.4,929.324 780.24,929.862 779.921,930.363C779.602,930.864 779.151,931.237 778.568,931.481C777.985,931.724 777.258,931.846 776.387,931.846C775.12,931.846 774.147,931.553 773.468,930.968C772.789,930.382 772.384,929.529 772.252,928.408Z" style="fill:rgb(252,252,252);fill-rule:nonzero;stroke-width:0.42px;stroke-linecap:butt;stroke:black;"/>
            <path d="M863.788,931.668L863.788,921.647L868.047,921.647C869.118,921.647 869.896,921.737 870.382,921.917C870.867,922.097 871.255,922.417 871.547,922.877C871.839,923.338 871.985,923.864 871.985,924.457C871.985,925.209 871.764,925.829 871.322,926.319C870.879,926.809 870.219,927.118 869.339,927.246C869.777,927.501 870.138,927.781 870.423,928.086C870.707,928.392 871.091,928.934 871.574,929.713L872.798,931.668L870.378,931.668L868.915,929.488C868.396,928.709 868.04,928.217 867.849,928.015C867.657,927.812 867.455,927.673 867.24,927.598C867.026,927.523 866.687,927.485 866.222,927.485L865.812,927.485L865.812,931.668L863.788,931.668ZM865.812,925.885L867.309,925.885C868.28,925.885 868.886,925.844 869.127,925.762C869.369,925.68 869.558,925.539 869.695,925.338C869.831,925.138 869.9,924.887 869.9,924.586C869.9,924.249 869.81,923.977 869.63,923.77C869.45,923.562 869.196,923.431 868.867,923.377C868.703,923.354 868.211,923.342 867.391,923.342L865.812,923.342L865.812,925.885Z" style="fill:rgb(252,252,252);fill-rule:nonzero;stroke-width:0.42px;stroke-linecap:butt;stroke:black;"/>
            <path d="M873.892,931.668L873.892,921.647L881.322,921.647L881.322,923.342L875.915,923.342L875.915,925.564L880.947,925.564L880.947,927.252L875.915,927.252L875.915,929.98L881.514,929.98L881.514,931.668L873.892,931.668Z" style="fill:rgb(252,252,252);fill-rule:nonzero;stroke-width:0.42px;stroke-linecap:butt;stroke:black;"/>
            <path d="M882.717,928.408L884.686,928.216C884.804,928.877 885.045,929.363 885.407,929.672C885.769,929.982 886.258,930.137 886.873,930.137C887.525,930.137 888.016,929.999 888.346,929.724C888.677,929.448 888.842,929.126 888.842,928.756C888.842,928.519 888.773,928.318 888.634,928.151C888.495,927.985 888.252,927.84 887.906,927.717C887.669,927.635 887.128,927.489 886.285,927.28C885.201,927.011 884.44,926.681 884.002,926.289C883.387,925.737 883.079,925.065 883.079,924.272C883.079,923.762 883.224,923.284 883.513,922.84C883.803,922.396 884.22,922.057 884.764,921.825C885.309,921.592 885.966,921.476 886.737,921.476C887.994,921.476 888.941,921.752 889.577,922.303C890.213,922.855 890.546,923.591 890.578,924.511L888.555,924.6C888.468,924.085 888.283,923.715 887.998,923.489C887.713,923.264 887.286,923.151 886.716,923.151C886.128,923.151 885.668,923.272 885.335,923.513C885.121,923.668 885.014,923.876 885.014,924.135C885.014,924.372 885.114,924.575 885.315,924.744C885.57,924.958 886.19,925.181 887.174,925.414C888.158,925.646 888.886,925.886 889.358,926.135C889.83,926.383 890.199,926.723 890.466,927.153C890.732,927.584 890.865,928.116 890.865,928.75C890.865,929.324 890.706,929.862 890.387,930.363C890.068,930.864 889.617,931.237 889.033,931.481C888.45,931.724 887.723,931.846 886.853,931.846C885.586,931.846 884.613,931.553 883.934,930.968C883.255,930.382 882.849,929.529 882.717,928.408Z" style="fill:rgb(252,252,252);fill-rule:nonzero;stroke-width:0.42px;stroke-linecap:butt;stroke:black;"/>
            <path d="M892.568,931.668L892.568,921.647L899.998,921.647L899.998,923.342L894.591,923.342L894.591,925.564L899.622,925.564L899.622,927.252L894.591,927.252L894.591,929.98L900.19,929.98L900.19,931.668L892.568,931.668Z" style="fill:rgb(252,252,252);fill-rule:nonzero;stroke-width:0.42px;stroke-linecap:butt;stroke:black;"/>
            <path d="M904.161,931.668L904.161,923.342L901.188,923.342L901.188,921.647L909.152,921.647L909.152,923.342L906.185,923.342L906.185,931.668L904.161,931.668Z" style="fill:rgb(252,252,252);fill-rule:nonzero;stroke-width:0.42px;stroke-linecap:butt;stroke:black;"/>
        </g>
        <g id="ON/off" transform="matrix(1.60608,0,0,1.59048,-111.728,-706.516)">
            <g transform="matrix(1,0,0,1,-0.627516,0.355553)">
                <ellipse cx="321.797" cy="999.854" rx="16.795" ry="16.434" style="fill:rgb(230,230,230);stroke-width:0.63px;stroke:black;"/>
            </g>
            <g transform="matrix(0.766109,0,0,0.766109,74.7377,234.386)">
                <ellipse cx="321.797" cy="999.854" rx="16.795" ry="16.434" style="fill:rgb(230,230,230);stroke-width:1.63px;stroke:black;"/>
            </g>
            <g transform="matrix(1,0,0,1,-0.0942289,0.933291)">
                <path d="M321.381,992.932L321.381,1006" style="fill:none;stroke-width:2.19px;stroke:black;"/>
            </g>
        </g>
    </g>
</svg>
