<?xml version="1.0" standalone="no"?>
<!DOCTYPE svg PUBLIC "-//W3C//DTD SVG 1.1//EN" "http://www.w3.org/Graphics/SVG/1.1/DTD/svg11.dtd">
<svg width="100%" height="100%" viewBox="0 0 1280 1150" version="1.1" xmlns="http://www.w3.org/2000/svg" xmlns:xlink="http://www.w3.org/1999/xlink" xml:space="preserve" style="fill-rule:evenodd;clip-rule:evenodd;stroke-linejoin:round;stroke-miterlimit:1.41421;">
    <g transform="matrix(0.965926,-0.258819,0.258819,0.965926,-524.481,206.115)">
        <g id="Antennen 1043">
            <g id="new Antenne 1043">
                <path d="M652.036,619.119L703.126,619.119L700.344,526.551L655.39,526.551L652.036,619.119Z" style="fill:rgb(49,49,49);stroke-width:0.5px;stroke:black;"/>
                <rect x="665.084" y="199.138" width="27.899" height="28.754" style="fill:rgb(49,49,49);stroke-width:0.5px;stroke:black;"/>
                <path d="M649.243,689.441L650.988,616.958C669.108,618.552 687.221,618.824 705.323,616.958L707.183,689.441L649.243,689.441Z" style="fill:rgb(49,49,49);stroke-width:0.5px;stroke:black;"/>
                <path d="M650.848,597.162L650.848,612.298C668.997,614.545 687.229,614.718 705.566,612.298L705.566,597.162C687.342,599.115 669.101,598.905 650.848,597.162Z" style="fill:rgb(49,49,49);stroke-width:0.5px;stroke:black;"/>
                <path d="M663.141,341.639L694.434,341.639L694.434,223.461L663.746,223.461L663.141,341.639Z" style="fill:rgb(49,49,49);stroke-width:0.5px;stroke:black;"/>
                <path d="M651.347,593.426C669.264,594.991 687.044,594.958 704.694,593.426L703.132,552.011C686.546,553.968 669.625,553.864 652.419,552.011L651.347,593.426Z" style="fill:rgb(49,49,49);stroke-width:0.5px;stroke:black;"/>
                <path d="M653.079,547.908C669.797,549.558 686.475,549.685 703.103,547.908L702.503,533.319C686.288,534.981 669.99,534.936 653.614,533.319L653.079,547.908Z" style="fill:rgb(49,49,49);stroke-width:0.5px;stroke:black;"/>
                <path d="M653.614,529.948C669.993,531.254 686.296,531.355 702.503,529.948L697.191,338.329C685.178,340.346 673.138,340.435 661.07,338.329L653.614,529.948Z" style="fill:rgb(49,49,49);stroke-width:0.5px;stroke:black;"/>
                <rect x="663.746" y="205.104" width="30.688" height="14.659" style="fill:rgb(49,49,49);stroke-width:0.5px;stroke:black;"/>
                <path d="M663.687,200.966L694.443,200.966L694.443,144.136C688.239,128.631 671.247,128.6 663.687,144.136L663.687,200.966Z" style="fill:rgb(49,49,49);stroke-width:0.5px;stroke:black;"/>
            </g>
        </g>
    </g>
    <g id="rippen">
        <g id="rippen rechts">
            <g>
                <g transform="matrix(0.761096,0,0,0.761096,298.965,294.449)">
                    <path d="M1241.6,892.412L1249.01,906.328L1245.96,913.821L1241.6,913.821L1238.99,892.412L1241.6,892.412Z" style="fill:rgb(51,51,51);stroke-width:0.66px;stroke:black;"/>
                </g>
                <g transform="matrix(0.761096,0,0,0.761096,298.965,294.449)">
                    <path d="M1240.09,909.578C1243.88,909.985 1246.97,909.1 1249.01,906.328L1249.01,915.716C1247.37,918.684 1244.24,918.992 1240.7,919.071L1240.09,909.578Z" style="fill:rgb(51,51,51);stroke-width:0.66px;stroke:black;"/>
                </g>
            </g>
            <g>
                <g transform="matrix(0.895834,0,0,0.895834,130.986,146.98)">
                    <path d="M1241.6,892.412L1249.01,906.328L1245.96,913.821L1241.6,913.821L1238.99,892.412L1241.6,892.412Z" style="fill:rgb(51,51,51);stroke-width:0.56px;stroke:black;"/>
                </g>
                <g transform="matrix(0.895834,0,0,0.895834,130.986,146.98)">
                    <path d="M1240.09,909.578C1243.88,909.985 1246.97,909.1 1249.01,906.328L1249.01,915.716C1247.37,918.684 1244.24,918.992 1240.7,919.071L1240.09,909.578Z" style="fill:rgb(51,51,51);stroke-width:0.56px;stroke:black;"/>
                </g>
            </g>
            <g>
                <g transform="matrix(1,0,0,1,0.455564,25.8628)">
                    <path d="M1241.6,892.412L1249.01,906.328L1245.96,913.821L1241.6,913.821L1238.99,892.412L1241.6,892.412Z" style="fill:rgb(51,51,51);stroke-width:0.5px;stroke:black;"/>
                </g>
                <g transform="matrix(1,0,0,1,0.455564,25.8628)">
                    <path d="M1240.09,909.578C1243.88,909.985 1246.97,909.1 1249.01,906.328L1249.01,915.716C1247.37,918.684 1244.24,918.992 1240.7,919.071L1240.09,909.578Z" style="fill:rgb(51,51,51);stroke-width:0.5px;stroke:black;"/>
                </g>
            </g>
            <g>
                <path d="M1241.6,892.412L1249.01,906.328L1245.96,913.821L1241.6,913.821L1238.99,892.412L1241.6,892.412Z" style="fill:rgb(51,51,51);stroke-width:0.5px;stroke:black;"/>
                <path d="M1240.09,909.578C1243.88,909.985 1246.97,909.1 1249.01,906.328L1249.01,915.716C1247.37,918.684 1244.24,918.992 1240.7,919.071L1240.09,909.578Z" style="fill:rgb(51,51,51);stroke-width:0.5px;stroke:black;"/>
            </g>
            <g>
                <path d="M1240.14,866.776L1248.99,881.994L1246.04,886.95L1238.92,886.95L1236.59,866.776L1240.14,866.776Z" style="fill:rgb(51,51,51);stroke-width:0.5px;stroke:black;"/>
                <g transform="matrix(1,0,0,0.896026,0,92.9608)">
                    <path d="M1238.87,883.847C1242.7,884.399 1246.01,883.065 1249.01,880.617L1249.01,890.531C1247.98,892.652 1244.86,893.758 1240.14,894.081L1238.87,883.847Z" style="fill:rgb(51,51,51);stroke-width:0.53px;stroke:black;"/>
                </g>
            </g>
            <g>
                <path d="M1140.2,705.009C1150,707.551 1157.58,712.8 1162.64,721.13L1248.94,858.06L1247.88,863.427L1243.69,864.809L1235.73,863.571L1140.2,705.009Z" style="fill:rgb(51,51,51);stroke-width:0.5px;stroke:black;"/>
                <g transform="matrix(1,0,0,1.34688,0,-298.374)">
                    <path d="M1237.42,867.999C1242.73,868.034 1247.04,867.325 1248.94,864.835C1249.06,864.122 1248.95,858.906 1248.94,858.597C1246.75,862.143 1241.98,863.061 1235.99,862.642" style="fill:rgb(51,51,51);stroke-width:0.42px;stroke:black;"/>
                </g>
            </g>
        </g>
        <g id="rippen rechts1" transform="matrix(-1,0,0,1,1328.52,0)">
            <g>
                <g transform="matrix(0.761096,0,0,0.761096,298.965,294.449)">
                    <path d="M1241.6,892.412L1249.01,906.328L1245.96,913.821L1241.6,913.821L1238.99,892.412L1241.6,892.412Z" style="fill:rgb(51,51,51);stroke-width:0.66px;stroke:black;"/>
                </g>
                <g transform="matrix(0.761096,0,0,0.761096,298.965,294.449)">
                    <path d="M1240.09,909.578C1243.88,909.985 1246.97,909.1 1249.01,906.328L1249.01,915.716C1247.37,918.684 1244.24,918.992 1240.7,919.071L1240.09,909.578Z" style="fill:rgb(51,51,51);stroke-width:0.66px;stroke:black;"/>
                </g>
            </g>
            <g>
                <g transform="matrix(0.895834,0,0,0.895834,130.986,146.98)">
                    <path d="M1241.6,892.412L1249.01,906.328L1245.96,913.821L1241.6,913.821L1238.99,892.412L1241.6,892.412Z" style="fill:rgb(51,51,51);stroke-width:0.56px;stroke:black;"/>
                </g>
                <g transform="matrix(0.895834,0,0,0.895834,130.986,146.98)">
                    <path d="M1240.09,909.578C1243.88,909.985 1246.97,909.1 1249.01,906.328L1249.01,915.716C1247.37,918.684 1244.24,918.992 1240.7,919.071L1240.09,909.578Z" style="fill:rgb(51,51,51);stroke-width:0.56px;stroke:black;"/>
                </g>
            </g>
            <g>
                <g transform="matrix(1,0,0,1,0.455564,25.8628)">
                    <path d="M1241.6,892.412L1249.01,906.328L1245.96,913.821L1241.6,913.821L1238.99,892.412L1241.6,892.412Z" style="fill:rgb(51,51,51);stroke-width:0.5px;stroke:black;"/>
                </g>
                <g transform="matrix(1,0,0,1,0.455564,25.8628)">
                    <path d="M1240.09,909.578C1243.88,909.985 1246.97,909.1 1249.01,906.328L1249.01,915.716C1247.37,918.684 1244.24,918.992 1240.7,919.071L1240.09,909.578Z" style="fill:rgb(51,51,51);stroke-width:0.5px;stroke:black;"/>
                </g>
            </g>
            <g>
                <path d="M1241.6,892.412L1249.01,906.328L1245.96,913.821L1241.6,913.821L1238.99,892.412L1241.6,892.412Z" style="fill:rgb(51,51,51);stroke-width:0.5px;stroke:black;"/>
                <path d="M1240.09,909.578C1243.88,909.985 1246.97,909.1 1249.01,906.328L1249.01,915.716C1247.37,918.684 1244.24,918.992 1240.7,919.071L1240.09,909.578Z" style="fill:rgb(51,51,51);stroke-width:0.5px;stroke:black;"/>
            </g>
            <g>
                <path d="M1240.14,866.776L1248.99,881.994L1246.04,886.95L1238.92,886.95L1236.59,866.776L1240.14,866.776Z" style="fill:rgb(51,51,51);stroke-width:0.5px;stroke:black;"/>
                <g transform="matrix(1,0,0,0.896026,0,92.9608)">
                    <path d="M1238.87,883.847C1242.7,884.399 1246.01,883.065 1249.01,880.617L1249.01,890.531C1247.98,892.652 1244.86,893.758 1240.14,894.081L1238.87,883.847Z" style="fill:rgb(51,51,51);stroke-width:0.53px;stroke:black;"/>
                </g>
            </g>
            <g>
                <path d="M1140.2,705.009C1150,707.551 1157.58,712.8 1162.64,721.13L1248.94,858.06L1247.88,863.427L1243.69,864.809L1235.73,863.571L1140.2,705.009Z" style="fill:rgb(51,51,51);stroke-width:0.5px;stroke:black;"/>
                <g transform="matrix(1,0,0,1.34688,0,-298.374)">
                    <path d="M1237.42,867.999C1242.73,868.034 1247.04,867.325 1248.94,864.835C1249.06,864.122 1248.95,858.906 1248.94,858.597C1246.75,862.143 1241.98,863.061 1235.99,862.642" style="fill:rgb(51,51,51);stroke-width:0.42px;stroke:black;"/>
                </g>
            </g>
        </g>
    </g>
    <g id="Router">
        <g id="Plaste weis">
            <path d="M84.296,981.947C86.513,932.857 87.593,880.051 96.522,852.897L191.308,703.716C195.01,697.889 223.422,689.309 242.194,688.874L1062.77,688.874C1102.56,689.162 1132.19,692.715 1138.68,703.716L1228.06,846.708C1231.44,852.7 1234.16,858.892 1236.37,865.237C1240.57,904.026 1241.72,942.997 1243.22,981.947L1230.41,996.746L98.354,996.746L84.296,981.947Z" style="fill:white;stroke-width:3px;stroke-linecap:round;stroke:black;"/>
            <path d="M259.697,986.318L94.282,986.318C89.968,986.135 86.672,984.601 84.22,981.947L84.22,1002.75C84.22,1005.88 92.109,1013.63 94.282,1013.63L259.697,1013.63L259.697,986.318Z" style="fill:white;stroke-width:3px;stroke-linecap:round;stroke:black;"/>
            <g transform="matrix(-1,0,0,1,1327.35,0)">
                <path d="M259.697,986.318L94.282,986.318C89.968,986.135 86.672,984.601 84.22,981.947L84.22,1002.75C84.22,1005.88 92.109,1013.63 94.282,1013.63L259.697,1013.63L259.697,986.318Z" style="fill:white;stroke-width:3px;stroke-linecap:round;stroke:black;"/>
            </g>
        </g>
        <g id="QSS">
            <path d="M1223.29,928.479C1223.29,923.226 1219.03,918.961 1213.78,918.961L1114.87,918.961C1109.61,918.961 1105.35,923.226 1105.35,928.479L1105.35,972.96C1105.35,978.213 1109.61,982.477 1114.87,982.477L1213.78,982.477C1219.03,982.477 1223.29,978.213 1223.29,972.96L1223.29,928.479Z" style="fill:rgb(64,200,43);stroke-width:0.65px;stroke-linecap:round;stroke:black;"/>
            <g id="wifi-links">
                <path d="M1165.04,941.731C1161.05,948.191 1161.14,954.236 1165.04,960.178" style="fill:none;stroke-width:0.65px;stroke-linecap:round;stroke:black;"/>
                <g transform="matrix(1.22273,0,0,1.13864,-262.476,-131.913)">
                    <path d="M1165.04,941.731C1161.05,948.191 1161.14,954.236 1165.04,960.178" style="fill:none;stroke-width:0.55px;stroke-linecap:round;stroke:black;"/>
                </g>
                <g transform="matrix(1.28019,0,0,1.27899,-332.767,-265.276)">
                    <path d="M1165.04,941.731C1161.05,948.191 1161.14,954.236 1165.04,960.178" style="fill:none;stroke-width:0.51px;stroke-linecap:round;stroke:black;"/>
                </g>
            </g>
            <g id="wifi-rechts" transform="matrix(-1,5.66554e-16,-5.66554e-16,-1,2372.96,1902.65)">
                <path d="M1165.04,941.731C1161.05,948.191 1161.14,954.236 1165.04,960.178" style="fill:none;stroke-width:0.65px;stroke-linecap:round;stroke:black;"/>
                <g transform="matrix(1.22273,0,0,1.13864,-262.476,-131.913)">
                    <path d="M1165.04,941.731C1161.05,948.191 1161.14,954.236 1165.04,960.178" style="fill:none;stroke-width:0.55px;stroke-linecap:round;stroke:black;"/>
                </g>
                <g transform="matrix(1.28019,0,0,1.27899,-332.767,-265.276)">
                    <path d="M1165.04,941.731C1161.05,948.191 1161.14,954.236 1165.04,960.178" style="fill:none;stroke-width:0.51px;stroke-linecap:round;stroke:black;"/>
                </g>
            </g>
            <g transform="matrix(1.15,0,0,0.95,-178.764,57.5675)">
                <path d="M1176.49,933.59L1176.49,946.756C1176.49,947.111 1176.54,947.364 1176.64,947.515C1176.75,947.665 1176.92,947.74 1177.16,947.74C1177.41,947.74 1177.59,947.663 1177.7,947.508C1177.8,947.353 1177.85,947.102 1177.85,946.756L1177.85,933.59C1177.85,933.234 1177.8,932.984 1177.7,932.838C1177.59,932.692 1177.41,932.619 1177.16,932.619C1176.92,932.619 1176.75,932.697 1176.64,932.852C1176.54,933.007 1176.49,933.253 1176.49,933.59ZM1172.45,934.943C1172.45,933.066 1172.82,931.728 1173.55,930.931C1174.28,930.133 1175.48,929.734 1177.16,929.734C1178.83,929.734 1180.04,930.129 1180.77,930.917C1181.49,931.705 1181.86,933.048 1181.86,934.943L1181.86,945.607C1181.86,946.984 1181.69,948.021 1181.34,948.718C1180.99,949.415 1180.4,949.955 1179.56,950.338C1179.56,950.557 1179.61,950.714 1179.7,950.81C1179.8,950.905 1179.95,950.953 1180.15,950.953L1181.78,950.953L1181.78,953.893L1179.29,953.893C1178.77,953.893 1178.37,953.637 1178.09,953.127C1177.8,952.617 1177.66,951.883 1177.66,950.926L1177.66,950.789C1177.51,950.798 1177.37,950.805 1177.24,950.81C1177.11,950.814 1176.99,950.816 1176.87,950.816C1175.35,950.816 1174.23,950.402 1173.52,949.572C1172.81,948.743 1172.45,947.421 1172.45,945.607L1172.45,934.943Z" style="fill:white;fill-rule:nonzero;stroke-width:0.38px;stroke:rgb(49,49,49);"/>
                <path d="M1182.87,933.795C1182.87,932.51 1183.28,931.512 1184.11,930.801C1184.93,930.09 1186.09,929.734 1187.57,929.734C1189.07,929.734 1190.22,930.092 1191.03,930.808C1191.84,931.523 1192.25,932.546 1192.25,933.877L1192.25,937.172L1188.24,937.172L1188.24,933.59C1188.24,933.225 1188.19,932.972 1188.09,932.831C1187.99,932.69 1187.82,932.619 1187.57,932.619C1187.32,932.619 1187.14,932.694 1187.03,932.845C1186.93,932.995 1186.88,933.244 1186.88,933.59L1186.88,935.381C1186.88,935.682 1186.91,935.944 1186.99,936.167C1187.07,936.39 1187.19,936.607 1187.37,936.816L1191.24,941.068C1191.6,941.46 1191.86,941.875 1192.02,942.313C1192.17,942.75 1192.25,943.447 1192.25,944.404L1192.25,946.756C1192.25,948.05 1191.84,949.046 1191.03,949.743C1190.21,950.44 1189.05,950.789 1187.55,950.789C1186.01,950.789 1184.84,950.425 1184.05,949.695C1183.27,948.966 1182.87,947.891 1182.87,946.469L1182.87,942.695L1186.88,942.695L1186.88,946.756C1186.88,947.102 1186.93,947.353 1187.03,947.508C1187.14,947.663 1187.32,947.74 1187.57,947.74C1187.81,947.74 1187.98,947.665 1188.09,947.515C1188.19,947.364 1188.24,947.111 1188.24,946.756L1188.24,944.623C1188.24,944.331 1188.19,944.06 1188.09,943.81C1187.98,943.559 1187.8,943.288 1187.55,942.996L1183.91,938.881C1183.54,938.462 1183.27,938.04 1183.11,937.616C1182.95,937.192 1182.87,936.625 1182.87,935.914L1182.87,935.613L1182.87,933.795Z" style="fill:white;fill-rule:nonzero;stroke-width:0.38px;stroke:rgb(49,49,49);"/>
                <path d="M1193.18,933.795C1193.18,932.51 1193.59,931.512 1194.42,930.801C1195.24,930.09 1196.4,929.734 1197.88,929.734C1199.38,929.734 1200.53,930.092 1201.34,930.808C1202.15,931.523 1202.56,932.546 1202.56,933.877L1202.56,937.172L1198.55,937.172L1198.55,933.59C1198.55,933.225 1198.5,932.972 1198.4,932.831C1198.3,932.69 1198.13,932.619 1197.88,932.619C1197.63,932.619 1197.45,932.694 1197.34,932.845C1197.24,932.995 1197.18,933.244 1197.18,933.59L1197.18,935.381C1197.18,935.682 1197.22,935.944 1197.3,936.167C1197.38,936.39 1197.5,936.607 1197.68,936.816L1201.55,941.068C1201.91,941.46 1202.17,941.875 1202.33,942.313C1202.48,942.75 1202.56,943.447 1202.56,944.404L1202.56,946.756C1202.56,948.05 1202.15,949.046 1201.33,949.743C1200.52,950.44 1199.36,950.789 1197.86,950.789C1196.32,950.789 1195.15,950.425 1194.36,949.695C1193.57,948.966 1193.18,947.891 1193.18,946.469L1193.18,942.695L1197.18,942.695L1197.18,946.756C1197.18,947.102 1197.24,947.353 1197.34,947.508C1197.45,947.663 1197.63,947.74 1197.88,947.74C1198.12,947.74 1198.29,947.665 1198.39,947.515C1198.5,947.364 1198.55,947.111 1198.55,946.756L1198.55,944.623C1198.55,944.331 1198.5,944.06 1198.39,943.81C1198.29,943.559 1198.11,943.288 1197.86,942.996L1194.22,938.881C1193.84,938.462 1193.58,938.04 1193.42,937.616C1193.26,937.192 1193.18,936.625 1193.18,935.914L1193.18,935.613L1193.18,933.795Z" style="fill:white;fill-rule:nonzero;stroke-width:0.38px;stroke:rgb(49,49,49);"/>
            </g>
            <g id="ON/off" transform="matrix(1.17447,0,0,1.17447,753.45,-223.957)">
                <g transform="matrix(1,0,0,1,-0.627516,0.355553)">
                    <ellipse cx="321.797" cy="999.854" rx="16.795" ry="16.434" style="fill:rgb(72,72,74);stroke-width:0.85px;stroke-linecap:round;stroke:black;"/>
                </g>
                <g transform="matrix(0.766109,0,0,0.766109,74.7377,234.386)">
                    <ellipse cx="321.797" cy="999.854" rx="16.795" ry="16.434" style="fill:rgb(72,72,74);stroke-width:2.22px;stroke-linecap:round;stroke:black;"/>
                </g>
                <g transform="matrix(1,0,0,1,-0.0942289,0.933291)">
                    <path d="M321.381,992.932L321.381,1006" style="fill:none;stroke-width:2.98px;stroke-linecap:round;stroke:black;"/>
                </g>
            </g>
        </g>
        <path d="M97.426,852.496C96.783,841.411 1230.34,844.994 1231.06,852.496" style="fill:none;stroke-width:3px;stroke-linecap:round;stroke:black;"/>
        <g id="Front">
            <g transform="matrix(1.00334,0,0,1.02921,-2.41872,-29.4677)">
                <path d="M1077.9,918.634C1077.9,899.173 1061.7,883.372 1041.73,883.372L288.417,883.372C268.454,883.372 252.246,899.173 252.246,918.634L252.246,973.432C252.246,992.893 268.454,1008.69 288.417,1008.69L1041.73,1008.69C1061.7,1008.69 1077.9,992.893 1077.9,973.432L1077.9,918.634Z" style="fill:rgb(51,51,51);"/>
            </g>
            <path d="M1079.17,966.72C1079.17,956.578 1070.94,948.343 1060.8,948.343L269.032,948.343C258.89,948.343 250.656,956.578 250.656,966.72L250.656,1003.47C250.656,1013.61 258.89,1021.85 269.032,1021.85L1060.8,1021.85C1070.94,1021.85 1079.17,1013.61 1079.17,1003.47L1079.17,966.72Z" style="fill:rgb(51,51,51);"/>
            <g transform="matrix(1,0,0,1.76392,0,-718.176)">
                <path d="M936.461,944.183C936.461,941.941 933.25,940.121 929.296,940.121L405.838,940.121C401.883,940.121 398.673,941.941 398.673,944.183L398.673,946.328C398.673,948.57 401.883,950.391 405.838,950.391L929.296,950.391C933.25,950.391 936.461,948.57 936.461,946.328L936.461,944.183Z" style="fill:rgb(54,129,35);stroke-width:0.7px;stroke:black;"/>
            </g>
            <g>
                <circle cx="433.52" cy="948.693" r="6.161" style="fill:rgb(175,239,159);stroke-width:0.5px;stroke:black;"/>
                <g transform="matrix(1,0,0,1,76.3442,0)">
                    <circle cx="433.52" cy="948.693" r="6.161" style="fill:rgb(175,239,159);stroke-width:0.5px;stroke:black;"/>
                </g>
                <g transform="matrix(1,0,0,1,148.4,0)">
                    <circle cx="433.52" cy="948.693" r="6.161" style="fill:rgb(175,239,159);stroke-width:0.5px;stroke:black;"/>
                </g>
                <g transform="matrix(1,0,0,1,214.262,0)">
                    <circle cx="433.52" cy="948.693" r="6.161" style="fill:rgb(175,239,159);stroke-width:0.5px;stroke:black;"/>
                </g>
                <g transform="matrix(1,0,0,1,250.149,0)">
                    <circle cx="433.52" cy="948.693" r="6.161" style="fill:rgb(175,239,159);stroke-width:0.5px;stroke:black;"/>
                </g>
                <g transform="matrix(1,0,0,1,285.169,0)">
                    <circle cx="433.52" cy="948.693" r="6.161" style="fill:rgb(175,239,159);stroke-width:0.5px;stroke:black;"/>
                </g>
                <g transform="matrix(1,0,0,1,324.581,0)">
                    <circle cx="433.52" cy="948.693" r="6.161" style="fill:rgb(175,239,159);stroke-width:0.5px;stroke:black;"/>
                </g>
                <g transform="matrix(1,0,0,1,390.303,0)">
                    <circle cx="433.52" cy="948.693" r="6.161" style="fill:rgb(175,239,159);stroke-width:0.5px;stroke:black;"/>
                </g>
                <g transform="matrix(1,0,0,1,468.965,0)">
                    <circle cx="433.52" cy="948.693" r="6.161" style="fill:rgb(175,239,159);stroke-width:0.5px;stroke:black;"/>
                </g>
            </g>
            <g transform="matrix(1.00077,0,0,0.844315,1.86022,149.748)">
                <path d="M962.231,946.943C962.231,938.71 956.591,932.026 949.645,932.026L377.334,932.026C370.388,932.026 364.749,938.71 364.749,946.943C364.749,955.177 370.388,961.861 377.334,961.861L949.645,961.861C956.591,961.861 962.231,955.177 962.231,946.943Z" style="fill:none;stroke-width:0.54px;stroke:black;"/>
            </g>
        </g>
    </g>
    <g id="Beschriftung">
        <g transform="matrix(0.89,0,0,1,97.9836,3.91336)">
            <path d="M923.721,979.725L923.721,969.624L919.948,969.624L919.948,968.272L929.026,968.272L929.026,969.624L925.237,969.624L925.237,979.725L923.721,979.725Z" style="fill:rgb(252,252,252);fill-rule:nonzero;"/>
            <path d="M930.518,979.725L930.518,968.272L932.034,968.272L932.034,978.374L937.675,978.374L937.675,979.725L930.518,979.725Z" style="fill:rgb(252,252,252);fill-rule:nonzero;"/>
            <rect x="942.531" y="974.874" width="4.32" height="1.414" style="fill:rgb(252,252,252);fill-rule:nonzero;"/>
            <path d="M955.031,979.725L951.992,968.272L953.547,968.272L955.289,975.78C955.476,976.566 955.638,977.347 955.773,978.124C956.065,976.9 956.237,976.194 956.289,976.006L958.468,968.272L960.297,968.272L961.937,974.069C962.349,975.506 962.645,976.858 962.828,978.124C962.974,977.4 963.164,976.569 963.398,975.631L965.195,968.272L966.718,968.272L963.578,979.725L962.117,979.725L959.703,970.999C959.5,970.269 959.38,969.821 959.343,969.655C959.224,970.181 959.112,970.629 959.007,970.999L956.578,979.725L955.031,979.725Z" style="fill:rgb(252,252,252);fill-rule:nonzero;"/>
            <path d="M968.156,979.725L968.156,968.272L973.234,968.272C974.255,968.272 975.031,968.375 975.562,968.581C976.093,968.786 976.518,969.15 976.836,969.67C977.153,970.191 977.312,970.767 977.312,971.397C977.312,972.209 977.049,972.894 976.523,973.452C975.997,974.009 975.185,974.363 974.086,974.514C974.487,974.707 974.791,974.897 975,975.084C975.442,975.491 975.862,975.999 976.257,976.608L978.25,979.725L976.343,979.725L974.828,977.342C974.385,976.655 974.02,976.129 973.734,975.764C973.448,975.4 973.191,975.144 972.964,974.999C972.738,974.853 972.507,974.751 972.273,974.694C972.101,974.657 971.82,974.639 971.429,974.639L969.672,974.639L969.672,979.725L968.156,979.725ZM969.672,973.327L972.929,973.327C973.622,973.327 974.164,973.255 974.554,973.112C974.945,972.969 975.242,972.739 975.445,972.424C975.648,972.109 975.75,971.767 975.75,971.397C975.75,970.855 975.553,970.41 975.16,970.061C974.767,969.712 974.145,969.538 973.297,969.538L969.672,969.538L969.672,973.327Z" style="fill:rgb(252,252,252);fill-rule:nonzero;"/>
            <path d="M979.211,969.772L979.211,968.42L986.625,968.42L986.625,969.514C985.895,970.29 985.173,971.321 984.457,972.608C983.741,973.894 983.187,975.217 982.797,976.577C982.515,977.535 982.336,978.584 982.257,979.725L980.812,979.725C980.828,978.824 981.005,977.736 981.343,976.459C981.682,975.183 982.168,973.953 982.8,972.768C983.433,971.583 984.106,970.584 984.82,969.772L979.211,969.772Z" style="fill:rgb(252,252,252);fill-rule:nonzero;"/>
            <path d="M992.523,979.725L992.523,976.983L987.554,976.983L987.554,975.694L992.781,968.272L993.929,968.272L993.929,975.694L995.476,975.694L995.476,976.983L993.929,976.983L993.929,979.725L992.523,979.725ZM992.523,975.694L992.523,970.53L988.937,975.694L992.523,975.694Z" style="fill:rgb(252,252,252);fill-rule:nonzero;"/>
            <path d="M1002.21,979.725L1000.8,979.725L1000.8,970.764C1000.47,971.087 1000.02,971.41 999.472,971.733C998.923,972.056 998.429,972.298 997.992,972.459L997.992,971.1C998.778,970.73 999.466,970.282 1000.05,969.756C1000.64,969.23 1001.06,968.72 1001.3,968.225L1002.21,968.225L1002.21,979.725Z" style="fill:rgb(252,252,252);fill-rule:nonzero;"/>
            <path d="M1006.37,979.725L1006.37,968.272L1007.92,968.272L1013.94,977.264L1013.94,968.272L1015.39,968.272L1015.39,979.725L1013.84,979.725L1007.82,970.725L1007.82,979.725L1006.37,979.725Z" style="fill:rgb(252,252,252);fill-rule:nonzero;"/>
            <path d="M1017.94,979.725L1017.94,968.272L1021.88,968.272C1022.77,968.272 1023.45,968.327 1023.92,968.436C1024.58,968.587 1025.14,968.861 1025.6,969.256C1026.2,969.767 1026.66,970.419 1026.96,971.213C1027.26,972.008 1027.41,972.915 1027.41,973.936C1027.41,974.806 1027.3,975.577 1027.1,976.249C1026.9,976.92 1026.64,977.476 1026.32,977.916C1026,978.357 1025.65,978.703 1025.28,978.956C1024.9,979.208 1024.44,979.4 1023.91,979.53C1023.38,979.66 1022.76,979.725 1022.07,979.725L1017.94,979.725ZM1019.45,978.374L1021.9,978.374C1022.65,978.374 1023.25,978.303 1023.68,978.163C1024.11,978.022 1024.45,977.824 1024.7,977.569C1025.06,977.209 1025.34,976.726 1025.54,976.12C1025.74,975.513 1025.84,974.777 1025.84,973.913C1025.84,972.715 1025.65,971.794 1025.25,971.151C1024.86,970.508 1024.38,970.077 1023.82,969.858C1023.41,969.702 1022.76,969.624 1021.86,969.624L1019.45,969.624L1019.45,978.374Z" style="fill:rgb(252,252,252);fill-rule:nonzero;"/>
        </g>
        <g transform="matrix(0.89,0,0,1,-518.576,3.57615)">
            <path d="M925.534,979.725L924.128,979.725L924.128,970.764C923.789,971.087 923.345,971.41 922.796,971.733C922.246,972.056 921.753,972.298 921.315,972.459L921.315,971.1C922.102,970.73 922.789,970.282 923.378,969.756C923.966,969.23 924.383,968.72 924.628,968.225L925.534,968.225L925.534,979.725Z" style="fill:rgb(252,252,252);fill-rule:nonzero;"/>
            <path d="M929.136,976.725L930.612,976.6C930.721,977.319 930.975,977.859 931.374,978.221C931.772,978.583 932.253,978.764 932.815,978.764C933.492,978.764 934.065,978.509 934.534,977.999C935.003,977.488 935.237,976.811 935.237,975.967C935.237,975.165 935.012,974.532 934.561,974.069C934.111,973.605 933.521,973.374 932.792,973.374C932.339,973.374 931.93,973.476 931.565,973.682C931.201,973.888 930.914,974.155 930.706,974.483L929.386,974.311L930.495,968.428L936.19,968.428L936.19,969.772L931.62,969.772L931.003,972.85C931.69,972.371 932.412,972.131 933.167,972.131C934.167,972.131 935.011,972.478 935.698,973.17C936.386,973.863 936.729,974.754 936.729,975.842C936.729,976.879 936.427,977.775 935.823,978.53C935.089,979.457 934.086,979.92 932.815,979.92C931.774,979.92 930.923,979.629 930.264,979.045C929.606,978.462 929.229,977.689 929.136,976.725Z" style="fill:rgb(252,252,252);fill-rule:nonzero;"/>
            <path d="M938.034,974.077C938.034,972.722 938.173,971.633 938.452,970.807C938.731,969.982 939.145,969.345 939.694,968.897C940.244,968.449 940.935,968.225 941.768,968.225C942.383,968.225 942.922,968.349 943.386,968.596C943.849,968.844 944.232,969.2 944.534,969.666C944.836,970.133 945.073,970.7 945.245,971.37C945.417,972.039 945.503,972.941 945.503,974.077C945.503,975.42 945.365,976.505 945.089,977.331C944.813,978.156 944.4,978.794 943.85,979.245C943.301,979.695 942.607,979.92 941.768,979.92C940.664,979.92 939.797,979.525 939.167,978.733C938.412,977.78 938.034,976.228 938.034,974.077ZM939.479,974.077C939.479,975.957 939.699,977.208 940.139,977.831C940.58,978.453 941.123,978.764 941.768,978.764C942.414,978.764 942.957,978.452 943.397,977.827C943.837,977.202 944.057,975.952 944.057,974.077C944.057,972.191 943.837,970.939 943.397,970.319C942.957,969.699 942.409,969.389 941.753,969.389C941.107,969.389 940.591,969.663 940.206,970.209C939.721,970.907 939.479,972.196 939.479,974.077Z" style="fill:rgb(252,252,252);fill-rule:nonzero;"/>
            <path d="M947.456,979.725L947.456,968.272L949.737,968.272L952.448,976.381C952.698,977.137 952.88,977.702 952.995,978.077C953.125,977.66 953.328,977.048 953.604,976.241L956.346,968.272L958.386,968.272L958.386,979.725L956.925,979.725L956.925,970.139L953.596,979.725L952.229,979.725L948.917,969.975L948.917,979.725L947.456,979.725Z" style="fill:rgb(252,252,252);fill-rule:nonzero;"/>
            <path d="M961.948,979.725L960.643,979.725L960.643,968.272L962.05,968.272L962.05,972.358C962.643,971.613 963.401,971.241 964.323,971.241C964.833,971.241 965.317,971.344 965.772,971.549C966.228,971.755 966.603,972.044 966.897,972.416C967.192,972.789 967.422,973.238 967.589,973.764C967.755,974.29 967.839,974.853 967.839,975.452C967.839,976.874 967.487,977.972 966.784,978.749C966.081,979.525 965.237,979.913 964.253,979.913C963.274,979.913 962.505,979.504 961.948,978.686L961.948,979.725ZM961.932,975.514C961.932,976.509 962.068,977.228 962.339,977.67C962.781,978.394 963.38,978.756 964.136,978.756C964.75,978.756 965.281,978.489 965.729,977.956C966.177,977.422 966.401,976.626 966.401,975.569C966.401,974.486 966.186,973.686 965.757,973.17C965.327,972.655 964.807,972.397 964.198,972.397C963.583,972.397 963.052,972.664 962.604,973.198C962.156,973.732 961.932,974.504 961.932,975.514Z" style="fill:rgb(252,252,252);fill-rule:nonzero;"/>
            <path d="M969.55,982.905L969.55,971.428L970.831,971.428L970.831,972.506C971.133,972.084 971.474,971.768 971.854,971.557C972.234,971.346 972.695,971.241 973.237,971.241C973.945,971.241 974.57,971.423 975.112,971.788C975.654,972.152 976.063,972.666 976.339,973.331C976.615,973.995 976.753,974.722 976.753,975.514C976.753,976.363 976.6,977.127 976.296,977.807C975.991,978.487 975.548,979.008 974.968,979.37C974.387,979.732 973.776,979.913 973.136,979.913C972.667,979.913 972.246,979.814 971.874,979.616C971.501,979.418 971.195,979.168 970.956,978.866L970.956,982.905L969.55,982.905ZM970.823,975.624C970.823,976.691 971.039,977.48 971.471,977.991C971.904,978.501 972.427,978.756 973.042,978.756C973.667,978.756 974.202,978.492 974.647,977.963C975.093,977.435 975.315,976.616 975.315,975.506C975.315,974.449 975.098,973.657 974.663,973.131C974.228,972.605 973.708,972.342 973.104,972.342C972.505,972.342 971.975,972.622 971.514,973.182C971.053,973.742 970.823,974.556 970.823,975.624Z" style="fill:rgb(252,252,252);fill-rule:nonzero;"/>
            <path d="M977.886,977.249L979.276,977.03C979.354,977.587 979.572,978.014 979.928,978.311C980.285,978.608 980.784,978.756 981.425,978.756C982.07,978.756 982.55,978.625 982.862,978.362C983.175,978.099 983.331,977.79 983.331,977.436C983.331,977.118 983.193,976.868 982.917,976.686C982.724,976.561 982.245,976.402 981.479,976.209C980.448,975.949 979.733,975.724 979.335,975.534C978.936,975.344 978.634,975.081 978.428,974.745C978.223,974.409 978.12,974.038 978.12,973.631C978.12,973.262 978.205,972.919 978.374,972.604C978.543,972.289 978.774,972.027 979.065,971.819C979.284,971.657 979.582,971.521 979.96,971.409C980.337,971.297 980.742,971.241 981.175,971.241C981.826,971.241 982.397,971.334 982.889,971.522C983.382,971.709 983.745,971.963 983.979,972.284C984.214,972.604 984.375,973.032 984.464,973.569L983.089,973.756C983.026,973.329 982.845,972.996 982.546,972.756C982.246,972.517 981.823,972.397 981.276,972.397C980.63,972.397 980.169,972.504 979.893,972.717C979.617,972.931 979.479,973.181 979.479,973.467C979.479,973.65 979.537,973.814 979.651,973.959C979.766,974.111 979.945,974.236 980.19,974.334C980.331,974.387 980.745,974.506 981.432,974.694C982.427,974.959 983.121,975.177 983.514,975.346C983.908,975.515 984.216,975.762 984.44,976.084C984.664,976.407 984.776,976.808 984.776,977.288C984.776,977.756 984.639,978.198 984.366,978.612C984.093,979.026 983.698,979.346 983.182,979.573C982.667,979.799 982.083,979.913 981.432,979.913C980.354,979.913 979.533,979.689 978.968,979.241C978.402,978.793 978.042,978.129 977.886,977.249Z" style="fill:rgb(252,252,252);fill-rule:nonzero;"/>
            <path d="M993.073,979.725L990.034,968.272L991.589,968.272L993.331,975.78C993.518,976.566 993.68,977.347 993.815,978.124C994.107,976.9 994.279,976.194 994.331,976.006L996.511,968.272L998.339,968.272L999.979,974.069C1000.39,975.506 1000.69,976.858 1000.87,978.124C1001.02,977.4 1001.21,976.569 1001.44,975.631L1003.24,968.272L1004.76,968.272L1001.62,979.725L1000.16,979.725L997.745,970.999C997.542,970.269 997.422,969.821 997.386,969.655C997.266,970.181 997.154,970.629 997.05,970.999L994.62,979.725L993.073,979.725Z" style="fill:rgb(252,252,252);fill-rule:nonzero;"/>
            <path d="M1006,969.889L1006,968.272L1007.41,968.272L1007.41,969.889L1006,969.889ZM1006,979.725L1006,971.428L1007.41,971.428L1007.41,979.725L1006,979.725Z" style="fill:rgb(252,252,252);fill-rule:nonzero;"/>
            <path d="M1009.53,979.725L1009.53,971.428L1010.8,971.428L1010.8,972.686C1011.12,972.097 1011.42,971.709 1011.69,971.522C1011.97,971.334 1012.27,971.241 1012.6,971.241C1013.07,971.241 1013.55,971.392 1014.04,971.694L1013.56,972.999C1013.21,972.795 1012.87,972.694 1012.53,972.694C1012.22,972.694 1011.94,972.786 1011.7,972.971C1011.45,973.156 1011.28,973.413 1011.18,973.741C1011.02,974.241 1010.94,974.788 1010.94,975.381L1010.94,979.725L1009.53,979.725Z" style="fill:rgb(252,252,252);fill-rule:nonzero;"/>
            <path d="M1020.56,977.053L1022.01,977.233C1021.78,978.082 1021.36,978.741 1020.74,979.209C1020.12,979.678 1019.33,979.913 1018.36,979.913C1017.15,979.913 1016.19,979.539 1015.48,978.791C1014.76,978.044 1014.41,976.996 1014.41,975.647C1014.41,974.251 1014.77,973.168 1015.49,972.397C1016.21,971.626 1017.14,971.241 1018.28,971.241C1019.39,971.241 1020.3,971.618 1021,972.374C1021.71,973.129 1022.06,974.191 1022.06,975.561C1022.06,975.644 1022.06,975.769 1022.05,975.936L1015.86,975.936C1015.91,976.847 1016.17,977.545 1016.64,978.03C1017.1,978.514 1017.68,978.756 1018.37,978.756C1018.89,978.756 1019.33,978.621 1019.69,978.35C1020.06,978.079 1020.34,977.647 1020.56,977.053ZM1015.94,974.78L1020.57,974.78C1020.51,974.082 1020.33,973.558 1020.04,973.209C1019.59,972.668 1019.01,972.397 1018.3,972.397C1017.65,972.397 1017.11,972.613 1016.67,973.045C1016.23,973.478 1015.99,974.056 1015.94,974.78Z" style="fill:rgb(252,252,252);fill-rule:nonzero;"/>
            <rect x="1023.75" y="968.272" width="1.406" height="11.453" style="fill:rgb(252,252,252);fill-rule:nonzero;"/>
            <path d="M1033.01,977.053L1034.46,977.233C1034.23,978.082 1033.81,978.741 1033.19,979.209C1032.57,979.678 1031.78,979.913 1030.82,979.913C1029.6,979.913 1028.64,979.539 1027.93,978.791C1027.22,978.044 1026.86,976.996 1026.86,975.647C1026.86,974.251 1027.22,973.168 1027.94,972.397C1028.66,971.626 1029.59,971.241 1030.74,971.241C1031.85,971.241 1032.75,971.618 1033.46,972.374C1034.16,973.129 1034.51,974.191 1034.51,975.561C1034.51,975.644 1034.51,975.769 1034.5,975.936L1028.32,975.936C1028.37,976.847 1028.62,977.545 1029.09,978.03C1029.55,978.514 1030.13,978.756 1030.82,978.756C1031.34,978.756 1031.78,978.621 1032.14,978.35C1032.51,978.079 1032.8,977.647 1033.01,977.053ZM1028.39,974.78L1033.03,974.78C1032.96,974.082 1032.79,973.558 1032.5,973.209C1032.05,972.668 1031.47,972.397 1030.75,972.397C1030.11,972.397 1029.56,972.613 1029.12,973.045C1028.68,973.478 1028.44,974.056 1028.39,974.78Z" style="fill:rgb(252,252,252);fill-rule:nonzero;"/>
            <path d="M1035.67,977.249L1037.06,977.03C1037.14,977.587 1037.35,978.014 1037.71,978.311C1038.07,978.608 1038.57,978.756 1039.21,978.756C1039.85,978.756 1040.33,978.625 1040.64,978.362C1040.96,978.099 1041.11,977.79 1041.11,977.436C1041.11,977.118 1040.97,976.868 1040.7,976.686C1040.51,976.561 1040.03,976.402 1039.26,976.209C1038.23,975.949 1037.51,975.724 1037.12,975.534C1036.72,975.344 1036.41,975.081 1036.21,974.745C1036,974.409 1035.9,974.038 1035.9,973.631C1035.9,973.262 1035.99,972.919 1036.15,972.604C1036.32,972.289 1036.56,972.027 1036.85,971.819C1037.07,971.657 1037.36,971.521 1037.74,971.409C1038.12,971.297 1038.52,971.241 1038.96,971.241C1039.61,971.241 1040.18,971.334 1040.67,971.522C1041.16,971.709 1041.53,971.963 1041.76,972.284C1042,972.604 1042.16,973.032 1042.25,973.569L1040.87,973.756C1040.81,973.329 1040.63,972.996 1040.33,972.756C1040.03,972.517 1039.6,972.397 1039.06,972.397C1038.41,972.397 1037.95,972.504 1037.67,972.717C1037.4,972.931 1037.26,973.181 1037.26,973.467C1037.26,973.65 1037.32,973.814 1037.43,973.959C1037.55,974.111 1037.73,974.236 1037.97,974.334C1038.11,974.387 1038.53,974.506 1039.21,974.694C1040.21,974.959 1040.9,975.177 1041.3,975.346C1041.69,975.515 1042,975.762 1042.22,976.084C1042.44,976.407 1042.56,976.808 1042.56,977.288C1042.56,977.756 1042.42,978.198 1042.15,978.612C1041.87,979.026 1041.48,979.346 1040.96,979.573C1040.45,979.799 1039.87,979.913 1039.21,979.913C1038.14,979.913 1037.31,979.689 1036.75,979.241C1036.18,978.793 1035.82,978.129 1035.67,977.249Z" style="fill:rgb(252,252,252);fill-rule:nonzero;"/>
            <path d="M1043.67,977.249L1045.06,977.03C1045.14,977.587 1045.35,978.014 1045.71,978.311C1046.07,978.608 1046.57,978.756 1047.21,978.756C1047.85,978.756 1048.33,978.625 1048.64,978.362C1048.96,978.099 1049.11,977.79 1049.11,977.436C1049.11,977.118 1048.97,976.868 1048.7,976.686C1048.51,976.561 1048.03,976.402 1047.26,976.209C1046.23,975.949 1045.51,975.724 1045.12,975.534C1044.72,975.344 1044.41,975.081 1044.21,974.745C1044,974.409 1043.9,974.038 1043.9,973.631C1043.9,973.262 1043.99,972.919 1044.15,972.604C1044.32,972.289 1044.56,972.027 1044.85,971.819C1045.07,971.657 1045.36,971.521 1045.74,971.409C1046.12,971.297 1046.52,971.241 1046.96,971.241C1047.61,971.241 1048.18,971.334 1048.67,971.522C1049.16,971.709 1049.53,971.963 1049.76,972.284C1050,972.604 1050.16,973.032 1050.25,973.569L1048.87,973.756C1048.81,973.329 1048.63,972.996 1048.33,972.756C1048.03,972.517 1047.6,972.397 1047.06,972.397C1046.41,972.397 1045.95,972.504 1045.67,972.717C1045.4,972.931 1045.26,973.181 1045.26,973.467C1045.26,973.65 1045.32,973.814 1045.43,973.959C1045.55,974.111 1045.73,974.236 1045.97,974.334C1046.11,974.387 1046.53,974.506 1047.21,974.694C1048.21,974.959 1048.9,975.177 1049.3,975.346C1049.69,975.515 1050,975.762 1050.22,976.084C1050.44,976.407 1050.56,976.808 1050.56,977.288C1050.56,977.756 1050.42,978.198 1050.15,978.612C1049.87,979.026 1049.48,979.346 1048.96,979.573C1048.45,979.799 1047.87,979.913 1047.21,979.913C1046.14,979.913 1045.31,979.689 1044.75,979.241C1044.18,978.793 1043.82,978.129 1043.67,977.249Z" style="fill:rgb(252,252,252);fill-rule:nonzero;"/>
            <path d="M1056.79,979.725L1056.79,968.272L1058.31,968.272L1058.31,978.374L1063.95,978.374L1063.95,979.725L1056.79,979.725Z" style="fill:rgb(252,252,252);fill-rule:nonzero;"/>
            <path d="M1065.58,969.889L1065.58,968.272L1066.99,968.272L1066.99,969.889L1065.58,969.889ZM1065.58,979.725L1065.58,971.428L1066.99,971.428L1066.99,979.725L1065.58,979.725Z" style="fill:rgb(252,252,252);fill-rule:nonzero;"/>
            <path d="M1072.2,978.467L1072.4,979.709C1072.01,979.793 1071.65,979.834 1071.34,979.834C1070.83,979.834 1070.43,979.754 1070.15,979.592C1069.87,979.431 1069.67,979.219 1069.56,978.956C1069.44,978.693 1069.39,978.139 1069.39,977.295L1069.39,972.522L1068.35,972.522L1068.35,971.428L1069.39,971.428L1069.39,969.374L1070.78,968.53L1070.78,971.428L1072.2,971.428L1072.2,972.522L1070.78,972.522L1070.78,977.374C1070.78,977.775 1070.81,978.032 1070.86,978.147C1070.91,978.262 1070.99,978.353 1071.1,978.42C1071.21,978.488 1071.37,978.522 1071.58,978.522C1071.74,978.522 1071.94,978.504 1072.2,978.467Z" style="fill:rgb(252,252,252);fill-rule:nonzero;"/>
            <path d="M1079.25,977.053L1080.71,977.233C1080.48,978.082 1080.05,978.741 1079.43,979.209C1078.81,979.678 1078.02,979.913 1077.06,979.913C1075.84,979.913 1074.88,979.539 1074.17,978.791C1073.46,978.044 1073.1,976.996 1073.1,975.647C1073.1,974.251 1073.46,973.168 1074.18,972.397C1074.9,971.626 1075.83,971.241 1076.98,971.241C1078.09,971.241 1079,971.618 1079.7,972.374C1080.4,973.129 1080.75,974.191 1080.75,975.561C1080.75,975.644 1080.75,975.769 1080.75,975.936L1074.56,975.936C1074.61,976.847 1074.87,977.545 1075.33,978.03C1075.79,978.514 1076.37,978.756 1077.07,978.756C1077.58,978.756 1078.02,978.621 1078.39,978.35C1078.75,978.079 1079.04,977.647 1079.25,977.053ZM1074.64,974.78L1079.27,974.78C1079.21,974.082 1079.03,973.558 1078.74,973.209C1078.29,972.668 1077.71,972.397 1077,972.397C1076.35,972.397 1075.81,972.613 1075.37,973.045C1074.93,973.478 1074.68,974.056 1074.64,974.78Z" style="fill:rgb(252,252,252);fill-rule:nonzero;"/>
            <rect x="1081.92" y="974.874" width="4.32" height="1.414" style="fill:rgb(252,252,252);fill-rule:nonzero;"/>
            <path d="M1087.96,979.725L1087.96,968.272L1089.52,968.272L1095.53,977.264L1095.53,968.272L1096.99,968.272L1096.99,979.725L1095.43,979.725L1089.42,970.725L1089.42,979.725L1087.96,979.725Z" style="fill:rgb(252,252,252);fill-rule:nonzero;"/>
            <path d="M1104,979.725L1104,968.272L1109.08,968.272C1110.1,968.272 1110.88,968.375 1111.41,968.581C1111.94,968.786 1112.37,969.15 1112.68,969.67C1113,970.191 1113.16,970.767 1113.16,971.397C1113.16,972.209 1112.9,972.894 1112.37,973.452C1111.84,974.009 1111.03,974.363 1109.93,974.514C1110.33,974.707 1110.64,974.897 1110.85,975.084C1111.29,975.491 1111.71,975.999 1112.1,976.608L1114.1,979.725L1112.19,979.725L1110.67,977.342C1110.23,976.655 1109.87,976.129 1109.58,975.764C1109.29,975.4 1109.04,975.144 1108.81,974.999C1108.59,974.853 1108.35,974.751 1108.12,974.694C1107.95,974.657 1107.67,974.639 1107.28,974.639L1105.52,974.639L1105.52,979.725L1104,979.725ZM1105.52,973.327L1108.78,973.327C1109.47,973.327 1110.01,973.255 1110.4,973.112C1110.79,972.969 1111.09,972.739 1111.29,972.424C1111.5,972.109 1111.6,971.767 1111.6,971.397C1111.6,970.855 1111.4,970.41 1111.01,970.061C1110.61,969.712 1109.99,969.538 1109.14,969.538L1105.52,969.538L1105.52,973.327Z" style="fill:rgb(252,252,252);fill-rule:nonzero;"/>
            <path d="M1114.83,975.577C1114.83,974.04 1115.26,972.902 1116.11,972.163C1116.83,971.548 1117.69,971.241 1118.72,971.241C1119.86,971.241 1120.79,971.614 1121.52,972.362C1122.24,973.109 1122.6,974.142 1122.6,975.459C1122.6,976.527 1122.44,977.367 1122.12,977.979C1121.8,978.591 1121.34,979.066 1120.73,979.405C1120.11,979.743 1119.44,979.913 1118.72,979.913C1117.56,979.913 1116.62,979.54 1115.9,978.795C1115.19,978.051 1114.83,976.978 1114.83,975.577ZM1116.28,975.577C1116.28,976.639 1116.51,977.435 1116.97,977.963C1117.43,978.492 1118.02,978.756 1118.72,978.756C1119.42,978.756 1120,978.491 1120.46,977.959C1120.93,977.428 1121.16,976.618 1121.16,975.53C1121.16,974.504 1120.93,973.726 1120.46,973.198C1119.99,972.669 1119.41,972.405 1118.72,972.405C1118.02,972.405 1117.43,972.668 1116.97,973.194C1116.51,973.72 1116.28,974.514 1116.28,975.577Z" style="fill:rgb(252,252,252);fill-rule:nonzero;"/>
            <path d="M1129.69,979.725L1129.69,978.506C1129.04,979.444 1128.17,979.913 1127.06,979.913C1126.57,979.913 1126.11,979.819 1125.69,979.631C1125.26,979.444 1124.95,979.208 1124.74,978.924C1124.54,978.64 1124.39,978.293 1124.31,977.881C1124.25,977.605 1124.22,977.168 1124.22,976.569L1124.22,971.428L1125.63,971.428L1125.63,976.03C1125.63,976.764 1125.66,977.259 1125.71,977.514C1125.8,977.884 1125.99,978.174 1126.28,978.385C1126.56,978.596 1126.92,978.702 1127.34,978.702C1127.76,978.702 1128.16,978.594 1128.53,978.377C1128.9,978.161 1129.16,977.867 1129.31,977.495C1129.46,977.122 1129.54,976.582 1129.54,975.874L1129.54,971.428L1130.95,971.428L1130.95,979.725L1129.69,979.725Z" style="fill:rgb(252,252,252);fill-rule:nonzero;"/>
            <path d="M1136.22,978.467L1136.42,979.709C1136.03,979.793 1135.67,979.834 1135.36,979.834C1134.85,979.834 1134.46,979.754 1134.17,979.592C1133.89,979.431 1133.69,979.219 1133.58,978.956C1133.47,978.693 1133.41,978.139 1133.41,977.295L1133.41,972.522L1132.38,972.522L1132.38,971.428L1133.41,971.428L1133.41,969.374L1134.81,968.53L1134.81,971.428L1136.22,971.428L1136.22,972.522L1134.81,972.522L1134.81,977.374C1134.81,977.775 1134.83,978.032 1134.88,978.147C1134.93,978.262 1135.01,978.353 1135.12,978.42C1135.24,978.488 1135.4,978.522 1135.6,978.522C1135.76,978.522 1135.97,978.504 1136.22,978.467Z" style="fill:rgb(252,252,252);fill-rule:nonzero;"/>
            <path d="M1143.28,977.053L1144.73,977.233C1144.5,978.082 1144.08,978.741 1143.46,979.209C1142.84,979.678 1142.04,979.913 1141.08,979.913C1139.87,979.913 1138.9,979.539 1138.19,978.791C1137.48,978.044 1137.13,976.996 1137.13,975.647C1137.13,974.251 1137.49,973.168 1138.21,972.397C1138.92,971.626 1139.86,971.241 1141,971.241C1142.11,971.241 1143.02,971.618 1143.72,972.374C1144.42,973.129 1144.78,974.191 1144.78,975.561C1144.78,975.644 1144.77,975.769 1144.77,975.936L1138.58,975.936C1138.63,976.847 1138.89,977.545 1139.35,978.03C1139.82,978.514 1140.4,978.756 1141.09,978.756C1141.6,978.756 1142.04,978.621 1142.41,978.35C1142.77,978.079 1143.06,977.647 1143.28,977.053ZM1138.66,974.78L1143.29,974.78C1143.23,974.082 1143.05,973.558 1142.76,973.209C1142.31,972.668 1141.73,972.397 1141.02,972.397C1140.37,972.397 1139.83,972.613 1139.39,973.045C1138.95,973.478 1138.71,974.056 1138.66,974.78Z" style="fill:rgb(252,252,252);fill-rule:nonzero;"/>
            <path d="M1146.48,979.725L1146.48,971.428L1147.75,971.428L1147.75,972.686C1148.07,972.097 1148.37,971.709 1148.64,971.522C1148.91,971.334 1149.21,971.241 1149.54,971.241C1150.02,971.241 1150.5,971.392 1150.99,971.694L1150.5,972.999C1150.16,972.795 1149.82,972.694 1149.47,972.694C1149.16,972.694 1148.89,972.786 1148.64,972.971C1148.4,973.156 1148.22,973.413 1148.12,973.741C1147.96,974.241 1147.89,974.788 1147.89,975.381L1147.89,979.725L1146.48,979.725Z" style="fill:rgb(252,252,252);fill-rule:nonzero;"/>
        </g>
        <g transform="matrix(0.89,0,0,1,-396.139,-51.3217)">
            <path d="M920.576,979.725L920.576,970.419L924.086,970.419C924.704,970.419 925.176,970.449 925.502,970.508C925.959,970.584 926.342,970.729 926.651,970.943C926.96,971.157 927.208,971.456 927.397,971.841C927.585,972.226 927.679,972.65 927.679,973.111C927.679,973.902 927.427,974.572 926.924,975.12C926.42,975.668 925.51,975.942 924.194,975.942L921.807,975.942L921.807,979.725L920.576,979.725ZM921.807,974.844L924.213,974.844C925.009,974.844 925.574,974.696 925.908,974.399C926.242,974.103 926.409,973.686 926.409,973.149C926.409,972.76 926.311,972.426 926.114,972.149C925.918,971.872 925.658,971.689 925.337,971.6C925.129,971.545 924.746,971.518 924.188,971.518L921.807,971.518L921.807,974.844Z" style="fill:rgb(252,252,252);fill-rule:nonzero;"/>
            <path d="M930.872,979.725L928.403,970.419L929.666,970.419L931.081,976.52C931.234,977.159 931.365,977.793 931.475,978.424C931.712,977.429 931.852,976.856 931.894,976.704L933.665,970.419L935.15,970.419L936.483,975.129C936.817,976.297 937.059,977.395 937.207,978.424C937.325,977.836 937.48,977.161 937.67,976.399L939.13,970.419L940.368,970.419L937.816,979.725L936.629,979.725L934.668,972.635C934.503,972.042 934.405,971.678 934.376,971.543C934.278,971.97 934.187,972.334 934.103,972.635L932.129,979.725L930.872,979.725Z" style="fill:rgb(252,252,252);fill-rule:nonzero;"/>
            <path d="M941.536,979.725L941.536,970.419L945.662,970.419C946.491,970.419 947.122,970.503 947.553,970.67C947.985,970.837 948.33,971.132 948.588,971.556C948.846,971.979 948.975,972.446 948.975,972.958C948.975,973.619 948.762,974.175 948.334,974.628C947.907,975.081 947.247,975.368 946.354,975.491C946.68,975.648 946.927,975.802 947.096,975.955C947.456,976.285 947.797,976.697 948.118,977.192L949.737,979.725L948.188,979.725L946.957,977.789C946.597,977.23 946.301,976.803 946.068,976.507C945.835,976.211 945.627,976.003 945.443,975.885C945.259,975.766 945.072,975.684 944.881,975.637C944.741,975.608 944.513,975.593 944.196,975.593L942.767,975.593L942.767,979.725L941.536,979.725ZM942.767,974.526L945.414,974.526C945.977,974.526 946.417,974.468 946.735,974.352C947.052,974.235 947.293,974.049 947.458,973.793C947.623,973.537 947.706,973.259 947.706,972.958C947.706,972.518 947.546,972.157 947.227,971.873C946.907,971.59 946.402,971.448 945.713,971.448L942.767,971.448L942.767,974.526Z" style="fill:rgb(252,252,252);fill-rule:nonzero;"/>
            <path d="M1001.06,976.735L1002.22,976.634C1002.27,977.099 1002.4,977.481 1002.6,977.78C1002.8,978.078 1003.12,978.319 1003.54,978.503C1003.96,978.687 1004.44,978.779 1004.97,978.779C1005.44,978.779 1005.85,978.709 1006.21,978.57C1006.57,978.43 1006.84,978.239 1007.01,977.995C1007.19,977.752 1007.28,977.486 1007.28,977.199C1007.28,976.907 1007.19,976.652 1007.02,976.434C1006.85,976.216 1006.57,976.033 1006.19,975.885C1005.94,975.787 1005.38,975.636 1004.53,975.431C1003.67,975.226 1003.07,975.032 1002.73,974.85C1002.29,974.617 1001.96,974.329 1001.74,973.984C1001.52,973.639 1001.41,973.253 1001.41,972.825C1001.41,972.355 1001.55,971.916 1001.81,971.508C1002.08,971.1 1002.47,970.79 1002.98,970.578C1003.49,970.367 1004.06,970.261 1004.69,970.261C1005.38,970.261 1005.99,970.372 1006.51,970.594C1007.04,970.816 1007.44,971.143 1007.73,971.575C1008.01,972.006 1008.16,972.495 1008.18,973.041L1007,973.13C1006.94,972.542 1006.73,972.097 1006.36,971.797C1005.99,971.496 1005.45,971.346 1004.74,971.346C1003.99,971.346 1003.45,971.483 1003.11,971.756C1002.77,972.029 1002.6,972.358 1002.6,972.743C1002.6,973.077 1002.72,973.352 1002.96,973.568C1003.2,973.784 1003.82,974.005 1004.82,974.231C1005.82,974.458 1006.5,974.655 1006.88,974.825C1007.42,975.074 1007.82,975.391 1008.08,975.774C1008.34,976.157 1008.46,976.598 1008.46,977.097C1008.46,977.592 1008.32,978.059 1008.04,978.497C1007.75,978.935 1007.35,979.275 1006.82,979.519C1006.28,979.762 1005.69,979.884 1005.02,979.884C1004.18,979.884 1003.48,979.761 1002.91,979.516C1002.34,979.27 1001.89,978.901 1001.57,978.408C1001.24,977.915 1001.07,977.357 1001.06,976.735Z" style="fill:rgb(252,252,252);fill-rule:nonzero;"/>
            <path d="M1012.77,979.725L1012.77,975.783L1009.18,970.419L1010.68,970.419L1012.51,973.225C1012.85,973.75 1013.17,974.275 1013.46,974.799C1013.74,974.313 1014.08,973.765 1014.48,973.155L1016.28,970.419L1017.71,970.419L1014,975.783L1014,979.725L1012.77,979.725Z" style="fill:rgb(252,252,252);fill-rule:nonzero;"/>
            <path d="M1018.4,976.735L1019.56,976.634C1019.61,977.099 1019.74,977.481 1019.94,977.78C1020.14,978.078 1020.46,978.319 1020.88,978.503C1021.3,978.687 1021.78,978.779 1022.31,978.779C1022.78,978.779 1023.19,978.709 1023.55,978.57C1023.91,978.43 1024.18,978.239 1024.36,977.995C1024.53,977.752 1024.62,977.486 1024.62,977.199C1024.62,976.907 1024.53,976.652 1024.36,976.434C1024.19,976.216 1023.92,976.033 1023.53,975.885C1023.28,975.787 1022.73,975.636 1021.87,975.431C1021.01,975.226 1020.42,975.032 1020.07,974.85C1019.63,974.617 1019.3,974.329 1019.08,973.984C1018.86,973.639 1018.75,973.253 1018.75,972.825C1018.75,972.355 1018.89,971.916 1019.15,971.508C1019.42,971.1 1019.81,970.79 1020.32,970.578C1020.83,970.367 1021.4,970.261 1022.03,970.261C1022.72,970.261 1023.33,970.372 1023.85,970.594C1024.38,970.816 1024.79,971.143 1025.07,971.575C1025.35,972.006 1025.51,972.495 1025.53,973.041L1024.35,973.13C1024.28,972.542 1024.07,972.097 1023.7,971.797C1023.34,971.496 1022.79,971.346 1022.08,971.346C1021.34,971.346 1020.79,971.483 1020.45,971.756C1020.11,972.029 1019.94,972.358 1019.94,972.743C1019.94,973.077 1020.06,973.352 1020.3,973.568C1020.54,973.784 1021.16,974.005 1022.16,974.231C1023.16,974.458 1023.85,974.655 1024.22,974.825C1024.76,975.074 1025.16,975.391 1025.42,975.774C1025.68,976.157 1025.81,976.598 1025.81,977.097C1025.81,977.592 1025.66,978.059 1025.38,978.497C1025.1,978.935 1024.69,979.275 1024.16,979.519C1023.63,979.762 1023.03,979.884 1022.37,979.884C1021.52,979.884 1020.82,979.761 1020.25,979.516C1019.68,979.27 1019.23,978.901 1018.91,978.408C1018.59,977.915 1018.42,977.357 1018.4,976.735Z" style="fill:rgb(252,252,252);fill-rule:nonzero;"/>
            <path d="M1084,979.725L1081.53,970.419L1082.79,970.419L1084.21,976.52C1084.36,977.159 1084.49,977.793 1084.6,978.424C1084.84,977.429 1084.98,976.856 1085.02,976.704L1086.79,970.419L1088.28,970.419L1089.61,975.129C1089.94,976.297 1090.19,977.395 1090.33,978.424C1090.45,977.836 1090.61,977.161 1090.8,976.399L1092.26,970.419L1093.5,970.419L1090.94,979.725L1089.76,979.725L1087.8,972.635C1087.63,972.042 1087.53,971.678 1087.5,971.543C1087.4,971.97 1087.31,972.334 1087.23,972.635L1085.26,979.725L1084,979.725Z" style="fill:rgb(252,252,252);fill-rule:nonzero;"/>
            <path d="M1094.59,979.725L1094.59,970.419L1095.82,970.419L1095.82,978.627L1100.41,978.627L1100.41,979.725L1094.59,979.725Z" style="fill:rgb(252,252,252);fill-rule:nonzero;"/>
            <path d="M1100.85,979.725L1104.42,970.419L1105.75,970.419L1109.56,979.725L1108.16,979.725L1107.07,976.907L1103.18,976.907L1102.16,979.725L1100.85,979.725ZM1103.54,975.904L1106.69,975.904L1105.72,973.327C1105.42,972.544 1105.2,971.901 1105.06,971.397C1104.94,971.994 1104.78,972.586 1104.56,973.174L1103.54,975.904Z" style="fill:rgb(252,252,252);fill-rule:nonzero;"/>
            <path d="M1110.53,979.725L1110.53,970.419L1111.8,970.419L1116.68,977.726L1116.68,970.419L1117.86,970.419L1117.86,979.725L1116.6,979.725L1111.71,972.413L1111.71,979.725L1110.53,979.725Z" style="fill:rgb(252,252,252);fill-rule:nonzero;"/>
            <path d="M1177.95,979.725L1176.81,979.725L1176.81,972.444C1176.53,972.707 1176.17,972.969 1175.72,973.231C1175.28,973.494 1174.88,973.691 1174.52,973.822L1174.52,972.717C1175.16,972.417 1175.72,972.053 1176.2,971.625C1176.67,971.198 1177.01,970.783 1177.21,970.381L1177.95,970.381L1177.95,979.725Z" style="fill:rgb(252,252,252);fill-rule:nonzero;"/>
            <path d="M1220.1,978.627L1220.1,979.725L1213.95,979.725C1213.94,979.45 1213.98,979.186 1214.08,978.932C1214.24,978.513 1214.49,978.1 1214.83,977.694C1215.18,977.288 1215.68,976.818 1216.33,976.285C1217.34,975.455 1218.02,974.798 1218.38,974.314C1218.73,973.829 1218.91,973.371 1218.91,972.939C1218.91,972.487 1218.75,972.105 1218.43,971.794C1218.1,971.483 1217.68,971.327 1217.16,971.327C1216.61,971.327 1216.17,971.492 1215.84,971.822C1215.51,972.152 1215.34,972.609 1215.34,973.193L1214.16,973.073C1214.24,972.197 1214.55,971.529 1215.07,971.07C1215.6,970.611 1216.3,970.381 1217.18,970.381C1218.08,970.381 1218.79,970.629 1219.31,971.124C1219.83,971.619 1220.09,972.233 1220.09,972.965C1220.09,973.337 1220.01,973.703 1219.86,974.063C1219.7,974.423 1219.45,974.801 1219.1,975.199C1218.75,975.597 1218.16,976.143 1217.34,976.837C1216.65,977.412 1216.21,977.803 1216.02,978.008C1215.82,978.213 1215.66,978.42 1215.54,978.627L1220.1,978.627Z" style="fill:rgb(252,252,252);fill-rule:nonzero;"/>
            <path d="M1250.94,977.269L1252.08,977.116C1252.21,977.764 1252.43,978.23 1252.75,978.516C1253.07,978.802 1253.45,978.944 1253.9,978.944C1254.44,978.944 1254.89,978.758 1255.26,978.386C1255.63,978.013 1255.82,977.552 1255.82,977.002C1255.82,976.477 1255.65,976.045 1255.31,975.704C1254.96,975.363 1254.53,975.193 1254,975.193C1253.78,975.193 1253.51,975.235 1253.19,975.32L1253.32,974.317C1253.39,974.325 1253.46,974.33 1253.5,974.33C1253.99,974.33 1254.43,974.203 1254.82,973.949C1255.21,973.695 1255.4,973.303 1255.4,972.774C1255.4,972.355 1255.26,972.008 1254.98,971.733C1254.69,971.458 1254.33,971.321 1253.88,971.321C1253.43,971.321 1253.06,971.46 1252.77,971.74C1252.47,972.019 1252.28,972.438 1252.19,972.997L1251.05,972.793C1251.19,972.027 1251.51,971.434 1252,971.013C1252.5,970.592 1253.12,970.381 1253.85,970.381C1254.36,970.381 1254.83,970.49 1255.25,970.708C1255.68,970.926 1256.01,971.223 1256.24,971.6C1256.46,971.977 1256.58,972.377 1256.58,972.8C1256.58,973.202 1256.47,973.568 1256.25,973.898C1256.04,974.228 1255.72,974.49 1255.29,974.685C1255.84,974.812 1256.27,975.075 1256.58,975.475C1256.88,975.875 1257.03,976.376 1257.03,976.977C1257.03,977.789 1256.74,978.478 1256.14,979.043C1255.55,979.608 1254.8,979.89 1253.9,979.89C1253.08,979.89 1252.4,979.647 1251.86,979.16C1251.32,978.673 1251.01,978.043 1250.94,977.269Z" style="fill:rgb(252,252,252);fill-rule:nonzero;"/>
            <path d="M1298.66,979.725L1298.66,977.497L1294.62,977.497L1294.62,976.45L1298.87,970.419L1299.8,970.419L1299.8,976.45L1301.06,976.45L1301.06,977.497L1299.8,977.497L1299.8,979.725L1298.66,979.725ZM1298.66,976.45L1298.66,972.254L1295.74,976.45L1298.66,976.45Z" style="fill:rgb(252,252,252);fill-rule:nonzero;"/>
            <path d="M1359.2,979.725L1356.73,970.419L1358,970.419L1359.41,976.52C1359.56,977.159 1359.69,977.793 1359.81,978.424C1360.04,977.429 1360.18,976.856 1360.22,976.704L1362,970.419L1363.48,970.419L1364.81,975.129C1365.15,976.297 1365.39,977.395 1365.54,978.424C1365.65,977.836 1365.81,977.161 1366,976.399L1367.46,970.419L1368.7,970.419L1366.15,979.725L1364.96,979.725L1363,972.635C1362.83,972.042 1362.74,971.678 1362.71,971.543C1362.61,971.97 1362.52,972.334 1362.43,972.635L1360.46,979.725L1359.2,979.725Z" style="fill:rgb(252,252,252);fill-rule:nonzero;"/>
            <path d="M1368.28,979.725L1371.86,970.419L1373.18,970.419L1376.99,979.725L1375.59,979.725L1374.5,976.907L1370.61,976.907L1369.59,979.725L1368.28,979.725ZM1370.97,975.904L1374.12,975.904L1373.15,973.327C1372.86,972.544 1372.63,971.901 1372.49,971.397C1372.37,971.994 1372.21,972.586 1371.99,973.174L1370.97,975.904Z" style="fill:rgb(252,252,252);fill-rule:nonzero;"/>
            <path d="M1377.96,979.725L1377.96,970.419L1379.23,970.419L1384.11,977.726L1384.11,970.419L1385.29,970.419L1385.29,979.725L1384.03,979.725L1379.14,972.413L1379.14,979.725L1377.96,979.725Z" style="fill:rgb(252,252,252);fill-rule:nonzero;"/>
            <path d="M1453.47,978.729C1454.04,979.122 1454.57,979.41 1455.05,979.592L1454.69,980.449C1454.02,980.208 1453.36,979.827 1452.69,979.306C1452,979.691 1451.24,979.884 1450.4,979.884C1449.56,979.884 1448.8,979.681 1448.11,979.274C1447.43,978.868 1446.9,978.297 1446.53,977.561C1446.16,976.824 1445.97,975.995 1445.97,975.072C1445.97,974.154 1446.16,973.318 1446.53,972.565C1446.9,971.812 1447.43,971.238 1448.12,970.845C1448.81,970.451 1449.58,970.254 1450.43,970.254C1451.29,970.254 1452.06,970.459 1452.75,970.867C1453.44,971.275 1453.97,971.847 1454.33,972.581C1454.69,973.315 1454.87,974.143 1454.87,975.066C1454.87,975.832 1454.76,976.521 1454.53,977.132C1454.29,977.744 1453.94,978.276 1453.47,978.729ZM1450.76,977.154C1451.47,977.353 1452.06,977.649 1452.52,978.043C1453.24,977.383 1453.6,976.39 1453.6,975.066C1453.6,974.313 1453.48,973.655 1453.22,973.092C1452.96,972.529 1452.59,972.092 1452.1,971.781C1451.6,971.47 1451.05,971.314 1450.44,971.314C1449.52,971.314 1448.76,971.629 1448.15,972.257C1447.55,972.885 1447.24,973.824 1447.24,975.072C1447.24,976.283 1447.54,977.211 1448.14,977.859C1448.74,978.506 1449.51,978.83 1450.44,978.83C1450.88,978.83 1451.29,978.748 1451.68,978.583C1451.3,978.333 1450.89,978.155 1450.46,978.049L1450.76,977.154Z" style="fill:rgb(252,252,252);fill-rule:nonzero;"/>
            <path d="M1456.11,976.735L1457.27,976.634C1457.33,977.099 1457.46,977.481 1457.66,977.78C1457.86,978.078 1458.17,978.319 1458.59,978.503C1459.02,978.687 1459.49,978.779 1460.02,978.779C1460.49,978.779 1460.91,978.709 1461.27,978.57C1461.63,978.43 1461.89,978.239 1462.07,977.995C1462.24,977.752 1462.33,977.486 1462.33,977.199C1462.33,976.907 1462.25,976.652 1462.08,976.434C1461.91,976.216 1461.63,976.033 1461.24,975.885C1460.99,975.787 1460.44,975.636 1459.58,975.431C1458.73,975.226 1458.13,975.032 1457.79,974.85C1457.34,974.617 1457.01,974.329 1456.79,973.984C1456.58,973.639 1456.47,973.253 1456.47,972.825C1456.47,972.355 1456.6,971.916 1456.87,971.508C1457.13,971.1 1457.52,970.79 1458.04,970.578C1458.55,970.367 1459.12,970.261 1459.74,970.261C1460.43,970.261 1461.04,970.372 1461.57,970.594C1462.09,970.816 1462.5,971.143 1462.78,971.575C1463.07,972.006 1463.22,972.495 1463.24,973.041L1462.06,973.13C1462,972.542 1461.78,972.097 1461.41,971.797C1461.05,971.496 1460.51,971.346 1459.79,971.346C1459.05,971.346 1458.51,971.483 1458.16,971.756C1457.82,972.029 1457.65,972.358 1457.65,972.743C1457.65,973.077 1457.78,973.352 1458.02,973.568C1458.25,973.784 1458.87,974.005 1459.87,974.231C1460.87,974.458 1461.56,974.655 1461.93,974.825C1462.47,975.074 1462.87,975.391 1463.13,975.774C1463.39,976.157 1463.52,976.598 1463.52,977.097C1463.52,977.592 1463.38,978.059 1463.09,978.497C1462.81,978.935 1462.4,979.275 1461.87,979.519C1461.34,979.762 1460.74,979.884 1460.08,979.884C1459.24,979.884 1458.53,979.761 1457.96,979.516C1457.39,979.27 1456.95,978.901 1456.62,978.408C1456.3,977.915 1456.13,977.357 1456.11,976.735Z" style="fill:rgb(252,252,252);fill-rule:nonzero;"/>
            <path d="M1464.78,976.735L1465.94,976.634C1466,977.099 1466.13,977.481 1466.33,977.78C1466.53,978.078 1466.84,978.319 1467.26,978.503C1467.69,978.687 1468.16,978.779 1468.69,978.779C1469.16,978.779 1469.58,978.709 1469.94,978.57C1470.3,978.43 1470.56,978.239 1470.74,977.995C1470.91,977.752 1471,977.486 1471,977.199C1471,976.907 1470.92,976.652 1470.75,976.434C1470.58,976.216 1470.3,976.033 1469.91,975.885C1469.66,975.787 1469.11,975.636 1468.26,975.431C1467.4,975.226 1466.8,975.032 1466.46,974.85C1466.01,974.617 1465.68,974.329 1465.46,973.984C1465.25,973.639 1465.14,973.253 1465.14,972.825C1465.14,972.355 1465.27,971.916 1465.54,971.508C1465.8,971.1 1466.19,970.79 1466.71,970.578C1467.22,970.367 1467.79,970.261 1468.41,970.261C1469.1,970.261 1469.71,970.372 1470.24,970.594C1470.77,970.816 1471.17,971.143 1471.45,971.575C1471.74,972.006 1471.89,972.495 1471.91,973.041L1470.73,973.13C1470.67,972.542 1470.45,972.097 1470.09,971.797C1469.72,971.496 1469.18,971.346 1468.46,971.346C1467.72,971.346 1467.18,971.483 1466.84,971.756C1466.5,972.029 1466.33,972.358 1466.33,972.743C1466.33,973.077 1466.45,973.352 1466.69,973.568C1466.92,973.784 1467.54,974.005 1468.54,974.231C1469.54,974.458 1470.23,974.655 1470.6,974.825C1471.14,975.074 1471.55,975.391 1471.8,975.774C1472.06,976.157 1472.19,976.598 1472.19,977.097C1472.19,977.592 1472.05,978.059 1471.77,978.497C1471.48,978.935 1471.07,979.275 1470.54,979.519C1470.01,979.762 1469.41,979.884 1468.75,979.884C1467.91,979.884 1467.2,979.761 1466.63,979.516C1466.06,979.27 1465.62,978.901 1465.29,978.408C1464.97,977.915 1464.8,977.357 1464.78,976.735Z" style="fill:rgb(252,252,252);fill-rule:nonzero;"/>
        </g>
    </g>
</svg>
