<?xml version="1.0" standalone="no"?>
<!DOCTYPE svg PUBLIC "-//W3C//DTD SVG 1.1//EN" "http://www.w3.org/Graphics/SVG/1.1/DTD/svg11.dtd">
<svg width="100%" height="100%" viewBox="0 0 1280 1150" version="1.1" xmlns="http://www.w3.org/2000/svg" xmlns:xlink="http://www.w3.org/1999/xlink" xml:space="preserve" style="fill-rule:evenodd;clip-rule:evenodd;stroke-linecap:round;stroke-linejoin:round;stroke-miterlimit:1.41421;">
    <g id="Hülle" transform="matrix(1,0,0,1,-19.8177,-48.606)">
        <g transform="matrix(1.65069,0,0,1.65069,-361.812,-259.979)">
            <path d="M431.08,287.918C399.727,287.918 375.83,311.254 375.83,336.303L375.83,755.055C375.83,783.377 388.744,792.437 413.212,792.437L804.381,792.437C827.239,792.437 841.763,783.061 841.763,755.055L841.763,336.303C841.763,302.513 825.286,287.918 793.379,287.918L431.08,287.918Z" style="fill:white;stroke-width:1.82px;stroke:black;"/>
        </g>
        <path d="M947.807,241.334C980.442,241.334 1001.62,252.558 1001.62,295.152L1001.62,992.051C1001.62,1011.57 994.693,1025.58 968.093,1025.58L320.4,1025.58C295.827,1025.58 286.869,1012.74 286.869,992.051L286.869,295.152C286.869,264.673 316.688,241.334 348.188,241.334L947.807,241.334Z" style="fill:rgb(81,193,255);stroke-width:3px;stroke:black;"/>
        <g transform="matrix(0.969862,0,0,0.969862,19.4162,19.0911)">
            <path d="M947.807,241.334C980.442,241.334 1001.62,252.558 1001.62,295.152L1001.62,992.051C1001.62,1011.57 994.693,1025.58 968.093,1025.58L320.4,1025.58C295.827,1025.58 286.869,1012.74 286.869,992.051L286.869,295.152C286.869,264.673 316.688,241.334 348.188,241.334L947.807,241.334Z" style="fill:rgb(132,208,250);stroke-width:3.09px;stroke:black;"/>
        </g>
        <g transform="matrix(1,0,0,1,13.9708,42.7591)">
            <path d="M418.066,829.881C418.066,824.605 413.783,820.323 408.508,820.323L348.762,820.323C343.487,820.323 339.204,824.605 339.204,829.881L339.204,905.227C339.204,910.502 343.487,914.785 348.762,914.785L408.508,914.785C413.783,914.785 418.066,910.502 418.066,905.227L418.066,829.881Z" style="fill:rgb(38,56,116);stroke-width:3px;stroke:rgb(62,82,131);"/>
        </g>
    </g>
</svg>
