<?xml version="1.0" standalone="no"?>
<!DOCTYPE svg PUBLIC "-//W3C//DTD SVG 1.1//EN" "http://www.w3.org/Graphics/SVG/1.1/DTD/svg11.dtd">
<svg width="100%" height="100%" viewBox="0 0 1280 1150" version="1.1" xmlns="http://www.w3.org/2000/svg" xmlns:xlink="http://www.w3.org/1999/xlink" xml:space="preserve" style="fill-rule:evenodd;clip-rule:evenodd;stroke-linecap:round;stroke-miterlimit:1.41421;">
    <g id="fuellung-seite">
        <path d="M83.377,518.594L83.377,793.582C83.035,809.171 103.713,822.497 131.796,833.931L610.647,1002.87C682.453,1027.23 750.645,1027.55 812.038,982.675L1184.45,704.137C1198.26,693.255 1205.47,679.686 1205.53,663.199L1205.53,410.783L83.377,518.594Z" style="fill:rgb(242,242,242);"/>
        <path d="M1207.03,409.279L1207.03,663.204L1207.02,663.6L1207.02,663.995L1207.01,664.389L1207,664.782L1206.99,665.174L1206.97,665.565L1206.95,665.955L1206.93,666.344L1206.91,666.732L1206.88,667.119L1206.85,667.505L1206.82,667.89L1206.78,668.273L1206.75,668.656L1206.7,669.038L1206.66,669.419L1206.62,669.798L1206.57,670.177L1206.52,670.555L1206.46,670.931L1206.41,671.307L1206.35,671.681L1206.29,672.055L1206.22,672.427L1206.15,672.799L1206.09,673.169L1206.01,673.538L1205.94,673.907L1205.86,674.274L1205.78,674.64L1205.7,675.006L1205.61,675.37L1205.52,675.733L1205.43,676.095L1205.34,676.455L1205.24,676.816L1205.14,677.174L1205.04,677.532L1204.94,677.889L1204.83,678.245L1204.72,678.599L1204.61,678.953L1204.49,679.305L1204.38,679.657L1204.26,680.007L1204.13,680.357L1204.01,680.705L1203.88,681.052L1203.75,681.398L1203.62,681.743L1203.48,682.087L1203.34,682.43L1203.2,682.772L1203.06,683.113L1202.91,683.452L1202.76,683.791L1202.61,684.128L1202.46,684.465L1202.3,684.8L1202.14,685.134L1201.98,685.468L1201.81,685.8L1201.65,686.131L1201.48,686.461L1201.31,686.789L1201.13,687.117L1200.95,687.444L1200.77,687.77L1200.59,688.094L1200.4,688.417L1200.22,688.74L1200.03,689.061L1199.83,689.381L1199.64,689.7L1199.44,690.018L1199.24,690.335L1199.04,690.651L1198.83,690.966L1198.62,691.279L1198.41,691.592L1198.2,691.903L1197.99,692.213L1197.77,692.523L1197.55,692.831L1197.32,693.138L1197.1,693.444L1196.87,693.748L1196.64,694.052L1196.4,694.355L1196.17,694.657L1195.93,694.957L1195.69,695.256L1195.45,695.555L1195.2,695.852L1194.95,696.148L1194.7,696.443L1194.45,696.737L1194.19,697.03L1193.93,697.322L1193.67,697.612L1193.41,697.902L1193.14,698.191L1192.88,698.478L1192.61,698.764L1192.33,699.05L1192.06,699.334L1191.78,699.617L1191.5,699.899L1191.22,700.18L1190.93,700.46L1190.64,700.739L1190.35,701.016L1190.06,701.293L1189.77,701.569L1189.47,701.843L1189.17,702.117L1188.87,702.389L1188.56,702.66L1188.25,702.931L1187.94,703.2L1187.63,703.468L1187.32,703.735L1187,704.001L1186.68,704.266L1186.36,704.529L1186.04,704.792L1185.71,705.054L1185.37,705.325L812.929,983.882L812.561,984.151L812.199,984.414L811.836,984.676L811.473,984.937L811.11,985.197L810.747,985.456L810.384,985.715L810.02,985.972L809.657,986.228L809.293,986.483L808.929,986.737L808.565,986.989L808.201,987.241L807.836,987.492L807.472,987.742L807.107,987.991L806.742,988.239L806.377,988.485L806.012,988.731L805.646,988.976L805.281,989.22L804.915,989.462L804.549,989.704L804.183,989.945L803.817,990.184L803.451,990.423L803.084,990.661L802.718,990.897L802.351,991.133L801.984,991.367L801.617,991.601L801.249,991.833L800.882,992.065L800.514,992.296L800.146,992.525L799.779,992.754L799.41,992.981L799.042,993.208L798.674,993.433L798.305,993.658L797.937,993.881L797.568,994.104L797.199,994.325L796.83,994.546L796.46,994.765L796.091,994.984L795.721,995.201L795.351,995.418L794.981,995.634L794.611,995.848L794.241,996.062L793.871,996.274L793.5,996.486L793.129,996.696L792.759,996.906L792.388,997.115L792.016,997.322L791.645,997.529L791.274,997.734L790.902,997.939L790.53,998.143L790.158,998.345L789.786,998.547L789.414,998.748L789.042,998.948L788.669,999.146L788.296,999.344L787.923,999.541L787.55,999.737L787.177,999.932L786.804,1000.13L786.431,1000.32L786.057,1000.51L785.683,1000.7L785.309,1000.89L784.935,1001.08L784.561,1001.27L784.187,1001.46L783.812,1001.64L783.438,1001.83L783.063,1002.01L782.688,1002.19L782.313,1002.38L781.938,1002.56L781.562,1002.74L781.187,1002.92L780.811,1003.1L780.435,1003.27L780.059,1003.45L779.683,1003.63L779.307,1003.8L778.93,1003.97L778.554,1004.15L778.177,1004.32L777.8,1004.49L777.423,1004.66L777.046,1004.83L776.669,1005L776.291,1005.16L775.914,1005.33L775.536,1005.49L775.158,1005.66L774.78,1005.82L774.402,1005.98L774.024,1006.14L773.645,1006.31L773.267,1006.47L772.888,1006.62L772.509,1006.78L772.13,1006.94L771.751,1007.09L771.371,1007.25L770.992,1007.4L770.612,1007.56L770.233,1007.71L769.853,1007.86L769.473,1008.01L769.093,1008.16L768.712,1008.31L768.332,1008.45L767.951,1008.6L767.571,1008.74L767.19,1008.89L766.809,1009.03L766.428,1009.18L766.046,1009.32L765.665,1009.46L765.283,1009.6L764.902,1009.74L764.52,1009.88L764.138,1010.01L763.756,1010.15L763.373,1010.28L762.991,1010.42L762.608,1010.55L762.226,1010.68L761.843,1010.82L761.46,1010.95L761.077,1011.08L760.693,1011.21L760.31,1011.33L759.927,1011.46L759.543,1011.59L759.159,1011.71L758.775,1011.84L758.391,1011.96L758.007,1012.08L757.623,1012.2L757.238,1012.32L756.854,1012.44L756.469,1012.56L756.084,1012.68L755.699,1012.8L755.314,1012.91L754.929,1013.03L754.543,1013.14L754.158,1013.26L753.772,1013.37L753.386,1013.48L753,1013.59L752.614,1013.7L752.228,1013.81L751.842,1013.92L751.455,1014.03L751.069,1014.13L750.682,1014.24L750.295,1014.34L749.908,1014.45L749.521,1014.55L749.134,1014.65L748.746,1014.75L748.359,1014.85L747.971,1014.95L747.583,1015.05L747.195,1015.15L746.807,1015.25L746.419,1015.34L746.031,1015.44L745.642,1015.53L745.254,1015.62L744.865,1015.72L744.476,1015.81L744.087,1015.9L743.698,1015.99L743.309,1016.08L742.92,1016.17L742.53,1016.25L742.141,1016.34L741.751,1016.43L741.361,1016.51L740.971,1016.59L740.581,1016.68L740.191,1016.76L739.8,1016.84L739.41,1016.92L739.019,1017L738.628,1017.08L738.237,1017.15L737.847,1017.23L737.455,1017.31L737.064,1017.38L736.673,1017.46L736.281,1017.53L735.89,1017.6L735.498,1017.68L735.106,1017.75L734.714,1017.82L734.322,1017.89L733.93,1017.95L733.537,1018.02L733.145,1018.09L732.752,1018.15L732.359,1018.22L731.967,1018.28L731.574,1018.35L731.181,1018.41L730.787,1018.47L730.394,1018.53L730,1018.59L729.607,1018.65L729.213,1018.71L728.819,1018.77L728.425,1018.82L728.031,1018.88L727.637,1018.93L727.243,1018.99L726.848,1019.04L726.454,1019.09L726.059,1019.14L725.664,1019.2L725.269,1019.25L724.874,1019.3L724.479,1019.34L724.084,1019.39L723.688,1019.44L723.293,1019.48L722.897,1019.53L722.502,1019.57L722.106,1019.62L721.71,1019.66L721.314,1019.7L720.917,1019.74L720.521,1019.78L720.124,1019.82L719.728,1019.86L719.331,1019.9L718.934,1019.94L718.537,1019.97L718.14,1020.01L717.743,1020.04L717.346,1020.08L716.949,1020.11L716.551,1020.14L716.153,1020.17L715.756,1020.2L715.358,1020.23L714.96,1020.26L714.562,1020.29L714.164,1020.32L713.765,1020.34L713.367,1020.37L712.968,1020.39L712.569,1020.42L712.171,1020.44L711.772,1020.46L711.373,1020.49L710.974,1020.51L710.575,1020.53L710.175,1020.55L709.776,1020.56L709.376,1020.58L708.977,1020.6L708.577,1020.62L708.177,1020.63L707.777,1020.64L707.377,1020.66L706.976,1020.67L706.576,1020.69L706.176,1020.7L705.775,1020.71L705.374,1020.72L704.974,1020.73L704.573,1020.74L704.172,1020.74L703.771,1020.75L703.369,1020.76L702.968,1020.76L702.566,1020.77L702.165,1020.77L701.763,1020.77L701.362,1020.77L700.96,1020.78L700.558,1020.78L700.155,1020.78L699.753,1020.78L699.351,1020.78L698.949,1020.77L698.546,1020.77L698.143,1020.77L697.74,1020.76L696.935,1020.75L696.128,1020.74L695.322,1020.72L694.515,1020.7L693.707,1020.68L692.899,1020.65L692.091,1020.62L691.282,1020.59L690.473,1020.55L689.663,1020.51L688.853,1020.47L688.042,1020.43L687.232,1020.38L686.42,1020.33L685.608,1020.28L684.796,1020.22L683.984,1020.17L683.171,1020.1L682.357,1020.04L681.544,1019.97L680.729,1019.9L679.915,1019.83L679.1,1019.75L678.285,1019.68L677.469,1019.59L676.653,1019.51L675.836,1019.42L675.019,1019.33L674.202,1019.24L673.384,1019.14L672.566,1019.05L671.747,1018.95L670.928,1018.84L670.109,1018.73L669.289,1018.62L668.469,1018.51L667.649,1018.4L666.828,1018.28L666.006,1018.16L665.185,1018.04L664.363,1017.91L663.54,1017.78L662.717,1017.65L661.894,1017.52L661.071,1017.38L660.247,1017.24L659.422,1017.1L658.598,1016.96L657.773,1016.81L656.947,1016.66L656.122,1016.5L655.295,1016.35L654.469,1016.19L653.642,1016.03L652.815,1015.87L651.987,1015.7L651.159,1015.53L650.331,1015.37L649.502,1015.19L648.673,1015.02L647.844,1014.84L647.014,1014.66L646.184,1014.47L645.353,1014.29L644.522,1014.1L643.691,1013.91L642.859,1013.71L642.028,1013.52L641.195,1013.32L640.363,1013.12L639.53,1012.91L638.696,1012.71L637.863,1012.5L637.029,1012.29L636.194,1012.08L635.36,1011.86L634.525,1011.64L633.689,1011.42L632.854,1011.2L632.018,1010.97L631.181,1010.75L630.344,1010.51L629.507,1010.28L628.67,1010.05L627.832,1009.81L626.994,1009.57L626.156,1009.33L625.317,1009.08L624.478,1008.84L623.639,1008.59L622.799,1008.34L621.959,1008.08L621.118,1007.83L620.278,1007.57L619.437,1007.31L618.595,1007.04L617.754,1006.78L616.912,1006.51L616.069,1006.24L615.227,1005.97L614.384,1005.7L613.541,1005.42L612.697,1005.14L611.853,1004.86L611.009,1004.58L610.157,1004.29L131.262,835.334L130.57,835.051L129.912,834.781L129.258,834.509L128.606,834.238L127.957,833.965L127.311,833.692L126.667,833.418L126.027,833.143L125.389,832.867L124.755,832.591L124.124,832.314L123.495,832.036L122.87,831.758L122.248,831.479L121.629,831.199L121.014,830.918L120.402,830.636L119.793,830.354L119.187,830.071L118.585,829.787L117.986,829.503L117.39,829.218L116.799,828.932L116.21,828.645L115.625,828.357L115.044,828.069L114.467,827.78L113.893,827.49L113.323,827.199L112.756,826.907L112.194,826.615L111.635,826.322L111.08,826.028L110.53,825.733L109.983,825.438L109.44,825.142L108.901,824.844L108.366,824.547L107.835,824.248L107.308,823.948L106.786,823.648L106.268,823.347L105.754,823.045L105.244,822.742L104.738,822.438L104.238,822.134L103.989,821.981L103.741,821.828L103.494,821.675L103.248,821.521L103.004,821.368L102.761,821.214L102.519,821.06L102.278,820.906L102.038,820.752L101.799,820.597L101.561,820.443L101.325,820.288L101.09,820.132L100.855,819.977L100.622,819.821L100.39,819.665L100.16,819.509L99.93,819.353L99.702,819.196L99.475,819.04L99.249,818.882L99.024,818.725L98.801,818.568L98.579,818.41L98.357,818.252L98.138,818.094L97.919,817.935L97.702,817.777L97.485,817.618L97.27,817.459L97.057,817.3L96.844,817.14L96.633,816.98L96.423,816.82L96.214,816.66L96.007,816.499L95.801,816.339L95.596,816.178L95.392,816.016L95.19,815.855L94.989,815.693L94.789,815.531L94.59,815.369L94.393,815.206L94.197,815.044L94.003,814.881L93.81,814.717L93.618,814.554L93.427,814.39L93.238,814.226L93.05,814.062L92.863,813.897L92.678,813.732L92.494,813.567L92.312,813.402L92.13,813.236L91.951,813.071L91.772,812.905L91.595,812.738L91.42,812.571L91.245,812.404L91.072,812.237L90.901,812.07L90.731,811.902L90.562,811.734L90.395,811.566L90.229,811.397L90.065,811.228L89.902,811.059L89.74,810.89L89.58,810.72L89.421,810.55L89.264,810.38L89.108,810.209L88.954,810.038L88.801,809.867L88.65,809.696L88.5,809.524L88.351,809.352L88.204,809.18L88.059,809.007L87.915,808.834L87.772,808.661L87.632,808.487L87.492,808.313L87.354,808.139L87.218,807.965L87.083,807.79L86.95,807.615L86.818,807.439L86.688,807.263L86.559,807.087L86.432,806.911L86.307,806.734L86.183,806.557L86.061,806.38L85.94,806.202L85.821,806.024L85.703,805.846L85.587,805.667L85.473,805.488L85.361,805.309L85.249,805.129L85.14,804.949L85.032,804.769L84.926,804.588L84.822,804.407L84.719,804.226L84.618,804.044L84.519,803.862L84.421,803.679L84.325,803.497L84.231,803.314L84.139,803.13L84.048,802.947L83.959,802.762L83.871,802.578L83.786,802.393L83.702,802.208L83.62,802.023L83.54,801.837L83.461,801.651L83.384,801.464L83.309,801.277L83.236,801.09L83.165,800.903L83.095,800.715L83.028,800.526L82.962,800.338L82.898,800.149L82.836,799.96L82.776,799.77L82.717,799.581L82.661,799.39L82.606,799.2L82.553,799.009L82.503,798.818L82.454,798.626L82.407,798.435L82.362,798.243L82.318,798.05L82.277,797.858L82.238,797.665L82.201,797.471L82.165,797.278L82.132,797.084L82.101,796.89L82.071,796.695L82.044,796.5L82.019,796.305L81.995,796.11L81.974,795.915L81.955,795.719L81.937,795.523L81.922,795.326L81.909,795.13L81.898,794.933L81.888,794.736L81.881,794.539L81.876,794.341L81.873,794.144L81.873,793.946L81.874,793.748L81.877,793.57L81.877,517.232L1206.88,409.146L1207.03,409.279ZM84.877,519.957L84.877,793.595L84.874,793.782L84.873,793.949L84.873,794.115L84.876,794.281L84.88,794.447L84.886,794.613L84.894,794.779L84.903,794.944L84.914,795.11L84.927,795.275L84.942,795.44L84.958,795.604L84.976,795.769L84.996,795.934L85.017,796.098L85.04,796.262L85.065,796.426L85.091,796.59L85.119,796.754L85.149,796.918L85.181,797.082L85.214,797.245L85.249,797.409L85.286,797.572L85.324,797.735L85.364,797.898L85.406,798.061L85.449,798.224L85.494,798.387L85.541,798.55L85.589,798.712L85.639,798.875L85.691,799.038L85.744,799.2L85.799,799.362L85.856,799.525L85.914,799.687L85.974,799.849L86.036,800.011L86.099,800.173L86.164,800.335L86.23,800.497L86.299,800.659L86.369,800.821L86.44,800.982L86.513,801.144L86.588,801.306L86.665,801.467L86.743,801.629L86.823,801.79L86.904,801.952L86.987,802.113L87.072,802.274L87.158,802.435L87.246,802.596L87.335,802.757L87.427,802.918L87.519,803.079L87.614,803.24L87.71,803.401L87.808,803.562L87.907,803.723L88.008,803.883L88.11,804.044L88.214,804.204L88.32,804.365L88.427,804.525L88.536,804.685L88.647,804.846L88.759,805.006L88.873,805.166L88.988,805.326L89.105,805.486L89.223,805.646L89.343,805.806L89.465,805.965L89.588,806.125L89.712,806.284L89.839,806.444L89.966,806.603L90.096,806.763L90.227,806.922L90.359,807.081L90.493,807.24L90.628,807.399L90.765,807.558L90.904,807.717L91.044,807.875L91.186,808.034L91.329,808.192L91.474,808.351L91.62,808.509L91.767,808.667L91.917,808.825L92.067,808.983L92.219,809.141L92.373,809.299L92.528,809.456L92.685,809.614L92.843,809.771L93.002,809.929L93.163,810.086L93.326,810.243L93.49,810.4L93.655,810.557L93.822,810.714L93.99,810.87L94.16,811.027L94.331,811.183L94.503,811.339L94.677,811.495L94.852,811.651L95.029,811.807L95.207,811.963L95.387,812.119L95.568,812.274L95.75,812.43L95.934,812.585L96.119,812.74L96.306,812.895L96.494,813.05L96.683,813.205L96.874,813.359L97.066,813.514L97.259,813.668L97.454,813.822L97.65,813.976L97.847,814.13L98.046,814.284L98.246,814.438L98.447,814.591L98.65,814.744L98.854,814.898L99.059,815.051L99.266,815.204L99.474,815.356L99.683,815.509L99.894,815.662L100.105,815.814L100.318,815.966L100.533,816.118L100.748,816.27L100.965,816.422L101.183,816.573L101.403,816.725L101.623,816.876L101.845,817.027L102.068,817.178L102.293,817.329L102.518,817.48L102.745,817.631L102.973,817.781L103.202,817.931L103.433,818.081L103.664,818.231L103.897,818.381L104.131,818.531L104.366,818.68L104.603,818.829L104.84,818.979L105.079,819.128L105.319,819.277L105.56,819.425L105.802,819.573L106.29,819.871L106.783,820.166L107.28,820.462L107.781,820.757L108.287,821.051L108.798,821.344L109.312,821.637L109.831,821.929L110.355,822.22L110.882,822.511L111.414,822.801L111.95,823.091L112.49,823.38L113.034,823.668L113.582,823.956L114.135,824.243L114.691,824.529L115.251,824.815L115.815,825.1L116.383,825.384L116.954,825.667L117.53,825.95L118.109,826.233L118.691,826.514L119.278,826.795L119.868,827.076L120.461,827.355L121.058,827.634L121.659,827.913L122.263,828.19L122.87,828.467L123.481,828.744L124.095,829.019L124.712,829.294L125.333,829.569L125.957,829.842L126.584,830.115L127.213,830.388L127.847,830.659L128.483,830.93L129.122,831.201L129.764,831.47L130.409,831.739L131.057,832.008L131.708,832.275L132.329,832.529L611.136,1001.45L611.967,1001.73L612.804,1002.01L613.642,1002.29L614.479,1002.57L615.316,1002.84L616.152,1003.12L616.988,1003.38L617.824,1003.65L618.659,1003.92L619.494,1004.18L620.328,1004.44L621.163,1004.7L621.996,1004.96L622.83,1005.21L623.663,1005.46L624.496,1005.71L625.328,1005.96L626.16,1006.2L626.992,1006.45L627.823,1006.69L628.654,1006.92L629.484,1007.16L630.314,1007.39L631.144,1007.62L631.973,1007.85L632.802,1008.08L633.631,1008.3L634.459,1008.52L635.287,1008.74L636.114,1008.96L636.941,1009.17L637.768,1009.38L638.594,1009.59L639.42,1009.8L640.246,1010L641.071,1010.2L641.895,1010.4L642.72,1010.6L643.544,1010.79L644.367,1010.98L645.19,1011.17L646.013,1011.36L646.835,1011.54L647.657,1011.73L648.478,1011.9L649.3,1012.08L650.12,1012.26L650.94,1012.43L651.76,1012.6L652.58,1012.76L653.399,1012.93L654.217,1013.09L655.036,1013.25L655.853,1013.4L656.671,1013.56L657.488,1013.71L658.304,1013.86L659.12,1014L659.936,1014.14L660.751,1014.28L661.566,1014.42L662.38,1014.56L663.194,1014.69L664.008,1014.82L664.821,1014.95L665.634,1015.07L666.446,1015.19L667.258,1015.31L668.069,1015.43L668.88,1015.54L669.691,1015.65L670.501,1015.76L671.311,1015.87L672.12,1015.97L672.929,1016.07L673.737,1016.17L674.545,1016.26L675.352,1016.35L676.159,1016.44L676.966,1016.53L677.772,1016.61L678.578,1016.69L679.383,1016.77L680.188,1016.84L680.992,1016.91L681.796,1016.98L682.599,1017.05L683.402,1017.11L684.205,1017.17L685.007,1017.23L685.808,1017.29L686.609,1017.34L687.41,1017.39L688.211,1017.43L689.01,1017.48L689.81,1017.52L690.608,1017.56L691.407,1017.59L692.205,1017.62L693.002,1017.65L693.799,1017.68L694.596,1017.7L695.392,1017.72L696.187,1017.74L696.982,1017.75L697.778,1017.76L698.174,1017.77L698.571,1017.77L698.968,1017.77L699.365,1017.78L699.761,1017.78L700.158,1017.78L700.554,1017.78L700.951,1017.78L701.347,1017.77L701.743,1017.77L702.139,1017.77L702.535,1017.77L702.93,1017.76L703.326,1017.76L703.721,1017.75L704.117,1017.74L704.512,1017.74L704.907,1017.73L705.302,1017.72L705.697,1017.71L706.092,1017.7L706.486,1017.69L706.881,1017.67L707.275,1017.66L707.67,1017.65L708.064,1017.63L708.458,1017.62L708.852,1017.6L709.245,1017.59L709.639,1017.57L710.033,1017.55L710.426,1017.53L710.819,1017.51L711.212,1017.49L711.605,1017.47L711.998,1017.45L712.391,1017.42L712.784,1017.4L713.176,1017.37L713.569,1017.35L713.961,1017.32L714.353,1017.3L714.745,1017.27L715.137,1017.24L715.529,1017.21L715.921,1017.18L716.313,1017.15L716.704,1017.12L717.095,1017.09L717.486,1017.05L717.878,1017.02L718.269,1016.98L718.659,1016.95L719.05,1016.91L719.441,1016.87L719.831,1016.84L720.221,1016.8L720.612,1016.76L721.002,1016.72L721.392,1016.68L721.781,1016.63L722.171,1016.59L722.561,1016.55L722.95,1016.5L723.339,1016.46L723.729,1016.41L724.118,1016.37L724.507,1016.32L724.895,1016.27L725.284,1016.22L725.673,1016.17L726.061,1016.12L726.45,1016.07L726.838,1016.01L727.226,1015.96L727.614,1015.91L728.002,1015.85L728.389,1015.8L728.777,1015.74L729.164,1015.68L729.552,1015.62L729.939,1015.57L730.326,1015.51L730.713,1015.45L731.1,1015.38L731.486,1015.32L731.873,1015.26L732.259,1015.2L732.646,1015.13L733.032,1015.06L733.418,1015L733.804,1014.93L734.19,1014.86L734.575,1014.79L734.961,1014.72L735.346,1014.65L735.731,1014.58L736.116,1014.51L736.501,1014.44L736.886,1014.36L737.271,1014.29L737.656,1014.21L738.04,1014.14L738.425,1014.06L738.809,1013.98L739.193,1013.9L739.577,1013.82L739.961,1013.74L740.344,1013.66L740.728,1013.58L741.112,1013.49L741.495,1013.41L741.878,1013.33L742.261,1013.24L742.644,1013.15L743.027,1013.07L743.41,1012.98L743.792,1012.89L744.174,1012.8L744.557,1012.71L744.939,1012.62L745.321,1012.52L745.703,1012.43L746.085,1012.34L746.466,1012.24L746.848,1012.14L747.229,1012.05L747.61,1011.95L747.992,1011.85L748.373,1011.75L748.753,1011.65L749.134,1011.55L749.515,1011.45L749.895,1011.35L750.275,1011.24L750.656,1011.14L751.036,1011.03L751.416,1010.92L751.795,1010.82L752.175,1010.71L752.555,1010.6L752.934,1010.49L753.313,1010.38L753.692,1010.27L754.071,1010.15L754.45,1010.04L754.829,1009.93L755.207,1009.81L755.586,1009.7L755.964,1009.58L756.343,1009.46L756.721,1009.34L757.099,1009.22L757.476,1009.1L757.854,1008.98L758.232,1008.86L758.609,1008.74L758.986,1008.61L759.363,1008.49L759.74,1008.36L760.117,1008.23L760.494,1008.11L760.871,1007.98L761.247,1007.85L761.623,1007.72L762,1007.59L762.376,1007.45L762.751,1007.32L763.127,1007.19L763.503,1007.05L763.878,1006.92L764.254,1006.78L764.629,1006.64L765.004,1006.5L765.379,1006.36L765.754,1006.22L766.129,1006.08L766.503,1005.94L766.878,1005.8L767.252,1005.65L767.626,1005.51L768,1005.36L768.374,1005.22L768.748,1005.07L769.121,1004.92L769.495,1004.77L769.868,1004.62L770.241,1004.47L770.615,1004.32L770.987,1004.16L771.36,1004.01L771.733,1003.86L772.105,1003.7L772.478,1003.54L772.85,1003.38L773.222,1003.23L773.594,1003.07L773.966,1002.9L774.338,1002.74L774.709,1002.58L775.081,1002.42L775.452,1002.25L775.823,1002.09L776.194,1001.92L776.565,1001.76L776.936,1001.59L777.306,1001.42L777.677,1001.25L778.047,1001.08L778.417,1000.91L778.787,1000.73L779.157,1000.56L779.527,1000.38L779.896,1000.21L780.266,1000.03L780.635,999.855L781.005,999.677L781.374,999.498L781.743,999.317L782.111,999.136L782.48,998.954L782.848,998.771L783.217,998.587L783.585,998.402L783.953,998.215L784.321,998.029L784.689,997.841L785.057,997.652L785.424,997.462L785.792,997.271L786.159,997.079L786.526,996.886L786.893,996.693L787.26,996.498L787.626,996.302L787.993,996.106L788.359,995.908L788.726,995.71L789.092,995.51L789.458,995.31L789.824,995.108L790.189,994.906L790.555,994.702L790.92,994.498L791.285,994.292L791.651,994.086L792.016,993.879L792.38,993.67L792.745,993.461L793.11,993.251L793.474,993.04L793.838,992.827L794.202,992.614L794.566,992.4L794.93,992.185L795.294,991.969L795.658,991.751L796.021,991.533L796.384,991.314L796.747,991.094L797.11,990.873L797.473,990.651L797.836,990.428L798.198,990.204L798.561,989.978L798.923,989.752L799.285,989.525L799.647,989.297L800.009,989.068L800.371,988.838L800.732,988.607L801.093,988.375L801.455,988.142L801.816,987.907L802.177,987.672L802.538,987.436L802.898,987.199L803.259,986.961L803.619,986.722L803.979,986.482L804.339,986.24L804.699,985.998L805.059,985.755L805.419,985.511L805.778,985.266L806.138,985.019L806.497,984.772L806.856,984.524L807.215,984.274L807.574,984.024L807.932,983.773L808.291,983.52L808.649,983.267L809.007,983.013L809.365,982.757L809.723,982.501L810.081,982.243L810.438,981.985L810.796,981.725L811.147,981.469L1183.54,702.948L1183.84,702.708L1184.15,702.457L1184.46,702.205L1184.77,701.952L1185.08,701.698L1185.38,701.443L1185.68,701.187L1185.98,700.93L1186.28,700.672L1186.57,700.414L1186.87,700.154L1187.15,699.894L1187.44,699.632L1187.73,699.37L1188.01,699.107L1188.29,698.843L1188.56,698.578L1188.84,698.312L1189.11,698.045L1189.38,697.777L1189.64,697.509L1189.91,697.239L1190.17,696.969L1190.43,696.697L1190.69,696.425L1190.94,696.152L1191.2,695.877L1191.45,695.602L1191.69,695.326L1191.94,695.049L1192.18,694.771L1192.42,694.493L1192.66,694.213L1192.89,693.932L1193.13,693.651L1193.36,693.368L1193.59,693.085L1193.81,692.8L1194.04,692.515L1194.26,692.229L1194.47,691.942L1194.69,691.654L1194.9,691.365L1195.11,691.075L1195.32,690.784L1195.53,690.492L1195.73,690.2L1195.93,689.906L1196.13,689.611L1196.33,689.316L1196.52,689.019L1196.71,688.722L1196.9,688.424L1197.09,688.124L1197.27,687.824L1197.45,687.523L1197.63,687.221L1197.81,686.918L1197.98,686.614L1198.15,686.308L1198.32,686.002L1198.49,685.696L1198.65,685.388L1198.81,685.079L1198.97,684.769L1199.13,684.458L1199.29,684.146L1199.44,683.833L1199.59,683.52L1199.73,683.205L1199.88,682.889L1200.02,682.573L1200.16,682.255L1200.3,681.936L1200.43,681.617L1200.56,681.296L1200.69,680.975L1200.82,680.652L1200.95,680.328L1201.07,680.004L1201.19,679.678L1201.31,679.351L1201.42,679.024L1201.53,678.695L1201.64,678.365L1201.75,678.035L1201.86,677.703L1201.96,677.37L1202.06,677.037L1202.16,676.702L1202.25,676.366L1202.35,676.029L1202.44,675.691L1202.52,675.352L1202.61,675.012L1202.69,674.671L1202.77,674.329L1202.85,673.986L1202.93,673.642L1203,673.297L1203.07,672.951L1203.14,672.603L1203.2,672.255L1203.27,671.905L1203.33,671.555L1203.39,671.203L1203.44,670.851L1203.49,670.497L1203.55,670.142L1203.59,669.786L1203.64,669.429L1203.68,669.071L1203.72,668.712L1203.76,668.352L1203.8,667.991L1203.83,667.628L1203.86,667.265L1203.89,666.9L1203.91,666.534L1203.93,666.168L1203.96,665.8L1203.97,665.431L1203.99,665.061L1204,664.69L1204.01,664.317L1204.02,663.944L1204.03,663.569L1204.03,663.194L1204.03,412.434L84.877,519.957Z" style="fill:black;"/>
    </g>
    <g id="Lan-Buchsen" transform="matrix(1,0,0,1,-153.263,-48.213)">
        <g id="Lan-Buchse">
            <g transform="matrix(1,0,0,1.00362,-3.63911,-6.79775)">
                <path d="M335.073,829.381L422.368,765.046L452.229,775.556L455.903,795.936L422.368,862.204L335.073,829.381Z" style="fill:rgb(128,128,128);stroke-width:0.65px;stroke:black;"/>
            </g>
            <path d="M316.291,701.056L316.291,827.929L455.86,877.136L458.602,749.347L316.291,701.056Z" style="fill:rgb(217,217,217);stroke-width:3px;stroke-linejoin:round;stroke:black;"/>
            <path d="M442.267,837.456L442.267,819.403L447.402,820.869L447.402,801.294L416.672,827.542L442.267,837.456Z" style="fill:rgb(128,128,128);stroke-width:0.65px;stroke:black;"/>
            <path d="M327.768,778.798L333.335,780.763L376.472,746.532L371.018,744.119L327.768,778.798Z" style="fill:rgb(128,128,128);stroke-width:0.65px;stroke:black;"/>
            <path d="M367.616,826.728L379.988,817.923L379.988,826.728L367.616,835.722L367.616,826.728Z" style="fill:rgb(89,89,89);stroke-width:0.65px;stroke:black;"/>
            <g transform="matrix(1,0,0,1.00362,-9.57108,-16.4892)">
                <path d="M367.378,819.278L425.518,773.906L429.874,775.367L378.522,815.172L378.522,827.876L367.378,835.746L367.378,819.278Z" style="fill:rgb(89,89,89);stroke-width:0.65px;stroke:black;"/>
            </g>
            <g id="(Kurve)" transform="matrix(1,0,0,1.00362,-33.973,-41.5059)">
                <path d="M367.378,819.278L410.525,785.333L425.666,790.456L367.378,835.746L367.378,819.278Z" style="fill:rgb(89,89,89);stroke-width:0.65px;stroke:black;"/>
            </g>
            <g transform="matrix(1,0,0,1.00362,-9.52382,-33.1298)">
                <path d="M342.219,827.876L400.956,782.21L425.511,790.502L367.378,835.746L342.219,827.876Z" style="fill:rgb(128,128,128);stroke-width:0.65px;stroke:black;"/>
            </g>
            <g transform="matrix(1,0,0,1.00362,-39.247,-60.5626)">
                <path d="M367.378,810.016L389.83,795.496L409.747,802.134L367.378,835.746L367.378,810.016Z" style="fill:rgb(89,89,89);stroke-width:0.65px;stroke:black;"/>
            </g>
            <path d="M357.417,822.601L367.928,826.458L379.962,817.96L368.774,814.457L357.417,822.601Z" style="fill:rgb(128,128,128);stroke-width:0.65px;stroke:black;"/>
            <g transform="matrix(1,0,0,1,1.12882,-28.0431)">
                <path d="M332.165,759.891L331.966,781.257L352.138,766.689L332.165,759.891Z" style="fill:rgb(77,77,77);stroke-width:0.65px;stroke:black;"/>
            </g>
            <path d="M326.996,779.236L332.247,781.082L332.247,798.855L356.671,806.379L356.671,822.774L367.144,826.608L367.144,835.542L406.428,849.084L406.428,839.059L416.839,842.728L416.839,827.84L442.461,837.4L442.461,819.403L447.63,821.026L447.63,791.815L442.461,790.207L442.461,768.055L332.247,730.174L332.247,752.379L326.996,750.056L326.996,779.236Z" style="fill:none;stroke-width:3px;stroke-linejoin:round;stroke:black;"/>
            <path d="M369.078,835.763L398.943,813.562L423.06,821.84L446.325,801.98L416.656,827.239" style="fill:none;stroke-width:2px;stroke:black;"/>
        </g>
    </g>
    <g id="Reset" transform="matrix(1,0,0,1,296.023,151.611)">
        <g transform="matrix(0.882217,0.850242,-0.611873,0.634884,532.725,21.4796)">
            <ellipse cx="256.696" cy="793.094" rx="13.657" ry="14.286" style="fill:rgb(140,140,140);"/>
        </g>
        <g transform="matrix(0.780488,0.752199,-0.538261,0.558504,501.633,106.253)">
            <ellipse cx="256.696" cy="793.094" rx="13.657" ry="14.286" style="fill:rgb(115,115,115);"/>
        </g>
    </g>
    <g id="Deckel">
        <path d="M541.326,236.894C567.5,221.811 607.685,213.677 650.312,225.417L1142.57,361.001C1209.94,373.246 1225.24,418.959 1173.93,449.827L808.36,705.211C757.628,737.358 668.189,739.386 608.943,717.76L140.311,564.039C76.344,545.504 64.491,505.898 119.865,479.76L541.326,236.894Z" style="fill:rgb(242,242,242);stroke-width:3px;stroke-linejoin:round;stroke:black;"/>
        <path d="M549.401,245.236C566.639,235.323 604.698,222.419 646.13,233.783L1135.01,367.88C1196.26,383.163 1206.7,411.107 1161.51,438.937L791.979,694.343C741.247,726.49 675.874,728.252 616.629,706.625L156.886,556.121C98.233,540.083 86.897,509.905 138.512,481.518L549.401,245.236Z" style="fill:rgb(80,190,255);stroke-width:3px;stroke-linejoin:round;stroke:black;"/>
        <path d="M558.477,248.202C569.51,242.571 614.52,232.056 640.398,240.536L1133.07,372.665C1185.78,391.126 1192.2,412.383 1154.2,436.322L785.224,689.782C734.492,721.929 678.739,721.731 619.494,700.105L162.131,551.242C109.881,535.3 100.9,513.729 145.075,485.242L558.477,248.202Z" style="fill:rgb(134,209,249);stroke-width:3px;stroke-linejoin:round;stroke:black;"/>
    </g>
    <g transform="matrix(0.945758,0.324872,-0.324872,0.945758,326.006,-123.584)">
        <path d="M149.405,927.392L152.944,927.392L152.944,936.025L158.468,936.025L158.468,938.845L149.405,938.845L149.405,927.392Z" style="fill:rgb(166,166,166);fill-rule:nonzero;"/>
        <path d="M167.124,936.955L163.093,936.955L162.538,938.845L158.921,938.845L163.226,927.392L167.085,927.392L171.39,938.845L167.686,938.845L167.124,936.955ZM166.382,934.478L165.116,930.361L163.858,934.478L166.382,934.478Z" style="fill:rgb(166,166,166);fill-rule:nonzero;"/>
        <path d="M172.546,927.392L175.851,927.392L180.163,933.728L180.163,927.392L183.499,927.392L183.499,938.845L180.163,938.845L175.874,932.556L175.874,938.845L172.546,938.845L172.546,927.392Z" style="fill:rgb(166,166,166);fill-rule:nonzero;"/>
        <path d="M192.882,927.197L194.507,927.197L191.632,939.033L190.022,939.033L192.882,927.197Z" style="fill:rgb(166,166,166);fill-rule:nonzero;"/>
        <path d="M199.788,927.392L203.147,927.392L204.358,933.791L206.124,927.392L209.476,927.392L211.249,933.791L212.46,927.392L215.804,927.392L213.28,938.845L209.811,938.845L207.804,931.634L205.804,938.845L202.335,938.845L199.788,927.392Z" style="fill:rgb(166,166,166);fill-rule:nonzero;"/>
        <path d="M224.015,936.955L219.983,936.955L219.429,938.845L215.811,938.845L220.116,927.392L223.976,927.392L228.28,938.845L224.577,938.845L224.015,936.955ZM223.272,934.478L222.007,930.361L220.749,934.478L223.272,934.478Z" style="fill:rgb(166,166,166);fill-rule:nonzero;"/>
        <path d="M229.436,927.392L232.741,927.392L237.054,933.728L237.054,927.392L240.39,927.392L240.39,938.845L237.054,938.845L232.765,932.556L232.765,938.845L229.436,938.845L229.436,927.392Z" style="fill:rgb(166,166,166);fill-rule:nonzero;"/>
        <path d="M365.39,927.392L371.272,927.392C372.554,927.392 373.513,927.697 374.151,928.306C374.789,928.916 375.108,929.783 375.108,930.908C375.108,932.064 374.761,932.968 374.065,933.619C373.37,934.27 372.309,934.595 370.882,934.595L368.944,934.595L368.944,938.845L365.39,938.845L365.39,927.392ZM368.944,932.275L369.811,932.275C370.494,932.275 370.973,932.156 371.249,931.919C371.525,931.682 371.663,931.379 371.663,931.009C371.663,930.65 371.543,930.345 371.304,930.095C371.064,929.845 370.614,929.72 369.952,929.72L368.944,929.72L368.944,932.275Z" style="fill:rgb(166,166,166);fill-rule:nonzero;"/>
        <path d="M375.944,934.72C375.944,933.455 376.371,932.412 377.226,931.591C378.08,930.771 379.233,930.361 380.686,930.361C382.348,930.361 383.603,930.843 384.452,931.806C385.134,932.582 385.476,933.538 385.476,934.673C385.476,935.949 385.052,936.995 384.206,937.81C383.36,938.625 382.189,939.033 380.694,939.033C379.361,939.033 378.283,938.694 377.46,938.017C376.449,937.179 375.944,936.08 375.944,934.72ZM379.132,934.712C379.132,935.452 379.282,935.999 379.581,936.353C379.88,936.707 380.257,936.884 380.71,936.884C381.168,936.884 381.545,936.71 381.839,936.361C382.133,936.012 382.28,935.452 382.28,934.681C382.28,933.962 382.132,933.427 381.835,933.076C381.538,932.724 381.171,932.548 380.733,932.548C380.27,932.548 379.887,932.727 379.585,933.083C379.283,933.44 379.132,933.983 379.132,934.712Z" style="fill:rgb(166,166,166);fill-rule:nonzero;"/>
        <path d="M385.78,930.548L388.858,930.548L390.194,935.775L391.882,930.548L394.749,930.548L396.499,935.775L397.835,930.548L400.89,930.548L397.835,938.845L395.007,938.845L393.327,933.853L391.702,938.845L388.858,938.845L385.78,930.548Z" style="fill:rgb(166,166,166);fill-rule:nonzero;"/>
        <path d="M410.851,935.486L404.476,935.486C404.533,935.996 404.671,936.376 404.89,936.626C405.197,936.986 405.598,937.166 406.093,937.166C406.405,937.166 406.702,937.087 406.983,936.931C407.155,936.832 407.34,936.658 407.538,936.408L410.671,936.697C410.192,937.53 409.614,938.128 408.936,938.49C408.259,938.852 407.288,939.033 406.022,939.033C404.923,939.033 404.059,938.878 403.429,938.568C402.798,938.258 402.276,937.766 401.862,937.091C401.448,936.417 401.241,935.624 401.241,934.712C401.241,933.416 401.657,932.366 402.487,931.564C403.318,930.762 404.465,930.361 405.929,930.361C407.116,930.361 408.054,930.541 408.741,930.9C409.429,931.259 409.952,931.78 410.311,932.462C410.671,933.145 410.851,934.033 410.851,935.126L410.851,935.486ZM407.616,933.962C407.554,933.348 407.388,932.908 407.12,932.642C406.852,932.376 406.499,932.244 406.061,932.244C405.556,932.244 405.153,932.444 404.851,932.845C404.658,933.095 404.535,933.468 404.483,933.962L407.616,933.962Z" style="fill:rgb(166,166,166);fill-rule:nonzero;"/>
        <path d="M412.343,930.548L415.319,930.548L415.319,931.908C415.606,931.319 415.901,930.914 416.206,930.693C416.511,930.472 416.887,930.361 417.335,930.361C417.804,930.361 418.317,930.507 418.874,930.798L417.89,933.064C417.515,932.908 417.218,932.83 416.999,932.83C416.582,932.83 416.259,933.001 416.03,933.345C415.702,933.83 415.538,934.736 415.538,936.064L415.538,938.845L412.343,938.845L412.343,930.548Z" style="fill:rgb(166,166,166);fill-rule:nonzero;"/>
        <path d="M545.452,938.845L545.452,927.392L551.351,927.392C552.444,927.392 553.28,927.486 553.858,927.673C554.436,927.861 554.903,928.208 555.257,928.716C555.611,929.224 555.788,929.843 555.788,930.572C555.788,931.207 555.653,931.755 555.382,932.216C555.111,932.677 554.739,933.051 554.265,933.337C553.963,933.52 553.548,933.671 553.022,933.791C553.444,933.931 553.752,934.072 553.944,934.212C554.074,934.306 554.263,934.507 554.511,934.814C554.758,935.121 554.923,935.358 555.007,935.525L556.718,938.845L552.718,938.845L550.827,935.345C550.588,934.892 550.374,934.598 550.186,934.462C549.931,934.285 549.642,934.197 549.319,934.197L549.007,934.197L549.007,938.845L545.452,938.845ZM549.007,932.033L550.499,932.033C550.66,932.033 550.973,931.981 551.436,931.876C551.671,931.83 551.862,931.71 552.011,931.517C552.159,931.324 552.233,931.103 552.233,930.853C552.233,930.483 552.116,930.199 551.882,930.001C551.647,929.804 551.207,929.705 550.561,929.705L549.007,929.705L549.007,932.033Z" style="fill:rgb(166,166,166);fill-rule:nonzero;"/>
        <path d="M566.452,935.486L560.077,935.486C560.134,935.996 560.272,936.376 560.491,936.626C560.798,936.986 561.199,937.166 561.694,937.166C562.007,937.166 562.304,937.087 562.585,936.931C562.757,936.832 562.942,936.658 563.14,936.408L566.272,936.697C565.793,937.53 565.215,938.128 564.538,938.49C563.861,938.852 562.89,939.033 561.624,939.033C560.525,939.033 559.66,938.878 559.03,938.568C558.4,938.258 557.878,937.766 557.464,937.091C557.05,936.417 556.843,935.624 556.843,934.712C556.843,933.416 557.258,932.366 558.089,931.564C558.92,930.762 560.067,930.361 561.53,930.361C562.718,930.361 563.655,930.541 564.343,930.9C565.03,931.259 565.554,931.78 565.913,932.462C566.272,933.145 566.452,934.033 566.452,935.126L566.452,935.486ZM563.218,933.962C563.155,933.348 562.99,932.908 562.722,932.642C562.453,932.376 562.101,932.244 561.663,932.244C561.158,932.244 560.754,932.444 560.452,932.845C560.259,933.095 560.137,933.468 560.085,933.962L563.218,933.962Z" style="fill:rgb(166,166,166);fill-rule:nonzero;"/>
        <path d="M567.351,936.548L570.507,936.251C570.637,936.626 570.819,936.895 571.054,937.056C571.288,937.218 571.601,937.298 571.991,937.298C572.418,937.298 572.749,937.207 572.983,937.025C573.166,936.889 573.257,936.72 573.257,936.517C573.257,936.288 573.137,936.111 572.897,935.986C572.726,935.897 572.27,935.788 571.53,935.658C570.426,935.465 569.659,935.287 569.229,935.123C568.8,934.958 568.438,934.681 568.143,934.291C567.849,933.9 567.702,933.455 567.702,932.955C567.702,932.408 567.861,931.936 568.179,931.541C568.496,931.145 568.934,930.849 569.491,930.654C570.048,930.458 570.796,930.361 571.733,930.361C572.723,930.361 573.453,930.436 573.925,930.587C574.396,930.738 574.789,930.973 575.104,931.291C575.42,931.608 575.681,932.038 575.89,932.58L572.874,932.876C572.796,932.611 572.666,932.416 572.483,932.291C572.233,932.124 571.931,932.041 571.577,932.041C571.218,932.041 570.956,932.104 570.792,932.232C570.628,932.36 570.546,932.514 570.546,932.697C570.546,932.9 570.65,933.054 570.858,933.158C571.067,933.262 571.52,933.356 572.218,933.439C573.275,933.559 574.061,933.725 574.577,933.939C575.093,934.152 575.487,934.457 575.761,934.853C576.034,935.249 576.171,935.684 576.171,936.158C576.171,936.637 576.026,937.103 575.737,937.556C575.448,938.009 574.992,938.37 574.37,938.638C573.748,938.906 572.9,939.041 571.827,939.041C570.311,939.041 569.232,938.824 568.589,938.392C567.946,937.96 567.533,937.345 567.351,936.548Z" style="fill:rgb(166,166,166);fill-rule:nonzero;"/>
        <path d="M586.897,935.486L580.522,935.486C580.58,935.996 580.718,936.376 580.936,936.626C581.244,936.986 581.645,937.166 582.14,937.166C582.452,937.166 582.749,937.087 583.03,936.931C583.202,936.832 583.387,936.658 583.585,936.408L586.718,936.697C586.239,937.53 585.66,938.128 584.983,938.49C584.306,938.852 583.335,939.033 582.069,939.033C580.97,939.033 580.106,938.878 579.476,938.568C578.845,938.258 578.323,937.766 577.909,937.091C577.495,936.417 577.288,935.624 577.288,934.712C577.288,933.416 577.703,932.366 578.534,931.564C579.365,930.762 580.512,930.361 581.976,930.361C583.163,930.361 584.101,930.541 584.788,930.9C585.476,931.259 585.999,931.78 586.358,932.462C586.718,933.145 586.897,934.033 586.897,935.126L586.897,935.486ZM583.663,933.962C583.601,933.348 583.435,932.908 583.167,932.642C582.899,932.376 582.546,932.244 582.108,932.244C581.603,932.244 581.199,932.444 580.897,932.845C580.705,933.095 580.582,933.468 580.53,933.962L583.663,933.962Z" style="fill:rgb(166,166,166);fill-rule:nonzero;"/>
        <path d="M592.194,927.392L592.194,930.548L593.944,930.548L593.944,932.869L592.194,932.869L592.194,935.814C592.194,936.168 592.228,936.402 592.296,936.517C592.4,936.694 592.582,936.783 592.843,936.783C593.077,936.783 593.405,936.715 593.827,936.58L594.061,938.775C593.275,938.947 592.541,939.033 591.858,939.033C591.067,939.033 590.483,938.931 590.108,938.728C589.733,938.525 589.456,938.216 589.276,937.802C589.097,937.388 589.007,936.718 589.007,935.791L589.007,932.869L587.835,932.869L587.835,930.548L589.007,930.548L589.007,929.025L592.194,927.392Z" style="fill:rgb(166,166,166);fill-rule:nonzero;"/>
    </g>
    <g transform="matrix(0.430774,0.143185,-0.136971,0.412079,88.1074,216.237)">
        <path d="M628.721,459.624C638.28,444.188 624.512,434.977 608.636,434.977L551.793,434.977C535.917,434.977 529.144,444.016 515.763,459.624L457.077,528.072C444.925,542.245 451.493,556.839 468.304,556.839L541.012,556.839C556.889,556.839 564.569,545.697 577.706,528.072L628.721,459.624Z" style="fill:rgb(40,56,116);"/>
        <path d="M540.11,430.393L540.468,430.278L540.828,430.167L541.19,430.059L541.554,429.955L541.921,429.855L542.291,429.759L542.662,429.668L543.033,429.58L543.408,429.496L543.787,429.416L544.166,429.34L544.547,429.268L544.931,429.2L545.317,429.136L545.705,429.076L546.095,429.02L546.487,428.968L546.882,428.919L547.278,428.875L547.678,428.835L548.079,428.798L548.481,428.766L548.887,428.737L549.295,428.712L549.706,428.691L550.119,428.674L550.533,428.661L550.951,428.651L551.371,428.646L551.781,428.644L608.649,428.644L609.06,428.646L609.483,428.651L609.906,428.661L610.328,428.675L610.749,428.692L611.169,428.713L611.588,428.738L612.007,428.766L612.424,428.799L612.84,428.835L613.255,428.876L613.669,428.92L614.081,428.968L614.492,429.019L614.902,429.075L615.311,429.134L615.718,429.197L616.123,429.264L616.528,429.335L616.931,429.41L617.331,429.489L617.731,429.571L618.129,429.658L618.525,429.748L618.919,429.842L619.312,429.94L619.703,430.043L620.092,430.149L620.478,430.259L620.863,430.373L621.246,430.492L621.627,430.614L622.006,430.74L622.383,430.871L622.757,431.006L623.129,431.144L623.499,431.287L623.866,431.435L624.232,431.587L624.595,431.743L624.955,431.903L625.313,432.068L625.668,432.237L626.02,432.411L626.37,432.59L626.717,432.773L627.062,432.961L627.403,433.153L627.741,433.351L628.077,433.553L628.409,433.76L628.738,433.972L629.064,434.19L629.386,434.412L629.706,434.64L630.021,434.873L630.333,435.111L630.641,435.355L630.946,435.604L631.246,435.86L631.542,436.12L631.834,436.386L632.122,436.658L632.405,436.936L632.684,437.22L632.957,437.51L633.226,437.806L633.489,438.108L633.747,438.416L634,438.73L634.247,439.05L634.488,439.377L634.722,439.71L634.95,440.048L635.172,440.394L635.386,440.745L635.594,441.102L635.794,441.465L635.987,441.834L636.171,442.208L636.348,442.589L636.516,442.975L636.676,443.366L636.827,443.762L636.969,444.164L637.102,444.569L637.226,444.98L637.34,445.395L637.439,445.794L637.492,446.024L637.538,446.237L637.582,446.449L637.623,446.663L637.661,446.876L637.697,447.092L637.731,447.309L637.761,447.525L637.79,447.741L637.815,447.959L637.839,448.179L637.859,448.398L637.877,448.616L637.893,448.837L637.906,449.058L637.916,449.279L637.923,449.5L637.929,449.722L637.931,449.945L637.931,450.168L637.928,450.39L637.923,450.613L637.915,450.835L637.905,451.06L637.892,451.284L637.876,451.508L637.858,451.732L637.838,451.957L637.815,452.18L637.789,452.404L637.761,452.628L637.73,452.853L637.697,453.078L637.661,453.302L637.623,453.527L637.583,453.751L637.54,453.975L637.494,454.2L637.447,454.424L637.397,454.647L637.344,454.871L637.289,455.096L637.232,455.32L637.168,455.559L637.046,455.99L636.91,456.436L636.765,456.882L636.611,457.328L636.448,457.772L636.276,458.216L636.095,458.659L635.905,459.102L635.707,459.544L635.5,459.986L635.284,460.427L635.059,460.867L634.826,461.308L634.584,461.747L634.333,462.187L634.074,462.626L633.676,463.279L582.485,531.963L580.082,535.191L578.917,536.754L577.772,538.282L577.203,539.036L576.639,539.78L576.079,540.515L575.521,541.242L574.966,541.96L574.413,542.67L573.862,543.371L573.312,544.063L572.763,544.746L572.214,545.42L571.666,546.085L571.116,546.742L570.571,547.383L570.292,547.708L570.016,548.026L569.739,548.341L569.463,548.654L569.186,548.965L568.908,549.273L568.63,549.579L568.35,549.883L568.071,550.183L567.79,550.482L567.509,550.778L567.226,551.071L566.943,551.363L566.658,551.652L566.373,551.937L566.086,552.221L565.797,552.502L565.508,552.78L565.218,553.055L564.926,553.328L564.632,553.598L564.337,553.866L564.041,554.13L563.742,554.392L563.443,554.651L563.142,554.906L562.838,555.16L562.533,555.41L562.226,555.657L561.918,555.901L561.607,556.141L561.294,556.379L560.979,556.614L560.662,556.845L560.343,557.073L560.022,557.297L559.699,557.519L559.373,557.737L559.046,557.95L558.715,558.161L558.383,558.368L558.048,558.572L557.711,558.771L557.372,558.967L557.03,559.159L556.686,559.347L556.34,559.531L555.99,559.711L555.638,559.887L555.285,560.058L554.929,560.226L554.57,560.389L554.209,560.548L553.845,560.703L553.479,560.853L553.111,560.999L552.74,561.14L552.367,561.277L551.991,561.409L551.613,561.537L551.233,561.66L550.851,561.778L550.466,561.892L550.079,562.001L549.69,562.105L549.298,562.204L548.904,562.299L548.508,562.388L548.11,562.473L547.709,562.553L547.307,562.628L546.902,562.699L546.495,562.764L546.086,562.824L545.675,562.88L545.261,562.931L544.846,562.977L544.429,563.018L544.009,563.054L543.587,563.085L543.163,563.112L542.737,563.133L542.309,563.15L541.879,563.162L541.446,563.169L541.028,563.172L468.284,563.172L467.832,563.169L467.364,563.159L466.899,563.143L466.437,563.121L465.977,563.092L465.521,563.057L465.067,563.015L464.617,562.967L464.171,562.913L463.727,562.852L463.285,562.785L462.848,562.712L462.414,562.632L461.983,562.546L461.555,562.453L461.131,562.354L460.711,562.249L460.292,562.137L459.879,562.019L459.469,561.894L459.062,561.763L458.66,561.626L458.261,561.482L457.865,561.332L457.474,561.175L457.086,561.012L456.703,560.842L456.323,560.666L455.949,560.484L455.578,560.295L455.211,560.099L454.85,559.898L454.492,559.69L454.139,559.475L453.79,559.254L453.447,559.026L453.109,558.793L452.776,558.553L452.447,558.306L452.124,558.053L451.807,557.794L451.495,557.529L451.188,557.258L450.887,556.98L450.592,556.696L450.303,556.406L450.021,556.111L449.744,555.81L449.473,555.502L449.209,555.189L448.952,554.87L448.702,554.546L448.458,554.217L448.222,553.882L447.992,553.541L447.769,553.196L447.554,552.846L447.347,552.491L447.147,552.131L446.954,551.767L446.769,551.398L446.592,551.025L446.423,550.648L446.262,550.267L446.109,549.883L445.964,549.494L445.827,549.102L445.698,548.708L445.578,548.309L445.466,547.908L445.363,547.504L445.267,547.098L445.181,546.689L445.102,546.278L445.032,545.866L444.971,545.45L444.918,545.033L444.873,544.615L444.837,544.195L444.809,543.774L444.789,543.352L444.778,542.929L444.775,542.504L444.781,542.079L444.794,541.654L444.816,541.228L444.846,540.801L444.884,540.375L444.93,539.948L444.984,539.52L445.047,539.094L445.117,538.667L445.195,538.24L445.28,537.814L445.374,537.388L445.475,536.963L445.584,536.537L445.701,536.113L445.825,535.689L445.956,535.266L446.095,534.844L446.242,534.422L446.396,534.001L446.557,533.581L446.726,533.162L446.902,532.744L447.085,532.327L447.275,531.911L447.473,531.496L447.678,531.082L447.89,530.669L448.109,530.258L448.335,529.847L448.568,529.438L448.808,529.03L449.056,528.623L449.31,528.217L449.571,527.813L449.84,527.41L450.114,527.009L450.397,526.608L450.686,526.209L450.982,525.812L451.285,525.415L451.595,525.021L451.911,524.628L452.235,524.236L452.554,523.86L511.25,455.399L512.481,453.96L513.679,452.557L514.85,451.187L515.995,449.852L516.562,449.194L517.123,448.545L517.679,447.905L518.232,447.273L518.781,446.649L519.328,446.033L519.872,445.426L520.413,444.826L520.954,444.235L521.493,443.652L522.032,443.077L522.57,442.51L523.109,441.952L523.649,441.402L524.185,440.866L524.461,440.593L524.733,440.328L525.005,440.065L525.278,439.804L525.552,439.545L525.826,439.288L526.101,439.034L526.377,438.782L526.655,438.531L526.932,438.284L527.211,438.039L527.491,437.796L527.773,437.555L528.056,437.316L528.339,437.081L528.624,436.847L528.911,436.616L529.199,436.388L529.488,436.162L529.779,435.939L530.072,435.718L530.366,435.5L530.662,435.284L530.959,435.072L531.259,434.861L531.561,434.654L531.863,434.45L532.168,434.249L532.475,434.05L532.783,433.855L533.094,433.662L533.408,433.472L533.722,433.286L534.039,433.103L534.358,432.923L534.679,432.746L535.002,432.572L535.327,432.403L535.655,432.236L535.985,432.072L536.317,431.912L536.65,431.756L536.987,431.603L537.324,431.454L537.665,431.308L538.008,431.166L538.353,431.028L538.7,430.893L539.049,430.763L539.401,430.636L539.755,430.513L540.11,430.393ZM543.294,442.63L543.071,442.711L542.848,442.794L542.627,442.88L542.408,442.967L542.191,443.057L541.974,443.15L541.757,443.246L541.543,443.343L541.329,443.443L541.115,443.546L540.904,443.651L540.692,443.759L540.48,443.87L540.27,443.983L540.06,444.098L539.849,444.217L539.64,444.338L539.43,444.462L539.221,444.589L539.012,444.719L538.802,444.852L538.593,444.987L538.384,445.125L538.174,445.267L537.964,445.411L537.755,445.558L537.544,445.709L537.334,445.862L537.122,446.018L536.91,446.178L536.699,446.341L536.486,446.507L536.272,446.676L536.059,446.848L535.845,447.024L535.629,447.203L535.413,447.385L535.197,447.57L534.98,447.758L534.762,447.95L534.542,448.146L534.322,448.344L534.101,448.546L533.879,448.751L533.656,448.96L533.433,449.171L533.208,449.386L532.982,449.605L532.755,449.827L532.532,450.047L532.066,450.512L531.602,450.986L531.132,451.472L530.657,451.972L530.176,452.486L529.689,453.011L529.197,453.55L528.698,454.102L528.192,454.667L527.68,455.244L527.161,455.834L526.634,456.437L526.1,457.051L525.557,457.678L525.008,458.316L523.879,459.632L522.717,460.993L521.515,462.4L520.276,463.848L461.601,532.284L461.357,532.572L461.131,532.845L460.912,533.117L460.7,533.387L460.495,533.656L460.296,533.923L460.103,534.189L459.918,534.452L459.738,534.715L459.564,534.976L459.397,535.234L459.237,535.49L459.082,535.745L458.933,535.998L458.79,536.249L458.653,536.497L458.522,536.743L458.397,536.987L458.278,537.228L458.164,537.467L458.056,537.704L457.953,537.938L457.855,538.169L457.763,538.398L457.676,538.625L457.594,538.848L457.518,539.069L457.446,539.286L457.379,539.502L457.317,539.714L457.259,539.924L457.207,540.129L457.158,540.333L457.114,540.534L457.074,540.731L457.039,540.926L457.007,541.117L456.98,541.306L456.956,541.492L456.937,541.674L456.921,541.854L456.908,542.03L456.899,542.204L456.894,542.375L456.892,542.543L456.893,542.708L456.897,542.871L456.904,543.031L456.915,543.188L456.928,543.342L456.945,543.495L456.964,543.644L456.985,543.791L457.01,543.936L457.037,544.079L457.067,544.219L457.099,544.357L457.134,544.493L457.172,544.628L457.212,544.76L457.254,544.891L457.299,545.02L457.347,545.147L457.397,545.273L457.45,545.398L457.505,545.521L457.563,545.643L457.624,545.764L457.687,545.883L457.752,546.002L457.822,546.12L457.893,546.237L457.967,546.352L458.045,546.466L458.125,546.58L458.209,546.694L458.296,546.806L458.386,546.918L458.479,547.029L458.576,547.138L458.676,547.248L458.78,547.356L458.888,547.464L458.999,547.571L459.114,547.677L459.232,547.782L459.355,547.886L459.482,547.99L459.613,548.092L459.748,548.193L459.887,548.294L460.031,548.393L460.179,548.491L460.331,548.588L460.487,548.683L460.648,548.776L460.814,548.869L460.984,548.959L461.158,549.048L461.338,549.136L461.522,549.221L461.711,549.305L461.905,549.386L462.102,549.465L462.305,549.543L462.513,549.618L462.726,549.69L462.943,549.76L463.166,549.828L463.393,549.893L463.625,549.955L463.861,550.014L464.104,550.07L464.35,550.124L464.601,550.174L464.858,550.221L465.119,550.265L465.384,550.305L465.655,550.342L465.93,550.376L466.211,550.406L466.495,550.432L466.785,550.454L467.079,550.472L467.378,550.487L467.682,550.497L467.991,550.504L468.324,550.506L540.996,550.506L541.319,550.504L541.621,550.499L541.921,550.491L542.216,550.479L542.508,550.464L542.797,550.446L543.082,550.425L543.363,550.401L543.642,550.374L543.918,550.343L544.19,550.31L544.459,550.273L544.725,550.234L544.989,550.192L545.249,550.146L545.507,550.098L545.762,550.047L546.016,549.993L546.266,549.937L546.514,549.877L546.76,549.815L547.004,549.749L547.246,549.681L547.486,549.611L547.724,549.537L547.96,549.461L548.195,549.381L548.428,549.299L548.66,549.214L548.89,549.126L549.119,549.036L549.347,548.942L549.574,548.846L549.799,548.746L550.024,548.644L550.249,548.538L550.472,548.43L550.694,548.319L550.916,548.204L551.138,548.087L551.359,547.966L551.579,547.842L551.8,547.715L552.02,547.585L552.239,547.452L552.459,547.315L552.678,547.175L552.898,547.031L553.117,546.885L553.336,546.735L553.556,546.581L553.776,546.424L553.996,546.264L554.216,546.1L554.436,545.932L554.656,545.761L554.878,545.587L555.099,545.408L555.32,545.227L555.542,545.042L555.765,544.853L555.988,544.66L556.212,544.464L556.436,544.264L556.66,544.06L556.885,543.853L557.111,543.643L557.337,543.428L557.565,543.209L557.792,542.988L558.02,542.762L558.25,542.532L558.479,542.299L558.71,542.063L558.941,541.822L559.173,541.579L559.406,541.33L559.64,541.079L559.874,540.824L560.11,540.565L560.346,540.303L560.583,540.038L560.822,539.767L561.061,539.495L561.3,539.218L561.538,538.943L562.028,538.366L562.517,537.781L563.011,537.182L563.51,536.569L564.014,535.942L564.523,535.301L565.037,534.648L565.557,533.981L566.083,533.301L566.614,532.608L567.152,531.902L567.696,531.184L568.246,530.455L569.371,528.954L570.524,527.408L572.926,524.181L623.766,455.968L623.808,455.9L623.971,455.623L624.126,455.35L624.274,455.083L624.413,454.82L624.544,454.562L624.668,454.31L624.784,454.063L624.892,453.821L624.994,453.584L625.088,453.353L625.176,453.126L625.257,452.905L625.331,452.691L625.4,452.48L625.462,452.276L625.523,452.062L625.545,451.979L625.569,451.883L625.592,451.789L625.614,451.696L625.635,451.603L625.654,451.511L625.672,451.423L625.689,451.334L625.705,451.246L625.72,451.161L625.733,451.076L625.745,450.994L625.756,450.912L625.767,450.831L625.776,450.751L625.784,450.672L625.791,450.594L625.797,450.518L625.802,450.443L625.807,450.37L625.81,450.298L625.812,450.225L625.814,450.154L625.815,450.084L625.815,450.015L625.814,449.947L625.813,449.881L625.81,449.814L625.807,449.748L625.804,449.685L625.799,449.621L625.794,449.557L625.788,449.495L625.782,449.435L625.775,449.374L625.767,449.313L625.758,449.253L625.749,449.195L625.739,449.137L625.729,449.078L625.718,449.021L625.706,448.964L625.694,448.908L625.686,448.872L625.653,448.74L625.623,448.63L625.59,448.521L625.554,448.412L625.516,448.305L625.475,448.198L625.431,448.09L625.385,447.983L625.335,447.876L625.282,447.768L625.225,447.66L625.166,447.552L625.102,447.442L625.035,447.333L624.965,447.223L624.89,447.112L624.811,447L624.729,446.888L624.642,446.776L624.551,446.662L624.455,446.548L624.355,446.434L624.251,446.319L624.142,446.203L624.028,446.088L623.91,445.972L623.788,445.856L623.66,445.739L623.527,445.623L623.39,445.506L623.249,445.391L623.103,445.275L622.951,445.159L622.795,445.044L622.634,444.929L622.469,444.815L622.299,444.702L622.124,444.589L621.945,444.478L621.762,444.367L621.574,444.257L621.381,444.149L621.184,444.041L620.983,443.935L620.778,443.83L620.568,443.727L620.354,443.625L620.137,443.524L619.915,443.426L619.689,443.328L619.46,443.233L619.226,443.14L618.989,443.048L618.748,442.958L618.504,442.87L618.257,442.784L618.006,442.701L617.751,442.619L617.493,442.539L617.232,442.462L616.968,442.387L616.701,442.314L616.432,442.243L616.159,442.175L615.883,442.109L615.604,442.045L615.323,441.984L615.041,441.926L614.754,441.87L614.466,441.816L614.175,441.765L613.882,441.717L613.587,441.671L613.29,441.628L612.991,441.587L612.69,441.55L612.387,441.514L612.082,441.482L611.776,441.452L611.468,441.425L611.158,441.401L610.848,441.38L610.535,441.361L610.221,441.345L609.906,441.333L609.59,441.322L609.273,441.315L608.954,441.311L608.622,441.309L551.806,441.309L551.475,441.311L551.161,441.315L550.85,441.322L550.544,441.332L550.241,441.345L549.943,441.36L549.648,441.378L549.357,441.398L549.069,441.422L548.785,441.447L548.506,441.476L548.229,441.507L547.956,441.54L547.685,441.576L547.418,441.614L547.155,441.655L546.894,441.698L546.637,441.744L546.381,441.792L546.129,441.843L545.881,441.895L545.635,441.95L545.389,442.008L545.148,442.068L544.91,442.13L544.673,442.194L544.438,442.261L544.205,442.33L543.975,442.402L543.746,442.476L543.519,442.552L543.294,442.63Z" style="fill:rgb(64,82,132);"/>
    </g>
    <path d="M451.213,810.839C451.213,805.16 446.602,800.549 440.923,800.549L362.128,800.549C356.449,800.549 351.838,805.16 351.838,810.839L351.838,831.418C351.838,837.097 356.449,841.708 362.128,841.708L440.923,841.708C446.602,841.708 451.213,837.097 451.213,831.418L451.213,810.839Z" style="fill:rgb(242,242,242);"/>
    <g id="USB" transform="matrix(1,0,0,1,-6.99983,6.93902)">
        <path d="M360.47,817.206C364.791,823.877 368.904,831.07 376.451,837.415L439.852,859.995C446.316,859.09 454.636,854.026 460.271,847.875L460.271,828.866C460.271,824.747 457.727,821.721 452.366,820.026L369.726,791.263C362.046,788.589 360.47,790.783 360.47,795.762L360.47,817.206Z" style="fill:rgb(208,208,208);stroke-width:2px;stroke:black;"/>
        <path d="M445.12,842.284C449.32,842.074 453.719,838.679 457.836,834.724L457.836,824.75L446.629,821.548L445.12,842.284Z" style="fill:rgb(36,36,36);stroke-width:1.5px;stroke:black;"/>
        <path d="M369.726,811.272C373.63,817.477 377.954,823.834 383.578,829.348L441.388,849.854C447.19,847.168 453.15,842.648 457.824,837.391L457.824,823.101L455.36,821.204L369.726,791.24L369.726,811.272Z" style="fill:url(#_Linear1);stroke-width:1.5px;stroke:black;"/>
        <path d="M378.327,793.977L380.607,804.925L391.321,815.761L404.426,803.262L378.327,793.977Z" style="fill:rgb(50,50,50);stroke-width:1.5px;stroke:black;"/>
        <path d="M374.391,795.562C377.596,797.319 381.111,798.361 383.465,796.13L392.894,799.499C390.175,801.807 387.37,804.325 383.465,804.925C380.041,805.843 376.982,805.066 374.391,803.36L374.391,795.562Z" style="fill:rgb(118,117,115);stroke-width:1.5px;stroke:black;"/>
        <path d="M404.426,803.262L385.351,821.706L444.421,842.496L458.609,824.272L456.282,821.706L451.477,819.576L404.426,803.262Z" style="fill:rgb(65,65,65);stroke-width:1.5px;stroke:black;"/>
    </g>
    <g id="usb rechts">
        <path d="M806.305,789.797L806.305,873.174L915.488,795.7L875.412,786.028L806.305,789.797Z" style="fill:rgb(192,193,197);stroke-width:3px;stroke-linejoin:round;stroke:black;"/>
        <path d="M806.305,789.797L875.407,786.029L915.488,795.7L915.488,718.049L806.305,789.797Z" style="fill:rgb(113,116,123);stroke-width:3px;stroke-linejoin:round;stroke:black;"/>
        <path d="M806.305,844.952L891.136,789.797L891.136,734.211L806.305,789.797L806.305,844.952Z" style="fill:none;stroke-width:3px;stroke-linejoin:round;stroke:black;"/>
        <path d="M806.305,789.797L806.305,845.133L890.932,789.797L890.932,734.14L806.305,789.797Z" style="fill:rgb(46,49,56);stroke-width:3px;stroke-linejoin:round;stroke:black;"/>
        <g>
            <path d="M806.799,843.973L806.799,829.99L878.03,783.323C882.442,780.432 889.363,790.884 883.77,794.48L806.799,843.973Z" style="fill:rgb(235,231,228);stroke-width:1px;stroke-linejoin:round;stroke:black;"/>
            <path d="M880.852,766.699C881.012,772.022 890.738,771.758 890.738,766.699L890.738,734.845L880.852,741.304L880.852,766.699" style="fill:rgb(235,231,228);stroke-width:1px;stroke-linejoin:round;stroke:black;"/>
        </g>
        <path d="M806.439,789.265L821.837,806.463L806.439,815.227L806.439,789.265" style="fill:rgb(94,102,105);stroke-width:1px;stroke-linejoin:round;stroke:black;"/>
        <path d="M820.313,780.748L835.642,797.97L851.113,787.608L835.642,770.491L820.313,780.748Z" style="fill:rgb(94,102,105);stroke-width:1px;stroke-linejoin:round;stroke:black;"/>
        <path d="M806.305,789.797L806.305,873.174L915.488,795.7L915.488,718.049L806.305,789.797Z" style="fill:none;stroke-width:3px;stroke-linejoin:round;stroke:black;"/>
    </g>
    <g transform="matrix(0.82704,-0.562143,-0.0719206,1.25802,668.35,10.3239)">
        <path d="M266.798,816.738L262.662,815.996C263.006,814.679 263.667,813.669 264.644,812.967C265.622,812.265 267.006,811.914 268.796,811.914C270.851,811.914 272.337,812.298 273.254,813.064C274.171,813.83 274.629,814.793 274.629,815.953C274.629,816.634 274.443,817.25 274.07,817.801C273.698,818.353 273.136,818.836 272.384,819.251C272.993,819.402 273.458,819.577 273.78,819.778C274.303,820.1 274.71,820.524 275,821.051C275.29,821.577 275.435,822.205 275.435,822.936C275.435,823.853 275.195,824.732 274.715,825.573C274.235,826.415 273.544,827.063 272.642,827.517C271.739,827.972 270.554,828.2 269.086,828.2C267.654,828.2 266.524,828.031 265.697,827.695C264.87,827.358 264.189,826.866 263.656,826.218C263.122,825.57 262.712,824.755 262.426,823.774L266.798,823.194C266.97,824.075 267.237,824.685 267.598,825.025C267.96,825.365 268.42,825.535 268.979,825.535C269.566,825.535 270.055,825.321 270.445,824.891C270.835,824.461 271.03,823.888 271.03,823.172C271.03,822.442 270.842,821.876 270.466,821.475C270.09,821.074 269.58,820.873 268.936,820.873C268.592,820.873 268.119,820.959 267.518,821.131L267.743,818.005C267.987,818.041 268.177,818.059 268.313,818.059C268.886,818.059 269.364,817.876 269.747,817.511C270.13,817.146 270.321,816.713 270.321,816.211C270.321,815.731 270.178,815.348 269.892,815.062C269.605,814.775 269.211,814.632 268.71,814.632C268.194,814.632 267.776,814.788 267.453,815.099C267.131,815.411 266.913,815.957 266.798,816.738Z" style="fill:rgb(114,116,115);fill-rule:nonzero;"/>
        <path d="M285.855,822.227L285.855,818.951L293.374,818.951L293.374,825.664C291.935,826.646 290.662,827.313 289.555,827.668C288.449,828.022 287.137,828.2 285.618,828.2C283.749,828.2 282.226,827.881 281.048,827.244C279.869,826.606 278.956,825.657 278.308,824.397C277.66,823.136 277.336,821.69 277.336,820.057C277.336,818.338 277.691,816.843 278.4,815.572C279.109,814.301 280.147,813.336 281.515,812.677C282.582,812.169 284.018,811.914 285.822,811.914C287.563,811.914 288.864,812.072 289.727,812.387C290.59,812.702 291.306,813.191 291.876,813.853C292.445,814.516 292.873,815.355 293.159,816.372L288.465,817.21C288.272,816.616 287.944,816.161 287.482,815.846C287.02,815.531 286.431,815.373 285.715,815.373C284.648,815.373 283.798,815.744 283.164,816.485C282.53,817.226 282.213,818.399 282.213,820.003C282.213,821.708 282.534,822.925 283.174,823.656C283.815,824.386 284.709,824.751 285.855,824.751C286.399,824.751 286.918,824.673 287.412,824.515C287.906,824.357 288.472,824.089 289.11,823.709L289.11,822.227L285.855,822.227Z" style="fill:rgb(114,116,115);fill-rule:nonzero;"/>
        <path d="M313.849,812.183L318.704,812.183L318.704,821.572C318.704,822.503 318.559,823.382 318.269,824.209C317.979,825.036 317.524,825.759 316.905,826.379C316.285,826.998 315.636,827.433 314.955,827.684C314.01,828.035 312.875,828.21 311.55,828.21C310.784,828.21 309.948,828.157 309.042,828.049C308.136,827.942 307.378,827.729 306.77,827.41C306.161,827.091 305.604,826.638 305.099,826.051C304.594,825.464 304.249,824.859 304.063,824.236C303.762,823.233 303.611,822.345 303.611,821.572L303.611,812.183L308.467,812.183L308.467,821.797C308.467,822.657 308.705,823.328 309.181,823.811C309.658,824.295 310.318,824.536 311.163,824.536C312.001,824.536 312.658,824.298 313.134,823.822C313.611,823.346 313.849,822.671 313.849,821.797L313.849,812.183Z" style="fill:rgb(114,116,115);fill-rule:nonzero;"/>
        <path d="M321.078,822.721L325.708,822.431C325.808,823.183 326.013,823.756 326.32,824.15C326.822,824.787 327.538,825.106 328.469,825.106C329.164,825.106 329.699,824.943 330.075,824.617C330.451,824.291 330.639,823.913 330.639,823.484C330.639,823.076 330.46,822.71 330.102,822.388C329.744,822.066 328.913,821.761 327.61,821.475C325.475,820.995 323.954,820.358 323.044,819.563C322.127,818.768 321.669,817.755 321.669,816.523C321.669,815.714 321.904,814.949 322.373,814.229C322.842,813.51 323.547,812.944 324.489,812.532C325.431,812.12 326.722,811.914 328.361,811.914C330.374,811.914 331.908,812.289 332.965,813.037C334.021,813.785 334.649,814.976 334.85,816.609L330.263,816.877C330.141,816.168 329.885,815.653 329.495,815.33C329.104,815.008 328.566,814.847 327.878,814.847C327.312,814.847 326.886,814.967 326.6,815.207C326.313,815.447 326.17,815.739 326.17,816.082C326.17,816.333 326.288,816.559 326.525,816.759C326.754,816.967 327.298,817.16 328.157,817.339C330.284,817.798 331.808,818.261 332.728,818.73C333.648,819.199 334.318,819.781 334.737,820.476C335.156,821.171 335.365,821.948 335.365,822.807C335.365,823.817 335.086,824.748 334.527,825.6C333.969,826.452 333.188,827.098 332.186,827.539C331.183,827.979 329.919,828.2 328.394,828.2C325.715,828.2 323.861,827.684 322.829,826.653C321.798,825.621 321.214,824.311 321.078,822.721Z" style="fill:rgb(114,116,115);fill-rule:nonzero;"/>
        <path d="M337.825,812.183L346.935,812.183C348.453,812.183 349.618,812.559 350.431,813.311C351.244,814.063 351.651,814.994 351.651,816.104C351.651,817.035 351.361,817.833 350.78,818.499C350.394,818.943 349.828,819.294 349.083,819.552C350.215,819.824 351.047,820.292 351.581,820.954C352.114,821.616 352.381,822.449 352.381,823.452C352.381,824.268 352.191,825.002 351.812,825.654C351.432,826.305 350.913,826.821 350.254,827.201C349.846,827.437 349.23,827.609 348.406,827.716C347.311,827.859 346.584,827.931 346.226,827.931L337.825,827.931L337.825,812.183ZM342.735,818.36L344.851,818.36C345.61,818.36 346.138,818.229 346.435,817.968C346.732,817.706 346.881,817.328 346.881,816.834C346.881,816.376 346.732,816.018 346.435,815.76C346.138,815.502 345.621,815.373 344.883,815.373L342.735,815.373L342.735,818.36ZM342.735,824.547L345.216,824.547C346.054,824.547 346.645,824.399 346.988,824.101C347.332,823.804 347.504,823.405 347.504,822.904C347.504,822.438 347.334,822.064 346.994,821.781C346.654,821.498 346.057,821.357 345.205,821.357L342.735,821.357L342.735,824.547Z" style="fill:rgb(114,116,115);fill-rule:nonzero;"/>
    </g>
    <defs>
        <linearGradient id="_Linear1" x1="0" y1="0" x2="1" y2="0" gradientUnits="userSpaceOnUse" gradientTransform="matrix(-14.6261,37.1089,-37.1089,-14.6261,410.508,794.984)"><stop offset="0%" style="stop-color:rgb(50,50,50);stop-opacity:1"/><stop offset="62%" style="stop-color:rgb(69,69,69);stop-opacity:1"/><stop offset="82%" style="stop-color:rgb(115,115,115);stop-opacity:1"/><stop offset="100%" style="stop-color:rgb(166,166,166);stop-opacity:1"/></linearGradient>
    </defs>
</svg>
