<?xml version="1.0" encoding="UTF-8" standalone="no"?>
<!DOCTYPE svg PUBLIC "-//W3C//DTD SVG 1.1//EN" "http://www.w3.org/Graphics/SVG/1.1/DTD/svg11.dtd">
<svg width="100%" height="100%" viewBox="0 0 1280 1150" version="1.1" xmlns="http://www.w3.org/2000/svg" xmlns:xlink="http://www.w3.org/1999/xlink" xml:space="preserve" style="fill-rule:evenodd;clip-rule:evenodd;stroke-linecap:round;stroke-linejoin:round;stroke-miterlimit:1.41421;">
    <g id="AntennenKupplung" transform="matrix(1.50782,0,0,1.50782,294.428,15.7671)">
        <path d="M387.104,81.357L433.756,81.357L433.756,79.836C418.338,78.544 402.796,78.461 387.104,79.836L387.104,81.357Z" style="fill:rgb(204,204,204);stroke-width:0.66px;stroke:rgb(102,102,102);"/>
        <path d="M384.075,79.836L384.075,78.072C401.592,76.202 419.016,76.216 436.349,78.072L436.349,79.836C419.111,78.348 401.685,78.36 384.075,79.836Z" style="fill:rgb(204,204,204);stroke-width:0.66px;stroke:rgb(102,102,102);"/>
        <path d="M384.075,66.701C385.234,63.292 434.54,63.533 436.349,66.701L436.349,78.262C419.36,76.252 401.975,76.118 384.075,78.262L384.075,66.701Z" style="fill:rgb(204,204,204);stroke-width:0.66px;stroke:rgb(102,102,102);"/>
        <path d="M397.031,33.804C405.85,32.871 414.665,32.811 423.476,33.804L423.476,64.761C414.622,63.885 405.813,64.024 397.031,64.761L397.031,33.804Z" style="fill:rgb(204,204,204);stroke-width:0.66px;stroke:rgb(102,102,102);"/>
        <path d="M394.695,39.926C404.237,38.019 414.503,38.05 424.95,38.56" style="fill:none;stroke-width:0.99px;stroke:rgb(102,102,102);"/>
        <g transform="matrix(1,0,0,1,0.198416,3.64566)">
            <path d="M394.695,39.926C404.237,38.019 414.503,38.05 424.95,38.56" style="fill:none;stroke-width:0.99px;stroke:rgb(102,102,102);"/>
        </g>
        <g transform="matrix(1,0,0,1,0.248774,7.23705)">
            <path d="M394.695,39.926C404.237,38.019 414.503,38.05 424.95,38.56" style="fill:none;stroke-width:0.99px;stroke:rgb(102,102,102);"/>
        </g>
        <g transform="matrix(1,0,0,1,0.329286,10.9837)">
            <path d="M394.695,39.926C404.237,38.019 414.503,38.05 424.95,38.56" style="fill:none;stroke-width:0.99px;stroke:rgb(102,102,102);"/>
        </g>
        <g transform="matrix(1,0,0,1,0.168261,14.5769)">
            <path d="M394.695,39.926C404.237,38.019 414.503,38.05 424.95,38.56" style="fill:none;stroke-width:0.99px;stroke:rgb(102,102,102);"/>
        </g>
        <g transform="matrix(1,0,0,1,0.165246,18.3902)">
            <path d="M394.695,39.926C404.237,38.019 414.503,38.05 424.95,38.56" style="fill:none;stroke-width:0.99px;stroke:rgb(102,102,102);"/>
        </g>
        <g transform="matrix(1,0,0,1,0.0847338,21.8324)">
            <path d="M394.695,39.926C404.237,38.019 414.503,38.05 424.95,38.56" style="fill:none;stroke-width:0.99px;stroke:rgb(102,102,102);"/>
        </g>
    </g>
    <g transform="matrix(1,0,0,1,-145.756,-1.20234)">
        <path d="M1132.76,152.626C1132.76,145.301 1126.81,139.354 1119.49,139.354L433.723,139.354C426.398,139.354 420.451,145.301 420.451,152.626L420.451,1015.87C420.451,1023.19 426.398,1029.14 433.723,1029.14L1119.49,1029.14C1126.81,1029.14 1132.76,1023.19 1132.76,1015.87L1132.76,152.626Z" style="fill:rgb(77,77,77);stroke-width:3px;stroke:black;"/>
    </g>
    <path d="M986.503,737.593C982,733.516 973.332,731.48 964.461,731.48L293.663,731.48C284.941,731.48 279.501,733.348 275.239,737.593L275.239,846.188C279.501,841.944 284.941,840.076 293.663,840.076L964.461,840.076C973.332,840.076 982,842.112 986.503,846.188" style="fill:rgb(29,25,24);stroke-width:3px;stroke:black;"/>
    <g transform="matrix(1,0,0,1,-26.6893,0)">
        <path d="M983.491,612.321C983.491,603.286 976.156,595.951 967.121,595.951L892.089,595.951C883.055,595.951 875.72,603.286 875.72,612.321L875.72,645.06C875.72,654.094 883.055,661.429 892.089,661.429L967.121,661.429C976.156,661.429 983.491,654.094 983.491,645.06L983.491,612.321Z" style="fill:rgb(199,202,207);stroke-width:4.5px;stroke:black;"/>
    </g>
    <g transform="matrix(1,0,0,1,29.1545,-1.32695)">
        <path d="M871.892,620.242L869.737,638.9L863.675,638.9C863.122,636.034 862.634,632.776 862.212,629.127C862.02,630.687 861.57,633.944 860.863,638.9L854.836,638.9L852.67,620.242L857.383,620.242L857.879,626.753L858.386,633.034C858.562,629.784 859.008,625.52 859.722,620.242L864.77,620.242C864.839,620.787 865.016,622.839 865.3,626.396L865.83,633.483C866.099,628.973 866.549,624.56 867.179,620.242L871.892,620.242Z" style="fill:black;fill-rule:nonzero;"/>
        <path d="M872.86,620.242L877.747,620.242C879.068,620.242 880.084,620.345 880.795,620.553C881.506,620.76 882.04,621.06 882.397,621.452C882.754,621.844 882.996,622.318 883.123,622.875C883.25,623.432 883.313,624.294 883.313,625.462L883.313,627.087C883.313,628.278 883.19,629.146 882.944,629.692C882.698,630.237 882.247,630.656 881.59,630.948C880.933,631.24 880.075,631.386 879.014,631.386L877.712,631.386L877.712,638.9L872.86,638.9L872.86,620.242ZM877.712,623.434L877.712,628.182C877.85,628.19 877.97,628.194 878.069,628.194C878.515,628.194 878.824,628.084 878.997,627.865C879.17,627.646 879.256,627.191 879.256,626.499L879.256,624.967C879.256,624.329 879.157,623.914 878.957,623.722C878.757,623.53 878.342,623.434 877.712,623.434Z" style="fill:black;fill-rule:nonzero;"/>
        <path d="M894.987,625.889L890.481,625.889L890.481,624.506C890.481,623.86 890.424,623.449 890.308,623.273C890.193,623.096 890.001,623.008 889.732,623.008C889.44,623.008 889.219,623.127 889.069,623.365C888.92,623.603 888.845,623.964 888.845,624.448C888.845,625.07 888.929,625.539 889.098,625.854C889.26,626.169 889.717,626.549 890.47,626.995C892.629,628.278 893.988,629.331 894.549,630.153C895.11,630.975 895.391,632.3 895.391,634.129C895.391,635.458 895.235,636.437 894.924,637.067C894.613,637.697 894.012,638.226 893.12,638.652C892.229,639.078 891.192,639.292 890.009,639.292C888.71,639.292 887.602,639.046 886.684,638.554C885.766,638.062 885.165,637.436 884.88,636.676C884.596,635.915 884.454,634.835 884.454,633.437L884.454,632.216L888.96,632.216L888.96,634.486C888.96,635.185 889.023,635.634 889.15,635.834C889.277,636.034 889.502,636.134 889.824,636.134C890.147,636.134 890.387,636.007 890.545,635.754C890.702,635.5 890.781,635.124 890.781,634.624C890.781,633.526 890.631,632.807 890.331,632.469C890.024,632.131 889.267,631.566 888.061,630.775C886.855,629.976 886.056,629.396 885.664,629.035C885.272,628.674 884.948,628.174 884.69,627.537C884.433,626.899 884.304,626.085 884.304,625.093C884.304,623.664 884.487,622.62 884.852,621.959C885.216,621.298 885.806,620.781 886.621,620.409C887.435,620.036 888.418,619.85 889.571,619.85C890.831,619.85 891.904,620.053 892.792,620.461C893.679,620.868 894.267,621.381 894.555,621.999C894.843,622.618 894.987,623.668 894.987,625.151L894.987,625.889Z" style="fill:black;fill-rule:nonzero;"/>
    </g>
    <g transform="matrix(1,0,0,0.77,-173.955,202.797)">
        <path d="M819.41,620.242L819.41,635.166L822.36,635.166L822.36,638.9L814.558,638.9L814.558,620.242L819.41,620.242Z" style="fill:white;fill-rule:nonzero;"/>
        <path d="M832.502,620.242L835.279,638.9L830.312,638.9L830.07,635.546L828.33,635.546L828.042,638.9L823.017,638.9L825.483,620.242L832.502,620.242ZM829.932,632.239C829.686,630.126 829.44,627.517 829.194,624.414C828.703,627.978 828.395,630.587 828.272,632.239L829.932,632.239Z" style="fill:white;fill-rule:nonzero;"/>
        <path d="M846.942,620.242L846.942,638.9L842.689,638.9L840.166,630.418L840.166,638.9L836.109,638.9L836.109,620.242L840.166,620.242L842.885,628.643L842.885,620.242L846.942,620.242Z" style="fill:white;fill-rule:nonzero;"/>
        <path d="M908.874,620.242L908.874,632.711C908.874,634.125 908.828,635.118 908.736,635.69C908.644,636.263 908.371,636.85 907.918,637.453C907.464,638.057 906.867,638.514 906.126,638.825C905.384,639.136 904.51,639.292 903.504,639.292C902.39,639.292 901.406,639.107 900.554,638.738C899.701,638.37 899.063,637.889 898.641,637.298C898.218,636.706 897.968,636.082 897.891,635.425C897.815,634.768 897.776,633.387 897.776,631.282L897.776,620.242L902.628,620.242L902.628,634.232C902.628,635.047 902.672,635.567 902.761,635.794C902.849,636.021 903.027,636.134 903.296,636.134C903.604,636.134 903.802,636.009 903.89,635.759C903.978,635.51 904.022,634.92 904.022,633.99L904.022,620.242L908.874,620.242Z" style="fill:white;fill-rule:nonzero;"/>
        <path d="M921.033,625.889L916.526,625.889L916.526,624.506C916.526,623.86 916.469,623.449 916.354,623.273C916.238,623.096 916.046,623.008 915.777,623.008C915.485,623.008 915.265,623.127 915.115,623.365C914.965,623.603 914.89,623.964 914.89,624.448C914.89,625.07 914.974,625.539 915.144,625.854C915.305,626.169 915.762,626.549 916.515,626.995C918.674,628.278 920.034,629.331 920.595,630.153C921.155,630.975 921.436,632.3 921.436,634.129C921.436,635.458 921.28,636.437 920.969,637.067C920.658,637.697 920.057,638.226 919.166,638.652C918.274,639.078 917.237,639.292 916.054,639.292C914.756,639.292 913.647,639.046 912.729,638.554C911.811,638.062 911.21,637.436 910.926,636.676C910.641,635.915 910.499,634.835 910.499,633.437L910.499,632.216L915.005,632.216L915.005,634.486C915.005,635.185 915.069,635.634 915.195,635.834C915.322,636.034 915.547,636.134 915.87,636.134C916.192,636.134 916.432,636.007 916.59,635.754C916.747,635.5 916.826,635.124 916.826,634.624C916.826,633.526 916.676,632.807 916.377,632.469C916.069,632.131 915.313,631.566 914.106,630.775C912.9,629.976 912.101,629.396 911.709,629.035C911.317,628.674 910.993,628.174 910.735,627.537C910.478,626.899 910.349,626.085 910.349,625.093C910.349,623.664 910.532,622.62 910.897,621.959C911.262,621.298 911.851,620.781 912.666,620.409C913.48,620.036 914.464,619.85 915.616,619.85C916.876,619.85 917.95,620.053 918.837,620.461C919.724,620.868 920.312,621.381 920.6,621.999C920.888,622.618 921.033,623.668 921.033,625.151L921.033,625.889Z" style="fill:white;fill-rule:nonzero;"/>
        <path d="M922.957,620.242L927.797,620.242C929.326,620.242 930.484,620.361 931.272,620.599C932.059,620.837 932.695,621.319 933.179,622.045C933.663,622.771 933.905,623.941 933.905,625.554C933.905,626.645 933.734,627.406 933.392,627.836C933.051,628.267 932.376,628.597 931.37,628.827C932.492,629.081 933.252,629.502 933.652,630.089C934.051,630.677 934.251,631.578 934.251,632.792L934.251,634.52C934.251,635.78 934.107,636.714 933.819,637.321C933.531,637.928 933.072,638.343 932.442,638.566C931.812,638.788 930.521,638.9 928.569,638.9L922.957,638.9L922.957,620.242ZM927.809,623.434L927.809,627.583C928.016,627.575 928.178,627.571 928.293,627.571C928.769,627.571 929.073,627.454 929.203,627.22C929.334,626.985 929.399,626.315 929.399,625.209C929.399,624.625 929.345,624.216 929.238,623.981C929.13,623.747 928.99,623.599 928.817,623.538C928.644,623.476 928.308,623.442 927.809,623.434ZM927.809,630.487L927.809,635.707C928.493,635.684 928.929,635.577 929.117,635.385C929.305,635.193 929.399,634.72 929.399,633.967L929.399,632.227C929.399,631.428 929.315,630.944 929.146,630.775C928.977,630.606 928.531,630.51 927.809,630.487Z" style="fill:white;fill-rule:nonzero;"/>
        <path d="M995.227,620.242L993.072,638.9L987.01,638.9C986.457,636.034 985.969,632.776 985.546,629.127C985.354,630.687 984.905,633.944 984.198,638.9L978.171,638.9L976.004,620.242L980.718,620.242L981.213,626.753L981.72,633.034C981.897,629.784 982.343,625.52 983.057,620.242L988.105,620.242C988.174,620.787 988.351,622.839 988.635,626.396L989.165,633.483C989.434,628.973 989.883,624.56 990.513,620.242L995.227,620.242Z" style="fill:white;fill-rule:nonzero;"/>
        <path d="M1004.34,620.242L1007.12,638.9L1002.15,638.9L1001.91,635.546L1000.17,635.546L999.883,638.9L994.858,638.9L997.324,620.242L1004.34,620.242ZM1001.77,632.239C1001.53,630.126 1001.28,627.517 1001.03,624.414C1000.54,627.978 1000.24,630.587 1000.11,632.239L1001.77,632.239Z" style="fill:white;fill-rule:nonzero;"/>
        <path d="M1018.78,620.242L1018.78,638.9L1014.53,638.9L1012.01,630.418L1012.01,638.9L1007.95,638.9L1007.95,620.242L1012.01,620.242L1014.73,628.643L1014.73,620.242L1018.78,620.242Z" style="fill:white;fill-rule:nonzero;"/>
    </g>
    <g transform="matrix(1,0,0,0.77,-255.034,381.038)">
        <path d="M832.813,620.242L830.658,638.9L824.596,638.9C824.043,636.034 823.555,632.776 823.132,629.127C822.94,630.687 822.491,633.944 821.784,638.9L815.757,638.9L813.59,620.242L818.304,620.242L818.799,626.753L819.306,633.034C819.483,629.784 819.929,625.52 820.643,620.242L825.691,620.242C825.76,620.787 825.937,622.839 826.221,626.396L826.751,633.483C827.02,628.973 827.469,624.56 828.099,620.242L832.813,620.242Z" style="fill:white;fill-rule:nonzero;"/>
        <path d="M838.633,620.242L838.633,635.166L841.583,635.166L841.583,638.9L833.781,638.9L833.781,620.242L838.633,620.242Z" style="fill:white;fill-rule:nonzero;"/>
        <path d="M851.725,620.242L854.502,638.9L849.535,638.9L849.293,635.546L847.553,635.546L847.265,638.9L842.24,638.9L844.706,620.242L851.725,620.242ZM849.155,632.239C848.909,630.126 848.663,627.517 848.417,624.414C847.925,627.978 847.618,630.587 847.495,632.239L849.155,632.239Z" style="fill:white;fill-rule:nonzero;"/>
        <path d="M866.165,620.242L866.165,638.9L861.912,638.9L859.388,630.418L859.388,638.9L855.332,638.9L855.332,620.242L859.388,620.242L862.108,628.643L862.108,620.242L866.165,620.242Z" style="fill:white;fill-rule:nonzero;"/>
        <path d="M1151.87,620.242L1156.75,620.242C1158.08,620.242 1159.09,620.345 1159.8,620.553C1160.51,620.76 1161.05,621.06 1161.4,621.452C1161.76,621.844 1162,622.318 1162.13,622.875C1162.26,623.432 1162.32,624.294 1162.32,625.462L1162.32,627.087C1162.32,628.278 1162.2,629.146 1161.95,629.692C1161.7,630.237 1161.25,630.656 1160.6,630.948C1159.94,631.24 1159.08,631.386 1158.02,631.386L1156.72,631.386L1156.72,638.9L1151.87,638.9L1151.87,620.242ZM1156.72,623.434L1156.72,628.182C1156.86,628.19 1156.98,628.194 1157.08,628.194C1157.52,628.194 1157.83,628.084 1158,627.865C1158.18,627.646 1158.26,627.191 1158.26,626.499L1158.26,624.967C1158.26,624.329 1158.16,623.914 1157.96,623.722C1157.76,623.53 1157.35,623.434 1156.72,623.434Z" style="fill:white;fill-rule:nonzero;"/>
        <path d="M1181.97,620.242L1179.81,638.9L1173.75,638.9C1173.2,636.034 1172.71,632.776 1172.29,629.127C1172.1,630.687 1171.65,633.944 1170.94,638.9L1164.91,638.9L1162.75,620.242L1167.46,620.242L1167.95,626.753L1168.46,633.034C1168.64,629.784 1169.09,625.52 1169.8,620.242L1174.85,620.242C1174.92,620.787 1175.09,622.839 1175.38,626.396L1175.91,633.483C1176.18,628.973 1176.62,624.56 1177.26,620.242L1181.97,620.242Z" style="fill:white;fill-rule:nonzero;"/>
        <path d="M1182.94,620.242L1186.37,620.242C1188.66,620.242 1190.21,620.33 1191.02,620.507C1191.83,620.683 1192.49,621.135 1193,621.861C1193.51,622.587 1193.77,623.745 1193.77,625.335C1193.77,626.788 1193.59,627.763 1193.23,628.263C1192.87,628.762 1192.16,629.062 1191.1,629.162C1192.06,629.4 1192.7,629.719 1193.03,630.118C1193.36,630.518 1193.57,630.885 1193.65,631.219C1193.73,631.553 1193.77,632.473 1193.77,633.979L1193.77,638.9L1189.26,638.9L1189.26,632.7C1189.26,631.701 1189.18,631.082 1189.03,630.844C1188.87,630.606 1188.46,630.487 1187.79,630.487L1187.79,638.9L1182.94,638.9L1182.94,620.242ZM1187.79,623.434L1187.79,627.583C1188.33,627.583 1188.72,627.508 1188.93,627.358C1189.15,627.208 1189.26,626.722 1189.26,625.9L1189.26,624.875C1189.26,624.283 1189.16,623.895 1188.95,623.711C1188.74,623.526 1188.35,623.434 1187.79,623.434Z" style="fill:white;fill-rule:nonzero;"/>
    </g>
</svg>
