<?xml version="1.0" encoding="UTF-8" standalone="no"?>
<!DOCTYPE svg PUBLIC "-//W3C//DTD SVG 1.1//EN" "http://www.w3.org/Graphics/SVG/1.1/DTD/svg11.dtd">
<svg width="100%" height="100%" viewBox="0 0 1280 1150" version="1.1" xmlns="http://www.w3.org/2000/svg" xmlns:xlink="http://www.w3.org/1999/xlink" xml:space="preserve" style="fill-rule:evenodd;clip-rule:evenodd;stroke-linecap:round;stroke-linejoin:round;stroke-miterlimit:1.41421;">
    <g transform="matrix(2.0953,0,0,2.0953,83.1708,-793.017)">
        <path d="M115.873,640.282L443.311,640.282C464.599,645.969 483.363,654.271 495.327,669.613C508.235,704.619 505.644,736.877 495.327,767.764L458.464,791.232L73.324,791.232L42.542,767.764C37.344,736.525 25.302,707.231 42.542,669.613C61.635,647.754 86.853,639.727 115.873,640.282Z" style="fill:rgb(204,205,204);stroke-width:0.48px;stroke:rgb(26,25,25);"/>
        <g transform="matrix(1.58,0,0,1,-90.8857,0)">
            <path d="M156.913,676.739C156.913,676.13 157.109,675.658 157.499,675.321C157.89,674.984 158.437,674.816 159.141,674.816C159.849,674.816 160.396,674.985 160.78,675.324C161.164,675.663 161.356,676.148 161.356,676.778L161.356,678.339L159.459,678.339L159.459,676.642C159.459,676.469 159.435,676.35 159.387,676.283C159.34,676.216 159.258,676.182 159.141,676.182C159.02,676.182 158.935,676.218 158.885,676.289C158.836,676.36 158.811,676.478 158.811,676.642L158.811,677.491C158.811,677.633 158.829,677.757 158.866,677.863C158.903,677.969 158.962,678.071 159.044,678.171L160.877,680.185C161.05,680.371 161.173,680.567 161.246,680.774C161.32,680.982 161.356,681.312 161.356,681.765L161.356,682.879C161.356,683.493 161.163,683.964 160.777,684.295C160.39,684.625 159.841,684.79 159.128,684.79C158.399,684.79 157.847,684.617 157.473,684.272C157.1,683.927 156.913,683.417 156.913,682.743L156.913,680.956L158.811,680.956L158.811,682.879C158.811,683.044 158.836,683.162 158.885,683.236C158.935,683.309 159.02,683.346 159.141,683.346C159.254,683.346 159.335,683.31 159.384,683.239C159.434,683.168 159.459,683.048 159.459,682.879L159.459,681.869C159.459,681.731 159.434,681.602 159.384,681.484C159.335,681.365 159.249,681.236 159.128,681.098L157.405,679.149C157.228,678.95 157.102,678.75 157.027,678.55C156.951,678.349 156.913,678.08 156.913,677.743L156.913,677.601L156.913,676.739Z" style="fill:black;fill-rule:nonzero;"/>
            <path d="M161.888,684.576L161.888,675.023L165.443,675.023L165.443,676.351L163.798,676.351L163.798,678.553L165.404,678.553L165.404,679.932L163.798,679.932L163.798,683.132L165.443,683.132L165.443,684.576L161.888,684.576Z" style="fill:black;fill-rule:nonzero;"/>
            <path d="M165.923,677.283C165.923,676.39 166.094,675.755 166.438,675.379C166.781,675.003 167.348,674.816 168.138,674.816C168.932,674.816 169.502,675.002 169.848,675.376C170.193,675.749 170.366,676.385 170.366,677.283L170.366,678.339L168.468,678.339L168.468,676.642C168.468,676.474 168.443,676.355 168.394,676.286C168.344,676.217 168.259,676.182 168.138,676.182C168.021,676.182 167.939,676.217 167.892,676.286C167.844,676.355 167.82,676.474 167.82,676.642L167.82,682.879C167.82,683.048 167.845,683.168 167.895,683.239C167.945,683.31 168.026,683.346 168.138,683.346C168.259,683.346 168.344,683.309 168.394,683.236C168.443,683.162 168.468,683.044 168.468,682.879L168.468,680.956L170.366,680.956L170.366,682.335C170.366,683.225 170.194,683.856 169.851,684.23C169.508,684.603 168.937,684.79 168.138,684.79C167.343,684.79 166.775,684.606 166.434,684.236C166.093,683.867 165.923,683.234 165.923,682.335L165.923,677.283Z" style="fill:black;fill-rule:nonzero;"/>
            <path d="M170.819,677.283C170.819,676.394 170.992,675.76 171.337,675.382C171.683,675.005 172.253,674.816 173.047,674.816C173.842,674.816 174.412,675.002 174.757,675.376C175.103,675.749 175.275,676.385 175.275,677.283L175.275,682.322C175.275,683.216 175.104,683.851 174.76,684.227C174.417,684.602 173.846,684.79 173.047,684.79C172.248,684.79 171.677,684.602 171.334,684.227C170.991,683.851 170.819,683.216 170.819,682.322L170.819,677.283ZM172.73,676.642L172.73,682.879C172.73,683.048 172.755,683.168 172.804,683.239C172.854,683.31 172.935,683.346 173.047,683.346C173.168,683.346 173.253,683.309 173.303,683.236C173.353,683.162 173.378,683.044 173.378,682.879L173.378,676.642C173.378,676.474 173.353,676.355 173.303,676.286C173.253,676.217 173.168,676.182 173.047,676.182C172.935,676.182 172.854,676.219 172.804,676.292C172.755,676.366 172.73,676.482 172.73,676.642Z" style="fill:black;fill-rule:nonzero;"/>
            <path d="M175.832,684.576L175.832,675.023L178.449,675.023L179.123,679.071C179.183,679.434 179.235,679.84 179.278,680.289C179.321,680.738 179.358,681.252 179.388,681.83L179.466,681.83C179.436,681.157 179.413,680.568 179.398,680.065C179.383,679.562 179.375,679.201 179.375,678.98L179.362,675.023L180.858,675.023L180.858,684.576L178.617,684.576L177.639,679.388C177.601,679.185 177.552,678.879 177.494,678.469C177.435,678.058 177.376,677.609 177.316,677.121L177.264,677.121C177.29,677.519 177.31,677.866 177.325,678.164C177.34,678.462 177.348,678.706 177.348,678.896L177.348,684.576L175.832,684.576Z" style="fill:black;fill-rule:nonzero;"/>
            <path d="M183.365,676.312L183.365,683.223L183.469,683.223C183.667,683.223 183.808,683.182 183.89,683.1C183.972,683.018 184.013,682.882 184.013,682.692L184.013,676.869C184.013,676.649 183.971,676.501 183.886,676.425C183.802,676.35 183.628,676.312 183.365,676.312ZM181.467,684.576L181.467,675.023L183.695,675.023C184.507,675.023 185.081,675.199 185.418,675.551C185.755,675.903 185.923,676.51 185.923,677.374L185.923,682.212C185.923,683.072 185.742,683.68 185.379,684.039C185.017,684.397 184.412,684.576 183.566,684.576L181.467,684.576Z" style="fill:black;fill-rule:nonzero;"/>
            <path d="M186.267,684.576L187.795,675.023L190.237,675.023L191.364,684.576L189.389,684.576L189.201,682.031L188.255,682.031L188.009,684.576L186.267,684.576ZM188.404,680.625L189.11,680.625L188.896,677.711C188.883,677.547 188.873,677.251 188.864,676.824C188.86,676.638 188.858,676.493 188.858,676.39L188.786,676.39C188.769,676.757 188.754,677.049 188.741,677.267C188.728,677.485 188.717,677.629 188.709,677.698L188.404,680.625Z" style="fill:black;fill-rule:nonzero;"/>
            <path d="M194.292,678.3L194.292,676.778C194.292,676.562 194.25,676.418 194.165,676.344C194.081,676.271 193.912,676.234 193.657,676.234L193.657,678.844L193.761,678.844C193.959,678.844 194.097,678.804 194.175,678.724C194.253,678.645 194.292,678.503 194.292,678.3ZM191.746,684.576L191.746,675.023L193.974,675.023C194.752,675.023 195.315,675.16 195.665,675.434C196.015,675.708 196.189,676.148 196.189,676.752L196.189,677.756C196.189,678.257 196.066,678.641 195.82,678.909C195.574,679.177 195.207,679.324 194.719,679.35L194.719,679.401C195.263,679.436 195.644,679.571 195.862,679.806C196.08,680.041 196.189,680.442 196.189,681.008L196.189,683.436C196.189,683.631 196.205,683.826 196.235,684.023C196.265,684.219 196.308,684.404 196.364,684.576L194.48,684.576C194.419,684.412 194.373,684.23 194.34,684.029C194.308,683.828 194.292,683.614 194.292,683.385L194.292,683.035L194.292,680.956C194.292,680.688 194.241,680.486 194.139,680.35C194.038,680.214 193.886,680.146 193.683,680.146L193.657,680.146L193.657,684.576L191.746,684.576Z" style="fill:black;fill-rule:nonzero;"/>
            <path d="M197.796,684.576L197.796,680.956L196.351,675.023L198.314,675.023L198.657,677.199C198.7,677.467 198.735,677.727 198.761,677.98C198.787,678.232 198.806,678.486 198.819,678.741L198.897,678.741C198.936,678.404 198.971,678.108 199.004,677.853C199.036,677.599 199.067,677.385 199.098,677.212L199.48,675.023L201.177,675.023L199.693,680.956L199.693,684.576L197.796,684.576Z" style="fill:black;fill-rule:nonzero;"/>
        </g>
        <g transform="matrix(1.58,0,0,1,81.9531,0.209298)">
            <path d="M157.004,684.576L157.004,675.023L159.737,675.023L160.359,680.01C160.411,680.399 160.46,680.932 160.508,681.61C160.512,681.666 160.517,681.709 160.521,681.74L160.586,681.733C160.607,681.431 160.634,681.134 160.667,680.842C160.699,680.551 160.743,680.23 160.799,679.881L161.544,675.023L164.154,675.023L164.154,684.576L162.419,684.576L162.419,679.524C162.419,679.261 162.422,678.958 162.428,678.614C162.435,678.271 162.445,677.886 162.457,677.458L162.406,677.452C162.38,678.013 162.319,678.557 162.224,679.084C162.22,679.106 162.218,679.119 162.218,679.123L161.292,684.576L159.672,684.576L158.785,679.395C158.755,679.222 158.724,678.968 158.691,678.634C158.659,678.299 158.627,677.907 158.597,677.458L158.532,677.452C158.532,677.469 158.532,677.542 158.532,677.672C158.541,679.671 158.545,681.973 158.545,684.576L157.004,684.576Z" style="fill:black;fill-rule:nonzero;"/>
            <path d="M164.537,684.576L166.065,675.023L168.507,675.023L169.634,684.576L167.658,684.576L167.471,682.031L166.525,682.031L166.279,684.576L164.537,684.576ZM166.674,680.625L167.38,680.625L167.166,677.711C167.153,677.547 167.142,677.251 167.134,676.824C167.13,676.638 167.127,676.493 167.127,676.39L167.056,676.39C167.039,676.757 167.024,677.049 167.011,677.267C166.998,677.485 166.987,677.629 166.978,677.698L166.674,680.625Z" style="fill:black;fill-rule:nonzero;"/>
            <rect x="170.003" y="675.023" width="1.911" height="9.553" style="fill:black;fill-rule:nonzero;"/>
            <path d="M172.51,684.576L172.51,675.023L175.126,675.023L175.8,679.071C175.86,679.434 175.912,679.84 175.955,680.289C175.999,680.738 176.035,681.252 176.066,681.83L176.143,681.83C176.113,681.157 176.09,680.568 176.075,680.065C176.06,679.562 176.053,679.201 176.053,678.98L176.04,675.023L177.536,675.023L177.536,684.576L175.295,684.576L174.317,679.388C174.278,679.185 174.229,678.879 174.171,678.469C174.113,678.058 174.053,677.609 173.993,677.121L173.941,677.121C173.967,677.519 173.988,677.866 174.003,678.164C174.018,678.462 174.025,678.706 174.025,678.896L174.025,684.576L172.51,684.576Z" style="fill:black;fill-rule:nonzero;"/>
        </g>
        <g transform="matrix(1.58,0,0,1,3.69632,-18.6914)">
            <path d="M159.549,678.3L159.549,676.778C159.549,676.562 159.507,676.418 159.423,676.344C159.339,676.271 159.169,676.234 158.915,676.234L158.915,678.844L159.018,678.844C159.217,678.844 159.355,678.804 159.433,678.724C159.51,678.645 159.549,678.503 159.549,678.3ZM157.004,684.576L157.004,675.023L159.232,675.023C160.009,675.023 160.573,675.16 160.922,675.434C161.272,675.708 161.447,676.148 161.447,676.752L161.447,677.756C161.447,678.257 161.324,678.641 161.078,678.909C160.832,679.177 160.465,679.324 159.977,679.35L159.977,679.401C160.521,679.436 160.902,679.571 161.12,679.806C161.338,680.041 161.447,680.442 161.447,681.008L161.447,683.436C161.447,683.631 161.462,683.826 161.492,684.023C161.523,684.219 161.566,684.404 161.622,684.576L159.737,684.576C159.677,684.412 159.63,684.23 159.598,684.029C159.566,683.828 159.549,683.614 159.549,683.385L159.549,683.035L159.549,680.956C159.549,680.688 159.499,680.486 159.397,680.35C159.296,680.214 159.143,680.146 158.941,680.146L158.915,680.146L158.915,684.576L157.004,684.576Z" style="fill:black;fill-rule:nonzero;"/>
            <path d="M161.952,684.576L161.952,675.023L165.508,675.023L165.508,676.351L163.863,676.351L163.863,678.553L165.469,678.553L165.469,679.932L163.863,679.932L163.863,683.132L165.508,683.132L165.508,684.576L161.952,684.576Z" style="fill:black;fill-rule:nonzero;"/>
            <path d="M165.936,676.739C165.936,676.13 166.131,675.658 166.522,675.321C166.913,674.984 167.46,674.816 168.164,674.816C168.872,674.816 169.418,674.985 169.802,675.324C170.187,675.663 170.379,676.148 170.379,676.778L170.379,678.339L168.481,678.339L168.481,676.642C168.481,676.469 168.457,676.35 168.41,676.283C168.362,676.216 168.28,676.182 168.164,676.182C168.043,676.182 167.957,676.218 167.908,676.289C167.858,676.36 167.833,676.478 167.833,676.642L167.833,677.491C167.833,677.633 167.852,677.757 167.888,677.863C167.925,677.969 167.984,678.071 168.067,678.171L169.899,680.185C170.072,680.371 170.195,680.567 170.269,680.774C170.342,680.982 170.379,681.312 170.379,681.765L170.379,682.879C170.379,683.493 170.186,683.964 169.799,684.295C169.413,684.625 168.863,684.79 168.151,684.79C167.421,684.79 166.869,684.617 166.496,684.272C166.122,683.927 165.936,683.417 165.936,682.743L165.936,680.956L167.833,680.956L167.833,682.879C167.833,683.044 167.858,683.162 167.908,683.236C167.957,683.309 168.043,683.346 168.164,683.346C168.276,683.346 168.357,683.31 168.407,683.239C168.456,683.168 168.481,683.048 168.481,682.879L168.481,681.869C168.481,681.731 168.456,681.602 168.407,681.484C168.357,681.365 168.272,681.236 168.151,681.098L166.428,679.149C166.251,678.95 166.125,678.75 166.049,678.55C165.973,678.349 165.936,678.08 165.936,677.743L165.936,677.601L165.936,676.739Z" style="fill:black;fill-rule:nonzero;"/>
            <path d="M170.91,684.576L170.91,675.023L174.466,675.023L174.466,676.351L172.821,676.351L172.821,678.553L174.427,678.553L174.427,679.932L172.821,679.932L172.821,683.132L174.466,683.132L174.466,684.576L170.91,684.576Z" style="fill:black;fill-rule:nonzero;"/>
            <path d="M175.955,684.576L175.955,676.377L174.731,676.377L174.731,675.023L179.084,675.023L179.084,676.377L177.847,676.377L177.847,684.576L175.955,684.576Z" style="fill:black;fill-rule:nonzero;"/>
        </g>
        <path d="M23.853,737.677L40.771,737.677C44.257,753.134 49.652,765.504 57.003,774.712L57.003,735.898L66.936,735.898L66.936,715.269L55.493,715.269L55.493,709.658L77.425,709.658L77.425,774.712L460.628,774.712L460.628,709.658L482.784,709.658L482.784,715.269L471.018,715.269L471.018,735.898L481.139,735.898L481.139,774.712C488.366,764.883 494.137,752.968 497.551,737.677L514.266,737.677C507.995,777.302 495.154,804.121 471.018,804.121L66.936,804.121C40.483,804.121 30.808,773.118 23.853,737.677Z" style="fill:rgb(191,193,192);stroke-width:0.48px;stroke-linecap:butt;stroke:black;"/>
        <path d="M23.853,737.668L40.771,737.668C37.418,708.077 42.763,680.395 64.638,656.34L81.827,647.938L456.285,647.938L473.436,656.34C492.913,680.677 502.106,707.401 497.471,737.334L514.152,737.334C516.548,705.832 508.266,678.767 493.108,654.56C471.577,641.532 447.963,634.897 423.254,631.627L115.873,631.627C90.426,633.697 66.858,641.418 45.096,654.56C26.56,681.218 22.69,709.213 23.853,737.668Z" style="fill:rgb(229,229,228);stroke-width:0.48px;stroke:rgb(26,25,25);"/>
        <g transform="matrix(0.882339,0,0,0.882339,-507.276,149.296)">
            <g id="LAN-rechts" transform="matrix(0.401968,0,0,0.338314,543.937,453.116)">
                <g transform="matrix(2.80113,0,0,2.48628,-1595.63,-1009.35)">
                    <rect x="740.742" y="604.188" width="97.412" height="98.569" style="fill:rgb(241,239,238);stroke-width:0.54px;stroke:black;"/>
                </g>
                <g transform="matrix(1,0,0,1,0.448016,-16.3012)">
                    <path d="M500.826,597.447L500.826,729.999L727.358,729.999L727.358,597.447L690.744,597.447L690.744,562.703L656.263,562.703L656.263,534.994L569.758,534.994L569.758,562.703L537.669,562.703L537.669,597.447L500.826,597.447Z" style="fill:black;stroke-width:1.31px;stroke:black;"/>
                    <g transform="matrix(2.32486,0,0,2.92652,-1230.98,-1317.53)">
                        <path d="M745.442,655.542L750.108,655.542L750.108,698.941L745.442,698.941L745.442,655.542Z" style="fill:rgb(179,179,179);"/>
                    </g>
                    <g transform="matrix(2.48776,0,0,2.95583,-1351.03,-1337.35)">
                        <path d="M749.247,654.888L745.786,654.888C744.886,654.888 744.886,654.89 744.886,655.747L749.247,655.747L749.247,654.888Z" style="fill:rgb(179,179,179);"/>
                    </g>
                    <g transform="matrix(2.48776,0,0,2.95583,-1353.18,-1339.33)">
                        <path d="M745.848,699.426L750.225,663.354L835.578,663.354L835.578,699.426L745.848,699.426Z" style="fill:rgb(179,179,179);stroke-width:0.11px;stroke:black;"/>
                    </g>
                    <g>
                        <path d="M554.209,632.623C554.209,631.655 553.548,630.87 552.734,630.87L549.784,630.87C548.97,630.87 548.309,631.655 548.309,632.623L548.309,713.866C548.309,714.833 548.97,715.619 549.784,715.619L552.734,715.619C553.548,715.619 554.209,714.833 554.209,713.866L554.209,632.623Z" style="fill:url(#_Linear1);"/>
                        <g transform="matrix(1,0,0,1,20.1115,-0.240574)">
                            <path d="M554.209,632.623C554.209,631.655 553.548,630.87 552.734,630.87L549.784,630.87C548.97,630.87 548.309,631.655 548.309,632.623L548.309,713.866C548.309,714.833 548.97,715.619 549.784,715.619L552.734,715.619C553.548,715.619 554.209,714.833 554.209,713.866L554.209,632.623Z" style="fill:url(#_Linear2);"/>
                        </g>
                        <g transform="matrix(1,0,0,1,38.1953,0)">
                            <path d="M554.209,632.623C554.209,631.655 553.548,630.87 552.734,630.87L549.784,630.87C548.97,630.87 548.309,631.655 548.309,632.623L548.309,713.866C548.309,714.833 548.97,715.619 549.784,715.619L552.734,715.619C553.548,715.619 554.209,714.833 554.209,713.866L554.209,632.623Z" style="fill:url(#_Linear3);"/>
                        </g>
                        <g transform="matrix(1,0,0,1,57.9658,0)">
                            <path d="M554.209,632.623C554.209,631.655 553.548,630.87 552.734,630.87L549.784,630.87C548.97,630.87 548.309,631.655 548.309,632.623L548.309,713.866C548.309,714.833 548.97,715.619 549.784,715.619L552.734,715.619C553.548,715.619 554.209,714.833 554.209,713.866L554.209,632.623Z" style="fill:url(#_Linear4);"/>
                        </g>
                        <g transform="matrix(1,0,0,1,76.3136,0)">
                            <path d="M554.209,632.623C554.209,631.655 553.548,630.87 552.734,630.87L549.784,630.87C548.97,630.87 548.309,631.655 548.309,632.623L548.309,713.866C548.309,714.833 548.97,715.619 549.784,715.619L552.734,715.619C553.548,715.619 554.209,714.833 554.209,713.866L554.209,632.623Z" style="fill:url(#_Linear5);"/>
                        </g>
                        <g transform="matrix(1,0,0,1,95.5008,0)">
                            <path d="M554.209,632.623C554.209,631.655 553.548,630.87 552.734,630.87L549.784,630.87C548.97,630.87 548.309,631.655 548.309,632.623L548.309,713.866C548.309,714.833 548.97,715.619 549.784,715.619L552.734,715.619C553.548,715.619 554.209,714.833 554.209,713.866L554.209,632.623Z" style="fill:url(#_Linear6);"/>
                        </g>
                        <g transform="matrix(1,0,0,1,114.936,0)">
                            <path d="M554.209,632.623C554.209,631.655 553.548,630.87 552.734,630.87L549.784,630.87C548.97,630.87 548.309,631.655 548.309,632.623L548.309,713.866C548.309,714.833 548.97,715.619 549.784,715.619L552.734,715.619C553.548,715.619 554.209,714.833 554.209,713.866L554.209,632.623Z" style="fill:url(#_Linear7);"/>
                        </g>
                        <g transform="matrix(1,0,0,1,132.667,0)">
                            <path d="M554.209,632.623C554.209,631.655 553.548,630.87 552.734,630.87L549.784,630.87C548.97,630.87 548.309,631.655 548.309,632.623L548.309,713.866C548.309,714.833 548.97,715.619 549.784,715.619L552.734,715.619C553.548,715.619 554.209,714.833 554.209,713.866L554.209,632.623Z" style="fill:url(#_Linear8);"/>
                        </g>
                    </g>
                </g>
            </g>
            <g id="LAN-rechts1" transform="matrix(0.401968,0,0,0.338314,721.284,453.116)">
                <g transform="matrix(2.80113,0,0,2.48628,-1595.63,-1009.35)">
                    <rect x="740.742" y="604.188" width="97.412" height="98.569" style="fill:rgb(241,239,238);stroke-width:0.54px;stroke:black;"/>
                </g>
                <g transform="matrix(1,0,0,1,0.448016,-16.3012)">
                    <path d="M500.826,597.447L500.826,729.999L727.358,729.999L727.358,597.447L690.744,597.447L690.744,562.703L656.263,562.703L656.263,534.994L569.758,534.994L569.758,562.703L537.669,562.703L537.669,597.447L500.826,597.447Z" style="fill:black;stroke-width:1.31px;stroke:black;"/>
                    <g transform="matrix(2.32486,0,0,2.92652,-1230.98,-1317.53)">
                        <path d="M745.442,655.542L750.108,655.542L750.108,698.941L745.442,698.941L745.442,655.542Z" style="fill:rgb(179,179,179);"/>
                    </g>
                    <g transform="matrix(2.48776,0,0,2.95583,-1351.03,-1337.35)">
                        <path d="M749.247,654.888L745.786,654.888C744.886,654.888 744.886,654.89 744.886,655.747L749.247,655.747L749.247,654.888Z" style="fill:rgb(179,179,179);"/>
                    </g>
                    <g transform="matrix(2.48776,0,0,2.95583,-1353.18,-1339.33)">
                        <path d="M745.848,699.426L750.225,663.354L835.578,663.354L835.578,699.426L745.848,699.426Z" style="fill:rgb(179,179,179);stroke-width:0.11px;stroke:black;"/>
                    </g>
                    <g>
                        <path d="M554.209,632.623C554.209,631.655 553.548,630.87 552.734,630.87L549.784,630.87C548.97,630.87 548.309,631.655 548.309,632.623L548.309,713.866C548.309,714.833 548.97,715.619 549.784,715.619L552.734,715.619C553.548,715.619 554.209,714.833 554.209,713.866L554.209,632.623Z" style="fill:url(#_Linear9);"/>
                        <g transform="matrix(1,0,0,1,20.1115,-0.240574)">
                            <path d="M554.209,632.623C554.209,631.655 553.548,630.87 552.734,630.87L549.784,630.87C548.97,630.87 548.309,631.655 548.309,632.623L548.309,713.866C548.309,714.833 548.97,715.619 549.784,715.619L552.734,715.619C553.548,715.619 554.209,714.833 554.209,713.866L554.209,632.623Z" style="fill:url(#_Linear10);"/>
                        </g>
                        <g transform="matrix(1,0,0,1,38.1953,0)">
                            <path d="M554.209,632.623C554.209,631.655 553.548,630.87 552.734,630.87L549.784,630.87C548.97,630.87 548.309,631.655 548.309,632.623L548.309,713.866C548.309,714.833 548.97,715.619 549.784,715.619L552.734,715.619C553.548,715.619 554.209,714.833 554.209,713.866L554.209,632.623Z" style="fill:url(#_Linear11);"/>
                        </g>
                        <g transform="matrix(1,0,0,1,57.9658,0)">
                            <path d="M554.209,632.623C554.209,631.655 553.548,630.87 552.734,630.87L549.784,630.87C548.97,630.87 548.309,631.655 548.309,632.623L548.309,713.866C548.309,714.833 548.97,715.619 549.784,715.619L552.734,715.619C553.548,715.619 554.209,714.833 554.209,713.866L554.209,632.623Z" style="fill:url(#_Linear12);"/>
                        </g>
                        <g transform="matrix(1,0,0,1,76.3136,0)">
                            <path d="M554.209,632.623C554.209,631.655 553.548,630.87 552.734,630.87L549.784,630.87C548.97,630.87 548.309,631.655 548.309,632.623L548.309,713.866C548.309,714.833 548.97,715.619 549.784,715.619L552.734,715.619C553.548,715.619 554.209,714.833 554.209,713.866L554.209,632.623Z" style="fill:url(#_Linear13);"/>
                        </g>
                        <g transform="matrix(1,0,0,1,95.5008,0)">
                            <path d="M554.209,632.623C554.209,631.655 553.548,630.87 552.734,630.87L549.784,630.87C548.97,630.87 548.309,631.655 548.309,632.623L548.309,713.866C548.309,714.833 548.97,715.619 549.784,715.619L552.734,715.619C553.548,715.619 554.209,714.833 554.209,713.866L554.209,632.623Z" style="fill:url(#_Linear14);"/>
                        </g>
                        <g transform="matrix(1,0,0,1,114.936,0)">
                            <path d="M554.209,632.623C554.209,631.655 553.548,630.87 552.734,630.87L549.784,630.87C548.97,630.87 548.309,631.655 548.309,632.623L548.309,713.866C548.309,714.833 548.97,715.619 549.784,715.619L552.734,715.619C553.548,715.619 554.209,714.833 554.209,713.866L554.209,632.623Z" style="fill:url(#_Linear15);"/>
                        </g>
                        <g transform="matrix(1,0,0,1,132.667,0)">
                            <path d="M554.209,632.623C554.209,631.655 553.548,630.87 552.734,630.87L549.784,630.87C548.97,630.87 548.309,631.655 548.309,632.623L548.309,713.866C548.309,714.833 548.97,715.619 549.784,715.619L552.734,715.619C553.548,715.619 554.209,714.833 554.209,713.866L554.209,632.623Z" style="fill:url(#_Linear16);"/>
                        </g>
                    </g>
                </g>
            </g>
            <g transform="matrix(1.13335,0,0,1.13335,574.922,-169.205)">
                <rect x="259.632" y="673.957" width="18.781" height="10.077" style="fill:rgb(52,53,52);stroke-width:1.19px;stroke-linecap:butt;stroke-linejoin:miter;stroke:rgb(26,25,25);"/>
            </g>
        </g>
    </g>
    <defs>
        <linearGradient id="_Linear1" x1="0" y1="0" x2="1" y2="0" gradientUnits="userSpaceOnUse" gradientTransform="matrix(0.483531,74.7961,-74.7961,0.483531,547.703,635.649)"><stop offset="0%" style="stop-color:rgb(116,76,45);stop-opacity:1"/><stop offset="54%" style="stop-color:rgb(139,94,51);stop-opacity:1"/><stop offset="74%" style="stop-color:rgb(188,131,63);stop-opacity:1"/><stop offset="94%" style="stop-color:rgb(236,167,75);stop-opacity:1"/><stop offset="94%" style="stop-color:rgb(236,167,75);stop-opacity:1"/><stop offset="100%" style="stop-color:rgb(116,76,45);stop-opacity:1"/></linearGradient>
        <linearGradient id="_Linear2" x1="0" y1="0" x2="1" y2="0" gradientUnits="userSpaceOnUse" gradientTransform="matrix(0.483531,74.7961,-74.7961,0.483531,547.703,635.649)"><stop offset="0%" style="stop-color:rgb(116,76,45);stop-opacity:1"/><stop offset="54%" style="stop-color:rgb(139,94,51);stop-opacity:1"/><stop offset="74%" style="stop-color:rgb(188,131,63);stop-opacity:1"/><stop offset="94%" style="stop-color:rgb(236,167,75);stop-opacity:1"/><stop offset="94%" style="stop-color:rgb(236,167,75);stop-opacity:1"/><stop offset="100%" style="stop-color:rgb(116,76,45);stop-opacity:1"/></linearGradient>
        <linearGradient id="_Linear3" x1="0" y1="0" x2="1" y2="0" gradientUnits="userSpaceOnUse" gradientTransform="matrix(0.483531,74.7961,-74.7961,0.483531,547.703,635.649)"><stop offset="0%" style="stop-color:rgb(116,76,45);stop-opacity:1"/><stop offset="54%" style="stop-color:rgb(139,94,51);stop-opacity:1"/><stop offset="74%" style="stop-color:rgb(188,131,63);stop-opacity:1"/><stop offset="94%" style="stop-color:rgb(236,167,75);stop-opacity:1"/><stop offset="94%" style="stop-color:rgb(236,167,75);stop-opacity:1"/><stop offset="100%" style="stop-color:rgb(116,76,45);stop-opacity:1"/></linearGradient>
        <linearGradient id="_Linear4" x1="0" y1="0" x2="1" y2="0" gradientUnits="userSpaceOnUse" gradientTransform="matrix(0.483531,74.7961,-74.7961,0.483531,547.703,635.649)"><stop offset="0%" style="stop-color:rgb(116,76,45);stop-opacity:1"/><stop offset="54%" style="stop-color:rgb(139,94,51);stop-opacity:1"/><stop offset="74%" style="stop-color:rgb(188,131,63);stop-opacity:1"/><stop offset="94%" style="stop-color:rgb(236,167,75);stop-opacity:1"/><stop offset="94%" style="stop-color:rgb(236,167,75);stop-opacity:1"/><stop offset="100%" style="stop-color:rgb(116,76,45);stop-opacity:1"/></linearGradient>
        <linearGradient id="_Linear5" x1="0" y1="0" x2="1" y2="0" gradientUnits="userSpaceOnUse" gradientTransform="matrix(0.483531,74.7961,-74.7961,0.483531,547.703,635.649)"><stop offset="0%" style="stop-color:rgb(116,76,45);stop-opacity:1"/><stop offset="54%" style="stop-color:rgb(139,94,51);stop-opacity:1"/><stop offset="74%" style="stop-color:rgb(188,131,63);stop-opacity:1"/><stop offset="94%" style="stop-color:rgb(236,167,75);stop-opacity:1"/><stop offset="94%" style="stop-color:rgb(236,167,75);stop-opacity:1"/><stop offset="100%" style="stop-color:rgb(116,76,45);stop-opacity:1"/></linearGradient>
        <linearGradient id="_Linear6" x1="0" y1="0" x2="1" y2="0" gradientUnits="userSpaceOnUse" gradientTransform="matrix(0.483531,74.7961,-74.7961,0.483531,547.703,635.649)"><stop offset="0%" style="stop-color:rgb(116,76,45);stop-opacity:1"/><stop offset="54%" style="stop-color:rgb(139,94,51);stop-opacity:1"/><stop offset="74%" style="stop-color:rgb(188,131,63);stop-opacity:1"/><stop offset="94%" style="stop-color:rgb(236,167,75);stop-opacity:1"/><stop offset="94%" style="stop-color:rgb(236,167,75);stop-opacity:1"/><stop offset="100%" style="stop-color:rgb(116,76,45);stop-opacity:1"/></linearGradient>
        <linearGradient id="_Linear7" x1="0" y1="0" x2="1" y2="0" gradientUnits="userSpaceOnUse" gradientTransform="matrix(0.483531,74.7961,-74.7961,0.483531,547.703,635.649)"><stop offset="0%" style="stop-color:rgb(116,76,45);stop-opacity:1"/><stop offset="54%" style="stop-color:rgb(139,94,51);stop-opacity:1"/><stop offset="74%" style="stop-color:rgb(188,131,63);stop-opacity:1"/><stop offset="94%" style="stop-color:rgb(236,167,75);stop-opacity:1"/><stop offset="94%" style="stop-color:rgb(236,167,75);stop-opacity:1"/><stop offset="100%" style="stop-color:rgb(116,76,45);stop-opacity:1"/></linearGradient>
        <linearGradient id="_Linear8" x1="0" y1="0" x2="1" y2="0" gradientUnits="userSpaceOnUse" gradientTransform="matrix(0.483531,74.7961,-74.7961,0.483531,547.703,635.649)"><stop offset="0%" style="stop-color:rgb(116,76,45);stop-opacity:1"/><stop offset="54%" style="stop-color:rgb(139,94,51);stop-opacity:1"/><stop offset="74%" style="stop-color:rgb(188,131,63);stop-opacity:1"/><stop offset="94%" style="stop-color:rgb(236,167,75);stop-opacity:1"/><stop offset="94%" style="stop-color:rgb(236,167,75);stop-opacity:1"/><stop offset="100%" style="stop-color:rgb(116,76,45);stop-opacity:1"/></linearGradient>
        <linearGradient id="_Linear9" x1="0" y1="0" x2="1" y2="0" gradientUnits="userSpaceOnUse" gradientTransform="matrix(0.483531,74.7961,-74.7961,0.483531,547.703,635.649)"><stop offset="0%" style="stop-color:rgb(116,76,45);stop-opacity:1"/><stop offset="54%" style="stop-color:rgb(139,94,51);stop-opacity:1"/><stop offset="74%" style="stop-color:rgb(188,131,63);stop-opacity:1"/><stop offset="94%" style="stop-color:rgb(236,167,75);stop-opacity:1"/><stop offset="94%" style="stop-color:rgb(236,167,75);stop-opacity:1"/><stop offset="100%" style="stop-color:rgb(116,76,45);stop-opacity:1"/></linearGradient>
        <linearGradient id="_Linear10" x1="0" y1="0" x2="1" y2="0" gradientUnits="userSpaceOnUse" gradientTransform="matrix(0.483531,74.7961,-74.7961,0.483531,547.703,635.649)"><stop offset="0%" style="stop-color:rgb(116,76,45);stop-opacity:1"/><stop offset="54%" style="stop-color:rgb(139,94,51);stop-opacity:1"/><stop offset="74%" style="stop-color:rgb(188,131,63);stop-opacity:1"/><stop offset="94%" style="stop-color:rgb(236,167,75);stop-opacity:1"/><stop offset="94%" style="stop-color:rgb(236,167,75);stop-opacity:1"/><stop offset="100%" style="stop-color:rgb(116,76,45);stop-opacity:1"/></linearGradient>
        <linearGradient id="_Linear11" x1="0" y1="0" x2="1" y2="0" gradientUnits="userSpaceOnUse" gradientTransform="matrix(0.483531,74.7961,-74.7961,0.483531,547.703,635.649)"><stop offset="0%" style="stop-color:rgb(116,76,45);stop-opacity:1"/><stop offset="54%" style="stop-color:rgb(139,94,51);stop-opacity:1"/><stop offset="74%" style="stop-color:rgb(188,131,63);stop-opacity:1"/><stop offset="94%" style="stop-color:rgb(236,167,75);stop-opacity:1"/><stop offset="94%" style="stop-color:rgb(236,167,75);stop-opacity:1"/><stop offset="100%" style="stop-color:rgb(116,76,45);stop-opacity:1"/></linearGradient>
        <linearGradient id="_Linear12" x1="0" y1="0" x2="1" y2="0" gradientUnits="userSpaceOnUse" gradientTransform="matrix(0.483531,74.7961,-74.7961,0.483531,547.703,635.649)"><stop offset="0%" style="stop-color:rgb(116,76,45);stop-opacity:1"/><stop offset="54%" style="stop-color:rgb(139,94,51);stop-opacity:1"/><stop offset="74%" style="stop-color:rgb(188,131,63);stop-opacity:1"/><stop offset="94%" style="stop-color:rgb(236,167,75);stop-opacity:1"/><stop offset="94%" style="stop-color:rgb(236,167,75);stop-opacity:1"/><stop offset="100%" style="stop-color:rgb(116,76,45);stop-opacity:1"/></linearGradient>
        <linearGradient id="_Linear13" x1="0" y1="0" x2="1" y2="0" gradientUnits="userSpaceOnUse" gradientTransform="matrix(0.483531,74.7961,-74.7961,0.483531,547.703,635.649)"><stop offset="0%" style="stop-color:rgb(116,76,45);stop-opacity:1"/><stop offset="54%" style="stop-color:rgb(139,94,51);stop-opacity:1"/><stop offset="74%" style="stop-color:rgb(188,131,63);stop-opacity:1"/><stop offset="94%" style="stop-color:rgb(236,167,75);stop-opacity:1"/><stop offset="94%" style="stop-color:rgb(236,167,75);stop-opacity:1"/><stop offset="100%" style="stop-color:rgb(116,76,45);stop-opacity:1"/></linearGradient>
        <linearGradient id="_Linear14" x1="0" y1="0" x2="1" y2="0" gradientUnits="userSpaceOnUse" gradientTransform="matrix(0.483531,74.7961,-74.7961,0.483531,547.703,635.649)"><stop offset="0%" style="stop-color:rgb(116,76,45);stop-opacity:1"/><stop offset="54%" style="stop-color:rgb(139,94,51);stop-opacity:1"/><stop offset="74%" style="stop-color:rgb(188,131,63);stop-opacity:1"/><stop offset="94%" style="stop-color:rgb(236,167,75);stop-opacity:1"/><stop offset="94%" style="stop-color:rgb(236,167,75);stop-opacity:1"/><stop offset="100%" style="stop-color:rgb(116,76,45);stop-opacity:1"/></linearGradient>
        <linearGradient id="_Linear15" x1="0" y1="0" x2="1" y2="0" gradientUnits="userSpaceOnUse" gradientTransform="matrix(0.483531,74.7961,-74.7961,0.483531,547.703,635.649)"><stop offset="0%" style="stop-color:rgb(116,76,45);stop-opacity:1"/><stop offset="54%" style="stop-color:rgb(139,94,51);stop-opacity:1"/><stop offset="74%" style="stop-color:rgb(188,131,63);stop-opacity:1"/><stop offset="94%" style="stop-color:rgb(236,167,75);stop-opacity:1"/><stop offset="94%" style="stop-color:rgb(236,167,75);stop-opacity:1"/><stop offset="100%" style="stop-color:rgb(116,76,45);stop-opacity:1"/></linearGradient>
        <linearGradient id="_Linear16" x1="0" y1="0" x2="1" y2="0" gradientUnits="userSpaceOnUse" gradientTransform="matrix(0.483531,74.7961,-74.7961,0.483531,547.703,635.649)"><stop offset="0%" style="stop-color:rgb(116,76,45);stop-opacity:1"/><stop offset="54%" style="stop-color:rgb(139,94,51);stop-opacity:1"/><stop offset="74%" style="stop-color:rgb(188,131,63);stop-opacity:1"/><stop offset="94%" style="stop-color:rgb(236,167,75);stop-opacity:1"/><stop offset="94%" style="stop-color:rgb(236,167,75);stop-opacity:1"/><stop offset="100%" style="stop-color:rgb(116,76,45);stop-opacity:1"/></linearGradient>
    </defs>
</svg>
