<?xml version="1.0" standalone="no"?>
<!DOCTYPE svg PUBLIC "-//W3C//DTD SVG 1.1//EN" "http://www.w3.org/Graphics/SVG/1.1/DTD/svg11.dtd">
<svg width="100%" height="100%" viewBox="0 0 1280 1150" version="1.1" xmlns="http://www.w3.org/2000/svg" xmlns:xlink="http://www.w3.org/1999/xlink" xml:space="preserve" style="fill-rule:evenodd;clip-rule:evenodd;stroke-linecap:round;stroke-linejoin:round;stroke-miterlimit:1.41421;">
    <g id="antenne links weis" transform="matrix(-1,0,0,1,1285.94,-1.04328)">
        <path d="M1016.63,225.315L1016.63,243.497L1068.62,243.497L1068.62,225.315C1056.42,215.761 1028.47,218.493 1016.63,225.315Z" style="fill:white;stroke-width:1px;stroke:rgb(13,13,13);"/>
        <path d="M1010.18,148.231C1011.45,133.097 1018.43,124.001 1033.75,123.733L1077.21,123.733L1077.21,208.302L1011.83,208.302L1010.18,148.231Z" style="fill:rgb(212,212,212);stroke-width:1px;stroke:black;"/>
        <path d="M1016.63,225.315L1006.06,218.595C1015.82,203.229 1067.72,200.28 1081.44,218.595L1068.62,225.315C1056.42,215.761 1028.47,218.493 1016.63,225.315Z" style="fill:rgb(212,212,212);stroke-width:1px;stroke:black;"/>
        <path d="M1006.06,205.776L1006.06,218.595C1015.82,203.229 1067.72,200.28 1081.44,218.595L1081.44,205.776C1074.24,191.547 1013.43,193.255 1006.06,205.776Z" style="fill:white;stroke-width:1px;stroke:rgb(13,13,13);"/>
        <path d="M1001.64,96.223C1026.46,89.009 1051.56,88.112 1077.03,96.223L1081.06,199.872C1075.9,194.494 1067.82,193.081 1057.99,192.489L1033.75,191.03C1021.83,190.311 1013.14,186.319 1013.14,179.871L1013.14,125.93C1013.14,124.832 1009.41,123.733 1001.64,123.733L1001.64,96.223Z" style="fill:white;stroke-width:1px;stroke:black;"/>
        <path d="M1001.64,96.223C1026.46,89.009 1051.56,88.112 1077.03,96.223L1070.59,-55.903L996.012,-55.903L1001.64,96.223Z" style="fill:white;stroke-width:1px;stroke:black;"/>
        <path d="M1013.14,141.938L1001.64,123.733C1009.32,123.65 1013.14,125.048 1013.14,125.976L1013.14,141.938" style="fill:rgb(212,212,212);stroke-width:1px;stroke:black;"/>
        <path d="M1009.95,265.784L1009.95,235.711C1026.85,224.573 1057.36,222.878 1080.2,235.711L1080.2,282.711L1009.95,265.784" style="fill:white;stroke-width:1px;stroke:black;"/>
    </g>
    <g id="antenne rechts weis" transform="matrix(1,0,0,1,-0.120125,-1.04328)">
        <path d="M1016.63,225.315L1016.63,243.497L1068.62,243.497L1068.62,225.315C1056.42,215.761 1028.47,218.493 1016.63,225.315Z" style="fill:white;stroke-width:1px;stroke:rgb(13,13,13);"/>
        <path d="M1010.18,148.231C1011.45,133.097 1018.43,124.001 1033.75,123.733L1077.21,123.733L1077.21,208.302L1011.83,208.302L1010.18,148.231Z" style="fill:rgb(212,212,212);stroke-width:1px;stroke:black;"/>
        <path d="M1016.63,225.315L1006.06,218.595C1015.82,203.229 1067.72,200.28 1081.44,218.595L1068.62,225.315C1056.42,215.761 1028.47,218.493 1016.63,225.315Z" style="fill:rgb(212,212,212);stroke-width:1px;stroke:black;"/>
        <path d="M1006.06,205.776L1006.06,218.595C1015.82,203.229 1067.72,200.28 1081.44,218.595L1081.44,205.776C1074.24,191.547 1013.43,193.255 1006.06,205.776Z" style="fill:white;stroke-width:1px;stroke:rgb(13,13,13);"/>
        <path d="M1001.64,96.223C1026.46,89.009 1051.56,88.112 1077.03,96.223L1081.06,199.872C1075.9,194.494 1067.82,193.081 1057.99,192.489L1033.75,191.03C1021.83,190.311 1013.14,186.319 1013.14,179.871L1013.14,125.93C1013.14,124.832 1009.41,123.733 1001.64,123.733L1001.64,96.223Z" style="fill:white;stroke-width:1px;stroke:black;"/>
        <path d="M1001.64,96.223C1026.46,89.009 1051.56,88.112 1077.03,96.223L1070.59,-55.903L996.012,-55.903L1001.64,96.223Z" style="fill:white;stroke-width:1px;stroke:black;"/>
        <path d="M1013.14,141.938L1001.64,123.733C1009.32,123.65 1013.14,125.048 1013.14,125.976L1013.14,141.938" style="fill:rgb(212,212,212);stroke-width:1px;stroke:black;"/>
        <path d="M1009.95,265.784L1009.95,235.711C1026.85,224.573 1057.36,222.878 1080.2,235.711L1080.2,282.711L1009.95,265.784" style="fill:white;stroke-width:1px;stroke:black;"/>
    </g>
    <g id="rumpf">
        <g transform="matrix(1.35723,0,0,1.57108,-231.142,-363.196)">
            <path d="M339.179,871.611C378.368,880.576 573.466,897.986 714.549,892.101C925.377,883.307 948.346,875.022 964.909,871.611C1034.75,857.227 1052.78,821.006 1059.83,784.418C1080.31,678.206 1083.81,568.516 1059.83,458.123C1054.58,433.941 1030.04,402.579 992.687,394.008C983.786,400.33 975.517,404.267 969.374,404.172L332.701,404.172C319.782,404.156 313.271,400.038 309.747,394.008C274.581,400.403 249.322,428.287 237.412,458.123C196.271,561.184 226.818,753.794 237.412,794.768C248.893,839.172 282.986,858.757 339.179,871.611Z" style="fill:white;stroke-width:0.68px;stroke:black;"/>
        </g>
        <g transform="matrix(1.30982,0,0,1.49058,-200.372,-315.137)">
            <path d="M339.179,872.886C378.368,881.85 573.466,899.365 714.549,893.48C925.377,884.686 948.189,875.94 964.909,872.886C1035.52,859.984 1052.78,821.006 1059.83,784.418C1080.31,678.206 1080.36,569.034 1059.83,458.123C1055.43,434.357 1029.93,408.38 1004.38,399.809C997.77,397.59 990.546,395.691 981.869,393.775L318.202,393.775C288.008,399.985 248.35,416.959 237.412,458.123C209.18,564.365 226.818,753.794 237.412,794.768C248.893,839.172 282.986,860.031 339.179,872.886Z" style="fill:rgb(165,165,165);stroke-width:0.71px;stroke:black;"/>
        </g>
        <g transform="matrix(1.29832,0,0,1.47749,-192.909,-306.873)">
            <path d="M339.179,871.611C378.368,880.576 573.466,897.986 714.549,892.101C925.377,883.307 948.346,875.022 964.909,871.611C1034.75,857.227 1052.78,821.006 1059.83,784.418C1080.31,678.206 1080.36,569.034 1059.83,458.123C1055.43,434.357 1029.93,408.38 1004.38,399.809C940.467,378.367 772.144,371.561 655.232,370.014C550.914,368.633 403.032,378.4 339.179,388.839C296.662,395.79 248.679,412.803 237.412,458.123C210.914,564.71 226.818,753.794 237.412,794.768C248.893,839.172 282.986,858.757 339.179,871.611Z" style="fill:white;stroke-width:0.72px;stroke:black;"/>
        </g>
        <g transform="matrix(1.24742,0,0,1.39181,-160.888,-248.7)">
            <path d="M339.179,871.611C378.368,880.576 573.466,897.986 714.549,892.101C925.377,883.307 948.346,875.022 964.909,871.611C1034.75,857.227 1052.78,821.006 1059.83,784.418C1080.31,678.206 1080.36,569.034 1059.83,458.123C1055.43,434.357 1029.93,408.38 1004.38,399.809C940.467,378.367 772.144,371.561 655.232,370.014C550.914,368.633 403.032,378.4 339.179,388.839C296.662,395.79 248.679,412.803 237.412,458.123C210.914,564.71 226.818,753.794 237.412,794.768C248.893,839.172 282.986,858.757 339.179,871.611Z" style="fill:rgb(165,165,165);stroke-width:0.76px;stroke:black;"/>
        </g>
        <g transform="matrix(1.22743,0,0,1.35773,-147.086,-226.763)">
            <path d="M339.179,871.611C378.368,880.576 573.466,897.986 714.549,892.101C925.377,883.307 948.346,875.022 964.909,871.611C1034.75,857.227 1052.78,821.006 1059.83,784.418C1080.31,678.206 1080.36,569.034 1059.83,458.123C1055.43,434.357 1029.93,408.38 1004.38,399.809C940.467,378.367 772.144,371.561 655.232,370.014C550.914,368.633 403.032,378.4 339.179,388.839C296.662,395.79 248.679,412.803 237.412,458.123C210.914,564.71 226.818,753.794 237.412,794.768C248.893,839.172 282.986,858.757 339.179,871.611Z" style="fill:white;stroke-width:0.77px;stroke:black;"/>
        </g>
        <g transform="matrix(1.17497,0,0,1.27325,-113.702,-172.93)">
            <path d="M339.179,874.352C379.109,880.051 472.319,892.818 611.86,892.299C822.91,891.513 948.125,876.719 964.909,874.352C986.219,871.346 1012.04,864.143 1027.79,850.279C1049.69,830.997 1053.16,819.027 1059.83,784.418C1080.35,678.02 1080.08,569.42 1059.83,458.123C1053.56,423.631 1029.69,407.749 1004.38,399.809C939.976,379.602 772.144,371.561 655.232,370.014C550.914,368.633 403.032,378.4 339.179,388.839C296.662,395.79 248.87,407.32 237.412,458.123C212.789,567.298 222.107,680.039 237.412,794.768C241.206,823.206 261.547,847.007 281.815,856.509C302.126,866.03 325.632,872.418 339.179,874.352Z" style="fill:rgb(165,165,165);stroke-width:0.82px;stroke:black;"/>
        </g>
        <g transform="matrix(1.15376,0,0,1.23967,-99.9453,-151.656)">
            <path d="M339.179,874.352C370.898,879.023 469.686,891.808 611.86,892.299C822.911,893.026 948.125,876.719 964.909,874.352C986.219,871.346 1012.04,864.143 1027.79,850.279C1049.69,830.997 1053.16,819.027 1059.83,784.418C1080.35,678.02 1080.08,569.42 1059.83,458.123C1053.56,423.631 1029.69,407.749 1004.38,399.809C939.976,379.602 772.144,371.561 655.232,370.014C550.914,368.633 403.032,378.4 339.179,388.839C296.662,395.79 248.87,407.32 237.412,458.123C212.789,567.298 222.107,680.039 237.412,794.768C241.206,823.206 261.547,847.007 281.815,856.509C302.126,866.03 325.642,872.358 339.179,874.352Z" style="fill:white;stroke-width:0.84px;stroke:black;"/>
        </g>
        <g transform="matrix(1.09703,0,0,1.15466,-62.9357,-97.5455)">
            <path d="M339.179,875.614C339.179,875.614 469.752,891.188 611.86,892.299C822.905,893.948 948.125,876.719 964.909,874.352C986.219,871.346 1007.25,866.83 1026.99,856.509C1053.28,842.762 1058.4,819.258 1063.74,784.418C1080.06,677.978 1078.29,569.364 1063.74,458.123C1059.19,423.361 1030.62,403.233 1004.71,397.219C903.273,373.678 769.251,372.501 652.338,370.953C548.021,369.573 443.62,377.592 339.179,388.839C284.917,394.683 242.459,406.799 232.994,458.123C212.858,567.302 220.298,680.778 234.261,796.139C237.873,824.35 250.167,848.511 270.436,858.012C290.747,867.533 325.592,873.935 339.179,875.614Z" style="fill:rgb(165,165,165);stroke-width:0.89px;stroke:black;"/>
        </g>
        <g transform="matrix(1.07767,0,0,1.1153,-50.393,-72.6833)">
            <path d="M339.179,875.614C339.179,875.614 469.752,891.188 611.86,892.299C822.905,893.948 948.125,876.719 964.909,874.352C986.219,871.346 1007.25,866.83 1026.99,856.509C1053.28,842.762 1058.4,819.258 1063.74,784.418C1080.06,677.978 1078.29,569.364 1063.74,458.123C1059.19,423.361 1030.62,403.233 1004.71,397.219C903.273,373.678 769.251,372.501 652.338,370.953C548.021,369.573 443.62,377.592 339.179,388.839C284.917,394.683 242.459,406.799 232.994,458.123C212.858,567.302 220.298,680.778 234.261,796.139C237.873,824.35 250.167,848.511 270.436,858.012C290.747,867.533 325.592,873.935 339.179,875.614Z" style="fill:white;stroke-width:0.91px;stroke:black;"/>
        </g>
        <g transform="matrix(1.01964,0,0,1.01964,-12.7426,-12.2653)">
            <path d="M339.179,874.352C339.179,874.352 469.752,891.188 611.86,892.299C822.905,893.948 948.125,876.719 964.909,874.352C986.219,871.346 1008.17,869.253 1027.9,858.931C1054.19,845.185 1062.26,819.085 1066.57,784.102C1079.67,677.717 1080.68,569.233 1066.57,458.123C1062.01,422.269 1039.54,403.849 1004.71,397.219C902.355,377.739 769.251,372.501 652.338,370.953C548.021,369.573 443.62,377.592 339.179,388.839C284.917,394.683 243.731,399.066 232.994,458.123C213.162,567.202 220.917,681.665 232.994,796.971C236.606,825.183 248.976,851.203 270.036,858.931C291.158,866.683 325.592,872.673 339.179,874.352Z" style="fill:rgb(13,13,13);stroke-width:0.98px;stroke:black;"/>
        </g>
        <path d="M493.572,814.923L814.977,814.923C843.915,815.092 867.862,829.189 890.63,847.78C910.435,863.953 934.169,878.687 964.909,874.352C986.219,871.346 1008.17,869.253 1027.9,858.931C1054.19,845.185 1062.26,819.085 1066.57,784.102C1079.67,677.717 1080.68,569.233 1066.57,458.123C1062.01,422.269 1039.54,405.328 1004.71,398.699C902.355,379.218 769.251,375.631 652.338,374.084C548.021,372.704 443.62,379.75 339.179,390.997C284.917,396.841 243.731,399.066 232.994,458.123C213.162,567.202 220.917,681.665 232.994,796.971C236.606,825.183 248.976,851.203 270.036,858.931C291.158,866.683 324.716,873.586 339.179,874.352C370.76,876.024 388.047,862.131 406.28,847.78C433.871,826.064 454.798,814.923 493.572,814.923Z" style="fill:white;stroke-width:1px;stroke:black;"/>
    </g>
    <g id="anzeige USB" transform="matrix(0.757546,0,0,0.822146,204.508,44.6038)">
        <g transform="matrix(1.11419,4.15022e-17,-3.3233e-17,0.819387,-134.206,154.197)">
            <path d="M532.5,1001.56C535.537,998.5 538.583,999.103 541.634,1001.56" style="fill:none;stroke-width:3px;stroke:white;"/>
            <path d="M529.218,994.65C534.394,990.708 539.528,990.83 544.623,994.65" style="fill:none;stroke-width:3px;stroke:white;"/>
            <path d="M526.539,988.847C533.32,983.95 540.233,983.383 547.33,988.847" style="fill:none;stroke-width:3px;stroke:white;"/>
        </g>
        <g transform="matrix(1.07743,-0.00297445,0.00258418,0.936066,-170.754,40.2477)">
            <g transform="matrix(1,0,-4.33681e-19,1.14185,-6.11733e-14,-139.828)">
                <path d="M626.349,996.053L623.073,996.053L623.073,985.75L641.216,985.75L641.216,996.053L638.183,996.053" style="fill:none;stroke-width:3px;stroke:white;"/>
            </g>
            <path d="M626.295,1003.22L637.337,1003.22L632.352,1003.22L632.352,995.421" style="fill:none;stroke-width:3px;stroke:white;"/>
        </g>
        <g transform="matrix(1.07743,-0.00297445,0.00258418,0.936066,-121.697,40.2477)">
            <g transform="matrix(1,0,-4.33681e-19,1.14185,-6.11733e-14,-139.828)">
                <path d="M626.349,996.053L623.073,996.053L623.073,985.75L641.216,985.75L641.216,996.053L638.183,996.053" style="fill:none;stroke-width:3px;stroke:white;"/>
            </g>
            <path d="M626.295,1003.22L637.337,1003.22L632.352,1003.22L632.352,995.421" style="fill:none;stroke-width:3px;stroke:white;"/>
        </g>
        <g transform="matrix(1.07743,-0.00297445,0.00258418,0.936066,-71.9361,40.2477)">
            <g transform="matrix(1,0,-4.33681e-19,1.14185,-6.11733e-14,-139.828)">
                <path d="M626.349,996.053L623.073,996.053L623.073,985.75L641.216,985.75L641.216,996.053L638.183,996.053" style="fill:none;stroke-width:3px;stroke:white;"/>
            </g>
            <path d="M626.295,1003.22L637.337,1003.22L632.352,1003.22L632.352,995.421" style="fill:none;stroke-width:3px;stroke:white;"/>
        </g>
        <g transform="matrix(1.07743,-0.00297445,0.00258418,0.936066,-22.753,40.2477)">
            <g transform="matrix(1,0,-4.33681e-19,1.14185,-6.11733e-14,-139.828)">
                <path d="M626.349,996.053L623.073,996.053L623.073,985.75L641.216,985.75L641.216,996.053L638.183,996.053" style="fill:none;stroke-width:3px;stroke:white;"/>
            </g>
            <path d="M626.295,1003.22L637.337,1003.22L632.352,1003.22L632.352,995.421" style="fill:none;stroke-width:3px;stroke:white;"/>
        </g>
        <g id="Inet" transform="matrix(1.63302,2.96898e-16,-3.65665e-16,2.23473,-493.471,-1248.75)">
            <g transform="matrix(1.27235,-0.227769,0.318368,1.77845,-475.111,-424.452)">
                <ellipse cx="729.346" cy="889.27" rx="6.378" ry="1.404" style="fill:none;stroke-width:1.02px;stroke:white;"/>
            </g>
            <g transform="matrix(1.09502,0,0,1.09781,-70.6185,8.19739)">
                <ellipse cx="737.796" cy="896.539" rx="5.426" ry="3.783" style="fill:none;stroke-width:1.46px;stroke:white;"/>
            </g>
        </g>
        <g id="lock" transform="matrix(1.32005,0,0,1.21633,-225.477,-54.2529)">
            <rect x="771.78" y="838.061" width="15.937" height="9.53" style="fill:none;stroke-width:2.5px;stroke:white;"/>
            <path d="M773.83,838.061C773.806,829.265 785.722,829.488 785.745,838.061" style="fill:none;stroke-width:2.5px;stroke:white;"/>
        </g>
        <g id="usb" transform="matrix(1.32005,0,0,1.21633,-8.61488,344.753)">
            <ellipse cx="571.006" cy="512.691" rx="2.363" ry="2.68" style="fill:white;stroke-width:2.5px;stroke:white;"/>
            <path d="M571.367,512.64L591.021,512.64L589.102,510.702L589.102,514.443L591.021,512.64L576.604,512.64C577.242,508.629 580.24,506.696 585.494,506.755L587.709,506.755L585.494,504.967L585.494,508.697L585.494,506.755C580.558,506.702 577.332,508.395 576.604,512.64C578.665,517.021 582.148,519.272 587.709,518.411L587.709,516.448L589.102,518.411L587.709,520.46L587.709,518.411" style="fill:none;stroke-width:2.5px;stroke:white;"/>
            <path d="M587.709,506.844L585.494,508.697" style="fill:none;stroke-width:2.5px;stroke:white;"/>
        </g>
        <g transform="matrix(2.89984,-2.51507e-16,-0.0326112,2.83938,-2052.22,-1945.63)">
            <path d="M862.856,1021.29C862.582,1021.27 862.306,1021.27 862.031,1021.29L861.907,1021.95C861.645,1021.99 861.388,1022.05 861.14,1022.15L860.707,1021.65C860.456,1021.76 860.217,1021.9 859.993,1022.06L860.211,1022.69C860.004,1022.85 859.815,1023.04 859.65,1023.25L859.024,1023.03C858.863,1023.25 858.725,1023.49 858.611,1023.75L859.113,1024.18C859.017,1024.42 858.948,1024.68 858.908,1024.94L858.256,1025.07C858.229,1025.34 858.229,1025.62 858.256,1025.89L858.908,1026.02C858.948,1026.28 859.017,1026.54 859.113,1026.79L858.611,1027.22C858.725,1027.47 858.863,1027.71 859.024,1027.93L859.65,1027.71C859.815,1027.92 860.004,1028.11 860.211,1028.28L859.993,1028.9C860.217,1029.06 860.456,1029.2 860.707,1029.31L861.14,1028.81C861.388,1028.91 861.645,1028.98 861.907,1029.02L862.031,1029.67C862.306,1029.7 862.582,1029.7 862.856,1029.67L862.98,1029.02C863.243,1028.98 863.5,1028.91 863.747,1028.81L864.18,1029.31C864.431,1029.2 864.671,1029.06 864.895,1028.9L864.676,1028.28C864.884,1028.11 865.072,1027.92 865.238,1027.71L865.864,1027.93C866.025,1027.71 866.163,1027.47 866.276,1027.22L865.774,1026.79C865.871,1026.54 865.94,1026.28 865.98,1026.02L866.631,1025.89C866.658,1025.62 866.658,1025.34 866.631,1025.07L865.98,1024.94C865.94,1024.68 865.871,1024.42 865.774,1024.18L866.276,1023.75C866.163,1023.49 866.025,1023.25 865.864,1023.03L865.238,1023.25C865.072,1023.04 864.884,1022.85 864.676,1022.69L864.895,1022.06C864.671,1021.9 864.431,1021.76 864.18,1021.65L863.747,1022.15C863.5,1022.05 863.243,1021.99 862.98,1021.95L862.856,1021.29ZM862.444,1024.64C862.908,1024.64 863.285,1025.02 863.285,1025.48C863.285,1025.95 862.908,1026.32 862.444,1026.32C861.979,1026.32 861.602,1025.95 861.602,1025.48C861.602,1025.02 861.979,1024.64 862.444,1024.64Z" style="fill:white;stroke-width:0.31px;stroke:white;"/>
        </g>
        <g id="power" transform="matrix(3.33575,-1.18208e-15,9.23711e-16,2.56002,-1187.37,-1540.23)">
            <g transform="matrix(0.74223,0,0,0.74223,119.215,252.802)">
                <circle cx="466.635" cy="978.914" r="4.395" style="fill:none;stroke-width:1.45px;stroke:white;"/>
            </g>
            <g transform="matrix(1,9.86076e-32,9.86076e-32,1.21477,-0.143123,-210.642)">
                <path d="M466.406,975.365C466.406,975.185 466.258,975.039 466.076,975.039L465.417,975.039C465.235,975.039 465.087,975.185 465.087,975.365L465.087,979.179C465.087,979.359 465.235,979.505 465.417,979.505L466.076,979.505C466.258,979.505 466.406,979.359 466.406,979.179L466.406,975.365Z" style="fill:white;stroke-width:0.98px;stroke:rgb(13,13,13);"/>
            </g>
        </g>
    </g>
</svg>
