<?xml version="1.0" standalone="no"?>
<!DOCTYPE svg PUBLIC "-//W3C//DTD SVG 1.1//EN" "http://www.w3.org/Graphics/SVG/1.1/DTD/svg11.dtd">
<svg width="100%" height="100%" viewBox="0 0 1280 1150" version="1.1" xmlns="http://www.w3.org/2000/svg" xmlns:xlink="http://www.w3.org/1999/xlink" xml:space="preserve" style="fill-rule:evenodd;clip-rule:evenodd;stroke-linecap:round;stroke-linejoin:round;stroke-miterlimit:1.41421;">
    <path id="Rumpf" d="M229.094,306.403C196.897,306.747 176.859,321.643 173.064,359.032C157.606,511.333 153.773,663.597 157.464,815.838C158.448,856.44 171.235,883.804 196.102,883.804L1056.21,883.804C1085.44,883.804 1096.41,853.466 1099.43,815.838C1103.33,663.517 1101.55,511.24 1090.86,359.032C1087.51,311.368 1070.37,297.4 1038.48,297.741L229.094,306.403Z" style="fill:white;stroke-width:3px;stroke:black;"/>
    <g id="anzeige" transform="matrix(1,0,0,1,-182.852,-285.555)">
        <g transform="matrix(1.11419,4.15022e-17,-2.90516e-17,0.71629,-114.502,200.628)">
            <path d="M532.5,1001.56C535.537,998.5 538.583,999.103 541.634,1001.56" style="fill:none;stroke-width:3px;stroke:rgb(103,103,103);"/>
            <path d="M529.218,994.65C534.394,990.708 539.528,990.83 544.623,994.65" style="fill:none;stroke-width:3px;stroke:rgb(103,103,103);"/>
            <path d="M526.539,988.847C533.32,983.95 540.233,983.383 547.33,988.847" style="fill:none;stroke-width:3px;stroke:rgb(103,103,103);"/>
        </g>
        <g transform="matrix(1.07743,-0.00297445,0.00307677,1.1145,-145.107,-192.639)">
            <path d="M626.349,996.053L623.073,996.053L623.073,985.75L641.216,985.75L641.216,996.053L638.183,996.053" style="fill:none;stroke-width:3px;stroke:rgb(103,103,103);"/>
            <path d="M626.295,1003.22L637.337,1003.22L632.352,1003.22L632.352,995.421" style="fill:none;stroke-width:3px;stroke:rgb(103,103,103);"/>
        </g>
        <g id="Inet" transform="matrix(1.63302,2.96898e-16,-3.65665e-16,2.23473,-775.585,-1304.71)">
            <g transform="matrix(1.27235,-0.227769,0.318368,1.77845,-475.111,-424.452)">
                <ellipse cx="729.346" cy="889.27" rx="6.378" ry="1.404" style="fill:none;stroke-width:0.82px;stroke:rgb(103,103,103);"/>
            </g>
            <g transform="matrix(1.09502,0,0,1.09781,-70.6185,8.19739)">
                <ellipse cx="737.796" cy="896.539" rx="5.426" ry="3.783" style="fill:none;stroke-width:1.16px;stroke:rgb(103,103,103);"/>
            </g>
        </g>
        <g id="power" transform="matrix(3.33575,-1.18208e-15,9.23711e-16,2.56002,-958.878,-1591.75)">
            <g transform="matrix(0.74223,0,0,0.74223,119.215,252.802)">
                <circle cx="466.635" cy="978.914" r="4.395" style="fill:none;stroke-width:1.13px;stroke:rgb(103,103,103);"/>
            </g>
            <g transform="matrix(1,9.86076e-32,9.86076e-32,1.21477,-0.143123,-210.642)">
                <path d="M466.406,975.393C466.406,975.198 466.258,975.039 466.076,975.039L465.417,975.039C465.235,975.039 465.087,975.198 465.087,975.393L465.087,979.152C465.087,979.347 465.235,979.505 465.417,979.505L466.076,979.505C466.258,979.505 466.406,979.347 466.406,979.152L466.406,975.393Z" style="fill:rgb(103,103,103);stroke-width:0.78px;stroke:white;"/>
            </g>
        </g>
    </g>
    <path d="M207.088,589.95C212.77,583.551 219.794,579.182 229.094,579.182L425.116,579.182C432.503,579.182 441.943,584.723 445.785,589.95C441.746,596.496 431.889,600.624 425.116,600.624L229.094,600.624C219.736,600.624 213.113,595.191 207.088,589.95Z" style="fill:rgb(13,64,59);stroke-width:2.5px;stroke:rgb(15,42,53);"/>
    <g transform="matrix(0.944088,0,0,0.944088,16.2278,32.1983)">
        <ellipse cx="307.525" cy="590.752" rx="10.284" ry="9.94" style="fill:rgb(172,251,159);"/>
        <path d="M307.658,580.813L307.79,580.815L307.922,580.819L308.054,580.825L308.185,580.832L308.316,580.841L308.446,580.851L308.576,580.863L308.705,580.877L308.834,580.892L308.962,580.908L309.09,580.926L309.218,580.946L309.344,580.967L309.471,580.99L309.596,581.014L309.722,581.039L309.846,581.067L309.97,581.095L310.094,581.125L310.217,581.156L310.339,581.189L310.461,581.223L310.582,581.259L310.702,581.296L310.822,581.334L310.941,581.374L311.059,581.415L311.177,581.458L311.294,581.502L311.411,581.547L311.526,581.593L311.641,581.641L311.756,581.69L311.869,581.741L311.982,581.793L312.094,581.846L312.205,581.9L312.316,581.955L312.425,582.012L312.534,582.07L312.642,582.13L312.75,582.19L312.856,582.252L312.962,582.315L313.066,582.379L313.17,582.444L313.273,582.51L313.375,582.578L313.477,582.647L313.577,582.717L313.676,582.788L313.775,582.86L313.873,582.933L313.969,583.007L314.065,583.083L314.16,583.159L314.254,583.237L314.346,583.316L314.438,583.395L314.529,583.476L314.619,583.558L314.708,583.641L314.796,583.725L314.882,583.809L314.968,583.895L315.053,583.982L315.136,584.07L315.219,584.159L315.3,584.248L315.38,584.339L315.459,584.431L315.538,584.523L315.614,584.617L315.69,584.711L315.765,584.806L315.838,584.902L315.911,584.999L315.982,585.097L316.052,585.196L316.12,585.296L316.188,585.396L316.254,585.497L316.319,585.599L316.383,585.702L316.446,585.806L316.507,585.91L316.567,586.016L316.626,586.122L316.683,586.228L316.739,586.336L316.794,586.444L316.848,586.553L316.9,586.663L316.951,586.773L317,586.884L317.049,586.996L317.095,587.109L317.141,587.222L317.185,587.336L317.227,587.45L317.268,587.565L317.308,587.681L317.346,587.797L317.383,587.914L317.419,588.032L317.453,588.15L317.485,588.269L317.516,588.388L317.546,588.508L317.574,588.629L317.6,588.75L317.625,588.871L317.648,588.993L317.67,589.116L317.691,589.239L317.709,589.363L317.726,589.487L317.742,589.611L317.756,589.736L317.768,589.862L317.779,589.988L317.788,590.114L317.796,590.241L317.802,590.368L317.806,590.496L317.808,590.624L317.809,590.752L317.808,590.88L317.806,591.008L317.802,591.136L317.796,591.263L317.788,591.39L317.779,591.516L317.768,591.642L317.756,591.768L317.742,591.893L317.726,592.017L317.709,592.141L317.691,592.265L317.67,592.388L317.648,592.511L317.625,592.633L317.6,592.754L317.574,592.875L317.546,592.996L317.516,593.116L317.485,593.235L317.453,593.354L317.419,593.472L317.383,593.59L317.346,593.707L317.308,593.823L317.268,593.939L317.227,594.054L317.185,594.168L317.141,594.282L317.095,594.395L317.049,594.508L317,594.62L316.951,594.731L316.9,594.841L316.848,594.951L316.794,595.06L316.739,595.168L316.683,595.276L316.626,595.383L316.567,595.489L316.507,595.594L316.446,595.698L316.383,595.802L316.319,595.905L316.254,596.007L316.188,596.108L316.12,596.209L316.052,596.308L315.982,596.407L315.911,596.505L315.838,596.602L315.765,596.698L315.69,596.793L315.614,596.887L315.538,596.981L315.459,597.073L315.38,597.165L315.3,597.256L315.219,597.345L315.136,597.434L315.053,597.522L314.968,597.609L314.882,597.695L314.796,597.779L314.708,597.863L314.619,597.946L314.529,598.028L314.438,598.109L314.346,598.188L314.254,598.267L314.16,598.345L314.065,598.421L313.969,598.497L313.873,598.571L313.775,598.644L313.676,598.716L313.577,598.787L313.477,598.857L313.375,598.926L313.273,598.994L313.17,599.06L313.066,599.125L312.962,599.189L312.856,599.252L312.75,599.314L312.642,599.375L312.534,599.434L312.425,599.492L312.316,599.549L312.205,599.604L312.094,599.658L311.982,599.711L311.869,599.763L311.756,599.814L311.641,599.863L311.526,599.911L311.411,599.957L311.294,600.002L311.177,600.046L311.059,600.089L310.941,600.13L310.822,600.17L310.702,600.208L310.582,600.245L310.461,600.281L310.339,600.315L310.217,600.348L310.094,600.379L309.97,600.409L309.846,600.438L309.722,600.465L309.596,600.49L309.471,600.514L309.344,600.537L309.218,600.558L309.09,600.578L308.962,600.596L308.834,600.612L308.705,600.627L308.576,600.641L308.446,600.653L308.316,600.663L308.185,600.672L308.054,600.679L307.922,600.685L307.79,600.689L307.658,600.691L307.525,600.692L307.392,600.691L307.26,600.689L307.128,600.685L306.996,600.679L306.865,600.672L306.734,600.663L306.604,600.653L306.474,600.641L306.345,600.627L306.216,600.612L306.088,600.596L305.96,600.578L305.832,600.558L305.705,600.537L305.579,600.514L305.453,600.49L305.328,600.465L305.204,600.438L305.08,600.409L304.956,600.379L304.833,600.348L304.711,600.315L304.589,600.281L304.468,600.245L304.348,600.208L304.228,600.17L304.109,600.13L303.99,600.089L303.873,600.046L303.756,600.002L303.639,599.957L303.523,599.911L303.409,599.863L303.294,599.814L303.181,599.763L303.068,599.711L302.956,599.658L302.845,599.604L302.734,599.549L302.625,599.492L302.516,599.434L302.408,599.375L302.3,599.314L302.194,599.252L302.088,599.189L301.984,599.125L301.88,599.06L301.777,598.994L301.674,598.926L301.573,598.857L301.473,598.787L301.373,598.716L301.275,598.644L301.177,598.571L301.081,598.497L300.985,598.421L300.89,598.345L300.796,598.267L300.703,598.188L300.612,598.109L300.521,598.028L300.431,597.946L300.342,597.863L300.254,597.779L300.168,597.695L300.082,597.609L299.997,597.522L299.914,597.434L299.831,597.345L299.75,597.256L299.67,597.165L299.59,597.073L299.512,596.981L299.435,596.887L299.36,596.793L299.285,596.698L299.212,596.602L299.139,596.505L299.068,596.407L298.998,596.308L298.929,596.209L298.862,596.108L298.796,596.007L298.731,595.905L298.667,595.802L298.604,595.698L298.543,595.594L298.483,595.489L298.424,595.383L298.367,595.276L298.31,595.168L298.256,595.06L298.202,594.951L298.15,594.841L298.099,594.731L298.049,594.62L298.001,594.508L297.955,594.395L297.909,594.282L297.865,594.168L297.823,594.054L297.782,593.939L297.742,593.823L297.703,593.707L297.667,593.59L297.631,593.472L297.597,593.354L297.565,593.235L297.534,593.116L297.504,592.996L297.476,592.875L297.45,592.754L297.425,592.633L297.402,592.511L297.38,592.388L297.359,592.265L297.341,592.141L297.323,592.017L297.308,591.893L297.294,591.768L297.282,591.642L297.271,591.516L297.262,591.39L297.254,591.263L297.248,591.136L297.244,591.008L297.242,590.88L297.241,590.752L297.242,590.624L297.244,590.496L297.248,590.368L297.254,590.241L297.262,590.114L297.271,589.988L297.282,589.862L297.294,589.736L297.308,589.611L297.323,589.487L297.341,589.363L297.359,589.239L297.38,589.116L297.402,588.993L297.425,588.871L297.45,588.75L297.476,588.629L297.504,588.508L297.534,588.388L297.565,588.269L297.597,588.15L297.631,588.032L297.667,587.914L297.703,587.797L297.742,587.681L297.782,587.565L297.823,587.45L297.865,587.336L297.909,587.222L297.955,587.109L298.001,586.996L298.049,586.884L298.099,586.773L298.15,586.663L298.202,586.553L298.256,586.444L298.31,586.336L298.367,586.228L298.424,586.122L298.483,586.016L298.543,585.91L298.604,585.806L298.667,585.702L298.731,585.599L298.796,585.497L298.862,585.396L298.929,585.296L298.998,585.196L299.068,585.097L299.139,584.999L299.212,584.902L299.285,584.806L299.36,584.711L299.435,584.617L299.512,584.523L299.59,584.431L299.67,584.339L299.75,584.248L299.831,584.159L299.914,584.07L299.997,583.982L300.082,583.895L300.168,583.809L300.254,583.725L300.342,583.641L300.431,583.558L300.521,583.476L300.612,583.395L300.703,583.316L300.796,583.237L300.89,583.159L300.985,583.083L301.081,583.007L301.177,582.933L301.275,582.86L301.373,582.788L301.473,582.717L301.573,582.647L301.674,582.578L301.777,582.51L301.88,582.444L301.984,582.379L302.088,582.315L302.194,582.252L302.3,582.19L302.408,582.13L302.516,582.07L302.625,582.012L302.734,581.955L302.845,581.9L302.956,581.846L303.068,581.793L303.181,581.741L303.294,581.69L303.409,581.641L303.523,581.593L303.639,581.547L303.756,581.502L303.873,581.458L303.99,581.415L304.109,581.374L304.228,581.334L304.348,581.296L304.468,581.259L304.589,581.223L304.711,581.189L304.833,581.156L304.956,581.125L305.08,581.095L305.204,581.067L305.328,581.039L305.453,581.014L305.579,580.99L305.705,580.967L305.832,580.946L305.96,580.926L306.088,580.908L306.216,580.892L306.345,580.877L306.474,580.863L306.604,580.851L306.734,580.841L306.865,580.832L306.996,580.825L307.128,580.819L307.26,580.815L307.392,580.813L307.525,580.812L307.658,580.813ZM307.425,583.461L307.324,583.462L307.224,583.465L307.126,583.47L307.027,583.475L306.929,583.482L306.831,583.49L306.733,583.499L306.636,583.509L306.539,583.52L306.443,583.532L306.348,583.546L306.252,583.561L306.156,583.577L306.062,583.594L305.968,583.612L305.874,583.631L305.781,583.651L305.688,583.672L305.596,583.694L305.504,583.718L305.412,583.743L305.322,583.768L305.232,583.795L305.141,583.823L305.052,583.851L304.963,583.881L304.875,583.911L304.787,583.943L304.699,583.976L304.613,584.01L304.526,584.044L304.441,584.08L304.356,584.117L304.271,584.154L304.187,584.193L304.103,584.233L304.02,584.273L303.938,584.314L303.856,584.356L303.775,584.4L303.695,584.444L303.614,584.489L303.535,584.535L303.457,584.582L303.379,584.63L303.301,584.678L303.225,584.727L303.149,584.778L303.074,584.829L302.999,584.881L302.925,584.933L302.852,584.987L302.779,585.042L302.708,585.097L302.637,585.153L302.566,585.21L302.496,585.267L302.428,585.326L302.359,585.385L302.292,585.445L302.226,585.505L302.16,585.566L302.095,585.629L302.031,585.691L301.967,585.755L301.904,585.819L301.843,585.884L301.782,585.95L301.722,586.016L301.663,586.083L301.604,586.151L301.546,586.219L301.49,586.287L301.434,586.357L301.379,586.427L301.325,586.498L301.272,586.569L301.22,586.641L301.168,586.714L301.118,586.787L301.069,586.86L301.02,586.934L300.972,587.009L300.925,587.085L300.88,587.16L300.835,587.236L300.791,587.314L300.748,587.391L300.706,587.469L300.665,587.547L300.625,587.626L300.586,587.705L300.548,587.786L300.511,587.866L300.475,587.946L300.44,588.028L300.406,588.11L300.373,588.192L300.341,588.275L300.311,588.357L300.281,588.441L300.252,588.525L300.224,588.609L300.197,588.694L300.172,588.779L300.147,588.865L300.124,588.951L300.101,589.037L300.08,589.124L300.06,589.211L300.041,589.299L300.022,589.387L300.005,589.475L299.99,589.564L299.975,589.653L299.961,589.743L299.949,589.832L299.938,589.923L299.927,590.013L299.919,590.105L299.911,590.196L299.904,590.288L299.899,590.38L299.894,590.472L299.891,590.565L299.89,590.659L299.889,590.752L299.89,590.846L299.891,590.939L299.894,591.032L299.899,591.124L299.904,591.217L299.911,591.308L299.919,591.4L299.927,591.491L299.938,591.582L299.949,591.672L299.961,591.762L299.975,591.851L299.99,591.94L300.005,592.029L300.022,592.117L300.041,592.205L300.06,592.293L300.08,592.38L300.101,592.467L300.124,592.553L300.147,592.639L300.172,592.725L300.197,592.81L300.224,592.895L300.252,592.979L300.281,593.063L300.311,593.147L300.341,593.229L300.373,593.312L300.406,593.394L300.44,593.476L300.475,593.558L300.511,593.638L300.548,593.718L300.586,593.799L300.625,593.878L300.665,593.957L300.706,594.035L300.748,594.113L300.791,594.19L300.835,594.268L300.88,594.344L300.926,594.42L300.972,594.495L301.02,594.57L301.068,594.644L301.118,594.717L301.168,594.791L301.22,594.863L301.272,594.935L301.325,595.006L301.379,595.077L301.434,595.147L301.49,595.217L301.546,595.285L301.604,595.353L301.663,595.421L301.722,595.488L301.782,595.555L301.843,595.62L301.904,595.685L301.967,595.749L302.031,595.813L302.095,595.875L302.16,595.938L302.226,595.999L302.292,596.059L302.359,596.119L302.428,596.178L302.497,596.237L302.566,596.294L302.636,596.351L302.708,596.407L302.779,596.463L302.852,596.517L302.925,596.57L302.999,596.623L303.074,596.675L303.149,596.726L303.225,596.777L303.301,596.826L303.379,596.874L303.457,596.923L303.535,596.969L303.614,597.015L303.695,597.06L303.775,597.104L303.856,597.148L303.938,597.19L304.02,597.231L304.103,597.272L304.187,597.311L304.271,597.35L304.356,597.388L304.441,597.424L304.526,597.46L304.613,597.494L304.699,597.528L304.787,597.561L304.875,597.593L304.963,597.623L305.052,597.653L305.141,597.682L305.232,597.709L305.322,597.736L305.413,597.762L305.504,597.786L305.596,597.809L305.688,597.832L305.781,597.853L305.874,597.873L305.968,597.893L306.062,597.911L306.157,597.928L306.252,597.943L306.347,597.958L306.443,597.972L306.539,597.984L306.636,597.995L306.733,598.006L306.831,598.015L306.929,598.022L307.027,598.029L307.126,598.034L307.225,598.039L307.324,598.042L307.424,598.044L307.525,598.044L307.626,598.044L307.726,598.042L307.825,598.039L307.924,598.034L308.023,598.029L308.121,598.022L308.219,598.015L308.317,598.006L308.414,597.995L308.511,597.984L308.607,597.972L308.703,597.958L308.798,597.943L308.893,597.928L308.988,597.911L309.082,597.893L309.176,597.873L309.269,597.853L309.362,597.832L309.454,597.809L309.546,597.786L309.637,597.762L309.728,597.736L309.818,597.709L309.909,597.682L309.998,597.653L310.087,597.623L310.175,597.593L310.263,597.561L310.351,597.528L310.437,597.494L310.524,597.46L310.609,597.424L310.694,597.388L310.779,597.35L310.863,597.311L310.947,597.272L311.03,597.231L311.112,597.19L311.193,597.148L311.275,597.104L311.355,597.06L311.436,597.015L311.515,596.969L311.593,596.923L311.671,596.874L311.748,596.826L311.825,596.777L311.901,596.726L311.976,596.675L312.051,596.623L312.125,596.57L312.198,596.517L312.27,596.463L312.342,596.407L312.414,596.351L312.484,596.294L312.553,596.237L312.622,596.178L312.69,596.119L312.758,596.059L312.824,595.999L312.89,595.938L312.955,595.875L313.019,595.813L313.083,595.749L313.146,595.685L313.207,595.62L313.268,595.555L313.328,595.488L313.387,595.421L313.446,595.353L313.503,595.286L313.56,595.217L313.616,595.147L313.671,595.077L313.725,595.006L313.778,594.935L313.83,594.863L313.881,594.791L313.932,594.717L313.982,594.644L314.03,594.57L314.078,594.495L314.124,594.42L314.17,594.344L314.215,594.268L314.259,594.19L314.302,594.113L314.344,594.035L314.385,593.957L314.425,593.878L314.464,593.799L314.502,593.719L314.539,593.638L314.575,593.558L314.61,593.476L314.644,593.394L314.677,593.312L314.708,593.23L314.739,593.147L314.769,593.063L314.798,592.979L314.826,592.895L314.853,592.81L314.878,592.725L314.903,592.639L314.926,592.553L314.949,592.467L314.97,592.38L314.99,592.293L315.009,592.205L315.028,592.117L315.044,592.029L315.06,591.94L315.075,591.851L315.089,591.762L315.101,591.672L315.112,591.581L315.122,591.491L315.131,591.4L315.139,591.308L315.146,591.217L315.151,591.124L315.156,591.032L315.159,590.939L315.16,590.846L315.161,590.752L315.16,590.658L315.159,590.565L315.156,590.472L315.151,590.38L315.146,590.288L315.139,590.196L315.131,590.105L315.122,590.013L315.112,589.923L315.101,589.833L315.089,589.743L315.075,589.653L315.06,589.564L315.044,589.475L315.028,589.387L315.009,589.299L314.99,589.211L314.97,589.124L314.949,589.037L314.926,588.951L314.903,588.865L314.878,588.779L314.852,588.694L314.826,588.609L314.798,588.525L314.769,588.441L314.739,588.357L314.708,588.274L314.677,588.192L314.644,588.11L314.61,588.028L314.575,587.947L314.539,587.866L314.502,587.785L314.464,587.705L314.425,587.626L314.385,587.547L314.344,587.469L314.302,587.391L314.259,587.314L314.215,587.237L314.17,587.16L314.125,587.085L314.078,587.009L314.03,586.934L313.981,586.86L313.932,586.787L313.882,586.714L313.83,586.641L313.778,586.569L313.725,586.498L313.671,586.427L313.616,586.357L313.56,586.287L313.503,586.218L313.446,586.151L313.387,586.083L313.328,586.016L313.268,585.95L313.207,585.884L313.146,585.819L313.083,585.755L313.019,585.691L312.955,585.629L312.89,585.566L312.824,585.505L312.758,585.445L312.69,585.385L312.622,585.326L312.554,585.267L312.484,585.21L312.413,585.153L312.342,585.097L312.271,585.042L312.198,584.987L312.125,584.933L312.051,584.881L311.976,584.829L311.901,584.778L311.825,584.727L311.748,584.678L311.671,584.63L311.593,584.582L311.515,584.535L311.436,584.489L311.355,584.444L311.275,584.4L311.193,584.356L311.112,584.314L311.03,584.273L310.947,584.233L310.863,584.193L310.779,584.154L310.694,584.117L310.609,584.08L310.524,584.044L310.437,584.01L310.351,583.976L310.263,583.943L310.175,583.911L310.087,583.881L309.998,583.851L309.909,583.823L309.818,583.795L309.728,583.768L309.638,583.743L309.546,583.718L309.454,583.694L309.362,583.672L309.269,583.651L309.176,583.631L309.082,583.612L308.988,583.594L308.894,583.577L308.798,583.561L308.702,583.546L308.607,583.532L308.511,583.52L308.414,583.509L308.317,583.499L308.219,583.49L308.121,583.482L308.023,583.475L307.924,583.47L307.825,583.465L307.726,583.462L307.625,583.461L307.525,583.46L307.425,583.461Z" style="fill:rgb(75,255,61);"/>
    </g>
    <g transform="matrix(0.944088,0,0,0.944088,129.216,32.1983)">
        <ellipse cx="307.525" cy="590.752" rx="10.284" ry="9.94" style="fill:rgb(172,251,159);"/>
        <path d="M307.658,580.813L307.79,580.815L307.922,580.819L308.054,580.825L308.185,580.832L308.316,580.841L308.446,580.851L308.576,580.863L308.705,580.877L308.834,580.892L308.962,580.908L309.09,580.926L309.218,580.946L309.344,580.967L309.471,580.99L309.596,581.014L309.722,581.039L309.846,581.067L309.97,581.095L310.094,581.125L310.217,581.156L310.339,581.189L310.461,581.223L310.582,581.259L310.702,581.296L310.822,581.334L310.941,581.374L311.059,581.415L311.177,581.458L311.294,581.502L311.411,581.547L311.526,581.593L311.641,581.641L311.756,581.69L311.869,581.741L311.982,581.793L312.094,581.846L312.205,581.9L312.316,581.955L312.425,582.012L312.534,582.07L312.642,582.13L312.75,582.19L312.856,582.252L312.962,582.315L313.066,582.379L313.17,582.444L313.273,582.51L313.375,582.578L313.477,582.647L313.577,582.717L313.676,582.788L313.775,582.86L313.873,582.933L313.969,583.007L314.065,583.083L314.16,583.159L314.254,583.237L314.346,583.316L314.438,583.395L314.529,583.476L314.619,583.558L314.708,583.641L314.796,583.725L314.882,583.809L314.968,583.895L315.053,583.982L315.136,584.07L315.219,584.159L315.3,584.248L315.38,584.339L315.459,584.431L315.538,584.523L315.614,584.617L315.69,584.711L315.765,584.806L315.838,584.902L315.911,584.999L315.982,585.097L316.052,585.196L316.12,585.296L316.188,585.396L316.254,585.497L316.319,585.599L316.383,585.702L316.446,585.806L316.507,585.91L316.567,586.016L316.626,586.122L316.683,586.228L316.739,586.336L316.794,586.444L316.848,586.553L316.9,586.663L316.951,586.773L317,586.884L317.049,586.996L317.095,587.109L317.141,587.222L317.185,587.336L317.227,587.45L317.268,587.565L317.308,587.681L317.346,587.797L317.383,587.914L317.419,588.032L317.453,588.15L317.485,588.269L317.516,588.388L317.546,588.508L317.574,588.629L317.6,588.75L317.625,588.871L317.648,588.993L317.67,589.116L317.691,589.239L317.709,589.363L317.726,589.487L317.742,589.611L317.756,589.736L317.768,589.862L317.779,589.988L317.788,590.114L317.796,590.241L317.802,590.368L317.806,590.496L317.808,590.624L317.809,590.752L317.808,590.88L317.806,591.008L317.802,591.136L317.796,591.263L317.788,591.39L317.779,591.516L317.768,591.642L317.756,591.768L317.742,591.893L317.726,592.017L317.709,592.141L317.691,592.265L317.67,592.388L317.648,592.511L317.625,592.633L317.6,592.754L317.574,592.875L317.546,592.996L317.516,593.116L317.485,593.235L317.453,593.354L317.419,593.472L317.383,593.59L317.346,593.707L317.308,593.823L317.268,593.939L317.227,594.054L317.185,594.168L317.141,594.282L317.095,594.395L317.049,594.508L317,594.62L316.951,594.731L316.9,594.841L316.848,594.951L316.794,595.06L316.739,595.168L316.683,595.276L316.626,595.383L316.567,595.489L316.507,595.594L316.446,595.698L316.383,595.802L316.319,595.905L316.254,596.007L316.188,596.108L316.12,596.209L316.052,596.308L315.982,596.407L315.911,596.505L315.838,596.602L315.765,596.698L315.69,596.793L315.614,596.887L315.538,596.981L315.459,597.073L315.38,597.165L315.3,597.256L315.219,597.345L315.136,597.434L315.053,597.522L314.968,597.609L314.882,597.695L314.796,597.779L314.708,597.863L314.619,597.946L314.529,598.028L314.438,598.109L314.346,598.188L314.254,598.267L314.16,598.345L314.065,598.421L313.969,598.497L313.873,598.571L313.775,598.644L313.676,598.716L313.577,598.787L313.477,598.857L313.375,598.926L313.273,598.994L313.17,599.06L313.066,599.125L312.962,599.189L312.856,599.252L312.75,599.314L312.642,599.375L312.534,599.434L312.425,599.492L312.316,599.549L312.205,599.604L312.094,599.658L311.982,599.711L311.869,599.763L311.756,599.814L311.641,599.863L311.526,599.911L311.411,599.957L311.294,600.002L311.177,600.046L311.059,600.089L310.941,600.13L310.822,600.17L310.702,600.208L310.582,600.245L310.461,600.281L310.339,600.315L310.217,600.348L310.094,600.379L309.97,600.409L309.846,600.438L309.722,600.465L309.596,600.49L309.471,600.514L309.344,600.537L309.218,600.558L309.09,600.578L308.962,600.596L308.834,600.612L308.705,600.627L308.576,600.641L308.446,600.653L308.316,600.663L308.185,600.672L308.054,600.679L307.922,600.685L307.79,600.689L307.658,600.691L307.525,600.692L307.392,600.691L307.26,600.689L307.128,600.685L306.996,600.679L306.865,600.672L306.734,600.663L306.604,600.653L306.474,600.641L306.345,600.627L306.216,600.612L306.088,600.596L305.96,600.578L305.832,600.558L305.705,600.537L305.579,600.514L305.453,600.49L305.328,600.465L305.204,600.438L305.08,600.409L304.956,600.379L304.833,600.348L304.711,600.315L304.589,600.281L304.468,600.245L304.348,600.208L304.228,600.17L304.109,600.13L303.99,600.089L303.873,600.046L303.756,600.002L303.639,599.957L303.523,599.911L303.409,599.863L303.294,599.814L303.181,599.763L303.068,599.711L302.956,599.658L302.845,599.604L302.734,599.549L302.625,599.492L302.516,599.434L302.408,599.375L302.3,599.314L302.194,599.252L302.088,599.189L301.984,599.125L301.88,599.06L301.777,598.994L301.674,598.926L301.573,598.857L301.473,598.787L301.373,598.716L301.275,598.644L301.177,598.571L301.081,598.497L300.985,598.421L300.89,598.345L300.796,598.267L300.703,598.188L300.612,598.109L300.521,598.028L300.431,597.946L300.342,597.863L300.254,597.779L300.168,597.695L300.082,597.609L299.997,597.522L299.914,597.434L299.831,597.345L299.75,597.256L299.67,597.165L299.59,597.073L299.512,596.981L299.435,596.887L299.36,596.793L299.285,596.698L299.212,596.602L299.139,596.505L299.068,596.407L298.998,596.308L298.929,596.209L298.862,596.108L298.796,596.007L298.731,595.905L298.667,595.802L298.604,595.698L298.543,595.594L298.483,595.489L298.424,595.383L298.367,595.276L298.31,595.168L298.256,595.06L298.202,594.951L298.15,594.841L298.099,594.731L298.049,594.62L298.001,594.508L297.955,594.395L297.909,594.282L297.865,594.168L297.823,594.054L297.782,593.939L297.742,593.823L297.703,593.707L297.667,593.59L297.631,593.472L297.597,593.354L297.565,593.235L297.534,593.116L297.504,592.996L297.476,592.875L297.45,592.754L297.425,592.633L297.402,592.511L297.38,592.388L297.359,592.265L297.341,592.141L297.323,592.017L297.308,591.893L297.294,591.768L297.282,591.642L297.271,591.516L297.262,591.39L297.254,591.263L297.248,591.136L297.244,591.008L297.242,590.88L297.241,590.752L297.242,590.624L297.244,590.496L297.248,590.368L297.254,590.241L297.262,590.114L297.271,589.988L297.282,589.862L297.294,589.736L297.308,589.611L297.323,589.487L297.341,589.363L297.359,589.239L297.38,589.116L297.402,588.993L297.425,588.871L297.45,588.75L297.476,588.629L297.504,588.508L297.534,588.388L297.565,588.269L297.597,588.15L297.631,588.032L297.667,587.914L297.703,587.797L297.742,587.681L297.782,587.565L297.823,587.45L297.865,587.336L297.909,587.222L297.955,587.109L298.001,586.996L298.049,586.884L298.099,586.773L298.15,586.663L298.202,586.553L298.256,586.444L298.31,586.336L298.367,586.228L298.424,586.122L298.483,586.016L298.543,585.91L298.604,585.806L298.667,585.702L298.731,585.599L298.796,585.497L298.862,585.396L298.929,585.296L298.998,585.196L299.068,585.097L299.139,584.999L299.212,584.902L299.285,584.806L299.36,584.711L299.435,584.617L299.512,584.523L299.59,584.431L299.67,584.339L299.75,584.248L299.831,584.159L299.914,584.07L299.997,583.982L300.082,583.895L300.168,583.809L300.254,583.725L300.342,583.641L300.431,583.558L300.521,583.476L300.612,583.395L300.703,583.316L300.796,583.237L300.89,583.159L300.985,583.083L301.081,583.007L301.177,582.933L301.275,582.86L301.373,582.788L301.473,582.717L301.573,582.647L301.674,582.578L301.777,582.51L301.88,582.444L301.984,582.379L302.088,582.315L302.194,582.252L302.3,582.19L302.408,582.13L302.516,582.07L302.625,582.012L302.734,581.955L302.845,581.9L302.956,581.846L303.068,581.793L303.181,581.741L303.294,581.69L303.409,581.641L303.523,581.593L303.639,581.547L303.756,581.502L303.873,581.458L303.99,581.415L304.109,581.374L304.228,581.334L304.348,581.296L304.468,581.259L304.589,581.223L304.711,581.189L304.833,581.156L304.956,581.125L305.08,581.095L305.204,581.067L305.328,581.039L305.453,581.014L305.579,580.99L305.705,580.967L305.832,580.946L305.96,580.926L306.088,580.908L306.216,580.892L306.345,580.877L306.474,580.863L306.604,580.851L306.734,580.841L306.865,580.832L306.996,580.825L307.128,580.819L307.26,580.815L307.392,580.813L307.525,580.812L307.658,580.813ZM307.425,583.461L307.324,583.462L307.224,583.465L307.126,583.47L307.027,583.475L306.929,583.482L306.831,583.49L306.733,583.499L306.636,583.509L306.539,583.52L306.443,583.532L306.348,583.546L306.252,583.561L306.156,583.577L306.062,583.594L305.968,583.612L305.874,583.631L305.781,583.651L305.688,583.672L305.596,583.694L305.504,583.718L305.412,583.743L305.322,583.768L305.232,583.795L305.141,583.823L305.051,583.851L304.963,583.881L304.875,583.911L304.787,583.943L304.699,583.976L304.613,584.01L304.526,584.044L304.44,584.08L304.356,584.117L304.271,584.154L304.187,584.193L304.103,584.233L304.02,584.273L303.938,584.314L303.856,584.356L303.775,584.4L303.695,584.444L303.614,584.489L303.535,584.535L303.457,584.582L303.379,584.629L303.301,584.678L303.225,584.727L303.149,584.778L303.074,584.829L302.999,584.881L302.925,584.933L302.852,584.987L302.779,585.042L302.708,585.097L302.637,585.153L302.566,585.21L302.496,585.267L302.427,585.326L302.359,585.385L302.292,585.445L302.226,585.505L302.16,585.567L302.095,585.629L302.031,585.691L301.967,585.755L301.904,585.819L301.843,585.884L301.782,585.95L301.722,586.015L301.663,586.083L301.604,586.151L301.546,586.219L301.49,586.287L301.434,586.357L301.379,586.427L301.325,586.498L301.272,586.569L301.22,586.641L301.168,586.713L301.118,586.787L301.069,586.86L301.02,586.934L300.972,587.009L300.925,587.085L300.88,587.16L300.835,587.237L300.791,587.314L300.748,587.391L300.706,587.469L300.665,587.547L300.625,587.626L300.586,587.706L300.548,587.785L300.511,587.866L300.475,587.947L300.44,588.028L300.406,588.109L300.373,588.192L300.341,588.275L300.31,588.358L300.281,588.441L300.252,588.525L300.224,588.609L300.197,588.694L300.172,588.779L300.147,588.865L300.124,588.951L300.101,589.037L300.08,589.124L300.06,589.212L300.04,589.299L300.022,589.387L300.005,589.475L299.99,589.564L299.975,589.653L299.961,589.743L299.949,589.832L299.938,589.923L299.928,590.013L299.919,590.105L299.911,590.196L299.904,590.288L299.899,590.38L299.894,590.472L299.891,590.565L299.889,590.659L299.889,590.752L299.889,590.846L299.891,590.939L299.894,591.032L299.899,591.124L299.904,591.217L299.911,591.308L299.919,591.4L299.928,591.491L299.938,591.582L299.949,591.672L299.961,591.762L299.975,591.851L299.99,591.94L300.005,592.029L300.022,592.117L300.04,592.205L300.06,592.293L300.08,592.38L300.101,592.467L300.124,592.553L300.147,592.639L300.172,592.725L300.197,592.81L300.224,592.895L300.252,592.979L300.281,593.063L300.31,593.146L300.341,593.229L300.373,593.312L300.406,593.395L300.44,593.476L300.475,593.558L300.511,593.638L300.548,593.719L300.586,593.798L300.625,593.878L300.665,593.957L300.706,594.035L300.748,594.113L300.791,594.19L300.835,594.268L300.88,594.344L300.926,594.42L300.972,594.495L301.02,594.57L301.068,594.644L301.118,594.718L301.169,594.791L301.22,594.863L301.272,594.935L301.325,595.006L301.379,595.077L301.434,595.147L301.49,595.217L301.546,595.285L301.604,595.353L301.663,595.421L301.722,595.489L301.782,595.555L301.843,595.62L301.904,595.685L301.967,595.749L302.031,595.813L302.095,595.875L302.16,595.937L302.226,595.999L302.292,596.059L302.359,596.119L302.427,596.178L302.497,596.237L302.566,596.294L302.636,596.351L302.708,596.407L302.779,596.463L302.852,596.517L302.925,596.57L302.999,596.623L303.074,596.675L303.149,596.726L303.225,596.777L303.301,596.826L303.379,596.875L303.457,596.923L303.535,596.969L303.614,597.015L303.695,597.06L303.775,597.104L303.856,597.148L303.938,597.19L304.02,597.231L304.103,597.272L304.187,597.311L304.271,597.35L304.356,597.388L304.44,597.424L304.526,597.46L304.613,597.494L304.699,597.528L304.787,597.561L304.875,597.593L304.963,597.623L305.051,597.653L305.141,597.682L305.232,597.709L305.322,597.736L305.413,597.761L305.504,597.786L305.596,597.809L305.688,597.832L305.781,597.853L305.874,597.873L305.968,597.893L306.062,597.911L306.157,597.928L306.252,597.943L306.347,597.958L306.443,597.972L306.539,597.984L306.636,597.995L306.733,598.006L306.831,598.015L306.929,598.022L307.027,598.029L307.126,598.034L307.225,598.039L307.324,598.042L307.424,598.044L307.525,598.044L307.626,598.044L307.726,598.042L307.825,598.039L307.924,598.034L308.023,598.029L308.121,598.022L308.219,598.015L308.317,598.006L308.414,597.995L308.511,597.984L308.607,597.972L308.703,597.958L308.798,597.943L308.893,597.928L308.988,597.911L309.082,597.893L309.176,597.873L309.269,597.853L309.362,597.832L309.454,597.809L309.546,597.786L309.637,597.761L309.728,597.736L309.818,597.709L309.909,597.682L309.998,597.653L310.087,597.623L310.175,597.593L310.263,597.561L310.351,597.528L310.437,597.494L310.524,597.46L310.609,597.424L310.694,597.388L310.779,597.35L310.863,597.311L310.947,597.272L311.03,597.231L311.112,597.19L311.193,597.148L311.275,597.104L311.355,597.06L311.436,597.015L311.515,596.969L311.593,596.922L311.671,596.875L311.748,596.826L311.825,596.777L311.901,596.726L311.976,596.675L312.051,596.623L312.125,596.57L312.198,596.517L312.27,596.463L312.342,596.407L312.414,596.351L312.484,596.294L312.553,596.237L312.623,596.178L312.69,596.12L312.758,596.059L312.825,595.999L312.89,595.937L312.955,595.875L313.019,595.813L313.083,595.749L313.146,595.685L313.207,595.62L313.268,595.555L313.328,595.488L313.387,595.421L313.446,595.354L313.503,595.286L313.56,595.217L313.616,595.147L313.671,595.077L313.725,595.006L313.778,594.935L313.83,594.863L313.881,594.791L313.932,594.717L313.982,594.644L314.03,594.57L314.078,594.495L314.124,594.42L314.17,594.344L314.215,594.268L314.259,594.191L314.302,594.113L314.344,594.035L314.385,593.957L314.425,593.878L314.464,593.799L314.502,593.719L314.539,593.638L314.575,593.558L314.61,593.476L314.644,593.394L314.677,593.312L314.708,593.23L314.739,593.146L314.769,593.063L314.798,592.979L314.826,592.895L314.853,592.81L314.878,592.725L314.903,592.639L314.926,592.553L314.949,592.467L314.97,592.38L314.99,592.293L315.009,592.205L315.027,592.117L315.044,592.029L315.06,591.94L315.075,591.851L315.089,591.762L315.101,591.672L315.112,591.581L315.122,591.491L315.131,591.4L315.139,591.309L315.146,591.216L315.151,591.124L315.155,591.032L315.159,590.939L315.16,590.846L315.161,590.752L315.16,590.658L315.159,590.565L315.155,590.472L315.151,590.38L315.146,590.288L315.139,590.196L315.131,590.104L315.122,590.013L315.112,589.923L315.101,589.833L315.089,589.743L315.075,589.653L315.06,589.564L315.044,589.475L315.027,589.387L315.009,589.299L314.99,589.211L314.97,589.124L314.949,589.037L314.926,588.951L314.903,588.865L314.878,588.779L314.852,588.694L314.826,588.609L314.798,588.525L314.769,588.441L314.739,588.358L314.708,588.274L314.677,588.192L314.644,588.11L314.61,588.028L314.575,587.947L314.539,587.866L314.502,587.785L314.464,587.705L314.425,587.626L314.385,587.548L314.344,587.469L314.302,587.391L314.259,587.313L314.215,587.237L314.17,587.16L314.125,587.085L314.078,587.009L314.03,586.934L313.981,586.86L313.932,586.787L313.882,586.714L313.83,586.641L313.778,586.569L313.725,586.498L313.671,586.427L313.616,586.357L313.56,586.287L313.503,586.218L313.446,586.15L313.387,586.083L313.328,586.016L313.268,585.95L313.207,585.884L313.146,585.819L313.083,585.755L313.019,585.691L312.955,585.629L312.89,585.567L312.825,585.505L312.758,585.445L312.69,585.385L312.623,585.326L312.554,585.267L312.484,585.21L312.413,585.153L312.342,585.097L312.271,585.042L312.198,584.987L312.125,584.933L312.051,584.881L311.976,584.829L311.901,584.778L311.825,584.728L311.748,584.678L311.671,584.629L311.593,584.582L311.515,584.535L311.436,584.489L311.355,584.444L311.275,584.4L311.193,584.356L311.112,584.314L311.03,584.273L310.947,584.233L310.863,584.193L310.779,584.154L310.694,584.117L310.609,584.08L310.524,584.044L310.437,584.01L310.351,583.976L310.263,583.943L310.175,583.911L310.087,583.881L309.998,583.851L309.909,583.823L309.818,583.795L309.728,583.768L309.638,583.743L309.546,583.718L309.454,583.694L309.362,583.672L309.269,583.651L309.176,583.631L309.082,583.612L308.988,583.593L308.894,583.577L308.798,583.561L308.702,583.546L308.607,583.532L308.511,583.52L308.414,583.509L308.317,583.499L308.219,583.49L308.121,583.482L308.023,583.475L307.924,583.47L307.825,583.465L307.726,583.462L307.625,583.461L307.525,583.46L307.425,583.461Z" style="fill:rgb(75,255,61);"/>
    </g>
</svg>
