<?xml version="1.0" encoding="UTF-8" standalone="no"?>
<!DOCTYPE svg PUBLIC "-//W3C//DTD SVG 1.1//EN" "http://www.w3.org/Graphics/SVG/1.1/DTD/svg11.dtd">
<svg width="100%" height="100%" viewBox="0 0 1280 1150" version="1.1" xmlns="http://www.w3.org/2000/svg" xmlns:xlink="http://www.w3.org/1999/xlink" xml:space="preserve" style="fill-rule:evenodd;clip-rule:evenodd;stroke-linecap:round;stroke-linejoin:round;stroke-miterlimit:1.41421;">
    <g id="dir825" transform="matrix(1,0,0,1,-37.741,12.2377)">
        <g id="Antenne-links">
            <path d="M169.866,133.346L164.244,106.763C159.59,84.762 184.874,77.029 191.546,99.778L196.675,125.886L230.472,280.61L219.928,294.193L203.173,285.937L169.866,133.346Z" style="fill:rgb(236,237,241);stroke-width:1px;stroke:black;"/>
            <path d="M199.762,280.61C210.38,282.099 221.23,280.266 232.362,274.424L274.157,424.273L309.114,577.708L248.703,577.708L221.647,435.582L199.762,280.61Z" style="fill:rgb(236,237,241);stroke-width:1px;stroke:black;"/>
            <path d="M244.709,554.675C264.968,556.918 283.753,552.95 301.048,542.701" style="fill:none;stroke-width:1px;stroke-linecap:butt;stroke:rgb(166,166,166);"/>
            <g transform="matrix(1.00943,0,0,1.02627,-1.74329,-2.05084)">
                <path d="M170.361,132.973C179.542,132.677 188.433,130.749 196.969,126.854" style="fill:none;stroke-width:1.96px;stroke-linecap:butt;stroke:rgb(115,115,115);"/>
            </g>
            <path d="M222.378,437.354C240.704,437.823 258.141,434.255 274.279,424.79" style="fill:none;stroke-width:2px;stroke-linecap:butt;stroke:rgb(115,115,115);"/>
            <g transform="matrix(1.00799,0,0,1.02459,1.11684,4.73849)">
                <path d="M222.378,437.354C240.704,437.823 258.141,434.255 274.279,424.79" style="fill:none;stroke-width:1.97px;stroke-linecap:butt;stroke:rgb(115,115,115);"/>
            </g>
            <g transform="matrix(1.02354,0,0,1.01106,0.400417,26.439)">
                <path d="M222.378,437.354C240.704,437.823 258.141,434.255 274.279,424.79" style="fill:none;stroke-width:1.97px;stroke-linecap:butt;stroke:rgb(115,115,115);"/>
            </g>
            <path d="M199.762,280.61C210.38,282.099 221.23,280.266 232.362,274.424L274.157,424.273L309.114,577.708L248.703,577.708L221.647,435.582L199.762,280.61Z" style="fill:none;stroke-width:1px;stroke:black;"/>
            <path d="M169.866,133.346L164.244,106.763C159.59,84.762 184.874,77.029 191.546,99.778L196.675,125.886L229.431,275.863C220.842,279.817 211.801,281.823 202.077,280.877L169.866,133.346Z" style="fill:none;stroke-width:1px;stroke:black;"/>
        </g>
        <g id="Antenne-links1" transform="matrix(-1,0,0,1,1340.32,0)">
            <path d="M169.866,133.346L164.244,106.763C159.59,84.762 184.874,77.029 191.546,99.778L196.675,125.886L230.472,280.61L219.928,294.193L203.173,285.937L169.866,133.346Z" style="fill:rgb(236,237,241);stroke-width:1px;stroke:black;"/>
            <path d="M199.762,280.61C210.38,282.099 221.23,280.266 232.362,274.424L274.157,424.273L309.114,577.708L248.703,577.708L221.647,435.582L199.762,280.61Z" style="fill:rgb(236,237,241);stroke-width:1px;stroke:black;"/>
            <path d="M244.709,554.675C264.968,556.918 283.753,552.95 301.048,542.701" style="fill:none;stroke-width:1px;stroke-linecap:butt;stroke:rgb(166,166,166);"/>
            <g transform="matrix(1.00943,0,0,1.02627,-1.74329,-2.05084)">
                <path d="M170.361,132.973C179.542,132.677 188.433,130.749 196.969,126.854" style="fill:none;stroke-width:1.96px;stroke-linecap:butt;stroke:rgb(115,115,115);"/>
            </g>
            <path d="M222.378,437.354C240.704,437.823 258.141,434.255 274.279,424.79" style="fill:none;stroke-width:2px;stroke-linecap:butt;stroke:rgb(115,115,115);"/>
            <g transform="matrix(1.00799,0,0,1.02459,1.11684,4.73849)">
                <path d="M222.378,437.354C240.704,437.823 258.141,434.255 274.279,424.79" style="fill:none;stroke-width:1.97px;stroke-linecap:butt;stroke:rgb(115,115,115);"/>
            </g>
            <g transform="matrix(1.02354,0,0,1.01106,0.400417,26.439)">
                <path d="M222.378,437.354C240.704,437.823 258.141,434.255 274.279,424.79" style="fill:none;stroke-width:1.97px;stroke-linecap:butt;stroke:rgb(115,115,115);"/>
            </g>
            <path d="M199.762,280.61C210.38,282.099 221.23,280.266 232.362,274.424L274.157,424.273L309.114,577.708L248.703,577.708L221.647,435.582L199.762,280.61Z" style="fill:none;stroke-width:1px;stroke:black;"/>
            <path d="M169.866,133.346L164.244,106.763C159.59,84.762 184.874,77.029 191.546,99.778L196.675,125.886L229.431,275.863C220.842,279.817 211.801,281.823 202.077,280.877L169.866,133.346Z" style="fill:none;stroke-width:1px;stroke:black;"/>
        </g>
        <path d="M176.197,600.5L147.875,683.991L160.978,617.481C162.926,607.904 176.197,600.5 176.197,600.5Z" style="fill:rgb(31,31,36);stroke-width:3px;stroke:black;"/>
        <path d="M110.387,815.876L111.72,841.941L100.055,835.586L106.629,816.998L110.387,815.876Z" style="fill:rgb(13,13,13);stroke-width:1px;stroke:black;"/>
        <g transform="matrix(-1.05893,0,0,1.13455,1371.56,-109.776)">
            <path d="M110.387,815.876L111.72,841.941L100.055,835.586L106.629,816.998L110.387,815.876Z" style="fill:rgb(13,13,13);stroke-width:0.91px;stroke:black;"/>
        </g>
        <path d="M1168.07,600.215C1173.09,601.815 1177.42,606.259 1180.1,613.406C1193.94,650.329 1195.06,658.791 1195.53,665.814C1182.71,644.413 1171.7,622.783 1168.07,600.215" style="fill:rgb(31,31,36);stroke-width:1px;stroke:black;"/>
        <g id="Hülle-weis">
            <path d="M120.999,950.986C118.585,916.259 112.911,870.477 110.601,837.984C109.38,820.814 109.813,806.405 110.601,801.372C111.598,794.998 112.628,788.625 114.668,782.304L1246.9,782.304C1253.41,794.758 1256.78,805.71 1255.89,814.606L1250.58,932.809C1249.54,955.896 1244.26,964.598 1227.57,964.598L155.411,964.598C135.56,964.596 122.774,960.77 120.999,950.986Z" style="fill:rgb(233,235,238);stroke-width:3px;stroke:black;"/>
            <path d="M233.297,574.52C206.834,574.698 181.682,581.983 177.037,595.866L114.668,782.304C110.453,794.902 113.733,797.464 128.123,797.422C496.886,796.331 867.873,797.351 1236.72,801.818C1253.58,802.022 1254.05,799.044 1246.81,782.304L1166.2,595.866C1158.54,578.145 1142.62,572.849 1126.22,572.677C828.149,569.538 531.472,572.509 233.297,574.52Z" style="fill:rgb(236,237,241);stroke-width:3px;stroke:black;"/>
        </g>
        <path d="M101.298,913.374C101.925,918.845 118.04,927.562 132.651,927.588C500.652,933.392 870.995,934.521 1239.99,930.404C1253.66,930.252 1266.31,921.156 1266.55,915.045L1270.55,839.336L1244.3,847.614C877.25,852.059 511.621,851.304 146.797,847.614C120.986,846.771 104.33,842.982 101.298,834.807L96.689,834.807L101.298,913.374" style="fill:rgb(33,32,32);stroke-width:1px;stroke:black;"/>
        <path d="M1256.19,804.513C1262.98,815.814 1269.94,827.223 1270.55,839.336C1269.88,848.458 1255.93,850.673 1242.26,851.754C872.342,856.663 502.536,855.437 132.814,849.589C110.209,849.232 95.605,838.764 96.7,834.392C99.766,822.148 104.287,811.566 109.33,799.79L109.33,818.782C107.063,822.775 104.031,827.804 104.687,833.395C105.101,836.93 113.422,842.758 132.814,842.981C502.606,847.239 872.419,847.42 1242.26,842.981C1252.8,842.855 1262.67,839.702 1262.32,835.717C1261.69,828.372 1257.94,825.208 1256.19,821.025L1256.19,804.513Z" style="fill:rgb(43,42,45);stroke-width:1px;stroke:black;"/>
        <g id="Panel">
            <path d="M1221.03,854.776L1221.03,924.913C864.049,926.265 507.042,925.477 149.995,921.915L149.995,854.776C506.973,856.985 863.985,856.859 1221.03,854.776Z" style="fill:rgb(13,13,13);"/>
            <g transform="matrix(1,0,0,1,1.04255,0.247197)">
                <path d="M563.701,908.63L563.701,910.486L557.722,910.486L557.722,908.933C559.493,906.037 560.546,904.244 560.88,903.556C561.214,902.868 561.381,902.331 561.381,901.946C561.381,901.65 561.33,901.429 561.229,901.283C561.129,901.138 560.975,901.065 560.769,901.065C560.563,901.065 560.409,901.145 560.308,901.307C560.207,901.468 560.157,901.789 560.157,902.268L560.157,903.304L557.722,903.304L557.722,902.907C557.722,902.298 557.754,901.817 557.817,901.465C557.879,901.113 558.034,900.767 558.281,900.426C558.527,900.085 558.848,899.827 559.242,899.652C559.637,899.478 560.11,899.39 560.661,899.39C561.742,899.39 562.559,899.658 563.112,900.194C563.666,900.73 563.943,901.408 563.943,902.228C563.943,902.851 563.787,903.51 563.476,904.205C563.164,904.9 562.246,906.375 560.722,908.63L563.701,908.63Z" style="fill:rgb(30,131,188);fill-rule:nonzero;"/>
                <rect x="564.515" y="908.267" width="2.051" height="2.219" style="fill:rgb(30,131,188);fill-rule:nonzero;"/>
                <path d="M572.84,899.599L572.84,906.714L573.613,906.714L573.613,908.57L572.84,908.57L572.84,910.486L570.123,910.486L570.123,908.57L566.895,908.57L566.895,906.714L569.242,899.599L572.84,899.599ZM570.123,906.714L570.123,902.08L568.926,906.714L570.123,906.714Z" style="fill:rgb(30,131,188);fill-rule:nonzero;"/>
                <path d="M580.755,903.607L577.924,903.607L577.924,902.618C577.924,901.995 577.897,901.605 577.844,901.448C577.79,901.291 577.662,901.213 577.46,901.213C577.285,901.213 577.167,901.28 577.104,901.414C577.041,901.549 577.01,901.894 577.01,902.45L577.01,907.675C577.01,908.164 577.041,908.486 577.104,908.64C577.167,908.795 577.292,908.872 577.48,908.872C577.687,908.872 577.827,908.785 577.901,908.61C577.975,908.435 578.012,908.095 578.012,907.588L578.012,906.297L577.44,906.297L577.44,904.642L580.755,904.642L580.755,910.486L578.973,910.486L578.711,909.706C578.518,910.043 578.275,910.295 577.981,910.463C577.688,910.631 577.341,910.715 576.942,910.715C576.467,910.715 576.022,910.6 575.607,910.369C575.193,910.138 574.878,909.852 574.663,909.511C574.447,909.171 574.313,908.813 574.259,908.439C574.205,908.064 574.178,907.503 574.178,906.754L574.178,903.519C574.178,902.479 574.234,901.724 574.347,901.253C574.459,900.782 574.78,900.351 575.312,899.958C575.843,899.566 576.53,899.37 577.373,899.37C578.202,899.37 578.89,899.54 579.437,899.881C579.984,900.222 580.341,900.626 580.507,901.095C580.672,901.563 580.755,902.244 580.755,903.136L580.755,903.607Z" style="fill:rgb(30,131,188);fill-rule:nonzero;"/>
                <path d="M588.361,899.599L588.361,910.486L585.53,910.486L585.53,905.913L584.683,905.913L584.683,910.486L581.852,910.486L581.852,899.599L584.683,899.599L584.683,903.492L585.53,903.492L585.53,899.599L588.361,899.599Z" style="fill:rgb(30,131,188);fill-rule:nonzero;"/>
                <path d="M593.647,901.562L593.647,903.539L591.643,908.698L593.647,908.698L593.647,910.486L589.014,910.486L589.014,908.617L591.065,903.351L589.222,903.351L589.222,901.562L593.647,901.562Z" style="fill:rgb(30,131,188);fill-rule:nonzero;"/>
            </g>
            <g id="wifi-24">
                <path d="M583.704,877.35C579.342,880.851 579.061,884.304 583.704,887.698" style="fill:none;stroke-width:3px;stroke:rgb(30,131,188);"/>
                <g transform="matrix(1,0,0,1.65524,-4.42331,-577.945)">
                    <path d="M583.704,877.35C576.669,881.136 577.989,884.522 583.704,887.698" style="fill:none;stroke-width:2.19px;stroke:rgb(30,131,188);"/>
                </g>
                <g transform="matrix(1,0,0,2.36111,-8.1293,-1200.91)">
                    <path d="M583.704,877.35C574.689,880.758 575.623,884.212 583.704,887.698" style="fill:none;stroke-width:1.65px;stroke:rgb(30,131,188);"/>
                </g>
            </g>
            <g transform="matrix(1,0,0,1,81.0844,0.247197)">
                <path d="M563.775,899.599L563.775,901.34L560.406,901.34L560.406,903.19C560.827,902.692 561.37,902.443 562.033,902.443C562.782,902.443 563.348,902.653 563.731,903.072C564.114,903.491 564.306,904.297 564.306,905.49L564.306,907.043C564.306,907.814 564.269,908.38 564.195,908.741C564.121,909.102 563.963,909.436 563.721,909.743C563.479,910.05 563.142,910.286 562.709,910.449C562.276,910.613 561.748,910.695 561.125,910.695C560.426,910.695 559.809,910.573 559.276,910.328C558.742,910.084 558.363,909.72 558.139,909.236C557.915,908.751 557.803,908.003 557.803,906.989L557.803,906.398L560.52,906.398L560.52,907.077C560.52,907.781 560.545,908.281 560.594,908.576C560.643,908.872 560.814,909.02 561.105,909.02C561.24,909.02 561.348,908.978 561.431,908.893C561.514,908.807 561.559,908.715 561.566,908.617C561.572,908.518 561.58,908.09 561.589,907.332L561.589,905.174C561.589,904.766 561.547,904.488 561.461,904.34C561.376,904.192 561.235,904.118 561.038,904.118C560.912,904.118 560.807,904.156 560.722,904.232C560.637,904.308 560.582,904.39 560.557,904.478C560.532,904.565 560.52,904.768 560.52,905.086L557.83,905.086L557.944,899.599L563.775,899.599Z" style="fill:rgb(30,131,188);fill-rule:nonzero;"/>
                <path d="M571.811,903.607L568.98,903.607L568.98,902.618C568.98,901.995 568.953,901.605 568.899,901.448C568.845,901.291 568.718,901.213 568.516,901.213C568.341,901.213 568.222,901.28 568.16,901.414C568.097,901.549 568.065,901.894 568.065,902.45L568.065,907.675C568.065,908.164 568.097,908.486 568.16,908.64C568.222,908.795 568.348,908.872 568.536,908.872C568.742,908.872 568.882,908.785 568.956,908.61C569.03,908.435 569.067,908.095 569.067,907.588L569.067,906.297L568.496,906.297L568.496,904.642L571.811,904.642L571.811,910.486L570.029,910.486L569.767,909.706C569.574,910.043 569.331,910.295 569.037,910.463C568.743,910.631 568.397,910.715 567.998,910.715C567.523,910.715 567.078,910.6 566.663,910.369C566.249,910.138 565.934,909.852 565.718,909.511C565.503,909.171 565.369,908.813 565.315,908.439C565.261,908.064 565.234,907.503 565.234,906.754L565.234,903.519C565.234,902.479 565.29,901.724 565.402,901.253C565.514,900.782 565.836,900.351 566.367,899.958C566.899,899.566 567.586,899.37 568.429,899.37C569.258,899.37 569.946,899.54 570.493,899.881C571.04,900.222 571.396,900.626 571.562,901.095C571.728,901.563 571.811,902.244 571.811,903.136L571.811,903.607Z" style="fill:rgb(30,131,188);fill-rule:nonzero;"/>
                <path d="M579.417,899.599L579.417,910.486L576.586,910.486L576.586,905.913L575.739,905.913L575.739,910.486L572.907,910.486L572.907,899.599L575.739,899.599L575.739,903.492L576.586,903.492L576.586,899.599L579.417,899.599Z" style="fill:rgb(30,131,188);fill-rule:nonzero;"/>
                <path d="M584.703,901.562L584.703,903.539L582.699,908.698L584.703,908.698L584.703,910.486L580.069,910.486L580.069,908.617L582.121,903.351L580.278,903.351L580.278,901.562L584.703,901.562Z" style="fill:rgb(30,131,188);fill-rule:nonzero;"/>
            </g>
            <g id="lan1">
                <path d="M708.783,902.086L733.833,902.086L728.883,897.731L728.883,894.944C730.839,894.944 732.15,893.904 732.15,891.98L732.15,880.01C732.15,877.898 730.851,877.131 728.883,877.131L712.136,877.131C710.239,877.131 708.783,878.666 708.783,880.01L708.783,891.98C708.783,893.648 710.353,894.944 712.136,894.944L712.136,897.731L708.783,902.086Z" style="fill:rgb(32,130,185);stroke-width:0.55px;stroke:rgb(30,131,188);"/>
                <path d="M711.861,895.209L729.158,895.212L729.158,897.607L711.861,897.637L711.861,895.209Z" style="fill:rgb(41,122,168);"/>
                <g transform="matrix(0.650067,0,0,0.702154,252.211,263.858)">
                    <path d="M712.136,894.944L728.883,894.944C730.839,894.944 732.15,893.904 732.15,891.98L732.15,880.01C732.15,877.898 730.851,877.131 728.883,877.131L712.136,877.131C710.239,877.131 708.783,878.666 708.783,880.01L708.783,891.98C708.783,893.648 710.353,894.944 712.136,894.944Z" style="fill:rgb(34,24,22);stroke-width:0.81px;stroke:rgb(30,131,188);"/>
                </g>
                <g transform="matrix(1,0,0,1,1.20422,0.0950661)">
                    <path d="M720.875,882.58L720.875,889.381L719.178,889.381L719.178,885.735C719.178,885.208 719.165,884.892 719.14,884.786C719.115,884.679 719.046,884.599 718.932,884.544C718.819,884.489 718.566,884.462 718.174,884.462L718.006,884.462L718.006,883.668C718.826,883.492 719.45,883.129 719.875,882.58L720.875,882.58Z" style="fill:rgb(30,131,188);fill-rule:nonzero;"/>
                </g>
            </g>
            <g id="lan2" transform="matrix(1,0,0,1,73.8449,0)">
                <path d="M708.783,902.086L733.833,902.086L728.883,897.731L728.883,894.944C730.839,894.944 732.15,893.904 732.15,891.98L732.15,880.01C732.15,877.898 730.851,877.131 728.883,877.131L712.136,877.131C710.239,877.131 708.783,878.666 708.783,880.01L708.783,891.98C708.783,893.648 710.353,894.944 712.136,894.944L712.136,897.731L708.783,902.086Z" style="fill:rgb(32,130,185);stroke-width:0.55px;stroke:rgb(30,131,188);"/>
                <path d="M711.861,895.209L729.158,895.212L729.158,897.607L711.861,897.637L711.861,895.209Z" style="fill:rgb(41,122,168);"/>
                <g transform="matrix(0.650067,0,0,0.702154,252.211,263.858)">
                    <path d="M712.136,894.944L728.883,894.944C730.839,894.944 732.15,893.904 732.15,891.98L732.15,880.01C732.15,877.898 730.851,877.131 728.883,877.131L712.136,877.131C710.239,877.131 708.783,878.666 708.783,880.01L708.783,891.98C708.783,893.648 710.353,894.944 712.136,894.944Z" style="fill:rgb(34,24,22);stroke-width:0.81px;stroke:rgb(30,131,188);"/>
                </g>
                <g transform="matrix(1,0,0,1,1.20422,0.0950661)">
                    <path d="M721.917,888.222L721.917,889.381L718.182,889.381L718.182,888.411C719.289,886.602 719.946,885.482 720.155,885.052C720.363,884.622 720.468,884.287 720.468,884.046C720.468,883.861 720.436,883.723 720.373,883.632C720.31,883.541 720.214,883.496 720.085,883.496C719.956,883.496 719.861,883.546 719.798,883.647C719.735,883.748 719.703,883.948 719.703,884.248L719.703,884.895L718.182,884.895L718.182,884.647C718.182,884.266 718.202,883.966 718.241,883.746C718.28,883.526 718.377,883.31 718.531,883.097C718.685,882.884 718.885,882.723 719.132,882.614C719.378,882.504 719.674,882.45 720.018,882.45C720.693,882.45 721.203,882.617 721.549,882.952C721.895,883.286 722.068,883.71 722.068,884.223C722.068,884.612 721.971,885.024 721.776,885.458C721.582,885.892 721.008,886.813 720.056,888.222L721.917,888.222Z" style="fill:rgb(30,131,188);fill-rule:nonzero;"/>
                </g>
            </g>
            <g id="lan3" transform="matrix(1,0,0,1,143.548,0)">
                <path d="M708.783,902.086L733.833,902.086L728.883,897.731L728.883,894.944C730.839,894.944 732.15,893.904 732.15,891.98L732.15,880.01C732.15,877.898 730.851,877.131 728.883,877.131L712.136,877.131C710.239,877.131 708.783,878.666 708.783,880.01L708.783,891.98C708.783,893.648 710.353,894.944 712.136,894.944L712.136,897.731L708.783,902.086Z" style="fill:rgb(32,130,185);stroke-width:0.55px;stroke:rgb(30,131,188);"/>
                <path d="M711.861,895.209L729.158,895.212L729.158,897.607L711.861,897.637L711.861,895.209Z" style="fill:rgb(41,122,168);"/>
                <g transform="matrix(0.650067,0,0,0.702154,252.211,263.858)">
                    <path d="M712.136,894.944L728.883,894.944C730.839,894.944 732.15,893.904 732.15,891.98L732.15,880.01C732.15,877.898 730.851,877.131 728.883,877.131L712.136,877.131C710.239,877.131 708.783,878.666 708.783,880.01L708.783,891.98C708.783,893.648 710.353,894.944 712.136,894.944Z" style="fill:rgb(34,24,22);stroke-width:0.81px;stroke:rgb(30,131,188);"/>
                </g>
                <g transform="matrix(1,0,0,1,1.20422,0.0950661)">
                    <path d="M721.446,885.529C721.704,885.616 721.896,885.758 722.022,885.955C722.148,886.153 722.211,886.616 722.211,887.344C722.211,887.884 722.149,888.304 722.026,888.602C721.903,888.9 721.69,889.127 721.388,889.283C721.085,889.438 720.697,889.516 720.224,889.516C719.686,889.516 719.264,889.425 718.957,889.245C718.651,889.064 718.449,888.843 718.352,888.581C718.256,888.319 718.208,887.865 718.208,887.218L718.208,886.68L719.905,886.68L719.905,887.785C719.905,888.079 719.922,888.266 719.957,888.346C719.992,888.426 720.07,888.465 720.19,888.465C720.322,888.465 720.409,888.415 720.451,888.314C720.493,888.213 720.514,887.95 720.514,887.524L720.514,887.054C720.514,886.794 720.484,886.603 720.426,886.483C720.367,886.362 720.28,886.283 720.165,886.245C720.05,886.208 719.828,886.186 719.497,886.18L719.497,885.193C719.9,885.193 720.15,885.178 720.245,885.147C720.34,885.116 720.409,885.049 720.451,884.945C720.493,884.842 720.514,884.679 720.514,884.458L720.514,884.08C720.514,883.842 720.489,883.685 720.44,883.609C720.391,883.534 720.315,883.496 720.211,883.496C720.094,883.496 720.013,883.536 719.97,883.616C719.926,883.695 719.905,883.866 719.905,884.126L719.905,884.685L718.208,884.685L718.208,884.105C718.208,883.455 718.356,883.016 718.653,882.788C718.95,882.56 719.422,882.446 720.069,882.446C720.878,882.446 721.427,882.604 721.715,882.92C722.004,883.237 722.148,883.676 722.148,884.239C722.148,884.62 722.096,884.895 721.993,885.065C721.889,885.234 721.707,885.389 721.446,885.529Z" style="fill:rgb(30,131,188);fill-rule:nonzero;"/>
                </g>
            </g>
            <g id="lan4" transform="matrix(1,0,0,1,218.037,0)">
                <path d="M708.783,902.086L733.833,902.086L728.883,897.731L728.883,894.944C730.839,894.944 732.15,893.904 732.15,891.98L732.15,880.01C732.15,877.898 730.851,877.131 728.883,877.131L712.136,877.131C710.239,877.131 708.783,878.666 708.783,880.01L708.783,891.98C708.783,893.648 710.353,894.944 712.136,894.944L712.136,897.731L708.783,902.086Z" style="fill:rgb(32,130,185);stroke-width:0.55px;stroke:rgb(30,131,188);"/>
                <path d="M711.861,895.209L729.158,895.212L729.158,897.607L711.861,897.637L711.861,895.209Z" style="fill:rgb(41,122,168);"/>
                <g transform="matrix(0.650067,0,0,0.702154,252.211,263.858)">
                    <path d="M712.136,894.944L728.883,894.944C730.839,894.944 732.15,893.904 732.15,891.98L732.15,880.01C732.15,877.898 730.851,877.131 728.883,877.131L712.136,877.131C710.239,877.131 708.783,878.666 708.783,880.01L708.783,891.98C708.783,893.648 710.353,894.944 712.136,894.944Z" style="fill:rgb(34,24,22);stroke-width:0.81px;stroke:rgb(30,131,188);"/>
                </g>
                <g transform="matrix(1,0,0,1,1.20422,0.0950661)">
                    <path d="M721.719,882.58L721.719,887.025L722.203,887.025L722.203,888.184L721.719,888.184L721.719,889.381L720.022,889.381L720.022,888.184L718.006,888.184L718.006,887.025L719.472,882.58L721.719,882.58ZM720.022,887.025L720.022,884.13L719.275,887.025L720.022,887.025Z" style="fill:rgb(30,131,188);fill-rule:nonzero;"/>
                </g>
            </g>
            <g id="wifi-5" transform="matrix(1,0,0,1,75.3045,0)">
                <path d="M583.704,877.35C579.342,880.851 579.061,884.304 583.704,887.698" style="fill:none;stroke-width:3px;stroke:rgb(30,131,188);"/>
                <g transform="matrix(1,0,0,1.65524,-4.42331,-577.945)">
                    <path d="M583.704,877.35C576.669,881.136 577.989,884.522 583.704,887.698" style="fill:none;stroke-width:2.19px;stroke:rgb(30,131,188);"/>
                </g>
                <g transform="matrix(1,0,0,2.36111,-8.1293,-1200.91)">
                    <path d="M583.704,877.35C574.689,880.758 575.623,884.212 583.704,887.698" style="fill:none;stroke-width:1.65px;stroke:rgb(30,131,188);"/>
                </g>
            </g>
            <g id="Globe">
                <g transform="matrix(0.908671,0,0,1,39.8541,0)">
                    <ellipse cx="430.362" cy="888.675" rx="17.566" ry="15.305" style="fill:rgb(41,122,168);"/>
                </g>
                <path d="M436.474,886.416L442.411,886.416L442.411,887.932L437.65,887.932L435.32,890.183L440.067,894.882L442.411,894.882L443.732,891.723L443.732,883.827L441.582,881.125L436.474,886.416Z" style="fill:rgb(34,24,21);"/>
                <path d="M422.178,888.05L423.889,886.085L425.755,885.264L428.476,882.59L429.071,879.779L425.755,880.306L422.178,878.542L419.508,882.59L420.553,886.085L422.178,888.05Z" style="fill:rgb(34,24,21);"/>
                <path d="M426.642,888.719L430.008,891.517L428.45,897.947L426.642,897.359L426.642,894.018L423.607,891.517L426.642,888.719Z" style="fill:rgb(34,24,21);"/>
            </g>
            <g id="Power">
                <path d="M350.108,880.784C344.544,885.588 347.923,896.239 353.69,897.913C356.623,898.764 359.527,898.973 362.373,897.913C370.255,894.978 372.262,885.533 366.686,880.784" style="fill:none;stroke-width:3px;stroke:rgb(30,131,188);"/>
                <path d="M358.247,875.579L358.247,889.269" style="fill:none;stroke-width:5.5px;stroke:rgb(30,131,188);"/>
            </g>
            <g id="USB">
                <ellipse cx="1001.24" cy="888.581" rx="3.679" ry="3.487" style="fill:rgb(30,131,188);stroke-width:0.5px;stroke:rgb(30,131,188);"/>
                <g transform="matrix(1.05929,0,0,2.28726,-59.7575,-1145.21)">
                    <path d="M1004.08,889.674L1004.08,888.694L1020.31,888.694L1020.31,887.713L1023.84,889.184L1020.31,890.655L1020.31,889.674L1004.08,889.674Z" style="fill:rgb(30,131,188);stroke-width:0.28px;stroke:rgb(30,131,188);"/>
                </g>
                <g transform="matrix(1,0,0,1,-0.426365,0)">
                    <ellipse cx="1020.04" cy="880.37" rx="2.168" ry="2.058" style="fill:rgb(30,131,188);stroke-width:0.5px;stroke:rgb(30,131,188);"/>
                </g>
                <g transform="matrix(0.82732,0,0,0.82732,175.875,155.155)">
                    <rect x="1018.22" y="895.706" width="4.584" height="4.584" style="fill:rgb(30,131,188);stroke-width:0.6px;stroke:rgb(30,131,188);"/>
                </g>
                <path d="M1019.65,880.412L1013.76,880.412C1010.87,880.412 1007.76,884.702 1007.79,888.151" style="fill:none;stroke-width:1.5px;stroke:rgb(30,131,188);"/>
                <path d="M1007.79,889.499C1007.92,892.064 1011.18,897.986 1014.93,897.986L1020.55,897.986" style="fill:none;stroke-width:1.5px;stroke:rgb(30,131,188);"/>
            </g>
            <g transform="matrix(1.05,0,0,1,-57.0809,-0.724651)">
                <path d="M1149.75,883.9L1153.5,883.9C1154.34,883.9 1154.99,883.965 1155.43,884.094C1156.02,884.269 1156.53,884.581 1156.96,885.028C1157.38,885.476 1157.71,886.024 1157.93,886.672C1158.15,887.32 1158.26,888.119 1158.26,889.07C1158.26,889.905 1158.16,890.625 1157.95,891.229C1157.69,891.968 1157.33,892.565 1156.86,893.022C1156.51,893.368 1156.03,893.638 1155.42,893.832C1154.97,893.975 1154.37,894.046 1153.61,894.046L1149.75,894.046L1149.75,883.9ZM1151.8,885.616L1151.8,892.337L1153.33,892.337C1153.9,892.337 1154.32,892.304 1154.57,892.24C1154.9,892.157 1155.18,892.016 1155.4,891.818C1155.62,891.619 1155.8,891.293 1155.93,890.838C1156.07,890.384 1156.14,889.764 1156.14,888.98C1156.14,888.196 1156.07,887.593 1155.93,887.174C1155.8,886.754 1155.6,886.426 1155.35,886.191C1155.1,885.955 1154.79,885.796 1154.4,885.713C1154.12,885.649 1153.56,885.616 1152.72,885.616L1151.8,885.616Z" style="fill:white;fill-rule:nonzero;"/>
                <rect x="1159.93" y="883.9" width="2.049" height="10.146" style="fill:white;fill-rule:nonzero;"/>
                <path d="M1163.94,894.046L1163.94,883.9L1168.25,883.9C1169.34,883.9 1170.13,883.991 1170.62,884.173C1171.11,884.356 1171.5,884.68 1171.8,885.146C1172.09,885.612 1172.24,886.145 1172.24,886.744C1172.24,887.506 1172.02,888.134 1171.57,888.63C1171.12,889.126 1170.45,889.439 1169.56,889.568C1170.01,889.827 1170.37,890.11 1170.66,890.42C1170.95,890.729 1171.34,891.278 1171.83,892.067L1173.06,894.046L1170.61,894.046L1169.13,891.838C1168.61,891.049 1168.25,890.552 1168.05,890.347C1167.86,890.142 1167.65,890.001 1167.44,889.925C1167.22,889.849 1166.88,889.81 1166.41,889.81L1165.99,889.81L1165.99,894.046L1163.94,894.046ZM1165.99,888.191L1167.51,888.191C1168.49,888.191 1169.1,888.149 1169.35,888.066C1169.59,887.983 1169.78,887.84 1169.92,887.637C1170.06,887.434 1170.13,887.18 1170.13,886.876C1170.13,886.535 1170.04,886.259 1169.86,886.049C1169.67,885.839 1169.42,885.706 1169.08,885.651C1168.92,885.628 1168.42,885.616 1167.59,885.616L1165.99,885.616L1165.99,888.191Z" style="fill:white;fill-rule:nonzero;"/>
                <rect x="1173.94" y="889.395" width="3.82" height="1.945" style="fill:white;fill-rule:nonzero;"/>
                <path d="M1180.13,888.572C1179.63,888.359 1179.26,888.068 1179.03,887.696C1178.81,887.325 1178.69,886.917 1178.69,886.475C1178.69,885.718 1178.95,885.093 1179.48,884.599C1180.01,884.105 1180.76,883.858 1181.74,883.858C1182.7,883.858 1183.45,884.105 1183.98,884.599C1184.52,885.093 1184.78,885.718 1184.78,886.475C1184.78,886.945 1184.66,887.364 1184.41,887.731C1184.17,888.098 1183.83,888.378 1183.38,888.572C1183.95,888.798 1184.37,889.128 1184.67,889.561C1184.96,889.995 1185.11,890.496 1185.11,891.063C1185.11,892 1184.81,892.761 1184.21,893.347C1183.61,893.933 1182.82,894.226 1181.83,894.226C1180.9,894.226 1180.13,893.984 1179.52,893.499C1178.8,892.927 1178.43,892.143 1178.43,891.146C1178.43,890.597 1178.57,890.093 1178.84,889.634C1179.12,889.175 1179.54,888.821 1180.13,888.572ZM1180.53,886.613C1180.53,887.001 1180.64,887.303 1180.86,887.52C1181.08,887.736 1181.37,887.845 1181.74,887.845C1182.11,887.845 1182.4,887.735 1182.62,887.516C1182.84,887.297 1182.95,886.994 1182.95,886.606C1182.95,886.242 1182.84,885.95 1182.62,885.731C1182.41,885.511 1182.12,885.402 1181.76,885.402C1181.38,885.402 1181.09,885.513 1180.86,885.734C1180.64,885.955 1180.53,886.248 1180.53,886.613ZM1180.35,890.959C1180.35,891.495 1180.49,891.912 1180.76,892.212C1181.04,892.512 1181.38,892.662 1181.79,892.662C1182.19,892.662 1182.53,892.518 1182.79,892.229C1183.05,891.941 1183.18,891.525 1183.18,890.98C1183.18,890.505 1183.05,890.123 1182.78,889.835C1182.51,889.546 1182.17,889.402 1181.76,889.402C1181.29,889.402 1180.93,889.566 1180.7,889.894C1180.47,890.221 1180.35,890.576 1180.35,890.959Z" style="fill:white;fill-rule:nonzero;"/>
                <path d="M1192.91,892.24L1192.91,894.046L1186.1,894.046C1186.17,893.363 1186.39,892.716 1186.76,892.105C1187.13,891.493 1187.86,890.683 1188.95,889.672C1189.82,888.855 1190.36,888.302 1190.56,888.011C1190.83,887.61 1190.96,887.213 1190.96,886.821C1190.96,886.387 1190.85,886.054 1190.61,885.821C1190.38,885.588 1190.06,885.471 1189.65,885.471C1189.24,885.471 1188.92,885.593 1188.68,885.838C1188.44,886.082 1188.3,886.488 1188.26,887.056L1186.33,886.862C1186.44,885.792 1186.8,885.023 1187.41,884.557C1188.02,884.091 1188.78,883.858 1189.69,883.858C1190.7,883.858 1191.48,884.128 1192.06,884.668C1192.63,885.208 1192.91,885.879 1192.91,886.682C1192.91,887.139 1192.83,887.574 1192.67,887.987C1192.5,888.4 1192.24,888.832 1191.89,889.284C1191.65,889.584 1191.23,890.016 1190.62,890.579C1190,891.142 1189.61,891.515 1189.45,891.7C1189.29,891.884 1189.15,892.064 1189.05,892.24L1192.91,892.24Z" style="fill:white;fill-rule:nonzero;"/>
                <path d="M1194.26,891.437L1196.19,891.236C1196.25,891.675 1196.41,892.022 1196.68,892.278C1196.96,892.534 1197.27,892.662 1197.63,892.662C1198.03,892.662 1198.38,892.497 1198.66,892.167C1198.94,891.837 1199.08,891.34 1199.08,890.676C1199.08,890.053 1198.94,889.586 1198.66,889.274C1198.38,888.963 1198.02,888.807 1197.57,888.807C1197.01,888.807 1196.51,889.054 1196.07,889.547L1194.49,889.319L1195.49,884.038L1200.63,884.038L1200.63,885.859L1196.96,885.859L1196.66,887.582C1197.09,887.365 1197.53,887.257 1197.99,887.257C1198.85,887.257 1199.58,887.57 1200.18,888.198C1200.78,888.825 1201.08,889.64 1201.08,890.641C1201.08,891.476 1200.84,892.221 1200.35,892.876C1199.69,893.772 1198.78,894.219 1197.61,894.219C1196.67,894.219 1195.91,893.968 1195.32,893.465C1194.72,892.962 1194.37,892.286 1194.26,891.437Z" style="fill:white;fill-rule:nonzero;"/>
            </g>
            <g transform="matrix(1.05,0,0,0.69,-9.10238,278.441)">
                <path d="M183.515,869.915L189.017,869.915C192.569,869.915 194.971,870.078 196.223,870.404C197.475,870.73 198.427,871.266 199.079,872.011C199.731,872.757 200.138,873.586 200.301,874.5C200.464,875.415 200.546,877.211 200.546,879.889L200.546,889.793C200.546,892.332 200.427,894.029 200.188,894.885C199.949,895.741 199.533,896.411 198.939,896.894C198.345,897.377 197.611,897.715 196.738,897.907C195.865,898.099 194.549,898.195 192.79,898.195L183.515,898.195L183.515,869.915ZM190.869,874.754L190.869,893.357C191.928,893.357 192.581,893.144 192.825,892.719C193.07,892.294 193.192,891.138 193.192,889.252L193.192,878.265C193.192,876.984 193.151,876.163 193.07,875.802C192.988,875.441 192.802,875.176 192.511,875.007C192.22,874.838 191.672,874.754 190.869,874.754Z" style="fill:rgb(30,131,188);fill-rule:nonzero;"/>
                <rect x="202.45" y="884.169" width="9.275" height="4.874" style="fill:rgb(30,131,188);fill-rule:nonzero;"/>
                <path d="M221.175,869.915L221.175,892.536L225.647,892.536L225.647,898.195L213.821,898.195L213.821,869.915L221.175,869.915Z" style="fill:rgb(30,131,188);fill-rule:nonzero;"/>
                <path d="M234.486,869.915L234.486,873.601L227.219,873.601L227.219,869.915L234.486,869.915ZM234.486,875.016L234.486,898.195L227.219,898.195L227.219,875.016L234.486,875.016Z" style="fill:rgb(30,131,188);fill-rule:nonzero;"/>
                <path d="M244.198,875.016L244.076,877.147C244.588,876.297 245.214,875.659 245.953,875.234C246.693,874.809 247.546,874.596 248.512,874.596C249.724,874.596 250.713,874.882 251.482,875.452C252.251,876.023 252.746,876.742 252.967,877.61C253.188,878.477 253.299,879.924 253.299,881.95L253.299,898.195L246.242,898.195L246.242,882.143C246.242,880.547 246.189,879.575 246.084,879.225C245.98,878.876 245.689,878.701 245.211,878.701C244.71,878.701 244.396,878.902 244.268,879.304C244.14,879.706 244.076,880.78 244.076,882.527L244.076,898.195L237.019,898.195L237.019,875.016L244.198,875.016Z" style="fill:rgb(30,131,188);fill-rule:nonzero;"/>
                <path d="M270.924,875.016L268.059,884.256L271.78,898.195L264.985,898.195L262.784,888.099L262.784,898.195L255.727,898.195L255.727,869.915L262.784,869.915L262.784,881.793L264.985,875.016L270.924,875.016Z" style="fill:rgb(30,131,188);fill-rule:nonzero;"/>
            </g>
        </g>
    </g>
</svg>
