<?xml version="1.0" encoding="UTF-8" standalone="no"?>
<!DOCTYPE svg PUBLIC "-//W3C//DTD SVG 1.1//EN" "http://www.w3.org/Graphics/SVG/1.1/DTD/svg11.dtd">
<svg width="100%" height="100%" viewBox="0 0 1280 1150" version="1.1" xmlns="http://www.w3.org/2000/svg" xmlns:xlink="http://www.w3.org/1999/xlink" xml:space="preserve" style="fill-rule:evenodd;clip-rule:evenodd;stroke-linecap:round;stroke-linejoin:round;stroke-miterlimit:1.41421;">
    <g transform="matrix(0.99971,0.0240944,-0.0240944,0.99971,-18.8393,-7.28385)">
        <g transform="matrix(0.985,-0.172555,0.172555,0.985,-354.931,177.276)">
            <path d="M1030.06,728.081L1046.31,611.954C1050.87,558.003 1054.3,503.631 1064.05,450.093C1084.69,336.781 1098.77,228.505 1115.12,118.98L1078.66,109.926C1055.4,274.11 1031.08,438.309 998.365,602.63L978.434,724.929L1030.06,728.081Z" style="fill:rgb(13,13,13);stroke:black;stroke-width:1px;"/>
        </g>
        <g transform="matrix(0.985,-0.172555,0.172555,0.985,-354.931,177.276)">
            <path d="M1091.78,135.22C1084.73,127.749 1080.12,119.354 1078.57,109.803C1082.32,85.752 1113.21,87.65 1115.53,109.803C1117.06,119.894 1112.67,128.207 1103.95,135.22L1035.54,577.258L1035.54,604.859L1028.99,728.076L979.715,725.002L1025.46,580.782L1091.78,135.22Z" style="fill:rgb(51,51,51);stroke:black;stroke-width:1px;"/>
        </g>
    </g>
    <g id="rumpf-3600-front">
        <path d="M147.311,980.975L147.466,1006.28C499.265,1019.88 849.787,1018.37 1200.43,1006.28L1200.56,980.975C849.909,957.97 499.03,958.115 147.311,980.975Z" style="fill:rgb(13,13,13);stroke:black;stroke-width:1px;"/>
        <path d="M1200.43,1006.04C848.413,1018.58 497.333,1019.69 147.467,1006.04L147.467,1027.4C493.983,1071.37 845.193,1069.19 1200.43,1027.4L1200.43,1006.04Z" style="fill:rgb(26,26,26);stroke:black;stroke-width:1px;"/>
        <path d="M248.104,1038.87L267.971,1066.82C539.033,1075.51 810.093,1075.07 1081.15,1066.82L1093.01,1038.87C811.494,1065.88 529.836,1067.08 248.104,1038.87Z" style="fill:rgb(13,13,13);stroke:black;stroke-width:1px;"/>
        <path d="M147.308,980.987L168.082,903.677C507.721,875.108 843.486,876.269 1175.83,903.677L1200.56,980.987C849.468,959.257 147.308,980.987 147.308,980.987Z" style="fill:rgb(26,26,26);stroke:black;stroke-width:1px;"/>
        <path d="M171.425,890.166C504.435,867.087 837.397,862.104 1170.27,890.166L1152.2,818.956C826.181,789.612 506.477,794.414 190.422,818.956L171.425,890.166Z" style="fill:rgb(26,26,26);stroke:black;stroke-width:1px;"/>
        <path d="M191.723,808.384C512.893,783.818 831.8,781.756 1147.82,808.384L1125.27,735.59C823.018,708.952 517.99,710.933 210.763,735.59L191.723,808.384Z" style="fill:rgb(26,26,26);stroke:black;stroke-width:1px;"/>
        <path d="M1170.27,890.051C834.928,863.79 502.239,865.324 171.654,890.051L171.654,903.344C505.814,876.914 839.004,874.86 1170.96,903.344L1170.27,890.051Z" style="fill:rgb(13,13,13);stroke:black;stroke-width:1px;"/>
        <path d="M191.815,808.449L191.815,818.874C511.272,792.367 829.959,791.78 1147.82,818.528L1147.82,808.449C829.483,782.259 510.802,783.28 191.815,808.449Z" style="fill:rgb(13,13,13);stroke:black;stroke-width:1px;"/>
    </g>
    <g id="leds-anzeige">
        <path d="M437.904,985.138C429.191,985.177 428.351,1004.33 441.151,1004.67C454.95,1005.03 453.005,985.333 444.365,985.138" style="fill:none;stroke:rgb(41,172,55);stroke-width:3px;"/>
        <path d="M441.05,996.543L441.05,981.906" style="fill:none;stroke:rgb(41,172,55);stroke-width:3px;"/>
        <path d="M489.591,981.905L491.502,987.682L495.186,985.896L494.595,989.888L500.78,989.888L495.776,993.458L498.643,996.346L494.595,997.028L496.506,1002.81L491.502,999.235L489.591,1002.81L487.68,999.235L482.676,1002.81L484.587,997.028L480.539,996.346L483.406,993.458L478.402,989.888L484.587,989.888L483.996,985.896L487.68,987.682L489.591,981.905Z" style="fill:rgb(41,172,55);stroke:rgb(41,172,55);stroke-width:1px;"/>
        <g>
            <path d="M532.5,1001.56C535.537,998.5 538.583,999.103 541.634,1001.56" style="fill:none;stroke:rgb(41,172,55);stroke-width:3px;"/>
            <path d="M529.218,994.65C534.394,990.708 539.528,990.83 544.623,994.65" style="fill:none;stroke:rgb(41,172,55);stroke-width:3px;"/>
            <path d="M526.539,988.847C533.32,983.95 540.233,983.383 547.33,988.847" style="fill:none;stroke:rgb(41,172,55);stroke-width:3px;"/>
        </g>
        <g transform="matrix(1,0,0,1,48.0114,0.416112)">
            <path d="M532.5,1001.56C535.537,998.5 538.583,999.103 541.634,1001.56" style="fill:none;stroke:rgb(41,172,55);stroke-width:3px;"/>
            <path d="M529.218,994.65C534.394,990.708 539.528,990.83 544.623,994.65" style="fill:none;stroke:rgb(41,172,55);stroke-width:3px;"/>
            <path d="M526.539,988.847C533.32,983.95 540.233,983.383 547.33,988.847" style="fill:none;stroke:rgb(41,172,55);stroke-width:3px;"/>
        </g>
        <g>
            <path d="M626.349,996.053L623.073,996.053L623.073,985.75L641.216,985.75L641.216,996.053L638.183,996.053" style="fill:none;stroke:rgb(41,172,55);stroke-width:3px;"/>
            <path d="M626.295,1003.22L637.337,1003.22L632.352,1003.22L632.352,995.421" style="fill:none;stroke:rgb(41,172,55);stroke-width:3px;"/>
        </g>
        <g transform="matrix(1,0,0,1,49.178,0.521351)">
            <path d="M626.349,996.053L623.073,996.053L623.073,985.75L641.216,985.75L641.216,996.053L638.183,996.053" style="fill:none;stroke:rgb(41,172,55);stroke-width:3px;"/>
            <path d="M626.295,1003.22L637.337,1003.22L632.352,1003.22L632.352,995.421" style="fill:none;stroke:rgb(41,172,55);stroke-width:3px;"/>
        </g>
        <g transform="matrix(1,0,0,1,96.8896,0.514428)">
            <path d="M626.349,996.053L623.073,996.053L623.073,985.75L641.216,985.75L641.216,996.053L638.183,996.053" style="fill:none;stroke:rgb(41,172,55);stroke-width:3px;"/>
            <path d="M626.295,1003.22L637.337,1003.22L632.352,1003.22L632.352,995.421" style="fill:none;stroke:rgb(41,172,55);stroke-width:3px;"/>
        </g>
        <g transform="matrix(1,0,0,1,146.088,0.398803)">
            <path d="M626.349,996.053L623.073,996.053L623.073,985.75L641.216,985.75L641.216,996.053L638.183,996.053" style="fill:none;stroke:rgb(41,172,55);stroke-width:3px;"/>
            <path d="M626.295,1003.22L637.337,1003.22L632.352,1003.22L632.352,995.421" style="fill:none;stroke:rgb(41,172,55);stroke-width:3px;"/>
        </g>
        <g>
            <path d="M813.094,996.529C811.372,999.061 811.372,1001.35 813.094,1003.39C825.493,1001.99 833.91,997.079 838.919,989.18C838.003,987.271 836.498,986.455 834.571,986.425" style="fill:none;stroke:rgb(41,172,55);stroke-width:3px;"/>
            <path d="M817.984,994.321C817.54,985.927 820.203,981.868 830.965,989.103" style="fill:none;stroke:rgb(41,172,55);stroke-width:3px;"/>
        </g>
        <g>
            <path d="M862.264,985.285C859.114,990.773 860.689,996.014 864.118,1001.16L866.625,996.217" style="fill:none;stroke:rgb(41,172,55);stroke-width:3px;"/>
            <path d="M874.847,1000.02C877.992,992.74 876.934,987.169 871.868,983.232L869.645,989.757" style="fill:none;stroke:rgb(41,172,55);stroke-width:3px;"/>
        </g>
        <g>
            <path d="M901.628,988.999C900.909,1002.95 922.588,997.803 919.363,987.037" style="fill:none;stroke:rgb(41,172,55);stroke-width:3px;"/>
            <path d="M910.391,1004.16L910.391,980.665L913.968,986.806L905.72,986.806L910.391,980.665" style="fill:none;stroke:rgb(41,172,55);stroke-width:3px;"/>
        </g>
    </g>
    <path d="M213.007,113.052C234.365,237.053 255.681,360.917 275.903,486.725C283.358,533.103 287.527,579.977 291.661,626.872L307.209,728.578L357.331,725.503L250.466,105.66L213.007,113.052Z" style="fill:rgb(13,13,13);stroke:black;stroke-width:1px;"/>
    <path d="M231.275,89.134C254.189,86.535 256.732,110.459 237.703,129.474L308.918,560.399L325.796,613.06L352.127,725.855L315.757,728.081L299.394,566.697L227.013,135.251C209.668,115.824 202.352,91.818 231.275,89.134" style="fill:rgb(51,51,51);stroke:black;stroke-width:1px;"/>
    <path d="M1030.06,728.081L1046.31,611.954C1050.87,558.003 1054.3,503.631 1064.05,450.093C1084.69,336.781 1098.77,228.505 1115.12,118.98L1078.66,109.926C1055.4,274.11 1031.08,438.309 998.365,602.63L978.434,724.929L1030.06,728.081Z" style="fill:rgb(13,13,13);stroke:black;stroke-width:1px;"/>
    <path d="M1091.78,135.22C1084.73,127.749 1080.12,119.354 1078.57,109.803C1082.32,85.752 1113.21,87.65 1115.53,109.803C1117.06,119.894 1112.67,128.207 1103.95,135.22L1035.54,577.258L1035.54,604.859L1028.99,728.076L979.715,725.002L1025.46,580.782L1091.78,135.22Z" style="fill:rgb(51,51,51);stroke:black;stroke-width:1px;"/>
    <path d="M1091.78,135.22C1084.73,127.749 1080.12,119.354 1078.57,109.803C1082.32,85.752 1113.21,87.65 1115.53,109.803C1117.06,119.894 1112.67,128.207 1103.95,135.22L1035.54,577.258L1035.54,604.859L1028.99,728.076L979.715,725.002L1025.46,580.782L1091.78,135.22Z" style="fill:rgb(51,51,51);stroke:black;stroke-width:1px;"/>
</svg>
