<?xml version="1.0" standalone="no"?>
<!DOCTYPE svg PUBLIC "-//W3C//DTD SVG 1.1//EN" "http://www.w3.org/Graphics/SVG/1.1/DTD/svg11.dtd">
<svg width="100%" height="100%" viewBox="0 0 1280 1150" version="1.1" xmlns="http://www.w3.org/2000/svg" xmlns:xlink="http://www.w3.org/1999/xlink" xml:space="preserve" style="fill-rule:evenodd;clip-rule:evenodd;stroke-linecap:round;stroke-linejoin:round;stroke-miterlimit:1.41421;">
    <g id="back 901ND">
        <g id="Füsse" transform="matrix(1.06553,0,0,1.12465,-58.8721,-245.226)">
            <g transform="matrix(1,0,0,1,26.9723,-0.553293)">
                <path d="M962.639,1069.2L983.568,1069.2L983.568,1077.09C976.577,1079.61 969.602,1079.4 962.639,1077.09L962.639,1069.2Z" style="fill:rgb(51,51,51);stroke-width:1.83px;stroke:black;"/>
            </g>
            <g transform="matrix(1,0,0,1,-664.54,0)">
                <path d="M962.639,1069.2L983.568,1069.2L983.568,1077.09C976.577,1079.61 969.602,1079.4 962.639,1077.09L962.639,1069.2Z" style="fill:rgb(51,51,51);stroke-width:1.83px;stroke:black;"/>
            </g>
        </g>
        <g id="rumpf">
            <g id="rumpfs außen" transform="matrix(1.06553,0,0,1.12465,-45.0948,-202.243)">
                <path d="M254.764,1030.64L213.301,1030.64C190.589,1024.3 179.105,1006.95 181.416,976.056C182.609,960.11 210.294,922.614 240.765,908.731C303.485,880.154 348.149,871.472 403.472,865.5C547.237,855.892 690.645,851.8 833.348,862.124C903.492,867.525 973.507,881.623 1035.84,908.731C1062.24,923.849 1087.26,943.34 1097.93,976.056C1106.57,1004.74 1096.15,1023.49 1072.83,1030.64L1025.04,1030.64L254.764,1030.64Z" style="fill:white;stroke-width:0.64px;stroke:black;"/>
            </g>
            <g id="rumpf innen" transform="matrix(1.06553,0,0,1.12465,-45.0948,-202.243)">
                <path d="M254.764,1030.64L213.301,1030.64C193.615,1020.12 192.098,994.611 192.896,976.056C193.583,960.08 219.027,931.347 249.498,917.464C312.218,888.887 348.149,882.432 403.472,876.46C547.237,866.851 690.645,862.918 833.348,873.243C903.492,878.644 964.928,888.416 1027.26,915.524C1053.66,930.642 1075.85,943.34 1086.52,976.056C1090.21,994.545 1090.1,1022.96 1072.83,1030.64L1025.04,1030.64L254.764,1030.64Z" style="fill:rgb(230,230,230);stroke-width:0.64px;stroke:black;"/>
            </g>
            <g transform="matrix(1.06553,0,0,1.12465,-45.0948,-202.243)">
                <path d="M258.534,1032.84L1022.11,1032.84C1042.11,972.318 1027.64,931.849 952.002,911.518C841.399,881.791 417.187,883.348 328.934,911.518C234.429,928.901 237.298,977.891 258.534,1032.84Z" style="fill:rgb(242,242,242);stroke-width:0.64px;stroke:black;"/>
            </g>
        </g>
        <g id="LüftungBack" transform="matrix(1,0,0,1,0,-0.838999)">
            <rect x="400.888" y="957.702" width="6.676" height="2.472" style="fill:rgb(51,51,51);stroke-width:0.7px;stroke:black;"/>
            <g transform="matrix(1,0,0,1,14.0644,0)">
                <rect x="400.888" y="957.702" width="6.676" height="2.472" style="fill:rgb(51,51,51);stroke-width:0.7px;stroke:black;"/>
            </g>
            <g transform="matrix(1,0,0,1,26.9949,0)">
                <rect x="400.888" y="957.702" width="6.676" height="2.472" style="fill:rgb(51,51,51);stroke-width:0.7px;stroke:black;"/>
            </g>
            <g transform="matrix(1,0,0,1,40.8265,0)">
                <rect x="400.888" y="957.702" width="6.676" height="2.472" style="fill:rgb(51,51,51);stroke-width:0.7px;stroke:black;"/>
            </g>
            <g transform="matrix(1,0,0,1,53.9452,0)">
                <rect x="400.888" y="957.702" width="6.676" height="2.472" style="fill:rgb(51,51,51);stroke-width:0.7px;stroke:black;"/>
            </g>
            <g transform="matrix(1,0,0,1,67.8013,0)">
                <rect x="400.888" y="957.702" width="6.676" height="2.472" style="fill:rgb(51,51,51);stroke-width:0.7px;stroke:black;"/>
            </g>
            <g transform="matrix(1,0,0,1,81.3522,0)">
                <rect x="400.888" y="957.702" width="6.676" height="2.472" style="fill:rgb(51,51,51);stroke-width:0.7px;stroke:black;"/>
            </g>
            <g transform="matrix(1,0,0,1,95.4084,0)">
                <rect x="400.888" y="957.702" width="6.676" height="2.472" style="fill:rgb(51,51,51);stroke-width:0.7px;stroke:black;"/>
            </g>
            <g transform="matrix(1,0,0,1,109.323,0)">
                <rect x="400.888" y="957.702" width="6.676" height="2.472" style="fill:rgb(51,51,51);stroke-width:0.7px;stroke:black;"/>
            </g>
            <g transform="matrix(1,0,0,1,122.055,0)">
                <rect x="400.888" y="957.702" width="6.676" height="2.472" style="fill:rgb(51,51,51);stroke-width:0.7px;stroke:black;"/>
            </g>
            <g transform="matrix(1,0,0,1,135.438,0)">
                <rect x="400.888" y="957.702" width="6.676" height="2.472" style="fill:rgb(51,51,51);stroke-width:0.7px;stroke:black;"/>
            </g>
            <g transform="matrix(1,0,0,1,149.62,0)">
                <rect x="400.888" y="957.702" width="6.676" height="2.472" style="fill:rgb(51,51,51);stroke-width:0.7px;stroke:black;"/>
            </g>
            <g transform="matrix(1,0,0,1,162.754,0)">
                <rect x="400.888" y="957.702" width="6.676" height="2.472" style="fill:rgb(51,51,51);stroke-width:0.7px;stroke:black;"/>
            </g>
            <g transform="matrix(1,0,0,1,177.916,0)">
                <rect x="400.888" y="957.702" width="6.676" height="2.472" style="fill:rgb(51,51,51);stroke-width:0.7px;stroke:black;"/>
            </g>
            <g transform="matrix(1,0,0,1,190.433,0)">
                <rect x="400.888" y="957.702" width="6.676" height="2.472" style="fill:rgb(51,51,51);stroke-width:0.7px;stroke:black;"/>
            </g>
            <g transform="matrix(1,0,0,1,203.703,0)">
                <rect x="400.888" y="957.702" width="6.676" height="2.472" style="fill:rgb(51,51,51);stroke-width:0.7px;stroke:black;"/>
            </g>
            <g transform="matrix(1,0,0,1,217,0)">
                <rect x="400.888" y="957.702" width="6.676" height="2.472" style="fill:rgb(51,51,51);stroke-width:0.7px;stroke:black;"/>
            </g>
            <g transform="matrix(1,0,0,1,230.845,0)">
                <rect x="400.888" y="957.702" width="6.676" height="2.472" style="fill:rgb(51,51,51);stroke-width:0.7px;stroke:black;"/>
            </g>
            <g transform="matrix(1,0,0,1,244.732,0)">
                <rect x="400.888" y="957.702" width="6.676" height="2.472" style="fill:rgb(51,51,51);stroke-width:0.7px;stroke:black;"/>
            </g>
            <g transform="matrix(1,0,0,1,257.662,0)">
                <rect x="400.888" y="957.702" width="6.676" height="2.472" style="fill:rgb(51,51,51);stroke-width:0.7px;stroke:black;"/>
            </g>
            <g transform="matrix(1,0,0,1,270.972,0)">
                <rect x="400.888" y="957.702" width="6.676" height="2.472" style="fill:rgb(51,51,51);stroke-width:0.7px;stroke:black;"/>
            </g>
            <g transform="matrix(1,0,0,1,284.579,0)">
                <rect x="400.888" y="957.702" width="6.676" height="2.472" style="fill:rgb(51,51,51);stroke-width:0.7px;stroke:black;"/>
            </g>
            <g transform="matrix(1,0,0,1,299.33,0)">
                <rect x="400.888" y="957.702" width="6.676" height="2.472" style="fill:rgb(51,51,51);stroke-width:0.7px;stroke:black;"/>
            </g>
            <g transform="matrix(1,0,0,1,311.923,0)">
                <rect x="400.888" y="957.702" width="6.676" height="2.472" style="fill:rgb(51,51,51);stroke-width:0.7px;stroke:black;"/>
            </g>
            <g transform="matrix(1,0,0,1,325.57,0)">
                <rect x="400.888" y="957.702" width="6.676" height="2.472" style="fill:rgb(51,51,51);stroke-width:0.7px;stroke:black;"/>
            </g>
            <g transform="matrix(1,0,0,1,339.641,0)">
                <rect x="400.888" y="957.702" width="6.676" height="2.472" style="fill:rgb(51,51,51);stroke-width:0.7px;stroke:black;"/>
            </g>
            <g transform="matrix(1,0,0,1,352.862,0)">
                <rect x="400.888" y="957.702" width="6.676" height="2.472" style="fill:rgb(51,51,51);stroke-width:0.7px;stroke:black;"/>
            </g>
            <g transform="matrix(1,0,0,1,366.385,0)">
                <rect x="400.888" y="957.702" width="6.676" height="2.472" style="fill:rgb(51,51,51);stroke-width:0.7px;stroke:black;"/>
            </g>
            <g transform="matrix(1,0,0,1,380.209,0)">
                <rect x="400.888" y="957.702" width="6.676" height="2.472" style="fill:rgb(51,51,51);stroke-width:0.7px;stroke:black;"/>
            </g>
            <g transform="matrix(1,0,0,1,393.734,0)">
                <rect x="400.888" y="957.702" width="6.676" height="2.472" style="fill:rgb(51,51,51);stroke-width:0.7px;stroke:black;"/>
            </g>
            <g transform="matrix(1,0,0,1,407.874,0)">
                <rect x="400.888" y="957.702" width="6.676" height="2.472" style="fill:rgb(51,51,51);stroke-width:0.7px;stroke:black;"/>
            </g>
            <g transform="matrix(1,0,0,1,420.695,0)">
                <rect x="400.888" y="957.702" width="6.676" height="2.472" style="fill:rgb(51,51,51);stroke-width:0.7px;stroke:black;"/>
            </g>
            <g transform="matrix(1,0,0,1,434.706,0)">
                <rect x="400.888" y="957.702" width="6.676" height="2.472" style="fill:rgb(51,51,51);stroke-width:0.7px;stroke:black;"/>
            </g>
            <g transform="matrix(1,0,0,1,448.196,0)">
                <rect x="400.888" y="957.702" width="6.676" height="2.472" style="fill:rgb(51,51,51);stroke-width:0.7px;stroke:black;"/>
            </g>
            <g transform="matrix(1,0,0,1,462.608,0)">
                <rect x="400.888" y="957.702" width="6.676" height="2.472" style="fill:rgb(51,51,51);stroke-width:0.7px;stroke:black;"/>
            </g>
            <g transform="matrix(1,0,0,1,476.348,0)">
                <rect x="400.888" y="957.702" width="6.676" height="2.472" style="fill:rgb(51,51,51);stroke-width:0.7px;stroke:black;"/>
            </g>
            <g transform="matrix(1,0,0,1,489.909,0)">
                <rect x="400.888" y="957.702" width="6.676" height="2.472" style="fill:rgb(51,51,51);stroke-width:0.7px;stroke:black;"/>
            </g>
            <g transform="matrix(1,0,0,1,503.567,0)">
                <rect x="400.888" y="957.702" width="6.676" height="2.472" style="fill:rgb(51,51,51);stroke-width:0.7px;stroke:black;"/>
            </g>
            <g transform="matrix(1,0,0,1,517.344,0)">
                <rect x="400.888" y="957.702" width="6.676" height="2.472" style="fill:rgb(51,51,51);stroke-width:0.7px;stroke:black;"/>
            </g>
            <g transform="matrix(1,0,0,1,530.76,0)">
                <rect x="400.888" y="957.702" width="6.676" height="2.472" style="fill:rgb(51,51,51);stroke-width:0.7px;stroke:black;"/>
            </g>
            <g transform="matrix(1,0,0,1,543.578,0)">
                <rect x="400.888" y="957.702" width="6.676" height="2.472" style="fill:rgb(51,51,51);stroke-width:0.7px;stroke:black;"/>
            </g>
            <g transform="matrix(1,0,0,1,558.145,0)">
                <rect x="400.888" y="957.702" width="6.676" height="2.472" style="fill:rgb(51,51,51);stroke-width:0.7px;stroke:black;"/>
            </g>
            <g transform="matrix(1,0,0,1,571.209,0)">
                <rect x="400.888" y="957.702" width="6.676" height="2.472" style="fill:rgb(51,51,51);stroke-width:0.7px;stroke:black;"/>
            </g>
            <g transform="matrix(1,0,0,1,584.131,0)">
                <rect x="400.888" y="957.702" width="6.676" height="2.472" style="fill:rgb(51,51,51);stroke-width:0.7px;stroke:black;"/>
            </g>
            <g transform="matrix(1,0,0,1,613.06,0)">
                <rect x="400.888" y="957.702" width="6.676" height="2.472" style="fill:rgb(51,51,51);stroke-width:0.7px;stroke:black;"/>
            </g>
            <g transform="matrix(1,0,0,1,597.684,0)">
                <rect x="400.888" y="957.702" width="6.676" height="2.472" style="fill:rgb(51,51,51);stroke-width:0.7px;stroke:black;"/>
            </g>
            <g transform="matrix(1,0,0,1,625.461,0)">
                <rect x="400.888" y="957.702" width="6.676" height="2.472" style="fill:rgb(51,51,51);stroke-width:0.7px;stroke:black;"/>
            </g>
            <g transform="matrix(1,0,0,1,-13.4413,0)">
                <rect x="400.888" y="957.702" width="6.676" height="2.472" style="fill:rgb(51,51,51);stroke-width:0.7px;stroke:black;"/>
            </g>
            <g transform="matrix(1,0,0,1,-26.981,0)">
                <rect x="400.888" y="957.702" width="6.676" height="2.472" style="fill:rgb(51,51,51);stroke-width:0.7px;stroke:black;"/>
            </g>
            <g transform="matrix(1,0,0,1,-26.981,0)">
                <rect x="400.888" y="957.702" width="6.676" height="2.472" style="fill:rgb(51,51,51);stroke-width:0.7px;stroke:black;"/>
            </g>
            <g transform="matrix(1,0,0,1,-40.5702,0)">
                <rect x="400.888" y="957.702" width="6.676" height="2.472" style="fill:rgb(51,51,51);stroke-width:0.7px;stroke:black;"/>
            </g>
            <g transform="matrix(1,0,0,1,-53.8955,0)">
                <rect x="400.888" y="957.702" width="6.676" height="2.472" style="fill:rgb(51,51,51);stroke-width:0.7px;stroke:black;"/>
            </g>
            <g transform="matrix(1,0,0,1,-67.2787,0)">
                <rect x="400.888" y="957.702" width="6.676" height="2.472" style="fill:rgb(51,51,51);stroke-width:0.7px;stroke:black;"/>
            </g>
            <g transform="matrix(1,0,0,1,-81.6865,0)">
                <rect x="400.888" y="957.702" width="6.676" height="2.472" style="fill:rgb(51,51,51);stroke-width:0.7px;stroke:black;"/>
            </g>
            <g transform="matrix(1,0,0,1,-95.016,0)">
                <rect x="400.888" y="957.702" width="6.676" height="2.472" style="fill:rgb(51,51,51);stroke-width:0.7px;stroke:black;"/>
            </g>
            <g transform="matrix(1,0,0,1,-95.016,0)">
                <rect x="400.888" y="957.702" width="6.676" height="2.472" style="fill:rgb(51,51,51);stroke-width:0.7px;stroke:black;"/>
            </g>
            <g transform="matrix(1,0,0,1,-107.749,0)">
                <rect x="400.888" y="957.702" width="6.676" height="2.472" style="fill:rgb(51,51,51);stroke-width:0.7px;stroke:black;"/>
            </g>
            <g transform="matrix(1,0,0,1,-121.264,0)">
                <rect x="400.888" y="957.702" width="6.676" height="2.472" style="fill:rgb(51,51,51);stroke-width:0.7px;stroke:black;"/>
            </g>
            <g transform="matrix(1,0,0,1,-135.317,0)">
                <rect x="400.888" y="957.702" width="6.676" height="2.472" style="fill:rgb(51,51,51);stroke-width:0.7px;stroke:black;"/>
            </g>
            <g transform="matrix(1,0,0,1,-148.517,0)">
                <rect x="400.888" y="957.702" width="6.676" height="2.472" style="fill:rgb(51,51,51);stroke-width:0.7px;stroke:black;"/>
            </g>
            <g transform="matrix(1,0,0,1,-163.327,0)">
                <rect x="400.888" y="957.702" width="6.676" height="2.472" style="fill:rgb(51,51,51);stroke-width:0.7px;stroke:black;"/>
            </g>
        </g>
        <g id="Antenne Links" transform="matrix(0.801098,0,0,0.801098,809.607,148.599)">
            <g transform="matrix(1,0,0,1,29.4255,-97.9629)">
                <g transform="matrix(1,0,0,1,-774.378,-3.15595)">
                    <path d="M1016.53,124.619L1020.93,301.171L1038.98,522.435L1043.24,1048.51L1043.34,1047.87C1042.55,1048.66 1036.04,1054.15 1004.23,1054.77C972.911,1055.37 970.935,1051.94 967.466,1051.24L967.191,1051.3L967.191,524.062L984.513,301.705L982.747,124.897C994.27,123.665 1005.51,123.655 1016.53,124.619Z" style="fill:white;stroke-width:4.37px;stroke:black;"/>
                </g>
                <g transform="matrix(1,0,0,1,-774.378,-3.15595)">
                    <path d="M984.703,117.906L984.703,124.656L982.618,124.676C996.416,123.902 1007.78,123.949 1017.13,124.676L1014.86,123.88L1014.86,118.475L1016.74,117.906C1007.39,117.18 996.023,117.133 982.225,117.906L982.438,117.653C982.428,113.255 981.481,92.528 982.438,76.704C983.201,64.092 991.781,61.281 998.604,61.255C1007.64,61.221 1015.03,65.675 1015.74,76.704C1016.77,92.72 1017.06,113.91 1017.08,117.653" style="fill:white;stroke-width:4.37px;stroke:black;"/>
                </g>
            </g>
            <g transform="matrix(1,0,0,1,-451.318,-97.9629)">
                <g transform="matrix(1,0,0,1,-774.378,-3.15595)">
                    <path d="M1016.53,124.619L1020.93,301.171L1038.98,522.435L1043.24,1048.51L1043.34,1047.87C1042.55,1048.66 1036.04,1054.15 1004.23,1054.77C972.911,1055.37 970.935,1051.94 967.466,1051.24L967.191,1051.3L967.191,524.062L984.513,301.705L982.747,124.897C994.27,123.665 1005.51,123.655 1016.53,124.619Z" style="fill:white;stroke-width:4.37px;stroke:black;"/>
                </g>
                <g transform="matrix(1,0,0,1,-774.378,-3.15595)">
                    <path d="M984.703,117.906L984.703,124.656L982.618,124.676C996.416,123.902 1007.78,123.949 1017.13,124.676L1014.86,123.88L1014.86,118.475L1016.74,117.906C1007.39,117.18 996.023,117.133 982.225,117.906L982.438,117.653C982.428,113.255 981.481,92.528 982.438,76.704C983.201,64.092 991.781,61.281 998.604,61.255C1007.64,61.221 1015.03,65.675 1015.74,76.704C1016.77,92.72 1017.06,113.91 1017.08,117.653" style="fill:white;stroke-width:4.37px;stroke:black;"/>
                </g>
            </g>
            <g transform="matrix(1,0,0,1,-913.284,-97.9629)">
                <g transform="matrix(1,0,0,1,-774.378,-3.15595)">
                    <path d="M1016.53,124.619L1020.93,301.171L1038.98,522.435L1043.24,1048.51L1043.34,1047.87C1042.55,1048.66 1036.04,1054.15 1004.23,1054.77C972.911,1055.37 970.935,1051.94 967.466,1051.24L967.191,1051.3L967.191,524.062L984.513,301.705L982.747,124.897C994.27,123.665 1005.51,123.655 1016.53,124.619Z" style="fill:white;stroke-width:4.37px;stroke:black;"/>
                </g>
                <g transform="matrix(1,0,0,1,-774.378,-3.15595)">
                    <path d="M984.703,117.906L984.703,124.656L982.618,124.676C996.416,123.902 1007.78,123.949 1017.13,124.676L1014.86,123.88L1014.86,118.475L1016.74,117.906C1007.39,117.18 996.023,117.133 982.225,117.906L982.438,117.653C982.428,113.255 981.481,92.528 982.438,76.704C983.201,64.092 991.781,61.281 998.604,61.255C1007.64,61.221 1015.03,65.675 1015.74,76.704C1016.77,92.72 1017.06,113.91 1017.08,117.653" style="fill:white;stroke-width:4.37px;stroke:black;"/>
                </g>
            </g>
        </g>
        <g id="back" transform="matrix(-1,5.66554e-16,-5.66554e-16,-1,1564.29,1832.05)">
            <g id="WAN" transform="matrix(1,-2.44929e-16,2.44929e-16,1,286.181,-42.0161)">
                <path d="M430.126,958.534L520.049,958.534L520.049,1035.48L430.126,1035.48L430.126,958.534" style="fill:rgb(230,230,230);stroke-width:1px;stroke:black;"/>
                <path d="M463.538,961.757L487.377,961.757L487.377,969.841L494.601,969.841L494.601,977.802L508.571,977.802L508.571,989.68L513.332,989.68L513.332,1005.6L508.571,1005.6L508.571,1018.27L440.482,1018.27L440.482,1005.6L437.015,1005.6L437.015,989.68L440.482,989.68L440.482,977.802L455.182,977.802L455.182,969.841L463.538,969.841L463.538,961.757" style="fill:white;stroke-width:1px;stroke:black;"/>
                <rect x="436.816" y="989.68" width="9.385" height="15.92" style="fill:black;stroke-width:1px;stroke:black;"/>
                <g transform="matrix(1,0,0,1,67.0669,-0.0235958)">
                    <rect x="436.816" y="989.68" width="9.385" height="15.92" style="fill:black;stroke-width:1px;stroke:black;"/>
                </g>
                <path d="M450.462,1000.22L450.462,1012.69" style="fill:none;stroke-width:1px;stroke:black;"/>
                <g transform="matrix(1,0,0,1,5.18811,0.142889)">
                    <path d="M450.462,1000.22L450.462,1012.69" style="fill:none;stroke-width:1px;stroke:black;"/>
                </g>
                <g transform="matrix(1,0,0,1,10.8216,0.142889)">
                    <path d="M450.462,1000.22L450.462,1012.69" style="fill:none;stroke-width:1px;stroke:black;"/>
                </g>
                <g transform="matrix(1,0,0,1,22.0044,0.291919)">
                    <path d="M450.462,1000.07L450.462,1012.69" style="fill:none;stroke-width:1px;stroke:black;"/>
                </g>
                <g transform="matrix(1,0,0,1,27.0496,0.291919)">
                    <path d="M450.462,1000.05L450.462,1012.69" style="fill:none;stroke-width:1px;stroke:black;"/>
                </g>
                <g transform="matrix(1,0,0,1,49.4509,0.192566)">
                    <path d="M450.462,1000.16L450.462,1012.69" style="fill:none;stroke-width:1px;stroke:black;"/>
                </g>
                <path d="M466.922,1000.38L466.922,1018.21" style="fill:none;stroke-width:1px;stroke:black;"/>
                <g transform="matrix(1,0,0,1,16.0399,-0.0558162)">
                    <path d="M466.922,1000.41L466.922,1018.27" style="fill:none;stroke-width:1px;stroke:black;"/>
                </g>
                <g transform="matrix(1,0,0,1,21.7443,-0.154611)">
                    <path d="M466.922,1000.5L466.922,1018.4" style="fill:none;stroke-width:1px;stroke:black;"/>
                </g>
                <g transform="matrix(1,0,0,1,27.6257,-0.353316)">
                    <path d="M466.922,1000.67L466.922,1018.4" style="fill:none;stroke-width:1px;stroke:black;"/>
                </g>
            </g>
            <g id="Power" transform="matrix(-1,-5.66554e-16,5.66554e-16,-1,1483.48,1948.99)">
                <rect x="360.529" y="973.018" width="50.745" height="61.322" style="fill:rgb(72,72,74);stroke-width:3.5px;stroke:black;"/>
                <g transform="matrix(1,0,0,1,-0.754159,0.503051)">
                    <ellipse cx="387.025" cy="998.035" rx="16.88" ry="17.207" style="fill:rgb(72,72,74);stroke-width:1px;stroke:black;"/>
                </g>
                <ellipse cx="386.992" cy="998.717" rx="8.879" ry="8.391" style="fill:rgb(99,100,102);stroke-width:1px;stroke:black;"/>
                <g transform="matrix(1,0,0,1,-0.111324,-0.214278)">
                    <ellipse cx="387.249" cy="998.987" rx="5.203" ry="5.065" style="fill:rgb(216,217,218);stroke-width:3px;stroke:rgb(58,57,59);"/>
                </g>
                <path d="M378.699,1011.21L394.491,1011.21L394.491,1012.99L392.11,1014.15L380.447,1014.15L378.699,1013.38L378.699,1011.21Z" style="fill:rgb(47,45,46);stroke-width:0.1px;stroke:rgb(35,31,32);"/>
            </g>
            <g transform="matrix(1,0,0,1,-215.69,-76.5509)">
                <g id="reset">
                    <ellipse cx="882.113" cy="1013.72" rx="10.926" ry="10.594" style="fill:rgb(91,92,94);stroke-width:3.5px;stroke:rgb(35,31,32);"/>
                </g>
            </g>
        </g>
        <g transform="matrix(0.89,0,0,1,43.8732,1.60925)">
            <path d="M337.311,928.487C337.311,927.831 337.409,927.28 337.606,926.835C337.752,926.506 337.952,926.212 338.206,925.951C338.459,925.69 338.737,925.497 339.038,925.371C339.44,925.201 339.903,925.116 340.427,925.116C341.376,925.116 342.136,925.411 342.706,926C343.275,926.588 343.56,927.407 343.56,928.456C343.56,929.496 343.278,930.31 342.712,930.897C342.147,931.485 341.391,931.778 340.445,931.778C339.487,931.778 338.725,931.486 338.159,930.902C337.594,930.317 337.311,929.512 337.311,928.487ZM338.652,928.443C338.652,929.172 338.82,929.725 339.157,930.102C339.494,930.478 339.922,930.667 340.44,930.667C340.959,930.667 341.384,930.48 341.717,930.106C342.049,929.733 342.216,929.172 342.216,928.425C342.216,927.687 342.054,927.136 341.73,926.773C341.406,926.41 340.976,926.228 340.44,926.228C339.904,926.228 339.472,926.412 339.144,926.78C338.816,927.147 338.652,927.702 338.652,928.443Z" style="fill:rgb(252,252,252);fill-rule:nonzero;stroke-width:0.42px;stroke-linecap:butt;stroke:black;"/>
            <path d="M344.589,931.668L344.589,925.226L345.854,925.226L348.491,929.528L348.491,925.226L349.7,925.226L349.7,931.668L348.394,931.668L345.797,927.467L345.797,931.668L344.589,931.668Z" style="fill:rgb(252,252,252);fill-rule:nonzero;stroke-width:0.42px;stroke-linecap:butt;stroke:black;"/>
            <path d="M352.908,931.778L354.503,925.116L355.43,925.116L353.817,931.778L352.908,931.778Z" style="fill:rgb(252,252,252);fill-rule:nonzero;stroke-width:0.42px;stroke-linecap:butt;stroke:black;"/>
            <path d="M358.313,928.487C358.313,927.831 358.411,927.28 358.607,926.835C358.754,926.506 358.954,926.212 359.207,925.951C359.461,925.69 359.738,925.497 360.04,925.371C360.441,925.201 360.904,925.116 361.429,925.116C362.378,925.116 363.137,925.411 363.707,926C364.277,926.588 364.562,927.407 364.562,928.456C364.562,929.496 364.279,930.31 363.714,930.897C363.148,931.485 362.392,931.778 361.446,931.778C360.488,931.778 359.726,931.486 359.161,930.902C358.596,930.317 358.313,929.512 358.313,928.487ZM359.653,928.443C359.653,929.172 359.822,929.725 360.159,930.102C360.495,930.478 360.923,930.667 361.442,930.667C361.96,930.667 362.386,930.48 362.718,930.106C363.051,929.733 363.217,929.172 363.217,928.425C363.217,927.687 363.055,927.136 362.732,926.773C362.408,926.41 361.978,926.228 361.442,926.228C360.906,926.228 360.473,926.412 360.145,926.78C359.817,927.147 359.653,927.702 359.653,928.443Z" style="fill:rgb(252,252,252);fill-rule:nonzero;stroke-width:0.42px;stroke-linecap:butt;stroke:black;"/>
            <path d="M365.586,931.668L365.586,925.226L370.002,925.226L370.002,926.316L366.887,926.316L366.887,927.841L369.576,927.841L369.576,928.931L366.887,928.931L366.887,931.668L365.586,931.668Z" style="fill:rgb(252,252,252);fill-rule:nonzero;stroke-width:0.42px;stroke-linecap:butt;stroke:black;"/>
            <path d="M371.083,931.668L371.083,925.226L375.5,925.226L375.5,926.316L372.384,926.316L372.384,927.841L375.074,927.841L375.074,928.931L372.384,928.931L372.384,931.668L371.083,931.668Z" style="fill:rgb(252,252,252);fill-rule:nonzero;stroke-width:0.42px;stroke-linecap:butt;stroke:black;"/>
            <path d="M458.923,931.668L458.923,925.226L461.011,925.226C461.802,925.226 462.317,925.258 462.558,925.323C462.927,925.419 463.236,925.63 463.485,925.953C463.734,926.277 463.858,926.695 463.858,927.208C463.858,927.604 463.787,927.936 463.643,928.206C463.499,928.475 463.317,928.687 463.096,928.841C462.875,928.994 462.65,929.096 462.421,929.146C462.111,929.208 461.661,929.238 461.072,929.238L460.224,929.238L460.224,931.668L458.923,931.668ZM460.224,926.316L460.224,928.144L460.936,928.144C461.449,928.144 461.791,928.11 461.964,928.043C462.137,927.976 462.273,927.87 462.371,927.727C462.469,927.583 462.518,927.416 462.518,927.226C462.518,926.991 462.449,926.798 462.312,926.646C462.174,926.493 461.999,926.398 461.789,926.36C461.633,926.331 461.321,926.316 460.853,926.316L460.224,926.316Z" style="fill:rgb(252,252,252);fill-rule:nonzero;stroke-width:0.42px;stroke-linecap:butt;stroke:black;"/>
            <path d="M464.663,928.487C464.663,927.831 464.761,927.28 464.957,926.835C465.104,926.506 465.303,926.212 465.557,925.951C465.81,925.69 466.088,925.497 466.39,925.371C466.791,925.201 467.254,925.116 467.778,925.116C468.728,925.116 469.487,925.411 470.057,926C470.627,926.588 470.912,927.407 470.912,928.456C470.912,929.496 470.629,930.31 470.063,930.897C469.498,931.485 468.742,931.778 467.796,931.778C466.838,931.778 466.076,931.486 465.511,930.902C464.945,930.317 464.663,929.512 464.663,928.487ZM466.003,928.443C466.003,929.172 466.171,929.725 466.508,930.102C466.845,930.478 467.273,930.667 467.791,930.667C468.31,930.667 468.736,930.48 469.068,930.106C469.401,929.733 469.567,929.172 469.567,928.425C469.567,927.687 469.405,927.136 469.081,926.773C468.758,926.41 468.328,926.228 467.791,926.228C467.255,926.228 466.823,926.412 466.495,926.78C466.167,927.147 466.003,927.702 466.003,928.443Z" style="fill:rgb(252,252,252);fill-rule:nonzero;stroke-width:0.42px;stroke-linecap:butt;stroke:black;"/>
            <path d="M472.841,931.668L471.303,925.226L472.634,925.226L473.605,929.651L474.783,925.226L476.33,925.226L477.459,929.726L478.448,925.226L479.758,925.226L478.193,931.668L476.813,931.668L475.53,926.852L474.251,931.668L472.841,931.668Z" style="fill:rgb(252,252,252);fill-rule:nonzero;stroke-width:0.42px;stroke-linecap:butt;stroke:black;"/>
            <path d="M480.421,931.668L480.421,925.226L485.198,925.226L485.198,926.316L481.722,926.316L481.722,927.744L484.957,927.744L484.957,928.83L481.722,928.83L481.722,930.583L485.321,930.583L485.321,931.668L480.421,931.668Z" style="fill:rgb(252,252,252);fill-rule:nonzero;stroke-width:0.42px;stroke-linecap:butt;stroke:black;"/>
            <path d="M486.429,931.668L486.429,925.226L489.166,925.226C489.855,925.226 490.355,925.284 490.667,925.4C490.979,925.515 491.229,925.721 491.416,926.017C491.604,926.313 491.698,926.651 491.698,927.032C491.698,927.516 491.556,927.915 491.271,928.23C490.987,928.545 490.562,928.743 489.997,928.825C490.278,928.989 490.51,929.169 490.694,929.366C490.877,929.562 491.124,929.911 491.434,930.412L492.221,931.668L490.665,931.668L489.725,930.267C489.391,929.766 489.162,929.45 489.039,929.32C488.916,929.189 488.786,929.1 488.648,929.052C488.51,929.003 488.292,928.979 487.993,928.979L487.729,928.979L487.729,931.668L486.429,931.668ZM487.729,927.951L488.692,927.951C489.316,927.951 489.706,927.924 489.861,927.872C490.016,927.819 490.138,927.728 490.226,927.599C490.313,927.47 490.357,927.309 490.357,927.116C490.357,926.899 490.3,926.724 490.184,926.591C490.068,926.457 489.905,926.373 489.694,926.338C489.588,926.323 489.272,926.316 488.745,926.316L487.729,926.316L487.729,927.951Z" style="fill:rgb(252,252,252);fill-rule:nonzero;stroke-width:0.42px;stroke-linecap:butt;stroke:black;"/>
            <path d="M830.47,931.668L830.47,925.226L835.247,925.226L835.247,926.316L831.771,926.316L831.771,927.744L835.005,927.744L835.005,928.83L831.771,928.83L831.771,930.583L835.37,930.583L835.37,931.668L830.47,931.668Z" style="fill:rgb(252,252,252);fill-rule:nonzero;stroke-width:0.42px;stroke-linecap:butt;stroke:black;"/>
            <path d="M837.923,931.668L837.923,926.316L836.011,926.316L836.011,925.226L841.131,925.226L841.131,926.316L839.224,926.316L839.224,931.668L837.923,931.668Z" style="fill:rgb(252,252,252);fill-rule:nonzero;stroke-width:0.42px;stroke-linecap:butt;stroke:black;"/>
            <path d="M841.975,931.668L841.975,925.226L843.275,925.226L843.275,927.762L845.824,927.762L845.824,925.226L847.125,925.226L847.125,931.668L845.824,931.668L845.824,928.852L843.275,928.852L843.275,931.668L841.975,931.668Z" style="fill:rgb(252,252,252);fill-rule:nonzero;stroke-width:0.42px;stroke-linecap:butt;stroke:black;"/>
            <path d="M848.47,931.668L848.47,925.226L853.247,925.226L853.247,926.316L849.771,926.316L849.771,927.744L853.005,927.744L853.005,928.83L849.771,928.83L849.771,930.583L853.37,930.583L853.37,931.668L848.47,931.668Z" style="fill:rgb(252,252,252);fill-rule:nonzero;stroke-width:0.42px;stroke-linecap:butt;stroke:black;"/>
            <path d="M854.477,931.668L854.477,925.226L857.215,925.226C857.903,925.226 858.404,925.284 858.716,925.4C859.028,925.515 859.277,925.721 859.465,926.017C859.652,926.313 859.746,926.651 859.746,927.032C859.746,927.516 859.604,927.915 859.32,928.23C859.036,928.545 858.611,928.743 858.045,928.825C858.327,928.989 858.559,929.169 858.742,929.366C858.925,929.562 859.172,929.911 859.482,930.412L860.269,931.668L858.713,931.668L857.773,930.267C857.439,929.766 857.21,929.45 857.087,929.32C856.964,929.189 856.834,929.1 856.696,929.052C856.559,929.003 856.34,928.979 856.042,928.979L855.778,928.979L855.778,931.668L854.477,931.668ZM855.778,927.951L856.74,927.951C857.364,927.951 857.754,927.924 857.909,927.872C858.064,927.819 858.186,927.728 858.274,927.599C858.362,927.47 858.406,927.309 858.406,927.116C858.406,926.899 858.348,926.724 858.232,926.591C858.116,926.457 857.953,926.373 857.742,926.338C857.637,926.323 857.32,926.316 856.793,926.316L855.778,926.316L855.778,927.951Z" style="fill:rgb(252,252,252);fill-rule:nonzero;stroke-width:0.42px;stroke-linecap:butt;stroke:black;"/>
            <path d="M860.985,931.668L860.985,925.226L862.251,925.226L864.888,929.528L864.888,925.226L866.096,925.226L866.096,931.668L864.791,931.668L862.194,927.467L862.194,931.668L860.985,931.668Z" style="fill:rgb(252,252,252);fill-rule:nonzero;stroke-width:0.42px;stroke-linecap:butt;stroke:black;"/>
            <path d="M867.472,931.668L867.472,925.226L872.249,925.226L872.249,926.316L868.772,926.316L868.772,927.744L872.007,927.744L872.007,928.83L868.772,928.83L868.772,930.583L872.372,930.583L872.372,931.668L867.472,931.668Z" style="fill:rgb(252,252,252);fill-rule:nonzero;stroke-width:0.42px;stroke-linecap:butt;stroke:black;"/>
            <path d="M874.925,931.668L874.925,926.316L873.013,926.316L873.013,925.226L878.133,925.226L878.133,926.316L876.226,926.316L876.226,931.668L874.925,931.668Z" style="fill:rgb(252,252,252);fill-rule:nonzero;stroke-width:0.42px;stroke-linecap:butt;stroke:black;"/>
            <path d="M932.287,931.668L930.748,925.226L932.08,925.226L933.051,929.651L934.229,925.226L935.776,925.226L936.905,929.726L937.894,925.226L939.204,925.226L937.639,931.668L936.259,931.668L934.976,926.852L933.697,931.668L932.287,931.668Z" style="fill:rgb(252,252,252);fill-rule:nonzero;stroke-width:0.42px;stroke-linecap:butt;stroke:black;"/>
            <path d="M939.867,931.668L939.867,925.226L941.955,925.226C942.746,925.226 943.261,925.258 943.501,925.323C943.871,925.419 944.18,925.63 944.429,925.953C944.678,926.277 944.802,926.695 944.802,927.208C944.802,927.604 944.73,927.936 944.587,928.206C944.443,928.475 944.261,928.687 944.04,928.841C943.819,928.994 943.594,929.096 943.365,929.146C943.055,929.208 942.605,929.238 942.016,929.238L941.168,929.238L941.168,931.668L939.867,931.668ZM941.168,926.316L941.168,928.144L941.88,928.144C942.393,928.144 942.735,928.11 942.908,928.043C943.081,927.976 943.217,927.87 943.315,927.727C943.413,927.583 943.462,927.416 943.462,927.226C943.462,926.991 943.393,926.798 943.255,926.646C943.118,926.493 942.943,926.398 942.732,926.36C942.577,926.331 942.265,926.316 941.796,926.316L941.168,926.316Z" style="fill:rgb(252,252,252);fill-rule:nonzero;stroke-width:0.42px;stroke-linecap:butt;stroke:black;"/>
            <path d="M945.54,929.572L946.806,929.449C946.882,929.874 947.037,930.186 947.27,930.385C947.503,930.585 947.817,930.684 948.212,930.684C948.631,930.684 948.947,930.596 949.159,930.418C949.372,930.241 949.478,930.034 949.478,929.796C949.478,929.644 949.433,929.514 949.344,929.408C949.255,929.301 949.099,929.208 948.876,929.128C948.724,929.076 948.376,928.982 947.834,928.847C947.137,928.674 946.648,928.462 946.367,928.21C945.971,927.856 945.773,927.423 945.773,926.914C945.773,926.585 945.866,926.279 946.052,925.993C946.238,925.707 946.507,925.49 946.857,925.34C947.207,925.191 947.629,925.116 948.124,925.116C948.933,925.116 949.542,925.293 949.95,925.648C950.359,926.002 950.574,926.476 950.594,927.067L949.293,927.125C949.238,926.793 949.118,926.555 948.935,926.41C948.752,926.265 948.477,926.193 948.111,926.193C947.733,926.193 947.437,926.271 947.224,926.426C947.086,926.525 947.017,926.659 947.017,926.826C947.017,926.978 947.082,927.108 947.21,927.217C947.374,927.355 947.773,927.498 948.406,927.648C949.039,927.797 949.507,927.951 949.81,928.111C950.113,928.271 950.35,928.489 950.522,928.766C950.693,929.043 950.779,929.385 950.779,929.792C950.779,930.161 950.676,930.507 950.471,930.829C950.266,931.151 949.976,931.391 949.601,931.548C949.226,931.704 948.759,931.783 948.199,931.783C947.385,931.783 946.759,931.595 946.323,931.218C945.886,930.842 945.625,930.293 945.54,929.572Z" style="fill:rgb(252,252,252);fill-rule:nonzero;stroke-width:0.42px;stroke-linecap:butt;stroke:black;"/>
            <path d="M953.706,931.778L955.301,925.116L956.228,925.116L954.615,931.778L953.706,931.778Z" style="fill:rgb(252,252,252);fill-rule:nonzero;stroke-width:0.42px;stroke-linecap:butt;stroke:black;"/>
            <path d="M959.379,931.668L959.379,925.226L962.117,925.226C962.805,925.226 963.305,925.284 963.617,925.4C963.929,925.515 964.179,925.721 964.367,926.017C964.554,926.313 964.648,926.651 964.648,927.032C964.648,927.516 964.506,927.915 964.222,928.23C963.937,928.545 963.513,928.743 962.947,928.825C963.228,928.989 963.461,929.169 963.644,929.366C963.827,929.562 964.074,929.911 964.384,930.412L965.171,931.668L963.615,931.668L962.675,930.267C962.341,929.766 962.112,929.45 961.989,929.32C961.866,929.189 961.736,929.1 961.598,929.052C961.46,929.003 961.242,928.979 960.943,928.979L960.68,928.979L960.68,931.668L959.379,931.668ZM960.68,927.951L961.642,927.951C962.266,927.951 962.656,927.924 962.811,927.872C962.966,927.819 963.088,927.728 963.176,927.599C963.264,927.47 963.308,927.309 963.308,927.116C963.308,926.899 963.25,926.724 963.134,926.591C963.018,926.457 962.855,926.373 962.644,926.338C962.539,926.323 962.222,926.316 961.695,926.316L960.68,926.316L960.68,927.951Z" style="fill:rgb(252,252,252);fill-rule:nonzero;stroke-width:0.42px;stroke-linecap:butt;stroke:black;"/>
            <path d="M965.874,931.668L965.874,925.226L970.651,925.226L970.651,926.316L967.175,926.316L967.175,927.744L970.409,927.744L970.409,928.83L967.175,928.83L967.175,930.583L970.774,930.583L970.774,931.668L965.874,931.668Z" style="fill:rgb(252,252,252);fill-rule:nonzero;stroke-width:0.42px;stroke-linecap:butt;stroke:black;"/>
            <path d="M971.547,929.572L972.813,929.449C972.889,929.874 973.044,930.186 973.277,930.385C973.509,930.585 973.824,930.684 974.219,930.684C974.638,930.684 974.954,930.596 975.166,930.418C975.379,930.241 975.485,930.034 975.485,929.796C975.485,929.644 975.44,929.514 975.351,929.408C975.261,929.301 975.105,929.208 974.883,929.128C974.73,929.076 974.383,928.982 973.841,928.847C973.144,928.674 972.655,928.462 972.373,928.21C971.978,927.856 971.78,927.423 971.78,926.914C971.78,926.585 971.873,926.279 972.059,925.993C972.245,925.707 972.513,925.49 972.863,925.34C973.214,925.191 973.636,925.116 974.131,925.116C974.94,925.116 975.549,925.293 975.957,925.648C976.366,926.002 976.581,926.476 976.601,927.067L975.3,927.125C975.245,926.793 975.125,926.555 974.942,926.41C974.759,926.265 974.484,926.193 974.118,926.193C973.74,926.193 973.444,926.271 973.23,926.426C973.093,926.525 973.024,926.659 973.024,926.826C973.024,926.978 973.088,927.108 973.217,927.217C973.381,927.355 973.78,927.498 974.413,927.648C975.045,927.797 975.513,927.951 975.817,928.111C976.12,928.271 976.357,928.489 976.529,928.766C976.7,929.043 976.786,929.385 976.786,929.792C976.786,930.161 976.683,930.507 976.478,930.829C976.273,931.151 975.983,931.391 975.608,931.548C975.233,931.704 974.766,931.783 974.206,931.783C973.392,931.783 972.766,931.595 972.33,931.218C971.893,930.842 971.632,930.293 971.547,929.572Z" style="fill:rgb(252,252,252);fill-rule:nonzero;stroke-width:0.42px;stroke-linecap:butt;stroke:black;"/>
            <path d="M977.88,931.668L977.88,925.226L982.657,925.226L982.657,926.316L979.181,926.316L979.181,927.744L982.415,927.744L982.415,928.83L979.181,928.83L979.181,930.583L982.78,930.583L982.78,931.668L977.88,931.668Z" style="fill:rgb(252,252,252);fill-rule:nonzero;stroke-width:0.42px;stroke-linecap:butt;stroke:black;"/>
            <path d="M985.333,931.668L985.333,926.316L983.421,926.316L983.421,925.226L988.541,925.226L988.541,926.316L986.634,926.316L986.634,931.668L985.333,931.668Z" style="fill:rgb(252,252,252);fill-rule:nonzero;stroke-width:0.42px;stroke-linecap:butt;stroke:black;"/>
        </g>
        <g id="ON/off" transform="matrix(1.60608,0,0,1.59048,-152.523,-704.176)">
            <g transform="matrix(1,0,0,1,-0.627516,0.355553)">
                <ellipse cx="321.797" cy="999.854" rx="16.795" ry="16.434" style="fill:rgb(230,230,230);stroke-width:0.63px;stroke:black;"/>
            </g>
            <g transform="matrix(0.766109,0,0,0.766109,74.7377,234.386)">
                <ellipse cx="321.797" cy="999.854" rx="16.795" ry="16.434" style="fill:rgb(230,230,230);stroke-width:1.63px;stroke:black;"/>
            </g>
            <g transform="matrix(1,0,0,1,-0.0942289,0.933291)">
                <path d="M321.381,992.932L321.381,1006" style="fill:none;stroke-width:2.19px;stroke:black;"/>
            </g>
        </g>
    </g>
</svg>
