<?xml version="1.0" standalone="no"?>
<!DOCTYPE svg PUBLIC "-//W3C//DTD SVG 1.1//EN" "http://www.w3.org/Graphics/SVG/1.1/DTD/svg11.dtd">
<svg width="100%" height="100%" viewBox="0 0 1280 1150" version="1.1" xmlns="http://www.w3.org/2000/svg" xmlns:xlink="http://www.w3.org/1999/xlink" xml:space="preserve" style="fill-rule:evenodd;clip-rule:evenodd;stroke-linecap:round;stroke-linejoin:round;stroke-miterlimit:1.41421;">
    <path d="M1036.68,536.487L1007.39,431.574L214.278,420.453L182.322,536.487L179.756,745.542L182.322,890.762L1048.39,890.762L1039.56,745.542L1036.68,536.487Z" style="fill:white;stroke-width:3px;stroke:black;"/>
    <g>
        <path d="M233.057,645.469L233.057,674.748L281.556,674.748L281.556,808.396L308.355,808.396L308.355,645.469L233.057,645.469Z" style="fill:none;stroke-width:3px;stroke:black;"/>
        <path d="M241.815,592.807L308.355,592.807L308.355,645.5L233.136,645.5L241.815,592.807Z" style="fill:none;stroke-width:3px;stroke:black;"/>
    </g>
    <g transform="matrix(-1,0,0,1,1222.32,0)">
        <path d="M233.057,645.469L233.057,674.748L281.556,674.748L281.556,805.527L308.355,805.527L308.355,645.469L233.057,645.469Z" style="fill:none;stroke-width:3px;stroke:black;"/>
        <path d="M241.815,592.807L308.355,592.807L308.355,645.5L233.136,645.5L241.815,592.807Z" style="fill:none;stroke-width:3px;stroke:black;"/>
    </g>
    <g id="bedienteile">
        <g id="Lan MAIN" transform="matrix(3.45724,0,0,3.63325,-1032.87,-2958.16)">
            <g transform="matrix(1,0,0,0.875709,1.24345e-14,128.701)">
                <path d="M430.126,958.534L520.049,958.534L520.049,1035.48L430.126,1035.48L430.126,958.534" style="fill:rgb(204,204,204);stroke-width:0.3px;stroke:black;"/>
            </g>
            <path d="M455.182,962.039L494.601,962.039L494.601,976.433L508.997,976.433L508.997,1024.83L438.954,1024.83L438.954,976.433L455.182,976.433L455.182,962.039Z" style="fill:rgb(51,51,51);stroke-width:0.28px;stroke:black;"/>
            <g id="pins" transform="matrix(1,0,0,1,0,5.57445)">
                <path d="M450.462,1000.22L450.462,1012.69" style="fill:none;stroke-width:0.28px;stroke:black;"/>
                <g transform="matrix(1,0,0,1,5.18811,0.142889)">
                    <path d="M450.462,1000.22L450.462,1012.69" style="fill:none;stroke-width:0.28px;stroke:black;"/>
                </g>
                <g transform="matrix(1,0,0,1,10.8216,0.142889)">
                    <path d="M450.462,1000.22L450.462,1012.69" style="fill:none;stroke-width:0.28px;stroke:black;"/>
                </g>
                <g transform="matrix(1,0,0,1,22.0044,0.291919)">
                    <path d="M450.462,1000.07L450.462,1012.69" style="fill:none;stroke-width:0.28px;stroke:black;"/>
                </g>
                <g transform="matrix(1,0,0,1,27.0496,0.291919)">
                    <path d="M450.462,1000.05L450.462,1012.69" style="fill:none;stroke-width:0.28px;stroke:black;"/>
                </g>
                <g transform="matrix(1,0,0,1,49.4509,0.192566)">
                    <path d="M450.462,1000.16L450.462,1012.69" style="fill:none;stroke-width:0.28px;stroke:black;"/>
                </g>
                <path d="M466.922,1000.38L466.922,1018.21" style="fill:none;stroke-width:0.28px;stroke:black;"/>
                <g transform="matrix(1,0,0,1,16.0399,-0.0558162)">
                    <path d="M466.922,1000.41L466.922,1018.27" style="fill:none;stroke-width:0.28px;stroke:black;"/>
                </g>
                <g transform="matrix(1,0,0,1,21.7443,-0.154611)">
                    <path d="M466.922,1000.5L466.922,1018.4" style="fill:none;stroke-width:0.28px;stroke:black;"/>
                </g>
                <g transform="matrix(1,0,0,1,27.6257,-0.353316)">
                    <path d="M466.922,1000.67L466.922,1018.4" style="fill:none;stroke-width:0.28px;stroke:black;"/>
                </g>
            </g>
        </g>
        <g id="Reset" transform="matrix(1.968,0,0,1.55171,-767.677,-438.825)">
            <rect x="800.306" y="636.233" width="38.909" height="26.928" style="fill:rgb(51,51,51);stroke-width:0.56px;stroke:black;"/>
            <g transform="matrix(1,0,0,1,-1.40428,-0.0972839)">
                <rect x="805.618" y="650.895" width="31.654" height="12.363" style="fill:rgb(179,179,179);stroke-width:0.56px;stroke:black;"/>
            </g>
            <g transform="matrix(1,0,0,1,-3.11495,0.0767834)">
                <rect x="813.313" y="655.727" width="19.703" height="5.352" style="fill:black;stroke-width:0.56px;stroke:black;"/>
            </g>
        </g>
    </g>
    <path d="M1002.25,723.486L1014.08,723.486L1017.68,546.587C1011.13,516.691 992.313,499.832 963.513,493.585L259.417,493.585C228.203,498.847 209.345,516.429 203.098,546.587L203.098,723.486L223.405,723.486L223.405,546.587C223.491,530.52 239.49,515.488 259.417,513.021L963.513,513.021C977.382,514.787 996.348,526.378 1002.25,546.587L1002.25,723.486Z" style="fill:white;stroke-width:3px;stroke:black;"/>
    <path d="M678.544,808.898L678.544,802.236L1002.26,802.236C1015.21,802.236 1018,800.091 1014.05,785.82L1002.26,723.24L1014.05,723.24L1028.71,793.005C1033.75,809.092 1021.09,808.898 1002.26,808.898L678.544,808.898Z" style="fill:white;stroke-width:3px;stroke:black;"/>
    <path d="M678.544,828.828L678.544,808.986" style="fill:none;stroke-width:3px;stroke:black;"/>
    <g transform="matrix(-1,0,0,1,1228.24,2.63438)">
        <path d="M678.544,808.898L678.544,799.869L998.043,799.869C1011,799.869 1016.09,800.239 1014.05,785.82L1004.84,720.886L1025.13,720.886L1031.36,785.82C1032.98,802.703 1032.01,808.898 1009.02,808.898L678.544,808.898Z" style="fill:white;stroke-width:3px;stroke:black;"/>
    </g>
    <path d="M549.694,829.248L549.694,809.316" style="fill:none;stroke-width:3px;stroke:black;"/>
    <path d="M182.345,536.509C189.095,494.389 217.515,469.369 263.893,469.369L967.038,469.369C996.856,469.369 1027.46,496.483 1036.65,536.509L976.738,275.659C968.581,240.142 940.825,224.939 896.133,224.939L289.883,224.939C254.851,224.939 229.325,243.341 224.146,275.659L182.345,536.509Z" style="fill:white;stroke-width:3px;stroke:black;"/>
    <path d="M549.768,840.242L549.768,828.784L217.528,828.784C191.218,828.784 192.673,819.967 200.947,745.516L179.802,745.516L172.693,821.272L172.693,866.952L640.958,908.578C838.611,938.269 1038.29,969.966 1055.87,821.272L1039.5,745.516L1018.64,745.516C1029.14,808.822 1046.55,828.784 1012.75,828.784L678.431,828.784L678.431,840.242L678.431,828.784C630.119,870.97 588.099,867.779 549.768,828.784L549.768,840.242Z" style="fill:white;stroke-width:3px;stroke:black;"/>
    <path d="M172.372,821.011C172.372,836.408 196.303,840.245 222.676,840.245L549.034,840.245C586.567,875.666 629.059,881.436 679.404,840.245L1004.73,840.245C1043.27,840.245 1055.87,830.736 1055.87,821.011L1055.87,897.198C1055.87,923.973 1003.28,970.919 944.971,970.919L262.472,970.919C204.374,970.919 172.372,913.943 172.372,897.198L172.372,821.011Z" style="fill:white;stroke-width:3px;stroke:black;"/>
</svg>
