<?xml version="1.0" standalone="no"?>
<!DOCTYPE svg PUBLIC "-//W3C//DTD SVG 1.1//EN" "http://www.w3.org/Graphics/SVG/1.1/DTD/svg11.dtd">
<svg width="100%" height="100%" viewBox="0 0 1280 1150" version="1.1" xmlns="http://www.w3.org/2000/svg" xmlns:xlink="http://www.w3.org/1999/xlink" xml:space="preserve" style="fill-rule:evenodd;clip-rule:evenodd;stroke-linejoin:round;stroke-miterlimit:1.41421;">
    <g transform="matrix(0.965926,-0.258819,0.258819,0.965926,-524.481,206.115)">
        <g id="Antennen 1043">
            <g id="new Antenne 1043">
                <path d="M652.036,619.119L703.126,619.119L700.344,526.551L655.39,526.551L652.036,619.119Z" style="fill:rgb(49,49,49);stroke-width:0.5px;stroke:black;"/>
                <rect x="665.084" y="199.138" width="27.899" height="28.754" style="fill:rgb(49,49,49);stroke-width:0.5px;stroke:black;"/>
                <path d="M649.243,689.441L650.988,616.958C669.108,618.552 687.221,618.824 705.323,616.958L707.183,689.441L649.243,689.441Z" style="fill:rgb(49,49,49);stroke-width:0.5px;stroke:black;"/>
                <path d="M650.848,597.162L650.848,612.298C668.997,614.545 687.229,614.718 705.566,612.298L705.566,597.162C687.342,599.115 669.101,598.905 650.848,597.162Z" style="fill:rgb(49,49,49);stroke-width:0.5px;stroke:black;"/>
                <path d="M663.141,341.639L694.434,341.639L694.434,223.461L663.746,223.461L663.141,341.639Z" style="fill:rgb(49,49,49);stroke-width:0.5px;stroke:black;"/>
                <path d="M651.347,593.426C669.264,594.991 687.044,594.958 704.694,593.426L703.132,552.011C686.546,553.968 669.625,553.864 652.419,552.011L651.347,593.426Z" style="fill:rgb(49,49,49);stroke-width:0.5px;stroke:black;"/>
                <path d="M653.079,547.908C669.797,549.558 686.475,549.685 703.103,547.908L702.503,533.319C686.288,534.981 669.99,534.936 653.614,533.319L653.079,547.908Z" style="fill:rgb(49,49,49);stroke-width:0.5px;stroke:black;"/>
                <path d="M653.614,529.948C669.993,531.254 686.296,531.355 702.503,529.948L697.191,338.329C685.178,340.346 673.138,340.435 661.07,338.329L653.614,529.948Z" style="fill:rgb(49,49,49);stroke-width:0.5px;stroke:black;"/>
                <rect x="663.746" y="205.104" width="30.688" height="14.659" style="fill:rgb(49,49,49);stroke-width:0.5px;stroke:black;"/>
                <path d="M663.687,200.966L694.443,200.966L694.443,144.136C688.239,128.631 671.247,128.6 663.687,144.136L663.687,200.966Z" style="fill:rgb(49,49,49);stroke-width:0.5px;stroke:black;"/>
            </g>
        </g>
    </g>
    <g id="rippen">
        <g id="rippen rechts">
            <g>
                <g transform="matrix(0.761096,0,0,0.761096,298.965,294.449)">
                    <path d="M1241.6,892.412L1249.01,906.328L1245.96,913.821L1241.6,913.821L1238.99,892.412L1241.6,892.412Z" style="fill:rgb(51,51,51);stroke-width:0.66px;stroke:black;"/>
                </g>
                <g transform="matrix(0.761096,0,0,0.761096,298.965,294.449)">
                    <path d="M1240.09,909.578C1243.88,909.985 1246.97,909.1 1249.01,906.328L1249.01,915.716C1247.37,918.684 1244.24,918.992 1240.7,919.071L1240.09,909.578Z" style="fill:rgb(51,51,51);stroke-width:0.66px;stroke:black;"/>
                </g>
            </g>
            <g>
                <g transform="matrix(0.895834,0,0,0.895834,130.986,146.98)">
                    <path d="M1241.6,892.412L1249.01,906.328L1245.96,913.821L1241.6,913.821L1238.99,892.412L1241.6,892.412Z" style="fill:rgb(51,51,51);stroke-width:0.56px;stroke:black;"/>
                </g>
                <g transform="matrix(0.895834,0,0,0.895834,130.986,146.98)">
                    <path d="M1240.09,909.578C1243.88,909.985 1246.97,909.1 1249.01,906.328L1249.01,915.716C1247.37,918.684 1244.24,918.992 1240.7,919.071L1240.09,909.578Z" style="fill:rgb(51,51,51);stroke-width:0.56px;stroke:black;"/>
                </g>
            </g>
            <g>
                <g transform="matrix(1,0,0,1,0.455564,25.8628)">
                    <path d="M1241.6,892.412L1249.01,906.328L1245.96,913.821L1241.6,913.821L1238.99,892.412L1241.6,892.412Z" style="fill:rgb(51,51,51);stroke-width:0.5px;stroke:black;"/>
                </g>
                <g transform="matrix(1,0,0,1,0.455564,25.8628)">
                    <path d="M1240.09,909.578C1243.88,909.985 1246.97,909.1 1249.01,906.328L1249.01,915.716C1247.37,918.684 1244.24,918.992 1240.7,919.071L1240.09,909.578Z" style="fill:rgb(51,51,51);stroke-width:0.5px;stroke:black;"/>
                </g>
            </g>
            <g>
                <path d="M1241.6,892.412L1249.01,906.328L1245.96,913.821L1241.6,913.821L1238.99,892.412L1241.6,892.412Z" style="fill:rgb(51,51,51);stroke-width:0.5px;stroke:black;"/>
                <path d="M1240.09,909.578C1243.88,909.985 1246.97,909.1 1249.01,906.328L1249.01,915.716C1247.37,918.684 1244.24,918.992 1240.7,919.071L1240.09,909.578Z" style="fill:rgb(51,51,51);stroke-width:0.5px;stroke:black;"/>
            </g>
            <g>
                <path d="M1240.14,866.776L1248.99,881.994L1246.04,886.95L1238.92,886.95L1236.59,866.776L1240.14,866.776Z" style="fill:rgb(51,51,51);stroke-width:0.5px;stroke:black;"/>
                <g transform="matrix(1,0,0,0.896026,0,92.9608)">
                    <path d="M1238.87,883.847C1242.7,884.399 1246.01,883.065 1249.01,880.617L1249.01,890.531C1247.98,892.652 1244.86,893.758 1240.14,894.081L1238.87,883.847Z" style="fill:rgb(51,51,51);stroke-width:0.53px;stroke:black;"/>
                </g>
            </g>
            <g>
                <path d="M1140.2,705.009C1150,707.551 1157.58,712.8 1162.64,721.13L1248.94,858.06L1247.88,863.427L1243.69,864.809L1235.73,863.571L1140.2,705.009Z" style="fill:rgb(51,51,51);stroke-width:0.5px;stroke:black;"/>
                <g transform="matrix(1,0,0,1.34688,0,-298.374)">
                    <path d="M1237.42,867.999C1242.73,868.034 1247.04,867.325 1248.94,864.835C1249.06,864.122 1248.95,858.906 1248.94,858.597C1246.75,862.143 1241.98,863.061 1235.99,862.642" style="fill:rgb(51,51,51);stroke-width:0.42px;stroke:black;"/>
                </g>
            </g>
        </g>
        <g id="rippen rechts1" transform="matrix(-1,0,0,1,1328.52,0)">
            <g>
                <g transform="matrix(0.761096,0,0,0.761096,298.965,294.449)">
                    <path d="M1241.6,892.412L1249.01,906.328L1245.96,913.821L1241.6,913.821L1238.99,892.412L1241.6,892.412Z" style="fill:rgb(51,51,51);stroke-width:0.66px;stroke:black;"/>
                </g>
                <g transform="matrix(0.761096,0,0,0.761096,298.965,294.449)">
                    <path d="M1240.09,909.578C1243.88,909.985 1246.97,909.1 1249.01,906.328L1249.01,915.716C1247.37,918.684 1244.24,918.992 1240.7,919.071L1240.09,909.578Z" style="fill:rgb(51,51,51);stroke-width:0.66px;stroke:black;"/>
                </g>
            </g>
            <g>
                <g transform="matrix(0.895834,0,0,0.895834,130.986,146.98)">
                    <path d="M1241.6,892.412L1249.01,906.328L1245.96,913.821L1241.6,913.821L1238.99,892.412L1241.6,892.412Z" style="fill:rgb(51,51,51);stroke-width:0.56px;stroke:black;"/>
                </g>
                <g transform="matrix(0.895834,0,0,0.895834,130.986,146.98)">
                    <path d="M1240.09,909.578C1243.88,909.985 1246.97,909.1 1249.01,906.328L1249.01,915.716C1247.37,918.684 1244.24,918.992 1240.7,919.071L1240.09,909.578Z" style="fill:rgb(51,51,51);stroke-width:0.56px;stroke:black;"/>
                </g>
            </g>
            <g>
                <g transform="matrix(1,0,0,1,0.455564,25.8628)">
                    <path d="M1241.6,892.412L1249.01,906.328L1245.96,913.821L1241.6,913.821L1238.99,892.412L1241.6,892.412Z" style="fill:rgb(51,51,51);stroke-width:0.5px;stroke:black;"/>
                </g>
                <g transform="matrix(1,0,0,1,0.455564,25.8628)">
                    <path d="M1240.09,909.578C1243.88,909.985 1246.97,909.1 1249.01,906.328L1249.01,915.716C1247.37,918.684 1244.24,918.992 1240.7,919.071L1240.09,909.578Z" style="fill:rgb(51,51,51);stroke-width:0.5px;stroke:black;"/>
                </g>
            </g>
            <g>
                <path d="M1241.6,892.412L1249.01,906.328L1245.96,913.821L1241.6,913.821L1238.99,892.412L1241.6,892.412Z" style="fill:rgb(51,51,51);stroke-width:0.5px;stroke:black;"/>
                <path d="M1240.09,909.578C1243.88,909.985 1246.97,909.1 1249.01,906.328L1249.01,915.716C1247.37,918.684 1244.24,918.992 1240.7,919.071L1240.09,909.578Z" style="fill:rgb(51,51,51);stroke-width:0.5px;stroke:black;"/>
            </g>
            <g>
                <path d="M1240.14,866.776L1248.99,881.994L1246.04,886.95L1238.92,886.95L1236.59,866.776L1240.14,866.776Z" style="fill:rgb(51,51,51);stroke-width:0.5px;stroke:black;"/>
                <g transform="matrix(1,0,0,0.896026,0,92.9608)">
                    <path d="M1238.87,883.847C1242.7,884.399 1246.01,883.065 1249.01,880.617L1249.01,890.531C1247.98,892.652 1244.86,893.758 1240.14,894.081L1238.87,883.847Z" style="fill:rgb(51,51,51);stroke-width:0.53px;stroke:black;"/>
                </g>
            </g>
            <g>
                <path d="M1140.2,705.009C1150,707.551 1157.58,712.8 1162.64,721.13L1248.94,858.06L1247.88,863.427L1243.69,864.809L1235.73,863.571L1140.2,705.009Z" style="fill:rgb(51,51,51);stroke-width:0.5px;stroke:black;"/>
                <g transform="matrix(1,0,0,1.34688,0,-298.374)">
                    <path d="M1237.42,867.999C1242.73,868.034 1247.04,867.325 1248.94,864.835C1249.06,864.122 1248.95,858.906 1248.94,858.597C1246.75,862.143 1241.98,863.061 1235.99,862.642" style="fill:rgb(51,51,51);stroke-width:0.42px;stroke:black;"/>
                </g>
            </g>
        </g>
    </g>
    <g id="Router">
        <g id="Plaste weis">
            <path d="M84.296,981.947C86.513,932.857 87.593,880.051 96.522,852.897L191.308,703.716C195.01,697.889 223.422,689.309 242.194,688.874L1062.77,688.874C1102.56,689.162 1132.19,692.715 1138.68,703.716L1228.06,846.708C1231.44,852.7 1234.16,858.892 1236.37,865.237C1240.57,904.026 1241.72,942.997 1243.22,981.947L1230.41,996.746L98.354,996.746L84.296,981.947Z" style="fill:white;stroke-width:3px;stroke-linecap:round;stroke:black;"/>
            <path d="M259.697,986.318L94.282,986.318C89.968,986.135 86.672,984.601 84.22,981.947L84.22,1002.75C84.22,1005.88 92.109,1013.63 94.282,1013.63L259.697,1013.63L259.697,986.318Z" style="fill:white;stroke-width:3px;stroke-linecap:round;stroke:black;"/>
            <g transform="matrix(-1,0,0,1,1327.35,0)">
                <path d="M259.697,986.318L94.282,986.318C89.968,986.135 86.672,984.601 84.22,981.947L84.22,1002.75C84.22,1005.88 92.109,1013.63 94.282,1013.63L259.697,1013.63L259.697,986.318Z" style="fill:white;stroke-width:3px;stroke-linecap:round;stroke:black;"/>
            </g>
        </g>
        <g id="QSS">
            <path d="M1223.29,928.479C1223.29,923.226 1219.03,918.961 1213.78,918.961L1114.87,918.961C1109.61,918.961 1105.35,923.226 1105.35,928.479L1105.35,972.96C1105.35,978.213 1109.61,982.477 1114.87,982.477L1213.78,982.477C1219.03,982.477 1223.29,978.213 1223.29,972.96L1223.29,928.479Z" style="fill:rgb(64,200,43);stroke-width:0.65px;stroke-linecap:round;stroke:black;"/>
            <g id="wifi-links">
                <path d="M1165.04,941.731C1161.05,948.191 1161.14,954.236 1165.04,960.178" style="fill:none;stroke-width:0.65px;stroke-linecap:round;stroke:black;"/>
                <g transform="matrix(1.22273,0,0,1.13864,-262.476,-131.913)">
                    <path d="M1165.04,941.731C1161.05,948.191 1161.14,954.236 1165.04,960.178" style="fill:none;stroke-width:0.55px;stroke-linecap:round;stroke:black;"/>
                </g>
                <g transform="matrix(1.28019,0,0,1.27899,-332.767,-265.276)">
                    <path d="M1165.04,941.731C1161.05,948.191 1161.14,954.236 1165.04,960.178" style="fill:none;stroke-width:0.51px;stroke-linecap:round;stroke:black;"/>
                </g>
            </g>
            <g id="wifi-rechts" transform="matrix(-1,5.66554e-16,-5.66554e-16,-1,2372.96,1902.65)">
                <path d="M1165.04,941.731C1161.05,948.191 1161.14,954.236 1165.04,960.178" style="fill:none;stroke-width:0.65px;stroke-linecap:round;stroke:black;"/>
                <g transform="matrix(1.22273,0,0,1.13864,-262.476,-131.913)">
                    <path d="M1165.04,941.731C1161.05,948.191 1161.14,954.236 1165.04,960.178" style="fill:none;stroke-width:0.55px;stroke-linecap:round;stroke:black;"/>
                </g>
                <g transform="matrix(1.28019,0,0,1.27899,-332.767,-265.276)">
                    <path d="M1165.04,941.731C1161.05,948.191 1161.14,954.236 1165.04,960.178" style="fill:none;stroke-width:0.51px;stroke-linecap:round;stroke:black;"/>
                </g>
            </g>
            <g transform="matrix(1.15,0,0,0.95,-178.764,57.5675)">
                <path d="M1176.49,933.59L1176.49,946.756C1176.49,947.111 1176.54,947.364 1176.64,947.515C1176.75,947.665 1176.92,947.74 1177.16,947.74C1177.41,947.74 1177.59,947.663 1177.7,947.508C1177.8,947.353 1177.85,947.102 1177.85,946.756L1177.85,933.59C1177.85,933.234 1177.8,932.984 1177.7,932.838C1177.59,932.692 1177.41,932.619 1177.16,932.619C1176.92,932.619 1176.75,932.697 1176.64,932.852C1176.54,933.007 1176.49,933.253 1176.49,933.59ZM1172.45,934.943C1172.45,933.066 1172.82,931.728 1173.55,930.931C1174.28,930.133 1175.48,929.734 1177.16,929.734C1178.83,929.734 1180.04,930.129 1180.77,930.917C1181.49,931.705 1181.86,933.048 1181.86,934.943L1181.86,945.607C1181.86,946.984 1181.69,948.021 1181.34,948.718C1180.99,949.415 1180.4,949.955 1179.56,950.338C1179.56,950.557 1179.61,950.714 1179.7,950.81C1179.8,950.905 1179.95,950.953 1180.15,950.953L1181.78,950.953L1181.78,953.893L1179.29,953.893C1178.77,953.893 1178.37,953.637 1178.09,953.127C1177.8,952.617 1177.66,951.883 1177.66,950.926L1177.66,950.789C1177.51,950.798 1177.37,950.805 1177.24,950.81C1177.11,950.814 1176.99,950.816 1176.87,950.816C1175.35,950.816 1174.23,950.402 1173.52,949.572C1172.81,948.743 1172.45,947.421 1172.45,945.607L1172.45,934.943Z" style="fill:white;fill-rule:nonzero;stroke-width:0.38px;stroke:rgb(49,49,49);"/>
                <path d="M1182.87,933.795C1182.87,932.51 1183.28,931.512 1184.11,930.801C1184.93,930.09 1186.09,929.734 1187.57,929.734C1189.07,929.734 1190.22,930.092 1191.03,930.808C1191.84,931.523 1192.25,932.546 1192.25,933.877L1192.25,937.172L1188.24,937.172L1188.24,933.59C1188.24,933.225 1188.19,932.972 1188.09,932.831C1187.99,932.69 1187.82,932.619 1187.57,932.619C1187.32,932.619 1187.14,932.694 1187.03,932.845C1186.93,932.995 1186.88,933.244 1186.88,933.59L1186.88,935.381C1186.88,935.682 1186.91,935.944 1186.99,936.167C1187.07,936.39 1187.19,936.607 1187.37,936.816L1191.24,941.068C1191.6,941.46 1191.86,941.875 1192.02,942.313C1192.17,942.75 1192.25,943.447 1192.25,944.404L1192.25,946.756C1192.25,948.05 1191.84,949.046 1191.03,949.743C1190.21,950.44 1189.05,950.789 1187.55,950.789C1186.01,950.789 1184.84,950.425 1184.05,949.695C1183.27,948.966 1182.87,947.891 1182.87,946.469L1182.87,942.695L1186.88,942.695L1186.88,946.756C1186.88,947.102 1186.93,947.353 1187.03,947.508C1187.14,947.663 1187.32,947.74 1187.57,947.74C1187.81,947.74 1187.98,947.665 1188.09,947.515C1188.19,947.364 1188.24,947.111 1188.24,946.756L1188.24,944.623C1188.24,944.331 1188.19,944.06 1188.09,943.81C1187.98,943.559 1187.8,943.288 1187.55,942.996L1183.91,938.881C1183.54,938.462 1183.27,938.04 1183.11,937.616C1182.95,937.192 1182.87,936.625 1182.87,935.914L1182.87,935.613L1182.87,933.795Z" style="fill:white;fill-rule:nonzero;stroke-width:0.38px;stroke:rgb(49,49,49);"/>
                <path d="M1193.18,933.795C1193.18,932.51 1193.59,931.512 1194.42,930.801C1195.24,930.09 1196.4,929.734 1197.88,929.734C1199.38,929.734 1200.53,930.092 1201.34,930.808C1202.15,931.523 1202.56,932.546 1202.56,933.877L1202.56,937.172L1198.55,937.172L1198.55,933.59C1198.55,933.225 1198.5,932.972 1198.4,932.831C1198.3,932.69 1198.13,932.619 1197.88,932.619C1197.63,932.619 1197.45,932.694 1197.34,932.845C1197.24,932.995 1197.18,933.244 1197.18,933.59L1197.18,935.381C1197.18,935.682 1197.22,935.944 1197.3,936.167C1197.38,936.39 1197.5,936.607 1197.68,936.816L1201.55,941.068C1201.91,941.46 1202.17,941.875 1202.33,942.313C1202.48,942.75 1202.56,943.447 1202.56,944.404L1202.56,946.756C1202.56,948.05 1202.15,949.046 1201.33,949.743C1200.52,950.44 1199.36,950.789 1197.86,950.789C1196.32,950.789 1195.15,950.425 1194.36,949.695C1193.57,948.966 1193.18,947.891 1193.18,946.469L1193.18,942.695L1197.18,942.695L1197.18,946.756C1197.18,947.102 1197.24,947.353 1197.34,947.508C1197.45,947.663 1197.63,947.74 1197.88,947.74C1198.12,947.74 1198.29,947.665 1198.39,947.515C1198.5,947.364 1198.55,947.111 1198.55,946.756L1198.55,944.623C1198.55,944.331 1198.5,944.06 1198.39,943.81C1198.29,943.559 1198.11,943.288 1197.86,942.996L1194.22,938.881C1193.84,938.462 1193.58,938.04 1193.42,937.616C1193.26,937.192 1193.18,936.625 1193.18,935.914L1193.18,935.613L1193.18,933.795Z" style="fill:white;fill-rule:nonzero;stroke-width:0.38px;stroke:rgb(49,49,49);"/>
            </g>
            <g id="ON/off" transform="matrix(1.17447,0,0,1.17447,753.45,-223.957)">
                <g transform="matrix(1,0,0,1,-0.627516,0.355553)">
                    <ellipse cx="321.797" cy="999.854" rx="16.795" ry="16.434" style="fill:rgb(72,72,74);stroke-width:0.85px;stroke-linecap:round;stroke:black;"/>
                </g>
                <g transform="matrix(0.766109,0,0,0.766109,74.7377,234.386)">
                    <ellipse cx="321.797" cy="999.854" rx="16.795" ry="16.434" style="fill:rgb(72,72,74);stroke-width:2.22px;stroke-linecap:round;stroke:black;"/>
                </g>
                <g transform="matrix(1,0,0,1,-0.0942289,0.933291)">
                    <path d="M321.381,992.932L321.381,1006" style="fill:none;stroke-width:2.98px;stroke-linecap:round;stroke:black;"/>
                </g>
            </g>
        </g>
        <path d="M97.426,852.496C96.783,841.411 1230.34,844.994 1231.06,852.496" style="fill:none;stroke-width:3px;stroke-linecap:round;stroke:black;"/>
        <g id="Front">
            <g transform="matrix(1.00334,0,0,1.02921,-2.41872,-29.4677)">
                <path d="M1077.9,918.634C1077.9,899.173 1061.7,883.372 1041.73,883.372L288.417,883.372C268.454,883.372 252.246,899.173 252.246,918.634L252.246,973.432C252.246,992.893 268.454,1008.69 288.417,1008.69L1041.73,1008.69C1061.7,1008.69 1077.9,992.893 1077.9,973.432L1077.9,918.634Z" style="fill:rgb(51,51,51);"/>
            </g>
            <path d="M1079.17,966.72C1079.17,956.578 1070.94,948.343 1060.8,948.343L269.032,948.343C258.89,948.343 250.656,956.578 250.656,966.72L250.656,1003.47C250.656,1013.61 258.89,1021.85 269.032,1021.85L1060.8,1021.85C1070.94,1021.85 1079.17,1013.61 1079.17,1003.47L1079.17,966.72Z" style="fill:rgb(51,51,51);"/>
            <g transform="matrix(1,0,0,1.76392,0,-718.176)">
                <path d="M936.461,944.183C936.461,941.941 933.25,940.121 929.296,940.121L405.838,940.121C401.883,940.121 398.673,941.941 398.673,944.183L398.673,946.328C398.673,948.57 401.883,950.391 405.838,950.391L929.296,950.391C933.25,950.391 936.461,948.57 936.461,946.328L936.461,944.183Z" style="fill:rgb(54,129,35);stroke-width:0.7px;stroke:black;"/>
            </g>
            <g>
                <circle cx="433.52" cy="948.693" r="6.161" style="fill:rgb(175,239,159);stroke-width:0.5px;stroke:black;"/>
                <g transform="matrix(1,0,0,1,76.3442,0)">
                    <circle cx="433.52" cy="948.693" r="6.161" style="fill:rgb(175,239,159);stroke-width:0.5px;stroke:black;"/>
                </g>
                <g transform="matrix(1,0,0,1,148.4,0)">
                    <circle cx="433.52" cy="948.693" r="6.161" style="fill:rgb(175,239,159);stroke-width:0.5px;stroke:black;"/>
                </g>
                <g transform="matrix(1,0,0,1,214.262,0)">
                    <circle cx="433.52" cy="948.693" r="6.161" style="fill:rgb(175,239,159);stroke-width:0.5px;stroke:black;"/>
                </g>
                <g transform="matrix(1,0,0,1,250.149,0)">
                    <circle cx="433.52" cy="948.693" r="6.161" style="fill:rgb(175,239,159);stroke-width:0.5px;stroke:black;"/>
                </g>
                <g transform="matrix(1,0,0,1,285.169,0)">
                    <circle cx="433.52" cy="948.693" r="6.161" style="fill:rgb(175,239,159);stroke-width:0.5px;stroke:black;"/>
                </g>
                <g transform="matrix(1,0,0,1,324.581,0)">
                    <circle cx="433.52" cy="948.693" r="6.161" style="fill:rgb(175,239,159);stroke-width:0.5px;stroke:black;"/>
                </g>
                <g transform="matrix(1,0,0,1,390.303,0)">
                    <circle cx="433.52" cy="948.693" r="6.161" style="fill:rgb(175,239,159);stroke-width:0.5px;stroke:black;"/>
                </g>
                <g transform="matrix(1,0,0,1,431.431,0)">
                    <circle cx="433.52" cy="948.693" r="6.161" style="fill:rgb(175,239,159);stroke-width:0.5px;stroke:black;"/>
                </g>
                <g transform="matrix(1,0,0,1,468.965,0)">
                    <circle cx="433.52" cy="948.693" r="6.161" style="fill:rgb(175,239,159);stroke-width:0.5px;stroke:black;"/>
                </g>
            </g>
            <g transform="matrix(1.00077,0,0,0.844315,1.86022,149.748)">
                <path d="M962.231,946.943C962.231,938.71 956.591,932.026 949.645,932.026L377.334,932.026C370.388,932.026 364.749,938.71 364.749,946.943C364.749,955.177 370.388,961.861 377.334,961.861L949.645,961.861C956.591,961.861 962.231,955.177 962.231,946.943Z" style="fill:none;stroke-width:0.54px;stroke:black;"/>
            </g>
        </g>
    </g>
    <g id="Beschriftung">
        <g transform="matrix(0.89,0,0,1,97.9836,3.91336)">
            <path d="M923.721,979.725L923.721,969.624L919.948,969.624L919.948,968.272L929.026,968.272L929.026,969.624L925.237,969.624L925.237,979.725L923.721,979.725Z" style="fill:rgb(252,252,252);fill-rule:nonzero;"/>
            <path d="M930.518,979.725L930.518,968.272L932.034,968.272L932.034,978.374L937.675,978.374L937.675,979.725L930.518,979.725Z" style="fill:rgb(252,252,252);fill-rule:nonzero;"/>
            <rect x="942.531" y="974.874" width="4.32" height="1.414" style="fill:rgb(252,252,252);fill-rule:nonzero;"/>
            <path d="M952.984,979.725L952.984,968.272L955.265,968.272L957.976,976.381C958.226,977.137 958.408,977.702 958.523,978.077C958.653,977.66 958.856,977.048 959.132,976.241L961.875,968.272L963.914,968.272L963.914,979.725L962.453,979.725L962.453,970.139L959.125,979.725L957.757,979.725L954.445,969.975L954.445,979.725L952.984,979.725Z" style="fill:rgb(252,252,252);fill-rule:nonzero;"/>
            <path d="M966.382,979.725L966.382,968.272L971.461,968.272C972.481,968.272 973.257,968.375 973.789,968.581C974.32,968.786 974.744,969.15 975.062,969.67C975.38,970.191 975.539,970.767 975.539,971.397C975.539,972.209 975.276,972.894 974.75,973.452C974.224,974.009 973.411,974.363 972.312,974.514C972.713,974.707 973.018,974.897 973.226,975.084C973.669,975.491 974.088,975.999 974.484,976.608L976.476,979.725L974.57,979.725L973.054,977.342C972.612,976.655 972.247,976.129 971.961,975.764C971.674,975.4 971.418,975.144 971.191,974.999C970.964,974.853 970.734,974.751 970.5,974.694C970.328,974.657 970.047,974.639 969.656,974.639L967.898,974.639L967.898,979.725L966.382,979.725ZM967.898,973.327L971.156,973.327C971.849,973.327 972.39,973.255 972.781,973.112C973.172,972.969 973.468,972.739 973.672,972.424C973.875,972.109 973.976,971.767 973.976,971.397C973.976,970.855 973.78,970.41 973.386,970.061C972.993,969.712 972.372,969.538 971.523,969.538L967.898,969.538L967.898,973.327Z" style="fill:rgb(252,252,252);fill-rule:nonzero;"/>
            <path d="M977.351,976.702L978.757,976.514C978.919,977.311 979.194,977.885 979.582,978.237C979.97,978.588 980.442,978.764 981,978.764C981.661,978.764 982.22,978.535 982.675,978.077C983.131,977.618 983.359,977.051 983.359,976.374C983.359,975.728 983.148,975.195 982.726,974.776C982.304,974.357 981.768,974.147 981.117,974.147C980.851,974.147 980.52,974.199 980.125,974.303L980.281,973.069C980.375,973.079 980.45,973.084 980.507,973.084C981.106,973.084 981.645,972.928 982.125,972.616C982.604,972.303 982.843,971.821 982.843,971.17C982.843,970.655 982.669,970.228 982.32,969.889C981.971,969.551 981.52,969.381 980.968,969.381C980.422,969.381 979.966,969.553 979.601,969.897C979.237,970.241 979.002,970.756 978.898,971.444L977.492,971.194C977.664,970.251 978.054,969.521 978.664,969.002C979.273,968.484 980.031,968.225 980.937,968.225C981.562,968.225 982.138,968.359 982.664,968.627C983.19,968.896 983.592,969.262 983.871,969.725C984.149,970.189 984.289,970.681 984.289,971.202C984.289,971.696 984.156,972.147 983.89,972.553C983.625,972.959 983.231,973.282 982.711,973.522C983.388,973.678 983.914,974.002 984.289,974.495C984.664,974.987 984.851,975.603 984.851,976.342C984.851,977.342 984.487,978.19 983.757,978.885C983.028,979.581 982.106,979.928 980.992,979.928C979.987,979.928 979.152,979.629 978.488,979.03C977.824,978.431 977.445,977.655 977.351,976.702Z" style="fill:rgb(252,252,252);fill-rule:nonzero;"/>
            <path d="M993.632,978.374L993.632,979.725L986.062,979.725C986.052,979.387 986.106,979.061 986.226,978.749C986.419,978.233 986.728,977.725 987.152,977.225C987.576,976.725 988.19,976.147 988.992,975.491C990.237,974.47 991.078,973.661 991.515,973.065C991.953,972.469 992.172,971.905 992.172,971.374C992.172,970.816 991.972,970.346 991.574,969.963C991.175,969.581 990.656,969.389 990.015,969.389C989.338,969.389 988.797,969.592 988.39,969.999C987.984,970.405 987.778,970.967 987.773,971.686L986.328,971.538C986.427,970.459 986.799,969.638 987.445,969.073C988.091,968.508 988.958,968.225 990.047,968.225C991.145,968.225 992.015,968.53 992.656,969.139C993.297,969.749 993.617,970.504 993.617,971.405C993.617,971.863 993.523,972.314 993.336,972.756C993.148,973.199 992.837,973.665 992.402,974.155C991.967,974.644 991.244,975.316 990.234,976.17C989.39,976.879 988.849,977.359 988.609,977.612C988.369,977.864 988.172,978.118 988.015,978.374L993.632,978.374Z" style="fill:rgb(252,252,252);fill-rule:nonzero;"/>
            <path d="M1002.53,978.374L1002.53,979.725L994.961,979.725C994.95,979.387 995.005,979.061 995.125,978.749C995.317,978.233 995.626,977.725 996.05,977.225C996.475,976.725 997.088,976.147 997.89,975.491C999.135,974.47 999.976,973.661 1000.41,973.065C1000.85,972.469 1001.07,971.905 1001.07,971.374C1001.07,970.816 1000.87,970.346 1000.47,969.963C1000.07,969.581 999.554,969.389 998.914,969.389C998.237,969.389 997.695,969.592 997.289,969.999C996.882,970.405 996.677,970.967 996.672,971.686L995.226,971.538C995.325,970.459 995.698,969.638 996.343,969.073C996.989,968.508 997.856,968.225 998.945,968.225C1000.04,968.225 1000.91,968.53 1001.55,969.139C1002.2,969.749 1002.51,970.504 1002.51,971.405C1002.51,971.863 1002.42,972.314 1002.23,972.756C1002.05,973.199 1001.74,973.665 1001.3,974.155C1000.87,974.644 1000.14,975.316 999.132,976.17C998.289,976.879 997.747,977.359 997.507,977.612C997.268,977.864 997.07,978.118 996.914,978.374L1002.53,978.374Z" style="fill:rgb(252,252,252);fill-rule:nonzero;"/>
            <path d="M1004.04,974.077C1004.04,972.722 1004.18,971.633 1004.46,970.807C1004.74,969.982 1005.15,969.345 1005.7,968.897C1006.25,968.449 1006.94,968.225 1007.77,968.225C1008.39,968.225 1008.93,968.349 1009.39,968.596C1009.85,968.844 1010.24,969.2 1010.54,969.666C1010.84,970.133 1011.08,970.7 1011.25,971.37C1011.42,972.039 1011.51,972.941 1011.51,974.077C1011.51,975.42 1011.37,976.505 1011.09,977.331C1010.82,978.156 1010.4,978.794 1009.86,979.245C1009.31,979.695 1008.61,979.92 1007.77,979.92C1006.67,979.92 1005.8,979.525 1005.17,978.733C1004.42,977.78 1004.04,976.228 1004.04,974.077ZM1005.48,974.077C1005.48,975.957 1005.7,977.208 1006.14,977.831C1006.58,978.453 1007.13,978.764 1007.77,978.764C1008.42,978.764 1008.96,978.452 1009.4,977.827C1009.84,977.202 1010.06,975.952 1010.06,974.077C1010.06,972.191 1009.84,970.939 1009.4,970.319C1008.96,969.699 1008.41,969.389 1007.76,969.389C1007.11,969.389 1006.6,969.663 1006.21,970.209C1005.73,970.907 1005.48,972.196 1005.48,974.077Z" style="fill:rgb(252,252,252);fill-rule:nonzero;"/>
        </g>
        <g transform="matrix(0.89,0,0,1,-518.576,3.57615)">
            <path d="M920.245,976.702L921.651,976.514C921.813,977.311 922.087,977.885 922.475,978.237C922.863,978.588 923.336,978.764 923.893,978.764C924.555,978.764 925.113,978.535 925.569,978.077C926.025,977.618 926.253,977.051 926.253,976.374C926.253,975.728 926.042,975.195 925.62,974.776C925.198,974.357 924.662,974.147 924.011,974.147C923.745,974.147 923.414,974.199 923.018,974.303L923.175,973.069C923.268,973.079 923.344,973.084 923.401,973.084C924,973.084 924.539,972.928 925.018,972.616C925.498,972.303 925.737,971.821 925.737,971.17C925.737,970.655 925.563,970.228 925.214,969.889C924.865,969.551 924.414,969.381 923.862,969.381C923.315,969.381 922.859,969.553 922.495,969.897C922.13,970.241 921.896,970.756 921.792,971.444L920.386,971.194C920.557,970.251 920.948,969.521 921.557,969.002C922.167,968.484 922.925,968.225 923.831,968.225C924.456,968.225 925.031,968.359 925.557,968.627C926.083,968.896 926.486,969.262 926.764,969.725C927.043,970.189 927.182,970.681 927.182,971.202C927.182,971.696 927.05,972.147 926.784,972.553C926.518,972.959 926.125,973.282 925.604,973.522C926.281,973.678 926.807,974.002 927.182,974.495C927.557,974.987 927.745,975.603 927.745,976.342C927.745,977.342 927.38,978.19 926.651,978.885C925.922,979.581 925,979.928 923.886,979.928C922.88,979.928 922.046,979.629 921.382,979.03C920.718,978.431 920.339,977.655 920.245,976.702Z" style="fill:rgb(252,252,252);fill-rule:nonzero;"/>
            <path d="M935.065,975.233L935.065,973.889L939.917,973.881L939.917,978.131C939.172,978.725 938.404,979.172 937.612,979.471C936.82,979.771 936.008,979.92 935.175,979.92C934.05,979.92 933.027,979.68 932.108,979.198C931.189,978.716 930.495,978.019 930.026,977.108C929.557,976.196 929.323,975.178 929.323,974.053C929.323,972.939 929.556,971.898 930.022,970.932C930.488,969.966 931.159,969.249 932.034,968.78C932.909,968.311 933.917,968.077 935.057,968.077C935.886,968.077 936.634,968.211 937.303,968.479C937.973,968.747 938.498,969.121 938.878,969.6C939.258,970.079 939.547,970.704 939.745,971.475L938.378,971.85C938.206,971.267 937.992,970.808 937.737,970.475C937.482,970.142 937.117,969.875 936.643,969.674C936.169,969.474 935.643,969.374 935.065,969.374C934.373,969.374 933.774,969.479 933.268,969.69C932.763,969.901 932.356,970.178 932.046,970.522C931.736,970.866 931.495,971.243 931.323,971.655C931.031,972.363 930.886,973.131 930.886,973.959C930.886,974.98 931.061,975.834 931.413,976.522C931.764,977.209 932.276,977.72 932.948,978.053C933.62,978.387 934.333,978.553 935.089,978.553C935.745,978.553 936.386,978.427 937.011,978.174C937.636,977.922 938.109,977.652 938.432,977.366L938.432,975.233L935.065,975.233Z" style="fill:rgb(252,252,252);fill-rule:nonzero;"/>
            <path d="M948.596,979.725L945.557,968.272L947.112,968.272L948.854,975.78C949.042,976.566 949.203,977.347 949.339,978.124C949.63,976.9 949.802,976.194 949.854,976.006L952.034,968.272L953.862,968.272L955.503,974.069C955.914,975.506 956.211,976.858 956.393,978.124C956.539,977.4 956.729,976.569 956.964,975.631L958.761,968.272L960.284,968.272L957.143,979.725L955.682,979.725L953.268,970.999C953.065,970.269 952.945,969.821 952.909,969.655C952.789,970.181 952.677,970.629 952.573,970.999L950.143,979.725L948.596,979.725Z" style="fill:rgb(252,252,252);fill-rule:nonzero;"/>
            <path d="M961.526,969.889L961.526,968.272L962.932,968.272L962.932,969.889L961.526,969.889ZM961.526,979.725L961.526,971.428L962.932,971.428L962.932,979.725L961.526,979.725Z" style="fill:rgb(252,252,252);fill-rule:nonzero;"/>
            <path d="M965.057,979.725L965.057,971.428L966.323,971.428L966.323,972.686C966.646,972.097 966.944,971.709 967.218,971.522C967.491,971.334 967.792,971.241 968.12,971.241C968.594,971.241 969.076,971.392 969.565,971.694L969.081,972.999C968.737,972.795 968.393,972.694 968.05,972.694C967.742,972.694 967.466,972.786 967.221,972.971C966.977,973.156 966.802,973.413 966.698,973.741C966.542,974.241 966.464,974.788 966.464,975.381L966.464,979.725L965.057,979.725Z" style="fill:rgb(252,252,252);fill-rule:nonzero;"/>
            <path d="M976.081,977.053L977.534,977.233C977.305,978.082 976.88,978.741 976.261,979.209C975.641,979.678 974.849,979.913 973.886,979.913C972.672,979.913 971.71,979.539 970.999,978.791C970.288,978.044 969.932,976.996 969.932,975.647C969.932,974.251 970.292,973.168 971.011,972.397C971.729,971.626 972.662,971.241 973.807,971.241C974.917,971.241 975.823,971.618 976.526,972.374C977.229,973.129 977.581,974.191 977.581,975.561C977.581,975.644 977.578,975.769 977.573,975.936L971.386,975.936C971.438,976.847 971.695,977.545 972.159,978.03C972.623,978.514 973.201,978.756 973.893,978.756C974.409,978.756 974.849,978.621 975.214,978.35C975.578,978.079 975.867,977.647 976.081,977.053ZM971.464,974.78L976.096,974.78C976.034,974.082 975.857,973.558 975.565,973.209C975.117,972.668 974.537,972.397 973.823,972.397C973.177,972.397 972.634,972.613 972.194,973.045C971.754,973.478 971.511,974.056 971.464,974.78Z" style="fill:rgb(252,252,252);fill-rule:nonzero;"/>
            <rect x="979.268" y="968.272" width="1.406" height="11.453" style="fill:rgb(252,252,252);fill-rule:nonzero;"/>
            <path d="M988.534,977.053L989.987,977.233C989.758,978.082 989.333,978.741 988.714,979.209C988.094,979.678 987.302,979.913 986.339,979.913C985.125,979.913 984.163,979.539 983.452,978.791C982.741,978.044 982.386,976.996 982.386,975.647C982.386,974.251 982.745,973.168 983.464,972.397C984.182,971.626 985.115,971.241 986.261,971.241C987.37,971.241 988.276,971.618 988.979,972.374C989.682,973.129 990.034,974.191 990.034,975.561C990.034,975.644 990.031,975.769 990.026,975.936L983.839,975.936C983.891,976.847 984.149,977.545 984.612,978.03C985.076,978.514 985.654,978.756 986.346,978.756C986.862,978.756 987.302,978.621 987.667,978.35C988.031,978.079 988.32,977.647 988.534,977.053ZM983.917,974.78L988.55,974.78C988.487,974.082 988.31,973.558 988.018,973.209C987.57,972.668 986.99,972.397 986.276,972.397C985.63,972.397 985.087,972.613 984.647,973.045C984.207,973.478 983.964,974.056 983.917,974.78Z" style="fill:rgb(252,252,252);fill-rule:nonzero;"/>
            <path d="M991.19,977.249L992.581,977.03C992.659,977.587 992.876,978.014 993.233,978.311C993.59,978.608 994.089,978.756 994.729,978.756C995.375,978.756 995.854,978.625 996.167,978.362C996.479,978.099 996.636,977.79 996.636,977.436C996.636,977.118 996.498,976.868 996.221,976.686C996.029,976.561 995.55,976.402 994.784,976.209C993.753,975.949 993.038,975.724 992.639,975.534C992.241,975.344 991.939,975.081 991.733,974.745C991.527,974.409 991.425,974.038 991.425,973.631C991.425,973.262 991.509,972.919 991.678,972.604C991.848,972.289 992.078,972.027 992.37,971.819C992.589,971.657 992.887,971.521 993.264,971.409C993.642,971.297 994.047,971.241 994.479,971.241C995.13,971.241 995.702,971.334 996.194,971.522C996.686,971.709 997.05,971.963 997.284,972.284C997.518,972.604 997.68,973.032 997.768,973.569L996.393,973.756C996.331,973.329 996.15,972.996 995.85,972.756C995.551,972.517 995.128,972.397 994.581,972.397C993.935,972.397 993.474,972.504 993.198,972.717C992.922,972.931 992.784,973.181 992.784,973.467C992.784,973.65 992.841,973.814 992.956,973.959C993.07,974.111 993.25,974.236 993.495,974.334C993.636,974.387 994.05,974.506 994.737,974.694C995.732,974.959 996.426,975.177 996.819,975.346C997.212,975.515 997.521,975.762 997.745,976.084C997.969,976.407 998.081,976.808 998.081,977.288C998.081,977.756 997.944,978.198 997.671,978.612C997.397,979.026 997.003,979.346 996.487,979.573C995.971,979.799 995.388,979.913 994.737,979.913C993.659,979.913 992.837,979.689 992.272,979.241C991.707,978.793 991.346,978.129 991.19,977.249Z" style="fill:rgb(252,252,252);fill-rule:nonzero;"/>
            <path d="M999.19,977.249L1000.58,977.03C1000.66,977.587 1000.88,978.014 1001.23,978.311C1001.59,978.608 1002.09,978.756 1002.73,978.756C1003.38,978.756 1003.85,978.625 1004.17,978.362C1004.48,978.099 1004.64,977.79 1004.64,977.436C1004.64,977.118 1004.5,976.868 1004.22,976.686C1004.03,976.561 1003.55,976.402 1002.78,976.209C1001.75,975.949 1001.04,975.724 1000.64,975.534C1000.24,975.344 999.939,975.081 999.733,974.745C999.527,974.409 999.425,974.038 999.425,973.631C999.425,973.262 999.509,972.919 999.678,972.604C999.848,972.289 1000.08,972.027 1000.37,971.819C1000.59,971.657 1000.89,971.521 1001.26,971.409C1001.64,971.297 1002.05,971.241 1002.48,971.241C1003.13,971.241 1003.7,971.334 1004.19,971.522C1004.69,971.709 1005.05,971.963 1005.28,972.284C1005.52,972.604 1005.68,973.032 1005.77,973.569L1004.39,973.756C1004.33,973.329 1004.15,972.996 1003.85,972.756C1003.55,972.517 1003.13,972.397 1002.58,972.397C1001.94,972.397 1001.47,972.504 1001.2,972.717C1000.92,972.931 1000.78,973.181 1000.78,973.467C1000.78,973.65 1000.84,973.814 1000.96,973.959C1001.07,974.111 1001.25,974.236 1001.5,974.334C1001.64,974.387 1002.05,974.506 1002.74,974.694C1003.73,974.959 1004.43,975.177 1004.82,975.346C1005.21,975.515 1005.52,975.762 1005.75,976.084C1005.97,976.407 1006.08,976.808 1006.08,977.288C1006.08,977.756 1005.94,978.198 1005.67,978.612C1005.4,979.026 1005,979.346 1004.49,979.573C1003.97,979.799 1003.39,979.913 1002.74,979.913C1001.66,979.913 1000.84,979.689 1000.27,979.241C999.707,978.793 999.346,978.129 999.19,977.249Z" style="fill:rgb(252,252,252);fill-rule:nonzero;"/>
            <path d="M1012.32,979.725L1012.32,968.272L1013.83,968.272L1013.83,978.374L1019.47,978.374L1019.47,979.725L1012.32,979.725Z" style="fill:rgb(252,252,252);fill-rule:nonzero;"/>
            <path d="M1021.1,969.889L1021.1,968.272L1022.51,968.272L1022.51,969.889L1021.1,969.889ZM1021.1,979.725L1021.1,971.428L1022.51,971.428L1022.51,979.725L1021.1,979.725Z" style="fill:rgb(252,252,252);fill-rule:nonzero;"/>
            <path d="M1027.72,978.467L1027.92,979.709C1027.53,979.793 1027.17,979.834 1026.86,979.834C1026.35,979.834 1025.96,979.754 1025.67,979.592C1025.39,979.431 1025.19,979.219 1025.08,978.956C1024.97,978.693 1024.91,978.139 1024.91,977.295L1024.91,972.522L1023.88,972.522L1023.88,971.428L1024.91,971.428L1024.91,969.374L1026.31,968.53L1026.31,971.428L1027.72,971.428L1027.72,972.522L1026.31,972.522L1026.31,977.374C1026.31,977.775 1026.33,978.032 1026.38,978.147C1026.43,978.262 1026.51,978.353 1026.62,978.42C1026.74,978.488 1026.9,978.522 1027.1,978.522C1027.26,978.522 1027.47,978.504 1027.72,978.467Z" style="fill:rgb(252,252,252);fill-rule:nonzero;"/>
            <path d="M1034.78,977.053L1036.23,977.233C1036,978.082 1035.58,978.741 1034.96,979.209C1034.34,979.678 1033.54,979.913 1032.58,979.913C1031.37,979.913 1030.4,979.539 1029.69,978.791C1028.98,978.044 1028.63,976.996 1028.63,975.647C1028.63,974.251 1028.99,973.168 1029.71,972.397C1030.42,971.626 1031.36,971.241 1032.5,971.241C1033.61,971.241 1034.52,971.618 1035.22,972.374C1035.92,973.129 1036.28,974.191 1036.28,975.561C1036.28,975.644 1036.27,975.769 1036.27,975.936L1030.08,975.936C1030.13,976.847 1030.39,977.545 1030.85,978.03C1031.32,978.514 1031.9,978.756 1032.59,978.756C1033.1,978.756 1033.54,978.621 1033.91,978.35C1034.27,978.079 1034.56,977.647 1034.78,977.053ZM1030.16,974.78L1034.79,974.78C1034.73,974.082 1034.55,973.558 1034.26,973.209C1033.81,972.668 1033.23,972.397 1032.52,972.397C1031.87,972.397 1031.33,972.613 1030.89,973.045C1030.45,973.478 1030.21,974.056 1030.16,974.78Z" style="fill:rgb(252,252,252);fill-rule:nonzero;"/>
            <path d="M1042.6,979.725L1042.6,968.272L1044.16,968.272L1050.17,977.264L1050.17,968.272L1051.63,968.272L1051.63,979.725L1050.07,979.725L1044.06,970.725L1044.06,979.725L1042.6,979.725Z" style="fill:rgb(252,252,252);fill-rule:nonzero;"/>
            <path d="M1058.64,979.725L1058.64,968.272L1063.72,968.272C1064.74,968.272 1065.52,968.375 1066.05,968.581C1066.58,968.786 1067.01,969.15 1067.32,969.67C1067.64,970.191 1067.8,970.767 1067.8,971.397C1067.8,972.209 1067.54,972.894 1067.01,973.452C1066.48,974.009 1065.67,974.363 1064.57,974.514C1064.97,974.707 1065.28,974.897 1065.49,975.084C1065.93,975.491 1066.35,975.999 1066.75,976.608L1068.74,979.725L1066.83,979.725L1065.32,977.342C1064.87,976.655 1064.51,976.129 1064.22,975.764C1063.93,975.4 1063.68,975.144 1063.45,974.999C1063.22,974.853 1063,974.751 1062.76,974.694C1062.59,974.657 1062.31,974.639 1061.92,974.639L1060.16,974.639L1060.16,979.725L1058.64,979.725ZM1060.16,973.327L1063.42,973.327C1064.11,973.327 1064.65,973.255 1065.04,973.112C1065.43,972.969 1065.73,972.739 1065.93,972.424C1066.14,972.109 1066.24,971.767 1066.24,971.397C1066.24,970.855 1066.04,970.41 1065.65,970.061C1065.25,969.712 1064.63,969.538 1063.78,969.538L1060.16,969.538L1060.16,973.327Z" style="fill:rgb(252,252,252);fill-rule:nonzero;"/>
            <path d="M1069.47,975.577C1069.47,974.04 1069.9,972.902 1070.75,972.163C1071.47,971.548 1072.34,971.241 1073.36,971.241C1074.5,971.241 1075.43,971.614 1076.16,972.362C1076.88,973.109 1077.25,974.142 1077.25,975.459C1077.25,976.527 1077.09,977.367 1076.76,977.979C1076.44,978.591 1075.98,979.066 1075.37,979.405C1074.75,979.743 1074.09,979.913 1073.36,979.913C1072.2,979.913 1071.26,979.54 1070.55,978.795C1069.83,978.051 1069.47,976.978 1069.47,975.577ZM1070.92,975.577C1070.92,976.639 1071.15,977.435 1071.61,977.963C1072.08,978.492 1072.66,978.756 1073.36,978.756C1074.06,978.756 1074.64,978.491 1075.1,977.959C1075.57,977.428 1075.8,976.618 1075.8,975.53C1075.8,974.504 1075.57,973.726 1075.1,973.198C1074.63,972.669 1074.06,972.405 1073.36,972.405C1072.66,972.405 1072.08,972.668 1071.61,973.194C1071.15,973.72 1070.92,974.514 1070.92,975.577Z" style="fill:rgb(252,252,252);fill-rule:nonzero;"/>
            <path d="M1084.33,979.725L1084.33,978.506C1083.68,979.444 1082.81,979.913 1081.7,979.913C1081.21,979.913 1080.75,979.819 1080.33,979.631C1079.9,979.444 1079.59,979.208 1079.38,978.924C1079.18,978.64 1079.03,978.293 1078.95,977.881C1078.89,977.605 1078.86,977.168 1078.86,976.569L1078.86,971.428L1080.27,971.428L1080.27,976.03C1080.27,976.764 1080.3,977.259 1080.35,977.514C1080.44,977.884 1080.63,978.174 1080.92,978.385C1081.2,978.596 1081.56,978.702 1081.98,978.702C1082.4,978.702 1082.8,978.594 1083.17,978.377C1083.54,978.161 1083.8,977.867 1083.95,977.495C1084.11,977.122 1084.18,976.582 1084.18,975.874L1084.18,971.428L1085.59,971.428L1085.59,979.725L1084.33,979.725Z" style="fill:rgb(252,252,252);fill-rule:nonzero;"/>
            <path d="M1090.86,978.467L1091.07,979.709C1090.67,979.793 1090.32,979.834 1090,979.834C1089.49,979.834 1089.1,979.754 1088.82,979.592C1088.53,979.431 1088.34,979.219 1088.22,978.956C1088.11,978.693 1088.05,978.139 1088.05,977.295L1088.05,972.522L1087.02,972.522L1087.02,971.428L1088.05,971.428L1088.05,969.374L1089.45,968.53L1089.45,971.428L1090.86,971.428L1090.86,972.522L1089.45,972.522L1089.45,977.374C1089.45,977.775 1089.47,978.032 1089.52,978.147C1089.57,978.262 1089.65,978.353 1089.76,978.42C1089.88,978.488 1090.04,978.522 1090.25,978.522C1090.4,978.522 1090.61,978.504 1090.86,978.467Z" style="fill:rgb(252,252,252);fill-rule:nonzero;"/>
            <path d="M1097.92,977.053L1099.37,977.233C1099.14,978.082 1098.72,978.741 1098.1,979.209C1097.48,979.678 1096.68,979.913 1095.72,979.913C1094.51,979.913 1093.55,979.539 1092.84,978.791C1092.12,978.044 1091.77,976.996 1091.77,975.647C1091.77,974.251 1092.13,973.168 1092.85,972.397C1093.57,971.626 1094.5,971.241 1095.64,971.241C1096.75,971.241 1097.66,971.618 1098.36,972.374C1099.07,973.129 1099.42,974.191 1099.42,975.561C1099.42,975.644 1099.41,975.769 1099.41,975.936L1093.22,975.936C1093.27,976.847 1093.53,977.545 1094,978.03C1094.46,978.514 1095.04,978.756 1095.73,978.756C1096.25,978.756 1096.68,978.621 1097.05,978.35C1097.41,978.079 1097.7,977.647 1097.92,977.053ZM1093.3,974.78L1097.93,974.78C1097.87,974.082 1097.69,973.558 1097.4,973.209C1096.95,972.668 1096.37,972.397 1095.66,972.397C1095.01,972.397 1094.47,972.613 1094.03,973.045C1093.59,973.478 1093.35,974.056 1093.3,974.78Z" style="fill:rgb(252,252,252);fill-rule:nonzero;"/>
            <path d="M1101.12,979.725L1101.12,971.428L1102.39,971.428L1102.39,972.686C1102.71,972.097 1103.01,971.709 1103.28,971.522C1103.55,971.334 1103.85,971.241 1104.18,971.241C1104.66,971.241 1105.14,971.392 1105.63,971.694L1105.14,972.999C1104.8,972.795 1104.46,972.694 1104.11,972.694C1103.81,972.694 1103.53,972.786 1103.28,972.971C1103.04,973.156 1102.87,973.413 1102.76,973.741C1102.6,974.241 1102.53,974.788 1102.53,975.381L1102.53,979.725L1101.12,979.725Z" style="fill:rgb(252,252,252);fill-rule:nonzero;"/>
        </g>
        <g transform="matrix(0.89,0,0,1,-396.139,-51.3217)">
            <path d="M920.576,979.725L920.576,970.419L924.086,970.419C924.704,970.419 925.176,970.449 925.502,970.508C925.959,970.584 926.342,970.729 926.651,970.943C926.96,971.157 927.208,971.456 927.397,971.841C927.585,972.226 927.679,972.65 927.679,973.111C927.679,973.902 927.427,974.572 926.924,975.12C926.42,975.668 925.51,975.942 924.194,975.942L921.807,975.942L921.807,979.725L920.576,979.725ZM921.807,974.844L924.213,974.844C925.009,974.844 925.574,974.696 925.908,974.399C926.242,974.103 926.409,973.686 926.409,973.149C926.409,972.76 926.311,972.426 926.114,972.149C925.918,971.872 925.658,971.689 925.337,971.6C925.129,971.545 924.746,971.518 924.188,971.518L921.807,971.518L921.807,974.844Z" style="fill:rgb(252,252,252);fill-rule:nonzero;"/>
            <path d="M930.872,979.725L928.403,970.419L929.666,970.419L931.081,976.52C931.234,977.159 931.365,977.793 931.475,978.424C931.712,977.429 931.852,976.856 931.894,976.704L933.665,970.419L935.15,970.419L936.483,975.129C936.817,976.297 937.059,977.395 937.207,978.424C937.325,977.836 937.48,977.161 937.67,976.399L939.13,970.419L940.368,970.419L937.816,979.725L936.629,979.725L934.668,972.635C934.503,972.042 934.405,971.678 934.376,971.543C934.278,971.97 934.187,972.334 934.103,972.635L932.129,979.725L930.872,979.725Z" style="fill:rgb(252,252,252);fill-rule:nonzero;"/>
            <path d="M941.536,979.725L941.536,970.419L945.662,970.419C946.491,970.419 947.122,970.503 947.553,970.67C947.985,970.837 948.33,971.132 948.588,971.556C948.846,971.979 948.975,972.446 948.975,972.958C948.975,973.619 948.762,974.175 948.334,974.628C947.907,975.081 947.247,975.368 946.354,975.491C946.68,975.648 946.927,975.802 947.096,975.955C947.456,976.285 947.797,976.697 948.118,977.192L949.737,979.725L948.188,979.725L946.957,977.789C946.597,977.23 946.301,976.803 946.068,976.507C945.835,976.211 945.627,976.003 945.443,975.885C945.259,975.766 945.072,975.684 944.881,975.637C944.741,975.608 944.513,975.593 944.196,975.593L942.767,975.593L942.767,979.725L941.536,979.725ZM942.767,974.526L945.414,974.526C945.977,974.526 946.417,974.468 946.735,974.352C947.052,974.235 947.293,974.049 947.458,973.793C947.623,973.537 947.706,973.259 947.706,972.958C947.706,972.518 947.546,972.157 947.227,971.873C946.907,971.59 946.402,971.448 945.713,971.448L942.767,971.448L942.767,974.526Z" style="fill:rgb(252,252,252);fill-rule:nonzero;"/>
            <path d="M1001.06,976.735L1002.22,976.634C1002.27,977.099 1002.4,977.481 1002.6,977.78C1002.8,978.078 1003.12,978.319 1003.54,978.503C1003.96,978.687 1004.44,978.779 1004.97,978.779C1005.44,978.779 1005.85,978.709 1006.21,978.57C1006.57,978.43 1006.84,978.239 1007.01,977.995C1007.19,977.752 1007.28,977.486 1007.28,977.199C1007.28,976.907 1007.19,976.652 1007.02,976.434C1006.85,976.216 1006.57,976.033 1006.19,975.885C1005.94,975.787 1005.38,975.636 1004.53,975.431C1003.67,975.226 1003.07,975.032 1002.73,974.85C1002.29,974.617 1001.96,974.329 1001.74,973.984C1001.52,973.639 1001.41,973.253 1001.41,972.825C1001.41,972.355 1001.55,971.916 1001.81,971.508C1002.08,971.1 1002.47,970.79 1002.98,970.578C1003.49,970.367 1004.06,970.261 1004.69,970.261C1005.38,970.261 1005.99,970.372 1006.51,970.594C1007.04,970.816 1007.44,971.143 1007.73,971.575C1008.01,972.006 1008.16,972.495 1008.18,973.041L1007,973.13C1006.94,972.542 1006.73,972.097 1006.36,971.797C1005.99,971.496 1005.45,971.346 1004.74,971.346C1003.99,971.346 1003.45,971.483 1003.11,971.756C1002.77,972.029 1002.6,972.358 1002.6,972.743C1002.6,973.077 1002.72,973.352 1002.96,973.568C1003.2,973.784 1003.82,974.005 1004.82,974.231C1005.82,974.458 1006.5,974.655 1006.88,974.825C1007.42,975.074 1007.82,975.391 1008.08,975.774C1008.34,976.157 1008.46,976.598 1008.46,977.097C1008.46,977.592 1008.32,978.059 1008.04,978.497C1007.75,978.935 1007.35,979.275 1006.82,979.519C1006.28,979.762 1005.69,979.884 1005.02,979.884C1004.18,979.884 1003.48,979.761 1002.91,979.516C1002.34,979.27 1001.89,978.901 1001.57,978.408C1001.24,977.915 1001.07,977.357 1001.06,976.735Z" style="fill:rgb(252,252,252);fill-rule:nonzero;"/>
            <path d="M1012.77,979.725L1012.77,975.783L1009.18,970.419L1010.68,970.419L1012.51,973.225C1012.85,973.75 1013.17,974.275 1013.46,974.799C1013.74,974.313 1014.08,973.765 1014.48,973.155L1016.28,970.419L1017.71,970.419L1014,975.783L1014,979.725L1012.77,979.725Z" style="fill:rgb(252,252,252);fill-rule:nonzero;"/>
            <path d="M1018.4,976.735L1019.56,976.634C1019.61,977.099 1019.74,977.481 1019.94,977.78C1020.14,978.078 1020.46,978.319 1020.88,978.503C1021.3,978.687 1021.78,978.779 1022.31,978.779C1022.78,978.779 1023.19,978.709 1023.55,978.57C1023.91,978.43 1024.18,978.239 1024.36,977.995C1024.53,977.752 1024.62,977.486 1024.62,977.199C1024.62,976.907 1024.53,976.652 1024.36,976.434C1024.19,976.216 1023.92,976.033 1023.53,975.885C1023.28,975.787 1022.73,975.636 1021.87,975.431C1021.01,975.226 1020.42,975.032 1020.07,974.85C1019.63,974.617 1019.3,974.329 1019.08,973.984C1018.86,973.639 1018.75,973.253 1018.75,972.825C1018.75,972.355 1018.89,971.916 1019.15,971.508C1019.42,971.1 1019.81,970.79 1020.32,970.578C1020.83,970.367 1021.4,970.261 1022.03,970.261C1022.72,970.261 1023.33,970.372 1023.85,970.594C1024.38,970.816 1024.79,971.143 1025.07,971.575C1025.35,972.006 1025.51,972.495 1025.53,973.041L1024.35,973.13C1024.28,972.542 1024.07,972.097 1023.7,971.797C1023.34,971.496 1022.79,971.346 1022.08,971.346C1021.34,971.346 1020.79,971.483 1020.45,971.756C1020.11,972.029 1019.94,972.358 1019.94,972.743C1019.94,973.077 1020.06,973.352 1020.3,973.568C1020.54,973.784 1021.16,974.005 1022.16,974.231C1023.16,974.458 1023.85,974.655 1024.22,974.825C1024.76,975.074 1025.16,975.391 1025.42,975.774C1025.68,976.157 1025.81,976.598 1025.81,977.097C1025.81,977.592 1025.66,978.059 1025.38,978.497C1025.1,978.935 1024.69,979.275 1024.16,979.519C1023.63,979.762 1023.03,979.884 1022.37,979.884C1021.52,979.884 1020.82,979.761 1020.25,979.516C1019.68,979.27 1019.23,978.901 1018.91,978.408C1018.59,977.915 1018.42,977.357 1018.4,976.735Z" style="fill:rgb(252,252,252);fill-rule:nonzero;"/>
            <path d="M1084,979.725L1081.53,970.419L1082.79,970.419L1084.21,976.52C1084.36,977.159 1084.49,977.793 1084.6,978.424C1084.84,977.429 1084.98,976.856 1085.02,976.704L1086.79,970.419L1088.28,970.419L1089.61,975.129C1089.94,976.297 1090.19,977.395 1090.33,978.424C1090.45,977.836 1090.61,977.161 1090.8,976.399L1092.26,970.419L1093.5,970.419L1090.94,979.725L1089.76,979.725L1087.8,972.635C1087.63,972.042 1087.53,971.678 1087.5,971.543C1087.4,971.97 1087.31,972.334 1087.23,972.635L1085.26,979.725L1084,979.725Z" style="fill:rgb(252,252,252);fill-rule:nonzero;"/>
            <path d="M1094.59,979.725L1094.59,970.419L1095.82,970.419L1095.82,978.627L1100.41,978.627L1100.41,979.725L1094.59,979.725Z" style="fill:rgb(252,252,252);fill-rule:nonzero;"/>
            <path d="M1100.85,979.725L1104.42,970.419L1105.75,970.419L1109.56,979.725L1108.16,979.725L1107.07,976.907L1103.18,976.907L1102.16,979.725L1100.85,979.725ZM1103.54,975.904L1106.69,975.904L1105.72,973.327C1105.42,972.544 1105.2,971.901 1105.06,971.397C1104.94,971.994 1104.78,972.586 1104.56,973.174L1103.54,975.904Z" style="fill:rgb(252,252,252);fill-rule:nonzero;"/>
            <path d="M1110.53,979.725L1110.53,970.419L1111.8,970.419L1116.68,977.726L1116.68,970.419L1117.86,970.419L1117.86,979.725L1116.6,979.725L1111.71,972.413L1111.71,979.725L1110.53,979.725Z" style="fill:rgb(252,252,252);fill-rule:nonzero;"/>
            <path d="M1177.95,979.725L1176.81,979.725L1176.81,972.444C1176.53,972.707 1176.17,972.969 1175.72,973.231C1175.28,973.494 1174.88,973.691 1174.52,973.822L1174.52,972.717C1175.16,972.417 1175.72,972.053 1176.2,971.625C1176.67,971.198 1177.01,970.783 1177.21,970.381L1177.95,970.381L1177.95,979.725Z" style="fill:rgb(252,252,252);fill-rule:nonzero;"/>
            <path d="M1220.1,978.627L1220.1,979.725L1213.95,979.725C1213.94,979.45 1213.98,979.186 1214.08,978.932C1214.24,978.513 1214.49,978.1 1214.83,977.694C1215.18,977.288 1215.68,976.818 1216.33,976.285C1217.34,975.455 1218.02,974.798 1218.38,974.314C1218.73,973.829 1218.91,973.371 1218.91,972.939C1218.91,972.487 1218.75,972.105 1218.43,971.794C1218.1,971.483 1217.68,971.327 1217.16,971.327C1216.61,971.327 1216.17,971.492 1215.84,971.822C1215.51,972.152 1215.34,972.609 1215.34,973.193L1214.16,973.073C1214.24,972.197 1214.55,971.529 1215.07,971.07C1215.6,970.611 1216.3,970.381 1217.18,970.381C1218.08,970.381 1218.79,970.629 1219.31,971.124C1219.83,971.619 1220.09,972.233 1220.09,972.965C1220.09,973.337 1220.01,973.703 1219.86,974.063C1219.7,974.423 1219.45,974.801 1219.1,975.199C1218.75,975.597 1218.16,976.143 1217.34,976.837C1216.65,977.412 1216.21,977.803 1216.02,978.008C1215.82,978.213 1215.66,978.42 1215.54,978.627L1220.1,978.627Z" style="fill:rgb(252,252,252);fill-rule:nonzero;"/>
            <path d="M1250.94,977.269L1252.08,977.116C1252.21,977.764 1252.43,978.23 1252.75,978.516C1253.07,978.802 1253.45,978.944 1253.9,978.944C1254.44,978.944 1254.89,978.758 1255.26,978.386C1255.63,978.013 1255.82,977.552 1255.82,977.002C1255.82,976.477 1255.65,976.045 1255.31,975.704C1254.96,975.363 1254.53,975.193 1254,975.193C1253.78,975.193 1253.51,975.235 1253.19,975.32L1253.32,974.317C1253.39,974.325 1253.46,974.33 1253.5,974.33C1253.99,974.33 1254.43,974.203 1254.82,973.949C1255.21,973.695 1255.4,973.303 1255.4,972.774C1255.4,972.355 1255.26,972.008 1254.98,971.733C1254.69,971.458 1254.33,971.321 1253.88,971.321C1253.43,971.321 1253.06,971.46 1252.77,971.74C1252.47,972.019 1252.28,972.438 1252.19,972.997L1251.05,972.793C1251.19,972.027 1251.51,971.434 1252,971.013C1252.5,970.592 1253.12,970.381 1253.85,970.381C1254.36,970.381 1254.83,970.49 1255.25,970.708C1255.68,970.926 1256.01,971.223 1256.24,971.6C1256.46,971.977 1256.58,972.377 1256.58,972.8C1256.58,973.202 1256.47,973.568 1256.25,973.898C1256.04,974.228 1255.72,974.49 1255.29,974.685C1255.84,974.812 1256.27,975.075 1256.58,975.475C1256.88,975.875 1257.03,976.376 1257.03,976.977C1257.03,977.789 1256.74,978.478 1256.14,979.043C1255.55,979.608 1254.8,979.89 1253.9,979.89C1253.08,979.89 1252.4,979.647 1251.86,979.16C1251.32,978.673 1251.01,978.043 1250.94,977.269Z" style="fill:rgb(252,252,252);fill-rule:nonzero;"/>
            <path d="M1298.66,979.725L1298.66,977.497L1294.62,977.497L1294.62,976.45L1298.87,970.419L1299.8,970.419L1299.8,976.45L1301.06,976.45L1301.06,977.497L1299.8,977.497L1299.8,979.725L1298.66,979.725ZM1298.66,976.45L1298.66,972.254L1295.74,976.45L1298.66,976.45Z" style="fill:rgb(252,252,252);fill-rule:nonzero;"/>
            <path d="M1359.2,979.725L1356.73,970.419L1358,970.419L1359.41,976.52C1359.56,977.159 1359.69,977.793 1359.81,978.424C1360.04,977.429 1360.18,976.856 1360.22,976.704L1362,970.419L1363.48,970.419L1364.81,975.129C1365.15,976.297 1365.39,977.395 1365.54,978.424C1365.65,977.836 1365.81,977.161 1366,976.399L1367.46,970.419L1368.7,970.419L1366.15,979.725L1364.96,979.725L1363,972.635C1362.83,972.042 1362.74,971.678 1362.71,971.543C1362.61,971.97 1362.52,972.334 1362.43,972.635L1360.46,979.725L1359.2,979.725Z" style="fill:rgb(252,252,252);fill-rule:nonzero;"/>
            <path d="M1368.28,979.725L1371.86,970.419L1373.18,970.419L1376.99,979.725L1375.59,979.725L1374.5,976.907L1370.61,976.907L1369.59,979.725L1368.28,979.725ZM1370.97,975.904L1374.12,975.904L1373.15,973.327C1372.86,972.544 1372.63,971.901 1372.49,971.397C1372.37,971.994 1372.21,972.586 1371.99,973.174L1370.97,975.904Z" style="fill:rgb(252,252,252);fill-rule:nonzero;"/>
            <path d="M1377.96,979.725L1377.96,970.419L1379.23,970.419L1384.11,977.726L1384.11,970.419L1385.29,970.419L1385.29,979.725L1384.03,979.725L1379.14,972.413L1379.14,979.725L1377.96,979.725Z" style="fill:rgb(252,252,252);fill-rule:nonzero;"/>
            <path d="M1409.12,977.269L1410.27,977.116C1410.4,977.764 1410.62,978.23 1410.94,978.516C1411.25,978.802 1411.64,978.944 1412.09,978.944C1412.63,978.944 1413.08,978.758 1413.45,978.386C1413.82,978.013 1414.01,977.552 1414.01,977.002C1414.01,976.477 1413.83,976.045 1413.49,975.704C1413.15,975.363 1412.71,975.193 1412.18,975.193C1411.97,975.193 1411.7,975.235 1411.38,975.32L1411.5,974.317C1411.58,974.325 1411.64,974.33 1411.69,974.33C1412.17,974.33 1412.61,974.203 1413,973.949C1413.39,973.695 1413.59,973.303 1413.59,972.774C1413.59,972.355 1413.44,972.008 1413.16,971.733C1412.88,971.458 1412.51,971.321 1412.06,971.321C1411.62,971.321 1411.25,971.46 1410.95,971.74C1410.66,972.019 1410.46,972.438 1410.38,972.997L1409.24,972.793C1409.38,972.027 1409.69,971.434 1410.19,971.013C1410.69,970.592 1411.3,970.381 1412.04,970.381C1412.55,970.381 1413.01,970.49 1413.44,970.708C1413.87,970.926 1414.19,971.223 1414.42,971.6C1414.65,971.977 1414.76,972.377 1414.76,972.8C1414.76,973.202 1414.65,973.568 1414.44,973.898C1414.22,974.228 1413.9,974.49 1413.48,974.685C1414.03,974.812 1414.46,975.075 1414.76,975.475C1415.07,975.875 1415.22,976.376 1415.22,976.977C1415.22,977.789 1414.92,978.478 1414.33,979.043C1413.74,979.608 1412.99,979.89 1412.08,979.89C1411.27,979.89 1410.59,979.647 1410.05,979.16C1409.51,978.673 1409.2,978.043 1409.12,977.269Z" style="fill:rgb(252,252,252);fill-rule:nonzero;"/>
            <path d="M1421.17,976.075L1421.17,974.983L1425.11,974.977L1425.11,978.43C1424.5,978.913 1423.88,979.275 1423.24,979.519C1422.59,979.762 1421.93,979.884 1421.25,979.884C1420.34,979.884 1419.51,979.688 1418.76,979.297C1418.02,978.905 1417.45,978.339 1417.07,977.599C1416.69,976.858 1416.5,976.031 1416.5,975.117C1416.5,974.211 1416.69,973.366 1417.07,972.581C1417.45,971.796 1417.99,971.213 1418.7,970.832C1419.41,970.451 1420.23,970.261 1421.16,970.261C1421.83,970.261 1422.44,970.37 1422.98,970.588C1423.53,970.806 1423.95,971.109 1424.26,971.499C1424.57,971.888 1424.81,972.396 1424.97,973.022L1423.86,973.327C1423.72,972.853 1423.54,972.48 1423.34,972.209C1423.13,971.939 1422.83,971.722 1422.45,971.559C1422.06,971.396 1421.63,971.314 1421.17,971.314C1420.6,971.314 1420.12,971.4 1419.71,971.572C1419.3,971.743 1418.96,971.968 1418.71,972.248C1418.46,972.527 1418.27,972.834 1418.12,973.168C1417.89,973.743 1417.77,974.368 1417.77,975.041C1417.77,975.87 1417.91,976.564 1418.2,977.123C1418.48,977.681 1418.9,978.096 1419.44,978.367C1419.99,978.638 1420.57,978.773 1421.18,978.773C1421.72,978.773 1422.24,978.67 1422.75,978.465C1423.25,978.26 1423.64,978.041 1423.9,977.808L1423.9,976.075L1421.17,976.075Z" style="fill:rgb(252,252,252);fill-rule:nonzero;"/>
            <path d="M1453.47,978.729C1454.04,979.122 1454.57,979.41 1455.05,979.592L1454.69,980.449C1454.02,980.208 1453.36,979.827 1452.69,979.306C1452,979.691 1451.24,979.884 1450.4,979.884C1449.56,979.884 1448.8,979.681 1448.11,979.274C1447.43,978.868 1446.9,978.297 1446.53,977.561C1446.16,976.824 1445.97,975.995 1445.97,975.072C1445.97,974.154 1446.16,973.318 1446.53,972.565C1446.9,971.812 1447.43,971.238 1448.12,970.845C1448.81,970.451 1449.58,970.254 1450.43,970.254C1451.29,970.254 1452.06,970.459 1452.75,970.867C1453.44,971.275 1453.97,971.847 1454.33,972.581C1454.69,973.315 1454.87,974.143 1454.87,975.066C1454.87,975.832 1454.76,976.521 1454.53,977.132C1454.29,977.744 1453.94,978.276 1453.47,978.729ZM1450.76,977.154C1451.47,977.353 1452.06,977.649 1452.52,978.043C1453.24,977.383 1453.6,976.39 1453.6,975.066C1453.6,974.313 1453.48,973.655 1453.22,973.092C1452.96,972.529 1452.59,972.092 1452.1,971.781C1451.6,971.47 1451.05,971.314 1450.44,971.314C1449.52,971.314 1448.76,971.629 1448.15,972.257C1447.55,972.885 1447.24,973.824 1447.24,975.072C1447.24,976.283 1447.54,977.211 1448.14,977.859C1448.74,978.506 1449.51,978.83 1450.44,978.83C1450.88,978.83 1451.29,978.748 1451.68,978.583C1451.3,978.333 1450.89,978.155 1450.46,978.049L1450.76,977.154Z" style="fill:rgb(252,252,252);fill-rule:nonzero;"/>
            <path d="M1456.11,976.735L1457.27,976.634C1457.33,977.099 1457.46,977.481 1457.66,977.78C1457.86,978.078 1458.17,978.319 1458.59,978.503C1459.02,978.687 1459.49,978.779 1460.02,978.779C1460.49,978.779 1460.91,978.709 1461.27,978.57C1461.63,978.43 1461.89,978.239 1462.07,977.995C1462.24,977.752 1462.33,977.486 1462.33,977.199C1462.33,976.907 1462.25,976.652 1462.08,976.434C1461.91,976.216 1461.63,976.033 1461.24,975.885C1460.99,975.787 1460.44,975.636 1459.58,975.431C1458.73,975.226 1458.13,975.032 1457.79,974.85C1457.34,974.617 1457.01,974.329 1456.79,973.984C1456.58,973.639 1456.47,973.253 1456.47,972.825C1456.47,972.355 1456.6,971.916 1456.87,971.508C1457.13,971.1 1457.52,970.79 1458.04,970.578C1458.55,970.367 1459.12,970.261 1459.74,970.261C1460.43,970.261 1461.04,970.372 1461.57,970.594C1462.09,970.816 1462.5,971.143 1462.78,971.575C1463.07,972.006 1463.22,972.495 1463.24,973.041L1462.06,973.13C1462,972.542 1461.78,972.097 1461.41,971.797C1461.05,971.496 1460.51,971.346 1459.79,971.346C1459.05,971.346 1458.51,971.483 1458.16,971.756C1457.82,972.029 1457.65,972.358 1457.65,972.743C1457.65,973.077 1457.78,973.352 1458.02,973.568C1458.25,973.784 1458.87,974.005 1459.87,974.231C1460.87,974.458 1461.56,974.655 1461.93,974.825C1462.47,975.074 1462.87,975.391 1463.13,975.774C1463.39,976.157 1463.52,976.598 1463.52,977.097C1463.52,977.592 1463.38,978.059 1463.09,978.497C1462.81,978.935 1462.4,979.275 1461.87,979.519C1461.34,979.762 1460.74,979.884 1460.08,979.884C1459.24,979.884 1458.53,979.761 1457.96,979.516C1457.39,979.27 1456.95,978.901 1456.62,978.408C1456.3,977.915 1456.13,977.357 1456.11,976.735Z" style="fill:rgb(252,252,252);fill-rule:nonzero;"/>
            <path d="M1464.78,976.735L1465.94,976.634C1466,977.099 1466.13,977.481 1466.33,977.78C1466.53,978.078 1466.84,978.319 1467.26,978.503C1467.69,978.687 1468.16,978.779 1468.69,978.779C1469.16,978.779 1469.58,978.709 1469.94,978.57C1470.3,978.43 1470.56,978.239 1470.74,977.995C1470.91,977.752 1471,977.486 1471,977.199C1471,976.907 1470.92,976.652 1470.75,976.434C1470.58,976.216 1470.3,976.033 1469.91,975.885C1469.66,975.787 1469.11,975.636 1468.26,975.431C1467.4,975.226 1466.8,975.032 1466.46,974.85C1466.01,974.617 1465.68,974.329 1465.46,973.984C1465.25,973.639 1465.14,973.253 1465.14,972.825C1465.14,972.355 1465.27,971.916 1465.54,971.508C1465.8,971.1 1466.19,970.79 1466.71,970.578C1467.22,970.367 1467.79,970.261 1468.41,970.261C1469.1,970.261 1469.71,970.372 1470.24,970.594C1470.77,970.816 1471.17,971.143 1471.45,971.575C1471.74,972.006 1471.89,972.495 1471.91,973.041L1470.73,973.13C1470.67,972.542 1470.45,972.097 1470.09,971.797C1469.72,971.496 1469.18,971.346 1468.46,971.346C1467.72,971.346 1467.18,971.483 1466.84,971.756C1466.5,972.029 1466.33,972.358 1466.33,972.743C1466.33,973.077 1466.45,973.352 1466.69,973.568C1466.92,973.784 1467.54,974.005 1468.54,974.231C1469.54,974.458 1470.23,974.655 1470.6,974.825C1471.14,975.074 1471.55,975.391 1471.8,975.774C1472.06,976.157 1472.19,976.598 1472.19,977.097C1472.19,977.592 1472.05,978.059 1471.77,978.497C1471.48,978.935 1471.07,979.275 1470.54,979.519C1470.01,979.762 1469.41,979.884 1468.75,979.884C1467.91,979.884 1467.2,979.761 1466.63,979.516C1466.06,979.27 1465.62,978.901 1465.29,978.408C1464.97,977.915 1464.8,977.357 1464.78,976.735Z" style="fill:rgb(252,252,252);fill-rule:nonzero;"/>
        </g>
    </g>
</svg>
