<?xml version="1.0" standalone="no"?>
<!DOCTYPE svg PUBLIC "-//W3C//DTD SVG 1.1//EN" "http://www.w3.org/Graphics/SVG/1.1/DTD/svg11.dtd">
<svg width="100%" height="100%" viewBox="0 0 1280 1150" version="1.1" xmlns="http://www.w3.org/2000/svg" xmlns:xlink="http://www.w3.org/1999/xlink" xml:space="preserve" style="fill-rule:evenodd;clip-rule:evenodd;stroke-linecap:round;stroke-miterlimit:1.41421;">
    <g id="fuellung-seite">
        <path d="M83.377,518.594L83.377,793.582C83.035,809.171 103.713,822.497 131.796,833.931L610.647,1002.87C682.453,1027.23 750.645,1027.55 812.038,982.675L1184.45,704.137C1198.26,693.255 1205.47,679.686 1205.53,663.199L1205.53,410.783L83.377,518.594Z" style="fill:rgb(242,242,242);"/>
        <path d="M1207.03,409.279L1207.03,663.204L1207.02,663.6L1207.02,663.995L1207.01,664.389L1207,664.782L1206.99,665.174L1206.97,665.565L1206.95,665.955L1206.93,666.344L1206.91,666.732L1206.88,667.119L1206.85,667.505L1206.82,667.89L1206.78,668.273L1206.75,668.656L1206.7,669.038L1206.66,669.419L1206.62,669.798L1206.57,670.177L1206.52,670.555L1206.46,670.931L1206.41,671.307L1206.35,671.681L1206.29,672.055L1206.22,672.427L1206.15,672.799L1206.09,673.169L1206.01,673.538L1205.94,673.907L1205.86,674.274L1205.78,674.64L1205.7,675.006L1205.61,675.37L1205.52,675.733L1205.43,676.095L1205.34,676.455L1205.24,676.816L1205.14,677.174L1205.04,677.532L1204.94,677.889L1204.83,678.245L1204.72,678.599L1204.61,678.953L1204.49,679.305L1204.38,679.657L1204.26,680.007L1204.13,680.357L1204.01,680.705L1203.88,681.052L1203.75,681.398L1203.62,681.743L1203.48,682.087L1203.34,682.43L1203.2,682.772L1203.06,683.113L1202.91,683.452L1202.76,683.791L1202.61,684.128L1202.46,684.465L1202.3,684.8L1202.14,685.134L1201.98,685.468L1201.81,685.8L1201.65,686.131L1201.48,686.461L1201.31,686.789L1201.13,687.117L1200.95,687.444L1200.77,687.77L1200.59,688.094L1200.4,688.417L1200.22,688.74L1200.03,689.061L1199.83,689.381L1199.64,689.7L1199.44,690.018L1199.24,690.335L1199.04,690.651L1198.83,690.966L1198.62,691.279L1198.41,691.592L1198.2,691.903L1197.99,692.213L1197.77,692.523L1197.55,692.831L1197.32,693.138L1197.1,693.444L1196.87,693.748L1196.64,694.052L1196.4,694.355L1196.17,694.657L1195.93,694.957L1195.69,695.256L1195.45,695.555L1195.2,695.852L1194.95,696.148L1194.7,696.443L1194.45,696.737L1194.19,697.03L1193.93,697.322L1193.67,697.612L1193.41,697.902L1193.14,698.191L1192.88,698.478L1192.61,698.764L1192.33,699.05L1192.06,699.334L1191.78,699.617L1191.5,699.899L1191.22,700.18L1190.93,700.46L1190.64,700.739L1190.35,701.016L1190.06,701.293L1189.77,701.569L1189.47,701.843L1189.17,702.117L1188.87,702.389L1188.56,702.66L1188.25,702.931L1187.94,703.2L1187.63,703.468L1187.32,703.735L1187,704.001L1186.68,704.266L1186.36,704.529L1186.04,704.792L1185.71,705.054L1185.37,705.325L812.929,983.882L812.561,984.151L812.199,984.414L811.836,984.676L811.473,984.937L811.11,985.197L810.747,985.456L810.384,985.715L810.02,985.972L809.657,986.228L809.293,986.483L808.929,986.737L808.565,986.989L808.201,987.241L807.836,987.492L807.472,987.742L807.107,987.991L806.742,988.239L806.377,988.485L806.012,988.731L805.646,988.976L805.281,989.22L804.915,989.462L804.549,989.704L804.183,989.945L803.817,990.184L803.451,990.423L803.084,990.661L802.718,990.897L802.351,991.133L801.984,991.367L801.617,991.601L801.249,991.833L800.882,992.065L800.514,992.296L800.146,992.525L799.779,992.754L799.41,992.981L799.042,993.208L798.674,993.433L798.305,993.658L797.937,993.881L797.568,994.104L797.199,994.325L796.83,994.546L796.46,994.765L796.091,994.984L795.721,995.201L795.351,995.418L794.981,995.634L794.611,995.848L794.241,996.062L793.871,996.274L793.5,996.486L793.129,996.696L792.759,996.906L792.388,997.115L792.016,997.322L791.645,997.529L791.274,997.734L790.902,997.939L790.53,998.143L790.158,998.345L789.786,998.547L789.414,998.748L789.042,998.948L788.669,999.146L788.296,999.344L787.923,999.541L787.55,999.737L787.177,999.932L786.804,1000.13L786.431,1000.32L786.057,1000.51L785.683,1000.7L785.309,1000.89L784.935,1001.08L784.561,1001.27L784.187,1001.46L783.812,1001.64L783.438,1001.83L783.063,1002.01L782.688,1002.19L782.313,1002.38L781.938,1002.56L781.562,1002.74L781.187,1002.92L780.811,1003.1L780.435,1003.27L780.059,1003.45L779.683,1003.63L779.307,1003.8L778.93,1003.97L778.554,1004.15L778.177,1004.32L777.8,1004.49L777.423,1004.66L777.046,1004.83L776.669,1005L776.291,1005.16L775.914,1005.33L775.536,1005.49L775.158,1005.66L774.78,1005.82L774.402,1005.98L774.024,1006.14L773.645,1006.31L773.267,1006.47L772.888,1006.62L772.509,1006.78L772.13,1006.94L771.751,1007.09L771.371,1007.25L770.992,1007.4L770.612,1007.56L770.233,1007.71L769.853,1007.86L769.473,1008.01L769.093,1008.16L768.712,1008.31L768.332,1008.45L767.951,1008.6L767.571,1008.74L767.19,1008.89L766.809,1009.03L766.428,1009.18L766.046,1009.32L765.665,1009.46L765.283,1009.6L764.902,1009.74L764.52,1009.88L764.138,1010.01L763.756,1010.15L763.373,1010.28L762.991,1010.42L762.608,1010.55L762.226,1010.68L761.843,1010.82L761.46,1010.95L761.077,1011.08L760.693,1011.21L760.31,1011.33L759.927,1011.46L759.543,1011.59L759.159,1011.71L758.775,1011.84L758.391,1011.96L758.007,1012.08L757.623,1012.2L757.238,1012.32L756.854,1012.44L756.469,1012.56L756.084,1012.68L755.699,1012.8L755.314,1012.91L754.929,1013.03L754.543,1013.14L754.158,1013.26L753.772,1013.37L753.386,1013.48L753,1013.59L752.614,1013.7L752.228,1013.81L751.842,1013.92L751.455,1014.03L751.069,1014.13L750.682,1014.24L750.295,1014.34L749.908,1014.45L749.521,1014.55L749.134,1014.65L748.746,1014.75L748.359,1014.85L747.971,1014.95L747.583,1015.05L747.195,1015.15L746.807,1015.25L746.419,1015.34L746.031,1015.44L745.642,1015.53L745.254,1015.62L744.865,1015.72L744.476,1015.81L744.087,1015.9L743.698,1015.99L743.309,1016.08L742.92,1016.17L742.53,1016.25L742.141,1016.34L741.751,1016.43L741.361,1016.51L740.971,1016.59L740.581,1016.68L740.191,1016.76L739.8,1016.84L739.41,1016.92L739.019,1017L738.628,1017.08L738.237,1017.15L737.847,1017.23L737.455,1017.31L737.064,1017.38L736.673,1017.46L736.281,1017.53L735.89,1017.6L735.498,1017.68L735.106,1017.75L734.714,1017.82L734.322,1017.89L733.93,1017.95L733.537,1018.02L733.145,1018.09L732.752,1018.15L732.359,1018.22L731.967,1018.28L731.574,1018.35L731.181,1018.41L730.787,1018.47L730.394,1018.53L730,1018.59L729.607,1018.65L729.213,1018.71L728.819,1018.77L728.425,1018.82L728.031,1018.88L727.637,1018.93L727.243,1018.99L726.848,1019.04L726.454,1019.09L726.059,1019.14L725.664,1019.2L725.269,1019.25L724.874,1019.3L724.479,1019.34L724.084,1019.39L723.688,1019.44L723.293,1019.48L722.897,1019.53L722.502,1019.57L722.106,1019.62L721.71,1019.66L721.314,1019.7L720.917,1019.74L720.521,1019.78L720.124,1019.82L719.728,1019.86L719.331,1019.9L718.934,1019.94L718.537,1019.97L718.14,1020.01L717.743,1020.04L717.346,1020.08L716.949,1020.11L716.551,1020.14L716.153,1020.17L715.756,1020.2L715.358,1020.23L714.96,1020.26L714.562,1020.29L714.164,1020.32L713.765,1020.34L713.367,1020.37L712.968,1020.39L712.569,1020.42L712.171,1020.44L711.772,1020.46L711.373,1020.49L710.974,1020.51L710.575,1020.53L710.175,1020.55L709.776,1020.56L709.376,1020.58L708.977,1020.6L708.577,1020.62L708.177,1020.63L707.777,1020.64L707.377,1020.66L706.976,1020.67L706.576,1020.69L706.176,1020.7L705.775,1020.71L705.374,1020.72L704.974,1020.73L704.573,1020.74L704.172,1020.74L703.771,1020.75L703.369,1020.76L702.968,1020.76L702.566,1020.77L702.165,1020.77L701.763,1020.77L701.362,1020.77L700.96,1020.78L700.558,1020.78L700.155,1020.78L699.753,1020.78L699.351,1020.78L698.949,1020.77L698.546,1020.77L698.143,1020.77L697.74,1020.76L696.935,1020.75L696.128,1020.74L695.322,1020.72L694.515,1020.7L693.707,1020.68L692.899,1020.65L692.091,1020.62L691.282,1020.59L690.473,1020.55L689.663,1020.51L688.853,1020.47L688.042,1020.43L687.232,1020.38L686.42,1020.33L685.608,1020.28L684.796,1020.22L683.984,1020.17L683.171,1020.1L682.357,1020.04L681.544,1019.97L680.729,1019.9L679.915,1019.83L679.1,1019.75L678.285,1019.68L677.469,1019.59L676.653,1019.51L675.836,1019.42L675.019,1019.33L674.202,1019.24L673.384,1019.14L672.566,1019.05L671.747,1018.95L670.928,1018.84L670.109,1018.73L669.289,1018.62L668.469,1018.51L667.649,1018.4L666.828,1018.28L666.006,1018.16L665.185,1018.04L664.363,1017.91L663.54,1017.78L662.717,1017.65L661.894,1017.52L661.071,1017.38L660.247,1017.24L659.422,1017.1L658.598,1016.96L657.773,1016.81L656.947,1016.66L656.122,1016.5L655.295,1016.35L654.469,1016.19L653.642,1016.03L652.815,1015.87L651.987,1015.7L651.159,1015.53L650.331,1015.37L649.502,1015.19L648.673,1015.02L647.844,1014.84L647.014,1014.66L646.184,1014.47L645.353,1014.29L644.522,1014.1L643.691,1013.91L642.859,1013.71L642.028,1013.52L641.195,1013.32L640.363,1013.12L639.53,1012.91L638.696,1012.71L637.863,1012.5L637.029,1012.29L636.194,1012.08L635.36,1011.86L634.525,1011.64L633.689,1011.42L632.854,1011.2L632.018,1010.97L631.181,1010.75L630.344,1010.51L629.507,1010.28L628.67,1010.05L627.832,1009.81L626.994,1009.57L626.156,1009.33L625.317,1009.08L624.478,1008.84L623.639,1008.59L622.799,1008.34L621.959,1008.08L621.118,1007.83L620.278,1007.57L619.437,1007.31L618.595,1007.04L617.754,1006.78L616.912,1006.51L616.069,1006.24L615.227,1005.97L614.384,1005.7L613.541,1005.42L612.697,1005.14L611.853,1004.86L611.009,1004.58L610.157,1004.29L131.262,835.334L130.57,835.051L129.912,834.781L129.258,834.509L128.606,834.238L127.957,833.965L127.311,833.692L126.667,833.418L126.027,833.143L125.389,832.867L124.755,832.591L124.124,832.314L123.495,832.036L122.87,831.758L122.248,831.479L121.629,831.199L121.014,830.918L120.402,830.636L119.793,830.354L119.187,830.071L118.585,829.787L117.986,829.503L117.39,829.218L116.799,828.932L116.21,828.645L115.625,828.357L115.044,828.069L114.467,827.78L113.893,827.49L113.323,827.199L112.756,826.907L112.194,826.615L111.635,826.322L111.08,826.028L110.53,825.733L109.983,825.438L109.44,825.142L108.901,824.844L108.366,824.547L107.835,824.248L107.308,823.948L106.786,823.648L106.268,823.347L105.754,823.045L105.244,822.742L104.738,822.438L104.238,822.134L103.989,821.981L103.741,821.828L103.494,821.675L103.248,821.521L103.004,821.368L102.761,821.214L102.519,821.06L102.278,820.906L102.038,820.752L101.799,820.597L101.561,820.443L101.325,820.288L101.09,820.132L100.855,819.977L100.622,819.821L100.39,819.665L100.16,819.509L99.93,819.353L99.702,819.196L99.475,819.04L99.249,818.882L99.024,818.725L98.801,818.568L98.579,818.41L98.357,818.252L98.138,818.094L97.919,817.935L97.702,817.777L97.485,817.618L97.27,817.459L97.057,817.3L96.844,817.14L96.633,816.98L96.423,816.82L96.214,816.66L96.007,816.499L95.801,816.339L95.596,816.178L95.392,816.016L95.19,815.855L94.989,815.693L94.789,815.531L94.59,815.369L94.393,815.206L94.197,815.044L94.003,814.881L93.81,814.717L93.618,814.554L93.427,814.39L93.238,814.226L93.05,814.062L92.863,813.897L92.678,813.732L92.494,813.567L92.312,813.402L92.13,813.236L91.951,813.071L91.772,812.905L91.595,812.738L91.42,812.571L91.245,812.404L91.072,812.237L90.901,812.07L90.731,811.902L90.562,811.734L90.395,811.566L90.229,811.397L90.065,811.228L89.902,811.059L89.74,810.89L89.58,810.72L89.421,810.55L89.264,810.38L89.108,810.209L88.954,810.038L88.801,809.867L88.65,809.696L88.5,809.524L88.351,809.352L88.204,809.18L88.059,809.007L87.915,808.834L87.772,808.661L87.632,808.487L87.492,808.313L87.354,808.139L87.218,807.965L87.083,807.79L86.95,807.615L86.818,807.439L86.688,807.263L86.559,807.087L86.432,806.911L86.307,806.734L86.183,806.557L86.061,806.38L85.94,806.202L85.821,806.024L85.703,805.846L85.587,805.667L85.473,805.488L85.361,805.309L85.249,805.129L85.14,804.949L85.032,804.769L84.926,804.588L84.822,804.407L84.719,804.226L84.618,804.044L84.519,803.862L84.421,803.679L84.325,803.497L84.231,803.314L84.139,803.13L84.048,802.947L83.959,802.762L83.871,802.578L83.786,802.393L83.702,802.208L83.62,802.023L83.54,801.837L83.461,801.651L83.384,801.464L83.309,801.277L83.236,801.09L83.165,800.903L83.095,800.715L83.028,800.526L82.962,800.338L82.898,800.149L82.836,799.96L82.776,799.77L82.717,799.581L82.661,799.39L82.606,799.2L82.553,799.009L82.503,798.818L82.454,798.626L82.407,798.435L82.362,798.243L82.318,798.05L82.277,797.858L82.238,797.665L82.201,797.471L82.165,797.278L82.132,797.084L82.101,796.89L82.071,796.695L82.044,796.5L82.019,796.305L81.995,796.11L81.974,795.915L81.955,795.719L81.937,795.523L81.922,795.326L81.909,795.13L81.898,794.933L81.888,794.736L81.881,794.539L81.876,794.341L81.873,794.144L81.873,793.946L81.874,793.748L81.877,793.57L81.877,517.232L1206.88,409.146L1207.03,409.279ZM84.877,519.957L84.877,793.595L84.874,793.782L84.873,793.949L84.873,794.115L84.876,794.281L84.88,794.447L84.886,794.613L84.894,794.779L84.903,794.944L84.914,795.11L84.927,795.275L84.942,795.44L84.958,795.604L84.976,795.769L84.996,795.934L85.017,796.098L85.04,796.262L85.065,796.426L85.091,796.59L85.119,796.754L85.149,796.918L85.181,797.082L85.214,797.245L85.249,797.409L85.286,797.572L85.324,797.735L85.364,797.898L85.406,798.061L85.449,798.224L85.494,798.387L85.541,798.55L85.589,798.712L85.639,798.875L85.691,799.038L85.744,799.2L85.799,799.362L85.856,799.525L85.914,799.687L85.974,799.849L86.036,800.011L86.099,800.173L86.164,800.335L86.23,800.497L86.299,800.659L86.369,800.821L86.44,800.982L86.513,801.144L86.588,801.306L86.665,801.467L86.743,801.629L86.823,801.79L86.904,801.952L86.987,802.113L87.072,802.274L87.158,802.435L87.246,802.596L87.335,802.757L87.427,802.918L87.519,803.079L87.614,803.24L87.71,803.401L87.808,803.562L87.907,803.723L88.008,803.883L88.11,804.044L88.214,804.204L88.32,804.365L88.427,804.525L88.536,804.685L88.647,804.846L88.759,805.006L88.873,805.166L88.988,805.326L89.105,805.486L89.223,805.646L89.343,805.806L89.465,805.965L89.588,806.125L89.712,806.284L89.839,806.444L89.966,806.603L90.096,806.763L90.227,806.922L90.359,807.081L90.493,807.24L90.628,807.399L90.765,807.558L90.904,807.717L91.044,807.875L91.186,808.034L91.329,808.192L91.474,808.351L91.62,808.509L91.767,808.667L91.917,808.825L92.067,808.983L92.219,809.141L92.373,809.299L92.528,809.456L92.685,809.614L92.843,809.771L93.002,809.929L93.163,810.086L93.326,810.243L93.49,810.4L93.655,810.557L93.822,810.714L93.99,810.87L94.16,811.027L94.331,811.183L94.503,811.339L94.677,811.495L94.852,811.651L95.029,811.807L95.207,811.963L95.387,812.119L95.568,812.274L95.75,812.43L95.934,812.585L96.119,812.74L96.306,812.895L96.494,813.05L96.683,813.205L96.874,813.359L97.066,813.514L97.259,813.668L97.454,813.822L97.65,813.976L97.847,814.13L98.046,814.284L98.246,814.438L98.447,814.591L98.65,814.744L98.854,814.898L99.059,815.051L99.266,815.204L99.474,815.356L99.683,815.509L99.894,815.662L100.105,815.814L100.318,815.966L100.533,816.118L100.748,816.27L100.965,816.422L101.183,816.573L101.403,816.725L101.623,816.876L101.845,817.027L102.068,817.178L102.293,817.329L102.518,817.48L102.745,817.631L102.973,817.781L103.202,817.931L103.433,818.081L103.664,818.231L103.897,818.381L104.131,818.531L104.366,818.68L104.603,818.829L104.84,818.979L105.079,819.128L105.319,819.277L105.56,819.425L105.802,819.573L106.29,819.871L106.783,820.166L107.28,820.462L107.781,820.757L108.287,821.051L108.798,821.344L109.312,821.637L109.831,821.929L110.355,822.22L110.882,822.511L111.414,822.801L111.95,823.091L112.49,823.38L113.034,823.668L113.582,823.956L114.135,824.243L114.691,824.529L115.251,824.815L115.815,825.1L116.383,825.384L116.954,825.667L117.53,825.95L118.109,826.233L118.691,826.514L119.278,826.795L119.868,827.076L120.461,827.355L121.058,827.634L121.659,827.913L122.263,828.19L122.87,828.467L123.481,828.744L124.095,829.019L124.712,829.294L125.333,829.569L125.957,829.842L126.584,830.115L127.213,830.388L127.847,830.659L128.483,830.93L129.122,831.201L129.764,831.47L130.409,831.739L131.057,832.008L131.708,832.275L132.329,832.529L611.136,1001.45L611.967,1001.73L612.804,1002.01L613.642,1002.29L614.479,1002.57L615.316,1002.84L616.152,1003.12L616.988,1003.38L617.824,1003.65L618.659,1003.92L619.494,1004.18L620.328,1004.44L621.163,1004.7L621.996,1004.96L622.83,1005.21L623.663,1005.46L624.496,1005.71L625.328,1005.96L626.16,1006.2L626.992,1006.45L627.823,1006.69L628.654,1006.92L629.484,1007.16L630.314,1007.39L631.144,1007.62L631.973,1007.85L632.802,1008.08L633.631,1008.3L634.459,1008.52L635.287,1008.74L636.114,1008.96L636.941,1009.17L637.768,1009.38L638.594,1009.59L639.42,1009.8L640.246,1010L641.071,1010.2L641.895,1010.4L642.72,1010.6L643.544,1010.79L644.367,1010.98L645.19,1011.17L646.013,1011.36L646.835,1011.54L647.657,1011.73L648.478,1011.9L649.3,1012.08L650.12,1012.26L650.94,1012.43L651.76,1012.6L652.58,1012.76L653.399,1012.93L654.217,1013.09L655.036,1013.25L655.853,1013.4L656.671,1013.56L657.488,1013.71L658.304,1013.86L659.12,1014L659.936,1014.14L660.751,1014.28L661.566,1014.42L662.38,1014.56L663.194,1014.69L664.008,1014.82L664.821,1014.95L665.634,1015.07L666.446,1015.19L667.258,1015.31L668.069,1015.43L668.88,1015.54L669.691,1015.65L670.501,1015.76L671.311,1015.87L672.12,1015.97L672.929,1016.07L673.737,1016.17L674.545,1016.26L675.352,1016.35L676.159,1016.44L676.966,1016.53L677.772,1016.61L678.578,1016.69L679.383,1016.77L680.188,1016.84L680.992,1016.91L681.796,1016.98L682.599,1017.05L683.402,1017.11L684.205,1017.17L685.007,1017.23L685.808,1017.29L686.609,1017.34L687.41,1017.39L688.211,1017.43L689.01,1017.48L689.81,1017.52L690.608,1017.56L691.407,1017.59L692.205,1017.62L693.002,1017.65L693.799,1017.68L694.596,1017.7L695.392,1017.72L696.187,1017.74L696.982,1017.75L697.778,1017.76L698.174,1017.77L698.571,1017.77L698.968,1017.77L699.365,1017.78L699.761,1017.78L700.158,1017.78L700.554,1017.78L700.951,1017.78L701.347,1017.77L701.743,1017.77L702.139,1017.77L702.535,1017.77L702.93,1017.76L703.326,1017.76L703.721,1017.75L704.117,1017.74L704.512,1017.74L704.907,1017.73L705.302,1017.72L705.697,1017.71L706.092,1017.7L706.486,1017.69L706.881,1017.67L707.275,1017.66L707.67,1017.65L708.064,1017.63L708.458,1017.62L708.852,1017.6L709.245,1017.59L709.639,1017.57L710.033,1017.55L710.426,1017.53L710.819,1017.51L711.212,1017.49L711.605,1017.47L711.998,1017.45L712.391,1017.42L712.784,1017.4L713.176,1017.37L713.569,1017.35L713.961,1017.32L714.353,1017.3L714.745,1017.27L715.137,1017.24L715.529,1017.21L715.921,1017.18L716.313,1017.15L716.704,1017.12L717.095,1017.09L717.486,1017.05L717.878,1017.02L718.269,1016.98L718.659,1016.95L719.05,1016.91L719.441,1016.87L719.831,1016.84L720.221,1016.8L720.612,1016.76L721.002,1016.72L721.392,1016.68L721.781,1016.63L722.171,1016.59L722.561,1016.55L722.95,1016.5L723.339,1016.46L723.729,1016.41L724.118,1016.37L724.507,1016.32L724.895,1016.27L725.284,1016.22L725.673,1016.17L726.061,1016.12L726.45,1016.07L726.838,1016.01L727.226,1015.96L727.614,1015.91L728.002,1015.85L728.389,1015.8L728.777,1015.74L729.164,1015.68L729.552,1015.62L729.939,1015.57L730.326,1015.51L730.713,1015.45L731.1,1015.38L731.486,1015.32L731.873,1015.26L732.259,1015.2L732.646,1015.13L733.032,1015.06L733.418,1015L733.804,1014.93L734.19,1014.86L734.575,1014.79L734.961,1014.72L735.346,1014.65L735.731,1014.58L736.116,1014.51L736.501,1014.44L736.886,1014.36L737.271,1014.29L737.656,1014.21L738.04,1014.14L738.425,1014.06L738.809,1013.98L739.193,1013.9L739.577,1013.82L739.961,1013.74L740.344,1013.66L740.728,1013.58L741.112,1013.49L741.495,1013.41L741.878,1013.33L742.261,1013.24L742.644,1013.15L743.027,1013.07L743.41,1012.98L743.792,1012.89L744.174,1012.8L744.557,1012.71L744.939,1012.62L745.321,1012.52L745.703,1012.43L746.085,1012.34L746.466,1012.24L746.848,1012.14L747.229,1012.05L747.61,1011.95L747.992,1011.85L748.373,1011.75L748.753,1011.65L749.134,1011.55L749.515,1011.45L749.895,1011.35L750.275,1011.24L750.656,1011.14L751.036,1011.03L751.416,1010.92L751.795,1010.82L752.175,1010.71L752.555,1010.6L752.934,1010.49L753.313,1010.38L753.692,1010.27L754.071,1010.15L754.45,1010.04L754.829,1009.93L755.207,1009.81L755.586,1009.7L755.964,1009.58L756.343,1009.46L756.721,1009.34L757.099,1009.22L757.476,1009.1L757.854,1008.98L758.232,1008.86L758.609,1008.74L758.986,1008.61L759.363,1008.49L759.74,1008.36L760.117,1008.23L760.494,1008.11L760.871,1007.98L761.247,1007.85L761.623,1007.72L762,1007.59L762.376,1007.45L762.751,1007.32L763.127,1007.19L763.503,1007.05L763.878,1006.92L764.254,1006.78L764.629,1006.64L765.004,1006.5L765.379,1006.36L765.754,1006.22L766.129,1006.08L766.503,1005.94L766.878,1005.8L767.252,1005.65L767.626,1005.51L768,1005.36L768.374,1005.22L768.748,1005.07L769.121,1004.92L769.495,1004.77L769.868,1004.62L770.241,1004.47L770.615,1004.32L770.987,1004.16L771.36,1004.01L771.733,1003.86L772.105,1003.7L772.478,1003.54L772.85,1003.38L773.222,1003.23L773.594,1003.07L773.966,1002.9L774.338,1002.74L774.709,1002.58L775.081,1002.42L775.452,1002.25L775.823,1002.09L776.194,1001.92L776.565,1001.76L776.936,1001.59L777.306,1001.42L777.677,1001.25L778.047,1001.08L778.417,1000.91L778.787,1000.73L779.157,1000.56L779.527,1000.38L779.896,1000.21L780.266,1000.03L780.635,999.855L781.005,999.677L781.374,999.498L781.743,999.317L782.111,999.136L782.48,998.954L782.848,998.771L783.217,998.587L783.585,998.402L783.953,998.215L784.321,998.029L784.689,997.841L785.057,997.652L785.424,997.462L785.792,997.271L786.159,997.079L786.526,996.886L786.893,996.693L787.26,996.498L787.626,996.302L787.993,996.106L788.359,995.908L788.726,995.71L789.092,995.51L789.458,995.31L789.824,995.108L790.189,994.906L790.555,994.702L790.92,994.498L791.285,994.292L791.651,994.086L792.016,993.879L792.38,993.67L792.745,993.461L793.11,993.251L793.474,993.04L793.838,992.827L794.202,992.614L794.566,992.4L794.93,992.185L795.294,991.969L795.658,991.751L796.021,991.533L796.384,991.314L796.747,991.094L797.11,990.873L797.473,990.651L797.836,990.428L798.198,990.204L798.561,989.978L798.923,989.752L799.285,989.525L799.647,989.297L800.009,989.068L800.371,988.838L800.732,988.607L801.093,988.375L801.455,988.142L801.816,987.907L802.177,987.672L802.538,987.436L802.898,987.199L803.259,986.961L803.619,986.722L803.979,986.482L804.339,986.24L804.699,985.998L805.059,985.755L805.419,985.511L805.778,985.266L806.138,985.019L806.497,984.772L806.856,984.524L807.215,984.274L807.574,984.024L807.932,983.773L808.291,983.52L808.649,983.267L809.007,983.013L809.365,982.757L809.723,982.501L810.081,982.243L810.438,981.985L810.796,981.725L811.147,981.469L1183.54,702.948L1183.84,702.708L1184.15,702.457L1184.46,702.205L1184.77,701.952L1185.08,701.698L1185.38,701.443L1185.68,701.187L1185.98,700.93L1186.28,700.672L1186.57,700.414L1186.87,700.154L1187.15,699.894L1187.44,699.632L1187.73,699.37L1188.01,699.107L1188.29,698.843L1188.56,698.578L1188.84,698.312L1189.11,698.045L1189.38,697.777L1189.64,697.509L1189.91,697.239L1190.17,696.969L1190.43,696.697L1190.69,696.425L1190.94,696.152L1191.2,695.877L1191.45,695.602L1191.69,695.326L1191.94,695.049L1192.18,694.771L1192.42,694.493L1192.66,694.213L1192.89,693.932L1193.13,693.651L1193.36,693.368L1193.59,693.085L1193.81,692.8L1194.04,692.515L1194.26,692.229L1194.47,691.942L1194.69,691.654L1194.9,691.365L1195.11,691.075L1195.32,690.784L1195.53,690.492L1195.73,690.2L1195.93,689.906L1196.13,689.611L1196.33,689.316L1196.52,689.019L1196.71,688.722L1196.9,688.424L1197.09,688.124L1197.27,687.824L1197.45,687.523L1197.63,687.221L1197.81,686.918L1197.98,686.614L1198.15,686.308L1198.32,686.002L1198.49,685.696L1198.65,685.388L1198.81,685.079L1198.97,684.769L1199.13,684.458L1199.29,684.146L1199.44,683.833L1199.59,683.52L1199.73,683.205L1199.88,682.889L1200.02,682.573L1200.16,682.255L1200.3,681.936L1200.43,681.617L1200.56,681.296L1200.69,680.975L1200.82,680.652L1200.95,680.328L1201.07,680.004L1201.19,679.678L1201.31,679.351L1201.42,679.024L1201.53,678.695L1201.64,678.365L1201.75,678.035L1201.86,677.703L1201.96,677.37L1202.06,677.037L1202.16,676.702L1202.25,676.366L1202.35,676.029L1202.44,675.691L1202.52,675.352L1202.61,675.012L1202.69,674.671L1202.77,674.329L1202.85,673.986L1202.93,673.642L1203,673.297L1203.07,672.951L1203.14,672.603L1203.2,672.255L1203.27,671.905L1203.33,671.555L1203.39,671.203L1203.44,670.851L1203.49,670.497L1203.55,670.142L1203.59,669.786L1203.64,669.429L1203.68,669.071L1203.72,668.712L1203.76,668.352L1203.8,667.991L1203.83,667.628L1203.86,667.265L1203.89,666.9L1203.91,666.534L1203.93,666.168L1203.96,665.8L1203.97,665.431L1203.99,665.061L1204,664.69L1204.01,664.317L1204.02,663.944L1204.03,663.569L1204.03,663.194L1204.03,412.434L84.877,519.957Z" style="fill:black;"/>
    </g>
    <path d="M360.47,817.206C364.791,823.877 368.904,831.07 376.451,837.415L439.852,859.995C446.316,859.09 454.636,854.026 460.271,847.875L460.271,828.866C460.271,824.747 457.727,821.721 452.366,820.026L369.726,791.263C362.046,788.589 360.47,790.783 360.47,795.762L360.47,817.206Z" style="fill:rgb(208,208,208);stroke-width:2px;stroke:black;"/>
    <path d="M445.12,842.284C449.32,842.074 453.719,838.679 457.836,834.724L457.836,824.75L446.629,821.548L445.12,842.284Z" style="fill:rgb(36,36,36);stroke-width:1.5px;stroke:black;"/>
    <path d="M369.726,811.272C373.63,817.477 377.954,823.834 383.578,829.348L441.388,849.854C447.19,847.168 453.15,842.648 457.824,837.391L457.824,823.101L455.36,821.204L369.726,791.24L369.726,811.272Z" style="fill:url(#_Linear1);stroke-width:1.5px;stroke:black;"/>
    <path d="M378.327,793.977L380.607,804.925L391.321,815.761L404.426,803.262L378.327,793.977Z" style="fill:rgb(50,50,50);stroke-width:1.5px;stroke:black;"/>
    <path d="M374.391,795.562C377.596,797.319 381.111,798.361 383.465,796.13L392.894,799.499C390.175,801.807 387.37,804.325 383.465,804.925C380.041,805.843 376.982,805.066 374.391,803.36L374.391,795.562Z" style="fill:rgb(118,117,115);stroke-width:1.5px;stroke:black;"/>
    <path d="M404.426,803.262L385.351,821.706L444.421,842.496L458.609,824.272L456.282,821.706L451.477,819.576L404.426,803.262Z" style="fill:rgb(65,65,65);stroke-width:1.5px;stroke:black;"/>
    <g id="Lan-Buchsen" transform="matrix(1,0,0,1,-153.263,-48.213)">
        <g id="Lan-Buchse">
            <g transform="matrix(1,0,0,1.00362,-3.63911,-6.79775)">
                <path d="M335.073,829.381L422.368,765.046L452.229,775.556L455.903,795.936L422.368,862.204L335.073,829.381Z" style="fill:rgb(128,128,128);stroke-width:0.65px;stroke:black;"/>
            </g>
            <path d="M316.291,701.056L316.291,827.929L455.86,877.136L458.602,749.347L316.291,701.056Z" style="fill:rgb(217,217,217);stroke-width:3px;stroke-linejoin:round;stroke:black;"/>
            <path d="M442.267,837.456L442.267,819.403L447.402,820.869L447.402,801.294L416.672,827.542L442.267,837.456Z" style="fill:rgb(128,128,128);stroke-width:0.65px;stroke:black;"/>
            <path d="M327.768,778.798L333.335,780.763L376.472,746.532L371.018,744.119L327.768,778.798Z" style="fill:rgb(128,128,128);stroke-width:0.65px;stroke:black;"/>
            <path d="M367.616,826.728L379.988,817.923L379.988,826.728L367.616,835.722L367.616,826.728Z" style="fill:rgb(89,89,89);stroke-width:0.65px;stroke:black;"/>
            <g transform="matrix(1,0,0,1.00362,-9.57108,-16.4892)">
                <path d="M367.378,819.278L425.518,773.906L429.874,775.367L378.522,815.172L378.522,827.876L367.378,835.746L367.378,819.278Z" style="fill:rgb(89,89,89);stroke-width:0.65px;stroke:black;"/>
            </g>
            <g id="(Kurve)" transform="matrix(1,0,0,1.00362,-33.973,-41.5059)">
                <path d="M367.378,819.278L410.525,785.333L425.666,790.456L367.378,835.746L367.378,819.278Z" style="fill:rgb(89,89,89);stroke-width:0.65px;stroke:black;"/>
            </g>
            <g transform="matrix(1,0,0,1.00362,-9.52382,-33.1298)">
                <path d="M342.219,827.876L400.956,782.21L425.511,790.502L367.378,835.746L342.219,827.876Z" style="fill:rgb(128,128,128);stroke-width:0.65px;stroke:black;"/>
            </g>
            <g transform="matrix(1,0,0,1.00362,-39.247,-60.5626)">
                <path d="M367.378,810.016L389.83,795.496L409.747,802.134L367.378,835.746L367.378,810.016Z" style="fill:rgb(89,89,89);stroke-width:0.65px;stroke:black;"/>
            </g>
            <path d="M357.417,822.601L367.928,826.458L379.962,817.96L368.774,814.457L357.417,822.601Z" style="fill:rgb(128,128,128);stroke-width:0.65px;stroke:black;"/>
            <g transform="matrix(1,0,0,1,1.12882,-28.0431)">
                <path d="M332.165,759.891L331.966,781.257L352.138,766.689L332.165,759.891Z" style="fill:rgb(77,77,77);stroke-width:0.65px;stroke:black;"/>
            </g>
            <path d="M326.996,779.236L332.247,781.082L332.247,798.855L356.671,806.379L356.671,822.774L367.144,826.608L367.144,835.542L406.428,849.084L406.428,839.059L416.839,842.728L416.839,827.84L442.461,837.4L442.461,819.403L447.63,821.026L447.63,791.815L442.461,790.207L442.461,768.055L332.247,730.174L332.247,752.379L326.996,750.056L326.996,779.236Z" style="fill:none;stroke-width:3px;stroke-linejoin:round;stroke:black;"/>
            <path d="M369.078,835.763L398.943,813.562L423.06,821.84L446.325,801.98L416.656,827.239" style="fill:none;stroke-width:2px;stroke:black;"/>
        </g>
    </g>
    <g id="Reset" transform="matrix(1,0,0,1,296.023,151.611)">
        <g transform="matrix(0.882217,0.850242,-0.611873,0.634884,532.725,21.4796)">
            <ellipse cx="256.696" cy="793.094" rx="13.657" ry="14.286" style="fill:rgb(140,140,140);"/>
        </g>
        <g transform="matrix(0.780488,0.752199,-0.538261,0.558504,501.633,106.253)">
            <ellipse cx="256.696" cy="793.094" rx="13.657" ry="14.286" style="fill:rgb(115,115,115);"/>
        </g>
    </g>
    <g id="Deckel">
        <path d="M541.326,236.894C567.5,221.811 607.685,213.677 650.312,225.417L1142.57,361.001C1209.94,373.246 1225.24,418.959 1173.93,449.827L808.36,705.211C757.628,737.358 668.189,739.386 608.943,717.76L140.311,564.039C76.344,545.504 64.491,505.898 119.865,479.76L541.326,236.894Z" style="fill:rgb(242,242,242);stroke-width:3px;stroke-linejoin:round;stroke:black;"/>
        <path d="M549.401,245.236C566.639,235.323 604.698,222.419 646.13,233.783L1135.01,367.88C1196.26,383.163 1206.7,411.107 1161.51,438.937L791.979,694.343C741.247,726.49 675.874,728.252 616.629,706.625L156.886,556.121C98.233,540.083 86.897,509.905 138.512,481.518L549.401,245.236Z" style="fill:rgb(80,190,255);stroke-width:3px;stroke-linejoin:round;stroke:black;"/>
        <path d="M558.477,248.202C569.51,242.571 614.52,232.056 640.398,240.536L1133.07,372.665C1185.78,391.126 1192.2,412.383 1154.2,436.322L785.224,689.782C734.492,721.929 678.739,721.731 619.494,700.105L162.131,551.242C109.881,535.3 100.9,513.729 145.075,485.242L558.477,248.202Z" style="fill:rgb(134,209,249);stroke-width:3px;stroke-linejoin:round;stroke:black;"/>
    </g>
    <g transform="matrix(0.946656,0.322246,-0.322246,0.946656,308.612,-131.247)">
        <path d="M186.757,927.392L190.296,927.392L190.296,936.025L195.819,936.025L195.819,938.845L186.757,938.845L186.757,927.392Z" style="fill:rgb(166,166,166);fill-rule:nonzero;"/>
        <path d="M204.476,936.955L200.444,936.955L199.89,938.845L196.272,938.845L200.577,927.392L204.436,927.392L208.741,938.845L205.038,938.845L204.476,936.955ZM203.733,934.478L202.468,930.361L201.21,934.478L203.733,934.478Z" style="fill:rgb(166,166,166);fill-rule:nonzero;"/>
        <path d="M209.897,927.392L213.202,927.392L217.515,933.728L217.515,927.392L220.851,927.392L220.851,938.845L217.515,938.845L213.226,932.556L213.226,938.845L209.897,938.845L209.897,927.392Z" style="fill:rgb(166,166,166);fill-rule:nonzero;"/>
        <path d="M224.897,927.197L226.522,927.197L223.647,939.033L222.038,939.033L224.897,927.197Z" style="fill:rgb(166,166,166);fill-rule:nonzero;"/>
        <path d="M226.468,927.392L229.827,927.392L231.038,933.791L232.804,927.392L236.155,927.392L237.929,933.791L239.14,927.392L242.483,927.392L239.96,938.845L236.491,938.845L234.483,931.634L232.483,938.845L229.015,938.845L226.468,927.392Z" style="fill:rgb(166,166,166);fill-rule:nonzero;"/>
        <path d="M250.694,936.955L246.663,936.955L246.108,938.845L242.491,938.845L246.796,927.392L250.655,927.392L254.96,938.845L251.257,938.845L250.694,936.955ZM249.952,934.478L248.686,930.361L247.429,934.478L249.952,934.478Z" style="fill:rgb(166,166,166);fill-rule:nonzero;"/>
        <path d="M256.116,927.392L259.421,927.392L263.733,933.728L263.733,927.392L267.069,927.392L267.069,938.845L263.733,938.845L259.444,932.556L259.444,938.845L256.116,938.845L256.116,927.392Z" style="fill:rgb(166,166,166);fill-rule:nonzero;"/>
        <path d="M372.858,927.392L376.39,927.392L376.39,934.22C376.39,934.897 376.284,935.537 376.073,936.138C375.862,936.74 375.532,937.266 375.081,937.716C374.63,938.167 374.158,938.483 373.663,938.666C372.976,938.921 372.15,939.048 371.186,939.048C370.629,939.048 370.021,939.009 369.362,938.931C368.703,938.853 368.153,938.698 367.71,938.466C367.267,938.235 366.862,937.905 366.495,937.478C366.128,937.051 365.877,936.611 365.741,936.158C365.522,935.429 365.413,934.783 365.413,934.22L365.413,927.392L368.944,927.392L368.944,934.384C368.944,935.009 369.117,935.498 369.464,935.849C369.81,936.201 370.291,936.376 370.905,936.376C371.515,936.376 371.992,936.203 372.339,935.857C372.685,935.511 372.858,935.02 372.858,934.384L372.858,927.392Z" style="fill:rgb(166,166,166);fill-rule:nonzero;"/>
        <path d="M378.116,935.056L381.483,934.845C381.556,935.392 381.705,935.809 381.929,936.095C382.293,936.559 382.814,936.791 383.491,936.791C383.996,936.791 384.386,936.672 384.659,936.435C384.933,936.198 385.069,935.923 385.069,935.611C385.069,935.314 384.939,935.048 384.679,934.814C384.418,934.58 383.814,934.358 382.866,934.15C381.314,933.801 380.207,933.337 379.546,932.759C378.879,932.181 378.546,931.444 378.546,930.548C378.546,929.96 378.716,929.404 379.058,928.88C379.399,928.357 379.912,927.945 380.597,927.646C381.282,927.347 382.22,927.197 383.413,927.197C384.877,927.197 385.992,927.469 386.761,928.013C387.529,928.557 387.986,929.423 388.132,930.611L384.796,930.806C384.707,930.291 384.521,929.916 384.237,929.681C383.953,929.447 383.561,929.33 383.061,929.33C382.65,929.33 382.34,929.417 382.132,929.591C381.923,929.766 381.819,929.978 381.819,930.228C381.819,930.41 381.905,930.574 382.077,930.72C382.244,930.871 382.64,931.012 383.265,931.142C384.811,931.475 385.92,931.813 386.589,932.154C387.258,932.495 387.745,932.918 388.05,933.423C388.354,933.929 388.507,934.494 388.507,935.119C388.507,935.853 388.304,936.53 387.897,937.15C387.491,937.77 386.923,938.24 386.194,938.56C385.465,938.88 384.546,939.041 383.436,939.041C381.489,939.041 380.14,938.666 379.39,937.916C378.64,937.166 378.215,936.212 378.116,935.056Z" style="fill:rgb(166,166,166);fill-rule:nonzero;"/>
        <path d="M390.296,927.392L396.921,927.392C398.025,927.392 398.873,927.666 399.464,928.212C400.055,928.759 400.351,929.436 400.351,930.244C400.351,930.921 400.14,931.501 399.718,931.986C399.436,932.309 399.025,932.564 398.483,932.751C399.306,932.949 399.912,933.289 400.3,933.771C400.688,934.253 400.882,934.858 400.882,935.587C400.882,936.181 400.744,936.715 400.468,937.189C400.192,937.663 399.814,938.038 399.335,938.314C399.038,938.486 398.59,938.611 397.991,938.689C397.194,938.793 396.666,938.845 396.405,938.845L390.296,938.845L390.296,927.392ZM393.866,931.884L395.405,931.884C395.957,931.884 396.341,931.789 396.558,931.599C396.774,931.409 396.882,931.134 396.882,930.775C396.882,930.442 396.774,930.181 396.558,929.994C396.341,929.806 395.965,929.712 395.429,929.712L393.866,929.712L393.866,931.884ZM393.866,936.384L395.671,936.384C396.28,936.384 396.71,936.276 396.96,936.06C397.21,935.844 397.335,935.554 397.335,935.189C397.335,934.85 397.211,934.578 396.964,934.373C396.716,934.167 396.283,934.064 395.663,934.064L393.866,934.064L393.866,936.384Z" style="fill:rgb(166,166,166);fill-rule:nonzero;"/>
        <path d="M404.429,927.197L406.054,927.197L403.179,939.033L401.569,939.033L404.429,927.197Z" style="fill:rgb(166,166,166);fill-rule:nonzero;"/>
        <path d="M407.163,927.392L413.046,927.392C414.327,927.392 415.287,927.697 415.925,928.306C416.563,928.916 416.882,929.783 416.882,930.908C416.882,932.064 416.534,932.968 415.839,933.619C415.143,934.27 414.082,934.595 412.655,934.595L410.718,934.595L410.718,938.845L407.163,938.845L407.163,927.392ZM410.718,932.275L411.585,932.275C412.267,932.275 412.746,932.156 413.022,931.919C413.298,931.682 413.436,931.379 413.436,931.009C413.436,930.65 413.317,930.345 413.077,930.095C412.838,929.845 412.387,929.72 411.726,929.72L410.718,929.72L410.718,932.275Z" style="fill:rgb(166,166,166);fill-rule:nonzero;"/>
        <path d="M417.718,934.72C417.718,933.455 418.145,932.412 418.999,931.591C419.853,930.771 421.007,930.361 422.46,930.361C424.121,930.361 425.377,930.843 426.226,931.806C426.908,932.582 427.249,933.538 427.249,934.673C427.249,935.949 426.826,936.995 425.979,937.81C425.133,938.625 423.963,939.033 422.468,939.033C421.134,939.033 420.056,938.694 419.233,938.017C418.223,937.179 417.718,936.08 417.718,934.72ZM420.905,934.712C420.905,935.452 421.055,935.999 421.354,936.353C421.654,936.707 422.03,936.884 422.483,936.884C422.942,936.884 423.318,936.71 423.612,936.361C423.907,936.012 424.054,935.452 424.054,934.681C424.054,933.962 423.905,933.427 423.608,933.076C423.311,932.724 422.944,932.548 422.507,932.548C422.043,932.548 421.66,932.727 421.358,933.083C421.056,933.44 420.905,933.983 420.905,934.712Z" style="fill:rgb(166,166,166);fill-rule:nonzero;"/>
        <path d="M427.554,930.548L430.632,930.548L431.968,935.775L433.655,930.548L436.522,930.548L438.272,935.775L439.608,930.548L442.663,930.548L439.608,938.845L436.78,938.845L435.101,933.853L433.476,938.845L430.632,938.845L427.554,930.548Z" style="fill:rgb(166,166,166);fill-rule:nonzero;"/>
        <path d="M452.624,935.486L446.249,935.486C446.306,935.996 446.444,936.376 446.663,936.626C446.97,936.986 447.371,937.166 447.866,937.166C448.179,937.166 448.476,937.087 448.757,936.931C448.929,936.832 449.114,936.658 449.311,936.408L452.444,936.697C451.965,937.53 451.387,938.128 450.71,938.49C450.033,938.852 449.061,939.033 447.796,939.033C446.697,939.033 445.832,938.878 445.202,938.568C444.572,938.258 444.05,937.766 443.636,937.091C443.222,936.417 443.015,935.624 443.015,934.712C443.015,933.416 443.43,932.366 444.261,931.564C445.091,930.762 446.239,930.361 447.702,930.361C448.89,930.361 449.827,930.541 450.515,930.9C451.202,931.259 451.726,931.78 452.085,932.462C452.444,933.145 452.624,934.033 452.624,935.126L452.624,935.486ZM449.39,933.962C449.327,933.348 449.162,932.908 448.893,932.642C448.625,932.376 448.272,932.244 447.835,932.244C447.33,932.244 446.926,932.444 446.624,932.845C446.431,933.095 446.309,933.468 446.257,933.962L449.39,933.962Z" style="fill:rgb(166,166,166);fill-rule:nonzero;"/>
        <path d="M454.116,930.548L457.093,930.548L457.093,931.908C457.379,931.319 457.675,930.914 457.979,930.693C458.284,930.472 458.66,930.361 459.108,930.361C459.577,930.361 460.09,930.507 460.647,930.798L459.663,933.064C459.288,932.908 458.991,932.83 458.772,932.83C458.356,932.83 458.033,933.001 457.804,933.345C457.476,933.83 457.311,934.736 457.311,936.064L457.311,938.845L454.116,938.845L454.116,930.548Z" style="fill:rgb(166,166,166);fill-rule:nonzero;"/>
        <path d="M556.124,938.845L556.124,927.392L562.022,927.392C563.116,927.392 563.952,927.486 564.53,927.673C565.108,927.861 565.574,928.208 565.929,928.716C566.283,929.224 566.46,929.843 566.46,930.572C566.46,931.207 566.324,931.755 566.054,932.216C565.783,932.677 565.41,933.051 564.936,933.337C564.634,933.52 564.22,933.671 563.694,933.791C564.116,933.931 564.423,934.072 564.616,934.212C564.746,934.306 564.935,934.507 565.183,934.814C565.43,935.121 565.595,935.358 565.679,935.525L567.39,938.845L563.39,938.845L561.499,935.345C561.259,934.892 561.046,934.598 560.858,934.462C560.603,934.285 560.314,934.197 559.991,934.197L559.679,934.197L559.679,938.845L556.124,938.845ZM559.679,932.033L561.171,932.033C561.332,932.033 561.645,931.981 562.108,931.876C562.343,931.83 562.534,931.71 562.683,931.517C562.831,931.324 562.905,931.103 562.905,930.853C562.905,930.483 562.788,930.199 562.554,930.001C562.319,929.804 561.879,929.705 561.233,929.705L559.679,929.705L559.679,932.033Z" style="fill:rgb(166,166,166);fill-rule:nonzero;"/>
        <path d="M577.124,935.486L570.749,935.486C570.806,935.996 570.944,936.376 571.163,936.626C571.47,936.986 571.871,937.166 572.366,937.166C572.679,937.166 572.976,937.087 573.257,936.931C573.429,936.832 573.614,936.658 573.811,936.408L576.944,936.697C576.465,937.53 575.887,938.128 575.21,938.49C574.533,938.852 573.561,939.033 572.296,939.033C571.197,939.033 570.332,938.878 569.702,938.568C569.072,938.258 568.55,937.766 568.136,937.091C567.722,936.417 567.515,935.624 567.515,934.712C567.515,933.416 567.93,932.366 568.761,931.564C569.591,930.762 570.739,930.361 572.202,930.361C573.39,930.361 574.327,930.541 575.015,930.9C575.702,931.259 576.226,931.78 576.585,932.462C576.944,933.145 577.124,934.033 577.124,935.126L577.124,935.486ZM573.89,933.962C573.827,933.348 573.662,932.908 573.393,932.642C573.125,932.376 572.772,932.244 572.335,932.244C571.83,932.244 571.426,932.444 571.124,932.845C570.931,933.095 570.809,933.468 570.757,933.962L573.89,933.962Z" style="fill:rgb(166,166,166);fill-rule:nonzero;"/>
        <path d="M578.022,936.548L581.179,936.251C581.309,936.626 581.491,936.895 581.726,937.056C581.96,937.218 582.272,937.298 582.663,937.298C583.09,937.298 583.421,937.207 583.655,937.025C583.838,936.889 583.929,936.72 583.929,936.517C583.929,936.288 583.809,936.111 583.569,935.986C583.397,935.897 582.942,935.788 582.202,935.658C581.098,935.465 580.331,935.287 579.901,935.123C579.472,934.958 579.11,934.681 578.815,934.291C578.521,933.9 578.374,933.455 578.374,932.955C578.374,932.408 578.533,931.936 578.851,931.541C579.168,931.145 579.606,930.849 580.163,930.654C580.72,930.458 581.468,930.361 582.405,930.361C583.395,930.361 584.125,930.436 584.597,930.587C585.068,930.738 585.461,930.973 585.776,931.291C586.091,931.608 586.353,932.038 586.561,932.58L583.546,932.876C583.468,932.611 583.338,932.416 583.155,932.291C582.905,932.124 582.603,932.041 582.249,932.041C581.89,932.041 581.628,932.104 581.464,932.232C581.3,932.36 581.218,932.514 581.218,932.697C581.218,932.9 581.322,933.054 581.53,933.158C581.739,933.262 582.192,933.356 582.89,933.439C583.947,933.559 584.733,933.725 585.249,933.939C585.765,934.152 586.159,934.457 586.433,934.853C586.706,935.249 586.843,935.684 586.843,936.158C586.843,936.637 586.698,937.103 586.409,937.556C586.12,938.009 585.664,938.37 585.042,938.638C584.42,938.906 583.572,939.041 582.499,939.041C580.983,939.041 579.904,938.824 579.261,938.392C578.617,937.96 578.205,937.345 578.022,936.548Z" style="fill:rgb(166,166,166);fill-rule:nonzero;"/>
        <path d="M597.569,935.486L591.194,935.486C591.252,935.996 591.39,936.376 591.608,936.626C591.916,936.986 592.317,937.166 592.811,937.166C593.124,937.166 593.421,937.087 593.702,936.931C593.874,936.832 594.059,936.658 594.257,936.408L597.39,936.697C596.91,937.53 596.332,938.128 595.655,938.49C594.978,938.852 594.007,939.033 592.741,939.033C591.642,939.033 590.778,938.878 590.147,938.568C589.517,938.258 588.995,937.766 588.581,937.091C588.167,936.417 587.96,935.624 587.96,934.712C587.96,933.416 588.375,932.366 589.206,931.564C590.037,930.762 591.184,930.361 592.647,930.361C593.835,930.361 594.772,930.541 595.46,930.9C596.147,931.259 596.671,931.78 597.03,932.462C597.39,933.145 597.569,934.033 597.569,935.126L597.569,935.486ZM594.335,933.962C594.272,933.348 594.107,932.908 593.839,932.642C593.571,932.376 593.218,932.244 592.78,932.244C592.275,932.244 591.871,932.444 591.569,932.845C591.377,933.095 591.254,933.468 591.202,933.962L594.335,933.962Z" style="fill:rgb(166,166,166);fill-rule:nonzero;"/>
        <path d="M602.866,927.392L602.866,930.548L604.616,930.548L604.616,932.869L602.866,932.869L602.866,935.814C602.866,936.168 602.9,936.402 602.968,936.517C603.072,936.694 603.254,936.783 603.515,936.783C603.749,936.783 604.077,936.715 604.499,936.58L604.733,938.775C603.947,938.947 603.213,939.033 602.53,939.033C601.739,939.033 601.155,938.931 600.78,938.728C600.405,938.525 600.128,938.216 599.948,937.802C599.768,937.388 599.679,936.718 599.679,935.791L599.679,932.869L598.507,932.869L598.507,930.548L599.679,930.548L599.679,929.025L602.866,927.392Z" style="fill:rgb(166,166,166);fill-rule:nonzero;"/>
    </g>
    <g transform="matrix(1.51496,8.32667e-17,-6.93889e-17,1.51496,85.7109,-804.773)">
        <path d="M135.498,842.603L158.845,850.22C163.369,851.761 165.815,853.301 161.429,857.012L123.238,879.53C119.335,882.001 117.516,881.812 114.389,880.759L91.06,873.12C88.249,872.037 86.429,868.388 91.06,864.259L127.305,843.137C130.734,841.138 135.498,842.603 135.498,842.603Z" style="fill:rgb(122,190,91);"/>
        <path d="M131.825,841.095L131.913,841.096L132,841.098L132.088,841.1L132.259,841.105L132.428,841.113L132.594,841.122L132.758,841.133L132.919,841.145L133.077,841.159L133.232,841.174L133.384,841.191L133.533,841.208L133.677,841.226L133.819,841.246L133.956,841.265L134.09,841.286L134.219,841.307L134.345,841.328L134.466,841.35L134.583,841.372L134.695,841.393L134.803,841.415L134.906,841.437L135.003,841.458L135.096,841.478L135.184,841.498L135.267,841.518L135.414,841.554L135.539,841.586L135.64,841.614L135.717,841.635L135.791,841.657L159.159,849.281L159.379,849.357L159.591,849.431L159.801,849.505L160.007,849.579L160.211,849.655L160.411,849.73L160.609,849.806L160.803,849.883L160.993,849.96L161.088,850L161.182,850.039L161.275,850.079L161.366,850.119L161.457,850.159L161.547,850.199L161.636,850.24L161.725,850.281L161.812,850.322L161.898,850.363L161.984,850.405L162.069,850.448L162.152,850.49L162.235,850.533L162.317,850.577L162.398,850.621L162.478,850.665L162.557,850.71L162.635,850.755L162.712,850.801L162.788,850.848L162.863,850.895L162.937,850.943L163.01,850.991L163.083,851.04L163.154,851.09L163.224,851.14L163.293,851.191L163.361,851.243L163.427,851.296L163.493,851.35L163.558,851.405L163.622,851.46L163.684,851.517L163.745,851.574L163.805,851.633L163.864,851.693L163.921,851.755L163.977,851.817L164.032,851.88L164.085,851.945L164.136,852.012L164.186,852.079L164.235,852.148L164.281,852.219L164.326,852.291L164.369,852.364L164.41,852.439L164.449,852.515L164.485,852.593L164.52,852.672L164.551,852.752L164.581,852.834L164.608,852.916L164.632,853L164.653,853.085L164.672,853.171L164.688,853.258L164.701,853.345L164.711,853.433L164.718,853.521L164.722,853.61L164.723,853.699L164.721,853.788L164.716,853.877L164.709,853.966L164.698,854.056L164.685,854.144L164.669,854.233L164.65,854.321L164.629,854.409L164.605,854.497L164.579,854.584L164.55,854.671L164.519,854.758L164.486,854.844L164.45,854.93L164.412,855.015L164.372,855.1L164.329,855.185L164.284,855.27L164.238,855.354L164.189,855.438L164.138,855.523L164.085,855.606L164.03,855.69L163.972,855.774L163.913,855.858L163.852,855.942L163.788,856.026L163.723,856.11L163.655,856.195L163.585,856.279L163.514,856.364L163.44,856.448L163.364,856.534L163.285,856.619L163.205,856.705L163.123,856.791L163.038,856.878L162.951,856.964L162.862,857.052L162.771,857.14L162.677,857.228L162.581,857.317L162.483,857.406L162.383,857.496L162.28,857.586L162.175,857.677L162.006,857.822L123.752,880.376L123.579,880.484L123.394,880.599L123.211,880.709L123.031,880.816L122.853,880.92L122.677,881.02L122.504,881.115L122.417,881.163L122.332,881.209L122.247,881.254L122.162,881.298L122.078,881.341L121.994,881.384L121.911,881.426L121.828,881.467L121.746,881.507L121.664,881.546L121.583,881.584L121.502,881.622L121.421,881.658L121.341,881.694L121.26,881.729L121.181,881.763L121.101,881.797L121.022,881.829L120.944,881.861L120.865,881.892L120.787,881.922L120.709,881.952L120.632,881.98L120.555,882.008L120.478,882.035L120.401,882.061L120.325,882.086L120.248,882.111L120.172,882.134L120.097,882.157L120.021,882.179L119.945,882.201L119.87,882.221L119.795,882.241L119.721,882.26L119.646,882.278L119.571,882.296L119.497,882.312L119.423,882.328L119.349,882.343L119.276,882.357L119.202,882.371L119.129,882.384L119.055,882.396L118.982,882.407L118.909,882.417L118.836,882.427L118.763,882.436L118.691,882.444L118.618,882.451L118.546,882.458L118.474,882.464L118.402,882.469L118.33,882.474L118.258,882.478L118.187,882.481L118.115,882.483L118.044,882.485L117.972,882.485L117.901,882.486L117.83,882.485L117.759,882.484L117.688,882.482L117.618,882.48L117.547,882.477L117.476,882.473L117.406,882.468L117.336,882.463L117.265,882.458L117.195,882.451L117.125,882.445L117.055,882.437L116.985,882.429L116.915,882.42L116.845,882.411L116.774,882.401L116.636,882.38L116.497,882.357L116.358,882.332L116.218,882.304L116.079,882.275L115.939,882.244L115.8,882.211L115.66,882.176L115.519,882.14L115.378,882.102L115.237,882.063L115.095,882.022L114.952,881.979L114.808,881.936L114.663,881.89L114.518,881.844L114.371,881.797L114.222,881.748L114.078,881.699L90.725,874.052L90.626,874.013L90.547,873.981L90.469,873.947L90.392,873.913L90.315,873.877L90.238,873.841L90.162,873.803L90.087,873.764L90.012,873.725L89.938,873.684L89.864,873.642L89.791,873.598L89.718,873.554L89.647,873.509L89.575,873.463L89.505,873.415L89.435,873.367L89.366,873.317L89.297,873.267L89.23,873.215L89.163,873.162L89.096,873.108L89.031,873.054L88.967,872.998L88.903,872.941L88.84,872.883L88.778,872.824L88.716,872.764L88.656,872.703L88.597,872.641L88.538,872.578L88.481,872.514L88.424,872.449L88.369,872.383L88.314,872.316L88.261,872.248L88.209,872.179L88.157,872.109L88.107,872.038L88.058,871.966L88.011,871.893L87.964,871.819L87.919,871.745L87.874,871.669L87.832,871.592L87.79,871.514L87.75,871.436L87.711,871.357L87.673,871.276L87.637,871.195L87.602,871.113L87.569,871.03L87.537,870.946L87.507,870.862L87.478,870.776L87.45,870.69L87.425,870.603L87.4,870.515L87.378,870.427L87.357,870.338L87.338,870.248L87.32,870.157L87.304,870.066L87.29,869.974L87.277,869.882L87.266,869.788L87.257,869.695L87.25,869.601L87.245,869.506L87.241,869.41L87.239,869.315L87.239,869.218L87.241,869.122L87.245,869.024L87.25,868.927L87.258,868.829L87.267,868.731L87.278,868.632L87.291,868.533L87.306,868.434L87.323,868.334L87.342,868.234L87.363,868.134L87.386,868.034L87.411,867.933L87.438,867.832L87.466,867.731L87.497,867.63L87.53,867.529L87.564,867.427L87.601,867.326L87.639,867.224L87.68,867.122L87.722,867.02L87.767,866.918L87.813,866.816L87.862,866.713L87.912,866.611L87.965,866.509L88.02,866.406L88.076,866.303L88.135,866.201L88.196,866.098L88.258,865.995L88.323,865.892L88.39,865.79L88.459,865.687L88.53,865.584L88.603,865.481L88.678,865.378L88.756,865.275L88.835,865.172L88.916,865.068L89,864.965L89.086,864.862L89.174,864.759L89.264,864.656L89.356,864.553L89.451,864.449L89.547,864.346L89.646,864.243L89.747,864.14L89.851,864.036L89.956,863.933L90.064,863.83L90.174,863.727L90.287,863.623L90.474,863.455L126.809,842.28L126.899,842.228L126.993,842.176L127.086,842.126L127.181,842.077L127.275,842.03L127.37,841.984L127.465,841.939L127.561,841.896L127.656,841.855L127.752,841.814L127.848,841.775L127.945,841.738L128.041,841.701L128.138,841.666L128.235,841.632L128.331,841.6L128.428,841.568L128.525,841.538L128.623,841.509L128.72,841.481L128.817,841.455L128.914,841.429L129.011,841.405L129.108,841.381L129.205,841.359L129.302,841.338L129.399,841.318L129.495,841.299L129.592,841.28L129.688,841.263L129.784,841.247L129.88,841.232L129.976,841.217L130.072,841.204L130.167,841.191L130.262,841.179L130.357,841.169L130.452,841.159L130.546,841.149L130.64,841.141L130.734,841.133L130.827,841.126L130.92,841.12L131.012,841.115L131.104,841.11L131.196,841.106L131.287,841.102L131.378,841.1L131.469,841.098L131.558,841.096L131.648,841.095L131.737,841.095L131.825,841.095ZM131.66,843.076L131.584,843.076L131.507,843.078L131.43,843.079L131.354,843.082L131.276,843.084L131.199,843.088L131.121,843.092L131.044,843.096L130.966,843.102L130.888,843.107L130.81,843.114L130.731,843.121L130.653,843.129L130.575,843.137L130.497,843.146L130.418,843.156L130.34,843.166L130.262,843.177L130.183,843.189L130.105,843.201L130.027,843.214L129.949,843.228L129.871,843.243L129.793,843.258L129.716,843.275L129.638,843.291L129.561,843.309L129.484,843.328L129.407,843.347L129.331,843.367L129.254,843.388L129.178,843.41L129.102,843.433L129.027,843.456L128.952,843.48L128.877,843.505L128.802,843.532L128.728,843.558L128.655,843.586L128.581,843.615L128.508,843.645L128.436,843.675L128.364,843.706L128.292,843.739L128.221,843.772L128.15,843.806L128.08,843.842L128.01,843.878L127.941,843.915L127.872,843.953L127.8,843.994L91.647,865.063L91.619,865.088L91.522,865.178L91.426,865.267L91.334,865.356L91.243,865.445L91.155,865.533L91.069,865.621L90.985,865.708L90.904,865.795L90.825,865.881L90.748,865.967L90.673,866.053L90.601,866.138L90.53,866.222L90.462,866.306L90.396,866.39L90.332,866.473L90.27,866.556L90.21,866.637L90.152,866.719L90.097,866.8L90.043,866.88L89.991,866.96L89.941,867.039L89.893,867.118L89.847,867.196L89.803,867.273L89.761,867.35L89.72,867.426L89.681,867.501L89.644,867.576L89.609,867.65L89.576,867.724L89.544,867.797L89.514,867.869L89.485,867.941L89.458,868.012L89.433,868.082L89.409,868.152L89.387,868.221L89.366,868.289L89.347,868.357L89.33,868.424L89.313,868.49L89.298,868.556L89.285,868.621L89.272,868.685L89.262,868.749L89.252,868.812L89.244,868.875L89.237,868.937L89.231,868.998L89.226,869.059L89.223,869.119L89.22,869.178L89.219,869.237L89.219,869.296L89.22,869.353L89.223,869.411L89.226,869.467L89.23,869.524L89.236,869.579L89.242,869.634L89.249,869.689L89.258,869.743L89.267,869.797L89.278,869.85L89.289,869.903L89.301,869.955L89.314,870.007L89.329,870.058L89.344,870.109L89.36,870.16L89.377,870.21L89.394,870.259L89.413,870.309L89.433,870.357L89.453,870.406L89.475,870.454L89.497,870.501L89.52,870.548L89.544,870.595L89.569,870.641L89.594,870.687L89.621,870.733L89.648,870.778L89.676,870.822L89.705,870.866L89.735,870.91L89.766,870.953L89.797,870.996L89.829,871.039L89.862,871.081L89.896,871.122L89.93,871.163L89.965,871.204L90.001,871.244L90.038,871.283L90.075,871.322L90.113,871.361L90.152,871.399L90.192,871.436L90.232,871.473L90.273,871.509L90.314,871.545L90.356,871.581L90.399,871.615L90.442,871.649L90.486,871.683L90.531,871.716L90.576,871.748L90.622,871.78L90.668,871.811L90.714,871.841L90.762,871.871L90.81,871.9L90.858,871.929L90.907,871.956L90.956,871.984L91.005,872.01L91.056,872.036L91.106,872.061L91.157,872.085L91.208,872.109L91.26,872.132L91.312,872.154L91.364,872.175L91.396,872.188L114.7,879.819L114.846,879.868L114.986,879.914L115.123,879.959L115.258,880.002L115.391,880.043L115.521,880.083L115.65,880.121L115.777,880.157L115.901,880.192L116.024,880.225L116.145,880.256L116.264,880.286L116.382,880.314L116.498,880.34L116.613,880.364L116.726,880.386L116.838,880.406L116.948,880.425L117.06,880.442L117.112,880.449L117.166,880.456L117.22,880.463L117.274,880.469L117.327,880.475L117.38,880.48L117.433,880.485L117.486,880.489L117.539,880.493L117.591,880.496L117.644,880.499L117.696,880.501L117.748,880.503L117.8,880.504L117.852,880.505L117.904,880.505L117.957,880.505L118.008,880.505L118.06,880.503L118.113,880.502L118.165,880.499L118.217,880.497L118.269,880.493L118.321,880.49L118.374,880.485L118.426,880.481L118.479,880.475L118.532,880.469L118.585,880.463L118.638,880.456L118.692,880.448L118.746,880.44L118.8,880.431L118.854,880.421L118.908,880.411L118.963,880.401L119.018,880.39L119.074,880.378L119.13,880.365L119.186,880.352L119.243,880.338L119.3,880.324L119.357,880.309L119.415,880.293L119.473,880.276L119.531,880.259L119.591,880.241L119.65,880.223L119.71,880.203L119.771,880.183L119.832,880.163L119.894,880.141L119.956,880.119L120.018,880.096L120.081,880.072L120.145,880.047L120.21,880.022L120.275,879.996L120.34,879.969L120.406,879.941L120.473,879.912L120.54,879.883L120.608,879.853L120.677,879.821L120.746,879.789L120.816,879.757L120.886,879.723L120.957,879.688L121.029,879.653L121.102,879.616L121.175,879.579L121.249,879.541L121.323,879.502L121.399,879.462L121.475,879.421L121.551,879.38L121.707,879.293L121.866,879.203L122.028,879.109L122.193,879.011L122.361,878.909L122.533,878.803L122.723,878.684L160.852,856.203L160.885,856.175L160.978,856.094L161.069,856.014L161.157,855.936L161.242,855.858L161.325,855.781L161.405,855.706L161.482,855.631L161.557,855.558L161.63,855.485L161.7,855.414L161.767,855.343L161.832,855.274L161.894,855.206L161.954,855.139L162.012,855.073L162.067,855.008L162.119,854.944L162.169,854.882L162.217,854.821L162.262,854.761L162.305,854.702L162.346,854.645L162.384,854.589L162.42,854.534L162.454,854.48L162.486,854.428L162.515,854.377L162.542,854.328L162.567,854.28L162.591,854.234L162.612,854.189L162.631,854.146L162.649,854.104L162.664,854.064L162.678,854.025L162.691,853.987L162.701,853.952L162.711,853.917L162.719,853.885L162.725,853.853L162.731,853.823L162.735,853.794L162.738,853.767L162.74,853.741L162.742,853.715L162.742,853.691L162.742,853.667L162.741,853.645L162.739,853.623L162.737,853.601L162.734,853.58L162.73,853.559L162.725,853.538L162.72,853.517L162.714,853.496L162.707,853.475L162.699,853.453L162.691,853.431L162.681,853.409L162.67,853.386L162.658,853.363L162.645,853.339L162.631,853.314L162.615,853.289L162.598,853.263L162.579,853.236L162.559,853.209L162.537,853.181L162.514,853.153L162.489,853.123L162.462,853.094L162.434,853.063L162.404,853.033L162.372,853.002L162.338,852.97L162.303,852.938L162.266,852.906L162.228,852.873L162.187,852.84L162.145,852.806L162.101,852.773L162.055,852.739L162.008,852.705L161.959,852.671L161.908,852.636L161.856,852.602L161.802,852.567L161.746,852.532L161.689,852.497L161.63,852.462L161.57,852.427L161.508,852.392L161.445,852.357L161.38,852.321L161.313,852.286L161.245,852.251L161.176,852.215L161.106,852.18L161.034,852.145L160.96,852.109L160.885,852.074L160.809,852.039L160.732,852.003L160.653,851.968L160.573,851.933L160.491,851.897L160.409,851.862L160.325,851.827L160.241,851.792L160.066,851.721L159.888,851.651L159.706,851.58L159.519,851.51L159.328,851.44L159.133,851.369L158.934,851.299L158.732,851.228L158.531,851.159L135.205,843.549L135.17,843.538L135.115,843.523L135.034,843.501L134.931,843.474L134.804,843.443L134.735,843.427L134.66,843.41L134.58,843.392L134.495,843.374L134.405,843.355L134.311,843.336L134.213,843.317L134.111,843.298L134.005,843.279L133.895,843.261L133.781,843.242L133.664,843.224L133.543,843.207L133.419,843.19L133.292,843.174L133.162,843.158L133.03,843.144L132.895,843.131L132.757,843.119L132.617,843.108L132.474,843.098L132.33,843.091L132.184,843.084L132.035,843.079L131.961,843.078L131.887,843.076L131.811,843.076L131.736,843.075L131.66,843.076Z" style="fill:rgb(41,168,55);"/>
    </g>
    <defs>
        <linearGradient id="_Linear1" x1="0" y1="0" x2="1" y2="0" gradientUnits="userSpaceOnUse" gradientTransform="matrix(-14.6261,37.1089,-37.1089,-14.6261,410.508,794.984)"><stop offset="0%" style="stop-color:rgb(50,50,50);stop-opacity:1"/><stop offset="62%" style="stop-color:rgb(69,69,69);stop-opacity:1"/><stop offset="82%" style="stop-color:rgb(115,115,115);stop-opacity:1"/><stop offset="100%" style="stop-color:rgb(166,166,166);stop-opacity:1"/></linearGradient>
    </defs>
</svg>
