<?xml version="1.0" standalone="no"?>
<!DOCTYPE svg PUBLIC "-//W3C//DTD SVG 1.1//EN" "http://www.w3.org/Graphics/SVG/1.1/DTD/svg11.dtd">
<svg width="100%" height="100%" viewBox="0 0 1280 1150" version="1.1" xmlns="http://www.w3.org/2000/svg" xmlns:xlink="http://www.w3.org/1999/xlink" xml:space="preserve" style="fill-rule:evenodd;clip-rule:evenodd;stroke-linecap:round;stroke-linejoin:round;stroke-miterlimit:1.41421;">
    <g id="Netgear Front">
        <g transform="matrix(7.63715,0,0,1,-863.442,0)">
            <rect x="130.092" y="641.887" width="137.214" height="123.814" style="fill:rgb(43,47,48);stroke-width:0.18px;stroke:black;"/>
        </g>
        <g id="boden">
            <rect x="1122.6" y="766.36" width="49.355" height="8.411" style="fill:black;stroke-width:1px;stroke:black;"/>
            <g transform="matrix(1,0,0,1,-1016.77,0)">
                <rect x="1122.6" y="766.36" width="49.355" height="8.411" style="fill:black;stroke-width:1px;stroke:black;"/>
            </g>
            <rect x="64.872" y="727.852" width="79.556" height="32.669" style="fill:rgb(73,81,83);stroke-width:3px;stroke:black;"/>
            <g transform="matrix(1,0,0,1,1074.95,0)">
                <rect x="64.872" y="727.852" width="79.556" height="32.669" style="fill:rgb(73,81,83);stroke-width:3px;stroke:black;"/>
            </g>
            <rect x="45.343" y="757.801" width="1190.5" height="14.923" style="fill:rgb(73,81,83);stroke-width:3px;stroke:black;"/>
        </g>
        <path d="M107.462,624.844L1177.9,624.844C821.085,587.453 464.271,590.381 107.462,624.844Z" style="fill:rgb(98,96,98);stroke-width:3px;stroke:black;"/>
        <path d="M45.705,740.17L131.933,740.17C138.759,740.17 144.351,736.776 144.351,730.257L144.351,659.958C146.244,652.499 151.473,649.886 158.39,649.724L1123.31,649.724C1134.12,649.214 1139.38,652.731 1139.5,659.958L1139.5,731.857C1139.5,735.254 1142.61,740.17 1147.81,740.17L1233.2,740.17L1233.2,624.844L45.705,624.844L45.705,740.17Z" style="fill:rgb(34,36,32);stroke-width:2.5px;stroke:rgb(1,0,0);"/>
        <g id="red">
            <path d="M144.598,659.958C146.068,654.338 149.674,650.278 158.39,649.947L1125.97,649.947C1133.74,650.026 1138.98,652.562 1139.24,659.958L1139.24,732.227L144.598,732.227L144.598,659.958Z" style="fill:rgb(144,153,166);"/>
            <path d="M1126.15,649.95L1126.34,649.953L1126.52,649.957L1126.69,649.962L1126.87,649.968L1127.05,649.975L1127.22,649.983L1127.4,649.992L1127.57,650.001L1127.75,650.012L1127.92,650.024L1128.09,650.036L1128.26,650.05L1128.43,650.065L1128.6,650.08L1128.76,650.097L1128.93,650.114L1129.09,650.133L1129.26,650.153L1129.42,650.173L1129.58,650.195L1129.74,650.218L1129.9,650.242L1130.06,650.267L1130.22,650.293L1130.37,650.32L1130.53,650.348L1130.68,650.377L1130.83,650.407L1130.99,650.439L1131.14,650.471L1131.29,650.505L1131.43,650.539L1131.58,650.575L1131.73,650.612L1131.87,650.65L1132.02,650.69L1132.16,650.73L1132.3,650.772L1132.44,650.814L1132.58,650.858L1132.71,650.903L1132.85,650.95L1132.99,650.997L1133.12,651.046L1133.25,651.096L1133.38,651.147L1133.52,651.199L1133.64,651.253L1133.77,651.308L1133.9,651.364L1134.02,651.421L1134.15,651.48L1134.27,651.539L1134.39,651.601L1134.51,651.663L1134.63,651.727L1134.75,651.792L1134.86,651.858L1134.98,651.925L1135.09,651.994L1135.2,652.064L1135.31,652.136L1135.42,652.209L1135.53,652.283L1135.64,652.359L1135.74,652.435L1135.84,652.514L1135.95,652.593L1136.05,652.674L1136.15,652.757L1136.24,652.84L1136.34,652.926L1136.44,653.012L1136.53,653.1L1136.62,653.189L1136.71,653.28L1136.8,653.372L1136.89,653.466L1136.98,653.561L1137.06,653.658L1137.14,653.756L1137.23,653.855L1137.31,653.956L1137.38,654.059L1137.46,654.163L1137.54,654.268L1137.61,654.375L1137.68,654.483L1137.76,654.593L1137.83,654.705L1137.89,654.818L1137.96,654.932L1138.02,655.048L1138.09,655.166L1138.15,655.285L1138.21,655.405L1138.27,655.528L1138.33,655.652L1138.38,655.777L1138.43,655.904L1138.49,656.033L1138.54,656.163L1138.58,656.295L1138.63,656.428L1138.68,656.563L1138.72,656.7L1138.76,656.838L1138.8,656.978L1138.84,657.119L1138.88,657.263L1138.91,657.408L1138.95,657.554L1138.98,657.702L1139.01,657.852L1139.04,658.004L1139.06,658.157L1139.09,658.312L1139.11,658.469L1139.13,658.628L1139.15,658.788L1139.17,658.95L1139.18,659.113L1139.2,659.279L1139.21,659.446L1139.22,659.615L1139.23,659.785L1139.24,659.958L1139.24,732.227L144.598,732.227L144.598,659.958L144.633,659.826L144.669,659.695L144.705,659.565L144.742,659.436L144.78,659.306L144.819,659.178L144.859,659.05L144.9,658.923L144.941,658.796L144.983,658.67L145.026,658.545L145.07,658.42L145.115,658.296L145.161,658.172L145.208,658.05L145.255,657.928L145.304,657.806L145.353,657.685L145.404,657.565L145.455,657.446L145.507,657.327L145.56,657.209L145.615,657.092L145.67,656.975L145.726,656.859L145.783,656.744L145.841,656.63L145.9,656.516L145.961,656.403L146.022,656.291L146.084,656.18L146.147,656.069L146.212,655.959L146.277,655.85L146.344,655.742L146.411,655.634L146.48,655.528L146.55,655.422L146.621,655.316L146.693,655.212L146.766,655.109L146.84,655.006L146.915,654.904L146.992,654.803L147.07,654.703L147.148,654.604L147.228,654.505L147.31,654.408L147.392,654.311L147.476,654.215L147.56,654.12L147.646,654.026L147.734,653.933L147.822,653.841L147.912,653.749L148.003,653.659L148.095,653.569L148.189,653.481L148.283,653.393L148.379,653.306L148.477,653.22L148.575,653.136L148.675,653.052L148.777,652.969L148.879,652.887L148.983,652.806L149.088,652.726L149.195,652.647L149.303,652.569L149.412,652.492L149.523,652.416L149.635,652.341L149.749,652.267L149.864,652.194L149.98,652.122L150.098,652.051L150.217,651.981L150.338,651.912L150.46,651.845L150.583,651.778L150.708,651.712L150.835,651.648L150.963,651.584L151.092,651.522L151.223,651.461L151.356,651.401L151.489,651.341L151.625,651.283L151.762,651.227L151.9,651.171L152.041,651.116L152.182,651.063L152.325,651.011L152.47,650.959L152.617,650.909L152.764,650.861L152.914,650.813L153.065,650.766L153.218,650.721L153.372,650.677L153.528,650.634L153.686,650.592L153.845,650.552L154.006,650.512L154.169,650.474L154.333,650.437L154.499,650.402L154.667,650.367L154.836,650.334L155.008,650.302L155.18,650.271L155.355,650.242L155.531,650.214L155.709,650.187L155.889,650.161L156.071,650.137L156.254,650.114L156.439,650.092L156.626,650.072L156.815,650.053L157.005,650.035L157.197,650.018L157.391,650.003L157.587,649.989L157.785,649.977L157.985,649.966L158.186,649.956L158.39,649.947L1125.97,649.947L1126.15,649.95ZM158.421,651.448L158.253,651.454L158.063,651.464L157.874,651.474L157.687,651.486L157.502,651.499L157.32,651.513L157.139,651.529L156.96,651.545L156.783,651.563L156.608,651.583L156.435,651.603L156.264,651.624L156.094,651.647L155.927,651.671L155.762,651.696L155.598,651.722L155.436,651.749L155.276,651.778L155.118,651.807L154.962,651.838L154.808,651.87L154.655,651.902L154.504,651.936L154.356,651.971L154.208,652.007L154.063,652.044L153.92,652.082L153.778,652.121L153.637,652.161L153.499,652.202L153.362,652.244L153.227,652.287L153.094,652.331L152.963,652.376L152.833,652.422L152.704,652.469L152.578,652.517L152.453,652.566L152.329,652.615L152.208,652.666L152.087,652.717L151.968,652.77L151.852,652.823L151.736,652.877L151.622,652.932L151.509,652.988L151.398,653.044L151.288,653.102L151.18,653.161L151.073,653.22L150.968,653.28L150.864,653.341L150.761,653.402L150.66,653.465L150.561,653.528L150.462,653.592L150.364,653.658L150.269,653.723L150.174,653.79L150.081,653.857L149.989,653.926L149.898,653.995L149.808,654.064L149.72,654.135L149.633,654.206L149.547,654.279L149.462,654.352L149.378,654.426L149.295,654.5L149.214,654.576L149.133,654.652L149.054,654.729L148.976,654.807L148.899,654.885L148.822,654.965L148.748,655.045L148.673,655.126L148.6,655.208L148.528,655.29L148.457,655.374L148.387,655.458L148.318,655.543L148.25,655.629L148.182,655.716L148.116,655.803L148.051,655.892L147.986,655.981L147.922,656.071L147.86,656.162L147.798,656.253L147.737,656.346L147.677,656.439L147.618,656.533L147.56,656.628L147.502,656.724L147.446,656.821L147.39,656.918L147.335,657.016L147.281,657.115L147.228,657.215L147.175,657.316L147.123,657.418L147.073,657.52L147.023,657.623L146.973,657.727L146.925,657.832L146.877,657.938L146.83,658.044L146.784,658.152L146.739,658.26L146.694,658.368L146.651,658.478L146.608,658.589L146.565,658.7L146.524,658.812L146.483,658.925L146.443,659.038L146.404,659.153L146.365,659.268L146.327,659.384L146.29,659.5L146.253,659.617L146.218,659.736L146.183,659.855L146.148,659.974L146.115,660.094L146.098,660.155L146.098,730.727L1137.74,730.727L1137.74,659.988L1137.73,659.854L1137.73,659.7L1137.71,659.548L1137.7,659.398L1137.69,659.25L1137.68,659.104L1137.66,658.96L1137.64,658.818L1137.63,658.678L1137.61,658.54L1137.58,658.404L1137.56,658.27L1137.54,658.137L1137.51,658.007L1137.48,657.878L1137.45,657.752L1137.42,657.627L1137.39,657.504L1137.36,657.383L1137.32,657.263L1137.29,657.146L1137.25,657.03L1137.21,656.916L1137.17,656.803L1137.13,656.693L1137.09,656.584L1137.05,656.476L1137,656.371L1136.96,656.266L1136.91,656.164L1136.86,656.063L1136.81,655.964L1136.76,655.866L1136.71,655.769L1136.66,655.674L1136.6,655.58L1136.55,655.489L1136.49,655.398L1136.43,655.308L1136.37,655.22L1136.31,655.133L1136.25,655.048L1136.19,654.963L1136.12,654.88L1136.06,654.799L1135.99,654.718L1135.93,654.639L1135.86,654.56L1135.79,654.483L1135.71,654.407L1135.64,654.332L1135.57,654.258L1135.49,654.185L1135.42,654.113L1135.34,654.042L1135.26,653.973L1135.18,653.904L1135.1,653.836L1135.02,653.769L1134.93,653.704L1134.85,653.639L1134.76,653.575L1134.67,653.512L1134.58,653.45L1134.49,653.389L1134.4,653.329L1134.3,653.27L1134.21,653.212L1134.11,653.155L1134.01,653.099L1133.91,653.043L1133.81,652.989L1133.71,652.936L1133.6,652.883L1133.5,652.832L1133.39,652.781L1133.28,652.731L1133.17,652.682L1133.06,652.635L1132.95,652.588L1132.83,652.542L1132.72,652.497L1132.6,652.453L1132.48,652.41L1132.36,652.368L1132.24,652.326L1132.12,652.286L1131.99,652.247L1131.87,652.209L1131.74,652.171L1131.61,652.135L1131.48,652.099L1131.35,652.065L1131.22,652.031L1131.09,651.998L1130.95,651.967L1130.81,651.936L1130.68,651.906L1130.54,651.877L1130.4,651.85L1130.25,651.823L1130.11,651.797L1129.97,651.772L1129.82,651.748L1129.67,651.724L1129.53,651.702L1129.38,651.681L1129.22,651.661L1129.07,651.641L1128.92,651.623L1128.76,651.605L1128.61,651.589L1128.45,651.573L1128.29,651.559L1128.13,651.545L1127.97,651.532L1127.81,651.52L1127.65,651.509L1127.49,651.499L1127.32,651.489L1127.15,651.481L1126.99,651.474L1126.82,651.467L1126.65,651.461L1126.48,651.457L1126.31,651.453L1126.13,651.45L1125.96,651.448L158.421,651.448Z" style="fill:rgb(58,59,59);"/>
        </g>
        <g id="buttons" transform="matrix(0.950988,0,0,1,48.5574,0)">
            <g transform="matrix(1.81436,0,0,1,-926.474,0)">
                <path d="M1137.67,685.1C1137.67,677.997 1134.33,672.23 1130.21,672.23L998.185,672.23C994.068,672.23 990.726,677.997 990.726,685.1L990.726,710.839C990.726,717.942 994.068,723.708 998.185,723.708L1130.21,723.708C1134.33,723.708 1137.67,717.942 1137.67,710.839L1137.67,685.1Z" style="fill:rgb(43,47,48);stroke-width:2.13px;stroke:rgb(34,36,32);"/>
            </g>
            <g transform="matrix(0.991738,0,0,1,9.33668,0)">
                <path d="M1130.03,685.726C1130.03,682.38 1127.15,679.665 1123.6,679.665L1070.62,679.665C1067.08,679.665 1064.2,682.38 1064.2,685.726L1064.2,711.978C1064.2,715.324 1067.08,718.039 1070.62,718.039L1123.6,718.039C1127.15,718.039 1130.03,715.324 1130.03,711.978L1130.03,685.726Z" style="fill:rgb(43,47,48);stroke-width:2.57px;stroke:rgb(34,36,32);"/>
            </g>
            <g transform="matrix(0.983475,0,0,1,-49.2524,0)">
                <path d="M1130.03,685.726C1130.03,682.38 1127.13,679.665 1123.55,679.665L1070.68,679.665C1067.1,679.665 1064.2,682.38 1064.2,685.726L1064.2,711.978C1064.2,715.324 1067.1,718.039 1070.68,718.039L1123.55,718.039C1127.13,718.039 1130.03,715.324 1130.03,711.978L1130.03,685.726Z" style="fill:rgb(43,47,48);stroke-width:2.07px;stroke:rgb(34,36,32);"/>
            </g>
        </g>
        <g id="Beschriftung" transform="matrix(1,0,0,1,0,185.87)">
            <g id="wifi">
                <path d="M1019.57,502.796C1013.58,508.899 1014.62,514.14 1019.57,518.901" style="fill:none;stroke-width:1.5px;stroke:rgb(157,157,155);"/>
                <path d="M1037.02,502.796C1041.43,508.555 1041.3,513.911 1037.02,518.901" style="fill:none;stroke-width:1.5px;stroke:rgb(157,157,155);"/>
                <ellipse cx="1027.76" cy="510.538" rx="1.654" ry="1.591" style="fill:rgb(157,157,155);stroke-width:1.5px;stroke:rgb(157,157,155);"/>
                <path d="M1023.6,506.896C1020.11,509.701 1020.33,512.351 1023.6,514.873" style="fill:none;stroke-width:1.5px;stroke:rgb(157,157,155);"/>
                <path d="M1032.74,506.896C1035.78,509.521 1035.6,512.182 1032.74,514.873" style="fill:none;stroke-width:1.5px;stroke:rgb(157,157,155);"/>
            </g>
            <g id="wifi secure" transform="matrix(1,0,0,1,63.4607,0)">
                <path d="M1019.57,502.796C1013.58,508.899 1014.62,514.14 1019.57,518.901" style="fill:none;stroke-width:1.5px;stroke:rgb(157,157,155);"/>
                <path d="M1037.02,502.796C1041.43,508.555 1041.3,513.911 1037.02,518.901" style="fill:none;stroke-width:1.5px;stroke:rgb(157,157,155);"/>
                <g transform="matrix(1,0,0,1,-1.75232,0)">
                    <path d="M1023.6,506.896C1020.11,509.701 1020.33,512.351 1023.6,514.873" style="fill:none;stroke-width:1.5px;stroke:rgb(157,157,155);"/>
                </g>
                <g transform="matrix(1,0,0,1,-68.9918,0)">
                    <rect x="1091.52" y="518.16" width="11.528" height="5.96" style="fill:rgb(157,157,155);stroke-width:1.5px;stroke:rgb(157,157,155);"/>
                </g>
                <g transform="matrix(1,0,0,1,-68.9918,0)">
                    <path d="M1093.85,518.137L1093.85,513.588C1093.85,510.4 1100.61,510.34 1100.61,513.588L1100.61,518.137L1093.85,518.137Z" style="fill:none;stroke-width:1.5px;stroke:rgb(157,157,155);"/>
                </g>
                <g transform="matrix(1,0,0,1,1.78727,0)">
                    <path d="M1032.74,506.896C1035.78,509.521 1035.6,512.182 1032.74,514.873" style="fill:none;stroke-width:1.5px;stroke:rgb(157,157,155);"/>
                </g>
            </g>
            <g id="usb" transform="matrix(1,0,0,1,329.663,0)">
                <ellipse cx="571.006" cy="512.691" rx="2.363" ry="2.68" style="fill:rgb(157,157,155);stroke-width:1.5px;stroke:rgb(157,157,155);"/>
                <path d="M571.367,512.64L591.021,512.64L589.102,510.702L589.102,514.443L591.021,512.64L576.604,512.64C577.242,508.629 580.24,506.696 585.494,506.755L587.709,506.755L585.494,504.967L585.494,508.697L585.494,506.755C580.558,506.702 577.332,508.395 576.604,512.64C578.665,517.021 582.148,519.272 587.709,518.411L587.709,516.448L589.102,518.411L587.709,520.46L587.709,518.411" style="fill:none;stroke-width:1.5px;stroke:rgb(157,157,155);"/>
                <path d="M587.709,506.844L585.494,508.697" style="fill:none;stroke-width:1.5px;stroke:rgb(157,157,155);"/>
            </g>
            <g transform="matrix(1,0,0,1,63.2202,0)">
                <g transform="matrix(1,0,0,1,2.23067,-1.08274)">
                    <path d="M430.898,509.026C430.898,508.754 430.855,508.555 430.769,508.43C430.683,508.305 430.551,508.242 430.372,508.242C430.178,508.242 430.042,508.299 429.963,508.414C429.885,508.529 429.845,508.733 429.845,509.026L429.845,511.916L426.719,511.916L426.719,510.09C426.719,508.6 427.004,507.546 427.573,506.926C428.143,506.307 429.09,505.997 430.415,505.997C431.653,505.997 432.579,506.3 433.191,506.905C433.804,507.51 434.11,508.425 434.11,509.649C434.11,511.082 433.351,512.954 431.832,515.267C431.539,515.726 431.317,516.073 431.166,516.309C430.629,517.155 430.264,517.819 430.071,518.302C429.877,518.786 429.781,519.228 429.781,519.629C429.781,519.665 429.784,519.711 429.791,519.768C429.799,519.826 429.802,519.869 429.802,519.897L434.131,519.897L434.131,522.185L426.698,522.185L426.698,519.564C426.698,518.92 426.812,518.279 427.041,517.641C427.271,517.004 427.736,516.141 428.438,515.053C428.596,514.809 428.821,514.465 429.115,514.021C430.304,512.21 430.898,510.956 430.898,510.262L430.898,509.026Z" style="fill:rgb(58,59,59);fill-rule:nonzero;"/>
                    <rect x="435.248" y="518.952" width="2.911" height="3.233" style="fill:rgb(58,59,59);fill-rule:nonzero;"/>
                    <path d="M442.951,522.185L442.951,518.265L438.793,518.265L438.793,516.009L441.812,506.341L446.098,506.341L446.098,516.009L447.065,516.009L447.065,518.265L446.098,518.265L446.098,522.185L442.951,522.185ZM441.21,516.009L443.058,516.009L443.08,511.25C443.08,511.042 443.097,510.67 443.133,510.133C443.169,509.596 443.219,508.994 443.284,508.328L443.08,508.328C442.929,509.187 442.704,510.238 442.403,511.481C442.102,512.723 441.705,514.233 441.21,516.009Z" style="fill:rgb(58,59,59);fill-rule:nonzero;"/>
                </g>
                <g transform="matrix(1.29,0,0,1,-94.7683,-1.08274)">
                    <path d="M426.524,514.488C426.524,513.545 426.705,512.875 427.067,512.478C427.43,512.082 428.032,511.884 428.875,511.884C429.664,511.884 430.253,512.067 430.643,512.434C431.032,512.801 431.227,513.353 431.227,514.092L431.227,515.602L429.224,515.602L429.224,513.811C429.224,513.634 429.198,513.508 429.145,513.435C429.093,513.363 429.003,513.326 428.875,513.326C428.757,513.326 428.672,513.365 428.619,513.442C428.567,513.52 428.54,513.643 428.54,513.811L428.54,520.394C428.54,520.572 428.567,520.699 428.619,520.774C428.672,520.849 428.757,520.887 428.875,520.887C429.003,520.887 429.093,520.848 429.145,520.77C429.198,520.693 429.224,520.568 429.224,520.394L429.224,518.617L428.718,518.617L428.718,517.058L431.227,517.058L431.227,522.185L430.236,522.185L430.106,521.557C429.873,521.853 429.616,522.074 429.333,522.22C429.051,522.365 428.739,522.438 428.397,522.438C427.773,522.438 427.304,522.22 426.992,521.782C426.68,521.345 426.524,520.686 426.524,519.807L426.524,514.488Z" style="fill:rgb(58,59,59);fill-rule:nonzero;"/>
                    <path d="M431.801,522.185L431.801,512.102L433.804,512.102L433.804,515.842L434.433,515.842L434.433,512.102L436.45,512.102L436.45,522.185L434.433,522.185L434.433,517.311L433.804,517.311L433.804,522.185L431.801,522.185Z" style="fill:rgb(58,59,59);fill-rule:nonzero;"/>
                    <path d="M436.88,522.185L436.88,520.784L438.35,515.452L436.928,515.452L436.928,514.119L440.271,514.119L440.271,515.281L438.733,520.825L440.271,520.825L440.271,522.185L436.88,522.185Z" style="fill:rgb(58,59,59);fill-rule:nonzero;"/>
                </g>
                <g transform="matrix(1.29,0,0,1,-36.9432,-1.08274)">
                    <path d="M426.524,514.488C426.524,513.545 426.705,512.875 427.067,512.478C427.43,512.082 428.032,511.884 428.875,511.884C429.664,511.884 430.253,512.067 430.643,512.434C431.032,512.801 431.227,513.353 431.227,514.092L431.227,515.602L429.224,515.602L429.224,513.811C429.224,513.634 429.198,513.508 429.145,513.435C429.093,513.363 429.003,513.326 428.875,513.326C428.757,513.326 428.672,513.365 428.619,513.442C428.567,513.52 428.54,513.643 428.54,513.811L428.54,520.394C428.54,520.572 428.567,520.699 428.619,520.774C428.672,520.849 428.757,520.887 428.875,520.887C429.003,520.887 429.093,520.848 429.145,520.77C429.198,520.693 429.224,520.568 429.224,520.394L429.224,518.617L428.718,518.617L428.718,517.058L431.227,517.058L431.227,522.185L430.236,522.185L430.106,521.557C429.873,521.853 429.616,522.074 429.333,522.22C429.051,522.365 428.739,522.438 428.397,522.438C427.773,522.438 427.304,522.22 426.992,521.782C426.68,521.345 426.524,520.686 426.524,519.807L426.524,514.488Z" style="fill:rgb(58,59,59);fill-rule:nonzero;"/>
                    <path d="M431.801,522.185L431.801,512.102L433.804,512.102L433.804,515.842L434.433,515.842L434.433,512.102L436.45,512.102L436.45,522.185L434.433,522.185L434.433,517.311L433.804,517.311L433.804,522.185L431.801,522.185Z" style="fill:rgb(58,59,59);fill-rule:nonzero;"/>
                    <path d="M436.88,522.185L436.88,520.784L438.35,515.452L436.928,515.452L436.928,514.119L440.271,514.119L440.271,515.281L438.733,520.825L440.271,520.825L440.271,522.185L436.88,522.185Z" style="fill:rgb(58,59,59);fill-rule:nonzero;"/>
                </g>
                <g transform="matrix(1,0,0,1,74.0184,-1.08274)">
                    <path d="M434.11,513.785L434.11,519.307C434.11,520.345 433.791,521.143 433.154,521.702C432.516,522.261 431.603,522.54 430.415,522.54C429.104,522.54 428.164,522.23 427.595,521.611C427.025,520.991 426.741,519.944 426.741,518.469L426.741,516.009L429.888,516.009L429.888,519.371C429.888,519.643 429.931,519.84 430.017,519.962C430.103,520.084 430.243,520.144 430.436,520.144C430.622,520.144 430.756,520.085 430.839,519.967C430.921,519.849 430.962,519.65 430.962,519.371L430.962,514.376C430.962,514.125 430.919,513.941 430.833,513.823C430.748,513.704 430.615,513.645 430.436,513.645C430.25,513.645 430.112,513.701 430.022,513.812C429.933,513.923 429.888,514.089 429.888,514.311L426.741,514.311L426.741,506.341L434.045,506.341L434.045,508.5L429.738,508.5L429.738,511.733C430.031,511.461 430.334,511.266 430.645,511.148C430.957,511.03 431.328,510.971 431.757,510.971C432.524,510.971 433.107,511.209 433.508,511.685C433.909,512.161 434.11,512.861 434.11,513.785Z" style="fill:rgb(58,59,59);fill-rule:nonzero;"/>
                </g>
            </g>
            <g transform="matrix(1,0,0,1,216.483,-1.08274)">
                <path d="M429.115,522.185L429.115,510.068L427.374,510.068L427.374,508.145L427.45,508.145C428.058,508.145 428.569,507.986 428.98,507.667C429.392,507.349 429.659,506.906 429.781,506.341L432.262,506.341L432.262,522.185L429.115,522.185Z" style="fill:rgb(58,59,59);fill-rule:nonzero;"/>
            </g>
            <g transform="matrix(1,0,0,1,282.705,-1.08274)">
                <path d="M430.898,509.026C430.898,508.754 430.855,508.555 430.769,508.43C430.683,508.305 430.551,508.242 430.372,508.242C430.178,508.242 430.042,508.299 429.963,508.414C429.885,508.529 429.845,508.733 429.845,509.026L429.845,511.916L426.719,511.916L426.719,510.09C426.719,508.6 427.004,507.546 427.573,506.926C428.143,506.307 429.09,505.997 430.415,505.997C431.653,505.997 432.579,506.3 433.191,506.905C433.804,507.51 434.11,508.425 434.11,509.649C434.11,511.082 433.351,512.954 431.832,515.267C431.539,515.726 431.317,516.073 431.166,516.309C430.629,517.155 430.264,517.819 430.071,518.302C429.877,518.786 429.781,519.228 429.781,519.629C429.781,519.665 429.784,519.711 429.791,519.768C429.799,519.826 429.802,519.869 429.802,519.897L434.131,519.897L434.131,522.185L426.698,522.185L426.698,519.564C426.698,518.92 426.812,518.279 427.041,517.641C427.271,517.004 427.736,516.141 428.438,515.053C428.596,514.809 428.821,514.465 429.115,514.021C430.304,512.21 430.898,510.956 430.898,510.262L430.898,509.026Z" style="fill:rgb(58,59,59);fill-rule:nonzero;"/>
            </g>
            <g transform="matrix(1,0,0,1,349.07,-1.08274)">
                <path d="M426.741,515.955L429.888,515.955L429.888,519.371C429.888,519.643 429.931,519.84 430.017,519.962C430.103,520.084 430.243,520.144 430.436,520.144C430.622,520.144 430.756,520.085 430.839,519.967C430.921,519.849 430.962,519.65 430.962,519.371L430.962,516.395C430.962,516.037 430.867,515.74 430.678,515.504C430.488,515.267 430.253,515.149 429.974,515.149L428.878,515.149L428.878,512.861L429.974,512.861C430.289,512.861 430.533,512.75 430.705,512.528C430.876,512.306 430.962,511.998 430.962,511.604L430.962,509.026C430.962,508.761 430.921,508.568 430.839,508.446C430.756,508.324 430.622,508.264 430.436,508.264C430.243,508.264 430.103,508.321 430.017,508.435C429.931,508.55 429.888,508.747 429.888,509.026L429.888,511.959L426.741,511.959L426.741,510.09C426.741,508.593 427.024,507.537 427.589,506.921C428.155,506.305 429.097,505.997 430.415,505.997C431.632,505.997 432.552,506.273 433.175,506.824C433.798,507.376 434.11,508.192 434.11,509.273L434.11,511.1C434.11,511.866 433.916,512.483 433.53,512.953C433.143,513.422 432.552,513.756 431.757,513.957C432.559,514.057 433.152,514.317 433.535,514.736C433.918,515.155 434.11,515.754 434.11,516.535L434.11,519.307C434.11,520.345 433.791,521.143 433.154,521.702C432.516,522.261 431.603,522.54 430.415,522.54C429.104,522.54 428.164,522.228 427.595,521.605C427.025,520.982 426.741,519.93 426.741,518.447L426.741,515.955Z" style="fill:rgb(58,59,59);fill-rule:nonzero;"/>
            </g>
            <g transform="matrix(1,0,0,1,413.186,-1.08274)">
                <path d="M430.415,522.185L430.415,518.265L426.257,518.265L426.257,516.009L429.276,506.341L433.562,506.341L433.562,516.009L434.529,516.009L434.529,518.265L433.562,518.265L433.562,522.185L430.415,522.185ZM428.674,516.009L430.522,516.009L430.543,511.25C430.543,511.042 430.561,510.67 430.597,510.133C430.633,509.596 430.683,508.994 430.748,508.328L430.543,508.328C430.393,509.187 430.167,510.238 429.867,511.481C429.566,512.723 429.168,514.233 428.674,516.009Z" style="fill:rgb(58,59,59);fill-rule:nonzero;"/>
            </g>
            <g id="online" transform="matrix(1,0,0,1,-200.289,0)">
                <ellipse cx="649.019" cy="512.278" rx="9.557" ry="9.754" style="fill:rgb(144,153,166);stroke-width:1.5px;stroke:rgb(58,59,59);"/>
                <path d="M639.222,510.138C634.846,512.997 634.214,515.404 635.255,516.842C638.233,521.082 645.716,519.778 652.917,511.973" style="fill:none;stroke-width:1.5px;stroke:rgb(58,59,59);"/>
            </g>
            <g id="power">
                <g transform="matrix(1,0,0,1,-0.146402,0)">
                    <ellipse cx="383.593" cy="513.473" rx="8.626" ry="8.604" style="fill:rgb(144,153,166);stroke-width:1.5px;stroke:rgb(58,59,59);"/>
                </g>
                <g transform="matrix(1,0,0,1,-0.609278,-0.501888)">
                    <path d="M385.973,503.47C385.973,502.918 385.526,502.471 384.974,502.471L382.977,502.471C382.425,502.471 381.978,502.918 381.978,503.47L381.978,514.245C381.978,514.796 382.425,515.244 382.977,515.244L384.974,515.244C385.526,515.244 385.973,514.796 385.973,514.245L385.973,503.47Z" style="fill:rgb(58,59,59);stroke-width:1.5px;stroke:rgb(144,153,166);"/>
                </g>
            </g>
        </g>
        <g id="led">
            <g transform="matrix(1,0,0,1,-0.560745,0.666739)">
                <path d="M386.864,739.79C386.864,739.616 386.723,739.476 386.55,739.476L380.197,739.476C380.024,739.476 379.883,739.616 379.883,739.79L379.883,750.145C379.883,750.318 380.024,750.459 380.197,750.459L386.55,750.459C386.723,750.459 386.864,750.318 386.864,750.145L386.864,739.79Z" style="fill:rgb(160,182,56);stroke-width:1.5px;stroke:rgb(61,98,55);"/>
            </g>
            <g transform="matrix(1,0,0,1,65.0003,0.666739)">
                <path d="M386.864,739.79C386.864,739.616 386.723,739.476 386.55,739.476L380.197,739.476C380.024,739.476 379.883,739.616 379.883,739.79L379.883,750.145C379.883,750.318 380.024,750.459 380.197,750.459L386.55,750.459C386.723,750.459 386.864,750.318 386.864,750.145L386.864,739.79Z" style="fill:rgb(160,182,56);stroke-width:1.5px;stroke:rgb(61,98,55);"/>
            </g>
            <g transform="matrix(1,0,0,1,197.366,0.666739)">
                <path d="M386.864,739.79C386.864,739.616 386.723,739.476 386.55,739.476L380.197,739.476C380.024,739.476 379.883,739.616 379.883,739.79L379.883,750.145C379.883,750.318 380.024,750.459 380.197,750.459L386.55,750.459C386.723,750.459 386.864,750.318 386.864,750.145L386.864,739.79Z" style="fill:rgb(147,181,218);stroke-width:1.5px;stroke:rgb(71,85,126);"/>
            </g>
            <g transform="matrix(1,0,0,1,130.843,0.666739)">
                <path d="M386.864,739.79C386.864,739.616 386.723,739.476 386.55,739.476L380.197,739.476C380.024,739.476 379.883,739.616 379.883,739.79L379.883,750.145C379.883,750.318 380.024,750.459 380.197,750.459L386.55,750.459C386.723,750.459 386.864,750.318 386.864,750.145L386.864,739.79Z" style="fill:rgb(160,182,56);stroke-width:1.5px;stroke:rgb(61,98,55);"/>
            </g>
            <g transform="matrix(1,0,0,1,263.368,0.666739)">
                <path d="M386.864,739.79C386.864,739.616 386.723,739.476 386.55,739.476L380.197,739.476C380.024,739.476 379.883,739.616 379.883,739.79L379.883,750.145C379.883,750.318 380.024,750.459 380.197,750.459L386.55,750.459C386.723,750.459 386.864,750.318 386.864,750.145L386.864,739.79Z" style="fill:rgb(160,182,56);stroke-width:1.5px;stroke:rgb(61,98,55);"/>
            </g>
            <g transform="matrix(1,0,0,1,329.506,0.666739)">
                <path d="M386.864,739.79C386.864,739.616 386.723,739.476 386.55,739.476L380.197,739.476C380.024,739.476 379.883,739.616 379.883,739.79L379.883,750.145C379.883,750.318 380.024,750.459 380.197,750.459L386.55,750.459C386.723,750.459 386.864,750.318 386.864,750.145L386.864,739.79Z" style="fill:rgb(160,182,56);stroke-width:1.5px;stroke:rgb(61,98,55);"/>
            </g>
            <g transform="matrix(1,0,0,1,396.025,0.666739)">
                <path d="M386.864,739.79C386.864,739.616 386.723,739.476 386.55,739.476L380.197,739.476C380.024,739.476 379.883,739.616 379.883,739.79L379.883,750.145C379.883,750.318 380.024,750.459 380.197,750.459L386.55,750.459C386.723,750.459 386.864,750.318 386.864,750.145L386.864,739.79Z" style="fill:rgb(160,182,56);stroke-width:1.5px;stroke:rgb(61,98,55);"/>
            </g>
            <g transform="matrix(1,0,0,1,462.488,0.666739)">
                <path d="M386.864,739.79C386.864,739.616 386.723,739.476 386.55,739.476L380.197,739.476C380.024,739.476 379.883,739.616 379.883,739.79L379.883,750.145C379.883,750.318 380.024,750.459 380.197,750.459L386.55,750.459C386.723,750.459 386.864,750.318 386.864,750.145L386.864,739.79Z" style="fill:rgb(160,182,56);stroke-width:1.5px;stroke:rgb(61,98,55);"/>
            </g>
            <g transform="matrix(1,0,0,1,528.296,0.666739)">
                <path d="M386.864,739.79C386.864,739.616 386.723,739.476 386.55,739.476L380.197,739.476C380.024,739.476 379.883,739.616 379.883,739.79L379.883,750.145C379.883,750.318 380.024,750.459 380.197,750.459L386.55,750.459C386.723,750.459 386.864,750.318 386.864,750.145L386.864,739.79Z" style="fill:rgb(160,182,56);stroke-width:1.5px;stroke:rgb(61,98,55);"/>
            </g>
            <g transform="matrix(1,0,0,1,644.677,0.666739)">
                <path d="M386.864,739.79C386.864,739.616 386.723,739.476 386.55,739.476L380.197,739.476C380.024,739.476 379.883,739.616 379.883,739.79L379.883,750.145C379.883,750.318 380.024,750.459 380.197,750.459L386.55,750.459C386.723,750.459 386.864,750.318 386.864,750.145L386.864,739.79Z" style="fill:rgb(160,182,56);stroke-width:1.5px;stroke:rgb(61,98,55);"/>
            </g>
            <g transform="matrix(1,0,0,1,708.955,0.666739)">
                <path d="M386.864,739.79C386.864,739.616 386.723,739.476 386.55,739.476L380.197,739.476C380.024,739.476 379.883,739.616 379.883,739.79L379.883,750.145C379.883,750.318 380.024,750.459 380.197,750.459L386.55,750.459C386.723,750.459 386.864,750.318 386.864,750.145L386.864,739.79Z" style="fill:rgb(160,182,56);stroke-width:1.5px;stroke:rgb(61,98,55);"/>
            </g>
        </g>
    </g>
</svg>
