<?xml version="1.0" standalone="no"?>
<!DOCTYPE svg PUBLIC "-//W3C//DTD SVG 1.1//EN" "http://www.w3.org/Graphics/SVG/1.1/DTD/svg11.dtd">
<svg width="100%" height="100%" viewBox="0 0 1280 1150" version="1.1" xmlns="http://www.w3.org/2000/svg" xmlns:xlink="http://www.w3.org/1999/xlink" xml:space="preserve" style="fill-rule:evenodd;clip-rule:evenodd;stroke-linecap:round;stroke-linejoin:round;stroke-miterlimit:1.41421;">
    <g id="Antennen-Kupplungen">
        <g id="AntennenKupplung" transform="matrix(1,0,0,1,552.641,184.789)">
            <path d="M387.104,81.357L433.756,81.357L433.756,79.836C418.338,78.544 402.796,78.461 387.104,79.836L387.104,81.357Z" style="fill:rgb(239,216,0);stroke-width:1px;stroke:rgb(102,102,102);"/>
            <path d="M384.075,79.836L384.075,78.072C401.592,76.202 419.016,76.216 436.349,78.072L436.349,79.836C419.111,78.348 401.685,78.36 384.075,79.836Z" style="fill:rgb(239,216,0);stroke-width:1px;stroke:rgb(102,102,102);"/>
            <path d="M384.075,66.701C385.234,63.292 434.54,63.533 436.349,66.701L436.349,78.262C419.36,76.252 401.975,76.118 384.075,78.262L384.075,66.701Z" style="fill:rgb(239,216,0);stroke-width:1px;stroke:rgb(102,102,102);"/>
            <rect x="397.031" y="32.811" width="26.445" height="31.95" style="fill:rgb(239,216,0);stroke-width:1px;stroke:rgb(102,102,102);"/>
            <path d="M394.695,39.926C404.237,38.019 414.503,38.05 424.95,38.56" style="fill:none;stroke-width:1.5px;stroke:rgb(102,102,102);"/>
            <g transform="matrix(1,0,0,1,0.198416,3.64566)">
                <path d="M394.695,39.926C404.237,38.019 414.503,38.05 424.95,38.56" style="fill:none;stroke-width:1.5px;stroke:rgb(102,102,102);"/>
            </g>
            <g transform="matrix(1,0,0,1,0.248774,7.23705)">
                <path d="M394.695,39.926C404.237,38.019 414.503,38.05 424.95,38.56" style="fill:none;stroke-width:1.5px;stroke:rgb(102,102,102);"/>
            </g>
            <g transform="matrix(1,0,0,1,0.329286,10.9837)">
                <path d="M394.695,39.926C404.237,38.019 414.503,38.05 424.95,38.56" style="fill:none;stroke-width:1.5px;stroke:rgb(102,102,102);"/>
            </g>
            <g transform="matrix(1,0,0,1,0.168261,14.5769)">
                <path d="M394.695,39.926C404.237,38.019 414.503,38.05 424.95,38.56" style="fill:none;stroke-width:1.5px;stroke:rgb(102,102,102);"/>
            </g>
            <g transform="matrix(1,0,0,1,0.165246,18.3902)">
                <path d="M394.695,39.926C404.237,38.019 414.503,38.05 424.95,38.56" style="fill:none;stroke-width:1.5px;stroke:rgb(102,102,102);"/>
            </g>
            <g transform="matrix(1,0,0,1,0.0847338,21.8324)">
                <path d="M394.695,39.926C404.237,38.019 414.503,38.05 424.95,38.56" style="fill:none;stroke-width:1.5px;stroke:rgb(102,102,102);"/>
            </g>
        </g>
        <g id="AntennenKupplung1" transform="matrix(1,0,0,1,345.712,183.653)">
            <path d="M387.104,81.357L433.756,81.357L433.756,79.836C418.338,78.544 402.796,78.461 387.104,79.836L387.104,81.357Z" style="fill:rgb(239,216,0);stroke-width:1px;stroke:rgb(102,102,102);"/>
            <path d="M384.075,79.836L384.075,78.072C401.592,76.202 419.016,76.216 436.349,78.072L436.349,79.836C419.111,78.348 401.685,78.36 384.075,79.836Z" style="fill:rgb(239,216,0);stroke-width:1px;stroke:rgb(102,102,102);"/>
            <path d="M384.075,66.701C385.234,63.292 434.54,63.533 436.349,66.701L436.349,78.262C419.36,76.252 401.975,76.118 384.075,78.262L384.075,66.701Z" style="fill:rgb(239,216,0);stroke-width:1px;stroke:rgb(102,102,102);"/>
            <rect x="397.031" y="32.811" width="26.445" height="31.95" style="fill:rgb(239,216,0);stroke-width:1px;stroke:rgb(102,102,102);"/>
            <path d="M394.695,39.926C404.237,38.019 414.503,38.05 424.95,38.56" style="fill:none;stroke-width:1.5px;stroke:rgb(102,102,102);"/>
            <g transform="matrix(1,0,0,1,0.198416,3.64566)">
                <path d="M394.695,39.926C404.237,38.019 414.503,38.05 424.95,38.56" style="fill:none;stroke-width:1.5px;stroke:rgb(102,102,102);"/>
            </g>
            <g transform="matrix(1,0,0,1,0.248774,7.23705)">
                <path d="M394.695,39.926C404.237,38.019 414.503,38.05 424.95,38.56" style="fill:none;stroke-width:1.5px;stroke:rgb(102,102,102);"/>
            </g>
            <g transform="matrix(1,0,0,1,0.329286,10.9837)">
                <path d="M394.695,39.926C404.237,38.019 414.503,38.05 424.95,38.56" style="fill:none;stroke-width:1.5px;stroke:rgb(102,102,102);"/>
            </g>
            <g transform="matrix(1,0,0,1,0.168261,14.5769)">
                <path d="M394.695,39.926C404.237,38.019 414.503,38.05 424.95,38.56" style="fill:none;stroke-width:1.5px;stroke:rgb(102,102,102);"/>
            </g>
            <g transform="matrix(1,0,0,1,0.165246,18.3902)">
                <path d="M394.695,39.926C404.237,38.019 414.503,38.05 424.95,38.56" style="fill:none;stroke-width:1.5px;stroke:rgb(102,102,102);"/>
            </g>
            <g transform="matrix(1,0,0,1,0.0847338,21.8324)">
                <path d="M394.695,39.926C404.237,38.019 414.503,38.05 424.95,38.56" style="fill:none;stroke-width:1.5px;stroke:rgb(102,102,102);"/>
            </g>
        </g>
        <g id="AntennenKupplung2" transform="matrix(1,0,0,1,210.033,0.417699)">
            <path d="M387.104,81.357L433.756,81.357L433.756,79.836C418.338,78.544 402.796,78.461 387.104,79.836L387.104,81.357Z" style="fill:rgb(239,216,0);stroke-width:1px;stroke:rgb(102,102,102);"/>
            <path d="M384.075,79.836L384.075,78.072C401.592,76.202 419.016,76.216 436.349,78.072L436.349,79.836C419.111,78.348 401.685,78.36 384.075,79.836Z" style="fill:rgb(239,216,0);stroke-width:1px;stroke:rgb(102,102,102);"/>
            <path d="M384.075,66.701C385.234,63.292 434.54,63.533 436.349,66.701L436.349,78.262C419.36,76.252 401.975,76.118 384.075,78.262L384.075,66.701Z" style="fill:rgb(239,216,0);stroke-width:1px;stroke:rgb(102,102,102);"/>
            <rect x="397.031" y="32.811" width="26.445" height="31.95" style="fill:rgb(239,216,0);stroke-width:1px;stroke:rgb(102,102,102);"/>
            <path d="M394.695,39.926C404.237,38.019 414.503,38.05 424.95,38.56" style="fill:none;stroke-width:1.5px;stroke:rgb(102,102,102);"/>
            <g transform="matrix(1,0,0,1,0.198416,3.64566)">
                <path d="M394.695,39.926C404.237,38.019 414.503,38.05 424.95,38.56" style="fill:none;stroke-width:1.5px;stroke:rgb(102,102,102);"/>
            </g>
            <g transform="matrix(1,0,0,1,0.248774,7.23705)">
                <path d="M394.695,39.926C404.237,38.019 414.503,38.05 424.95,38.56" style="fill:none;stroke-width:1.5px;stroke:rgb(102,102,102);"/>
            </g>
            <g transform="matrix(1,0,0,1,0.329286,10.9837)">
                <path d="M394.695,39.926C404.237,38.019 414.503,38.05 424.95,38.56" style="fill:none;stroke-width:1.5px;stroke:rgb(102,102,102);"/>
            </g>
            <g transform="matrix(1,0,0,1,0.168261,14.5769)">
                <path d="M394.695,39.926C404.237,38.019 414.503,38.05 424.95,38.56" style="fill:none;stroke-width:1.5px;stroke:rgb(102,102,102);"/>
            </g>
            <g transform="matrix(1,0,0,1,0.165246,18.3902)">
                <path d="M394.695,39.926C404.237,38.019 414.503,38.05 424.95,38.56" style="fill:none;stroke-width:1.5px;stroke:rgb(102,102,102);"/>
            </g>
            <g transform="matrix(1,0,0,1,0.0847338,21.8324)">
                <path d="M394.695,39.926C404.237,38.019 414.503,38.05 424.95,38.56" style="fill:none;stroke-width:1.5px;stroke:rgb(102,102,102);"/>
            </g>
        </g>
        <g id="AntennenKupplung3" transform="matrix(1,0,0,1,-0.453799,0.0570709)">
            <path d="M387.104,81.357L433.756,81.357L433.756,79.836C418.338,78.544 402.796,78.461 387.104,79.836L387.104,81.357Z" style="fill:rgb(239,216,0);stroke-width:1px;stroke:rgb(102,102,102);"/>
            <path d="M384.075,79.836L384.075,78.072C401.592,76.202 419.016,76.216 436.349,78.072L436.349,79.836C419.111,78.348 401.685,78.36 384.075,79.836Z" style="fill:rgb(239,216,0);stroke-width:1px;stroke:rgb(102,102,102);"/>
            <path d="M384.075,66.701C385.234,63.292 434.54,63.533 436.349,66.701L436.349,78.262C419.36,76.252 401.975,76.118 384.075,78.262L384.075,66.701Z" style="fill:rgb(239,216,0);stroke-width:1px;stroke:rgb(102,102,102);"/>
            <rect x="397.031" y="32.811" width="26.445" height="31.95" style="fill:rgb(239,216,0);stroke-width:1px;stroke:rgb(102,102,102);"/>
            <path d="M394.695,39.926C404.237,38.019 414.503,38.05 424.95,38.56" style="fill:none;stroke-width:1.5px;stroke:rgb(102,102,102);"/>
            <g transform="matrix(1,0,0,1,0.198416,3.64566)">
                <path d="M394.695,39.926C404.237,38.019 414.503,38.05 424.95,38.56" style="fill:none;stroke-width:1.5px;stroke:rgb(102,102,102);"/>
            </g>
            <g transform="matrix(1,0,0,1,0.248774,7.23705)">
                <path d="M394.695,39.926C404.237,38.019 414.503,38.05 424.95,38.56" style="fill:none;stroke-width:1.5px;stroke:rgb(102,102,102);"/>
            </g>
            <g transform="matrix(1,0,0,1,0.329286,10.9837)">
                <path d="M394.695,39.926C404.237,38.019 414.503,38.05 424.95,38.56" style="fill:none;stroke-width:1.5px;stroke:rgb(102,102,102);"/>
            </g>
            <g transform="matrix(1,0,0,1,0.168261,14.5769)">
                <path d="M394.695,39.926C404.237,38.019 414.503,38.05 424.95,38.56" style="fill:none;stroke-width:1.5px;stroke:rgb(102,102,102);"/>
            </g>
            <g transform="matrix(1,0,0,1,0.165246,18.3902)">
                <path d="M394.695,39.926C404.237,38.019 414.503,38.05 424.95,38.56" style="fill:none;stroke-width:1.5px;stroke:rgb(102,102,102);"/>
            </g>
            <g transform="matrix(1,0,0,1,0.0847338,21.8324)">
                <path d="M394.695,39.926C404.237,38.019 414.503,38.05 424.95,38.56" style="fill:none;stroke-width:1.5px;stroke:rgb(102,102,102);"/>
            </g>
        </g>
    </g>
    <g id="Rocket - links">
        <g id="Rahmen" transform="matrix(1.11442,0,0,1,-36.7325,0)">
            <path d="M670.006,93.779C670.006,87.093 665.135,81.664 659.134,81.664L331.899,81.664C325.899,81.664 321.028,87.093 321.028,93.779L321.028,890.405C321.028,897.092 325.899,902.521 331.899,902.521L659.134,902.521C665.135,902.521 670.006,897.092 670.006,890.405L670.006,93.779Z" style="fill:rgb(236,236,236);stroke-width:0.94px;stroke-linecap:butt;stroke:rgb(102,102,102);"/>
        </g>
        <g id="Infoanzeige">
            <path id="Rahmen1" d="M542.589,300.499C542.589,295.472 538.508,291.391 533.481,291.391L470.138,291.391C465.112,291.391 461.031,295.472 461.031,300.499L461.031,580.556C461.031,585.583 465.112,589.664 470.138,589.664L533.481,589.664C538.508,589.664 542.589,585.583 542.589,580.556L542.589,300.499Z" style="fill:white;stroke-width:1px;stroke-linecap:butt;stroke:black;"/>
            <g id="led">
                <rect x="506.293" y="314.869" width="18.506" height="10.299" style="fill:rgb(68,68,68);stroke-width:1px;stroke-linecap:butt;stroke:rgb(102,102,102);"/>
                <g transform="matrix(1,0,0,1,-0.362218,25.6239)">
                    <rect x="506.293" y="314.869" width="18.506" height="10.299" style="fill:rgb(68,68,68);stroke-width:1px;stroke-linecap:butt;stroke:rgb(102,102,102);"/>
                </g>
                <g transform="matrix(1,0,0,1,-0.224203,52.4934)">
                    <rect x="506.293" y="314.869" width="18.506" height="10.299" style="fill:rgb(68,68,68);stroke-width:1px;stroke-linecap:butt;stroke:rgb(102,102,102);"/>
                </g>
                <g transform="matrix(1,0,0,1,-0.624727,78.8739)">
                    <rect x="506.293" y="314.869" width="18.506" height="10.299" style="fill:rgb(68,68,68);stroke-width:1px;stroke-linecap:butt;stroke:rgb(102,102,102);"/>
                </g>
                <g transform="matrix(1,0,0,1,-0.674863,105.529)">
                    <rect x="506.293" y="314.869" width="18.506" height="10.299" style="fill:rgb(68,68,68);stroke-width:1px;stroke-linecap:butt;stroke:rgb(102,102,102);"/>
                </g>
                <g transform="matrix(1,0,0,1,-0.0980184,132.222)">
                    <rect x="506.293" y="314.869" width="18.506" height="10.299" style="fill:rgb(68,68,68);stroke-width:1px;stroke-linecap:butt;stroke:rgb(102,102,102);"/>
                </g>
                <g transform="matrix(1,0,0,1,0.452913,157.84)">
                    <rect x="506.293" y="314.869" width="18.506" height="10.299" style="fill:rgb(68,68,68);stroke-width:1px;stroke-linecap:butt;stroke:rgb(102,102,102);"/>
                </g>
                <g transform="matrix(1,0,0,1,-0.0540791,185.288)">
                    <rect x="506.293" y="314.869" width="18.506" height="10.299" style="fill:rgb(68,68,68);stroke-width:1px;stroke-linecap:butt;stroke:rgb(102,102,102);"/>
                </g>
                <g transform="matrix(1,0,0,1,-0.679369,211.18)">
                    <rect x="506.293" y="314.869" width="18.506" height="10.299" style="fill:rgb(68,68,68);stroke-width:1px;stroke-linecap:butt;stroke:rgb(102,102,102);"/>
                </g>
                <g transform="matrix(1,0,0,1,-0.429253,238.038)">
                    <rect x="506.293" y="314.869" width="18.506" height="10.299" style="fill:rgb(68,68,68);stroke-width:1px;stroke-linecap:butt;stroke:rgb(102,102,102);"/>
                </g>
            </g>
            <g id="Beschriftungen">
                <g>
                    <path d="M479.338,468.698L492.136,481.664L488.909,484.746L476.047,471.817L479.338,468.698Z" style="fill:none;stroke-width:1px;stroke-linecap:butt;stroke:black;"/>
                    <path d="M480.871,475.763L484.119,472.806L488.259,477.126L484.119,480.726C482.046,480.157 480.832,478.845 480.871,476.45L480.871,475.763Z" style="fill:black;stroke-width:1px;stroke-linecap:butt;stroke:black;"/>
                    <path d="M478.967,479.553C479.114,481.324 479.742,482.328 481.322,481.816" style="fill:none;stroke-width:1px;stroke-linecap:butt;stroke:black;"/>
                    <path d="M476.207,480.078C476.781,483.084 478.401,484.442 480.561,484.797" style="fill:none;stroke-width:1px;stroke-linecap:butt;stroke:black;"/>
                </g>
                <path d="M476.413,311.704L489.016,311.704L489.016,454.238L487.423,454.238L476.413,311.704Z" style="fill:black;stroke-width:1px;stroke-linecap:butt;stroke:rgb(102,102,102);"/>
                <g id="Powerknopf" transform="matrix(1.70348,0,0,1.70348,-619.827,-494.694)">
                    <ellipse cx="647.409" cy="617.797" rx="3.388" ry="3.046" style="fill:none;stroke-width:0.53px;stroke-linecap:butt;stroke:rgb(115,115,115);"/>
                    <path d="M648.443,613.778C648.443,613.259 648.022,612.838 647.503,612.838C646.984,612.838 646.563,613.259 646.563,613.778L646.563,617.598C646.563,618.117 646.984,618.538 647.503,618.538C648.022,618.538 648.443,618.117 648.443,617.598L648.443,613.778Z" style="fill:rgb(102,102,102);stroke-width:0.29px;stroke:white;"/>
                </g>
                <g id="Ethernet - Beschriftung" transform="matrix(1.97966,0,0,2.11407,-797.855,-736.855)">
                    <path d="M644.221,597.168L642.277,599.1L644.221,601.046" style="fill:none;stroke-width:0.42px;stroke:rgb(102,102,102);"/>
                    <path d="M650.236,597.168L652.262,599.1L650.236,601.07" style="fill:none;stroke-width:0.42px;stroke:rgb(102,102,102);"/>
                    <path d="M645.037,599.408L645.485,599.408" style="fill:none;stroke-width:0.42px;stroke:rgb(102,102,102);"/>
                    <g transform="matrix(1,0,0,1,1.97161,0)">
                        <path d="M645.037,599.408L645.485,599.408" style="fill:none;stroke-width:0.42px;stroke:rgb(102,102,102);"/>
                    </g>
                    <g transform="matrix(1,0,0,1,3.97774,0.010644)">
                        <path d="M645.037,599.408L645.485,599.408" style="fill:none;stroke-width:0.42px;stroke:rgb(102,102,102);"/>
                    </g>
                </g>
                <g id="Ethernet - Beschriftung1" transform="matrix(1.97966,0,0,2.11407,-797.466,-763.365)">
                    <path d="M644.221,597.168L642.277,599.1L644.221,601.046" style="fill:none;stroke-width:0.42px;stroke:rgb(102,102,102);"/>
                    <path d="M650.236,597.168L652.262,599.1L650.236,601.07" style="fill:none;stroke-width:0.42px;stroke:rgb(102,102,102);"/>
                    <path d="M645.037,599.408L645.485,599.408" style="fill:none;stroke-width:0.42px;stroke:rgb(102,102,102);"/>
                    <g transform="matrix(1,0,0,1,1.97161,0)">
                        <path d="M645.037,599.408L645.485,599.408" style="fill:none;stroke-width:0.42px;stroke:rgb(102,102,102);"/>
                    </g>
                    <g transform="matrix(1,0,0,1,3.97774,0.010644)">
                        <path d="M645.037,599.408L645.485,599.408" style="fill:none;stroke-width:0.42px;stroke:rgb(102,102,102);"/>
                    </g>
                </g>
            </g>
        </g>
        <g id="Innenkanten">
            <path d="M321.294,736.136L377.893,739.443L646.49,739.443L710.06,736.136" style="fill:none;stroke-width:1px;stroke-linecap:butt;stroke:black;"/>
            <path d="M654.587,81.78L654.587,902.75" style="fill:none;stroke-width:1px;stroke-linecap:butt;stroke:black;"/>
            <path d="M377.599,81.524L377.599,902.938" style="fill:none;stroke-width:1px;stroke-linecap:butt;stroke:black;"/>
        </g>
    </g>
    <g id="Rocket - rechts">
        <path id="rahmen" d="M1071.65,273.505C1071.65,269.178 1068.14,265.665 1063.81,265.665L654.266,265.665C649.939,265.665 646.426,269.178 646.426,273.505L646.426,1091.19C646.426,1095.52 649.939,1099.03 654.266,1099.03L1063.81,1099.03C1068.14,1099.03 1071.65,1095.52 1071.65,1091.19L1071.65,273.505Z" style="fill:white;stroke-width:1px;stroke-linecap:butt;stroke:rgb(102,102,102);"/>
        <path d="M973.898,736.47C973.898,730.266 968.861,725.229 962.657,725.229L754.345,725.229C748.14,725.229 743.103,730.266 743.103,736.47L743.103,773.303C743.103,779.508 748.14,784.545 754.345,784.545L962.657,784.545C968.861,784.545 973.898,779.508 973.898,773.303L973.898,736.47Z" style="fill:none;stroke-width:1px;stroke-linecap:butt;stroke:rgb(102,102,102);"/>
        <g id="Powerknopf1" transform="matrix(1.70348,0,0,1.70348,-334.283,-279.016)">
            <ellipse cx="647.409" cy="617.797" rx="3.388" ry="3.046" style="fill:none;stroke-width:0.53px;stroke-linecap:butt;stroke:rgb(115,115,115);"/>
            <path d="M648.443,613.778C648.443,613.259 648.022,612.838 647.503,612.838C646.984,612.838 646.563,613.259 646.563,613.778L646.563,617.598C646.563,618.117 646.984,618.538 647.503,618.538C648.022,618.538 648.443,618.117 648.443,617.598L648.443,613.778Z" style="fill:rgb(102,102,102);stroke-width:0.29px;stroke:white;"/>
        </g>
        <path d="M1071.78,848.962C1065.27,851.647 1058.02,852.995 1050.3,853.494C919.903,857.265 789.384,857.31 658.736,853.494C654.32,853.328 650.337,851.706 646.689,848.962" style="fill:none;stroke-width:1px;stroke-linecap:butt;stroke:black;"/>
        <g id="led1">
            <g transform="matrix(1,0,0,1,253.144,430.642)">
                <rect x="506.293" y="314.869" width="18.506" height="10.299" style="fill:rgb(68,68,68);stroke-width:1px;stroke-linecap:butt;stroke:rgb(102,102,102);"/>
            </g>
            <g transform="matrix(1,0,0,1,286.771,430.679)">
                <rect x="506.293" y="314.869" width="18.506" height="10.299" style="fill:rgb(68,68,68);stroke-width:1px;stroke-linecap:butt;stroke:rgb(102,102,102);"/>
            </g>
            <g transform="matrix(1,0,0,1,324.622,430.679)">
                <rect x="506.293" y="314.869" width="18.506" height="10.299" style="fill:rgb(68,68,68);stroke-width:1px;stroke-linecap:butt;stroke:rgb(102,102,102);"/>
            </g>
            <g transform="matrix(1,0,0,1,359.514,430.642)">
                <rect x="506.293" y="314.869" width="18.506" height="10.299" style="fill:rgb(68,68,68);stroke-width:1px;stroke-linecap:butt;stroke:rgb(102,102,102);"/>
            </g>
            <g transform="matrix(1,0,0,1,395.096,430.656)">
                <rect x="506.293" y="314.869" width="18.506" height="10.299" style="fill:rgb(68,68,68);stroke-width:1px;stroke-linecap:butt;stroke:rgb(102,102,102);"/>
            </g>
            <g transform="matrix(1,0,0,1,431.083,430.656)">
                <rect x="506.293" y="314.869" width="18.506" height="10.299" style="fill:rgb(68,68,68);stroke-width:1px;stroke-linecap:butt;stroke:rgb(102,102,102);"/>
            </g>
        </g>
        <g transform="matrix(0.00420794,0.999991,-0.8275,0.0034821,1212.63,288.576)">
            <path d="M476.413,311.704L489.016,311.704L489.016,454.238L487.423,454.238L476.413,311.704Z" style="fill:black;stroke-width:1.09px;stroke-linecap:butt;stroke:rgb(102,102,102);"/>
        </g>
        <g id="Ethernet - Beschriftung2" transform="matrix(1.97966,0,0,2.11407,-477.825,-493.424)">
            <path d="M644.221,597.168L642.277,599.1L644.221,601.046" style="fill:none;stroke-width:0.42px;stroke:rgb(102,102,102);"/>
            <path d="M650.236,597.168L652.262,599.1L650.236,601.07" style="fill:none;stroke-width:0.42px;stroke:rgb(102,102,102);"/>
            <path d="M645.037,599.408L645.485,599.408" style="fill:none;stroke-width:0.42px;stroke:rgb(102,102,102);"/>
            <g transform="matrix(1,0,0,1,1.97161,0)">
                <path d="M645.037,599.408L645.485,599.408" style="fill:none;stroke-width:0.42px;stroke:rgb(102,102,102);"/>
            </g>
            <g transform="matrix(1,0,0,1,3.97774,0.010644)">
                <path d="M645.037,599.408L645.485,599.408" style="fill:none;stroke-width:0.42px;stroke:rgb(102,102,102);"/>
            </g>
        </g>
    </g>
</svg>
