<?xml version="1.0" standalone="no"?>
<!DOCTYPE svg PUBLIC "-//W3C//DTD SVG 1.1//EN" "http://www.w3.org/Graphics/SVG/1.1/DTD/svg11.dtd">
<svg width="100%" height="100%" viewBox="0 0 1280 1150" version="1.1" xmlns="http://www.w3.org/2000/svg" xmlns:xlink="http://www.w3.org/1999/xlink" xml:space="preserve" style="fill-rule:evenodd;clip-rule:evenodd;stroke-linejoin:round;stroke-miterlimit:1.41421;">
    <g id="Antennen 1043">
        <g id="new Antenne 1043">
            <path d="M652.036,619.119L703.126,619.119L700.344,526.551L655.39,526.551L652.036,619.119Z" style="fill:rgb(49,49,49);stroke-width:0.5px;stroke:black;"/>
            <rect x="665.084" y="199.138" width="27.899" height="28.754" style="fill:rgb(49,49,49);stroke-width:0.5px;stroke:black;"/>
            <path d="M649.243,689.441L650.988,616.958C669.108,618.552 687.221,618.824 705.323,616.958L707.183,689.441L649.243,689.441Z" style="fill:rgb(49,49,49);stroke-width:0.5px;stroke:black;"/>
            <path d="M650.848,597.162L650.848,612.298C668.997,614.545 687.229,614.718 705.566,612.298L705.566,597.162C687.342,599.115 669.101,598.905 650.848,597.162Z" style="fill:rgb(49,49,49);stroke-width:0.5px;stroke:black;"/>
            <path d="M663.141,341.639L694.434,341.639L694.434,223.461L663.746,223.461L663.141,341.639Z" style="fill:rgb(49,49,49);stroke-width:0.5px;stroke:black;"/>
            <path d="M651.347,593.426C669.264,594.991 687.044,594.958 704.694,593.426L703.132,552.011C686.546,553.968 669.625,553.864 652.419,552.011L651.347,593.426Z" style="fill:rgb(49,49,49);stroke-width:0.5px;stroke:black;"/>
            <path d="M653.079,547.908C669.797,549.558 686.475,549.685 703.103,547.908L702.503,533.319C686.288,534.981 669.99,534.936 653.614,533.319L653.079,547.908Z" style="fill:rgb(49,49,49);stroke-width:0.5px;stroke:black;"/>
            <path d="M653.614,529.948C669.993,531.254 686.296,531.355 702.503,529.948L697.191,338.329C685.178,340.346 673.138,340.435 661.07,338.329L653.614,529.948Z" style="fill:rgb(49,49,49);stroke-width:0.5px;stroke:black;"/>
            <rect x="663.746" y="205.104" width="30.688" height="14.659" style="fill:rgb(49,49,49);stroke-width:0.5px;stroke:black;"/>
            <path d="M663.687,200.966L694.443,200.966L694.443,144.136C688.239,128.631 671.247,128.6 663.687,144.136L663.687,200.966Z" style="fill:rgb(49,49,49);stroke-width:0.5px;stroke:black;"/>
        </g>
        <g id="new Antenne 10431" transform="matrix(0.965926,-0.258819,0.258819,0.965926,-524.481,206.115)">
            <path d="M652.036,619.119L703.126,619.119L700.344,526.551L655.39,526.551L652.036,619.119Z" style="fill:rgb(49,49,49);stroke-width:0.5px;stroke:black;"/>
            <rect x="665.084" y="199.138" width="27.899" height="28.754" style="fill:rgb(49,49,49);stroke-width:0.5px;stroke:black;"/>
            <path d="M649.243,689.441L650.988,616.958C669.108,618.552 687.221,618.824 705.323,616.958L707.183,689.441L649.243,689.441Z" style="fill:rgb(49,49,49);stroke-width:0.5px;stroke:black;"/>
            <path d="M650.848,597.162L650.848,612.298C668.997,614.545 687.229,614.718 705.566,612.298L705.566,597.162C687.342,599.115 669.101,598.905 650.848,597.162Z" style="fill:rgb(49,49,49);stroke-width:0.5px;stroke:black;"/>
            <path d="M663.141,341.639L694.434,341.639L694.434,223.461L663.746,223.461L663.141,341.639Z" style="fill:rgb(49,49,49);stroke-width:0.5px;stroke:black;"/>
            <path d="M651.347,593.426C669.264,594.991 687.044,594.958 704.694,593.426L703.132,552.011C686.546,553.968 669.625,553.864 652.419,552.011L651.347,593.426Z" style="fill:rgb(49,49,49);stroke-width:0.5px;stroke:black;"/>
            <path d="M653.079,547.908C669.797,549.558 686.475,549.685 703.103,547.908L702.503,533.319C686.288,534.981 669.99,534.936 653.614,533.319L653.079,547.908Z" style="fill:rgb(49,49,49);stroke-width:0.5px;stroke:black;"/>
            <path d="M653.614,529.948C669.993,531.254 686.296,531.355 702.503,529.948L697.191,338.329C685.178,340.346 673.138,340.435 661.07,338.329L653.614,529.948Z" style="fill:rgb(49,49,49);stroke-width:0.5px;stroke:black;"/>
            <rect x="663.746" y="205.104" width="30.688" height="14.659" style="fill:rgb(49,49,49);stroke-width:0.5px;stroke:black;"/>
            <path d="M663.687,200.966L694.443,200.966L694.443,144.136C688.239,128.631 671.247,128.6 663.687,144.136L663.687,200.966Z" style="fill:rgb(49,49,49);stroke-width:0.5px;stroke:black;"/>
        </g>
        <g id="new Antenne 1043rechts" transform="matrix(0.965926,0.258819,-0.258819,0.965926,549.457,-145.553)">
            <path d="M652.036,619.119L703.126,619.119L700.344,526.551L655.39,526.551L652.036,619.119Z" style="fill:rgb(49,49,49);stroke-width:0.5px;stroke:black;"/>
            <rect x="665.084" y="199.138" width="27.899" height="28.754" style="fill:rgb(49,49,49);stroke-width:0.5px;stroke:black;"/>
            <path d="M649.243,689.441L650.988,616.958C669.108,618.552 687.221,618.824 705.323,616.958L707.183,689.441L649.243,689.441Z" style="fill:rgb(49,49,49);stroke-width:0.5px;stroke:black;"/>
            <path d="M650.848,597.162L650.848,612.298C668.997,614.545 687.229,614.718 705.566,612.298L705.566,597.162C687.342,599.115 669.101,598.905 650.848,597.162Z" style="fill:rgb(49,49,49);stroke-width:0.5px;stroke:black;"/>
            <path d="M663.141,341.639L694.434,341.639L694.434,223.461L663.746,223.461L663.141,341.639Z" style="fill:rgb(49,49,49);stroke-width:0.5px;stroke:black;"/>
            <path d="M651.347,593.426C669.264,594.991 687.044,594.958 704.694,593.426L703.132,552.011C686.546,553.968 669.625,553.864 652.419,552.011L651.347,593.426Z" style="fill:rgb(49,49,49);stroke-width:0.5px;stroke:black;"/>
            <path d="M653.079,547.908C669.797,549.558 686.475,549.685 703.103,547.908L702.503,533.319C686.288,534.981 669.99,534.936 653.614,533.319L653.079,547.908Z" style="fill:rgb(49,49,49);stroke-width:0.5px;stroke:black;"/>
            <path d="M653.614,529.948C669.993,531.254 686.296,531.355 702.503,529.948L697.191,338.329C685.178,340.346 673.138,340.435 661.07,338.329L653.614,529.948Z" style="fill:rgb(49,49,49);stroke-width:0.5px;stroke:black;"/>
            <rect x="663.746" y="205.104" width="30.688" height="14.659" style="fill:rgb(49,49,49);stroke-width:0.5px;stroke:black;"/>
            <path d="M663.687,200.966L694.443,200.966L694.443,144.136C688.239,128.631 671.247,128.6 663.687,144.136L663.687,200.966Z" style="fill:rgb(49,49,49);stroke-width:0.5px;stroke:black;"/>
        </g>
    </g>
    <g id="rippen">
        <g id="rippen rechts">
            <g>
                <g transform="matrix(0.761096,0,0,0.761096,298.965,294.449)">
                    <path d="M1241.6,892.412L1249.01,906.328L1245.96,913.821L1241.6,913.821L1238.99,892.412L1241.6,892.412Z" style="fill:rgb(51,51,51);stroke-width:0.66px;stroke:black;"/>
                </g>
                <g transform="matrix(0.761096,0,0,0.761096,298.965,294.449)">
                    <path d="M1240.09,909.578C1243.88,909.985 1246.97,909.1 1249.01,906.328L1249.01,915.716C1247.37,918.684 1244.24,918.992 1240.7,919.071L1240.09,909.578Z" style="fill:rgb(51,51,51);stroke-width:0.66px;stroke:black;"/>
                </g>
            </g>
            <g>
                <g transform="matrix(0.895834,0,0,0.895834,130.986,146.98)">
                    <path d="M1241.6,892.412L1249.01,906.328L1245.96,913.821L1241.6,913.821L1238.99,892.412L1241.6,892.412Z" style="fill:rgb(51,51,51);stroke-width:0.56px;stroke:black;"/>
                </g>
                <g transform="matrix(0.895834,0,0,0.895834,130.986,146.98)">
                    <path d="M1240.09,909.578C1243.88,909.985 1246.97,909.1 1249.01,906.328L1249.01,915.716C1247.37,918.684 1244.24,918.992 1240.7,919.071L1240.09,909.578Z" style="fill:rgb(51,51,51);stroke-width:0.56px;stroke:black;"/>
                </g>
            </g>
            <g>
                <g transform="matrix(1,0,0,1,0.455564,25.8628)">
                    <path d="M1241.6,892.412L1249.01,906.328L1245.96,913.821L1241.6,913.821L1238.99,892.412L1241.6,892.412Z" style="fill:rgb(51,51,51);stroke-width:0.5px;stroke:black;"/>
                </g>
                <g transform="matrix(1,0,0,1,0.455564,25.8628)">
                    <path d="M1240.09,909.578C1243.88,909.985 1246.97,909.1 1249.01,906.328L1249.01,915.716C1247.37,918.684 1244.24,918.992 1240.7,919.071L1240.09,909.578Z" style="fill:rgb(51,51,51);stroke-width:0.5px;stroke:black;"/>
                </g>
            </g>
            <g>
                <path d="M1241.6,892.412L1249.01,906.328L1245.96,913.821L1241.6,913.821L1238.99,892.412L1241.6,892.412Z" style="fill:rgb(51,51,51);stroke-width:0.5px;stroke:black;"/>
                <path d="M1240.09,909.578C1243.88,909.985 1246.97,909.1 1249.01,906.328L1249.01,915.716C1247.37,918.684 1244.24,918.992 1240.7,919.071L1240.09,909.578Z" style="fill:rgb(51,51,51);stroke-width:0.5px;stroke:black;"/>
            </g>
            <g>
                <path d="M1240.14,866.776L1248.99,881.994L1246.04,886.95L1238.92,886.95L1236.59,866.776L1240.14,866.776Z" style="fill:rgb(51,51,51);stroke-width:0.5px;stroke:black;"/>
                <g transform="matrix(1,0,0,0.896026,0,92.9608)">
                    <path d="M1238.87,883.847C1242.7,884.399 1246.01,883.065 1249.01,880.617L1249.01,890.531C1247.98,892.652 1244.86,893.758 1240.14,894.081L1238.87,883.847Z" style="fill:rgb(51,51,51);stroke-width:0.53px;stroke:black;"/>
                </g>
            </g>
            <g>
                <path d="M1140.2,705.009C1150,707.551 1157.58,712.8 1162.64,721.13L1248.94,858.06L1247.88,863.427L1243.69,864.809L1235.73,863.571L1140.2,705.009Z" style="fill:rgb(51,51,51);stroke-width:0.5px;stroke:black;"/>
                <g transform="matrix(1,0,0,1.34688,0,-298.374)">
                    <path d="M1237.42,867.999C1242.73,868.034 1247.04,867.325 1248.94,864.835C1249.06,864.122 1248.95,858.906 1248.94,858.597C1246.75,862.143 1241.98,863.061 1235.99,862.642" style="fill:rgb(51,51,51);stroke-width:0.42px;stroke:black;"/>
                </g>
            </g>
        </g>
        <g id="rippen rechts1" transform="matrix(-1,0,0,1,1328.52,0)">
            <g>
                <g transform="matrix(0.761096,0,0,0.761096,298.965,294.449)">
                    <path d="M1241.6,892.412L1249.01,906.328L1245.96,913.821L1241.6,913.821L1238.99,892.412L1241.6,892.412Z" style="fill:rgb(51,51,51);stroke-width:0.66px;stroke:black;"/>
                </g>
                <g transform="matrix(0.761096,0,0,0.761096,298.965,294.449)">
                    <path d="M1240.09,909.578C1243.88,909.985 1246.97,909.1 1249.01,906.328L1249.01,915.716C1247.37,918.684 1244.24,918.992 1240.7,919.071L1240.09,909.578Z" style="fill:rgb(51,51,51);stroke-width:0.66px;stroke:black;"/>
                </g>
            </g>
            <g>
                <g transform="matrix(0.895834,0,0,0.895834,130.986,146.98)">
                    <path d="M1241.6,892.412L1249.01,906.328L1245.96,913.821L1241.6,913.821L1238.99,892.412L1241.6,892.412Z" style="fill:rgb(51,51,51);stroke-width:0.56px;stroke:black;"/>
                </g>
                <g transform="matrix(0.895834,0,0,0.895834,130.986,146.98)">
                    <path d="M1240.09,909.578C1243.88,909.985 1246.97,909.1 1249.01,906.328L1249.01,915.716C1247.37,918.684 1244.24,918.992 1240.7,919.071L1240.09,909.578Z" style="fill:rgb(51,51,51);stroke-width:0.56px;stroke:black;"/>
                </g>
            </g>
            <g>
                <g transform="matrix(1,0,0,1,0.455564,25.8628)">
                    <path d="M1241.6,892.412L1249.01,906.328L1245.96,913.821L1241.6,913.821L1238.99,892.412L1241.6,892.412Z" style="fill:rgb(51,51,51);stroke-width:0.5px;stroke:black;"/>
                </g>
                <g transform="matrix(1,0,0,1,0.455564,25.8628)">
                    <path d="M1240.09,909.578C1243.88,909.985 1246.97,909.1 1249.01,906.328L1249.01,915.716C1247.37,918.684 1244.24,918.992 1240.7,919.071L1240.09,909.578Z" style="fill:rgb(51,51,51);stroke-width:0.5px;stroke:black;"/>
                </g>
            </g>
            <g>
                <path d="M1241.6,892.412L1249.01,906.328L1245.96,913.821L1241.6,913.821L1238.99,892.412L1241.6,892.412Z" style="fill:rgb(51,51,51);stroke-width:0.5px;stroke:black;"/>
                <path d="M1240.09,909.578C1243.88,909.985 1246.97,909.1 1249.01,906.328L1249.01,915.716C1247.37,918.684 1244.24,918.992 1240.7,919.071L1240.09,909.578Z" style="fill:rgb(51,51,51);stroke-width:0.5px;stroke:black;"/>
            </g>
            <g>
                <path d="M1240.14,866.776L1248.99,881.994L1246.04,886.95L1238.92,886.95L1236.59,866.776L1240.14,866.776Z" style="fill:rgb(51,51,51);stroke-width:0.5px;stroke:black;"/>
                <g transform="matrix(1,0,0,0.896026,0,92.9608)">
                    <path d="M1238.87,883.847C1242.7,884.399 1246.01,883.065 1249.01,880.617L1249.01,890.531C1247.98,892.652 1244.86,893.758 1240.14,894.081L1238.87,883.847Z" style="fill:rgb(51,51,51);stroke-width:0.53px;stroke:black;"/>
                </g>
            </g>
            <g>
                <path d="M1140.2,705.009C1150,707.551 1157.58,712.8 1162.64,721.13L1248.94,858.06L1247.88,863.427L1243.69,864.809L1235.73,863.571L1140.2,705.009Z" style="fill:rgb(51,51,51);stroke-width:0.5px;stroke:black;"/>
                <g transform="matrix(1,0,0,1.34688,0,-298.374)">
                    <path d="M1237.42,867.999C1242.73,868.034 1247.04,867.325 1248.94,864.835C1249.06,864.122 1248.95,858.906 1248.94,858.597C1246.75,862.143 1241.98,863.061 1235.99,862.642" style="fill:rgb(51,51,51);stroke-width:0.42px;stroke:black;"/>
                </g>
            </g>
        </g>
    </g>
    <g id="Router">
        <g id="Plaste weis">
            <path d="M84.296,981.947C86.513,932.857 87.593,880.051 96.522,852.897L191.308,703.716C195.01,697.889 223.422,689.309 242.194,688.874L1062.77,688.874C1102.56,689.162 1132.19,692.715 1138.68,703.716L1228.06,846.708C1231.44,852.7 1234.16,858.892 1236.37,865.237C1240.57,904.026 1241.72,942.997 1243.22,981.947L1230.41,996.746L98.354,996.746L84.296,981.947Z" style="fill:white;stroke-width:3px;stroke-linecap:round;stroke:black;"/>
            <path d="M259.697,986.318L94.282,986.318C89.968,986.135 86.672,984.601 84.22,981.947L84.22,1002.75C84.22,1005.88 92.109,1013.63 94.282,1013.63L259.697,1013.63L259.697,986.318Z" style="fill:white;stroke-width:3px;stroke-linecap:round;stroke:black;"/>
            <g transform="matrix(-1,0,0,1,1327.35,0)">
                <path d="M259.697,986.318L94.282,986.318C89.968,986.135 86.672,984.601 84.22,981.947L84.22,1002.75C84.22,1005.88 92.109,1013.63 94.282,1013.63L259.697,1013.63L259.697,986.318Z" style="fill:white;stroke-width:3px;stroke-linecap:round;stroke:black;"/>
            </g>
        </g>
        <g id="QSS">
            <path d="M1223.29,928.479C1223.29,923.226 1219.03,918.961 1213.78,918.961L1114.87,918.961C1109.61,918.961 1105.35,923.226 1105.35,928.479L1105.35,972.96C1105.35,978.213 1109.61,982.477 1114.87,982.477L1213.78,982.477C1219.03,982.477 1223.29,978.213 1223.29,972.96L1223.29,928.479Z" style="fill:rgb(64,200,43);stroke-width:0.65px;stroke-linecap:round;stroke:black;"/>
            <g id="wifi-links">
                <path d="M1165.04,941.731C1161.05,948.191 1161.14,954.236 1165.04,960.178" style="fill:none;stroke-width:0.65px;stroke-linecap:round;stroke:black;"/>
                <g transform="matrix(1.22273,0,0,1.13864,-262.476,-131.913)">
                    <path d="M1165.04,941.731C1161.05,948.191 1161.14,954.236 1165.04,960.178" style="fill:none;stroke-width:0.55px;stroke-linecap:round;stroke:black;"/>
                </g>
                <g transform="matrix(1.28019,0,0,1.27899,-332.767,-265.276)">
                    <path d="M1165.04,941.731C1161.05,948.191 1161.14,954.236 1165.04,960.178" style="fill:none;stroke-width:0.51px;stroke-linecap:round;stroke:black;"/>
                </g>
            </g>
            <g id="wifi-rechts" transform="matrix(-1,5.66554e-16,-5.66554e-16,-1,2372.96,1902.65)">
                <path d="M1165.04,941.731C1161.05,948.191 1161.14,954.236 1165.04,960.178" style="fill:none;stroke-width:0.65px;stroke-linecap:round;stroke:black;"/>
                <g transform="matrix(1.22273,0,0,1.13864,-262.476,-131.913)">
                    <path d="M1165.04,941.731C1161.05,948.191 1161.14,954.236 1165.04,960.178" style="fill:none;stroke-width:0.55px;stroke-linecap:round;stroke:black;"/>
                </g>
                <g transform="matrix(1.28019,0,0,1.27899,-332.767,-265.276)">
                    <path d="M1165.04,941.731C1161.05,948.191 1161.14,954.236 1165.04,960.178" style="fill:none;stroke-width:0.51px;stroke-linecap:round;stroke:black;"/>
                </g>
            </g>
            <g transform="matrix(1.15,0,0,0.95,-178.764,57.5675)">
                <path d="M1176.49,933.59L1176.49,946.756C1176.49,947.111 1176.54,947.364 1176.64,947.515C1176.75,947.665 1176.92,947.74 1177.16,947.74C1177.41,947.74 1177.59,947.663 1177.7,947.508C1177.8,947.353 1177.85,947.102 1177.85,946.756L1177.85,933.59C1177.85,933.234 1177.8,932.984 1177.7,932.838C1177.59,932.692 1177.41,932.619 1177.16,932.619C1176.92,932.619 1176.75,932.697 1176.64,932.852C1176.54,933.007 1176.49,933.253 1176.49,933.59ZM1172.45,934.943C1172.45,933.066 1172.82,931.728 1173.55,930.931C1174.28,930.133 1175.48,929.734 1177.16,929.734C1178.83,929.734 1180.04,930.129 1180.77,930.917C1181.49,931.705 1181.86,933.048 1181.86,934.943L1181.86,945.607C1181.86,946.984 1181.69,948.021 1181.34,948.718C1180.99,949.415 1180.4,949.955 1179.56,950.338C1179.56,950.557 1179.61,950.714 1179.7,950.81C1179.8,950.905 1179.95,950.953 1180.15,950.953L1181.78,950.953L1181.78,953.893L1179.29,953.893C1178.77,953.893 1178.37,953.637 1178.09,953.127C1177.8,952.617 1177.66,951.883 1177.66,950.926L1177.66,950.789C1177.51,950.798 1177.37,950.805 1177.24,950.81C1177.11,950.814 1176.99,950.816 1176.87,950.816C1175.35,950.816 1174.23,950.402 1173.52,949.572C1172.81,948.743 1172.45,947.421 1172.45,945.607L1172.45,934.943Z" style="fill:white;fill-rule:nonzero;stroke-width:0.38px;stroke:rgb(49,49,49);"/>
                <path d="M1182.87,933.795C1182.87,932.51 1183.28,931.512 1184.11,930.801C1184.93,930.09 1186.09,929.734 1187.57,929.734C1189.07,929.734 1190.22,930.092 1191.03,930.808C1191.84,931.523 1192.25,932.546 1192.25,933.877L1192.25,937.172L1188.24,937.172L1188.24,933.59C1188.24,933.225 1188.19,932.972 1188.09,932.831C1187.99,932.69 1187.82,932.619 1187.57,932.619C1187.32,932.619 1187.14,932.694 1187.03,932.845C1186.93,932.995 1186.88,933.244 1186.88,933.59L1186.88,935.381C1186.88,935.682 1186.91,935.944 1186.99,936.167C1187.07,936.39 1187.19,936.607 1187.37,936.816L1191.24,941.068C1191.6,941.46 1191.86,941.875 1192.02,942.313C1192.17,942.75 1192.25,943.447 1192.25,944.404L1192.25,946.756C1192.25,948.05 1191.84,949.046 1191.03,949.743C1190.21,950.44 1189.05,950.789 1187.55,950.789C1186.01,950.789 1184.84,950.425 1184.05,949.695C1183.27,948.966 1182.87,947.891 1182.87,946.469L1182.87,942.695L1186.88,942.695L1186.88,946.756C1186.88,947.102 1186.93,947.353 1187.03,947.508C1187.14,947.663 1187.32,947.74 1187.57,947.74C1187.81,947.74 1187.98,947.665 1188.09,947.515C1188.19,947.364 1188.24,947.111 1188.24,946.756L1188.24,944.623C1188.24,944.331 1188.19,944.06 1188.09,943.81C1187.98,943.559 1187.8,943.288 1187.55,942.996L1183.91,938.881C1183.54,938.462 1183.27,938.04 1183.11,937.616C1182.95,937.192 1182.87,936.625 1182.87,935.914L1182.87,935.613L1182.87,933.795Z" style="fill:white;fill-rule:nonzero;stroke-width:0.38px;stroke:rgb(49,49,49);"/>
                <path d="M1193.18,933.795C1193.18,932.51 1193.59,931.512 1194.42,930.801C1195.24,930.09 1196.4,929.734 1197.88,929.734C1199.38,929.734 1200.53,930.092 1201.34,930.808C1202.15,931.523 1202.56,932.546 1202.56,933.877L1202.56,937.172L1198.55,937.172L1198.55,933.59C1198.55,933.225 1198.5,932.972 1198.4,932.831C1198.3,932.69 1198.13,932.619 1197.88,932.619C1197.63,932.619 1197.45,932.694 1197.34,932.845C1197.24,932.995 1197.18,933.244 1197.18,933.59L1197.18,935.381C1197.18,935.682 1197.22,935.944 1197.3,936.167C1197.38,936.39 1197.5,936.607 1197.68,936.816L1201.55,941.068C1201.91,941.46 1202.17,941.875 1202.33,942.313C1202.48,942.75 1202.56,943.447 1202.56,944.404L1202.56,946.756C1202.56,948.05 1202.15,949.046 1201.33,949.743C1200.52,950.44 1199.36,950.789 1197.86,950.789C1196.32,950.789 1195.15,950.425 1194.36,949.695C1193.57,948.966 1193.18,947.891 1193.18,946.469L1193.18,942.695L1197.18,942.695L1197.18,946.756C1197.18,947.102 1197.24,947.353 1197.34,947.508C1197.45,947.663 1197.63,947.74 1197.88,947.74C1198.12,947.74 1198.29,947.665 1198.39,947.515C1198.5,947.364 1198.55,947.111 1198.55,946.756L1198.55,944.623C1198.55,944.331 1198.5,944.06 1198.39,943.81C1198.29,943.559 1198.11,943.288 1197.86,942.996L1194.22,938.881C1193.84,938.462 1193.58,938.04 1193.42,937.616C1193.26,937.192 1193.18,936.625 1193.18,935.914L1193.18,935.613L1193.18,933.795Z" style="fill:white;fill-rule:nonzero;stroke-width:0.38px;stroke:rgb(49,49,49);"/>
            </g>
            <g id="ON/off" transform="matrix(1.17447,0,0,1.17447,753.45,-223.957)">
                <g transform="matrix(1,0,0,1,-0.627516,0.355553)">
                    <ellipse cx="321.797" cy="999.854" rx="16.795" ry="16.434" style="fill:rgb(72,72,74);stroke-width:0.85px;stroke-linecap:round;stroke:black;"/>
                </g>
                <g transform="matrix(0.766109,0,0,0.766109,74.7377,234.386)">
                    <ellipse cx="321.797" cy="999.854" rx="16.795" ry="16.434" style="fill:rgb(72,72,74);stroke-width:2.22px;stroke-linecap:round;stroke:black;"/>
                </g>
                <g transform="matrix(1,0,0,1,-0.0942289,0.933291)">
                    <path d="M321.381,992.932L321.381,1006" style="fill:none;stroke-width:2.98px;stroke-linecap:round;stroke:black;"/>
                </g>
            </g>
        </g>
        <path d="M97.426,852.496C96.783,841.411 1230.34,844.994 1231.06,852.496" style="fill:none;stroke-width:3px;stroke-linecap:round;stroke:black;"/>
        <g id="Front">
            <g transform="matrix(1.00334,0,0,1.02921,-2.41872,-29.4677)">
                <path d="M1077.9,918.634C1077.9,899.173 1061.7,883.372 1041.73,883.372L288.417,883.372C268.454,883.372 252.246,899.173 252.246,918.634L252.246,973.432C252.246,992.893 268.454,1008.69 288.417,1008.69L1041.73,1008.69C1061.7,1008.69 1077.9,992.893 1077.9,973.432L1077.9,918.634Z" style="fill:rgb(51,51,51);"/>
            </g>
            <path d="M1079.17,966.72C1079.17,956.578 1070.94,948.343 1060.8,948.343L269.032,948.343C258.89,948.343 250.656,956.578 250.656,966.72L250.656,1003.47C250.656,1013.61 258.89,1021.85 269.032,1021.85L1060.8,1021.85C1070.94,1021.85 1079.17,1013.61 1079.17,1003.47L1079.17,966.72Z" style="fill:rgb(51,51,51);"/>
            <g transform="matrix(1,0,0,1.76392,0,-718.176)">
                <path d="M936.461,944.183C936.461,941.941 933.25,940.121 929.296,940.121L405.838,940.121C401.883,940.121 398.673,941.941 398.673,944.183L398.673,946.328C398.673,948.57 401.883,950.391 405.838,950.391L929.296,950.391C933.25,950.391 936.461,948.57 936.461,946.328L936.461,944.183Z" style="fill:rgb(54,129,35);stroke-width:0.7px;stroke:black;"/>
            </g>
            <g>
                <circle cx="433.52" cy="948.693" r="6.161" style="fill:rgb(175,239,159);stroke-width:0.5px;stroke:black;"/>
                <g transform="matrix(1,0,0,1,76.3442,0)">
                    <circle cx="433.52" cy="948.693" r="6.161" style="fill:rgb(175,239,159);stroke-width:0.5px;stroke:black;"/>
                </g>
                <g transform="matrix(1,0,0,1,148.4,0)">
                    <circle cx="433.52" cy="948.693" r="6.161" style="fill:rgb(175,239,159);stroke-width:0.5px;stroke:black;"/>
                </g>
                <g transform="matrix(1,0,0,1,214.262,0)">
                    <circle cx="433.52" cy="948.693" r="6.161" style="fill:rgb(175,239,159);stroke-width:0.5px;stroke:black;"/>
                </g>
                <g transform="matrix(1,0,0,1,250.149,0)">
                    <circle cx="433.52" cy="948.693" r="6.161" style="fill:rgb(175,239,159);stroke-width:0.5px;stroke:black;"/>
                </g>
                <g transform="matrix(1,0,0,1,285.169,0)">
                    <circle cx="433.52" cy="948.693" r="6.161" style="fill:rgb(175,239,159);stroke-width:0.5px;stroke:black;"/>
                </g>
                <g transform="matrix(1,0,0,1,324.581,0)">
                    <circle cx="433.52" cy="948.693" r="6.161" style="fill:rgb(175,239,159);stroke-width:0.5px;stroke:black;"/>
                </g>
                <g transform="matrix(1,0,0,1,390.303,0)">
                    <circle cx="433.52" cy="948.693" r="6.161" style="fill:rgb(175,239,159);stroke-width:0.5px;stroke:black;"/>
                </g>
                <g transform="matrix(1,0,0,1,431.431,0)">
                    <circle cx="433.52" cy="948.693" r="6.161" style="fill:rgb(175,239,159);stroke-width:0.5px;stroke:black;"/>
                </g>
                <g transform="matrix(1,0,0,1,468.965,0)">
                    <circle cx="433.52" cy="948.693" r="6.161" style="fill:rgb(175,239,159);stroke-width:0.5px;stroke:black;"/>
                </g>
            </g>
            <g transform="matrix(1.00077,0,0,0.844315,1.86022,149.748)">
                <path d="M962.231,946.943C962.231,938.71 956.591,932.026 949.645,932.026L377.334,932.026C370.388,932.026 364.749,938.71 364.749,946.943C364.749,955.177 370.388,961.861 377.334,961.861L949.645,961.861C956.591,961.861 962.231,955.177 962.231,946.943Z" style="fill:none;stroke-width:0.54px;stroke:black;"/>
            </g>
        </g>
    </g>
    <g id="Beschriftung">
        <g transform="matrix(0.89,0,0,1,97.9836,3.91336)">
            <path d="M923.721,979.725L923.721,969.624L919.948,969.624L919.948,968.272L929.026,968.272L929.026,969.624L925.237,969.624L925.237,979.725L923.721,979.725Z" style="fill:rgb(252,252,252);fill-rule:nonzero;"/>
            <path d="M930.518,979.725L930.518,968.272L932.034,968.272L932.034,978.374L937.675,978.374L937.675,979.725L930.518,979.725Z" style="fill:rgb(252,252,252);fill-rule:nonzero;"/>
            <rect x="942.531" y="974.874" width="4.32" height="1.414" style="fill:rgb(252,252,252);fill-rule:nonzero;"/>
            <path d="M955.031,979.725L951.992,968.272L953.547,968.272L955.289,975.78C955.476,976.566 955.638,977.347 955.773,978.124C956.065,976.9 956.237,976.194 956.289,976.006L958.468,968.272L960.297,968.272L961.937,974.069C962.349,975.506 962.645,976.858 962.828,978.124C962.974,977.4 963.164,976.569 963.398,975.631L965.195,968.272L966.718,968.272L963.578,979.725L962.117,979.725L959.703,970.999C959.5,970.269 959.38,969.821 959.343,969.655C959.224,970.181 959.112,970.629 959.007,970.999L956.578,979.725L955.031,979.725Z" style="fill:rgb(252,252,252);fill-rule:nonzero;"/>
            <path d="M968.156,979.725L968.156,968.272L973.234,968.272C974.255,968.272 975.031,968.375 975.562,968.581C976.093,968.786 976.518,969.15 976.836,969.67C977.153,970.191 977.312,970.767 977.312,971.397C977.312,972.209 977.049,972.894 976.523,973.452C975.997,974.009 975.185,974.363 974.086,974.514C974.487,974.707 974.791,974.897 975,975.084C975.442,975.491 975.862,975.999 976.257,976.608L978.25,979.725L976.343,979.725L974.828,977.342C974.385,976.655 974.02,976.129 973.734,975.764C973.448,975.4 973.191,975.144 972.964,974.999C972.738,974.853 972.507,974.751 972.273,974.694C972.101,974.657 971.82,974.639 971.429,974.639L969.672,974.639L969.672,979.725L968.156,979.725ZM969.672,973.327L972.929,973.327C973.622,973.327 974.164,973.255 974.554,973.112C974.945,972.969 975.242,972.739 975.445,972.424C975.648,972.109 975.75,971.767 975.75,971.397C975.75,970.855 975.553,970.41 975.16,970.061C974.767,969.712 974.145,969.538 973.297,969.538L969.672,969.538L969.672,973.327Z" style="fill:rgb(252,252,252);fill-rule:nonzero;"/>
            <path d="M984.414,979.725L983.007,979.725L983.007,970.764C982.669,971.087 982.225,971.41 981.675,971.733C981.126,972.056 980.632,972.298 980.195,972.459L980.195,971.1C980.981,970.73 981.669,970.282 982.257,969.756C982.846,969.23 983.263,968.72 983.507,968.225L984.414,968.225L984.414,979.725Z" style="fill:rgb(252,252,252);fill-rule:nonzero;"/>
            <path d="M988.015,974.077C988.015,972.722 988.155,971.633 988.433,970.807C988.712,969.982 989.126,969.345 989.675,968.897C990.225,968.449 990.916,968.225 991.75,968.225C992.364,968.225 992.903,968.349 993.367,968.596C993.83,968.844 994.213,969.2 994.515,969.666C994.817,970.133 995.054,970.7 995.226,971.37C995.398,972.039 995.484,972.941 995.484,974.077C995.484,975.42 995.346,976.505 995.07,977.331C994.794,978.156 994.381,978.794 993.832,979.245C993.282,979.695 992.588,979.92 991.75,979.92C990.645,979.92 989.778,979.525 989.148,978.733C988.393,977.78 988.015,976.228 988.015,974.077ZM989.461,974.077C989.461,975.957 989.681,977.208 990.121,977.831C990.561,978.453 991.104,978.764 991.75,978.764C992.395,978.764 992.938,978.452 993.379,977.827C993.819,977.202 994.039,975.952 994.039,974.077C994.039,972.191 993.819,970.939 993.379,970.319C992.938,969.699 992.39,969.389 991.734,969.389C991.088,969.389 990.573,969.663 990.187,970.209C989.703,970.907 989.461,972.196 989.461,974.077Z" style="fill:rgb(252,252,252);fill-rule:nonzero;"/>
            <path d="M1001.42,979.725L1001.42,976.983L996.453,976.983L996.453,975.694L1001.68,968.272L1002.83,968.272L1002.83,975.694L1004.38,975.694L1004.38,976.983L1002.83,976.983L1002.83,979.725L1001.42,979.725ZM1001.42,975.694L1001.42,970.53L997.836,975.694L1001.42,975.694Z" style="fill:rgb(252,252,252);fill-rule:nonzero;"/>
            <path d="M1005.82,976.702L1007.23,976.514C1007.39,977.311 1007.66,977.885 1008.05,978.237C1008.44,978.588 1008.91,978.764 1009.47,978.764C1010.13,978.764 1010.69,978.535 1011.14,978.077C1011.6,977.618 1011.83,977.051 1011.83,976.374C1011.83,975.728 1011.62,975.195 1011.2,974.776C1010.77,974.357 1010.24,974.147 1009.59,974.147C1009.32,974.147 1008.99,974.199 1008.59,974.303L1008.75,973.069C1008.84,973.079 1008.92,973.084 1008.98,973.084C1009.58,973.084 1010.11,972.928 1010.59,972.616C1011.07,972.303 1011.31,971.821 1011.31,971.17C1011.31,970.655 1011.14,970.228 1010.79,969.889C1010.44,969.551 1009.99,969.381 1009.44,969.381C1008.89,969.381 1008.44,969.553 1008.07,969.897C1007.71,970.241 1007.47,970.756 1007.37,971.444L1005.96,971.194C1006.13,970.251 1006.52,969.521 1007.13,969.002C1007.74,968.484 1008.5,968.225 1009.41,968.225C1010.03,968.225 1010.61,968.359 1011.13,968.627C1011.66,968.896 1012.06,969.262 1012.34,969.725C1012.62,970.189 1012.76,970.681 1012.76,971.202C1012.76,971.696 1012.62,972.147 1012.36,972.553C1012.09,972.959 1011.7,973.282 1011.18,973.522C1011.86,973.678 1012.38,974.002 1012.76,974.495C1013.13,974.987 1013.32,975.603 1013.32,976.342C1013.32,977.342 1012.96,978.19 1012.23,978.885C1011.5,979.581 1010.58,979.928 1009.46,979.928C1008.46,979.928 1007.62,979.629 1006.96,979.03C1006.29,978.431 1005.91,977.655 1005.82,976.702Z" style="fill:rgb(252,252,252);fill-rule:nonzero;"/>
            <path d="M1015.26,979.725L1015.26,968.272L1016.82,968.272L1022.84,977.264L1022.84,968.272L1024.29,968.272L1024.29,979.725L1022.73,979.725L1016.72,970.725L1016.72,979.725L1015.26,979.725Z" style="fill:rgb(252,252,252);fill-rule:nonzero;"/>
            <path d="M1026.84,979.725L1026.84,968.272L1030.78,968.272C1031.67,968.272 1032.35,968.327 1032.82,968.436C1033.48,968.587 1034.04,968.861 1034.5,969.256C1035.1,969.767 1035.56,970.419 1035.86,971.213C1036.15,972.008 1036.3,972.915 1036.3,973.936C1036.3,974.806 1036.2,975.577 1036,976.249C1035.8,976.92 1035.54,977.476 1035.22,977.916C1034.9,978.357 1034.55,978.703 1034.17,978.956C1033.8,979.208 1033.34,979.4 1032.81,979.53C1032.27,979.66 1031.66,979.725 1030.97,979.725L1026.84,979.725ZM1028.35,978.374L1030.8,978.374C1031.55,978.374 1032.14,978.303 1032.57,978.163C1033,978.022 1033.35,977.824 1033.6,977.569C1033.96,977.209 1034.24,976.726 1034.44,976.12C1034.64,975.513 1034.74,974.777 1034.74,973.913C1034.74,972.715 1034.55,971.794 1034.15,971.151C1033.76,970.508 1033.28,970.077 1032.72,969.858C1032.31,969.702 1031.66,969.624 1030.76,969.624L1028.35,969.624L1028.35,978.374Z" style="fill:rgb(252,252,252);fill-rule:nonzero;"/>
        </g>
        <g transform="matrix(0.89,0,0,1,-504.71,3.57615)">
            <path d="M922.807,979.725L919.768,968.272L921.323,968.272L923.065,975.78C923.253,976.566 923.414,977.347 923.55,978.124C923.841,976.9 924.013,976.194 924.065,976.006L926.245,968.272L928.073,968.272L929.714,974.069C930.125,975.506 930.422,976.858 930.604,978.124C930.75,977.4 930.94,976.569 931.175,975.631L932.971,968.272L934.495,968.272L931.354,979.725L929.893,979.725L927.479,970.999C927.276,970.269 927.156,969.821 927.12,969.655C927,970.181 926.888,970.629 926.784,970.999L924.354,979.725L922.807,979.725Z" style="fill:rgb(252,252,252);fill-rule:nonzero;"/>
            <path d="M935.737,969.889L935.737,968.272L937.143,968.272L937.143,969.889L935.737,969.889ZM935.737,979.725L935.737,971.428L937.143,971.428L937.143,979.725L935.737,979.725Z" style="fill:rgb(252,252,252);fill-rule:nonzero;"/>
            <path d="M939.268,979.725L939.268,971.428L940.534,971.428L940.534,972.686C940.857,972.097 941.155,971.709 941.428,971.522C941.702,971.334 942.003,971.241 942.331,971.241C942.805,971.241 943.287,971.392 943.776,971.694L943.292,972.999C942.948,972.795 942.604,972.694 942.261,972.694C941.953,972.694 941.677,972.786 941.432,972.971C941.188,973.156 941.013,973.413 940.909,973.741C940.753,974.241 940.675,974.788 940.675,975.381L940.675,979.725L939.268,979.725Z" style="fill:rgb(252,252,252);fill-rule:nonzero;"/>
            <path d="M950.292,977.053L951.745,977.233C951.516,978.082 951.091,978.741 950.471,979.209C949.852,979.678 949.06,979.913 948.096,979.913C946.883,979.913 945.921,979.539 945.21,978.791C944.499,978.044 944.143,976.996 944.143,975.647C944.143,974.251 944.503,973.168 945.221,972.397C945.94,971.626 946.873,971.241 948.018,971.241C949.128,971.241 950.034,971.618 950.737,972.374C951.44,973.129 951.792,974.191 951.792,975.561C951.792,975.644 951.789,975.769 951.784,975.936L945.596,975.936C945.649,976.847 945.906,977.545 946.37,978.03C946.833,978.514 947.412,978.756 948.104,978.756C948.62,978.756 949.06,978.621 949.425,978.35C949.789,978.079 950.078,977.647 950.292,977.053ZM945.675,974.78L950.307,974.78C950.245,974.082 950.068,973.558 949.776,973.209C949.328,972.668 948.748,972.397 948.034,972.397C947.388,972.397 946.845,972.613 946.405,973.045C945.965,973.478 945.721,974.056 945.675,974.78Z" style="fill:rgb(252,252,252);fill-rule:nonzero;"/>
            <rect x="953.479" y="968.272" width="1.406" height="11.453" style="fill:rgb(252,252,252);fill-rule:nonzero;"/>
            <path d="M962.745,977.053L964.198,977.233C963.969,978.082 963.544,978.741 962.925,979.209C962.305,979.678 961.513,979.913 960.55,979.913C959.336,979.913 958.374,979.539 957.663,978.791C956.952,978.044 956.596,976.996 956.596,975.647C956.596,974.251 956.956,973.168 957.675,972.397C958.393,971.626 959.326,971.241 960.471,971.241C961.581,971.241 962.487,971.618 963.19,972.374C963.893,973.129 964.245,974.191 964.245,975.561C964.245,975.644 964.242,975.769 964.237,975.936L958.05,975.936C958.102,976.847 958.359,977.545 958.823,978.03C959.287,978.514 959.865,978.756 960.557,978.756C961.073,978.756 961.513,978.621 961.878,978.35C962.242,978.079 962.531,977.647 962.745,977.053ZM958.128,974.78L962.761,974.78C962.698,974.082 962.521,973.558 962.229,973.209C961.781,972.668 961.201,972.397 960.487,972.397C959.841,972.397 959.298,972.613 958.858,973.045C958.418,973.478 958.175,974.056 958.128,974.78Z" style="fill:rgb(252,252,252);fill-rule:nonzero;"/>
            <path d="M965.401,977.249L966.792,977.03C966.87,977.587 967.087,978.014 967.444,978.311C967.801,978.608 968.3,978.756 968.94,978.756C969.586,978.756 970.065,978.625 970.378,978.362C970.69,978.099 970.846,977.79 970.846,977.436C970.846,977.118 970.708,976.868 970.432,976.686C970.24,976.561 969.761,976.402 968.995,976.209C967.964,975.949 967.249,975.724 966.85,975.534C966.452,975.344 966.15,975.081 965.944,974.745C965.738,974.409 965.636,974.038 965.636,973.631C965.636,973.262 965.72,972.919 965.889,972.604C966.059,972.289 966.289,972.027 966.581,971.819C966.8,971.657 967.098,971.521 967.475,971.409C967.853,971.297 968.258,971.241 968.69,971.241C969.341,971.241 969.913,971.334 970.405,971.522C970.897,971.709 971.261,971.963 971.495,972.284C971.729,972.604 971.891,973.032 971.979,973.569L970.604,973.756C970.542,973.329 970.361,972.996 970.061,972.756C969.762,972.517 969.339,972.397 968.792,972.397C968.146,972.397 967.685,972.504 967.409,972.717C967.133,972.931 966.995,973.181 966.995,973.467C966.995,973.65 967.052,973.814 967.167,973.959C967.281,974.111 967.461,974.236 967.706,974.334C967.846,974.387 968.261,974.506 968.948,974.694C969.943,974.959 970.637,975.177 971.03,975.346C971.423,975.515 971.732,975.762 971.956,976.084C972.18,976.407 972.292,976.808 972.292,977.288C972.292,977.756 972.155,978.198 971.882,978.612C971.608,979.026 971.214,979.346 970.698,979.573C970.182,979.799 969.599,979.913 968.948,979.913C967.87,979.913 967.048,979.689 966.483,979.241C965.918,978.793 965.557,978.129 965.401,977.249Z" style="fill:rgb(252,252,252);fill-rule:nonzero;"/>
            <path d="M973.401,977.249L974.792,977.03C974.87,977.587 975.087,978.014 975.444,978.311C975.801,978.608 976.3,978.756 976.94,978.756C977.586,978.756 978.065,978.625 978.378,978.362C978.69,978.099 978.846,977.79 978.846,977.436C978.846,977.118 978.708,976.868 978.432,976.686C978.24,976.561 977.761,976.402 976.995,976.209C975.964,975.949 975.249,975.724 974.85,975.534C974.452,975.344 974.15,975.081 973.944,974.745C973.738,974.409 973.636,974.038 973.636,973.631C973.636,973.262 973.72,972.919 973.889,972.604C974.059,972.289 974.289,972.027 974.581,971.819C974.8,971.657 975.098,971.521 975.475,971.409C975.853,971.297 976.258,971.241 976.69,971.241C977.341,971.241 977.913,971.334 978.405,971.522C978.897,971.709 979.261,971.963 979.495,972.284C979.729,972.604 979.891,973.032 979.979,973.569L978.604,973.756C978.542,973.329 978.361,972.996 978.061,972.756C977.762,972.517 977.339,972.397 976.792,972.397C976.146,972.397 975.685,972.504 975.409,972.717C975.133,972.931 974.995,973.181 974.995,973.467C974.995,973.65 975.052,973.814 975.167,973.959C975.281,974.111 975.461,974.236 975.706,974.334C975.846,974.387 976.261,974.506 976.948,974.694C977.943,974.959 978.637,975.177 979.03,975.346C979.423,975.515 979.732,975.762 979.956,976.084C980.18,976.407 980.292,976.808 980.292,977.288C980.292,977.756 980.155,978.198 979.882,978.612C979.608,979.026 979.214,979.346 978.698,979.573C978.182,979.799 977.599,979.913 976.948,979.913C975.87,979.913 975.048,979.689 974.483,979.241C973.918,978.793 973.557,978.129 973.401,977.249Z" style="fill:rgb(252,252,252);fill-rule:nonzero;"/>
            <path d="M986.573,979.725L986.573,968.272L988.128,968.272L994.143,977.264L994.143,968.272L995.596,968.272L995.596,979.725L994.042,979.725L988.026,970.725L988.026,979.725L986.573,979.725Z" style="fill:rgb(252,252,252);fill-rule:nonzero;"/>
            <path d="M1007.95,975.233L1007.95,973.889L1012.8,973.881L1012.8,978.131C1012.06,978.725 1011.29,979.172 1010.5,979.471C1009.7,979.771 1008.89,979.92 1008.06,979.92C1006.93,979.92 1005.91,979.68 1004.99,979.198C1004.07,978.716 1003.38,978.019 1002.91,977.108C1002.44,976.196 1002.21,975.178 1002.21,974.053C1002.21,972.939 1002.44,971.898 1002.9,970.932C1003.37,969.966 1004.04,969.249 1004.92,968.78C1005.79,968.311 1006.8,968.077 1007.94,968.077C1008.77,968.077 1009.52,968.211 1010.19,968.479C1010.86,968.747 1011.38,969.121 1011.76,969.6C1012.14,970.079 1012.43,970.704 1012.63,971.475L1011.26,971.85C1011.09,971.267 1010.88,970.808 1010.62,970.475C1010.37,970.142 1010,969.875 1009.53,969.674C1009.05,969.474 1008.53,969.374 1007.95,969.374C1007.25,969.374 1006.66,969.479 1006.15,969.69C1005.65,969.901 1005.24,970.178 1004.93,970.522C1004.62,970.866 1004.38,971.243 1004.21,971.655C1003.91,972.363 1003.77,973.131 1003.77,973.959C1003.77,974.98 1003.94,975.834 1004.3,976.522C1004.65,977.209 1005.16,977.72 1005.83,978.053C1006.5,978.387 1007.22,978.553 1007.97,978.553C1008.63,978.553 1009.27,978.427 1009.89,978.174C1010.52,977.922 1010.99,977.652 1011.32,977.366L1011.32,975.233L1007.95,975.233Z" style="fill:rgb(252,252,252);fill-rule:nonzero;"/>
            <path d="M1014.86,969.889L1014.86,968.272L1016.27,968.272L1016.27,969.889L1014.86,969.889ZM1014.86,979.725L1014.86,971.428L1016.27,971.428L1016.27,979.725L1014.86,979.725Z" style="fill:rgb(252,252,252);fill-rule:nonzero;"/>
            <path d="M1018.15,980.413L1019.52,980.616C1019.58,981.038 1019.73,981.345 1020,981.538C1020.34,981.798 1020.82,981.928 1021.43,981.928C1022.08,981.928 1022.58,981.798 1022.93,981.538C1023.29,981.277 1023.53,980.913 1023.65,980.444C1023.72,980.157 1023.76,979.556 1023.75,978.639C1023.14,979.363 1022.37,979.725 1021.46,979.725C1020.32,979.725 1019.43,979.314 1018.81,978.491C1018.18,977.668 1017.87,976.681 1017.87,975.53C1017.87,974.738 1018.01,974.008 1018.3,973.338C1018.59,972.669 1019,972.152 1019.55,971.788C1020.09,971.423 1020.73,971.241 1021.46,971.241C1022.44,971.241 1023.25,971.637 1023.89,972.428L1023.89,971.428L1025.18,971.428L1025.18,978.6C1025.18,979.892 1025.05,980.807 1024.79,981.346C1024.53,981.885 1024.11,982.311 1023.54,982.624C1022.97,982.936 1022.27,983.092 1021.43,983.092C1020.44,983.092 1019.64,982.87 1019.03,982.424C1018.43,981.979 1018.13,981.308 1018.15,980.413ZM1019.32,975.428C1019.32,976.517 1019.53,977.311 1019.96,977.811C1020.4,978.311 1020.94,978.561 1021.59,978.561C1022.23,978.561 1022.78,978.312 1023.21,977.815C1023.65,977.318 1023.87,976.538 1023.87,975.475C1023.87,974.459 1023.64,973.694 1023.19,973.178C1022.74,972.663 1022.2,972.405 1021.57,972.405C1020.94,972.405 1020.41,972.659 1019.97,973.166C1019.53,973.674 1019.32,974.428 1019.32,975.428Z" style="fill:rgb(252,252,252);fill-rule:nonzero;"/>
            <path d="M1032.72,978.702C1032.2,979.144 1031.7,979.457 1031.22,979.639C1030.74,979.821 1030.22,979.913 1029.67,979.913C1028.76,979.913 1028.06,979.69 1027.57,979.245C1027.08,978.799 1026.83,978.23 1026.83,977.538C1026.83,977.131 1026.92,976.76 1027.11,976.424C1027.29,976.088 1027.54,975.819 1027.84,975.616C1028.13,975.413 1028.47,975.259 1028.85,975.155C1029.12,975.082 1029.54,975.012 1030.1,974.944C1031.23,974.808 1032.07,974.647 1032.6,974.459C1032.61,974.267 1032.61,974.144 1032.61,974.092C1032.61,973.519 1032.48,973.116 1032.21,972.881C1031.85,972.564 1031.32,972.405 1030.61,972.405C1029.95,972.405 1029.46,972.521 1029.15,972.752C1028.83,972.984 1028.6,973.394 1028.45,973.983L1027.07,973.795C1027.2,973.207 1027.4,972.732 1027.69,972.37C1027.98,972.008 1028.39,971.729 1028.93,971.534C1029.47,971.338 1030.1,971.241 1030.82,971.241C1031.52,971.241 1032.1,971.324 1032.54,971.491C1032.98,971.657 1033.31,971.867 1033.52,972.12C1033.73,972.372 1033.87,972.691 1033.96,973.077C1034,973.316 1034.03,973.749 1034.03,974.374L1034.03,976.249C1034.03,977.556 1034.06,978.383 1034.12,978.729C1034.18,979.075 1034.29,979.407 1034.47,979.725L1033,979.725C1032.86,979.433 1032.76,979.092 1032.72,978.702ZM1032.6,975.561C1032.09,975.769 1031.33,975.946 1030.31,976.092C1029.73,976.176 1029.32,976.269 1029.08,976.374C1028.84,976.478 1028.66,976.63 1028.53,976.831C1028.4,977.031 1028.33,977.254 1028.33,977.499C1028.33,977.874 1028.47,978.186 1028.76,978.436C1029.04,978.686 1029.46,978.811 1030,978.811C1030.54,978.811 1031.03,978.693 1031.45,978.456C1031.87,978.219 1032.18,977.894 1032.38,977.483C1032.53,977.165 1032.6,976.696 1032.6,976.077L1032.6,975.561Z" style="fill:rgb(252,252,252);fill-rule:nonzero;"/>
            <path d="M1037.5,979.725L1036.2,979.725L1036.2,968.272L1037.6,968.272L1037.6,972.358C1038.2,971.613 1038.96,971.241 1039.88,971.241C1040.39,971.241 1040.87,971.344 1041.33,971.549C1041.78,971.755 1042.16,972.044 1042.45,972.416C1042.75,972.789 1042.98,973.238 1043.14,973.764C1043.31,974.29 1043.39,974.853 1043.39,975.452C1043.39,976.874 1043.04,977.972 1042.34,978.749C1041.64,979.525 1040.79,979.913 1039.81,979.913C1038.83,979.913 1038.06,979.504 1037.5,978.686L1037.5,979.725ZM1037.49,975.514C1037.49,976.509 1037.62,977.228 1037.89,977.67C1038.34,978.394 1038.93,978.756 1039.69,978.756C1040.31,978.756 1040.84,978.489 1041.28,977.956C1041.73,977.422 1041.96,976.626 1041.96,975.569C1041.96,974.486 1041.74,973.686 1041.31,973.17C1040.88,972.655 1040.36,972.397 1039.75,972.397C1039.14,972.397 1038.61,972.664 1038.16,973.198C1037.71,973.732 1037.49,974.504 1037.49,975.514Z" style="fill:rgb(252,252,252);fill-rule:nonzero;"/>
            <path d="M1045.11,969.889L1045.11,968.272L1046.52,968.272L1046.52,969.889L1045.11,969.889ZM1045.11,979.725L1045.11,971.428L1046.52,971.428L1046.52,979.725L1045.11,979.725Z" style="fill:rgb(252,252,252);fill-rule:nonzero;"/>
            <path d="M1051.73,978.467L1051.93,979.709C1051.54,979.793 1051.18,979.834 1050.87,979.834C1050.36,979.834 1049.96,979.754 1049.68,979.592C1049.4,979.431 1049.2,979.219 1049.09,978.956C1048.97,978.693 1048.92,978.139 1048.92,977.295L1048.92,972.522L1047.89,972.522L1047.89,971.428L1048.92,971.428L1048.92,969.374L1050.32,968.53L1050.32,971.428L1051.73,971.428L1051.73,972.522L1050.32,972.522L1050.32,977.374C1050.32,977.775 1050.34,978.032 1050.39,978.147C1050.44,978.262 1050.52,978.353 1050.63,978.42C1050.74,978.488 1050.9,978.522 1051.11,978.522C1051.27,978.522 1051.47,978.504 1051.73,978.467Z" style="fill:rgb(252,252,252);fill-rule:nonzero;"/>
            <path d="M1057.75,979.725L1057.75,968.272L1062.83,968.272C1063.85,968.272 1064.63,968.375 1065.16,968.581C1065.69,968.786 1066.12,969.15 1066.43,969.67C1066.75,970.191 1066.91,970.767 1066.91,971.397C1066.91,972.209 1066.65,972.894 1066.12,973.452C1065.59,974.009 1064.78,974.363 1063.68,974.514C1064.08,974.707 1064.39,974.897 1064.6,975.084C1065.04,975.491 1065.46,975.999 1065.85,976.608L1067.85,979.725L1065.94,979.725L1064.42,977.342C1063.98,976.655 1063.62,976.129 1063.33,975.764C1063.04,975.4 1062.79,975.144 1062.56,974.999C1062.34,974.853 1062.1,974.751 1061.87,974.694C1061.7,974.657 1061.42,974.639 1061.03,974.639L1059.27,974.639L1059.27,979.725L1057.75,979.725ZM1059.27,973.327L1062.53,973.327C1063.22,973.327 1063.76,973.255 1064.15,973.112C1064.54,972.969 1064.84,972.739 1065.04,972.424C1065.25,972.109 1065.35,971.767 1065.35,971.397C1065.35,970.855 1065.15,970.41 1064.76,970.061C1064.36,969.712 1063.74,969.538 1062.89,969.538L1059.27,969.538L1059.27,973.327Z" style="fill:rgb(252,252,252);fill-rule:nonzero;"/>
            <path d="M1068.58,975.577C1068.58,974.04 1069.01,972.902 1069.86,972.163C1070.58,971.548 1071.44,971.241 1072.47,971.241C1073.61,971.241 1074.54,971.614 1075.27,972.362C1075.99,973.109 1076.35,974.142 1076.35,975.459C1076.35,976.527 1076.19,977.367 1075.87,977.979C1075.55,978.591 1075.09,979.066 1074.47,979.405C1073.86,979.743 1073.19,979.913 1072.47,979.913C1071.31,979.913 1070.37,979.54 1069.65,978.795C1068.94,978.051 1068.58,976.978 1068.58,975.577ZM1070.03,975.577C1070.03,976.639 1070.26,977.435 1070.72,977.963C1071.18,978.492 1071.77,978.756 1072.47,978.756C1073.17,978.756 1073.75,978.491 1074.21,977.959C1074.68,977.428 1074.91,976.618 1074.91,975.53C1074.91,974.504 1074.68,973.726 1074.21,973.198C1073.74,972.669 1073.16,972.405 1072.47,972.405C1071.77,972.405 1071.18,972.668 1070.72,973.194C1070.26,973.72 1070.03,974.514 1070.03,975.577Z" style="fill:rgb(252,252,252);fill-rule:nonzero;"/>
            <path d="M1083.44,979.725L1083.44,978.506C1082.79,979.444 1081.92,979.913 1080.81,979.913C1080.32,979.913 1079.86,979.819 1079.44,979.631C1079.01,979.444 1078.7,979.208 1078.49,978.924C1078.29,978.64 1078.14,978.293 1078.06,977.881C1078,977.605 1077.97,977.168 1077.97,976.569L1077.97,971.428L1079.38,971.428L1079.38,976.03C1079.38,976.764 1079.41,977.259 1079.46,977.514C1079.55,977.884 1079.74,978.174 1080.03,978.385C1080.31,978.596 1080.67,978.702 1081.09,978.702C1081.51,978.702 1081.91,978.594 1082.28,978.377C1082.65,978.161 1082.91,977.867 1083.06,977.495C1083.21,977.122 1083.29,976.582 1083.29,975.874L1083.29,971.428L1084.7,971.428L1084.7,979.725L1083.44,979.725Z" style="fill:rgb(252,252,252);fill-rule:nonzero;"/>
            <path d="M1089.97,978.467L1090.17,979.709C1089.78,979.793 1089.42,979.834 1089.11,979.834C1088.6,979.834 1088.21,979.754 1087.92,979.592C1087.64,979.431 1087.44,979.219 1087.33,978.956C1087.22,978.693 1087.16,978.139 1087.16,977.295L1087.16,972.522L1086.13,972.522L1086.13,971.428L1087.16,971.428L1087.16,969.374L1088.56,968.53L1088.56,971.428L1089.97,971.428L1089.97,972.522L1088.56,972.522L1088.56,977.374C1088.56,977.775 1088.58,978.032 1088.63,978.147C1088.68,978.262 1088.76,978.353 1088.87,978.42C1088.99,978.488 1089.15,978.522 1089.35,978.522C1089.51,978.522 1089.72,978.504 1089.97,978.467Z" style="fill:rgb(252,252,252);fill-rule:nonzero;"/>
            <path d="M1097.03,977.053L1098.48,977.233C1098.25,978.082 1097.83,978.741 1097.21,979.209C1096.59,979.678 1095.79,979.913 1094.83,979.913C1093.62,979.913 1092.65,979.539 1091.94,978.791C1091.23,978.044 1090.88,976.996 1090.88,975.647C1090.88,974.251 1091.24,973.168 1091.96,972.397C1092.67,971.626 1093.61,971.241 1094.75,971.241C1095.86,971.241 1096.77,971.618 1097.47,972.374C1098.17,973.129 1098.53,974.191 1098.53,975.561C1098.53,975.644 1098.52,975.769 1098.52,975.936L1092.33,975.936C1092.38,976.847 1092.64,977.545 1093.1,978.03C1093.57,978.514 1094.15,978.756 1094.84,978.756C1095.35,978.756 1095.79,978.621 1096.16,978.35C1096.52,978.079 1096.81,977.647 1097.03,977.053ZM1092.41,974.78L1097.04,974.78C1096.98,974.082 1096.8,973.558 1096.51,973.209C1096.06,972.668 1095.48,972.397 1094.77,972.397C1094.12,972.397 1093.58,972.613 1093.14,973.045C1092.7,973.478 1092.46,974.056 1092.41,974.78Z" style="fill:rgb(252,252,252);fill-rule:nonzero;"/>
            <path d="M1100.23,979.725L1100.23,971.428L1101.5,971.428L1101.5,972.686C1101.82,972.097 1102.12,971.709 1102.39,971.522C1102.66,971.334 1102.96,971.241 1103.29,971.241C1103.77,971.241 1104.25,971.392 1104.74,971.694L1104.25,972.999C1103.91,972.795 1103.57,972.694 1103.22,972.694C1102.91,972.694 1102.64,972.786 1102.39,972.971C1102.15,973.156 1101.97,973.413 1101.87,973.741C1101.71,974.241 1101.64,974.788 1101.64,975.381L1101.64,979.725L1100.23,979.725Z" style="fill:rgb(252,252,252);fill-rule:nonzero;"/>
        </g>
        <g transform="matrix(0.89,0,0,1,-396.139,-51.3217)">
            <path d="M920.576,979.725L920.576,970.419L924.086,970.419C924.704,970.419 925.176,970.449 925.502,970.508C925.959,970.584 926.342,970.729 926.651,970.943C926.96,971.157 927.208,971.456 927.397,971.841C927.585,972.226 927.679,972.65 927.679,973.111C927.679,973.902 927.427,974.572 926.924,975.12C926.42,975.668 925.51,975.942 924.194,975.942L921.807,975.942L921.807,979.725L920.576,979.725ZM921.807,974.844L924.213,974.844C925.009,974.844 925.574,974.696 925.908,974.399C926.242,974.103 926.409,973.686 926.409,973.149C926.409,972.76 926.311,972.426 926.114,972.149C925.918,971.872 925.658,971.689 925.337,971.6C925.129,971.545 924.746,971.518 924.188,971.518L921.807,971.518L921.807,974.844Z" style="fill:rgb(252,252,252);fill-rule:nonzero;"/>
            <path d="M930.872,979.725L928.403,970.419L929.666,970.419L931.081,976.52C931.234,977.159 931.365,977.793 931.475,978.424C931.712,977.429 931.852,976.856 931.894,976.704L933.665,970.419L935.15,970.419L936.483,975.129C936.817,976.297 937.059,977.395 937.207,978.424C937.325,977.836 937.48,977.161 937.67,976.399L939.13,970.419L940.368,970.419L937.816,979.725L936.629,979.725L934.668,972.635C934.503,972.042 934.405,971.678 934.376,971.543C934.278,971.97 934.187,972.334 934.103,972.635L932.129,979.725L930.872,979.725Z" style="fill:rgb(252,252,252);fill-rule:nonzero;"/>
            <path d="M941.536,979.725L941.536,970.419L945.662,970.419C946.491,970.419 947.122,970.503 947.553,970.67C947.985,970.837 948.33,971.132 948.588,971.556C948.846,971.979 948.975,972.446 948.975,972.958C948.975,973.619 948.762,974.175 948.334,974.628C947.907,975.081 947.247,975.368 946.354,975.491C946.68,975.648 946.927,975.802 947.096,975.955C947.456,976.285 947.797,976.697 948.118,977.192L949.737,979.725L948.188,979.725L946.957,977.789C946.597,977.23 946.301,976.803 946.068,976.507C945.835,976.211 945.627,976.003 945.443,975.885C945.259,975.766 945.072,975.684 944.881,975.637C944.741,975.608 944.513,975.593 944.196,975.593L942.767,975.593L942.767,979.725L941.536,979.725ZM942.767,974.526L945.414,974.526C945.977,974.526 946.417,974.468 946.735,974.352C947.052,974.235 947.293,974.049 947.458,973.793C947.623,973.537 947.706,973.259 947.706,972.958C947.706,972.518 947.546,972.157 947.227,971.873C946.907,971.59 946.402,971.448 945.713,971.448L942.767,971.448L942.767,974.526Z" style="fill:rgb(252,252,252);fill-rule:nonzero;"/>
            <path d="M1001.06,976.735L1002.22,976.634C1002.27,977.099 1002.4,977.481 1002.6,977.78C1002.8,978.078 1003.12,978.319 1003.54,978.503C1003.96,978.687 1004.44,978.779 1004.97,978.779C1005.44,978.779 1005.85,978.709 1006.21,978.57C1006.57,978.43 1006.84,978.239 1007.01,977.995C1007.19,977.752 1007.28,977.486 1007.28,977.199C1007.28,976.907 1007.19,976.652 1007.02,976.434C1006.85,976.216 1006.57,976.033 1006.19,975.885C1005.94,975.787 1005.38,975.636 1004.53,975.431C1003.67,975.226 1003.07,975.032 1002.73,974.85C1002.29,974.617 1001.96,974.329 1001.74,973.984C1001.52,973.639 1001.41,973.253 1001.41,972.825C1001.41,972.355 1001.55,971.916 1001.81,971.508C1002.08,971.1 1002.47,970.79 1002.98,970.578C1003.49,970.367 1004.06,970.261 1004.69,970.261C1005.38,970.261 1005.99,970.372 1006.51,970.594C1007.04,970.816 1007.44,971.143 1007.73,971.575C1008.01,972.006 1008.16,972.495 1008.18,973.041L1007,973.13C1006.94,972.542 1006.73,972.097 1006.36,971.797C1005.99,971.496 1005.45,971.346 1004.74,971.346C1003.99,971.346 1003.45,971.483 1003.11,971.756C1002.77,972.029 1002.6,972.358 1002.6,972.743C1002.6,973.077 1002.72,973.352 1002.96,973.568C1003.2,973.784 1003.82,974.005 1004.82,974.231C1005.82,974.458 1006.5,974.655 1006.88,974.825C1007.42,975.074 1007.82,975.391 1008.08,975.774C1008.34,976.157 1008.46,976.598 1008.46,977.097C1008.46,977.592 1008.32,978.059 1008.04,978.497C1007.75,978.935 1007.35,979.275 1006.82,979.519C1006.28,979.762 1005.69,979.884 1005.02,979.884C1004.18,979.884 1003.48,979.761 1002.91,979.516C1002.34,979.27 1001.89,978.901 1001.57,978.408C1001.24,977.915 1001.07,977.357 1001.06,976.735Z" style="fill:rgb(252,252,252);fill-rule:nonzero;"/>
            <path d="M1012.77,979.725L1012.77,975.783L1009.18,970.419L1010.68,970.419L1012.51,973.225C1012.85,973.75 1013.17,974.275 1013.46,974.799C1013.74,974.313 1014.08,973.765 1014.48,973.155L1016.28,970.419L1017.71,970.419L1014,975.783L1014,979.725L1012.77,979.725Z" style="fill:rgb(252,252,252);fill-rule:nonzero;"/>
            <path d="M1018.4,976.735L1019.56,976.634C1019.61,977.099 1019.74,977.481 1019.94,977.78C1020.14,978.078 1020.46,978.319 1020.88,978.503C1021.3,978.687 1021.78,978.779 1022.31,978.779C1022.78,978.779 1023.19,978.709 1023.55,978.57C1023.91,978.43 1024.18,978.239 1024.36,977.995C1024.53,977.752 1024.62,977.486 1024.62,977.199C1024.62,976.907 1024.53,976.652 1024.36,976.434C1024.19,976.216 1023.92,976.033 1023.53,975.885C1023.28,975.787 1022.73,975.636 1021.87,975.431C1021.01,975.226 1020.42,975.032 1020.07,974.85C1019.63,974.617 1019.3,974.329 1019.08,973.984C1018.86,973.639 1018.75,973.253 1018.75,972.825C1018.75,972.355 1018.89,971.916 1019.15,971.508C1019.42,971.1 1019.81,970.79 1020.32,970.578C1020.83,970.367 1021.4,970.261 1022.03,970.261C1022.72,970.261 1023.33,970.372 1023.85,970.594C1024.38,970.816 1024.79,971.143 1025.07,971.575C1025.35,972.006 1025.51,972.495 1025.53,973.041L1024.35,973.13C1024.28,972.542 1024.07,972.097 1023.7,971.797C1023.34,971.496 1022.79,971.346 1022.08,971.346C1021.34,971.346 1020.79,971.483 1020.45,971.756C1020.11,972.029 1019.94,972.358 1019.94,972.743C1019.94,973.077 1020.06,973.352 1020.3,973.568C1020.54,973.784 1021.16,974.005 1022.16,974.231C1023.16,974.458 1023.85,974.655 1024.22,974.825C1024.76,975.074 1025.16,975.391 1025.42,975.774C1025.68,976.157 1025.81,976.598 1025.81,977.097C1025.81,977.592 1025.66,978.059 1025.38,978.497C1025.1,978.935 1024.69,979.275 1024.16,979.519C1023.63,979.762 1023.03,979.884 1022.37,979.884C1021.52,979.884 1020.82,979.761 1020.25,979.516C1019.68,979.27 1019.23,978.901 1018.91,978.408C1018.59,977.915 1018.42,977.357 1018.4,976.735Z" style="fill:rgb(252,252,252);fill-rule:nonzero;"/>
            <path d="M1084,979.725L1081.53,970.419L1082.79,970.419L1084.21,976.52C1084.36,977.159 1084.49,977.793 1084.6,978.424C1084.84,977.429 1084.98,976.856 1085.02,976.704L1086.79,970.419L1088.28,970.419L1089.61,975.129C1089.94,976.297 1090.19,977.395 1090.33,978.424C1090.45,977.836 1090.61,977.161 1090.8,976.399L1092.26,970.419L1093.5,970.419L1090.94,979.725L1089.76,979.725L1087.8,972.635C1087.63,972.042 1087.53,971.678 1087.5,971.543C1087.4,971.97 1087.31,972.334 1087.23,972.635L1085.26,979.725L1084,979.725Z" style="fill:rgb(252,252,252);fill-rule:nonzero;"/>
            <path d="M1094.59,979.725L1094.59,970.419L1095.82,970.419L1095.82,978.627L1100.41,978.627L1100.41,979.725L1094.59,979.725Z" style="fill:rgb(252,252,252);fill-rule:nonzero;"/>
            <path d="M1100.85,979.725L1104.42,970.419L1105.75,970.419L1109.56,979.725L1108.16,979.725L1107.07,976.907L1103.18,976.907L1102.16,979.725L1100.85,979.725ZM1103.54,975.904L1106.69,975.904L1105.72,973.327C1105.42,972.544 1105.2,971.901 1105.06,971.397C1104.94,971.994 1104.78,972.586 1104.56,973.174L1103.54,975.904Z" style="fill:rgb(252,252,252);fill-rule:nonzero;"/>
            <path d="M1110.53,979.725L1110.53,970.419L1111.8,970.419L1116.68,977.726L1116.68,970.419L1117.86,970.419L1117.86,979.725L1116.6,979.725L1111.71,972.413L1111.71,979.725L1110.53,979.725Z" style="fill:rgb(252,252,252);fill-rule:nonzero;"/>
            <path d="M1177.31,979.725L1177.31,977.497L1173.27,977.497L1173.27,976.45L1177.52,970.419L1178.45,970.419L1178.45,976.45L1179.71,976.45L1179.71,977.497L1178.45,977.497L1178.45,979.725L1177.31,979.725ZM1177.31,976.45L1177.31,972.254L1174.39,976.45L1177.31,976.45Z" style="fill:rgb(252,252,252);fill-rule:nonzero;"/>
            <path d="M1214.1,977.269L1215.24,977.116C1215.37,977.764 1215.6,978.23 1215.91,978.516C1216.23,978.802 1216.61,978.944 1217.07,978.944C1217.6,978.944 1218.06,978.758 1218.43,978.386C1218.8,978.013 1218.98,977.552 1218.98,977.002C1218.98,976.477 1218.81,976.045 1218.47,975.704C1218.12,975.363 1217.69,975.193 1217.16,975.193C1216.94,975.193 1216.67,975.235 1216.35,975.32L1216.48,974.317C1216.56,974.325 1216.62,974.33 1216.66,974.33C1217.15,974.33 1217.59,974.203 1217.98,973.949C1218.37,973.695 1218.56,973.303 1218.56,972.774C1218.56,972.355 1218.42,972.008 1218.14,971.733C1217.85,971.458 1217.49,971.321 1217.04,971.321C1216.6,971.321 1216.23,971.46 1215.93,971.74C1215.63,972.019 1215.44,972.438 1215.36,972.997L1214.21,972.793C1214.35,972.027 1214.67,971.434 1215.17,971.013C1215.66,970.592 1216.28,970.381 1217.01,970.381C1217.52,970.381 1217.99,970.49 1218.42,970.708C1218.84,970.926 1219.17,971.223 1219.4,971.6C1219.62,971.977 1219.74,972.377 1219.74,972.8C1219.74,973.202 1219.63,973.568 1219.41,973.898C1219.2,974.228 1218.88,974.49 1218.45,974.685C1219.01,974.812 1219.43,975.075 1219.74,975.475C1220.04,975.875 1220.19,976.376 1220.19,976.977C1220.19,977.789 1219.9,978.478 1219.31,979.043C1218.71,979.608 1217.96,979.89 1217.06,979.89C1216.24,979.89 1215.56,979.647 1215.02,979.16C1214.48,978.673 1214.18,978.043 1214.1,977.269Z" style="fill:rgb(252,252,252);fill-rule:nonzero;"/>
            <path d="M1256.94,978.627L1256.94,979.725L1250.79,979.725C1250.78,979.45 1250.82,979.186 1250.92,978.932C1251.08,978.513 1251.33,978.1 1251.67,977.694C1252.02,977.288 1252.51,976.818 1253.17,976.285C1254.18,975.455 1254.86,974.798 1255.22,974.314C1255.57,973.829 1255.75,973.371 1255.75,972.939C1255.75,972.487 1255.59,972.105 1255.26,971.794C1254.94,971.483 1254.52,971.327 1254,971.327C1253.45,971.327 1253.01,971.492 1252.68,971.822C1252.35,972.152 1252.18,972.609 1252.18,973.193L1251,973.073C1251.08,972.197 1251.38,971.529 1251.91,971.07C1252.43,970.611 1253.14,970.381 1254.02,970.381C1254.92,970.381 1255.62,970.629 1256.14,971.124C1256.66,971.619 1256.92,972.233 1256.92,972.965C1256.92,973.337 1256.85,973.703 1256.69,974.063C1256.54,974.423 1256.29,974.801 1255.94,975.199C1255.58,975.597 1255,976.143 1254.17,976.837C1253.49,977.412 1253.05,977.803 1252.86,978.008C1252.66,978.213 1252.5,978.42 1252.37,978.627L1256.94,978.627Z" style="fill:rgb(252,252,252);fill-rule:nonzero;"/>
            <path d="M1299.3,979.725L1298.15,979.725L1298.15,972.444C1297.88,972.707 1297.52,972.969 1297.07,973.231C1296.62,973.494 1296.22,973.691 1295.87,973.822L1295.87,972.717C1296.51,972.417 1297.07,972.053 1297.55,971.625C1298.02,971.198 1298.36,970.783 1298.56,970.381L1299.3,970.381L1299.3,979.725Z" style="fill:rgb(252,252,252);fill-rule:nonzero;"/>
            <path d="M1367.14,979.725L1364.68,970.419L1365.94,970.419L1367.35,976.52C1367.51,977.159 1367.64,977.793 1367.75,978.424C1367.99,977.429 1368.12,976.856 1368.17,976.704L1369.94,970.419L1371.42,970.419L1372.76,975.129C1373.09,976.297 1373.33,977.395 1373.48,978.424C1373.6,977.836 1373.75,977.161 1373.94,976.399L1375.4,970.419L1376.64,970.419L1374.09,979.725L1372.9,979.725L1370.94,972.635C1370.78,972.042 1370.68,971.678 1370.65,971.543C1370.55,971.97 1370.46,972.334 1370.38,972.635L1368.4,979.725L1367.14,979.725Z" style="fill:rgb(252,252,252);fill-rule:nonzero;"/>
            <path d="M1376.23,979.725L1379.8,970.419L1381.13,970.419L1384.93,979.725L1383.53,979.725L1382.45,976.907L1378.56,976.907L1377.53,979.725L1376.23,979.725ZM1378.91,975.904L1382.07,975.904L1381.09,973.327C1380.8,972.544 1380.58,971.901 1380.43,971.397C1380.32,971.994 1380.15,972.586 1379.93,973.174L1378.91,975.904Z" style="fill:rgb(252,252,252);fill-rule:nonzero;"/>
            <path d="M1385.91,979.725L1385.91,970.419L1387.17,970.419L1392.06,977.726L1392.06,970.419L1393.24,970.419L1393.24,979.725L1391.97,979.725L1387.09,972.413L1387.09,979.725L1385.91,979.725Z" style="fill:rgb(252,252,252);fill-rule:nonzero;"/>
            <path d="M1412.08,970.419L1413.31,970.419L1413.31,975.796C1413.31,976.731 1413.2,977.474 1412.99,978.024C1412.78,978.574 1412.4,979.022 1411.84,979.366C1411.29,979.711 1410.57,979.884 1409.67,979.884C1408.8,979.884 1408.09,979.734 1407.53,979.433C1406.98,979.133 1406.58,978.698 1406.34,978.129C1406.11,977.559 1405.99,976.782 1405.99,975.796L1405.99,970.419L1407.22,970.419L1407.22,975.79C1407.22,976.598 1407.3,977.193 1407.44,977.576C1407.6,977.959 1407.85,978.255 1408.22,978.462C1408.59,978.669 1409.03,978.773 1409.56,978.773C1410.47,978.773 1411.11,978.568 1411.5,978.157C1411.88,977.747 1412.08,976.958 1412.08,975.79L1412.08,970.419Z" style="fill:rgb(252,252,252);fill-rule:nonzero;"/>
            <path d="M1414.94,976.735L1416.1,976.634C1416.15,977.099 1416.28,977.481 1416.48,977.78C1416.68,978.078 1417,978.319 1417.42,978.503C1417.84,978.687 1418.32,978.779 1418.85,978.779C1419.32,978.779 1419.73,978.709 1420.09,978.57C1420.45,978.43 1420.72,978.239 1420.9,977.995C1421.07,977.752 1421.16,977.486 1421.16,977.199C1421.16,976.907 1421.08,976.652 1420.9,976.434C1420.74,976.216 1420.46,976.033 1420.07,975.885C1419.82,975.787 1419.27,975.636 1418.41,975.431C1417.56,975.226 1416.96,975.032 1416.61,974.85C1416.17,974.617 1415.84,974.329 1415.62,973.984C1415.4,973.639 1415.29,973.253 1415.29,972.825C1415.29,972.355 1415.43,971.916 1415.69,971.508C1415.96,971.1 1416.35,970.79 1416.86,970.578C1417.37,970.367 1417.94,970.261 1418.57,970.261C1419.26,970.261 1419.87,970.372 1420.39,970.594C1420.92,970.816 1421.33,971.143 1421.61,971.575C1421.89,972.006 1422.05,972.495 1422.07,973.041L1420.89,973.13C1420.82,972.542 1420.61,972.097 1420.24,971.797C1419.88,971.496 1419.34,971.346 1418.62,971.346C1417.88,971.346 1417.33,971.483 1416.99,971.756C1416.65,972.029 1416.48,972.358 1416.48,972.743C1416.48,973.077 1416.6,973.352 1416.84,973.568C1417.08,973.784 1417.7,974.005 1418.7,974.231C1419.7,974.458 1420.39,974.655 1420.76,974.825C1421.3,975.074 1421.7,975.391 1421.96,975.774C1422.22,976.157 1422.35,976.598 1422.35,977.097C1422.35,977.592 1422.2,978.059 1421.92,978.497C1421.64,978.935 1421.23,979.275 1420.7,979.519C1420.17,979.762 1419.57,979.884 1418.91,979.884C1418.06,979.884 1417.36,979.761 1416.79,979.516C1416.22,979.27 1415.77,978.901 1415.45,978.408C1415.13,977.915 1414.95,977.357 1414.94,976.735Z" style="fill:rgb(252,252,252);fill-rule:nonzero;"/>
            <path d="M1423.98,979.725L1423.98,970.419L1427.47,970.419C1428.18,970.419 1428.75,970.514 1429.18,970.702C1429.61,970.89 1429.94,971.18 1430.19,971.572C1430.43,971.963 1430.55,972.372 1430.55,972.8C1430.55,973.198 1430.45,973.572 1430.23,973.923C1430.01,974.275 1429.69,974.558 1429.25,974.774C1429.82,974.939 1430.25,975.22 1430.55,975.618C1430.85,976.016 1431,976.486 1431,977.027C1431,977.463 1430.91,977.868 1430.73,978.243C1430.54,978.617 1430.32,978.906 1430.05,979.109C1429.78,979.312 1429.43,979.466 1429.03,979.57C1428.62,979.673 1428.12,979.725 1427.53,979.725L1423.98,979.725ZM1425.21,974.33L1427.22,974.33C1427.77,974.33 1428.16,974.294 1428.39,974.222C1428.71,974.129 1428.94,973.974 1429.1,973.758C1429.26,973.542 1429.34,973.272 1429.34,972.946C1429.34,972.637 1429.27,972.365 1429.12,972.13C1428.97,971.895 1428.76,971.734 1428.48,971.648C1428.21,971.561 1427.74,971.518 1427.07,971.518L1425.21,971.518L1425.21,974.33ZM1425.21,978.627L1427.53,978.627C1427.92,978.627 1428.2,978.612 1428.36,978.583C1428.65,978.532 1428.88,978.447 1429.08,978.329C1429.27,978.21 1429.42,978.038 1429.54,977.811C1429.67,977.585 1429.73,977.324 1429.73,977.027C1429.73,976.68 1429.64,976.379 1429.46,976.123C1429.28,975.867 1429.04,975.687 1428.72,975.583C1428.41,975.48 1427.95,975.428 1427.36,975.428L1425.21,975.428L1425.21,978.627Z" style="fill:rgb(252,252,252);fill-rule:nonzero;"/>
            <path d="M1453.47,978.729C1454.04,979.122 1454.57,979.41 1455.05,979.592L1454.69,980.449C1454.02,980.208 1453.36,979.827 1452.69,979.306C1452,979.691 1451.24,979.884 1450.4,979.884C1449.56,979.884 1448.8,979.681 1448.11,979.274C1447.43,978.868 1446.9,978.297 1446.53,977.561C1446.16,976.824 1445.97,975.995 1445.97,975.072C1445.97,974.154 1446.16,973.318 1446.53,972.565C1446.9,971.812 1447.43,971.238 1448.12,970.845C1448.81,970.451 1449.58,970.254 1450.43,970.254C1451.29,970.254 1452.06,970.459 1452.75,970.867C1453.44,971.275 1453.97,971.847 1454.33,972.581C1454.69,973.315 1454.87,974.143 1454.87,975.066C1454.87,975.832 1454.76,976.521 1454.53,977.132C1454.29,977.744 1453.94,978.276 1453.47,978.729ZM1450.76,977.154C1451.47,977.353 1452.06,977.649 1452.52,978.043C1453.24,977.383 1453.6,976.39 1453.6,975.066C1453.6,974.313 1453.48,973.655 1453.22,973.092C1452.96,972.529 1452.59,972.092 1452.1,971.781C1451.6,971.47 1451.05,971.314 1450.44,971.314C1449.52,971.314 1448.76,971.629 1448.15,972.257C1447.55,972.885 1447.24,973.824 1447.24,975.072C1447.24,976.283 1447.54,977.211 1448.14,977.859C1448.74,978.506 1449.51,978.83 1450.44,978.83C1450.88,978.83 1451.29,978.748 1451.68,978.583C1451.3,978.333 1450.89,978.155 1450.46,978.049L1450.76,977.154Z" style="fill:rgb(252,252,252);fill-rule:nonzero;"/>
            <path d="M1456.11,976.735L1457.27,976.634C1457.33,977.099 1457.46,977.481 1457.66,977.78C1457.86,978.078 1458.17,978.319 1458.59,978.503C1459.02,978.687 1459.49,978.779 1460.02,978.779C1460.49,978.779 1460.91,978.709 1461.27,978.57C1461.63,978.43 1461.89,978.239 1462.07,977.995C1462.24,977.752 1462.33,977.486 1462.33,977.199C1462.33,976.907 1462.25,976.652 1462.08,976.434C1461.91,976.216 1461.63,976.033 1461.24,975.885C1460.99,975.787 1460.44,975.636 1459.58,975.431C1458.73,975.226 1458.13,975.032 1457.79,974.85C1457.34,974.617 1457.01,974.329 1456.79,973.984C1456.58,973.639 1456.47,973.253 1456.47,972.825C1456.47,972.355 1456.6,971.916 1456.87,971.508C1457.13,971.1 1457.52,970.79 1458.04,970.578C1458.55,970.367 1459.12,970.261 1459.74,970.261C1460.43,970.261 1461.04,970.372 1461.57,970.594C1462.09,970.816 1462.5,971.143 1462.78,971.575C1463.07,972.006 1463.22,972.495 1463.24,973.041L1462.06,973.13C1462,972.542 1461.78,972.097 1461.41,971.797C1461.05,971.496 1460.51,971.346 1459.79,971.346C1459.05,971.346 1458.51,971.483 1458.16,971.756C1457.82,972.029 1457.65,972.358 1457.65,972.743C1457.65,973.077 1457.78,973.352 1458.02,973.568C1458.25,973.784 1458.87,974.005 1459.87,974.231C1460.87,974.458 1461.56,974.655 1461.93,974.825C1462.47,975.074 1462.87,975.391 1463.13,975.774C1463.39,976.157 1463.52,976.598 1463.52,977.097C1463.52,977.592 1463.38,978.059 1463.09,978.497C1462.81,978.935 1462.4,979.275 1461.87,979.519C1461.34,979.762 1460.74,979.884 1460.08,979.884C1459.24,979.884 1458.53,979.761 1457.96,979.516C1457.39,979.27 1456.95,978.901 1456.62,978.408C1456.3,977.915 1456.13,977.357 1456.11,976.735Z" style="fill:rgb(252,252,252);fill-rule:nonzero;"/>
            <path d="M1464.78,976.735L1465.94,976.634C1466,977.099 1466.13,977.481 1466.33,977.78C1466.53,978.078 1466.84,978.319 1467.26,978.503C1467.69,978.687 1468.16,978.779 1468.69,978.779C1469.16,978.779 1469.58,978.709 1469.94,978.57C1470.3,978.43 1470.56,978.239 1470.74,977.995C1470.91,977.752 1471,977.486 1471,977.199C1471,976.907 1470.92,976.652 1470.75,976.434C1470.58,976.216 1470.3,976.033 1469.91,975.885C1469.66,975.787 1469.11,975.636 1468.26,975.431C1467.4,975.226 1466.8,975.032 1466.46,974.85C1466.01,974.617 1465.68,974.329 1465.46,973.984C1465.25,973.639 1465.14,973.253 1465.14,972.825C1465.14,972.355 1465.27,971.916 1465.54,971.508C1465.8,971.1 1466.19,970.79 1466.71,970.578C1467.22,970.367 1467.79,970.261 1468.41,970.261C1469.1,970.261 1469.71,970.372 1470.24,970.594C1470.77,970.816 1471.17,971.143 1471.45,971.575C1471.74,972.006 1471.89,972.495 1471.91,973.041L1470.73,973.13C1470.67,972.542 1470.45,972.097 1470.09,971.797C1469.72,971.496 1469.18,971.346 1468.46,971.346C1467.72,971.346 1467.18,971.483 1466.84,971.756C1466.5,972.029 1466.33,972.358 1466.33,972.743C1466.33,973.077 1466.45,973.352 1466.69,973.568C1466.92,973.784 1467.54,974.005 1468.54,974.231C1469.54,974.458 1470.23,974.655 1470.6,974.825C1471.14,975.074 1471.55,975.391 1471.8,975.774C1472.06,976.157 1472.19,976.598 1472.19,977.097C1472.19,977.592 1472.05,978.059 1471.77,978.497C1471.48,978.935 1471.07,979.275 1470.54,979.519C1470.01,979.762 1469.41,979.884 1468.75,979.884C1467.91,979.884 1467.2,979.761 1466.63,979.516C1466.06,979.27 1465.62,978.901 1465.29,978.408C1464.97,977.915 1464.8,977.357 1464.78,976.735Z" style="fill:rgb(252,252,252);fill-rule:nonzero;"/>
        </g>
    </g>
</svg>
