<?xml version="1.0" standalone="no"?>
<!DOCTYPE svg PUBLIC "-//W3C//DTD SVG 1.1//EN" "http://www.w3.org/Graphics/SVG/1.1/DTD/svg11.dtd">
<svg width="100%" height="100%" viewBox="0 0 1280 1150" version="1.1" xmlns="http://www.w3.org/2000/svg" xmlns:xlink="http://www.w3.org/1999/xlink" xml:space="preserve" style="fill-rule:evenodd;clip-rule:evenodd;stroke-linejoin:round;stroke-miterlimit:1.41421;">
    <g id="Bullet links">
        <path d="M41.125,592.201L91.872,481.407C93.166,478.58 95.843,476.542 98.726,475.152L148.587,451.101L436.644,451.101L486.62,475.152C489.664,476.617 492.139,478.581 493.44,481.407L544.434,592.201L41.125,592.201Z" style="fill:rgb(190,190,189);stroke-width:1px;stroke:black;"/>
        <path d="M48.159,754.253C43.239,754.253 39.305,747.427 39.305,741.642L39.305,599.636C39.305,592.663 44.202,585.622 51.485,582.254L110.554,554.94C115.99,552.427 122.152,551.856 128.165,551.856L455.44,551.856C466.614,551.856 471.974,553.672 481.698,558.174L533.856,582.254C542.058,586.041 545.939,592.16 545.939,599.636L545.939,741.642C545.939,749.899 541.094,754.253 530.891,754.253L48.159,754.253Z" style="fill:rgb(181,182,180);stroke-width:1px;stroke:black;"/>
        <path d="M49.752,744.007L49.752,598.108C49.71,594.775 51.98,592.5 55.83,590.95L115.008,563.92C118.949,562.121 123.644,561.863 128.611,561.863L458.791,561.863C462.771,561.863 466.835,562.385 470.18,563.92L529.07,590.95C532.416,592.486 535.573,594.793 535.573,598.108L535.573,744.007L49.752,744.007Z" style="fill:rgb(170,170,169);stroke-width:1px;stroke:black;"/>
        <rect id="reset" x="212.881" y="603.974" width="21.39" height="11.617" style="fill:black;stroke-width:1px;stroke:black;"/>
        <g id="GPS">
            <g transform="matrix(1,0,0,1.02887,0,-19.1175)">
                <ellipse cx="412.237" cy="631.832" rx="33.481" ry="30.4" style="fill:rgb(185,142,55);stroke-width:0.1px;stroke-linecap:round;stroke:black;"/>
            </g>
            <g transform="matrix(1,0,0,0.976018,0,15.8814)">
                <ellipse cx="412.237" cy="631.832" rx="33.481" ry="30.4" style="fill:rgb(210,179,104);stroke-width:0.1px;stroke-linecap:round;stroke:black;"/>
            </g>
            <g transform="matrix(0.708147,-0.708147,1.26663,1.26663,-684.766,123.926)">
                <ellipse cx="413.768" cy="635.77" rx="20.501" ry="12.287" style="fill:rgb(216,187,115);stroke-width:0.07px;stroke-linecap:round;stroke:black;"/>
            </g>
            <g id="(Ellipse)" transform="matrix(0.920376,0,0,1.4772,34.511,-299.835)">
                <ellipse cx="413.768" cy="635.77" rx="20.501" ry="12.287" style="fill:rgb(202,167,84);stroke-width:0.08px;stroke-linecap:round;stroke:black;"/>
            </g>
            <g transform="matrix(1.07414,0,0,1.23235,-30.6211,-146.124)">
                <ellipse cx="414.935" cy="637.174" rx="14.399" ry="11.852" style="fill:rgb(250,219,120);stroke-width:0.09px;stroke-linecap:round;stroke:black;"/>
            </g>
            <g transform="matrix(0.93907,0,0,1.06006,25.0865,-38.387)">
                <ellipse cx="414.935" cy="637.174" rx="14.399" ry="11.852" style="fill:white;stroke-width:0.1px;stroke-linecap:round;stroke:black;"/>
            </g>
            <ellipse cx="414.45" cy="637.229" rx="1.749" ry="1.53" style="fill:rgb(186,143,64);stroke-width:0.1px;stroke-linecap:round;stroke:black;"/>
        </g>
        <g>
            <path d="M436.644,451.101L467.584,552.842" style="fill:rgb(170,170,169);stroke-width:1px;stroke:black;"/>
            <path d="M148.587,451.101L117.799,552.614" style="fill:rgb(170,170,169);stroke-width:1px;stroke:black;"/>
        </g>
        <g id="LAN">
            <rect x="125.462" y="625.276" width="196.968" height="80.212" style="fill:rgb(170,170,169);stroke-width:1px;stroke-linecap:round;stroke:black;"/>
            <g transform="matrix(0.336147,0,0,0.327293,-24.5778,451.75)">
                <path d="M500.826,597.447L500.826,729.999L727.358,729.999L727.358,597.447L690.744,597.447L690.744,562.703L656.263,562.703L656.263,534.994L569.758,534.994L569.758,562.703L537.669,562.703L537.669,597.447L500.826,597.447Z" style="fill:black;stroke-width:3.01px;stroke-linecap:round;stroke:black;"/>
                <g>
                    <path d="M554.209,632.385C554.209,631.549 553.548,630.87 552.734,630.87L549.784,630.87C548.97,630.87 548.309,631.549 548.309,632.385L548.309,714.104C548.309,714.94 548.97,715.619 549.784,715.619L552.734,715.619C553.548,715.619 554.209,714.94 554.209,714.104L554.209,632.385Z" style="fill:url(#_Linear1);"/>
                    <g transform="matrix(1,0,0,1,20.1115,-0.240574)">
                        <path d="M554.209,632.385C554.209,631.549 553.548,630.87 552.734,630.87L549.784,630.87C548.97,630.87 548.309,631.549 548.309,632.385L548.309,714.104C548.309,714.94 548.97,715.619 549.784,715.619L552.734,715.619C553.548,715.619 554.209,714.94 554.209,714.104L554.209,632.385Z" style="fill:url(#_Linear2);"/>
                    </g>
                    <g transform="matrix(1,0,0,1,38.1953,0)">
                        <path d="M554.209,632.385C554.209,631.549 553.548,630.87 552.734,630.87L549.784,630.87C548.97,630.87 548.309,631.549 548.309,632.385L548.309,714.104C548.309,714.94 548.97,715.619 549.784,715.619L552.734,715.619C553.548,715.619 554.209,714.94 554.209,714.104L554.209,632.385Z" style="fill:url(#_Linear3);"/>
                    </g>
                    <g transform="matrix(1,0,0,1,57.9658,0)">
                        <path d="M554.209,632.385C554.209,631.549 553.548,630.87 552.734,630.87L549.784,630.87C548.97,630.87 548.309,631.549 548.309,632.385L548.309,714.104C548.309,714.94 548.97,715.619 549.784,715.619L552.734,715.619C553.548,715.619 554.209,714.94 554.209,714.104L554.209,632.385Z" style="fill:url(#_Linear4);"/>
                    </g>
                    <g transform="matrix(1,0,0,1,76.3136,0)">
                        <path d="M554.209,632.385C554.209,631.549 553.548,630.87 552.734,630.87L549.784,630.87C548.97,630.87 548.309,631.549 548.309,632.385L548.309,714.104C548.309,714.94 548.97,715.619 549.784,715.619L552.734,715.619C553.548,715.619 554.209,714.94 554.209,714.104L554.209,632.385Z" style="fill:url(#_Linear5);"/>
                    </g>
                    <g transform="matrix(1,0,0,1,95.5008,0)">
                        <path d="M554.209,632.385C554.209,631.549 553.548,630.87 552.734,630.87L549.784,630.87C548.97,630.87 548.309,631.549 548.309,632.385L548.309,714.104C548.309,714.94 548.97,715.619 549.784,715.619L552.734,715.619C553.548,715.619 554.209,714.94 554.209,714.104L554.209,632.385Z" style="fill:url(#_Linear6);"/>
                    </g>
                    <g transform="matrix(1,0,0,1,114.936,0)">
                        <path d="M554.209,632.385C554.209,631.549 553.548,630.87 552.734,630.87L549.784,630.87C548.97,630.87 548.309,631.549 548.309,632.385L548.309,714.104C548.309,714.94 548.97,715.619 549.784,715.619L552.734,715.619C553.548,715.619 554.209,714.94 554.209,714.104L554.209,632.385Z" style="fill:url(#_Linear7);"/>
                    </g>
                    <g transform="matrix(1,0,0,1,132.667,0)">
                        <path d="M554.209,632.385C554.209,631.549 553.548,630.87 552.734,630.87L549.784,630.87C548.97,630.87 548.309,631.549 548.309,632.385L548.309,714.104C548.309,714.94 548.97,715.619 549.784,715.619L552.734,715.619C553.548,715.619 554.209,714.94 554.209,714.104L554.209,632.385Z" style="fill:url(#_Linear8);"/>
                    </g>
                </g>
            </g>
            <g transform="matrix(0.336147,0,0,0.327293,63.4238,451.75)">
                <path d="M500.826,597.447L500.826,729.999L727.358,729.999L727.358,597.447L690.744,597.447L690.744,562.703L656.263,562.703L656.263,534.994L569.758,534.994L569.758,562.703L537.669,562.703L537.669,597.447L500.826,597.447Z" style="fill:black;stroke-width:3.01px;stroke-linecap:round;stroke:black;"/>
                <g>
                    <path d="M554.209,632.385C554.209,631.549 553.548,630.87 552.734,630.87L549.784,630.87C548.97,630.87 548.309,631.549 548.309,632.385L548.309,714.104C548.309,714.94 548.97,715.619 549.784,715.619L552.734,715.619C553.548,715.619 554.209,714.94 554.209,714.104L554.209,632.385Z" style="fill:url(#_Linear9);"/>
                    <g transform="matrix(1,0,0,1,20.1115,-0.240574)">
                        <path d="M554.209,632.385C554.209,631.549 553.548,630.87 552.734,630.87L549.784,630.87C548.97,630.87 548.309,631.549 548.309,632.385L548.309,714.104C548.309,714.94 548.97,715.619 549.784,715.619L552.734,715.619C553.548,715.619 554.209,714.94 554.209,714.104L554.209,632.385Z" style="fill:url(#_Linear10);"/>
                    </g>
                    <g transform="matrix(1,0,0,1,38.1953,0)">
                        <path d="M554.209,632.385C554.209,631.549 553.548,630.87 552.734,630.87L549.784,630.87C548.97,630.87 548.309,631.549 548.309,632.385L548.309,714.104C548.309,714.94 548.97,715.619 549.784,715.619L552.734,715.619C553.548,715.619 554.209,714.94 554.209,714.104L554.209,632.385Z" style="fill:url(#_Linear11);"/>
                    </g>
                    <g transform="matrix(1,0,0,1,57.9658,0)">
                        <path d="M554.209,632.385C554.209,631.549 553.548,630.87 552.734,630.87L549.784,630.87C548.97,630.87 548.309,631.549 548.309,632.385L548.309,714.104C548.309,714.94 548.97,715.619 549.784,715.619L552.734,715.619C553.548,715.619 554.209,714.94 554.209,714.104L554.209,632.385Z" style="fill:url(#_Linear12);"/>
                    </g>
                    <g transform="matrix(1,0,0,1,76.3136,0)">
                        <path d="M554.209,632.385C554.209,631.549 553.548,630.87 552.734,630.87L549.784,630.87C548.97,630.87 548.309,631.549 548.309,632.385L548.309,714.104C548.309,714.94 548.97,715.619 549.784,715.619L552.734,715.619C553.548,715.619 554.209,714.94 554.209,714.104L554.209,632.385Z" style="fill:url(#_Linear13);"/>
                    </g>
                    <g transform="matrix(1,0,0,1,95.5008,0)">
                        <path d="M554.209,632.385C554.209,631.549 553.548,630.87 552.734,630.87L549.784,630.87C548.97,630.87 548.309,631.549 548.309,632.385L548.309,714.104C548.309,714.94 548.97,715.619 549.784,715.619L552.734,715.619C553.548,715.619 554.209,714.94 554.209,714.104L554.209,632.385Z" style="fill:url(#_Linear14);"/>
                    </g>
                    <g transform="matrix(1,0,0,1,114.936,0)">
                        <path d="M554.209,632.385C554.209,631.549 553.548,630.87 552.734,630.87L549.784,630.87C548.97,630.87 548.309,631.549 548.309,632.385L548.309,714.104C548.309,714.94 548.97,715.619 549.784,715.619L552.734,715.619C553.548,715.619 554.209,714.94 554.209,714.104L554.209,632.385Z" style="fill:url(#_Linear15);"/>
                    </g>
                    <g transform="matrix(1,0,0,1,132.667,0)">
                        <path d="M554.209,632.385C554.209,631.549 553.548,630.87 552.734,630.87L549.784,630.87C548.97,630.87 548.309,631.549 548.309,632.385L548.309,714.104C548.309,714.94 548.97,715.619 549.784,715.619L552.734,715.619C553.548,715.619 554.209,714.94 554.209,714.104L554.209,632.385Z" style="fill:url(#_Linear16);"/>
                    </g>
                </g>
            </g>
        </g>
        <g id="(Gruppe)">
            <g transform="matrix(1,0,0,1,0,-57.6293)">
                <path d="M44.401,837.932L44.401,830.542L56.007,772.729L89.473,772.729C95.063,773.575 96.603,775.516 97.879,780.521L206.903,780.521C206.903,778.755 212.042,772.729 214.297,772.729L237.392,772.729C241.018,772.729 245.03,778.193 244.869,780.521L340.296,780.521C340.296,777.317 344.187,772.729 347.621,772.729L369.884,772.729C373.758,772.729 378.434,779.128 378.434,780.521L487.376,780.521C487.376,776.274 492.104,772.729 497.127,772.729L529.216,772.729L540.747,830.542L540.747,837.932L507.179,845.988L79.751,845.988L44.401,837.932Z" style="fill:rgb(217,217,217);stroke-width:1px;stroke:black;"/>
            </g>
            <path d="M44.401,772.729C44.401,776.484 47.428,777.455 50.983,777.455L71.676,777.455C78.212,777.455 80.022,781.476 80.022,787.621L207.224,787.621C207.224,780.679 210.196,772.729 214.297,772.729L232.956,772.729C236.602,772.729 237.768,782.188 237.768,787.621L347.031,787.621C347.031,782.525 348.927,772.729 352.362,772.729L371.867,772.729C375.882,772.729 378.249,782.034 378.249,787.621L505.004,787.621C505.004,783.375 507.79,777.455 512.814,777.455L534.362,777.455C537.267,777.455 540.699,775.033 540.699,772.729L540.699,784.401C540.699,786.174 536.511,787.621 534.362,787.621L513.95,787.621L513.95,800.007L71.676,800.007L71.676,787.621L50.983,787.621C48.115,787.621 44.401,785.484 44.401,784.401L44.401,772.729Z" style="fill:rgb(230,230,230);stroke-width:1px;stroke:black;"/>
            <g id="lines">
                <path d="M497.127,715.1L512.814,777.455" style="fill:none;stroke-width:1px;stroke:black;"/>
                <path d="M487.376,722.891L505.004,787.621" style="fill:none;stroke-width:1px;stroke:black;"/>
                <path d="M378.434,722.891L378.434,787.621" style="fill:none;stroke-width:1px;stroke:black;"/>
                <path d="M371.867,772.729L369.884,715.1" style="fill:none;stroke-width:1px;stroke:black;"/>
                <path d="M352.362,772.729L347.621,715.1" style="fill:none;stroke-width:1px;stroke:black;"/>
                <path d="M340.296,722.891L347.031,787.621" style="fill:none;stroke-width:1px;stroke:black;"/>
                <path d="M214.297,715.1L214.297,772.729" style="fill:none;stroke-width:1px;stroke:black;"/>
                <path d="M232.956,772.729L237.768,715.1" style="fill:none;stroke-width:1px;stroke:black;"/>
                <path d="M244.869,722.891L237.768,787.621" style="fill:none;stroke-width:1px;stroke:black;"/>
                <path d="M207.224,722.891L207.224,787.621" style="fill:none;stroke-width:1px;stroke:black;"/>
                <path d="M80.022,787.621L97.879,722.891" style="fill:none;stroke-width:1px;stroke:black;"/>
                <path d="M71.676,777.455L89.473,715.1" style="fill:none;stroke-width:1px;stroke:black;"/>
            </g>
        </g>
        <path d="M299.943,474.316C301.627,474.316 303.95,474.873 304.264,476.5L312.81,520.796C313.351,523.599 313.402,524.364 307.477,524.364L230.619,524.364C222.55,524.364 222.486,522.768 222.566,520.796L224.372,476.5C224.436,474.913 226.479,474.316 227.771,474.316L299.943,474.316Z" style="fill:none;stroke-width:0.5px;stroke:black;"/>
    </g>
    <path d="M240.003,477.277L252.147,477.277L252.147,502.861L240.003,477.277Z" style="fill:rgb(61,61,60);stroke-width:0.1px;stroke:black;"/>
    <g id="Bullet rechts">
        <path d="M583.366,657.57L547.931,813.253L590.053,857.529L1193.03,857.529L1242,813.253L1209.72,656.787L583.366,657.57Z" style="fill:rgb(229,229,228);stroke-width:1px;stroke-linecap:round;stroke:black;"/>
        <path d="M633.372,701.673L610.425,854.347L1182.08,854.347L1155.31,689.022L640.322,689.022L633.372,701.673Z" style="fill:rgb(201,202,200);stroke-width:1px;stroke-linecap:round;stroke:black;"/>
        <path d="M583.36,618.396L654.561,245.339C656.609,230.25 667.756,221.665 686.9,218.794C824.41,200.903 963.131,197.409 1103.94,218.794C1124.62,222.468 1133.62,232.337 1136.7,245.339L1207.31,618.396C1207.31,618.396 585.804,618.396 583.36,618.396Z" style="fill:rgb(216,217,216);stroke-width:1px;stroke-linecap:round;stroke:black;"/>
        <path d="M633.343,702.883L1157.42,702.883L1205.44,656.735L1209.69,656.735C1209.09,645.358 1208.87,636.472 1208.19,625.117C1206.81,601.796 1189.46,587.549 1167.28,584.516C1096.82,571.873 1026.73,566.615 955.053,564.937L839.333,565.303C766.794,565.391 694.869,571.411 622.873,583.911C596.676,588.459 583.29,597.409 583.36,618.396L583.36,657.579L633.343,702.883Z" style="fill:rgb(241,239,238);stroke-width:1px;stroke-linecap:round;stroke:black;"/>
        <path d="M633.343,702.883L1157.42,702.883L1197.62,667.333L1197.62,629.16C1196.24,605.84 1179.59,597.414 1157.42,594.38C1086.95,581.737 1015.52,577.822 943.847,576.143L850.173,576.143C777.635,576.232 705.338,581.881 633.343,594.38C607.145,598.929 594.054,608.174 594.124,629.16L594.124,667.333L633.343,702.883Z" style="fill:url(#_Linear17);stroke-width:1px;stroke-linecap:round;stroke:black;"/>
        <g id="schiene rechts">
            <path d="M1232.88,799.419L1232.88,806.756L1222.81,806.756L1222.81,818.084L1213.39,818.084L1213.39,799.419L1232.88,799.419Z" style="fill:rgb(181,182,180);stroke-width:1px;stroke-linecap:round;stroke:black;"/>
            <path d="M1203.78,818.084L1179.55,683.375L1179.55,619.316L1213.36,799.428L1213.36,818.084L1203.78,818.084Z" style="fill:rgb(211,212,211);stroke-width:1px;stroke-linecap:round;stroke:black;"/>
            <path d="M1195.91,619.316L1179.55,619.316L1213.37,799.425L1232.88,799.425L1199.36,624.414L1197.11,624.414C1197.11,622.615 1196.57,621.19 1195.91,619.316Z" style="fill:rgb(229,229,228);stroke-width:1px;stroke-linecap:round;stroke:black;"/>
        </g>
        <g id="schiene rechts1" transform="matrix(-1,0,0,1,1789.93,0)">
            <path d="M1232.88,799.419L1232.88,806.756L1222.81,806.756L1222.81,818.084L1213.39,818.084L1213.39,799.419L1232.88,799.419Z" style="fill:rgb(181,182,180);stroke-width:1px;stroke-linecap:round;stroke:black;"/>
            <path d="M1203.78,818.084L1179.55,683.375L1179.55,619.316L1213.36,799.428L1213.36,818.084L1203.78,818.084Z" style="fill:rgb(211,212,211);stroke-width:1px;stroke-linecap:round;stroke:black;"/>
            <path d="M1194.7,619.316L1179.55,619.316L1213.37,799.425L1232.88,799.425L1199.36,624.414L1195.52,624.414C1195.52,622.287 1195.11,621.866 1194.7,619.316Z" style="fill:rgb(229,229,228);stroke-width:1px;stroke-linecap:round;stroke:black;"/>
        </g>
        <g id="Reset">
            <rect x="1105.54" y="625.19" width="29.257" height="14.08" style="fill:none;stroke-width:1px;stroke-linecap:round;stroke:black;"/>
            <g transform="matrix(1,0,0,0.541831,0,286.443)">
                <rect x="1105.54" y="625.19" width="29.257" height="14.08" style="fill:black;stroke-width:1.24px;stroke-linecap:round;stroke:black;"/>
            </g>
        </g>
        <g id="front">
            <g transform="matrix(1,0,0,1,15.5548,-8.60208)">
                <path d="M1226.45,821.85L795.837,821.85C795.837,851.733 751.035,851.892 751.035,821.85L532.366,821.85L532.366,830.451C534.574,849.376 546.88,881.173 567.45,890.702L699.838,952.026C711.3,957.336 719.602,955.79 735.722,952.026L865.21,921.791C874.303,919.668 883.408,919.548 893.116,921.791L1023.95,952.026C1036.14,954.844 1048.74,957.6 1060.7,952.026L1192.27,890.702C1205.55,884.513 1224.36,852.381 1226.45,830.451L1226.45,821.85Z" style="fill:rgb(241,239,238);stroke-width:1px;stroke-linecap:round;stroke:black;"/>
            </g>
            <g transform="matrix(1,0,0,1,15.5548,0)">
                <path d="M1226.45,821.85L795.837,821.85C795.837,851.733 751.035,851.892 751.035,821.85L532.366,821.85L536.001,853.006C538.209,871.931 546.88,881.173 567.45,890.702L699.838,952.026C711.3,957.336 719.602,955.79 735.722,952.026L865.21,921.791C874.303,919.668 883.408,919.548 893.116,921.791L1023.95,952.026C1036.14,954.844 1048.74,957.6 1060.7,952.026L1192.27,890.702C1205.55,884.513 1221.4,874.936 1223.49,853.006L1226.45,821.85Z" style="fill:rgb(176,176,175);stroke-width:1px;stroke-linecap:round;stroke:black;"/>
            </g>
            <g id="font 2 linien">
                <path d="M811.392,813.248L811.392,821.848" style="fill:none;stroke-width:1px;stroke-linecap:round;stroke:black;"/>
                <path d="M766.59,813.248L766.59,821.848" style="fill:none;stroke-width:1px;stroke-linecap:round;stroke:black;"/>
            </g>
            <g>
                <g transform="matrix(0.88226,0,0,1,86.2881,0)">
                    <ellipse cx="729.395" cy="927.203" rx="8.575" ry="5.588" style="fill:rgb(241,239,238);stroke-width:1.06px;stroke-linecap:round;stroke:black;"/>
                </g>
                <g transform="matrix(0.783646,0,0,0.696204,158.223,279.983)">
                    <ellipse cx="729.395" cy="927.203" rx="8.575" ry="5.588" style="fill:rgb(201,202,200);stroke-width:1.35px;stroke-linecap:round;stroke:black;"/>
                </g>
            </g>
            <g transform="matrix(1,0,0,1,336.038,0)">
                <g transform="matrix(0.88226,0,0,1,86.2881,0)">
                    <ellipse cx="729.395" cy="927.203" rx="8.575" ry="5.588" style="fill:rgb(241,239,238);stroke-width:1.06px;stroke-linecap:round;stroke:black;"/>
                </g>
                <g transform="matrix(0.783646,0,0,0.696204,158.223,279.983)">
                    <ellipse cx="729.395" cy="927.203" rx="8.575" ry="5.588" style="fill:rgb(201,202,200);stroke-width:1.35px;stroke-linecap:round;stroke:black;"/>
                </g>
            </g>
        </g>
        <g id="Anzeige">
            <path d="M738.107,471.146L1050.34,471.146C944.525,465.513 840.636,466.124 738.107,471.146Z" style="fill:rgb(181,182,180);stroke-width:1px;stroke:black;"/>
            <path d="M734.011,522.654C841.79,518.64 949.613,518.237 1057.49,522.654C1062.34,522.298 1065.81,520.328 1067.46,516.266L1063.11,477.261C1059.84,472.848 1055.12,471.47 1049.89,471.181L738.337,471.181C733.607,471.022 730.044,473.116 727.544,477.261L722.905,516.266C723.326,520.216 726.734,522.508 734.011,522.654Z" style="fill:none;stroke-width:1px;stroke:black;"/>
        </g>
        <g transform="matrix(1,0,0,1.00656,0,-5.32956)">
            <path d="M1223.31,812.747L1223.31,813.748L1241.5,813.748L1241.38,812.747L1223.31,812.747Z" style="fill:url(#_Linear18);"/>
        </g>
        <g transform="matrix(-0.999637,0,0,1.00656,1789.49,-5.32956)">
            <path d="M1223.31,812.747L1223.31,813.748L1241.52,813.748L1241.38,812.747L1223.31,812.747Z" style="fill:url(#_Linear19);"/>
        </g>
        <g id="LAN rechts" transform="matrix(0.401968,0,0,0.338314,543.937,453.116)">
            <g transform="matrix(2.80113,0,0,2.48628,-1595.63,-1009.35)">
                <rect x="740.742" y="604.188" width="97.412" height="98.569" style="fill:rgb(241,239,238);stroke-width:1.01px;stroke-linecap:round;stroke:black;"/>
            </g>
            <g transform="matrix(1,0,0,1,0.448016,-16.3012)">
                <path d="M500.826,597.447L500.826,729.999L727.358,729.999L727.358,597.447L690.744,597.447L690.744,562.703L656.263,562.703L656.263,534.994L569.758,534.994L569.758,562.703L537.669,562.703L537.669,597.447L500.826,597.447Z" style="fill:black;stroke-width:2.42px;stroke-linecap:round;stroke:black;"/>
                <g transform="matrix(2.32486,0,0,2.92652,-1230.98,-1317.53)">
                    <rect x="745.442" y="655.542" width="4.667" height="43.399" style="fill:rgb(179,179,179);"/>
                </g>
                <g transform="matrix(2.48776,0,0,2.95583,-1351.03,-1337.35)">
                    <path d="M749.247,654.888L745.786,654.888C744.886,654.888 744.886,654.89 744.886,655.747L749.247,655.747L749.247,654.888Z" style="fill:rgb(179,179,179);"/>
                </g>
                <g transform="matrix(2.48776,0,0,2.95583,-1353.18,-1339.33)">
                    <path d="M745.848,699.426L750.225,663.354L835.578,663.354L835.578,699.426L745.848,699.426Z" style="fill:rgb(179,179,179);stroke-width:0.2px;stroke-linecap:round;stroke:black;"/>
                </g>
                <g>
                    <path d="M554.209,632.623C554.209,631.655 553.548,630.87 552.734,630.87L549.784,630.87C548.97,630.87 548.309,631.655 548.309,632.623L548.309,713.866C548.309,714.833 548.97,715.619 549.784,715.619L552.734,715.619C553.548,715.619 554.209,714.833 554.209,713.866L554.209,632.623Z" style="fill:url(#_Linear20);"/>
                    <g transform="matrix(1,0,0,1,20.1115,-0.240574)">
                        <path d="M554.209,632.623C554.209,631.655 553.548,630.87 552.734,630.87L549.784,630.87C548.97,630.87 548.309,631.655 548.309,632.623L548.309,713.866C548.309,714.833 548.97,715.619 549.784,715.619L552.734,715.619C553.548,715.619 554.209,714.833 554.209,713.866L554.209,632.623Z" style="fill:url(#_Linear21);"/>
                    </g>
                    <g transform="matrix(1,0,0,1,38.1953,0)">
                        <path d="M554.209,632.623C554.209,631.655 553.548,630.87 552.734,630.87L549.784,630.87C548.97,630.87 548.309,631.655 548.309,632.623L548.309,713.866C548.309,714.833 548.97,715.619 549.784,715.619L552.734,715.619C553.548,715.619 554.209,714.833 554.209,713.866L554.209,632.623Z" style="fill:url(#_Linear22);"/>
                    </g>
                    <g transform="matrix(1,0,0,1,57.9658,0)">
                        <path d="M554.209,632.623C554.209,631.655 553.548,630.87 552.734,630.87L549.784,630.87C548.97,630.87 548.309,631.655 548.309,632.623L548.309,713.866C548.309,714.833 548.97,715.619 549.784,715.619L552.734,715.619C553.548,715.619 554.209,714.833 554.209,713.866L554.209,632.623Z" style="fill:url(#_Linear23);"/>
                    </g>
                    <g transform="matrix(1,0,0,1,76.3136,0)">
                        <path d="M554.209,632.623C554.209,631.655 553.548,630.87 552.734,630.87L549.784,630.87C548.97,630.87 548.309,631.655 548.309,632.623L548.309,713.866C548.309,714.833 548.97,715.619 549.784,715.619L552.734,715.619C553.548,715.619 554.209,714.833 554.209,713.866L554.209,632.623Z" style="fill:url(#_Linear24);"/>
                    </g>
                    <g transform="matrix(1,0,0,1,95.5008,0)">
                        <path d="M554.209,632.623C554.209,631.655 553.548,630.87 552.734,630.87L549.784,630.87C548.97,630.87 548.309,631.655 548.309,632.623L548.309,713.866C548.309,714.833 548.97,715.619 549.784,715.619L552.734,715.619C553.548,715.619 554.209,714.833 554.209,713.866L554.209,632.623Z" style="fill:url(#_Linear25);"/>
                    </g>
                    <g transform="matrix(1,0,0,1,114.936,0)">
                        <path d="M554.209,632.623C554.209,631.655 553.548,630.87 552.734,630.87L549.784,630.87C548.97,630.87 548.309,631.655 548.309,632.623L548.309,713.866C548.309,714.833 548.97,715.619 549.784,715.619L552.734,715.619C553.548,715.619 554.209,714.833 554.209,713.866L554.209,632.623Z" style="fill:url(#_Linear26);"/>
                    </g>
                    <g transform="matrix(1,0,0,1,132.667,0)">
                        <path d="M554.209,632.623C554.209,631.655 553.548,630.87 552.734,630.87L549.784,630.87C548.97,630.87 548.309,631.655 548.309,632.623L548.309,713.866C548.309,714.833 548.97,715.619 549.784,715.619L552.734,715.619C553.548,715.619 554.209,714.833 554.209,713.866L554.209,632.623Z" style="fill:url(#_Linear27);"/>
                    </g>
                </g>
            </g>
        </g>
    </g>
    <g id="Beschriftung links">
        <g transform="matrix(1,0,0,1,-1.36776,13.1944)">
            <path d="M210.573,581.182L210.573,572.592L214.382,572.592C215.148,572.592 215.73,572.67 216.128,572.824C216.527,572.978 216.845,573.251 217.083,573.641C217.321,574.032 217.441,574.463 217.441,574.936C217.441,575.546 217.243,576.059 216.849,576.477C216.454,576.895 215.845,577.161 215.021,577.274C215.321,577.419 215.55,577.561 215.706,577.702C216.038,578.006 216.353,578.387 216.65,578.844L218.144,581.182L216.714,581.182L215.577,579.395C215.245,578.879 214.972,578.485 214.757,578.212C214.542,577.938 214.35,577.747 214.18,577.637C214.01,577.528 213.837,577.452 213.661,577.409C213.532,577.381 213.321,577.368 213.028,577.368L211.71,577.368L211.71,581.182L210.573,581.182ZM211.71,576.383L214.153,576.383C214.673,576.383 215.079,576.33 215.372,576.222C215.665,576.115 215.888,575.943 216.04,575.707C216.193,575.47 216.269,575.213 216.269,574.936C216.269,574.53 216.121,574.196 215.826,573.934C215.531,573.672 215.066,573.542 214.429,573.542L211.71,573.542L211.71,576.383Z" style="fill:black;fill-rule:nonzero;"/>
            <path d="M223.347,579.178L224.437,579.313C224.265,579.95 223.946,580.444 223.482,580.796C223.017,581.147 222.423,581.323 221.7,581.323C220.79,581.323 220.068,581.043 219.535,580.482C219.002,579.921 218.735,579.135 218.735,578.124C218.735,577.077 219.005,576.264 219.544,575.686C220.083,575.108 220.782,574.819 221.642,574.819C222.474,574.819 223.153,575.102 223.681,575.669C224.208,576.235 224.472,577.032 224.472,578.059C224.472,578.122 224.47,578.215 224.466,578.34L219.825,578.34C219.864,579.024 220.058,579.547 220.405,579.911C220.753,580.274 221.187,580.456 221.706,580.456C222.093,580.456 222.423,580.354 222.696,580.151C222.97,579.948 223.187,579.624 223.347,579.178ZM219.884,577.473L223.359,577.473C223.312,576.95 223.179,576.557 222.96,576.296C222.624,575.889 222.189,575.686 221.653,575.686C221.169,575.686 220.762,575.848 220.432,576.172C220.102,576.497 219.919,576.93 219.884,577.473Z" style="fill:black;fill-rule:nonzero;"/>
            <path d="M225.339,579.325L226.382,579.161C226.441,579.579 226.604,579.899 226.871,580.122C227.139,580.344 227.513,580.456 227.993,580.456C228.478,580.456 228.837,580.357 229.071,580.16C229.306,579.963 229.423,579.731 229.423,579.465C229.423,579.227 229.319,579.04 229.112,578.903C228.968,578.809 228.609,578.69 228.034,578.546C227.261,578.35 226.725,578.181 226.426,578.039C226.127,577.896 225.901,577.699 225.746,577.447C225.592,577.195 225.515,576.917 225.515,576.612C225.515,576.335 225.578,576.078 225.705,575.841C225.832,575.605 226.005,575.409 226.224,575.253C226.388,575.131 226.611,575.029 226.895,574.945C227.178,574.861 227.482,574.819 227.806,574.819C228.294,574.819 228.723,574.889 229.092,575.03C229.461,575.171 229.734,575.361 229.909,575.601C230.085,575.841 230.206,576.163 230.273,576.565L229.241,576.706C229.194,576.385 229.059,576.135 228.834,575.956C228.61,575.776 228.292,575.686 227.882,575.686C227.398,575.686 227.052,575.766 226.845,575.926C226.638,576.087 226.534,576.274 226.534,576.489C226.534,576.626 226.577,576.749 226.663,576.858C226.749,576.971 226.884,577.065 227.068,577.139C227.173,577.178 227.484,577.268 227.999,577.409C228.745,577.608 229.266,577.771 229.561,577.898C229.856,578.025 230.087,578.21 230.255,578.452C230.423,578.694 230.507,578.995 230.507,579.354C230.507,579.706 230.404,580.037 230.199,580.347C229.994,580.658 229.698,580.898 229.312,581.068C228.925,581.238 228.487,581.323 227.999,581.323C227.191,581.323 226.574,581.155 226.151,580.819C225.727,580.483 225.456,579.985 225.339,579.325Z" style="fill:black;fill-rule:nonzero;"/>
            <path d="M236.021,579.178L237.11,579.313C236.939,579.95 236.62,580.444 236.155,580.796C235.691,581.147 235.097,581.323 234.374,581.323C233.464,581.323 232.742,581.043 232.209,580.482C231.676,579.921 231.409,579.135 231.409,578.124C231.409,577.077 231.679,576.264 232.218,575.686C232.757,575.108 233.456,574.819 234.316,574.819C235.148,574.819 235.827,575.102 236.355,575.669C236.882,576.235 237.146,577.032 237.146,578.059C237.146,578.122 237.144,578.215 237.14,578.34L232.499,578.34C232.538,579.024 232.732,579.547 233.079,579.911C233.427,580.274 233.86,580.456 234.38,580.456C234.767,580.456 235.097,580.354 235.37,580.151C235.644,579.948 235.86,579.624 236.021,579.178ZM232.558,577.473L236.032,577.473C235.985,576.95 235.853,576.557 235.634,576.296C235.298,575.889 234.862,575.686 234.327,575.686C233.843,575.686 233.436,575.848 233.106,576.172C232.776,576.497 232.593,576.93 232.558,577.473Z" style="fill:black;fill-rule:nonzero;"/>
            <path d="M240.737,580.239L240.89,581.171C240.593,581.233 240.327,581.264 240.093,581.264C239.71,581.264 239.413,581.204 239.202,581.083C238.991,580.962 238.843,580.802 238.757,580.605C238.671,580.408 238.628,579.993 238.628,579.36L238.628,575.78L237.855,575.78L237.855,574.96L238.628,574.96L238.628,573.419L239.677,572.786L239.677,574.96L240.737,574.96L240.737,575.78L239.677,575.78L239.677,579.419C239.677,579.719 239.695,579.913 239.733,579.999C239.77,580.085 239.83,580.153 239.914,580.204C239.998,580.254 240.118,580.28 240.275,580.28C240.392,580.28 240.546,580.266 240.737,580.239Z" style="fill:black;fill-rule:nonzero;"/>
        </g>
        <g transform="matrix(1,0,0,1,17.1477,5.06252)">
            <path d="M135.512,609.196L135.512,602.038L136.938,602.038L138.632,607.106C138.788,607.578 138.902,607.932 138.974,608.166C139.055,607.906 139.182,607.523 139.355,607.018L141.069,602.038L142.343,602.038L142.343,609.196L141.43,609.196L141.43,603.205L139.35,609.196L138.495,609.196L136.425,603.102L136.425,609.196L135.512,609.196Z" style="fill:black;fill-rule:nonzero;"/>
            <path d="M143.085,609.196L145.834,602.038L146.855,602.038L149.785,609.196L148.705,609.196L147.87,607.028L144.877,607.028L144.091,609.196L143.085,609.196ZM145.151,606.257L147.578,606.257L146.83,604.274C146.603,603.672 146.433,603.177 146.323,602.79C146.231,603.249 146.103,603.705 145.937,604.157L145.151,606.257Z" style="fill:black;fill-rule:nonzero;"/>
            <rect x="150.703" y="602.038" width="0.947" height="7.158" style="fill:black;fill-rule:nonzero;"/>
            <path d="M153.31,609.196L153.31,602.038L154.282,602.038L158.041,607.658L158.041,602.038L158.95,602.038L158.95,609.196L157.978,609.196L154.218,603.571L154.218,609.196L153.31,609.196Z" style="fill:black;fill-rule:nonzero;"/>
            <path d="M164.887,611.301C164.402,610.689 163.992,609.973 163.657,609.152C163.321,608.332 163.154,607.482 163.154,606.603C163.154,605.829 163.279,605.087 163.53,604.377C163.823,603.553 164.275,602.733 164.887,601.916L165.517,601.916C165.123,602.593 164.863,603.076 164.736,603.366C164.537,603.815 164.381,604.284 164.267,604.772C164.127,605.381 164.057,605.993 164.057,606.608C164.057,608.174 164.544,609.738 165.517,611.301L164.887,611.301Z" style="fill:black;fill-rule:nonzero;"/>
            <path d="M166.65,609.196L166.65,602.038L169.35,602.038C169.825,602.038 170.188,602.061 170.439,602.106C170.79,602.165 171.085,602.276 171.323,602.441C171.56,602.605 171.752,602.836 171.896,603.132C172.041,603.428 172.114,603.754 172.114,604.108C172.114,604.717 171.92,605.232 171.533,605.654C171.145,606.075 170.445,606.286 169.433,606.286L167.597,606.286L167.597,609.196L166.65,609.196ZM167.597,605.441L169.448,605.441C170.06,605.441 170.494,605.327 170.751,605.1C171.009,604.872 171.137,604.551 171.137,604.138C171.137,603.838 171.061,603.582 170.91,603.369C170.759,603.155 170.559,603.015 170.312,602.946C170.152,602.904 169.858,602.883 169.428,602.883L167.597,602.883L167.597,605.441Z" style="fill:black;fill-rule:nonzero;"/>
            <path d="M172.88,606.603C172.88,605.643 173.147,604.932 173.681,604.47C174.127,604.086 174.671,603.893 175.312,603.893C176.025,603.893 176.607,604.127 177.06,604.594C177.512,605.061 177.739,605.707 177.739,606.53C177.739,607.198 177.639,607.722 177.438,608.105C177.238,608.487 176.947,608.784 176.564,608.996C176.182,609.208 175.764,609.313 175.312,609.313C174.586,609.313 173.999,609.081 173.552,608.615C173.104,608.15 172.88,607.479 172.88,606.603ZM173.784,606.603C173.784,607.268 173.928,607.765 174.218,608.095C174.508,608.426 174.872,608.591 175.312,608.591C175.748,608.591 176.111,608.425 176.401,608.093C176.69,607.761 176.835,607.255 176.835,606.574C176.835,605.933 176.69,605.447 176.398,605.117C176.107,604.786 175.745,604.621 175.312,604.621C174.872,604.621 174.508,604.785 174.218,605.114C173.928,605.443 173.784,605.939 173.784,606.603Z" style="fill:black;fill-rule:nonzero;"/>
            <path d="M178.901,609.196L178.901,602.038L184.077,602.038L184.077,602.883L179.848,602.883L179.848,605.075L183.808,605.075L183.808,605.915L179.848,605.915L179.848,608.352L184.243,608.352L184.243,609.196L178.901,609.196Z" style="fill:black;fill-rule:nonzero;"/>
            <path d="M186.015,611.301L185.385,611.301C186.358,609.738 186.845,608.174 186.845,606.608C186.845,605.996 186.775,605.389 186.635,604.787C186.524,604.299 186.37,603.83 186.171,603.381C186.044,603.088 185.782,602.6 185.385,601.916L186.015,601.916C186.627,602.733 187.079,603.553 187.372,604.377C187.623,605.087 187.748,605.829 187.748,606.603C187.748,607.482 187.58,608.332 187.243,609.152C186.906,609.973 186.497,610.689 186.015,611.301Z" style="fill:black;fill-rule:nonzero;"/>
        </g>
        <g transform="matrix(1,0,0,1,-47.9909,24.0798)">
            <path d="M285.701,587.443L286.594,587.365C286.637,587.723 286.735,588.017 286.89,588.246C287.044,588.476 287.285,588.661 287.61,588.803C287.936,588.944 288.302,589.015 288.709,589.015C289.07,589.015 289.389,588.961 289.666,588.854C289.942,588.747 290.148,588.599 290.283,588.412C290.418,588.225 290.486,588.021 290.486,587.799C290.486,587.575 290.421,587.379 290.291,587.211C290.16,587.043 289.946,586.903 289.646,586.789C289.454,586.714 289.029,586.597 288.372,586.439C287.714,586.282 287.254,586.133 286.99,585.993C286.648,585.814 286.393,585.591 286.226,585.326C286.058,585.061 285.974,584.764 285.974,584.435C285.974,584.074 286.077,583.736 286.282,583.422C286.487,583.108 286.786,582.869 287.18,582.707C287.574,582.544 288.012,582.462 288.494,582.462C289.024,582.462 289.492,582.548 289.898,582.719C290.303,582.89 290.615,583.141 290.833,583.473C291.051,583.805 291.168,584.181 291.184,584.601L290.276,584.669C290.227,584.217 290.062,583.875 289.78,583.644C289.499,583.413 289.083,583.297 288.533,583.297C287.96,583.297 287.542,583.402 287.28,583.612C287.018,583.822 286.887,584.075 286.887,584.372C286.887,584.629 286.98,584.84 287.166,585.006C287.348,585.172 287.824,585.342 288.594,585.517C289.364,585.691 289.892,585.843 290.178,585.973C290.595,586.165 290.903,586.409 291.101,586.703C291.3,586.998 291.399,587.337 291.399,587.721C291.399,588.102 291.29,588.461 291.072,588.798C290.854,589.135 290.541,589.397 290.132,589.584C289.723,589.771 289.264,589.865 288.753,589.865C288.105,589.865 287.562,589.77 287.124,589.582C286.686,589.393 286.343,589.109 286.094,588.729C285.845,588.35 285.714,587.921 285.701,587.443Z" style="fill:black;fill-rule:nonzero;"/>
            <path d="M292.763,589.743L292.763,582.584L297.938,582.584L297.938,583.429L293.71,583.429L293.71,585.622L297.67,585.622L297.67,586.461L293.71,586.461L293.71,588.898L298.104,588.898L298.104,589.743L292.763,589.743Z" style="fill:black;fill-rule:nonzero;"/>
            <path d="M304.57,587.233L305.518,587.472C305.319,588.25 304.962,588.843 304.446,589.252C303.93,589.66 303.299,589.865 302.554,589.865C301.782,589.865 301.155,589.708 300.671,589.394C300.188,589.079 299.82,588.625 299.568,588.029C299.316,587.433 299.19,586.793 299.19,586.11C299.19,585.364 299.332,584.714 299.617,584.159C299.902,583.604 300.307,583.183 300.833,582.895C301.358,582.606 301.937,582.462 302.568,582.462C303.285,582.462 303.887,582.645 304.375,583.009C304.863,583.374 305.204,583.887 305.396,584.547L304.463,584.767C304.297,584.246 304.056,583.867 303.74,583.629C303.425,583.392 303.027,583.273 302.549,583.273C301.999,583.273 301.539,583.405 301.17,583.668C300.8,583.932 300.54,584.286 300.391,584.73C300.241,585.175 300.166,585.633 300.166,586.105C300.166,586.714 300.255,587.245 300.432,587.699C300.61,588.153 300.885,588.493 301.26,588.717C301.634,588.942 302.039,589.054 302.476,589.054C303.006,589.054 303.455,588.901 303.823,588.595C304.191,588.289 304.44,587.835 304.57,587.233Z" style="fill:black;fill-rule:nonzero;"/>
            <path d="M306.447,586.256C306.447,585.068 306.766,584.138 307.404,583.466C308.042,582.794 308.865,582.458 309.874,582.458C310.535,582.458 311.131,582.615 311.661,582.931C312.192,583.247 312.596,583.687 312.875,584.252C313.153,584.817 313.292,585.457 313.292,586.173C313.292,586.899 313.146,587.549 312.853,588.122C312.56,588.694 312.145,589.128 311.608,589.423C311.071,589.717 310.491,589.865 309.869,589.865C309.196,589.865 308.593,589.702 308.063,589.376C307.532,589.051 307.13,588.607 306.857,588.043C306.583,587.48 306.447,586.885 306.447,586.256ZM307.423,586.271C307.423,587.134 307.655,587.813 308.119,588.31C308.583,588.806 309.165,589.054 309.865,589.054C310.577,589.054 311.164,588.804 311.625,588.302C312.085,587.801 312.316,587.09 312.316,586.168C312.316,585.586 312.217,585.077 312.02,584.643C311.823,584.208 311.535,583.871 311.156,583.632C310.777,583.393 310.351,583.273 309.879,583.273C309.209,583.273 308.632,583.503 308.148,583.964C307.665,584.424 307.423,585.194 307.423,586.271Z" style="fill:black;fill-rule:nonzero;"/>
            <path d="M314.553,589.743L314.553,582.584L315.525,582.584L319.285,588.205L319.285,582.584L320.193,582.584L320.193,589.743L319.221,589.743L315.461,584.118L315.461,589.743L314.553,589.743Z" style="fill:black;fill-rule:nonzero;"/>
            <path d="M321.835,589.743L321.835,582.584L324.3,582.584C324.857,582.584 325.282,582.619 325.575,582.687C325.985,582.781 326.335,582.952 326.625,583.2C327.002,583.519 327.285,583.926 327.472,584.423C327.659,584.919 327.753,585.486 327.753,586.125C327.753,586.668 327.689,587.15 327.562,587.57C327.435,587.99 327.272,588.337 327.074,588.612C326.875,588.887 326.658,589.104 326.422,589.262C326.186,589.42 325.901,589.539 325.568,589.621C325.234,589.702 324.851,589.743 324.418,589.743L321.835,589.743ZM322.782,588.898L324.31,588.898C324.782,588.898 325.153,588.854 325.421,588.766C325.69,588.678 325.904,588.555 326.063,588.395C326.288,588.17 326.463,587.868 326.588,587.489C326.713,587.11 326.776,586.65 326.776,586.11C326.776,585.361 326.653,584.786 326.407,584.384C326.162,583.982 325.863,583.712 325.511,583.576C325.258,583.478 324.849,583.429 324.286,583.429L322.782,583.429L322.782,588.898Z" style="fill:black;fill-rule:nonzero;"/>
            <path d="M328.32,589.743L331.069,582.584L332.09,582.584L335.019,589.743L333.94,589.743L333.105,587.575L330.112,587.575L329.326,589.743L328.32,589.743ZM330.386,586.803L332.812,586.803L332.065,584.821C331.837,584.219 331.668,583.724 331.558,583.336C331.466,583.795 331.338,584.251 331.172,584.704L330.386,586.803Z" style="fill:black;fill-rule:nonzero;"/>
            <path d="M335.841,589.743L335.841,582.584L339.015,582.584C339.653,582.584 340.138,582.649 340.47,582.777C340.802,582.906 341.067,583.133 341.266,583.458C341.464,583.784 341.564,584.144 341.564,584.538C341.564,585.045 341.399,585.473 341.07,585.822C340.742,586.17 340.234,586.391 339.547,586.486C339.798,586.606 339.988,586.725 340.118,586.842C340.395,587.096 340.657,587.414 340.904,587.794L342.149,589.743L340.958,589.743L340.011,588.253C339.734,587.824 339.506,587.495 339.327,587.267C339.148,587.039 338.988,586.88 338.846,586.789C338.705,586.697 338.561,586.634 338.414,586.598C338.307,586.575 338.131,586.564 337.887,586.564L336.788,586.564L336.788,589.743L335.841,589.743ZM336.788,585.744L338.824,585.744C339.257,585.744 339.596,585.699 339.84,585.609C340.084,585.52 340.27,585.377 340.397,585.18C340.524,584.983 340.587,584.769 340.587,584.538C340.587,584.199 340.464,583.921 340.218,583.703C339.973,583.485 339.584,583.375 339.054,583.375L336.788,583.375L336.788,585.744Z" style="fill:black;fill-rule:nonzero;"/>
            <path d="M345.115,589.743L345.115,586.71L342.356,582.584L343.508,582.584L344.919,584.743C345.18,585.146 345.422,585.55 345.647,585.954C345.862,585.579 346.122,585.158 346.428,584.689L347.815,582.584L348.918,582.584L346.062,586.71L346.062,589.743L345.115,589.743Z" style="fill:black;fill-rule:nonzero;"/>
        </g>
        <g transform="matrix(1,0,0,1,-13.7945,12.9413)">
            <path d="M415.385,573.141L415.385,571.797L420.237,571.789L420.237,576.039C419.492,576.633 418.724,577.079 417.932,577.379C417.141,577.678 416.328,577.828 415.495,577.828C414.37,577.828 413.348,577.587 412.428,577.106C411.509,576.624 410.815,575.927 410.346,575.016C409.878,574.104 409.643,573.086 409.643,571.961C409.643,570.846 409.876,569.806 410.342,568.84C410.809,567.874 411.479,567.156 412.354,566.688C413.229,566.219 414.237,565.984 415.378,565.984C416.206,565.984 416.954,566.119 417.624,566.387C418.293,566.655 418.818,567.029 419.198,567.508C419.578,567.987 419.867,568.612 420.065,569.383L418.698,569.758C418.526,569.175 418.312,568.716 418.057,568.383C417.802,568.05 417.437,567.783 416.963,567.582C416.49,567.382 415.963,567.281 415.385,567.281C414.693,567.281 414.094,567.387 413.588,567.598C413.083,567.809 412.676,568.086 412.366,568.43C412.056,568.774 411.815,569.151 411.643,569.563C411.352,570.271 411.206,571.039 411.206,571.867C411.206,572.888 411.381,573.742 411.733,574.43C412.085,575.117 412.596,575.628 413.268,575.961C413.94,576.294 414.654,576.461 415.409,576.461C416.065,576.461 416.706,576.335 417.331,576.082C417.956,575.829 418.43,575.56 418.753,575.274L418.753,573.141L415.385,573.141Z" style="fill:black;fill-rule:nonzero;"/>
            <path d="M422.471,577.633L422.471,566.18L426.792,566.18C427.552,566.18 428.133,566.216 428.534,566.289C429.096,566.383 429.568,566.561 429.948,566.824C430.328,567.087 430.634,567.456 430.866,567.93C431.098,568.404 431.213,568.925 431.213,569.492C431.213,570.466 430.904,571.29 430.284,571.965C429.664,572.639 428.544,572.977 426.924,572.977L423.987,572.977L423.987,577.633L422.471,577.633ZM423.987,571.625L426.948,571.625C427.927,571.625 428.622,571.443 429.034,571.078C429.445,570.714 429.651,570.201 429.651,569.539C429.651,569.06 429.53,568.65 429.288,568.309C429.046,567.968 428.727,567.742 428.331,567.633C428.075,567.565 427.604,567.531 426.917,567.531L423.987,567.531L423.987,571.625Z" style="fill:black;fill-rule:nonzero;"/>
            <path d="M432.628,573.953L434.057,573.828C434.125,574.401 434.282,574.871 434.53,575.238C434.777,575.606 435.161,575.902 435.682,576.129C436.203,576.356 436.789,576.469 437.44,576.469C438.018,576.469 438.529,576.383 438.971,576.211C439.414,576.039 439.743,575.803 439.96,575.504C440.176,575.204 440.284,574.878 440.284,574.524C440.284,574.164 440.18,573.85 439.971,573.582C439.763,573.314 439.419,573.089 438.94,572.906C438.633,572.787 437.953,572.6 436.901,572.348C435.849,572.095 435.112,571.857 434.69,571.633C434.143,571.346 433.736,570.991 433.467,570.566C433.199,570.142 433.065,569.667 433.065,569.141C433.065,568.563 433.229,568.022 433.557,567.52C433.885,567.017 434.365,566.635 434.995,566.375C435.625,566.115 436.325,565.984 437.096,565.984C437.945,565.984 438.694,566.121 439.342,566.395C439.991,566.668 440.49,567.07 440.838,567.602C441.187,568.133 441.375,568.734 441.401,569.406L439.948,569.516C439.87,568.792 439.605,568.245 439.155,567.875C438.704,567.505 438.039,567.32 437.159,567.32C436.242,567.32 435.574,567.488 435.155,567.824C434.736,568.16 434.526,568.565 434.526,569.039C434.526,569.451 434.674,569.789 434.971,570.055C435.263,570.32 436.025,570.593 437.256,570.871C438.488,571.15 439.333,571.393 439.792,571.602C440.458,571.909 440.95,572.298 441.268,572.77C441.586,573.241 441.745,573.784 441.745,574.399C441.745,575.008 441.57,575.582 441.221,576.121C440.872,576.66 440.371,577.079 439.717,577.379C439.064,577.678 438.328,577.828 437.51,577.828C436.474,577.828 435.605,577.677 434.905,577.375C434.204,577.073 433.655,576.619 433.256,576.012C432.858,575.405 432.648,574.719 432.628,573.953Z" style="fill:black;fill-rule:nonzero;"/>
        </g>
    </g>
    <g transform="matrix(1,0,0,1,492.81,24.0798)">
        <path d="M286.277,589.743L286.277,579.721L287.603,579.721L287.603,588.56L292.539,588.56L292.539,589.743L286.277,589.743Z" style="fill:black;fill-rule:nonzero;"/>
        <path d="M293.017,589.743L296.866,579.721L298.295,579.721L302.396,589.743L300.885,589.743L299.716,586.708L295.526,586.708L294.425,589.743L293.017,589.743ZM295.909,585.627L299.306,585.627L298.26,582.852C297.941,582.009 297.704,581.316 297.549,580.774C297.422,581.416 297.242,582.055 297.009,582.688L295.909,585.627Z" style="fill:black;fill-rule:nonzero;"/>
        <path d="M303.442,589.743L303.442,579.721L304.802,579.721L310.066,587.589L310.066,579.721L311.338,579.721L311.338,589.743L309.977,589.743L304.714,581.868L304.714,589.743L303.442,589.743Z" style="fill:black;fill-rule:nonzero;"/>
    </g>
    <g transform="matrix(1,0,0,1,821.66,28.7012)">
        <path d="M286.038,589.743L286.038,582.584L289.212,582.584C289.85,582.584 290.335,582.649 290.667,582.777C290.999,582.906 291.264,583.133 291.463,583.458C291.661,583.784 291.76,584.144 291.76,584.538C291.76,585.045 291.596,585.473 291.267,585.822C290.938,586.17 290.431,586.391 289.744,586.486C289.994,586.606 290.185,586.725 290.315,586.842C290.592,587.096 290.854,587.414 291.101,587.794L292.346,589.743L291.155,589.743L290.208,588.253C289.931,587.824 289.703,587.495 289.524,587.267C289.345,587.039 289.185,586.88 289.043,586.789C288.902,586.697 288.758,586.634 288.611,586.598C288.504,586.575 288.328,586.564 288.084,586.564L286.985,586.564L286.985,589.743L286.038,589.743ZM286.985,585.744L289.021,585.744C289.454,585.744 289.793,585.699 290.037,585.609C290.281,585.52 290.466,585.377 290.593,585.18C290.72,584.983 290.784,584.769 290.784,584.538C290.784,584.199 290.661,583.921 290.415,583.703C290.169,583.485 289.781,583.375 289.251,583.375L286.985,583.375L286.985,585.744Z" style="fill:black;fill-rule:nonzero;"/>
        <path d="M296.682,588.073L297.591,588.185C297.447,588.716 297.182,589.127 296.795,589.42C296.407,589.713 295.912,589.86 295.31,589.86C294.552,589.86 293.95,589.626 293.506,589.159C293.062,588.692 292.84,588.037 292.84,587.194C292.84,586.321 293.064,585.644 293.513,585.163C293.963,584.681 294.545,584.44 295.261,584.44C295.955,584.44 296.521,584.676 296.961,585.148C297.4,585.62 297.62,586.284 297.62,587.14C297.62,587.192 297.618,587.27 297.615,587.375L293.748,587.375C293.78,587.944 293.941,588.38 294.231,588.683C294.521,588.986 294.882,589.137 295.315,589.137C295.637,589.137 295.912,589.053 296.14,588.883C296.368,588.714 296.549,588.444 296.682,588.073ZM293.797,586.652L296.692,586.652C296.653,586.216 296.542,585.889 296.36,585.67C296.08,585.332 295.717,585.163 295.271,585.163C294.868,585.163 294.528,585.298 294.253,585.568C293.978,585.838 293.826,586.199 293.797,586.652Z" style="fill:black;fill-rule:nonzero;"/>
        <path d="M298.342,588.195L299.212,588.058C299.26,588.406 299.396,588.673 299.619,588.859C299.842,589.044 300.154,589.137 300.554,589.137C300.958,589.137 301.258,589.055 301.453,588.891C301.648,588.726 301.746,588.533 301.746,588.312C301.746,588.113 301.66,587.957 301.487,587.843C301.367,587.765 301.067,587.666 300.589,587.545C299.944,587.383 299.497,587.242 299.248,587.123C298.999,587.004 298.81,586.84 298.682,586.63C298.553,586.42 298.489,586.188 298.489,585.934C298.489,585.703 298.542,585.489 298.648,585.292C298.753,585.095 298.897,584.931 299.08,584.801C299.216,584.7 299.403,584.615 299.639,584.545C299.875,584.475 300.128,584.44 300.398,584.44C300.805,584.44 301.162,584.499 301.47,584.616C301.778,584.733 302.005,584.892 302.151,585.092C302.298,585.292 302.398,585.56 302.454,585.895L301.594,586.012C301.555,585.745 301.442,585.537 301.255,585.387C301.068,585.237 300.803,585.163 300.462,585.163C300.058,585.163 299.77,585.229 299.597,585.363C299.425,585.496 299.339,585.653 299.339,585.832C299.339,585.945 299.374,586.048 299.446,586.139C299.518,586.234 299.63,586.312 299.783,586.374C299.871,586.406 300.13,586.481 300.559,586.598C301.181,586.764 301.615,586.9 301.861,587.006C302.106,587.112 302.299,587.265 302.439,587.467C302.579,587.669 302.649,587.92 302.649,588.219C302.649,588.512 302.564,588.788 302.393,589.047C302.222,589.306 301.975,589.506 301.653,589.647C301.331,589.789 300.966,589.86 300.559,589.86C299.885,589.86 299.372,589.72 299.019,589.44C298.666,589.16 298.44,588.745 298.342,588.195Z" style="fill:black;fill-rule:nonzero;"/>
        <path d="M307.244,588.073L308.152,588.185C308.009,588.716 307.744,589.127 307.356,589.42C306.969,589.713 306.474,589.86 305.872,589.86C305.113,589.86 304.512,589.626 304.068,589.159C303.623,588.692 303.401,588.037 303.401,587.194C303.401,586.321 303.626,585.644 304.075,585.163C304.524,584.681 305.107,584.44 305.823,584.44C306.516,584.44 307.083,584.676 307.522,585.148C307.962,585.62 308.181,586.284 308.181,587.14C308.181,587.192 308.18,587.27 308.176,587.375L304.309,587.375C304.342,587.944 304.503,588.38 304.793,588.683C305.082,588.986 305.444,589.137 305.877,589.137C306.199,589.137 306.474,589.053 306.702,588.883C306.93,588.714 307.11,588.444 307.244,588.073ZM304.358,586.652L307.254,586.652C307.215,586.216 307.104,585.889 306.922,585.67C306.642,585.332 306.279,585.163 305.833,585.163C305.429,585.163 305.09,585.298 304.815,585.568C304.54,585.838 304.387,586.199 304.358,586.652Z" style="fill:black;fill-rule:nonzero;"/>
        <path d="M311.174,588.957L311.301,589.733C311.054,589.785 310.833,589.811 310.637,589.811C310.318,589.811 310.071,589.761 309.895,589.66C309.719,589.559 309.596,589.426 309.524,589.262C309.452,589.097 309.417,588.751 309.417,588.224L309.417,585.241L308.772,585.241L308.772,584.557L309.417,584.557L309.417,583.273L310.291,582.746L310.291,584.557L311.174,584.557L311.174,585.241L310.291,585.241L310.291,588.273C310.291,588.524 310.306,588.685 310.337,588.756C310.368,588.828 310.418,588.885 310.488,588.927C310.558,588.97 310.659,588.991 310.789,588.991C310.886,588.991 311.015,588.979 311.174,588.957Z" style="fill:black;fill-rule:nonzero;"/>
    </g>
    <g transform="matrix(1,0,0,1,261.285,-138.381)">
        <g id="Powerknopf" transform="matrix(1.90859,0,0,1.90859,-736.129,-532.134)">
            <g transform="matrix(1.24597,0,0,0.961124,-159.146,23.8992)">
                <ellipse cx="647.409" cy="617.797" rx="3.388" ry="3.046" style="fill:none;stroke-width:0.94px;stroke:rgb(115,115,115);"/>
            </g>
            <path d="M648.443,613.778C648.443,613.259 648.022,612.838 647.503,612.838C646.984,612.838 646.563,613.259 646.563,613.778L646.563,617.598C646.563,618.117 646.984,618.538 647.503,618.538C648.022,618.538 648.443,618.117 648.443,617.598L648.443,613.778Z" style="fill:rgb(102,102,102);stroke-width:0.26px;stroke-linecap:round;stroke:rgb(216,217,216);"/>
        </g>
        <g id="Ethernet - Beschriftung" transform="matrix(2.73494,0,0,2.17096,-1216.47,-654.462)">
            <path d="M644.221,597.168L642.277,599.1L644.221,601.046" style="fill:none;stroke-width:0.81px;stroke-linecap:round;stroke:rgb(102,102,102);"/>
            <path d="M650.236,597.168L652.262,599.1L650.236,601.07" style="fill:none;stroke-width:0.81px;stroke-linecap:round;stroke:rgb(102,102,102);"/>
            <path d="M645.037,599.408L645.485,599.408" style="fill:none;stroke-width:0.81px;stroke-linecap:round;stroke:rgb(102,102,102);"/>
            <g transform="matrix(1,0,0,1,1.97161,0)">
                <path d="M645.037,599.408L645.485,599.408" style="fill:none;stroke-width:0.81px;stroke-linecap:round;stroke:rgb(102,102,102);"/>
            </g>
            <g transform="matrix(1,0,0,1,3.97774,0.010644)">
                <path d="M645.037,599.408L645.485,599.408" style="fill:none;stroke-width:0.81px;stroke-linecap:round;stroke:rgb(102,102,102);"/>
            </g>
        </g>
        <g transform="matrix(1,0,0,1,-261.285,138.381)">
            <g transform="matrix(1.08527,0,0,1.10316,-64.7493,-49.7176)">
                <rect x="748.216" y="481.941" width="29.133" height="9.017" style="fill:rgb(158,160,159);"/>
            </g>
            <g transform="matrix(1.08527,0,0,1.10316,-12.086,-49.7176)">
                <rect x="748.216" y="481.941" width="29.133" height="9.017" style="fill:rgb(158,160,159);"/>
            </g>
            <g transform="matrix(1.08527,0,0,1.10316,40.3681,-49.7176)">
                <rect x="748.216" y="481.941" width="29.133" height="9.017" style="fill:rgb(158,160,159);"/>
            </g>
            <g transform="matrix(1.08527,0,0,1.10316,94.1951,-49.7176)">
                <rect x="748.216" y="481.941" width="29.133" height="9.017" style="fill:rgb(158,160,159);"/>
            </g>
            <g transform="matrix(1.08527,0,0,1.10316,146.827,-49.7176)">
                <rect x="748.216" y="481.941" width="29.133" height="9.017" style="fill:rgb(158,160,159);"/>
            </g>
            <g transform="matrix(1.08527,0,0,1.10316,199.989,-49.7176)">
                <rect x="748.216" y="481.941" width="29.133" height="9.017" style="fill:rgb(158,160,159);"/>
            </g>
        </g>
        <g transform="matrix(1,0,0,1,-261.285,138.381)">
            <path d="M1045.54,512.5L1045.54,501.435L859.506,512.5L1045.54,512.5Z" style="fill:rgb(139,140,138);"/>
        </g>
    </g>
    <g>
        <g transform="matrix(1.01431,0,0,1.01431,-4.03435,-6.84984)">
            <rect x="266.689" y="477.075" width="21.426" height="2.323" style="fill:rgb(77,79,78);"/>
        </g>
        <g transform="matrix(1.01816,0,0,1.01431,-4.49534,-2.03543)">
            <rect x="266.689" y="477.075" width="21.426" height="2.323" style="fill:rgb(77,79,78);"/>
        </g>
        <g transform="matrix(1.03769,0,0,1.01431,-9.42883,2.58862)">
            <rect x="266.689" y="477.075" width="21.426" height="2.323" style="fill:rgb(77,79,78);"/>
        </g>
        <g transform="matrix(1.05123,0,0,1.01431,-12.6686,7.2211)">
            <rect x="266.689" y="477.075" width="21.426" height="2.323" style="fill:rgb(77,79,78);"/>
        </g>
        <g transform="matrix(1.06642,0,0,1.01431,-16.3959,11.8623)">
            <rect x="266.689" y="477.075" width="21.426" height="2.323" style="fill:rgb(77,79,78);"/>
        </g>
        <g transform="matrix(1.08097,0,0,1.01431,-19.8992,16.4629)">
            <rect x="266.689" y="477.075" width="21.426" height="2.323" style="fill:rgb(77,79,78);"/>
        </g>
        <g transform="matrix(1.09756,0,0,1.01431,-24.0345,21.0598)">
            <rect x="266.689" y="477.075" width="21.426" height="2.323" style="fill:rgb(77,79,78);"/>
        </g>
        <g transform="matrix(1.11111,0,0,1.01431,-27.268,25.7418)">
            <rect x="266.689" y="477.075" width="21.426" height="2.323" style="fill:rgb(77,79,78);"/>
        </g>
        <g transform="matrix(1.13019,0,0,1.01431,-32.0514,30.512)">
            <rect x="266.689" y="477.075" width="21.426" height="2.323" style="fill:rgb(77,79,78);"/>
        </g>
        <g transform="matrix(1.15273,0,0,1.01431,-37.8659,35.1876)">
            <rect x="266.689" y="477.075" width="21.426" height="2.323" style="fill:rgb(77,79,78);"/>
        </g>
    </g>
    <g transform="matrix(2.96209,0,0,0.57161,-1699.19,207.624)">
        <g transform="matrix(0.325865,0,0,0.325865,499.286,366.243)">
            <path d="M479.338,468.698L492.136,481.664L488.909,484.746L476.047,471.817L479.338,468.698Z" style="fill:none;stroke-width:1.44px;stroke:rgb(102,102,102);"/>
            <path d="M480.871,475.763L484.119,472.806L488.259,477.126L484.119,480.726C482.046,480.157 480.832,478.845 480.871,476.45L480.871,475.763Z" style="fill:rgb(102,102,102);stroke-width:1.44px;stroke:rgb(102,102,102);"/>
            <g transform="matrix(1,0,0,1.03598,1.14528,-13.6789)">
                <path d="M478.967,479.553C479.114,481.324 480.695,483.912 481.451,483.076" style="fill:none;stroke-width:1.08px;stroke:rgb(102,102,102);"/>
            </g>
            <g transform="matrix(1,0,0,1,1.33531,5.39878)">
                <path d="M476.207,480.078C476.781,483.084 479.022,487.72 481.182,488.075" style="fill:none;stroke-width:1.08px;stroke:rgb(102,102,102);"/>
            </g>
        </g>
        <g id="Powerknopf1" transform="matrix(0.555102,0,0,0.555102,297.306,205.04)">
            <ellipse cx="647.409" cy="617.797" rx="3.388" ry="3.046" style="fill:none;stroke-width:0.76px;stroke:rgb(115,115,115);"/>
            <path d="M648.443,615.688C648.443,614.115 648.197,612.838 647.893,612.838L647.113,612.838C646.809,612.838 646.563,614.115 646.563,615.688C646.563,617.261 646.809,618.538 647.113,618.538L647.893,618.538C648.197,618.538 648.443,617.261 648.443,615.688Z" style="fill:rgb(102,102,102);stroke-width:0.42px;stroke-linecap:round;stroke:white;"/>
        </g>
        <g id="Ethernet - Beschriftung1" transform="matrix(0.6451,0,0,0.688899,239.293,126.128)">
            <path d="M644.221,597.168L642.277,599.1L644.221,601.046" style="fill:none;stroke-width:0.62px;stroke-linecap:round;stroke:rgb(102,102,102);"/>
            <path d="M650.236,597.168L652.262,599.1L650.236,601.07" style="fill:none;stroke-width:0.62px;stroke-linecap:round;stroke:rgb(102,102,102);"/>
            <path d="M645.037,599.408L645.485,599.408" style="fill:none;stroke-width:0.62px;stroke-linecap:round;stroke:rgb(102,102,102);"/>
            <g transform="matrix(1,0,0,1,1.97161,0)">
                <path d="M645.037,599.408L645.485,599.408" style="fill:none;stroke-width:0.62px;stroke-linecap:round;stroke:rgb(102,102,102);"/>
            </g>
            <g transform="matrix(1,0,0,1,3.97774,0.010644)">
                <path d="M645.037,599.408L645.485,599.408" style="fill:none;stroke-width:0.62px;stroke-linecap:round;stroke:rgb(102,102,102);"/>
            </g>
        </g>
        <g id="Ethernet - Beschriftung2" transform="matrix(0.6451,0,0,0.688899,239.42,117.49)">
            <path d="M644.221,597.168L642.277,599.1L644.221,601.046" style="fill:none;stroke-width:0.62px;stroke-linecap:round;stroke:rgb(102,102,102);"/>
            <path d="M650.236,597.168L652.262,599.1L650.236,601.07" style="fill:none;stroke-width:0.62px;stroke-linecap:round;stroke:rgb(102,102,102);"/>
            <path d="M645.037,599.408L645.485,599.408" style="fill:none;stroke-width:0.62px;stroke-linecap:round;stroke:rgb(102,102,102);"/>
            <g transform="matrix(1,0,0,1,1.97161,0)">
                <path d="M645.037,599.408L645.485,599.408" style="fill:none;stroke-width:0.62px;stroke-linecap:round;stroke:rgb(102,102,102);"/>
            </g>
            <g transform="matrix(1,0,0,1,3.97774,0.010644)">
                <path d="M645.037,599.408L645.485,599.408" style="fill:none;stroke-width:0.62px;stroke-linecap:round;stroke:rgb(102,102,102);"/>
            </g>
        </g>
    </g>
    <defs>
        <linearGradient id="_Linear1" x1="0" y1="0" x2="1" y2="0" gradientUnits="userSpaceOnUse" gradientTransform="matrix(0.483531,74.7961,-74.7961,0.483531,547.703,635.649)"><stop offset="0%" style="stop-color:rgb(116,76,45);stop-opacity:1"/><stop offset="54%" style="stop-color:rgb(139,94,51);stop-opacity:1"/><stop offset="74%" style="stop-color:rgb(188,131,63);stop-opacity:1"/><stop offset="94%" style="stop-color:rgb(236,167,75);stop-opacity:1"/><stop offset="94%" style="stop-color:rgb(236,167,75);stop-opacity:1"/><stop offset="100%" style="stop-color:rgb(116,76,45);stop-opacity:1"/></linearGradient>
        <linearGradient id="_Linear2" x1="0" y1="0" x2="1" y2="0" gradientUnits="userSpaceOnUse" gradientTransform="matrix(0.483531,74.7961,-74.7961,0.483531,547.703,635.649)"><stop offset="0%" style="stop-color:rgb(116,76,45);stop-opacity:1"/><stop offset="54%" style="stop-color:rgb(139,94,51);stop-opacity:1"/><stop offset="74%" style="stop-color:rgb(188,131,63);stop-opacity:1"/><stop offset="94%" style="stop-color:rgb(236,167,75);stop-opacity:1"/><stop offset="94%" style="stop-color:rgb(236,167,75);stop-opacity:1"/><stop offset="100%" style="stop-color:rgb(116,76,45);stop-opacity:1"/></linearGradient>
        <linearGradient id="_Linear3" x1="0" y1="0" x2="1" y2="0" gradientUnits="userSpaceOnUse" gradientTransform="matrix(0.483531,74.7961,-74.7961,0.483531,547.703,635.649)"><stop offset="0%" style="stop-color:rgb(116,76,45);stop-opacity:1"/><stop offset="54%" style="stop-color:rgb(139,94,51);stop-opacity:1"/><stop offset="74%" style="stop-color:rgb(188,131,63);stop-opacity:1"/><stop offset="94%" style="stop-color:rgb(236,167,75);stop-opacity:1"/><stop offset="94%" style="stop-color:rgb(236,167,75);stop-opacity:1"/><stop offset="100%" style="stop-color:rgb(116,76,45);stop-opacity:1"/></linearGradient>
        <linearGradient id="_Linear4" x1="0" y1="0" x2="1" y2="0" gradientUnits="userSpaceOnUse" gradientTransform="matrix(0.483531,74.7961,-74.7961,0.483531,547.703,635.649)"><stop offset="0%" style="stop-color:rgb(116,76,45);stop-opacity:1"/><stop offset="54%" style="stop-color:rgb(139,94,51);stop-opacity:1"/><stop offset="74%" style="stop-color:rgb(188,131,63);stop-opacity:1"/><stop offset="94%" style="stop-color:rgb(236,167,75);stop-opacity:1"/><stop offset="94%" style="stop-color:rgb(236,167,75);stop-opacity:1"/><stop offset="100%" style="stop-color:rgb(116,76,45);stop-opacity:1"/></linearGradient>
        <linearGradient id="_Linear5" x1="0" y1="0" x2="1" y2="0" gradientUnits="userSpaceOnUse" gradientTransform="matrix(0.483531,74.7961,-74.7961,0.483531,547.703,635.649)"><stop offset="0%" style="stop-color:rgb(116,76,45);stop-opacity:1"/><stop offset="54%" style="stop-color:rgb(139,94,51);stop-opacity:1"/><stop offset="74%" style="stop-color:rgb(188,131,63);stop-opacity:1"/><stop offset="94%" style="stop-color:rgb(236,167,75);stop-opacity:1"/><stop offset="94%" style="stop-color:rgb(236,167,75);stop-opacity:1"/><stop offset="100%" style="stop-color:rgb(116,76,45);stop-opacity:1"/></linearGradient>
        <linearGradient id="_Linear6" x1="0" y1="0" x2="1" y2="0" gradientUnits="userSpaceOnUse" gradientTransform="matrix(0.483531,74.7961,-74.7961,0.483531,547.703,635.649)"><stop offset="0%" style="stop-color:rgb(116,76,45);stop-opacity:1"/><stop offset="54%" style="stop-color:rgb(139,94,51);stop-opacity:1"/><stop offset="74%" style="stop-color:rgb(188,131,63);stop-opacity:1"/><stop offset="94%" style="stop-color:rgb(236,167,75);stop-opacity:1"/><stop offset="94%" style="stop-color:rgb(236,167,75);stop-opacity:1"/><stop offset="100%" style="stop-color:rgb(116,76,45);stop-opacity:1"/></linearGradient>
        <linearGradient id="_Linear7" x1="0" y1="0" x2="1" y2="0" gradientUnits="userSpaceOnUse" gradientTransform="matrix(0.483531,74.7961,-74.7961,0.483531,547.703,635.649)"><stop offset="0%" style="stop-color:rgb(116,76,45);stop-opacity:1"/><stop offset="54%" style="stop-color:rgb(139,94,51);stop-opacity:1"/><stop offset="74%" style="stop-color:rgb(188,131,63);stop-opacity:1"/><stop offset="94%" style="stop-color:rgb(236,167,75);stop-opacity:1"/><stop offset="94%" style="stop-color:rgb(236,167,75);stop-opacity:1"/><stop offset="100%" style="stop-color:rgb(116,76,45);stop-opacity:1"/></linearGradient>
        <linearGradient id="_Linear8" x1="0" y1="0" x2="1" y2="0" gradientUnits="userSpaceOnUse" gradientTransform="matrix(0.483531,74.7961,-74.7961,0.483531,547.703,635.649)"><stop offset="0%" style="stop-color:rgb(116,76,45);stop-opacity:1"/><stop offset="54%" style="stop-color:rgb(139,94,51);stop-opacity:1"/><stop offset="74%" style="stop-color:rgb(188,131,63);stop-opacity:1"/><stop offset="94%" style="stop-color:rgb(236,167,75);stop-opacity:1"/><stop offset="94%" style="stop-color:rgb(236,167,75);stop-opacity:1"/><stop offset="100%" style="stop-color:rgb(116,76,45);stop-opacity:1"/></linearGradient>
        <linearGradient id="_Linear9" x1="0" y1="0" x2="1" y2="0" gradientUnits="userSpaceOnUse" gradientTransform="matrix(0.483531,74.7961,-74.7961,0.483531,547.703,635.649)"><stop offset="0%" style="stop-color:rgb(116,76,45);stop-opacity:1"/><stop offset="54%" style="stop-color:rgb(139,94,51);stop-opacity:1"/><stop offset="74%" style="stop-color:rgb(188,131,63);stop-opacity:1"/><stop offset="94%" style="stop-color:rgb(236,167,75);stop-opacity:1"/><stop offset="94%" style="stop-color:rgb(236,167,75);stop-opacity:1"/><stop offset="100%" style="stop-color:rgb(116,76,45);stop-opacity:1"/></linearGradient>
        <linearGradient id="_Linear10" x1="0" y1="0" x2="1" y2="0" gradientUnits="userSpaceOnUse" gradientTransform="matrix(0.483531,74.7961,-74.7961,0.483531,547.703,635.649)"><stop offset="0%" style="stop-color:rgb(116,76,45);stop-opacity:1"/><stop offset="54%" style="stop-color:rgb(139,94,51);stop-opacity:1"/><stop offset="74%" style="stop-color:rgb(188,131,63);stop-opacity:1"/><stop offset="94%" style="stop-color:rgb(236,167,75);stop-opacity:1"/><stop offset="94%" style="stop-color:rgb(236,167,75);stop-opacity:1"/><stop offset="100%" style="stop-color:rgb(116,76,45);stop-opacity:1"/></linearGradient>
        <linearGradient id="_Linear11" x1="0" y1="0" x2="1" y2="0" gradientUnits="userSpaceOnUse" gradientTransform="matrix(0.483531,74.7961,-74.7961,0.483531,547.703,635.649)"><stop offset="0%" style="stop-color:rgb(116,76,45);stop-opacity:1"/><stop offset="54%" style="stop-color:rgb(139,94,51);stop-opacity:1"/><stop offset="74%" style="stop-color:rgb(188,131,63);stop-opacity:1"/><stop offset="94%" style="stop-color:rgb(236,167,75);stop-opacity:1"/><stop offset="94%" style="stop-color:rgb(236,167,75);stop-opacity:1"/><stop offset="100%" style="stop-color:rgb(116,76,45);stop-opacity:1"/></linearGradient>
        <linearGradient id="_Linear12" x1="0" y1="0" x2="1" y2="0" gradientUnits="userSpaceOnUse" gradientTransform="matrix(0.483531,74.7961,-74.7961,0.483531,547.703,635.649)"><stop offset="0%" style="stop-color:rgb(116,76,45);stop-opacity:1"/><stop offset="54%" style="stop-color:rgb(139,94,51);stop-opacity:1"/><stop offset="74%" style="stop-color:rgb(188,131,63);stop-opacity:1"/><stop offset="94%" style="stop-color:rgb(236,167,75);stop-opacity:1"/><stop offset="94%" style="stop-color:rgb(236,167,75);stop-opacity:1"/><stop offset="100%" style="stop-color:rgb(116,76,45);stop-opacity:1"/></linearGradient>
        <linearGradient id="_Linear13" x1="0" y1="0" x2="1" y2="0" gradientUnits="userSpaceOnUse" gradientTransform="matrix(0.483531,74.7961,-74.7961,0.483531,547.703,635.649)"><stop offset="0%" style="stop-color:rgb(116,76,45);stop-opacity:1"/><stop offset="54%" style="stop-color:rgb(139,94,51);stop-opacity:1"/><stop offset="74%" style="stop-color:rgb(188,131,63);stop-opacity:1"/><stop offset="94%" style="stop-color:rgb(236,167,75);stop-opacity:1"/><stop offset="94%" style="stop-color:rgb(236,167,75);stop-opacity:1"/><stop offset="100%" style="stop-color:rgb(116,76,45);stop-opacity:1"/></linearGradient>
        <linearGradient id="_Linear14" x1="0" y1="0" x2="1" y2="0" gradientUnits="userSpaceOnUse" gradientTransform="matrix(0.483531,74.7961,-74.7961,0.483531,547.703,635.649)"><stop offset="0%" style="stop-color:rgb(116,76,45);stop-opacity:1"/><stop offset="54%" style="stop-color:rgb(139,94,51);stop-opacity:1"/><stop offset="74%" style="stop-color:rgb(188,131,63);stop-opacity:1"/><stop offset="94%" style="stop-color:rgb(236,167,75);stop-opacity:1"/><stop offset="94%" style="stop-color:rgb(236,167,75);stop-opacity:1"/><stop offset="100%" style="stop-color:rgb(116,76,45);stop-opacity:1"/></linearGradient>
        <linearGradient id="_Linear15" x1="0" y1="0" x2="1" y2="0" gradientUnits="userSpaceOnUse" gradientTransform="matrix(0.483531,74.7961,-74.7961,0.483531,547.703,635.649)"><stop offset="0%" style="stop-color:rgb(116,76,45);stop-opacity:1"/><stop offset="54%" style="stop-color:rgb(139,94,51);stop-opacity:1"/><stop offset="74%" style="stop-color:rgb(188,131,63);stop-opacity:1"/><stop offset="94%" style="stop-color:rgb(236,167,75);stop-opacity:1"/><stop offset="94%" style="stop-color:rgb(236,167,75);stop-opacity:1"/><stop offset="100%" style="stop-color:rgb(116,76,45);stop-opacity:1"/></linearGradient>
        <linearGradient id="_Linear16" x1="0" y1="0" x2="1" y2="0" gradientUnits="userSpaceOnUse" gradientTransform="matrix(0.483531,74.7961,-74.7961,0.483531,547.703,635.649)"><stop offset="0%" style="stop-color:rgb(116,76,45);stop-opacity:1"/><stop offset="54%" style="stop-color:rgb(139,94,51);stop-opacity:1"/><stop offset="74%" style="stop-color:rgb(188,131,63);stop-opacity:1"/><stop offset="94%" style="stop-color:rgb(236,167,75);stop-opacity:1"/><stop offset="94%" style="stop-color:rgb(236,167,75);stop-opacity:1"/><stop offset="100%" style="stop-color:rgb(116,76,45);stop-opacity:1"/></linearGradient>
        <linearGradient id="_Linear17" x1="0" y1="0" x2="1" y2="0" gradientUnits="userSpaceOnUse" gradientTransform="matrix(7.02234e-15,114.684,-114.684,7.02234e-15,927.708,574.813)"><stop offset="0%" style="stop-color:rgb(105,106,106);stop-opacity:1"/><stop offset="17%" style="stop-color:rgb(165,166,165);stop-opacity:1"/><stop offset="33%" style="stop-color:rgb(186,187,186);stop-opacity:1"/><stop offset="33%" style="stop-color:rgb(186,187,186);stop-opacity:1"/></linearGradient>
        <linearGradient id="_Linear18" x1="0" y1="0" x2="1" y2="0" gradientUnits="userSpaceOnUse" gradientTransform="matrix(6.98557e-17,-1.14083,1.14083,6.98557e-17,1232.68,813.814)"><stop offset="0%" style="stop-color:rgb(241,239,238);stop-opacity:1"/><stop offset="100%" style="stop-color:rgb(229,229,228);stop-opacity:1"/></linearGradient>
        <linearGradient id="_Linear19" x1="0" y1="0" x2="1" y2="0" gradientUnits="userSpaceOnUse" gradientTransform="matrix(6.98557e-17,-1.14083,1.14083,6.98557e-17,1232.68,813.814)"><stop offset="0%" style="stop-color:rgb(241,239,238);stop-opacity:1"/><stop offset="100%" style="stop-color:rgb(229,229,228);stop-opacity:1"/></linearGradient>
        <linearGradient id="_Linear20" x1="0" y1="0" x2="1" y2="0" gradientUnits="userSpaceOnUse" gradientTransform="matrix(0.483531,74.7961,-74.7961,0.483531,547.703,635.649)"><stop offset="0%" style="stop-color:rgb(116,76,45);stop-opacity:1"/><stop offset="54%" style="stop-color:rgb(139,94,51);stop-opacity:1"/><stop offset="74%" style="stop-color:rgb(188,131,63);stop-opacity:1"/><stop offset="94%" style="stop-color:rgb(236,167,75);stop-opacity:1"/><stop offset="94%" style="stop-color:rgb(236,167,75);stop-opacity:1"/><stop offset="100%" style="stop-color:rgb(116,76,45);stop-opacity:1"/></linearGradient>
        <linearGradient id="_Linear21" x1="0" y1="0" x2="1" y2="0" gradientUnits="userSpaceOnUse" gradientTransform="matrix(0.483531,74.7961,-74.7961,0.483531,547.703,635.649)"><stop offset="0%" style="stop-color:rgb(116,76,45);stop-opacity:1"/><stop offset="54%" style="stop-color:rgb(139,94,51);stop-opacity:1"/><stop offset="74%" style="stop-color:rgb(188,131,63);stop-opacity:1"/><stop offset="94%" style="stop-color:rgb(236,167,75);stop-opacity:1"/><stop offset="94%" style="stop-color:rgb(236,167,75);stop-opacity:1"/><stop offset="100%" style="stop-color:rgb(116,76,45);stop-opacity:1"/></linearGradient>
        <linearGradient id="_Linear22" x1="0" y1="0" x2="1" y2="0" gradientUnits="userSpaceOnUse" gradientTransform="matrix(0.483531,74.7961,-74.7961,0.483531,547.703,635.649)"><stop offset="0%" style="stop-color:rgb(116,76,45);stop-opacity:1"/><stop offset="54%" style="stop-color:rgb(139,94,51);stop-opacity:1"/><stop offset="74%" style="stop-color:rgb(188,131,63);stop-opacity:1"/><stop offset="94%" style="stop-color:rgb(236,167,75);stop-opacity:1"/><stop offset="94%" style="stop-color:rgb(236,167,75);stop-opacity:1"/><stop offset="100%" style="stop-color:rgb(116,76,45);stop-opacity:1"/></linearGradient>
        <linearGradient id="_Linear23" x1="0" y1="0" x2="1" y2="0" gradientUnits="userSpaceOnUse" gradientTransform="matrix(0.483531,74.7961,-74.7961,0.483531,547.703,635.649)"><stop offset="0%" style="stop-color:rgb(116,76,45);stop-opacity:1"/><stop offset="54%" style="stop-color:rgb(139,94,51);stop-opacity:1"/><stop offset="74%" style="stop-color:rgb(188,131,63);stop-opacity:1"/><stop offset="94%" style="stop-color:rgb(236,167,75);stop-opacity:1"/><stop offset="94%" style="stop-color:rgb(236,167,75);stop-opacity:1"/><stop offset="100%" style="stop-color:rgb(116,76,45);stop-opacity:1"/></linearGradient>
        <linearGradient id="_Linear24" x1="0" y1="0" x2="1" y2="0" gradientUnits="userSpaceOnUse" gradientTransform="matrix(0.483531,74.7961,-74.7961,0.483531,547.703,635.649)"><stop offset="0%" style="stop-color:rgb(116,76,45);stop-opacity:1"/><stop offset="54%" style="stop-color:rgb(139,94,51);stop-opacity:1"/><stop offset="74%" style="stop-color:rgb(188,131,63);stop-opacity:1"/><stop offset="94%" style="stop-color:rgb(236,167,75);stop-opacity:1"/><stop offset="94%" style="stop-color:rgb(236,167,75);stop-opacity:1"/><stop offset="100%" style="stop-color:rgb(116,76,45);stop-opacity:1"/></linearGradient>
        <linearGradient id="_Linear25" x1="0" y1="0" x2="1" y2="0" gradientUnits="userSpaceOnUse" gradientTransform="matrix(0.483531,74.7961,-74.7961,0.483531,547.703,635.649)"><stop offset="0%" style="stop-color:rgb(116,76,45);stop-opacity:1"/><stop offset="54%" style="stop-color:rgb(139,94,51);stop-opacity:1"/><stop offset="74%" style="stop-color:rgb(188,131,63);stop-opacity:1"/><stop offset="94%" style="stop-color:rgb(236,167,75);stop-opacity:1"/><stop offset="94%" style="stop-color:rgb(236,167,75);stop-opacity:1"/><stop offset="100%" style="stop-color:rgb(116,76,45);stop-opacity:1"/></linearGradient>
        <linearGradient id="_Linear26" x1="0" y1="0" x2="1" y2="0" gradientUnits="userSpaceOnUse" gradientTransform="matrix(0.483531,74.7961,-74.7961,0.483531,547.703,635.649)"><stop offset="0%" style="stop-color:rgb(116,76,45);stop-opacity:1"/><stop offset="54%" style="stop-color:rgb(139,94,51);stop-opacity:1"/><stop offset="74%" style="stop-color:rgb(188,131,63);stop-opacity:1"/><stop offset="94%" style="stop-color:rgb(236,167,75);stop-opacity:1"/><stop offset="94%" style="stop-color:rgb(236,167,75);stop-opacity:1"/><stop offset="100%" style="stop-color:rgb(116,76,45);stop-opacity:1"/></linearGradient>
        <linearGradient id="_Linear27" x1="0" y1="0" x2="1" y2="0" gradientUnits="userSpaceOnUse" gradientTransform="matrix(0.483531,74.7961,-74.7961,0.483531,547.703,635.649)"><stop offset="0%" style="stop-color:rgb(116,76,45);stop-opacity:1"/><stop offset="54%" style="stop-color:rgb(139,94,51);stop-opacity:1"/><stop offset="74%" style="stop-color:rgb(188,131,63);stop-opacity:1"/><stop offset="94%" style="stop-color:rgb(236,167,75);stop-opacity:1"/><stop offset="94%" style="stop-color:rgb(236,167,75);stop-opacity:1"/><stop offset="100%" style="stop-color:rgb(116,76,45);stop-opacity:1"/></linearGradient>
    </defs>
</svg>
