<?xml version="1.0" standalone="no"?>
<!DOCTYPE svg PUBLIC "-//W3C//DTD SVG 1.1//EN" "http://www.w3.org/Graphics/SVG/1.1/DTD/svg11.dtd">
<svg width="100%" height="100%" viewBox="0 0 1280 1150" version="1.1" xmlns="http://www.w3.org/2000/svg" xmlns:xlink="http://www.w3.org/1999/xlink" xml:space="preserve" style="fill-rule:evenodd;clip-rule:evenodd;stroke-linecap:round;stroke-linejoin:round;stroke-miterlimit:1.41421;">
    <g id="3420 rumpf" transform="matrix(1.20378,0,0,1.20378,-153.995,-586.94)">
        <g transform="matrix(1,0,0,1,9.28536,418.253)">
            <path d="M1015.88,950.574L1065.3,975.426L1065.3,816.711L254.907,816.711L254.907,975.426L309.11,950.574L1015.88,950.574Z" style="fill:rgb(146,148,147);stroke-width:2.49px;stroke:black;"/>
        </g>
        <g transform="matrix(1,0,0,1,9.28536,418.253)">
            <path d="M253.647,795.79L173.851,942.591C193.567,962.914 219.397,972.936 249.697,975.426C281.45,886.75 340.486,839.247 442.432,839.247L896.549,839.247C987.676,838.027 1044.29,915.211 1065.3,975.426C1101.82,972.669 1125.23,960.687 1139.95,942.591L1065.3,795.79C1047.16,778.723 1027.68,764.722 1005.96,755.874L313.407,755.874C291.417,766.777 271.82,780.457 253.647,795.79Z" style="fill:white;stroke-width:2.49px;stroke:black;"/>
        </g>
        <g transform="matrix(1,0,0,1,9.28536,418.253)">
            <path d="M254.899,975.426C272.43,933.215 296.527,895.022 333.946,864.982C290.481,891.162 265.124,929.753 250.097,975.426L254.899,975.426Z" style="fill:rgb(176,178,175);stroke-width:2.49px;stroke:black;"/>
        </g>
        <g transform="matrix(1,0,0,1,9.28536,418.253)">
            <path d="M313.259,755.876C316.107,730.079 560.533,732.116 734.395,732.9C888.025,733.931 981.799,737.214 1005.73,755.876C953.871,771.878 841.043,772.097 734.395,771.183C584.98,772.995 319.69,772.711 313.259,755.876Z" style="fill:rgb(195,197,196);stroke-width:2.49px;stroke:black;"/>
        </g>
    </g>
    <g id="WAN" transform="matrix(-1,5.66554e-16,-5.66554e-16,-1,1344.88,1974.24)">
        <path d="M430.126,958.534L520.049,958.534L520.049,1035.48L430.126,1035.48L430.126,958.534" style="fill:rgb(0,158,224);stroke-width:1px;stroke:black;"/>
        <path d="M463.538,961.757L487.377,961.757L487.377,969.841L494.601,969.841L494.601,977.802L508.571,977.802L508.571,989.68L513.332,989.68L513.332,1005.6L508.571,1005.6L508.571,1018.27L440.482,1018.27L440.482,1005.6L437.015,1005.6L437.015,989.68L440.482,989.68L440.482,977.802L455.182,977.802L455.182,969.841L463.538,969.841L463.538,961.757" style="fill:rgb(166,229,255);stroke-width:1px;stroke:black;"/>
        <rect x="436.816" y="989.68" width="9.385" height="15.92" style="fill:black;stroke-width:1px;stroke:black;"/>
        <g transform="matrix(1,0,0,1,67.0669,-0.0235958)">
            <rect x="436.816" y="989.68" width="9.385" height="15.92" style="fill:black;stroke-width:1px;stroke:black;"/>
        </g>
        <path d="M450.462,1000.22L450.462,1012.69" style="fill:none;stroke-width:1px;stroke:black;"/>
        <g transform="matrix(1,0,0,1,5.18811,0.142889)">
            <path d="M450.462,1000.22L450.462,1012.69" style="fill:none;stroke-width:1px;stroke:black;"/>
        </g>
        <g transform="matrix(1,0,0,1,10.8216,0.142889)">
            <path d="M450.462,1000.22L450.462,1012.69" style="fill:none;stroke-width:1px;stroke:black;"/>
        </g>
        <g transform="matrix(1,0,0,1,22.0044,0.291919)">
            <path d="M450.462,1000.07L450.462,1012.69" style="fill:none;stroke-width:1px;stroke:black;"/>
        </g>
        <g transform="matrix(1,0,0,1,27.0496,0.291919)">
            <path d="M450.462,1000.05L450.462,1012.69" style="fill:none;stroke-width:1px;stroke:black;"/>
        </g>
        <g transform="matrix(1,0,0,1,49.4509,0.192566)">
            <path d="M450.462,1000.16L450.462,1012.69" style="fill:none;stroke-width:1px;stroke:black;"/>
        </g>
        <path d="M466.922,1000.38L466.922,1018.21" style="fill:none;stroke-width:1px;stroke:black;"/>
        <g transform="matrix(1,0,0,1,16.0399,-0.0558162)">
            <path d="M466.922,1000.41L466.922,1018.27" style="fill:none;stroke-width:1px;stroke:black;"/>
        </g>
        <g transform="matrix(1,0,0,1,21.7443,-0.154611)">
            <path d="M466.922,1000.5L466.922,1018.4" style="fill:none;stroke-width:1px;stroke:black;"/>
        </g>
        <g transform="matrix(1,0,0,1,27.6257,-0.353316)">
            <path d="M466.922,1000.67L466.922,1018.4" style="fill:none;stroke-width:1px;stroke:black;"/>
        </g>
    </g>
    <g id="lan4" transform="matrix(-1,5.66554e-16,-5.66554e-16,-1,1342.09,1974.39)">
        <g transform="matrix(3.73365,0,0,1,-1085.67,-0.000264784)">
            <path d="M430.126,958.534L520.049,958.534L520.049,1035.48L430.126,1035.48L430.126,958.534" style="fill:rgb(255,180,0);stroke-width:0.37px;stroke:black;"/>
        </g>
        <g transform="matrix(1,0,0,1,93.3029,-0.747357)">
            <path d="M463.538,961.757L487.377,961.757L487.377,969.841L494.601,969.841L494.601,977.802L508.571,977.802L508.571,989.68L513.332,989.68L513.332,1005.6L508.571,1005.6L508.571,1018.27L440.482,1018.27L440.482,1005.6L437.015,1005.6L437.015,989.68L440.482,989.68L440.482,977.802L455.182,977.802L455.182,969.841L463.538,969.841L463.538,961.757" style="fill:rgb(255,225,153);stroke-width:1px;stroke:black;"/>
        </g>
        <g transform="matrix(1,0,0,1,172.876,-0.661805)">
            <path d="M463.538,961.757L487.377,961.757L487.377,969.841L494.601,969.841L494.601,977.802L508.571,977.802L508.571,989.68L513.332,989.68L513.332,1005.6L508.571,1005.6L508.571,1018.27L440.482,1018.27L440.482,1005.6L437.015,1005.6L437.015,989.68L440.482,989.68L440.482,977.802L455.182,977.802L455.182,969.841L463.538,969.841L463.538,961.757" style="fill:rgb(255,225,153);stroke-width:1px;stroke:black;"/>
        </g>
        <g transform="matrix(1,0,0,1,252.488,-0.755912)">
            <path d="M463.538,961.757L487.377,961.757L487.377,969.841L494.601,969.841L494.601,977.802L508.571,977.802L508.571,989.68L513.332,989.68L513.332,1005.6L508.571,1005.6L508.571,1018.27L440.482,1018.27L440.482,1005.6L437.015,1005.6L437.015,989.68L440.482,989.68L440.482,977.802L455.182,977.802L455.182,969.841L463.538,969.841L463.538,961.757" style="fill:rgb(255,225,153);stroke-width:1px;stroke:black;"/>
        </g>
        <g transform="matrix(1,0,0,1,332.053,-0.509522)">
            <path d="M463.538,961.757L487.377,961.757L487.377,969.841L494.601,969.841L494.601,977.802L508.571,977.802L508.571,989.68L513.332,989.68L513.332,1005.6L508.571,1005.6L508.571,1018.27L440.482,1018.27L440.482,1005.6L437.015,1005.6L437.015,989.68L440.482,989.68L440.482,977.802L455.182,977.802L455.182,969.841L463.538,969.841L463.538,961.757" style="fill:rgb(255,225,153);stroke-width:1px;stroke:black;"/>
        </g>
        <g transform="matrix(1,0,0,1,93.3029,-0.747357)">
            <rect x="436.816" y="989.68" width="9.385" height="15.92" style="fill:black;stroke-width:1px;stroke:black;"/>
        </g>
        <g transform="matrix(1,0,0,1,172.876,-0.661805)">
            <rect x="436.816" y="989.68" width="9.385" height="15.92" style="fill:black;stroke-width:1px;stroke:black;"/>
        </g>
        <g transform="matrix(1,0,0,1,252.488,-0.755912)">
            <rect x="436.816" y="989.68" width="9.385" height="15.92" style="fill:black;stroke-width:1px;stroke:black;"/>
        </g>
        <g transform="matrix(1,0,0,1,332.053,-0.509522)">
            <rect x="436.816" y="989.68" width="9.385" height="15.92" style="fill:black;stroke-width:1px;stroke:black;"/>
        </g>
        <g transform="matrix(1,0,0,1,160.37,-0.770952)">
            <rect x="436.816" y="989.68" width="9.385" height="15.92" style="fill:black;stroke-width:1px;stroke:black;"/>
        </g>
        <g transform="matrix(1,0,0,1,239.942,-0.685401)">
            <rect x="436.816" y="989.68" width="9.385" height="15.92" style="fill:black;stroke-width:1px;stroke:black;"/>
        </g>
        <g transform="matrix(1,0,0,1,319.555,-0.779508)">
            <rect x="436.816" y="989.68" width="9.385" height="15.92" style="fill:black;stroke-width:1px;stroke:black;"/>
        </g>
        <g transform="matrix(1,0,0,1,399.12,-0.533118)">
            <rect x="436.816" y="989.68" width="9.385" height="15.92" style="fill:black;stroke-width:1px;stroke:black;"/>
        </g>
        <g transform="matrix(1,0,0,1,93.3029,-0.747357)">
            <path d="M450.462,1000.22L450.462,1012.69" style="fill:none;stroke-width:1px;stroke:black;"/>
        </g>
        <g transform="matrix(1,0,0,1,172.876,-0.661805)">
            <path d="M450.462,1000.22L450.462,1012.69" style="fill:none;stroke-width:1px;stroke:black;"/>
        </g>
        <g transform="matrix(1,0,0,1,252.488,-0.755912)">
            <path d="M450.462,1000.22L450.462,1012.69" style="fill:none;stroke-width:1px;stroke:black;"/>
        </g>
        <g transform="matrix(1,0,0,1,332.053,-0.509522)">
            <path d="M450.462,1000.22L450.462,1012.69" style="fill:none;stroke-width:1px;stroke:black;"/>
        </g>
        <g transform="matrix(1,0,0,1,98.491,-0.604467)">
            <path d="M450.462,1000.22L450.462,1012.69" style="fill:none;stroke-width:1px;stroke:black;"/>
        </g>
        <g transform="matrix(1,0,0,1,178.064,-0.518915)">
            <path d="M450.462,1000.22L450.462,1012.69" style="fill:none;stroke-width:1px;stroke:black;"/>
        </g>
        <g transform="matrix(1,0,0,1,257.676,-0.613022)">
            <path d="M450.462,1000.22L450.462,1012.69" style="fill:none;stroke-width:1px;stroke:black;"/>
        </g>
        <g transform="matrix(1,0,0,1,337.242,-0.366633)">
            <path d="M450.462,1000.22L450.462,1012.69" style="fill:none;stroke-width:1px;stroke:black;"/>
        </g>
        <g transform="matrix(1,0,0,1,104.125,-0.604467)">
            <path d="M450.462,1000.22L450.462,1012.69" style="fill:none;stroke-width:1px;stroke:black;"/>
        </g>
        <g transform="matrix(1,0,0,1,183.697,-0.518915)">
            <path d="M450.462,1000.22L450.462,1012.69" style="fill:none;stroke-width:1px;stroke:black;"/>
        </g>
        <g transform="matrix(1,0,0,1,263.309,-0.613022)">
            <path d="M450.462,1000.22L450.462,1012.69" style="fill:none;stroke-width:1px;stroke:black;"/>
        </g>
        <g transform="matrix(1,0,0,1,342.875,-0.366633)">
            <path d="M450.462,1000.22L450.462,1012.69" style="fill:none;stroke-width:1px;stroke:black;"/>
        </g>
        <g transform="matrix(1,0,0,1,115.307,-0.455438)">
            <path d="M450.462,1000.07L450.462,1012.69" style="fill:none;stroke-width:1px;stroke:black;"/>
        </g>
        <g transform="matrix(1,0,0,1,194.88,-0.369886)">
            <path d="M450.462,1000.07L450.462,1012.69" style="fill:none;stroke-width:1px;stroke:black;"/>
        </g>
        <g transform="matrix(1,0,0,1,274.492,-0.463993)">
            <path d="M450.462,1000.07L450.462,1012.69" style="fill:none;stroke-width:1px;stroke:black;"/>
        </g>
        <g transform="matrix(1,0,0,1,354.058,-0.217604)">
            <path d="M450.462,1000.07L450.462,1012.69" style="fill:none;stroke-width:1px;stroke:black;"/>
        </g>
        <g transform="matrix(1,0,0,1,120.353,-0.455438)">
            <path d="M450.462,1000.05L450.462,1012.69" style="fill:none;stroke-width:1px;stroke:black;"/>
        </g>
        <g transform="matrix(1,0,0,1,199.925,-0.369886)">
            <path d="M450.462,1000.05L450.462,1012.69" style="fill:none;stroke-width:1px;stroke:black;"/>
        </g>
        <g transform="matrix(1,0,0,1,279.537,-0.463993)">
            <path d="M450.462,1000.05L450.462,1012.69" style="fill:none;stroke-width:1px;stroke:black;"/>
        </g>
        <g transform="matrix(1,0,0,1,359.103,-0.217604)">
            <path d="M450.462,1000.05L450.462,1012.69" style="fill:none;stroke-width:1px;stroke:black;"/>
        </g>
        <g transform="matrix(1,0,0,1,142.754,-0.554791)">
            <path d="M450.462,1000.16L450.462,1012.69" style="fill:none;stroke-width:1px;stroke:black;"/>
        </g>
        <g transform="matrix(1,0,0,1,222.326,-0.469239)">
            <path d="M450.462,1000.16L450.462,1012.69" style="fill:none;stroke-width:1px;stroke:black;"/>
        </g>
        <g transform="matrix(1,0,0,1,301.939,-0.563346)">
            <path d="M450.462,1000.16L450.462,1012.69" style="fill:none;stroke-width:1px;stroke:black;"/>
        </g>
        <g transform="matrix(1,0,0,1,381.504,-0.316957)">
            <path d="M450.462,1000.16L450.462,1012.69" style="fill:none;stroke-width:1px;stroke:black;"/>
        </g>
        <g transform="matrix(1,0,0,1,93.3029,-0.747357)">
            <path d="M466.922,1000.38L466.922,1018.21" style="fill:none;stroke-width:1px;stroke:black;"/>
        </g>
        <g transform="matrix(1,0,0,1,172.876,-0.661805)">
            <path d="M466.922,1000.38L466.922,1018.21" style="fill:none;stroke-width:1px;stroke:black;"/>
        </g>
        <g transform="matrix(1,0,0,1,252.488,-0.755912)">
            <path d="M466.922,1000.38L466.922,1018.21" style="fill:none;stroke-width:1px;stroke:black;"/>
        </g>
        <g transform="matrix(1,0,0,1,332.053,-0.509522)">
            <path d="M466.922,1000.38L466.922,1018.21" style="fill:none;stroke-width:1px;stroke:black;"/>
        </g>
        <g transform="matrix(1,0,0,1,109.343,-0.803173)">
            <path d="M466.922,1000.41L466.922,1018.27" style="fill:none;stroke-width:1px;stroke:black;"/>
        </g>
        <g transform="matrix(1,0,0,1,188.915,-0.717621)">
            <path d="M466.922,1000.41L466.922,1018.27" style="fill:none;stroke-width:1px;stroke:black;"/>
        </g>
        <g transform="matrix(1,0,0,1,268.528,-0.811728)">
            <path d="M466.922,1000.41L466.922,1018.27" style="fill:none;stroke-width:1px;stroke:black;"/>
        </g>
        <g transform="matrix(1,0,0,1,348.093,-0.565338)">
            <path d="M466.922,1000.41L466.922,1018.27" style="fill:none;stroke-width:1px;stroke:black;"/>
        </g>
        <g transform="matrix(1,0,0,1,115.047,-0.901967)">
            <path d="M466.922,1000.5L466.922,1018.4" style="fill:none;stroke-width:1px;stroke:black;"/>
        </g>
        <g transform="matrix(1,0,0,1,194.62,-0.816415)">
            <path d="M466.922,1000.5L466.922,1018.4" style="fill:none;stroke-width:1px;stroke:black;"/>
        </g>
        <g transform="matrix(1,0,0,1,274.232,-0.910523)">
            <path d="M466.922,1000.5L466.922,1018.4" style="fill:none;stroke-width:1px;stroke:black;"/>
        </g>
        <g transform="matrix(1,0,0,1,353.798,-0.664133)">
            <path d="M466.922,1000.5L466.922,1018.4" style="fill:none;stroke-width:1px;stroke:black;"/>
        </g>
        <g transform="matrix(1,0,0,1,120.929,-1.10067)">
            <path d="M466.922,1000.67L466.922,1018.4" style="fill:none;stroke-width:1px;stroke:black;"/>
        </g>
        <g transform="matrix(1,0,0,1,200.501,-1.01512)">
            <path d="M466.922,1000.67L466.922,1018.4" style="fill:none;stroke-width:1px;stroke:black;"/>
        </g>
        <g transform="matrix(1,0,0,1,280.113,-1.10923)">
            <path d="M466.922,1000.67L466.922,1018.4" style="fill:none;stroke-width:1px;stroke:black;"/>
        </g>
        <g transform="matrix(1,0,0,1,359.679,-0.862839)">
            <path d="M466.922,1000.67L466.922,1018.4" style="fill:none;stroke-width:1px;stroke:black;"/>
        </g>
    </g>
    <g id="Beschriftung white" transform="matrix(1,0,0,1,106.096,-25.5269)">
        <g transform="matrix(1,0,0,1,-177.054,12.5508)">
            <path d="M414.228,1039.94L414.228,1037.27C414.228,1037.01 414.182,1036.83 414.091,1036.75C414,1036.66 413.822,1036.61 413.556,1036.61L413.462,1036.61L413.462,1040.58L413.603,1040.58C413.843,1040.58 414.007,1040.53 414.095,1040.44C414.184,1040.35 414.228,1040.18 414.228,1039.94ZM411.158,1046.67L411.158,1035.15L413.845,1035.15C414.767,1035.15 415.443,1035.32 415.872,1035.65C416.302,1035.99 416.517,1036.52 416.517,1037.24L416.517,1039.7C416.517,1040.59 416.305,1041.23 415.88,1041.61C415.456,1041.99 414.741,1042.18 413.736,1042.18L413.462,1042.18L413.462,1046.67L411.158,1046.67Z" style="fill:black;fill-rule:nonzero;"/>
            <path d="M417.017,1037.88C417.017,1036.81 417.225,1036.04 417.642,1035.59C418.059,1035.13 418.746,1034.9 419.705,1034.9C420.663,1034.9 421.35,1035.13 421.767,1035.58C422.184,1036.03 422.392,1036.79 422.392,1037.88L422.392,1043.96C422.392,1045.03 422.185,1045.8 421.771,1046.25C421.357,1046.71 420.668,1046.93 419.705,1046.93C418.741,1046.93 418.052,1046.71 417.638,1046.25C417.224,1045.8 417.017,1045.03 417.017,1043.96L417.017,1037.88ZM419.322,1037.1L419.322,1044.63C419.322,1044.83 419.352,1044.97 419.412,1045.06C419.471,1045.15 419.569,1045.19 419.705,1045.19C419.85,1045.19 419.953,1045.15 420.013,1045.06C420.073,1044.97 420.103,1044.83 420.103,1044.63L420.103,1037.1C420.103,1036.9 420.073,1036.76 420.013,1036.67C419.953,1036.59 419.85,1036.55 419.705,1036.55C419.569,1036.55 419.471,1036.59 419.412,1036.68C419.352,1036.77 419.322,1036.91 419.322,1037.1Z" style="fill:black;fill-rule:nonzero;"/>
            <path d="M424.04,1046.67L422.892,1035.15L425.205,1035.15L425.478,1039.55C425.504,1039.93 425.526,1040.36 425.544,1040.82C425.563,1041.28 425.585,1041.94 425.611,1042.82L425.689,1042.82C425.725,1042.3 425.763,1041.82 425.802,1041.37C425.841,1040.91 425.879,1040.54 425.915,1040.23L426.517,1035.15L428.955,1035.15L429.431,1040.59C429.436,1040.68 429.46,1040.97 429.501,1041.48C429.543,1041.99 429.58,1042.43 429.611,1042.82L429.689,1042.82C429.71,1042.18 429.734,1041.59 429.763,1041.05C429.792,1040.51 429.824,1039.98 429.861,1039.48L430.22,1035.15L432.15,1035.15L430.908,1046.67L428.251,1046.67L427.673,1040.5C427.652,1040.28 427.633,1040.02 427.615,1039.73C427.596,1039.44 427.58,1039.07 427.564,1038.61L427.478,1038.61L426.665,1046.67L424.04,1046.67Z" style="fill:black;fill-rule:nonzero;"/>
            <path d="M432.759,1046.67L432.759,1035.15L437.048,1035.15L437.048,1036.75L435.064,1036.75L435.064,1039.41L437.001,1039.41L437.001,1041.07L435.064,1041.07L435.064,1044.93L437.048,1044.93L437.048,1046.67L432.759,1046.67Z" style="fill:black;fill-rule:nonzero;"/>
            <path d="M440.744,1039.1L440.744,1037.27C440.744,1037.01 440.693,1036.83 440.591,1036.75C440.49,1036.66 440.285,1036.61 439.978,1036.61L439.978,1039.76L440.103,1039.76C440.343,1039.76 440.509,1039.71 440.603,1039.62C440.697,1039.52 440.744,1039.35 440.744,1039.1ZM437.673,1046.67L437.673,1035.15L440.361,1035.15C441.298,1035.15 441.978,1035.32 442.4,1035.65C442.822,1035.98 443.033,1036.51 443.033,1037.24L443.033,1038.45C443.033,1039.05 442.884,1039.52 442.587,1039.84C442.29,1040.16 441.848,1040.34 441.259,1040.37L441.259,1040.43C441.915,1040.47 442.375,1040.64 442.638,1040.92C442.901,1041.2 443.033,1041.69 443.033,1042.37L443.033,1045.3C443.033,1045.53 443.051,1045.77 443.087,1046.01C443.124,1046.24 443.176,1046.47 443.244,1046.67L440.97,1046.67C440.897,1046.48 440.841,1046.26 440.802,1046.01C440.763,1045.77 440.744,1045.51 440.744,1045.24L440.744,1044.82L440.744,1042.31C440.744,1041.98 440.682,1041.74 440.56,1041.58C440.438,1041.41 440.254,1041.33 440.009,1041.33L439.978,1041.33L439.978,1046.67L437.673,1046.67Z" style="fill:black;fill-rule:nonzero;"/>
            <path d="M486.134,1037.88C486.134,1036.81 486.343,1036.04 486.759,1035.59C487.176,1035.13 487.863,1034.9 488.822,1034.9C489.78,1034.9 490.468,1035.13 490.884,1035.58C491.301,1036.03 491.509,1036.79 491.509,1037.88L491.509,1043.96C491.509,1045.03 491.302,1045.8 490.888,1046.25C490.474,1046.71 489.785,1046.93 488.822,1046.93C487.858,1046.93 487.169,1046.71 486.755,1046.25C486.341,1045.8 486.134,1045.03 486.134,1043.96L486.134,1037.88ZM488.439,1037.1L488.439,1044.63C488.439,1044.83 488.469,1044.97 488.529,1045.06C488.589,1045.15 488.686,1045.19 488.822,1045.19C488.968,1045.19 489.07,1045.15 489.13,1045.06C489.19,1044.97 489.22,1044.83 489.22,1044.63L489.22,1037.1C489.22,1036.9 489.19,1036.76 489.13,1036.67C489.07,1036.59 488.968,1036.55 488.822,1036.55C488.686,1036.55 488.589,1036.59 488.529,1036.68C488.469,1036.77 488.439,1036.91 488.439,1037.1Z" style="fill:black;fill-rule:nonzero;"/>
            <path d="M492.181,1046.67L492.181,1035.15L495.337,1035.15L496.15,1040.03C496.223,1040.47 496.285,1040.96 496.337,1041.5C496.389,1042.04 496.434,1042.66 496.47,1043.36L496.564,1043.36C496.527,1042.55 496.5,1041.84 496.482,1041.23C496.464,1040.63 496.455,1040.19 496.455,1039.92L496.439,1035.15L498.244,1035.15L498.244,1046.67L495.54,1046.67L494.361,1040.42C494.314,1040.17 494.255,1039.8 494.185,1039.31C494.115,1038.81 494.043,1038.27 493.97,1037.68L493.908,1037.68C493.939,1038.16 493.964,1038.58 493.982,1038.94C494,1039.3 494.009,1039.59 494.009,1039.82L494.009,1046.67L492.181,1046.67Z" style="fill:black;fill-rule:nonzero;"/>
            <path d="M500.15,1048.16L498.962,1048.16L501.494,1034.9L502.673,1034.9L500.15,1048.16Z" style="fill:black;fill-rule:nonzero;"/>
            <path d="M503.361,1037.88C503.361,1036.81 503.569,1036.04 503.986,1035.59C504.402,1035.13 505.09,1034.9 506.048,1034.9C507.007,1034.9 507.694,1035.13 508.111,1035.58C508.527,1036.03 508.736,1036.79 508.736,1037.88L508.736,1043.96C508.736,1045.03 508.529,1045.8 508.115,1046.25C507.701,1046.71 507.012,1046.93 506.048,1046.93C505.085,1046.93 504.396,1046.71 503.982,1046.25C503.568,1045.8 503.361,1045.03 503.361,1043.96L503.361,1037.88ZM505.665,1037.1L505.665,1044.63C505.665,1044.83 505.695,1044.97 505.755,1045.06C505.815,1045.15 505.913,1045.19 506.048,1045.19C506.194,1045.19 506.297,1045.15 506.357,1045.06C506.417,1044.97 506.447,1044.83 506.447,1044.63L506.447,1037.1C506.447,1036.9 506.417,1036.76 506.357,1036.67C506.297,1036.59 506.194,1036.55 506.048,1036.55C505.913,1036.55 505.815,1036.59 505.755,1036.68C505.695,1036.77 505.665,1036.91 505.665,1037.1Z" style="fill:black;fill-rule:nonzero;"/>
            <path d="M509.455,1046.67L509.455,1035.15L513.744,1035.15L513.744,1036.75L511.759,1036.75L511.759,1039.41L513.697,1039.41L513.697,1041.07L511.759,1041.07L511.759,1046.67L509.455,1046.67Z" style="fill:black;fill-rule:nonzero;"/>
            <path d="M514.353,1046.67L514.353,1035.15L518.642,1035.15L518.642,1036.75L516.658,1036.75L516.658,1039.41L518.595,1039.41L518.595,1041.07L516.658,1041.07L516.658,1046.67L514.353,1046.67Z" style="fill:black;fill-rule:nonzero;"/>
            <path d="M597.322,1046.67L597.322,1043.82L594.298,1043.82L594.298,1042.18L596.494,1035.15L599.611,1035.15L599.611,1042.18L600.314,1042.18L600.314,1043.82L599.611,1043.82L599.611,1046.67L597.322,1046.67ZM596.056,1042.18L597.4,1042.18L597.415,1038.72C597.415,1038.57 597.428,1038.3 597.455,1037.91C597.481,1037.52 597.517,1037.08 597.564,1036.6L597.415,1036.6C597.306,1037.22 597.142,1037.99 596.923,1038.89C596.705,1039.79 596.415,1040.89 596.056,1042.18Z" style="fill:black;fill-rule:nonzero;"/>
            <path d="M678.337,1042.14L680.626,1042.14L680.626,1044.63C680.626,1044.83 680.658,1044.97 680.72,1045.06C680.783,1045.15 680.884,1045.19 681.025,1045.19C681.16,1045.19 681.258,1045.15 681.318,1045.06C681.378,1044.97 681.408,1044.83 681.408,1044.63L681.408,1042.46C681.408,1042.2 681.339,1041.99 681.201,1041.82C681.063,1041.64 680.892,1041.56 680.689,1041.56L679.892,1041.56L679.892,1039.89L680.689,1039.89C680.918,1039.89 681.095,1039.81 681.22,1039.65C681.345,1039.49 681.408,1039.27 681.408,1038.98L681.408,1037.1C681.408,1036.91 681.378,1036.77 681.318,1036.68C681.258,1036.59 681.16,1036.55 681.025,1036.55C680.884,1036.55 680.783,1036.59 680.72,1036.67C680.658,1036.76 680.626,1036.9 680.626,1037.1L680.626,1039.24L678.337,1039.24L678.337,1037.88C678.337,1036.79 678.543,1036.02 678.955,1035.57C679.366,1035.12 680.051,1034.9 681.009,1034.9C681.895,1034.9 682.564,1035.1 683.017,1035.5C683.47,1035.9 683.697,1036.5 683.697,1037.28L683.697,1038.61C683.697,1039.17 683.556,1039.62 683.275,1039.96C682.994,1040.3 682.564,1040.54 681.986,1040.69C682.569,1040.76 683,1040.95 683.279,1041.26C683.557,1041.56 683.697,1042 683.697,1042.57L683.697,1044.58C683.697,1045.34 683.465,1045.92 683.001,1046.32C682.538,1046.73 681.874,1046.93 681.009,1046.93C680.056,1046.93 679.372,1046.71 678.958,1046.25C678.544,1045.8 678.337,1045.03 678.337,1043.96L678.337,1042.14Z" style="fill:black;fill-rule:nonzero;"/>
            <path d="M765.517,1037.1C765.517,1036.91 765.486,1036.76 765.423,1036.67C765.361,1036.58 765.264,1036.53 765.134,1036.53C764.994,1036.53 764.895,1036.58 764.837,1036.66C764.78,1036.74 764.751,1036.89 764.751,1037.1L764.751,1039.21L762.478,1039.21L762.478,1037.88C762.478,1036.79 762.685,1036.03 763.099,1035.58C763.513,1035.13 764.202,1034.9 765.165,1034.9C766.066,1034.9 766.74,1035.12 767.185,1035.56C767.63,1036 767.853,1036.67 767.853,1037.56C767.853,1038.6 767.301,1039.96 766.197,1041.64C765.983,1041.98 765.822,1042.23 765.712,1042.4C765.322,1043.02 765.056,1043.5 764.915,1043.85C764.775,1044.2 764.705,1044.52 764.705,1044.82C764.705,1044.84 764.707,1044.88 764.712,1044.92C764.718,1044.96 764.72,1044.99 764.72,1045.01L767.869,1045.01L767.869,1046.67L762.462,1046.67L762.462,1044.77C762.462,1044.3 762.546,1043.83 762.712,1043.37C762.879,1042.91 763.218,1042.28 763.728,1041.49C763.843,1041.31 764.007,1041.06 764.22,1040.74C765.085,1039.42 765.517,1038.51 765.517,1038L765.517,1037.1Z" style="fill:black;fill-rule:nonzero;"/>
            <path d="M844.869,1046.67L844.869,1037.86L843.603,1037.86L843.603,1036.46L843.658,1036.46C844.1,1036.46 844.471,1036.35 844.771,1036.12C845.07,1035.88 845.264,1035.56 845.353,1035.15L847.158,1035.15L847.158,1046.67L844.869,1046.67Z" style="fill:black;fill-rule:nonzero;"/>
            <path d="M934.353,1046.67L933.205,1035.15L935.517,1035.15L935.79,1039.55C935.816,1039.93 935.839,1040.36 935.857,1040.82C935.875,1041.28 935.897,1041.94 935.923,1042.82L936.001,1042.82C936.038,1042.3 936.076,1041.82 936.115,1041.37C936.154,1040.91 936.191,1040.54 936.228,1040.23L936.83,1035.15L939.267,1035.15L939.744,1040.59C939.749,1040.68 939.772,1040.97 939.814,1041.48C939.856,1041.99 939.892,1042.43 939.923,1042.82L940.001,1042.82C940.022,1042.18 940.047,1041.59 940.076,1041.05C940.104,1040.51 940.137,1039.98 940.173,1039.48L940.533,1035.15L942.462,1035.15L941.22,1046.67L938.564,1046.67L937.986,1040.5C937.965,1040.28 937.945,1040.02 937.927,1039.73C937.909,1039.44 937.892,1039.07 937.876,1038.61L937.79,1038.61L936.978,1046.67L934.353,1046.67Z" style="fill:black;fill-rule:nonzero;"/>
            <path d="M942.517,1046.67L944.361,1035.15L947.306,1035.15L948.665,1046.67L946.283,1046.67L946.056,1043.6L944.915,1043.6L944.619,1046.67L942.517,1046.67ZM945.095,1041.91L945.947,1041.91L945.689,1038.39C945.673,1038.19 945.66,1037.84 945.65,1037.32C945.645,1037.1 945.642,1036.92 945.642,1036.8L945.556,1036.8C945.535,1037.24 945.517,1037.6 945.501,1037.86C945.486,1038.12 945.473,1038.29 945.462,1038.38L945.095,1041.91Z" style="fill:black;fill-rule:nonzero;"/>
            <path d="M949.111,1046.67L949.111,1035.15L952.267,1035.15L953.08,1040.03C953.152,1040.47 953.215,1040.96 953.267,1041.5C953.319,1042.04 953.363,1042.66 953.4,1043.36L953.494,1043.36C953.457,1042.55 953.43,1041.84 953.412,1041.23C953.393,1040.63 953.384,1040.19 953.384,1039.92L953.369,1035.15L955.173,1035.15L955.173,1046.67L952.47,1046.67L951.29,1040.42C951.244,1040.17 951.185,1039.8 951.115,1039.31C951.044,1038.81 950.973,1038.27 950.9,1037.68L950.837,1037.68C950.869,1038.16 950.893,1038.58 950.912,1038.94C950.93,1039.3 950.939,1039.59 950.939,1039.82L950.939,1046.67L949.111,1046.67Z" style="fill:black;fill-rule:nonzero;"/>
        </g>
        <g transform="matrix(1,0,0,1,423.624,0.0376385)">
            <path d="M412.285,1046.67L410.993,1033.71L413.594,1033.71L413.902,1038.66C413.931,1039.09 413.956,1039.57 413.976,1040.09C413.997,1040.61 414.022,1041.35 414.051,1042.33L414.139,1042.33C414.18,1041.75 414.223,1041.21 414.267,1040.7C414.31,1040.19 414.353,1039.77 414.394,1039.42L415.071,1033.71L417.813,1033.71L418.349,1039.83C418.355,1039.93 418.381,1040.26 418.428,1040.83C418.475,1041.4 418.516,1041.9 418.551,1042.33L418.639,1042.33C418.663,1041.62 418.69,1040.96 418.723,1040.35C418.755,1039.74 418.791,1039.15 418.832,1038.58L419.237,1033.71L421.408,1033.71L420.01,1046.67L417.022,1046.67L416.371,1039.72C416.348,1039.48 416.326,1039.19 416.306,1038.87C416.285,1038.54 416.266,1038.12 416.248,1037.6L416.152,1037.6L415.238,1046.67L412.285,1046.67Z" style="fill:black;fill-rule:nonzero;"/>
            <path d="M425.547,1039.1L425.547,1036.09C425.547,1035.8 425.496,1035.6 425.393,1035.5C425.291,1035.4 425.09,1035.35 424.791,1035.35L424.686,1035.35L424.686,1039.82L424.844,1039.82C425.114,1039.82 425.298,1039.77 425.398,1039.66C425.497,1039.56 425.547,1039.37 425.547,1039.1ZM422.093,1046.67L422.093,1033.71L425.117,1033.71C426.154,1033.71 426.914,1033.9 427.397,1034.28C427.881,1034.65 428.122,1035.25 428.122,1036.06L428.122,1038.83C428.122,1039.83 427.884,1040.55 427.406,1040.98C426.929,1041.41 426.124,1041.62 424.994,1041.62L424.686,1041.62L424.686,1046.67L422.093,1046.67Z" style="fill:black;fill-rule:nonzero;"/>
            <path d="M428.632,1036.04C428.632,1035.21 428.897,1034.57 429.428,1034.12C429.958,1033.66 430.701,1033.43 431.656,1033.43C432.617,1033.43 433.358,1033.66 433.879,1034.12C434.401,1034.58 434.662,1035.24 434.662,1036.09L434.662,1038.21L432.086,1038.21L432.086,1035.91C432.086,1035.67 432.054,1035.51 431.99,1035.42C431.925,1035.33 431.814,1035.28 431.656,1035.28C431.492,1035.28 431.376,1035.33 431.309,1035.43C431.241,1035.53 431.207,1035.68 431.207,1035.91L431.207,1037.06C431.207,1037.25 431.232,1037.42 431.282,1037.57C431.332,1037.71 431.413,1037.85 431.524,1037.98L434.011,1040.71C434.246,1040.97 434.413,1041.23 434.512,1041.52C434.612,1041.8 434.662,1042.25 434.662,1042.86L434.662,1044.37C434.662,1045.2 434.399,1045.84 433.875,1046.29C433.35,1046.74 432.605,1046.96 431.638,1046.96C430.648,1046.96 429.899,1046.73 429.392,1046.26C428.886,1045.79 428.632,1045.1 428.632,1044.19L428.632,1041.76L431.207,1041.76L431.207,1044.37C431.207,1044.59 431.241,1044.76 431.309,1044.86C431.376,1044.95 431.492,1045.01 431.656,1045.01C431.808,1045.01 431.918,1044.96 431.985,1044.86C432.053,1044.76 432.086,1044.6 432.086,1044.37L432.086,1043C432.086,1042.81 432.053,1042.64 431.985,1042.48C431.918,1042.32 431.802,1042.14 431.638,1041.95L429.3,1039.31C429.06,1039.04 428.889,1038.77 428.786,1038.5C428.684,1038.22 428.632,1037.86 428.632,1037.4L428.632,1037.21L428.632,1036.04Z" style="fill:black;fill-rule:nonzero;"/>
            <path d="M436.701,1048.34L435.365,1048.34L438.212,1033.43L439.539,1033.43L436.701,1048.34Z" style="fill:black;fill-rule:nonzero;"/>
            <path d="M414.658,1056.16L414.658,1054.09C414.658,1053.8 414.6,1053.6 414.486,1053.5C414.372,1053.4 414.142,1053.35 413.796,1053.35L413.796,1056.9L413.937,1056.9C414.206,1056.9 414.394,1056.84 414.499,1056.73C414.605,1056.62 414.658,1056.43 414.658,1056.16ZM411.204,1064.67L411.204,1051.71L414.227,1051.71C415.282,1051.71 416.046,1051.9 416.521,1052.27C416.996,1052.64 417.233,1053.24 417.233,1054.06L417.233,1055.42C417.233,1056.1 417.066,1056.62 416.732,1056.98C416.398,1057.35 415.9,1057.55 415.238,1057.58L415.238,1057.65C415.976,1057.7 416.493,1057.88 416.789,1058.2C417.085,1058.52 417.233,1059.06 417.233,1059.83L417.233,1063.13C417.233,1063.39 417.253,1063.66 417.294,1063.92C417.335,1064.19 417.394,1064.44 417.47,1064.67L414.913,1064.67C414.83,1064.45 414.767,1064.2 414.724,1063.93C414.68,1063.66 414.658,1063.37 414.658,1063.06L414.658,1062.58L414.658,1059.76C414.658,1059.4 414.589,1059.12 414.451,1058.94C414.313,1058.76 414.107,1058.66 413.831,1058.66L413.796,1058.66L413.796,1064.67L411.204,1064.67Z" style="fill:black;fill-rule:nonzero;"/>
            <path d="M417.918,1064.67L417.918,1051.71L422.744,1051.71L422.744,1053.51L420.511,1053.51L420.511,1056.5L422.691,1056.5L422.691,1058.37L420.511,1058.37L420.511,1062.71L422.744,1062.71L422.744,1064.67L417.918,1064.67Z" style="fill:black;fill-rule:nonzero;"/>
            <path d="M423.324,1054.04C423.324,1053.21 423.589,1052.57 424.119,1052.12C424.649,1051.66 425.392,1051.43 426.347,1051.43C427.308,1051.43 428.049,1051.66 428.571,1052.12C429.092,1052.58 429.353,1053.24 429.353,1054.09L429.353,1056.21L426.778,1056.21L426.778,1053.91C426.778,1053.67 426.746,1053.51 426.681,1053.42C426.617,1053.33 426.505,1053.28 426.347,1053.28C426.183,1053.28 426.067,1053.33 426,1053.43C425.933,1053.53 425.899,1053.68 425.899,1053.91L425.899,1055.06C425.899,1055.25 425.924,1055.42 425.974,1055.57C426.023,1055.71 426.104,1055.85 426.215,1055.98L428.703,1058.71C428.937,1058.97 429.104,1059.23 429.204,1059.52C429.303,1059.8 429.353,1060.25 429.353,1060.86L429.353,1062.37C429.353,1063.2 429.091,1063.84 428.566,1064.29C428.042,1064.74 427.296,1064.96 426.33,1064.96C425.339,1064.96 424.591,1064.73 424.084,1064.26C423.577,1063.79 423.324,1063.1 423.324,1062.19L423.324,1059.76L425.899,1059.76L425.899,1062.37C425.899,1062.59 425.933,1062.76 426,1062.86C426.067,1062.95 426.183,1063.01 426.347,1063.01C426.499,1063.01 426.609,1062.96 426.677,1062.86C426.744,1062.76 426.778,1062.6 426.778,1062.37L426.778,1061C426.778,1060.81 426.744,1060.64 426.677,1060.48C426.609,1060.32 426.494,1060.14 426.33,1059.95L423.992,1057.31C423.751,1057.04 423.58,1056.77 423.477,1056.5C423.375,1056.22 423.324,1055.86 423.324,1055.4L423.324,1055.21L423.324,1054.04Z" style="fill:black;fill-rule:nonzero;"/>
            <path d="M430.074,1064.67L430.074,1051.71L434.899,1051.71L434.899,1053.51L432.666,1053.51L432.666,1056.5L434.846,1056.5L434.846,1058.37L432.666,1058.37L432.666,1062.71L434.899,1062.71L434.899,1064.67L430.074,1064.67Z" style="fill:black;fill-rule:nonzero;"/>
            <path d="M436.92,1064.67L436.92,1053.55L435.259,1053.55L435.259,1051.71L441.165,1051.71L441.165,1053.55L439.487,1053.55L439.487,1064.67L436.92,1064.67Z" style="fill:black;fill-rule:nonzero;"/>
        </g>
    </g>
    <g id="ON/off" transform="matrix(1.53695,0,0,1.53695,-65.4,-552.2)">
        <g transform="matrix(1,0,0,1,-0.627516,0.355553)">
            <ellipse cx="321.797" cy="999.854" rx="16.795" ry="16.434" style="fill:rgb(72,72,74);stroke-width:0.65px;stroke:black;"/>
        </g>
        <g transform="matrix(0.766109,0,0,0.766109,74.7377,234.386)">
            <ellipse cx="321.797" cy="999.854" rx="16.795" ry="16.434" style="fill:rgb(72,72,74);stroke-width:1.7px;stroke:black;"/>
        </g>
        <g transform="matrix(1,0,0,1,-0.0942289,0.933291)">
            <path d="M321.381,992.932L321.381,1006" style="fill:none;stroke-width:2.28px;stroke:black;"/>
        </g>
    </g>
    <g id="Power" transform="matrix(1,0,0,1,-29.4231,-18.9828)">
        <rect x="360.529" y="973.018" width="50.745" height="61.322" style="fill:rgb(72,72,74);stroke-width:3.5px;stroke:black;"/>
        <g transform="matrix(1,0,0,1,-0.754159,0.503051)">
            <ellipse cx="387.025" cy="998.035" rx="16.88" ry="17.207" style="fill:rgb(72,72,74);stroke-width:1px;stroke:black;"/>
        </g>
        <ellipse cx="386.992" cy="998.717" rx="8.879" ry="8.391" style="fill:rgb(99,100,102);stroke-width:1px;stroke:black;"/>
        <g transform="matrix(1,0,0,1,-0.111324,-0.214278)">
            <ellipse cx="387.249" cy="998.987" rx="5.203" ry="5.065" style="fill:rgb(216,217,218);stroke-width:3px;stroke:rgb(58,57,59);"/>
        </g>
        <path d="M378.699,1011.21L394.491,1011.21L394.491,1012.99L392.11,1014.15L380.447,1014.15L378.699,1013.38L378.699,1011.21Z" style="fill:rgb(47,45,46);stroke-width:0.1px;stroke:rgb(35,31,32);"/>
    </g>
    <g transform="matrix(1,0,0,1,70.9671,-21.1467)">
        <g id="reset">
            <ellipse cx="882.113" cy="1013.72" rx="10.926" ry="10.594" style="fill:rgb(108,108,108);stroke-width:3.5px;stroke:rgb(35,31,32);"/>
        </g>
    </g>
    <g id="2 antennen white" transform="matrix(1.23606,0,0,1.23606,-177.87,-105.872)">
        <g transform="matrix(0.875916,0,0,0.875916,157.583,53.4135)">
            <g id="Antenne Links">
                <g>
                    <g transform="matrix(1,0,0,1,-774.378,-3.15595)">
                        <path d="M1016.53,124.619L1020.93,301.171L1038.98,522.435L1043.24,1048.51L1043.34,1047.87C1042.55,1048.66 1036.04,1054.15 1004.23,1054.77C972.911,1055.37 970.935,1051.94 967.466,1051.24L967.191,1051.3L967.191,524.062L984.513,301.705L982.747,124.897C994.27,123.665 1005.51,123.655 1016.53,124.619Z" style="fill:white;stroke-width:3.23px;stroke:black;"/>
                    </g>
                    <g transform="matrix(1,0,0,1,-774.378,-3.15595)">
                        <path d="M984.703,117.906L984.703,124.656L982.618,124.676C996.416,123.902 1007.78,123.949 1017.13,124.676L1014.86,123.88L1014.86,118.475L1016.74,117.906C1007.39,117.18 996.023,117.133 982.225,117.906L982.438,117.653C982.428,113.255 981.481,92.528 982.438,76.704C983.201,64.092 991.781,61.281 998.604,61.255C1007.64,61.221 1015.03,65.675 1015.74,76.704C1016.77,92.72 1017.06,113.91 1017.08,117.653" style="fill:white;stroke-width:3.23px;stroke:black;"/>
                    </g>
                </g>
            </g>
        </g>
        <g transform="matrix(0.875916,0,0,0.875916,773.345,53.4135)">
            <g id="Antenne Rechts">
                <g>
                    <g transform="matrix(1,0,0,1,-774.378,-3.15595)">
                        <path d="M1016.53,124.619L1020.93,301.171L1038.98,522.435L1043.24,1048.51L1043.34,1047.87C1042.55,1048.66 1036.04,1054.15 1004.23,1054.77C972.911,1055.37 970.935,1051.94 967.466,1051.24L967.191,1051.3L967.191,524.062L984.513,301.705L982.747,124.897C994.27,123.665 1005.51,123.655 1016.53,124.619Z" style="fill:white;stroke-width:3.23px;stroke:black;"/>
                    </g>
                    <g transform="matrix(1,0,0,1,-774.378,-3.15595)">
                        <path d="M984.703,117.906L984.703,124.656L982.618,124.676C996.416,123.902 1007.78,123.949 1017.13,124.676L1014.86,123.88L1014.86,118.475L1016.74,117.906C1007.39,117.18 996.023,117.133 982.225,117.906L982.438,117.653C982.428,113.255 981.481,92.528 982.438,76.704C983.201,64.092 991.781,61.281 998.604,61.255C1007.64,61.221 1015.03,65.675 1015.74,76.704C1016.77,92.72 1017.06,113.91 1017.08,117.653" style="fill:white;stroke-width:3.23px;stroke:black;"/>
                    </g>
                </g>
            </g>
        </g>
    </g>
    <g transform="matrix(1,0,0,1,-20.526,60.4732)">
        <path d="M1186.2,527.689L1186.2,554.15C1186.2,557.369 1185.58,559.654 1184.34,561.006C1183.1,562.357 1181.03,563.033 1178.14,563.033C1175.25,563.033 1173.18,562.357 1171.94,561.006C1170.7,559.654 1170.08,557.369 1170.08,554.15L1170.08,527.689L1176.94,527.689L1176.94,556.119C1176.94,556.713 1177.04,557.142 1177.23,557.408C1177.41,557.674 1177.72,557.807 1178.14,557.807C1178.56,557.807 1178.86,557.678 1179.03,557.42C1179.2,557.162 1179.29,556.728 1179.29,556.119L1179.29,527.689L1186.2,527.689Z" style="fill:black;fill-rule:nonzero;"/>
        <path d="M1188.03,533.9C1188.03,531.697 1188.74,529.986 1190.15,528.767C1191.57,527.549 1193.55,526.939 1196.09,526.939C1198.66,526.939 1200.63,527.553 1202.02,528.779C1203.41,530.006 1204.11,531.76 1204.11,534.041L1204.11,539.689L1197.24,539.689L1197.24,533.549C1197.24,532.924 1197.16,532.49 1196.98,532.248C1196.81,532.006 1196.52,531.885 1196.09,531.885C1195.66,531.885 1195.35,532.014 1195.17,532.271C1194.99,532.529 1194.9,532.955 1194.9,533.549L1194.9,536.619C1194.9,537.135 1194.96,537.584 1195.1,537.967C1195.23,538.349 1195.44,538.721 1195.74,539.08L1202.38,546.369C1203,547.041 1203.44,547.752 1203.71,548.502C1203.98,549.252 1204.11,550.447 1204.11,552.088L1204.11,556.119C1204.11,558.338 1203.41,560.045 1202.01,561.24C1200.61,562.435 1198.62,563.033 1196.05,563.033C1193.41,563.033 1191.41,562.408 1190.06,561.158C1188.71,559.908 1188.03,558.064 1188.03,555.627L1188.03,549.158L1194.9,549.158L1194.9,556.119C1194.9,556.713 1194.99,557.142 1195.17,557.408C1195.35,557.674 1195.66,557.807 1196.09,557.807C1196.5,557.807 1196.79,557.678 1196.97,557.42C1197.15,557.162 1197.24,556.728 1197.24,556.119L1197.24,552.463C1197.24,551.963 1197.15,551.498 1196.97,551.068C1196.79,550.639 1196.48,550.174 1196.05,549.674L1189.81,542.619C1189.17,541.9 1188.71,541.178 1188.44,540.451C1188.17,539.724 1188.03,538.752 1188.03,537.533L1188.03,537.017L1188.03,533.9Z" style="fill:black;fill-rule:nonzero;"/>
        <path d="M1215.24,555.439L1215.24,548.197C1215.24,547.494 1215.1,546.998 1214.81,546.709C1214.52,546.42 1214.02,546.275 1213.32,546.275L1212.94,546.275L1212.94,557.361L1213.32,557.361C1214.02,557.361 1214.52,557.217 1214.81,556.928C1215.1,556.639 1215.24,556.142 1215.24,555.439ZM1215.24,539.549L1215.24,534.041C1215.24,533.26 1215.1,532.736 1214.81,532.471C1214.52,532.205 1213.9,532.072 1212.94,532.072L1212.94,541.564C1213.88,541.564 1214.5,541.428 1214.8,541.154C1215.09,540.881 1215.24,540.346 1215.24,539.549ZM1206.03,562.26L1206.03,527.689L1214.09,527.689C1216.8,527.689 1218.81,528.178 1220.13,529.154C1221.45,530.131 1222.11,531.611 1222.11,533.596L1222.11,537.674C1222.11,539.533 1221.72,540.9 1220.94,541.775C1220.16,542.65 1218.77,543.283 1216.79,543.674L1216.79,543.861C1218.59,544.017 1219.92,544.553 1220.8,545.467C1221.67,546.381 1222.11,547.705 1222.11,549.439L1222.11,554.783C1222.11,557.502 1221.47,559.428 1220.19,560.56C1218.91,561.693 1216.72,562.26 1213.62,562.26L1206.03,562.26Z" style="fill:black;fill-rule:nonzero;"/>
        <path d="M1198.19,581.642L1202.92,581.642L1202.92,593.596L1214.6,593.596L1214.6,598.26L1202.92,598.26L1202.92,610.26L1198.19,610.26L1198.19,598.26L1186.52,598.26L1186.52,593.596L1198.19,593.596L1198.19,581.642Z" style="fill:black;fill-rule:nonzero;"/>
        <path d="M1110.39,658.26L1106.95,623.689L1113.89,623.689L1114.71,636.885C1114.79,638.041 1114.85,639.31 1114.91,640.693C1114.96,642.076 1115.03,644.072 1115.11,646.682L1115.34,646.682C1115.45,645.135 1115.56,643.685 1115.68,642.334C1115.8,640.982 1115.91,639.846 1116.02,638.924L1117.82,623.689L1125.14,623.689L1126.57,640.002C1126.58,640.267 1126.65,641.162 1126.78,642.685C1126.9,644.209 1127.01,645.541 1127.11,646.682L1127.34,646.682C1127.4,644.775 1127.48,643.01 1127.56,641.385C1127.65,639.76 1127.75,638.189 1127.86,636.674L1128.93,623.689L1134.72,623.689L1131,658.26L1123.03,658.26L1121.29,639.721C1121.23,639.064 1121.17,638.303 1121.12,637.435C1121.06,636.568 1121.01,635.447 1120.96,634.072L1120.71,634.072L1118.27,658.26L1110.39,658.26Z" style="fill:black;fill-rule:nonzero;"/>
        <rect x="1136.5" y="623.689" width="6.914" height="34.57" style="fill:black;fill-rule:nonzero;"/>
        <path d="M1145.71,658.26L1145.71,623.689L1158.58,623.689L1158.58,628.494L1152.63,628.494L1152.63,636.463L1158.44,636.463L1158.44,641.455L1152.63,641.455L1152.63,658.26L1145.71,658.26Z" style="fill:black;fill-rule:nonzero;"/>
        <rect x="1160.27" y="623.689" width="6.914" height="34.57" style="fill:black;fill-rule:nonzero;"/>
        <path d="M1178.32,631.869C1178.32,628.65 1178.94,626.357 1180.19,624.99C1181.44,623.623 1183.5,622.939 1186.38,622.939C1189.25,622.939 1191.32,623.615 1192.57,624.967C1193.82,626.318 1194.44,628.619 1194.44,631.869L1194.44,650.103C1194.44,653.338 1193.82,655.635 1192.58,656.994C1191.34,658.353 1189.27,659.033 1186.38,659.033C1183.49,659.033 1181.42,658.353 1180.18,656.994C1178.94,655.635 1178.32,653.338 1178.32,650.103L1178.32,631.869ZM1185.23,629.549L1185.23,652.119C1185.23,652.728 1185.32,653.162 1185.5,653.42C1185.68,653.678 1185.97,653.807 1186.38,653.807C1186.82,653.807 1187.12,653.674 1187.3,653.408C1187.48,653.142 1187.57,652.713 1187.57,652.119L1187.57,629.549C1187.57,628.939 1187.48,628.51 1187.3,628.26C1187.12,628.01 1186.82,627.885 1186.38,627.885C1185.97,627.885 1185.68,628.017 1185.5,628.283C1185.32,628.549 1185.23,628.971 1185.23,629.549Z" style="fill:black;fill-rule:nonzero;"/>
        <path d="M1196.46,658.26L1196.46,623.689L1205.92,623.689L1208.36,638.338C1208.58,639.65 1208.77,641.119 1208.92,642.744C1209.08,644.369 1209.21,646.228 1209.32,648.322L1209.61,648.322C1209.5,645.885 1209.41,643.756 1209.36,641.935C1209.3,640.115 1209.28,638.807 1209.28,638.01L1209.23,623.689L1214.64,623.689L1214.64,658.26L1206.54,658.26L1203,639.486C1202.86,638.752 1202.68,637.642 1202.47,636.158C1202.26,634.674 1202.04,633.049 1201.82,631.283L1201.64,631.283C1201.73,632.721 1201.8,633.978 1201.86,635.057C1201.91,636.135 1201.94,637.017 1201.94,637.705L1201.94,658.26L1196.46,658.26Z" style="fill:black;fill-rule:nonzero;"/>
        <path d="M1220.36,662.713L1216.8,662.713L1224.39,622.939L1227.93,622.939L1220.36,662.713Z" style="fill:black;fill-rule:nonzero;"/>
        <path d="M1239.11,631.869C1239.11,628.65 1239.74,626.357 1240.99,624.99C1242.24,623.623 1244.3,622.939 1247.17,622.939C1250.05,622.939 1252.11,623.615 1253.36,624.967C1254.61,626.318 1255.24,628.619 1255.24,631.869L1255.24,650.103C1255.24,653.338 1254.62,655.635 1253.38,656.994C1252.13,658.353 1250.07,659.033 1247.17,659.033C1244.29,659.033 1242.22,658.353 1240.98,656.994C1239.73,655.635 1239.11,653.338 1239.11,650.103L1239.11,631.869ZM1246.03,629.549L1246.03,652.119C1246.03,652.728 1246.12,653.162 1246.3,653.42C1246.48,653.678 1246.77,653.807 1247.17,653.807C1247.61,653.807 1247.92,653.674 1248.1,653.408C1248.28,653.142 1248.37,652.713 1248.37,652.119L1248.37,629.549C1248.37,628.939 1248.28,628.51 1248.1,628.26C1247.92,628.01 1247.61,627.885 1247.17,627.885C1246.77,627.885 1246.48,628.017 1246.3,628.283C1246.12,628.549 1246.03,628.971 1246.03,629.549Z" style="fill:black;fill-rule:nonzero;"/>
        <path d="M1257.39,658.26L1257.39,623.689L1270.26,623.689L1270.26,628.494L1264.31,628.494L1264.31,636.463L1270.12,636.463L1270.12,641.455L1264.31,641.455L1264.31,658.26L1257.39,658.26Z" style="fill:black;fill-rule:nonzero;"/>
        <path d="M1272.09,658.26L1272.09,623.689L1284.96,623.689L1284.96,628.494L1279,628.494L1279,636.463L1284.82,636.463L1284.82,641.455L1279,641.455L1279,658.26L1272.09,658.26Z" style="fill:black;fill-rule:nonzero;"/>
    </g>
    <g transform="matrix(0.142224,-0.376383,0.455288,0.172039,695.413,1061.55)">
        <path d="M850.369,821.172L897.956,860.512L865.085,860.512L801.635,808.059L865.085,755.605L897.956,755.605L850.369,794.945L1191.7,794.945L1191.7,821.172L850.369,821.172Z" style="fill:rgb(0,158,224);stroke-width:6.72px;stroke:rgb(0,158,224);"/>
    </g>
</svg>
