<?xml version="1.0" standalone="no"?>
<!DOCTYPE svg PUBLIC "-//W3C//DTD SVG 1.1//EN" "http://www.w3.org/Graphics/SVG/1.1/DTD/svg11.dtd">
<svg width="100%" height="100%" viewBox="0 0 1280 1150" version="1.1" xmlns="http://www.w3.org/2000/svg" xmlns:xlink="http://www.w3.org/1999/xlink" xml:space="preserve" style="fill-rule:evenodd;clip-rule:evenodd;stroke-linecap:round;stroke-linejoin:round;stroke-miterlimit:1.41421;">
    <g id="2 antennen white" transform="matrix(0.933605,0,0,0.933605,-30.3313,-48.8127)">
        <g transform="matrix(0.875916,0,0,0.875916,157.583,53.4135)">
            <g id="Antenne Links">
                <g>
                    <g transform="matrix(1,0,0,1,-774.378,-3.15595)">
                        <path d="M1016.53,124.619L1020.93,301.171L1038.98,522.435L1043.24,1048.51L1043.34,1047.87C1042.55,1048.66 1036.04,1054.15 1004.23,1054.77C972.911,1055.37 970.935,1051.94 967.466,1051.24L967.191,1051.3L967.191,524.062L984.513,301.705L982.747,124.897C994.27,123.665 1005.51,123.655 1016.53,124.619Z" style="fill:white;stroke-width:4.28px;stroke:black;"/>
                    </g>
                    <g transform="matrix(1,0,0,1,-774.378,-3.15595)">
                        <path d="M984.703,117.906L984.703,124.656L982.618,124.676C996.416,123.902 1007.78,123.949 1017.13,124.676L1014.86,123.88L1014.86,118.475L1016.74,117.906C1007.39,117.18 996.023,117.133 982.225,117.906L982.438,117.653C982.428,113.255 981.481,92.528 982.438,76.704C983.201,64.092 991.781,61.281 998.604,61.255C1007.64,61.221 1015.03,65.675 1015.74,76.704C1016.77,92.72 1017.06,113.91 1017.08,117.653" style="fill:white;stroke-width:4.28px;stroke:black;"/>
                    </g>
                </g>
            </g>
        </g>
        <g transform="matrix(0.875916,0,0,0.875916,867.579,53.4135)">
            <g id="Antenne Rechts">
                <g>
                    <g transform="matrix(1,0,0,1,-774.378,-3.15595)">
                        <path d="M1016.53,124.619L1020.93,301.171L1038.98,522.435L1043.24,1048.51L1043.34,1047.87C1042.55,1048.66 1036.04,1054.15 1004.23,1054.77C972.911,1055.37 970.935,1051.94 967.466,1051.24L967.191,1051.3L967.191,524.062L984.513,301.705L982.747,124.897C994.27,123.665 1005.51,123.655 1016.53,124.619Z" style="fill:white;stroke-width:4.28px;stroke:black;"/>
                    </g>
                    <g transform="matrix(1,0,0,1,-774.378,-3.15595)">
                        <path d="M984.703,117.906L984.703,124.656L982.618,124.676C996.416,123.902 1007.78,123.949 1017.13,124.676L1014.86,123.88L1014.86,118.475L1016.74,117.906C1007.39,117.18 996.023,117.133 982.225,117.906L982.438,117.653C982.428,113.255 981.481,92.528 982.438,76.704C983.201,64.092 991.781,61.281 998.604,61.255C1007.64,61.221 1015.03,65.675 1015.74,76.704C1016.77,92.72 1017.06,113.91 1017.08,117.653" style="fill:white;stroke-width:4.28px;stroke:black;"/>
                    </g>
                </g>
            </g>
        </g>
    </g>
    <g id="Frontgruppe">
        <path id="fill gesammt" d="M215.161,1081.35C229.064,1073.85 243.963,1068.36 260.083,1067.36C510.586,1051.83 763.125,1053.53 1017.1,1067.36C1043.93,1068.82 1044.64,1069.81 1072.61,1081.35C1080.51,1084.62 1088.22,1085.71 1097.08,1085.71L1097.08,929.421L191.996,929.421L191.996,1085.71C200.128,1086.25 207.832,1084.71 215.161,1081.35Z" style="fill:rgb(118,122,123);stroke-width:3px;stroke:black;"/>
        <g id="Lüfungs schlitze" transform="matrix(1,0,0,1,0,9.61194)">
            <g transform="matrix(0.889865,0,0,1,62.9319,-0.43865)">
                <rect x="564.048" y="947.842" width="9.541" height="37.146" style="fill:black;"/>
                <path d="M575.836,986.988L561.8,986.988L561.8,945.842L575.836,945.842L575.836,986.988ZM564.048,947.842L564.048,984.988L573.589,984.988L573.589,947.842L564.048,947.842Z" style="fill:rgb(51,51,51);"/>
            </g>
            <g transform="matrix(0.889865,0,0,1,124.406,-0.43865)">
                <rect x="564.048" y="947.842" width="9.541" height="37.146" style="fill:black;"/>
                <path d="M575.836,986.988L561.8,986.988L561.8,945.842L575.836,945.842L575.836,986.988ZM564.048,947.842L564.048,984.988L573.589,984.988L573.589,947.842L564.048,947.842Z" style="fill:rgb(51,51,51);"/>
            </g>
            <g transform="matrix(0.889865,0,0,1,184.303,-0.43865)">
                <rect x="564.048" y="947.842" width="9.541" height="37.146" style="fill:black;"/>
                <path d="M575.836,986.988L561.8,986.988L561.8,945.842L575.836,945.842L575.836,986.988ZM564.048,947.842L564.048,984.988L573.589,984.988L573.589,947.842L564.048,947.842Z" style="fill:rgb(51,51,51);"/>
            </g>
            <g transform="matrix(0.889865,0,0,1,77.777,-0.43865)">
                <rect x="564.048" y="947.842" width="9.541" height="37.146" style="fill:black;"/>
                <path d="M575.836,986.988L561.8,986.988L561.8,945.842L575.836,945.842L575.836,986.988ZM564.048,947.842L564.048,984.988L573.589,984.988L573.589,947.842L564.048,947.842Z" style="fill:rgb(51,51,51);"/>
            </g>
            <g transform="matrix(0.889865,0,0,1,139.251,-0.43865)">
                <rect x="564.048" y="947.842" width="9.541" height="37.146" style="fill:black;"/>
                <path d="M575.836,986.988L561.8,986.988L561.8,945.842L575.836,945.842L575.836,986.988ZM564.048,947.842L564.048,984.988L573.589,984.988L573.589,947.842L564.048,947.842Z" style="fill:rgb(51,51,51);"/>
            </g>
            <g transform="matrix(0.889865,0,0,1,199.148,-0.43865)">
                <rect x="564.048" y="947.842" width="9.541" height="37.146" style="fill:black;"/>
                <path d="M575.836,986.988L561.8,986.988L561.8,945.842L575.836,945.842L575.836,986.988ZM564.048,947.842L564.048,984.988L573.589,984.988L573.589,947.842L564.048,947.842Z" style="fill:rgb(51,51,51);"/>
            </g>
            <g transform="matrix(0.889865,0,0,1,92.8182,-0.43865)">
                <rect x="564.048" y="947.842" width="9.541" height="37.146" style="fill:black;"/>
                <path d="M575.836,986.988L561.8,986.988L561.8,945.842L575.836,945.842L575.836,986.988ZM564.048,947.842L564.048,984.988L573.589,984.988L573.589,947.842L564.048,947.842Z" style="fill:rgb(51,51,51);"/>
            </g>
            <g transform="matrix(0.889865,0,0,1,154.292,-0.43865)">
                <rect x="564.048" y="947.842" width="9.541" height="37.146" style="fill:black;"/>
                <path d="M575.836,986.988L561.8,986.988L561.8,945.842L575.836,945.842L575.836,986.988ZM564.048,947.842L564.048,984.988L573.589,984.988L573.589,947.842L564.048,947.842Z" style="fill:rgb(51,51,51);"/>
            </g>
            <g transform="matrix(0.889865,0,0,1,214.189,-0.43865)">
                <rect x="564.048" y="947.842" width="9.541" height="37.146" style="fill:black;"/>
                <path d="M575.836,986.988L561.8,986.988L561.8,945.842L575.836,945.842L575.836,986.988ZM564.048,947.842L564.048,984.988L573.589,984.988L573.589,947.842L564.048,947.842Z" style="fill:rgb(51,51,51);"/>
            </g>
            <g transform="matrix(0.889865,0,0,1,108.309,-0.43865)">
                <rect x="564.048" y="947.842" width="9.541" height="37.146" style="fill:black;"/>
                <path d="M575.836,986.988L561.8,986.988L561.8,945.842L575.836,945.842L575.836,986.988ZM564.048,947.842L564.048,984.988L573.589,984.988L573.589,947.842L564.048,947.842Z" style="fill:rgb(51,51,51);"/>
            </g>
            <g transform="matrix(0.889865,0,0,1,169.783,-0.43865)">
                <rect x="564.048" y="947.842" width="9.541" height="37.146" style="fill:black;"/>
                <path d="M575.836,986.988L561.8,986.988L561.8,945.842L575.836,945.842L575.836,986.988ZM564.048,947.842L564.048,984.988L573.589,984.988L573.589,947.842L564.048,947.842Z" style="fill:rgb(51,51,51);"/>
            </g>
            <g transform="matrix(0.889865,0,0,1,244.956,-0.43865)">
                <rect x="564.048" y="947.842" width="9.541" height="37.146" style="fill:black;"/>
                <path d="M575.836,986.988L561.8,986.988L561.8,945.842L575.836,945.842L575.836,986.988ZM564.048,947.842L564.048,984.988L573.589,984.988L573.589,947.842L564.048,947.842Z" style="fill:rgb(51,51,51);"/>
            </g>
            <g transform="matrix(0.889865,0,0,1,229.465,-0.43865)">
                <rect x="564.048" y="947.842" width="9.541" height="37.146" style="fill:black;"/>
                <path d="M575.836,986.988L561.8,986.988L561.8,945.842L575.836,945.842L575.836,986.988ZM564.048,947.842L564.048,984.988L573.589,984.988L573.589,947.842L564.048,947.842Z" style="fill:rgb(51,51,51);"/>
            </g>
            <g transform="matrix(0.889865,0,0,1,260.103,1.174)">
                <rect x="564.048" y="947.842" width="9.541" height="37.146" style="fill:black;"/>
                <path d="M575.836,986.988L561.8,986.988L561.8,945.842L575.836,945.842L575.836,986.988ZM564.048,947.842L564.048,984.988L573.589,984.988L573.589,947.842L564.048,947.842Z" style="fill:rgb(51,51,51);"/>
            </g>
            <g transform="matrix(0.889865,0,0,1,275.045,1.174)">
                <rect x="564.048" y="947.842" width="9.541" height="37.146" style="fill:black;"/>
                <path d="M575.836,986.988L561.8,986.988L561.8,945.842L575.836,945.842L575.836,986.988ZM564.048,947.842L564.048,984.988L573.589,984.988L573.589,947.842L564.048,947.842Z" style="fill:rgb(51,51,51);"/>
            </g>
            <g transform="matrix(0.889865,0,0,1,290.417,1.174)">
                <rect x="564.048" y="947.842" width="9.541" height="37.146" style="fill:black;"/>
                <path d="M575.836,986.988L561.8,986.988L561.8,945.842L575.836,945.842L575.836,986.988ZM564.048,947.842L564.048,984.988L573.589,984.988L573.589,947.842L564.048,947.842Z" style="fill:rgb(51,51,51);"/>
            </g>
            <g transform="matrix(0.889865,0,0,1,306.668,3.04886)">
                <rect x="564.048" y="947.842" width="9.541" height="37.146" style="fill:black;"/>
                <path d="M575.836,986.988L561.8,986.988L561.8,945.842L575.836,945.842L575.836,986.988ZM564.048,947.842L564.048,984.988L573.589,984.988L573.589,947.842L564.048,947.842Z" style="fill:rgb(51,51,51);"/>
            </g>
            <g transform="matrix(0.889865,0,0,1,321.208,4.91386)">
                <rect x="564.048" y="947.842" width="9.541" height="37.146" style="fill:black;"/>
                <path d="M575.836,986.988L561.8,986.988L561.8,945.842L575.836,945.842L575.836,986.988ZM564.048,947.842L564.048,984.988L573.589,984.988L573.589,947.842L564.048,947.842Z" style="fill:rgb(51,51,51);"/>
            </g>
            <g transform="matrix(0.889865,0,0,1,336.12,4.91386)">
                <rect x="564.048" y="947.842" width="9.541" height="37.146" style="fill:black;"/>
                <path d="M575.836,986.988L561.8,986.988L561.8,945.842L575.836,945.842L575.836,986.988ZM564.048,947.842L564.048,984.988L573.589,984.988L573.589,947.842L564.048,947.842Z" style="fill:rgb(51,51,51);"/>
            </g>
            <g transform="matrix(0.889865,0,0,1,350.776,7.30426)">
                <rect x="564.048" y="947.842" width="9.541" height="37.146" style="fill:black;"/>
                <path d="M575.836,986.988L561.8,986.988L561.8,945.842L575.836,945.842L575.836,986.988ZM564.048,947.842L564.048,984.988L573.589,984.988L573.589,947.842L564.048,947.842Z" style="fill:rgb(51,51,51);"/>
            </g>
            <g transform="matrix(0.889865,0,0,1,365.859,9.7607)">
                <rect x="564.048" y="947.842" width="9.541" height="37.146" style="fill:black;"/>
                <path d="M575.836,986.988L561.8,986.988L561.8,945.842L575.836,945.842L575.836,986.988ZM564.048,947.842L564.048,984.988L573.589,984.988L573.589,947.842L564.048,947.842Z" style="fill:rgb(51,51,51);"/>
            </g>
            <g transform="matrix(0.889865,0,0,1,381.264,13.4237)">
                <rect x="564.048" y="947.842" width="9.541" height="37.146" style="fill:black;"/>
                <path d="M575.836,986.988L561.8,986.988L561.8,945.842L575.836,945.842L575.836,986.988ZM564.048,947.842L564.048,984.988L573.589,984.988L573.589,947.842L564.048,947.842Z" style="fill:rgb(51,51,51);"/>
            </g>
            <g transform="matrix(0.889865,0,0,1,396.404,16.3395)">
                <rect x="564.048" y="947.842" width="9.541" height="37.146" style="fill:black;"/>
                <path d="M575.836,986.988L561.8,986.988L561.8,945.842L575.836,945.842L575.836,986.988ZM564.048,947.842L564.048,984.988L573.589,984.988L573.589,947.842L564.048,947.842Z" style="fill:rgb(51,51,51);"/>
            </g>
            <g transform="matrix(0.889865,0,0,1,410.59,20.5456)">
                <rect x="564.048" y="947.842" width="9.541" height="37.146" style="fill:black;"/>
                <path d="M575.836,986.988L561.8,986.988L561.8,945.842L575.836,945.842L575.836,986.988ZM564.048,947.842L564.048,984.988L573.589,984.988L573.589,947.842L564.048,947.842Z" style="fill:rgb(51,51,51);"/>
            </g>
            <g transform="matrix(0.889865,0,0,1,425.937,24.801)">
                <rect x="564.048" y="947.842" width="9.541" height="37.146" style="fill:black;"/>
                <path d="M575.836,986.988L561.8,986.988L561.8,945.842L575.836,945.842L575.836,986.988ZM564.048,947.842L564.048,984.988L573.589,984.988L573.589,947.842L564.048,947.842Z" style="fill:rgb(51,51,51);"/>
            </g>
            <g transform="matrix(0.889865,0,0,1,440.923,29.2032)">
                <rect x="564.048" y="947.842" width="9.541" height="37.146" style="fill:black;"/>
                <path d="M575.836,986.988L561.8,986.988L561.8,945.842L575.836,945.842L575.836,986.988ZM564.048,947.842L564.048,984.988L573.589,984.988L573.589,947.842L564.048,947.842Z" style="fill:rgb(51,51,51);"/>
            </g>
            <g transform="matrix(0.889865,0,0,1,456.29,33.3463)">
                <rect x="564.048" y="947.842" width="9.541" height="37.146" style="fill:black;"/>
                <path d="M575.836,986.988L561.8,986.988L561.8,945.842L575.836,945.842L575.836,986.988ZM564.048,947.842L564.048,984.988L573.589,984.988L573.589,947.842L564.048,947.842Z" style="fill:rgb(51,51,51);"/>
            </g>
            <g transform="matrix(0.889865,0,0,1,471.245,38.8673)">
                <rect x="564.048" y="947.842" width="9.541" height="37.146" style="fill:black;"/>
                <path d="M575.836,986.988L561.8,986.988L561.8,945.842L575.836,945.842L575.836,986.988ZM564.048,947.842L564.048,984.988L573.589,984.988L573.589,947.842L564.048,947.842Z" style="fill:rgb(51,51,51);"/>
            </g>
            <g transform="matrix(0.889865,0,0,1,486.231,43.2489)">
                <rect x="564.048" y="947.842" width="9.541" height="37.146" style="fill:black;"/>
                <path d="M575.836,986.988L561.8,986.988L561.8,945.842L575.836,945.842L575.836,986.988ZM564.048,947.842L564.048,984.988L573.589,984.988L573.589,947.842L564.048,947.842Z" style="fill:rgb(51,51,51);"/>
            </g>
            <g transform="matrix(0.889865,0,0,1,501.237,52.1983)">
                <rect x="564.048" y="947.842" width="9.541" height="37.146" style="fill:black;"/>
                <path d="M575.836,986.988L561.8,986.988L561.8,945.842L575.836,945.842L575.836,986.988ZM564.048,947.842L564.048,984.988L573.589,984.988L573.589,947.842L564.048,947.842Z" style="fill:rgb(51,51,51);"/>
            </g>
            <g transform="matrix(0.889865,0,0,1,516.619,61.3154)">
                <rect x="564.048" y="947.842" width="9.541" height="37.146" style="fill:black;"/>
                <path d="M575.836,986.988L561.8,986.988L561.8,945.842L575.836,945.842L575.836,986.988ZM564.048,947.842L564.048,984.988L573.589,984.988L573.589,947.842L564.048,947.842Z" style="fill:rgb(51,51,51);"/>
            </g>
            <g transform="matrix(0.889865,0,0,1,532.25,65.8507)">
                <rect x="564.048" y="947.842" width="9.541" height="37.146" style="fill:black;"/>
                <path d="M575.836,986.988L561.801,986.988L561.801,945.842L575.836,945.842L575.836,986.988ZM564.048,947.842L564.048,984.988L573.589,984.988L573.589,947.842L564.048,947.842Z" style="fill:rgb(51,51,51);"/>
            </g>
            <g transform="matrix(0.889865,0,0,1,547.673,71.5364)">
                <rect x="564.048" y="947.842" width="9.541" height="37.146" style="fill:black;"/>
                <path d="M575.836,986.988L561.801,986.988L561.801,945.842L575.836,945.842L575.836,986.988ZM564.048,947.842L564.048,984.988L573.589,984.988L573.589,947.842L564.048,947.842Z" style="fill:rgb(51,51,51);"/>
            </g>
            <g transform="matrix(-0.889865,0,0,1,1044.11,-0.43865)">
                <rect x="564.048" y="947.842" width="9.541" height="37.146" style="fill:black;"/>
                <path d="M561.8,986.988L575.836,986.988L575.836,945.842L561.8,945.842L561.8,986.988ZM573.589,947.842L573.589,984.988L564.048,984.988L564.048,947.842L573.589,947.842Z" style="fill:rgb(51,51,51);"/>
            </g>
            <g transform="matrix(-0.889865,0,0,1,1058.72,-0.43865)">
                <rect x="564.048" y="947.842" width="9.541" height="37.146" style="fill:black;"/>
                <path d="M561.8,986.988L575.836,986.988L575.836,945.842L561.8,945.842L561.8,986.988ZM573.589,947.842L573.589,984.988L564.048,984.988L564.048,947.842L573.589,947.842Z" style="fill:rgb(51,51,51);"/>
            </g>
            <g transform="matrix(-0.889865,0,0,1,1013.47,3.05449)">
                <rect x="564.048" y="947.842" width="9.541" height="37.146" style="fill:black;"/>
                <path d="M561.8,986.988L575.836,986.988L575.836,945.842L561.8,945.842L561.8,986.988ZM573.589,947.842L573.589,984.988L564.048,984.988L564.048,947.842L573.589,947.842Z" style="fill:rgb(51,51,51);"/>
            </g>
            <g transform="matrix(-0.889865,0,0,1,1028.67,3.05449)">
                <rect x="564.048" y="947.842" width="9.541" height="37.146" style="fill:black;"/>
                <path d="M561.8,986.988L575.836,986.988L575.836,945.842L561.8,945.842L561.8,986.988ZM573.589,947.842L573.589,984.988L564.048,984.988L564.048,947.842L573.589,947.842Z" style="fill:rgb(51,51,51);"/>
            </g>
            <g transform="matrix(-0.889865,0,0,1,998.525,3.05449)">
                <rect x="564.048" y="947.842" width="9.541" height="37.146" style="fill:black;"/>
                <path d="M561.8,986.988L575.836,986.988L575.836,945.842L561.8,945.842L561.8,986.988ZM573.589,947.842L573.589,984.988L564.048,984.988L564.048,947.842L573.589,947.842Z" style="fill:rgb(51,51,51);"/>
            </g>
            <g transform="matrix(-0.889865,0,0,1,983.154,3.05449)">
                <rect x="564.048" y="947.842" width="9.541" height="37.146" style="fill:black;"/>
                <path d="M561.8,986.988L575.836,986.988L575.836,945.842L561.8,945.842L561.8,986.988ZM573.589,947.842L573.589,984.988L564.048,984.988L564.048,947.842L573.589,947.842Z" style="fill:rgb(51,51,51);"/>
            </g>
            <g transform="matrix(-0.889865,0,0,1,966.902,4.92935)">
                <rect x="564.048" y="947.842" width="9.541" height="37.146" style="fill:black;"/>
                <path d="M561.8,986.988L575.836,986.988L575.836,945.842L561.8,945.842L561.8,986.988ZM573.589,947.842L573.589,984.988L564.048,984.988L564.048,947.842L573.589,947.842Z" style="fill:rgb(51,51,51);"/>
            </g>
            <g transform="matrix(-0.889865,0,0,1,952.363,6.79435)">
                <rect x="564.048" y="947.842" width="9.541" height="37.146" style="fill:black;"/>
                <path d="M561.8,986.988L575.836,986.988L575.836,945.842L561.8,945.842L561.8,986.988ZM573.589,947.842L573.589,984.988L564.048,984.988L564.048,947.842L573.589,947.842Z" style="fill:rgb(51,51,51);"/>
            </g>
            <g transform="matrix(-0.889865,0,0,1,937.45,6.79435)">
                <rect x="564.048" y="947.842" width="9.541" height="37.146" style="fill:black;"/>
                <path d="M561.8,986.988L575.836,986.988L575.836,945.842L561.8,945.842L561.8,986.988ZM573.589,947.842L573.589,984.988L564.048,984.988L564.048,947.842L573.589,947.842Z" style="fill:rgb(51,51,51);"/>
            </g>
            <g transform="matrix(-0.889865,0,0,1,922.795,9.18475)">
                <rect x="564.048" y="947.842" width="9.541" height="37.146" style="fill:black;"/>
                <path d="M561.8,986.988L575.836,986.988L575.836,945.842L561.8,945.842L561.8,986.988ZM573.589,947.842L573.589,984.988L564.048,984.988L564.048,947.842L573.589,947.842Z" style="fill:rgb(51,51,51);"/>
            </g>
            <g transform="matrix(-0.889865,0,0,1,907.711,11.6412)">
                <rect x="564.048" y="947.842" width="9.541" height="37.146" style="fill:black;"/>
                <path d="M561.8,986.988L575.836,986.988L575.836,945.842L561.8,945.842L561.8,986.988ZM573.589,947.842L573.589,984.988L564.048,984.988L564.048,947.842L573.589,947.842Z" style="fill:rgb(51,51,51);"/>
            </g>
            <g transform="matrix(-0.889865,0,0,1,892.306,15.3042)">
                <rect x="564.048" y="947.842" width="9.541" height="37.146" style="fill:black;"/>
                <path d="M561.8,986.988L575.836,986.988L575.836,945.842L561.8,945.842L561.8,986.988ZM573.589,947.842L573.589,984.988L564.048,984.988L564.048,947.842L573.589,947.842Z" style="fill:rgb(51,51,51);"/>
            </g>
            <g transform="matrix(-0.889865,0,0,1,877.166,18.2199)">
                <rect x="564.048" y="947.842" width="9.541" height="37.146" style="fill:black;"/>
                <path d="M561.8,986.988L575.836,986.988L575.836,945.842L561.8,945.842L561.8,986.988ZM573.589,947.842L573.589,984.988L564.048,984.988L564.048,947.842L573.589,947.842Z" style="fill:rgb(51,51,51);"/>
            </g>
            <g transform="matrix(-0.889865,0,0,1,862.98,22.4261)">
                <rect x="564.048" y="947.842" width="9.541" height="37.146" style="fill:black;"/>
                <path d="M561.8,986.988L575.836,986.988L575.836,945.842L561.8,945.842L561.8,986.988ZM573.589,947.842L573.589,984.988L564.048,984.988L564.048,947.842L573.589,947.842Z" style="fill:rgb(51,51,51);"/>
            </g>
            <g transform="matrix(-0.889865,0,0,1,847.634,26.6815)">
                <rect x="564.048" y="947.842" width="9.541" height="37.146" style="fill:black;"/>
                <path d="M561.8,986.988L575.836,986.988L575.836,945.842L561.8,945.842L561.8,986.988ZM573.589,947.842L573.589,984.988L564.048,984.988L564.048,947.842L573.589,947.842Z" style="fill:rgb(51,51,51);"/>
            </g>
            <g transform="matrix(-0.889865,0,0,1,832.648,31.0837)">
                <rect x="564.048" y="947.842" width="9.541" height="37.146" style="fill:black;"/>
                <path d="M561.8,986.988L575.836,986.988L575.836,945.842L561.8,945.842L561.8,986.988ZM573.589,947.842L573.589,984.988L564.048,984.988L564.048,947.842L573.589,947.842Z" style="fill:rgb(51,51,51);"/>
            </g>
            <g transform="matrix(-0.889865,0,0,1,817.28,39.0514)">
                <rect x="564.048" y="947.842" width="9.541" height="37.146" style="fill:black;"/>
                <path d="M561.8,986.988L575.836,986.988L575.836,945.842L561.8,945.842L561.8,986.988ZM573.589,947.842L573.589,984.988L564.048,984.988L564.048,947.842L573.589,947.842Z" style="fill:rgb(51,51,51);"/>
            </g>
            <g transform="matrix(-0.889865,0,0,1,802.326,44.0061)">
                <rect x="564.048" y="947.842" width="9.541" height="37.146" style="fill:black;"/>
                <path d="M561.8,986.988L575.836,986.988L575.836,945.842L561.8,945.842L561.8,986.988ZM573.589,947.842L573.589,984.988L564.048,984.988L564.048,947.842L573.589,947.842Z" style="fill:rgb(51,51,51);"/>
            </g>
            <g transform="matrix(-0.889865,0,0,1,787.34,49.7686)">
                <rect x="564.048" y="947.842" width="9.541" height="37.146" style="fill:black;"/>
                <path d="M561.8,986.988L575.836,986.988L575.836,945.842L561.8,945.842L561.8,986.988ZM573.589,947.842L573.589,984.988L564.048,984.988L564.048,947.842L573.589,947.842Z" style="fill:rgb(51,51,51);"/>
            </g>
            <g transform="matrix(-0.889865,0,0,1,772.333,54.0788)">
                <rect x="564.048" y="947.842" width="9.541" height="37.146" style="fill:black;"/>
                <path d="M561.8,986.988L575.836,986.988L575.836,945.842L561.8,945.842L561.8,986.988ZM573.589,947.842L573.589,984.988L564.048,984.988L564.048,947.842L573.589,947.842Z" style="fill:rgb(51,51,51);"/>
            </g>
            <g transform="matrix(-0.889865,0,0,1,756.951,63.1959)">
                <rect x="564.048" y="947.842" width="9.541" height="37.146" style="fill:black;"/>
                <path d="M561.8,986.988L575.836,986.988L575.836,945.842L561.8,945.842L561.8,986.988ZM573.589,947.842L573.589,984.988L564.048,984.988L564.048,947.842L573.589,947.842Z" style="fill:rgb(51,51,51);"/>
            </g>
            <g transform="matrix(-0.889865,0,0,1,741.321,67.7312)">
                <rect x="564.048" y="947.842" width="9.541" height="37.146" style="fill:black;"/>
                <path d="M561.8,986.988L575.836,986.988L575.836,945.842L561.8,945.842L561.8,986.988ZM573.589,947.842L573.589,984.988L564.048,984.988L564.048,947.842L573.589,947.842Z" style="fill:rgb(51,51,51);"/>
            </g>
            <g transform="matrix(-0.889865,0,0,1,725.897,73.4169)">
                <rect x="564.048" y="947.842" width="9.541" height="37.146" style="fill:black;"/>
                <path d="M561.8,986.988L575.836,986.988L575.836,945.842L561.8,945.842L561.8,986.988ZM573.589,947.842L573.589,984.988L564.048,984.988L564.048,947.842L573.589,947.842Z" style="fill:rgb(51,51,51);"/>
            </g>
        </g>
        <path id="filler" d="M215.161,1081.35C229.064,1073.85 243.963,1068.36 260.083,1067.36C510.586,1051.83 763.125,1053.53 1017.1,1067.36C1043.93,1068.82 1044.64,1069.81 1072.61,1081.35C1080.51,1084.62 1088.22,1085.71 1097.08,1085.71C1006.59,1023.46 912.582,993.487 816.263,989.638C687.122,984.477 512.854,982.998 448.712,989.638C350.603,999.794 266.284,1033.67 191.996,1085.71C200.128,1086.25 207.832,1084.71 215.161,1081.35Z" style="fill:rgb(118,122,123);stroke-width:3px;stroke:rgb(52,53,53);"/>
        <path id="oben rahmen" d="M191.945,1085.78L175.071,1085.78C250.119,1011.54 345.332,980.447 448.712,965.648C514.349,956.252 710.946,956.106 816.263,965.648C913.879,974.492 1011.78,999.149 1110.05,1085.78L1097,1085.78C1020.13,1018.04 924.943,984.542 816.263,976.244C709.248,968.776 527.038,968.378 448.712,976.244C358.661,985.288 262.699,1021.58 191.945,1085.78Z" style="fill:rgb(231,232,233);stroke-width:3px;stroke:black;"/>
        <path id="unten linie" d="M191.996,1085.71C200.128,1086.25 207.832,1084.71 215.161,1081.35C229.064,1073.85 243.963,1068.36 260.083,1067.36C510.586,1051.83 763.125,1053.53 1017.1,1067.36C1043.93,1068.82 1044.64,1069.81 1072.61,1081.35C1080.51,1084.62 1088.22,1085.71 1097.08,1085.71" style="fill:none;stroke-width:3px;stroke:black;"/>
    </g>
    <path d="M60.038,1048.8C76.924,1068.27 117.662,1079.8 175.071,1085.78C250.119,1011.54 345.332,980.447 448.712,965.648C514.349,956.252 710.946,956.106 816.263,965.648C913.879,974.492 1011.78,999.149 1110.05,1085.78C1152.41,1080.76 1195.91,1068.07 1223.06,1048.8L1135.73,903.873L1059.63,820.754L223.807,820.754L146.706,903.873L60.038,1048.8" style="fill:white;stroke-width:3px;stroke:black;"/>
    <g id="Deckel">
        <path id="Deckel1" d="M618.782,908.722C791.525,908.082 992.304,909.375 1040.13,865.051C1068.42,838.832 1063.12,813.12 1040.13,787.649C1015.64,760.531 963.54,744.704 911.961,742.183C729.729,733.278 547.484,733.838 365.229,742.183C303.251,745.021 260.553,761.057 239.501,787.649C217.813,815.114 218.045,840.897 239.501,865.051C275.813,905.929 480.504,905.431 618.782,908.722" style="fill:rgb(232,232,232);stroke-width:3px;stroke:black;"/>
        <g transform="matrix(1,0,0,1,0,2.14325)">
            <path d="M618.782,902.818C468.902,901.101 349.469,895.162 282.273,879.087C525.042,887.683 753.502,886.989 996.379,879.087C946.817,894.955 835.933,903.82 618.782,902.818Z" style="fill:rgb(118,122,123);stroke-width:3px;stroke:black;"/>
        </g>
        <g id="links rechts">
            <path d="M1059.35,820.401C1055.35,805.764 1046.58,793.902 1035.79,783.213L1122.01,863.689L1135.76,903.945L1059.35,820.401Z" style="fill:rgb(221,221,219);stroke-width:3px;stroke:black;"/>
            <path d="M1160.83,944.422L1171.04,944.422L1122.01,863.689L1135.76,903.945L1160.83,944.422Z" style="fill:rgb(231,232,233);stroke-width:3px;stroke:black;"/>
            <g transform="matrix(-1,0,0,1,1282.52,0)">
                <path d="M1160.83,944.422L1171.04,944.422L1122.01,863.689L1135.76,903.945L1160.83,944.422Z" style="fill:rgb(231,232,233);stroke-width:3px;stroke:black;"/>
            </g>
            <g transform="matrix(-1,0,0,1,1282.51,0)">
                <path d="M1058.78,820.884C1056.52,806.896 1051.57,798.262 1039.11,783.213L1122.01,863.689L1135.76,903.945L1058.78,820.884Z" style="fill:rgb(221,221,219);stroke-width:3px;stroke:black;"/>
            </g>
        </g>
    </g>
    <g id="leds anzeige" transform="matrix(1,0,0,1,5.67329,-93.8997)">
        <g transform="matrix(0.499419,0,0,0.321066,270.667,670.922)">
            <path d="M532.5,1001.56C535.537,998.5 538.583,999.103 541.634,1001.56" style="fill:none;stroke-width:3px;stroke:rgb(51,51,51);"/>
            <path d="M529.218,994.65C534.394,990.708 539.528,990.83 544.623,994.65" style="fill:none;stroke-width:3px;stroke:rgb(51,51,51);"/>
            <path d="M526.539,988.847C533.32,983.95 540.233,983.383 547.33,988.847" style="fill:none;stroke-width:3px;stroke:rgb(51,51,51);"/>
        </g>
        <g transform="matrix(0.46347,0,0,0.301096,447.417,692.287)">
            <path d="M626.349,996.053L623.073,996.053L623.073,985.75L641.216,985.75L641.216,996.053L638.183,996.053" style="fill:none;stroke-width:3px;stroke:rgb(51,51,51);"/>
            <path d="M626.295,1003.22L637.337,1003.22L632.352,1003.22L632.352,995.421" style="fill:none;stroke-width:3px;stroke:rgb(51,51,51);"/>
        </g>
        <g transform="matrix(0.46347,0,0,0.301096,406.22,692.287)">
            <path d="M626.349,996.053L623.073,996.053L623.073,985.75L641.216,985.75L641.216,996.053L638.183,996.053" style="fill:none;stroke-width:3px;stroke:rgb(51,51,51);"/>
            <path d="M626.295,1003.22L637.337,1003.22L632.352,1003.22L632.352,995.421" style="fill:none;stroke-width:3px;stroke:rgb(51,51,51);"/>
        </g>
        <g transform="matrix(0.46347,0,0,0.301096,365.952,692.287)">
            <path d="M626.349,996.053L623.073,996.053L623.073,985.75L641.216,985.75L641.216,996.053L638.183,996.053" style="fill:none;stroke-width:3px;stroke:rgb(51,51,51);"/>
            <path d="M626.295,1003.22L637.337,1003.22L632.352,1003.22L632.352,995.421" style="fill:none;stroke-width:3px;stroke:rgb(51,51,51);"/>
        </g>
        <g transform="matrix(0.46347,0,0,0.301096,327.221,692.287)">
            <path d="M626.349,996.053L623.073,996.053L623.073,985.75L641.216,985.75L641.216,996.053L638.183,996.053" style="fill:none;stroke-width:3px;stroke:rgb(51,51,51);"/>
            <path d="M626.295,1003.22L637.337,1003.22L632.352,1003.22L632.352,995.421" style="fill:none;stroke-width:3px;stroke:rgb(51,51,51);"/>
        </g>
        <g id="USB" transform="matrix(0.83169,0,0,0.83169,138.158,390.875)">
            <g transform="matrix(1,0,0,1,0,-175)">
                <ellipse cx="764.536" cy="895.504" rx="2.312" ry="1.381" style="fill:rgb(51,51,51);stroke-width:0.54px;stroke:rgb(51,51,51);"/>
            </g>
            <g transform="matrix(1,0,0,1,-1.00903,-175.976)">
                <path d="M765.466,896.846L765.466,897.482L764.489,896.504L765.466,895.527L765.466,896.162L780.858,896.162L780.858,895.527L781.836,896.504L780.858,897.482L780.858,896.846L765.466,896.846Z" style="fill:rgb(51,51,51);stroke-width:0.54px;stroke:rgb(51,51,51);"/>
            </g>
            <g transform="matrix(1,0,0,1,0,-175)">
                <path d="M772.025,895.465C772.081,897.23 774.347,897.765 777.731,897.676" style="fill:rgb(51,51,51);stroke-width:0.9px;stroke:rgb(51,51,51);"/>
            </g>
            <g transform="matrix(-0.0132607,0.933818,-0.825188,-0.0117181,1522.81,4.00262)">
                <path d="M775.814,892.159L776.798,893.73L774.83,893.73L775.814,892.159Z" style="fill:rgb(51,51,51);stroke-width:0.61px;stroke:rgb(51,51,51);"/>
            </g>
            <g transform="matrix(-0.0132607,0.933818,-0.825188,-0.0117181,1525.23,8.7317)">
                <path d="M775.814,892.159L776.798,893.73L774.83,893.73L775.814,892.159Z" style="fill:rgb(51,51,51);stroke-width:0.61px;stroke:rgb(51,51,51);"/>
            </g>
            <g transform="matrix(1,0,0,1,0,-175)">
                <path d="M769.886,895.341C769.669,893.452 771.721,892.799 775.327,892.992" style="fill:rgb(51,51,51);stroke-width:0.9px;stroke:rgb(51,51,51);"/>
            </g>
        </g>
        <g id="Lock" transform="matrix(0.83169,0,0,0.83169,147.912,163.577)">
            <g transform="matrix(1,0,0,1,0,96.2592)">
                <rect x="803.72" y="895.022" width="12.343" height="4.453" style="fill:rgb(51,51,51);stroke-width:0.9px;stroke:rgb(65,65,64);"/>
            </g>
            <g transform="matrix(1,0,0,1,0,96.2592)">
                <path d="M805.459,895.022C808.026,891.519 810.793,891.626 813.741,895.022" style="fill:none;stroke-width:0.9px;stroke:rgb(65,65,64);"/>
            </g>
        </g>
        <g id="Inet" transform="matrix(0.681623,0,0,0.681623,79.0436,315.441)">
            <g transform="matrix(1.27235,-0.227769,0.318368,1.77845,-475.111,-424.452)">
                <ellipse cx="729.346" cy="889.27" rx="6.378" ry="1.404" style="fill:none;stroke-width:0.7px;stroke:rgb(51,51,51);"/>
            </g>
            <g transform="matrix(1.09502,0,0,1.09781,-70.6185,8.19739)">
                <ellipse cx="737.796" cy="896.539" rx="5.426" ry="3.783" style="fill:none;stroke-width:1px;stroke:rgb(51,51,51);"/>
            </g>
        </g>
        <g id="power" transform="matrix(0.937654,0,0,0.85246,11.5643,141.538)">
            <g transform="matrix(0.708125,0,0,1.00146,138.624,95.4281)">
                <ellipse cx="476.583" cy="896.646" rx="8.07" ry="3.397" style="fill:none;stroke-width:1.96px;stroke:rgb(51,51,51);"/>
            </g>
            <g transform="matrix(1.61904,0,0,1.35889,-294.642,-224.773)">
                <path d="M476.64,893.332C476.64,893.141 476.522,892.986 476.376,892.986L475.847,892.986C475.702,892.986 475.583,893.141 475.583,893.332L475.583,896.733C475.583,896.924 475.702,897.08 475.847,897.08L476.376,897.08C476.522,897.08 476.64,896.924 476.64,896.733L476.64,893.332Z" style="fill:rgb(51,51,51);"/>
                <path d="M476.405,892.598L476.433,892.601L476.461,892.606L476.489,892.612L476.516,892.621L476.543,892.631L476.568,892.642L476.594,892.655L476.619,892.67L476.644,892.686L476.667,892.704L476.689,892.723L476.711,892.743L476.733,892.766L476.753,892.788L476.772,892.813L476.791,892.838L476.809,892.865L476.825,892.892L476.841,892.921L476.855,892.951L476.869,892.982L476.881,893.013L476.892,893.046L476.903,893.08L476.911,893.114L476.919,893.149L476.925,893.185L476.93,893.221L476.934,893.258L476.936,893.295L476.937,893.327L476.937,896.738L476.936,896.771L476.934,896.808L476.93,896.845L476.925,896.881L476.919,896.917L476.911,896.952L476.903,896.986L476.892,897.019L476.881,897.052L476.869,897.084L476.855,897.114L476.841,897.144L476.825,897.173L476.809,897.2L476.791,897.227L476.772,897.253L476.753,897.277L476.733,897.3L476.712,897.322L476.69,897.342L476.667,897.361L476.643,897.379L476.619,897.395L476.594,897.41L476.569,897.423L476.543,897.435L476.516,897.445L476.489,897.453L476.461,897.46L476.433,897.464L476.405,897.467L476.38,897.468L475.844,897.468L475.819,897.467L475.791,897.464L475.763,897.46L475.735,897.453L475.707,897.445L475.681,897.435L475.655,897.423L475.629,897.41L475.604,897.395L475.58,897.379L475.556,897.361L475.534,897.342L475.512,897.322L475.49,897.3L475.47,897.277L475.451,897.253L475.432,897.227L475.415,897.201L475.398,897.173L475.383,897.144L475.368,897.114L475.355,897.084L475.342,897.052L475.331,897.019L475.321,896.986L475.312,896.952L475.304,896.917L475.298,896.881L475.293,896.845L475.29,896.808L475.287,896.771L475.287,896.738L475.287,893.328L475.287,893.295L475.29,893.258L475.293,893.221L475.298,893.185L475.304,893.149L475.312,893.114L475.321,893.08L475.331,893.046L475.342,893.013L475.355,892.982L475.368,892.951L475.383,892.921L475.398,892.893L475.415,892.865L475.432,892.838L475.451,892.813L475.47,892.788L475.49,892.766L475.512,892.743L475.534,892.723L475.556,892.704L475.58,892.686L475.604,892.67L475.629,892.655L475.655,892.642L475.681,892.631L475.707,892.621L475.735,892.612L475.762,892.606L475.791,892.601L475.819,892.598L475.844,892.598L476.38,892.598L476.405,892.598ZM475.847,892.986L475.834,892.986L475.82,892.988L475.807,892.99L475.794,892.993L475.781,892.997L475.769,893.002L475.757,893.007L475.745,893.013L475.733,893.02L475.721,893.028L475.71,893.036L475.7,893.045L475.689,893.055L475.679,893.065L475.67,893.076L475.661,893.087L475.652,893.1L475.644,893.112L475.636,893.125L475.628,893.139L475.621,893.153L475.615,893.167L475.609,893.182L475.604,893.198L475.599,893.213L475.595,893.229L475.591,893.246L475.589,893.263L475.586,893.28L475.585,893.297L475.583,893.315L475.583,893.332L475.583,896.733L475.583,896.751L475.585,896.769L475.586,896.786L475.589,896.803L475.591,896.82L475.595,896.836L475.599,896.852L475.604,896.868L475.609,896.883L475.615,896.898L475.621,896.913L475.628,896.927L475.636,896.94L475.644,896.953L475.652,896.966L475.661,896.978L475.67,896.989L475.679,897L475.689,897.011L475.7,897.02L475.71,897.029L475.721,897.038L475.733,897.045L475.745,897.052L475.757,897.058L475.769,897.064L475.781,897.069L475.794,897.072L475.807,897.076L475.82,897.078L475.834,897.079L475.847,897.08L476.376,897.08L476.39,897.079L476.403,897.078L476.416,897.076L476.429,897.072L476.442,897.069L476.454,897.064L476.467,897.058L476.479,897.052L476.49,897.045L476.502,897.038L476.513,897.029L476.524,897.02L476.534,897.011L476.544,897L476.554,896.989L476.563,896.978L476.571,896.966L476.58,896.953L476.588,896.94L476.595,896.927L476.602,896.913L476.608,896.898L476.614,896.883L476.619,896.868L476.624,896.852L476.628,896.836L476.632,896.82L476.635,896.803L476.637,896.786L476.639,896.769L476.64,896.751L476.64,896.733L476.64,893.332L476.64,893.315L476.639,893.297L476.637,893.28L476.635,893.263L476.632,893.246L476.628,893.229L476.624,893.213L476.619,893.198L476.614,893.182L476.608,893.167L476.602,893.153L476.595,893.139L476.588,893.125L476.58,893.112L476.571,893.1L476.563,893.087L476.554,893.076L476.544,893.065L476.534,893.055L476.524,893.045L476.513,893.036L476.502,893.028L476.49,893.02L476.479,893.013L476.467,893.007L476.454,893.002L476.442,892.997L476.429,892.993L476.416,892.99L476.403,892.988L476.39,892.986L476.376,892.986L475.847,892.986Z" style="fill:rgb(118,122,123);"/>
            </g>
            <g transform="matrix(1.06426,-0.075927,0.0577405,0.979191,-458.842,56.0159)">
                <path d="M862.856,1021.29C862.582,1021.27 862.306,1021.27 862.031,1021.29L861.907,1021.95C861.645,1021.99 861.388,1022.05 861.14,1022.15L860.707,1021.65C860.456,1021.76 860.217,1021.9 859.993,1022.06L860.211,1022.69C860.004,1022.85 859.815,1023.04 859.65,1023.25L859.024,1023.03C858.863,1023.25 858.725,1023.49 858.611,1023.75L859.113,1024.18C859.017,1024.42 858.948,1024.68 858.908,1024.94L858.256,1025.07C858.229,1025.34 858.229,1025.62 858.256,1025.89L858.908,1026.02C858.948,1026.28 859.017,1026.54 859.113,1026.79L858.611,1027.22C858.725,1027.47 858.863,1027.71 859.024,1027.93L859.65,1027.71C859.815,1027.92 860.004,1028.11 860.211,1028.28L859.993,1028.9C860.217,1029.06 860.456,1029.2 860.707,1029.31L861.14,1028.81C861.388,1028.91 861.645,1028.98 861.907,1029.02L862.031,1029.67C862.306,1029.7 862.582,1029.7 862.856,1029.67L862.98,1029.02C863.243,1028.98 863.5,1028.91 863.747,1028.81L864.18,1029.31C864.431,1029.2 864.671,1029.06 864.895,1028.9L864.676,1028.28C864.884,1028.11 865.072,1027.92 865.238,1027.71L865.864,1027.93C866.025,1027.71 866.163,1027.47 866.276,1027.22L865.774,1026.79C865.871,1026.54 865.94,1026.28 865.98,1026.02L866.631,1025.89C866.658,1025.62 866.658,1025.34 866.631,1025.07L865.98,1024.94C865.94,1024.68 865.871,1024.42 865.774,1024.18L866.276,1023.75C866.163,1023.49 866.025,1023.25 865.864,1023.03L865.238,1023.25C865.072,1023.04 864.884,1022.85 864.676,1022.69L864.895,1022.06C864.671,1021.9 864.431,1021.76 864.18,1021.65L863.747,1022.15C863.5,1022.05 863.243,1021.99 862.98,1021.95L862.856,1021.29ZM862.444,1024.64C862.908,1024.64 863.285,1025.02 863.285,1025.48C863.285,1025.95 862.908,1026.32 862.444,1026.32C861.979,1026.32 861.602,1025.95 861.602,1025.48C861.602,1025.02 861.979,1024.64 862.444,1024.64Z" style="fill:rgb(51,51,51);"/>
            </g>
        </g>
    </g>
</svg>
