<?xml version="1.0" standalone="no"?>
<!DOCTYPE svg PUBLIC "-//W3C//DTD SVG 1.1//EN" "http://www.w3.org/Graphics/SVG/1.1/DTD/svg11.dtd">
<svg width="100%" height="100%" viewBox="0 0 1280 1150" version="1.1" xmlns="http://www.w3.org/2000/svg" xmlns:xlink="http://www.w3.org/1999/xlink" xml:space="preserve" style="fill-rule:evenodd;clip-rule:evenodd;stroke-linecap:round;stroke-linejoin:round;stroke-miterlimit:1.41421;">
    <g id="Hülle2">
        <rect x="82.233" y="938.412" width="1006.62" height="117.087" style="fill:white;"/>
        <path d="M60.052,929.086C60.285,927.454 61.416,926.719 63.245,926.707L1112.17,926.707C1114.58,926.668 1115.69,927.511 1115.72,929.086L1115.72,1034.54L1079.18,1034.54L1079.18,949.632C1079.29,945.356 1077.12,943.066 1072.25,943.117L101.964,943.117C97.941,943.104 95.513,944.865 95.789,949.632L95.789,1034.54L60.052,1034.54L60.052,929.086Z" style="fill:white;stroke-width:3px;stroke:black;"/>
        <g transform="matrix(1,0,0,1,0.0348585,-0.775377)">
            <path d="M95.789,1035.33C95.506,1047.19 98.718,1052.29 104.825,1051.81L1067.85,1051.81C1074.74,1051.54 1078.87,1047.68 1079.21,1035.33L1115.73,1035.33L1115.73,1066.54C1114.84,1077.59 1107.79,1082.23 1095.99,1081.92L79.111,1081.92C68.395,1081.82 61.217,1077.64 60.032,1066.54L60.032,1035.33L95.789,1035.33Z" style="fill:rgb(35,31,32);stroke-width:3px;stroke:black;"/>
        </g>
    </g>
    <g id="Lan1" transform="matrix(-1,3.21625e-16,-3.21625e-16,-1,1188.73,1993.37)">
        <path d="M463.538,961.757L487.377,961.757L487.377,969.841L494.601,969.841L494.601,977.802L508.571,977.802L508.571,989.68L513.332,989.68L513.332,1005.6L508.571,1005.6L508.571,1018.27L440.482,1018.27L440.482,1005.6L437.015,1005.6L437.015,989.68L440.482,989.68L440.482,977.802L455.182,977.802L455.182,969.841L463.538,969.841L463.538,961.757" style="fill:none;stroke-width:1px;stroke:black;"/>
        <rect x="436.816" y="989.68" width="9.385" height="15.92" style="fill:black;stroke-width:1px;stroke:black;"/>
        <g transform="matrix(1,0,0,1,67.0669,-0.0235958)">
            <rect x="436.816" y="989.68" width="9.385" height="15.92" style="fill:black;stroke-width:1px;stroke:black;"/>
        </g>
        <path d="M450.462,1000.22L450.462,1012.69" style="fill:none;stroke-width:1px;stroke:black;"/>
        <g transform="matrix(1,0,0,1,5.18811,0.142889)">
            <path d="M450.462,1000.22L450.462,1012.69" style="fill:none;stroke-width:1px;stroke:black;"/>
        </g>
        <g transform="matrix(1,0,0,1,10.8216,0.142889)">
            <path d="M450.462,1000.22L450.462,1012.69" style="fill:none;stroke-width:1px;stroke:black;"/>
        </g>
        <g transform="matrix(1,0,0,1,22.0044,0.291919)">
            <path d="M450.462,1000.07L450.462,1012.69" style="fill:none;stroke-width:1px;stroke:black;"/>
        </g>
        <g transform="matrix(1,0,0,1,27.0496,0.291919)">
            <path d="M450.462,1000.05L450.462,1012.69" style="fill:none;stroke-width:1px;stroke:black;"/>
        </g>
        <g transform="matrix(1,0,0,1,49.4509,0.192566)">
            <path d="M450.462,1000.16L450.462,1012.69" style="fill:none;stroke-width:1px;stroke:black;"/>
        </g>
        <path d="M466.922,1000.38L466.922,1018.21" style="fill:none;stroke-width:1px;stroke:black;"/>
        <g transform="matrix(1,0,0,1,16.0399,-0.0558162)">
            <path d="M466.922,1000.41L466.922,1018.27" style="fill:none;stroke-width:1px;stroke:black;"/>
        </g>
        <g transform="matrix(1,0,0,1,21.7443,-0.154611)">
            <path d="M466.922,1000.5L466.922,1018.4" style="fill:none;stroke-width:1px;stroke:black;"/>
        </g>
        <g transform="matrix(1,0,0,1,27.6257,-0.353316)">
            <path d="M466.922,1000.67L466.922,1018.4" style="fill:none;stroke-width:1px;stroke:black;"/>
        </g>
        <path d="M430.126,958.534L520.049,958.534L520.049,1035.48L430.126,1035.48L430.126,958.534" style="fill:none;stroke-width:1px;stroke:black;"/>
    </g>
    <g id="Beschriftung" transform="matrix(1,0,0,1,-61.6188,-1.63952)">
        <g transform="matrix(1,0,0,1,15.0787,1.56021)">
            <path d="M415.243,1042.05L415.243,1040.21C415.243,1040.03 415.212,1039.91 415.149,1039.85C415.086,1039.79 414.964,1039.76 414.781,1039.76L414.717,1039.76L414.717,1042.49L414.813,1042.49C414.978,1042.49 415.091,1042.45 415.152,1042.39C415.213,1042.32 415.243,1042.21 415.243,1042.05ZM413.132,1046.67L413.132,1038.75L414.98,1038.75C415.614,1038.75 416.078,1038.87 416.374,1039.1C416.669,1039.33 416.817,1039.69 416.817,1040.19L416.817,1041.88C416.817,1042.49 416.671,1042.93 416.379,1043.19C416.087,1043.45 415.596,1043.59 414.905,1043.59L414.717,1043.59L414.717,1046.67L413.132,1046.67Z" style="fill:black;fill-rule:nonzero;"/>
            <path d="M417.161,1040.63C417.161,1039.89 417.304,1039.36 417.59,1039.05C417.877,1038.74 418.349,1038.58 419.008,1038.58C419.667,1038.58 420.14,1038.74 420.426,1039.05C420.713,1039.36 420.856,1039.88 420.856,1040.63L420.856,1044.81C420.856,1045.55 420.714,1046.07 420.429,1046.38C420.144,1046.7 419.671,1046.85 419.008,1046.85C418.346,1046.85 417.872,1046.7 417.588,1046.38C417.303,1046.07 417.161,1045.55 417.161,1044.81L417.161,1040.63ZM418.745,1040.1L418.745,1045.27C418.745,1045.41 418.766,1045.51 418.807,1045.57C418.848,1045.62 418.915,1045.65 419.008,1045.65C419.108,1045.65 419.179,1045.62 419.22,1045.56C419.262,1045.5 419.282,1045.4 419.282,1045.27L419.282,1040.1C419.282,1039.95 419.262,1039.86 419.22,1039.8C419.179,1039.74 419.108,1039.71 419.008,1039.71C418.915,1039.71 418.848,1039.74 418.807,1039.81C418.766,1039.87 418.745,1039.96 418.745,1040.1Z" style="fill:black;fill-rule:nonzero;"/>
            <path d="M421.989,1046.67L421.2,1038.75L422.789,1038.75L422.977,1041.78C422.995,1042.04 423.011,1042.33 423.023,1042.65C423.036,1042.97 423.051,1043.42 423.069,1044.02L423.122,1044.02C423.148,1043.67 423.173,1043.34 423.2,1043.03C423.227,1042.71 423.253,1042.45 423.278,1042.24L423.692,1038.75L425.368,1038.75L425.695,1042.49C425.699,1042.55 425.715,1042.76 425.744,1043.11C425.772,1043.45 425.797,1043.76 425.819,1044.02L425.872,1044.02C425.887,1043.58 425.904,1043.18 425.923,1042.81C425.943,1042.43 425.966,1042.08 425.991,1041.73L426.238,1038.75L427.564,1038.75L426.71,1046.67L424.884,1046.67L424.487,1042.43C424.472,1042.28 424.459,1042.1 424.446,1041.9C424.434,1041.7 424.422,1041.45 424.412,1041.13L424.352,1041.13L423.794,1046.67L421.989,1046.67Z" style="fill:black;fill-rule:nonzero;"/>
            <path d="M427.983,1046.67L427.983,1038.75L430.932,1038.75L430.932,1039.85L429.568,1039.85L429.568,1041.68L430.9,1041.68L430.9,1042.82L429.568,1042.82L429.568,1045.48L430.932,1045.48L430.932,1046.67L427.983,1046.67Z" style="fill:black;fill-rule:nonzero;"/>
            <path d="M433.473,1041.47L433.473,1040.21C433.473,1040.03 433.438,1039.91 433.368,1039.85C433.298,1039.79 433.157,1039.76 432.946,1039.76L432.946,1041.92L433.032,1041.92C433.197,1041.92 433.311,1041.89 433.376,1041.82C433.44,1041.76 433.473,1041.64 433.473,1041.47ZM431.362,1046.67L431.362,1038.75L433.209,1038.75C433.854,1038.75 434.321,1038.87 434.611,1039.09C434.901,1039.32 435.046,1039.68 435.046,1040.19L435.046,1041.02C435.046,1041.43 434.944,1041.75 434.74,1041.97C434.536,1042.2 434.232,1042.32 433.827,1042.34L433.827,1042.38C434.278,1042.41 434.594,1042.52 434.775,1042.72C434.956,1042.91 435.046,1043.25 435.046,1043.71L435.046,1045.73C435.046,1045.89 435.059,1046.05 435.084,1046.21C435.109,1046.38 435.145,1046.53 435.191,1046.67L433.628,1046.67C433.578,1046.54 433.54,1046.39 433.513,1046.22C433.486,1046.05 433.473,1045.88 433.473,1045.69L433.473,1045.4L433.473,1043.67C433.473,1043.45 433.43,1043.28 433.346,1043.17C433.262,1043.06 433.136,1043 432.968,1043L432.946,1043L432.946,1046.67L431.362,1046.67Z" style="fill:black;fill-rule:nonzero;"/>
            <path d="M751.758,1046.67L751.758,1038.75L753.342,1038.75L753.342,1045.48L754.706,1045.48L754.706,1046.67L751.758,1046.67Z" style="fill:black;fill-rule:nonzero;"/>
            <path d="M755.142,1046.67L756.409,1038.75L758.434,1038.75L759.369,1046.67L757.73,1046.67L757.575,1044.56L756.79,1044.56L756.586,1046.67L755.142,1046.67ZM756.914,1043.4L757.499,1043.4L757.322,1040.98C757.311,1040.85 757.302,1040.6 757.295,1040.25C757.292,1040.09 757.29,1039.97 757.29,1039.88L757.231,1039.88C757.217,1040.19 757.204,1040.43 757.193,1040.61C757.183,1040.79 757.174,1040.91 757.166,1040.97L756.914,1043.4Z" style="fill:black;fill-rule:nonzero;"/>
            <path d="M759.675,1046.67L759.675,1038.75L761.845,1038.75L762.403,1042.11C762.453,1042.41 762.496,1042.75 762.532,1043.12C762.568,1043.49 762.598,1043.92 762.623,1044.4L762.688,1044.4C762.663,1043.84 762.644,1043.35 762.632,1042.93C762.619,1042.52 762.613,1042.22 762.613,1042.03L762.602,1038.75L763.843,1038.75L763.843,1046.67L761.984,1046.67L761.173,1042.37C761.141,1042.2 761.101,1041.95 761.052,1041.61C761.004,1041.27 760.955,1040.9 760.905,1040.49L760.862,1040.49C760.883,1040.82 760.9,1041.11 760.913,1041.36C760.925,1041.6 760.932,1041.81 760.932,1041.96L760.932,1046.67L759.675,1046.67Z" style="fill:black;fill-rule:nonzero;"/>
        </g>
        <g id="WPS wifi" transform="matrix(1,0,0,1,513.495,-14.0965)">
            <path d="M413.154,1041.47L413.154,1040.21C413.154,1040.03 413.119,1039.91 413.049,1039.85C412.979,1039.79 412.839,1039.76 412.627,1039.76L412.627,1041.92L412.713,1041.92C412.878,1041.92 412.993,1041.89 413.057,1041.82C413.121,1041.76 413.154,1041.64 413.154,1041.47ZM411.043,1046.67L411.043,1038.75L412.891,1038.75C413.535,1038.75 414.002,1038.87 414.292,1039.09C414.582,1039.32 414.727,1039.68 414.727,1040.19L414.727,1041.02C414.727,1041.43 414.625,1041.75 414.421,1041.97C414.217,1042.2 413.913,1042.32 413.508,1042.34L413.508,1042.38C413.959,1042.41 414.275,1042.52 414.456,1042.72C414.637,1042.91 414.727,1043.25 414.727,1043.71L414.727,1045.73C414.727,1045.89 414.74,1046.05 414.765,1046.21C414.79,1046.38 414.826,1046.53 414.872,1046.67L413.309,1046.67C413.259,1046.54 413.221,1046.39 413.194,1046.22C413.167,1046.05 413.154,1045.88 413.154,1045.69L413.154,1045.4L413.154,1043.67C413.154,1043.45 413.112,1043.28 413.027,1043.17C412.943,1043.06 412.817,1043 412.649,1043L412.627,1043L412.627,1046.67L411.043,1046.67Z" style="fill:black;fill-rule:nonzero;"/>
            <path d="M415.146,1046.67L415.146,1038.75L418.095,1038.75L418.095,1039.85L416.731,1039.85L416.731,1041.68L418.063,1041.68L418.063,1042.82L416.731,1042.82L416.731,1045.48L418.095,1045.48L418.095,1046.67L415.146,1046.67Z" style="fill:black;fill-rule:nonzero;"/>
            <path d="M418.45,1040.17C418.45,1039.67 418.612,1039.28 418.936,1039C419.26,1038.72 419.714,1038.58 420.297,1038.58C420.885,1038.58 421.337,1038.72 421.656,1039C421.975,1039.28 422.134,1039.68 422.134,1040.21L422.134,1041.5L420.56,1041.5L420.56,1040.1C420.56,1039.95 420.541,1039.85 420.501,1039.8C420.462,1039.74 420.394,1039.71 420.297,1039.71C420.197,1039.71 420.126,1039.74 420.085,1039.8C420.044,1039.86 420.023,1039.96 420.023,1040.1L420.023,1040.8C420.023,1040.92 420.039,1041.02 420.069,1041.11C420.099,1041.19 420.149,1041.28 420.217,1041.36L421.737,1043.03C421.88,1043.19 421.982,1043.35 422.043,1043.52C422.104,1043.69 422.134,1043.97 422.134,1044.34L422.134,1045.27C422.134,1045.78 421.974,1046.17 421.653,1046.44C421.333,1046.71 420.877,1046.85 420.287,1046.85C419.681,1046.85 419.224,1046.71 418.914,1046.42C418.604,1046.14 418.45,1045.71 418.45,1045.15L418.45,1043.67L420.023,1043.67L420.023,1045.27C420.023,1045.4 420.044,1045.5 420.085,1045.56C420.126,1045.62 420.197,1045.65 420.297,1045.65C420.39,1045.65 420.458,1045.62 420.499,1045.57C420.54,1045.51 420.56,1045.41 420.56,1045.27L420.56,1044.43C420.56,1044.32 420.54,1044.21 420.499,1044.11C420.458,1044.01 420.387,1043.9 420.287,1043.79L418.858,1042.17C418.711,1042.01 418.606,1041.84 418.544,1041.68C418.481,1041.51 418.45,1041.29 418.45,1041.01L418.45,1040.89L418.45,1040.17Z" style="fill:black;fill-rule:nonzero;"/>
            <path d="M422.575,1046.67L422.575,1038.75L425.523,1038.75L425.523,1039.85L424.159,1039.85L424.159,1041.68L425.491,1041.68L425.491,1042.82L424.159,1042.82L424.159,1045.48L425.523,1045.48L425.523,1046.67L422.575,1046.67Z" style="fill:black;fill-rule:nonzero;"/>
            <path d="M426.759,1046.67L426.759,1039.88L425.744,1039.88L425.744,1038.75L429.353,1038.75L429.353,1039.88L428.327,1039.88L428.327,1046.67L426.759,1046.67Z" style="fill:black;fill-rule:nonzero;"/>
        </g>
    </g>
    <g id="Power" transform="matrix(1,0,0,1,-9.58814,0.548232)">
        <rect x="360.529" y="973.018" width="50.745" height="61.322" style="fill:rgb(72,72,74);stroke-width:3.5px;stroke:black;"/>
        <g transform="matrix(1,0,0,1,-0.754159,0.503051)">
            <ellipse cx="387.025" cy="998.035" rx="16.88" ry="17.207" style="fill:rgb(72,72,74);stroke-width:1px;stroke:black;"/>
        </g>
        <ellipse cx="386.992" cy="998.717" rx="8.879" ry="8.391" style="fill:rgb(99,100,102);stroke-width:1px;stroke:black;"/>
        <g transform="matrix(1,0,0,1,-0.111324,-0.214278)">
            <ellipse cx="387.249" cy="998.987" rx="5.203" ry="5.065" style="fill:rgb(216,217,218);stroke-width:3px;stroke:rgb(58,57,59);"/>
        </g>
        <path d="M378.699,1011.21L394.491,1011.21L394.491,1012.99L392.11,1014.15L380.447,1014.15L378.699,1013.38L378.699,1011.21Z" style="fill:rgb(47,45,46);stroke-width:0.1px;stroke:rgb(35,31,32);"/>
    </g>
    <g id="reset loch" transform="matrix(0.564978,0,0,0.564978,373.556,438.475)">
        <ellipse cx="882.113" cy="1013.72" rx="10.926" ry="10.594" style="fill:rgb(110,104,104);stroke-width:1.77px;stroke:rgb(35,31,32);"/>
    </g>
    <g id="antenne rechts" transform="matrix(0.702304,0,0,0.702304,274.05,331.346)">
        <g transform="matrix(1,0,0,1,-4.48729,-6.61031)">
            <path d="M1016.53,124.619L1020.93,301.171L1038.98,522.435L1043.24,1048.51L1043.34,1047.87C1042.55,1048.66 1036.04,1054.15 1004.23,1054.77C972.911,1055.37 970.935,1051.94 967.466,1051.24L967.191,1051.3L967.191,524.062L984.513,301.705L982.747,124.897C994.27,123.665 1005.51,123.655 1016.53,124.619Z" style="fill:rgb(49,49,49);stroke-width:4.98px;stroke:black;"/>
        </g>
        <g transform="matrix(1,0,0,1,-4.62551,-6.3574)">
            <path d="M984.703,117.906L984.703,124.656L982.618,124.676C996.416,123.902 1007.78,123.949 1017.13,124.676L1014.86,123.88L1014.86,118.475L1016.74,117.906C1007.39,117.18 996.023,117.133 982.225,117.906L982.438,117.653C982.428,113.255 981.481,92.528 982.438,76.704C983.201,64.092 991.781,61.281 998.604,61.255C1007.64,61.221 1015.03,65.675 1015.74,76.704C1016.77,92.72 1017.06,113.91 1017.08,117.653" style="fill:rgb(49,49,49);stroke-width:4.98px;stroke:black;"/>
        </g>
    </g>
</svg>
