<?xml version="1.0" encoding="UTF-8" standalone="no"?>
<!DOCTYPE svg PUBLIC "-//W3C//DTD SVG 1.1//EN" "http://www.w3.org/Graphics/SVG/1.1/DTD/svg11.dtd">
<svg width="100%" height="100%" viewBox="0 0 1280 1150" version="1.1" xmlns="http://www.w3.org/2000/svg" xmlns:xlink="http://www.w3.org/1999/xlink" xml:space="preserve" style="fill-rule:evenodd;clip-rule:evenodd;stroke-linecap:round;stroke-linejoin:round;stroke-miterlimit:1.41421;">
    <g id="Ebene2">
        <g id="drunter" transform="matrix(-0.720338,4.0811e-16,-3.6433e-16,-0.643063,1144.39,1522.16)">
            <path d="M103.846,834.306L103.846,829.36L114.756,822.625L1211.53,822.625L1222.82,829.36L1222.82,834.306L103.846,834.306Z" style="fill:rgb(216,218,217);stroke-width:0.73px;stroke:black;"/>
            <path d="M103.842,829.36L1222.75,829.36" style="fill:rgb(216,218,217);stroke-width:0.73px;stroke:black;"/>
        </g>
        <g id="Boden" transform="matrix(-1.00645,5.70209e-16,-5.66554e-16,-1,1330.24,1808.28)">
            <path d="M103.846,834.306L103.846,829.36L114.756,822.625L1211.53,822.625L1222.82,829.36L1222.82,834.306L103.846,834.306Z" style="fill:rgb(216,218,217);stroke-width:0.5px;stroke:black;"/>
            <path d="M103.842,829.36L1222.75,829.36" style="fill:rgb(216,218,217);stroke-width:0.5px;stroke:black;"/>
        </g>
        <g id="standgummis">
            <path d="M177.751,985.947L177.751,993.432C177.676,995.655 178.866,996.692 181.105,996.747L240.337,996.747C242.813,996.858 244.149,995.831 244.109,993.432L244.109,985.947L177.751,985.947Z" style="fill:black;stroke-width:1px;stroke:black;"/>
            <g transform="matrix(1,-2.44929e-16,2.44929e-16,1,905.912,5.16626e-14)">
                <path d="M177.751,985.947L177.751,993.432C177.676,995.655 178.866,996.692 181.105,996.747L240.337,996.747C242.813,996.858 244.149,995.831 244.109,993.432L244.109,985.947L177.751,985.947Z" style="fill:black;stroke-width:1px;stroke:black;"/>
            </g>
        </g>
        <g id="Deckel">
            <path d="M103.846,834.306L103.846,829.36L114.756,822.625L1211.53,822.625L1222.82,829.36L1222.82,834.306L103.846,834.306Z" style="fill:rgb(216,218,217);stroke-width:0.5px;stroke-linecap:butt;stroke:black;"/>
            <path d="M103.842,829.36L1222.75,829.36" style="fill:rgb(216,218,217);stroke-width:0.5px;stroke:black;"/>
        </g>
        <rect x="88.185" y="841.627" width="1150.03" height="123.932" style="fill:rgb(51,51,51);stroke-width:0.5px;stroke:black;"/>
        <g id="Mittelrippen">
            <g id="Rippe">
                <g transform="matrix(0.934201,0,0,0.945756,5.38543,46.5774)">
                    <path d="M1325.87,861.927C1325.87,860.123 1324.39,858.66 1322.56,858.66L85.153,858.66C83.328,858.66 81.846,860.123 81.846,861.927L81.846,869.691C81.846,871.494 83.328,872.958 85.153,872.958L1322.56,872.958C1324.39,872.958 1325.87,871.494 1325.87,869.691L1325.87,861.927Z" style="fill:rgb(77,77,77);stroke-width:0.53px;stroke:black;"/>
                </g>
                <g transform="matrix(11.5618,0,0,2.93472,-864.167,-1666.66)">
                    <rect x="81.823" y="861.451" width="100.514" height="2.756" style="fill:rgb(51,51,51);stroke-width:0.06px;stroke:black;"/>
                </g>
            </g>
            <g id="Rippe1" transform="matrix(1,0,0,1,0,25.9614)">
                <g transform="matrix(0.934201,0,0,0.945756,5.38543,46.5774)">
                    <path d="M1325.87,861.927C1325.87,860.123 1324.39,858.66 1322.56,858.66L85.153,858.66C83.328,858.66 81.846,860.123 81.846,861.927L81.846,869.691C81.846,871.494 83.328,872.958 85.153,872.958L1322.56,872.958C1324.39,872.958 1325.87,871.494 1325.87,869.691L1325.87,861.927Z" style="fill:rgb(77,77,77);stroke-width:0.53px;stroke:black;"/>
                </g>
                <g transform="matrix(11.5618,0,0,2.93472,-864.167,-1666.66)">
                    <rect x="81.823" y="861.451" width="100.514" height="2.756" style="fill:rgb(51,51,51);stroke-width:0.06px;stroke:black;"/>
                </g>
            </g>
            <g id="Rippe2" transform="matrix(1,0,0,1,0,51.1811)">
                <g transform="matrix(0.934201,0,0,0.945756,5.38543,46.5774)">
                    <path d="M1325.87,861.927C1325.87,860.123 1324.39,858.66 1322.56,858.66L85.153,858.66C83.328,858.66 81.846,860.123 81.846,861.927L81.846,869.691C81.846,871.494 83.328,872.958 85.153,872.958L1322.56,872.958C1324.39,872.958 1325.87,871.494 1325.87,869.691L1325.87,861.927Z" style="fill:rgb(77,77,77);stroke-width:0.53px;stroke:black;"/>
                </g>
                <g transform="matrix(11.5618,0,0,2.93472,-864.167,-1666.66)">
                    <rect x="81.823" y="861.451" width="100.514" height="2.756" style="fill:rgb(51,51,51);stroke-width:0.06px;stroke:black;"/>
                </g>
            </g>
            <g id="Rippe3" transform="matrix(1,0,0,1,0,76.4851)">
                <g transform="matrix(0.934201,0,0,0.945756,5.38543,46.5774)">
                    <path d="M1325.87,861.927C1325.87,860.123 1324.39,858.66 1322.56,858.66L85.153,858.66C83.328,858.66 81.846,860.123 81.846,861.927L81.846,869.691C81.846,871.494 83.328,872.958 85.153,872.958L1322.56,872.958C1324.39,872.958 1325.87,871.494 1325.87,869.691L1325.87,861.927Z" style="fill:rgb(77,77,77);stroke-width:0.53px;stroke:black;"/>
                </g>
                <g transform="matrix(11.5618,0,0,2.93472,-864.167,-1666.66)">
                    <rect x="81.823" y="861.451" width="100.514" height="2.756" style="fill:rgb(51,51,51);stroke-width:0.06px;stroke:black;"/>
                </g>
            </g>
            <g id="Rippe4" transform="matrix(1,0,0,1,0,-24.1256)">
                <g transform="matrix(0.934201,0,0,0.945756,5.38543,46.5774)">
                    <path d="M1325.87,861.927C1325.87,860.123 1324.39,858.66 1322.56,858.66L85.153,858.66C83.328,858.66 81.846,860.123 81.846,861.927L81.846,869.691C81.846,871.494 83.328,872.958 85.153,872.958L1322.56,872.958C1324.39,872.958 1325.87,871.494 1325.87,869.691L1325.87,861.927Z" style="fill:rgb(77,77,77);stroke-width:0.53px;stroke:black;"/>
                </g>
                <g transform="matrix(11.5618,0,0,2.93472,-864.167,-1666.66)">
                    <rect x="81.823" y="861.451" width="100.514" height="2.756" style="fill:rgb(51,51,51);stroke-width:0.06px;stroke:black;"/>
                </g>
            </g>
            <g id="Rippe5" transform="matrix(1,0,0,1,0,101.804)">
                <g transform="matrix(0.934201,0,0,0.945756,5.38543,46.5774)">
                    <path d="M1325.87,861.927C1325.87,860.123 1324.39,858.66 1322.56,858.66L85.153,858.66C83.328,858.66 81.846,860.123 81.846,861.927L81.846,869.691C81.846,871.494 83.328,872.958 85.153,872.958L1322.56,872.958C1324.39,872.958 1325.87,871.494 1325.87,869.691L1325.87,861.927Z" style="fill:rgb(77,77,77);stroke-width:0.53px;stroke:black;"/>
                </g>
                <g transform="matrix(11.5618,0,0,2.93472,-864.167,-1666.66)">
                    <rect x="81.823" y="861.451" width="100.514" height="2.756" style="fill:rgb(51,51,51);stroke-width:0.06px;stroke:black;"/>
                </g>
            </g>
        </g>
        <rect id="Blende" x="263.294" y="845.061" width="800.976" height="117.543" style="fill:rgb(52,59,79);stroke-width:0.5px;stroke:black;"/>
    </g>
    <g id="Antennen-1043">
        <g id="new-Antenne-1043" transform="matrix(1.26803,0,0,1.26803,-209.245,6.92844)">
            <path d="M652.036,619.119L703.126,619.119L700.344,526.551L655.39,526.551L652.036,619.119Z" style="fill:rgb(49,49,49);stroke-width:0.39px;stroke-linecap:butt;stroke:black;"/>
            <rect x="665.084" y="199.138" width="27.899" height="28.754" style="fill:rgb(49,49,49);stroke-width:0.39px;stroke-linecap:butt;stroke:black;"/>
            <path d="M649.084,733.319L650.988,616.958C669.108,618.552 687.221,618.824 705.323,616.958L708.576,733.319C708.675,736.851 707.533,740.021 703.908,740.021L654.293,740.021C651.034,740.021 649.022,737.092 649.084,733.319Z" style="fill:rgb(51,51,51);stroke-width:0.39px;stroke-linecap:butt;stroke:black;"/>
            <g transform="matrix(0.909618,0,0,0.788626,86.9669,-5.46395)">
                <path d="M618.082,936.798L683.33,936.798" style="fill:none;stroke-width:0.46px;stroke:black;"/>
            </g>
            <path d="M650.848,597.162L650.848,612.298C668.997,614.545 687.229,614.718 705.566,612.298L705.566,597.162C687.342,599.115 669.101,598.905 650.848,597.162Z" style="fill:rgb(49,49,49);stroke-width:0.39px;stroke-linecap:butt;stroke:black;"/>
            <path d="M663.141,341.639L694.434,341.639L694.434,223.461L663.746,223.461L663.141,341.639Z" style="fill:rgb(49,49,49);stroke-width:0.39px;stroke-linecap:butt;stroke:black;"/>
            <path d="M651.347,593.426C669.264,594.991 687.044,594.958 704.694,593.426L703.132,552.011C686.546,553.968 669.625,553.864 652.419,552.011L651.347,593.426Z" style="fill:rgb(49,49,49);stroke-width:0.39px;stroke-linecap:butt;stroke:black;"/>
            <path d="M653.079,547.908C669.797,549.558 686.475,549.685 703.103,547.908L702.503,533.319C686.288,534.981 669.99,534.936 653.614,533.319L653.079,547.908Z" style="fill:rgb(49,49,49);stroke-width:0.39px;stroke-linecap:butt;stroke:black;"/>
            <path d="M653.614,529.948C669.993,531.254 686.296,531.355 702.503,529.948L697.191,338.329C685.178,340.346 673.138,340.435 661.07,338.329L653.614,529.948Z" style="fill:rgb(49,49,49);stroke-width:0.39px;stroke-linecap:butt;stroke:black;"/>
            <rect x="663.746" y="205.104" width="30.688" height="14.659" style="fill:rgb(49,49,49);stroke-width:0.39px;stroke-linecap:butt;stroke:black;"/>
            <path d="M663.687,200.966L694.443,200.966L694.443,144.136C688.239,128.631 671.247,128.6 663.687,144.136L663.687,200.966Z" style="fill:rgb(49,49,49);stroke-width:0.39px;stroke-linecap:butt;stroke:black;"/>
        </g>
        <g id="new-Antenne-10431" transform="matrix(1.26803,0,0,1.26803,248.216,6.92844)">
            <path d="M652.036,619.119L703.126,619.119L700.344,526.551L655.39,526.551L652.036,619.119Z" style="fill:rgb(49,49,49);stroke-width:0.39px;stroke-linecap:butt;stroke:black;"/>
            <rect x="665.084" y="199.138" width="27.899" height="28.754" style="fill:rgb(49,49,49);stroke-width:0.39px;stroke-linecap:butt;stroke:black;"/>
            <path d="M649.084,733.319L650.988,616.958C669.108,618.552 687.221,618.824 705.323,616.958L708.576,733.319C708.675,736.851 707.533,740.021 703.908,740.021L654.293,740.021C651.034,740.021 649.022,737.092 649.084,733.319Z" style="fill:rgb(51,51,51);stroke-width:0.39px;stroke-linecap:butt;stroke:black;"/>
            <g transform="matrix(0.909618,0,0,0.788626,86.9669,-5.46395)">
                <path d="M618.082,936.798L683.33,936.798" style="fill:none;stroke-width:0.46px;stroke:black;"/>
            </g>
            <path d="M650.848,597.162L650.848,612.298C668.997,614.545 687.229,614.718 705.566,612.298L705.566,597.162C687.342,599.115 669.101,598.905 650.848,597.162Z" style="fill:rgb(49,49,49);stroke-width:0.39px;stroke-linecap:butt;stroke:black;"/>
            <path d="M663.141,341.639L694.434,341.639L694.434,223.461L663.746,223.461L663.141,341.639Z" style="fill:rgb(49,49,49);stroke-width:0.39px;stroke-linecap:butt;stroke:black;"/>
            <path d="M651.347,593.426C669.264,594.991 687.044,594.958 704.694,593.426L703.132,552.011C686.546,553.968 669.625,553.864 652.419,552.011L651.347,593.426Z" style="fill:rgb(49,49,49);stroke-width:0.39px;stroke-linecap:butt;stroke:black;"/>
            <path d="M653.079,547.908C669.797,549.558 686.475,549.685 703.103,547.908L702.503,533.319C686.288,534.981 669.99,534.936 653.614,533.319L653.079,547.908Z" style="fill:rgb(49,49,49);stroke-width:0.39px;stroke-linecap:butt;stroke:black;"/>
            <path d="M653.614,529.948C669.993,531.254 686.296,531.355 702.503,529.948L697.191,338.329C685.178,340.346 673.138,340.435 661.07,338.329L653.614,529.948Z" style="fill:rgb(49,49,49);stroke-width:0.39px;stroke-linecap:butt;stroke:black;"/>
            <rect x="663.746" y="205.104" width="30.688" height="14.659" style="fill:rgb(49,49,49);stroke-width:0.39px;stroke-linecap:butt;stroke:black;"/>
            <path d="M663.687,200.966L694.443,200.966L694.443,144.136C688.239,128.631 671.247,128.6 663.687,144.136L663.687,200.966Z" style="fill:rgb(49,49,49);stroke-width:0.39px;stroke-linecap:butt;stroke:black;"/>
        </g>
        <g id="new-Antenne-10432" transform="matrix(1.26803,0,0,1.26803,-644.355,6.92844)">
            <path d="M652.036,619.119L703.126,619.119L700.344,526.551L655.39,526.551L652.036,619.119Z" style="fill:rgb(49,49,49);stroke-width:0.39px;stroke-linecap:butt;stroke:black;"/>
            <rect x="665.084" y="199.138" width="27.899" height="28.754" style="fill:rgb(49,49,49);stroke-width:0.39px;stroke-linecap:butt;stroke:black;"/>
            <path d="M649.084,733.319L650.988,616.958C669.108,618.552 687.221,618.824 705.323,616.958L708.576,733.319C708.675,736.851 707.533,740.021 703.908,740.021L654.293,740.021C651.034,740.021 649.022,737.092 649.084,733.319Z" style="fill:rgb(51,51,51);stroke-width:0.39px;stroke-linecap:butt;stroke:black;"/>
            <g transform="matrix(0.909618,0,0,0.788626,86.9669,-5.46395)">
                <path d="M618.082,936.798L683.33,936.798" style="fill:none;stroke-width:0.46px;stroke:black;"/>
            </g>
            <path d="M650.848,597.162L650.848,612.298C668.997,614.545 687.229,614.718 705.566,612.298L705.566,597.162C687.342,599.115 669.101,598.905 650.848,597.162Z" style="fill:rgb(49,49,49);stroke-width:0.39px;stroke-linecap:butt;stroke:black;"/>
            <path d="M663.141,341.639L694.434,341.639L694.434,223.461L663.746,223.461L663.141,341.639Z" style="fill:rgb(49,49,49);stroke-width:0.39px;stroke-linecap:butt;stroke:black;"/>
            <path d="M651.347,593.426C669.264,594.991 687.044,594.958 704.694,593.426L703.132,552.011C686.546,553.968 669.625,553.864 652.419,552.011L651.347,593.426Z" style="fill:rgb(49,49,49);stroke-width:0.39px;stroke-linecap:butt;stroke:black;"/>
            <path d="M653.079,547.908C669.797,549.558 686.475,549.685 703.103,547.908L702.503,533.319C686.288,534.981 669.99,534.936 653.614,533.319L653.079,547.908Z" style="fill:rgb(49,49,49);stroke-width:0.39px;stroke-linecap:butt;stroke:black;"/>
            <path d="M653.614,529.948C669.993,531.254 686.296,531.355 702.503,529.948L697.191,338.329C685.178,340.346 673.138,340.435 661.07,338.329L653.614,529.948Z" style="fill:rgb(49,49,49);stroke-width:0.39px;stroke-linecap:butt;stroke:black;"/>
            <rect x="663.746" y="205.104" width="30.688" height="14.659" style="fill:rgb(49,49,49);stroke-width:0.39px;stroke-linecap:butt;stroke:black;"/>
            <path d="M663.687,200.966L694.443,200.966L694.443,144.136C688.239,128.631 671.247,128.6 663.687,144.136L663.687,200.966Z" style="fill:rgb(49,49,49);stroke-width:0.39px;stroke-linecap:butt;stroke:black;"/>
        </g>
    </g>
    <g id="WAN" transform="matrix(-1,3.67394e-16,-3.67394e-16,-1,1224.79,1892.02)">
        <path d="M430.126,958.534L520.049,958.534L520.049,1035.48L430.126,1035.48L430.126,958.534" style="fill:rgb(0,158,224);stroke-width:1px;stroke:black;"/>
        <path d="M463.538,961.757L487.377,961.757L487.377,969.841L494.601,969.841L494.601,977.802L508.571,977.802L508.571,989.68L513.332,989.68L513.332,1005.6L508.571,1005.6L508.571,1018.27L440.482,1018.27L440.482,1005.6L437.015,1005.6L437.015,989.68L440.482,989.68L440.482,977.802L455.182,977.802L455.182,969.841L463.538,969.841L463.538,961.757" style="fill:rgb(166,229,255);stroke-width:1px;stroke:black;"/>
        <rect x="436.816" y="989.68" width="9.385" height="15.92" style="fill:black;stroke-width:1px;stroke:black;"/>
        <g transform="matrix(1,0,0,1,67.0669,-0.0235958)">
            <rect x="436.816" y="989.68" width="9.385" height="15.92" style="fill:black;stroke-width:1px;stroke:black;"/>
        </g>
        <path d="M450.462,1000.22L450.462,1012.69" style="fill:none;stroke-width:1px;stroke:black;"/>
        <g transform="matrix(1,0,0,1,5.18811,0.142889)">
            <path d="M450.462,1000.22L450.462,1012.69" style="fill:none;stroke-width:1px;stroke:black;"/>
        </g>
        <g transform="matrix(1,0,0,1,10.8216,0.142889)">
            <path d="M450.462,1000.22L450.462,1012.69" style="fill:none;stroke-width:1px;stroke:black;"/>
        </g>
        <g transform="matrix(1,0,0,1,22.0044,0.291919)">
            <path d="M450.462,1000.07L450.462,1012.69" style="fill:none;stroke-width:1px;stroke:black;"/>
        </g>
        <g transform="matrix(1,0,0,1,27.0496,0.291919)">
            <path d="M450.462,1000.05L450.462,1012.69" style="fill:none;stroke-width:1px;stroke:black;"/>
        </g>
        <g transform="matrix(1,0,0,1,49.4509,0.192566)">
            <path d="M450.462,1000.16L450.462,1012.69" style="fill:none;stroke-width:1px;stroke:black;"/>
        </g>
        <path d="M466.922,1000.38L466.922,1018.21" style="fill:none;stroke-width:1px;stroke:black;"/>
        <g transform="matrix(1,0,0,1,16.0399,-0.0558162)">
            <path d="M466.922,1000.41L466.922,1018.27" style="fill:none;stroke-width:1px;stroke:black;"/>
        </g>
        <g transform="matrix(1,0,0,1,21.7443,-0.154611)">
            <path d="M466.922,1000.5L466.922,1018.4" style="fill:none;stroke-width:1px;stroke:black;"/>
        </g>
        <g transform="matrix(1,0,0,1,27.6257,-0.353316)">
            <path d="M466.922,1000.67L466.922,1018.4" style="fill:none;stroke-width:1px;stroke:black;"/>
        </g>
    </g>
    <g id="lan4" transform="matrix(-1,1.22465e-16,-1.22465e-16,-1,1128.11,1892.09)">
        <g transform="matrix(3.73365,0,0,1,-1085.67,-0.000264784)">
            <path d="M430.126,958.534L520.049,958.534L520.049,1035.48L430.126,1035.48L430.126,958.534" style="fill:rgb(255,180,0);stroke-width:0.37px;stroke:black;"/>
        </g>
        <g transform="matrix(1,0,0,1,93.3029,-0.747357)">
            <path d="M463.538,961.757L487.377,961.757L487.377,969.841L494.601,969.841L494.601,977.802L508.571,977.802L508.571,989.68L513.332,989.68L513.332,1005.6L508.571,1005.6L508.571,1018.27L440.482,1018.27L440.482,1005.6L437.015,1005.6L437.015,989.68L440.482,989.68L440.482,977.802L455.182,977.802L455.182,969.841L463.538,969.841L463.538,961.757" style="fill:rgb(255,225,153);stroke-width:1px;stroke:black;"/>
        </g>
        <g transform="matrix(1,0,0,1,172.876,-0.661805)">
            <path d="M463.538,961.757L487.377,961.757L487.377,969.841L494.601,969.841L494.601,977.802L508.571,977.802L508.571,989.68L513.332,989.68L513.332,1005.6L508.571,1005.6L508.571,1018.27L440.482,1018.27L440.482,1005.6L437.015,1005.6L437.015,989.68L440.482,989.68L440.482,977.802L455.182,977.802L455.182,969.841L463.538,969.841L463.538,961.757" style="fill:rgb(255,225,153);stroke-width:1px;stroke:black;"/>
        </g>
        <g transform="matrix(1,0,0,1,252.488,-0.755912)">
            <path d="M463.538,961.757L487.377,961.757L487.377,969.841L494.601,969.841L494.601,977.802L508.571,977.802L508.571,989.68L513.332,989.68L513.332,1005.6L508.571,1005.6L508.571,1018.27L440.482,1018.27L440.482,1005.6L437.015,1005.6L437.015,989.68L440.482,989.68L440.482,977.802L455.182,977.802L455.182,969.841L463.538,969.841L463.538,961.757" style="fill:rgb(255,225,153);stroke-width:1px;stroke:black;"/>
        </g>
        <g transform="matrix(1,0,0,1,332.053,-0.509522)">
            <path d="M463.538,961.757L487.377,961.757L487.377,969.841L494.601,969.841L494.601,977.802L508.571,977.802L508.571,989.68L513.332,989.68L513.332,1005.6L508.571,1005.6L508.571,1018.27L440.482,1018.27L440.482,1005.6L437.015,1005.6L437.015,989.68L440.482,989.68L440.482,977.802L455.182,977.802L455.182,969.841L463.538,969.841L463.538,961.757" style="fill:rgb(255,225,153);stroke-width:1px;stroke:black;"/>
        </g>
        <g transform="matrix(1,0,0,1,93.3029,-0.747357)">
            <rect x="436.816" y="989.68" width="9.385" height="15.92" style="fill:black;stroke-width:1px;stroke:black;"/>
        </g>
        <g transform="matrix(1,0,0,1,172.876,-0.661805)">
            <rect x="436.816" y="989.68" width="9.385" height="15.92" style="fill:black;stroke-width:1px;stroke:black;"/>
        </g>
        <g transform="matrix(1,0,0,1,252.488,-0.755912)">
            <rect x="436.816" y="989.68" width="9.385" height="15.92" style="fill:black;stroke-width:1px;stroke:black;"/>
        </g>
        <g transform="matrix(1,0,0,1,332.053,-0.509522)">
            <rect x="436.816" y="989.68" width="9.385" height="15.92" style="fill:black;stroke-width:1px;stroke:black;"/>
        </g>
        <g transform="matrix(1,0,0,1,160.37,-0.770952)">
            <rect x="436.816" y="989.68" width="9.385" height="15.92" style="fill:black;stroke-width:1px;stroke:black;"/>
        </g>
        <g transform="matrix(1,0,0,1,239.942,-0.685401)">
            <rect x="436.816" y="989.68" width="9.385" height="15.92" style="fill:black;stroke-width:1px;stroke:black;"/>
        </g>
        <g transform="matrix(1,0,0,1,319.555,-0.779508)">
            <rect x="436.816" y="989.68" width="9.385" height="15.92" style="fill:black;stroke-width:1px;stroke:black;"/>
        </g>
        <g transform="matrix(1,0,0,1,399.12,-0.533118)">
            <rect x="436.816" y="989.68" width="9.385" height="15.92" style="fill:black;stroke-width:1px;stroke:black;"/>
        </g>
        <g transform="matrix(1,0,0,1,93.3029,-0.747357)">
            <path d="M450.462,1000.22L450.462,1012.69" style="fill:none;stroke-width:1px;stroke:black;"/>
        </g>
        <g transform="matrix(1,0,0,1,172.876,-0.661805)">
            <path d="M450.462,1000.22L450.462,1012.69" style="fill:none;stroke-width:1px;stroke:black;"/>
        </g>
        <g transform="matrix(1,0,0,1,252.488,-0.755912)">
            <path d="M450.462,1000.22L450.462,1012.69" style="fill:none;stroke-width:1px;stroke:black;"/>
        </g>
        <g transform="matrix(1,0,0,1,332.053,-0.509522)">
            <path d="M450.462,1000.22L450.462,1012.69" style="fill:none;stroke-width:1px;stroke:black;"/>
        </g>
        <g transform="matrix(1,0,0,1,98.491,-0.604467)">
            <path d="M450.462,1000.22L450.462,1012.69" style="fill:none;stroke-width:1px;stroke:black;"/>
        </g>
        <g transform="matrix(1,0,0,1,178.064,-0.518915)">
            <path d="M450.462,1000.22L450.462,1012.69" style="fill:none;stroke-width:1px;stroke:black;"/>
        </g>
        <g transform="matrix(1,0,0,1,257.676,-0.613022)">
            <path d="M450.462,1000.22L450.462,1012.69" style="fill:none;stroke-width:1px;stroke:black;"/>
        </g>
        <g transform="matrix(1,0,0,1,337.242,-0.366633)">
            <path d="M450.462,1000.22L450.462,1012.69" style="fill:none;stroke-width:1px;stroke:black;"/>
        </g>
        <g transform="matrix(1,0,0,1,104.125,-0.604467)">
            <path d="M450.462,1000.22L450.462,1012.69" style="fill:none;stroke-width:1px;stroke:black;"/>
        </g>
        <g transform="matrix(1,0,0,1,183.697,-0.518915)">
            <path d="M450.462,1000.22L450.462,1012.69" style="fill:none;stroke-width:1px;stroke:black;"/>
        </g>
        <g transform="matrix(1,0,0,1,263.309,-0.613022)">
            <path d="M450.462,1000.22L450.462,1012.69" style="fill:none;stroke-width:1px;stroke:black;"/>
        </g>
        <g transform="matrix(1,0,0,1,342.875,-0.366633)">
            <path d="M450.462,1000.22L450.462,1012.69" style="fill:none;stroke-width:1px;stroke:black;"/>
        </g>
        <g transform="matrix(1,0,0,1,115.307,-0.455438)">
            <path d="M450.462,1000.07L450.462,1012.69" style="fill:none;stroke-width:1px;stroke:black;"/>
        </g>
        <g transform="matrix(1,0,0,1,194.88,-0.369886)">
            <path d="M450.462,1000.07L450.462,1012.69" style="fill:none;stroke-width:1px;stroke:black;"/>
        </g>
        <g transform="matrix(1,0,0,1,274.492,-0.463993)">
            <path d="M450.462,1000.07L450.462,1012.69" style="fill:none;stroke-width:1px;stroke:black;"/>
        </g>
        <g transform="matrix(1,0,0,1,354.058,-0.217604)">
            <path d="M450.462,1000.07L450.462,1012.69" style="fill:none;stroke-width:1px;stroke:black;"/>
        </g>
        <g transform="matrix(1,0,0,1,120.353,-0.455438)">
            <path d="M450.462,1000.05L450.462,1012.69" style="fill:none;stroke-width:1px;stroke:black;"/>
        </g>
        <g transform="matrix(1,0,0,1,199.925,-0.369886)">
            <path d="M450.462,1000.05L450.462,1012.69" style="fill:none;stroke-width:1px;stroke:black;"/>
        </g>
        <g transform="matrix(1,0,0,1,279.537,-0.463993)">
            <path d="M450.462,1000.05L450.462,1012.69" style="fill:none;stroke-width:1px;stroke:black;"/>
        </g>
        <g transform="matrix(1,0,0,1,359.103,-0.217604)">
            <path d="M450.462,1000.05L450.462,1012.69" style="fill:none;stroke-width:1px;stroke:black;"/>
        </g>
        <g transform="matrix(1,0,0,1,142.754,-0.554791)">
            <path d="M450.462,1000.16L450.462,1012.69" style="fill:none;stroke-width:1px;stroke:black;"/>
        </g>
        <g transform="matrix(1,0,0,1,222.326,-0.469239)">
            <path d="M450.462,1000.16L450.462,1012.69" style="fill:none;stroke-width:1px;stroke:black;"/>
        </g>
        <g transform="matrix(1,0,0,1,301.939,-0.563346)">
            <path d="M450.462,1000.16L450.462,1012.69" style="fill:none;stroke-width:1px;stroke:black;"/>
        </g>
        <g transform="matrix(1,0,0,1,381.504,-0.316957)">
            <path d="M450.462,1000.16L450.462,1012.69" style="fill:none;stroke-width:1px;stroke:black;"/>
        </g>
        <g transform="matrix(1,0,0,1,93.3029,-0.747357)">
            <path d="M466.922,1000.38L466.922,1018.21" style="fill:none;stroke-width:1px;stroke:black;"/>
        </g>
        <g transform="matrix(1,0,0,1,172.876,-0.661805)">
            <path d="M466.922,1000.38L466.922,1018.21" style="fill:none;stroke-width:1px;stroke:black;"/>
        </g>
        <g transform="matrix(1,0,0,1,252.488,-0.755912)">
            <path d="M466.922,1000.38L466.922,1018.21" style="fill:none;stroke-width:1px;stroke:black;"/>
        </g>
        <g transform="matrix(1,0,0,1,332.053,-0.509522)">
            <path d="M466.922,1000.38L466.922,1018.21" style="fill:none;stroke-width:1px;stroke:black;"/>
        </g>
        <g transform="matrix(1,0,0,1,109.343,-0.803173)">
            <path d="M466.922,1000.41L466.922,1018.27" style="fill:none;stroke-width:1px;stroke:black;"/>
        </g>
        <g transform="matrix(1,0,0,1,188.915,-0.717621)">
            <path d="M466.922,1000.41L466.922,1018.27" style="fill:none;stroke-width:1px;stroke:black;"/>
        </g>
        <g transform="matrix(1,0,0,1,268.528,-0.811728)">
            <path d="M466.922,1000.41L466.922,1018.27" style="fill:none;stroke-width:1px;stroke:black;"/>
        </g>
        <g transform="matrix(1,0,0,1,348.093,-0.565338)">
            <path d="M466.922,1000.41L466.922,1018.27" style="fill:none;stroke-width:1px;stroke:black;"/>
        </g>
        <g transform="matrix(1,0,0,1,115.047,-0.901967)">
            <path d="M466.922,1000.5L466.922,1018.4" style="fill:none;stroke-width:1px;stroke:black;"/>
        </g>
        <g transform="matrix(1,0,0,1,194.62,-0.816415)">
            <path d="M466.922,1000.5L466.922,1018.4" style="fill:none;stroke-width:1px;stroke:black;"/>
        </g>
        <g transform="matrix(1,0,0,1,274.232,-0.910523)">
            <path d="M466.922,1000.5L466.922,1018.4" style="fill:none;stroke-width:1px;stroke:black;"/>
        </g>
        <g transform="matrix(1,0,0,1,353.798,-0.664133)">
            <path d="M466.922,1000.5L466.922,1018.4" style="fill:none;stroke-width:1px;stroke:black;"/>
        </g>
        <g transform="matrix(1,0,0,1,120.929,-1.10067)">
            <path d="M466.922,1000.67L466.922,1018.4" style="fill:none;stroke-width:1px;stroke:black;"/>
        </g>
        <g transform="matrix(1,0,0,1,200.501,-1.01512)">
            <path d="M466.922,1000.67L466.922,1018.4" style="fill:none;stroke-width:1px;stroke:black;"/>
        </g>
        <g transform="matrix(1,0,0,1,280.113,-1.10923)">
            <path d="M466.922,1000.67L466.922,1018.4" style="fill:none;stroke-width:1px;stroke:black;"/>
        </g>
        <g transform="matrix(1,0,0,1,359.679,-0.862839)">
            <path d="M466.922,1000.67L466.922,1018.4" style="fill:none;stroke-width:1px;stroke:black;"/>
        </g>
    </g>
    <g id="Power" transform="matrix(1,0,0,1,615.641,-99.7661)">
        <rect x="360.529" y="973.018" width="50.745" height="61.322" style="fill:rgb(72,72,74);stroke-width:3.5px;stroke:black;"/>
        <g transform="matrix(1,0,0,1,-0.754159,0.503051)">
            <ellipse cx="387.025" cy="998.035" rx="16.88" ry="17.207" style="fill:rgb(72,72,74);stroke-width:1px;stroke:black;"/>
        </g>
        <ellipse cx="386.992" cy="998.717" rx="8.879" ry="8.391" style="fill:rgb(99,100,102);stroke-width:1px;stroke:black;"/>
        <g transform="matrix(1,0,0,1,-0.111324,-0.214278)">
            <ellipse cx="387.249" cy="998.987" rx="5.203" ry="5.065" style="fill:rgb(216,217,218);stroke-width:3px;stroke:rgb(58,57,59);"/>
        </g>
        <path d="M378.699,1011.21L394.491,1011.21L394.491,1012.99L392.11,1014.15L380.447,1014.15L378.699,1013.38L378.699,1011.21Z" style="fill:rgb(47,45,46);stroke-width:0.1px;stroke:rgb(35,31,32);"/>
    </g>
    <g id="Wifi" transform="matrix(1,0,0,1,-0.511307,-1.42655)">
        <g transform="matrix(1,0,0,1,-33.0454,-98.9855)">
            <ellipse cx="882.113" cy="1013.72" rx="10.926" ry="10.594" style="fill:rgb(91,92,94);stroke-width:3.5px;stroke:rgb(35,31,32);"/>
        </g>
        <g id="ON-off" transform="matrix(1.53695,0,0,1.53695,421.274,-636.22)">
            <g transform="matrix(1,0,0,1,-0.627516,0.355553)">
                <ellipse cx="321.797" cy="999.854" rx="16.795" ry="16.434" style="fill:rgb(72,72,74);stroke-width:0.65px;stroke:black;"/>
            </g>
            <g transform="matrix(0.766109,0,0,0.766109,74.7377,234.386)">
                <ellipse cx="321.797" cy="999.854" rx="16.795" ry="16.434" style="fill:rgb(72,72,74);stroke-width:1.7px;stroke:black;"/>
            </g>
            <g transform="matrix(1,0,0,1,-0.0942289,0.933291)">
                <path d="M321.381,992.932L321.381,1006" style="fill:none;stroke-width:2.28px;stroke:black;"/>
            </g>
        </g>
    </g>
    <g transform="matrix(0.89,0,0,1,-500.983,-26.4605)">
        <path d="M924.422,979.725L924.422,977.154L919.763,977.154L919.763,975.946L924.663,968.988L925.74,968.988L925.74,975.946L927.19,975.946L927.19,977.154L925.74,977.154L925.74,979.725L924.422,979.725ZM924.422,975.946L924.422,971.104L921.06,975.946L924.422,975.946Z" style="fill:rgb(216,218,217);fill-rule:nonzero;"/>
        <path d="M1009.44,976.891L1010.75,976.715C1010.91,977.462 1011.16,978 1011.53,978.33C1011.89,978.659 1012.34,978.824 1012.86,978.824C1013.48,978.824 1014,978.609 1014.43,978.18C1014.86,977.75 1015.07,977.218 1015.07,976.583C1015.07,975.978 1014.87,975.478 1014.48,975.085C1014.08,974.692 1013.58,974.496 1012.97,974.496C1012.72,974.496 1012.41,974.544 1012.04,974.642L1012.18,973.485C1012.27,973.495 1012.34,973.5 1012.4,973.5C1012.96,973.5 1013.46,973.353 1013.91,973.06C1014.36,972.767 1014.59,972.315 1014.59,971.705C1014.59,971.222 1014.42,970.821 1014.1,970.504C1013.77,970.187 1013.35,970.028 1012.83,970.028C1012.32,970.028 1011.89,970.189 1011.55,970.511C1011.2,970.833 1010.99,971.317 1010.89,971.961L1009.57,971.727C1009.73,970.843 1010.1,970.158 1010.67,969.673C1011.24,969.187 1011.95,968.944 1012.8,968.944C1013.38,968.944 1013.92,969.07 1014.42,969.321C1014.91,969.573 1015.29,969.916 1015.55,970.35C1015.81,970.785 1015.94,971.246 1015.94,971.734C1015.94,972.198 1015.82,972.621 1015.57,973.001C1015.32,973.382 1014.95,973.685 1014.46,973.91C1015.1,974.056 1015.59,974.36 1015.94,974.822C1016.29,975.283 1016.47,975.86 1016.47,976.554C1016.47,977.491 1016.13,978.286 1015.44,978.938C1014.76,979.59 1013.89,979.916 1012.85,979.916C1011.91,979.916 1011.12,979.635 1010.5,979.073C1009.88,978.512 1009.52,977.784 1009.44,976.891Z" style="fill:rgb(216,218,217);fill-rule:nonzero;"/>
        <path d="M1105.59,978.458L1105.59,979.725L1098.5,979.725C1098.49,979.408 1098.54,979.103 1098.65,978.81C1098.83,978.326 1099.12,977.85 1099.52,977.381C1099.91,976.913 1100.49,976.371 1101.24,975.755C1102.41,974.798 1103.2,974.04 1103.61,973.481C1104.02,972.922 1104.22,972.394 1104.22,971.895C1104.22,971.373 1104.04,970.932 1103.66,970.573C1103.29,970.215 1102.8,970.035 1102.2,970.035C1101.57,970.035 1101.06,970.226 1100.68,970.606C1100.3,970.987 1100.1,971.515 1100.1,972.188L1098.74,972.049C1098.84,971.039 1099.19,970.268 1099.79,969.739C1100.4,969.209 1101.21,968.944 1102.23,968.944C1103.26,968.944 1104.08,969.229 1104.68,969.801C1105.28,970.372 1105.58,971.08 1105.58,971.925C1105.58,972.354 1105.49,972.777 1105.31,973.192C1105.14,973.607 1104.85,974.044 1104.44,974.503C1104.03,974.962 1103.35,975.592 1102.41,976.393C1101.62,977.057 1101.11,977.507 1100.88,977.744C1100.66,977.981 1100.47,978.219 1100.33,978.458L1105.59,978.458Z" style="fill:rgb(216,218,217);fill-rule:nonzero;"/>
        <path d="M1192.86,979.725L1191.55,979.725L1191.55,971.324C1191.23,971.627 1190.81,971.93 1190.3,972.232C1189.78,972.535 1189.32,972.762 1188.91,972.914L1188.91,971.639C1189.64,971.292 1190.29,970.873 1190.84,970.379C1191.39,969.886 1191.78,969.408 1192.01,968.944L1192.86,968.944L1192.86,979.725Z" style="fill:rgb(216,218,217);fill-rule:nonzero;"/>
        <path d="M1388.39,979.725L1385.54,968.988L1387,968.988L1388.63,976.026C1388.8,976.764 1388.95,977.496 1389.08,978.224C1389.36,977.076 1389.52,976.415 1389.57,976.239L1391.61,968.988L1393.32,968.988L1394.86,974.422C1395.25,975.77 1395.53,977.037 1395.7,978.224C1395.83,977.545 1396.01,976.766 1396.23,975.887L1397.91,968.988L1399.34,968.988L1396.4,979.725L1395.03,979.725L1392.77,971.544C1392.58,970.86 1392.46,970.44 1392.43,970.284C1392.32,970.777 1392.21,971.197 1392.12,971.544L1389.84,979.725L1388.39,979.725Z" style="fill:rgb(216,218,217);fill-rule:nonzero;"/>
        <path d="M1398.87,979.725L1402.99,968.988L1404.52,968.988L1408.91,979.725L1407.3,979.725L1406.04,976.473L1401.55,976.473L1400.37,979.725L1398.87,979.725ZM1401.96,975.316L1405.6,975.316L1404.48,972.342C1404.14,971.439 1403.89,970.697 1403.72,970.116C1403.58,970.804 1403.39,971.488 1403.14,972.166L1401.96,975.316Z" style="fill:rgb(216,218,217);fill-rule:nonzero;"/>
        <path d="M1410.03,979.725L1410.03,968.988L1411.49,968.988L1417.13,977.418L1417.13,968.988L1418.49,968.988L1418.49,979.725L1417.04,979.725L1411.4,971.288L1411.4,979.725L1410.03,979.725Z" style="fill:rgb(216,218,217);fill-rule:nonzero;"/>
        <path d="M1473.45,979.725L1470.6,968.988L1472.06,968.988L1473.69,976.026C1473.87,976.764 1474.02,977.496 1474.15,978.224C1474.42,977.076 1474.58,976.415 1474.63,976.239L1476.67,968.988L1478.39,968.988L1479.93,974.422C1480.31,975.77 1480.59,977.037 1480.76,978.224C1480.9,977.545 1481.08,976.766 1481.3,975.887L1482.98,968.988L1484.41,968.988L1481.47,979.725L1480.1,979.725L1477.83,971.544C1477.64,970.86 1477.53,970.44 1477.5,970.284C1477.38,970.777 1477.28,971.197 1477.18,971.544L1474.9,979.725L1473.45,979.725Z" style="fill:rgb(216,218,217);fill-rule:nonzero;"/>
        <path d="M1485.74,979.725L1485.74,968.988L1489.79,968.988C1490.5,968.988 1491.04,969.022 1491.42,969.09C1491.95,969.178 1492.39,969.345 1492.75,969.592C1493.1,969.839 1493.39,970.184 1493.61,970.628C1493.82,971.073 1493.93,971.561 1493.93,972.093C1493.93,973.006 1493.64,973.779 1493.06,974.411C1492.48,975.044 1491.43,975.36 1489.91,975.36L1487.16,975.36L1487.16,979.725L1485.74,979.725ZM1487.16,974.093L1489.93,974.093C1490.85,974.093 1491.5,973.922 1491.89,973.58C1492.27,973.238 1492.47,972.757 1492.47,972.137C1492.47,971.688 1492.35,971.303 1492.13,970.984C1491.9,970.664 1491.6,970.453 1491.23,970.35C1490.99,970.287 1490.55,970.255 1489.9,970.255L1487.16,970.255L1487.16,974.093Z" style="fill:rgb(216,218,217);fill-rule:nonzero;"/>
        <path d="M1495.26,976.275L1496.6,976.158C1496.66,976.695 1496.81,977.136 1497.04,977.48C1497.27,977.824 1497.63,978.103 1498.12,978.315C1498.61,978.528 1499.16,978.634 1499.77,978.634C1500.31,978.634 1500.79,978.553 1501.2,978.392C1501.62,978.231 1501.93,978.01 1502.13,977.729C1502.33,977.448 1502.43,977.142 1502.43,976.81C1502.43,976.473 1502.34,976.179 1502.14,975.927C1501.95,975.676 1501.62,975.465 1501.17,975.294C1500.89,975.182 1500.25,975.007 1499.26,974.77C1498.28,974.533 1497.59,974.31 1497.19,974.1C1496.68,973.832 1496.3,973.498 1496.04,973.1C1495.79,972.702 1495.67,972.257 1495.67,971.764C1495.67,971.222 1495.82,970.715 1496.13,970.244C1496.44,969.773 1496.88,969.415 1497.48,969.171C1498.07,968.927 1498.72,968.805 1499.45,968.805C1500.24,968.805 1500.94,968.933 1501.55,969.189C1502.16,969.446 1502.63,969.823 1502.95,970.321C1503.28,970.819 1503.46,971.383 1503.48,972.013L1502.12,972.115C1502.05,971.437 1501.8,970.924 1501.38,970.577C1500.95,970.23 1500.33,970.057 1499.51,970.057C1498.65,970.057 1498.02,970.215 1497.63,970.53C1497.23,970.844 1497.04,971.224 1497.04,971.668C1497.04,972.054 1497.18,972.372 1497.45,972.621C1497.73,972.87 1498.44,973.125 1499.6,973.386C1500.75,973.647 1501.54,973.875 1501.97,974.071C1502.6,974.359 1503.06,974.724 1503.36,975.166C1503.65,975.608 1503.8,976.117 1503.8,976.693C1503.8,977.264 1503.64,977.802 1503.31,978.308C1502.99,978.813 1502.52,979.206 1501.9,979.487C1501.29,979.768 1500.6,979.908 1499.84,979.908C1498.86,979.908 1498.05,979.767 1497.39,979.483C1496.74,979.2 1496.22,978.774 1495.85,978.205C1495.47,977.636 1495.28,976.993 1495.26,976.275Z" style="fill:rgb(216,218,217);fill-rule:nonzero;"/>
        <path d="M1504.59,979.908L1507.7,968.805L1508.76,968.805L1505.65,979.908L1504.59,979.908Z" style="fill:rgb(216,218,217);fill-rule:nonzero;"/>
        <path d="M1509.93,979.725L1509.93,968.988L1514.7,968.988C1515.65,968.988 1516.38,969.084 1516.88,969.277C1517.38,969.47 1517.77,969.811 1518.07,970.299C1518.37,970.787 1518.52,971.327 1518.52,971.917C1518.52,972.679 1518.27,973.321 1517.78,973.844C1517.29,974.366 1516.52,974.698 1515.49,974.84C1515.87,975.02 1516.15,975.199 1516.35,975.375C1516.77,975.755 1517.16,976.231 1517.53,976.803L1519.4,979.725L1517.61,979.725L1516.19,977.491C1515.78,976.847 1515.43,976.354 1515.16,976.012C1514.9,975.67 1514.65,975.431 1514.44,975.294C1514.23,975.157 1514.01,975.062 1513.8,975.008C1513.63,974.974 1513.37,974.957 1513,974.957L1511.36,974.957L1511.36,979.725L1509.93,979.725ZM1511.36,973.727L1514.41,973.727C1515.06,973.727 1515.57,973.659 1515.93,973.525C1516.3,973.391 1516.58,973.176 1516.77,972.881C1516.96,972.585 1517.05,972.264 1517.05,971.917C1517.05,971.41 1516.87,970.992 1516.5,970.665C1516.13,970.338 1515.55,970.174 1514.75,970.174L1511.36,970.174L1511.36,973.727Z" style="fill:rgb(216,218,217);fill-rule:nonzero;"/>
        <path d="M1520.78,979.725L1520.78,968.988L1528.54,968.988L1528.54,970.255L1522.2,970.255L1522.2,973.543L1528.13,973.543L1528.13,974.803L1522.2,974.803L1522.2,978.458L1528.79,978.458L1528.79,979.725L1520.78,979.725Z" style="fill:rgb(216,218,217);fill-rule:nonzero;"/>
        <path d="M1530.27,976.275L1531.61,976.158C1531.67,976.695 1531.82,977.136 1532.05,977.48C1532.28,977.824 1532.64,978.103 1533.13,978.315C1533.62,978.528 1534.17,978.634 1534.78,978.634C1535.32,978.634 1535.8,978.553 1536.21,978.392C1536.63,978.231 1536.94,978.01 1537.14,977.729C1537.34,977.448 1537.44,977.142 1537.44,976.81C1537.44,976.473 1537.35,976.179 1537.15,975.927C1536.96,975.676 1536.63,975.465 1536.18,975.294C1535.9,975.182 1535.26,975.007 1534.27,974.77C1533.29,974.533 1532.6,974.31 1532.2,974.1C1531.69,973.832 1531.31,973.498 1531.05,973.1C1530.8,972.702 1530.68,972.257 1530.68,971.764C1530.68,971.222 1530.83,970.715 1531.14,970.244C1531.45,969.773 1531.89,969.415 1532.49,969.171C1533.08,968.927 1533.73,968.805 1534.46,968.805C1535.25,968.805 1535.95,968.933 1536.56,969.189C1537.17,969.446 1537.64,969.823 1537.97,970.321C1538.29,970.819 1538.47,971.383 1538.49,972.013L1537.13,972.115C1537.06,971.437 1536.81,970.924 1536.39,970.577C1535.96,970.23 1535.34,970.057 1534.52,970.057C1533.65,970.057 1533.03,970.215 1532.64,970.53C1532.24,970.844 1532.05,971.224 1532.05,971.668C1532.05,972.054 1532.19,972.372 1532.46,972.621C1532.74,972.87 1533.45,973.125 1534.61,973.386C1535.76,973.647 1536.55,973.875 1536.98,974.071C1537.61,974.359 1538.07,974.724 1538.37,975.166C1538.66,975.608 1538.81,976.117 1538.81,976.693C1538.81,977.264 1538.65,977.802 1538.32,978.308C1538,978.813 1537.53,979.206 1536.91,979.487C1536.3,979.768 1535.61,979.908 1534.84,979.908C1533.87,979.908 1533.06,979.767 1532.4,979.483C1531.75,979.2 1531.23,978.774 1530.86,978.205C1530.48,977.636 1530.29,976.993 1530.27,976.275Z" style="fill:rgb(216,218,217);fill-rule:nonzero;"/>
        <path d="M1540.78,979.725L1540.78,968.988L1548.55,968.988L1548.55,970.255L1542.2,970.255L1542.2,973.543L1548.14,973.543L1548.14,974.803L1542.2,974.803L1542.2,978.458L1548.8,978.458L1548.8,979.725L1540.78,979.725Z" style="fill:rgb(216,218,217);fill-rule:nonzero;"/>
        <path d="M1553.49,979.725L1553.49,970.255L1549.95,970.255L1549.95,968.988L1558.47,968.988L1558.47,970.255L1554.91,970.255L1554.91,979.725L1553.49,979.725Z" style="fill:rgb(216,218,217);fill-rule:nonzero;"/>
        <path d="M1567.52,974.496C1567.52,972.713 1568,971.318 1568.96,970.31C1569.91,969.302 1571.15,968.797 1572.66,968.797C1573.65,968.797 1574.55,969.034 1575.34,969.508C1576.14,969.981 1576.75,970.642 1577.16,971.489C1577.58,972.336 1577.79,973.297 1577.79,974.371C1577.79,975.46 1577.57,976.434 1577.13,977.293C1576.69,978.153 1576.07,978.803 1575.26,979.245C1574.46,979.687 1573.59,979.908 1572.65,979.908C1571.64,979.908 1570.74,979.664 1569.94,979.176C1569.15,978.687 1568.55,978.021 1568.14,977.176C1567.73,976.332 1567.52,975.438 1567.52,974.496ZM1568.99,974.518C1568.99,975.812 1569.33,976.831 1570.03,977.575C1570.73,978.32 1571.6,978.692 1572.65,978.692C1573.72,978.692 1574.6,978.316 1575.29,977.564C1575.98,976.812 1576.33,975.746 1576.33,974.364C1576.33,973.49 1576.18,972.727 1575.88,972.075C1575.59,971.423 1575.15,970.918 1574.59,970.559C1574.02,970.2 1573.38,970.02 1572.67,970.02C1571.66,970.02 1570.8,970.366 1570.07,971.057C1569.35,971.748 1568.99,972.901 1568.99,974.518Z" style="fill:rgb(216,218,217);fill-rule:nonzero;"/>
        <path d="M1579.61,979.725L1579.61,968.988L1581.06,968.988L1586.7,977.418L1586.7,968.988L1588.07,968.988L1588.07,979.725L1586.61,979.725L1580.97,971.288L1580.97,979.725L1579.61,979.725Z" style="fill:rgb(216,218,217);fill-rule:nonzero;"/>
        <path d="M1589.3,979.908L1592.41,968.805L1593.46,968.805L1590.36,979.908L1589.3,979.908Z" style="fill:rgb(216,218,217);fill-rule:nonzero;"/>
        <path d="M1594.19,974.496C1594.19,972.713 1594.67,971.318 1595.62,970.31C1596.58,969.302 1597.82,968.797 1599.33,968.797C1600.32,968.797 1601.22,969.034 1602.01,969.508C1602.81,969.981 1603.41,970.642 1603.83,971.489C1604.25,972.336 1604.46,973.297 1604.46,974.371C1604.46,975.46 1604.24,976.434 1603.8,977.293C1603.36,978.153 1602.74,978.803 1601.93,979.245C1601.12,979.687 1600.26,979.908 1599.32,979.908C1598.31,979.908 1597.41,979.664 1596.61,979.176C1595.82,978.687 1595.21,978.021 1594.8,977.176C1594.39,976.332 1594.19,975.438 1594.19,974.496ZM1595.65,974.518C1595.65,975.812 1596,976.831 1596.7,977.575C1597.39,978.32 1598.27,978.692 1599.32,978.692C1600.38,978.692 1601.27,978.316 1601.96,977.564C1602.65,976.812 1602.99,975.746 1602.99,974.364C1602.99,973.49 1602.84,972.727 1602.55,972.075C1602.25,971.423 1601.82,970.918 1601.25,970.559C1600.68,970.2 1600.05,970.02 1599.34,970.02C1598.33,970.02 1597.47,970.366 1596.74,971.057C1596.02,971.748 1595.65,972.901 1595.65,974.518Z" style="fill:rgb(216,218,217);fill-rule:nonzero;"/>
        <path d="M1606.36,979.725L1606.36,968.988L1613.61,968.988L1613.61,970.255L1607.78,970.255L1607.78,973.58L1612.82,973.58L1612.82,974.847L1607.78,974.847L1607.78,979.725L1606.36,979.725Z" style="fill:rgb(216,218,217);fill-rule:nonzero;"/>
        <path d="M1615.52,979.725L1615.52,968.988L1622.77,968.988L1622.77,970.255L1616.94,970.255L1616.94,973.58L1621.98,973.58L1621.98,974.847L1616.94,974.847L1616.94,979.725L1615.52,979.725Z" style="fill:rgb(216,218,217);fill-rule:nonzero;"/>
        <path d="M1661.32,979.725L1661.32,968.988L1665.37,968.988C1666.09,968.988 1666.63,969.022 1667.01,969.09C1667.53,969.178 1667.98,969.345 1668.33,969.592C1668.69,969.839 1668.98,970.184 1669.19,970.628C1669.41,971.073 1669.52,971.561 1669.52,972.093C1669.52,973.006 1669.23,973.779 1668.65,974.411C1668.07,975.044 1667.02,975.36 1665.5,975.36L1662.74,975.36L1662.74,979.725L1661.32,979.725ZM1662.74,974.093L1665.52,974.093C1666.44,974.093 1667.09,973.922 1667.48,973.58C1667.86,973.238 1668.05,972.757 1668.05,972.137C1668.05,971.688 1667.94,971.303 1667.71,970.984C1667.49,970.664 1667.19,970.453 1666.82,970.35C1666.58,970.287 1666.13,970.255 1665.49,970.255L1662.74,970.255L1662.74,974.093Z" style="fill:rgb(216,218,217);fill-rule:nonzero;"/>
        <path d="M1670.89,974.496C1670.89,972.713 1671.37,971.318 1672.33,970.31C1673.29,969.302 1674.52,968.797 1676.04,968.797C1677.03,968.797 1677.92,969.034 1678.72,969.508C1679.51,969.981 1680.12,970.642 1680.54,971.489C1680.95,972.336 1681.16,973.297 1681.16,974.371C1681.16,975.46 1680.94,976.434 1680.51,977.293C1680.07,978.153 1679.44,978.803 1678.64,979.245C1677.83,979.687 1676.96,979.908 1676.03,979.908C1675.02,979.908 1674.12,979.664 1673.32,979.176C1672.52,978.687 1671.92,978.021 1671.51,977.176C1671.1,976.332 1670.89,975.438 1670.89,974.496ZM1672.36,974.518C1672.36,975.812 1672.71,976.831 1673.4,977.575C1674.1,978.32 1674.97,978.692 1676.02,978.692C1677.09,978.692 1677.97,978.316 1678.66,977.564C1679.35,976.812 1679.7,975.746 1679.7,974.364C1679.7,973.49 1679.55,972.727 1679.26,972.075C1678.96,971.423 1678.53,970.918 1677.96,970.559C1677.39,970.2 1676.75,970.02 1676.04,970.02C1675.04,970.02 1674.17,970.366 1673.45,971.057C1672.72,971.748 1672.36,972.901 1672.36,974.518Z" style="fill:rgb(216,218,217);fill-rule:nonzero;"/>
        <path d="M1684.87,979.725L1682.02,968.988L1683.48,968.988L1685.11,976.026C1685.29,976.764 1685.44,977.496 1685.57,978.224C1685.84,977.076 1686,976.415 1686.05,976.239L1688.09,968.988L1689.81,968.988L1691.35,974.422C1691.73,975.77 1692.01,977.037 1692.18,978.224C1692.32,977.545 1692.49,976.766 1692.71,975.887L1694.4,968.988L1695.83,968.988L1692.88,979.725L1691.51,979.725L1689.25,971.544C1689.06,970.86 1688.95,970.44 1688.91,970.284C1688.8,970.777 1688.7,971.197 1688.6,971.544L1686.32,979.725L1684.87,979.725Z" style="fill:rgb(216,218,217);fill-rule:nonzero;"/>
        <path d="M1697.18,979.725L1697.18,968.988L1704.95,968.988L1704.95,970.255L1698.6,970.255L1698.6,973.543L1704.54,973.543L1704.54,974.803L1698.6,974.803L1698.6,978.458L1705.19,978.458L1705.19,979.725L1697.18,979.725Z" style="fill:rgb(216,218,217);fill-rule:nonzero;"/>
        <path d="M1707.18,979.725L1707.18,968.988L1711.94,968.988C1712.9,968.988 1713.62,969.084 1714.12,969.277C1714.62,969.47 1715.02,969.811 1715.32,970.299C1715.62,970.787 1715.76,971.327 1715.76,971.917C1715.76,972.679 1715.52,973.321 1715.02,973.844C1714.53,974.366 1713.77,974.698 1712.74,974.84C1713.12,975.02 1713.4,975.199 1713.6,975.375C1714.01,975.755 1714.4,976.231 1714.78,976.803L1716.64,979.725L1714.86,979.725L1713.43,977.491C1713.02,976.847 1712.68,976.354 1712.41,976.012C1712.14,975.67 1711.9,975.431 1711.69,975.294C1711.48,975.157 1711.26,975.062 1711.04,975.008C1710.88,974.974 1710.62,974.957 1710.25,974.957L1708.6,974.957L1708.6,979.725L1707.18,979.725ZM1708.6,973.727L1711.65,973.727C1712.3,973.727 1712.81,973.659 1713.18,973.525C1713.54,973.391 1713.82,973.176 1714.01,972.881C1714.2,972.585 1714.3,972.264 1714.3,971.917C1714.3,971.41 1714.11,970.992 1713.75,970.665C1713.38,970.338 1712.8,970.174 1712,970.174L1708.6,970.174L1708.6,973.727Z" style="fill:rgb(216,218,217);fill-rule:nonzero;"/>
    </g>
</svg>
