<?xml version="1.0" standalone="no"?><!DOCTYPE svg PUBLIC "-//W3C//DTD SVG 1.1//EN" "http://www.w3.org/Graphics/SVG/1.1/DTD/svg11.dtd"><svg width="100%" height="100%" viewBox="0 0 1280 1150" version="1.1" xmlns="http://www.w3.org/2000/svg" xmlns:xlink="http://www.w3.org/1999/xlink" xml:space="preserve" style="fill-rule:evenodd;clip-rule:evenodd;stroke-linecap:round;stroke-linejoin:round;stroke-miterlimit:1.41421;"><rect x="588" y="82" width="262" height="659" style="fill:#808080;fill-opacity:0;"/><rect x="146" y="715" width="1056" height="360" style="fill:#808080;fill-opacity:0;"/><path d="M437.903,985.138c-8.7124,0.0395 -9.5526,19.1924 3.2472,19.5284c13.7991,0.361 11.854,-19.3327 3.2147,-19.5284" style="fill:none;stroke-width:3px;stroke:#29ac37;"/><path d="M441.05,996.543l0,-14.6373" style="fill:none;stroke-width:3px;stroke:#29ac37;"/><path d="M489.591,981.905l1.9114,5.7765l3.6832,-1.785l-0.5906,3.9915l6.1852,0l-5.0039,3.5701l2.867,2.8883l-4.0483,0.6818l1.9114,5.7768l-5.004,-3.5703l-1.9114,3.5703l-1.9113,-3.5703l-5.004,3.5703l1.9114,-5.7768l-4.0483,-0.6818l2.867,-2.8883l-5.004,-3.5701l6.1853,0l-0.5907,-3.9915l3.6833,1.785l1.9113,-5.7765Z" style="fill:#29ac37;stroke-width:1px;stroke:#29ac37;"/><path d="M532.5,1001.56c3.0371,-3.0593 6.0834,-2.4561 9.1344,0" style="fill:none;stroke-width:3px;stroke:#29ac37;"/><path d="M529.217,994.65c5.1768,-3.9415 10.3108,-3.8203 15.4059,0" style="fill:none;stroke-width:3px;stroke:#29ac37;"/><path d="M526.539,988.847c6.7805,-4.8974 13.6933,-5.4641 20.7903,0" style="fill:none;stroke-width:3px;stroke:#29ac37;"/><path d="M626.349,996.053l-3.277,0l0,-10.3038l18.1435,0l0,10.3038l-3.0333,0" style="fill:none;stroke-width:3px;stroke:#29ac37;"/><path d="M626.295,1003.22l11.0425,0l-4.9857,0l0,-7.7954" style="fill:none;stroke-width:3px;stroke:#29ac37;"/><path d="M675.527,996.575l-3.2769,0l0,-10.3038l18.1434,0l0,10.3038l-3.0333,0" style="fill:none;stroke-width:3px;stroke:#29ac37;"/><path d="M675.473,1003.74l11.0426,0l-4.9858,0l0,-7.795" style="fill:none;stroke-width:3px;stroke:#29ac37;"/><path d="M723.239,996.568l-3.2769,0l0,-10.3038l18.1434,0l0,10.3038l-3.0333,0" style="fill:none;stroke-width:3px;stroke:#29ac37;"/><path d="M723.184,1003.73l11.0426,0l-4.9858,0l0,-7.7949" style="fill:none;stroke-width:3px;stroke:#29ac37;"/><path d="M772.437,996.452l-3.2769,0l0,-10.3038l18.1434,0l0,10.3038l-3.0333,0" style="fill:none;stroke-width:3px;stroke:#29ac37;"/><path d="M772.382,1003.62l11.0426,0l-4.9858,0l0,-7.7956" style="fill:none;stroke-width:3px;stroke:#29ac37;"/><path d="M571.944,996.529c-1.7226,2.5315 -1.7226,4.8199 0,6.8649c12.3986,-1.409 20.8155,-6.3148 25.8246,-14.2137c-0.9161,-1.9097 -2.4208,-2.7255 -4.3481,-2.7556" style="fill:none;stroke-width:3px;stroke:#29ac37;"/><path d="M576.834,994.321c-0.4448,-8.394 2.2186,-12.4533 12.9805,-5.2177" style="fill:none;stroke-width:3px;stroke:#29ac37;"/><path d="M818.42,988.335c-3.1502,5.4881 -1.5748,10.7291 1.8541,15.8731l2.5064,-4.9414" style="fill:none;stroke-width:3px;stroke:#29ac37;"/><path d="M831.003,1003.07c3.1445,-7.2837 2.0873,-12.8546 -2.9792,-16.791l-2.2232,6.5249" style="fill:none;stroke-width:3px;stroke:#29ac37;"/><path d="M856.486,991.042c-0.7196,13.9508 20.9593,8.8037 17.735,-1.9621" style="fill:none;stroke-width:3px;stroke:#29ac37;"/><path d="M865.249,1006.21l0,-23.4978l3.5775,6.1406l-8.2482,0l4.6707,-6.1406" style="fill:none;stroke-width:3px;stroke:#29ac37;"/><rect x="210" y="88" width="149" height="642" style="fill:#808080;fill-opacity:0;"/><rect x="977" y="91" width="140" height="638" style="fill:#808080;fill-opacity:0;"/></svg>