<?xml version="1.0" standalone="no"?><!DOCTYPE svg PUBLIC "-//W3C//DTD SVG 1.1//EN" "http://www.w3.org/Graphics/SVG/1.1/DTD/svg11.dtd"><svg width="100%" height="100%" viewBox="0 0 1280 1150" version="1.1" xmlns="http://www.w3.org/2000/svg" xmlns:xlink="http://www.w3.org/1999/xlink" xml:space="preserve" style="fill-rule:evenodd;clip-rule:evenodd;stroke-linecap:round;stroke-linejoin:round;stroke-miterlimit:1.41421;"><g id="rumpf 3600 front"><path d="M147.311,980.975l0.155195,25.3016c351.799,13.5999 702.321,12.0893 1052.96,0l0.13146,-25.3016c-350.653,-23.0058 -701.532,-22.8605 -1053.25,0Z" style="fill:#0d0d0d;stroke-width:1px;stroke:#000;"/><path d="M1200.43,1006.04c-352.018,12.5432 -703.098,13.6545 -1052.96,0l0,21.3661c346.516,43.9694 697.727,41.784 1052.96,0l0,-21.3661Z" style="fill:#1a1a1a;stroke-width:1px;stroke:#000;"/><path d="M248.104,1038.87l19.8668,27.9507c271.062,8.68199 542.122,8.24793 813.182,0l11.8526,-27.9507c-281.511,27.0043 -563.169,28.2079 -844.902,0Z" style="fill:#0d0d0d;stroke-width:1px;stroke:#000;"/><path d="M147.308,980.987l20.7743,-77.3104c339.639,-28.5692 675.404,-27.4076 1007.75,0l24.7286,77.3104c-351.093,-21.7306 -1053.25,0 -1053.25,0Z" style="fill:#1a1a1a;stroke-width:1px;stroke:#000;"/><path d="M171.425,890.166c333.01,-23.0781 665.973,-28.062 998.848,0l-18.0764,-71.2092c-326.015,-29.3439 -645.719,-24.5419 -961.774,0l-18.9973,71.2092Z" style="fill:#1a1a1a;stroke-width:1px;stroke:#000;"/><path d="M191.723,808.384c321.171,-24.5663 640.077,-26.6286 956.096,0l-22.55,-72.7941c-302.251,-26.6384 -607.279,-24.6573 -914.505,0l-19.0407,72.7941Z" style="fill:#1a1a1a;stroke-width:1px;stroke:#000;"/><path d="M1170.27,890.051c-335.337,-26.2613 -668.026,-24.7268 -998.611,0l0,13.2924c334.16,-26.43 667.35,-28.4835 999.309,0l-0.697729,-13.2924Z" style="fill:#0d0d0d;stroke-width:1px;stroke:#000;"/><path d="M191.815,808.449l0,10.4246c319.457,-26.5065 638.144,-27.0937 956.007,-0.345419l0,-10.0792c-318.338,-26.1896 -637.019,-25.1684 -956.007,0Z" style="fill:#0d0d0d;stroke-width:1px;stroke:#000;"/></g><g id="leds anzeige"><path d="M437.904,985.138c-8.71247,0.0394648 -9.55269,19.1928 3.24719,19.5282c13.7991,0.36152 11.854,-19.3325 3.21465,-19.5282" style="fill:none;stroke-width:3px;stroke:#29ac37;"/><path d="M441.05,996.543l0,-14.6373" style="fill:none;stroke-width:3px;stroke:#29ac37;"/><path d="M489.591,981.905l1.91134,5.77658l3.68326,-1.78506l-0.590638,3.99152l6.18524,-1.72405e-07l-5.00396,3.57012l2.86702,2.88829l-4.04829,0.681832l1.91134,5.77658l-5.00396,-3.57012l-1.91134,3.57012l-1.91134,-3.57012l-5.00396,3.57012l1.91134,-5.77658l-4.04829,-0.681832l2.86702,-2.88829l-5.00396,-3.57012l6.18524,1.72405e-07l-0.590638,-3.99152l3.68326,1.78506l1.91134,-5.77658Z" style="fill:#29ac37;stroke-width:1px;stroke:#29ac37;"/><g><path d="M532.5,1001.56c3.03703,-3.0595 6.08335,-2.45622 9.13438,0" style="fill:none;stroke-width:3px;stroke:#29ac37;"/><path d="M529.218,994.65c5.17675,-3.94158 10.3107,-3.8203 15.4058,0" style="fill:none;stroke-width:3px;stroke:#29ac37;"/><path d="M526.539,988.847c6.78055,-4.89746 13.6934,-5.46411 20.7904,0" style="fill:none;stroke-width:3px;stroke:#29ac37;"/></g><g><path d="M580.511,1001.98c3.03703,-3.0595 6.08335,-2.45622 9.13438,0" style="fill:none;stroke-width:3px;stroke:#29ac37;"/><path d="M577.229,995.066c5.17675,-3.94158 10.3107,-3.8203 15.4058,0" style="fill:none;stroke-width:3px;stroke:#29ac37;"/><path d="M574.551,989.263c6.78055,-4.89746 13.6934,-5.46411 20.7904,0" style="fill:none;stroke-width:3px;stroke:#29ac37;"/></g><g><path d="M626.349,996.053l-3.27697,0l0,-10.3038l18.1434,0l0,10.3038l-3.03325,0" style="fill:none;stroke-width:3px;stroke:#29ac37;"/><path d="M626.295,1003.22l11.0425,0l-4.98572,0l0,-7.79534" style="fill:none;stroke-width:3px;stroke:#29ac37;"/></g><g><path d="M675.528,996.575l-3.27697,0l0,-10.3038l18.1434,0l0,10.3038l-3.03325,0" style="fill:none;stroke-width:3px;stroke:#29ac37;"/><path d="M675.473,1003.74l11.0425,0l-4.98572,0l0,-7.79534" style="fill:none;stroke-width:3px;stroke:#29ac37;"/></g><g><path d="M723.239,996.568l-3.27697,0l0,-10.3038l18.1434,0l0,10.3038l-3.03325,0" style="fill:none;stroke-width:3px;stroke:#29ac37;"/><path d="M723.184,1003.73l11.0425,0l-4.98572,0l0,-7.79534" style="fill:none;stroke-width:3px;stroke:#29ac37;"/></g><g><path d="M772.437,996.452l-3.27697,0l0,-10.3038l18.1434,0l0,10.3038l-3.03325,0" style="fill:none;stroke-width:3px;stroke:#29ac37;"/><path d="M772.383,1003.61l11.0425,0l-4.98572,0l0,-7.79534" style="fill:none;stroke-width:3px;stroke:#29ac37;"/></g><g><path d="M813.094,996.529c-1.72261,2.53152 -1.72261,4.81979 0,6.8648c12.3985,-1.40886 20.8155,-6.31468 25.8245,-14.2136c-0.916106,-1.90979 -2.42076,-2.72553 -4.34806,-2.75561" style="fill:none;stroke-width:3px;stroke:#29ac37;"/><path d="M817.984,994.321c-0.444786,-8.39399 2.21854,-12.4532 12.9805,-5.21767" style="fill:none;stroke-width:3px;stroke:#29ac37;"/></g><g><path d="M862.264,985.285c-3.15018,5.48813 -1.57481,10.7291 1.85415,15.8732l2.50636,-4.94141" style="fill:none;stroke-width:3px;stroke:#29ac37;"/><path d="M874.847,1000.02c3.14452,-7.28393 2.08729,-12.8549 -2.97925,-16.7912l-2.22319,6.52485" style="fill:none;stroke-width:3px;stroke:#29ac37;"/></g><g><path d="M901.628,988.999c-0.719599,13.9512 20.9593,8.80366 17.7349,-1.96216" style="fill:none;stroke-width:3px;stroke:#29ac37;"/><path d="M910.391,1004.16l0,-23.4982l3.57745,6.14059l-8.24815,0l4.6707,-6.14059" style="fill:none;stroke-width:3px;stroke:#29ac37;"/></g></g><path d="M213.007,113.052c21.3585,124.001 42.6745,247.865 62.8961,373.673c7.45449,46.3779 11.6237,93.2518 15.758,140.147l15.5478,101.706l50.1224,-3.07499l-106.865,-619.843l-37.4593,7.39205Z" style="fill:#0d0d0d;stroke-width:1px;stroke:#000;"/><path d="M231.275,89.1338c22.9142,-2.59923 25.4569,21.3257 6.42754,40.34l71.2152,430.925l16.8785,52.6606l26.3304,112.796l-36.3697,2.22593l-16.3632,-161.385l-72.3811,-431.446c-17.3443,-19.427 -24.6603,-43.4323 4.26241,-46.1168" style="fill:#333;stroke-width:1px;stroke:#000;"/><path d="M1030.06,728.081l16.2534,-116.128c4.55764,-53.9511 7.98748,-108.322 17.7408,-161.86c20.6428,-113.313 34.7202,-221.589 51.0639,-331.113l-36.4548,-9.05432c-23.2567,164.184 -47.576,328.383 -80.2954,492.704l-19.9309,122.299l51.6232,3.15191Z" style="fill:#0d0d0d;stroke-width:1px;stroke:#000;"/><path d="M1091.78,135.22c-7.0499,-7.47155 -11.6593,-15.8669 -13.2167,-25.4174c3.75231,-24.0514 34.6439,-22.1532 36.9632,0c1.53108,10.0908 -2.85898,18.404 -11.5785,25.4174l-68.4174,442.038l0,27.6003l-6.54783,123.217l-49.2723,-3.07372l45.7437,-144.22l66.3258,-445.562Z" style="fill:#333;stroke-width:1px;stroke:#000;"/></svg>