<?xml version="1.0" encoding="UTF-8" standalone="no"?>
<!DOCTYPE svg PUBLIC "-//W3C//DTD SVG 1.1//EN" "http://www.w3.org/Graphics/SVG/1.1/DTD/svg11.dtd">
<svg width="100%" height="100%" viewBox="0 0 1280 1150" version="1.1" xmlns="http://www.w3.org/2000/svg" xmlns:xlink="http://www.w3.org/1999/xlink" xml:space="preserve" style="fill-rule:evenodd;clip-rule:evenodd;stroke-linecap:round;stroke-linejoin:round;stroke-miterlimit:1.41421;">
    <g id="Antennen-neu-weiss" transform="matrix(1.07636,0,0,1.24668,-88.5429,194.075)">
        <g id="Antenne-weis" transform="matrix(1,0,0,0.880525,299.3,-274.825)">
            <g transform="matrix(1.53729,0,0,0.989908,-676.149,358.924)">
                <rect x="824.251" y="373.007" width="30.241" height="36.613" style="fill:rgb(14,14,14);stroke:rgb(37,37,37);stroke-width:0.57px;"/>
            </g>
            <g transform="matrix(1,0,0,0.928514,-0.109967,78.6656)">
                <path d="M596.842,146.048C598.148,134.335 629.626,134.428 631.468,146.048C631.468,146.048 632.361,305.275 631.468,454.318C630.385,635.257 637.722,632.773 637.722,685.677L591.116,685.677C591.208,650.44 595.064,566.875 594.763,454.318C594.366,305.649 596.488,148.735 596.842,146.048" style="fill:rgb(201,201,209);stroke:rgb(53,52,58);stroke-width:0.43px;"/>
            </g>
            <g transform="matrix(1,0,0,0.742937,0,206.707)">
                <path d="M619.462,641.727L619.462,41.042C615.315,45.234 613.301,45.809 608.833,41.042L608.833,641.727C605.066,657.466 599.707,672.464 591.006,684.606L591.006,764.895C595.999,764.084 599.375,760.037 599.193,748.868L599.193,714.835L630.585,714.835L630.585,748.868C630.36,759.768 632.558,765.423 637.612,764.895L637.612,684.606C627.142,671.111 622.264,656.364 619.462,641.727Z" style="fill:rgb(231,232,237);stroke:rgb(53,52,58);stroke-width:0.47px;"/>
            </g>
            <g transform="matrix(1.49405,0,0,1.2606,-640.361,258.705)">
                <path d="M837.283,402.883L837.283,378.72L840.849,378.72L840.849,402.883L837.283,402.883" style="fill:rgb(217,217,217);stroke:rgb(122,122,122);stroke-width:0.53px;"/>
            </g>
            <g transform="matrix(1.49405,0,0,1.2606,-640.361,258.705)">
                <path d="M830.924,413.1L830.924,385.423L835.661,385.423L835.661,400.59L843.011,400.59L843.011,385.423L848.323,385.423L848.323,413.1L830.924,413.1Z" style="fill:rgb(201,201,209);stroke:rgb(37,37,37);stroke-opacity:0.992157;stroke-width:0.53px;"/>
            </g>
            <g transform="matrix(1.5195,0,0,1.24204,-661.157,267.44)">
                <path d="M829.277,378.882L850.297,378.882C850.297,373.295 847.063,370.273 840.15,370.247C832.708,370.218 829.386,373.473 829.277,378.882" style="fill:rgb(201,201,209);"/>
            </g>
            <g transform="matrix(1.49405,0,0,1.62655,-640.361,108.94)">
                <path d="M823.669,432.657L855.247,428.66L855.247,412.853C844.703,408.205 834.176,407.905 823.669,412.853L823.669,432.657" style="fill:rgb(201,201,209);stroke:rgb(37,37,37);stroke-opacity:0.992157;stroke-width:0.47px;"/>
            </g>
            <g transform="matrix(1,0,0,0.930642,0,78.2032)">
                <path d="M596.842,146.048C598.148,134.335 629.626,134.428 631.468,146.048C632.004,150.27 630.686,154.042 628.26,158.546C625.819,163.078 623.038,167.23 619.462,170.845C615.315,175.037 613.301,175.612 608.833,170.845C605.538,167.329 602.57,163.212 599.901,158.546C597.855,154.669 596.51,150.594 596.842,146.048" style="fill:rgb(219,219,225);stroke:rgb(53,52,58);stroke-width:0.43px;"/>
            </g>
        </g>
        <g id="Antenne-weis1" transform="matrix(1,0,0,0.880525,-216.452,-274.911)">
            <g transform="matrix(1.53729,0,0,0.989908,-676.149,358.924)">
                <rect x="824.251" y="373.007" width="30.241" height="36.613" style="fill:rgb(14,14,14);stroke:rgb(37,37,37);stroke-width:0.57px;"/>
            </g>
            <g transform="matrix(1,0,0,0.928514,-0.109967,78.6656)">
                <path d="M596.842,146.048C598.148,134.335 629.626,134.428 631.468,146.048C631.468,146.048 632.361,305.275 631.468,454.318C630.385,635.257 637.722,632.773 637.722,685.677L591.116,685.677C591.208,650.44 595.064,566.875 594.763,454.318C594.366,305.649 596.488,148.735 596.842,146.048" style="fill:rgb(201,201,209);stroke:rgb(53,52,58);stroke-width:0.43px;"/>
            </g>
            <g transform="matrix(1,0,0,0.742937,0,206.707)">
                <path d="M619.462,641.727L619.462,41.042C615.315,45.234 613.301,45.809 608.833,41.042L608.833,641.727C605.066,657.466 599.707,672.464 591.006,684.606L591.006,764.895C595.999,764.084 599.375,760.037 599.193,748.868L599.193,714.835L630.585,714.835L630.585,748.868C630.36,759.768 632.558,765.423 637.612,764.895L637.612,684.606C627.142,671.111 622.264,656.364 619.462,641.727Z" style="fill:rgb(231,232,237);stroke:rgb(53,52,58);stroke-width:0.47px;"/>
            </g>
            <g transform="matrix(1.49405,0,0,1.2606,-640.361,258.705)">
                <path d="M837.283,402.883L837.283,378.72L840.849,378.72L840.849,402.883L837.283,402.883" style="fill:rgb(217,217,217);stroke:rgb(122,122,122);stroke-width:0.53px;"/>
            </g>
            <g transform="matrix(1.49405,0,0,1.2606,-640.361,258.705)">
                <path d="M830.924,413.1L830.924,385.423L835.661,385.423L835.661,400.59L843.011,400.59L843.011,385.423L848.323,385.423L848.323,413.1L830.924,413.1Z" style="fill:rgb(201,201,209);stroke:rgb(37,37,37);stroke-opacity:0.992157;stroke-width:0.53px;"/>
            </g>
            <g transform="matrix(1.5195,0,0,1.24204,-661.157,267.44)">
                <path d="M829.277,378.882L850.297,378.882C850.297,373.295 847.063,370.273 840.15,370.247C832.708,370.218 829.386,373.473 829.277,378.882" style="fill:rgb(201,201,209);"/>
            </g>
            <g transform="matrix(1.49405,0,0,1.62655,-640.361,108.94)">
                <path d="M823.669,432.657L855.247,428.66L855.247,412.853C844.703,408.205 834.176,407.905 823.669,412.853L823.669,432.657" style="fill:rgb(201,201,209);stroke:rgb(37,37,37);stroke-opacity:0.992157;stroke-width:0.47px;"/>
            </g>
            <g transform="matrix(1,0,0,0.930642,0,78.2032)">
                <path d="M596.842,146.048C598.148,134.335 629.626,134.428 631.468,146.048C632.004,150.27 630.686,154.042 628.26,158.546C625.819,163.078 623.038,167.23 619.462,170.845C615.315,175.037 613.301,175.612 608.833,170.845C605.538,167.329 602.57,163.212 599.901,158.546C597.855,154.669 596.51,150.594 596.842,146.048" style="fill:rgb(219,219,225);stroke:rgb(53,52,58);stroke-width:0.43px;"/>
            </g>
        </g>
    </g>
    <g id="Rumpf-Neu">
        <g transform="matrix(1.38938,0,0,1.76232,-240.716,-492.957)">
            <path d="M373.361,829.871C490.916,844.145 777.987,841.503 842.195,834.635C883.569,830.209 904.488,819.174 907.841,806.712C918.929,765.506 909.958,726.69 885.973,690C880.164,681.114 863.652,671.907 850.112,669C755.201,648.625 483.122,643.907 391.888,669C374.829,673.692 361.561,691.609 355.125,701.368C333.351,737.815 323,755.616 324.408,796.968C325.137,818.391 353.391,827.446 373.361,829.871Z" style="fill:rgb(51,51,51);"/>
        </g>
        <g transform="matrix(1.38938,0,0,1.84729,-240.716,-566.35)">
            <path d="M373.361,829.871C490.916,844.145 777.987,841.503 842.195,834.635C883.569,830.209 904.488,819.174 907.841,806.712C918.929,765.506 909.958,726.69 885.973,690C880.164,681.114 863.652,671.907 850.112,669C755.201,648.625 483.122,643.907 391.888,669C374.829,673.692 361.561,691.609 355.125,701.368C333.351,737.815 323,755.616 324.408,796.968C325.137,818.391 353.391,827.446 373.361,829.871Z" style="fill:white;stroke:black;stroke-width:0.61px;"/>
        </g>
        <g transform="matrix(1.38938,0,0,1.84729,-240.716,-575.35)">
            <path d="M373.361,829.871C490.916,844.145 777.987,841.503 842.195,834.635C883.569,830.209 904.488,819.174 907.841,806.712C918.929,765.506 909.958,726.69 885.973,690C880.164,681.114 863.652,671.907 850.112,669C755.201,648.625 483.122,643.907 391.888,669C374.829,673.692 361.561,691.609 355.125,701.368C333.351,737.815 323,755.616 324.408,796.968C325.137,818.391 353.391,827.446 373.361,829.871Z" style="fill:white;stroke:black;stroke-width:1.22px;"/>
        </g>
        <g transform="matrix(1.34355,0,0,1.63527,-212.669,-434.891)">
            <path d="M374.21,830.214C461.435,838.92 679.862,841.336 842.349,833.271C881.003,831.353 907.802,816.831 908.511,794.629C909.929,750.269 908,729.726 885.097,690.612C879.694,681.383 860.171,671.17 847.237,668.018C752.99,645.055 472.852,644.926 393.932,667.777C371.43,674.292 367.968,684.143 357.963,695.504C340.519,715.311 331.239,753.623 328.744,794.629C327.818,809.857 344.721,826.948 374.21,830.214Z" style="fill:rgb(145,145,145);stroke:black;stroke-width:0.67px;"/>
        </g>
        <g transform="matrix(1.31454,0,0,1.59268,-194.28,-409.373)">
            <path d="M374.081,833.119C508.895,844.492 803.435,840.18 850.112,836.259C891.576,832.776 908.327,815.072 910,802.381C914.963,764.729 909.958,726.69 885.973,690C880.164,681.114 863.652,671.907 850.112,669C755.201,648.625 483.122,643.907 391.888,669C374.829,673.692 365.879,680.241 359.444,690C337.67,726.447 325.16,761.03 326.567,802.381C327.296,823.804 354.035,831.428 374.081,833.119Z" style="fill:white;stroke:black;stroke-width:0.68px;"/>
        </g>
        <g transform="matrix(1.25765,0,0,1.40517,-160.499,-282.011)">
            <path d="M358.707,839.476C399.92,850.463 828.704,852.987 879.513,839.476C906.176,832.386 911.295,816.808 910.795,794.629C909.885,754.256 906.048,727.271 886.586,690C881.671,680.589 869.934,673.004 857,669.853C762.753,646.89 476.234,643.907 385,669C367.106,676.203 365.142,680.241 358.707,690C338.496,727.842 329.607,752.974 328,794.629C327.507,807.416 322.604,829.851 358.707,839.476Z" style="fill:rgb(145,145,145);stroke:black;stroke-width:0.75px;"/>
        </g>
        <g transform="matrix(1.24219,0,0,1.42386,-150.436,-298.315)">
            <path d="M374.081,835.631C526.04,843.592 773.771,843.132 869.891,835.781C870.537,835.732 871.167,835.681 871.78,835.631C894.503,833.755 909.507,819.232 910,802.381C911.18,762.015 906.424,728.518 885.973,690C880.974,680.585 863.652,671.907 850.112,669C755.201,648.625 483.122,643.907 391.888,669C374.829,673.692 365.879,680.241 359.444,690C339.233,727.842 330.483,761.888 329.61,802.381C329.148,823.812 353.991,834.578 374.081,835.631Z" style="fill:white;stroke:black;stroke-width:0.75px;"/>
        </g>
        <g transform="matrix(1.1855,0,0,1.2714,-114.836,-186.872)">
            <path d="M360.218,837.64C453.264,845.12 815.218,847.206 880.308,837.64C904.068,834.149 910.676,816.832 910,794.629C908.772,754.264 906.048,727.271 886.586,690C881.671,680.589 869.934,673.004 857,669.853C762.753,646.89 476.234,643.907 385,669C367.106,676.203 365.142,680.241 358.707,690C338.496,727.842 329.607,752.974 328,794.629C327.507,807.416 327.75,835.031 360.218,837.64Z" style="fill:rgb(145,145,145);stroke:black;stroke-width:0.81px;"/>
        </g>
        <g transform="matrix(1.16146,0,0,1.28205,-99.9561,-200.872)">
            <path d="M374.081,838.44C549.435,843.285 807.292,843.897 873.39,838.44C896.113,836.564 909.507,824.85 910,808C911.18,767.634 906.424,728.518 885.973,690C880.974,680.585 863.652,671.907 850.112,669C755.201,648.625 483.122,643.907 391.888,669C374.829,673.692 365.879,680.241 359.444,690C339.233,727.842 328.873,767.507 328,808C327.538,829.43 354.152,838.44 374.081,838.44Z" style="fill:white;stroke:black;stroke-width:0.82px;"/>
        </g>
        <g transform="matrix(1.10821,0,0,1.17266,-67.4919,-122.556)">
            <path d="M356,838.294C447.586,846.759 815.902,845.457 882,840C904.723,838.124 909.507,824.85 910,808C911.18,767.634 906.048,727.271 886.586,690C881.671,680.589 869.934,673.004 857,669.853C762.753,646.89 476.234,643.907 385,669C367.106,676.203 365.142,680.241 358.707,690C338.496,727.842 326.838,767.513 328,808C328.346,820.035 331.793,836.057 356,838.294Z" style="fill:rgb(145,145,145);stroke:black;stroke-width:0.88px;"/>
        </g>
        <g transform="matrix(1.07729,0,0,1.13098,-47.3513,-95.3884)">
            <path d="M356,840C531.354,844.845 815.902,845.457 882,840C904.723,838.124 909.507,824.85 910,808C911.18,767.634 906.27,728.144 892,690C888.298,680.105 870.54,671.907 857,669C762.089,648.625 476.234,643.907 385,669C367.941,673.692 362.435,680.241 356,690C335.789,727.842 328.873,767.507 328,808C327.538,829.43 336.071,840 356,840Z" style="fill:white;stroke:black;stroke-width:0.91px;"/>
        </g>
        <g transform="matrix(1.01889,0,0,1.03722,-11.197,-26.2606)">
            <path d="M356,840C531.354,844.845 815.902,845.457 882,840C904.723,838.124 909.507,824.85 910,808C911.18,767.634 906.27,728.144 892,690C888.298,680.105 870.54,671.907 857,669C762.089,648.625 476.234,643.907 385,669C367.941,673.692 362.435,680.241 356,690C335.789,727.842 328.873,767.507 328,808C327.538,829.43 336.071,840 356,840Z" style="stroke:black;stroke-width:0.97px;"/>
        </g>
        <path d="M390,840C414.073,840 425.73,837.316 453,823C480.207,808.717 491.027,808 514,808L722,808C746.042,808 757.528,811.494 777,823C794.741,833.482 814.517,840 839,840L882,840C901.824,840 909.507,824.85 910,808C911.18,767.634 906.27,728.144 892,690C888.298,680.105 870.54,671.907 857,669C762.089,648.625 476.234,643.907 385,669C367.941,673.692 362.435,680.241 356,690C335.789,727.842 328.873,767.507 328,808C327.538,829.43 336.071,840 356,840L390,840Z" style="fill:white;stroke:black;stroke-width:1px;"/>
        <path d="M390,840C414.073,840 425.73,837.316 453,823C480.207,808.717 491.027,808 514,808L722,808C746.042,808 757.528,811.494 777,823C794.741,833.482 814.517,840 839,840L882,840C901.824,840 909.507,824.85 910,808C911.18,767.634 906.27,728.144 892,690C888.298,680.105 870.54,671.907 857,669C762.089,648.625 476.234,643.907 385,669C367.941,673.692 362.435,680.241 356,690C335.789,727.842 328.873,767.507 328,808C327.538,829.43 336.071,840 356,840L390,840Z" style="fill:white;stroke:black;stroke-width:1px;"/>
    </g>
    <g id="anzeige" transform="matrix(0.567235,0,0,0.615606,296.022,234.671)">
        <g transform="matrix(1.11419,4.15022e-17,-3.3233e-17,0.819387,-134.206,154.197)">
            <path d="M532.5,1001.56C535.537,998.5 538.583,999.103 541.634,1001.56" style="fill:none;stroke:white;stroke-width:3px;"/>
            <path d="M529.218,994.65C534.394,990.708 539.528,990.83 544.623,994.65" style="fill:none;stroke:white;stroke-width:3px;"/>
            <path d="M526.539,988.847C533.32,983.95 540.233,983.383 547.33,988.847" style="fill:none;stroke:white;stroke-width:3px;"/>
        </g>
        <g transform="matrix(1.07743,-0.00297445,0.00258418,0.936066,-170.754,40.2477)">
            <g transform="matrix(1,0,-4.33681e-19,1.14185,-6.11733e-14,-139.828)">
                <path d="M626.349,996.053L623.073,996.053L623.073,985.75L641.216,985.75L641.216,996.053L638.183,996.053" style="fill:none;stroke:white;stroke-width:3px;"/>
            </g>
            <path d="M626.295,1003.22L637.337,1003.22L632.352,1003.22L632.352,995.421" style="fill:none;stroke:white;stroke-width:3px;"/>
        </g>
        <g transform="matrix(1.07743,-0.00297445,0.00258418,0.936066,-121.697,40.2477)">
            <g transform="matrix(1,0,-4.33681e-19,1.14185,-6.11733e-14,-139.828)">
                <path d="M626.349,996.053L623.073,996.053L623.073,985.75L641.216,985.75L641.216,996.053L638.183,996.053" style="fill:none;stroke:white;stroke-width:3px;"/>
            </g>
            <path d="M626.295,1003.22L637.337,1003.22L632.352,1003.22L632.352,995.421" style="fill:none;stroke:white;stroke-width:3px;"/>
        </g>
        <g transform="matrix(1.07743,-0.00297445,0.00258418,0.936066,-71.9361,40.2477)">
            <g transform="matrix(1,0,-4.33681e-19,1.14185,-6.11733e-14,-139.828)">
                <path d="M626.349,996.053L623.073,996.053L623.073,985.75L641.216,985.75L641.216,996.053L638.183,996.053" style="fill:none;stroke:white;stroke-width:3px;"/>
            </g>
            <path d="M626.295,1003.22L637.337,1003.22L632.352,1003.22L632.352,995.421" style="fill:none;stroke:white;stroke-width:3px;"/>
        </g>
        <g transform="matrix(1.07743,-0.00297445,0.00258418,0.936066,-22.753,40.2477)">
            <g transform="matrix(1,0,-4.33681e-19,1.14185,-6.11733e-14,-139.828)">
                <path d="M626.349,996.053L623.073,996.053L623.073,985.75L641.216,985.75L641.216,996.053L638.183,996.053" style="fill:none;stroke:white;stroke-width:3px;"/>
            </g>
            <path d="M626.295,1003.22L637.337,1003.22L632.352,1003.22L632.352,995.421" style="fill:none;stroke:white;stroke-width:3px;"/>
        </g>
        <g id="Inet" transform="matrix(1.63302,2.96898e-16,-3.65665e-16,2.23473,-493.471,-1248.75)">
            <g transform="matrix(1.27235,-0.227769,0.318368,1.77845,-475.111,-424.452)">
                <ellipse cx="729.346" cy="889.27" rx="6.378" ry="1.404" style="fill:none;stroke:white;stroke-width:1.36px;"/>
            </g>
            <g transform="matrix(1.09502,0,0,1.09781,-70.6185,8.19739)">
                <ellipse cx="737.796" cy="896.539" rx="5.426" ry="3.783" style="fill:none;stroke:white;stroke-width:1.94px;"/>
            </g>
        </g>
        <g id="lock" transform="matrix(1.32005,0,0,1.21633,-269.962,-54.2529)">
            <rect x="771.78" y="838.061" width="15.937" height="9.53" style="fill:none;stroke:white;stroke-width:3.34px;"/>
            <path d="M773.83,838.061C773.806,829.265 785.722,829.488 785.745,838.061" style="fill:none;stroke:white;stroke-width:3.34px;"/>
        </g>
        <g transform="matrix(2.89984,-2.51507e-16,-0.0326112,2.83938,-2052.22,-1945.63)">
            <path d="M862.856,1021.29C862.582,1021.27 862.306,1021.27 862.031,1021.29L861.907,1021.95C861.645,1021.99 861.388,1022.05 861.14,1022.15L860.707,1021.65C860.456,1021.76 860.217,1021.9 859.993,1022.06L860.211,1022.69C860.004,1022.85 859.815,1023.04 859.65,1023.25L859.024,1023.03C858.863,1023.25 858.725,1023.49 858.611,1023.75L859.113,1024.18C859.017,1024.42 858.948,1024.68 858.908,1024.94L858.256,1025.07C858.229,1025.34 858.229,1025.62 858.256,1025.89L858.908,1026.02C858.948,1026.28 859.017,1026.54 859.113,1026.79L858.611,1027.22C858.725,1027.47 858.863,1027.71 859.024,1027.93L859.65,1027.71C859.815,1027.92 860.004,1028.11 860.211,1028.28L859.993,1028.9C860.217,1029.06 860.456,1029.2 860.707,1029.31L861.14,1028.81C861.388,1028.91 861.645,1028.98 861.907,1029.02L862.031,1029.67C862.306,1029.7 862.582,1029.7 862.856,1029.67L862.98,1029.02C863.243,1028.98 863.5,1028.91 863.747,1028.81L864.18,1029.31C864.431,1029.2 864.671,1029.06 864.895,1028.9L864.676,1028.28C864.884,1028.11 865.072,1027.92 865.238,1027.71L865.864,1027.93C866.025,1027.71 866.163,1027.47 866.276,1027.22L865.774,1026.79C865.871,1026.54 865.94,1026.28 865.98,1026.02L866.631,1025.89C866.658,1025.62 866.658,1025.34 866.631,1025.07L865.98,1024.94C865.94,1024.68 865.871,1024.42 865.774,1024.18L866.276,1023.75C866.163,1023.49 866.025,1023.25 865.864,1023.03L865.238,1023.25C865.072,1023.04 864.884,1022.85 864.676,1022.69L864.895,1022.06C864.671,1021.9 864.431,1021.76 864.18,1021.65L863.747,1022.15C863.5,1022.05 863.243,1021.99 862.98,1021.95L862.856,1021.29ZM862.444,1024.64C862.908,1024.64 863.285,1025.02 863.285,1025.48C863.285,1025.95 862.908,1026.32 862.444,1026.32C861.979,1026.32 861.602,1025.95 861.602,1025.48C861.602,1025.02 861.979,1024.64 862.444,1024.64Z" style="fill:white;stroke:white;stroke-width:0.41px;"/>
        </g>
        <g id="power" transform="matrix(3.33575,-1.18208e-15,9.23711e-16,2.56002,-1187.37,-1540.23)">
            <g transform="matrix(0.74223,0,0,0.74223,119.215,252.802)">
                <circle cx="466.635" cy="978.914" r="4.395" style="fill:none;stroke:white;stroke-width:1.93px;"/>
            </g>
            <g transform="matrix(1,9.86076e-32,9.86076e-32,1.21477,-0.143123,-210.642)">
                <path d="M466.406,975.365C466.406,975.185 466.258,975.039 466.076,975.039L465.417,975.039C465.235,975.039 465.087,975.185 465.087,975.365L465.087,979.179C465.087,979.359 465.235,979.505 465.417,979.505L466.076,979.505C466.258,979.505 466.406,979.359 466.406,979.179L466.406,975.365Z" style="fill:white;stroke:rgb(13,13,13);stroke-width:0.39px;"/>
            </g>
        </g>
    </g>
</svg>
