<?xml version="1.0" standalone="no"?>
<!DOCTYPE svg PUBLIC "-//W3C//DTD SVG 1.1//EN" "http://www.w3.org/Graphics/SVG/1.1/DTD/svg11.dtd">
<svg width="100%" height="100%" viewBox="0 0 1280 1150" version="1.1" xmlns="http://www.w3.org/2000/svg" xmlns:xlink="http://www.w3.org/1999/xlink" xml:space="preserve" style="fill-rule:evenodd;clip-rule:evenodd;stroke-linecap:round;stroke-linejoin:round;stroke-miterlimit:1.41421;">
    <g id="filler">
        <g transform="matrix(0.930492,0,0,0.740979,61.9216,200.127)">
            <rect x="382.948" y="772.628" width="477.196" height="250.474" style="fill:white;"/>
        </g>
        <g transform="matrix(0.434364,0,0,0.290103,401.387,693.08)">
            <rect x="382.948" y="772.628" width="477.196" height="250.474" style="fill:white;"/>
        </g>
    </g>
    <path d="M418.065,887.167C470.48,905.004 528.294,915.957 591.17,920.455L591.17,940.485C581.515,946.875 584.617,982.713 599.461,987.545L683.863,987.545C696.057,980.5 702.658,949.774 689.707,940.485L689.707,920.455C747.261,915.018 804.747,906.202 862.023,887.167L949.109,940.485C745.019,1026.55 539.399,1024.32 332.367,940.485L418.065,887.167Z" style="fill:white;stroke-width:1px;stroke:black;"/>
    <path d="M862.077,887.181L826.667,833.457L889.865,741.14L889.865,626.023L386.332,626.023C386.332,626.023 391.388,741.154 391.388,741.14C391.388,741.125 453.942,833.457 453.942,833.457L418.069,887.181C228.989,810.763 128.177,704.305 128.713,563.353C144.487,408.023 255.055,299.782 463.524,240.176C526.916,225.152 589.911,218.189 652.556,218.31C881.753,222.467 1125.96,341.496 1152.26,563.353C1160.76,691.626 1059.38,798.671 862.077,887.181Z" style="fill:white;stroke-width:1px;stroke:black;"/>
    <path d="M944.588,753.935C991.305,718.1 1021.12,666.894 1031.91,598.391L246.634,588.995C252.192,658.736 285.61,711.433 335.691,753.935" style="fill:none;stroke-width:1px;stroke:black;"/>
    <path d="M340.102,742.413C227.5,639.368 200.565,517.864 340.102,384.399C525.643,251.251 755.21,249.205 940.041,384.399C1070.75,502.601 1062.75,638.349 940.732,742.413" style="fill:white;stroke-width:1px;stroke:black;"/>
    <path d="M438.997,811.297L507.695,797.331C595.869,777.404 684.015,776.605 772.132,797.331L841.794,811.297L889.864,741.082L935.847,756.502C939.035,756.852 942.614,757.022 943.971,754.735C945.331,752.442 944.535,744.987 940.728,742.313L772.132,684.375L507.695,684.375L340.07,742.313C336.331,745.256 334.915,753.128 336.009,754.735C337.229,756.525 338.667,757.11 341.54,756.502C344.334,756.035 347.124,755.515 349.889,754.735L391.333,741.082L438.997,811.297Z" style="fill:rgb(242,242,242);stroke-width:1px;stroke:black;"/>
    <g transform="matrix(33.3235,0,0,17.1014,-16416.5,-11018.6)">
        <rect x="507.899" y="684.326" width="7.91" height="6.594" style="fill:white;stroke-width:0.04px;stroke:black;"/>
    </g>
    <path id="oval" d="M508.528,797.094C596.369,777.576 683.91,776.537 771.806,797.232C684.837,840.642 597.275,839.582 508.528,797.094Z" style="fill:white;stroke-width:1px;stroke:black;"/>
    <g id="LAN secondary">
        <path d="M790.857,728.579L790.857,778.607L850.316,798.284L870.767,768.341L870.767,756.957L790.857,728.579Z" style="fill:rgb(204,204,204);stroke-width:1px;stroke:black;"/>
        <path d="M819.49,742.627L819.49,748.682L814.459,747.033L814.459,753.473L800.243,748.682L800.243,775.495L853.59,793.488L860.529,783.36L860.529,769.24L846.524,764.383L846.524,758.278L840.014,755.923L840.014,749.766L819.49,742.627Z" style="fill:rgb(102,102,102);stroke-width:1px;stroke:black;"/>
    </g>
    <g id="MAIN / 48V" transform="matrix(-1,0,0,1,1280.34,-0.49025)">
        <path d="M790.857,728.579L790.857,778.607L850.316,798.284L870.767,768.341L870.767,756.957L790.857,728.579Z" style="fill:rgb(204,204,204);stroke-width:1px;stroke:black;"/>
        <path d="M819.49,742.627L819.49,748.682L814.459,747.033L814.459,753.473L800.243,748.682L800.243,775.495L853.59,793.488L860.529,783.36L860.529,769.24L846.524,764.383L846.524,758.278L840.014,755.923L840.014,749.766L819.49,742.627Z" style="fill:rgb(102,102,102);stroke-width:1px;stroke:black;"/>
    </g>
    <g>
        <ellipse cx="640.231" cy="740.735" rx="9.461" ry="6.386" style="fill:rgb(107,107,106);fill-opacity:0.627451;stroke-width:0.5px;stroke:black;"/>
        <path d="M633.827,736.184C638.118,739.186 642.377,739.094 646.607,736.184C642.422,733.852 638.164,733.778 633.827,736.184Z" style="fill:rgb(51,51,51);stroke-width:0.5px;stroke:black;"/>
    </g>
    <g id="Beschriftungen">
        <g transform="matrix(1,0,0,1,-1.34912,6.69995)">
            <path d="M622.469,716.232L622.469,704.779L627.547,704.779C628.568,704.779 629.344,704.882 629.875,705.087C630.406,705.293 630.831,705.656 631.148,706.177C631.466,706.698 631.625,707.273 631.625,707.904C631.625,708.716 631.362,709.401 630.836,709.958C630.31,710.516 629.497,710.87 628.398,711.021C628.799,711.214 629.104,711.404 629.312,711.591C629.755,711.997 630.174,712.505 630.57,713.115L632.562,716.232L630.656,716.232L629.141,713.849C628.698,713.161 628.333,712.635 628.047,712.271C627.76,711.906 627.504,711.651 627.277,711.505C627.051,711.359 626.82,711.258 626.586,711.201C626.414,711.164 626.133,711.146 625.742,711.146L623.984,711.146L623.984,716.232L622.469,716.232ZM623.984,709.833L627.242,709.833C627.935,709.833 628.477,709.762 628.867,709.618C629.258,709.475 629.555,709.246 629.758,708.931C629.961,708.616 630.062,708.273 630.062,707.904C630.062,707.362 629.866,706.917 629.473,706.568C629.079,706.219 628.458,706.044 627.609,706.044L623.984,706.044L623.984,709.833Z" style="fill:rgb(51,51,51);fill-rule:nonzero;"/>
            <path d="M639.5,713.56L640.953,713.74C640.724,714.589 640.299,715.247 639.68,715.716C639.06,716.185 638.268,716.419 637.305,716.419C636.091,716.419 635.129,716.046 634.418,715.298C633.707,714.551 633.352,713.503 633.352,712.154C633.352,710.758 633.711,709.674 634.43,708.904C635.148,708.133 636.081,707.747 637.227,707.747C638.336,707.747 639.242,708.125 639.945,708.88C640.648,709.635 641,710.698 641,712.068C641,712.151 640.997,712.276 640.992,712.443L634.805,712.443C634.857,713.354 635.115,714.052 635.578,714.536C636.042,715.021 636.62,715.263 637.312,715.263C637.828,715.263 638.268,715.128 638.633,714.857C638.997,714.586 639.286,714.154 639.5,713.56ZM634.883,711.286L639.516,711.286C639.453,710.589 639.276,710.065 638.984,709.716C638.536,709.174 637.956,708.904 637.242,708.904C636.596,708.904 636.053,709.12 635.613,709.552C635.173,709.984 634.93,710.563 634.883,711.286Z" style="fill:rgb(51,51,51);fill-rule:nonzero;"/>
            <path d="M642.156,713.755L643.547,713.536C643.625,714.094 643.842,714.521 644.199,714.818C644.556,715.115 645.055,715.263 645.695,715.263C646.341,715.263 646.82,715.132 647.133,714.868C647.445,714.605 647.602,714.297 647.602,713.943C647.602,713.625 647.464,713.375 647.187,713.193C646.995,713.068 646.516,712.909 645.75,712.716C644.719,712.456 644.004,712.23 643.605,712.04C643.207,711.85 642.905,711.587 642.699,711.251C642.493,710.915 642.391,710.544 642.391,710.138C642.391,709.768 642.475,709.426 642.645,709.111C642.814,708.796 643.044,708.534 643.336,708.326C643.555,708.164 643.853,708.027 644.23,707.915C644.608,707.803 645.013,707.747 645.445,707.747C646.096,707.747 646.668,707.841 647.16,708.029C647.652,708.216 648.016,708.47 648.25,708.79C648.484,709.111 648.646,709.539 648.734,710.076L647.359,710.263C647.297,709.836 647.116,709.503 646.816,709.263C646.517,709.023 646.094,708.904 645.547,708.904C644.901,708.904 644.44,709.01 644.164,709.224C643.888,709.438 643.75,709.688 643.75,709.974C643.75,710.156 643.807,710.32 643.922,710.466C644.036,710.617 644.216,710.742 644.461,710.841C644.602,710.893 645.016,711.013 645.703,711.201C646.698,711.466 647.392,711.684 647.785,711.853C648.178,712.022 648.487,712.268 648.711,712.591C648.935,712.914 649.047,713.315 649.047,713.794C649.047,714.263 648.91,714.704 648.637,715.118C648.363,715.533 647.969,715.853 647.453,716.079C646.937,716.306 646.354,716.419 645.703,716.419C644.625,716.419 643.803,716.195 643.238,715.747C642.673,715.299 642.312,714.635 642.156,713.755Z" style="fill:rgb(51,51,51);fill-rule:nonzero;"/>
            <path d="M656.398,713.56L657.852,713.74C657.622,714.589 657.198,715.247 656.578,715.716C655.958,716.185 655.167,716.419 654.203,716.419C652.99,716.419 652.027,716.046 651.316,715.298C650.605,714.551 650.25,713.503 650.25,712.154C650.25,710.758 650.609,709.674 651.328,708.904C652.047,708.133 652.979,707.747 654.125,707.747C655.234,707.747 656.141,708.125 656.844,708.88C657.547,709.635 657.898,710.698 657.898,712.068C657.898,712.151 657.896,712.276 657.891,712.443L651.703,712.443C651.755,713.354 652.013,714.052 652.477,714.536C652.94,715.021 653.518,715.263 654.211,715.263C654.727,715.263 655.167,715.128 655.531,714.857C655.896,714.586 656.185,714.154 656.398,713.56ZM651.781,711.286L656.414,711.286C656.352,710.589 656.174,710.065 655.883,709.716C655.435,709.174 654.854,708.904 654.141,708.904C653.495,708.904 652.952,709.12 652.512,709.552C652.072,709.984 651.828,710.563 651.781,711.286Z" style="fill:rgb(51,51,51);fill-rule:nonzero;"/>
            <path d="M662.687,714.974L662.891,716.216C662.495,716.299 662.141,716.341 661.828,716.341C661.318,716.341 660.922,716.26 660.641,716.099C660.359,715.938 660.161,715.725 660.047,715.462C659.932,715.199 659.875,714.646 659.875,713.802L659.875,709.029L658.844,709.029L658.844,707.935L659.875,707.935L659.875,705.88L661.273,705.036L661.273,707.935L662.687,707.935L662.687,709.029L661.273,709.029L661.273,713.88C661.273,714.281 661.298,714.539 661.348,714.654C661.397,714.768 661.478,714.859 661.59,714.927C661.702,714.995 661.862,715.029 662.07,715.029C662.227,715.029 662.432,715.01 662.687,714.974Z" style="fill:rgb(51,51,51);fill-rule:nonzero;"/>
        </g>
        <g transform="matrix(0.949063,0.315085,0.0329046,1.06459,184.631,-238.452)">
            <path d="M621.93,712.552L623.359,712.427C623.427,713 623.585,713.47 623.832,713.837C624.079,714.204 624.464,714.501 624.984,714.728C625.505,714.954 626.091,715.068 626.742,715.068C627.32,715.068 627.831,714.982 628.273,714.81C628.716,714.638 629.046,714.402 629.262,714.103C629.478,713.803 629.586,713.477 629.586,713.122C629.586,712.763 629.482,712.449 629.273,712.181C629.065,711.913 628.721,711.688 628.242,711.505C627.935,711.385 627.255,711.199 626.203,710.947C625.151,710.694 624.414,710.456 623.992,710.232C623.445,709.945 623.038,709.59 622.77,709.165C622.501,708.741 622.367,708.266 622.367,707.74C622.367,707.161 622.531,706.621 622.859,706.118C623.187,705.616 623.667,705.234 624.297,704.974C624.927,704.714 625.628,704.583 626.398,704.583C627.247,704.583 627.996,704.72 628.645,704.993C629.293,705.267 629.792,705.669 630.141,706.201C630.49,706.732 630.677,707.333 630.703,708.005L629.25,708.115C629.172,707.391 628.908,706.844 628.457,706.474C628.006,706.104 627.341,705.919 626.461,705.919C625.544,705.919 624.876,706.087 624.457,706.423C624.038,706.759 623.828,707.164 623.828,707.638C623.828,708.049 623.977,708.388 624.273,708.654C624.565,708.919 625.327,709.191 626.559,709.47C627.79,709.749 628.635,709.992 629.094,710.201C629.76,710.508 630.253,710.897 630.57,711.368C630.888,711.84 631.047,712.383 631.047,712.997C631.047,713.607 630.872,714.181 630.523,714.72C630.174,715.259 629.673,715.678 629.02,715.978C628.366,716.277 627.63,716.427 626.812,716.427C625.776,716.427 624.908,716.276 624.207,715.974C623.506,715.672 622.957,715.217 622.559,714.611C622.16,714.004 621.95,713.318 621.93,712.552Z" style="fill:rgb(51,51,51);fill-rule:nonzero;"/>
            <path d="M638.617,713.56L640.07,713.74C639.841,714.589 639.417,715.247 638.797,715.716C638.177,716.185 637.385,716.419 636.422,716.419C635.208,716.419 634.246,716.046 633.535,715.298C632.824,714.551 632.469,713.503 632.469,712.154C632.469,710.758 632.828,709.674 633.547,708.904C634.266,708.133 635.198,707.747 636.344,707.747C637.453,707.747 638.359,708.125 639.062,708.88C639.766,709.635 640.117,710.698 640.117,712.068C640.117,712.151 640.115,712.276 640.109,712.443L633.922,712.443C633.974,713.354 634.232,714.052 634.695,714.536C635.159,715.021 635.737,715.263 636.43,715.263C636.945,715.263 637.385,715.128 637.75,714.857C638.115,714.586 638.404,714.154 638.617,713.56ZM634,711.286L638.633,711.286C638.57,710.589 638.393,710.065 638.102,709.716C637.654,709.174 637.073,708.904 636.359,708.904C635.714,708.904 635.171,709.12 634.73,709.552C634.29,709.984 634.047,710.563 634,711.286Z" style="fill:rgb(51,51,51);fill-rule:nonzero;"/>
            <path d="M647.25,713.193L648.633,713.372C648.482,714.326 648.095,715.072 647.473,715.611C646.85,716.15 646.086,716.419 645.18,716.419C644.044,716.419 643.131,716.048 642.441,715.306C641.751,714.564 641.406,713.5 641.406,712.115C641.406,711.219 641.555,710.435 641.852,709.763C642.148,709.091 642.6,708.587 643.207,708.251C643.814,707.915 644.474,707.747 645.187,707.747C646.089,707.747 646.825,707.975 647.398,708.431C647.971,708.887 648.339,709.534 648.5,710.372L647.133,710.583C647.003,710.026 646.772,709.607 646.441,709.326C646.111,709.044 645.711,708.904 645.242,708.904C644.534,708.904 643.958,709.158 643.516,709.665C643.073,710.173 642.852,710.977 642.852,712.076C642.852,713.19 643.065,714 643.492,714.505C643.919,715.01 644.477,715.263 645.164,715.263C645.716,715.263 646.177,715.094 646.547,714.755C646.917,714.417 647.151,713.896 647.25,713.193Z" style="fill:rgb(51,51,51);fill-rule:nonzero;"/>
            <path d="M649.312,712.083C649.312,710.547 649.74,709.409 650.594,708.669C651.307,708.055 652.177,707.747 653.203,707.747C654.344,707.747 655.276,708.121 656,708.868C656.724,709.616 657.086,710.648 657.086,711.966C657.086,713.034 656.926,713.874 656.605,714.486C656.285,715.098 655.819,715.573 655.207,715.911C654.595,716.25 653.927,716.419 653.203,716.419C652.042,716.419 651.103,716.047 650.387,715.302C649.671,714.557 649.312,713.484 649.312,712.083ZM650.758,712.083C650.758,713.146 650.99,713.941 651.453,714.47C651.917,714.999 652.5,715.263 653.203,715.263C653.901,715.263 654.482,714.997 654.945,714.466C655.409,713.935 655.641,713.125 655.641,712.036C655.641,711.01 655.408,710.233 654.941,709.704C654.475,709.176 653.896,708.911 653.203,708.911C652.5,708.911 651.917,709.174 651.453,709.701C650.99,710.227 650.758,711.021 650.758,712.083Z" style="fill:rgb(51,51,51);fill-rule:nonzero;"/>
            <path d="M658.734,716.232L658.734,707.935L660,707.935L660,709.115C660.609,708.203 661.49,707.747 662.641,707.747C663.141,707.747 663.6,707.837 664.02,708.017C664.439,708.197 664.753,708.432 664.961,708.724C665.169,709.016 665.315,709.362 665.398,709.763C665.45,710.023 665.477,710.479 665.477,711.13L665.477,716.232L664.07,716.232L664.07,711.185C664.07,710.612 664.016,710.184 663.906,709.9C663.797,709.616 663.603,709.389 663.324,709.22C663.046,709.051 662.719,708.966 662.344,708.966C661.745,708.966 661.228,709.156 660.793,709.536C660.358,709.917 660.141,710.638 660.141,711.701L660.141,716.232L658.734,716.232Z" style="fill:rgb(51,51,51);fill-rule:nonzero;"/>
            <path d="M673.016,716.232L673.016,715.185C672.49,716.008 671.716,716.419 670.695,716.419C670.034,716.419 669.426,716.237 668.871,715.872C668.316,715.508 667.887,714.999 667.582,714.345C667.277,713.691 667.125,712.94 667.125,712.091C667.125,711.263 667.263,710.512 667.539,709.837C667.815,709.163 668.229,708.646 668.781,708.286C669.333,707.927 669.95,707.747 670.633,707.747C671.133,707.747 671.578,707.853 671.969,708.064C672.359,708.275 672.677,708.549 672.922,708.888L672.922,704.779L674.32,704.779L674.32,716.232L673.016,716.232ZM668.57,712.091C668.57,713.154 668.794,713.948 669.242,714.474C669.69,715 670.219,715.263 670.828,715.263C671.443,715.263 671.965,715.012 672.395,714.509C672.824,714.007 673.039,713.24 673.039,712.208C673.039,711.073 672.82,710.24 672.383,709.708C671.945,709.177 671.406,708.911 670.766,708.911C670.141,708.911 669.618,709.167 669.199,709.677C668.78,710.188 668.57,710.992 668.57,712.091Z" style="fill:rgb(51,51,51);fill-rule:nonzero;"/>
            <path d="M681.945,715.208C681.424,715.651 680.923,715.964 680.441,716.146C679.96,716.328 679.443,716.419 678.891,716.419C677.979,716.419 677.279,716.197 676.789,715.751C676.299,715.306 676.055,714.737 676.055,714.044C676.055,713.638 676.147,713.267 676.332,712.931C676.517,712.595 676.759,712.326 677.059,712.122C677.358,711.919 677.695,711.766 678.07,711.661C678.346,711.589 678.763,711.518 679.32,711.451C680.456,711.315 681.292,711.154 681.828,710.966C681.833,710.773 681.836,710.651 681.836,710.599C681.836,710.026 681.703,709.622 681.437,709.388C681.078,709.07 680.544,708.911 679.836,708.911C679.174,708.911 678.686,709.027 678.371,709.259C678.056,709.491 677.823,709.901 677.672,710.49L676.297,710.302C676.422,709.714 676.628,709.238 676.914,708.876C677.2,708.514 677.615,708.236 678.156,708.04C678.698,707.845 679.325,707.747 680.039,707.747C680.747,707.747 681.323,707.831 681.766,707.997C682.208,708.164 682.534,708.374 682.742,708.626C682.95,708.879 683.096,709.198 683.18,709.583C683.227,709.823 683.25,710.255 683.25,710.88L683.25,712.755C683.25,714.063 683.28,714.889 683.34,715.236C683.4,715.582 683.518,715.914 683.695,716.232L682.227,716.232C682.081,715.94 681.987,715.599 681.945,715.208ZM681.828,712.068C681.318,712.276 680.552,712.453 679.531,712.599C678.953,712.682 678.544,712.776 678.305,712.88C678.065,712.984 677.88,713.137 677.75,713.337C677.62,713.538 677.555,713.76 677.555,714.005C677.555,714.38 677.697,714.693 677.98,714.943C678.264,715.193 678.68,715.318 679.227,715.318C679.768,715.318 680.25,715.199 680.672,714.962C681.094,714.725 681.404,714.401 681.602,713.99C681.753,713.672 681.828,713.203 681.828,712.583L681.828,712.068Z" style="fill:rgb(51,51,51);fill-rule:nonzero;"/>
            <path d="M685.414,716.232L685.414,707.935L686.68,707.935L686.68,709.193C687.003,708.604 687.301,708.216 687.574,708.029C687.848,707.841 688.148,707.747 688.477,707.747C688.95,707.747 689.432,707.898 689.922,708.201L689.437,709.505C689.094,709.302 688.75,709.201 688.406,709.201C688.099,709.201 687.823,709.293 687.578,709.478C687.333,709.663 687.159,709.919 687.055,710.247C686.898,710.747 686.82,711.294 686.82,711.888L686.82,716.232L685.414,716.232Z" style="fill:rgb(51,51,51);fill-rule:nonzero;"/>
            <path d="M690.695,719.427L690.539,718.107C690.846,718.19 691.115,718.232 691.344,718.232C691.656,718.232 691.906,718.18 692.094,718.076C692.281,717.971 692.435,717.826 692.555,717.638C692.643,717.497 692.786,717.148 692.984,716.591C693.01,716.513 693.052,716.398 693.109,716.247L689.961,707.935L691.477,707.935L693.203,712.74C693.427,713.349 693.628,713.99 693.805,714.661C693.966,714.016 694.159,713.385 694.383,712.771L696.156,707.935L697.562,707.935L694.406,716.372C694.068,717.284 693.805,717.911 693.617,718.255C693.367,718.719 693.081,719.059 692.758,719.275C692.435,719.491 692.049,719.599 691.602,719.599C691.331,719.599 691.029,719.542 690.695,719.427Z" style="fill:rgb(51,51,51);fill-rule:nonzero;"/>
        </g>
        <g transform="matrix(0.940796,-0.338975,-0.00598372,1.06509,-166.146,193.947)">
            <path d="M622.398,716.232L622.398,704.779L624.68,704.779L627.391,712.888C627.641,713.643 627.823,714.208 627.937,714.583C628.068,714.167 628.271,713.555 628.547,712.747L631.289,704.779L633.328,704.779L633.328,716.232L631.867,716.232L631.867,706.646L628.539,716.232L627.172,716.232L623.859,706.482L623.859,716.232L622.398,716.232Z" style="fill:rgb(51,51,51);fill-rule:nonzero;"/>
            <path d="M641.008,715.208C640.487,715.651 639.986,715.964 639.504,716.146C639.022,716.328 638.505,716.419 637.953,716.419C637.042,716.419 636.341,716.197 635.852,715.751C635.362,715.306 635.117,714.737 635.117,714.044C635.117,713.638 635.21,713.267 635.395,712.931C635.579,712.595 635.822,712.326 636.121,712.122C636.421,711.919 636.758,711.766 637.133,711.661C637.409,711.589 637.825,711.518 638.383,711.451C639.518,711.315 640.354,711.154 640.891,710.966C640.896,710.773 640.898,710.651 640.898,710.599C640.898,710.026 640.766,709.622 640.5,709.388C640.141,709.07 639.607,708.911 638.898,708.911C638.237,708.911 637.749,709.027 637.434,709.259C637.118,709.491 636.885,709.901 636.734,710.49L635.359,710.302C635.484,709.714 635.69,709.238 635.977,708.876C636.263,708.514 636.677,708.236 637.219,708.04C637.76,707.845 638.388,707.747 639.102,707.747C639.81,707.747 640.385,707.831 640.828,707.997C641.271,708.164 641.596,708.374 641.805,708.626C642.013,708.879 642.159,709.198 642.242,709.583C642.289,709.823 642.312,710.255 642.312,710.88L642.312,712.755C642.312,714.063 642.342,714.889 642.402,715.236C642.462,715.582 642.581,715.914 642.758,716.232L641.289,716.232C641.143,715.94 641.049,715.599 641.008,715.208ZM640.891,712.068C640.38,712.276 639.615,712.453 638.594,712.599C638.016,712.682 637.607,712.776 637.367,712.88C637.128,712.984 636.943,713.137 636.812,713.337C636.682,713.538 636.617,713.76 636.617,714.005C636.617,714.38 636.759,714.693 637.043,714.943C637.327,715.193 637.742,715.318 638.289,715.318C638.831,715.318 639.312,715.199 639.734,714.962C640.156,714.725 640.466,714.401 640.664,713.99C640.815,713.672 640.891,713.203 640.891,712.583L640.891,712.068Z" style="fill:rgb(51,51,51);fill-rule:nonzero;"/>
            <path d="M644.5,706.396L644.5,704.779L645.906,704.779L645.906,706.396L644.5,706.396ZM644.5,716.232L644.5,707.935L645.906,707.935L645.906,716.232L644.5,716.232Z" style="fill:rgb(51,51,51);fill-rule:nonzero;"/>
            <path d="M648.047,716.232L648.047,707.935L649.312,707.935L649.312,709.115C649.922,708.203 650.802,707.747 651.953,707.747C652.453,707.747 652.913,707.837 653.332,708.017C653.751,708.197 654.065,708.432 654.273,708.724C654.482,709.016 654.628,709.362 654.711,709.763C654.763,710.023 654.789,710.479 654.789,711.13L654.789,716.232L653.383,716.232L653.383,711.185C653.383,710.612 653.328,710.184 653.219,709.9C653.109,709.616 652.915,709.389 652.637,709.22C652.358,709.051 652.031,708.966 651.656,708.966C651.057,708.966 650.54,709.156 650.105,709.536C649.671,709.917 649.453,710.638 649.453,711.701L649.453,716.232L648.047,716.232Z" style="fill:rgb(51,51,51);fill-rule:nonzero;"/>
            <path d="M660.336,716.427L663.656,704.583L664.781,704.583L661.469,716.427L660.336,716.427Z" style="fill:rgb(51,51,51);fill-rule:nonzero;"/>
            <path d="M669.953,716.232L669.953,713.49L664.984,713.49L664.984,712.201L670.211,704.779L671.359,704.779L671.359,712.201L672.906,712.201L672.906,713.49L671.359,713.49L671.359,716.232L669.953,716.232ZM669.953,712.201L669.953,707.036L666.367,712.201L669.953,712.201Z" style="fill:rgb(51,51,51);fill-rule:nonzero;"/>
            <path d="M676.508,710.021C675.924,709.807 675.492,709.503 675.211,709.107C674.93,708.711 674.789,708.237 674.789,707.685C674.789,706.852 675.089,706.151 675.687,705.583C676.286,705.016 677.083,704.732 678.078,704.732C679.078,704.732 679.883,705.022 680.492,705.603C681.102,706.184 681.406,706.891 681.406,707.724C681.406,708.255 681.267,708.717 680.988,709.111C680.71,709.504 680.286,709.807 679.719,710.021C680.422,710.25 680.957,710.62 681.324,711.13C681.691,711.641 681.875,712.25 681.875,712.958C681.875,713.938 681.529,714.76 680.836,715.427C680.143,716.094 679.232,716.427 678.102,716.427C676.971,716.427 676.06,716.092 675.367,715.423C674.674,714.754 674.328,713.919 674.328,712.919C674.328,712.174 674.517,711.551 674.895,711.048C675.272,710.546 675.81,710.203 676.508,710.021ZM676.227,707.638C676.227,708.18 676.401,708.622 676.75,708.966C677.099,709.31 677.552,709.482 678.109,709.482C678.651,709.482 679.095,709.311 679.441,708.97C679.788,708.629 679.961,708.211 679.961,707.716C679.961,707.201 679.783,706.767 679.426,706.415C679.069,706.064 678.625,705.888 678.094,705.888C677.557,705.888 677.112,706.06 676.758,706.404C676.404,706.747 676.227,707.159 676.227,707.638ZM675.773,712.927C675.773,713.328 675.868,713.716 676.059,714.091C676.249,714.466 676.531,714.757 676.906,714.962C677.281,715.168 677.685,715.271 678.117,715.271C678.789,715.271 679.344,715.055 679.781,714.622C680.219,714.19 680.437,713.641 680.437,712.974C680.437,712.297 680.212,711.737 679.762,711.294C679.311,710.852 678.747,710.63 678.07,710.63C677.409,710.63 676.861,710.849 676.426,711.286C675.991,711.724 675.773,712.271 675.773,712.927Z" style="fill:rgb(51,51,51);fill-rule:nonzero;"/>
            <path d="M687.086,716.232L682.648,704.779L684.289,704.779L687.266,713.099C687.505,713.766 687.706,714.391 687.867,714.974C688.044,714.349 688.25,713.724 688.484,713.099L691.578,704.779L693.125,704.779L688.641,716.232L687.086,716.232Z" style="fill:rgb(51,51,51);fill-rule:nonzero;"/>
        </g>
    </g>
</svg>
