<?xml version="1.0" encoding="UTF-8" standalone="no"?>
<svg
   xmlns:dc="http://purl.org/dc/elements/1.1/"
   xmlns:cc="http://creativecommons.org/ns#"
   xmlns:rdf="http://www.w3.org/1999/02/22-rdf-syntax-ns#"
   xmlns:svg="http://www.w3.org/2000/svg"
   xmlns="http://www.w3.org/2000/svg"
   xmlns:sodipodi="http://sodipodi.sourceforge.net/DTD/sodipodi-0.dtd"
   xmlns:inkscape="http://www.inkscape.org/namespaces/inkscape"
   width="100%"
   height="100%"
   viewBox="0 0 1280 1150"
   version="1.1"
   xml:space="preserve"
   style="fill-rule:evenodd;clip-rule:evenodd;stroke-linecap:round;stroke-linejoin:round;stroke-miterlimit:1.41421;"
   id="svg567"
   sodipodi:docname="front.svg"
   inkscape:version="0.92.3 (2405546, 2018-03-11)"
   inkscape:export-filename="/home/deus/Software/Freifunk-Router-Anleitungen/router/alfa-n2n5/front.png"
   inkscape:export-xdpi="95.970001"
   inkscape:export-ydpi="95.970001"><metadata
   id="metadata573"><rdf:RDF><cc:Work
       rdf:about=""><dc:format>image/svg+xml</dc:format><dc:type
         rdf:resource="http://purl.org/dc/dcmitype/StillImage" /><dc:title></dc:title></cc:Work></rdf:RDF></metadata><defs
   id="defs571" /><sodipodi:namedview
   pagecolor="#ffffff"
   bordercolor="#666666"
   borderopacity="1"
   objecttolerance="10"
   gridtolerance="10"
   guidetolerance="10"
   inkscape:pageopacity="0"
   inkscape:pageshadow="2"
   inkscape:window-width="1920"
   inkscape:window-height="1012"
   id="namedview569"
   showgrid="false"
   inkscape:zoom="0.82086956"
   inkscape:cx="433.57371"
   inkscape:cy="662.73641"
   inkscape:window-x="0"
   inkscape:window-y="1080"
   inkscape:window-maximized="1"
   inkscape:current-layer="svg567" />
    
    
    
    
    
    
<path
   style="opacity:1;fill:#ececec;fill-opacity:1;stroke:#000000;stroke-width:1;stroke-linecap:square;stroke-linejoin:round;stroke-miterlimit:1.41420996;stroke-dasharray:none;stroke-dashoffset:0;stroke-opacity:1"
   d="m 803.96647,151.35446 c 0.65618,0 0,887.79264 0,887.79264 1.77822,79.785 -326.19125,82.3491 -326.15208,0 -0.65618,0 0,-887.79264 0,-887.79264 -0.39933,-89.380548 326.68542,-81.698641 326.15208,0 z"
   id="rect1391"
   inkscape:connector-curvature="0"
   sodipodi:nodetypes="ccccc" /><path
   style="fill:none;stroke:#000000;stroke-width:1px;stroke-linecap:butt;stroke-linejoin:miter;stroke-opacity:1"
   d="m 477.54237,964.2214 c 114.22534,8.70559 221.9784,7.70276 326.48306,1.82733"
   id="path1394"
   inkscape:connector-curvature="0"
   sodipodi:nodetypes="cc" /><path
   style="fill:none;stroke:#000000;stroke-width:1px;stroke-linecap:butt;stroke-linejoin:miter;stroke-opacity:1"
   d="m 618.49372,983.10145 c 15.37999,1.58005 30.38222,1.64905 44.90109,-0.21535"
   id="path1396"
   inkscape:connector-curvature="0"
   sodipodi:nodetypes="cc" /><path
   sodipodi:nodetypes="cc"
   inkscape:connector-curvature="0"
   id="path1398"
   d="m 618.49372,991.06951 c 15.37999,1.58005 30.38222,1.64905 44.90109,-0.21535"
   style="fill:none;stroke:#000000;stroke-width:1px;stroke-linecap:butt;stroke-linejoin:miter;stroke-opacity:1" /><path
   style="fill:none;stroke:#000000;stroke-width:1px;stroke-linecap:butt;stroke-linejoin:miter;stroke-opacity:1"
   d="m 618.49372,999.25292 c 15.37999,1.58008 30.38222,1.64908 44.90109,-0.21535"
   id="path1400"
   inkscape:connector-curvature="0"
   sodipodi:nodetypes="cc" /><path
   style="opacity:1;fill:#000000;fill-opacity:1;stroke:#000000;stroke-width:0.46528783;stroke-linecap:square;stroke-linejoin:round;stroke-miterlimit:1.41420996;stroke-dasharray:none;stroke-dashoffset:0;stroke-opacity:1"
   d="m 477.54078,618.04688 c -0.002,4.66112 -0.007,9.59444 -0.01,14.21289 h 0.51679 c 1.57843,0 2.85181,-0.52742 2.85181,-1.1836 v -11.84375 c 0,-0.65618 -1.27338,-1.18554 -2.85181,-1.18554 z"
   id="rect1402"
   inkscape:connector-curvature="0" /><path
   id="path1407"
   d="m 477.54078,578.04688 c -0.002,4.66112 -0.007,9.59444 -0.01,14.21289 h 0.51679 c 1.57843,0 2.85181,-0.52742 2.85181,-1.1836 v -11.84375 c 0,-0.65618 -1.27338,-1.18554 -2.85181,-1.18554 z"
   style="opacity:1;fill:#000000;fill-opacity:1;stroke:#000000;stroke-width:0.46528783;stroke-linecap:square;stroke-linejoin:round;stroke-miterlimit:1.41420996;stroke-dasharray:none;stroke-dashoffset:0;stroke-opacity:1"
   inkscape:connector-curvature="0" /><path
   inkscape:connector-curvature="0"
   style="opacity:1;fill:#000000;fill-opacity:1;stroke:#000000;stroke-width:0.46528783;stroke-linecap:square;stroke-linejoin:round;stroke-miterlimit:1.41420996;stroke-dasharray:none;stroke-dashoffset:0;stroke-opacity:1"
   d="m 477.54078,558.04688 c -0.002,4.66112 -0.007,9.59444 -0.01,14.21289 h 0.51679 c 1.57843,0 2.85181,-0.52742 2.85181,-1.1836 v -11.84375 c 0,-0.65618 -1.27338,-1.18554 -2.85181,-1.18554 z"
   id="path1409" /><path
   id="path1411"
   d="m 477.54078,538.04688 c -0.002,4.66112 -0.007,9.59444 -0.01,14.21289 h 0.51679 c 1.57843,0 2.85181,-0.52742 2.85181,-1.1836 v -11.84375 c 0,-0.65618 -1.27338,-1.18554 -2.85181,-1.18554 z"
   style="opacity:1;fill:#000000;fill-opacity:1;stroke:#000000;stroke-width:0.46528783;stroke-linecap:square;stroke-linejoin:round;stroke-miterlimit:1.41420996;stroke-dasharray:none;stroke-dashoffset:0;stroke-opacity:1"
   inkscape:connector-curvature="0" /><path
   inkscape:connector-curvature="0"
   style="opacity:1;fill:#000000;fill-opacity:1;stroke:#000000;stroke-width:0.46528783;stroke-linecap:square;stroke-linejoin:round;stroke-miterlimit:1.41420996;stroke-dasharray:none;stroke-dashoffset:0;stroke-opacity:1"
   d="m 477.54078,518.04688 c -0.002,4.66112 -0.007,9.59444 -0.01,14.21289 h 0.51679 c 1.57843,0 2.85181,-0.52742 2.85181,-1.1836 v -11.84375 c 0,-0.65618 -1.27338,-1.18554 -2.85181,-1.18554 z"
   id="path1413" /><path
   id="path1415"
   d="m 477.54078,498.04688 c -0.002,4.66112 -0.007,9.59444 -0.01,14.21289 h 0.51679 c 1.57843,0 2.85181,-0.52742 2.85181,-1.1836 v -11.84375 c 0,-0.65618 -1.27338,-1.18554 -2.85181,-1.18554 z"
   style="opacity:1;fill:#000000;fill-opacity:1;stroke:#000000;stroke-width:0.46528783;stroke-linecap:square;stroke-linejoin:round;stroke-miterlimit:1.41420996;stroke-dasharray:none;stroke-dashoffset:0;stroke-opacity:1"
   inkscape:connector-curvature="0" /><path
   inkscape:connector-curvature="0"
   style="opacity:1;fill:#000000;fill-opacity:1;stroke:#000000;stroke-width:0.46528783;stroke-linecap:square;stroke-linejoin:round;stroke-miterlimit:1.41420996;stroke-dasharray:none;stroke-dashoffset:0;stroke-opacity:1"
   d="m 477.54078,478.04688 c -0.002,4.66112 -0.007,9.59444 -0.01,14.21289 h 0.51679 c 1.57843,0 2.85181,-0.52742 2.85181,-1.1836 v -11.84375 c 0,-0.65618 -1.27338,-1.18554 -2.85181,-1.18554 z"
   id="path1417" /><path
   id="path1419"
   d="m 477.54078,458.04688 c -0.002,4.66112 -0.007,9.59444 -0.01,14.21289 h 0.51679 c 1.57843,0 2.85181,-0.52742 2.85181,-1.1836 v -11.84375 c 0,-0.65618 -1.27338,-1.18554 -2.85181,-1.18554 z"
   style="opacity:1;fill:#000000;fill-opacity:1;stroke:#000000;stroke-width:0.46528783;stroke-linecap:square;stroke-linejoin:round;stroke-miterlimit:1.41420996;stroke-dasharray:none;stroke-dashoffset:0;stroke-opacity:1"
   inkscape:connector-curvature="0" /><path
   inkscape:connector-curvature="0"
   style="opacity:1;fill:#000000;fill-opacity:1;stroke:#000000;stroke-width:0.46528783;stroke-linecap:square;stroke-linejoin:round;stroke-miterlimit:1.41420996;stroke-dasharray:none;stroke-dashoffset:0;stroke-opacity:1"
   d="m 477.54078,438.04688 c -0.002,4.66112 -0.007,9.59444 -0.01,14.21289 h 0.51679 c 1.57843,0 2.85181,-0.52742 2.85181,-1.1836 v -11.84375 c 0,-0.65618 -1.27338,-1.18554 -2.85181,-1.18554 z"
   id="path1421" /></svg>