<?xml version="1.0" encoding="UTF-8" standalone="no"?>
<!DOCTYPE svg PUBLIC "-//W3C//DTD SVG 1.1//EN" "http://www.w3.org/Graphics/SVG/1.1/DTD/svg11.dtd">
<svg width="100%" height="100%" viewBox="0 0 1280 1150" version="1.1" xmlns="http://www.w3.org/2000/svg" xmlns:xlink="http://www.w3.org/1999/xlink" xml:space="preserve" style="fill-rule:evenodd;clip-rule:evenodd;stroke-linecap:round;stroke-linejoin:round;stroke-miterlimit:1.41421;">
    <g id="airgate" transform="matrix(-1,0,0,1,1318.33,7.6175)">
        <g id="AntennenKupplung" transform="matrix(-2.41744e-16,-1.50327,1.30494,-2.0985e-16,368.791,1562.26)">
            <path d="M387.104,81.357L433.756,81.357L433.756,79.836C418.338,78.544 402.796,78.461 387.104,79.836L387.104,81.357Z" style="fill:rgb(204,204,204);stroke-width:0.71px;stroke:rgb(102,102,102);"/>
            <path d="M384.075,79.836L384.075,78.072C401.592,76.202 419.016,76.216 436.349,78.072L436.349,79.836C419.111,78.348 401.685,78.36 384.075,79.836Z" style="fill:rgb(204,204,204);stroke-width:0.71px;stroke:rgb(102,102,102);"/>
            <path d="M384.075,66.701C385.234,63.292 434.54,63.533 436.349,66.701L436.349,78.262C419.36,76.252 401.975,76.118 384.075,78.262L384.075,66.701Z" style="fill:rgb(204,204,204);stroke-width:0.71px;stroke:rgb(102,102,102);"/>
            <path d="M397.031,33.804C405.85,32.871 414.665,32.811 423.476,33.804L423.476,64.761C414.622,63.885 405.813,64.024 397.031,64.761L397.031,33.804Z" style="fill:rgb(204,204,204);stroke-width:0.71px;stroke:rgb(102,102,102);"/>
            <path d="M394.695,39.926C404.237,38.019 414.503,38.05 424.95,38.56" style="fill:none;stroke-width:1.07px;stroke:rgb(102,102,102);"/>
            <g transform="matrix(1,0,0,1,0.198416,3.64566)">
                <path d="M394.695,39.926C404.237,38.019 414.503,38.05 424.95,38.56" style="fill:none;stroke-width:1.07px;stroke:rgb(102,102,102);"/>
            </g>
            <g transform="matrix(1,0,0,1,0.248774,7.23705)">
                <path d="M394.695,39.926C404.237,38.019 414.503,38.05 424.95,38.56" style="fill:none;stroke-width:1.07px;stroke:rgb(102,102,102);"/>
            </g>
            <g transform="matrix(1,0,0,1,0.329286,10.9837)">
                <path d="M394.695,39.926C404.237,38.019 414.503,38.05 424.95,38.56" style="fill:none;stroke-width:1.07px;stroke:rgb(102,102,102);"/>
            </g>
            <g transform="matrix(1,0,0,1,0.168261,14.5769)">
                <path d="M394.695,39.926C404.237,38.019 414.503,38.05 424.95,38.56" style="fill:none;stroke-width:1.07px;stroke:rgb(102,102,102);"/>
            </g>
            <g transform="matrix(1,0,0,1,0.165246,18.3902)">
                <path d="M394.695,39.926C404.237,38.019 414.503,38.05 424.95,38.56" style="fill:none;stroke-width:1.07px;stroke:rgb(102,102,102);"/>
            </g>
            <g transform="matrix(1,0,0,1,0.0847338,21.8324)">
                <path d="M394.695,39.926C404.237,38.019 414.503,38.05 424.95,38.56" style="fill:none;stroke-width:1.07px;stroke:rgb(102,102,102);"/>
            </g>
        </g>
        <g id="nubsis">
            <g transform="matrix(-1,0,0,1,1318.33,-7.6175)">
                <rect x="496.051" y="1000.15" width="319.712" height="30.23" style="fill:rgb(26,25,25);stroke-width:1px;stroke:rgb(38,37,37);"/>
            </g>
            <path d="M474.039,1033.41L474.039,1013.19L511.664,1013.19L511.664,1039.52L480.952,1039.52C477.964,1037.93 475.731,1035.85 474.039,1033.41Z" style="fill:rgb(26,25,25);stroke-width:3px;stroke:black;"/>
            <g transform="matrix(-1,0,0,1,1331.38,0)">
                <path d="M474.039,1033.41L474.039,1013.19L511.664,1013.19L511.664,1039.52L480.952,1039.52C477.964,1037.93 475.731,1035.85 474.039,1033.41Z" style="fill:rgb(26,25,25);stroke-width:3px;stroke:black;"/>
            </g>
        </g>
        <g transform="matrix(-1.58,0,0,1,1473.32,20.412)">
            <path d="M541.9,1033.52L549.979,1033.52C552.164,1033.52 553.844,1033.7 555.019,1034.04C556.194,1034.38 557.077,1034.88 557.668,1035.53C558.258,1036.17 558.659,1036.96 558.868,1037.88C559.078,1038.8 559.183,1040.22 559.183,1042.16L559.183,1044.84C559.183,1046.81 558.979,1048.25 558.573,1049.15C558.166,1050.05 557.42,1050.74 556.334,1051.23C555.248,1051.71 553.828,1051.95 552.075,1051.95L549.922,1051.95L549.922,1064.37L541.9,1064.37L541.9,1033.52ZM549.922,1038.8L549.922,1046.65C550.151,1046.66 550.348,1046.67 550.513,1046.67C551.25,1046.67 551.761,1046.49 552.047,1046.13C552.333,1045.77 552.475,1045.01 552.475,1043.87L552.475,1041.34C552.475,1040.28 552.31,1039.6 551.98,1039.28C551.65,1038.96 550.964,1038.8 549.922,1038.8Z" style="fill:black;fill-rule:nonzero;"/>
            <path d="M578.675,1047.97L578.675,1054.16C578.675,1056.43 578.561,1058.1 578.332,1059.16C578.104,1060.22 577.615,1061.21 576.865,1062.13C576.116,1063.06 575.153,1063.74 573.978,1064.17C572.803,1064.61 571.454,1064.83 569.929,1064.83C568.227,1064.83 566.785,1064.64 565.604,1064.27C564.423,1063.89 563.505,1063.33 562.851,1062.57C562.196,1061.82 561.73,1060.9 561.45,1059.83C561.171,1058.76 561.031,1057.14 561.031,1055L561.031,1048.52C561.031,1046.17 561.285,1044.33 561.793,1043.01C562.301,1041.69 563.216,1040.63 564.537,1039.83C565.858,1039.03 567.547,1038.63 569.605,1038.63C571.333,1038.63 572.816,1038.89 574.055,1039.4C575.293,1039.92 576.249,1040.59 576.922,1041.41C577.595,1042.24 578.056,1043.09 578.304,1043.97C578.551,1044.84 578.675,1046.18 578.675,1047.97ZM570.977,1046.06C570.977,1044.77 570.907,1043.95 570.768,1043.61C570.628,1043.28 570.329,1043.11 569.872,1043.11C569.415,1043.11 569.11,1043.28 568.957,1043.61C568.805,1043.95 568.729,1044.77 568.729,1046.06L568.729,1057.48C568.729,1058.67 568.805,1059.45 568.957,1059.81C569.11,1060.17 569.408,1060.35 569.853,1060.35C570.31,1060.35 570.612,1060.19 570.758,1059.86C570.904,1059.53 570.977,1058.82 570.977,1057.72L570.977,1046.06Z" style="fill:black;fill-rule:nonzero;"/>
            <path d="M581.438,1033.52L594.814,1033.52L594.814,1039.7L589.46,1039.7L589.46,1045.55L594.471,1045.55L594.471,1051.42L589.46,1051.42L589.46,1058.2L595.348,1058.2L595.348,1064.37L581.438,1064.37L581.438,1033.52Z" style="fill:black;fill-rule:nonzero;"/>
        </g>
        <g transform="matrix(-1.58,0,0,1,1654.49,20.412)">
            <path d="M549.922,1033.52L549.922,1058.2L554.8,1058.2L554.8,1064.37L541.9,1064.37L541.9,1033.52L549.922,1033.52Z" style="fill:black;fill-rule:nonzero;"/>
            <path d="M571.568,1033.52L576.16,1064.37L567.948,1064.37L567.547,1058.83L564.67,1058.83L564.194,1064.37L555.886,1064.37L559.964,1033.52L571.568,1033.52ZM567.319,1053.36C566.912,1049.87 566.506,1045.55 566.099,1040.42C565.286,1046.32 564.778,1050.63 564.575,1053.36L567.319,1053.36Z" style="fill:black;fill-rule:nonzero;"/>
            <path d="M595.443,1033.52L595.443,1064.37L588.412,1064.37L584.239,1050.35L584.239,1064.37L577.532,1064.37L577.532,1033.52L584.239,1033.52L588.736,1047.41L588.736,1033.52L595.443,1033.52Z" style="fill:black;fill-rule:nonzero;"/>
        </g>
        <g transform="matrix(-1,0,0,1,1735.31,0)">
            <g transform="matrix(1.58,0,0,1,-401.828,0)">
                <path d="M708.912,472.393L702.558,472.393L702.558,468.137C702.558,466.899 702.49,466.127 702.354,465.82C702.218,465.513 701.919,465.36 701.456,465.36C700.933,465.36 700.601,465.546 700.46,465.918C700.319,466.29 700.248,467.095 700.248,468.333L700.248,479.683C700.248,480.871 700.319,481.646 700.46,482.008C700.601,482.37 700.918,482.551 701.411,482.551C701.884,482.551 702.193,482.37 702.339,482.008C702.485,481.646 702.558,480.795 702.558,479.457L702.558,476.393L708.912,476.393L708.912,477.344C708.912,479.87 708.733,481.661 708.376,482.717C708.019,483.774 707.229,484.7 706.007,485.494C704.784,486.289 703.277,486.687 701.486,486.687C699.625,486.687 698.09,486.35 696.883,485.676C695.675,485.001 694.875,484.068 694.483,482.876C694.09,481.683 693.894,479.89 693.894,477.495L693.894,470.356C693.894,468.595 693.954,467.274 694.075,466.394C694.196,465.513 694.556,464.665 695.154,463.85C695.753,463.035 696.583,462.394 697.645,461.926C698.706,461.458 699.926,461.224 701.305,461.224C703.177,461.224 704.721,461.586 705.939,462.311C707.156,463.035 707.956,463.938 708.339,465.02C708.721,466.102 708.912,467.785 708.912,470.069L708.912,472.393Z" style="fill:black;fill-rule:nonzero;"/>
                <path d="M724.806,473.178L724.806,478.084C724.806,479.885 724.715,481.205 724.534,482.046C724.353,482.886 723.965,483.671 723.372,484.4C722.778,485.13 722.016,485.668 721.085,486.015C720.154,486.362 719.085,486.536 717.878,486.536C716.529,486.536 715.387,486.387 714.451,486.091C713.516,485.794 712.789,485.346 712.27,484.747C711.752,484.149 711.382,483.424 711.161,482.574C710.94,481.724 710.829,480.448 710.829,478.748L710.829,473.616C710.829,471.754 711.03,470.3 711.433,469.254C711.835,468.207 712.56,467.367 713.606,466.733C714.653,466.099 715.991,465.782 717.621,465.782C718.989,465.782 720.164,465.986 721.145,466.394C722.126,466.801 722.884,467.332 723.417,467.986C723.95,468.64 724.315,469.314 724.511,470.008C724.707,470.703 724.806,471.759 724.806,473.178ZM718.708,471.669C718.708,470.642 718.652,469.996 718.542,469.729C718.431,469.463 718.195,469.329 717.832,469.329C717.47,469.329 717.229,469.463 717.108,469.729C716.987,469.996 716.927,470.642 716.927,471.669L716.927,480.71C716.927,481.656 716.987,482.272 717.108,482.559C717.229,482.846 717.465,482.989 717.817,482.989C718.179,482.989 718.418,482.858 718.534,482.596C718.65,482.335 718.708,481.771 718.708,480.906L718.708,471.669Z" style="fill:black;fill-rule:nonzero;"/>
                <path d="M733.016,466.145L732.911,467.986C733.353,467.251 733.894,466.701 734.533,466.333C735.172,465.966 735.909,465.782 736.744,465.782C737.791,465.782 738.646,466.029 739.31,466.522C739.974,467.015 740.402,467.636 740.593,468.386C740.784,469.136 740.88,470.386 740.88,472.137L740.88,486.174L734.782,486.174L734.782,472.303C734.782,470.924 734.737,470.084 734.646,469.782C734.556,469.48 734.304,469.329 733.892,469.329C733.459,469.329 733.187,469.503 733.077,469.85C732.966,470.197 732.911,471.125 732.911,472.635L732.911,486.174L726.813,486.174L726.813,466.145L733.016,466.145Z" style="fill:black;fill-rule:nonzero;"/>
                <path d="M749.182,466.145L749.076,467.986C749.519,467.251 750.059,466.701 750.698,466.333C751.337,465.966 752.074,465.782 752.91,465.782C753.956,465.782 754.811,466.029 755.476,466.522C756.14,467.015 756.567,467.636 756.758,468.386C756.95,469.136 757.045,470.386 757.045,472.137L757.045,486.174L750.947,486.174L750.947,472.303C750.947,470.924 750.902,470.084 750.812,469.782C750.721,469.48 750.469,469.329 750.057,469.329C749.624,469.329 749.353,469.503 749.242,469.85C749.131,470.197 749.076,471.125 749.076,472.635L749.076,486.174L742.978,486.174L742.978,466.145L749.182,466.145Z" style="fill:black;fill-rule:nonzero;"/>
                <path d="M772.954,476.514L765.06,476.514L765.06,480.846C765.06,481.751 765.125,482.335 765.256,482.596C765.387,482.858 765.638,482.989 766.011,482.989C766.474,482.989 766.783,482.815 766.939,482.468C767.095,482.121 767.173,481.449 767.173,480.453L767.173,477.812L772.954,477.812L772.954,479.291C772.954,480.529 772.876,481.48 772.72,482.144C772.564,482.808 772.199,483.517 771.626,484.272C771.052,485.027 770.325,485.593 769.445,485.97C768.564,486.347 767.46,486.536 766.132,486.536C764.844,486.536 763.706,486.35 762.72,485.977C761.734,485.605 760.967,485.094 760.419,484.445C759.87,483.796 759.49,483.082 759.279,482.302C759.068,481.522 758.962,480.388 758.962,478.899L758.962,473.057C758.962,471.307 759.199,469.925 759.671,468.914C760.144,467.903 760.919,467.128 761.996,466.59C763.073,466.051 764.31,465.782 765.709,465.782C767.419,465.782 768.831,466.107 769.943,466.756C771.055,467.405 771.834,468.265 772.282,469.337C772.73,470.408 772.954,471.915 772.954,473.857L772.954,476.514ZM766.841,473.254L766.841,471.79C766.841,470.753 766.786,470.084 766.675,469.782C766.564,469.48 766.338,469.329 765.996,469.329C765.573,469.329 765.311,469.458 765.211,469.714C765.11,469.971 765.06,470.663 765.06,471.79L765.06,473.254L766.841,473.254Z" style="fill:black;fill-rule:nonzero;"/>
                <path d="M788.425,473.706L782.674,473.706L782.674,471.397C782.674,470.592 782.609,470.046 782.478,469.759C782.347,469.473 782.105,469.329 781.753,469.329C781.401,469.329 781.165,469.455 781.044,469.707C780.923,469.958 780.863,470.522 780.863,471.397L780.863,480.846C780.863,481.56 780.953,482.096 781.134,482.453C781.316,482.81 781.582,482.989 781.934,482.989C782.347,482.989 782.626,482.803 782.772,482.43C782.918,482.058 782.991,481.354 782.991,480.317L782.991,477.933L788.425,477.933C788.415,479.532 788.357,480.732 788.251,481.532C788.145,482.332 787.808,483.152 787.24,483.993C786.671,484.833 785.929,485.467 785.013,485.894C784.098,486.322 782.966,486.536 781.617,486.536C779.897,486.536 778.533,486.242 777.527,485.653C776.521,485.064 775.809,484.239 775.391,483.178C774.974,482.116 774.765,480.609 774.765,478.657L774.765,472.967C774.765,471.266 774.936,469.983 775.278,469.118C775.62,468.253 776.35,467.48 777.467,466.801C778.584,466.122 779.942,465.782 781.542,465.782C783.132,465.782 784.49,466.119 785.617,466.794C786.744,467.468 787.494,468.318 787.866,469.344C788.238,470.371 788.425,471.825 788.425,473.706Z" style="fill:black;fill-rule:nonzero;"/>
                <path d="M796.666,463.473L796.666,466.628L798.311,466.628L798.311,469.797L796.666,469.797L796.666,480.514C796.666,481.832 796.734,482.566 796.869,482.717C797.005,482.868 797.571,482.944 798.567,482.944L798.567,486.174L796.107,486.174C794.719,486.174 793.727,486.116 793.134,486C792.54,485.884 792.017,485.618 791.564,485.2C791.111,484.783 790.83,484.305 790.719,483.766C790.608,483.228 790.553,481.963 790.553,479.97L790.553,469.797L789.24,469.797L789.24,466.628L790.553,466.628L790.553,463.473L796.666,463.473Z" style="fill:black;fill-rule:nonzero;"/>
                <path d="M813.45,473.178L813.45,478.084C813.45,479.885 813.359,481.205 813.178,482.046C812.997,482.886 812.609,483.671 812.016,484.4C811.422,485.13 810.66,485.668 809.729,486.015C808.798,486.362 807.729,486.536 806.522,486.536C805.173,486.536 804.031,486.387 803.095,486.091C802.16,485.794 801.433,485.346 800.914,484.747C800.396,484.149 800.026,483.424 799.805,482.574C799.584,481.724 799.473,480.448 799.473,478.748L799.473,473.616C799.473,471.754 799.674,470.3 800.077,469.254C800.479,468.207 801.204,467.367 802.25,466.733C803.297,466.099 804.635,465.782 806.265,465.782C807.634,465.782 808.808,465.986 809.789,466.394C810.771,466.801 811.528,467.332 812.061,467.986C812.594,468.64 812.959,469.314 813.155,470.008C813.352,470.703 813.45,471.759 813.45,473.178ZM807.352,471.669C807.352,470.642 807.297,469.996 807.186,469.729C807.075,469.463 806.839,469.329 806.476,469.329C806.114,469.329 805.873,469.463 805.752,469.729C805.631,469.996 805.571,470.642 805.571,471.669L805.571,480.71C805.571,481.656 805.631,482.272 805.752,482.559C805.873,482.846 806.109,482.989 806.461,482.989C806.824,482.989 807.063,482.858 807.178,482.596C807.294,482.335 807.352,481.771 807.352,480.906L807.352,471.669Z" style="fill:black;fill-rule:nonzero;"/>
                <path d="M821.555,466.145L821.313,468.771C822.199,466.889 823.482,465.893 825.162,465.782L825.162,472.831C824.045,472.831 823.225,472.982 822.702,473.284C822.179,473.586 821.857,474.006 821.736,474.544C821.615,475.082 821.555,476.323 821.555,478.265L821.555,486.174L815.457,486.174L815.457,466.145L821.555,466.145Z" style="fill:black;fill-rule:nonzero;"/>
            </g>
            <g transform="matrix(1.58,0,0,1,-401.828,0)">
                <path d="M700.324,494.385L700.324,497.539L701.969,497.539L701.969,500.709L700.324,500.709L700.324,511.425C700.324,512.743 700.392,513.478 700.528,513.629C700.663,513.78 701.229,513.855 702.226,513.855L702.226,517.085L699.765,517.085C698.377,517.085 697.386,517.027 696.792,516.912C696.198,516.796 695.675,516.529 695.222,516.112C694.769,515.694 694.488,515.216 694.377,514.678C694.266,514.139 694.211,512.874 694.211,510.882L694.211,500.709L692.898,500.709L692.898,497.539L694.211,497.539L694.211,494.385L700.324,494.385Z" style="fill:black;fill-rule:nonzero;"/>
                <path d="M717.108,504.09L717.108,508.995C717.108,510.796 717.017,512.117 716.836,512.957C716.655,513.797 716.268,514.582 715.674,515.312C715.08,516.041 714.318,516.579 713.387,516.927C712.457,517.274 711.387,517.447 710.18,517.447C708.832,517.447 707.689,517.299 706.754,517.002C705.818,516.705 705.091,516.258 704.573,515.659C704.054,515.06 703.685,514.336 703.463,513.485C703.242,512.635 703.131,511.36 703.131,509.659L703.131,504.527C703.131,502.666 703.332,501.212 703.735,500.165C704.137,499.119 704.862,498.279 705.908,497.645C706.955,497.011 708.293,496.694 709.923,496.694C711.292,496.694 712.467,496.898 713.448,497.305C714.429,497.713 715.186,498.243 715.719,498.897C716.253,499.552 716.617,500.226 716.814,500.92C717.01,501.614 717.108,502.671 717.108,504.09ZM711.01,502.58C711.01,501.554 710.955,500.907 710.844,500.641C710.733,500.374 710.497,500.241 710.135,500.241C709.772,500.241 709.531,500.374 709.41,500.641C709.289,500.907 709.229,501.554 709.229,502.58L709.229,511.621C709.229,512.567 709.289,513.183 709.41,513.47C709.531,513.757 709.767,513.9 710.12,513.9C710.482,513.9 710.721,513.77 710.836,513.508C710.952,513.246 711.01,512.683 711.01,511.817L711.01,502.58Z" style="fill:black;fill-rule:nonzero;"/>
                <path d="M724.745,492.649L731.145,492.649C732.876,492.649 734.206,492.785 735.137,493.056C736.068,493.328 736.767,493.72 737.235,494.234C737.703,494.747 738.02,495.368 738.186,496.098C738.352,496.827 738.435,497.957 738.435,499.486L738.435,501.614C738.435,503.174 738.274,504.311 737.952,505.025C737.63,505.74 737.039,506.288 736.178,506.671C735.318,507.053 734.194,507.244 732.805,507.244L731.1,507.244L731.1,517.085L724.745,517.085L724.745,492.649ZM731.1,496.83L731.1,503.048C731.281,503.058 731.437,503.063 731.567,503.063C732.151,503.063 732.556,502.92 732.782,502.633C733.009,502.346 733.122,501.75 733.122,500.845L733.122,498.837C733.122,498.002 732.991,497.459 732.73,497.207C732.468,496.955 731.925,496.83 731.1,496.83Z" style="fill:black;fill-rule:nonzero;"/>
                <path d="M753.876,504.09L753.876,508.995C753.876,510.796 753.785,512.117 753.604,512.957C753.423,513.797 753.035,514.582 752.442,515.312C751.848,516.041 751.086,516.579 750.155,516.927C749.224,517.274 748.155,517.447 746.948,517.447C745.599,517.447 744.457,517.299 743.521,517.002C742.586,516.705 741.859,516.258 741.34,515.659C740.822,515.06 740.452,514.336 740.231,513.485C740.01,512.635 739.899,511.36 739.899,509.659L739.899,504.527C739.899,502.666 740.1,501.212 740.503,500.165C740.905,499.119 741.63,498.279 742.676,497.645C743.723,497.011 745.061,496.694 746.691,496.694C748.06,496.694 749.234,496.898 750.215,497.305C751.196,497.713 751.954,498.243 752.487,498.897C753.02,499.552 753.385,500.226 753.581,500.92C753.777,501.614 753.876,502.671 753.876,504.09ZM747.778,502.58C747.778,501.554 747.722,500.907 747.612,500.641C747.501,500.374 747.265,500.241 746.902,500.241C746.54,500.241 746.299,500.374 746.178,500.641C746.057,500.907 745.997,501.554 745.997,502.58L745.997,511.621C745.997,512.567 746.057,513.183 746.178,513.47C746.299,513.757 746.535,513.9 746.887,513.9C747.25,513.9 747.489,513.77 747.604,513.508C747.72,513.246 747.778,512.683 747.778,511.817L747.778,502.58Z" style="fill:black;fill-rule:nonzero;"/>
                <path d="M775.58,497.056L773.15,517.085L766.524,517.085C766.162,514.64 765.744,511.42 765.271,507.425C765.11,509.176 764.884,510.947 764.592,512.738L763.913,517.085L757.287,517.085L754.706,497.056L759.958,497.056C759.999,497.579 760.441,501.398 761.287,508.512C761.347,507.788 761.8,503.969 762.645,497.056L767.701,497.056L768.939,508.512C769.13,505.171 769.593,501.353 770.328,497.056L775.58,497.056Z" style="fill:black;fill-rule:nonzero;"/>
                <path d="M790.387,507.425L782.493,507.425L782.493,511.757C782.493,512.663 782.558,513.246 782.689,513.508C782.82,513.77 783.071,513.9 783.444,513.9C783.907,513.9 784.216,513.727 784.372,513.38C784.528,513.033 784.606,512.361 784.606,511.365L784.606,508.723L790.387,508.723L790.387,510.202C790.387,511.44 790.309,512.391 790.153,513.055C789.997,513.719 789.632,514.429 789.059,515.183C788.485,515.938 787.758,516.504 786.878,516.881C785.997,517.259 784.893,517.447 783.565,517.447C782.277,517.447 781.139,517.261 780.153,516.889C779.167,516.517 778.4,516.006 777.852,515.357C777.303,514.708 776.923,513.993 776.712,513.214C776.501,512.434 776.395,511.299 776.395,509.81L776.395,503.969C776.395,502.218 776.632,500.837 777.104,499.826C777.577,498.814 778.352,498.04 779.429,497.501C780.506,496.963 781.743,496.694 783.142,496.694C784.852,496.694 786.264,497.018 787.376,497.667C788.488,498.316 789.267,499.177 789.715,500.248C790.163,501.32 790.387,502.827 790.387,504.769L790.387,507.425ZM784.274,504.165L784.274,502.701C784.274,501.665 784.219,500.995 784.108,500.694C783.997,500.392 783.771,500.241 783.429,500.241C783.006,500.241 782.744,500.369 782.644,500.626C782.543,500.882 782.493,501.574 782.493,502.701L782.493,504.165L784.274,504.165Z" style="fill:black;fill-rule:nonzero;"/>
                <path d="M798.477,497.056L798.235,499.682C799.121,497.801 800.404,496.804 802.084,496.694L802.084,503.742C800.967,503.742 800.147,503.893 799.624,504.195C799.101,504.497 798.779,504.917 798.658,505.456C798.537,505.994 798.477,507.234 798.477,509.176L798.477,517.085L792.379,517.085L792.379,497.056L798.477,497.056Z" style="fill:black;fill-rule:nonzero;"/>
                <rect x="802.899" y="504.965" width="8.015" height="4.211" style="fill:black;fill-rule:nonzero;"/>
                <rect x="812.725" y="492.649" width="6.354" height="24.436" style="fill:black;fill-rule:nonzero;"/>
                <path d="M827.653,497.056L827.547,498.897C827.99,498.163 828.531,497.612 829.17,497.245C829.808,496.877 830.546,496.694 831.381,496.694C832.427,496.694 833.282,496.94 833.947,497.433C834.611,497.926 835.038,498.548 835.23,499.297C835.421,500.047 835.516,501.297 835.516,503.048L835.516,517.085L829.419,517.085L829.419,503.214C829.419,501.836 829.373,500.995 829.283,500.694C829.192,500.392 828.941,500.241 828.528,500.241C828.095,500.241 827.824,500.414 827.713,500.762C827.602,501.109 827.547,502.037 827.547,503.546L827.547,517.085L821.449,517.085L821.449,497.056L827.653,497.056Z" style="fill:black;fill-rule:nonzero;"/>
                <path d="M844.074,492.649L844.074,495.833L837.795,495.833L837.795,492.649L844.074,492.649ZM844.074,497.056L844.074,512.904C844.074,514.766 844.037,516.026 843.961,516.685C843.886,517.344 843.654,517.923 843.267,518.421C842.879,518.919 842.361,519.289 841.712,519.53C841.063,519.772 840.09,519.893 838.792,519.893L836.437,519.893L836.437,516.693C837.162,516.693 837.569,516.612 837.66,516.451C837.75,516.29 837.795,515.284 837.795,513.433L837.795,497.056L844.074,497.056Z" style="fill:black;fill-rule:nonzero;"/>
                <path d="M860.073,507.425L852.18,507.425L852.18,511.757C852.18,512.663 852.245,513.246 852.376,513.508C852.507,513.77 852.758,513.9 853.13,513.9C853.593,513.9 853.903,513.727 854.059,513.38C854.215,513.033 854.293,512.361 854.293,511.365L854.293,508.723L860.073,508.723L860.073,510.202C860.073,511.44 859.995,512.391 859.84,513.055C859.684,513.719 859.319,514.429 858.745,515.183C858.172,515.938 857.445,516.504 856.564,516.881C855.684,517.259 854.579,517.447 853.251,517.447C851.963,517.447 850.826,517.261 849.84,516.889C848.854,516.517 848.087,516.006 847.538,515.357C846.99,514.708 846.61,513.993 846.399,513.214C846.187,512.434 846.082,511.299 846.082,509.81L846.082,503.969C846.082,502.218 846.318,500.837 846.791,499.826C847.264,498.814 848.039,498.04 849.116,497.501C850.192,496.963 851.43,496.694 852.829,496.694C854.539,496.694 855.95,497.018 857.062,497.667C858.174,498.316 858.954,499.177 859.402,500.248C859.85,501.32 860.073,502.827 860.073,504.769L860.073,507.425ZM853.961,504.165L853.961,502.701C853.961,501.665 853.905,500.995 853.795,500.694C853.684,500.392 853.457,500.241 853.115,500.241C852.693,500.241 852.431,500.369 852.33,500.626C852.23,500.882 852.18,501.574 852.18,502.701L852.18,504.165L853.961,504.165Z" style="fill:black;fill-rule:nonzero;"/>
                <path d="M875.544,504.618L869.794,504.618L869.794,502.309C869.794,501.504 869.728,500.958 869.597,500.671C869.467,500.384 869.225,500.241 868.873,500.241C868.521,500.241 868.284,500.367 868.164,500.618C868.043,500.87 867.982,501.433 867.982,502.309L867.982,511.757C867.982,512.472 868.073,513.007 868.254,513.365C868.435,513.722 868.702,513.9 869.054,513.9C869.467,513.9 869.746,513.714 869.892,513.342C870.038,512.97 870.111,512.265 870.111,511.229L870.111,508.844L875.544,508.844C875.534,510.444 875.476,511.644 875.371,512.444C875.265,513.244 874.928,514.064 874.359,514.904C873.791,515.744 873.049,516.378 872.133,516.806C871.217,517.234 870.085,517.447 868.737,517.447C867.016,517.447 865.653,517.153 864.647,516.564C863.641,515.976 862.929,515.151 862.511,514.089C862.093,513.027 861.885,511.521 861.885,509.569L861.885,503.878C861.885,502.178 862.056,500.895 862.398,500.029C862.74,499.164 863.469,498.392 864.586,497.713C865.703,497.033 867.062,496.694 868.662,496.694C870.252,496.694 871.61,497.031 872.737,497.705C873.864,498.379 874.614,499.23 874.986,500.256C875.358,501.282 875.544,502.736 875.544,504.618Z" style="fill:black;fill-rule:nonzero;"/>
                <path d="M883.785,494.385L883.785,497.539L885.431,497.539L885.431,500.709L883.785,500.709L883.785,511.425C883.785,512.743 883.853,513.478 883.989,513.629C884.125,513.78 884.691,513.855 885.687,513.855L885.687,517.085L883.227,517.085C881.838,517.085 880.847,517.027 880.253,516.912C879.66,516.796 879.137,516.529 878.684,516.112C878.231,515.694 877.949,515.216 877.839,514.678C877.728,514.139 877.672,512.874 877.672,510.882L877.672,500.709L876.359,500.709L876.359,497.539L877.672,497.539L877.672,494.385L883.785,494.385Z" style="fill:black;fill-rule:nonzero;"/>
                <path d="M900.569,504.09L900.569,508.995C900.569,510.796 900.479,512.117 900.298,512.957C900.117,513.797 899.729,514.582 899.135,515.312C898.542,516.041 897.78,516.579 896.849,516.927C895.918,517.274 894.849,517.447 893.641,517.447C892.293,517.447 891.151,517.299 890.215,517.002C889.279,516.705 888.552,516.258 888.034,515.659C887.516,515.06 887.146,514.336 886.925,513.485C886.703,512.635 886.593,511.36 886.593,509.659L886.593,504.527C886.593,502.666 886.794,501.212 887.196,500.165C887.599,499.119 888.323,498.279 889.37,497.645C890.416,497.011 891.755,496.694 893.385,496.694C894.753,496.694 895.928,496.898 896.909,497.305C897.89,497.713 898.647,498.243 899.181,498.897C899.714,499.552 900.079,500.226 900.275,500.92C900.471,501.614 900.569,502.671 900.569,504.09ZM894.472,502.58C894.472,501.554 894.416,500.907 894.306,500.641C894.195,500.374 893.958,500.241 893.596,500.241C893.234,500.241 892.992,500.374 892.872,500.641C892.751,500.907 892.691,501.554 892.691,502.58L892.691,511.621C892.691,512.567 892.751,513.183 892.872,513.47C892.992,513.757 893.229,513.9 893.581,513.9C893.943,513.9 894.182,513.77 894.298,513.508C894.414,513.246 894.472,512.683 894.472,511.817L894.472,502.58Z" style="fill:black;fill-rule:nonzero;"/>
                <path d="M908.675,497.056L908.433,499.682C909.319,497.801 910.601,496.804 912.282,496.694L912.282,503.742C911.165,503.742 910.345,503.893 909.822,504.195C909.298,504.497 908.976,504.917 908.856,505.456C908.735,505.994 908.675,507.234 908.675,509.176L908.675,517.085L902.577,517.085L902.577,497.056L908.675,497.056Z" style="fill:black;fill-rule:nonzero;"/>
            </g>
        </g>
        <g id="topower">
            <rect x="547.998" y="526.91" width="102.94" height="29.255" style="fill:rgb(189,190,189);stroke-width:3px;stroke:black;"/>
            <rect x="550.6" y="463.423" width="99.137" height="63.487" style="fill:black;stroke-width:3px;stroke:black;"/>
            <g>
                <g transform="matrix(0.148298,0,0,1,468.947,0)">
                    <rect x="550.6" y="463.423" width="99.137" height="63.487" style="fill:rgb(27,26,25);stroke-width:1.4px;stroke:black;"/>
                </g>
                <g transform="matrix(0.0226233,0,0,1,559.863,0)">
                    <rect x="550.6" y="463.423" width="99.137" height="63.487" style="fill:rgb(27,26,25);stroke-width:1.41px;stroke:black;"/>
                </g>
                <g transform="matrix(0.0226233,0,0,1,568.907,0)">
                    <rect x="550.6" y="463.423" width="99.137" height="63.487" style="fill:rgb(27,26,25);stroke-width:1.41px;stroke:black;"/>
                </g>
                <g transform="matrix(0.0226233,0,0,1,578.129,0)">
                    <rect x="550.6" y="463.423" width="99.137" height="63.487" style="fill:rgb(27,26,25);stroke-width:1.41px;stroke:black;"/>
                </g>
                <g transform="matrix(0.0226233,0,0,1,587.418,0)">
                    <rect x="550.6" y="463.423" width="99.137" height="63.487" style="fill:rgb(27,26,25);stroke-width:1.41px;stroke:black;"/>
                </g>
                <g transform="matrix(0.0226233,0,0,1,596.308,0)">
                    <rect x="550.6" y="463.423" width="99.137" height="63.487" style="fill:rgb(27,26,25);stroke-width:1.41px;stroke:black;"/>
                </g>
                <g transform="matrix(0.0226233,0,0,1,605.337,0)">
                    <rect x="550.6" y="463.423" width="99.137" height="63.487" style="fill:rgb(27,26,25);stroke-width:1.41px;stroke:black;"/>
                </g>
                <g transform="matrix(0.0226233,0,0,1,614.628,0)">
                    <rect x="550.6" y="463.423" width="99.137" height="63.487" style="fill:rgb(27,26,25);stroke-width:1.41px;stroke:black;"/>
                </g>
                <g transform="matrix(0.14285,0,0,1,557.642,0)">
                    <rect x="550.6" y="463.423" width="99.137" height="63.487" style="fill:rgb(27,26,25);stroke-width:1.4px;stroke:black;"/>
                </g>
            </g>
            <g>
                <path d="M566.066,480.473L571.876,480.473L571.876,522.776L566.066,522.776L566.066,480.473" style="fill:rgb(221,185,69);stroke-width:0.25px;stroke:rgb(169,131,51);"/>
                <g transform="matrix(1,0,0,1,9.13697,0)">
                    <path d="M566.066,480.473L571.876,480.473L571.876,522.776L566.066,522.776L566.066,480.473" style="fill:rgb(221,185,69);stroke-width:0.25px;stroke:rgb(169,131,51);"/>
                </g>
                <g transform="matrix(1,0,0,1,18.1963,0)">
                    <path d="M566.066,480.473L571.876,480.473L571.876,522.776L566.066,522.776L566.066,480.473" style="fill:rgb(221,185,69);stroke-width:0.25px;stroke:rgb(169,131,51);"/>
                </g>
                <g transform="matrix(1,0,0,1,27.323,0)">
                    <path d="M566.066,480.473L571.876,480.473L571.876,522.776L566.066,522.776L566.066,480.473" style="fill:rgb(221,185,69);stroke-width:0.25px;stroke:rgb(169,131,51);"/>
                </g>
                <g transform="matrix(1,0,0,1,36.6498,0)">
                    <path d="M566.066,480.473L571.876,480.473L571.876,522.776L566.066,522.776L566.066,480.473" style="fill:rgb(221,185,69);stroke-width:0.25px;stroke:rgb(169,131,51);"/>
                </g>
                <g transform="matrix(1,0,0,1,45.5962,0)">
                    <path d="M566.066,480.473L571.876,480.473L571.876,522.776L566.066,522.776L566.066,480.473" style="fill:rgb(221,185,69);stroke-width:0.25px;stroke:rgb(169,131,51);"/>
                </g>
                <g transform="matrix(1,0,0,1,54.5985,0)">
                    <path d="M566.066,480.473L571.876,480.473L571.876,522.776L566.066,522.776L566.066,480.473" style="fill:rgb(221,185,69);stroke-width:0.25px;stroke:rgb(169,131,51);"/>
                </g>
                <g transform="matrix(1,0,0,1,63.8392,0)">
                    <path d="M566.066,480.473L571.876,480.473L571.876,522.776L566.066,522.776L566.066,480.473" style="fill:rgb(221,185,69);stroke-width:0.25px;stroke:rgb(169,131,51);"/>
                </g>
            </g>
        </g>
        <path id="case" d="M474.039,548.254L857.262,548.254L857.262,1022.76L819.713,1022.76L819.713,999.39L511.664,999.39L511.664,1022.76L474.039,1022.76L474.039,548.254Z" style="fill:rgb(42,42,41);stroke-width:3px;stroke:black;"/>
        <rect x="474.039" y="-43.254" width="383.223" height="431.633" style="fill:rgb(42,42,41);stroke-width:0.25px;stroke:black;"/>
        <g transform="matrix(-1.58,0,0,1,1665.45,0)">
            <path d="M554.68,318.509L554.68,347.897L560.49,347.897L560.49,355.25L545.126,355.25L545.126,318.509L554.68,318.509Z" style="fill:white;fill-rule:nonzero;stroke-width:2.65px;stroke-linecap:butt;stroke:rgb(179,179,179);"/>
            <path d="M580.46,318.509L585.929,355.25L576.148,355.25L575.672,348.646L572.245,348.646L571.678,355.25L561.783,355.25L566.64,318.509L580.46,318.509ZM575.399,342.133C574.915,337.972 574.431,332.836 573.947,326.724C572.979,333.744 572.374,338.88 572.131,342.133L575.399,342.133Z" style="fill:white;fill-rule:nonzero;stroke-width:2.65px;stroke-linecap:butt;stroke:rgb(179,179,179);"/>
            <path d="M608.895,318.509L608.895,355.25L600.521,355.25L595.551,338.547L595.551,355.25L587.563,355.25L587.563,318.509L595.551,318.509L600.907,335.052L600.907,318.509L608.895,318.509Z" style="fill:white;fill-rule:nonzero;stroke-width:2.65px;stroke-linecap:butt;stroke:rgb(179,179,179);"/>
            <path d="M649.757,318.509L659.379,318.509C661.982,318.509 663.982,318.713 665.382,319.122C666.781,319.53 667.833,320.12 668.536,320.892C669.24,321.663 669.716,322.597 669.966,323.694C670.216,324.791 670.34,326.489 670.34,328.789L670.34,331.989C670.34,334.334 670.098,336.043 669.614,337.118C669.13,338.192 668.241,339.016 666.948,339.591C665.654,340.166 663.964,340.454 661.876,340.454L659.311,340.454L659.311,355.25L649.757,355.25L649.757,318.509ZM659.311,324.795L659.311,334.145C659.584,334.16 659.818,334.167 660.015,334.167C660.892,334.167 661.501,333.952 661.842,333.521C662.182,333.089 662.352,332.193 662.352,330.831L662.352,327.813C662.352,326.557 662.156,325.741 661.762,325.362C661.369,324.984 660.552,324.795 659.311,324.795Z" style="fill:white;fill-rule:nonzero;stroke-width:2.65px;stroke-linecap:butt;stroke:rgb(179,179,179);"/>
            <path d="M693.556,335.711L693.556,343.086C693.556,345.794 693.42,347.78 693.148,349.043C692.875,350.306 692.293,351.486 691.4,352.583C690.508,353.68 689.361,354.49 687.962,355.011C686.563,355.533 684.955,355.794 683.14,355.794C681.112,355.794 679.395,355.571 677.988,355.125C676.581,354.679 675.488,354.005 674.709,353.105C673.93,352.205 673.374,351.116 673.041,349.837C672.708,348.559 672.542,346.641 672.542,344.085L672.542,336.369C672.542,333.57 672.844,331.384 673.449,329.81C674.055,328.237 675.144,326.974 676.717,326.02C678.291,325.067 680.303,324.591 682.754,324.591C684.811,324.591 686.578,324.897 688.053,325.51C689.528,326.123 690.666,326.921 691.468,327.904C692.27,328.887 692.818,329.901 693.114,330.945C693.409,331.989 693.556,333.577 693.556,335.711ZM684.388,333.441C684.388,331.898 684.305,330.926 684.138,330.525C683.972,330.124 683.616,329.924 683.072,329.924C682.527,329.924 682.164,330.124 681.982,330.525C681.801,330.926 681.71,331.898 681.71,333.441L681.71,347.035C681.71,348.457 681.801,349.383 681.982,349.815C682.164,350.246 682.519,350.461 683.049,350.461C683.594,350.461 683.953,350.265 684.127,349.871C684.301,349.478 684.388,348.631 684.388,347.33L684.388,333.441Z" style="fill:white;fill-rule:nonzero;stroke-width:2.65px;stroke-linecap:butt;stroke:rgb(179,179,179);"/>
            <path d="M696.847,318.509L712.778,318.509L712.778,325.862L706.401,325.862L706.401,332.828L712.369,332.828L712.369,339.818L706.401,339.818L706.401,347.897L713.413,347.897L713.413,355.25L696.847,355.25L696.847,318.509Z" style="fill:white;fill-rule:nonzero;stroke-width:2.65px;stroke-linecap:butt;stroke:rgb(179,179,179);"/>
        </g>
        <g id="Reset" transform="matrix(-1,0,0,1,1318.33,-7.6175)">
            <circle cx="583.089" cy="901.194" r="9.129" style="fill:rgb(26,25,25);stroke-width:2.5px;stroke:rgb(28,28,26);"/>
            <g transform="matrix(1,0,0,1,133.431,0)">
                <circle cx="583.089" cy="901.194" r="9.129" style="fill:rgb(26,25,25);stroke-width:2.5px;stroke:rgb(28,28,26);"/>
            </g>
            <g transform="matrix(1.58,0,0,1,-337.1,0)">
                <path d="M567.25,918.853L569.543,918.853C571.073,918.853 572.108,918.912 572.649,919.03C573.191,919.148 573.632,919.45 573.973,919.934C574.314,920.419 574.485,921.193 574.485,922.255C574.485,923.225 574.364,923.877 574.123,924.21C573.882,924.544 573.407,924.744 572.699,924.811C573.341,924.97 573.772,925.183 573.992,925.45C574.213,925.716 574.35,925.961 574.404,926.185C574.458,926.408 574.485,927.022 574.485,928.028L574.485,931.315L571.475,931.315L571.475,927.174C571.475,926.507 571.423,926.094 571.318,925.934C571.212,925.775 570.937,925.696 570.49,925.696L570.49,931.315L567.25,931.315L567.25,918.853ZM570.49,920.985L570.49,923.756C570.854,923.756 571.11,923.706 571.256,923.606C571.402,923.506 571.475,923.181 571.475,922.632L571.475,921.947C571.475,921.552 571.405,921.293 571.264,921.17C571.123,921.047 570.865,920.985 570.49,920.985Z" style="fill:rgb(82,83,82);fill-rule:nonzero;"/>
                <path d="M575.74,918.853L581.143,918.853L581.143,921.347L578.98,921.347L578.98,923.71L581.005,923.71L581.005,926.081L578.98,926.081L578.98,928.821L581.359,928.821L581.359,931.315L575.74,931.315L575.74,918.853Z" style="fill:rgb(82,83,82);fill-rule:nonzero;"/>
                <path d="M589.156,922.625L586.146,922.625L586.146,921.701C586.146,921.27 586.108,920.995 586.031,920.877C585.954,920.759 585.826,920.7 585.646,920.7C585.451,920.7 585.304,920.78 585.203,920.939C585.103,921.098 585.053,921.339 585.053,921.662C585.053,922.078 585.11,922.391 585.223,922.602C585.33,922.812 585.636,923.066 586.139,923.364C587.581,924.221 588.489,924.924 588.864,925.473C589.238,926.022 589.425,926.907 589.425,928.128C589.425,929.016 589.322,929.67 589.114,930.091C588.906,930.512 588.504,930.865 587.909,931.149C587.314,931.434 586.621,931.577 585.831,931.577C584.964,931.577 584.223,931.412 583.61,931.084C582.997,930.756 582.595,930.337 582.406,929.829C582.216,929.321 582.121,928.6 582.121,927.666L582.121,926.85L585.13,926.85L585.13,928.367C585.13,928.834 585.173,929.134 585.257,929.267C585.342,929.401 585.492,929.468 585.708,929.468C585.923,929.468 586.084,929.383 586.189,929.214C586.294,929.044 586.347,928.793 586.347,928.459C586.347,927.725 586.246,927.246 586.046,927.02C585.841,926.794 585.336,926.417 584.53,925.888C583.724,925.355 583.191,924.967 582.929,924.726C582.667,924.485 582.45,924.151 582.279,923.725C582.107,923.299 582.021,922.755 582.021,922.094C582.021,921.139 582.143,920.441 582.386,920C582.63,919.559 583.024,919.213 583.568,918.965C584.112,918.716 584.769,918.591 585.538,918.591C586.38,918.591 587.097,918.727 587.69,918.999C588.282,919.271 588.675,919.614 588.867,920.027C589.06,920.44 589.156,921.142 589.156,922.132L589.156,922.625Z" style="fill:rgb(82,83,82);fill-rule:nonzero;"/>
                <path d="M590.441,918.853L595.845,918.853L595.845,921.347L593.682,921.347L593.682,923.71L595.706,923.71L595.706,926.081L593.682,926.081L593.682,928.821L596.061,928.821L596.061,931.315L590.441,931.315L590.441,918.853Z" style="fill:rgb(82,83,82);fill-rule:nonzero;"/>
                <path d="M603.311,918.853L603.311,921.347L601.387,921.347L601.387,931.315L598.146,931.315L598.146,921.347L596.23,921.347L596.23,918.853L603.311,918.853Z" style="fill:rgb(82,83,82);fill-rule:nonzero;"/>
            </g>
            <g transform="matrix(1.58,0,0,1,-203.669,0)">
                <path d="M567.25,918.853L569.543,918.853C571.073,918.853 572.108,918.912 572.649,919.03C573.191,919.148 573.632,919.45 573.973,919.934C574.314,920.419 574.485,921.193 574.485,922.255C574.485,923.225 574.364,923.877 574.123,924.21C573.882,924.544 573.407,924.744 572.699,924.811C573.341,924.97 573.772,925.183 573.992,925.45C574.213,925.716 574.35,925.961 574.404,926.185C574.458,926.408 574.485,927.022 574.485,928.028L574.485,931.315L571.475,931.315L571.475,927.174C571.475,926.507 571.423,926.094 571.318,925.934C571.212,925.775 570.937,925.696 570.49,925.696L570.49,931.315L567.25,931.315L567.25,918.853ZM570.49,920.985L570.49,923.756C570.854,923.756 571.11,923.706 571.256,923.606C571.402,923.506 571.475,923.181 571.475,922.632L571.475,921.947C571.475,921.552 571.405,921.293 571.264,921.17C571.123,921.047 570.865,920.985 570.49,920.985Z" style="fill:rgb(82,83,82);fill-rule:nonzero;"/>
                <path d="M575.74,918.853L581.143,918.853L581.143,921.347L578.98,921.347L578.98,923.71L581.005,923.71L581.005,926.081L578.98,926.081L578.98,928.821L581.359,928.821L581.359,931.315L575.74,931.315L575.74,918.853Z" style="fill:rgb(82,83,82);fill-rule:nonzero;"/>
                <path d="M589.156,922.625L586.146,922.625L586.146,921.701C586.146,921.27 586.108,920.995 586.031,920.877C585.954,920.759 585.826,920.7 585.646,920.7C585.451,920.7 585.304,920.78 585.203,920.939C585.103,921.098 585.053,921.339 585.053,921.662C585.053,922.078 585.11,922.391 585.223,922.602C585.33,922.812 585.636,923.066 586.139,923.364C587.581,924.221 588.489,924.924 588.864,925.473C589.238,926.022 589.425,926.907 589.425,928.128C589.425,929.016 589.322,929.67 589.114,930.091C588.906,930.512 588.504,930.865 587.909,931.149C587.314,931.434 586.621,931.577 585.831,931.577C584.964,931.577 584.223,931.412 583.61,931.084C582.997,930.756 582.595,930.337 582.406,929.829C582.216,929.321 582.121,928.6 582.121,927.666L582.121,926.85L585.13,926.85L585.13,928.367C585.13,928.834 585.173,929.134 585.257,929.267C585.342,929.401 585.492,929.468 585.708,929.468C585.923,929.468 586.084,929.383 586.189,929.214C586.294,929.044 586.347,928.793 586.347,928.459C586.347,927.725 586.246,927.246 586.046,927.02C585.841,926.794 585.336,926.417 584.53,925.888C583.724,925.355 583.191,924.967 582.929,924.726C582.667,924.485 582.45,924.151 582.279,923.725C582.107,923.299 582.021,922.755 582.021,922.094C582.021,921.139 582.143,920.441 582.386,920C582.63,919.559 583.024,919.213 583.568,918.965C584.112,918.716 584.769,918.591 585.538,918.591C586.38,918.591 587.097,918.727 587.69,918.999C588.282,919.271 588.675,919.614 588.867,920.027C589.06,920.44 589.156,921.142 589.156,922.132L589.156,922.625Z" style="fill:rgb(82,83,82);fill-rule:nonzero;"/>
                <path d="M590.441,918.853L595.845,918.853L595.845,921.347L593.682,921.347L593.682,923.71L595.706,923.71L595.706,926.081L593.682,926.081L593.682,928.821L596.061,928.821L596.061,931.315L590.441,931.315L590.441,918.853Z" style="fill:rgb(82,83,82);fill-rule:nonzero;"/>
                <path d="M603.311,918.853L603.311,921.347L601.387,921.347L601.387,931.315L598.146,931.315L598.146,921.347L596.23,921.347L596.23,918.853L603.311,918.853Z" style="fill:rgb(82,83,82);fill-rule:nonzero;"/>
                <path d="M606.829,918.853L612.233,918.853L612.233,921.347L610.07,921.347L610.07,923.71L612.094,923.71L612.094,926.081L610.07,926.081L610.07,928.821L612.448,928.821L612.448,931.315L606.829,931.315L606.829,918.853Z" style="fill:rgb(82,83,82);fill-rule:nonzero;"/>
                <path d="M619.945,918.853L618.814,924.364L620.522,931.315L617.521,931.315C617.161,930.073 616.833,928.562 616.535,926.781C616.453,927.566 616.34,928.4 616.197,929.283L615.889,931.315L612.733,931.315L613.903,924.364L612.733,918.853L615.866,918.853C615.922,919.197 616.035,919.769 616.204,920.569C616.338,921.18 616.448,921.739 616.535,922.247L617.228,918.853L619.945,918.853Z" style="fill:rgb(82,83,82);fill-rule:nonzero;"/>
                <path d="M627.512,918.853L627.512,921.347L625.587,921.347L625.587,931.315L622.347,931.315L622.347,921.347L620.43,921.347L620.43,918.853L627.512,918.853Z" style="fill:rgb(82,83,82);fill-rule:nonzero;"/>
            </g>
        </g>
    </g>
</svg>
