<?xml version="1.0" standalone="no"?>
<!DOCTYPE svg PUBLIC "-//W3C//DTD SVG 1.1//EN" "http://www.w3.org/Graphics/SVG/1.1/DTD/svg11.dtd">
<svg width="100%" height="100%" viewBox="0 0 1280 1150" version="1.1" xmlns="http://www.w3.org/2000/svg" xmlns:xlink="http://www.w3.org/1999/xlink" xml:space="preserve" style="fill-rule:evenodd;clip-rule:evenodd;stroke-linecap:round;stroke-miterlimit:1.41421;">
    <g id="fuellung-seite">
        <path d="M83.377,518.594L83.377,793.582C83.035,809.171 103.713,822.497 131.796,833.931L610.647,1002.87C682.453,1027.23 750.645,1027.55 812.038,982.675L1184.45,704.137C1198.26,693.255 1205.47,679.686 1205.53,663.199L1205.53,410.783L83.377,518.594Z" style="fill:rgb(242,242,242);"/>
        <path d="M1207.03,409.279L1207.03,663.204L1207.02,663.6L1207.02,663.995L1207.01,664.389L1207,664.782L1206.99,665.174L1206.97,665.565L1206.95,665.955L1206.93,666.344L1206.91,666.732L1206.88,667.119L1206.85,667.505L1206.82,667.89L1206.78,668.273L1206.75,668.656L1206.7,669.038L1206.66,669.419L1206.62,669.798L1206.57,670.177L1206.52,670.555L1206.46,670.931L1206.41,671.307L1206.35,671.681L1206.29,672.055L1206.22,672.427L1206.15,672.799L1206.09,673.169L1206.01,673.538L1205.94,673.907L1205.86,674.274L1205.78,674.64L1205.7,675.006L1205.61,675.37L1205.52,675.733L1205.43,676.095L1205.34,676.455L1205.24,676.816L1205.14,677.174L1205.04,677.532L1204.94,677.889L1204.83,678.245L1204.72,678.599L1204.61,678.953L1204.49,679.305L1204.38,679.657L1204.26,680.007L1204.13,680.357L1204.01,680.705L1203.88,681.052L1203.75,681.398L1203.62,681.743L1203.48,682.087L1203.34,682.43L1203.2,682.772L1203.06,683.113L1202.91,683.452L1202.76,683.791L1202.61,684.128L1202.46,684.465L1202.3,684.8L1202.14,685.134L1201.98,685.468L1201.81,685.8L1201.65,686.131L1201.48,686.461L1201.31,686.789L1201.13,687.117L1200.95,687.444L1200.77,687.77L1200.59,688.094L1200.4,688.417L1200.22,688.74L1200.03,689.061L1199.83,689.381L1199.64,689.7L1199.44,690.018L1199.24,690.335L1199.04,690.651L1198.83,690.966L1198.62,691.279L1198.41,691.592L1198.2,691.903L1197.99,692.213L1197.77,692.523L1197.55,692.831L1197.32,693.138L1197.1,693.444L1196.87,693.748L1196.64,694.052L1196.4,694.355L1196.17,694.657L1195.93,694.957L1195.69,695.256L1195.45,695.555L1195.2,695.852L1194.95,696.148L1194.7,696.443L1194.45,696.737L1194.19,697.03L1193.93,697.322L1193.67,697.612L1193.41,697.902L1193.14,698.191L1192.88,698.478L1192.61,698.764L1192.33,699.05L1192.06,699.334L1191.78,699.617L1191.5,699.899L1191.22,700.18L1190.93,700.46L1190.64,700.739L1190.35,701.016L1190.06,701.293L1189.77,701.569L1189.47,701.843L1189.17,702.117L1188.87,702.389L1188.56,702.66L1188.25,702.931L1187.94,703.2L1187.63,703.468L1187.32,703.735L1187,704.001L1186.68,704.266L1186.36,704.529L1186.04,704.792L1185.71,705.054L1185.37,705.325L812.929,983.882L812.561,984.151L812.199,984.414L811.836,984.676L811.473,984.937L811.11,985.197L810.747,985.456L810.384,985.715L810.02,985.972L809.657,986.228L809.293,986.483L808.929,986.737L808.565,986.989L808.201,987.241L807.836,987.492L807.472,987.742L807.107,987.991L806.742,988.239L806.377,988.485L806.012,988.731L805.646,988.976L805.281,989.22L804.915,989.462L804.549,989.704L804.183,989.945L803.817,990.184L803.451,990.423L803.084,990.661L802.718,990.897L802.351,991.133L801.984,991.367L801.617,991.601L801.249,991.833L800.882,992.065L800.514,992.296L800.146,992.525L799.779,992.754L799.41,992.981L799.042,993.208L798.674,993.433L798.305,993.658L797.937,993.881L797.568,994.104L797.199,994.325L796.83,994.546L796.46,994.765L796.091,994.984L795.721,995.201L795.351,995.418L794.981,995.634L794.611,995.848L794.241,996.062L793.871,996.274L793.5,996.486L793.129,996.696L792.759,996.906L792.388,997.115L792.016,997.322L791.645,997.529L791.274,997.734L790.902,997.939L790.53,998.143L790.158,998.345L789.786,998.547L789.414,998.748L789.042,998.948L788.669,999.146L788.296,999.344L787.923,999.541L787.55,999.737L787.177,999.932L786.804,1000.13L786.431,1000.32L786.057,1000.51L785.683,1000.7L785.309,1000.89L784.935,1001.08L784.561,1001.27L784.187,1001.46L783.812,1001.64L783.438,1001.83L783.063,1002.01L782.688,1002.19L782.313,1002.38L781.938,1002.56L781.562,1002.74L781.187,1002.92L780.811,1003.1L780.435,1003.27L780.059,1003.45L779.683,1003.63L779.307,1003.8L778.93,1003.97L778.554,1004.15L778.177,1004.32L777.8,1004.49L777.423,1004.66L777.046,1004.83L776.669,1005L776.291,1005.16L775.914,1005.33L775.536,1005.49L775.158,1005.66L774.78,1005.82L774.402,1005.98L774.024,1006.14L773.645,1006.31L773.267,1006.47L772.888,1006.62L772.509,1006.78L772.13,1006.94L771.751,1007.09L771.371,1007.25L770.992,1007.4L770.612,1007.56L770.233,1007.71L769.853,1007.86L769.473,1008.01L769.093,1008.16L768.712,1008.31L768.332,1008.45L767.951,1008.6L767.571,1008.74L767.19,1008.89L766.809,1009.03L766.428,1009.18L766.046,1009.32L765.665,1009.46L765.283,1009.6L764.902,1009.74L764.52,1009.88L764.138,1010.01L763.756,1010.15L763.373,1010.28L762.991,1010.42L762.608,1010.55L762.226,1010.68L761.843,1010.82L761.46,1010.95L761.077,1011.08L760.693,1011.21L760.31,1011.33L759.927,1011.46L759.543,1011.59L759.159,1011.71L758.775,1011.84L758.391,1011.96L758.007,1012.08L757.623,1012.2L757.238,1012.32L756.854,1012.44L756.469,1012.56L756.084,1012.68L755.699,1012.8L755.314,1012.91L754.929,1013.03L754.543,1013.14L754.158,1013.26L753.772,1013.37L753.386,1013.48L753,1013.59L752.614,1013.7L752.228,1013.81L751.842,1013.92L751.455,1014.03L751.069,1014.13L750.682,1014.24L750.295,1014.34L749.908,1014.45L749.521,1014.55L749.134,1014.65L748.746,1014.75L748.359,1014.85L747.971,1014.95L747.583,1015.05L747.195,1015.15L746.807,1015.25L746.419,1015.34L746.031,1015.44L745.642,1015.53L745.254,1015.62L744.865,1015.72L744.476,1015.81L744.087,1015.9L743.698,1015.99L743.309,1016.08L742.92,1016.17L742.53,1016.25L742.141,1016.34L741.751,1016.43L741.361,1016.51L740.971,1016.59L740.581,1016.68L740.191,1016.76L739.8,1016.84L739.41,1016.92L739.019,1017L738.628,1017.08L738.237,1017.15L737.847,1017.23L737.455,1017.31L737.064,1017.38L736.673,1017.46L736.281,1017.53L735.89,1017.6L735.498,1017.68L735.106,1017.75L734.714,1017.82L734.322,1017.89L733.93,1017.95L733.537,1018.02L733.145,1018.09L732.752,1018.15L732.359,1018.22L731.967,1018.28L731.574,1018.35L731.181,1018.41L730.787,1018.47L730.394,1018.53L730,1018.59L729.607,1018.65L729.213,1018.71L728.819,1018.77L728.425,1018.82L728.031,1018.88L727.637,1018.93L727.243,1018.99L726.848,1019.04L726.454,1019.09L726.059,1019.14L725.664,1019.2L725.269,1019.25L724.874,1019.3L724.479,1019.34L724.084,1019.39L723.688,1019.44L723.293,1019.48L722.897,1019.53L722.502,1019.57L722.106,1019.62L721.71,1019.66L721.314,1019.7L720.917,1019.74L720.521,1019.78L720.124,1019.82L719.728,1019.86L719.331,1019.9L718.934,1019.94L718.537,1019.97L718.14,1020.01L717.743,1020.04L717.346,1020.08L716.949,1020.11L716.551,1020.14L716.153,1020.17L715.756,1020.2L715.358,1020.23L714.96,1020.26L714.562,1020.29L714.164,1020.32L713.765,1020.34L713.367,1020.37L712.968,1020.39L712.569,1020.42L712.171,1020.44L711.772,1020.46L711.373,1020.49L710.974,1020.51L710.575,1020.53L710.175,1020.55L709.776,1020.56L709.376,1020.58L708.977,1020.6L708.577,1020.62L708.177,1020.63L707.777,1020.64L707.377,1020.66L706.976,1020.67L706.576,1020.69L706.176,1020.7L705.775,1020.71L705.374,1020.72L704.974,1020.73L704.573,1020.74L704.172,1020.74L703.771,1020.75L703.369,1020.76L702.968,1020.76L702.566,1020.77L702.165,1020.77L701.763,1020.77L701.362,1020.77L700.96,1020.78L700.558,1020.78L700.155,1020.78L699.753,1020.78L699.351,1020.78L698.949,1020.77L698.546,1020.77L698.143,1020.77L697.74,1020.76L696.935,1020.75L696.128,1020.74L695.322,1020.72L694.515,1020.7L693.707,1020.68L692.899,1020.65L692.091,1020.62L691.282,1020.59L690.473,1020.55L689.663,1020.51L688.853,1020.47L688.042,1020.43L687.232,1020.38L686.42,1020.33L685.608,1020.28L684.796,1020.22L683.984,1020.17L683.171,1020.1L682.357,1020.04L681.544,1019.97L680.729,1019.9L679.915,1019.83L679.1,1019.75L678.285,1019.68L677.469,1019.59L676.653,1019.51L675.836,1019.42L675.019,1019.33L674.202,1019.24L673.384,1019.14L672.566,1019.05L671.747,1018.95L670.928,1018.84L670.109,1018.73L669.289,1018.62L668.469,1018.51L667.649,1018.4L666.828,1018.28L666.006,1018.16L665.185,1018.04L664.363,1017.91L663.54,1017.78L662.717,1017.65L661.894,1017.52L661.071,1017.38L660.247,1017.24L659.422,1017.1L658.598,1016.96L657.773,1016.81L656.947,1016.66L656.122,1016.5L655.295,1016.35L654.469,1016.19L653.642,1016.03L652.815,1015.87L651.987,1015.7L651.159,1015.53L650.331,1015.37L649.502,1015.19L648.673,1015.02L647.844,1014.84L647.014,1014.66L646.184,1014.47L645.353,1014.29L644.522,1014.1L643.691,1013.91L642.859,1013.71L642.028,1013.52L641.195,1013.32L640.363,1013.12L639.53,1012.91L638.696,1012.71L637.863,1012.5L637.029,1012.29L636.194,1012.08L635.36,1011.86L634.525,1011.64L633.689,1011.42L632.854,1011.2L632.018,1010.97L631.181,1010.75L630.344,1010.51L629.507,1010.28L628.67,1010.05L627.832,1009.81L626.994,1009.57L626.156,1009.33L625.317,1009.08L624.478,1008.84L623.639,1008.59L622.799,1008.34L621.959,1008.08L621.118,1007.83L620.278,1007.57L619.437,1007.31L618.595,1007.04L617.754,1006.78L616.912,1006.51L616.069,1006.24L615.227,1005.97L614.384,1005.7L613.541,1005.42L612.697,1005.14L611.853,1004.86L611.009,1004.58L610.157,1004.29L131.262,835.334L130.57,835.051L129.912,834.781L129.258,834.509L128.606,834.238L127.957,833.965L127.311,833.692L126.667,833.418L126.027,833.143L125.389,832.867L124.755,832.591L124.124,832.314L123.495,832.036L122.87,831.758L122.248,831.479L121.629,831.199L121.014,830.918L120.402,830.636L119.793,830.354L119.187,830.071L118.585,829.787L117.986,829.503L117.39,829.218L116.799,828.932L116.21,828.645L115.625,828.357L115.044,828.069L114.467,827.78L113.893,827.49L113.323,827.199L112.756,826.907L112.194,826.615L111.635,826.322L111.08,826.028L110.53,825.733L109.983,825.438L109.44,825.142L108.901,824.844L108.366,824.547L107.835,824.248L107.308,823.948L106.786,823.648L106.268,823.347L105.754,823.045L105.244,822.742L104.738,822.438L104.238,822.134L103.989,821.981L103.741,821.828L103.494,821.675L103.248,821.521L103.004,821.368L102.761,821.214L102.519,821.06L102.278,820.906L102.038,820.752L101.799,820.597L101.561,820.443L101.325,820.288L101.09,820.132L100.855,819.977L100.622,819.821L100.39,819.665L100.16,819.509L99.93,819.353L99.702,819.196L99.475,819.04L99.249,818.882L99.024,818.725L98.801,818.568L98.579,818.41L98.357,818.252L98.138,818.094L97.919,817.935L97.702,817.777L97.485,817.618L97.27,817.459L97.057,817.3L96.844,817.14L96.633,816.98L96.423,816.82L96.214,816.66L96.007,816.499L95.801,816.339L95.596,816.178L95.392,816.016L95.19,815.855L94.989,815.693L94.789,815.531L94.59,815.369L94.393,815.206L94.197,815.044L94.003,814.881L93.81,814.717L93.618,814.554L93.427,814.39L93.238,814.226L93.05,814.062L92.863,813.897L92.678,813.732L92.494,813.567L92.312,813.402L92.13,813.236L91.951,813.071L91.772,812.905L91.595,812.738L91.42,812.571L91.245,812.404L91.072,812.237L90.901,812.07L90.731,811.902L90.562,811.734L90.395,811.566L90.229,811.397L90.065,811.228L89.902,811.059L89.74,810.89L89.58,810.72L89.421,810.55L89.264,810.38L89.108,810.209L88.954,810.038L88.801,809.867L88.65,809.696L88.5,809.524L88.351,809.352L88.204,809.18L88.059,809.007L87.915,808.834L87.772,808.661L87.632,808.487L87.492,808.313L87.354,808.139L87.218,807.965L87.083,807.79L86.95,807.615L86.818,807.439L86.688,807.263L86.559,807.087L86.432,806.911L86.307,806.734L86.183,806.557L86.061,806.38L85.94,806.202L85.821,806.024L85.703,805.846L85.587,805.667L85.473,805.488L85.361,805.309L85.249,805.129L85.14,804.949L85.032,804.769L84.926,804.588L84.822,804.407L84.719,804.226L84.618,804.044L84.519,803.862L84.421,803.679L84.325,803.497L84.231,803.314L84.139,803.13L84.048,802.947L83.959,802.762L83.871,802.578L83.786,802.393L83.702,802.208L83.62,802.023L83.54,801.837L83.461,801.651L83.384,801.464L83.309,801.277L83.236,801.09L83.165,800.903L83.095,800.715L83.028,800.526L82.962,800.338L82.898,800.149L82.836,799.96L82.776,799.77L82.717,799.581L82.661,799.39L82.606,799.2L82.553,799.009L82.503,798.818L82.454,798.626L82.407,798.435L82.362,798.243L82.318,798.05L82.277,797.858L82.238,797.665L82.201,797.471L82.165,797.278L82.132,797.084L82.101,796.89L82.071,796.695L82.044,796.5L82.019,796.305L81.995,796.11L81.974,795.915L81.955,795.719L81.937,795.523L81.922,795.326L81.909,795.13L81.898,794.933L81.888,794.736L81.881,794.539L81.876,794.341L81.873,794.144L81.873,793.946L81.874,793.748L81.877,793.57L81.877,517.232L1206.88,409.146L1207.03,409.279ZM84.877,519.957L84.877,793.595L84.874,793.782L84.873,793.949L84.873,794.115L84.876,794.281L84.88,794.447L84.886,794.613L84.894,794.779L84.903,794.944L84.914,795.11L84.927,795.275L84.942,795.44L84.958,795.604L84.976,795.769L84.996,795.934L85.017,796.098L85.04,796.262L85.065,796.426L85.091,796.59L85.119,796.754L85.149,796.918L85.181,797.082L85.214,797.245L85.249,797.409L85.286,797.572L85.324,797.735L85.364,797.898L85.406,798.061L85.449,798.224L85.494,798.387L85.541,798.55L85.589,798.712L85.639,798.875L85.691,799.038L85.744,799.2L85.799,799.362L85.856,799.525L85.914,799.687L85.974,799.849L86.036,800.011L86.099,800.173L86.164,800.335L86.23,800.497L86.299,800.659L86.369,800.821L86.44,800.982L86.513,801.144L86.588,801.306L86.665,801.467L86.743,801.629L86.823,801.79L86.904,801.952L86.987,802.113L87.072,802.274L87.158,802.435L87.246,802.596L87.335,802.757L87.427,802.918L87.519,803.079L87.614,803.24L87.71,803.401L87.808,803.562L87.907,803.723L88.008,803.883L88.11,804.044L88.214,804.204L88.32,804.365L88.427,804.525L88.536,804.685L88.647,804.846L88.759,805.006L88.873,805.166L88.988,805.326L89.105,805.486L89.223,805.646L89.343,805.806L89.465,805.965L89.588,806.125L89.712,806.284L89.839,806.444L89.966,806.603L90.096,806.763L90.227,806.922L90.359,807.081L90.493,807.24L90.628,807.399L90.765,807.558L90.904,807.717L91.044,807.875L91.186,808.034L91.329,808.192L91.474,808.351L91.62,808.509L91.767,808.667L91.917,808.825L92.067,808.983L92.219,809.141L92.373,809.299L92.528,809.456L92.685,809.614L92.843,809.771L93.002,809.929L93.163,810.086L93.326,810.243L93.49,810.4L93.655,810.557L93.822,810.714L93.99,810.87L94.16,811.027L94.331,811.183L94.503,811.339L94.677,811.495L94.852,811.651L95.029,811.807L95.207,811.963L95.387,812.119L95.568,812.274L95.75,812.43L95.934,812.585L96.119,812.74L96.306,812.895L96.494,813.05L96.683,813.205L96.874,813.359L97.066,813.514L97.259,813.668L97.454,813.822L97.65,813.976L97.847,814.13L98.046,814.284L98.246,814.438L98.447,814.591L98.65,814.744L98.854,814.898L99.059,815.051L99.266,815.204L99.474,815.356L99.683,815.509L99.894,815.662L100.105,815.814L100.318,815.966L100.533,816.118L100.748,816.27L100.965,816.422L101.183,816.573L101.403,816.725L101.623,816.876L101.845,817.027L102.068,817.178L102.293,817.329L102.518,817.48L102.745,817.631L102.973,817.781L103.202,817.931L103.433,818.081L103.664,818.231L103.897,818.381L104.131,818.531L104.366,818.68L104.603,818.829L104.84,818.979L105.079,819.128L105.319,819.277L105.56,819.425L105.802,819.573L106.29,819.871L106.783,820.166L107.28,820.462L107.781,820.757L108.287,821.051L108.798,821.344L109.312,821.637L109.831,821.929L110.355,822.22L110.882,822.511L111.414,822.801L111.95,823.091L112.49,823.38L113.034,823.668L113.582,823.956L114.135,824.243L114.691,824.529L115.251,824.815L115.815,825.1L116.383,825.384L116.954,825.667L117.53,825.95L118.109,826.233L118.691,826.514L119.278,826.795L119.868,827.076L120.461,827.355L121.058,827.634L121.659,827.913L122.263,828.19L122.87,828.467L123.481,828.744L124.095,829.019L124.712,829.294L125.333,829.569L125.957,829.842L126.584,830.115L127.213,830.388L127.847,830.659L128.483,830.93L129.122,831.201L129.764,831.47L130.409,831.739L131.057,832.008L131.708,832.275L132.329,832.529L611.136,1001.45L611.967,1001.73L612.804,1002.01L613.642,1002.29L614.479,1002.57L615.316,1002.84L616.152,1003.12L616.988,1003.38L617.824,1003.65L618.659,1003.92L619.494,1004.18L620.328,1004.44L621.163,1004.7L621.996,1004.96L622.83,1005.21L623.663,1005.46L624.496,1005.71L625.328,1005.96L626.16,1006.2L626.992,1006.45L627.823,1006.69L628.654,1006.92L629.484,1007.16L630.314,1007.39L631.144,1007.62L631.973,1007.85L632.802,1008.08L633.631,1008.3L634.459,1008.52L635.287,1008.74L636.114,1008.96L636.941,1009.17L637.768,1009.38L638.594,1009.59L639.42,1009.8L640.246,1010L641.071,1010.2L641.895,1010.4L642.72,1010.6L643.544,1010.79L644.367,1010.98L645.19,1011.17L646.013,1011.36L646.835,1011.54L647.657,1011.73L648.478,1011.9L649.3,1012.08L650.12,1012.26L650.94,1012.43L651.76,1012.6L652.58,1012.76L653.399,1012.93L654.217,1013.09L655.036,1013.25L655.853,1013.4L656.671,1013.56L657.488,1013.71L658.304,1013.86L659.12,1014L659.936,1014.14L660.751,1014.28L661.566,1014.42L662.38,1014.56L663.194,1014.69L664.008,1014.82L664.821,1014.95L665.634,1015.07L666.446,1015.19L667.258,1015.31L668.069,1015.43L668.88,1015.54L669.691,1015.65L670.501,1015.76L671.311,1015.87L672.12,1015.97L672.929,1016.07L673.737,1016.17L674.545,1016.26L675.352,1016.35L676.159,1016.44L676.966,1016.53L677.772,1016.61L678.578,1016.69L679.383,1016.77L680.188,1016.84L680.992,1016.91L681.796,1016.98L682.599,1017.05L683.402,1017.11L684.205,1017.17L685.007,1017.23L685.808,1017.29L686.609,1017.34L687.41,1017.39L688.211,1017.43L689.01,1017.48L689.81,1017.52L690.608,1017.56L691.407,1017.59L692.205,1017.62L693.002,1017.65L693.799,1017.68L694.596,1017.7L695.392,1017.72L696.187,1017.74L696.982,1017.75L697.778,1017.76L698.174,1017.77L698.571,1017.77L698.968,1017.77L699.365,1017.78L699.761,1017.78L700.158,1017.78L700.554,1017.78L700.951,1017.78L701.347,1017.77L701.743,1017.77L702.139,1017.77L702.535,1017.77L702.93,1017.76L703.326,1017.76L703.721,1017.75L704.117,1017.74L704.512,1017.74L704.907,1017.73L705.302,1017.72L705.697,1017.71L706.092,1017.7L706.486,1017.69L706.881,1017.67L707.275,1017.66L707.67,1017.65L708.064,1017.63L708.458,1017.62L708.852,1017.6L709.245,1017.59L709.639,1017.57L710.033,1017.55L710.426,1017.53L710.819,1017.51L711.212,1017.49L711.605,1017.47L711.998,1017.45L712.391,1017.42L712.784,1017.4L713.176,1017.37L713.569,1017.35L713.961,1017.32L714.353,1017.3L714.745,1017.27L715.137,1017.24L715.529,1017.21L715.921,1017.18L716.313,1017.15L716.704,1017.12L717.095,1017.09L717.486,1017.05L717.878,1017.02L718.269,1016.98L718.659,1016.95L719.05,1016.91L719.441,1016.87L719.831,1016.84L720.221,1016.8L720.612,1016.76L721.002,1016.72L721.392,1016.68L721.781,1016.63L722.171,1016.59L722.561,1016.55L722.95,1016.5L723.339,1016.46L723.729,1016.41L724.118,1016.37L724.507,1016.32L724.895,1016.27L725.284,1016.22L725.673,1016.17L726.061,1016.12L726.45,1016.07L726.838,1016.01L727.226,1015.96L727.614,1015.91L728.002,1015.85L728.389,1015.8L728.777,1015.74L729.164,1015.68L729.552,1015.62L729.939,1015.57L730.326,1015.51L730.713,1015.45L731.1,1015.38L731.486,1015.32L731.873,1015.26L732.259,1015.2L732.646,1015.13L733.032,1015.06L733.418,1015L733.804,1014.93L734.19,1014.86L734.575,1014.79L734.961,1014.72L735.346,1014.65L735.731,1014.58L736.116,1014.51L736.501,1014.44L736.886,1014.36L737.271,1014.29L737.656,1014.21L738.04,1014.14L738.425,1014.06L738.809,1013.98L739.193,1013.9L739.577,1013.82L739.961,1013.74L740.344,1013.66L740.728,1013.58L741.112,1013.49L741.495,1013.41L741.878,1013.33L742.261,1013.24L742.644,1013.15L743.027,1013.07L743.41,1012.98L743.792,1012.89L744.174,1012.8L744.557,1012.71L744.939,1012.62L745.321,1012.52L745.703,1012.43L746.085,1012.34L746.466,1012.24L746.848,1012.14L747.229,1012.05L747.61,1011.95L747.992,1011.85L748.373,1011.75L748.753,1011.65L749.134,1011.55L749.515,1011.45L749.895,1011.35L750.275,1011.24L750.656,1011.14L751.036,1011.03L751.416,1010.92L751.795,1010.82L752.175,1010.71L752.555,1010.6L752.934,1010.49L753.313,1010.38L753.692,1010.27L754.071,1010.15L754.45,1010.04L754.829,1009.93L755.207,1009.81L755.586,1009.7L755.964,1009.58L756.343,1009.46L756.721,1009.34L757.099,1009.22L757.476,1009.1L757.854,1008.98L758.232,1008.86L758.609,1008.74L758.986,1008.61L759.363,1008.49L759.74,1008.36L760.117,1008.23L760.494,1008.11L760.871,1007.98L761.247,1007.85L761.623,1007.72L762,1007.59L762.376,1007.45L762.751,1007.32L763.127,1007.19L763.503,1007.05L763.878,1006.92L764.254,1006.78L764.629,1006.64L765.004,1006.5L765.379,1006.36L765.754,1006.22L766.129,1006.08L766.503,1005.94L766.878,1005.8L767.252,1005.65L767.626,1005.51L768,1005.36L768.374,1005.22L768.748,1005.07L769.121,1004.92L769.495,1004.77L769.868,1004.62L770.241,1004.47L770.615,1004.32L770.987,1004.16L771.36,1004.01L771.733,1003.86L772.105,1003.7L772.478,1003.54L772.85,1003.38L773.222,1003.23L773.594,1003.07L773.966,1002.9L774.338,1002.74L774.709,1002.58L775.081,1002.42L775.452,1002.25L775.823,1002.09L776.194,1001.92L776.565,1001.76L776.936,1001.59L777.306,1001.42L777.677,1001.25L778.047,1001.08L778.417,1000.91L778.787,1000.73L779.157,1000.56L779.527,1000.38L779.896,1000.21L780.266,1000.03L780.635,999.855L781.005,999.677L781.374,999.498L781.743,999.317L782.111,999.136L782.48,998.954L782.848,998.771L783.217,998.587L783.585,998.402L783.953,998.215L784.321,998.029L784.689,997.841L785.057,997.652L785.424,997.462L785.792,997.271L786.159,997.079L786.526,996.886L786.893,996.693L787.26,996.498L787.626,996.302L787.993,996.106L788.359,995.908L788.726,995.71L789.092,995.51L789.458,995.31L789.824,995.108L790.189,994.906L790.555,994.702L790.92,994.498L791.285,994.292L791.651,994.086L792.016,993.879L792.38,993.67L792.745,993.461L793.11,993.251L793.474,993.04L793.838,992.827L794.202,992.614L794.566,992.4L794.93,992.185L795.294,991.969L795.658,991.751L796.021,991.533L796.384,991.314L796.747,991.094L797.11,990.873L797.473,990.651L797.836,990.428L798.198,990.204L798.561,989.978L798.923,989.752L799.285,989.525L799.647,989.297L800.009,989.068L800.371,988.838L800.732,988.607L801.093,988.375L801.455,988.142L801.816,987.907L802.177,987.672L802.538,987.436L802.898,987.199L803.259,986.961L803.619,986.722L803.979,986.482L804.339,986.24L804.699,985.998L805.059,985.755L805.419,985.511L805.778,985.266L806.138,985.019L806.497,984.772L806.856,984.524L807.215,984.274L807.574,984.024L807.932,983.773L808.291,983.52L808.649,983.267L809.007,983.013L809.365,982.757L809.723,982.501L810.081,982.243L810.438,981.985L810.796,981.725L811.147,981.469L1183.54,702.948L1183.84,702.708L1184.15,702.457L1184.46,702.205L1184.77,701.952L1185.08,701.698L1185.38,701.443L1185.68,701.187L1185.98,700.93L1186.28,700.672L1186.57,700.414L1186.87,700.154L1187.15,699.894L1187.44,699.632L1187.73,699.37L1188.01,699.107L1188.29,698.843L1188.56,698.578L1188.84,698.312L1189.11,698.045L1189.38,697.777L1189.64,697.509L1189.91,697.239L1190.17,696.969L1190.43,696.697L1190.69,696.425L1190.94,696.152L1191.2,695.877L1191.45,695.602L1191.69,695.326L1191.94,695.049L1192.18,694.771L1192.42,694.493L1192.66,694.213L1192.89,693.932L1193.13,693.651L1193.36,693.368L1193.59,693.085L1193.81,692.8L1194.04,692.515L1194.26,692.229L1194.47,691.942L1194.69,691.654L1194.9,691.365L1195.11,691.075L1195.32,690.784L1195.53,690.492L1195.73,690.2L1195.93,689.906L1196.13,689.611L1196.33,689.316L1196.52,689.019L1196.71,688.722L1196.9,688.424L1197.09,688.124L1197.27,687.824L1197.45,687.523L1197.63,687.221L1197.81,686.918L1197.98,686.614L1198.15,686.308L1198.32,686.002L1198.49,685.696L1198.65,685.388L1198.81,685.079L1198.97,684.769L1199.13,684.458L1199.29,684.146L1199.44,683.833L1199.59,683.52L1199.73,683.205L1199.88,682.889L1200.02,682.573L1200.16,682.255L1200.3,681.936L1200.43,681.617L1200.56,681.296L1200.69,680.975L1200.82,680.652L1200.95,680.328L1201.07,680.004L1201.19,679.678L1201.31,679.351L1201.42,679.024L1201.53,678.695L1201.64,678.365L1201.75,678.035L1201.86,677.703L1201.96,677.37L1202.06,677.037L1202.16,676.702L1202.25,676.366L1202.35,676.029L1202.44,675.691L1202.52,675.352L1202.61,675.012L1202.69,674.671L1202.77,674.329L1202.85,673.986L1202.93,673.642L1203,673.297L1203.07,672.951L1203.14,672.603L1203.2,672.255L1203.27,671.905L1203.33,671.555L1203.39,671.203L1203.44,670.851L1203.49,670.497L1203.55,670.142L1203.59,669.786L1203.64,669.429L1203.68,669.071L1203.72,668.712L1203.76,668.352L1203.8,667.991L1203.83,667.628L1203.86,667.265L1203.89,666.9L1203.91,666.534L1203.93,666.168L1203.96,665.8L1203.97,665.431L1203.99,665.061L1204,664.69L1204.01,664.317L1204.02,663.944L1204.03,663.569L1204.03,663.194L1204.03,412.434L84.877,519.957Z" style="fill:black;"/>
    </g>
    <g transform="matrix(0.903696,-0.481253,0.445744,0.837017,-210.704,603.623)">
        <path d="M1055.65,677.218C1058.52,671.388 1054.92,667.42 1046.34,668.482L980.475,676.631C969.257,677.806 966.952,682.88 963.073,690.745L953.502,710.15C953.502,717.366 956.763,721.114 963.446,721.114L1030.99,710.759C1036.63,709.896 1039.27,710.43 1043.42,702.014L1055.65,677.218Z" style="fill:rgb(134,209,249);"/>
        <path d="M1055.05,668.147L1055.17,668.223L1055.29,668.301L1055.41,668.38L1055.52,668.462L1055.64,668.546L1055.75,668.633L1055.86,668.721L1055.97,668.811L1056.07,668.904L1056.17,668.999L1056.28,669.096L1056.37,669.195L1056.47,669.297L1056.56,669.4L1056.66,669.506L1056.75,669.613L1056.83,669.723L1056.92,669.835L1057,669.949L1057.08,670.065L1057.15,670.182L1057.22,670.302L1057.3,670.424L1057.36,670.547L1057.43,670.672L1057.49,670.799L1057.55,670.927L1057.61,671.057L1057.66,671.188L1057.71,671.321L1057.75,671.456L1057.8,671.591L1057.84,671.727L1057.88,671.865L1057.91,672.004L1057.94,672.144L1057.97,672.285L1058,672.426L1058.02,672.569L1058.04,672.712L1058.05,672.856L1058.07,673.001L1058.08,673.146L1058.08,673.292L1058.09,673.438L1058.09,673.585L1058.08,673.732L1058.08,673.879L1058.07,674.027L1058.06,674.175L1058.05,674.324L1058.03,674.473L1058.01,674.622L1057.99,674.772L1057.97,674.922L1057.94,675.071L1057.91,675.222L1057.88,675.372L1057.84,675.523L1057.81,675.674L1057.77,675.825L1057.72,675.976L1057.68,676.127L1057.63,676.279L1057.58,676.431L1057.53,676.583L1057.47,676.736L1057.41,676.888L1057.35,677.041L1057.29,677.193L1057.22,677.347L1057.16,677.5L1057.09,677.654L1057.02,677.808L1056.94,677.957L1044.71,702.759L1044.61,702.96L1044.51,703.158L1044.41,703.354L1044.31,703.547L1044.21,703.737L1044.12,703.924L1044.02,704.108L1043.92,704.289L1043.82,704.467L1043.72,704.643L1043.63,704.815L1043.53,704.985L1043.43,705.152L1043.34,705.316L1043.24,705.478L1043.15,705.637L1043.05,705.793L1042.96,705.947L1042.86,706.098L1042.77,706.247L1042.67,706.393L1042.58,706.537L1042.48,706.679L1042.39,706.817L1042.29,706.954L1042.2,707.088L1042.1,707.22L1042.01,707.349L1041.91,707.476L1041.82,707.601L1041.72,707.724L1041.62,707.845L1041.53,707.963L1041.43,708.079L1041.34,708.193L1041.24,708.305L1041.14,708.415L1041.05,708.522L1040.95,708.627L1040.85,708.731L1040.76,708.833L1040.66,708.932L1040.56,709.029L1040.46,709.125L1040.36,709.218L1040.26,709.309L1040.16,709.399L1040.06,709.486L1039.96,709.572L1039.86,709.655L1039.76,709.737L1039.66,709.817L1039.56,709.894L1039.46,709.971L1039.36,710.045L1039.25,710.117L1039.15,710.188L1039.05,710.256L1038.94,710.323L1038.84,710.388L1038.74,710.451L1038.63,710.513L1038.53,710.573L1038.42,710.631L1038.32,710.687L1038.21,710.742L1038.11,710.795L1038,710.846L1037.89,710.896L1037.79,710.945L1037.68,710.992L1037.58,711.037L1037.47,711.081L1037.36,711.123L1037.26,711.164L1037.15,711.204L1037.04,711.242L1036.93,711.279L1036.83,711.315L1036.72,711.35L1036.61,711.383L1036.5,711.416L1036.39,711.447L1036.29,711.477L1036.18,711.506L1036.07,711.535L1035.96,711.562L1035.85,711.589L1035.63,711.638L1035.41,711.685L1035.19,711.73L1034.97,711.771L1034.75,711.811L1034.53,711.849L1034.31,711.885L1034.08,711.919L1033.85,711.953L1033.62,711.986L1033.16,712.05L1032.69,712.114L1032.2,712.18L1031.96,712.215L1031.71,712.25L1031.45,712.287L1031.2,712.326L963.547,722.696L963.278,722.695L963.111,722.693L962.945,722.689L962.781,722.684L962.617,722.677L962.454,722.669L962.293,722.659L962.132,722.648L961.973,722.635L961.814,722.621L961.657,722.605L961.5,722.588L961.345,722.569L961.191,722.549L961.038,722.527L960.886,722.503L960.734,722.478L960.584,722.452L960.436,722.424L960.287,722.394L960.14,722.363L959.995,722.33L959.85,722.295L959.706,722.259L959.563,722.221L959.422,722.182L959.282,722.141L959.142,722.098L959.003,722.054L958.866,722.008L958.73,721.96L958.595,721.911L958.461,721.86L958.328,721.807L958.196,721.753L958.066,721.697L957.936,721.639L957.808,721.58L957.681,721.519L957.555,721.456L957.43,721.391L957.307,721.325L957.184,721.257L957.063,721.188L956.943,721.116L956.824,721.043L956.707,720.968L956.591,720.892L956.476,720.814L956.362,720.734L956.25,720.652L956.139,720.569L956.03,720.484L955.921,720.397L955.814,720.308L955.709,720.219L955.605,720.127L955.502,720.033L955.4,719.938L955.301,719.842L955.202,719.743L955.105,719.644L955.01,719.542L954.916,719.439L954.823,719.334L954.732,719.228L954.643,719.12L954.555,719.011L954.468,718.9L954.384,718.788L954.3,718.674L954.218,718.559L954.138,718.442L954.059,718.324L953.982,718.205L953.907,718.084L953.833,717.961L953.76,717.838L953.69,717.713L953.62,717.587L953.552,717.458L953.486,717.33L953.422,717.2L953.359,717.069L953.297,716.935L953.237,716.801L953.179,716.666L953.122,716.53L953.067,716.392L953.013,716.253L952.961,716.113L952.91,715.972L952.861,715.83L952.813,715.686L952.767,715.541L952.722,715.395L952.679,715.249L952.637,715.1L952.597,714.951L952.558,714.801L952.521,714.649L952.485,714.496L952.45,714.343L952.417,714.188L952.386,714.033L952.356,713.876L952.327,713.718L952.299,713.558L952.273,713.398L952.249,713.237L952.226,713.075L952.204,712.911L952.183,712.747L952.164,712.581L952.147,712.415L952.13,712.247L952.115,712.078L952.101,711.908L952.089,711.737L952.078,711.565L952.068,711.392L952.06,711.218L952.053,711.043L952.047,710.867L952.042,710.689L952.039,710.511L952.037,710.331L952.035,709.758L961.78,690.001L962.14,689.272L962.493,688.557L962.669,688.204L962.843,687.854L963.018,687.508L963.192,687.165L963.366,686.825L963.541,686.489L963.716,686.156L963.893,685.826L964.069,685.501L964.16,685.338L964.249,685.177L964.339,685.017L964.43,684.858L964.521,684.7L964.613,684.542L964.705,684.385L964.798,684.229L964.892,684.074L964.986,683.92L965.081,683.767L965.177,683.615L965.273,683.463L965.371,683.313L965.469,683.163L965.568,683.015L965.668,682.867L965.769,682.72L965.871,682.574L965.974,682.43L966.078,682.286L966.183,682.143L966.29,682.001L966.397,681.861L966.506,681.721L966.616,681.582L966.727,681.444L966.84,681.308L966.953,681.172L967.068,681.038L967.185,680.905L967.302,680.773L967.422,680.642L967.543,680.512L967.665,680.383L967.789,680.256L967.914,680.13L968.041,680.005L968.169,679.881L968.3,679.759L968.431,679.638L968.564,679.518L968.7,679.399L968.836,679.282L968.975,679.167L969.115,679.052L969.257,678.939L969.4,678.827L969.546,678.717L969.693,678.608L969.842,678.501L969.993,678.395L970.146,678.291L970.301,678.188L970.458,678.086L970.616,677.986L970.776,677.888L970.939,677.791L971.103,677.696L971.27,677.602L971.438,677.509L971.609,677.419L971.781,677.329L971.955,677.242L972.132,677.156L972.311,677.071L972.491,676.988L972.674,676.907L972.859,676.827L973.047,676.748L973.236,676.671L973.427,676.596L973.621,676.522L973.818,676.45L974.016,676.38L974.217,676.311L974.42,676.243L974.625,676.178L974.833,676.113L975.043,676.05L975.256,675.989L975.471,675.929L975.688,675.871L975.908,675.815L976.131,675.76L976.356,675.706L976.584,675.654L976.815,675.604L977.048,675.555L977.283,675.507L977.522,675.461L977.763,675.417L978.007,675.374L978.254,675.333L978.503,675.293L978.756,675.255L979.012,675.218L979.27,675.183L979.531,675.149L979.795,675.117L980.063,675.086L980.318,675.058L1046.17,666.91L1046.38,666.885L1046.59,666.862L1046.8,666.84L1047,666.821L1047.21,666.803L1047.41,666.787L1047.61,666.773L1047.81,666.761L1048.01,666.751L1048.2,666.743L1048.4,666.736L1048.59,666.732L1048.78,666.729L1048.97,666.728L1049.16,666.729L1049.35,666.732L1049.53,666.736L1049.71,666.743L1049.89,666.751L1050.07,666.761L1050.25,666.773L1050.43,666.787L1050.6,666.803L1050.77,666.82L1050.94,666.84L1051.11,666.861L1051.28,666.884L1051.45,666.908L1051.61,666.935L1051.78,666.964L1051.94,666.994L1052.1,667.026L1052.25,667.06L1052.41,667.096L1052.56,667.134L1052.72,667.174L1052.87,667.216L1053.02,667.259L1053.16,667.304L1053.31,667.352L1053.45,667.401L1053.6,667.452L1053.74,667.505L1053.88,667.561L1054.01,667.618L1054.15,667.677L1054.28,667.738L1054.42,667.801L1054.55,667.866L1054.67,667.933L1054.8,668.003L1054.93,668.074L1055.05,668.147ZM1053.46,670.813L1053.38,670.769L1053.29,670.726L1053.21,670.683L1053.12,670.642L1053.03,670.601L1052.94,670.561L1052.85,670.522L1052.75,670.484L1052.65,670.446L1052.55,670.41L1052.45,670.375L1052.34,670.341L1052.23,670.307L1052.12,670.275L1052.01,670.244L1051.9,670.215L1051.78,670.186L1051.66,670.158L1051.54,670.132L1051.41,670.107L1051.29,670.083L1051.16,670.061L1051.03,670.04L1050.9,670.02L1050.76,670.001L1050.62,669.984L1050.49,669.968L1050.34,669.954L1050.2,669.941L1050.05,669.93L1049.91,669.92L1049.76,669.911L1049.6,669.904L1049.45,669.899L1049.29,669.895L1049.13,669.893L1048.97,669.892L1048.81,669.893L1048.64,669.895L1048.48,669.899L1048.31,669.905L1048.14,669.912L1047.96,669.921L1047.79,669.931L1047.61,669.944L1047.43,669.958L1047.25,669.973L1047.07,669.991L1046.88,670.01L1046.69,670.031L1046.5,670.054L980.631,678.204L980.364,678.233L980.115,678.261L979.87,678.291L979.628,678.323L979.389,678.355L979.154,678.389L978.922,678.424L978.693,678.461L978.467,678.499L978.244,678.538L978.025,678.578L977.809,678.62L977.596,678.662L977.385,678.707L977.179,678.752L976.974,678.799L976.773,678.846L976.575,678.895L976.38,678.945L976.188,678.997L975.998,679.049L975.811,679.103L975.627,679.158L975.446,679.214L975.268,679.272L975.092,679.33L974.919,679.39L974.748,679.45L974.58,679.512L974.415,679.575L974.252,679.639L974.091,679.704L973.933,679.77L973.777,679.837L973.624,679.906L973.473,679.975L973.324,680.046L973.177,680.117L973.033,680.19L972.89,680.264L972.75,680.338L972.612,680.414L972.476,680.491L972.341,680.569L972.209,680.648L972.078,680.728L971.95,680.809L971.823,680.891L971.698,680.974L971.575,681.058L971.453,681.144L971.333,681.23L971.214,681.318L971.097,681.406L970.982,681.496L970.868,681.587L970.755,681.679L970.644,681.772L970.534,681.866L970.426,681.961L970.318,682.058L970.212,682.155L970.107,682.254L970.003,682.354L969.9,682.455L969.799,682.558L969.698,682.661L969.599,682.766L969.5,682.872L969.402,682.979L969.305,683.088L969.209,683.198L969.114,683.309L969.02,683.421L968.926,683.535L968.834,683.65L968.741,683.766L968.65,683.884L968.559,684.002L968.469,684.123L968.379,684.244L968.29,684.367L968.202,684.492L968.114,684.617L968.026,684.744L967.94,684.873L967.853,685.003L967.767,685.134L967.681,685.266L967.596,685.4L967.511,685.535L967.426,685.672L967.342,685.81L967.257,685.949L967.173,686.09L967.09,686.232L967.006,686.376L966.923,686.521L966.84,686.667L966.756,686.815L966.673,686.964L966.591,687.113L966.424,687.419L966.258,687.729L966.092,688.045L965.925,688.366L965.758,688.692L965.589,689.024L965.42,689.361L965.249,689.702L965.077,690.049L964.726,690.76L964.367,691.488L954.97,710.538L954.972,710.615L954.976,710.767L954.981,710.918L954.987,711.066L954.994,711.214L955.002,711.36L955.011,711.505L955.022,711.647L955.033,711.789L955.046,711.93L955.059,712.068L955.074,712.205L955.089,712.341L955.106,712.475L955.124,712.608L955.142,712.739L955.162,712.869L955.183,712.997L955.205,713.124L955.228,713.249L955.251,713.373L955.276,713.495L955.302,713.616L955.329,713.735L955.356,713.853L955.385,713.969L955.415,714.084L955.445,714.197L955.477,714.309L955.509,714.42L955.543,714.529L955.577,714.637L955.612,714.742L955.649,714.847L955.686,714.95L955.724,715.052L955.763,715.152L955.802,715.252L955.843,715.349L955.885,715.445L955.927,715.54L955.97,715.633L956.014,715.725L956.059,715.817L956.105,715.906L956.152,715.994L956.2,716.081L956.248,716.167L956.298,716.251L956.348,716.334L956.399,716.415L956.451,716.496L956.504,716.576L956.558,716.654L956.612,716.73L956.667,716.806L956.724,716.881L956.781,716.954L956.84,717.027L956.899,717.098L956.959,717.168L957.02,717.237L957.082,717.305L957.145,717.372L957.209,717.438L957.274,717.503L957.34,717.567L957.407,717.629L957.474,717.691L957.543,717.752L957.614,717.812L957.685,717.871L957.757,717.928L957.831,717.985L957.905,718.042L957.981,718.096L958.057,718.15L958.135,718.203L958.214,718.255L958.294,718.306L958.376,718.356L958.458,718.406L958.543,718.454L958.628,718.501L958.714,718.548L958.802,718.593L958.891,718.637L958.981,718.681L959.073,718.723L959.166,718.765L959.26,718.805L959.356,718.845L959.453,718.883L959.551,718.92L959.651,718.957L959.752,718.992L959.855,719.026L959.958,719.06L960.063,719.092L960.17,719.123L960.278,719.153L960.388,719.182L960.499,719.21L960.611,719.237L960.725,719.263L960.84,719.287L960.956,719.311L961.074,719.333L961.194,719.354L961.315,719.374L961.437,719.393L961.561,719.411L961.687,719.427L961.813,719.443L961.941,719.457L962.071,719.47L962.202,719.482L962.334,719.492L962.469,719.501L962.604,719.51L962.74,719.516L962.879,719.522L963.019,719.526L963.16,719.53L963.302,719.532L963.346,719.532L1030.79,709.193L1031.06,709.153L1031.32,709.114L1031.58,709.078L1031.83,709.042L1032.32,708.975L1032.79,708.912L1033.24,708.849L1033.46,708.818L1033.67,708.786L1033.88,708.754L1034.09,708.721L1034.29,708.688L1034.48,708.653L1034.67,708.617L1034.86,708.579L1035.04,708.54L1035.22,708.498L1035.31,708.478L1035.39,708.456L1035.48,708.434L1035.56,708.411L1035.65,708.388L1035.73,708.363L1035.81,708.339L1035.89,708.314L1035.97,708.288L1036.05,708.261L1036.13,708.234L1036.21,708.206L1036.29,708.178L1036.37,708.148L1036.44,708.118L1036.52,708.087L1036.59,708.055L1036.66,708.023L1036.74,707.989L1036.81,707.955L1036.88,707.919L1036.96,707.883L1037.03,707.845L1037.1,707.807L1037.17,707.767L1037.24,707.727L1037.31,707.685L1037.38,707.642L1037.46,707.598L1037.53,707.552L1037.6,707.505L1037.67,707.457L1037.74,707.407L1037.81,707.357L1037.88,707.304L1037.95,707.25L1038.02,707.194L1038.09,707.137L1038.16,707.078L1038.23,707.017L1038.3,706.955L1038.37,706.891L1038.45,706.825L1038.52,706.756L1038.59,706.687L1038.66,706.615L1038.74,706.541L1038.81,706.464L1038.88,706.386L1038.96,706.306L1039.03,706.223L1039.11,706.138L1039.18,706.051L1039.26,705.961L1039.33,705.869L1039.41,705.774L1039.49,705.678L1039.56,705.579L1039.64,705.476L1039.72,705.372L1039.8,705.265L1039.88,705.155L1039.96,705.042L1040.04,704.927L1040.12,704.809L1040.2,704.689L1040.28,704.565L1040.36,704.439L1040.44,704.31L1040.53,704.178L1040.61,704.043L1040.7,703.904L1040.78,703.763L1040.87,703.62L1040.95,703.472L1041.04,703.322L1041.13,703.169L1041.21,703.013L1041.3,702.853L1041.39,702.69L1041.48,702.525L1041.57,702.355L1041.66,702.183L1041.75,702.007L1041.84,701.828L1041.94,701.646L1042.03,701.46L1042.12,701.269L1054.35,676.479L1054.41,676.356L1054.47,676.239L1054.52,676.122L1054.57,676.007L1054.62,675.894L1054.66,675.781L1054.71,675.669L1054.75,675.559L1054.79,675.451L1054.83,675.343L1054.86,675.237L1054.9,675.132L1054.93,675.029L1054.95,674.927L1054.98,674.826L1055.01,674.727L1055.03,674.63L1055.05,674.534L1055.07,674.439L1055.09,674.345L1055.1,674.254L1055.11,674.164L1055.12,674.074L1055.13,673.987L1055.14,673.902L1055.15,673.817L1055.15,673.734L1055.15,673.653L1055.16,673.573L1055.16,673.495L1055.15,673.417L1055.15,673.342L1055.14,673.268L1055.14,673.195L1055.13,673.124L1055.12,673.053L1055.11,672.984L1055.1,672.917L1055.09,672.851L1055.07,672.785L1055.06,672.72L1055.04,672.657L1055.02,672.595L1055,672.533L1054.98,672.473L1054.96,672.414L1054.93,672.354L1054.91,672.296L1054.88,672.239L1054.85,672.182L1054.82,672.126L1054.79,672.07L1054.76,672.015L1054.73,671.961L1054.69,671.906L1054.66,671.852L1054.62,671.798L1054.58,671.746L1054.54,671.693L1054.49,671.64L1054.45,671.589L1054.4,671.537L1054.35,671.486L1054.3,671.435L1054.25,671.384L1054.19,671.334L1054.14,671.284L1054.08,671.235L1054.02,671.186L1053.96,671.137L1053.89,671.09L1053.82,671.042L1053.76,670.995L1053.68,670.948L1053.61,670.903L1053.53,670.857L1053.46,670.813Z" style="fill:rgb(80,190,255);"/>
    </g>
    <g id="Lan-Buchsen">
        <g id="Lan-Buchse">
            <g transform="matrix(1,0,0,1.00362,-3.63911,-6.79775)">
                <path d="M335.073,829.381L422.368,765.046L452.229,775.556L455.903,795.936L422.368,862.204L335.073,829.381Z" style="fill:rgb(128,128,128);stroke-width:0.65px;stroke:black;"/>
            </g>
            <path d="M316.291,701.056L316.291,827.929L455.86,877.136L458.602,749.347L316.291,701.056Z" style="fill:rgb(217,217,217);stroke-width:3px;stroke-linejoin:round;stroke:black;"/>
            <path d="M442.267,837.456L442.267,819.403L447.402,820.869L447.402,801.294L416.672,827.542L442.267,837.456Z" style="fill:rgb(128,128,128);stroke-width:0.65px;stroke:black;"/>
            <path d="M327.768,778.798L333.335,780.763L376.472,746.532L371.018,744.119L327.768,778.798Z" style="fill:rgb(128,128,128);stroke-width:0.65px;stroke:black;"/>
            <path d="M367.616,826.728L379.988,817.923L379.988,826.728L367.616,835.722L367.616,826.728Z" style="fill:rgb(89,89,89);stroke-width:0.65px;stroke:black;"/>
            <g transform="matrix(1,0,0,1.00362,-9.57108,-16.4892)">
                <path d="M367.378,819.278L425.518,773.906L429.874,775.367L378.522,815.172L378.522,827.876L367.378,835.746L367.378,819.278Z" style="fill:rgb(89,89,89);stroke-width:0.65px;stroke:black;"/>
            </g>
            <g id="(Kurve)" transform="matrix(1,0,0,1.00362,-33.973,-41.5059)">
                <path d="M367.378,819.278L410.525,785.333L425.666,790.456L367.378,835.746L367.378,819.278Z" style="fill:rgb(89,89,89);stroke-width:0.65px;stroke:black;"/>
            </g>
            <g transform="matrix(1,0,0,1.00362,-9.52382,-33.1298)">
                <path d="M342.219,827.876L400.956,782.21L425.511,790.502L367.378,835.746L342.219,827.876Z" style="fill:rgb(128,128,128);stroke-width:0.65px;stroke:black;"/>
            </g>
            <g transform="matrix(1,0,0,1.00362,-39.247,-60.5626)">
                <path d="M367.378,810.016L389.83,795.496L409.747,802.134L367.378,835.746L367.378,810.016Z" style="fill:rgb(89,89,89);stroke-width:0.65px;stroke:black;"/>
            </g>
            <path d="M357.417,822.601L367.928,826.458L379.962,817.96L368.774,814.457L357.417,822.601Z" style="fill:rgb(128,128,128);stroke-width:0.65px;stroke:black;"/>
            <g transform="matrix(1,0,0,1,1.12882,-28.0431)">
                <path d="M332.165,759.891L331.966,781.257L352.138,766.689L332.165,759.891Z" style="fill:rgb(77,77,77);stroke-width:0.65px;stroke:black;"/>
            </g>
            <path d="M326.996,779.236L332.247,781.082L332.247,798.855L356.671,806.379L356.671,822.774L367.144,826.608L367.144,835.542L406.428,849.084L406.428,839.059L416.839,842.728L416.839,827.84L442.461,837.4L442.461,819.403L447.63,821.026L447.63,791.815L442.461,790.207L442.461,768.055L332.247,730.174L332.247,752.379L326.996,750.056L326.996,779.236Z" style="fill:none;stroke-width:3px;stroke-linejoin:round;stroke:black;"/>
            <path d="M369.078,835.763L398.943,813.562L423.06,821.84L446.325,801.98L416.656,827.239" style="fill:none;stroke-width:2px;stroke:black;"/>
        </g>
        <g id="Lan-Buchse1" transform="matrix(1,0,0,1.01046,140.35,40.3916)">
            <g transform="matrix(1,0,0,1.00362,-3.63911,-6.79775)">
                <path d="M335.073,829.381L422.368,765.046L452.229,775.556L455.903,795.936L422.368,862.204L335.073,829.381Z" style="fill:rgb(128,128,128);stroke-width:0.65px;stroke:black;"/>
            </g>
            <path d="M316.291,701.056L316.291,827.929L455.86,877.136L458.602,749.347L316.291,701.056Z" style="fill:rgb(217,217,217);stroke-width:2.98px;stroke-linejoin:round;stroke:black;"/>
            <path d="M442.267,837.456L442.267,819.403L447.402,820.869L447.402,801.294L416.672,827.542L442.267,837.456Z" style="fill:rgb(128,128,128);stroke-width:0.65px;stroke:black;"/>
            <path d="M327.768,778.798L333.335,780.763L376.472,746.532L371.018,744.119L327.768,778.798Z" style="fill:rgb(128,128,128);stroke-width:0.65px;stroke:black;"/>
            <path d="M367.616,826.728L379.988,817.923L379.988,826.728L367.616,835.722L367.616,826.728Z" style="fill:rgb(89,89,89);stroke-width:0.65px;stroke:black;"/>
            <g transform="matrix(1,0,0,1.00362,-9.57108,-16.4892)">
                <path d="M367.378,819.278L425.518,773.906L429.874,775.367L378.522,815.172L378.522,827.876L367.378,835.746L367.378,819.278Z" style="fill:rgb(89,89,89);stroke-width:0.65px;stroke:black;"/>
            </g>
            <g id="(Kurve)1" transform="matrix(1,0,0,1.00362,-33.973,-41.5059)">
                <path d="M367.378,819.278L410.525,785.333L425.666,790.456L367.378,835.746L367.378,819.278Z" style="fill:rgb(89,89,89);stroke-width:0.65px;stroke:black;"/>
            </g>
            <g transform="matrix(1,0,0,1.00362,-9.52382,-33.1298)">
                <path d="M342.219,827.876L400.956,782.21L425.511,790.502L367.378,835.746L342.219,827.876Z" style="fill:rgb(128,128,128);stroke-width:0.65px;stroke:black;"/>
            </g>
            <g transform="matrix(1,0,0,1.00362,-39.247,-60.5626)">
                <path d="M367.378,810.016L389.83,795.496L409.747,802.134L367.378,835.746L367.378,810.016Z" style="fill:rgb(89,89,89);stroke-width:0.65px;stroke:black;"/>
            </g>
            <path d="M357.417,822.601L367.928,826.458L379.962,817.96L368.774,814.457L357.417,822.601Z" style="fill:rgb(128,128,128);stroke-width:0.65px;stroke:black;"/>
            <g transform="matrix(1,0,0,1,1.12882,-28.0431)">
                <path d="M332.165,759.891L331.966,781.257L352.138,766.689L332.165,759.891Z" style="fill:rgb(77,77,77);stroke-width:0.65px;stroke:black;"/>
            </g>
            <path d="M326.996,779.236L332.247,781.082L332.247,798.855L356.671,806.379L356.671,822.774L367.144,826.608L367.144,835.542L406.428,849.084L406.428,839.059L416.839,842.728L416.839,827.84L442.461,837.4L442.461,819.403L447.63,821.026L447.63,791.815L442.461,790.207L442.461,768.055L332.247,730.174L332.247,752.379L326.996,750.056L326.996,779.236Z" style="fill:none;stroke-width:2.98px;stroke-linejoin:round;stroke:black;"/>
            <path d="M369.078,835.763L398.943,813.562L423.06,821.84L446.325,801.98L416.656,827.239" style="fill:none;stroke-width:1.99px;stroke:black;"/>
        </g>
    </g>
    <g id="Reset" transform="matrix(1,0,0,1,-16.5865,49.7863)">
        <g transform="matrix(0.882217,0.850242,-0.611873,0.634884,532.725,21.4796)">
            <ellipse cx="256.696" cy="793.094" rx="13.657" ry="14.286" style="fill:rgb(140,140,140);"/>
        </g>
        <g transform="matrix(0.780488,0.752199,-0.538261,0.558504,501.633,106.253)">
            <ellipse cx="256.696" cy="793.094" rx="13.657" ry="14.286" style="fill:rgb(115,115,115);"/>
        </g>
    </g>
    <g id="USB-Port">
        <g id="Usb Rahmen" transform="matrix(1,0,0,1,80.2132,19.2635)">
            <g transform="matrix(1,0,0,1,-79.6552,-19.4635)">
                <path d="M199.248,653.671L141.024,633.213L141.024,767.88L199.248,789.36L199.248,653.671Z" style="fill:none;stroke-width:2.5px;stroke-linejoin:round;stroke:black;"/>
            </g>
            <g transform="matrix(0.925029,0,0,0.963455,-67.0855,6.38435)">
                <path d="M200.524,652.549L140.208,632.162L140.208,769.288L200.524,790.666L200.524,652.549Z" style="fill:rgb(115,115,115);"/>
            </g>
            <g transform="matrix(0.925029,0,0,0.963455,-67.3436,6.78408)">
                <path d="M200.812,652.119L200.812,789.267L199.778,789.959L142.858,769.821L142.858,633.514L143.847,632.842L200.812,652.119ZM145.561,768.012L198.109,786.603L198.109,653.956L145.561,636.174L145.561,768.012Z" style="fill:rgb(77,77,77);"/>
            </g>
        </g>
        <g id="backkontakte" transform="matrix(1,0,0,1,80.2132,19.2635)">
            <g transform="matrix(1,0,0,1,-81.2424,-16.9182)">
                <path d="M152.433,638.341L168.975,644.166L168.975,748.621L185.575,752.451L196.845,748.621L196.845,777.966L152.433,762.128L152.433,638.341Z" style="fill:black;stroke-width:0.65px;stroke-linecap:square;stroke:black;"/>
            </g>
            <g transform="matrix(1,0,0,1,-80.8497,-18.1899)">
                <path d="M162.427,643.005L162.427,656.335L169.234,655.396L169.234,670.354L162.427,671.49L162.427,681.127L169.234,679.52L169.234,706.01L162.427,708.032L162.427,714.987L169.234,712.81L169.234,729.55L162.427,731.983L162.427,740.401L151.766,746.384L151.766,639.224L162.427,643.005Z" style="fill:rgb(77,77,77);stroke-width:0.1px;stroke-linecap:square;stroke:black;"/>
            </g>
            <path d="M77.304,724.628L81.577,722.211L81.53,713.758L81.53,689.804L88.417,687.81L88.417,661.385L81.53,662.983L81.577,624.823L77.304,623.303L77.304,724.628Z" style="fill:rgb(51,51,51);"/>
        </g>
        <g id="Stift" transform="matrix(1,0,0,1,0.0924444,1.29931)">
            <g transform="matrix(1,0,0,1,-0.174394,-0.490022)">
                <path d="M168.177,750.271L185.779,756.014L185.779,651.234L168.177,645.077L168.177,750.271Z" style="fill:rgb(217,217,217);stroke-width:0.65px;stroke-linecap:square;stroke:rgb(77,77,77);"/>
            </g>
            <path d="M185.951,650.849L185.951,755.482L197.413,749.491L197.413,654.948L185.951,650.849Z" style="fill:rgb(140,140,140);stroke-width:0.65px;stroke-linecap:square;stroke:rgb(77,77,77);"/>
        </g>
        <g id="kontakte" transform="matrix(1,0,0,1,-0.744391,0.242501)">
            <path d="M197.603,656.579L191.808,658.816L191.808,669.789L197.603,667.603L197.603,656.579Z" style="fill:rgb(255,215,36);stroke-width:0.65px;stroke-linecap:square;stroke:rgb(223,188,12);"/>
            <g transform="matrix(1,0,0,1,0.152566,23.4441)">
                <path d="M197.603,656.579L191.808,658.816L191.808,669.789L197.603,667.603L197.603,656.579Z" style="fill:rgb(255,215,36);stroke-width:0.65px;stroke-linecap:square;stroke:rgb(223,188,12);"/>
            </g>
            <g transform="matrix(1,0,0,1,0.152566,43.7028)">
                <path d="M197.603,656.579L191.808,658.816L191.808,669.789L197.603,667.603L197.603,656.579Z" style="fill:rgb(255,215,36);stroke-width:0.65px;stroke-linecap:square;stroke:rgb(223,188,12);"/>
            </g>
            <g transform="matrix(1,0,0,1,0.152566,68.3757)">
                <path d="M197.603,656.579L191.808,658.816L191.808,669.789L197.603,667.603L197.603,656.579Z" style="fill:rgb(255,215,36);stroke-width:0.65px;stroke-linecap:square;stroke:rgb(223,188,12);"/>
            </g>
        </g>
    </g>
    <g id="Stecker">
        <g id="Stecker1">
            <g id="Stecker2" transform="matrix(1,0,0,1,-0.957794,0.832992)">
                <path d="M298.036,228.944L233.207,210.95C219.109,217.732 216.913,230.092 220.171,242.849L290.393,262.167L298.036,228.944Z" style="fill:rgb(242,242,242);stroke-width:2px;stroke:black;"/>
                <path d="M240.087,210.754L183.717,195.884C168.448,200.257 163.094,222.712 170.787,232.043L225.849,246.404C220.812,231.671 225.963,219.182 237.512,212.149C238.338,211.646 239.197,211.18 240.087,210.754Z" style="fill:rgb(51,51,51);stroke-width:2px;stroke:black;"/>
            </g>
            <g id="Stecker3" transform="matrix(1,0,0,1,-7.50892,155.843)">
                <path d="M298.036,228.944L233.207,210.95C219.109,217.732 216.913,230.092 220.171,242.849L290.393,262.167L298.036,228.944Z" style="fill:rgb(242,242,242);stroke-width:2px;stroke:black;"/>
                <path d="M240.087,210.754L183.717,195.884C168.448,200.257 163.094,222.712 170.787,232.043L225.849,246.404C220.812,231.671 225.963,219.182 237.512,212.149C238.338,211.646 239.197,211.18 240.087,210.754Z" style="fill:rgb(51,51,51);stroke-width:2px;stroke:black;"/>
            </g>
        </g>
        <path id="fllung" d="M269.346,399.878L269.346,256.753L276.334,235.281L304.678,185.785L307.562,179.006L313.801,176.409L318.556,177.273L469.378,217.473L490.233,224.786L495.231,227.125L559.287,192.556C566.788,188.561 574.34,187.731 581.966,191.527L695.729,235.281L754.428,253.573L435.146,313.14C413.816,314.746 392.503,324.05 371.198,337.023L269.346,399.878" style="fill:rgb(230,230,230);"/>
        <g>
            <path d="M572.493,187.121L572.659,187.124L572.822,187.129L572.983,187.135L573.143,187.143L573.3,187.153L573.456,187.164L573.61,187.176L573.762,187.19L573.912,187.206L574.061,187.222L574.207,187.24L574.352,187.26L574.495,187.28L574.637,187.302L574.776,187.325L574.914,187.349L575.051,187.374L575.185,187.401L575.318,187.428L575.45,187.456L575.58,187.485L575.708,187.515L575.835,187.546L575.96,187.578L576.083,187.61L576.206,187.643L576.326,187.677L576.445,187.711L576.563,187.746L576.679,187.781L576.796,187.817L577.019,187.889L577.239,187.963L577.454,188.038L577.663,188.113L577.868,188.188L578.068,188.263L578.264,188.338L578.455,188.411L695.068,233.316L759.001,252.74L758.886,254.791L418.319,317.931L418.103,317.951L417.959,317.966L417.813,317.982L417.664,318L417.513,318.019L417.359,318.04L417.204,318.062L417.046,318.086L416.885,318.111L416.723,318.137L416.559,318.165L416.392,318.195L416.224,318.226L416.054,318.258L415.881,318.292L415.708,318.327L415.532,318.363L415.354,318.401L415.176,318.44L414.995,318.48L414.813,318.521L414.629,318.564L414.444,318.608L414.257,318.653L414.069,318.699L413.88,318.747L413.689,318.796L413.497,318.845L413.304,318.896L413.11,318.948L412.915,319.002L412.719,319.055L412.322,319.167L411.922,319.282L411.519,319.402L411.113,319.524L410.704,319.651L410.292,319.781L409.878,319.914L409.463,320.049L409.046,320.188L408.627,320.33L408.208,320.474L407.788,320.621L407.368,320.77L406.948,320.92L406.528,321.073L406.109,321.228L405.691,321.384L405.274,321.542L404.859,321.701L404.446,321.861L404.035,322.023L403.626,322.185L403.221,322.347L402.818,322.51L402.419,322.674L402.023,322.838L401.632,323.002L401.245,323.165L400.863,323.329L400.485,323.492L400.113,323.654L399.747,323.816L399.386,323.976L399.032,324.136L398.684,324.294L398.343,324.451L398.01,324.606L397.684,324.76L397.365,324.912L397.055,325.061L396.753,325.208L396.461,325.353L396.177,325.495L395.903,325.635L395.638,325.771L395.384,325.904L395.141,326.034L394.897,326.165L369.477,339.649L368.814,339.297L368.611,337.407L368.575,337.048L368.543,336.689L368.513,336.331L368.486,335.972L368.463,335.614L368.442,335.256L368.424,334.899L368.409,334.542L368.398,334.184L368.389,333.828L368.383,333.471L368.38,333.114L368.38,332.758L368.383,332.402L368.388,332.047L368.397,331.691L368.409,331.336L368.423,330.981L368.441,330.626L368.461,330.272L368.484,329.918L368.511,329.564L368.54,329.21L368.571,328.857L368.606,328.504L368.644,328.151L368.684,327.798L368.728,327.446L368.774,327.094L368.823,326.742L368.875,326.39L368.93,326.039L368.987,325.688L369.048,325.338L369.111,324.987L369.177,324.637L369.245,324.287L369.317,323.938L369.391,323.588L369.468,323.24L369.548,322.891L369.631,322.542L369.717,322.194L369.805,321.846L369.896,321.499L369.989,321.152L370.086,320.805L370.185,320.458L370.287,320.112L370.391,319.766L370.499,319.42L370.609,319.075L370.721,318.729L370.837,318.385L370.955,318.04L371.075,317.696L371.199,317.352L371.325,317.008L371.453,316.665L371.585,316.322L371.719,315.979L371.855,315.637L371.995,315.295L372.136,314.953L372.281,314.611L372.428,314.27L372.578,313.929L372.73,313.588L372.885,313.248L373.042,312.908L373.202,312.568L373.365,312.229L373.53,311.89L373.698,311.551L373.868,311.212L374.041,310.874L374.216,310.536L374.394,310.198L374.574,309.861L374.757,309.524L374.943,309.187L375.131,308.851L375.321,308.515L375.514,308.179L375.709,307.843L375.907,307.508L376.108,307.173L376.31,306.838L376.516,306.504L376.723,306.169L376.934,305.836L377.146,305.502L377.361,305.169L377.579,304.836L377.799,304.503L378.021,304.17L378.246,303.838L378.473,303.506L378.703,303.175L378.935,302.843L379.169,302.512L379.406,302.181L379.645,301.851L379.886,301.521L380.13,301.191L380.376,300.861L380.625,300.531L380.876,300.202L381.129,299.873L381.385,299.545L381.643,299.216L381.903,298.888L382.166,298.56L382.431,298.233L382.698,297.905L382.967,297.578L383.239,297.251L383.513,296.925L383.79,296.598L384.068,296.272L384.35,295.947L384.633,295.621L384.918,295.296L385.206,294.971L385.496,294.646L385.789,294.321L386.083,293.997L386.38,293.673L386.679,293.349L386.98,293.025L387.284,292.702L387.589,292.379L387.897,292.056L388.207,291.733L388.52,291.411L388.834,291.089L389.151,290.767L389.47,290.445L389.791,290.124L390.114,289.803L390.44,289.482L390.768,289.161L391.097,288.84L391.429,288.52L391.763,288.2L392.1,287.88L392.438,287.56L392.779,287.241L393.121,286.922L393.466,286.603L393.813,286.284L394.162,285.965L394.513,285.647L394.867,285.329L395.222,285.011L395.579,284.694L395.939,284.376L396.301,284.059L396.664,283.742L397.03,283.425L397.398,283.108L397.768,282.792L398.14,282.476L398.514,282.16L398.89,281.844L399.268,281.529L399.649,281.213L400.031,280.898L400.415,280.583L400.801,280.268L401.19,279.954L401.58,279.64L401.972,279.325L402.367,279.011L402.763,278.698L403.162,278.384L403.562,278.071L403.964,277.758L404.369,277.445L404.775,277.132L405.183,276.819L405.594,276.507L406.006,276.195L406.42,275.883L406.836,275.571L407.254,275.259L407.674,274.948L408.096,274.637L408.52,274.326L408.946,274.015L409.374,273.704L409.803,273.394L410.235,273.084L410.668,272.773L411.104,272.463L411.541,272.154L411.98,271.844L412.421,271.535L412.864,271.226L413.309,270.917L413.756,270.608L414.205,270.299L414.655,269.991L415.107,269.682L415.562,269.374L416.018,269.066L416.475,268.758L416.935,268.451L417.397,268.143L417.86,267.836L418.325,267.529L418.792,267.222L419.261,266.915L419.732,266.609L420.204,266.302L420.679,265.996L421.155,265.69L421.632,265.384L422.112,265.078L422.594,264.773L423.077,264.467L423.562,264.162L424.048,263.857L424.537,263.552L425.027,263.247L425.519,262.943L426.013,262.638L426.508,262.334L427.006,262.03L427.505,261.726L428.005,261.422L428.508,261.119L429.012,260.815L429.518,260.512L430.025,260.209L430.534,259.906L431.045,259.603L431.558,259.3L432.072,258.998L432.588,258.695L433.106,258.393L433.625,258.091L434.146,257.789L434.669,257.487L435.193,257.186L435.719,256.884L436.247,256.583L436.776,256.282L437.307,255.981L437.84,255.68L438.374,255.379L438.91,255.078L439.447,254.778L439.987,254.478L440.534,254.174L549.781,195.13L550.212,194.898L550.638,194.67L551.061,194.446L551.478,194.226L551.891,194.01L552.299,193.798L552.703,193.591L553.102,193.387L553.496,193.187L553.887,192.992L554.272,192.8L554.654,192.612L555.031,192.428L555.403,192.247L555.772,192.071L556.136,191.898L556.496,191.729L556.852,191.563L557.203,191.401L557.551,191.243L557.894,191.089L558.234,190.937L558.569,190.79L558.901,190.646L559.229,190.505L559.552,190.368L559.872,190.234L560.189,190.103L560.501,189.976L560.81,189.852L561.115,189.731L561.416,189.613L561.714,189.499L562.008,189.388L562.299,189.279L562.586,189.174L562.87,189.072L563.15,188.973L563.427,188.877L563.701,188.784L563.971,188.694L564.238,188.606L564.502,188.522L564.763,188.44L565.02,188.361L565.275,188.285L565.526,188.212L565.774,188.141L566.02,188.073L566.262,188.007L566.501,187.945L566.738,187.884L566.972,187.827L567.202,187.771L567.43,187.719L567.656,187.668L567.878,187.62L568.098,187.575L568.316,187.532L568.53,187.491L568.742,187.453L568.952,187.416L569.159,187.382L569.364,187.351L569.566,187.321L569.766,187.294L569.963,187.268L570.158,187.245L570.351,187.224L570.541,187.205L570.729,187.188L570.915,187.173L571.099,187.16L571.281,187.148L571.46,187.139L571.638,187.132L571.813,187.126L571.986,187.122L572.157,187.12L572.326,187.12L572.493,187.121ZM572.178,190.12L572.037,190.122L571.894,190.125L571.748,190.13L571.601,190.136L571.451,190.144L571.298,190.153L571.144,190.164L570.986,190.177L570.826,190.191L570.664,190.208L570.499,190.226L570.331,190.246L570.16,190.268L569.987,190.291L569.811,190.317L569.632,190.345L569.45,190.375L569.266,190.407L569.078,190.441L568.888,190.477L568.694,190.515L568.498,190.556L568.298,190.599L568.095,190.644L567.889,190.692L567.68,190.742L567.468,190.794L567.253,190.849L567.034,190.906L566.812,190.966L566.586,191.029L566.358,191.094L566.125,191.162L565.89,191.232L565.651,191.306L565.408,191.382L565.162,191.461L564.912,191.542L564.659,191.627L564.402,191.714L564.142,191.805L563.877,191.898L563.609,191.994L563.338,192.094L563.062,192.196L562.783,192.302L562.499,192.411L562.212,192.523L561.921,192.638L561.626,192.757L561.327,192.879L561.024,193.004L560.717,193.132L560.406,193.264L560.091,193.4L559.771,193.538L559.448,193.681L559.12,193.827L558.788,193.976L558.452,194.129L558.111,194.286L557.766,194.446L557.417,194.611L557.063,194.778L556.705,194.95L556.342,195.126L555.975,195.305L555.604,195.488L555.227,195.675L554.847,195.866L554.461,196.062L554.071,196.261L553.676,196.464L553.276,196.671L552.872,196.882L552.463,197.098L552.049,197.318L551.63,197.542L551.205,197.77L441.975,256.805L441.444,257.1L440.909,257.398L440.376,257.696L439.844,257.994L439.314,258.293L438.785,258.591L438.258,258.89L437.733,259.189L437.209,259.488L436.687,259.787L436.167,260.086L435.649,260.386L435.132,260.685L434.616,260.985L434.103,261.285L433.591,261.585L433.081,261.885L432.573,262.185L432.066,262.485L431.561,262.785L431.058,263.086L430.557,263.387L430.057,263.687L429.559,263.988L429.063,264.289L428.569,264.591L428.076,264.892L427.585,265.193L427.096,265.495L426.609,265.797L426.123,266.098L425.639,266.4L425.157,266.703L424.677,267.005L424.199,267.307L423.722,267.61L423.247,267.912L422.775,268.215L422.303,268.518L421.834,268.821L421.367,269.124L420.901,269.427L420.437,269.731L419.976,270.034L419.515,270.338L419.057,270.642L418.601,270.946L418.146,271.25L417.694,271.554L417.243,271.858L416.794,272.163L416.347,272.468L415.902,272.772L415.459,273.077L415.018,273.382L414.579,273.687L414.141,273.993L413.706,274.298L413.272,274.604L412.841,274.91L412.411,275.215L411.983,275.521L411.558,275.828L411.134,276.134L410.712,276.44L410.292,276.747L409.874,277.053L409.458,277.36L409.044,277.667L408.632,277.974L408.222,278.281L407.814,278.589L407.408,278.896L407.004,279.204L406.602,279.512L406.202,279.82L405.804,280.128L405.408,280.436L405.014,280.744L404.622,281.053L404.232,281.361L403.844,281.67L403.458,281.979L403.075,282.288L402.693,282.597L402.313,282.906L401.936,283.216L401.56,283.525L401.187,283.835L400.816,284.145L400.446,284.455L400.079,284.765L399.714,285.075L399.351,285.385L398.991,285.696L398.632,286.006L398.275,286.317L397.921,286.628L397.569,286.939L397.218,287.25L396.87,287.562L396.524,287.873L396.181,288.185L395.839,288.497L395.5,288.808L395.162,289.12L394.827,289.433L394.494,289.745L394.163,290.057L393.835,290.37L393.509,290.682L393.184,290.995L392.862,291.308L392.543,291.621L392.225,291.935L391.91,292.248L391.596,292.561L391.286,292.875L390.977,293.189L390.67,293.503L390.366,293.817L390.064,294.131L389.764,294.445L389.467,294.76L389.172,295.074L388.879,295.389L388.588,295.704L388.3,296.018L388.014,296.334L387.73,296.649L387.448,296.964L387.169,297.28L386.892,297.595L386.617,297.911L386.345,298.227L386.075,298.543L385.807,298.859L385.541,299.175L385.278,299.491L385.017,299.808L384.759,300.124L384.503,300.441L384.249,300.758L383.998,301.075L383.748,301.392L383.502,301.709L383.257,302.027L383.015,302.344L382.776,302.662L382.538,302.98L382.304,303.297L382.071,303.615L381.841,303.934L381.613,304.252L381.388,304.57L381.165,304.889L380.944,305.207L380.726,305.526L380.51,305.845L380.297,306.164L380.086,306.483L379.878,306.802L379.672,307.121L379.468,307.441L379.267,307.76L379.068,308.08L378.872,308.4L378.678,308.72L378.486,309.04L378.297,309.36L378.111,309.68L377.927,310.001L377.745,310.322L377.566,310.642L377.39,310.963L377.216,311.284L377.044,311.605L376.875,311.926L376.708,312.247L376.544,312.569L376.382,312.89L376.223,313.212L376.066,313.534L375.912,313.855L375.76,314.177L375.611,314.5L375.465,314.822L375.321,315.144L375.179,315.467L375.04,315.789L374.903,316.112L374.769,316.435L374.638,316.758L374.509,317.081L374.383,317.404L374.259,317.728L374.138,318.051L374.019,318.375L373.903,318.699L373.789,319.023L373.678,319.347L373.57,319.671L373.464,319.995L373.361,320.32L373.26,320.644L373.162,320.969L373.066,321.294L372.973,321.619L372.883,321.944L372.795,322.269L372.71,322.595L372.627,322.92L372.547,323.246L372.47,323.572L372.395,323.898L372.323,324.224L372.254,324.551L372.187,324.877L372.123,325.204L372.061,325.531L372.002,325.858L371.946,326.185L371.892,326.513L371.841,326.84L371.793,327.168L371.747,327.496L371.704,327.824L371.663,328.153L371.626,328.481L371.591,328.81L371.558,329.139L371.529,329.468L371.501,329.797L371.477,330.127L371.455,330.456L371.437,330.786L371.42,331.116L371.407,331.447L371.396,331.777L371.388,332.108L371.382,332.439L371.38,332.77L371.38,333.102L371.383,333.433L371.388,333.765L371.396,334.097L371.407,334.43L371.421,334.762L371.438,335.095L371.444,335.21L393.48,323.521L393.721,323.391L393.983,323.251L394.255,323.109L394.536,322.964L394.826,322.817L395.124,322.667L395.431,322.516L395.746,322.362L396.069,322.206L396.4,322.049L396.738,321.889L397.083,321.729L397.436,321.567L397.794,321.403L398.16,321.239L398.531,321.073L398.908,320.907L399.291,320.74L399.678,320.572L400.071,320.405L400.468,320.236L400.87,320.068L401.276,319.9L401.686,319.732L402.099,319.565L402.515,319.398L402.934,319.232L403.356,319.066L403.78,318.902L404.207,318.738L404.635,318.576L405.065,318.416L405.496,318.257L405.927,318.099L406.36,317.944L406.793,317.791L407.226,317.639L407.659,317.491L408.091,317.344L408.523,317.201L408.953,317.06L409.382,316.922L409.81,316.787L410.236,316.655L410.66,316.527L411.081,316.403L411.5,316.282L411.915,316.165L412.123,316.108L412.328,316.052L412.534,315.997L412.738,315.943L412.941,315.89L413.143,315.839L413.345,315.788L413.545,315.739L413.744,315.691L413.943,315.643L414.14,315.598L414.336,315.553L414.531,315.51L414.724,315.467L414.917,315.427L415.108,315.387L415.298,315.349L415.487,315.312L415.674,315.277L415.86,315.242L416.045,315.21L416.228,315.178L416.41,315.149L416.591,315.12L416.77,315.093L416.948,315.068L417.124,315.044L417.298,315.022L417.472,315.002L417.643,314.983L417.814,314.965L417.907,314.957L750.503,253.294L694.091,236.155L577.379,191.211L577.193,191.14L577.009,191.07L576.825,191.001L576.64,190.933L576.455,190.867L576.269,190.802L576.082,190.739L575.89,190.677L575.797,190.649L575.702,190.619L575.605,190.591L575.508,190.563L575.411,190.536L575.312,190.509L575.213,190.483L575.113,190.458L575.012,190.433L574.91,190.41L574.807,190.386L574.703,190.364L574.598,190.343L574.491,190.322L574.384,190.302L574.275,190.283L574.165,190.265L574.053,190.248L573.94,190.231L573.826,190.216L573.709,190.202L573.592,190.189L573.473,190.176L573.352,190.165L573.229,190.155L573.104,190.147L572.978,190.139L572.85,190.133L572.719,190.127L572.587,190.124L572.453,190.121L572.316,190.12L572.178,190.12Z" style="fill:black;"/>
            <path d="M468.68,216.247L468.842,216.25L469.004,216.256L469.167,216.263L469.331,216.273L469.495,216.286L469.661,216.3L469.827,216.317L469.993,216.336L470.161,216.358L470.329,216.381L470.498,216.407L470.668,216.435L470.839,216.465L471.01,216.497L471.182,216.532L471.355,216.568L471.529,216.607L471.704,216.648L471.879,216.691L472.055,216.736L472.232,216.783L472.409,216.833L472.588,216.884L472.767,216.938L472.948,216.993L473.129,217.051L473.31,217.111L473.493,217.173L473.677,217.236L473.861,217.302L474.046,217.371L474.232,217.44L496.427,225.988L496.512,227.338L459.638,247.162L458.814,246.669L458.814,226.656L458.877,226.325L458.916,226.127L458.955,225.932L458.997,225.738L459.039,225.546L459.082,225.356L459.127,225.167L459.173,224.981L459.22,224.796L459.269,224.613L459.319,224.431L459.37,224.251L459.422,224.073L459.475,223.897L459.53,223.723L459.586,223.55L459.644,223.379L459.702,223.21L459.762,223.042L459.824,222.877L459.887,222.713L459.951,222.55L460.016,222.39L460.083,222.231L460.151,222.074L460.221,221.919L460.292,221.766L460.364,221.614L460.438,221.464L460.513,221.316L460.59,221.17L460.668,221.025L460.748,220.882L460.829,220.742L460.912,220.602L460.996,220.465L461.081,220.33L461.169,220.196L461.258,220.065L461.348,219.935L461.44,219.807L461.533,219.681L461.628,219.557L461.725,219.435L461.823,219.315L461.923,219.197L462.024,219.081L462.127,218.967L462.232,218.855L462.338,218.745L462.446,218.637L462.555,218.531L462.666,218.428L462.778,218.326L462.892,218.227L463.008,218.13L463.126,218.035L463.244,217.943L463.364,217.853L463.486,217.765L463.61,217.68L463.734,217.596L463.861,217.516L463.988,217.437L464.117,217.362L464.248,217.288L464.38,217.217L464.513,217.149L464.647,217.083L464.783,217.019L464.92,216.958L465.058,216.899L465.198,216.843L465.338,216.79L465.48,216.739L465.623,216.691L465.767,216.645L465.912,216.602L466.058,216.561L466.205,216.523L466.353,216.487L466.502,216.454L466.652,216.423L466.803,216.395L466.955,216.369L467.108,216.346L467.261,216.325L467.416,216.307L467.571,216.291L467.727,216.277L467.884,216.266L468.041,216.258L468.2,216.251L468.359,216.248L468.519,216.246L468.68,216.247ZM468.41,219.247L468.295,219.25L468.182,219.254L468.071,219.261L467.961,219.268L467.852,219.278L467.745,219.289L467.639,219.301L467.534,219.315L467.431,219.331L467.329,219.348L467.229,219.367L467.129,219.387L467.031,219.409L466.934,219.433L466.839,219.457L466.745,219.484L466.651,219.512L466.559,219.541L466.468,219.572L466.379,219.604L466.29,219.638L466.202,219.673L466.115,219.71L466.029,219.748L465.944,219.788L465.86,219.829L465.777,219.872L465.695,219.916L465.614,219.962L465.533,220.009L465.453,220.058L465.374,220.109L465.296,220.161L465.218,220.215L465.141,220.27L465.065,220.327L464.989,220.386L464.914,220.447L464.84,220.509L464.767,220.573L464.694,220.639L464.621,220.706L464.549,220.776L464.478,220.847L464.407,220.92L464.337,220.995L464.268,221.073L464.199,221.151L464.13,221.232L464.063,221.315L463.995,221.4L463.929,221.487L463.863,221.576L463.797,221.667L463.733,221.76L463.668,221.855L463.605,221.952L463.542,222.052L463.48,222.153L463.418,222.257L463.357,222.363L463.297,222.47L463.238,222.58L463.179,222.693L463.121,222.807L463.063,222.923L463.007,223.042L462.951,223.163L462.896,223.286L462.841,223.411L462.788,223.538L462.735,223.668L462.683,223.8L462.632,223.933L462.581,224.069L462.532,224.208L462.483,224.348L462.435,224.491L462.388,224.636L462.342,224.783L462.296,224.932L462.252,225.083L462.208,225.237L462.166,225.393L462.124,225.551L462.083,225.711L462.043,225.873L462.004,226.037L461.966,226.204L461.929,226.373L461.893,226.543L461.857,226.716L461.823,226.891L461.814,226.936L461.814,242.585L490.765,227.022L473.164,220.244L473,220.182L472.838,220.123L472.678,220.065L472.518,220.01L472.361,219.956L472.204,219.905L472.049,219.856L471.896,219.808L471.744,219.763L471.593,219.719L471.443,219.678L471.296,219.638L471.149,219.601L471.004,219.565L470.86,219.532L470.718,219.5L470.578,219.47L470.438,219.442L470.3,219.416L470.164,219.392L470.029,219.37L469.896,219.35L469.764,219.331L469.634,219.315L469.504,219.3L469.377,219.287L469.251,219.276L469.126,219.266L469.003,219.259L468.882,219.253L468.761,219.249L468.643,219.247L468.526,219.246L468.41,219.247Z" style="fill:black;"/>
            <path d="M469.974,216.218L470.052,216.234L470.256,216.279L470.462,216.327L470.671,216.378L470.881,216.431L471.094,216.488L471.309,216.547L471.527,216.61L471.747,216.675L471.97,216.744L474.18,217.443L473.365,220.232L469.279,219.138L469.255,219.133L469.091,219.1L468.93,219.071L468.771,219.044L468.616,219.019L468.464,218.997L468.316,218.978L468.17,218.961L468.028,218.946L467.888,218.934L467.752,218.924L467.619,218.916L467.488,218.91L467.361,218.907L467.237,218.906L467.116,218.907L466.998,218.91L466.882,218.915L466.77,218.922L466.66,218.93L466.553,218.941L466.45,218.953L466.348,218.967L466.25,218.983L466.154,219L466.06,219.019L465.969,219.039L465.881,219.061L465.795,219.084L465.711,219.109L465.63,219.135L465.55,219.162L465.473,219.191L465.397,219.221L465.324,219.252L465.252,219.285L465.182,219.319L465.113,219.354L465.046,219.39L464.981,219.428L464.917,219.466L464.854,219.507L464.792,219.548L464.732,219.591L464.672,219.636L464.614,219.681L464.556,219.729L464.499,219.777L464.443,219.828L464.388,219.88L464.334,219.933L464.28,219.988L464.227,220.045L464.175,220.104L464.123,220.164L464.072,220.227L464.022,220.291L463.972,220.357L463.923,220.424L463.874,220.494L463.826,220.566L463.778,220.639L463.731,220.715L463.685,220.792L463.639,220.871L463.594,220.953L463.549,221.036L463.506,221.121L463.462,221.208L463.42,221.297L463.377,221.388L463.336,221.481L463.295,221.575L463.255,221.672L463.216,221.77L463.177,221.87L463.139,221.972L463.101,222.076L463.064,222.182L463.028,222.289L462.992,222.398L462.957,222.508L462.922,222.621L462.889,222.735L462.855,222.85L462.823,222.967L462.791,223.086L462.759,223.206L462.728,223.328L462.698,223.451L462.668,223.576L462.639,223.702L462.61,223.829L462.582,223.958L462.554,224.088L462.528,224.218L462.474,224.487L462.423,224.759L462.373,225.036L462.325,225.317L462.279,225.603L462.233,225.892L462.189,226.186L462.145,226.484L462.103,226.785L462.06,227.09L461.817,228.892L461.6,229.036L302.566,186.605L302.868,185.098L302.896,184.968L302.924,184.837L302.953,184.708L302.984,184.579L303.015,184.451L303.048,184.324L303.081,184.197L303.116,184.071L303.151,183.946L303.188,183.821L303.225,183.697L303.264,183.574L303.304,183.452L303.344,183.33L303.386,183.208L303.429,183.088L303.472,182.968L303.517,182.849L303.563,182.731L303.61,182.613L303.657,182.496L303.706,182.38L303.756,182.265L303.807,182.15L303.859,182.036L303.912,181.923L303.966,181.81L304.02,181.699L304.076,181.588L304.133,181.477L304.191,181.368L304.25,181.259L304.31,181.151L304.371,181.043L304.433,180.937L304.496,180.831L304.56,180.726L304.625,180.622L304.691,180.519L304.758,180.416L304.825,180.314L304.894,180.213L304.964,180.113L305.035,180.013L305.107,179.914L305.179,179.817L305.253,179.719L305.328,179.623L305.403,179.528L305.48,179.433L305.557,179.339L305.636,179.246L305.715,179.154L305.795,179.062L305.876,178.972L305.958,178.882L306.041,178.793L306.125,178.705L306.21,178.618L306.296,178.531L306.382,178.445L306.47,178.361L306.558,178.277L306.647,178.194L306.737,178.111L306.828,178.03L306.92,177.949L307.013,177.869L307.106,177.79L307.201,177.712L307.296,177.635L307.392,177.558L307.489,177.483L307.586,177.408L307.685,177.334L307.784,177.261L307.884,177.188L307.985,177.117L308.087,177.046L308.189,176.976L308.293,176.907L308.397,176.839L308.501,176.772L308.607,176.705L308.713,176.639L308.821,176.574L308.929,176.51L309.037,176.447L309.146,176.384L309.257,176.323L309.368,176.262L309.479,176.202L309.592,176.142L309.705,176.084L309.819,176.026L309.933,175.969L310.049,175.913L310.165,175.857L310.281,175.803L310.399,175.749L310.517,175.696L310.636,175.644L310.756,175.592L310.876,175.541L310.997,175.491L311.119,175.442L311.241,175.394L311.364,175.346L311.488,175.299L311.612,175.253L311.738,175.207L311.863,175.163L311.99,175.119L312.117,175.075L312.245,175.033L312.374,174.991L312.503,174.95L312.633,174.91L312.764,174.87L312.895,174.831L313.027,174.793L313.159,174.755L313.293,174.719L313.427,174.683L313.561,174.647L313.696,174.613L314.205,174.486L469.974,216.218ZM314.081,177.613L313.966,177.645L313.852,177.677L313.738,177.71L313.625,177.744L313.513,177.778L313.402,177.812L313.292,177.847L313.182,177.883L313.073,177.919L312.965,177.956L312.858,177.993L312.752,178.031L312.647,178.069L312.542,178.108L312.438,178.147L312.335,178.187L312.233,178.227L312.132,178.268L312.032,178.31L311.932,178.352L311.833,178.394L311.735,178.438L311.638,178.481L311.542,178.525L311.446,178.57L311.352,178.615L311.258,178.661L311.165,178.707L311.073,178.754L310.981,178.801L310.891,178.849L310.801,178.897L310.712,178.946L310.624,178.995L310.537,179.045L310.45,179.096L310.365,179.146L310.28,179.198L310.196,179.25L310.113,179.302L310.03,179.355L309.948,179.409L309.868,179.463L309.788,179.517L309.708,179.573L309.63,179.628L309.553,179.684L309.476,179.741L309.4,179.798L309.324,179.856L309.25,179.914L309.176,179.972L309.103,180.032L309.031,180.091L308.96,180.152L308.889,180.213L308.819,180.274L308.75,180.336L308.682,180.398L308.614,180.461L308.547,180.525L308.481,180.589L308.416,180.653L308.352,180.719L308.288,180.784L308.225,180.85L308.162,180.917L308.1,180.985L308.04,181.053L307.98,181.121L307.92,181.19L307.861,181.26L307.803,181.33L307.746,181.401L307.69,181.473L307.634,181.545L307.579,181.617L307.524,181.691L307.47,181.765L307.418,181.839L307.365,181.914L307.314,181.99L307.263,182.066L307.213,182.143L307.163,182.221L307.114,182.299L307.066,182.378L307.019,182.458L306.972,182.538L306.926,182.619L306.881,182.701L306.836,182.783L306.792,182.866L306.749,182.95L306.707,183.034L306.665,183.119L306.624,183.205L306.583,183.292L306.544,183.379L306.505,183.467L306.466,183.556L306.429,183.645L306.392,183.735L306.356,183.826L306.32,183.918L306.286,184.01L306.252,184.103L306.218,184.197L306.186,184.292L306.154,184.388L306.133,184.452L459.287,225.314L459.316,225.128L459.366,224.822L459.418,224.518L459.472,224.217L459.529,223.917L459.587,223.622L459.618,223.473L459.65,223.326L459.682,223.18L459.714,223.034L459.748,222.889L459.782,222.744L459.818,222.601L459.854,222.458L459.891,222.315L459.93,222.174L459.969,222.033L460.009,221.893L460.05,221.754L460.093,221.615L460.137,221.477L460.181,221.341L460.228,221.204L460.275,221.069L460.324,220.935L460.374,220.801L460.425,220.668L460.478,220.536L460.533,220.406L460.589,220.275L460.646,220.146L460.706,220.018L460.766,219.892L460.829,219.765L460.894,219.64L460.96,219.517L461.028,219.394L461.098,219.272L461.17,219.152L461.244,219.033L461.321,218.915L461.399,218.798L461.479,218.683L461.562,218.569L461.647,218.457L461.734,218.347L461.824,218.237L461.916,218.13L462.01,218.024L462.107,217.92L462.206,217.819L462.307,217.719L462.411,217.621L462.518,217.525L462.626,217.431L462.696,217.374L314.183,177.586L314.081,177.613Z" style="fill:black;"/>
            <path d="M305.028,184.204L305.336,184.337L305.607,184.536L305.827,184.79L305.985,185.086L306.073,185.411L306.086,185.746L306.025,186.076L305.892,186.385L277.197,236.425L270.069,256.58L270.069,394.808L270.031,395.141L269.92,395.458L269.741,395.743L269.504,395.98L269.22,396.159L268.902,396.27L268.569,396.308L268.235,396.27L267.918,396.159L267.633,395.98L267.396,395.743L267.217,395.458L267.106,395.141L267.069,394.808L267.069,256.065L274.46,235.169L303.289,184.892L303.488,184.622L303.742,184.402L304.038,184.244L304.362,184.156L304.698,184.142L305.028,184.204Z" style="fill:black;"/>
            <path d="M268.74,254.833L268.996,254.885L389.75,290.807L389.993,290.903L390.216,291.04L390.412,291.213L390.574,291.418L390.699,291.648L390.782,291.896L390.82,292.155L390.813,292.416L390.76,292.672L390.664,292.915L390.527,293.138L390.354,293.334L390.149,293.496L389.919,293.621L389.671,293.703L389.412,293.742L389.151,293.735L388.895,293.682L268.141,257.761L267.898,257.664L267.675,257.528L267.479,257.354L267.317,257.149L267.192,256.919L267.11,256.671L267.071,256.413L267.079,256.151L267.131,255.895L267.227,255.652L267.364,255.429L267.537,255.234L267.742,255.071L267.972,254.947L268.22,254.864L268.479,254.825L268.74,254.833Z" style="fill:black;"/>
        </g>
    </g>
    <g id="Deckel">
        <path d="M377.907,333.14C388.941,327.51 404.641,318.343 417.14,316.551L756.704,253.539L1142.57,361.001C1209.94,373.246 1225.24,418.959 1173.93,449.827L808.36,705.211C757.628,737.358 668.189,739.386 608.943,717.76L140.311,564.039C76.344,545.504 64.491,505.898 119.865,479.76L377.907,333.14Z" style="fill:rgb(242,242,242);stroke-width:3px;stroke-linejoin:round;stroke:black;"/>
        <path d="M397.245,334.487C408.279,328.856 423.667,324.473 436.166,322.681L718.509,271.516C749.097,267.416 782.481,269.336 808.36,277.816L1135.01,367.88C1196.26,383.163 1206.7,411.107 1161.51,438.937L791.979,694.343C741.247,726.49 675.874,728.252 616.629,706.625L156.886,556.121C98.233,540.083 86.897,509.905 138.512,481.518L397.245,334.487Z" style="fill:rgb(166,166,166);stroke-width:3px;stroke-linejoin:round;stroke:black;"/>
        <path d="M401.712,337.009C412.746,331.378 424.787,328.387 437.286,326.595L721.503,275.063C752.09,270.963 780.49,272.706 806.369,281.186L1133.07,372.665C1185.78,391.126 1192.2,412.383 1154.2,436.322L785.224,689.782C734.492,721.929 678.739,721.731 619.494,700.105L162.131,551.242C109.881,535.3 100.9,513.729 145.075,485.242L401.712,337.009Z" style="fill:rgb(242,242,242);stroke-width:3px;stroke-linejoin:round;stroke:black;"/>
    </g>
    <g transform="matrix(0.941866,0.335988,-0.335988,0.941866,323.274,-131.942)">
        <path d="M156.858,927.392L160.39,927.392L160.39,934.22C160.39,934.897 160.284,935.537 160.073,936.138C159.862,936.74 159.532,937.266 159.081,937.716C158.63,938.167 158.158,938.483 157.663,938.666C156.976,938.921 156.15,939.048 155.186,939.048C154.629,939.048 154.021,939.009 153.362,938.931C152.703,938.853 152.153,938.698 151.71,938.466C151.267,938.235 150.862,937.905 150.495,937.478C150.128,937.051 149.877,936.611 149.741,936.158C149.522,935.429 149.413,934.783 149.413,934.22L149.413,927.392L152.944,927.392L152.944,934.384C152.944,935.009 153.117,935.498 153.464,935.849C153.81,936.201 154.291,936.376 154.905,936.376C155.515,936.376 155.992,936.203 156.339,935.857C156.685,935.511 156.858,935.02 156.858,934.384L156.858,927.392Z" style="fill:rgb(166,166,166);fill-rule:nonzero;"/>
        <path d="M162.116,935.056L165.483,934.845C165.556,935.392 165.705,935.809 165.929,936.095C166.293,936.559 166.814,936.791 167.491,936.791C167.996,936.791 168.386,936.672 168.659,936.435C168.933,936.198 169.069,935.923 169.069,935.611C169.069,935.314 168.939,935.048 168.679,934.814C168.418,934.58 167.814,934.358 166.866,934.15C165.314,933.801 164.207,933.337 163.546,932.759C162.879,932.181 162.546,931.444 162.546,930.548C162.546,929.96 162.716,929.404 163.058,928.88C163.399,928.357 163.912,927.945 164.597,927.646C165.282,927.347 166.22,927.197 167.413,927.197C168.877,927.197 169.992,927.469 170.761,928.013C171.529,928.557 171.986,929.423 172.132,930.611L168.796,930.806C168.707,930.291 168.521,929.916 168.237,929.681C167.953,929.447 167.561,929.33 167.061,929.33C166.65,929.33 166.34,929.417 166.132,929.591C165.923,929.766 165.819,929.978 165.819,930.228C165.819,930.41 165.905,930.574 166.077,930.72C166.244,930.871 166.64,931.012 167.265,931.142C168.811,931.475 169.92,931.813 170.589,932.154C171.258,932.495 171.745,932.918 172.05,933.423C172.354,933.929 172.507,934.494 172.507,935.119C172.507,935.853 172.304,936.53 171.897,937.15C171.491,937.77 170.923,938.24 170.194,938.56C169.465,938.88 168.546,939.041 167.436,939.041C165.489,939.041 164.14,938.666 163.39,937.916C162.64,937.166 162.215,936.212 162.116,935.056Z" style="fill:rgb(166,166,166);fill-rule:nonzero;"/>
        <path d="M174.296,927.392L180.921,927.392C182.025,927.392 182.873,927.666 183.464,928.212C184.055,928.759 184.351,929.436 184.351,930.244C184.351,930.921 184.14,931.501 183.718,931.986C183.436,932.309 183.025,932.564 182.483,932.751C183.306,932.949 183.912,933.289 184.3,933.771C184.688,934.253 184.882,934.858 184.882,935.587C184.882,936.181 184.744,936.715 184.468,937.189C184.192,937.663 183.814,938.038 183.335,938.314C183.038,938.486 182.59,938.611 181.991,938.689C181.194,938.793 180.666,938.845 180.405,938.845L174.296,938.845L174.296,927.392ZM177.866,931.884L179.405,931.884C179.957,931.884 180.341,931.789 180.558,931.599C180.774,931.409 180.882,931.134 180.882,930.775C180.882,930.442 180.774,930.181 180.558,929.994C180.341,929.806 179.965,929.712 179.429,929.712L177.866,929.712L177.866,931.884ZM177.866,936.384L179.671,936.384C180.28,936.384 180.71,936.276 180.96,936.06C181.21,935.844 181.335,935.554 181.335,935.189C181.335,934.85 181.211,934.578 180.964,934.373C180.716,934.167 180.283,934.064 179.663,934.064L177.866,934.064L177.866,936.384Z" style="fill:rgb(166,166,166);fill-rule:nonzero;"/>
        <path d="M234.804,938.845L234.804,927.392L240.702,927.392C241.796,927.392 242.632,927.486 243.21,927.673C243.788,927.861 244.254,928.208 244.608,928.716C244.963,929.224 245.14,929.843 245.14,930.572C245.14,931.207 245.004,931.755 244.733,932.216C244.463,932.677 244.09,933.051 243.616,933.337C243.314,933.52 242.9,933.671 242.374,933.791C242.796,933.931 243.103,934.072 243.296,934.212C243.426,934.306 243.615,934.507 243.862,934.814C244.11,935.121 244.275,935.358 244.358,935.525L246.069,938.845L242.069,938.845L240.179,935.345C239.939,934.892 239.726,934.598 239.538,934.462C239.283,934.285 238.994,934.197 238.671,934.197L238.358,934.197L238.358,938.845L234.804,938.845ZM238.358,932.033L239.851,932.033C240.012,932.033 240.324,931.981 240.788,931.876C241.022,931.83 241.214,931.71 241.362,931.517C241.511,931.324 241.585,931.103 241.585,930.853C241.585,930.483 241.468,930.199 241.233,930.001C240.999,929.804 240.559,929.705 239.913,929.705L238.358,929.705L238.358,932.033Z" style="fill:rgb(166,166,166);fill-rule:nonzero;"/>
        <path d="M255.804,935.486L249.429,935.486C249.486,935.996 249.624,936.376 249.843,936.626C250.15,936.986 250.551,937.166 251.046,937.166C251.358,937.166 251.655,937.087 251.936,936.931C252.108,936.832 252.293,936.658 252.491,936.408L255.624,936.697C255.145,937.53 254.567,938.128 253.89,938.49C253.213,938.852 252.241,939.033 250.976,939.033C249.877,939.033 249.012,938.878 248.382,938.568C247.752,938.258 247.229,937.766 246.815,937.091C246.401,936.417 246.194,935.624 246.194,934.712C246.194,933.416 246.61,932.366 247.44,931.564C248.271,930.762 249.418,930.361 250.882,930.361C252.069,930.361 253.007,930.541 253.694,930.9C254.382,931.259 254.905,931.78 255.265,932.462C255.624,933.145 255.804,934.033 255.804,935.126L255.804,935.486ZM252.569,933.962C252.507,933.348 252.341,932.908 252.073,932.642C251.805,932.376 251.452,932.244 251.015,932.244C250.509,932.244 250.106,932.444 249.804,932.845C249.611,933.095 249.489,933.468 249.436,933.962L252.569,933.962Z" style="fill:rgb(166,166,166);fill-rule:nonzero;"/>
        <path d="M256.702,936.548L259.858,936.251C259.989,936.626 260.171,936.895 260.405,937.056C260.64,937.218 260.952,937.298 261.343,937.298C261.77,937.298 262.101,937.207 262.335,937.025C262.517,936.889 262.608,936.72 262.608,936.517C262.608,936.288 262.489,936.111 262.249,935.986C262.077,935.897 261.621,935.788 260.882,935.658C259.778,935.465 259.011,935.287 258.581,935.123C258.151,934.958 257.789,934.681 257.495,934.291C257.201,933.9 257.054,933.455 257.054,932.955C257.054,932.408 257.213,931.936 257.53,931.541C257.848,931.145 258.285,930.849 258.843,930.654C259.4,930.458 260.147,930.361 261.085,930.361C262.074,930.361 262.805,930.436 263.276,930.587C263.748,930.738 264.141,930.973 264.456,931.291C264.771,931.608 265.033,932.038 265.241,932.58L262.226,932.876C262.147,932.611 262.017,932.416 261.835,932.291C261.585,932.124 261.283,932.041 260.929,932.041C260.569,932.041 260.308,932.104 260.143,932.232C259.979,932.36 259.897,932.514 259.897,932.697C259.897,932.9 260.002,933.054 260.21,933.158C260.418,933.262 260.871,933.356 261.569,933.439C262.627,933.559 263.413,933.725 263.929,933.939C264.444,934.152 264.839,934.457 265.112,934.853C265.386,935.249 265.522,935.684 265.522,936.158C265.522,936.637 265.378,937.103 265.089,937.556C264.8,938.009 264.344,938.37 263.722,938.638C263.099,938.906 262.252,939.041 261.179,939.041C259.663,939.041 258.584,938.824 257.94,938.392C257.297,937.96 256.884,937.345 256.702,936.548Z" style="fill:rgb(166,166,166);fill-rule:nonzero;"/>
        <path d="M276.249,935.486L269.874,935.486C269.931,935.996 270.069,936.376 270.288,936.626C270.595,936.986 270.996,937.166 271.491,937.166C271.804,937.166 272.101,937.087 272.382,936.931C272.554,936.832 272.739,936.658 272.936,936.408L276.069,936.697C275.59,937.53 275.012,938.128 274.335,938.49C273.658,938.852 272.686,939.033 271.421,939.033C270.322,939.033 269.457,938.878 268.827,938.568C268.197,938.258 267.675,937.766 267.261,937.091C266.847,936.417 266.64,935.624 266.64,934.712C266.64,933.416 267.055,932.366 267.886,931.564C268.716,930.762 269.864,930.361 271.327,930.361C272.515,930.361 273.452,930.541 274.14,930.9C274.827,931.259 275.351,931.78 275.71,932.462C276.069,933.145 276.249,934.033 276.249,935.126L276.249,935.486ZM273.015,933.962C272.952,933.348 272.787,932.908 272.518,932.642C272.25,932.376 271.897,932.244 271.46,932.244C270.955,932.244 270.551,932.444 270.249,932.845C270.056,933.095 269.934,933.468 269.882,933.962L273.015,933.962Z" style="fill:rgb(166,166,166);fill-rule:nonzero;"/>
        <path d="M281.546,927.392L281.546,930.548L283.296,930.548L283.296,932.869L281.546,932.869L281.546,935.814C281.546,936.168 281.58,936.402 281.647,936.517C281.752,936.694 281.934,936.783 282.194,936.783C282.429,936.783 282.757,936.715 283.179,936.58L283.413,938.775C282.627,938.947 281.892,939.033 281.21,939.033C280.418,939.033 279.835,938.931 279.46,938.728C279.085,938.525 278.808,938.216 278.628,937.802C278.448,937.388 278.358,936.718 278.358,935.791L278.358,932.869L277.186,932.869L277.186,930.548L278.358,930.548L278.358,929.025L281.546,927.392Z" style="fill:rgb(166,166,166);fill-rule:nonzero;"/>
        <path d="M359.726,927.392L363.265,927.392L363.265,936.025L368.788,936.025L368.788,938.845L359.726,938.845L359.726,927.392Z" style="fill:rgb(166,166,166);fill-rule:nonzero;"/>
        <path d="M377.444,936.955L373.413,936.955L372.858,938.845L369.241,938.845L373.546,927.392L377.405,927.392L381.71,938.845L378.007,938.845L377.444,936.955ZM376.702,934.478L375.436,930.361L374.179,934.478L376.702,934.478Z" style="fill:rgb(166,166,166);fill-rule:nonzero;"/>
        <path d="M382.866,927.392L386.171,927.392L390.483,933.728L390.483,927.392L393.819,927.392L393.819,938.845L390.483,938.845L386.194,932.556L386.194,938.845L382.866,938.845L382.866,927.392Z" style="fill:rgb(166,166,166);fill-rule:nonzero;"/>
        <path d="M397.866,927.197L399.491,927.197L396.616,939.033L395.007,939.033L397.866,927.197Z" style="fill:rgb(166,166,166);fill-rule:nonzero;"/>
        <path d="M399.436,927.392L402.796,927.392L404.007,933.791L405.772,927.392L409.124,927.392L410.897,933.791L412.108,927.392L415.452,927.392L412.929,938.845L409.46,938.845L407.452,931.634L405.452,938.845L401.983,938.845L399.436,927.392Z" style="fill:rgb(166,166,166);fill-rule:nonzero;"/>
        <path d="M423.663,936.955L419.632,936.955L419.077,938.845L415.46,938.845L419.765,927.392L423.624,927.392L427.929,938.845L424.226,938.845L423.663,936.955ZM422.921,934.478L421.655,930.361L420.397,934.478L422.921,934.478Z" style="fill:rgb(166,166,166);fill-rule:nonzero;"/>
        <path d="M429.085,927.392L432.39,927.392L436.702,933.728L436.702,927.392L440.038,927.392L440.038,938.845L436.702,938.845L432.413,932.556L432.413,938.845L429.085,938.845L429.085,927.392Z" style="fill:rgb(166,166,166);fill-rule:nonzero;"/>
        <path d="M530.749,927.392L534.288,927.392L534.288,936.025L539.811,936.025L539.811,938.845L530.749,938.845L530.749,927.392Z" style="fill:rgb(166,166,166);fill-rule:nonzero;"/>
        <path d="M548.468,936.955L544.436,936.955L543.882,938.845L540.265,938.845L544.569,927.392L548.429,927.392L552.733,938.845L549.03,938.845L548.468,936.955ZM547.726,934.478L546.46,930.361L545.202,934.478L547.726,934.478Z" style="fill:rgb(166,166,166);fill-rule:nonzero;"/>
        <path d="M553.89,927.392L557.194,927.392L561.507,933.728L561.507,927.392L564.843,927.392L564.843,938.845L561.507,938.845L557.218,932.556L557.218,938.845L553.89,938.845L553.89,927.392Z" style="fill:rgb(166,166,166);fill-rule:nonzero;"/>
    </g>
</svg>
