<?xml version="1.0" standalone="no"?>
<!DOCTYPE svg PUBLIC "-//W3C//DTD SVG 1.1//EN" "http://www.w3.org/Graphics/SVG/1.1/DTD/svg11.dtd">
<svg width="100%" height="100%" viewBox="0 0 7112 6389" version="1.1" xmlns="http://www.w3.org/2000/svg" xmlns:xlink="http://www.w3.org/1999/xlink" xml:space="preserve" style="fill-rule:evenodd;clip-rule:evenodd;stroke-linecap:round;stroke-linejoin:round;stroke-miterlimit:1.41421;">
    <g transform="matrix(5.55556,0,0,5.55556,-0,-0)">
        <g id="Antennen" transform="matrix(1,0,0,1,0,175)">
            <g id="Antenne Links" transform="matrix(1,0,0,1,-84.2542,82.2321)">
                <g transform="matrix(1,0,0,1,0,-175)">
                    <path d="M203.453,70.788C205.015,73.562 227.22,67.242 230.549,63.801L229.271,65.541C229.273,65.552 230.184,69.762 229.9,69.182L231.502,68.518C228.242,72.289 209.825,78.123 204.451,75.952L206.598,76.289C206.598,73.814 205.813,73.911 205.813,71.733" style="fill:rgb(51,51,51);stroke-width:4.5px;stroke:black;"/>
                </g>
                <g transform="matrix(2.01999,0,0,2.067,-605.16,-358.194)">
                    <path d="M400.247,122.805C400.173,121.923 396.634,107.112 397.514,104.982C398.44,102.739 400.737,101.614 403.097,101.235C405.315,100.878 407.965,100.915 409.533,103.017C411.183,105.23 413.579,118.811 413.702,119.408C409.31,121.972 404.818,123.219 400.199,122.817" style="fill:rgb(51,51,51);stroke-width:2.2px;stroke:black;"/>
                </g>
                <g transform="matrix(1,0,0,1,0,-175)">
                    <path d="M334.177,691.561C313.065,595.614 250.901,357.426 250.284,338.969C249.886,327.06 246.72,305.189 243.694,284.795C232.318,208.129 208.205,94.706 204.542,77.172C214.483,76.233 223.942,74.299 231.654,68.748L231.622,68.639C232.891,73.493 239.854,109.39 250.793,155.166C271.017,239.801 301.785,359.762 313.787,390.711C330.69,434.297 384.513,668.297 388.207,682.768C381.344,683.655 345.191,689.606 334.004,691.761" style="fill:rgb(51,51,51);stroke-width:4.5px;stroke:black;"/>
                </g>
            </g>
            <g id="Antenne mitte" transform="matrix(0.97356,0.22843,-0.22843,0.97356,417.799,16.0427)">
                <g transform="matrix(1,0,0,1,0,-175)">
                    <path d="M203.453,70.788C205.015,73.562 227.22,67.242 230.549,63.801L229.271,65.541C229.273,65.552 230.184,69.762 229.9,69.182L231.502,68.518C228.242,72.289 209.825,78.123 204.451,75.952L206.598,76.289C206.598,73.814 205.813,73.911 205.813,71.733" style="fill:rgb(51,51,51);stroke-width:4.5px;stroke:black;"/>
                </g>
                <g transform="matrix(2.01999,0,0,2.067,-605.16,-358.194)">
                    <path d="M400.247,122.805C400.173,121.923 396.634,107.112 397.514,104.982C398.44,102.739 400.737,101.614 403.097,101.235C405.315,100.878 407.965,100.915 409.533,103.017C411.183,105.23 413.579,118.811 413.702,119.408C409.31,121.972 404.818,123.219 400.199,122.817" style="fill:rgb(51,51,51);stroke-width:2.2px;stroke:black;"/>
                </g>
                <g transform="matrix(1,0,0,1,0,-175)">
                    <path d="M334.177,691.561C313.065,595.614 250.901,357.426 250.284,338.969C249.886,327.06 246.72,305.189 243.694,284.795C232.318,208.129 208.205,94.706 204.542,77.172C214.483,76.233 223.942,74.299 231.654,68.748L231.622,68.639C232.891,73.493 239.854,109.39 250.793,155.166C271.017,239.801 301.785,359.762 313.787,390.711C330.69,434.297 384.513,668.297 388.207,682.768C381.344,683.655 345.191,689.606 334.004,691.761" style="fill:rgb(51,51,51);stroke-width:4.5px;stroke:black;"/>
                </g>
            </g>
            <g id="Antenne Rechts" transform="matrix(1,0,0,1,102.921,78.172)">
                <g transform="matrix(2.01999,0,0,2.067,-605.16,-358.194)">
                    <path d="M825.993,126.38C821.824,126.336 818.276,125.279 815.223,123.412C815.269,123.051 817.745,111.671 819.129,107.12C819.349,106.394 820.681,104.068 823.357,104.709C824.199,104.911 826.921,105.331 827.875,105.986C829.704,107.244 829.633,109.036 829.615,109.499C829.327,116.928 825.993,126.714 825.993,126.38Z" style="fill:rgb(51,51,51);stroke-width:2.2px;stroke:black;"/>
                </g>
                <g transform="matrix(1,0,0,1,0,-175)">
                    <path d="M1062.23,84.228C1062.55,84.168 1045.31,81.921 1040,76.976L1041.51,76.886C1041.61,76.886 1042.72,74.109 1042.84,73.98L1041.55,71.98C1053.14,78.617 1063.13,78.462 1063.12,78.462L1061.23,78.616C1061.02,79.401 1059.74,81.837 1059.74,82.8" style="fill:rgb(51,51,51);stroke-width:4.5px;stroke:black;"/>
                </g>
                <g transform="matrix(1,0,0,1,0,-175)">
                    <path d="M884.619,682.128C901.439,684.479 918.439,687.212 935.65,690.395C937.436,674.43 1007.15,387.839 1009,373.226C1013.43,338.35 1013.21,313.982 1029.13,232.748C1045.72,148.073 1058.5,100.965 1062.1,84.821C1049.88,82.468 1043.33,79.986 1040.12,77.427L1039.96,77.139C1039.73,78.056 1001.47,250.116 980.715,299.43C959.261,350.404 884.716,681.962 884.533,681.649" style="fill:rgb(51,51,51);stroke-width:4.5px;stroke:black;"/>
                </g>
            </g>
        </g>
        <g id="Gummifüsse">
            <path d="M1026.03,942.664C1030.2,951.384 1060.63,951.948 1064.43,942.664" style="fill:black;stroke-width:2px;stroke:black;"/>
            <g transform="matrix(1,0,0,1,-804.571,0.649703)">
                <path d="M1026.03,942.664C1030.2,951.384 1060.63,951.948 1064.43,942.664" style="fill:black;stroke-width:2px;stroke:black;"/>
            </g>
        </g>
        <g id="front">
            <path d="M126.714,786.596L1152.97,786.596L1149.44,917.503C1148.05,934.704 1141.53,943.026 1128.26,942.664L155.302,942.664C144.457,942.017 136.489,935.842 134.853,917.503L126.714,786.596Z" style="fill:rgb(51,51,51);stroke-width:3px;stroke:black;"/>
            <path d="M126.41,754.755L1152.96,754.755L1152.96,786.608L1075.45,786.608L1075.45,880.661C1075.82,897.216 1066.32,904.235 1048.62,903.354L230.191,903.354C216.297,904.024 208.551,896.721 207.556,880.661L207.556,786.608L126.41,786.608L126.41,754.755" style="fill:white;stroke-width:3px;stroke:black;"/>
            <path d="M218.768,786.608L1063.33,786.608L1063.33,878.202C1063.57,885.371 1060.57,889.646 1052.79,889.376L229.175,889.376C222.537,889.431 219.151,883.334 218.768,878.202L218.768,786.608Z" style="fill:rgb(51,51,51);stroke-width:3px;stroke:black;"/>
        </g>
        <g id="Frontbeschriftung und tasten">
            <path d="M859.005,845.007C859.005,841.198 855.912,838.105 852.103,838.105L271.361,838.105C267.552,838.105 264.46,841.198 264.46,845.007L264.46,858.811C264.46,862.62 267.552,865.712 271.361,865.712L852.103,865.712C855.912,865.712 859.005,862.62 859.005,858.811L859.005,845.007Z" style="fill:none;stroke-width:4px;stroke:white;"/>
            <g transform="matrix(0.12918,0,0,1,843.761,-0.0196391)">
                <path d="M859.005,845.007C859.005,841.198 835.065,838.105 805.577,838.105L317.887,838.105C288.4,838.105 264.46,841.198 264.46,845.007L264.46,858.811C264.46,862.62 288.4,865.712 317.887,865.712L805.577,865.712C835.065,865.712 859.005,862.62 859.005,858.811L859.005,845.007Z" style="fill:none;stroke-width:5.61px;stroke:white;"/>
            </g>
            <path d="M1004.86,816.796C1004.86,811.544 1000.59,807.28 995.342,807.28L940.911,807.28C935.659,807.28 931.395,811.544 931.395,816.796L931.395,870.963C931.395,876.215 935.659,880.479 940.911,880.479L995.342,880.479C1000.59,880.479 1004.86,876.215 1004.86,870.963L1004.86,816.796Z" style="fill:rgb(41,172,55);stroke-width:2px;stroke:rgb(41,172,55);"/>
            <g id="leds anzeige" transform="matrix(0.686376,0,0,0.686376,339.248,170.869)">
                <g id="power" transform="matrix(1,0,0,1,0.117054,-1.87812)">
                    <path d="M437.904,985.138C429.191,985.177 428.351,1004.33 441.151,1004.67C454.95,1005.03 453.005,985.333 444.365,985.138" style="fill:none;stroke-width:4.37px;stroke:rgb(41,172,55);"/>
                    <path d="M441.05,996.543L441.05,981.906" style="fill:none;stroke-width:4.37px;stroke:rgb(41,172,55);"/>
                </g>
                <g transform="matrix(1,0,0,1,39.4157,-0.956412)">
                    <path d="M489.591,981.905L491.502,987.682L495.186,985.896L494.595,989.888L500.78,989.888L495.776,993.458L498.643,996.346L494.595,997.028L496.506,1002.81L491.502,999.235L489.591,1002.81L487.68,999.235L482.676,1002.81L484.587,997.028L480.539,996.346L483.406,993.458L478.402,989.888L484.587,989.888L483.996,985.896L487.68,987.682L489.591,981.905Z" style="fill:rgb(41,172,55);stroke-width:1.46px;stroke:rgb(41,172,55);"/>
                </g>
                <g transform="matrix(1,0,0,1,164.247,-0.296384)">
                    <path d="M532.5,1001.56C535.537,998.5 538.583,999.103 541.634,1001.56" style="fill:none;stroke-width:4.37px;stroke:rgb(41,172,55);"/>
                    <path d="M529.218,994.65C534.394,990.708 539.528,990.83 544.623,994.65" style="fill:none;stroke-width:4.37px;stroke:rgb(41,172,55);"/>
                    <path d="M526.539,988.847C533.32,983.95 540.233,983.383 547.33,988.847" style="fill:none;stroke-width:4.37px;stroke:rgb(41,172,55);"/>
                </g>
                <g transform="matrix(1,0,0,1,-18.429,-1.80016)">
                    <path d="M626.349,996.053L623.073,996.053L623.073,985.75L641.216,985.75L641.216,996.053L638.183,996.053" style="fill:none;stroke-width:4.37px;stroke:rgb(41,172,55);"/>
                    <path d="M626.295,1003.22L637.337,1003.22L632.352,1003.22L632.352,995.421" style="fill:none;stroke-width:4.37px;stroke:rgb(41,172,55);"/>
                </g>
                <g id="Lock" transform="matrix(1.45693,0,0,2.61113,-350.875,-1597.36)">
                    <g transform="matrix(1,0,0,1,0,96.2592)">
                        <rect x="803.72" y="895.022" width="12.343" height="4.453" style="fill:rgb(41,172,55);stroke-width:0.52px;stroke:rgb(41,172,55);"/>
                    </g>
                    <g transform="matrix(1,0,0,0.720904,-2.84217e-14,346.056)">
                        <path d="M805.459,895.022C805.495,890.478 813.687,890.502 813.741,895.022" style="fill:none;stroke-width:1.73px;stroke:rgb(41,172,55);"/>
                    </g>
                </g>
            </g>
            <g id="Beschriftung" transform="matrix(1,0,0,1,319.459,-218.417)">
                <g transform="matrix(1,0,0,1,-100.291,2.33659)">
                    <path d="M413.369,1041.62L413.369,1039.62C413.369,1039.42 413.334,1039.29 413.266,1039.23C413.198,1039.16 413.064,1039.13 412.865,1039.13L412.794,1039.13L412.794,1042.1L412.9,1042.1C413.08,1042.1 413.203,1042.07 413.269,1042C413.335,1041.93 413.369,1041.8 413.369,1041.62ZM411.066,1046.67L411.066,1038.03L413.081,1038.03C413.773,1038.03 414.28,1038.16 414.602,1038.41C414.924,1038.66 415.085,1039.06 415.085,1039.6L415.085,1041.44C415.085,1042.11 414.926,1042.59 414.608,1042.88C414.289,1043.16 413.753,1043.31 412.999,1043.31L412.794,1043.31L412.794,1046.67L411.066,1046.67Z" style="fill:white;fill-rule:nonzero;"/>
                    <path d="M416.996,1041.1L416.996,1045.28C416.996,1045.43 417.017,1045.54 417.06,1045.61C417.103,1045.67 417.173,1045.7 417.271,1045.7C417.369,1045.7 417.439,1045.67 417.482,1045.61C417.525,1045.54 417.546,1045.43 417.546,1045.28L417.546,1041.1C417.546,1040.95 417.524,1040.84 417.479,1040.77C417.434,1040.71 417.361,1040.67 417.259,1040.67C417.165,1040.67 417.098,1040.71 417.057,1040.77C417.016,1040.83 416.996,1040.94 416.996,1041.1ZM415.46,1041.57C415.46,1040.85 415.6,1040.34 415.879,1040.05C416.159,1039.75 416.619,1039.6 417.259,1039.6C417.9,1039.6 418.36,1039.75 418.639,1040.05C418.918,1040.34 419.058,1040.85 419.058,1041.57L419.058,1044.88C419.058,1045.59 418.918,1046.09 418.639,1046.39C418.36,1046.69 417.9,1046.84 417.259,1046.84C416.619,1046.84 416.159,1046.69 415.879,1046.39C415.6,1046.09 415.46,1045.59 415.46,1044.88L415.46,1041.57Z" style="fill:white;fill-rule:nonzero;"/>
                    <path d="M420.136,1046.67L419.193,1039.76L420.74,1039.76L421.027,1043.34C421.042,1043.57 421.054,1043.82 421.062,1044.09C421.07,1044.36 421.074,1044.65 421.074,1044.96L421.132,1044.96C421.148,1044.38 421.189,1043.82 421.255,1043.25C421.259,1043.21 421.263,1043.18 421.267,1043.16L421.648,1039.76L423.247,1039.76L423.558,1043.34C423.562,1043.38 423.571,1043.57 423.584,1043.93C423.598,1044.28 423.613,1044.63 423.628,1044.96L423.693,1044.96C423.716,1044.45 423.753,1043.92 423.804,1043.38C423.816,1043.27 423.822,1043.2 423.822,1043.17L424.132,1039.76L425.609,1039.76L424.578,1046.67L422.814,1046.67L422.527,1043.51C422.519,1043.41 422.509,1043.21 422.497,1042.92C422.486,1042.63 422.474,1042.29 422.462,1041.91L422.404,1041.91C422.384,1042.42 422.345,1042.91 422.287,1043.38L422.287,1043.4L421.876,1046.67L420.136,1046.67Z" style="fill:white;fill-rule:nonzero;"/>
                    <path d="M427.232,1041.1L427.232,1042.4L427.783,1042.4L427.783,1041.1C427.783,1040.94 427.761,1040.84 427.718,1040.77C427.675,1040.71 427.605,1040.67 427.507,1040.67C427.41,1040.67 427.339,1040.71 427.296,1040.77C427.253,1040.84 427.232,1040.94 427.232,1041.1ZM427.232,1045.28C427.232,1045.43 427.253,1045.54 427.296,1045.61C427.339,1045.67 427.41,1045.7 427.507,1045.7C427.605,1045.7 427.675,1045.67 427.718,1045.61C427.761,1045.54 427.783,1045.43 427.783,1045.28L427.783,1043.99L429.306,1043.99L429.306,1045.27C429.306,1045.77 429.149,1046.16 428.834,1046.43C428.52,1046.71 428.078,1046.84 427.507,1046.84C426.863,1046.84 426.402,1046.7 426.124,1046.4C425.847,1046.1 425.708,1045.59 425.708,1044.88L425.708,1041.57C425.708,1040.84 425.845,1040.33 426.119,1040.04C426.392,1039.74 426.851,1039.6 427.496,1039.6C428.062,1039.6 428.505,1039.73 428.826,1039.99C429.146,1040.26 429.306,1040.62 429.306,1041.09L429.306,1043.43L427.232,1043.43L427.232,1045.28Z" style="fill:white;fill-rule:nonzero;"/>
                    <path d="M429.787,1046.67L429.787,1039.76L431.287,1039.76L431.287,1040.34L431.31,1040.34C431.439,1040.1 431.593,1039.92 431.773,1039.8C431.953,1039.69 432.162,1039.63 432.4,1039.63C432.732,1039.63 432.981,1039.73 433.147,1039.93C433.313,1040.12 433.396,1040.42 433.396,1040.81L433.396,1043.48L431.861,1043.48L431.861,1041.31C431.861,1041.15 431.84,1041.05 431.799,1040.99C431.758,1040.93 431.687,1040.9 431.585,1040.9C431.492,1040.9 431.422,1040.94 431.377,1041C431.332,1041.07 431.31,1041.17 431.31,1041.31L431.31,1046.67L429.787,1046.67Z" style="fill:white;fill-rule:nonzero;"/>
                    <path d="M469.777,1039.59C469.777,1039.03 469.954,1038.61 470.307,1038.3C470.661,1038 471.156,1037.84 471.792,1037.84C472.433,1037.84 472.927,1038 473.275,1038.3C473.622,1038.61 473.796,1039.05 473.796,1039.62L473.796,1041.03L472.08,1041.03L472.08,1039.5C472.08,1039.34 472.058,1039.23 472.015,1039.17C471.972,1039.11 471.898,1039.08 471.792,1039.08C471.683,1039.08 471.606,1039.11 471.561,1039.18C471.516,1039.24 471.494,1039.35 471.494,1039.5L471.494,1040.26C471.494,1040.39 471.51,1040.51 471.543,1040.6C471.577,1040.7 471.63,1040.79 471.705,1040.88L473.363,1042.7C473.519,1042.87 473.63,1043.05 473.697,1043.24C473.763,1043.42 473.796,1043.72 473.796,1044.13L473.796,1045.14C473.796,1045.69 473.621,1046.12 473.272,1046.42C472.922,1046.72 472.425,1046.87 471.781,1046.87C471.121,1046.87 470.621,1046.71 470.284,1046.4C469.946,1046.09 469.777,1045.63 469.777,1045.02L469.777,1043.4L471.494,1043.4L471.494,1045.14C471.494,1045.29 471.516,1045.39 471.561,1045.46C471.606,1045.53 471.683,1045.56 471.792,1045.56C471.894,1045.56 471.967,1045.53 472.012,1045.46C472.057,1045.4 472.08,1045.29 472.08,1045.14L472.08,1044.22C472.08,1044.1 472.057,1043.98 472.012,1043.88C471.967,1043.77 471.89,1043.65 471.781,1043.53L470.222,1041.76C470.062,1041.59 469.948,1041.4 469.879,1041.22C469.811,1041.04 469.777,1040.8 469.777,1040.49L469.777,1040.36L469.777,1039.59Z" style="fill:white;fill-rule:nonzero;"/>
                    <path d="M476.738,1046.72C476.648,1047.31 476.502,1047.71 476.301,1047.92C476.1,1048.13 475.773,1048.23 475.32,1048.23L474.025,1048.23L474.025,1047.12L474.675,1047.12C474.777,1047.12 474.85,1047.1 474.895,1047.07C474.94,1047.04 474.962,1046.98 474.962,1046.9C474.962,1046.88 474.958,1046.83 474.951,1046.76C474.943,1046.7 474.927,1046.57 474.904,1046.39L473.896,1039.76L475.466,1039.76L475.73,1043.24C475.742,1043.4 475.753,1043.62 475.765,1043.91C475.777,1044.19 475.79,1044.54 475.806,1044.95L475.847,1044.95C475.867,1044.69 475.889,1044.42 475.914,1044.13C475.94,1043.85 475.974,1043.5 476.017,1043.09L476.363,1039.76L477.792,1039.76L476.738,1046.72Z" style="fill:white;fill-rule:nonzero;"/>
                    <path d="M481.49,1045.25C481.49,1045.76 481.335,1046.16 481.027,1046.43C480.718,1046.71 480.273,1046.84 479.691,1046.84C479.121,1046.84 478.676,1046.71 478.358,1046.43C478.039,1046.15 477.88,1045.76 477.88,1045.27L477.88,1043.99L479.415,1043.99L479.415,1045.28C479.415,1045.43 479.437,1045.54 479.48,1045.61C479.523,1045.67 479.593,1045.7 479.691,1045.7C479.788,1045.7 479.859,1045.67 479.902,1045.61C479.945,1045.54 479.966,1045.43 479.966,1045.28L479.966,1044.66C479.966,1044.38 479.712,1044.03 479.205,1043.63C479.095,1043.54 479.009,1043.47 478.947,1043.42L478.935,1043.41C478.232,1042.83 477.88,1042.25 477.88,1041.66L477.88,1041.04C477.88,1040.59 478.038,1040.23 478.355,1039.98C478.671,1039.72 479.113,1039.6 479.679,1039.6C480.253,1039.6 480.699,1039.73 481.015,1040C481.331,1040.26 481.49,1040.63 481.49,1041.12L481.49,1042.17L479.966,1042.17L479.966,1041.1C479.966,1040.94 479.945,1040.84 479.902,1040.77C479.859,1040.71 479.788,1040.67 479.691,1040.67C479.593,1040.67 479.523,1040.71 479.48,1040.77C479.437,1040.84 479.415,1040.94 479.415,1041.1L479.415,1041.46C479.415,1041.78 479.66,1042.12 480.148,1042.5C480.261,1042.58 480.349,1042.65 480.412,1042.7C480.892,1043.09 481.192,1043.39 481.311,1043.61C481.43,1043.82 481.49,1044.11 481.49,1044.45L481.49,1045.25Z" style="fill:white;fill-rule:nonzero;"/>
                    <path d="M481.683,1040.87L481.683,1039.76L482.07,1039.76L482.07,1038.48L483.605,1038.48L483.605,1039.76L484.05,1039.76L484.05,1040.87L483.605,1040.87L483.605,1045.07C483.605,1045.28 483.631,1045.42 483.684,1045.48C483.737,1045.53 483.841,1045.56 483.997,1045.56L484.05,1045.56L484.05,1046.67L483.089,1046.67C482.718,1046.67 482.455,1046.59 482.301,1046.42C482.147,1046.25 482.07,1045.93 482.07,1045.46L482.07,1040.87L481.683,1040.87Z" style="fill:white;fill-rule:nonzero;"/>
                    <path d="M485.814,1041.1L485.814,1042.4L486.365,1042.4L486.365,1041.1C486.365,1040.94 486.343,1040.84 486.3,1040.77C486.257,1040.71 486.187,1040.67 486.089,1040.67C485.992,1040.67 485.921,1040.71 485.878,1040.77C485.835,1040.84 485.814,1040.94 485.814,1041.1ZM485.814,1045.28C485.814,1045.43 485.835,1045.54 485.878,1045.61C485.921,1045.67 485.992,1045.7 486.089,1045.7C486.187,1045.7 486.257,1045.67 486.3,1045.61C486.343,1045.54 486.365,1045.43 486.365,1045.28L486.365,1043.99L487.888,1043.99L487.888,1045.27C487.888,1045.77 487.731,1046.16 487.416,1046.43C487.102,1046.71 486.66,1046.84 486.089,1046.84C485.445,1046.84 484.984,1046.7 484.706,1046.4C484.429,1046.1 484.29,1045.59 484.29,1044.88L484.29,1041.57C484.29,1040.84 484.427,1040.33 484.701,1040.04C484.974,1039.74 485.433,1039.6 486.078,1039.6C486.644,1039.6 487.087,1039.73 487.408,1039.99C487.728,1040.26 487.888,1040.62 487.888,1041.09L487.888,1043.43L485.814,1043.43L485.814,1045.28Z" style="fill:white;fill-rule:nonzero;"/>
                    <path d="M488.369,1046.67L488.369,1039.76L489.857,1039.76L489.857,1040.34L489.88,1040.34C490.001,1040.1 490.153,1039.92 490.334,1039.81C490.516,1039.69 490.728,1039.63 490.97,1039.63C491.201,1039.63 491.394,1039.69 491.55,1039.81C491.706,1039.93 491.822,1040.11 491.896,1040.34L491.919,1040.34C492.056,1040.1 492.215,1039.92 492.397,1039.81C492.579,1039.69 492.788,1039.63 493.027,1039.63C493.363,1039.63 493.611,1039.73 493.771,1039.92C493.931,1040.11 494.011,1040.41 494.011,1040.81L494.011,1046.67L492.482,1046.67L492.482,1041.31C492.482,1041.15 492.461,1041.05 492.42,1040.99C492.379,1040.93 492.308,1040.9 492.206,1040.9C492.113,1040.9 492.043,1040.94 491.998,1041C491.954,1041.07 491.931,1041.17 491.931,1041.31L491.931,1046.67L490.431,1046.67L490.431,1041.31C490.431,1041.15 490.411,1041.05 490.37,1040.99C490.329,1040.93 490.257,1040.9 490.156,1040.9C490.062,1040.9 489.993,1040.94 489.948,1041C489.903,1041.07 489.88,1041.17 489.88,1041.31L489.88,1046.67L488.369,1046.67Z" style="fill:white;fill-rule:nonzero;"/>
                    <path d="M535.021,1046.67L535.021,1038.03L536.749,1038.03L536.749,1045.37L538.238,1045.37L538.238,1046.67L535.021,1046.67Z" style="fill:white;fill-rule:nonzero;"/>
                    <path d="M538.712,1046.67L540.095,1038.03L542.304,1038.03L543.324,1046.67L541.537,1046.67L541.367,1044.37L540.511,1044.37L540.288,1046.67L538.712,1046.67ZM540.646,1043.1L541.285,1043.1L541.091,1040.46C541.08,1040.32 541.07,1040.05 541.062,1039.66C541.058,1039.49 541.056,1039.36 541.056,1039.27L540.992,1039.27C540.976,1039.6 540.962,1039.87 540.951,1040.06C540.939,1040.26 540.929,1040.39 540.921,1040.45L540.646,1043.1Z" style="fill:white;fill-rule:nonzero;"/>
                    <path d="M543.658,1046.67L543.658,1038.03L546.025,1038.03L546.634,1041.69C546.689,1042.02 546.736,1042.39 546.775,1042.8C546.814,1043.2 546.847,1043.67 546.874,1044.19L546.945,1044.19C546.917,1043.58 546.897,1043.05 546.883,1042.59C546.87,1042.14 546.863,1041.81 546.863,1041.61L546.851,1038.03L548.205,1038.03L548.205,1046.67L546.177,1046.67L545.292,1041.98C545.257,1041.8 545.213,1041.52 545.161,1041.15C545.108,1040.78 545.054,1040.37 544.999,1039.93L544.953,1039.93C544.976,1040.29 544.995,1040.6 545.008,1040.87C545.022,1041.14 545.029,1041.36 545.029,1041.54L545.029,1046.67L543.658,1046.67Z" style="fill:white;fill-rule:nonzero;"/>
                    <path d="M591.787,1046.67L590.925,1038.03L592.66,1038.03L592.865,1041.33C592.884,1041.62 592.901,1041.94 592.914,1042.28C592.928,1042.63 592.945,1043.13 592.964,1043.78L593.023,1043.78C593.05,1043.39 593.079,1043.03 593.108,1042.69C593.137,1042.36 593.165,1042.07 593.193,1041.84L593.644,1038.03L595.472,1038.03L595.83,1042.11C595.833,1042.18 595.851,1042.4 595.882,1042.78C595.913,1043.16 595.941,1043.5 595.964,1043.78L596.023,1043.78C596.038,1043.3 596.057,1042.86 596.079,1042.46C596.1,1042.05 596.124,1041.66 596.152,1041.28L596.421,1038.03L597.869,1038.03L596.937,1046.67L594.945,1046.67L594.511,1042.04C594.496,1041.88 594.481,1041.68 594.467,1041.47C594.454,1041.25 594.441,1040.97 594.429,1040.63L594.365,1040.63L593.755,1046.67L591.787,1046.67Z" style="fill:white;fill-rule:nonzero;"/>
                    <path d="M598.326,1046.67L598.326,1038.03L600.054,1038.03L600.054,1045.37L601.542,1045.37L601.542,1046.67L598.326,1046.67Z" style="fill:white;fill-rule:nonzero;"/>
                    <path d="M602.017,1046.67L603.4,1038.03L605.609,1038.03L606.628,1046.67L604.841,1046.67L604.671,1044.37L603.816,1044.37L603.593,1046.67L602.017,1046.67ZM603.951,1043.1L604.589,1043.1L604.396,1040.46C604.384,1040.32 604.374,1040.05 604.367,1039.66C604.363,1039.49 604.361,1039.36 604.361,1039.27L604.296,1039.27C604.281,1039.6 604.267,1039.87 604.255,1040.06C604.244,1040.26 604.234,1040.39 604.226,1040.45L603.951,1043.1Z" style="fill:white;fill-rule:nonzero;"/>
                    <path d="M606.962,1046.67L606.962,1038.03L609.33,1038.03L609.939,1041.69C609.994,1042.02 610.04,1042.39 610.08,1042.8C610.119,1043.2 610.152,1043.67 610.179,1044.19L610.249,1044.19C610.222,1043.58 610.202,1043.05 610.188,1042.59C610.174,1042.14 610.167,1041.81 610.167,1041.61L610.156,1038.03L611.509,1038.03L611.509,1046.67L609.482,1046.67L608.597,1041.98C608.562,1041.8 608.518,1041.52 608.465,1041.15C608.413,1040.78 608.359,1040.37 608.304,1039.93L608.257,1039.93C608.281,1040.29 608.299,1040.6 608.313,1040.87C608.327,1041.14 608.333,1041.36 608.333,1041.54L608.333,1046.67L606.962,1046.67Z" style="fill:white;fill-rule:nonzero;"/>
                    <path d="M685.261,1039.5L685.261,1045.14C685.261,1045.29 685.284,1045.4 685.329,1045.46C685.373,1045.53 685.447,1045.56 685.548,1045.56C685.658,1045.56 685.735,1045.53 685.78,1045.46C685.825,1045.39 685.847,1045.29 685.847,1045.14L685.847,1039.5C685.847,1039.34 685.825,1039.24 685.78,1039.17C685.735,1039.11 685.658,1039.08 685.548,1039.08C685.447,1039.08 685.373,1039.11 685.329,1039.18C685.284,1039.25 685.261,1039.35 685.261,1039.5ZM683.533,1040.08C683.533,1039.27 683.689,1038.7 684.001,1038.36C684.314,1038.02 684.83,1037.84 685.548,1037.84C686.267,1037.84 686.783,1038.01 687.095,1038.35C687.408,1038.69 687.564,1039.26 687.564,1040.08L687.564,1044.65C687.564,1045.24 687.49,1045.68 687.341,1045.98C687.193,1046.28 686.939,1046.51 686.58,1046.67C686.58,1046.77 686.6,1046.84 686.641,1046.88C686.682,1046.92 686.746,1046.94 686.831,1046.94L687.529,1046.94L687.529,1048.2L686.462,1048.2C686.24,1048.2 686.068,1048.09 685.947,1047.87C685.826,1047.65 685.765,1047.34 685.765,1046.93L685.765,1046.87C685.699,1046.87 685.638,1046.88 685.583,1046.88C685.529,1046.88 685.476,1046.88 685.425,1046.88C684.773,1046.88 684.294,1046.7 683.99,1046.35C683.685,1045.99 683.533,1045.42 683.533,1044.65L683.533,1040.08Z" style="fill:white;fill-rule:nonzero;"/>
                    <path d="M687.997,1039.59C687.997,1039.03 688.174,1038.61 688.528,1038.3C688.881,1038 689.376,1037.84 690.013,1037.84C690.654,1037.84 691.148,1038 691.496,1038.3C691.843,1038.61 692.017,1039.05 692.017,1039.62L692.017,1041.03L690.3,1041.03L690.3,1039.5C690.3,1039.34 690.279,1039.23 690.236,1039.17C690.193,1039.11 690.119,1039.08 690.013,1039.08C689.904,1039.08 689.827,1039.11 689.782,1039.18C689.737,1039.24 689.714,1039.35 689.714,1039.5L689.714,1040.26C689.714,1040.39 689.731,1040.51 689.764,1040.6C689.797,1040.7 689.851,1040.79 689.925,1040.88L691.583,1042.7C691.74,1042.87 691.851,1043.05 691.917,1043.24C691.984,1043.42 692.017,1043.72 692.017,1044.13L692.017,1045.14C692.017,1045.69 691.842,1046.12 691.493,1046.42C691.143,1046.72 690.646,1046.87 690.001,1046.87C689.341,1046.87 688.842,1046.71 688.504,1046.4C688.166,1046.09 687.997,1045.63 687.997,1045.02L687.997,1043.4L689.714,1043.4L689.714,1045.14C689.714,1045.29 689.737,1045.39 689.782,1045.46C689.827,1045.53 689.904,1045.56 690.013,1045.56C690.115,1045.56 690.188,1045.53 690.233,1045.46C690.278,1045.4 690.3,1045.29 690.3,1045.14L690.3,1044.22C690.3,1044.1 690.278,1043.98 690.233,1043.88C690.188,1043.77 690.111,1043.65 690.001,1043.53L688.443,1041.76C688.283,1041.59 688.168,1041.4 688.1,1041.22C688.032,1041.04 687.997,1040.8 687.997,1040.49L687.997,1040.36L687.997,1039.59Z" style="fill:white;fill-rule:nonzero;"/>
                    <path d="M692.415,1039.59C692.415,1039.03 692.592,1038.61 692.946,1038.3C693.299,1038 693.794,1037.84 694.431,1037.84C695.072,1037.84 695.566,1038 695.913,1038.3C696.261,1038.61 696.435,1039.05 696.435,1039.62L696.435,1041.03L694.718,1041.03L694.718,1039.5C694.718,1039.34 694.697,1039.23 694.654,1039.17C694.611,1039.11 694.537,1039.08 694.431,1039.08C694.322,1039.08 694.245,1039.11 694.2,1039.18C694.155,1039.24 694.132,1039.35 694.132,1039.5L694.132,1040.26C694.132,1040.39 694.149,1040.51 694.182,1040.6C694.215,1040.7 694.269,1040.79 694.343,1040.88L696.001,1042.7C696.158,1042.87 696.269,1043.05 696.335,1043.24C696.402,1043.42 696.435,1043.72 696.435,1044.13L696.435,1045.14C696.435,1045.69 696.26,1046.12 695.911,1046.42C695.561,1046.72 695.064,1046.87 694.419,1046.87C693.759,1046.87 693.26,1046.71 692.922,1046.4C692.584,1046.09 692.415,1045.63 692.415,1045.02L692.415,1043.4L694.132,1043.4L694.132,1045.14C694.132,1045.29 694.155,1045.39 694.2,1045.46C694.245,1045.53 694.322,1045.56 694.431,1045.56C694.533,1045.56 694.606,1045.53 694.651,1045.46C694.696,1045.4 694.718,1045.29 694.718,1045.14L694.718,1044.22C694.718,1044.1 694.696,1043.98 694.651,1043.88C694.606,1043.77 694.529,1043.65 694.419,1043.53L692.861,1041.76C692.701,1041.59 692.586,1041.4 692.518,1041.22C692.45,1041.04 692.415,1040.8 692.415,1040.49L692.415,1040.36L692.415,1039.59Z" style="fill:white;fill-rule:nonzero;"/>
                    <path d="M743.585,1039.5L743.585,1045.14C743.585,1045.29 743.608,1045.4 743.653,1045.46C743.698,1045.53 743.771,1045.56 743.872,1045.56C743.982,1045.56 744.059,1045.53 744.104,1045.46C744.149,1045.39 744.171,1045.29 744.171,1045.14L744.171,1039.5C744.171,1039.34 744.149,1039.24 744.104,1039.17C744.059,1039.11 743.982,1039.08 743.872,1039.08C743.771,1039.08 743.698,1039.11 743.653,1039.18C743.608,1039.25 743.585,1039.35 743.585,1039.5ZM741.857,1040.08C741.857,1039.27 742.013,1038.7 742.326,1038.36C742.638,1038.02 743.154,1037.84 743.872,1037.84C744.591,1037.84 745.107,1038.01 745.419,1038.35C745.732,1038.69 745.888,1039.26 745.888,1040.08L745.888,1044.65C745.888,1045.24 745.814,1045.68 745.665,1045.98C745.517,1046.28 745.263,1046.51 744.904,1046.67C744.904,1046.77 744.924,1046.84 744.965,1046.88C745.006,1046.92 745.07,1046.94 745.156,1046.94L745.853,1046.94L745.853,1048.2L744.787,1048.2C744.564,1048.2 744.392,1048.09 744.271,1047.87C744.15,1047.65 744.089,1047.34 744.089,1046.93L744.089,1046.87C744.023,1046.87 743.962,1046.88 743.908,1046.88C743.853,1046.88 743.8,1046.88 743.749,1046.88C743.097,1046.88 742.619,1046.7 742.314,1046.35C742.009,1045.99 741.857,1045.42 741.857,1044.65L741.857,1040.08Z" style="fill:white;fill-rule:nonzero;"/>
                    <path d="M746.322,1039.59C746.322,1039.03 746.498,1038.61 746.852,1038.3C747.205,1038 747.701,1037.84 748.337,1037.84C748.978,1037.84 749.472,1038 749.82,1038.3C750.167,1038.61 750.341,1039.05 750.341,1039.62L750.341,1041.03L748.624,1041.03L748.624,1039.5C748.624,1039.34 748.603,1039.23 748.56,1039.17C748.517,1039.11 748.443,1039.08 748.337,1039.08C748.228,1039.08 748.151,1039.11 748.106,1039.18C748.061,1039.24 748.038,1039.35 748.038,1039.5L748.038,1040.26C748.038,1040.39 748.055,1040.51 748.088,1040.6C748.121,1040.7 748.175,1040.79 748.249,1040.88L749.908,1042.7C750.064,1042.87 750.175,1043.05 750.242,1043.24C750.308,1043.42 750.341,1043.72 750.341,1044.13L750.341,1045.14C750.341,1045.69 750.166,1046.12 749.817,1046.42C749.467,1046.72 748.97,1046.87 748.326,1046.87C747.665,1046.87 747.166,1046.71 746.829,1046.4C746.491,1046.09 746.322,1045.63 746.322,1045.02L746.322,1043.4L748.038,1043.4L748.038,1045.14C748.038,1045.29 748.061,1045.39 748.106,1045.46C748.151,1045.53 748.228,1045.56 748.337,1045.56C748.439,1045.56 748.512,1045.53 748.557,1045.46C748.602,1045.4 748.624,1045.29 748.624,1045.14L748.624,1044.22C748.624,1044.1 748.602,1043.98 748.557,1043.88C748.512,1043.77 748.435,1043.65 748.326,1043.53L746.767,1041.76C746.607,1041.59 746.493,1041.4 746.424,1041.22C746.356,1041.04 746.322,1040.8 746.322,1040.49L746.322,1040.36L746.322,1039.59Z" style="fill:white;fill-rule:nonzero;"/>
                    <path d="M750.74,1039.59C750.74,1039.03 750.916,1038.61 751.27,1038.3C751.623,1038 752.119,1037.84 752.755,1037.84C753.396,1037.84 753.89,1038 754.238,1038.3C754.585,1038.61 754.759,1039.05 754.759,1039.62L754.759,1041.03L753.042,1041.03L753.042,1039.5C753.042,1039.34 753.021,1039.23 752.978,1039.17C752.935,1039.11 752.861,1039.08 752.755,1039.08C752.646,1039.08 752.569,1039.11 752.524,1039.18C752.479,1039.24 752.456,1039.35 752.456,1039.5L752.456,1040.26C752.456,1040.39 752.473,1040.51 752.506,1040.6C752.539,1040.7 752.593,1040.79 752.667,1040.88L754.326,1042.7C754.482,1042.87 754.593,1043.05 754.66,1043.24C754.726,1043.42 754.759,1043.72 754.759,1044.13L754.759,1045.14C754.759,1045.69 754.584,1046.12 754.235,1046.42C753.885,1046.72 753.388,1046.87 752.744,1046.87C752.083,1046.87 751.584,1046.71 751.246,1046.4C750.909,1046.09 750.74,1045.63 750.74,1045.02L750.74,1043.4L752.456,1043.4L752.456,1045.14C752.456,1045.29 752.479,1045.39 752.524,1045.46C752.569,1045.53 752.646,1045.56 752.755,1045.56C752.857,1045.56 752.93,1045.53 752.975,1045.46C753.02,1045.4 753.042,1045.29 753.042,1045.14L753.042,1044.22C753.042,1044.1 753.02,1043.98 752.975,1043.88C752.93,1043.77 752.853,1043.65 752.744,1043.53L751.185,1041.76C751.025,1041.59 750.911,1041.4 750.842,1041.22C750.774,1041.04 750.74,1040.8 750.74,1040.49L750.74,1040.36L750.74,1039.59Z" style="fill:white;fill-rule:nonzero;"/>
                </g>
                <g transform="matrix(1,0,0,1,-234.086,60.0748)">
                    <g id="reset">
                        <ellipse cx="882.113" cy="1013.72" rx="10.926" ry="10.594" style="fill:rgb(108,108,108);stroke-width:3.5px;stroke:rgb(35,31,32);"/>
                    </g>
                </g>
            </g>
        </g>
    </g>
</svg>
