<?xml version="1.0" encoding="UTF-8" standalone="no"?>
<!DOCTYPE svg PUBLIC "-//W3C//DTD SVG 1.1//EN" "http://www.w3.org/Graphics/SVG/1.1/DTD/svg11.dtd">
<svg width="100%" height="100%" viewBox="0 0 1280 1150" version="1.1" xmlns="http://www.w3.org/2000/svg" xmlns:xlink="http://www.w3.org/1999/xlink" xml:space="preserve" style="fill-rule:evenodd;clip-rule:evenodd;stroke-linecap:round;stroke-linejoin:round;stroke-miterlimit:1.41421;">
    <g transform="matrix(1,0,0,1.00016,0,14.2203)">
        <path d="M779.071,85.965C779.071,65.349 762.331,48.611 741.712,48.611L462.748,48.611C442.129,48.611 425.389,65.349 425.389,85.965L425.389,1054.57C425.389,1075.19 442.129,1091.93 462.748,1091.93L741.712,1091.93C762.331,1091.93 779.071,1075.19 779.071,1054.57L779.071,85.965Z" style="fill:rgb(246,246,246);stroke-width:3px;stroke:black;"/>
    </g>
    <g transform="matrix(1.42,0,0,1.12,-206.886,-49.6191)">
        <path d="M493.098,405.736L517.303,405.736L517.303,412.099L509.182,412.099L509.182,431.505L501.219,431.505L501.219,412.099L493.098,412.099L493.098,405.736Z" style="fill:black;fill-rule:nonzero;"/>
        <path d="M520.871,405.736L534.108,405.736C536.99,405.736 539.15,406.421 540.585,407.792C542.021,409.164 542.738,411.115 542.738,413.646C542.738,416.248 541.956,418.281 540.392,419.746C538.827,421.21 536.44,421.943 533.229,421.943L528.869,421.943L528.869,431.505L520.871,431.505L520.871,405.736ZM528.869,416.722L530.82,416.722C532.356,416.722 533.434,416.456 534.055,415.922C534.676,415.389 534.987,414.707 534.987,413.874C534.987,413.066 534.717,412.38 534.178,411.818C533.639,411.255 532.625,410.974 531.137,410.974L528.869,410.974L528.869,416.722Z" style="fill:black;fill-rule:nonzero;"/>
        <rect x="545.059" y="419.341" width="10.406" height="5.537" style="fill:black;fill-rule:nonzero;"/>
        <path d="M558.893,405.736L566.856,405.736L566.856,425.16L579.283,425.16L579.283,431.505L558.893,431.505L558.893,405.736Z" style="fill:black;fill-rule:nonzero;"/>
        <rect x="583.221" y="405.736" width="7.98" height="25.77" style="fill:black;fill-rule:nonzero;"/>
        <path d="M596.967,405.736L604.403,405.736L614.106,419.992L614.106,405.736L621.612,405.736L621.612,431.505L614.106,431.505L604.455,417.355L604.455,431.505L596.967,431.505L596.967,405.736Z" style="fill:black;fill-rule:nonzero;"/>
        <path d="M626.938,405.736L634.901,405.736L634.901,415.474L643.25,405.736L653.832,405.736L644.445,415.457L654.254,431.505L644.445,431.505L639.014,420.906L634.901,425.212L634.901,431.505L626.938,431.505L626.938,405.736Z" style="fill:black;fill-rule:nonzero;"/>
    </g>
</svg>
