<?xml version="1.0" standalone="no"?>
<!DOCTYPE svg PUBLIC "-//W3C//DTD SVG 1.1//EN" "http://www.w3.org/Graphics/SVG/1.1/DTD/svg11.dtd">
<svg width="100%" height="100%" viewBox="0 0 1280 1150" version="1.1" xmlns="http://www.w3.org/2000/svg" xmlns:xlink="http://www.w3.org/1999/xlink" xml:space="preserve" style="fill-rule:evenodd;clip-rule:evenodd;stroke-linecap:round;stroke-linejoin:round;stroke-miterlimit:1.41421;">
    <path d="M383.775,766.477L463.986,766.477L807.691,383.469L808.982,372.518C806.392,357.512 800.281,345.986 792.389,336.221L788.305,337.021L383.775,766.477Z" style="fill:white;"/>
    <g id="Ebene6">
        <path d="M544.721,291.396L792.334,336.179L397.572,764.35L150.785,696.178C149.325,695.775 150.029,693.386 150.785,692.545C273.87,555.654 405.195,422.674 542.046,292.59C542.662,292.004 543.946,291.256 544.721,291.396Z" style="fill:white;stroke-width:0.65px;stroke:rgb(50,50,50);"/>
        <path d="M792.398,336.258C802.023,347.285 806.868,360.774 809.045,372.491" style="fill:none;stroke-width:0.6px;stroke:black;"/>
        <path d="M536.281,506.796C538.68,499.753 543.991,495.104 552.615,493.333C559.867,491.891 566.964,492.773 572.773,497.86C560.715,501.978 548.543,504.866 536.281,506.796Z" style="fill:black;stroke-width:0.6px;stroke:rgb(21,21,21);"/>
        <path d="M559.453,450.688C597.216,431.549 634.729,421.328 673.467,428.566" style="fill:none;stroke-width:0.6px;stroke:rgb(21,21,21);"/>
        <path d="M526.49,375.382L495.678,406.305L527.69,482.31" style="fill:none;stroke-width:0.6px;stroke:rgb(21,21,21);"/>
        <path d="M495.753,406.309L482.266,404.502" style="fill:none;stroke-width:0.6px;stroke:rgb(21,21,21);"/>
        <path d="M500.592,494.376L513.682,480.343L527.696,482.329L559.375,450.769L526.497,375.362L482.201,404.472L513.682,480.343" style="fill:none;stroke-width:0.6px;stroke:rgb(21,21,21);"/>
        <g transform="matrix(0.971654,-0.41053,0.373158,0.883201,-134.463,263.096)">
            <ellipse cx="548.553" cy="435.276" rx="127.75" ry="78.078" style="fill:none;stroke-width:0.6px;stroke:rgb(21,21,21);"/>
        </g>
        <path d="M506.443,508.845L473.772,429.144L444.107,458.376L444.097,458.383L457.065,429.17L457.061,429.144L473.772,429.144" style="fill:none;stroke-width:0.6px;stroke:rgb(21,21,21);"/>
        <path d="M655.838,448.878L632.344,420.81" style="fill:none;stroke-width:0.45px;stroke:black;"/>
        <path d="M628.845,374.145C630.459,369.897 632.397,365.697 635.175,361.626C637.926,356.185 650.725,360.437 647.135,367.116C644.672,371.698 642.51,376.422 641.117,381.509C638.858,391.188 639.577,400.176 641.117,408.975C640.38,408.963 657.726,432.669 664.987,439.255C662.122,442.536 659.111,445.735 655.939,448.845L632.529,421.003C624.623,406.846 622.795,391.358 628.845,374.145Z" style="fill:rgb(115,115,115);stroke-width:0.45px;stroke:black;"/>
    </g>
    <g id="Ebene7">
        <path d="M150.283,696.319L396.899,764.475L501.354,980.506L257.439,903.949L150.283,696.319Z" style="fill:white;stroke-width:0.65px;stroke:rgb(31,31,31);"/>
        <path d="M808.972,372.342L448.123,759.515C436.359,765.144 415.87,764.427 396.915,764.519L501.36,980.502C515.604,976.05 530.159,971.133 543.123,963.986L882.149,577.906C882.868,573.116 883.382,568.312 882.807,563.428L808.972,372.342Z" style="fill:white;stroke-width:0.65px;stroke:rgb(31,31,31);"/>
        <path d="M543.129,963.867L448.14,759.534" style="fill:none;stroke-width:0.65px;stroke:rgb(31,31,31);"/>
        <g id="Lüftung">
            <g>
                <path d="M518.38,805.592L824.764,468.541L518.38,805.592Z" style="fill:rgb(179,179,179);stroke-width:0.6px;stroke:rgb(21,21,21);"/>
                <path d="M511.024,821.75L823.761,475.324L511.024,821.75Z" style="fill:rgb(179,179,179);stroke-width:0.6px;stroke:rgb(21,21,21);"/>
                <path d="M518.374,805.608L521.149,810.5L590.674,733.52L587.795,729.227L518.374,805.608Z" style="fill:rgb(140,140,140);stroke-width:0.6px;stroke:rgb(21,21,21);"/>
                <g transform="matrix(1,0,0,1,81.3569,-90.3327)">
                    <path d="M518.589,806.21L521.662,810.174L590.674,733.744L588.369,729.431L518.589,806.21Z" style="fill:rgb(140,140,140);stroke-width:0.6px;stroke:rgb(21,21,21);"/>
                </g>
                <g transform="matrix(1,0,0,1,213.967,-235.96)">
                    <path d="M516.551,808.183L518.589,812.284L590.692,732.425L588.722,728.794L516.551,808.183Z" style="fill:rgb(140,140,140);stroke-width:0.6px;stroke:rgb(21,21,21);"/>
                </g>
                <g transform="matrix(1,0,0,1,-3.72618,-17.9993)">
                    <path d="M692.583,642.764L726.006,605.719L723.837,601.659L690.339,638.528L692.583,642.764Z" style="fill:rgb(140,140,140);stroke-width:0.6px;stroke:rgb(21,21,21);"/>
                </g>
            </g>
            <g transform="matrix(1,0,0,1,-6.91461,-14.1092)">
                <path d="M518.38,805.592L824.764,468.541L518.38,805.592Z" style="fill:rgb(179,179,179);stroke-width:0.6px;stroke:rgb(21,21,21);"/>
                <path d="M511.024,821.75L823.761,475.324L511.024,821.75Z" style="fill:rgb(179,179,179);stroke-width:0.6px;stroke:rgb(21,21,21);"/>
                <path d="M518.374,805.608L521.149,810.5L590.674,733.52L587.795,729.227L518.374,805.608Z" style="fill:rgb(140,140,140);stroke-width:0.6px;stroke:rgb(21,21,21);"/>
                <g transform="matrix(1,0,0,1,81.3569,-90.3327)">
                    <path d="M518.589,806.21L521.662,810.174L590.674,733.744L588.369,729.431L518.589,806.21Z" style="fill:rgb(140,140,140);stroke-width:0.6px;stroke:rgb(21,21,21);"/>
                </g>
                <g transform="matrix(1,0,0,1,213.967,-235.96)">
                    <path d="M516.551,808.183L518.589,812.284L590.692,732.425L588.722,728.794L516.551,808.183Z" style="fill:rgb(140,140,140);stroke-width:0.6px;stroke:rgb(21,21,21);"/>
                </g>
                <g transform="matrix(1,0,0,1,-3.72618,-17.9993)">
                    <path d="M692.583,642.764L726.006,605.719L723.837,601.659L690.339,638.528L692.583,642.764Z" style="fill:rgb(140,140,140);stroke-width:0.6px;stroke:rgb(21,21,21);"/>
                </g>
            </g>
            <g transform="matrix(1,0,0,1,8.2546,14.3396)">
                <path d="M518.38,805.592L824.764,468.541L518.38,805.592Z" style="fill:rgb(179,179,179);stroke-width:0.6px;stroke:rgb(21,21,21);"/>
                <path d="M511.024,821.75L823.761,475.324L511.024,821.75Z" style="fill:rgb(179,179,179);stroke-width:0.6px;stroke:rgb(21,21,21);"/>
                <path d="M518.374,805.608L521.149,810.5L590.674,733.52L587.795,729.227L518.374,805.608Z" style="fill:rgb(140,140,140);stroke-width:0.6px;stroke:rgb(21,21,21);"/>
                <g transform="matrix(1,0,0,1,81.3569,-90.3327)">
                    <path d="M518.589,806.21L521.662,810.174L590.674,733.744L588.369,729.431L518.589,806.21Z" style="fill:rgb(140,140,140);stroke-width:0.6px;stroke:rgb(21,21,21);"/>
                </g>
                <g transform="matrix(1,0,0,1,213.967,-235.96)">
                    <path d="M516.551,808.183L518.589,812.284L590.692,732.425L588.722,728.794L516.551,808.183Z" style="fill:rgb(140,140,140);stroke-width:0.6px;stroke:rgb(21,21,21);"/>
                </g>
                <g transform="matrix(1,0,0,1,-3.72618,-17.9993)">
                    <path d="M692.583,642.764L726.006,605.719L723.837,601.659L690.339,638.528L692.583,642.764Z" style="fill:rgb(140,140,140);stroke-width:0.6px;stroke:rgb(21,21,21);"/>
                </g>
            </g>
            <g transform="matrix(1,0,0,1,15.4048,30.4797)">
                <path d="M518.38,805.592L824.764,468.541L518.38,805.592Z" style="fill:rgb(179,179,179);stroke-width:0.6px;stroke:rgb(21,21,21);"/>
                <path d="M511.024,821.75L823.761,475.324L511.024,821.75Z" style="fill:rgb(179,179,179);stroke-width:0.6px;stroke:rgb(21,21,21);"/>
                <path d="M518.374,805.608L521.149,810.5L590.674,733.52L587.795,729.227L518.374,805.608Z" style="fill:rgb(140,140,140);stroke-width:0.6px;stroke:rgb(21,21,21);"/>
                <g transform="matrix(1,0,0,1,81.3569,-90.3327)">
                    <path d="M518.589,806.21L521.662,810.174L590.674,733.744L588.369,729.431L518.589,806.21Z" style="fill:rgb(140,140,140);stroke-width:0.6px;stroke:rgb(21,21,21);"/>
                </g>
                <g transform="matrix(1,0,0,1,213.967,-235.96)">
                    <path d="M516.551,808.183L518.589,812.284L590.692,732.425L588.722,728.794L516.551,808.183Z" style="fill:rgb(140,140,140);stroke-width:0.6px;stroke:rgb(21,21,21);"/>
                </g>
                <g transform="matrix(1,0,0,1,-3.72618,-17.9993)">
                    <path d="M692.583,642.764L726.006,605.719L723.837,601.659L690.339,638.528L692.583,642.764Z" style="fill:rgb(140,140,140);stroke-width:0.6px;stroke:rgb(21,21,21);"/>
                </g>
            </g>
            <g transform="matrix(1,0,0,1,22.8768,45.7249)">
                <path d="M518.38,805.592L824.764,468.541L518.38,805.592Z" style="fill:rgb(179,179,179);stroke-width:0.6px;stroke:rgb(21,21,21);"/>
                <path d="M511.024,821.75L823.761,475.324L511.024,821.75Z" style="fill:rgb(179,179,179);stroke-width:0.6px;stroke:rgb(21,21,21);"/>
                <path d="M518.374,805.608L521.149,810.5L590.674,733.52L587.795,729.227L518.374,805.608Z" style="fill:rgb(140,140,140);stroke-width:0.6px;stroke:rgb(21,21,21);"/>
                <g transform="matrix(1,0,0,1,81.3569,-90.3327)">
                    <path d="M518.589,806.21L521.662,810.174L590.674,733.744L588.369,729.431L518.589,806.21Z" style="fill:rgb(140,140,140);stroke-width:0.6px;stroke:rgb(21,21,21);"/>
                </g>
                <g transform="matrix(1,0,0,1,213.967,-235.96)">
                    <path d="M516.551,808.183L518.589,812.284L590.692,732.425L588.722,728.794L516.551,808.183Z" style="fill:rgb(140,140,140);stroke-width:0.6px;stroke:rgb(21,21,21);"/>
                </g>
                <g transform="matrix(1,0,0,1,-3.72618,-17.9993)">
                    <path d="M692.583,642.764L726.006,605.719L723.837,601.659L690.339,638.528L692.583,642.764Z" style="fill:rgb(140,140,140);stroke-width:0.6px;stroke:rgb(21,21,21);"/>
                </g>
            </g>
            <g transform="matrix(1,0,0,1,29.6815,58.3083)">
                <path d="M518.38,805.592L824.764,468.541L518.38,805.592Z" style="fill:rgb(179,179,179);stroke-width:0.6px;stroke:rgb(21,21,21);"/>
                <path d="M511.024,821.75L823.761,475.324L511.024,821.75Z" style="fill:rgb(179,179,179);stroke-width:0.6px;stroke:rgb(21,21,21);"/>
                <path d="M518.374,805.608L521.149,810.5L590.674,733.52L587.795,729.227L518.374,805.608Z" style="fill:rgb(140,140,140);stroke-width:0.6px;stroke:rgb(21,21,21);"/>
                <g transform="matrix(1,0,0,1,81.3569,-90.3327)">
                    <path d="M518.589,806.21L521.662,810.174L590.674,733.744L588.369,729.431L518.589,806.21Z" style="fill:rgb(140,140,140);stroke-width:0.6px;stroke:rgb(21,21,21);"/>
                </g>
                <g transform="matrix(1,0,0,1,213.967,-235.96)">
                    <path d="M516.551,808.183L518.589,812.284L590.692,732.425L588.722,728.794L516.551,808.183Z" style="fill:rgb(140,140,140);stroke-width:0.6px;stroke:rgb(21,21,21);"/>
                </g>
                <g transform="matrix(1,0,0,1,-3.72618,-17.9993)">
                    <path d="M692.583,642.764L726.006,605.719L723.837,601.659L690.339,638.528L692.583,642.764Z" style="fill:rgb(140,140,140);stroke-width:0.6px;stroke:rgb(21,21,21);"/>
                </g>
            </g>
            <g transform="matrix(1,0,0,1,36.5228,75.5346)">
                <path d="M518.38,805.592L824.764,468.541L518.38,805.592Z" style="fill:rgb(179,179,179);stroke-width:0.6px;stroke:rgb(21,21,21);"/>
                <path d="M511.024,821.75L823.761,475.324L511.024,821.75Z" style="fill:rgb(179,179,179);stroke-width:0.6px;stroke:rgb(21,21,21);"/>
                <path d="M518.374,805.608L521.149,810.5L590.674,733.52L587.795,729.227L518.374,805.608Z" style="fill:rgb(140,140,140);stroke-width:0.6px;stroke:rgb(21,21,21);"/>
                <g transform="matrix(1,0,0,1,81.3569,-90.3327)">
                    <path d="M518.589,806.21L521.662,810.174L590.674,733.744L588.369,729.431L518.589,806.21Z" style="fill:rgb(140,140,140);stroke-width:0.6px;stroke:rgb(21,21,21);"/>
                </g>
                <g transform="matrix(1,0,0,1,213.967,-235.96)">
                    <path d="M516.551,808.183L518.589,812.284L590.692,732.425L588.722,728.794L516.551,808.183Z" style="fill:rgb(140,140,140);stroke-width:0.6px;stroke:rgb(21,21,21);"/>
                </g>
                <g transform="matrix(1,0,0,1,-3.72618,-17.9993)">
                    <path d="M692.583,642.764L726.006,605.719L723.837,601.659L690.339,638.528L692.583,642.764Z" style="fill:rgb(140,140,140);stroke-width:0.6px;stroke:rgb(21,21,21);"/>
                </g>
            </g>
            <g transform="matrix(1,0,0,1,43.037,88.2463)">
                <path d="M518.38,805.592L824.764,468.541L518.38,805.592Z" style="fill:rgb(179,179,179);stroke-width:0.6px;stroke:rgb(21,21,21);"/>
                <path d="M511.024,821.75L823.761,475.324L511.024,821.75Z" style="fill:rgb(179,179,179);stroke-width:0.6px;stroke:rgb(21,21,21);"/>
                <path d="M518.374,805.608L521.149,810.5L590.674,733.52L587.795,729.227L518.374,805.608Z" style="fill:rgb(140,140,140);stroke-width:0.6px;stroke:rgb(21,21,21);"/>
                <g transform="matrix(1,0,0,1,81.3569,-90.3327)">
                    <path d="M518.589,806.21L521.662,810.174L590.674,733.744L588.369,729.431L518.589,806.21Z" style="fill:rgb(140,140,140);stroke-width:0.6px;stroke:rgb(21,21,21);"/>
                </g>
                <g transform="matrix(1,0,0,1,213.967,-235.96)">
                    <path d="M516.551,808.183L518.589,812.284L590.692,732.425L588.722,728.794L516.551,808.183Z" style="fill:rgb(140,140,140);stroke-width:0.6px;stroke:rgb(21,21,21);"/>
                </g>
                <g transform="matrix(1,0,0,1,-3.72618,-17.9993)">
                    <path d="M692.583,642.764L726.006,605.719L723.837,601.659L690.339,638.528L692.583,642.764Z" style="fill:rgb(140,140,140);stroke-width:0.6px;stroke:rgb(21,21,21);"/>
                </g>
            </g>
        </g>
        <g id="Strom">
            <path d="M687.886,799.162C702.251,798.752 718.416,792.215 735.768,781.636L761.31,752.683L774.209,752.683L788.818,738.143L784.137,724.786L803.681,703.789C804.782,692.234 803.826,681.545 799.181,672.41L687.886,799.162Z" style="fill:white;stroke-width:0.6px;stroke:rgb(21,21,21);"/>
            <path d="M774.266,700.961L784.137,724.786" style="fill:none;stroke-width:0.6px;stroke:black;"/>
            <path d="M724.727,756.996L735.768,781.636" style="fill:none;stroke-width:0.6px;stroke:black;"/>
            <path d="M761.293,752.688L751.23,727.05" style="fill:none;stroke-width:0.6px;stroke:black;"/>
            <path d="M757.487,720.045L774.167,752.666" style="fill:none;stroke-width:0.6px;stroke:black;"/>
            <path d="M739.144,777.831L758.686,822.255C769.443,832.395 782.368,826.936 782.524,810.504L758.686,755.679L739.144,777.831Z" style="fill:rgb(204,204,204);stroke-width:0.6px;stroke:rgb(21,21,21);"/>
        </g>
        <path d="M182.565,758.467L428.814,830.324C444.411,826.126 459.235,820.722 472.773,813.311L827.981,421.612" style="fill:none;stroke-width:1px;stroke:rgb(21,21,21);"/>
    </g>
    <g id="Antenne">
        <path d="M773.466,554.419L796.189,612.285C801.542,611.647 806.828,610.543 811.966,608.412C817.249,606.027 822.089,602.886 825.436,597.198C821.828,582.762 818.157,568.33 807.052,554.419C802.248,552.186 796.787,550.822 790.727,550.251C783.303,550.603 777.639,552.047 773.466,554.419Z" style="fill:white;stroke-width:0.6px;stroke:rgb(21,21,21);"/>
        <path d="M765.098,551.18L772.313,541.369L1099.25,183.598C1107.4,174.589 1111.83,170.108 1113.16,169.378C1127.21,163.97 1134.52,171.451 1138.93,183.598C1134.65,181.574 1130.44,181.812 1126.26,183.598L931.322,399.112C919.242,412.612 912.614,426.565 911.311,440.962L807.093,554.417C801.776,552.06 796.343,550.708 790.805,550.27C784.223,550.578 778.246,551.697 773.467,554.417L765.098,551.18Z" style="fill:white;stroke-width:0.6px;stroke:black;"/>
        <path d="M825.549,597.045L926.075,488.037C918.476,473.187 912.397,457.851 911.39,440.894L807.149,554.377C816.539,567.442 821.015,578.547 825.549,597.045Z" style="fill:white;stroke-width:0.6px;stroke:black;"/>
        <path d="M1138.93,183.506C1141.88,189.928 1144.72,196.385 1146.46,203.872C1148.58,212.263 1148.8,221.17 1148.33,230.262C1148.1,234.261 1143.63,241.123 1135.44,250.389L926.088,487.962C917.434,472.78 912.915,457.074 911.501,440.976C912.761,427.869 917.798,415.765 926.701,404.688L1126.33,183.62C1130.25,181.779 1134.42,181.579 1138.93,183.506Z" style="fill:white;stroke-width:0.6px;stroke:black;"/>
        <path d="M764.979,551.119L773.521,554.442L796.189,612.259L787.614,607.931L764.979,551.119Z" style="fill:white;stroke-width:0.6px;stroke:black;"/>
    </g>
    <g id="Ebene8">
        <path d="M591.836,299.792L740.598,133.08C749.974,122.621 758.564,114.782 764.355,116.285C769.139,117.752 774.928,130.187 781.196,147.85C784.307,158.18 781.956,166.231 777.859,173.555C775.404,177.884 772.467,182.193 769.09,186.485L658.552,312.078L591.836,299.792Z" style="fill:rgb(217,217,217);stroke-width:0.6px;stroke:black;"/>
        <path d="M597.702,300.835L749.873,133.08C756.722,124.83 763.004,121.279 767.705,130.818C771.415,138.248 774.107,145.961 776.067,153.879C777.226,162.819 774.156,171.255 767.705,179.289L650.906,310.582L597.702,300.835Z" style="fill:white;stroke-width:0.6px;stroke:black;"/>
        <path d="M573.67,296.593L716.831,137.658C724.468,128.787 733.366,121.572 744.525,117.328C750.613,115.234 756.585,115.109 762.492,116.082C758.093,116.362 752.306,120.933 745.937,127.299L591.744,299.863L573.67,296.593Z" style="fill:white;stroke-width:0.6px;stroke:black;"/>
    </g>
    <g id="Beschriftungen">
        <path d="M385.982,690.57L420.178,701.147L389.272,735.263L354.864,724.114L385.982,690.57Z" style="fill:rgb(13,121,242);stroke-width:0.6px;stroke:black;"/>
        <path d="M401.379,679.944L413.218,683.691L409.782,689.348L397.794,685.588L401.379,679.944Z" style="fill:rgb(50,145,0);stroke-width:0.6px;stroke:black;"/>
        <g transform="matrix(1,0,0,1,16.3378,-16.1434)">
            <path d="M401.379,679.944L413.218,683.691L409.782,689.348L397.794,685.588L401.379,679.944Z" style="fill:rgb(50,145,0);stroke-width:0.6px;stroke:black;"/>
        </g>
        <g transform="matrix(1,0,0,1,31.7619,-32.1746)">
            <path d="M401.379,679.944L413.218,683.691L409.782,689.348L397.794,685.588L401.379,679.944Z" style="fill:rgb(50,145,0);stroke-width:0.6px;stroke:black;"/>
        </g>
        <path d="M449.268,658.948C449.268,658.948 462.641,655.855 462.641,656.99C462.641,658.125 459.08,661.689 459.08,661.689L449.268,658.948Z" style="fill:rgb(140,140,140);"/>
        <g transform="matrix(0.793648,0.315579,-0.305816,0.769096,298.357,24.5098)">
            <path d="M425.249,686.322C424.985,686.298 424.719,686.298 424.455,686.322L424.336,686.9C424.083,686.936 423.836,686.997 423.598,687.083L423.181,686.637C422.939,686.738 422.709,686.861 422.494,687.003L422.704,687.559C422.504,687.707 422.323,687.874 422.163,688.058L421.561,687.864C421.406,688.063 421.273,688.276 421.164,688.499L421.647,688.883C421.554,689.103 421.488,689.331 421.449,689.565L420.823,689.675C420.797,689.918 420.797,690.164 420.823,690.407L421.449,690.517C421.488,690.75 421.554,690.979 421.647,691.199L421.164,691.583C421.273,691.806 421.406,692.019 421.561,692.218L422.163,692.024C422.323,692.208 422.504,692.375 422.704,692.522L422.494,693.078C422.709,693.221 422.939,693.344 423.181,693.445L423.598,692.999C423.836,693.085 424.083,693.146 424.336,693.181L424.455,693.76C424.719,693.784 424.985,693.784 425.249,693.76L425.368,693.181C425.621,693.146 425.868,693.085 426.106,692.999L426.523,693.445C426.765,693.344 426.995,693.221 427.21,693.078L427,692.522C427.2,692.375 427.381,692.208 427.541,692.024L428.143,692.218C428.298,692.019 428.43,691.806 428.54,691.583L428.057,691.199C428.15,690.979 428.216,690.75 428.255,690.517L428.881,690.407C428.907,690.164 428.907,689.918 428.881,689.675L428.255,689.565C428.216,689.331 428.15,689.103 428.057,688.883L428.54,688.499C428.43,688.276 428.298,688.063 428.143,687.864L427.541,688.058C427.381,687.874 427.2,687.707 427,687.559L427.21,687.003C426.995,686.861 426.765,686.738 426.523,686.637L426.106,687.083C425.868,686.997 425.621,686.936 425.368,686.9L425.249,686.322ZM424.852,689.293C425.299,689.293 425.662,689.628 425.662,690.041C425.662,690.453 425.299,690.788 424.852,690.788C424.405,690.788 424.042,690.453 424.042,690.041C424.042,689.628 424.405,689.293 424.852,689.293Z" style="fill:rgb(140,140,140);"/>
        </g>
        <path d="M439.006,676.644C422.522,674.796 455.321,659.68 443.698,676.644" style="fill:none;stroke-width:1px;stroke:rgb(140,140,140);"/>
        <ellipse cx="441.446" cy="675.75" rx="2.605" ry="2.471" style="fill:rgb(140,140,140);stroke-width:1px;stroke:rgb(140,140,140);"/>
        <g id="netzwerkdose schräg">
            <path d="M254.629,768.419L336.513,793.214L370.762,861.063L287.297,838.197L254.629,768.419Z" style="fill:rgb(204,204,204);stroke-width:0.65px;stroke:rgb(31,31,31);"/>
            <path d="M268.871,783.397L330.919,801.794L352.422,844.976L338.006,841.751L341.393,851.003L312.963,843.673L303.123,830.709L288.056,825.775L268.871,783.397Z" style="fill:rgb(51,51,51);stroke-width:0.65px;stroke:rgb(31,31,31);"/>
            <path d="M276.923,800.814L290.113,789.786L300.818,792.813L281.182,810.441L276.923,800.814Z" style="fill:rgb(64,64,64);stroke-width:0.65px;stroke:rgb(31,31,31);"/>
        </g>
        <path d="M531.226,754.031L566.423,715.079L570.645,723.28L535.756,761.381L531.226,754.031Z" style="fill:none;stroke-width:0.6px;stroke:black;"/>
        <g transform="matrix(1,0,0,1,39.9834,-44.158)">
            <path d="M531.226,754.031L566.423,715.079L570.645,723.28L535.756,761.381L531.226,754.031Z" style="fill:none;stroke-width:0.6px;stroke:black;"/>
        </g>
        <path d="M508.612,778.565L515.726,770.564C515.726,770.564 519.94,778.592 519.94,778.565C519.94,778.537 512.79,786.501 512.79,786.501L508.612,778.565Z" style="fill:none;stroke-width:0.6px;stroke:black;"/>
        <g transform="matrix(0.663936,-0.74779,0.74779,0.663936,-397.984,635.085)">
            <path d="M494.555,756.579L494.555,749.421L497.597,749.421C498.362,749.421 498.918,749.485 499.265,749.614C499.611,749.742 499.889,749.971 500.097,750.3C500.305,750.629 500.41,751.005 500.41,751.428C500.41,751.965 500.252,752.408 499.936,752.758C499.62,753.108 499.148,753.329 498.52,753.42C498.832,753.602 499.09,753.802 499.294,754.02C499.497,754.239 499.772,754.626 500.117,755.183L500.991,756.579L499.262,756.579L498.217,755.021C497.846,754.465 497.592,754.114 497.456,753.969C497.319,753.824 497.174,753.725 497.021,753.671C496.868,753.618 496.625,753.591 496.293,753.591L496,753.591L496,756.579L494.555,756.579ZM496,752.448L497.07,752.448C497.763,752.448 498.196,752.419 498.369,752.36C498.541,752.302 498.676,752.201 498.774,752.058C498.872,751.914 498.92,751.735 498.92,751.52C498.92,751.28 498.856,751.085 498.727,750.937C498.599,750.789 498.417,750.695 498.183,750.656C498.066,750.64 497.714,750.632 497.128,750.632L496,750.632L496,752.448Z" style="fill:black;fill-rule:nonzero;"/>
            <path d="M501.772,756.579L501.772,749.421L507.08,749.421L507.08,750.632L503.217,750.632L503.217,752.219L506.811,752.219L506.811,753.425L503.217,753.425L503.217,755.373L507.216,755.373L507.216,756.579L501.772,756.579Z" style="fill:black;fill-rule:nonzero;"/>
            <path d="M508.076,754.25L509.482,754.113C509.567,754.585 509.738,754.932 509.997,755.153C510.256,755.375 510.605,755.485 511.044,755.485C511.51,755.485 511.861,755.387 512.097,755.19C512.333,754.993 512.451,754.763 512.451,754.499C512.451,754.33 512.401,754.186 512.302,754.067C512.202,753.948 512.029,753.845 511.782,753.757C511.612,753.698 511.227,753.594 510.624,753.444C509.85,753.252 509.306,753.016 508.994,752.736C508.554,752.342 508.334,751.862 508.334,751.296C508.334,750.931 508.438,750.59 508.644,750.273C508.851,749.956 509.149,749.714 509.538,749.548C509.927,749.382 510.397,749.299 510.947,749.299C511.845,749.299 512.521,749.496 512.976,749.89C513.43,750.283 513.668,750.809 513.691,751.467L512.246,751.53C512.184,751.162 512.051,750.898 511.848,750.737C511.644,750.576 511.339,750.495 510.932,750.495C510.512,750.495 510.183,750.581 509.946,750.754C509.793,750.865 509.716,751.013 509.716,751.198C509.716,751.367 509.788,751.512 509.931,751.633C510.113,751.786 510.556,751.945 511.259,752.111C511.962,752.277 512.482,752.449 512.819,752.626C513.156,752.804 513.42,753.046 513.61,753.354C513.801,753.662 513.896,754.042 513.896,754.494C513.896,754.904 513.782,755.288 513.554,755.646C513.326,756.005 513.004,756.271 512.587,756.445C512.171,756.619 511.651,756.706 511.03,756.706C510.125,756.706 509.43,756.497 508.945,756.079C508.46,755.66 508.17,755.051 508.076,754.25Z" style="fill:black;fill-rule:nonzero;"/>
            <path d="M515.112,756.579L515.112,749.421L520.419,749.421L520.419,750.632L516.557,750.632L516.557,752.219L520.151,752.219L520.151,753.425L516.557,753.425L516.557,755.373L520.556,755.373L520.556,756.579L515.112,756.579Z" style="fill:black;fill-rule:nonzero;"/>
            <path d="M523.393,756.579L523.393,750.632L521.269,750.632L521.269,749.421L526.957,749.421L526.957,750.632L524.838,750.632L524.838,756.579L523.393,756.579Z" style="fill:black;fill-rule:nonzero;"/>
            <path d="M602.612,753.044C602.612,752.315 602.721,751.703 602.939,751.208C603.102,750.843 603.324,750.516 603.605,750.227C603.887,749.937 604.195,749.722 604.531,749.582C604.977,749.393 605.491,749.299 606.074,749.299C607.128,749.299 607.972,749.626 608.605,750.28C609.239,750.935 609.555,751.844 609.555,753.01C609.555,754.165 609.241,755.069 608.613,755.722C607.984,756.375 607.145,756.701 606.093,756.701C605.029,756.701 604.182,756.376 603.554,755.727C602.926,755.078 602.612,754.183 602.612,753.044ZM604.101,752.995C604.101,753.806 604.288,754.42 604.663,754.838C605.037,755.257 605.512,755.466 606.088,755.466C606.665,755.466 607.137,755.258 607.507,754.843C607.876,754.428 608.061,753.806 608.061,752.976C608.061,752.155 607.881,751.543 607.521,751.14C607.162,750.736 606.684,750.534 606.088,750.534C605.493,750.534 605.012,750.738 604.648,751.147C604.283,751.555 604.101,752.172 604.101,752.995Z" style="fill:black;fill-rule:nonzero;"/>
            <path d="M610.698,756.579L610.698,749.421L612.104,749.421L615.034,754.201L615.034,749.421L616.376,749.421L616.376,756.579L614.926,756.579L612.04,751.911L612.04,756.579L610.698,756.579Z" style="fill:black;fill-rule:nonzero;"/>
            <path d="M617.163,756.701L618.935,749.299L619.965,749.299L618.173,756.701L617.163,756.701Z" style="fill:black;fill-rule:nonzero;"/>
            <path d="M620.39,753.044C620.39,752.315 620.499,751.703 620.717,751.208C620.88,750.843 621.102,750.516 621.384,750.227C621.665,749.937 621.974,749.722 622.309,749.582C622.755,749.393 623.269,749.299 623.852,749.299C624.907,749.299 625.751,749.626 626.384,750.28C627.017,750.935 627.333,751.844 627.333,753.01C627.333,754.165 627.019,755.069 626.391,755.722C625.763,756.375 624.923,756.701 623.872,756.701C622.807,756.701 621.961,756.376 621.332,755.727C620.704,755.078 620.39,754.183 620.39,753.044ZM621.879,752.995C621.879,753.806 622.067,754.42 622.441,754.838C622.815,755.257 623.29,755.466 623.867,755.466C624.443,755.466 624.916,755.258 625.285,754.843C625.655,754.428 625.839,753.806 625.839,752.976C625.839,752.155 625.659,751.543 625.3,751.14C624.94,750.736 624.462,750.534 623.867,750.534C623.271,750.534 622.791,750.738 622.426,751.147C622.062,751.555 621.879,752.172 621.879,752.995Z" style="fill:black;fill-rule:nonzero;"/>
            <path d="M628.471,756.579L628.471,749.421L633.378,749.421L633.378,750.632L629.916,750.632L629.916,752.326L632.905,752.326L632.905,753.537L629.916,753.537L629.916,756.579L628.471,756.579Z" style="fill:black;fill-rule:nonzero;"/>
            <path d="M634.58,756.579L634.58,749.421L639.487,749.421L639.487,750.632L636.025,750.632L636.025,752.326L639.013,752.326L639.013,753.537L636.025,753.537L636.025,756.579L634.58,756.579Z" style="fill:black;fill-rule:nonzero;"/>
        </g>
        <g id="schloss" transform="matrix(0.685034,-0.728511,0.645003,0.606509,74.6355,463.221)">
            <g transform="matrix(1,0,0,1,0.0502965,0.617687)">
                <circle cx="130.115" cy="574.922" r="2.091" style="fill:rgb(204,204,204);stroke-width:0.69px;stroke:rgb(50,50,50);"/>
            </g>
            <g transform="matrix(0.993061,0,0,0.92328,0.878989,44.1773)">
                <rect x="126.667" y="575.826" width="6.949" height="7.536" style="fill:rgb(204,204,204);stroke-width:0.71px;stroke:rgb(50,50,50);"/>
            </g>
        </g>
    </g>
</svg>
