<?xml version="1.0" standalone="no"?>
<!DOCTYPE svg PUBLIC "-//W3C//DTD SVG 1.1//EN" "http://www.w3.org/Graphics/SVG/1.1/DTD/svg11.dtd">
<svg width="100%" height="100%" viewBox="0 0 1280 1150" version="1.1" xmlns="http://www.w3.org/2000/svg" xmlns:xlink="http://www.w3.org/1999/xlink" xml:space="preserve" style="fill-rule:evenodd;clip-rule:evenodd;stroke-linecap:round;stroke-linejoin:round;stroke-miterlimit:1.41421;">
    <g transform="matrix(0.801098,0,0,0.801098,111.492,33.8783)">
        <g id="Antenne Links">
            <g>
                <g transform="matrix(1,0,0,1,-774.378,-3.15595)">
                    <path d="M1016.53,124.619L1020.93,301.171L1038.98,522.435L1043.24,1048.51L1043.34,1047.87C1042.55,1048.66 1036.04,1054.15 1004.23,1054.77C972.911,1055.37 970.935,1051.94 967.466,1051.24L967.191,1051.3L967.191,524.062L984.513,301.705L982.747,124.897C994.27,123.665 1005.51,123.655 1016.53,124.619Z" style="fill:white;stroke-width:4.37px;stroke:black;"/>
                </g>
                <g transform="matrix(1,0,0,1,-774.378,-3.15595)">
                    <path d="M984.703,117.906L984.703,124.656L982.618,124.676C996.416,123.902 1007.78,123.949 1017.13,124.676L1014.86,123.88L1014.86,118.475L1016.74,117.906C1007.39,117.18 996.023,117.133 982.225,117.906L982.438,117.653C982.428,113.255 981.481,92.528 982.438,76.704C983.201,64.092 991.781,61.281 998.604,61.255C1007.64,61.221 1015.03,65.675 1015.74,76.704C1016.77,92.72 1017.06,113.91 1017.08,117.653" style="fill:white;stroke-width:4.37px;stroke:black;"/>
                </g>
            </g>
        </g>
    </g>
    <g id="front">
        <g id="Füsse">
            <path d="M962.639,1069.2L983.568,1069.2L983.568,1077.09C976.577,1079.61 969.602,1079.4 962.639,1077.09L962.639,1069.2Z" style="fill:none;stroke-width:2px;stroke:black;"/>
            <g transform="matrix(1,0,0,1,-664.54,0)">
                <path d="M962.639,1069.2L983.568,1069.2L983.568,1077.09C976.577,1079.61 969.602,1079.4 962.639,1077.09L962.639,1069.2Z" style="fill:none;stroke-width:2px;stroke:black;"/>
            </g>
        </g>
        <g transform="matrix(8.70703,0,0,1,-1991.17,0)">
            <rect x="258.358" y="1001.32" width="89.597" height="68.05" style="fill:rgb(191,191,191);stroke-width:0.48px;stroke:black;"/>
        </g>
        <g id="Luftlöcher" transform="matrix(1,0,0,1,0,-0.861289)">
            <rect x="463.586" y="1061.07" width="8.691" height="8.024" style="fill:rgb(252,252,252);stroke-width:0.5px;stroke:black;"/>
            <g transform="matrix(1,0,0,0.849209,-14.5257,161.209)">
                <rect x="463.586" y="1061.07" width="8.691" height="8.024" style="fill:rgb(252,252,252);stroke-width:0.54px;stroke:black;"/>
            </g>
            <g transform="matrix(1,0,0,0.743303,-29.2282,274.432)">
                <rect x="463.586" y="1061.07" width="8.691" height="8.024" style="fill:rgb(252,252,252);stroke-width:0.57px;stroke:black;"/>
            </g>
            <g transform="matrix(1,0,0,0.743303,-43.412,274.432)">
                <rect x="463.586" y="1061.07" width="8.691" height="8.024" style="fill:rgb(252,252,252);stroke-width:0.57px;stroke:black;"/>
            </g>
            <g transform="matrix(1,0,0,0.690351,-57.2497,331.043)">
                <rect x="463.586" y="1061.07" width="8.691" height="8.024" style="fill:rgb(252,252,252);stroke-width:0.58px;stroke:black;"/>
            </g>
            <g transform="matrix(1,0,0,0.637398,-71.4626,387.655)">
                <rect x="463.586" y="1061.07" width="8.691" height="8.024" style="fill:rgb(252,252,252);stroke-width:0.6px;stroke:black;"/>
            </g>
            <g transform="matrix(1,0,0,0.557969,-85.9443,472.572)">
                <rect x="463.586" y="1061.07" width="8.691" height="8.024" style="fill:rgb(252,252,252);stroke-width:0.62px;stroke:black;"/>
            </g>
            <g transform="matrix(1,0,0,0.505016,-99.2252,529.183)">
                <rect x="463.586" y="1061.07" width="8.691" height="8.024" style="fill:rgb(252,252,252);stroke-width:0.63px;stroke:black;"/>
            </g>
            <g transform="matrix(1,0,0,0.425587,-112.665,614.1)">
                <rect x="463.586" y="1061.07" width="8.691" height="8.024" style="fill:rgb(252,252,252);stroke-width:0.65px;stroke:black;"/>
            </g>
            <g transform="matrix(1,0,0,0.354225,-128.799,690.392)">
                <rect x="463.586" y="1061.07" width="8.691" height="8.024" style="fill:rgb(252,252,252);stroke-width:0.67px;stroke:black;"/>
            </g>
            <g transform="matrix(1,0,0,1,13.2535,0)">
                <rect x="463.586" y="1061.07" width="8.691" height="8.024" style="fill:rgb(252,252,252);stroke-width:0.5px;stroke:black;"/>
            </g>
            <g transform="matrix(1,0,0,1,27.136,0)">
                <rect x="463.586" y="1061.07" width="8.691" height="8.024" style="fill:rgb(252,252,252);stroke-width:0.5px;stroke:black;"/>
            </g>
            <g transform="matrix(1,0,0,1,41.812,0)">
                <rect x="463.586" y="1061.07" width="8.691" height="8.024" style="fill:rgb(252,252,252);stroke-width:0.5px;stroke:black;"/>
            </g>
            <g transform="matrix(1,0,0,1,56.4497,0)">
                <rect x="463.586" y="1061.07" width="8.691" height="8.024" style="fill:rgb(252,252,252);stroke-width:0.5px;stroke:black;"/>
            </g>
            <g transform="matrix(1,0,0,1,70.309,0)">
                <rect x="463.586" y="1061.07" width="8.691" height="8.024" style="fill:rgb(252,252,252);stroke-width:0.5px;stroke:black;"/>
            </g>
            <g transform="matrix(1,0,0,1,84.7874,0)">
                <rect x="463.586" y="1061.07" width="8.691" height="8.024" style="fill:rgb(252,252,252);stroke-width:0.5px;stroke:black;"/>
            </g>
            <g transform="matrix(1,0,0,1,98.8882,0)">
                <rect x="463.586" y="1061.07" width="8.691" height="8.024" style="fill:rgb(252,252,252);stroke-width:0.5px;stroke:black;"/>
            </g>
            <g transform="matrix(1,0,0,1,113.101,0)">
                <rect x="463.586" y="1061.07" width="8.691" height="8.024" style="fill:rgb(252,252,252);stroke-width:0.5px;stroke:black;"/>
            </g>
            <g transform="matrix(1,0,0,1,127.996,0)">
                <rect x="463.586" y="1061.07" width="8.691" height="8.024" style="fill:rgb(252,252,252);stroke-width:0.5px;stroke:black;"/>
            </g>
            <g transform="matrix(1,0,0,1,141.058,0)">
                <rect x="463.586" y="1061.07" width="8.691" height="8.024" style="fill:rgb(252,252,252);stroke-width:0.5px;stroke:black;"/>
            </g>
            <g transform="matrix(1,0,0,1,155.203,0)">
                <rect x="463.586" y="1061.07" width="8.691" height="8.024" style="fill:rgb(252,252,252);stroke-width:0.5px;stroke:black;"/>
            </g>
            <g transform="matrix(1,0,0,1,169.608,0)">
                <rect x="463.586" y="1061.07" width="8.691" height="8.024" style="fill:rgb(252,252,252);stroke-width:0.5px;stroke:black;"/>
            </g>
            <g transform="matrix(1,0,0,1,184.264,0)">
                <rect x="463.586" y="1061.07" width="8.691" height="8.024" style="fill:rgb(252,252,252);stroke-width:0.5px;stroke:black;"/>
            </g>
            <g transform="matrix(1,0,0,1,198.312,0)">
                <rect x="463.586" y="1061.07" width="8.691" height="8.024" style="fill:rgb(252,252,252);stroke-width:0.5px;stroke:black;"/>
            </g>
            <g transform="matrix(1,0,0,1,211.778,0)">
                <rect x="463.586" y="1061.07" width="8.691" height="8.024" style="fill:rgb(252,252,252);stroke-width:0.5px;stroke:black;"/>
            </g>
            <g transform="matrix(1,0,0,1,226.4,0)">
                <rect x="463.586" y="1061.07" width="8.691" height="8.024" style="fill:rgb(252,252,252);stroke-width:0.5px;stroke:black;"/>
            </g>
            <g transform="matrix(1,0,0,1,240.355,0)">
                <rect x="463.586" y="1061.07" width="8.691" height="8.024" style="fill:rgb(252,252,252);stroke-width:0.5px;stroke:black;"/>
            </g>
            <g transform="matrix(1,0,0,1,255.085,0)">
                <rect x="463.586" y="1061.07" width="8.691" height="8.024" style="fill:rgb(252,252,252);stroke-width:0.5px;stroke:black;"/>
            </g>
            <g transform="matrix(1,0,0,1,268.752,0)">
                <rect x="463.586" y="1061.07" width="8.691" height="8.024" style="fill:rgb(252,252,252);stroke-width:0.5px;stroke:black;"/>
            </g>
            <g transform="matrix(1,0,0,1,283.296,0)">
                <rect x="463.586" y="1061.07" width="8.691" height="8.024" style="fill:rgb(252,252,252);stroke-width:0.5px;stroke:black;"/>
            </g>
            <g transform="matrix(1,0,0,1,297.996,0)">
                <rect x="463.586" y="1061.07" width="8.691" height="8.024" style="fill:rgb(252,252,252);stroke-width:0.5px;stroke:black;"/>
            </g>
            <g transform="matrix(1,0,0,1,312.017,0)">
                <rect x="463.586" y="1061.07" width="8.691" height="8.024" style="fill:rgb(252,252,252);stroke-width:0.5px;stroke:black;"/>
            </g>
            <g transform="matrix(1,0,0,1,325.887,0)">
                <rect x="463.586" y="1061.07" width="8.691" height="8.024" style="fill:rgb(252,252,252);stroke-width:0.5px;stroke:black;"/>
            </g>
            <g transform="matrix(1,0,0,1,340.425,0)">
                <rect x="463.586" y="1061.07" width="8.691" height="8.024" style="fill:rgb(252,252,252);stroke-width:0.5px;stroke:black;"/>
            </g>
            <g transform="matrix(1,0,0,0.863171,354.723,146.283)">
                <rect x="463.586" y="1061.07" width="8.691" height="8.024" style="fill:rgb(252,252,252);stroke-width:0.54px;stroke:black;"/>
            </g>
            <g transform="matrix(1,0,0,0.863171,368.025,146.283)">
                <rect x="463.586" y="1061.07" width="8.691" height="8.024" style="fill:rgb(252,252,252);stroke-width:0.54px;stroke:black;"/>
            </g>
            <g transform="matrix(1,0,0,0.863171,381.677,146.283)">
                <rect x="463.586" y="1061.07" width="8.691" height="8.024" style="fill:rgb(252,252,252);stroke-width:0.54px;stroke:black;"/>
            </g>
            <g transform="matrix(1,0,0,0.863171,395.53,146.283)">
                <rect x="463.586" y="1061.07" width="8.691" height="8.024" style="fill:rgb(252,252,252);stroke-width:0.54px;stroke:black;"/>
            </g>
            <g transform="matrix(1,0,0,0.685903,409.848,335.798)">
                <rect x="463.586" y="1061.07" width="8.691" height="8.024" style="fill:rgb(252,252,252);stroke-width:0.58px;stroke:black;"/>
            </g>
            <g transform="matrix(1,0,0,0.685903,424.12,335.798)">
                <rect x="463.586" y="1061.07" width="8.691" height="8.024" style="fill:rgb(252,252,252);stroke-width:0.58px;stroke:black;"/>
            </g>
            <g transform="matrix(1,0,0,0.507602,436.222,526.419)">
                <rect x="463.586" y="1061.07" width="8.691" height="8.024" style="fill:rgb(252,252,252);stroke-width:0.63px;stroke:black;"/>
            </g>
            <g transform="matrix(1,0,0,0.428173,450.891,611.335)">
                <rect x="463.586" y="1061.07" width="8.691" height="8.024" style="fill:rgb(252,252,252);stroke-width:0.65px;stroke:black;"/>
            </g>
            <g transform="matrix(1,0,0,0.35681,464.634,687.628)">
                <rect x="463.586" y="1061.07" width="8.691" height="8.024" style="fill:rgb(252,252,252);stroke-width:0.67px;stroke:black;"/>
            </g>
            <g transform="matrix(1,0,0,0.285448,478.631,763.921)">
                <rect x="463.586" y="1061.07" width="8.691" height="8.024" style="fill:rgb(252,252,252);stroke-width:0.68px;stroke:black;"/>
            </g>
        </g>
    </g>
    <g id="Rumpf">
        <path id="rumpf" d="M333.664,799.678C532.503,769.021 730.251,760.501 925.651,799.678C957.438,806.702 989.474,817.784 1021.98,836.583C1044.07,852.231 1062.7,872.347 1073.72,902.292C1081.51,926.917 1087.58,952.223 1091.06,978.561C1092.41,1004.14 1089.26,1023.05 1080.14,1043.12C1064.77,1060.88 1051.71,1067.72 1040.08,1067.8C1028.85,1068.95 1017.63,1068.84 1006.43,1067.8C998.786,1067.6 974.814,1057.33 944.435,1043.12C898.108,1020.69 849.143,1010.66 798.591,1008.1C694.769,1003.19 591.058,1004.91 487.396,1009.57C429.266,1013.49 389.283,1023.7 342.918,1043.12C316.968,1054.97 294.621,1064.02 268.107,1067.8C259.407,1068.95 250.741,1069.1 242.125,1067.8C223.901,1064.93 209.45,1056.43 198.229,1043.12C185.797,1025.4 178.288,1004.67 179.61,978.561C180.836,953.205 183.691,927.811 191.83,902.292C202.163,870.894 225.168,843.411 268.107,822.087C289.844,811.598 311.706,803.487 333.664,799.678Z" style="fill:white;stroke-width:3px;stroke-linecap:butt;stroke:black;"/>
        <path d="M1031.15,1067.93C1004.93,1063.07 975.936,1051.8 952.056,1040.41C901.178,1012.7 832.58,1004.8 815.563,1003.41C739.966,997.222 560.97,996.738 484.412,1003.41C424.377,1008.64 394.852,1015.22 336.228,1040.41C309.569,1051.86 284.676,1063.12 258.504,1068.24" style="fill:none;stroke-width:2px;stroke:black;"/>
    </g>
    <g id="Anzeige" transform="matrix(1,0,0,1,32.809,35.7609)">
        <g transform="matrix(1,0,0,1,-32.809,-35.7609)">
            <path d="M430.441,988.203C419.628,989.192 420.367,975.03 430.441,974.286C572.808,963.773 715.266,959.794 857.715,974.286C867.437,975.275 870.11,989.646 857.715,988.203C715.303,971.63 572.741,975.187 430.441,988.203Z" style="fill:rgb(191,191,191);stroke-width:1px;stroke:black;"/>
        </g>
        <g transform="matrix(0.46501,-0.0255977,0.0164562,0.298945,238.717,655.601)">
            <path d="M532.5,1001.56C535.537,998.5 538.583,999.103 541.634,1001.56" style="fill:none;stroke-width:3px;stroke:white;"/>
            <path d="M529.218,994.65C534.394,990.708 539.528,990.83 544.623,994.65" style="fill:none;stroke-width:3px;stroke:white;"/>
            <path d="M526.539,988.847C533.32,983.95 540.233,983.383 547.33,988.847" style="fill:none;stroke-width:3px;stroke:white;"/>
        </g>
        <g transform="matrix(0.516625,-0.0162314,0.0105448,0.335628,208.098,613.726)">
            <path d="M626.349,996.053L623.073,996.053L623.073,985.75L641.216,985.75L641.216,996.053L638.183,996.053" style="fill:none;stroke-width:3px;stroke:white;"/>
            <path d="M626.295,1003.22L637.337,1003.22L632.352,1003.22L632.352,995.421" style="fill:none;stroke-width:3px;stroke:white;"/>
        </g>
        <g transform="matrix(0.516795,-0.00936197,0.00608206,0.335739,250.902,608.03)">
            <path d="M626.349,996.053L623.073,996.053L623.073,985.75L641.216,985.75L641.216,996.053L638.183,996.053" style="fill:none;stroke-width:3px;stroke:white;"/>
            <path d="M626.295,1003.22L637.337,1003.22L632.352,1003.22L632.352,995.421" style="fill:none;stroke-width:3px;stroke:white;"/>
        </g>
        <g transform="matrix(0.516878,-0.00142693,0.000927016,0.335793,294.143,602.725)">
            <path d="M626.349,996.053L623.073,996.053L623.073,985.75L641.216,985.75L641.216,996.053L638.183,996.053" style="fill:none;stroke-width:3px;stroke:white;"/>
            <path d="M626.295,1003.22L637.337,1003.22L632.352,1003.22L632.352,995.421" style="fill:none;stroke-width:3px;stroke:white;"/>
        </g>
        <g transform="matrix(0.516829,0.00727524,-0.0047264,0.335761,338.267,597.625)">
            <path d="M626.349,996.053L623.073,996.053L623.073,985.75L641.216,985.75L641.216,996.053L638.183,996.053" style="fill:none;stroke-width:3px;stroke:white;"/>
            <path d="M626.295,1003.22L637.337,1003.22L632.352,1003.22L632.352,995.421" style="fill:none;stroke-width:3px;stroke:white;"/>
        </g>
        <g id="Lock" transform="matrix(0.892642,0.0686898,-0.0686898,0.892642,116.746,-0.625318)">
            <g transform="matrix(1,0,0,1,0,96.2592)">
                <rect x="803.72" y="895.022" width="12.343" height="4.453" style="fill:white;stroke-width:0.84px;stroke:white;"/>
            </g>
            <g transform="matrix(1,0,0,1,0,96.2592)">
                <path d="M805.459,895.022C808.026,891.519 810.793,891.626 813.741,895.022" style="fill:none;stroke-width:0.84px;stroke:white;"/>
            </g>
        </g>
        <g id="Inet" transform="matrix(0.757667,0.0927025,-0.0927025,0.757667,231.496,116.423)">
            <g transform="matrix(1.27235,-0.227769,0.318368,1.77845,-475.111,-424.452)">
                <ellipse cx="729.346" cy="889.27" rx="6.378" ry="1.404" style="fill:none;stroke-width:0.63px;stroke:white;"/>
            </g>
            <g transform="matrix(1.09502,0,0,1.09781,-70.6185,8.19739)">
                <ellipse cx="737.796" cy="896.539" rx="5.426" ry="3.783" style="fill:none;stroke-width:0.9px;stroke:white;"/>
            </g>
        </g>
        <g transform="matrix(0.997903,-0.0647247,0.0541406,0.834721,-452.96,141.169)">
            <path d="M862.856,1021.29C862.582,1021.27 862.306,1021.27 862.031,1021.29L861.907,1021.95C861.645,1021.99 861.388,1022.05 861.14,1022.15L860.707,1021.65C860.456,1021.76 860.217,1021.9 859.993,1022.06L860.211,1022.69C860.004,1022.85 859.815,1023.04 859.65,1023.25L859.024,1023.03C858.863,1023.25 858.725,1023.49 858.611,1023.75L859.113,1024.18C859.017,1024.42 858.948,1024.68 858.908,1024.94L858.256,1025.07C858.229,1025.34 858.229,1025.62 858.256,1025.89L858.908,1026.02C858.948,1026.28 859.017,1026.54 859.113,1026.79L858.611,1027.22C858.725,1027.47 858.863,1027.71 859.024,1027.93L859.65,1027.71C859.815,1027.92 860.004,1028.11 860.211,1028.28L859.993,1028.9C860.217,1029.06 860.456,1029.2 860.707,1029.31L861.14,1028.81C861.388,1028.91 861.645,1028.98 861.907,1029.02L862.031,1029.67C862.306,1029.7 862.582,1029.7 862.856,1029.67L862.98,1029.02C863.243,1028.98 863.5,1028.91 863.747,1028.81L864.18,1029.31C864.431,1029.2 864.671,1029.06 864.895,1028.9L864.676,1028.28C864.884,1028.11 865.072,1027.92 865.238,1027.71L865.864,1027.93C866.025,1027.71 866.163,1027.47 866.276,1027.22L865.774,1026.79C865.871,1026.54 865.94,1026.28 865.98,1026.02L866.631,1025.89C866.658,1025.62 866.658,1025.34 866.631,1025.07L865.98,1024.94C865.94,1024.68 865.871,1024.42 865.774,1024.18L866.276,1023.75C866.163,1023.49 866.025,1023.25 865.864,1023.03L865.238,1023.25C865.072,1023.04 864.884,1022.85 864.676,1022.69L864.895,1022.06C864.671,1021.9 864.431,1021.76 864.18,1021.65L863.747,1022.15C863.5,1022.05 863.243,1021.99 862.98,1021.95L862.856,1021.29ZM862.444,1024.64C862.908,1024.64 863.285,1025.02 863.285,1025.48C863.285,1025.95 862.908,1026.32 862.444,1026.32C861.979,1026.32 861.602,1025.95 861.602,1025.48C861.602,1025.02 861.979,1024.64 862.444,1024.64Z" style="fill:white;"/>
        </g>
        <g transform="matrix(0.888269,0.0554781,-0.0623349,0.998055,115.612,-73.2428)">
            <path d="M763.601,973.017L764.304,972.923C764.385,973.322 764.523,973.609 764.717,973.785C764.911,973.96 765.147,974.048 765.426,974.048C765.756,974.048 766.036,973.934 766.263,973.705C766.491,973.475 766.605,973.192 766.605,972.853C766.605,972.53 766.5,972.264 766.289,972.054C766.078,971.845 765.81,971.74 765.484,971.74C765.351,971.74 765.186,971.766 764.988,971.818L765.066,971.201C765.113,971.206 765.151,971.208 765.179,971.208C765.479,971.208 765.748,971.13 765.988,970.974C766.228,970.818 766.347,970.577 766.347,970.251C766.347,969.994 766.26,969.78 766.086,969.611C765.911,969.442 765.686,969.357 765.41,969.357C765.136,969.357 764.909,969.443 764.726,969.615C764.544,969.787 764.427,970.044 764.375,970.388L763.672,970.263C763.758,969.792 763.953,969.427 764.258,969.167C764.562,968.908 764.941,968.779 765.394,968.779C765.707,968.779 765.995,968.846 766.258,968.98C766.521,969.114 766.722,969.297 766.861,969.529C767,969.761 767.07,970.007 767.07,970.267C767.07,970.514 767.004,970.74 766.871,970.943C766.738,971.146 766.541,971.307 766.281,971.427C766.62,971.505 766.883,971.667 767.07,971.914C767.258,972.16 767.351,972.468 767.351,972.837C767.351,973.337 767.169,973.761 766.804,974.109C766.44,974.457 765.979,974.63 765.422,974.63C764.919,974.63 764.502,974.481 764.17,974.181C763.838,973.882 763.648,973.494 763.601,973.017Z" style="fill:rgb(252,252,252);fill-rule:nonzero;"/>
            <path d="M771.011,972.283L771.011,971.611L773.437,971.607L773.437,973.732C773.065,974.029 772.681,974.252 772.285,974.402C771.889,974.552 771.483,974.626 771.066,974.626C770.504,974.626 769.993,974.506 769.533,974.265C769.073,974.024 768.726,973.676 768.492,973.22C768.258,972.764 768.14,972.255 768.14,971.693C768.14,971.136 768.257,970.615 768.49,970.132C768.723,969.649 769.058,969.291 769.496,969.056C769.933,968.822 770.437,968.705 771.008,968.705C771.422,968.705 771.796,968.772 772.131,968.906C772.465,969.04 772.728,969.227 772.918,969.466C773.108,969.706 773.252,970.018 773.351,970.404L772.668,970.591C772.582,970.3 772.475,970.07 772.347,969.904C772.22,969.737 772.038,969.604 771.801,969.503C771.564,969.403 771.301,969.353 771.011,969.353C770.665,969.353 770.366,969.406 770.113,969.511C769.86,969.617 769.657,969.755 769.502,969.927C769.347,970.099 769.226,970.288 769.14,970.494C768.995,970.848 768.922,971.232 768.922,971.646C768.922,972.156 769.01,972.583 769.185,972.927C769.361,973.271 769.617,973.526 769.953,973.693C770.289,973.86 770.646,973.943 771.023,973.943C771.351,973.943 771.672,973.88 771.984,973.753C772.297,973.627 772.534,973.492 772.695,973.349L772.695,972.283L771.011,972.283Z" style="fill:rgb(252,252,252);fill-rule:nonzero;"/>
        </g>
    </g>
    <g id="USB front">
        <g transform="matrix(1.00076,0,0,0.996644,-0.153166,2.99217)">
            <path d="M695.518,910.145C695.518,906.494 692.566,903.53 688.93,903.53L603.574,903.53C599.938,903.53 596.986,906.494 596.986,910.145L596.986,923.375C596.986,927.026 599.938,929.99 603.574,929.99L688.93,929.99C692.566,929.99 695.518,927.026 695.518,923.375L695.518,910.145Z" style="fill:rgb(140,140,140);stroke-width:0.7px;stroke:black;"/>
        </g>
        <g transform="matrix(0.99703,0,0,0.988508,2.06548,9.83212)">
            <path d="M695.394,914.614C695.394,911.665 693.021,909.272 690.097,909.272L602.753,909.272C599.83,909.272 597.456,911.665 597.456,914.614L597.456,925.299C597.456,928.247 599.83,930.641 602.753,930.641L690.097,930.641C693.021,930.641 695.394,928.247 695.394,925.299L695.394,914.614Z" style="fill:white;stroke-width:0.71px;stroke:black;"/>
        </g>
        <path d="M685.227,917.732C685.227,915.512 683.425,913.71 681.205,913.71L611.078,913.71C608.858,913.71 607.056,915.512 607.056,917.732L607.056,925.777C607.056,927.996 608.858,929.799 611.078,929.799L681.205,929.799C683.425,929.799 685.227,927.996 685.227,925.777L685.227,917.732Z" style="fill:rgb(204,204,204);stroke-width:0.7px;stroke:black;"/>
        <g transform="matrix(1,0,0,0.937125,0,58.0176)">
            <rect x="617.444" y="922.751" width="58.502" height="7.44" style="fill:rgb(38,38,38);stroke-width:0.72px;stroke:black;"/>
        </g>
        <rect x="620.707" y="926.787" width="7.123" height="2.84" style="fill:rgb(191,191,191);stroke-width:0.7px;stroke:black;"/>
        <g transform="matrix(1,0,0,1,15.79,0)">
            <rect x="620.707" y="926.787" width="7.123" height="2.84" style="fill:rgb(191,191,191);stroke-width:0.7px;stroke:black;"/>
        </g>
        <g transform="matrix(1,0,0,1,28.0968,-0.0365449)">
            <rect x="620.707" y="926.787" width="7.123" height="2.84" style="fill:rgb(191,191,191);stroke-width:0.7px;stroke:black;"/>
        </g>
        <g transform="matrix(1,0,0,1,45.2798,0.089535)">
            <rect x="620.707" y="926.787" width="7.123" height="2.84" style="fill:rgb(191,191,191);stroke-width:0.7px;stroke:black;"/>
        </g>
    </g>
</svg>
