<?xml version="1.0" encoding="UTF-8" standalone="no"?>
<!DOCTYPE svg PUBLIC "-//W3C//DTD SVG 1.1//EN" "http://www.w3.org/Graphics/SVG/1.1/DTD/svg11.dtd">
<svg width="100%" height="100%" viewBox="0 0 1280 1150" version="1.1" xmlns="http://www.w3.org/2000/svg" xmlns:xlink="http://www.w3.org/1999/xlink" xml:space="preserve" style="fill-rule:evenodd;clip-rule:evenodd;stroke-linecap:round;stroke-linejoin:round;stroke-miterlimit:1.41421;">
    <g id="Hülle">
        <path d="M107.574,967.609C108.393,949.882 115.927,930.27 138.014,929.154C138.306,929.14 140.176,917.687 166.992,915.41C168.025,915.323 177.378,905.591 196.186,906.62C220.56,907.953 245.162,899.598 268.787,892.921C293.547,885.924 400.795,874.774 651.017,873.669C684.717,873.52 938.894,879.293 967.009,892.921C998.897,908.378 1048.83,895.395 1078.48,915.41C1079.75,916.266 1089.83,911.136 1104.98,929.154C1105.06,929.252 1131.78,928.969 1137.78,967.609C1139.86,981.07 1073.62,1058.46 1033.07,1066.4C995.821,1073.7 976.43,1076.53 950.875,1076.6C938.538,1076.64 530.693,1081.34 324.123,1076.6C285.238,1075.71 222.811,1076.26 187.828,1056.84C148.692,1035.11 117.752,989.547 114.447,984.348C111.934,980.395 107.574,967.609 107.574,967.609Z" style="fill:white;stroke-width:3px;stroke:black;"/>
        <path d="M108.108,968.184L197.281,968.184L197.281,948.792L436.05,948.792C440.493,948.792 965.8,948.718 970.394,948.792" style="fill:none;stroke-width:3px;stroke:black;"/>
        <path d="M197.213,968.193C194.772,1080.46 296.422,1063.71 661.863,1065.79C910.067,1067.2 1046.88,1068.39 1041.62,968.44" style="fill:none;stroke-width:3px;stroke:black;"/>
        <path d="M1137.38,968.435L1041.57,968.435L1041.57,948.792L970.394,948.792" style="fill:none;stroke-width:3px;stroke:black;"/>
    </g>
    <g id="WAN">
        <path d="M430.126,958.534L520.049,958.534L520.049,1035.48L430.126,1035.48L430.126,958.534" style="fill:rgb(0,158,224);stroke-width:1px;stroke:black;"/>
        <path d="M463.538,961.757L487.377,961.757L487.377,969.841L494.601,969.841L494.601,977.802L508.571,977.802L508.571,989.68L513.332,989.68L513.332,1005.6L508.571,1005.6L508.571,1018.27L440.482,1018.27L440.482,1005.6L437.015,1005.6L437.015,989.68L440.482,989.68L440.482,977.802L455.182,977.802L455.182,969.841L463.538,969.841L463.538,961.757" style="fill:rgb(166,229,255);stroke-width:1px;stroke:black;"/>
        <rect x="436.816" y="989.68" width="9.385" height="15.92" style="fill:black;stroke-width:1px;stroke:black;"/>
        <g transform="matrix(1,0,0,1,67.0669,-0.0235958)">
            <rect x="436.816" y="989.68" width="9.385" height="15.92" style="fill:black;stroke-width:1px;stroke:black;"/>
        </g>
        <path d="M450.462,1000.22L450.462,1012.69" style="fill:none;stroke-width:1px;stroke:black;"/>
        <g transform="matrix(1,0,0,1,5.18811,0.142889)">
            <path d="M450.462,1000.22L450.462,1012.69" style="fill:none;stroke-width:1px;stroke:black;"/>
        </g>
        <g transform="matrix(1,0,0,1,10.8216,0.142889)">
            <path d="M450.462,1000.22L450.462,1012.69" style="fill:none;stroke-width:1px;stroke:black;"/>
        </g>
        <g transform="matrix(1,0,0,1,22.0044,0.291919)">
            <path d="M450.462,1000.07L450.462,1012.69" style="fill:none;stroke-width:1px;stroke:black;"/>
        </g>
        <g transform="matrix(1,0,0,1,27.0496,0.291919)">
            <path d="M450.462,1000.05L450.462,1012.69" style="fill:none;stroke-width:1px;stroke:black;"/>
        </g>
        <g transform="matrix(1,0,0,1,49.4509,0.192566)">
            <path d="M450.462,1000.16L450.462,1012.69" style="fill:none;stroke-width:1px;stroke:black;"/>
        </g>
        <path d="M466.922,1000.38L466.922,1018.21" style="fill:none;stroke-width:1px;stroke:black;"/>
        <g transform="matrix(1,0,0,1,16.0399,-0.0558162)">
            <path d="M466.922,1000.41L466.922,1018.27" style="fill:none;stroke-width:1px;stroke:black;"/>
        </g>
        <g transform="matrix(1,0,0,1,21.7443,-0.154611)">
            <path d="M466.922,1000.5L466.922,1018.4" style="fill:none;stroke-width:1px;stroke:black;"/>
        </g>
        <g transform="matrix(1,0,0,1,27.6257,-0.353316)">
            <path d="M466.922,1000.67L466.922,1018.4" style="fill:none;stroke-width:1px;stroke:black;"/>
        </g>
    </g>
    <g id="lan4">
        <g transform="matrix(3.73365,0,0,1,-1085.67,-0.000264784)">
            <path d="M430.126,958.534L520.049,958.534L520.049,1035.48L430.126,1035.48L430.126,958.534" style="fill:rgb(255,180,0);stroke-width:0.37px;stroke:black;"/>
        </g>
        <g transform="matrix(1,0,0,1,93.3029,-0.747357)">
            <path d="M463.538,961.757L487.377,961.757L487.377,969.841L494.601,969.841L494.601,977.802L508.571,977.802L508.571,989.68L513.332,989.68L513.332,1005.6L508.571,1005.6L508.571,1018.27L440.482,1018.27L440.482,1005.6L437.015,1005.6L437.015,989.68L440.482,989.68L440.482,977.802L455.182,977.802L455.182,969.841L463.538,969.841L463.538,961.757" style="fill:rgb(255,225,153);stroke-width:1px;stroke:black;"/>
        </g>
        <g transform="matrix(1,0,0,1,172.876,-0.661805)">
            <path d="M463.538,961.757L487.377,961.757L487.377,969.841L494.601,969.841L494.601,977.802L508.571,977.802L508.571,989.68L513.332,989.68L513.332,1005.6L508.571,1005.6L508.571,1018.27L440.482,1018.27L440.482,1005.6L437.015,1005.6L437.015,989.68L440.482,989.68L440.482,977.802L455.182,977.802L455.182,969.841L463.538,969.841L463.538,961.757" style="fill:rgb(255,225,153);stroke-width:1px;stroke:black;"/>
        </g>
        <g transform="matrix(1,0,0,1,252.488,-0.755912)">
            <path d="M463.538,961.757L487.377,961.757L487.377,969.841L494.601,969.841L494.601,977.802L508.571,977.802L508.571,989.68L513.332,989.68L513.332,1005.6L508.571,1005.6L508.571,1018.27L440.482,1018.27L440.482,1005.6L437.015,1005.6L437.015,989.68L440.482,989.68L440.482,977.802L455.182,977.802L455.182,969.841L463.538,969.841L463.538,961.757" style="fill:rgb(255,225,153);stroke-width:1px;stroke:black;"/>
        </g>
        <g transform="matrix(1,0,0,1,332.053,-0.509522)">
            <path d="M463.538,961.757L487.377,961.757L487.377,969.841L494.601,969.841L494.601,977.802L508.571,977.802L508.571,989.68L513.332,989.68L513.332,1005.6L508.571,1005.6L508.571,1018.27L440.482,1018.27L440.482,1005.6L437.015,1005.6L437.015,989.68L440.482,989.68L440.482,977.802L455.182,977.802L455.182,969.841L463.538,969.841L463.538,961.757" style="fill:rgb(255,225,153);stroke-width:1px;stroke:black;"/>
        </g>
        <g transform="matrix(1,0,0,1,93.3029,-0.747357)">
            <rect x="436.816" y="989.68" width="9.385" height="15.92" style="fill:black;stroke-width:1px;stroke:black;"/>
        </g>
        <g transform="matrix(1,0,0,1,172.876,-0.661805)">
            <rect x="436.816" y="989.68" width="9.385" height="15.92" style="fill:black;stroke-width:1px;stroke:black;"/>
        </g>
        <g transform="matrix(1,0,0,1,252.488,-0.755912)">
            <rect x="436.816" y="989.68" width="9.385" height="15.92" style="fill:black;stroke-width:1px;stroke:black;"/>
        </g>
        <g transform="matrix(1,0,0,1,332.053,-0.509522)">
            <rect x="436.816" y="989.68" width="9.385" height="15.92" style="fill:black;stroke-width:1px;stroke:black;"/>
        </g>
        <g transform="matrix(1,0,0,1,160.37,-0.770952)">
            <rect x="436.816" y="989.68" width="9.385" height="15.92" style="fill:black;stroke-width:1px;stroke:black;"/>
        </g>
        <g transform="matrix(1,0,0,1,239.942,-0.685401)">
            <rect x="436.816" y="989.68" width="9.385" height="15.92" style="fill:black;stroke-width:1px;stroke:black;"/>
        </g>
        <g transform="matrix(1,0,0,1,319.555,-0.779508)">
            <rect x="436.816" y="989.68" width="9.385" height="15.92" style="fill:black;stroke-width:1px;stroke:black;"/>
        </g>
        <g transform="matrix(1,0,0,1,399.12,-0.533118)">
            <rect x="436.816" y="989.68" width="9.385" height="15.92" style="fill:black;stroke-width:1px;stroke:black;"/>
        </g>
        <g transform="matrix(1,0,0,1,93.3029,-0.747357)">
            <path d="M450.462,1000.22L450.462,1012.69" style="fill:none;stroke-width:1px;stroke:black;"/>
        </g>
        <g transform="matrix(1,0,0,1,172.876,-0.661805)">
            <path d="M450.462,1000.22L450.462,1012.69" style="fill:none;stroke-width:1px;stroke:black;"/>
        </g>
        <g transform="matrix(1,0,0,1,252.488,-0.755912)">
            <path d="M450.462,1000.22L450.462,1012.69" style="fill:none;stroke-width:1px;stroke:black;"/>
        </g>
        <g transform="matrix(1,0,0,1,332.053,-0.509522)">
            <path d="M450.462,1000.22L450.462,1012.69" style="fill:none;stroke-width:1px;stroke:black;"/>
        </g>
        <g transform="matrix(1,0,0,1,98.491,-0.604467)">
            <path d="M450.462,1000.22L450.462,1012.69" style="fill:none;stroke-width:1px;stroke:black;"/>
        </g>
        <g transform="matrix(1,0,0,1,178.064,-0.518915)">
            <path d="M450.462,1000.22L450.462,1012.69" style="fill:none;stroke-width:1px;stroke:black;"/>
        </g>
        <g transform="matrix(1,0,0,1,257.676,-0.613022)">
            <path d="M450.462,1000.22L450.462,1012.69" style="fill:none;stroke-width:1px;stroke:black;"/>
        </g>
        <g transform="matrix(1,0,0,1,337.242,-0.366633)">
            <path d="M450.462,1000.22L450.462,1012.69" style="fill:none;stroke-width:1px;stroke:black;"/>
        </g>
        <g transform="matrix(1,0,0,1,104.125,-0.604467)">
            <path d="M450.462,1000.22L450.462,1012.69" style="fill:none;stroke-width:1px;stroke:black;"/>
        </g>
        <g transform="matrix(1,0,0,1,183.697,-0.518915)">
            <path d="M450.462,1000.22L450.462,1012.69" style="fill:none;stroke-width:1px;stroke:black;"/>
        </g>
        <g transform="matrix(1,0,0,1,263.309,-0.613022)">
            <path d="M450.462,1000.22L450.462,1012.69" style="fill:none;stroke-width:1px;stroke:black;"/>
        </g>
        <g transform="matrix(1,0,0,1,342.875,-0.366633)">
            <path d="M450.462,1000.22L450.462,1012.69" style="fill:none;stroke-width:1px;stroke:black;"/>
        </g>
        <g transform="matrix(1,0,0,1,115.307,-0.455438)">
            <path d="M450.462,1000.07L450.462,1012.69" style="fill:none;stroke-width:1px;stroke:black;"/>
        </g>
        <g transform="matrix(1,0,0,1,194.88,-0.369886)">
            <path d="M450.462,1000.07L450.462,1012.69" style="fill:none;stroke-width:1px;stroke:black;"/>
        </g>
        <g transform="matrix(1,0,0,1,274.492,-0.463993)">
            <path d="M450.462,1000.07L450.462,1012.69" style="fill:none;stroke-width:1px;stroke:black;"/>
        </g>
        <g transform="matrix(1,0,0,1,354.058,-0.217604)">
            <path d="M450.462,1000.07L450.462,1012.69" style="fill:none;stroke-width:1px;stroke:black;"/>
        </g>
        <g transform="matrix(1,0,0,1,120.353,-0.455438)">
            <path d="M450.462,1000.05L450.462,1012.69" style="fill:none;stroke-width:1px;stroke:black;"/>
        </g>
        <g transform="matrix(1,0,0,1,199.925,-0.369886)">
            <path d="M450.462,1000.05L450.462,1012.69" style="fill:none;stroke-width:1px;stroke:black;"/>
        </g>
        <g transform="matrix(1,0,0,1,279.537,-0.463993)">
            <path d="M450.462,1000.05L450.462,1012.69" style="fill:none;stroke-width:1px;stroke:black;"/>
        </g>
        <g transform="matrix(1,0,0,1,359.103,-0.217604)">
            <path d="M450.462,1000.05L450.462,1012.69" style="fill:none;stroke-width:1px;stroke:black;"/>
        </g>
        <g transform="matrix(1,0,0,1,142.754,-0.554791)">
            <path d="M450.462,1000.16L450.462,1012.69" style="fill:none;stroke-width:1px;stroke:black;"/>
        </g>
        <g transform="matrix(1,0,0,1,222.326,-0.469239)">
            <path d="M450.462,1000.16L450.462,1012.69" style="fill:none;stroke-width:1px;stroke:black;"/>
        </g>
        <g transform="matrix(1,0,0,1,301.939,-0.563346)">
            <path d="M450.462,1000.16L450.462,1012.69" style="fill:none;stroke-width:1px;stroke:black;"/>
        </g>
        <g transform="matrix(1,0,0,1,381.504,-0.316957)">
            <path d="M450.462,1000.16L450.462,1012.69" style="fill:none;stroke-width:1px;stroke:black;"/>
        </g>
        <g transform="matrix(1,0,0,1,93.3029,-0.747357)">
            <path d="M466.922,1000.38L466.922,1018.21" style="fill:none;stroke-width:1px;stroke:black;"/>
        </g>
        <g transform="matrix(1,0,0,1,172.876,-0.661805)">
            <path d="M466.922,1000.38L466.922,1018.21" style="fill:none;stroke-width:1px;stroke:black;"/>
        </g>
        <g transform="matrix(1,0,0,1,252.488,-0.755912)">
            <path d="M466.922,1000.38L466.922,1018.21" style="fill:none;stroke-width:1px;stroke:black;"/>
        </g>
        <g transform="matrix(1,0,0,1,332.053,-0.509522)">
            <path d="M466.922,1000.38L466.922,1018.21" style="fill:none;stroke-width:1px;stroke:black;"/>
        </g>
        <g transform="matrix(1,0,0,1,109.343,-0.803173)">
            <path d="M466.922,1000.41L466.922,1018.27" style="fill:none;stroke-width:1px;stroke:black;"/>
        </g>
        <g transform="matrix(1,0,0,1,188.915,-0.717621)">
            <path d="M466.922,1000.41L466.922,1018.27" style="fill:none;stroke-width:1px;stroke:black;"/>
        </g>
        <g transform="matrix(1,0,0,1,268.528,-0.811728)">
            <path d="M466.922,1000.41L466.922,1018.27" style="fill:none;stroke-width:1px;stroke:black;"/>
        </g>
        <g transform="matrix(1,0,0,1,348.093,-0.565338)">
            <path d="M466.922,1000.41L466.922,1018.27" style="fill:none;stroke-width:1px;stroke:black;"/>
        </g>
        <g transform="matrix(1,0,0,1,115.047,-0.901967)">
            <path d="M466.922,1000.5L466.922,1018.4" style="fill:none;stroke-width:1px;stroke:black;"/>
        </g>
        <g transform="matrix(1,0,0,1,194.62,-0.816415)">
            <path d="M466.922,1000.5L466.922,1018.4" style="fill:none;stroke-width:1px;stroke:black;"/>
        </g>
        <g transform="matrix(1,0,0,1,274.232,-0.910523)">
            <path d="M466.922,1000.5L466.922,1018.4" style="fill:none;stroke-width:1px;stroke:black;"/>
        </g>
        <g transform="matrix(1,0,0,1,353.798,-0.664133)">
            <path d="M466.922,1000.5L466.922,1018.4" style="fill:none;stroke-width:1px;stroke:black;"/>
        </g>
        <g transform="matrix(1,0,0,1,120.929,-1.10067)">
            <path d="M466.922,1000.67L466.922,1018.4" style="fill:none;stroke-width:1px;stroke:black;"/>
        </g>
        <g transform="matrix(1,0,0,1,200.501,-1.01512)">
            <path d="M466.922,1000.67L466.922,1018.4" style="fill:none;stroke-width:1px;stroke:black;"/>
        </g>
        <g transform="matrix(1,0,0,1,280.113,-1.10923)">
            <path d="M466.922,1000.67L466.922,1018.4" style="fill:none;stroke-width:1px;stroke:black;"/>
        </g>
        <g transform="matrix(1,0,0,1,359.679,-0.862839)">
            <path d="M466.922,1000.67L466.922,1018.4" style="fill:none;stroke-width:1px;stroke:black;"/>
        </g>
    </g>
    <g id="Beschriftung">
        <g transform="matrix(1,0,0,1,-98.299,2.63784)">
            <path d="M411,1040.63C411,1039.89 411.143,1039.36 411.43,1039.05C411.716,1038.74 412.189,1038.58 412.848,1038.58C413.506,1038.58 413.979,1038.74 414.266,1039.05C414.552,1039.36 414.695,1039.88 414.695,1040.63L414.695,1044.81C414.695,1045.55 414.553,1046.07 414.268,1046.38C413.984,1046.7 413.51,1046.85 412.848,1046.85C412.185,1046.85 411.712,1046.7 411.427,1046.38C411.142,1046.07 411,1045.55 411,1044.81L411,1040.63ZM412.584,1040.1L412.584,1045.27C412.584,1045.41 412.605,1045.51 412.646,1045.57C412.687,1045.62 412.754,1045.65 412.848,1045.65C412.948,1045.65 413.019,1045.62 413.06,1045.56C413.101,1045.5 413.121,1045.4 413.121,1045.27L413.121,1040.1C413.121,1039.95 413.101,1039.86 413.06,1039.8C413.019,1039.74 412.948,1039.71 412.848,1039.71C412.754,1039.71 412.687,1039.74 412.646,1039.81C412.605,1039.87 412.584,1039.96 412.584,1040.1Z" style="fill:black;fill-rule:nonzero;"/>
            <path d="M415.157,1046.67L415.157,1038.75L417.327,1038.75L417.886,1042.11C417.936,1042.41 417.979,1042.75 418.015,1043.12C418.05,1043.49 418.081,1043.92 418.106,1044.4L418.17,1044.4C418.145,1043.84 418.126,1043.35 418.114,1042.93C418.101,1042.52 418.095,1042.22 418.095,1042.03L418.084,1038.75L419.325,1038.75L419.325,1046.67L417.467,1046.67L416.656,1042.37C416.623,1042.2 416.583,1041.95 416.535,1041.61C416.486,1041.27 416.437,1040.9 416.387,1040.49L416.344,1040.49C416.366,1040.82 416.383,1041.11 416.395,1041.36C416.408,1041.6 416.414,1041.81 416.414,1041.96L416.414,1046.67L415.157,1046.67Z" style="fill:black;fill-rule:nonzero;"/>
            <path d="M420.636,1047.69L419.819,1047.69L421.559,1038.58L422.371,1038.58L420.636,1047.69Z" style="fill:black;fill-rule:nonzero;"/>
            <path d="M422.843,1040.63C422.843,1039.89 422.986,1039.36 423.273,1039.05C423.559,1038.74 424.032,1038.58 424.691,1038.58C425.35,1038.58 425.822,1038.74 426.109,1039.05C426.395,1039.36 426.538,1039.88 426.538,1040.63L426.538,1044.81C426.538,1045.55 426.396,1046.07 426.111,1046.38C425.827,1046.7 425.353,1046.85 424.691,1046.85C424.028,1046.85 423.555,1046.7 423.27,1046.38C422.986,1046.07 422.843,1045.55 422.843,1044.81L422.843,1040.63ZM424.428,1040.1L424.428,1045.27C424.428,1045.41 424.448,1045.51 424.489,1045.57C424.531,1045.62 424.598,1045.65 424.691,1045.65C424.791,1045.65 424.862,1045.62 424.903,1045.56C424.944,1045.5 424.965,1045.4 424.965,1045.27L424.965,1040.1C424.965,1039.95 424.944,1039.86 424.903,1039.8C424.862,1039.74 424.791,1039.71 424.691,1039.71C424.598,1039.71 424.531,1039.74 424.489,1039.81C424.448,1039.87 424.428,1039.96 424.428,1040.1Z" style="fill:black;fill-rule:nonzero;"/>
            <path d="M427.033,1046.67L427.033,1038.75L429.981,1038.75L429.981,1039.85L428.617,1039.85L428.617,1041.68L429.949,1041.68L429.949,1042.82L428.617,1042.82L428.617,1046.67L427.033,1046.67Z" style="fill:black;fill-rule:nonzero;"/>
            <path d="M430.4,1046.67L430.4,1038.75L433.349,1038.75L433.349,1039.85L431.985,1039.85L431.985,1041.68L433.317,1041.68L433.317,1042.82L431.985,1042.82L431.985,1046.67L430.4,1046.67Z" style="fill:black;fill-rule:nonzero;"/>
            <path d="M476.315,1042.05L476.315,1040.21C476.315,1040.03 476.284,1039.91 476.221,1039.85C476.159,1039.79 476.036,1039.76 475.853,1039.76L475.789,1039.76L475.789,1042.49L475.886,1042.49C476.05,1042.49 476.163,1042.45 476.224,1042.39C476.285,1042.32 476.315,1042.21 476.315,1042.05ZM474.205,1046.67L474.205,1038.75L476.052,1038.75C476.686,1038.75 477.151,1038.87 477.446,1039.1C477.741,1039.33 477.889,1039.69 477.889,1040.19L477.889,1041.88C477.889,1042.49 477.743,1042.93 477.451,1043.19C477.159,1043.45 476.668,1043.59 475.977,1043.59L475.789,1043.59L475.789,1046.67L474.205,1046.67Z" style="fill:black;fill-rule:nonzero;"/>
            <path d="M478.233,1040.63C478.233,1039.89 478.376,1039.36 478.663,1039.05C478.949,1038.74 479.422,1038.58 480.08,1038.58C480.739,1038.58 481.212,1038.74 481.498,1039.05C481.785,1039.36 481.928,1039.88 481.928,1040.63L481.928,1044.81C481.928,1045.55 481.786,1046.07 481.501,1046.38C481.216,1046.7 480.743,1046.85 480.08,1046.85C479.418,1046.85 478.944,1046.7 478.66,1046.38C478.375,1046.07 478.233,1045.55 478.233,1044.81L478.233,1040.63ZM479.817,1040.1L479.817,1045.27C479.817,1045.41 479.838,1045.51 479.879,1045.57C479.92,1045.62 479.987,1045.65 480.08,1045.65C480.181,1045.65 480.251,1045.62 480.293,1045.56C480.334,1045.5 480.354,1045.4 480.354,1045.27L480.354,1040.1C480.354,1039.95 480.334,1039.86 480.293,1039.8C480.251,1039.74 480.181,1039.71 480.08,1039.71C479.987,1039.71 479.92,1039.74 479.879,1039.81C479.838,1039.87 479.817,1039.96 479.817,1040.1Z" style="fill:black;fill-rule:nonzero;"/>
            <path d="M483.061,1046.67L482.272,1038.75L483.862,1038.75L484.05,1041.78C484.068,1042.04 484.083,1042.33 484.095,1042.65C484.108,1042.97 484.123,1043.42 484.141,1044.02L484.195,1044.02C484.22,1043.67 484.246,1043.34 484.273,1043.03C484.299,1042.71 484.325,1042.45 484.35,1042.24L484.764,1038.75L486.44,1038.75L486.767,1042.49C486.771,1042.55 486.787,1042.76 486.816,1043.11C486.844,1043.45 486.87,1043.76 486.891,1044.02L486.945,1044.02C486.959,1043.58 486.976,1043.18 486.996,1042.81C487.015,1042.43 487.038,1042.08 487.063,1041.73L487.31,1038.75L488.637,1038.75L487.783,1046.67L485.956,1046.67L485.559,1042.43C485.545,1042.28 485.531,1042.1 485.519,1041.9C485.506,1041.7 485.495,1041.45 485.484,1041.13L485.425,1041.13L484.866,1046.67L483.061,1046.67Z" style="fill:black;fill-rule:nonzero;"/>
            <path d="M489.056,1046.67L489.056,1038.75L492.004,1038.75L492.004,1039.85L490.64,1039.85L490.64,1041.68L491.972,1041.68L491.972,1042.82L490.64,1042.82L490.64,1045.48L492.004,1045.48L492.004,1046.67L489.056,1046.67Z" style="fill:black;fill-rule:nonzero;"/>
            <path d="M494.545,1041.47L494.545,1040.21C494.545,1040.03 494.51,1039.91 494.44,1039.85C494.37,1039.79 494.23,1039.76 494.018,1039.76L494.018,1041.92L494.104,1041.92C494.269,1041.92 494.384,1041.89 494.448,1041.82C494.513,1041.76 494.545,1041.64 494.545,1041.47ZM492.434,1046.67L492.434,1038.75L494.282,1038.75C494.926,1038.75 495.393,1038.87 495.684,1039.09C495.974,1039.32 496.119,1039.68 496.119,1040.19L496.119,1041.02C496.119,1041.43 496.017,1041.75 495.812,1041.97C495.608,1042.2 495.304,1042.32 494.899,1042.34L494.899,1042.38C495.35,1042.41 495.666,1042.52 495.847,1042.72C496.028,1042.91 496.119,1043.25 496.119,1043.71L496.119,1045.73C496.119,1045.89 496.131,1046.05 496.156,1046.21C496.181,1046.38 496.217,1046.53 496.264,1046.67L494.701,1046.67C494.65,1046.54 494.612,1046.39 494.585,1046.22C494.558,1046.05 494.545,1045.88 494.545,1045.69L494.545,1045.4L494.545,1043.67C494.545,1043.45 494.503,1043.28 494.419,1043.17C494.334,1043.06 494.208,1043 494.04,1043L494.018,1043L494.018,1046.67L492.434,1046.67Z" style="fill:black;fill-rule:nonzero;"/>
            <rect x="559.211" y="1038.75" width="1.584" height="7.922" style="fill:black;fill-rule:nonzero;"/>
            <path d="M561.289,1046.67L561.289,1038.75L563.459,1038.75L564.018,1042.11C564.068,1042.41 564.111,1042.75 564.147,1043.12C564.183,1043.49 564.213,1043.92 564.238,1044.4L564.303,1044.4C564.278,1043.84 564.259,1043.35 564.246,1042.93C564.234,1042.52 564.227,1042.22 564.227,1042.03L564.217,1038.75L565.457,1038.75L565.457,1046.67L563.599,1046.67L562.788,1042.37C562.756,1042.2 562.715,1041.95 562.667,1041.61C562.619,1041.27 562.57,1040.9 562.519,1040.49L562.476,1040.49C562.498,1040.82 562.515,1041.11 562.527,1041.36C562.54,1041.6 562.546,1041.81 562.546,1041.96L562.546,1046.67L561.289,1046.67Z" style="fill:black;fill-rule:nonzero;"/>
            <path d="M566.768,1046.67L566.768,1039.88L565.753,1039.88L565.753,1038.75L569.362,1038.75L569.362,1039.88L568.336,1039.88L568.336,1046.67L566.768,1046.67Z" style="fill:black;fill-rule:nonzero;"/>
            <path d="M569.658,1046.67L569.658,1038.75L572.606,1038.75L572.606,1039.85L571.242,1039.85L571.242,1041.68L572.574,1041.68L572.574,1042.82L571.242,1042.82L571.242,1045.48L572.606,1045.48L572.606,1046.67L569.658,1046.67Z" style="fill:black;fill-rule:nonzero;"/>
            <path d="M575.147,1041.47L575.147,1040.21C575.147,1040.03 575.112,1039.91 575.042,1039.85C574.972,1039.79 574.832,1039.76 574.621,1039.76L574.621,1041.92L574.706,1041.92C574.871,1041.92 574.986,1041.89 575.05,1041.82C575.115,1041.76 575.147,1041.64 575.147,1041.47ZM573.036,1046.67L573.036,1038.75L574.884,1038.75C575.528,1038.75 575.996,1038.87 576.286,1039.09C576.576,1039.32 576.721,1039.68 576.721,1040.19L576.721,1041.02C576.721,1041.43 576.619,1041.75 576.414,1041.97C576.21,1042.2 575.906,1042.32 575.501,1042.34L575.501,1042.38C575.953,1042.41 576.269,1042.52 576.449,1042.72C576.63,1042.91 576.721,1043.25 576.721,1043.71L576.721,1045.73C576.721,1045.89 576.733,1046.05 576.758,1046.21C576.783,1046.38 576.819,1046.53 576.866,1046.67L575.303,1046.67C575.253,1046.54 575.214,1046.39 575.187,1046.22C575.16,1046.05 575.147,1045.88 575.147,1045.69L575.147,1045.4L575.147,1043.67C575.147,1043.45 575.105,1043.28 575.021,1043.17C574.937,1043.06 574.81,1043 574.642,1043L574.621,1043L574.621,1046.67L573.036,1046.67Z" style="fill:black;fill-rule:nonzero;"/>
            <path d="M577.129,1046.67L577.129,1038.75L579.299,1038.75L579.857,1042.11C579.907,1042.41 579.95,1042.75 579.986,1043.12C580.022,1043.49 580.052,1043.92 580.078,1044.4L580.142,1044.4C580.117,1043.84 580.098,1043.35 580.086,1042.93C580.073,1042.52 580.067,1042.22 580.067,1042.03L580.056,1038.75L581.297,1038.75L581.297,1046.67L579.438,1046.67L578.627,1042.37C578.595,1042.2 578.555,1041.95 578.507,1041.61C578.458,1041.27 578.409,1040.9 578.359,1040.49L578.316,1040.49C578.337,1040.82 578.354,1041.11 578.367,1041.36C578.379,1041.6 578.386,1041.81 578.386,1041.96L578.386,1046.67L577.129,1046.67Z" style="fill:black;fill-rule:nonzero;"/>
            <path d="M581.802,1046.67L581.802,1038.75L584.75,1038.75L584.75,1039.85L583.386,1039.85L583.386,1041.68L584.718,1041.68L584.718,1042.82L583.386,1042.82L583.386,1045.48L584.75,1045.48L584.75,1046.67L581.802,1046.67Z" style="fill:black;fill-rule:nonzero;"/>
            <path d="M585.986,1046.67L585.986,1039.88L584.971,1039.88L584.971,1038.75L588.58,1038.75L588.58,1039.88L587.554,1039.88L587.554,1046.67L585.986,1046.67Z" style="fill:black;fill-rule:nonzero;"/>
            <path d="M666.309,1046.67L666.309,1040.62L665.438,1040.62L665.438,1039.65L665.476,1039.65C665.78,1039.65 666.035,1039.58 666.241,1039.41C666.447,1039.26 666.581,1039.04 666.642,1038.75L667.882,1038.75L667.882,1046.67L666.309,1046.67Z" style="fill:black;fill-rule:nonzero;"/>
            <path d="M747.558,1040.1C747.558,1039.96 747.536,1039.86 747.493,1039.8C747.45,1039.73 747.384,1039.7 747.294,1039.7C747.198,1039.7 747.13,1039.73 747.09,1039.79C747.051,1039.85 747.031,1039.95 747.031,1040.1L747.031,1041.54L745.468,1041.54L745.468,1040.63C745.468,1039.88 745.611,1039.36 745.895,1039.05C746.18,1038.74 746.653,1038.58 747.316,1038.58C747.935,1038.58 748.398,1038.73 748.704,1039.03C749.01,1039.34 749.163,1039.79 749.163,1040.41C749.163,1041.12 748.784,1042.06 748.025,1043.21C747.878,1043.44 747.767,1043.62 747.692,1043.74C747.423,1044.16 747.241,1044.49 747.144,1044.73C747.047,1044.97 746.999,1045.2 746.999,1045.4C746.999,1045.41 747.001,1045.44 747.004,1045.47C747.008,1045.5 747.01,1045.52 747.01,1045.53L749.174,1045.53L749.174,1046.67L745.457,1046.67L745.457,1045.36C745.457,1045.04 745.515,1044.72 745.629,1044.4C745.744,1044.08 745.977,1043.65 746.328,1043.11C746.406,1042.99 746.519,1042.81 746.666,1042.59C747.26,1041.69 747.558,1041.06 747.558,1040.71L747.558,1040.1Z" style="fill:black;fill-rule:nonzero;"/>
            <path d="M825.836,1043.56L827.41,1043.56L827.41,1045.27C827.41,1045.4 827.432,1045.5 827.475,1045.56C827.517,1045.62 827.587,1045.65 827.684,1045.65C827.777,1045.65 827.844,1045.62 827.885,1045.57C827.927,1045.51 827.947,1045.41 827.947,1045.27L827.947,1043.78C827.947,1043.6 827.9,1043.45 827.805,1043.33C827.71,1043.21 827.593,1043.16 827.453,1043.16L826.905,1043.16L826.905,1042.01L827.453,1042.01C827.611,1042.01 827.732,1041.96 827.818,1041.85C827.904,1041.74 827.947,1041.58 827.947,1041.38L827.947,1040.1C827.947,1039.96 827.927,1039.87 827.885,1039.81C827.844,1039.74 827.777,1039.71 827.684,1039.71C827.587,1039.71 827.517,1039.74 827.475,1039.8C827.432,1039.86 827.41,1039.95 827.41,1040.1L827.41,1041.56L825.836,1041.56L825.836,1040.63C825.836,1039.88 825.978,1039.35 826.261,1039.04C826.544,1038.73 827.014,1038.58 827.673,1038.58C828.282,1038.58 828.742,1038.72 829.054,1038.99C829.365,1039.27 829.521,1039.68 829.521,1040.22L829.521,1041.13C829.521,1041.52 829.424,1041.82 829.231,1042.06C829.038,1042.29 828.742,1042.46 828.345,1042.56C828.746,1042.61 829.042,1042.74 829.234,1042.95C829.425,1043.16 829.521,1043.46 829.521,1043.85L829.521,1045.24C829.521,1045.75 829.362,1046.15 829.043,1046.43C828.724,1046.71 828.268,1046.85 827.673,1046.85C827.018,1046.85 826.548,1046.7 826.263,1046.38C825.979,1046.07 825.836,1045.55 825.836,1044.81L825.836,1043.56Z" style="fill:black;fill-rule:nonzero;"/>
            <path d="M908.031,1046.67L908.031,1044.71L905.952,1044.71L905.952,1043.59L907.461,1038.75L909.604,1038.75L909.604,1043.59L910.088,1043.59L910.088,1044.71L909.604,1044.71L909.604,1046.67L908.031,1046.67ZM907.161,1043.59L908.084,1043.59L908.095,1041.21C908.095,1041.1 908.104,1040.92 908.122,1040.65C908.14,1040.38 908.165,1040.08 908.197,1039.75L908.095,1039.75C908.02,1040.17 907.907,1040.7 907.757,1041.32C907.606,1041.94 907.408,1042.7 907.161,1043.59Z" style="fill:black;fill-rule:nonzero;"/>
            <path d="M959.422,1041.47L959.422,1040.21C959.422,1040.03 959.387,1039.91 959.317,1039.85C959.247,1039.79 959.107,1039.76 958.895,1039.76L958.895,1041.92L958.981,1041.92C959.146,1041.92 959.261,1041.89 959.325,1041.82C959.39,1041.76 959.422,1041.64 959.422,1041.47ZM957.311,1046.67L957.311,1038.75L959.159,1038.75C959.803,1038.75 960.27,1038.87 960.56,1039.09C960.85,1039.32 960.996,1039.68 960.996,1040.19L960.996,1041.02C960.996,1041.43 960.893,1041.75 960.689,1041.97C960.485,1042.2 960.181,1042.32 959.776,1042.34L959.776,1042.38C960.227,1042.41 960.543,1042.52 960.724,1042.72C960.905,1042.91 960.996,1043.25 960.996,1043.71L960.996,1045.73C960.996,1045.89 961.008,1046.05 961.033,1046.21C961.058,1046.38 961.094,1046.53 961.141,1046.67L959.578,1046.67C959.527,1046.54 959.489,1046.39 959.462,1046.22C959.435,1046.05 959.422,1045.88 959.422,1045.69L959.422,1045.4L959.422,1043.67C959.422,1043.45 959.38,1043.28 959.296,1043.17C959.211,1043.06 959.085,1043 958.917,1043L958.895,1043L958.895,1046.67L957.311,1046.67Z" style="fill:black;fill-rule:nonzero;"/>
            <path d="M961.371,1040.63C961.371,1039.89 961.515,1039.36 961.801,1039.05C962.088,1038.74 962.56,1038.58 963.219,1038.58C963.878,1038.58 964.351,1038.74 964.637,1039.05C964.924,1039.36 965.067,1039.88 965.067,1040.63L965.067,1044.81C965.067,1045.55 964.924,1046.07 964.64,1046.38C964.355,1046.7 963.882,1046.85 963.219,1046.85C962.557,1046.85 962.083,1046.7 961.798,1046.38C961.514,1046.07 961.371,1045.55 961.371,1044.81L961.371,1040.63ZM962.956,1040.1L962.956,1045.27C962.956,1045.41 962.977,1045.51 963.018,1045.57C963.059,1045.62 963.126,1045.65 963.219,1045.65C963.319,1045.65 963.39,1045.62 963.431,1045.56C963.472,1045.5 963.493,1045.4 963.493,1045.27L963.493,1040.1C963.493,1039.95 963.472,1039.86 963.431,1039.8C963.39,1039.74 963.319,1039.71 963.219,1039.71C963.126,1039.71 963.059,1039.74 963.018,1039.81C962.977,1039.87 962.956,1039.96 962.956,1040.1Z" style="fill:black;fill-rule:nonzero;"/>
            <path d="M969.224,1038.75L969.224,1044.82C969.224,1045.55 969.082,1046.08 968.797,1046.39C968.512,1046.7 968.039,1046.85 967.376,1046.85C966.714,1046.85 966.24,1046.7 965.956,1046.39C965.671,1046.08 965.529,1045.55 965.529,1044.82L965.529,1038.75L967.102,1038.75L967.102,1045.27C967.102,1045.4 967.124,1045.5 967.167,1045.56C967.21,1045.62 967.28,1045.65 967.376,1045.65C967.473,1045.65 967.541,1045.62 967.58,1045.57C967.62,1045.51 967.64,1045.41 967.64,1045.27L967.64,1038.75L969.224,1038.75Z" style="fill:black;fill-rule:nonzero;"/>
            <path d="M970.524,1046.67L970.524,1039.88L969.509,1039.88L969.509,1038.75L973.118,1038.75L973.118,1039.88L972.092,1039.88L972.092,1046.67L970.524,1046.67Z" style="fill:black;fill-rule:nonzero;"/>
            <path d="M973.413,1046.67L973.413,1038.75L976.362,1038.75L976.362,1039.85L974.998,1039.85L974.998,1041.68L976.33,1041.68L976.33,1042.82L974.998,1042.82L974.998,1045.48L976.362,1045.48L976.362,1046.67L973.413,1046.67Z" style="fill:black;fill-rule:nonzero;"/>
            <path d="M978.903,1041.47L978.903,1040.21C978.903,1040.03 978.868,1039.91 978.798,1039.85C978.728,1039.79 978.588,1039.76 978.376,1039.76L978.376,1041.92L978.462,1041.92C978.627,1041.92 978.742,1041.89 978.806,1041.82C978.871,1041.76 978.903,1041.64 978.903,1041.47ZM976.792,1046.67L976.792,1038.75L978.64,1038.75C979.284,1038.75 979.751,1038.87 980.041,1039.09C980.331,1039.32 980.476,1039.68 980.476,1040.19L980.476,1041.02C980.476,1041.43 980.374,1041.75 980.17,1041.97C979.966,1042.2 979.662,1042.32 979.257,1042.34L979.257,1042.38C979.708,1042.41 980.024,1042.52 980.205,1042.72C980.386,1042.91 980.476,1043.25 980.476,1043.71L980.476,1045.73C980.476,1045.89 980.489,1046.05 980.514,1046.21C980.539,1046.38 980.575,1046.53 980.621,1046.67L979.059,1046.67C979.008,1046.54 978.97,1046.39 978.943,1046.22C978.916,1046.05 978.903,1045.88 978.903,1045.69L978.903,1045.4L978.903,1043.67C978.903,1043.45 978.861,1043.28 978.777,1043.17C978.692,1043.06 978.566,1043 978.398,1043L978.376,1043L978.376,1046.67L976.792,1046.67Z" style="fill:black;fill-rule:nonzero;"/>
            <path d="M998.15,1046.67L997.361,1038.75L998.951,1038.75L999.139,1041.78C999.156,1042.04 999.172,1042.33 999.184,1042.65C999.197,1042.97 999.212,1043.42 999.23,1044.02L999.284,1044.02C999.309,1043.67 999.335,1043.34 999.361,1043.03C999.388,1042.71 999.414,1042.45 999.439,1042.24L999.853,1038.75L1001.53,1038.75L1001.86,1042.49C1001.86,1042.55 1001.88,1042.76 1001.9,1043.11C1001.93,1043.45 1001.96,1043.76 1001.98,1044.02L1002.03,1044.02C1002.05,1043.58 1002.07,1043.18 1002.09,1042.81C1002.1,1042.43 1002.13,1042.08 1002.15,1041.73L1002.4,1038.75L1003.73,1038.75L1002.87,1046.67L1001.05,1046.67L1000.65,1042.43C1000.63,1042.28 1000.62,1042.1 1000.61,1041.9C1000.6,1041.7 1000.58,1041.45 1000.57,1041.13L1000.51,1041.13L999.955,1046.67L998.15,1046.67Z" style="fill:black;fill-rule:nonzero;"/>
            <rect x="1004.13" y="1038.75" width="1.584" height="7.922" style="fill:black;fill-rule:nonzero;"/>
            <path d="M1006.15,1040.17C1006.15,1039.67 1006.31,1039.28 1006.63,1039C1006.96,1038.72 1007.41,1038.58 1008,1038.58C1008.58,1038.58 1009.04,1038.72 1009.35,1039C1009.67,1039.28 1009.83,1039.68 1009.83,1040.21L1009.83,1041.5L1008.26,1041.5L1008.26,1040.1C1008.26,1039.95 1008.24,1039.85 1008.2,1039.8C1008.16,1039.74 1008.09,1039.71 1008,1039.71C1007.89,1039.71 1007.83,1039.74 1007.78,1039.8C1007.74,1039.86 1007.72,1039.96 1007.72,1040.1L1007.72,1040.8C1007.72,1040.92 1007.74,1041.02 1007.77,1041.11C1007.8,1041.19 1007.85,1041.28 1007.92,1041.36L1009.44,1043.03C1009.58,1043.19 1009.68,1043.35 1009.74,1043.52C1009.8,1043.69 1009.83,1043.97 1009.83,1044.34L1009.83,1045.27C1009.83,1045.78 1009.67,1046.17 1009.35,1046.44C1009.03,1046.71 1008.58,1046.85 1007.99,1046.85C1007.38,1046.85 1006.92,1046.71 1006.61,1046.42C1006.3,1046.14 1006.15,1045.71 1006.15,1045.15L1006.15,1043.67L1007.72,1043.67L1007.72,1045.27C1007.72,1045.4 1007.74,1045.5 1007.78,1045.56C1007.83,1045.62 1007.89,1045.65 1008,1045.65C1008.09,1045.65 1008.16,1045.62 1008.2,1045.57C1008.24,1045.51 1008.26,1045.41 1008.26,1045.27L1008.26,1044.43C1008.26,1044.32 1008.24,1044.21 1008.2,1044.11C1008.16,1044.01 1008.09,1043.9 1007.99,1043.79L1006.56,1042.17C1006.41,1042.01 1006.31,1041.84 1006.24,1041.68C1006.18,1041.51 1006.15,1041.29 1006.15,1041.01L1006.15,1040.89L1006.15,1040.17Z" style="fill:black;fill-rule:nonzero;"/>
            <path d="M1012.38,1042.05L1012.38,1040.21C1012.38,1040.03 1012.35,1039.91 1012.29,1039.85C1012.23,1039.79 1012.1,1039.76 1011.92,1039.76L1011.86,1039.76L1011.86,1042.49L1011.95,1042.49C1012.12,1042.49 1012.23,1042.45 1012.29,1042.39C1012.35,1042.32 1012.38,1042.21 1012.38,1042.05ZM1010.27,1046.67L1010.27,1038.75L1012.12,1038.75C1012.75,1038.75 1013.22,1038.87 1013.51,1039.1C1013.81,1039.33 1013.96,1039.69 1013.96,1040.19L1013.96,1041.88C1013.96,1042.49 1013.81,1042.93 1013.52,1043.19C1013.23,1043.45 1012.74,1043.59 1012.05,1043.59L1011.86,1043.59L1011.86,1046.67L1010.27,1046.67Z" style="fill:black;fill-rule:nonzero;"/>
            <path d="M1031.42,1041.47L1031.42,1040.21C1031.42,1040.03 1031.39,1039.91 1031.32,1039.85C1031.25,1039.79 1031.11,1039.76 1030.89,1039.76L1030.89,1041.92L1030.98,1041.92C1031.15,1041.92 1031.26,1041.89 1031.33,1041.82C1031.39,1041.76 1031.42,1041.64 1031.42,1041.47ZM1029.31,1046.67L1029.31,1038.75L1031.16,1038.75C1031.8,1038.75 1032.27,1038.87 1032.56,1039.09C1032.85,1039.32 1033,1039.68 1033,1040.19L1033,1041.02C1033,1041.43 1032.89,1041.75 1032.69,1041.97C1032.49,1042.2 1032.18,1042.32 1031.78,1042.34L1031.78,1042.38C1032.23,1042.41 1032.54,1042.52 1032.72,1042.72C1032.9,1042.91 1033,1043.25 1033,1043.71L1033,1045.73C1033,1045.89 1033.01,1046.05 1033.03,1046.21C1033.06,1046.38 1033.09,1046.53 1033.14,1046.67L1031.58,1046.67C1031.53,1046.54 1031.49,1046.39 1031.46,1046.22C1031.43,1046.05 1031.42,1045.88 1031.42,1045.69L1031.42,1045.4L1031.42,1043.67C1031.42,1043.45 1031.38,1043.28 1031.3,1043.17C1031.21,1043.06 1031.09,1043 1030.92,1043L1030.89,1043L1030.89,1046.67L1029.31,1046.67Z" style="fill:black;fill-rule:nonzero;"/>
            <path d="M1033.41,1046.67L1033.41,1038.75L1036.36,1038.75L1036.36,1039.85L1035,1039.85L1035,1041.68L1036.33,1041.68L1036.33,1042.82L1035,1042.82L1035,1045.48L1036.36,1045.48L1036.36,1046.67L1033.41,1046.67Z" style="fill:black;fill-rule:nonzero;"/>
            <path d="M1036.72,1040.17C1036.72,1039.67 1036.88,1039.28 1037.2,1039C1037.53,1038.72 1037.98,1038.58 1038.57,1038.58C1039.15,1038.58 1039.61,1038.72 1039.92,1039C1040.24,1039.28 1040.4,1039.68 1040.4,1040.21L1040.4,1041.5L1038.83,1041.5L1038.83,1040.1C1038.83,1039.95 1038.81,1039.85 1038.77,1039.8C1038.73,1039.74 1038.66,1039.71 1038.57,1039.71C1038.46,1039.71 1038.39,1039.74 1038.35,1039.8C1038.31,1039.86 1038.29,1039.96 1038.29,1040.1L1038.29,1040.8C1038.29,1040.92 1038.31,1041.02 1038.34,1041.11C1038.37,1041.19 1038.42,1041.28 1038.49,1041.36L1040.01,1043.03C1040.15,1043.19 1040.25,1043.35 1040.31,1043.52C1040.37,1043.69 1040.4,1043.97 1040.4,1044.34L1040.4,1045.27C1040.4,1045.78 1040.24,1046.17 1039.92,1046.44C1039.6,1046.71 1039.14,1046.85 1038.56,1046.85C1037.95,1046.85 1037.49,1046.71 1037.18,1046.42C1036.87,1046.14 1036.72,1045.71 1036.72,1045.15L1036.72,1043.67L1038.29,1043.67L1038.29,1045.27C1038.29,1045.4 1038.31,1045.5 1038.35,1045.56C1038.39,1045.62 1038.46,1045.65 1038.57,1045.65C1038.66,1045.65 1038.73,1045.62 1038.77,1045.57C1038.81,1045.51 1038.83,1045.41 1038.83,1045.27L1038.83,1044.43C1038.83,1044.32 1038.81,1044.21 1038.77,1044.11C1038.73,1044.01 1038.65,1043.9 1038.56,1043.79L1037.13,1042.17C1036.98,1042.01 1036.87,1041.84 1036.81,1041.68C1036.75,1041.51 1036.72,1041.29 1036.72,1041.01L1036.72,1040.89L1036.72,1040.17Z" style="fill:black;fill-rule:nonzero;"/>
            <path d="M1040.84,1046.67L1040.84,1038.75L1043.79,1038.75L1043.79,1039.85L1042.43,1039.85L1042.43,1041.68L1043.76,1041.68L1043.76,1042.82L1042.43,1042.82L1042.43,1045.48L1043.79,1045.48L1043.79,1046.67L1040.84,1046.67Z" style="fill:black;fill-rule:nonzero;"/>
            <path d="M1045.03,1046.67L1045.03,1039.88L1044.01,1039.88L1044.01,1038.75L1047.62,1038.75L1047.62,1039.88L1046.6,1039.88L1046.6,1046.67L1045.03,1046.67Z" style="fill:black;fill-rule:nonzero;"/>
        </g>
        <g transform="matrix(1,0,0,1,58.3251,30.8381)">
            <path d="M874.15,1006.93L873.361,999.008L874.95,999.008L875.138,1002.03C875.156,1002.3 875.172,1002.59 875.184,1002.9C875.197,1003.22 875.212,1003.68 875.23,1004.28L875.283,1004.28C875.308,1003.92 875.334,1003.59 875.361,1003.28C875.388,1002.97 875.414,1002.71 875.439,1002.5L875.853,999.008L877.529,999.008L877.856,1002.75C877.86,1002.81 877.876,1003.01 877.905,1003.36C877.933,1003.71 877.958,1004.02 877.98,1004.28L878.033,1004.28C878.048,1003.84 878.065,1003.44 878.084,1003.06C878.104,1002.69 878.127,1002.33 878.152,1001.98L878.399,999.008L879.725,999.008L878.871,1006.93L877.045,1006.93L876.648,1002.68C876.633,1002.53 876.62,1002.36 876.607,1002.16C876.595,1001.96 876.583,1001.7 876.572,1001.39L876.513,1001.39L875.955,1006.93L874.15,1006.93Z" style="fill:black;fill-rule:nonzero;"/>
            <path d="M882.255,1002.3L882.255,1000.46C882.255,1000.28 882.224,1000.17 882.161,1000.1C882.098,1000.04 881.976,1000.01 881.793,1000.01L881.729,1000.01L881.729,1002.74L881.825,1002.74C881.99,1002.74 882.103,1002.71 882.164,1002.64C882.225,1002.58 882.255,1002.47 882.255,1002.3ZM880.144,1006.93L880.144,999.008L881.992,999.008C882.626,999.008 883.09,999.123 883.386,999.354C883.681,999.585 883.829,999.948 883.829,1000.44L883.829,1002.13C883.829,1002.75 883.683,1003.19 883.391,1003.45C883.099,1003.71 882.608,1003.84 881.917,1003.84L881.729,1003.84L881.729,1006.93L880.144,1006.93Z" style="fill:black;fill-rule:nonzero;"/>
            <path d="M884.14,1000.43C884.14,999.926 884.302,999.534 884.626,999.255C884.95,998.976 885.404,998.836 885.988,998.836C886.575,998.836 887.028,998.977 887.347,999.258C887.666,999.539 887.825,999.941 887.825,1000.46L887.825,1001.76L886.251,1001.76L886.251,1000.35C886.251,1000.21 886.231,1000.11 886.192,1000.05C886.153,999.997 886.085,999.969 885.988,999.969C885.888,999.969 885.817,999.999 885.776,1000.06C885.735,1000.12 885.714,1000.22 885.714,1000.35L885.714,1001.05C885.714,1001.17 885.729,1001.27 885.76,1001.36C885.79,1001.45 885.839,1001.54 885.907,1001.62L887.427,1003.29C887.571,1003.44 887.673,1003.61 887.734,1003.78C887.794,1003.95 887.825,1004.22 887.825,1004.6L887.825,1005.52C887.825,1006.03 887.665,1006.42 887.344,1006.7C887.024,1006.97 886.568,1007.11 885.977,1007.11C885.372,1007.11 884.915,1006.96 884.605,1006.68C884.295,1006.39 884.14,1005.97 884.14,1005.41L884.14,1003.93L885.714,1003.93L885.714,1005.52C885.714,1005.66 885.735,1005.76 885.776,1005.82C885.817,1005.88 885.888,1005.91 885.988,1005.91C886.081,1005.91 886.148,1005.88 886.189,1005.82C886.231,1005.76 886.251,1005.66 886.251,1005.52L886.251,1004.69C886.251,1004.57 886.231,1004.46 886.189,1004.37C886.148,1004.27 886.078,1004.16 885.977,1004.05L884.549,1002.43C884.402,1002.26 884.297,1002.1 884.234,1001.93C884.172,1001.77 884.14,1001.54 884.14,1001.26L884.14,1001.15L884.14,1000.43Z" style="fill:black;fill-rule:nonzero;"/>
            <path d="M889.071,1007.95L888.255,1007.95L889.995,998.836L890.806,998.836L889.071,1007.95Z" style="fill:black;fill-rule:nonzero;"/>
        </g>
    </g>
    <g id="ON-off">
        <g transform="matrix(1,0,0,1,-0.627516,0.355553)">
            <ellipse cx="321.797" cy="999.854" rx="16.795" ry="16.434" style="fill:rgb(72,72,74);stroke-width:1px;stroke:black;"/>
        </g>
        <g transform="matrix(0.766109,0,0,0.766109,74.7377,234.386)">
            <ellipse cx="321.797" cy="999.854" rx="16.795" ry="16.434" style="fill:rgb(72,72,74);stroke-width:2.61px;stroke:black;"/>
        </g>
        <g transform="matrix(1,0,0,1,-0.0942289,0.933291)">
            <path d="M321.381,992.932L321.381,1006" style="fill:none;stroke-width:3.5px;stroke:black;"/>
        </g>
    </g>
    <g id="Power">
        <rect x="360.529" y="973.018" width="50.745" height="61.322" style="fill:rgb(72,72,74);stroke-width:3.5px;stroke:black;"/>
        <g transform="matrix(1,0,0,1,-0.754159,0.503051)">
            <ellipse cx="387.025" cy="998.035" rx="16.88" ry="17.207" style="fill:rgb(72,72,74);stroke-width:1px;stroke:black;"/>
        </g>
        <ellipse cx="386.992" cy="998.717" rx="8.879" ry="8.391" style="fill:rgb(99,100,102);stroke-width:1px;stroke:black;"/>
        <g transform="matrix(1,0,0,1,-0.111324,-0.214278)">
            <ellipse cx="387.249" cy="998.987" rx="5.203" ry="5.065" style="fill:rgb(216,217,218);stroke-width:3px;stroke:rgb(58,57,59);"/>
        </g>
        <path d="M378.699,1011.21L394.491,1011.21L394.491,1012.99L392.11,1014.15L380.447,1014.15L378.699,1013.38L378.699,1011.21Z" style="fill:rgb(47,45,46);stroke-width:0.1px;stroke:rgb(35,31,32);"/>
    </g>
    <g id="reset" transform="matrix(1,0,0,1,56.8707,0.122747)">
        <ellipse cx="882.113" cy="1013.72" rx="10.926" ry="10.594" style="fill:rgb(91,92,94);stroke-width:3.5px;stroke:rgb(35,31,32);"/>
    </g>
    <g id="reset-kipp">
        <rect x="865.735" y="1018.41" width="40.16" height="10.079" style="fill:rgb(35,31,32);stroke-width:0.7px;stroke:black;"/>
        <rect x="893.861" y="1019.45" width="11.188" height="8.118" style="fill:black;stroke-width:0.7px;stroke:black;"/>
    </g>
    <g id="Antenne-rechts" transform="matrix(0.996888,0.0788262,-0.0788262,0.996888,157.334,0.755997)">
        <path d="M120.287,1044.5C145.666,1046.15 170.967,1044.94 196.122,1038.31C186.738,954.067 176.003,869.986 165.386,785.448C153.485,690.685 144.206,595.81 136.169,500.921C123.262,348.532 113.558,196.11 101.338,44.067C94.843,34.286 93.884,31.86 78.236,31.803C63.376,31.75 55.213,33.893 50.362,48.363C62.696,199.956 75.313,351.326 85.845,504.33C92.335,598.612 98.033,693.515 102.385,789.471C106.568,875.201 120.287,1044.5 120.287,1044.5Z" style="fill:rgb(201,201,209);stroke-width:3px;stroke:black;"/>
    </g>
    <g id="Antenne-rechts1" transform="matrix(0.996888,0.0788262,-0.0788262,0.996888,931.481,0.755997)">
        <path d="M120.287,1044.5C145.666,1046.15 170.967,1044.94 196.122,1038.31C186.738,954.067 176.003,869.986 165.386,785.448C153.485,690.685 144.206,595.81 136.169,500.921C123.262,348.532 113.558,196.11 101.338,44.067C94.843,34.286 93.884,31.86 78.236,31.803C63.376,31.75 55.213,33.893 50.362,48.363C62.696,199.956 75.313,351.326 85.845,504.33C92.335,598.612 98.033,693.515 102.385,789.471C106.568,875.201 120.287,1044.5 120.287,1044.5Z" style="fill:rgb(201,201,209);stroke-width:3px;stroke:black;"/>
    </g>
</svg>
