<?xml version="1.0" standalone="no"?>
<!DOCTYPE svg PUBLIC "-//W3C//DTD SVG 1.1//EN" "http://www.w3.org/Graphics/SVG/1.1/DTD/svg11.dtd">
<svg width="100%" height="100%" viewBox="0 0 1280 1150" version="1.1" xmlns="http://www.w3.org/2000/svg" xmlns:xlink="http://www.w3.org/1999/xlink" xml:space="preserve" style="fill-rule:evenodd;clip-rule:evenodd;stroke-linecap:round;stroke-linejoin:round;stroke-miterlimit:1.41421;">
    <g id="Mi ANT rechts">
        <path d="M723.056,707.427C717.96,696.66 709.495,687.734 695.778,681.677L663.286,669.094C656.155,666.688 652.485,656.641 650.857,643.609L596.355,110.49C593.633,80.593 581.803,67.338 563.52,65.873L541.187,77.264L605.313,643.609L632.228,713.289L723.056,707.427Z" style="fill:rgb(204,204,204);stroke-width:3px;stroke:black;"/>
        <path d="M660.163,683.793L636.883,675.219C626.846,670.426 622.992,660.259 621.834,647.747L563.526,66.033L535.206,75.532L593.8,692.866L660.163,683.793" style="fill:rgb(128,128,128);stroke-width:3px;stroke:black;"/>
    </g>
    <g id="Rolle unten">
        <path d="M396.899,889.827L218.159,939.887L255.186,824.033L396.899,889.827Z" style="fill:rgb(93,91,92);stroke-width:3px;stroke:black;"/>
        <path d="M273.909,857.52C267.291,866.626 263.692,883.31 258.969,901.308C252.954,919.151 242.83,930.288 229.683,936.489" style="fill:rgb(93,91,92);stroke-width:3px;stroke:black;"/>
    </g>
    <g id="seite">
        <path d="M767.1,1017.42L833.225,1092.08C824.495,1098.91 814.964,1100.03 804.73,1096.12L804.73,1075.56L290.54,842.753L275.342,891.605L804.73,1096.12L804.73,1015.03" style="fill:rgb(114,113,111);stroke-width:3px;stroke:black;"/>
        <path d="M835.139,1096.34L1262.11,932L1262.11,905.937L835.139,1064.7L191.215,773.346L157.654,872.366L224.267,938.061C240.757,924.013 252.32,900.738 259.323,868.927C264.926,857.877 268.327,856.267 285.805,863.67L835.139,1096.34Z" style="fill:rgb(159,151,148);stroke-width:3px;stroke:black;"/>
    </g>
    <g id="Deckel">
        <path d="M835.139,1064.71L835.139,1095.05" style="fill:none;stroke-width:3px;stroke:black;"/>
        <path id="deckel" d="M835.139,1064.65L1262.11,905.932L671.078,687.775C652.364,680.867 635.979,683.904 616.728,687.775L191.193,773.333L835.139,1064.65Z" style="fill:rgb(216,216,214);stroke-width:3px;stroke:black;"/>
    </g>
    <g id="Mi ANT links">
        <path d="M69.039,56.823C41.24,63.382 16.621,80.213 17.777,108.359L25.306,180.744L97.26,845.418C102.475,906.823 121.07,951.388 175.557,950.783C203.935,938.421 225.828,924.968 222.903,907.342C232.68,842.554 210.858,799.291 160.71,775.325L70.654,76.005L69.039,56.823Z" style="fill:rgb(128,128,128);stroke-width:3px;stroke:black;"/>
        <path d="M223.839,938.379C256.492,913.518 263.876,843.57 223.839,797.147C209.035,780.854 189.79,773.183 169.565,767.414C164.297,765.149 161.037,749.321 158.708,727.201L84.103,53.829C54.428,56.539 45.173,70.834 46.249,90.99L118.469,748.937C120.11,764.285 125.372,773.637 134.567,776.48L163.139,788.912C198.025,804.09 243.89,911.86 175.003,950.822L223.839,938.379Z" style="fill:rgb(204,204,204);stroke-width:3px;stroke:black;"/>
    </g>
    <g id="kreis">
        <g transform="matrix(0.884903,-0.206882,0.234564,1.00331,-191.547,30.4487)">
            <ellipse cx="160.885" cy="869.006" rx="49.835" ry="69.787" style="fill:rgb(204,204,204);stroke-width:1.03px;stroke:black;"/>
        </g>
        <g transform="matrix(0.795244,-0.18592,0.220865,0.944714,-170.094,77.296)">
            <ellipse cx="160.885" cy="869.006" rx="49.835" ry="69.787" style="fill:rgb(128,128,128);stroke-width:1.12px;stroke:black;"/>
        </g>
    </g>
    <g transform="matrix(0.222311,-0.0309975,0.0594087,0.426073,808.952,737.364)">
        <path d="M1028.98,658.722C1029.83,655.565 1026.22,653.751 1017.44,654.881L954.389,662.599C949.299,663.254 948.681,665.042 947.801,668.335L945.912,675.406C945.777,677.269 948.709,678.608 955.601,677.804L1017.61,670.569C1023.66,669.736 1026,669.876 1027.04,665.985L1028.98,658.722Z" style="fill:rgb(134,209,249);stroke-width:1.6px;stroke-linejoin:miter;stroke:rgb(80,190,255);"/>
    </g>
</svg>
