<?xml version="1.0" encoding="UTF-8" standalone="no"?>
<!DOCTYPE svg PUBLIC "-//W3C//DTD SVG 1.1//EN" "http://www.w3.org/Graphics/SVG/1.1/DTD/svg11.dtd">
<svg width="100%" height="100%" viewBox="0 0 1280 1150" version="1.1" xmlns="http://www.w3.org/2000/svg" xmlns:xlink="http://www.w3.org/1999/xlink" xml:space="preserve" style="fill-rule:evenodd;clip-rule:evenodd;stroke-linecap:round;stroke-linejoin:round;stroke-miterlimit:1.41421;">
    <g id="neueeeeeee">
        <g id="Antenne-weis" transform="matrix(1,0,0,0.880525,325.3,-121.825)">
            <g transform="matrix(1.53729,0,0,0.989908,-676.149,358.924)">
                <rect x="824.251" y="373.007" width="30.241" height="36.613" style="fill:rgb(14,14,14);stroke-width:0.64px;stroke:rgb(37,37,37);"/>
            </g>
            <g transform="matrix(1,0,0,0.928514,-0.109967,78.6656)">
                <path d="M596.842,146.048C598.148,134.335 629.626,134.428 631.468,146.048C631.468,146.048 632.361,305.275 631.468,454.318C630.385,635.257 637.722,632.773 637.722,685.677L591.116,685.677C591.208,650.44 595.064,566.875 594.763,454.318C594.366,305.649 596.488,148.735 596.842,146.048" style="fill:rgb(201,201,209);stroke-width:0.49px;stroke:rgb(53,52,58);"/>
            </g>
            <g transform="matrix(1,0,0,0.742937,0,206.707)">
                <path d="M619.462,641.727L619.462,41.042C615.315,45.234 613.301,45.809 608.833,41.042L608.833,641.727C605.066,657.466 599.707,672.464 591.006,684.606L591.006,764.895C595.999,764.084 599.375,760.037 599.193,748.868L599.193,714.835L630.585,714.835L630.585,748.868C630.36,759.768 632.558,765.423 637.612,764.895L637.612,684.606C627.142,671.111 622.264,656.364 619.462,641.727Z" style="fill:rgb(231,232,237);stroke-width:0.53px;stroke:rgb(53,52,58);"/>
            </g>
            <g transform="matrix(1.49405,0,0,1.2606,-640.361,258.705)">
                <path d="M837.283,402.883L837.283,378.72L840.849,378.72L840.849,402.883L837.283,402.883" style="fill:rgb(217,217,217);stroke-width:0.61px;stroke:rgb(122,122,122);"/>
            </g>
            <g transform="matrix(1.49405,0,0,1.2606,-640.361,258.705)">
                <path d="M830.924,413.1L830.924,385.423L835.661,385.423L835.661,400.59L843.011,400.59L843.011,385.423L848.323,385.423L848.323,413.1L830.924,413.1Z" style="fill:rgb(201,201,209);stroke-width:0.61px;stroke:rgb(37,37,37);stroke-opacity:0.992157;"/>
            </g>
            <g transform="matrix(1.5195,0,0,1.24204,-661.157,267.44)">
                <path d="M829.277,378.882L850.297,378.882C850.297,373.295 847.063,370.273 840.15,370.247C832.708,370.218 829.386,373.473 829.277,378.882" style="fill:rgb(201,201,209);"/>
            </g>
            <g transform="matrix(1.49405,0,0,1.62655,-640.361,108.94)">
                <path d="M823.669,432.657L855.247,428.66L855.247,412.853C844.703,408.205 834.176,407.905 823.669,412.853L823.669,432.657" style="fill:rgb(201,201,209);stroke-width:0.55px;stroke:rgb(37,37,37);stroke-opacity:0.992157;"/>
            </g>
            <g transform="matrix(1,0,0,0.930642,0,78.2032)">
                <path d="M596.842,146.048C598.148,134.335 629.626,134.428 631.468,146.048C632.004,150.27 630.686,154.042 628.26,158.546C625.819,163.078 623.038,167.23 619.462,170.845C615.315,175.037 613.301,175.612 608.833,170.845C605.538,167.329 602.57,163.212 599.901,158.546C597.855,154.669 596.51,150.594 596.842,146.048" style="fill:rgb(219,219,225);stroke-width:0.49px;stroke:rgb(53,52,58);"/>
            </g>
        </g>
        <g id="Antenne-weis1" transform="matrix(1,0,0,0.880525,-190.452,-121.911)">
            <g transform="matrix(1.53729,0,0,0.989908,-676.149,358.924)">
                <rect x="824.251" y="373.007" width="30.241" height="36.613" style="fill:rgb(14,14,14);stroke-width:0.64px;stroke:rgb(37,37,37);"/>
            </g>
            <g transform="matrix(1,0,0,0.928514,-0.109967,78.6656)">
                <path d="M596.842,146.048C598.148,134.335 629.626,134.428 631.468,146.048C631.468,146.048 632.361,305.275 631.468,454.318C630.385,635.257 637.722,632.773 637.722,685.677L591.116,685.677C591.208,650.44 595.064,566.875 594.763,454.318C594.366,305.649 596.488,148.735 596.842,146.048" style="fill:rgb(201,201,209);stroke-width:0.49px;stroke:rgb(53,52,58);"/>
            </g>
            <g transform="matrix(1,0,0,0.742937,0,206.707)">
                <path d="M619.462,641.727L619.462,41.042C615.315,45.234 613.301,45.809 608.833,41.042L608.833,641.727C605.066,657.466 599.707,672.464 591.006,684.606L591.006,764.895C595.999,764.084 599.375,760.037 599.193,748.868L599.193,714.835L630.585,714.835L630.585,748.868C630.36,759.768 632.558,765.423 637.612,764.895L637.612,684.606C627.142,671.111 622.264,656.364 619.462,641.727Z" style="fill:rgb(231,232,237);stroke-width:0.53px;stroke:rgb(53,52,58);"/>
            </g>
            <g transform="matrix(1.49405,0,0,1.2606,-640.361,258.705)">
                <path d="M837.283,402.883L837.283,378.72L840.849,378.72L840.849,402.883L837.283,402.883" style="fill:rgb(217,217,217);stroke-width:0.61px;stroke:rgb(122,122,122);"/>
            </g>
            <g transform="matrix(1.49405,0,0,1.2606,-640.361,258.705)">
                <path d="M830.924,413.1L830.924,385.423L835.661,385.423L835.661,400.59L843.011,400.59L843.011,385.423L848.323,385.423L848.323,413.1L830.924,413.1Z" style="fill:rgb(201,201,209);stroke-width:0.61px;stroke:rgb(37,37,37);stroke-opacity:0.992157;"/>
            </g>
            <g transform="matrix(1.5195,0,0,1.24204,-661.157,267.44)">
                <path d="M829.277,378.882L850.297,378.882C850.297,373.295 847.063,370.273 840.15,370.247C832.708,370.218 829.386,373.473 829.277,378.882" style="fill:rgb(201,201,209);"/>
            </g>
            <g transform="matrix(1.49405,0,0,1.62655,-640.361,108.94)">
                <path d="M823.669,432.657L855.247,428.66L855.247,412.853C844.703,408.205 834.176,407.905 823.669,412.853L823.669,432.657" style="fill:rgb(201,201,209);stroke-width:0.55px;stroke:rgb(37,37,37);stroke-opacity:0.992157;"/>
            </g>
            <g transform="matrix(1,0,0,0.930642,0,78.2032)">
                <path d="M596.842,146.048C598.148,134.335 629.626,134.428 631.468,146.048C632.004,150.27 630.686,154.042 628.26,158.546C625.819,163.078 623.038,167.23 619.462,170.845C615.315,175.037 613.301,175.612 608.833,170.845C605.538,167.329 602.57,163.212 599.901,158.546C597.855,154.669 596.51,150.594 596.842,146.048" style="fill:rgb(219,219,225);stroke-width:0.49px;stroke:rgb(53,52,58);"/>
            </g>
        </g>
        <g id="rumpf" transform="matrix(0.642484,0,0,0.642484,267.351,411.782)">
            <g transform="matrix(1.35723,0,0,1.57108,-231.142,-363.196)">
                <path d="M339.179,871.611C378.368,880.576 573.466,897.986 714.549,892.101C925.377,883.307 948.346,875.022 964.909,871.611C1034.75,857.227 1052.78,821.006 1059.83,784.418C1080.31,678.206 1083.81,568.516 1059.83,458.123C1054.58,433.941 1030.04,402.579 992.687,394.008C983.786,400.33 975.517,404.267 969.374,404.172L332.701,404.172C319.782,404.156 313.271,400.038 309.747,394.008C274.581,400.403 249.322,428.287 237.412,458.123C196.271,561.184 226.818,753.794 237.412,794.768C248.893,839.172 282.986,858.757 339.179,871.611Z" style="fill:white;stroke-width:1.06px;stroke:black;"/>
            </g>
            <g transform="matrix(1.30982,0,0,1.49058,-200.372,-315.137)">
                <path d="M339.179,872.886C378.368,881.85 573.466,899.365 714.549,893.48C925.377,884.686 948.189,875.94 964.909,872.886C1035.52,859.984 1052.78,821.006 1059.83,784.418C1080.31,678.206 1080.36,569.034 1059.83,458.123C1055.43,434.357 1029.93,408.38 1004.38,399.809C997.77,397.59 990.546,395.691 981.869,393.775L318.202,393.775C288.008,399.985 248.35,416.959 237.412,458.123C209.18,564.365 226.818,753.794 237.412,794.768C248.893,839.172 282.986,860.031 339.179,872.886Z" style="fill:rgb(201,201,209);stroke-width:1.11px;stroke:black;"/>
            </g>
            <g transform="matrix(1.29832,0,0,1.47749,-192.909,-306.873)">
                <path d="M339.179,871.611C378.368,880.576 573.466,897.986 714.549,892.101C925.377,883.307 948.346,875.022 964.909,871.611C1034.75,857.227 1052.78,821.006 1059.83,784.418C1080.31,678.206 1080.36,569.034 1059.83,458.123C1055.43,434.357 1029.93,408.38 1004.38,399.809C940.467,378.367 772.144,371.561 655.232,370.014C550.914,368.633 403.032,378.4 339.179,388.839C296.662,395.79 248.679,412.803 237.412,458.123C210.914,564.71 226.818,753.794 237.412,794.768C248.893,839.172 282.986,858.757 339.179,871.611Z" style="fill:white;stroke-width:1.12px;stroke:black;"/>
            </g>
            <g transform="matrix(1.24742,0,0,1.39181,-160.888,-248.7)">
                <path d="M339.179,871.611C378.368,880.576 573.466,897.986 714.549,892.101C925.377,883.307 948.346,875.022 964.909,871.611C1034.75,857.227 1052.78,821.006 1059.83,784.418C1080.31,678.206 1080.36,569.034 1059.83,458.123C1055.43,434.357 1029.93,408.38 1004.38,399.809C940.467,378.367 772.144,371.561 655.232,370.014C550.914,368.633 403.032,378.4 339.179,388.839C296.662,395.79 248.679,412.803 237.412,458.123C210.914,564.71 226.818,753.794 237.412,794.768C248.893,839.172 282.986,858.757 339.179,871.611Z" style="fill:rgb(201,201,209);stroke-width:1.18px;stroke:black;"/>
            </g>
            <g transform="matrix(1.22743,0,0,1.35773,-147.086,-226.763)">
                <path d="M339.179,871.611C378.368,880.576 573.466,897.986 714.549,892.101C925.377,883.307 948.346,875.022 964.909,871.611C1034.75,857.227 1052.78,821.006 1059.83,784.418C1080.31,678.206 1080.36,569.034 1059.83,458.123C1055.43,434.357 1029.93,408.38 1004.38,399.809C940.467,378.367 772.144,371.561 655.232,370.014C550.914,368.633 403.032,378.4 339.179,388.839C296.662,395.79 248.679,412.803 237.412,458.123C210.914,564.71 226.818,753.794 237.412,794.768C248.893,839.172 282.986,858.757 339.179,871.611Z" style="fill:white;stroke-width:1.2px;stroke:black;"/>
            </g>
            <g transform="matrix(1.17497,0,0,1.27325,-113.702,-172.93)">
                <path d="M339.179,874.352C379.109,880.051 472.319,892.818 611.86,892.299C822.91,891.513 948.125,876.719 964.909,874.352C986.219,871.346 1012.04,864.143 1027.79,850.279C1049.69,830.997 1053.16,819.027 1059.83,784.418C1080.35,678.02 1080.08,569.42 1059.83,458.123C1053.56,423.631 1029.69,407.749 1004.38,399.809C939.976,379.602 772.144,371.561 655.232,370.014C550.914,368.633 403.032,378.4 339.179,388.839C296.662,395.79 248.87,407.32 237.412,458.123C212.789,567.298 222.107,680.039 237.412,794.768C241.206,823.206 261.547,847.007 281.815,856.509C302.126,866.03 325.632,872.418 339.179,874.352Z" style="fill:rgb(201,201,209);stroke-width:1.27px;stroke:black;"/>
            </g>
            <g transform="matrix(1.15376,0,0,1.23967,-99.9453,-151.656)">
                <path d="M339.179,874.352C370.898,879.023 469.686,891.808 611.86,892.299C822.911,893.026 948.125,876.719 964.909,874.352C986.219,871.346 1012.04,864.143 1027.79,850.279C1049.69,830.997 1053.16,819.027 1059.83,784.418C1080.35,678.02 1080.08,569.42 1059.83,458.123C1053.56,423.631 1029.69,407.749 1004.38,399.809C939.976,379.602 772.144,371.561 655.232,370.014C550.914,368.633 403.032,378.4 339.179,388.839C296.662,395.79 248.87,407.32 237.412,458.123C212.789,567.298 222.107,680.039 237.412,794.768C241.206,823.206 261.547,847.007 281.815,856.509C302.126,866.03 325.642,872.358 339.179,874.352Z" style="fill:white;stroke-width:1.3px;stroke:black;"/>
            </g>
            <g transform="matrix(1.09703,0,0,1.15466,-62.9357,-97.5455)">
                <path d="M339.179,875.614C339.179,875.614 469.752,891.188 611.86,892.299C822.905,893.948 948.125,876.719 964.909,874.352C986.219,871.346 1007.25,866.83 1026.99,856.509C1053.28,842.762 1058.4,819.258 1063.74,784.418C1080.06,677.978 1078.29,569.364 1063.74,458.123C1059.19,423.361 1030.62,403.233 1004.71,397.219C903.273,373.678 769.251,372.501 652.338,370.953C548.021,369.573 443.62,377.592 339.179,388.839C284.917,394.683 242.459,406.799 232.994,458.123C212.858,567.302 220.298,680.778 234.261,796.139C237.873,824.35 250.167,848.511 270.436,858.012C290.747,867.533 325.592,873.935 339.179,875.614Z" style="fill:rgb(201,201,209);stroke-width:1.38px;stroke:black;"/>
            </g>
            <g transform="matrix(1.07767,0,0,1.1153,-50.393,-72.6833)">
                <path d="M339.179,875.614C339.179,875.614 469.752,891.188 611.86,892.299C822.905,893.948 948.125,876.719 964.909,874.352C986.219,871.346 1007.25,866.83 1026.99,856.509C1053.28,842.762 1058.4,819.258 1063.74,784.418C1080.06,677.978 1078.29,569.364 1063.74,458.123C1059.19,423.361 1030.62,403.233 1004.71,397.219C903.273,373.678 769.251,372.501 652.338,370.953C548.021,369.573 443.62,377.592 339.179,388.839C284.917,394.683 242.459,406.799 232.994,458.123C212.858,567.302 220.298,680.778 234.261,796.139C237.873,824.35 250.167,848.511 270.436,858.012C290.747,867.533 325.592,873.935 339.179,875.614Z" style="fill:white;stroke-width:1.42px;stroke:black;"/>
            </g>
            <g transform="matrix(1.01964,0,0,1.01964,-12.7426,-12.2653)">
                <path d="M339.179,874.352C339.179,874.352 469.752,891.188 611.86,892.299C822.905,893.948 948.125,876.719 964.909,874.352C986.219,871.346 1008.17,869.253 1027.9,858.931C1054.19,845.185 1062.26,819.085 1066.57,784.102C1079.67,677.717 1080.68,569.233 1066.57,458.123C1062.01,422.269 1039.54,403.849 1004.71,397.219C902.355,377.739 769.251,372.501 652.338,370.953C548.021,369.573 443.62,377.592 339.179,388.839C284.917,394.683 243.731,399.066 232.994,458.123C213.162,567.202 220.917,681.665 232.994,796.971C236.606,825.183 248.976,851.203 270.036,858.931C291.158,866.683 325.592,872.673 339.179,874.352Z" style="fill:rgb(13,13,13);stroke-width:1.53px;stroke:black;"/>
            </g>
            <path d="M493.572,814.923L814.977,814.923C843.915,815.092 867.862,829.189 890.63,847.78C910.435,863.953 934.169,878.687 964.909,874.352C986.219,871.346 1008.17,869.253 1027.9,858.931C1054.19,845.185 1062.26,819.085 1066.57,784.102C1079.67,677.717 1080.68,569.233 1066.57,458.123C1062.01,422.269 1039.54,405.328 1004.71,398.699C902.355,379.218 769.251,375.631 652.338,374.084C548.021,372.704 443.62,379.75 339.179,390.997C284.917,396.841 243.731,399.066 232.994,458.123C213.162,567.202 220.917,681.665 232.994,796.971C236.606,825.183 248.976,851.203 270.036,858.931C291.158,866.683 324.716,873.586 339.179,874.352C370.76,876.024 388.047,862.131 406.28,847.78C433.871,826.064 454.798,814.923 493.572,814.923Z" style="fill:white;stroke-width:1.56px;stroke:black;"/>
        </g>
        <g id="anzeige" transform="matrix(0.591514,0,0,0.641955,335.953,339.046)">
            <g transform="matrix(1.11419,4.15022e-17,-3.3233e-17,0.819387,-134.206,154.197)">
                <path d="M532.5,1001.56C535.537,998.5 538.583,999.103 541.634,1001.56" style="fill:none;stroke-width:3px;stroke:white;"/>
                <path d="M529.218,994.65C534.394,990.708 539.528,990.83 544.623,994.65" style="fill:none;stroke-width:3px;stroke:white;"/>
                <path d="M526.539,988.847C533.32,983.95 540.233,983.383 547.33,988.847" style="fill:none;stroke-width:3px;stroke:white;"/>
            </g>
            <g transform="matrix(1.07743,-0.00297445,0.00258418,0.936066,-170.754,40.2477)">
                <g transform="matrix(1,0,-4.33681e-19,1.14185,-6.11733e-14,-139.828)">
                    <path d="M626.349,996.053L623.073,996.053L623.073,985.75L641.216,985.75L641.216,996.053L638.183,996.053" style="fill:none;stroke-width:3px;stroke:white;"/>
                </g>
                <path d="M626.295,1003.22L637.337,1003.22L632.352,1003.22L632.352,995.421" style="fill:none;stroke-width:3px;stroke:white;"/>
            </g>
            <g transform="matrix(1.07743,-0.00297445,0.00258418,0.936066,-121.697,40.2477)">
                <g transform="matrix(1,0,-4.33681e-19,1.14185,-6.11733e-14,-139.828)">
                    <path d="M626.349,996.053L623.073,996.053L623.073,985.75L641.216,985.75L641.216,996.053L638.183,996.053" style="fill:none;stroke-width:3px;stroke:white;"/>
                </g>
                <path d="M626.295,1003.22L637.337,1003.22L632.352,1003.22L632.352,995.421" style="fill:none;stroke-width:3px;stroke:white;"/>
            </g>
            <g transform="matrix(1.07743,-0.00297445,0.00258418,0.936066,-71.9361,40.2477)">
                <g transform="matrix(1,0,-4.33681e-19,1.14185,-6.11733e-14,-139.828)">
                    <path d="M626.349,996.053L623.073,996.053L623.073,985.75L641.216,985.75L641.216,996.053L638.183,996.053" style="fill:none;stroke-width:3px;stroke:white;"/>
                </g>
                <path d="M626.295,1003.22L637.337,1003.22L632.352,1003.22L632.352,995.421" style="fill:none;stroke-width:3px;stroke:white;"/>
            </g>
            <g transform="matrix(1.07743,-0.00297445,0.00258418,0.936066,-22.753,40.2477)">
                <g transform="matrix(1,0,-4.33681e-19,1.14185,-6.11733e-14,-139.828)">
                    <path d="M626.349,996.053L623.073,996.053L623.073,985.75L641.216,985.75L641.216,996.053L638.183,996.053" style="fill:none;stroke-width:3px;stroke:white;"/>
                </g>
                <path d="M626.295,1003.22L637.337,1003.22L632.352,1003.22L632.352,995.421" style="fill:none;stroke-width:3px;stroke:white;"/>
            </g>
            <g id="Inet" transform="matrix(1.63302,2.96898e-16,-3.65665e-16,2.23473,-493.471,-1248.75)">
                <g transform="matrix(1.27235,-0.227769,0.318368,1.77845,-475.111,-424.452)">
                    <ellipse cx="729.346" cy="889.27" rx="6.378" ry="1.404" style="fill:none;stroke-width:1.31px;stroke:white;"/>
                </g>
                <g transform="matrix(1.09502,0,0,1.09781,-70.6185,8.19739)">
                    <ellipse cx="737.796" cy="896.539" rx="5.426" ry="3.783" style="fill:none;stroke-width:1.86px;stroke:white;"/>
                </g>
            </g>
            <g id="lock" transform="matrix(1.32005,0,0,1.21633,-269.962,-54.2529)">
                <rect x="771.78" y="838.061" width="15.937" height="9.53" style="fill:none;stroke-width:3.2px;stroke:white;"/>
                <path d="M773.83,838.061C773.806,829.265 785.722,829.488 785.745,838.061" style="fill:none;stroke-width:3.2px;stroke:white;"/>
            </g>
            <g id="power" transform="matrix(3.33575,-1.18208e-15,9.23711e-16,2.56002,-1134.64,-1540.23)">
                <g transform="matrix(0.74223,0,0,0.74223,119.215,252.802)">
                    <circle cx="466.635" cy="978.914" r="4.395" style="fill:none;stroke-width:1.85px;stroke:white;"/>
                </g>
                <g transform="matrix(1,9.86076e-32,9.86076e-32,1.21477,-0.143123,-210.642)">
                    <path d="M466.406,975.365C466.406,975.185 466.258,975.039 466.076,975.039L465.417,975.039C465.235,975.039 465.087,975.185 465.087,975.365L465.087,979.179C465.087,979.359 465.235,979.505 465.417,979.505L466.076,979.505C466.258,979.505 466.406,979.359 466.406,979.179L466.406,975.365Z" style="fill:white;stroke-width:0.76px;stroke:rgb(13,13,13);"/>
                </g>
            </g>
        </g>
    </g>
</svg>
