<?xml version="1.0" encoding="UTF-8" standalone="no"?>
<!DOCTYPE svg PUBLIC "-//W3C//DTD SVG 1.1//EN" "http://www.w3.org/Graphics/SVG/1.1/DTD/svg11.dtd">
<svg width="100%" height="100%" viewBox="0 0 1280 1150" version="1.1" xmlns="http://www.w3.org/2000/svg" xmlns:xlink="http://www.w3.org/1999/xlink" xml:space="preserve" style="fill-rule:evenodd;clip-rule:evenodd;stroke-linejoin:round;stroke-miterlimit:1.41421;">
    <g id="ubiquiti-airrouter">
        <g id="fuesse">
            <path d="M1081.14,780.802L1081.14,792.397C1081.14,793.614 1082.15,795.187 1083.33,795.187L1155.81,795.187C1157.3,795.187 1158.73,793.693 1158.73,792.397L1158.73,780.802L1081.14,780.802Z" style="fill:rgb(26,25,25);stroke-width:1px;stroke:rgb(17,17,17);"/>
            <g transform="matrix(1,0,0,1,-973.247,0)">
                <path d="M1081.14,780.802L1081.14,792.397C1081.14,793.614 1082.15,795.187 1083.33,795.187L1155.81,795.187C1157.3,795.187 1158.73,793.693 1158.73,792.397L1158.73,780.802L1081.14,780.802Z" style="fill:rgb(26,25,25);stroke-width:1px;stroke:rgb(17,17,17);"/>
            </g>
        </g>
        <g id="case">
            <path id="outer" d="M58.396,786.797C49.713,786.797 42.118,772.166 41.944,758.03C59.65,679.558 94.529,622.506 151.965,593.585C175.709,581.63 199.305,572.131 226.298,572.131L1047.32,572.131C1074.9,572.075 1103.19,578.716 1132.34,593.585C1196.63,626.384 1229.77,686.588 1242.53,758.03C1243.59,780.325 1232.23,786.797 1215.08,786.797L58.396,786.797Z" style="fill:rgb(73,74,73);stroke-width:3px;stroke-linecap:round;stroke:black;"/>
            <path id="inner" d="M58.396,786.797C49.713,786.797 55.305,771.694 58.396,758.03C74.92,684.971 105.684,647.488 151.965,615.093C168.309,603.653 208.364,588.596 226.298,588.596L1047.32,588.596C1074.9,588.541 1104.88,597.292 1132.34,615.093C1183.36,648.18 1213.35,693.74 1224.89,758.03C1225.94,780.325 1212.65,788.058 1212.65,786.797L58.396,786.797Z" style="fill:rgb(54,54,54);stroke-width:3px;stroke-linecap:round;stroke:black;"/>
        </g>
        <g>
            <g transform="matrix(0.994539,0,0,0.954639,2.29188,32.9807)">
                <rect x="221.806" y="582.209" width="842.34" height="144.866" style="fill:rgb(41,41,40);stroke-width:2.05px;stroke-linecap:round;stroke:black;"/>
            </g>
            <g id="WAN" transform="matrix(-1.16587,1.42777e-16,-1.47339e-16,-1.20311,835.616,1870.25)">
                <path d="M430.126,958.534L520.049,958.534L520.049,1035.48L430.126,1035.48L430.126,958.534" style="fill:rgb(41,41,40);stroke-width:1.69px;stroke-linecap:round;stroke:black;"/>
                <path d="M463.538,961.757L487.377,961.757L487.377,969.841L494.601,969.841L494.601,977.802L508.571,977.802L508.571,989.68L513.332,989.68L513.332,1005.6L508.571,1005.6L508.571,1018.27L440.482,1018.27L440.482,1005.6L437.015,1005.6L437.015,989.68L440.482,989.68L440.482,977.802L455.182,977.802L455.182,969.841L463.538,969.841L463.538,961.757" style="fill:rgb(26,25,25);stroke-width:0.84px;stroke-linecap:round;stroke:black;"/>
                <rect x="436.816" y="989.68" width="9.385" height="15.92" style="fill:black;stroke-width:0.84px;stroke-linecap:round;stroke:black;"/>
                <g transform="matrix(1,0,0,1,67.0669,-0.0235958)">
                    <rect x="436.816" y="989.68" width="9.385" height="15.92" style="fill:black;stroke-width:0.84px;stroke-linecap:round;stroke:black;"/>
                </g>
                <path d="M450.462,1000.22L450.462,1012.69" style="fill:none;stroke-width:0.84px;stroke-linecap:round;stroke:black;"/>
                <g transform="matrix(1,0,0,1,5.18811,0.142889)">
                    <path d="M450.462,1000.22L450.462,1012.69" style="fill:none;stroke-width:0.84px;stroke-linecap:round;stroke:black;"/>
                </g>
                <g transform="matrix(1,0,0,1,10.8216,0.142889)">
                    <path d="M450.462,1000.22L450.462,1012.69" style="fill:none;stroke-width:0.84px;stroke-linecap:round;stroke:black;"/>
                </g>
                <g transform="matrix(1,0,0,1,22.0044,0.291919)">
                    <path d="M450.462,1000.07L450.462,1012.69" style="fill:none;stroke-width:0.84px;stroke-linecap:round;stroke:black;"/>
                </g>
                <g transform="matrix(1,0,0,1,27.0496,0.291919)">
                    <path d="M450.462,1000.05L450.462,1012.69" style="fill:none;stroke-width:0.84px;stroke-linecap:round;stroke:black;"/>
                </g>
                <g transform="matrix(1,0,0,1,49.4509,0.192566)">
                    <path d="M450.462,1000.16L450.462,1012.69" style="fill:none;stroke-width:0.84px;stroke-linecap:round;stroke:black;"/>
                </g>
                <path d="M466.922,1000.38L466.922,1018.21" style="fill:none;stroke-width:0.84px;stroke-linecap:round;stroke:black;"/>
                <g transform="matrix(1,0,0,1,16.0399,-0.0558162)">
                    <path d="M466.922,1000.41L466.922,1018.27" style="fill:none;stroke-width:0.84px;stroke-linecap:round;stroke:black;"/>
                </g>
                <g transform="matrix(1,0,0,1,21.7443,-0.154611)">
                    <path d="M466.922,1000.5L466.922,1018.4" style="fill:none;stroke-width:0.84px;stroke-linecap:round;stroke:black;"/>
                </g>
                <g transform="matrix(1,0,0,1,27.6257,-0.353316)">
                    <path d="M466.922,1000.67L466.922,1018.4" style="fill:none;stroke-width:0.84px;stroke-linecap:round;stroke:black;"/>
                </g>
            </g>
            <g id="lan4" transform="matrix(-1.30851,1.60247e-16,-1.40975e-16,-1.15115,1497.15,1826.03)">
                <g transform="matrix(3.73365,0,0,1,-1085.67,-0.000264784)">
                    <path d="M430.126,958.534L520.049,958.534L520.049,1035.48L430.126,1035.48L430.126,958.534" style="fill:rgb(41,41,40);stroke-width:0.56px;stroke-linecap:round;stroke:black;"/>
                </g>
                <g transform="matrix(1,0,0,1,93.3029,-0.747357)">
                    <path d="M463.538,961.757L487.377,961.757L487.377,969.841L494.601,969.841L494.601,977.802L508.571,977.802L508.571,989.68L513.332,989.68L513.332,1005.6L508.571,1005.6L508.571,1018.27L440.482,1018.27L440.482,1005.6L437.015,1005.6L437.015,989.68L440.482,989.68L440.482,977.802L455.182,977.802L455.182,969.841L463.538,969.841L463.538,961.757" style="fill:rgb(26,25,25);stroke-width:0.81px;stroke-linecap:round;stroke:black;"/>
                </g>
                <g transform="matrix(1,0,0,1,172.876,-0.661805)">
                    <path d="M463.538,961.757L487.377,961.757L487.377,969.841L494.601,969.841L494.601,977.802L508.571,977.802L508.571,989.68L513.332,989.68L513.332,1005.6L508.571,1005.6L508.571,1018.27L440.482,1018.27L440.482,1005.6L437.015,1005.6L437.015,989.68L440.482,989.68L440.482,977.802L455.182,977.802L455.182,969.841L463.538,969.841L463.538,961.757" style="fill:rgb(26,25,25);stroke-width:0.81px;stroke-linecap:round;stroke:black;"/>
                </g>
                <g transform="matrix(1,0,0,1,252.488,-0.755912)">
                    <path d="M463.538,961.757L487.377,961.757L487.377,969.841L494.601,969.841L494.601,977.802L508.571,977.802L508.571,989.68L513.332,989.68L513.332,1005.6L508.571,1005.6L508.571,1018.27L440.482,1018.27L440.482,1005.6L437.015,1005.6L437.015,989.68L440.482,989.68L440.482,977.802L455.182,977.802L455.182,969.841L463.538,969.841L463.538,961.757" style="fill:rgb(26,25,25);stroke-width:0.81px;stroke-linecap:round;stroke:black;"/>
                </g>
                <g transform="matrix(1,0,0,1,332.053,-0.509522)">
                    <path d="M463.538,961.757L487.377,961.757L487.377,969.841L494.601,969.841L494.601,977.802L508.571,977.802L508.571,989.68L513.332,989.68L513.332,1005.6L508.571,1005.6L508.571,1018.27L440.482,1018.27L440.482,1005.6L437.015,1005.6L437.015,989.68L440.482,989.68L440.482,977.802L455.182,977.802L455.182,969.841L463.538,969.841L463.538,961.757" style="fill:rgb(26,25,25);stroke-width:0.81px;stroke-linecap:round;stroke:black;"/>
                </g>
                <g transform="matrix(1,0,0,1,93.3029,-0.747357)">
                    <rect x="436.816" y="989.68" width="9.385" height="15.92" style="fill:black;stroke-width:0.81px;stroke-linecap:round;stroke:black;"/>
                </g>
                <g transform="matrix(1,0,0,1,172.876,-0.661805)">
                    <rect x="436.816" y="989.68" width="9.385" height="15.92" style="fill:black;stroke-width:0.81px;stroke-linecap:round;stroke:black;"/>
                </g>
                <g transform="matrix(1,0,0,1,252.488,-0.755912)">
                    <rect x="436.816" y="989.68" width="9.385" height="15.92" style="fill:black;stroke-width:0.81px;stroke-linecap:round;stroke:black;"/>
                </g>
                <g transform="matrix(1,0,0,1,332.053,-0.509522)">
                    <rect x="436.816" y="989.68" width="9.385" height="15.92" style="fill:black;stroke-width:0.81px;stroke-linecap:round;stroke:black;"/>
                </g>
                <g transform="matrix(1,0,0,1,160.37,-0.770952)">
                    <rect x="436.816" y="989.68" width="9.385" height="15.92" style="fill:black;stroke-width:0.81px;stroke-linecap:round;stroke:black;"/>
                </g>
                <g transform="matrix(1,0,0,1,239.942,-0.685401)">
                    <rect x="436.816" y="989.68" width="9.385" height="15.92" style="fill:black;stroke-width:0.81px;stroke-linecap:round;stroke:black;"/>
                </g>
                <g transform="matrix(1,0,0,1,319.555,-0.779508)">
                    <rect x="436.816" y="989.68" width="9.385" height="15.92" style="fill:black;stroke-width:0.81px;stroke-linecap:round;stroke:black;"/>
                </g>
                <g transform="matrix(1,0,0,1,399.12,-0.533118)">
                    <rect x="436.816" y="989.68" width="9.385" height="15.92" style="fill:black;stroke-width:0.81px;stroke-linecap:round;stroke:black;"/>
                </g>
                <g transform="matrix(1,0,0,1,93.3029,-0.747357)">
                    <path d="M450.462,1000.22L450.462,1012.69" style="fill:none;stroke-width:0.81px;stroke-linecap:round;stroke:black;"/>
                </g>
                <g transform="matrix(1,0,0,1,172.876,-0.661805)">
                    <path d="M450.462,1000.22L450.462,1012.69" style="fill:none;stroke-width:0.81px;stroke-linecap:round;stroke:black;"/>
                </g>
                <g transform="matrix(1,0,0,1,252.488,-0.755912)">
                    <path d="M450.462,1000.22L450.462,1012.69" style="fill:none;stroke-width:0.81px;stroke-linecap:round;stroke:black;"/>
                </g>
                <g transform="matrix(1,0,0,1,332.053,-0.509522)">
                    <path d="M450.462,1000.22L450.462,1012.69" style="fill:none;stroke-width:0.81px;stroke-linecap:round;stroke:black;"/>
                </g>
                <g transform="matrix(1,0,0,1,98.491,-0.604467)">
                    <path d="M450.462,1000.22L450.462,1012.69" style="fill:none;stroke-width:0.81px;stroke-linecap:round;stroke:black;"/>
                </g>
                <g transform="matrix(1,0,0,1,178.064,-0.518915)">
                    <path d="M450.462,1000.22L450.462,1012.69" style="fill:none;stroke-width:0.81px;stroke-linecap:round;stroke:black;"/>
                </g>
                <g transform="matrix(1,0,0,1,257.676,-0.613022)">
                    <path d="M450.462,1000.22L450.462,1012.69" style="fill:none;stroke-width:0.81px;stroke-linecap:round;stroke:black;"/>
                </g>
                <g transform="matrix(1,0,0,1,337.242,-0.366633)">
                    <path d="M450.462,1000.22L450.462,1012.69" style="fill:none;stroke-width:0.81px;stroke-linecap:round;stroke:black;"/>
                </g>
                <g transform="matrix(1,0,0,1,104.125,-0.604467)">
                    <path d="M450.462,1000.22L450.462,1012.69" style="fill:none;stroke-width:0.81px;stroke-linecap:round;stroke:black;"/>
                </g>
                <g transform="matrix(1,0,0,1,183.697,-0.518915)">
                    <path d="M450.462,1000.22L450.462,1012.69" style="fill:none;stroke-width:0.81px;stroke-linecap:round;stroke:black;"/>
                </g>
                <g transform="matrix(1,0,0,1,263.309,-0.613022)">
                    <path d="M450.462,1000.22L450.462,1012.69" style="fill:none;stroke-width:0.81px;stroke-linecap:round;stroke:black;"/>
                </g>
                <g transform="matrix(1,0,0,1,342.875,-0.366633)">
                    <path d="M450.462,1000.22L450.462,1012.69" style="fill:none;stroke-width:0.81px;stroke-linecap:round;stroke:black;"/>
                </g>
                <g transform="matrix(1,0,0,1,115.307,-0.455438)">
                    <path d="M450.462,1000.07L450.462,1012.69" style="fill:none;stroke-width:0.81px;stroke-linecap:round;stroke:black;"/>
                </g>
                <g transform="matrix(1,0,0,1,194.88,-0.369886)">
                    <path d="M450.462,1000.07L450.462,1012.69" style="fill:none;stroke-width:0.81px;stroke-linecap:round;stroke:black;"/>
                </g>
                <g transform="matrix(1,0,0,1,274.492,-0.463993)">
                    <path d="M450.462,1000.07L450.462,1012.69" style="fill:none;stroke-width:0.81px;stroke-linecap:round;stroke:black;"/>
                </g>
                <g transform="matrix(1,0,0,1,354.058,-0.217604)">
                    <path d="M450.462,1000.07L450.462,1012.69" style="fill:none;stroke-width:0.81px;stroke-linecap:round;stroke:black;"/>
                </g>
                <g transform="matrix(1,0,0,1,120.353,-0.455438)">
                    <path d="M450.462,1000.05L450.462,1012.69" style="fill:none;stroke-width:0.81px;stroke-linecap:round;stroke:black;"/>
                </g>
                <g transform="matrix(1,0,0,1,199.925,-0.369886)">
                    <path d="M450.462,1000.05L450.462,1012.69" style="fill:none;stroke-width:0.81px;stroke-linecap:round;stroke:black;"/>
                </g>
                <g transform="matrix(1,0,0,1,279.537,-0.463993)">
                    <path d="M450.462,1000.05L450.462,1012.69" style="fill:none;stroke-width:0.81px;stroke-linecap:round;stroke:black;"/>
                </g>
                <g transform="matrix(1,0,0,1,359.103,-0.217604)">
                    <path d="M450.462,1000.05L450.462,1012.69" style="fill:none;stroke-width:0.81px;stroke-linecap:round;stroke:black;"/>
                </g>
                <g transform="matrix(1,0,0,1,142.754,-0.554791)">
                    <path d="M450.462,1000.16L450.462,1012.69" style="fill:none;stroke-width:0.81px;stroke-linecap:round;stroke:black;"/>
                </g>
                <g transform="matrix(1,0,0,1,222.326,-0.469239)">
                    <path d="M450.462,1000.16L450.462,1012.69" style="fill:none;stroke-width:0.81px;stroke-linecap:round;stroke:black;"/>
                </g>
                <g transform="matrix(1,0,0,1,301.939,-0.563346)">
                    <path d="M450.462,1000.16L450.462,1012.69" style="fill:none;stroke-width:0.81px;stroke-linecap:round;stroke:black;"/>
                </g>
                <g transform="matrix(1,0,0,1,381.504,-0.316957)">
                    <path d="M450.462,1000.16L450.462,1012.69" style="fill:none;stroke-width:0.81px;stroke-linecap:round;stroke:black;"/>
                </g>
                <g transform="matrix(1,0,0,1,93.3029,-0.747357)">
                    <path d="M466.922,1000.38L466.922,1018.21" style="fill:none;stroke-width:0.81px;stroke-linecap:round;stroke:black;"/>
                </g>
                <g transform="matrix(1,0,0,1,172.876,-0.661805)">
                    <path d="M466.922,1000.38L466.922,1018.21" style="fill:none;stroke-width:0.81px;stroke-linecap:round;stroke:black;"/>
                </g>
                <g transform="matrix(1,0,0,1,252.488,-0.755912)">
                    <path d="M466.922,1000.38L466.922,1018.21" style="fill:none;stroke-width:0.81px;stroke-linecap:round;stroke:black;"/>
                </g>
                <g transform="matrix(1,0,0,1,332.053,-0.509522)">
                    <path d="M466.922,1000.38L466.922,1018.21" style="fill:none;stroke-width:0.81px;stroke-linecap:round;stroke:black;"/>
                </g>
                <g transform="matrix(1,0,0,1,109.343,-0.803173)">
                    <path d="M466.922,1000.41L466.922,1018.27" style="fill:none;stroke-width:0.81px;stroke-linecap:round;stroke:black;"/>
                </g>
                <g transform="matrix(1,0,0,1,188.915,-0.717621)">
                    <path d="M466.922,1000.41L466.922,1018.27" style="fill:none;stroke-width:0.81px;stroke-linecap:round;stroke:black;"/>
                </g>
                <g transform="matrix(1,0,0,1,268.528,-0.811728)">
                    <path d="M466.922,1000.41L466.922,1018.27" style="fill:none;stroke-width:0.81px;stroke-linecap:round;stroke:black;"/>
                </g>
                <g transform="matrix(1,0,0,1,348.093,-0.565338)">
                    <path d="M466.922,1000.41L466.922,1018.27" style="fill:none;stroke-width:0.81px;stroke-linecap:round;stroke:black;"/>
                </g>
                <g transform="matrix(1,0,0,1,115.047,-0.901967)">
                    <path d="M466.922,1000.5L466.922,1018.4" style="fill:none;stroke-width:0.81px;stroke-linecap:round;stroke:black;"/>
                </g>
                <g transform="matrix(1,0,0,1,194.62,-0.816415)">
                    <path d="M466.922,1000.5L466.922,1018.4" style="fill:none;stroke-width:0.81px;stroke-linecap:round;stroke:black;"/>
                </g>
                <g transform="matrix(1,0,0,1,274.232,-0.910523)">
                    <path d="M466.922,1000.5L466.922,1018.4" style="fill:none;stroke-width:0.81px;stroke-linecap:round;stroke:black;"/>
                </g>
                <g transform="matrix(1,0,0,1,353.798,-0.664133)">
                    <path d="M466.922,1000.5L466.922,1018.4" style="fill:none;stroke-width:0.81px;stroke-linecap:round;stroke:black;"/>
                </g>
                <g transform="matrix(1,0,0,1,120.929,-1.10067)">
                    <path d="M466.922,1000.67L466.922,1018.4" style="fill:none;stroke-width:0.81px;stroke-linecap:round;stroke:black;"/>
                </g>
                <g transform="matrix(1,0,0,1,200.501,-1.01512)">
                    <path d="M466.922,1000.67L466.922,1018.4" style="fill:none;stroke-width:0.81px;stroke-linecap:round;stroke:black;"/>
                </g>
                <g transform="matrix(1,0,0,1,280.113,-1.10923)">
                    <path d="M466.922,1000.67L466.922,1018.4" style="fill:none;stroke-width:0.81px;stroke-linecap:round;stroke:black;"/>
                </g>
                <g transform="matrix(1,0,0,1,359.679,-0.862839)">
                    <path d="M466.922,1000.67L466.922,1018.4" style="fill:none;stroke-width:0.81px;stroke-linecap:round;stroke:black;"/>
                </g>
            </g>
            <g id="Power" transform="matrix(1.38036,0,0,1.38036,476.166,-707.393)">
                <rect x="360.529" y="973.018" width="50.745" height="61.322" style="fill:rgb(72,72,74);stroke-width:2.54px;stroke-linecap:round;stroke:black;"/>
                <g transform="matrix(1,0,0,1,-0.754159,0.503051)">
                    <ellipse cx="387.025" cy="998.035" rx="16.88" ry="17.207" style="fill:rgb(72,72,74);stroke-width:0.72px;stroke-linecap:round;stroke:black;"/>
                </g>
                <ellipse cx="386.992" cy="998.717" rx="8.879" ry="8.391" style="fill:rgb(99,100,102);stroke-width:0.72px;stroke-linecap:round;stroke:black;"/>
                <g transform="matrix(1,0,0,1,-0.111324,-0.214278)">
                    <ellipse cx="387.249" cy="998.987" rx="5.203" ry="5.065" style="fill:rgb(216,217,218);stroke-width:2.17px;stroke-linecap:round;stroke:rgb(58,57,59);"/>
                </g>
                <path d="M378.699,1011.21L394.491,1011.21L394.491,1012.99L392.11,1014.15L380.447,1014.15L378.699,1013.38L378.699,1011.21Z" style="fill:rgb(47,45,46);stroke-width:0.07px;stroke-linecap:round;stroke:rgb(35,31,32);"/>
            </g>
            <g id="USB-Port-Hochkant" transform="matrix(1.29074,0,0,1.26872,-134.158,-596.793)">
                <g transform="matrix(1.24266,0,0,1.04702,-187.856,-45.2159)">
                    <rect x="797.162" y="952.18" width="35.211" height="82.069" style="fill:rgb(49,49,49);stroke-width:0.68px;stroke-linecap:round;stroke:black;"/>
                </g>
                <g transform="matrix(0.939579,0,0,0.964472,49.6788,34.9392)">
                    <path d="M844.035,961.651C838.659,962.357 842.018,957.286 840.263,955.504C838.409,953.621 833.887,957.121 833.851,951.73L813.483,951.73C813.06,958.195 809.277,954.793 807.442,956.539C805.548,958.341 809.127,962.125 803.299,961.651L803.299,1027.15C809.777,1026.59 805.868,1031.08 807.46,1033.07C808.995,1034.99 813.535,1031.19 813.484,1036.98C813.484,1037 813.493,1037.03 813.51,1037.04C813.527,1037.06 813.55,1037.07 813.574,1037.07C815.045,1037.07 833.851,1037.07 833.851,1037.07C833.819,1031.53 837.723,1034.41 839.72,1033.19C841.739,1031.96 837.786,1027.04 844.035,1027.15L844.035,961.651Z" style="fill:rgb(130,115,92);stroke-width:2.46px;stroke-linecap:round;stroke:rgb(203,203,203);"/>
                </g>
                <g transform="matrix(0.939579,0,0,0.964472,49.6788,34.9392)">
                    <path d="M844.035,961.651C838.659,962.357 842.018,957.286 840.263,955.504C838.409,953.621 833.887,957.121 833.851,951.73L813.483,951.73C813.06,958.195 809.277,954.793 807.442,956.539C805.548,958.341 809.127,962.125 803.299,961.651L803.299,1027.15C809.777,1026.59 805.868,1031.08 807.46,1033.07C808.995,1034.99 813.535,1031.19 813.484,1036.98C813.484,1037 813.493,1037.03 813.51,1037.04C813.527,1037.06 813.55,1037.07 813.574,1037.07C815.045,1037.07 833.851,1037.07 833.851,1037.07C833.819,1031.53 837.723,1034.41 839.72,1033.19C841.739,1031.96 837.786,1027.04 844.035,1027.15L844.035,961.651Z" style="fill:rgb(130,115,92);stroke-width:2.46px;stroke-linecap:round;stroke:rgb(203,203,203);"/>
                </g>
                <g transform="matrix(1,0,0,1,-0.730877,0.338846)">
                    <rect x="822.968" y="966.895" width="5.718" height="8.772" style="fill:black;stroke-width:0.39px;stroke-linecap:round;stroke:black;"/>
                </g>
                <g transform="matrix(1,0,0,1,-0.794451,13.8694)">
                    <rect x="822.968" y="966.895" width="5.718" height="8.772" style="fill:black;stroke-width:0.39px;stroke-linecap:round;stroke:black;"/>
                </g>
                <g transform="matrix(1,0,0,1,-0.812951,26.3374)">
                    <rect x="822.968" y="966.895" width="5.718" height="8.772" style="fill:black;stroke-width:0.39px;stroke-linecap:round;stroke:black;"/>
                </g>
                <g transform="matrix(1,0,0,1,-0.864451,40.5344)">
                    <rect x="822.968" y="966.895" width="5.718" height="8.772" style="fill:black;stroke-width:0.39px;stroke-linecap:round;stroke:black;"/>
                </g>
                <g transform="matrix(1,0,0,1.03333,0,-34.1453)">
                    <rect x="814.95" y="963.194" width="9.175" height="61.293" style="fill:rgb(203,203,203);stroke-width:0.38px;stroke-linecap:round;stroke:black;"/>
                </g>
            </g>
            <g transform="matrix(1,0,0,1,-21.8162,-323.112)">
                <g id="reset">
                    <ellipse cx="882.113" cy="1013.72" rx="10.926" ry="10.594" style="fill:rgb(64,64,64);stroke-width:3.5px;stroke-linecap:round;stroke:rgb(35,31,32);"/>
                </g>
            </g>
        </g>
        <g id="lan">
            <path d="M271.165,602.026L265.613,607.778L271.165,613.736" style="fill:none;stroke-width:2.5px;stroke-linecap:round;stroke:white;"/>
            <g transform="matrix(-1,5.55112e-17,-5.55112e-17,-1,555.647,1215.76)">
                <path d="M271.165,602.026L265.613,607.778L271.165,613.736" style="fill:none;stroke-width:2.5px;stroke-linecap:round;stroke:white;"/>
            </g>
            <g transform="matrix(1,0,0,1,0.0903486,0.0946509)">
                <rect x="271.49" y="606.961" width="1.765" height="1.639" style="fill:white;"/>
            </g>
            <g transform="matrix(1,0,0,1,5.27737,0.0946509)">
                <rect x="271.49" y="606.961" width="1.765" height="1.639" style="fill:white;"/>
            </g>
            <g transform="matrix(1,0,0,1,10.8397,0.0946509)">
                <rect x="271.49" y="606.961" width="1.765" height="1.639" style="fill:white;"/>
            </g>
        </g>
        <g transform="matrix(1.39308,0,0,1.39308,201.06,-328.909)">
            <path d="M160.763,683.844L159.726,683.844L159.726,675.937L158.274,675.937L158.908,674.911L160.763,674.911L160.763,683.844Z" style="fill:white;fill-rule:nonzero;"/>
            <path d="M236.459,683.844L230.224,683.844L233.701,680.086C234.287,679.467 234.702,678.979 234.946,678.621C235.19,678.263 235.312,677.857 235.312,677.401C235.312,676.945 235.135,676.547 234.781,676.205C234.428,675.863 233.988,675.692 233.463,675.692C232.939,675.692 232.501,675.878 232.152,676.248C231.802,676.618 231.602,677.145 231.554,677.828L230.541,677.828C230.581,676.868 230.887,676.105 231.456,675.54C232.026,674.975 232.715,674.692 233.524,674.692C234.334,674.692 235.005,674.954 235.538,675.479C236.071,676.004 236.337,676.644 236.337,677.401C236.337,677.954 236.191,678.471 235.898,678.951C235.605,679.431 235.162,679.988 234.568,680.623L232.518,682.831L236.459,682.831L236.459,683.844Z" style="fill:white;fill-rule:nonzero;"/>
            <path d="M272.727,683.844L268.298,683.844L268.298,674.911L269.359,674.911L269.359,682.831L272.727,682.831L272.727,683.844Z" style="fill:white;fill-rule:nonzero;"/>
            <path d="M281.819,683.844L280.708,683.844L279.329,680.854L275.644,680.854L274.277,683.844L273.118,683.844L277.34,674.558L277.657,674.558L281.819,683.844ZM278.853,679.793L277.499,676.779L276.132,679.793L278.853,679.793Z" style="fill:white;fill-rule:nonzero;"/>
            <path d="M290.031,683.844L289.714,683.844L284.052,677.364L284.052,683.844L282.978,683.844L282.978,674.911L283.295,674.911L288.994,681.477L288.994,674.911L290.031,674.911L290.031,683.844Z" style="fill:white;fill-rule:nonzero;"/>
            <path d="M320.295,678.817C320.775,679.052 321.148,679.378 321.412,679.793C321.676,680.208 321.809,680.659 321.809,681.147C321.809,681.945 321.518,682.63 320.936,683.204C320.354,683.777 319.62,684.064 318.733,684.064C317.936,684.064 317.283,683.834 316.775,683.374C316.266,682.915 315.923,682.233 315.744,681.33L316.781,681.33C316.935,681.908 317.165,682.337 317.47,682.618C317.775,682.898 318.211,683.039 318.776,683.039C319.341,683.039 319.815,682.862 320.198,682.508C320.58,682.154 320.771,681.709 320.771,681.172C320.771,680.635 320.554,680.208 320.118,679.89C319.683,679.573 319.042,679.406 318.196,679.39L318.196,678.414C318.807,678.414 319.299,678.284 319.673,678.023C320.047,677.763 320.234,677.44 320.234,677.053C320.234,676.667 320.09,676.345 319.801,676.089C319.512,675.833 319.162,675.705 318.752,675.705C318.341,675.705 318.007,675.821 317.751,676.052C317.495,676.284 317.277,676.636 317.098,677.108L316.036,677.108C316.215,676.327 316.541,675.729 317.013,675.314C317.485,674.899 318.066,674.692 318.758,674.692C319.449,674.692 320.049,674.92 320.558,675.375C321.066,675.831 321.32,676.384 321.32,677.035C321.32,677.783 320.979,678.377 320.295,678.817Z" style="fill:white;fill-rule:nonzero;"/>
            <path d="M405.033,681.806L403.971,681.806L403.971,683.844L402.934,683.844L402.934,681.806L398.651,681.806L403.666,674.692L403.971,674.692L403.971,680.793L405.033,680.793L405.033,681.806ZM402.934,680.793L402.934,677.499L400.603,680.793L402.934,680.793Z" style="fill:white;fill-rule:nonzero;"/>
            <path d="M561.721,674.911L563.552,674.911C564.593,674.911 565.276,674.952 565.602,675.034C565.927,675.115 566.226,675.261 566.499,675.473C566.771,675.684 566.985,675.949 567.139,676.266C567.294,676.583 567.371,676.941 567.371,677.34C567.371,677.739 567.296,678.097 567.145,678.414C566.995,678.731 566.779,678.993 566.499,679.201C566.218,679.408 565.874,679.555 565.467,679.64C565.061,679.726 564.341,679.768 563.307,679.768L562.771,679.768L562.771,683.844L561.721,683.844L561.721,674.911ZM562.771,678.755L564.162,678.755C564.983,678.772 565.543,678.642 565.84,678.365C566.137,678.088 566.285,677.743 566.285,677.328C566.285,676.4 565.602,675.937 564.235,675.937L562.771,675.937L562.771,678.755Z" style="fill:white;fill-rule:nonzero;"/>
            <path d="M571.972,677.023C572.932,677.023 573.747,677.368 574.419,678.06C575.09,678.751 575.425,679.581 575.425,680.549C575.425,681.517 575.094,682.345 574.431,683.033C573.768,683.72 572.948,684.064 571.972,684.064C570.996,684.064 570.174,683.72 569.507,683.033C568.84,682.345 568.506,681.517 568.506,680.549C568.506,679.581 568.842,678.751 569.513,678.06C570.184,677.368 571.004,677.023 571.972,677.023ZM571.972,683.1C572.647,683.1 573.223,682.854 573.699,682.362C574.174,681.869 574.412,681.275 574.412,680.58C574.412,679.884 574.17,679.282 573.686,678.774C573.202,678.265 572.629,678.011 571.966,678.011C571.303,678.011 570.731,678.265 570.251,678.774C569.771,679.282 569.531,679.886 569.531,680.586C569.531,681.286 569.763,681.88 570.227,682.368C570.69,682.856 571.272,683.1 571.972,683.1Z" style="fill:white;fill-rule:nonzero;"/>
            <path d="M586.066,677.193L583.223,684.064L582.967,684.064L581.014,679.329L579.05,684.064L578.793,684.064L575.999,677.193L577.036,677.193L578.915,681.977L580.892,677.193L581.136,677.193L583.101,681.989L585.017,677.193L586.066,677.193Z" style="fill:white;fill-rule:nonzero;"/>
            <path d="M593.498,680.696L587.665,680.696C587.706,681.428 587.952,682.016 588.403,682.459C588.855,682.903 589.394,683.124 590.02,683.124C591.086,683.124 591.9,682.599 592.461,681.55L593.315,681.989C592.933,682.697 592.481,683.22 591.961,683.557C591.44,683.895 590.818,684.064 590.094,684.064C589.093,684.064 588.267,683.72 587.616,683.033C586.965,682.345 586.64,681.517 586.64,680.549C586.64,679.581 586.967,678.751 587.622,678.06C588.277,677.368 589.089,677.023 590.057,677.023C591.025,677.023 591.835,677.35 592.485,678.005C593.136,678.66 593.474,679.557 593.498,680.696ZM592.376,679.805C592.253,679.235 591.977,678.792 591.546,678.475C591.115,678.158 590.618,677.999 590.057,677.999C588.918,677.999 588.161,678.601 587.787,679.805L592.376,679.805Z" style="fill:white;fill-rule:nonzero;"/>
            <path d="M597.684,677.291L597.159,678.145C597.021,678.072 596.887,678.035 596.756,678.035C596.504,678.035 596.276,678.16 596.073,678.408C595.87,678.656 595.717,678.981 595.615,679.384C595.514,679.787 595.463,680.513 595.463,681.562L595.463,683.844L594.438,683.844L594.438,677.193L595.463,677.193L595.463,677.913C595.666,677.612 595.872,677.389 596.079,677.242C596.287,677.096 596.523,677.023 596.787,677.023C597.051,677.023 597.35,677.112 597.684,677.291Z" style="fill:white;fill-rule:nonzero;"/>
        </g>
        <g transform="matrix(1.39308,0,0,1.39308,620.646,-286.044)">
            <path d="M163.606,683.844L162.289,683.844L159.14,679.768L158.774,679.768L158.774,683.844L157.725,683.844L157.725,674.911L159.555,674.911C160.531,674.911 161.202,674.954 161.569,675.04C161.935,675.125 162.252,675.269 162.52,675.473C162.789,675.676 163,675.939 163.155,676.26C163.31,676.581 163.387,676.937 163.387,677.328C163.387,678.068 163.135,678.66 162.63,679.103C162.126,679.547 161.398,679.768 160.446,679.768L163.606,683.844ZM158.774,678.743L160.202,678.743C160.918,678.751 161.447,678.644 161.788,678.42C162.13,678.196 162.301,677.838 162.301,677.346C162.301,676.854 162.134,676.496 161.8,676.272C161.467,676.048 160.946,675.937 160.238,675.937L158.774,675.937L158.774,678.743Z" style="fill:white;fill-rule:nonzero;"/>
            <path d="M171.502,680.696L165.669,680.696C165.71,681.428 165.956,682.016 166.407,682.459C166.859,682.903 167.398,683.124 168.024,683.124C169.09,683.124 169.903,682.599 170.465,681.55L171.319,681.989C170.937,682.697 170.485,683.22 169.964,683.557C169.444,683.895 168.821,684.064 168.097,684.064C167.097,684.064 166.271,683.72 165.62,683.033C164.969,682.345 164.644,681.517 164.644,680.549C164.644,679.581 164.971,678.751 165.626,678.06C166.281,677.368 167.093,677.023 168.061,677.023C169.029,677.023 169.838,677.35 170.489,678.005C171.14,678.66 171.478,679.557 171.502,680.696ZM170.379,679.805C170.257,679.235 169.981,678.792 169.549,678.475C169.118,678.158 168.622,677.999 168.061,677.999C166.922,677.999 166.165,678.601 165.791,679.805L170.379,679.805Z" style="fill:white;fill-rule:nonzero;"/>
            <path d="M176.347,677.974L175.7,678.646C175.22,678.198 174.781,677.974 174.382,677.974C174.13,677.974 173.918,678.054 173.747,678.212C173.577,678.371 173.491,678.566 173.491,678.798C173.491,679.03 173.587,679.233 173.778,679.408C173.969,679.583 174.309,679.799 174.797,680.055C175.285,680.311 175.661,680.594 175.926,680.903C176.19,681.212 176.322,681.591 176.322,682.038C176.322,682.608 176.125,683.088 175.73,683.478C175.336,683.869 174.85,684.064 174.272,684.064C173.467,684.064 172.796,683.722 172.259,683.039L172.893,682.331C173.332,682.844 173.78,683.1 174.235,683.1C174.545,683.1 174.809,682.998 175.029,682.795C175.248,682.591 175.358,682.353 175.358,682.081C175.358,681.808 175.259,681.581 175.059,681.397C174.86,681.214 174.518,681.001 174.034,680.757C173.55,680.513 173.184,680.242 172.936,679.945C172.688,679.648 172.564,679.258 172.564,678.774C172.564,678.29 172.741,677.877 173.094,677.535C173.448,677.193 173.916,677.023 174.498,677.023C175.08,677.023 175.696,677.34 176.347,677.974Z" style="fill:white;fill-rule:nonzero;"/>
            <path d="M184.169,680.696L178.336,680.696C178.376,681.428 178.623,682.016 179.074,682.459C179.526,682.903 180.065,683.124 180.691,683.124C181.757,683.124 182.57,682.599 183.132,681.55L183.986,681.989C183.603,682.697 183.152,683.22 182.631,683.557C182.111,683.895 181.488,684.064 180.764,684.064C179.764,684.064 178.938,683.72 178.287,683.033C177.636,682.345 177.311,681.517 177.311,680.549C177.311,679.581 177.638,678.751 178.293,678.06C178.948,677.368 179.759,677.023 180.728,677.023C181.696,677.023 182.505,677.35 183.156,678.005C183.807,678.66 184.144,679.557 184.169,680.696ZM183.046,679.805C182.924,679.235 182.648,678.792 182.216,678.475C181.785,678.158 181.289,677.999 180.728,677.999C179.589,677.999 178.832,678.601 178.458,679.805L183.046,679.805Z" style="fill:white;fill-rule:nonzero;"/>
            <path d="M188.611,678.072L187.293,678.072L187.293,682.734C187.293,682.905 187.317,683.008 187.366,683.045C187.415,683.082 187.537,683.1 187.732,683.1L188.318,683.1L188.318,683.966C187.927,684.031 187.631,684.064 187.427,684.064C187.037,684.064 186.748,683.968 186.561,683.777C186.374,683.586 186.28,683.283 186.28,682.868L186.28,678.072L185.133,678.072L185.133,677.193L186.28,677.193L186.28,674.692L187.293,674.692L187.293,677.193L188.611,677.193L188.611,678.072Z" style="fill:white;fill-rule:nonzero;"/>
        </g>
    </g>
</svg>
