<?xml version="1.0" encoding="UTF-8" standalone="no"?>
<!DOCTYPE svg PUBLIC "-//W3C//DTD SVG 1.1//EN" "http://www.w3.org/Graphics/SVG/1.1/DTD/svg11.dtd">
<svg width="100%" height="100%" viewBox="0 0 1280 1150" version="1.1" xmlns="http://www.w3.org/2000/svg" xmlns:xlink="http://www.w3.org/1999/xlink" xml:space="preserve" style="fill-rule:evenodd;clip-rule:evenodd;stroke-linejoin:round;stroke-miterlimit:1.41421;">
    <path d="M155.217,122.591L1079.59,122.591C1124.37,122.591 1159.4,135.101 1159.4,179.111L1159.4,998.922C1159.4,1042.12 1126.84,1060.82 1079.59,1060.82L155.217,1060.82C108.055,1060.82 79.383,1038.6 79.383,998.922L79.383,179.111C79.383,135.945 106.865,122.591 155.217,122.591Z" style="fill:rgb(27,26,25);stroke-width:3.5px;stroke:black;"/>
    <g id="Power" transform="matrix(0.647473,0,0,0.647473,681.535,403.659)">
        <g transform="matrix(1.02151,0,0,1.02151,-7.19182,-20.5921)">
            <path d="M352.712,880.784C347.148,885.588 347.923,896.239 353.69,897.913C356.623,898.764 359.527,898.973 362.373,897.913C370.255,894.978 369.416,885.533 363.841,880.784" style="fill:none;stroke-width:3.02px;stroke-linecap:round;stroke:rgb(254,254,253);"/>
        </g>
        <g transform="matrix(1,0,0,1,0.276314,-2.39674)">
            <path d="M358.247,875.579L358.247,889.269" style="fill:rgb(109,189,72);stroke-width:3.09px;stroke-linecap:round;stroke:rgb(254,254,253);"/>
        </g>
    </g>
    <g id="lan" transform="matrix(1,0,0,1,263.675,370.786)">
        <path d="M271.165,602.026L265.613,607.778L271.165,613.736" style="fill:none;stroke-width:2.5px;stroke-linecap:round;stroke:white;"/>
        <g transform="matrix(-1,5.55112e-17,-5.55112e-17,-1,555.647,1215.76)">
            <path d="M271.165,602.026L265.613,607.778L271.165,613.736" style="fill:none;stroke-width:2.5px;stroke-linecap:round;stroke:white;"/>
        </g>
        <g transform="matrix(1,0,0,1,0.0903486,0.0946509)">
            <rect x="271.49" y="606.961" width="1.765" height="1.639" style="fill:white;"/>
        </g>
        <g transform="matrix(1,0,0,1,5.27737,0.0946509)">
            <rect x="271.49" y="606.961" width="1.765" height="1.639" style="fill:white;"/>
        </g>
        <g transform="matrix(1,0,0,1,10.8397,0.0946509)">
            <rect x="271.49" y="606.961" width="1.765" height="1.639" style="fill:white;"/>
        </g>
    </g>
    <g transform="matrix(1.39308,0,0,1.39308,72.5855,-20.6291)">
        <path d="M160.763,683.844L159.726,683.844L159.726,675.937L158.274,675.937L158.908,674.911L160.763,674.911L160.763,683.844Z" style="fill:white;fill-rule:nonzero;"/>
        <path d="M205.951,683.844L199.715,683.844L203.193,680.086C203.779,679.467 204.194,678.979 204.438,678.621C204.682,678.263 204.804,677.857 204.804,677.401C204.804,676.945 204.627,676.547 204.273,676.205C203.92,675.863 203.48,675.692 202.955,675.692C202.431,675.692 201.993,675.878 201.644,676.248C201.294,676.618 201.094,677.145 201.046,677.828L200.033,677.828C200.073,676.868 200.379,676.105 200.948,675.54C201.518,674.975 202.207,674.692 203.016,674.692C203.826,674.692 204.497,674.954 205.03,675.479C205.563,676.004 205.829,676.644 205.829,677.401C205.829,677.954 205.683,678.471 205.39,678.951C205.097,679.431 204.654,679.988 204.06,680.623L202.01,682.831L205.951,682.831L205.951,683.844Z" style="fill:white;fill-rule:nonzero;"/>
        <path d="M250.31,678.817C250.79,679.052 251.162,679.378 251.426,679.793C251.691,680.208 251.823,680.659 251.823,681.147C251.823,681.945 251.532,682.63 250.95,683.204C250.369,683.777 249.634,684.064 248.748,684.064C247.95,684.064 247.298,683.834 246.789,683.374C246.281,682.915 245.937,682.233 245.758,681.33L246.795,681.33C246.95,681.908 247.18,682.337 247.485,682.618C247.79,682.898 248.225,683.039 248.79,683.039C249.356,683.039 249.83,682.862 250.212,682.508C250.594,682.154 250.786,681.709 250.786,681.172C250.786,680.635 250.568,680.208 250.133,679.89C249.698,679.573 249.057,679.406 248.211,679.39L248.211,678.414C248.821,678.414 249.313,678.284 249.687,678.023C250.062,677.763 250.249,677.44 250.249,677.053C250.249,676.667 250.104,676.345 249.815,676.089C249.527,675.833 249.177,675.705 248.766,675.705C248.355,675.705 248.022,675.821 247.765,676.052C247.509,676.284 247.291,676.636 247.112,677.108L246.051,677.108C246.23,676.327 246.555,675.729 247.027,675.314C247.499,674.899 248.081,674.692 248.772,674.692C249.464,674.692 250.064,674.92 250.572,675.375C251.081,675.831 251.335,676.384 251.335,677.035C251.335,677.783 250.993,678.377 250.31,678.817Z" style="fill:white;fill-rule:nonzero;"/>
        <path d="M294.802,681.806L293.741,681.806L293.741,683.844L292.703,683.844L292.703,681.806L288.42,681.806L293.436,674.692L293.741,674.692L293.741,680.793L294.802,680.793L294.802,681.806ZM292.703,680.793L292.703,677.499L290.373,680.793L292.703,680.793Z" style="fill:white;fill-rule:nonzero;"/>
        <path d="M219.43,721.552L215,721.552L215,712.619L216.062,712.619L216.062,720.539L219.43,720.539L219.43,721.552Z" style="fill:white;fill-rule:nonzero;"/>
        <path d="M228.521,721.552L227.411,721.552L226.032,718.562L222.346,718.562L220.979,721.552L219.82,721.552L224.042,712.265L224.36,712.265L228.521,721.552ZM225.556,717.501L224.201,714.486L222.834,717.501L225.556,717.501Z" style="fill:white;fill-rule:nonzero;"/>
        <path d="M236.734,721.552L236.416,721.552L230.754,715.072L230.754,721.552L229.68,721.552L229.68,712.619L229.998,712.619L235.697,719.185L235.697,712.619L236.734,712.619L236.734,721.552Z" style="fill:white;fill-rule:nonzero;"/>
    </g>
    <g transform="matrix(1.39308,0,0,1.39308,611.723,31.3521)">
        <path d="M167.963,674.911L165.4,684.064L165.095,684.064L162.557,677.389L159.97,684.064L159.677,684.064L157.163,674.911L158.249,674.911L159.97,681.233L162.411,674.911L162.703,674.911L165.12,681.245L166.877,674.911L167.963,674.911Z" style="fill:white;fill-rule:nonzero;"/>
        <path d="M173.821,683.844L169.391,683.844L169.391,674.911L170.452,674.911L170.452,682.831L173.821,682.831L173.821,683.844Z" style="fill:white;fill-rule:nonzero;"/>
        <path d="M182.912,683.844L181.801,683.844L180.423,680.854L176.737,680.854L175.37,683.844L174.211,683.844L178.433,674.558L178.751,674.558L182.912,683.844ZM179.947,679.793L178.592,676.779L177.225,679.793L179.947,679.793Z" style="fill:white;fill-rule:nonzero;"/>
        <path d="M191.125,683.844L190.807,683.844L185.145,677.364L185.145,683.844L184.071,683.844L184.071,674.911L184.389,674.911L190.087,681.477L190.087,674.911L191.125,674.911L191.125,683.844Z" style="fill:white;fill-rule:nonzero;"/>
    </g>
    <g id="Globe" transform="matrix(0.711357,0,0,0.711357,380.793,346.351)">
        <g transform="matrix(0.908671,0,0,1,39.8541,0)">
            <ellipse cx="430.362" cy="888.675" rx="17.566" ry="15.305" style="fill:none;stroke-width:1.47px;stroke-linecap:round;stroke:white;"/>
        </g>
        <path d="M436.474,886.416L442.411,886.416L442.411,887.932L437.65,887.932L435.32,890.183L440.067,894.882L442.411,894.882L443.732,891.723L443.732,883.827L441.582,881.125L436.474,886.416Z" style="fill:white;stroke-width:1.41px;stroke-linecap:round;stroke:white;"/>
        <path d="M422.178,888.05L423.889,886.085L425.755,885.264L428.476,882.59L429.071,879.779L425.755,880.306L422.178,878.542L419.508,882.59L420.553,886.085L422.178,888.05Z" style="fill:white;stroke-width:1.41px;stroke-linecap:round;stroke:white;"/>
        <path d="M426.642,888.719L430.008,891.517L428.45,897.947L426.642,897.359L426.642,894.018L423.607,891.517L426.642,888.719Z" style="fill:white;stroke-width:1.41px;stroke-linecap:round;stroke:white;"/>
    </g>
</svg>
