<?xml version="1.0" standalone="no"?>
<!DOCTYPE svg PUBLIC "-//W3C//DTD SVG 1.1//EN" "http://www.w3.org/Graphics/SVG/1.1/DTD/svg11.dtd">
<svg width="100%" height="100%" viewBox="0 0 1280 1150" version="1.1" xmlns="http://www.w3.org/2000/svg" xmlns:xlink="http://www.w3.org/1999/xlink" xml:space="preserve" style="fill-rule:evenodd;clip-rule:evenodd;stroke-linecap:round;stroke-linejoin:round;stroke-miterlimit:1.41421;">
    <g id="Ebene2">
        <g transform="matrix(1,0,0,0.653756,0,375.209)">
            <path d="M502.736,1015.73C504.223,1043.08 508.904,1061.94 517.924,1069.3C532.077,1079.26 548.073,1083.39 565.388,1083.65L729.221,1083.65C744.383,1083.81 757.845,1079.37 769.218,1069.3C776.165,1061.93 780.873,1047.86 780.339,1015.73L783.636,158.452C786.056,118.613 761.483,101.484 717.526,100.664L570.096,100.664C530.491,101.752 505.624,118.007 504.262,158.452L502.736,1015.73Z" style="fill:rgb(226,226,226);stroke-width:1.18px;stroke:black;"/>
        </g>
        <path d="M509.775,947.341L775.995,947.341L775.995,1028.84C775.572,1044.52 775.018,1058.36 769.705,1066.5C763.504,1074.88 749.363,1079.48 734.301,1081.58L614.527,1081.58L614.527,1070.52C606.772,1068.12 599.049,1067.97 591.364,1070.52L591.364,1081.58L564.66,1081.58C546.282,1080.2 524.455,1076.03 516.436,1066.5C509.324,1054.63 509.596,1041.87 509.775,1027.47L509.775,947.341Z" style="fill:rgb(226,226,226);stroke-width:1px;stroke:black;"/>
        <g transform="matrix(1,0,0,0.593205,0,385.392)">
            <path d="M509.952,947.386L775.913,947.315L775.913,172.322C775.647,161.869 775.282,151.426 774.319,141.038C773.713,130.531 770.728,124.759 767.741,121.625C761.401,115.875 754.792,112.198 747.974,110.12C738.667,106.639 727.583,105.768 716.187,105.355L573.69,105.355C558.808,105.361 548.52,107.273 540.486,110.12C533.987,112.708 527.96,116.309 522.732,121.625C518.008,127.997 516.275,134.516 514.599,141.038C511.876,151.521 510.465,161.943 509.952,172.322L509.952,947.386Z" style="fill:rgb(226,226,226);stroke-width:1.22px;stroke:black;"/>
        </g>
        <g transform="matrix(1,0,0,1,0,-1.12052)">
            <path d="M591.364,1082.71L614.527,1082.71" style="fill:rgb(226,226,226);stroke-width:1px;stroke:black;"/>
        </g>
        <g transform="matrix(1,0,0,1,-0.166742,346.728)">
            <rect x="509.952" y="141.734" width="265.961" height="34.491" style="fill:url(#_Linear1);"/>
        </g>
        <g transform="matrix(1,0,0,0.593268,0,385.332)">
            <path d="M509.952,947.386L775.913,947.315L775.913,172.322C775.647,161.869 775.282,151.426 774.319,141.038C773.713,130.531 770.728,124.759 767.741,121.625C761.401,115.875 754.792,112.198 747.974,110.12C738.667,106.639 727.583,105.768 716.187,105.355L573.69,105.355C558.808,105.361 548.52,107.273 540.486,110.12C533.987,112.708 527.96,116.309 522.732,121.625C518.008,127.997 516.275,134.516 514.599,141.038C511.876,151.521 510.465,161.943 509.952,172.322L509.952,947.386Z" style="fill:none;stroke-width:1.22px;stroke:black;"/>
        </g>
    </g>
    <defs>
        <linearGradient id="_Linear1" x1="0" y1="0" x2="1" y2="0" gradientUnits="userSpaceOnUse" gradientTransform="matrix(0.265786,36.8011,-36.8011,0.265786,639.693,140.628)"><stop offset="0%" style="stop-color:rgb(222,222,222);stop-opacity:1"/><stop offset="50%" style="stop-color:white;stop-opacity:1"/><stop offset="100%" style="stop-color:rgb(222,222,222);stop-opacity:1"/></linearGradient>
    </defs>
</svg>
