<?xml version="1.0" standalone="no"?>
<!DOCTYPE svg PUBLIC "-//W3C//DTD SVG 1.1//EN" "http://www.w3.org/Graphics/SVG/1.1/DTD/svg11.dtd">
<svg width="100%" height="100%" viewBox="0 0 1280 1150" version="1.1" xmlns="http://www.w3.org/2000/svg" xmlns:xlink="http://www.w3.org/1999/xlink" xml:space="preserve" style="fill-rule:evenodd;clip-rule:evenodd;stroke-linejoin:round;stroke-miterlimit:1.41421;">
    <g id="Antennen 1043">
        <g id="new Antenne 1043">
            <path d="M652.036,619.119L703.126,619.119L700.344,526.551L655.39,526.551L652.036,619.119Z" style="fill:rgb(49,49,49);stroke-width:0.5px;stroke:black;"/>
            <rect x="665.084" y="199.138" width="27.899" height="28.754" style="fill:rgb(49,49,49);stroke-width:0.5px;stroke:black;"/>
            <path d="M649.243,689.441L650.988,616.958C669.108,618.552 687.221,618.824 705.323,616.958L707.183,689.441L649.243,689.441Z" style="fill:rgb(49,49,49);stroke-width:0.5px;stroke:black;"/>
            <path d="M650.848,597.162L650.848,612.298C668.997,614.545 687.229,614.718 705.566,612.298L705.566,597.162C687.342,599.115 669.101,598.905 650.848,597.162Z" style="fill:rgb(49,49,49);stroke-width:0.5px;stroke:black;"/>
            <path d="M663.141,341.639L694.434,341.639L694.434,223.461L663.746,223.461L663.141,341.639Z" style="fill:rgb(49,49,49);stroke-width:0.5px;stroke:black;"/>
            <path d="M651.347,593.426C669.264,594.991 687.044,594.958 704.694,593.426L703.132,552.011C686.546,553.968 669.625,553.864 652.419,552.011L651.347,593.426Z" style="fill:rgb(49,49,49);stroke-width:0.5px;stroke:black;"/>
            <path d="M653.079,547.908C669.797,549.558 686.475,549.685 703.103,547.908L702.503,533.319C686.288,534.981 669.99,534.936 653.614,533.319L653.079,547.908Z" style="fill:rgb(49,49,49);stroke-width:0.5px;stroke:black;"/>
            <path d="M653.614,529.948C669.993,531.254 686.296,531.355 702.503,529.948L697.191,338.329C685.178,340.346 673.138,340.435 661.07,338.329L653.614,529.948Z" style="fill:rgb(49,49,49);stroke-width:0.5px;stroke:black;"/>
            <rect x="663.746" y="205.104" width="30.688" height="14.659" style="fill:rgb(49,49,49);stroke-width:0.5px;stroke:black;"/>
            <path d="M663.687,200.966L694.443,200.966L694.443,144.136C688.239,128.631 671.247,128.6 663.687,144.136L663.687,200.966Z" style="fill:rgb(49,49,49);stroke-width:0.5px;stroke:black;"/>
        </g>
        <g id="new Antenne 10431" transform="matrix(0.965926,-0.258819,0.258819,0.965926,-524.481,206.115)">
            <path d="M652.036,619.119L703.126,619.119L700.344,526.551L655.39,526.551L652.036,619.119Z" style="fill:rgb(49,49,49);stroke-width:0.5px;stroke:black;"/>
            <rect x="665.084" y="199.138" width="27.899" height="28.754" style="fill:rgb(49,49,49);stroke-width:0.5px;stroke:black;"/>
            <path d="M649.243,689.441L650.988,616.958C669.108,618.552 687.221,618.824 705.323,616.958L707.183,689.441L649.243,689.441Z" style="fill:rgb(49,49,49);stroke-width:0.5px;stroke:black;"/>
            <path d="M650.848,597.162L650.848,612.298C668.997,614.545 687.229,614.718 705.566,612.298L705.566,597.162C687.342,599.115 669.101,598.905 650.848,597.162Z" style="fill:rgb(49,49,49);stroke-width:0.5px;stroke:black;"/>
            <path d="M663.141,341.639L694.434,341.639L694.434,223.461L663.746,223.461L663.141,341.639Z" style="fill:rgb(49,49,49);stroke-width:0.5px;stroke:black;"/>
            <path d="M651.347,593.426C669.264,594.991 687.044,594.958 704.694,593.426L703.132,552.011C686.546,553.968 669.625,553.864 652.419,552.011L651.347,593.426Z" style="fill:rgb(49,49,49);stroke-width:0.5px;stroke:black;"/>
            <path d="M653.079,547.908C669.797,549.558 686.475,549.685 703.103,547.908L702.503,533.319C686.288,534.981 669.99,534.936 653.614,533.319L653.079,547.908Z" style="fill:rgb(49,49,49);stroke-width:0.5px;stroke:black;"/>
            <path d="M653.614,529.948C669.993,531.254 686.296,531.355 702.503,529.948L697.191,338.329C685.178,340.346 673.138,340.435 661.07,338.329L653.614,529.948Z" style="fill:rgb(49,49,49);stroke-width:0.5px;stroke:black;"/>
            <rect x="663.746" y="205.104" width="30.688" height="14.659" style="fill:rgb(49,49,49);stroke-width:0.5px;stroke:black;"/>
            <path d="M663.687,200.966L694.443,200.966L694.443,144.136C688.239,128.631 671.247,128.6 663.687,144.136L663.687,200.966Z" style="fill:rgb(49,49,49);stroke-width:0.5px;stroke:black;"/>
        </g>
        <g id="new Antenne 1043rechts" transform="matrix(0.965926,0.258819,-0.258819,0.965926,549.457,-145.553)">
            <path d="M652.036,619.119L703.126,619.119L700.344,526.551L655.39,526.551L652.036,619.119Z" style="fill:rgb(49,49,49);stroke-width:0.5px;stroke:black;"/>
            <rect x="665.084" y="199.138" width="27.899" height="28.754" style="fill:rgb(49,49,49);stroke-width:0.5px;stroke:black;"/>
            <path d="M649.243,689.441L650.988,616.958C669.108,618.552 687.221,618.824 705.323,616.958L707.183,689.441L649.243,689.441Z" style="fill:rgb(49,49,49);stroke-width:0.5px;stroke:black;"/>
            <path d="M650.848,597.162L650.848,612.298C668.997,614.545 687.229,614.718 705.566,612.298L705.566,597.162C687.342,599.115 669.101,598.905 650.848,597.162Z" style="fill:rgb(49,49,49);stroke-width:0.5px;stroke:black;"/>
            <path d="M663.141,341.639L694.434,341.639L694.434,223.461L663.746,223.461L663.141,341.639Z" style="fill:rgb(49,49,49);stroke-width:0.5px;stroke:black;"/>
            <path d="M651.347,593.426C669.264,594.991 687.044,594.958 704.694,593.426L703.132,552.011C686.546,553.968 669.625,553.864 652.419,552.011L651.347,593.426Z" style="fill:rgb(49,49,49);stroke-width:0.5px;stroke:black;"/>
            <path d="M653.079,547.908C669.797,549.558 686.475,549.685 703.103,547.908L702.503,533.319C686.288,534.981 669.99,534.936 653.614,533.319L653.079,547.908Z" style="fill:rgb(49,49,49);stroke-width:0.5px;stroke:black;"/>
            <path d="M653.614,529.948C669.993,531.254 686.296,531.355 702.503,529.948L697.191,338.329C685.178,340.346 673.138,340.435 661.07,338.329L653.614,529.948Z" style="fill:rgb(49,49,49);stroke-width:0.5px;stroke:black;"/>
            <rect x="663.746" y="205.104" width="30.688" height="14.659" style="fill:rgb(49,49,49);stroke-width:0.5px;stroke:black;"/>
            <path d="M663.687,200.966L694.443,200.966L694.443,144.136C688.239,128.631 671.247,128.6 663.687,144.136L663.687,200.966Z" style="fill:rgb(49,49,49);stroke-width:0.5px;stroke:black;"/>
        </g>
    </g>
    <g id="rippen">
        <g id="rippen rechts">
            <g>
                <g transform="matrix(0.761096,0,0,0.761096,298.965,294.449)">
                    <path d="M1241.6,892.412L1249.01,906.328L1245.96,913.821L1241.6,913.821L1238.99,892.412L1241.6,892.412Z" style="fill:rgb(51,51,51);stroke-width:0.66px;stroke:black;"/>
                </g>
                <g transform="matrix(0.761096,0,0,0.761096,298.965,294.449)">
                    <path d="M1240.09,909.578C1243.88,909.985 1246.97,909.1 1249.01,906.328L1249.01,915.716C1247.37,918.684 1244.24,918.992 1240.7,919.071L1240.09,909.578Z" style="fill:rgb(51,51,51);stroke-width:0.66px;stroke:black;"/>
                </g>
            </g>
            <g>
                <g transform="matrix(0.895834,0,0,0.895834,130.986,146.98)">
                    <path d="M1241.6,892.412L1249.01,906.328L1245.96,913.821L1241.6,913.821L1238.99,892.412L1241.6,892.412Z" style="fill:rgb(51,51,51);stroke-width:0.56px;stroke:black;"/>
                </g>
                <g transform="matrix(0.895834,0,0,0.895834,130.986,146.98)">
                    <path d="M1240.09,909.578C1243.88,909.985 1246.97,909.1 1249.01,906.328L1249.01,915.716C1247.37,918.684 1244.24,918.992 1240.7,919.071L1240.09,909.578Z" style="fill:rgb(51,51,51);stroke-width:0.56px;stroke:black;"/>
                </g>
            </g>
            <g>
                <g transform="matrix(1,0,0,1,0.455564,25.8628)">
                    <path d="M1241.6,892.412L1249.01,906.328L1245.96,913.821L1241.6,913.821L1238.99,892.412L1241.6,892.412Z" style="fill:rgb(51,51,51);stroke-width:0.5px;stroke:black;"/>
                </g>
                <g transform="matrix(1,0,0,1,0.455564,25.8628)">
                    <path d="M1240.09,909.578C1243.88,909.985 1246.97,909.1 1249.01,906.328L1249.01,915.716C1247.37,918.684 1244.24,918.992 1240.7,919.071L1240.09,909.578Z" style="fill:rgb(51,51,51);stroke-width:0.5px;stroke:black;"/>
                </g>
            </g>
            <g>
                <path d="M1241.6,892.412L1249.01,906.328L1245.96,913.821L1241.6,913.821L1238.99,892.412L1241.6,892.412Z" style="fill:rgb(51,51,51);stroke-width:0.5px;stroke:black;"/>
                <path d="M1240.09,909.578C1243.88,909.985 1246.97,909.1 1249.01,906.328L1249.01,915.716C1247.37,918.684 1244.24,918.992 1240.7,919.071L1240.09,909.578Z" style="fill:rgb(51,51,51);stroke-width:0.5px;stroke:black;"/>
            </g>
            <g>
                <path d="M1240.14,866.776L1248.99,881.994L1246.04,886.95L1238.92,886.95L1236.59,866.776L1240.14,866.776Z" style="fill:rgb(51,51,51);stroke-width:0.5px;stroke:black;"/>
                <g transform="matrix(1,0,0,0.896026,0,92.9608)">
                    <path d="M1238.87,883.847C1242.7,884.399 1246.01,883.065 1249.01,880.617L1249.01,890.531C1247.98,892.652 1244.86,893.758 1240.14,894.081L1238.87,883.847Z" style="fill:rgb(51,51,51);stroke-width:0.53px;stroke:black;"/>
                </g>
            </g>
            <g>
                <path d="M1140.2,705.009C1150,707.551 1157.58,712.8 1162.64,721.13L1248.94,858.06L1247.88,863.427L1243.69,864.809L1235.73,863.571L1140.2,705.009Z" style="fill:rgb(51,51,51);stroke-width:0.5px;stroke:black;"/>
                <g transform="matrix(1,0,0,1.34688,0,-298.374)">
                    <path d="M1237.42,867.999C1242.73,868.034 1247.04,867.325 1248.94,864.835C1249.06,864.122 1248.95,858.906 1248.94,858.597C1246.75,862.143 1241.98,863.061 1235.99,862.642" style="fill:rgb(51,51,51);stroke-width:0.42px;stroke:black;"/>
                </g>
            </g>
        </g>
        <g id="rippen rechts1" transform="matrix(-1,0,0,1,1328.52,0)">
            <g>
                <g transform="matrix(0.761096,0,0,0.761096,298.965,294.449)">
                    <path d="M1241.6,892.412L1249.01,906.328L1245.96,913.821L1241.6,913.821L1238.99,892.412L1241.6,892.412Z" style="fill:rgb(51,51,51);stroke-width:0.66px;stroke:black;"/>
                </g>
                <g transform="matrix(0.761096,0,0,0.761096,298.965,294.449)">
                    <path d="M1240.09,909.578C1243.88,909.985 1246.97,909.1 1249.01,906.328L1249.01,915.716C1247.37,918.684 1244.24,918.992 1240.7,919.071L1240.09,909.578Z" style="fill:rgb(51,51,51);stroke-width:0.66px;stroke:black;"/>
                </g>
            </g>
            <g>
                <g transform="matrix(0.895834,0,0,0.895834,130.986,146.98)">
                    <path d="M1241.6,892.412L1249.01,906.328L1245.96,913.821L1241.6,913.821L1238.99,892.412L1241.6,892.412Z" style="fill:rgb(51,51,51);stroke-width:0.56px;stroke:black;"/>
                </g>
                <g transform="matrix(0.895834,0,0,0.895834,130.986,146.98)">
                    <path d="M1240.09,909.578C1243.88,909.985 1246.97,909.1 1249.01,906.328L1249.01,915.716C1247.37,918.684 1244.24,918.992 1240.7,919.071L1240.09,909.578Z" style="fill:rgb(51,51,51);stroke-width:0.56px;stroke:black;"/>
                </g>
            </g>
            <g>
                <g transform="matrix(1,0,0,1,0.455564,25.8628)">
                    <path d="M1241.6,892.412L1249.01,906.328L1245.96,913.821L1241.6,913.821L1238.99,892.412L1241.6,892.412Z" style="fill:rgb(51,51,51);stroke-width:0.5px;stroke:black;"/>
                </g>
                <g transform="matrix(1,0,0,1,0.455564,25.8628)">
                    <path d="M1240.09,909.578C1243.88,909.985 1246.97,909.1 1249.01,906.328L1249.01,915.716C1247.37,918.684 1244.24,918.992 1240.7,919.071L1240.09,909.578Z" style="fill:rgb(51,51,51);stroke-width:0.5px;stroke:black;"/>
                </g>
            </g>
            <g>
                <path d="M1241.6,892.412L1249.01,906.328L1245.96,913.821L1241.6,913.821L1238.99,892.412L1241.6,892.412Z" style="fill:rgb(51,51,51);stroke-width:0.5px;stroke:black;"/>
                <path d="M1240.09,909.578C1243.88,909.985 1246.97,909.1 1249.01,906.328L1249.01,915.716C1247.37,918.684 1244.24,918.992 1240.7,919.071L1240.09,909.578Z" style="fill:rgb(51,51,51);stroke-width:0.5px;stroke:black;"/>
            </g>
            <g>
                <path d="M1240.14,866.776L1248.99,881.994L1246.04,886.95L1238.92,886.95L1236.59,866.776L1240.14,866.776Z" style="fill:rgb(51,51,51);stroke-width:0.5px;stroke:black;"/>
                <g transform="matrix(1,0,0,0.896026,0,92.9608)">
                    <path d="M1238.87,883.847C1242.7,884.399 1246.01,883.065 1249.01,880.617L1249.01,890.531C1247.98,892.652 1244.86,893.758 1240.14,894.081L1238.87,883.847Z" style="fill:rgb(51,51,51);stroke-width:0.53px;stroke:black;"/>
                </g>
            </g>
            <g>
                <path d="M1140.2,705.009C1150,707.551 1157.58,712.8 1162.64,721.13L1248.94,858.06L1247.88,863.427L1243.69,864.809L1235.73,863.571L1140.2,705.009Z" style="fill:rgb(51,51,51);stroke-width:0.5px;stroke:black;"/>
                <g transform="matrix(1,0,0,1.34688,0,-298.374)">
                    <path d="M1237.42,867.999C1242.73,868.034 1247.04,867.325 1248.94,864.835C1249.06,864.122 1248.95,858.906 1248.94,858.597C1246.75,862.143 1241.98,863.061 1235.99,862.642" style="fill:rgb(51,51,51);stroke-width:0.42px;stroke:black;"/>
                </g>
            </g>
        </g>
    </g>
    <g id="Router">
        <g id="Plaste weis">
            <path d="M84.296,981.947C86.513,932.857 87.593,880.051 96.522,852.897L191.308,703.716C195.01,697.889 223.422,689.309 242.194,688.874L1062.77,688.874C1102.56,689.162 1132.19,692.715 1138.68,703.716L1228.06,846.708C1231.44,852.7 1234.16,858.892 1236.37,865.237C1240.57,904.026 1241.72,942.997 1243.22,981.947L1230.41,996.746L98.354,996.746L84.296,981.947Z" style="fill:white;stroke-width:3px;stroke-linecap:round;stroke:black;"/>
            <path d="M259.697,986.318L94.282,986.318C89.968,986.135 86.672,984.601 84.22,981.947L84.22,1002.75C84.22,1005.88 92.109,1013.63 94.282,1013.63L259.697,1013.63L259.697,986.318Z" style="fill:white;stroke-width:3px;stroke-linecap:round;stroke:black;"/>
            <g transform="matrix(-1,0,0,1,1327.35,0)">
                <path d="M259.697,986.318L94.282,986.318C89.968,986.135 86.672,984.601 84.22,981.947L84.22,1002.75C84.22,1005.88 92.109,1013.63 94.282,1013.63L259.697,1013.63L259.697,986.318Z" style="fill:white;stroke-width:3px;stroke-linecap:round;stroke:black;"/>
            </g>
        </g>
        <g id="QSS">
            <path d="M1223.29,928.479C1223.29,923.226 1219.03,918.961 1213.78,918.961L1114.87,918.961C1109.61,918.961 1105.35,923.226 1105.35,928.479L1105.35,972.96C1105.35,978.213 1109.61,982.477 1114.87,982.477L1213.78,982.477C1219.03,982.477 1223.29,978.213 1223.29,972.96L1223.29,928.479Z" style="fill:rgb(64,200,43);stroke-width:0.65px;stroke-linecap:round;stroke:black;"/>
            <g id="wifi-links">
                <path d="M1165.04,941.731C1161.05,948.191 1161.14,954.236 1165.04,960.178" style="fill:none;stroke-width:0.65px;stroke-linecap:round;stroke:black;"/>
                <g transform="matrix(1.22273,0,0,1.13864,-262.476,-131.913)">
                    <path d="M1165.04,941.731C1161.05,948.191 1161.14,954.236 1165.04,960.178" style="fill:none;stroke-width:0.55px;stroke-linecap:round;stroke:black;"/>
                </g>
                <g transform="matrix(1.28019,0,0,1.27899,-332.767,-265.276)">
                    <path d="M1165.04,941.731C1161.05,948.191 1161.14,954.236 1165.04,960.178" style="fill:none;stroke-width:0.51px;stroke-linecap:round;stroke:black;"/>
                </g>
            </g>
            <g id="wifi-rechts" transform="matrix(-1,5.66554e-16,-5.66554e-16,-1,2372.96,1902.65)">
                <path d="M1165.04,941.731C1161.05,948.191 1161.14,954.236 1165.04,960.178" style="fill:none;stroke-width:0.65px;stroke-linecap:round;stroke:black;"/>
                <g transform="matrix(1.22273,0,0,1.13864,-262.476,-131.913)">
                    <path d="M1165.04,941.731C1161.05,948.191 1161.14,954.236 1165.04,960.178" style="fill:none;stroke-width:0.55px;stroke-linecap:round;stroke:black;"/>
                </g>
                <g transform="matrix(1.28019,0,0,1.27899,-332.767,-265.276)">
                    <path d="M1165.04,941.731C1161.05,948.191 1161.14,954.236 1165.04,960.178" style="fill:none;stroke-width:0.51px;stroke-linecap:round;stroke:black;"/>
                </g>
            </g>
            <g transform="matrix(1.15,0,0,0.95,-178.764,57.5675)">
                <path d="M1176.49,933.59L1176.49,946.756C1176.49,947.111 1176.54,947.364 1176.64,947.515C1176.75,947.665 1176.92,947.74 1177.16,947.74C1177.41,947.74 1177.59,947.663 1177.7,947.508C1177.8,947.353 1177.85,947.102 1177.85,946.756L1177.85,933.59C1177.85,933.234 1177.8,932.984 1177.7,932.838C1177.59,932.692 1177.41,932.619 1177.16,932.619C1176.92,932.619 1176.75,932.697 1176.64,932.852C1176.54,933.007 1176.49,933.253 1176.49,933.59ZM1172.45,934.943C1172.45,933.066 1172.82,931.728 1173.55,930.931C1174.28,930.133 1175.48,929.734 1177.16,929.734C1178.83,929.734 1180.04,930.129 1180.77,930.917C1181.49,931.705 1181.86,933.048 1181.86,934.943L1181.86,945.607C1181.86,946.984 1181.69,948.021 1181.34,948.718C1180.99,949.415 1180.4,949.955 1179.56,950.338C1179.56,950.557 1179.61,950.714 1179.7,950.81C1179.8,950.905 1179.95,950.953 1180.15,950.953L1181.78,950.953L1181.78,953.893L1179.29,953.893C1178.77,953.893 1178.37,953.637 1178.09,953.127C1177.8,952.617 1177.66,951.883 1177.66,950.926L1177.66,950.789C1177.51,950.798 1177.37,950.805 1177.24,950.81C1177.11,950.814 1176.99,950.816 1176.87,950.816C1175.35,950.816 1174.23,950.402 1173.52,949.572C1172.81,948.743 1172.45,947.421 1172.45,945.607L1172.45,934.943Z" style="fill:white;fill-rule:nonzero;stroke-width:0.38px;stroke:rgb(49,49,49);"/>
                <path d="M1182.87,933.795C1182.87,932.51 1183.28,931.512 1184.11,930.801C1184.93,930.09 1186.09,929.734 1187.57,929.734C1189.07,929.734 1190.22,930.092 1191.03,930.808C1191.84,931.523 1192.25,932.546 1192.25,933.877L1192.25,937.172L1188.24,937.172L1188.24,933.59C1188.24,933.225 1188.19,932.972 1188.09,932.831C1187.99,932.69 1187.82,932.619 1187.57,932.619C1187.32,932.619 1187.14,932.694 1187.03,932.845C1186.93,932.995 1186.88,933.244 1186.88,933.59L1186.88,935.381C1186.88,935.682 1186.91,935.944 1186.99,936.167C1187.07,936.39 1187.19,936.607 1187.37,936.816L1191.24,941.068C1191.6,941.46 1191.86,941.875 1192.02,942.313C1192.17,942.75 1192.25,943.447 1192.25,944.404L1192.25,946.756C1192.25,948.05 1191.84,949.046 1191.03,949.743C1190.21,950.44 1189.05,950.789 1187.55,950.789C1186.01,950.789 1184.84,950.425 1184.05,949.695C1183.27,948.966 1182.87,947.891 1182.87,946.469L1182.87,942.695L1186.88,942.695L1186.88,946.756C1186.88,947.102 1186.93,947.353 1187.03,947.508C1187.14,947.663 1187.32,947.74 1187.57,947.74C1187.81,947.74 1187.98,947.665 1188.09,947.515C1188.19,947.364 1188.24,947.111 1188.24,946.756L1188.24,944.623C1188.24,944.331 1188.19,944.06 1188.09,943.81C1187.98,943.559 1187.8,943.288 1187.55,942.996L1183.91,938.881C1183.54,938.462 1183.27,938.04 1183.11,937.616C1182.95,937.192 1182.87,936.625 1182.87,935.914L1182.87,935.613L1182.87,933.795Z" style="fill:white;fill-rule:nonzero;stroke-width:0.38px;stroke:rgb(49,49,49);"/>
                <path d="M1193.18,933.795C1193.18,932.51 1193.59,931.512 1194.42,930.801C1195.24,930.09 1196.4,929.734 1197.88,929.734C1199.38,929.734 1200.53,930.092 1201.34,930.808C1202.15,931.523 1202.56,932.546 1202.56,933.877L1202.56,937.172L1198.55,937.172L1198.55,933.59C1198.55,933.225 1198.5,932.972 1198.4,932.831C1198.3,932.69 1198.13,932.619 1197.88,932.619C1197.63,932.619 1197.45,932.694 1197.34,932.845C1197.24,932.995 1197.18,933.244 1197.18,933.59L1197.18,935.381C1197.18,935.682 1197.22,935.944 1197.3,936.167C1197.38,936.39 1197.5,936.607 1197.68,936.816L1201.55,941.068C1201.91,941.46 1202.17,941.875 1202.33,942.313C1202.48,942.75 1202.56,943.447 1202.56,944.404L1202.56,946.756C1202.56,948.05 1202.15,949.046 1201.33,949.743C1200.52,950.44 1199.36,950.789 1197.86,950.789C1196.32,950.789 1195.15,950.425 1194.36,949.695C1193.57,948.966 1193.18,947.891 1193.18,946.469L1193.18,942.695L1197.18,942.695L1197.18,946.756C1197.18,947.102 1197.24,947.353 1197.34,947.508C1197.45,947.663 1197.63,947.74 1197.88,947.74C1198.12,947.74 1198.29,947.665 1198.39,947.515C1198.5,947.364 1198.55,947.111 1198.55,946.756L1198.55,944.623C1198.55,944.331 1198.5,944.06 1198.39,943.81C1198.29,943.559 1198.11,943.288 1197.86,942.996L1194.22,938.881C1193.84,938.462 1193.58,938.04 1193.42,937.616C1193.26,937.192 1193.18,936.625 1193.18,935.914L1193.18,935.613L1193.18,933.795Z" style="fill:white;fill-rule:nonzero;stroke-width:0.38px;stroke:rgb(49,49,49);"/>
            </g>
            <g id="ON/off" transform="matrix(1.17447,0,0,1.17447,753.45,-223.957)">
                <g transform="matrix(1,0,0,1,-0.627516,0.355553)">
                    <ellipse cx="321.797" cy="999.854" rx="16.795" ry="16.434" style="fill:rgb(72,72,74);stroke-width:0.85px;stroke-linecap:round;stroke:black;"/>
                </g>
                <g transform="matrix(0.766109,0,0,0.766109,74.7377,234.386)">
                    <ellipse cx="321.797" cy="999.854" rx="16.795" ry="16.434" style="fill:rgb(72,72,74);stroke-width:2.22px;stroke-linecap:round;stroke:black;"/>
                </g>
                <g transform="matrix(1,0,0,1,-0.0942289,0.933291)">
                    <path d="M321.381,992.932L321.381,1006" style="fill:none;stroke-width:2.98px;stroke-linecap:round;stroke:black;"/>
                </g>
            </g>
        </g>
        <path d="M97.426,852.496C96.783,841.411 1230.34,844.994 1231.06,852.496" style="fill:none;stroke-width:3px;stroke-linecap:round;stroke:black;"/>
        <g id="Front">
            <g transform="matrix(1.00334,0,0,1.02921,-2.41872,-29.4677)">
                <path d="M1077.9,918.634C1077.9,899.173 1061.7,883.372 1041.73,883.372L288.417,883.372C268.454,883.372 252.246,899.173 252.246,918.634L252.246,973.432C252.246,992.893 268.454,1008.69 288.417,1008.69L1041.73,1008.69C1061.7,1008.69 1077.9,992.893 1077.9,973.432L1077.9,918.634Z" style="fill:rgb(51,51,51);"/>
            </g>
            <path d="M1079.17,966.72C1079.17,956.578 1070.94,948.343 1060.8,948.343L269.032,948.343C258.89,948.343 250.656,956.578 250.656,966.72L250.656,1003.47C250.656,1013.61 258.89,1021.85 269.032,1021.85L1060.8,1021.85C1070.94,1021.85 1079.17,1013.61 1079.17,1003.47L1079.17,966.72Z" style="fill:rgb(51,51,51);"/>
            <g transform="matrix(1,0,0,1.76392,0,-718.176)">
                <path d="M936.461,944.183C936.461,941.941 933.25,940.121 929.296,940.121L405.838,940.121C401.883,940.121 398.673,941.941 398.673,944.183L398.673,946.328C398.673,948.57 401.883,950.391 405.838,950.391L929.296,950.391C933.25,950.391 936.461,948.57 936.461,946.328L936.461,944.183Z" style="fill:rgb(54,129,35);stroke-width:0.7px;stroke:black;"/>
            </g>
            <g>
                <circle cx="433.52" cy="948.693" r="6.161" style="fill:rgb(175,239,159);stroke-width:0.5px;stroke:black;"/>
                <g transform="matrix(1,0,0,1,76.3442,0)">
                    <circle cx="433.52" cy="948.693" r="6.161" style="fill:rgb(175,239,159);stroke-width:0.5px;stroke:black;"/>
                </g>
                <g transform="matrix(1,0,0,1,148.4,0)">
                    <circle cx="433.52" cy="948.693" r="6.161" style="fill:rgb(175,239,159);stroke-width:0.5px;stroke:black;"/>
                </g>
                <g transform="matrix(1,0,0,1,214.262,0)">
                    <circle cx="433.52" cy="948.693" r="6.161" style="fill:rgb(175,239,159);stroke-width:0.5px;stroke:black;"/>
                </g>
                <g transform="matrix(1,0,0,1,250.149,0)">
                    <circle cx="433.52" cy="948.693" r="6.161" style="fill:rgb(175,239,159);stroke-width:0.5px;stroke:black;"/>
                </g>
                <g transform="matrix(1,0,0,1,285.169,0)">
                    <circle cx="433.52" cy="948.693" r="6.161" style="fill:rgb(175,239,159);stroke-width:0.5px;stroke:black;"/>
                </g>
                <g transform="matrix(1,0,0,1,324.581,0)">
                    <circle cx="433.52" cy="948.693" r="6.161" style="fill:rgb(175,239,159);stroke-width:0.5px;stroke:black;"/>
                </g>
                <g transform="matrix(1,0,0,1,390.303,0)">
                    <circle cx="433.52" cy="948.693" r="6.161" style="fill:rgb(175,239,159);stroke-width:0.5px;stroke:black;"/>
                </g>
                <g transform="matrix(1,0,0,1,468.965,0)">
                    <circle cx="433.52" cy="948.693" r="6.161" style="fill:rgb(175,239,159);stroke-width:0.5px;stroke:black;"/>
                </g>
            </g>
            <g transform="matrix(1.00077,0,0,0.844315,1.86022,149.748)">
                <path d="M962.231,946.943C962.231,938.71 956.591,932.026 949.645,932.026L377.334,932.026C370.388,932.026 364.749,938.71 364.749,946.943C364.749,955.177 370.388,961.861 377.334,961.861L949.645,961.861C956.591,961.861 962.231,955.177 962.231,946.943Z" style="fill:none;stroke-width:0.54px;stroke:black;"/>
            </g>
        </g>
    </g>
    <g id="Beschriftung">
        <g transform="matrix(0.89,0,0,1,97.9836,3.91336)">
            <path d="M923.721,979.725L923.721,969.624L919.948,969.624L919.948,968.272L929.026,968.272L929.026,969.624L925.237,969.624L925.237,979.725L923.721,979.725Z" style="fill:rgb(252,252,252);fill-rule:nonzero;"/>
            <path d="M930.518,979.725L930.518,968.272L932.034,968.272L932.034,978.374L937.675,978.374L937.675,979.725L930.518,979.725Z" style="fill:rgb(252,252,252);fill-rule:nonzero;"/>
            <rect x="942.531" y="974.874" width="4.32" height="1.414" style="fill:rgb(252,252,252);fill-rule:nonzero;"/>
            <path d="M955.031,979.725L951.992,968.272L953.547,968.272L955.289,975.78C955.476,976.566 955.638,977.347 955.773,978.124C956.065,976.9 956.237,976.194 956.289,976.006L958.468,968.272L960.297,968.272L961.937,974.069C962.349,975.506 962.645,976.858 962.828,978.124C962.974,977.4 963.164,976.569 963.398,975.631L965.195,968.272L966.718,968.272L963.578,979.725L962.117,979.725L959.703,970.999C959.5,970.269 959.38,969.821 959.343,969.655C959.224,970.181 959.112,970.629 959.007,970.999L956.578,979.725L955.031,979.725Z" style="fill:rgb(252,252,252);fill-rule:nonzero;"/>
            <path d="M968.156,979.725L968.156,968.272L973.234,968.272C974.255,968.272 975.031,968.375 975.562,968.581C976.093,968.786 976.518,969.15 976.836,969.67C977.153,970.191 977.312,970.767 977.312,971.397C977.312,972.209 977.049,972.894 976.523,973.452C975.997,974.009 975.185,974.363 974.086,974.514C974.487,974.707 974.791,974.897 975,975.084C975.442,975.491 975.862,975.999 976.257,976.608L978.25,979.725L976.343,979.725L974.828,977.342C974.385,976.655 974.02,976.129 973.734,975.764C973.448,975.4 973.191,975.144 972.964,974.999C972.738,974.853 972.507,974.751 972.273,974.694C972.101,974.657 971.82,974.639 971.429,974.639L969.672,974.639L969.672,979.725L968.156,979.725ZM969.672,973.327L972.929,973.327C973.622,973.327 974.164,973.255 974.554,973.112C974.945,972.969 975.242,972.739 975.445,972.424C975.648,972.109 975.75,971.767 975.75,971.397C975.75,970.855 975.553,970.41 975.16,970.061C974.767,969.712 974.145,969.538 973.297,969.538L969.672,969.538L969.672,973.327Z" style="fill:rgb(252,252,252);fill-rule:nonzero;"/>
            <path d="M979.328,977.077L980.679,976.952C980.794,977.587 981.013,978.048 981.336,978.334C981.658,978.621 982.073,978.764 982.578,978.764C983.01,978.764 983.389,978.665 983.714,978.467C984.04,978.269 984.307,978.005 984.515,977.674C984.724,977.344 984.898,976.897 985.039,976.334C985.179,975.772 985.25,975.199 985.25,974.616C985.25,974.553 985.247,974.459 985.242,974.334C984.961,974.782 984.576,975.146 984.089,975.424C983.603,975.703 983.075,975.842 982.507,975.842C981.56,975.842 980.757,975.499 980.101,974.811C979.445,974.124 979.117,973.217 979.117,972.092C979.117,970.931 979.459,969.996 980.144,969.288C980.829,968.579 981.687,968.225 982.718,968.225C983.463,968.225 984.144,968.426 984.761,968.827C985.379,969.228 985.847,969.799 986.168,970.541C986.488,971.284 986.648,972.358 986.648,973.764C986.648,975.228 986.489,976.393 986.172,977.26C985.854,978.127 985.381,978.788 984.754,979.241C984.126,979.694 983.39,979.92 982.547,979.92C981.651,979.92 980.919,979.672 980.351,979.174C979.783,978.677 979.442,977.978 979.328,977.077ZM985.086,972.022C985.086,971.215 984.871,970.574 984.441,970.1C984.011,969.626 983.494,969.389 982.89,969.389C982.265,969.389 981.721,969.644 981.257,970.155C980.794,970.665 980.562,971.327 980.562,972.139C980.562,972.868 980.782,973.461 981.222,973.916C981.662,974.372 982.205,974.6 982.851,974.6C983.502,974.6 984.037,974.372 984.457,973.916C984.876,973.461 985.086,972.829 985.086,972.022Z" style="fill:rgb(252,252,252);fill-rule:nonzero;"/>
            <path d="M992.523,979.725L992.523,976.983L987.554,976.983L987.554,975.694L992.781,968.272L993.929,968.272L993.929,975.694L995.476,975.694L995.476,976.983L993.929,976.983L993.929,979.725L992.523,979.725ZM992.523,975.694L992.523,970.53L988.937,975.694L992.523,975.694Z" style="fill:rgb(252,252,252);fill-rule:nonzero;"/>
            <path d="M1002.21,979.725L1000.8,979.725L1000.8,970.764C1000.47,971.087 1000.02,971.41 999.472,971.733C998.923,972.056 998.429,972.298 997.992,972.459L997.992,971.1C998.778,970.73 999.466,970.282 1000.05,969.756C1000.64,969.23 1001.06,968.72 1001.3,968.225L1002.21,968.225L1002.21,979.725Z" style="fill:rgb(252,252,252);fill-rule:nonzero;"/>
            <path d="M1006.37,979.725L1006.37,968.272L1007.92,968.272L1013.94,977.264L1013.94,968.272L1015.39,968.272L1015.39,979.725L1013.84,979.725L1007.82,970.725L1007.82,979.725L1006.37,979.725Z" style="fill:rgb(252,252,252);fill-rule:nonzero;"/>
            <path d="M1017.94,979.725L1017.94,968.272L1021.88,968.272C1022.77,968.272 1023.45,968.327 1023.92,968.436C1024.58,968.587 1025.14,968.861 1025.6,969.256C1026.2,969.767 1026.66,970.419 1026.96,971.213C1027.26,972.008 1027.41,972.915 1027.41,973.936C1027.41,974.806 1027.3,975.577 1027.1,976.249C1026.9,976.92 1026.64,977.476 1026.32,977.916C1026,978.357 1025.65,978.703 1025.28,978.956C1024.9,979.208 1024.44,979.4 1023.91,979.53C1023.38,979.66 1022.76,979.725 1022.07,979.725L1017.94,979.725ZM1019.45,978.374L1021.9,978.374C1022.65,978.374 1023.25,978.303 1023.68,978.163C1024.11,978.022 1024.45,977.824 1024.7,977.569C1025.06,977.209 1025.34,976.726 1025.54,976.12C1025.74,975.513 1025.84,974.777 1025.84,973.913C1025.84,972.715 1025.65,971.794 1025.25,971.151C1024.86,970.508 1024.38,970.077 1023.82,969.858C1023.41,969.702 1022.76,969.624 1021.86,969.624L1019.45,969.624L1019.45,978.374Z" style="fill:rgb(252,252,252);fill-rule:nonzero;"/>
        </g>
        <g transform="matrix(0.89,0,0,1,-518.576,3.57615)">
            <path d="M919.55,979.725L923.948,968.272L925.581,968.272L930.268,979.725L928.542,979.725L927.206,976.256L922.417,976.256L921.159,979.725L919.55,979.725ZM922.854,975.022L926.737,975.022L925.542,971.85C925.177,970.887 924.906,970.095 924.729,969.475C924.583,970.209 924.378,970.939 924.112,971.663L922.854,975.022Z" style="fill:rgb(252,252,252);fill-rule:nonzero;"/>
            <path d="M936.682,979.725L936.682,978.678C936.156,979.501 935.383,979.913 934.362,979.913C933.701,979.913 933.093,979.73 932.538,979.366C931.983,979.001 931.553,978.492 931.249,977.838C930.944,977.185 930.792,976.433 930.792,975.584C930.792,974.756 930.93,974.005 931.206,973.331C931.482,972.656 931.896,972.139 932.448,971.78C933,971.42 933.617,971.241 934.3,971.241C934.8,971.241 935.245,971.346 935.636,971.557C936.026,971.768 936.344,972.043 936.589,972.381L936.589,968.272L937.987,968.272L937.987,979.725L936.682,979.725ZM932.237,975.584C932.237,976.647 932.461,977.441 932.909,977.967C933.357,978.493 933.886,978.756 934.495,978.756C935.109,978.756 935.632,978.505 936.061,978.002C936.491,977.5 936.706,976.733 936.706,975.702C936.706,974.566 936.487,973.733 936.05,973.202C935.612,972.67 935.073,972.405 934.432,972.405C933.807,972.405 933.285,972.66 932.866,973.17C932.447,973.681 932.237,974.486 932.237,975.584Z" style="fill:rgb(252,252,252);fill-rule:nonzero;"/>
            <path d="M942.503,979.725L939.346,971.428L940.831,971.428L942.612,976.397C942.805,976.933 942.982,977.491 943.143,978.069C943.268,977.631 943.443,977.105 943.667,976.491L945.511,971.428L946.956,971.428L943.815,979.725L942.503,979.725Z" style="fill:rgb(252,252,252);fill-rule:nonzero;"/>
            <path d="M953.612,978.702C953.091,979.144 952.59,979.457 952.108,979.639C951.626,979.821 951.109,979.913 950.557,979.913C949.646,979.913 948.945,979.69 948.456,979.245C947.966,978.799 947.721,978.23 947.721,977.538C947.721,977.131 947.814,976.76 947.999,976.424C948.184,976.088 948.426,975.819 948.725,975.616C949.025,975.413 949.362,975.259 949.737,975.155C950.013,975.082 950.43,975.012 950.987,974.944C952.123,974.808 952.958,974.647 953.495,974.459C953.5,974.267 953.503,974.144 953.503,974.092C953.503,973.519 953.37,973.116 953.104,972.881C952.745,972.564 952.211,972.405 951.503,972.405C950.841,972.405 950.353,972.521 950.038,972.752C949.723,972.984 949.49,973.394 949.339,973.983L947.964,973.795C948.089,973.207 948.294,972.732 948.581,972.37C948.867,972.008 949.281,971.729 949.823,971.534C950.365,971.338 950.992,971.241 951.706,971.241C952.414,971.241 952.99,971.324 953.432,971.491C953.875,971.657 954.201,971.867 954.409,972.12C954.617,972.372 954.763,972.691 954.846,973.077C954.893,973.316 954.917,973.749 954.917,974.374L954.917,976.249C954.917,977.556 954.947,978.383 955.007,978.729C955.067,979.075 955.185,979.407 955.362,979.725L953.893,979.725C953.748,979.433 953.654,979.092 953.612,978.702ZM953.495,975.561C952.984,975.769 952.219,975.946 951.198,976.092C950.62,976.176 950.211,976.269 949.971,976.374C949.732,976.478 949.547,976.63 949.417,976.831C949.287,977.031 949.221,977.254 949.221,977.499C949.221,977.874 949.363,978.186 949.647,978.436C949.931,978.686 950.346,978.811 950.893,978.811C951.435,978.811 951.917,978.693 952.339,978.456C952.761,978.219 953.07,977.894 953.268,977.483C953.419,977.165 953.495,976.696 953.495,976.077L953.495,975.561Z" style="fill:rgb(252,252,252);fill-rule:nonzero;"/>
            <path d="M957.096,979.725L957.096,971.428L958.362,971.428L958.362,972.608C958.971,971.696 959.852,971.241 961.003,971.241C961.503,971.241 961.962,971.331 962.382,971.51C962.801,971.69 963.115,971.926 963.323,972.217C963.531,972.509 963.677,972.855 963.761,973.256C963.813,973.517 963.839,973.972 963.839,974.624L963.839,979.725L962.432,979.725L962.432,974.678C962.432,974.105 962.378,973.677 962.268,973.393C962.159,973.109 961.965,972.883 961.686,972.713C961.408,972.544 961.081,972.459 960.706,972.459C960.107,972.459 959.59,972.65 959.155,973.03C958.72,973.41 958.503,974.131 958.503,975.194L958.503,979.725L957.096,979.725Z" style="fill:rgb(252,252,252);fill-rule:nonzero;"/>
            <path d="M971.409,976.686L972.792,976.866C972.641,977.819 972.254,978.565 971.632,979.104C971.009,979.643 970.245,979.913 969.339,979.913C968.203,979.913 967.29,979.541 966.6,978.799C965.91,978.057 965.565,976.993 965.565,975.608C965.565,974.712 965.714,973.928 966.011,973.256C966.307,972.584 966.759,972.081 967.366,971.745C967.973,971.409 968.633,971.241 969.346,971.241C970.248,971.241 970.984,971.469 971.557,971.924C972.13,972.38 972.498,973.027 972.659,973.866L971.292,974.077C971.162,973.519 970.931,973.1 970.6,972.819C970.27,972.538 969.87,972.397 969.401,972.397C968.693,972.397 968.117,972.651 967.675,973.159C967.232,973.666 967.011,974.47 967.011,975.569C967.011,976.683 967.224,977.493 967.651,977.999C968.078,978.504 968.636,978.756 969.323,978.756C969.875,978.756 970.336,978.587 970.706,978.249C971.076,977.91 971.31,977.389 971.409,976.686Z" style="fill:rgb(252,252,252);fill-rule:nonzero;"/>
            <path d="M979.675,977.053L981.128,977.233C980.899,978.082 980.474,978.741 979.854,979.209C979.234,979.678 978.443,979.913 977.479,979.913C976.266,979.913 975.303,979.539 974.593,978.791C973.882,978.044 973.526,976.996 973.526,975.647C973.526,974.251 973.886,973.168 974.604,972.397C975.323,971.626 976.255,971.241 977.401,971.241C978.511,971.241 979.417,971.618 980.12,972.374C980.823,973.129 981.175,974.191 981.175,975.561C981.175,975.644 981.172,975.769 981.167,975.936L974.979,975.936C975.031,976.847 975.289,977.545 975.753,978.03C976.216,978.514 976.794,978.756 977.487,978.756C978.003,978.756 978.443,978.621 978.807,978.35C979.172,978.079 979.461,977.647 979.675,977.053ZM975.057,974.78L979.69,974.78C979.628,974.082 979.451,973.558 979.159,973.209C978.711,972.668 978.13,972.397 977.417,972.397C976.771,972.397 976.228,972.613 975.788,973.045C975.348,973.478 975.104,974.056 975.057,974.78Z" style="fill:rgb(252,252,252);fill-rule:nonzero;"/>
            <path d="M988.276,979.725L988.276,978.678C987.75,979.501 986.977,979.913 985.956,979.913C985.294,979.913 984.686,979.73 984.132,979.366C983.577,979.001 983.147,978.492 982.843,977.838C982.538,977.185 982.386,976.433 982.386,975.584C982.386,974.756 982.524,974.005 982.8,973.331C983.076,972.656 983.49,972.139 984.042,971.78C984.594,971.42 985.211,971.241 985.893,971.241C986.393,971.241 986.839,971.346 987.229,971.557C987.62,971.768 987.938,972.043 988.182,972.381L988.182,968.272L989.581,968.272L989.581,979.725L988.276,979.725ZM983.831,975.584C983.831,976.647 984.055,977.441 984.503,977.967C984.951,978.493 985.479,978.756 986.089,978.756C986.703,978.756 987.225,978.505 987.655,978.002C988.085,977.5 988.3,976.733 988.3,975.702C988.3,974.566 988.081,973.733 987.643,973.202C987.206,972.67 986.667,972.405 986.026,972.405C985.401,972.405 984.879,972.66 984.46,973.17C984.04,973.681 983.831,974.486 983.831,975.584Z" style="fill:rgb(252,252,252);fill-rule:nonzero;"/>
            <path d="M998.417,979.725L995.378,968.272L996.932,968.272L998.675,975.78C998.862,976.566 999.024,977.347 999.159,978.124C999.451,976.9 999.623,976.194 999.675,976.006L1001.85,968.272L1003.68,968.272L1005.32,974.069C1005.73,975.506 1006.03,976.858 1006.21,978.124C1006.36,977.4 1006.55,976.569 1006.78,975.631L1008.58,968.272L1010.1,968.272L1006.96,979.725L1005.5,979.725L1003.09,970.999C1002.89,970.269 1002.77,969.821 1002.73,969.655C1002.61,970.181 1002.5,970.629 1002.39,970.999L999.964,979.725L998.417,979.725Z" style="fill:rgb(252,252,252);fill-rule:nonzero;"/>
            <path d="M1011.35,969.889L1011.35,968.272L1012.75,968.272L1012.75,969.889L1011.35,969.889ZM1011.35,979.725L1011.35,971.428L1012.75,971.428L1012.75,979.725L1011.35,979.725Z" style="fill:rgb(252,252,252);fill-rule:nonzero;"/>
            <path d="M1014.88,979.725L1014.88,971.428L1016.14,971.428L1016.14,972.686C1016.47,972.097 1016.76,971.709 1017.04,971.522C1017.31,971.334 1017.61,971.241 1017.94,971.241C1018.41,971.241 1018.9,971.392 1019.39,971.694L1018.9,972.999C1018.56,972.795 1018.21,972.694 1017.87,972.694C1017.56,972.694 1017.29,972.786 1017.04,972.971C1016.8,973.156 1016.62,973.413 1016.52,973.741C1016.36,974.241 1016.28,974.788 1016.28,975.381L1016.28,979.725L1014.88,979.725Z" style="fill:rgb(252,252,252);fill-rule:nonzero;"/>
            <path d="M1025.9,977.053L1027.35,977.233C1027.12,978.082 1026.7,978.741 1026.08,979.209C1025.46,979.678 1024.67,979.913 1023.71,979.913C1022.49,979.913 1021.53,979.539 1020.82,978.791C1020.11,978.044 1019.75,976.996 1019.75,975.647C1019.75,974.251 1020.11,973.168 1020.83,972.397C1021.55,971.626 1022.48,971.241 1023.63,971.241C1024.74,971.241 1025.64,971.618 1026.35,972.374C1027.05,973.129 1027.4,974.191 1027.4,975.561C1027.4,975.644 1027.4,975.769 1027.39,975.936L1021.21,975.936C1021.26,976.847 1021.52,977.545 1021.98,978.03C1022.44,978.514 1023.02,978.756 1023.71,978.756C1024.23,978.756 1024.67,978.621 1025.03,978.35C1025.4,978.079 1025.69,977.647 1025.9,977.053ZM1021.28,974.78L1025.92,974.78C1025.85,974.082 1025.68,973.558 1025.39,973.209C1024.94,972.668 1024.36,972.397 1023.64,972.397C1023,972.397 1022.46,972.613 1022.01,973.045C1021.57,973.478 1021.33,974.056 1021.28,974.78Z" style="fill:rgb(252,252,252);fill-rule:nonzero;"/>
            <rect x="1029.09" y="968.272" width="1.406" height="11.453" style="fill:rgb(252,252,252);fill-rule:nonzero;"/>
            <path d="M1038.35,977.053L1039.81,977.233C1039.58,978.082 1039.15,978.741 1038.53,979.209C1037.91,979.678 1037.12,979.913 1036.16,979.913C1034.94,979.913 1033.98,979.539 1033.27,978.791C1032.56,978.044 1032.21,976.996 1032.21,975.647C1032.21,974.251 1032.57,973.168 1033.28,972.397C1034,971.626 1034.93,971.241 1036.08,971.241C1037.19,971.241 1038.1,971.618 1038.8,972.374C1039.5,973.129 1039.85,974.191 1039.85,975.561C1039.85,975.644 1039.85,975.769 1039.85,975.936L1033.66,975.936C1033.71,976.847 1033.97,977.545 1034.43,978.03C1034.9,978.514 1035.47,978.756 1036.17,978.756C1036.68,978.756 1037.12,978.621 1037.49,978.35C1037.85,978.079 1038.14,977.647 1038.35,977.053ZM1033.74,974.78L1038.37,974.78C1038.31,974.082 1038.13,973.558 1037.84,973.209C1037.39,972.668 1036.81,972.397 1036.1,972.397C1035.45,972.397 1034.91,972.613 1034.47,973.045C1034.03,973.478 1033.78,974.056 1033.74,974.78Z" style="fill:rgb(252,252,252);fill-rule:nonzero;"/>
            <path d="M1041.01,977.249L1042.4,977.03C1042.48,977.587 1042.7,978.014 1043.05,978.311C1043.41,978.608 1043.91,978.756 1044.55,978.756C1045.19,978.756 1045.67,978.625 1045.99,978.362C1046.3,978.099 1046.46,977.79 1046.46,977.436C1046.46,977.118 1046.32,976.868 1046.04,976.686C1045.85,976.561 1045.37,976.402 1044.6,976.209C1043.57,975.949 1042.86,975.724 1042.46,975.534C1042.06,975.344 1041.76,975.081 1041.55,974.745C1041.35,974.409 1041.25,974.038 1041.25,973.631C1041.25,973.262 1041.33,972.919 1041.5,972.604C1041.67,972.289 1041.9,972.027 1042.19,971.819C1042.41,971.657 1042.71,971.521 1043.09,971.409C1043.46,971.297 1043.87,971.241 1044.3,971.241C1044.95,971.241 1045.52,971.334 1046.01,971.522C1046.51,971.709 1046.87,971.963 1047.1,972.284C1047.34,972.604 1047.5,973.032 1047.59,973.569L1046.21,973.756C1046.15,973.329 1045.97,972.996 1045.67,972.756C1045.37,972.517 1044.95,972.397 1044.4,972.397C1043.76,972.397 1043.29,972.504 1043.02,972.717C1042.74,972.931 1042.6,973.181 1042.6,973.467C1042.6,973.65 1042.66,973.814 1042.78,973.959C1042.89,974.111 1043.07,974.236 1043.32,974.334C1043.46,974.387 1043.87,974.506 1044.56,974.694C1045.55,974.959 1046.25,975.177 1046.64,975.346C1047.03,975.515 1047.34,975.762 1047.57,976.084C1047.79,976.407 1047.9,976.808 1047.9,977.288C1047.9,977.756 1047.76,978.198 1047.49,978.612C1047.22,979.026 1046.82,979.346 1046.31,979.573C1045.79,979.799 1045.21,979.913 1044.56,979.913C1043.48,979.913 1042.66,979.689 1042.09,979.241C1041.53,978.793 1041.17,978.129 1041.01,977.249Z" style="fill:rgb(252,252,252);fill-rule:nonzero;"/>
            <path d="M1049.01,977.249L1050.4,977.03C1050.48,977.587 1050.7,978.014 1051.05,978.311C1051.41,978.608 1051.91,978.756 1052.55,978.756C1053.19,978.756 1053.67,978.625 1053.99,978.362C1054.3,978.099 1054.46,977.79 1054.46,977.436C1054.46,977.118 1054.32,976.868 1054.04,976.686C1053.85,976.561 1053.37,976.402 1052.6,976.209C1051.57,975.949 1050.86,975.724 1050.46,975.534C1050.06,975.344 1049.76,975.081 1049.55,974.745C1049.35,974.409 1049.25,974.038 1049.25,973.631C1049.25,973.262 1049.33,972.919 1049.5,972.604C1049.67,972.289 1049.9,972.027 1050.19,971.819C1050.41,971.657 1050.71,971.521 1051.09,971.409C1051.46,971.297 1051.87,971.241 1052.3,971.241C1052.95,971.241 1053.52,971.334 1054.01,971.522C1054.51,971.709 1054.87,971.963 1055.1,972.284C1055.34,972.604 1055.5,973.032 1055.59,973.569L1054.21,973.756C1054.15,973.329 1053.97,972.996 1053.67,972.756C1053.37,972.517 1052.95,972.397 1052.4,972.397C1051.76,972.397 1051.29,972.504 1051.02,972.717C1050.74,972.931 1050.6,973.181 1050.6,973.467C1050.6,973.65 1050.66,973.814 1050.78,973.959C1050.89,974.111 1051.07,974.236 1051.32,974.334C1051.46,974.387 1051.87,974.506 1052.56,974.694C1053.55,974.959 1054.25,975.177 1054.64,975.346C1055.03,975.515 1055.34,975.762 1055.57,976.084C1055.79,976.407 1055.9,976.808 1055.9,977.288C1055.9,977.756 1055.76,978.198 1055.49,978.612C1055.22,979.026 1054.82,979.346 1054.31,979.573C1053.79,979.799 1053.21,979.913 1052.56,979.913C1051.48,979.913 1050.66,979.689 1050.09,979.241C1049.53,978.793 1049.17,978.129 1049.01,977.249Z" style="fill:rgb(252,252,252);fill-rule:nonzero;"/>
            <path d="M1062.18,979.725L1062.18,968.272L1063.74,968.272L1069.75,977.264L1069.75,968.272L1071.21,968.272L1071.21,979.725L1069.65,979.725L1063.64,970.725L1063.64,979.725L1062.18,979.725Z" style="fill:rgb(252,252,252);fill-rule:nonzero;"/>
            <path d="M1078.22,979.725L1078.22,968.272L1083.3,968.272C1084.32,968.272 1085.1,968.375 1085.63,968.581C1086.16,968.786 1086.58,969.15 1086.9,969.67C1087.22,970.191 1087.38,970.767 1087.38,971.397C1087.38,972.209 1087.12,972.894 1086.59,973.452C1086.06,974.009 1085.25,974.363 1084.15,974.514C1084.55,974.707 1084.86,974.897 1085.07,975.084C1085.51,975.491 1085.93,975.999 1086.32,976.608L1088.32,979.725L1086.41,979.725L1084.89,977.342C1084.45,976.655 1084.09,976.129 1083.8,975.764C1083.51,975.4 1083.26,975.144 1083.03,974.999C1082.8,974.853 1082.57,974.751 1082.34,974.694C1082.17,974.657 1081.89,974.639 1081.5,974.639L1079.74,974.639L1079.74,979.725L1078.22,979.725ZM1079.74,973.327L1083,973.327C1083.69,973.327 1084.23,973.255 1084.62,973.112C1085.01,972.969 1085.31,972.739 1085.51,972.424C1085.71,972.109 1085.82,971.767 1085.82,971.397C1085.82,970.855 1085.62,970.41 1085.22,970.061C1084.83,969.712 1084.21,969.538 1083.36,969.538L1079.74,969.538L1079.74,973.327Z" style="fill:rgb(252,252,252);fill-rule:nonzero;"/>
            <path d="M1089.05,975.577C1089.05,974.04 1089.48,972.902 1090.33,972.163C1091.04,971.548 1091.91,971.241 1092.94,971.241C1094.08,971.241 1095.01,971.614 1095.74,972.362C1096.46,973.109 1096.82,974.142 1096.82,975.459C1096.82,976.527 1096.66,977.367 1096.34,977.979C1096.02,978.591 1095.56,979.066 1094.94,979.405C1094.33,979.743 1093.66,979.913 1092.94,979.913C1091.78,979.913 1090.84,979.54 1090.12,978.795C1089.41,978.051 1089.05,976.978 1089.05,975.577ZM1090.5,975.577C1090.5,976.639 1090.73,977.435 1091.19,977.963C1091.65,978.492 1092.24,978.756 1092.94,978.756C1093.64,978.756 1094.22,978.491 1094.68,977.959C1095.15,977.428 1095.38,976.618 1095.38,975.53C1095.38,974.504 1095.14,973.726 1094.68,973.198C1094.21,972.669 1093.63,972.405 1092.94,972.405C1092.24,972.405 1091.65,972.668 1091.19,973.194C1090.73,973.72 1090.5,974.514 1090.5,975.577Z" style="fill:rgb(252,252,252);fill-rule:nonzero;"/>
            <path d="M1103.91,979.725L1103.91,978.506C1103.26,979.444 1102.39,979.913 1101.28,979.913C1100.79,979.913 1100.33,979.819 1099.9,979.631C1099.48,979.444 1099.16,979.208 1098.96,978.924C1098.75,978.64 1098.61,978.293 1098.53,977.881C1098.47,977.605 1098.44,977.168 1098.44,976.569L1098.44,971.428L1099.85,971.428L1099.85,976.03C1099.85,976.764 1099.88,977.259 1099.93,977.514C1100.02,977.884 1100.21,978.174 1100.5,978.385C1100.78,978.596 1101.14,978.702 1101.56,978.702C1101.98,978.702 1102.38,978.594 1102.75,978.377C1103.12,978.161 1103.38,977.867 1103.53,977.495C1103.68,977.122 1103.76,976.582 1103.76,975.874L1103.76,971.428L1105.17,971.428L1105.17,979.725L1103.91,979.725Z" style="fill:rgb(252,252,252);fill-rule:nonzero;"/>
            <path d="M1110.44,978.467L1110.64,979.709C1110.25,979.793 1109.89,979.834 1109.58,979.834C1109.07,979.834 1108.67,979.754 1108.39,979.592C1108.11,979.431 1107.91,979.219 1107.8,978.956C1107.68,978.693 1107.63,978.139 1107.63,977.295L1107.63,972.522L1106.6,972.522L1106.6,971.428L1107.63,971.428L1107.63,969.374L1109.03,968.53L1109.03,971.428L1110.44,971.428L1110.44,972.522L1109.03,972.522L1109.03,977.374C1109.03,977.775 1109.05,978.032 1109.1,978.147C1109.15,978.262 1109.23,978.353 1109.34,978.42C1109.45,978.488 1109.62,978.522 1109.82,978.522C1109.98,978.522 1110.18,978.504 1110.44,978.467Z" style="fill:rgb(252,252,252);fill-rule:nonzero;"/>
            <path d="M1117.5,977.053L1118.95,977.233C1118.72,978.082 1118.29,978.741 1117.67,979.209C1117.06,979.678 1116.26,979.913 1115.3,979.913C1114.09,979.913 1113.12,979.539 1112.41,978.791C1111.7,978.044 1111.35,976.996 1111.35,975.647C1111.35,974.251 1111.71,973.168 1112.42,972.397C1113.14,971.626 1114.08,971.241 1115.22,971.241C1116.33,971.241 1117.24,971.618 1117.94,972.374C1118.64,973.129 1119,974.191 1119,975.561C1119,975.644 1118.99,975.769 1118.99,975.936L1112.8,975.936C1112.85,976.847 1113.11,977.545 1113.57,978.03C1114.04,978.514 1114.62,978.756 1115.31,978.756C1115.82,978.756 1116.26,978.621 1116.63,978.35C1116.99,978.079 1117.28,977.647 1117.5,977.053ZM1112.88,974.78L1117.51,974.78C1117.45,974.082 1117.27,973.558 1116.98,973.209C1116.53,972.668 1115.95,972.397 1115.24,972.397C1114.59,972.397 1114.05,972.613 1113.61,973.045C1113.17,973.478 1112.92,974.056 1112.88,974.78Z" style="fill:rgb(252,252,252);fill-rule:nonzero;"/>
            <path d="M1120.7,979.725L1120.7,971.428L1121.96,971.428L1121.96,972.686C1122.29,972.097 1122.59,971.709 1122.86,971.522C1123.13,971.334 1123.43,971.241 1123.76,971.241C1124.23,971.241 1124.72,971.392 1125.21,971.694L1124.72,972.999C1124.38,972.795 1124.03,972.694 1123.69,972.694C1123.38,972.694 1123.11,972.786 1122.86,972.971C1122.62,973.156 1122.44,973.413 1122.34,973.741C1122.18,974.241 1122.1,974.788 1122.1,975.381L1122.1,979.725L1120.7,979.725Z" style="fill:rgb(252,252,252);fill-rule:nonzero;"/>
        </g>
        <g transform="matrix(0.89,0,0,1,-396.139,-51.3217)">
            <path d="M920.576,979.725L920.576,970.419L924.086,970.419C924.704,970.419 925.176,970.449 925.502,970.508C925.959,970.584 926.342,970.729 926.651,970.943C926.96,971.157 927.208,971.456 927.397,971.841C927.585,972.226 927.679,972.65 927.679,973.111C927.679,973.902 927.427,974.572 926.924,975.12C926.42,975.668 925.51,975.942 924.194,975.942L921.807,975.942L921.807,979.725L920.576,979.725ZM921.807,974.844L924.213,974.844C925.009,974.844 925.574,974.696 925.908,974.399C926.242,974.103 926.409,973.686 926.409,973.149C926.409,972.76 926.311,972.426 926.114,972.149C925.918,971.872 925.658,971.689 925.337,971.6C925.129,971.545 924.746,971.518 924.188,971.518L921.807,971.518L921.807,974.844Z" style="fill:rgb(252,252,252);fill-rule:nonzero;"/>
            <path d="M930.872,979.725L928.403,970.419L929.666,970.419L931.081,976.52C931.234,977.159 931.365,977.793 931.475,978.424C931.712,977.429 931.852,976.856 931.894,976.704L933.665,970.419L935.15,970.419L936.483,975.129C936.817,976.297 937.059,977.395 937.207,978.424C937.325,977.836 937.48,977.161 937.67,976.399L939.13,970.419L940.368,970.419L937.816,979.725L936.629,979.725L934.668,972.635C934.503,972.042 934.405,971.678 934.376,971.543C934.278,971.97 934.187,972.334 934.103,972.635L932.129,979.725L930.872,979.725Z" style="fill:rgb(252,252,252);fill-rule:nonzero;"/>
            <path d="M941.536,979.725L941.536,970.419L945.662,970.419C946.491,970.419 947.122,970.503 947.553,970.67C947.985,970.837 948.33,971.132 948.588,971.556C948.846,971.979 948.975,972.446 948.975,972.958C948.975,973.619 948.762,974.175 948.334,974.628C947.907,975.081 947.247,975.368 946.354,975.491C946.68,975.648 946.927,975.802 947.096,975.955C947.456,976.285 947.797,976.697 948.118,977.192L949.737,979.725L948.188,979.725L946.957,977.789C946.597,977.23 946.301,976.803 946.068,976.507C945.835,976.211 945.627,976.003 945.443,975.885C945.259,975.766 945.072,975.684 944.881,975.637C944.741,975.608 944.513,975.593 944.196,975.593L942.767,975.593L942.767,979.725L941.536,979.725ZM942.767,974.526L945.414,974.526C945.977,974.526 946.417,974.468 946.735,974.352C947.052,974.235 947.293,974.049 947.458,973.793C947.623,973.537 947.706,973.259 947.706,972.958C947.706,972.518 947.546,972.157 947.227,971.873C946.907,971.59 946.402,971.448 945.713,971.448L942.767,971.448L942.767,974.526Z" style="fill:rgb(252,252,252);fill-rule:nonzero;"/>
            <path d="M1001.06,976.735L1002.22,976.634C1002.27,977.099 1002.4,977.481 1002.6,977.78C1002.8,978.078 1003.12,978.319 1003.54,978.503C1003.96,978.687 1004.44,978.779 1004.97,978.779C1005.44,978.779 1005.85,978.709 1006.21,978.57C1006.57,978.43 1006.84,978.239 1007.01,977.995C1007.19,977.752 1007.28,977.486 1007.28,977.199C1007.28,976.907 1007.19,976.652 1007.02,976.434C1006.85,976.216 1006.57,976.033 1006.19,975.885C1005.94,975.787 1005.38,975.636 1004.53,975.431C1003.67,975.226 1003.07,975.032 1002.73,974.85C1002.29,974.617 1001.96,974.329 1001.74,973.984C1001.52,973.639 1001.41,973.253 1001.41,972.825C1001.41,972.355 1001.55,971.916 1001.81,971.508C1002.08,971.1 1002.47,970.79 1002.98,970.578C1003.49,970.367 1004.06,970.261 1004.69,970.261C1005.38,970.261 1005.99,970.372 1006.51,970.594C1007.04,970.816 1007.44,971.143 1007.73,971.575C1008.01,972.006 1008.16,972.495 1008.18,973.041L1007,973.13C1006.94,972.542 1006.73,972.097 1006.36,971.797C1005.99,971.496 1005.45,971.346 1004.74,971.346C1003.99,971.346 1003.45,971.483 1003.11,971.756C1002.77,972.029 1002.6,972.358 1002.6,972.743C1002.6,973.077 1002.72,973.352 1002.96,973.568C1003.2,973.784 1003.82,974.005 1004.82,974.231C1005.82,974.458 1006.5,974.655 1006.88,974.825C1007.42,975.074 1007.82,975.391 1008.08,975.774C1008.34,976.157 1008.46,976.598 1008.46,977.097C1008.46,977.592 1008.32,978.059 1008.04,978.497C1007.75,978.935 1007.35,979.275 1006.82,979.519C1006.28,979.762 1005.69,979.884 1005.02,979.884C1004.18,979.884 1003.48,979.761 1002.91,979.516C1002.34,979.27 1001.89,978.901 1001.57,978.408C1001.24,977.915 1001.07,977.357 1001.06,976.735Z" style="fill:rgb(252,252,252);fill-rule:nonzero;"/>
            <path d="M1012.77,979.725L1012.77,975.783L1009.18,970.419L1010.68,970.419L1012.51,973.225C1012.85,973.75 1013.17,974.275 1013.46,974.799C1013.74,974.313 1014.08,973.765 1014.48,973.155L1016.28,970.419L1017.71,970.419L1014,975.783L1014,979.725L1012.77,979.725Z" style="fill:rgb(252,252,252);fill-rule:nonzero;"/>
            <path d="M1018.4,976.735L1019.56,976.634C1019.61,977.099 1019.74,977.481 1019.94,977.78C1020.14,978.078 1020.46,978.319 1020.88,978.503C1021.3,978.687 1021.78,978.779 1022.31,978.779C1022.78,978.779 1023.19,978.709 1023.55,978.57C1023.91,978.43 1024.18,978.239 1024.36,977.995C1024.53,977.752 1024.62,977.486 1024.62,977.199C1024.62,976.907 1024.53,976.652 1024.36,976.434C1024.19,976.216 1023.92,976.033 1023.53,975.885C1023.28,975.787 1022.73,975.636 1021.87,975.431C1021.01,975.226 1020.42,975.032 1020.07,974.85C1019.63,974.617 1019.3,974.329 1019.08,973.984C1018.86,973.639 1018.75,973.253 1018.75,972.825C1018.75,972.355 1018.89,971.916 1019.15,971.508C1019.42,971.1 1019.81,970.79 1020.32,970.578C1020.83,970.367 1021.4,970.261 1022.03,970.261C1022.72,970.261 1023.33,970.372 1023.85,970.594C1024.38,970.816 1024.79,971.143 1025.07,971.575C1025.35,972.006 1025.51,972.495 1025.53,973.041L1024.35,973.13C1024.28,972.542 1024.07,972.097 1023.7,971.797C1023.34,971.496 1022.79,971.346 1022.08,971.346C1021.34,971.346 1020.79,971.483 1020.45,971.756C1020.11,972.029 1019.94,972.358 1019.94,972.743C1019.94,973.077 1020.06,973.352 1020.3,973.568C1020.54,973.784 1021.16,974.005 1022.16,974.231C1023.16,974.458 1023.85,974.655 1024.22,974.825C1024.76,975.074 1025.16,975.391 1025.42,975.774C1025.68,976.157 1025.81,976.598 1025.81,977.097C1025.81,977.592 1025.66,978.059 1025.38,978.497C1025.1,978.935 1024.69,979.275 1024.16,979.519C1023.63,979.762 1023.03,979.884 1022.37,979.884C1021.52,979.884 1020.82,979.761 1020.25,979.516C1019.68,979.27 1019.23,978.901 1018.91,978.408C1018.59,977.915 1018.42,977.357 1018.4,976.735Z" style="fill:rgb(252,252,252);fill-rule:nonzero;"/>
            <path d="M1084,979.725L1081.53,970.419L1082.79,970.419L1084.21,976.52C1084.36,977.159 1084.49,977.793 1084.6,978.424C1084.84,977.429 1084.98,976.856 1085.02,976.704L1086.79,970.419L1088.28,970.419L1089.61,975.129C1089.94,976.297 1090.19,977.395 1090.33,978.424C1090.45,977.836 1090.61,977.161 1090.8,976.399L1092.26,970.419L1093.5,970.419L1090.94,979.725L1089.76,979.725L1087.8,972.635C1087.63,972.042 1087.53,971.678 1087.5,971.543C1087.4,971.97 1087.31,972.334 1087.23,972.635L1085.26,979.725L1084,979.725Z" style="fill:rgb(252,252,252);fill-rule:nonzero;"/>
            <path d="M1094.59,979.725L1094.59,970.419L1095.82,970.419L1095.82,978.627L1100.41,978.627L1100.41,979.725L1094.59,979.725Z" style="fill:rgb(252,252,252);fill-rule:nonzero;"/>
            <path d="M1100.85,979.725L1104.42,970.419L1105.75,970.419L1109.56,979.725L1108.16,979.725L1107.07,976.907L1103.18,976.907L1102.16,979.725L1100.85,979.725ZM1103.54,975.904L1106.69,975.904L1105.72,973.327C1105.42,972.544 1105.2,971.901 1105.06,971.397C1104.94,971.994 1104.78,972.586 1104.56,973.174L1103.54,975.904Z" style="fill:rgb(252,252,252);fill-rule:nonzero;"/>
            <path d="M1110.53,979.725L1110.53,970.419L1111.8,970.419L1116.68,977.726L1116.68,970.419L1117.86,970.419L1117.86,979.725L1116.6,979.725L1111.71,972.413L1111.71,979.725L1110.53,979.725Z" style="fill:rgb(252,252,252);fill-rule:nonzero;"/>
            <path d="M1177.31,979.725L1177.31,977.497L1173.27,977.497L1173.27,976.45L1177.52,970.419L1178.45,970.419L1178.45,976.45L1179.71,976.45L1179.71,977.497L1178.45,977.497L1178.45,979.725L1177.31,979.725ZM1177.31,976.45L1177.31,972.254L1174.39,976.45L1177.31,976.45Z" style="fill:rgb(252,252,252);fill-rule:nonzero;"/>
            <path d="M1214.1,977.269L1215.24,977.116C1215.37,977.764 1215.6,978.23 1215.91,978.516C1216.23,978.802 1216.61,978.944 1217.07,978.944C1217.6,978.944 1218.06,978.758 1218.43,978.386C1218.8,978.013 1218.98,977.552 1218.98,977.002C1218.98,976.477 1218.81,976.045 1218.47,975.704C1218.12,975.363 1217.69,975.193 1217.16,975.193C1216.94,975.193 1216.67,975.235 1216.35,975.32L1216.48,974.317C1216.56,974.325 1216.62,974.33 1216.66,974.33C1217.15,974.33 1217.59,974.203 1217.98,973.949C1218.37,973.695 1218.56,973.303 1218.56,972.774C1218.56,972.355 1218.42,972.008 1218.14,971.733C1217.85,971.458 1217.49,971.321 1217.04,971.321C1216.6,971.321 1216.23,971.46 1215.93,971.74C1215.63,972.019 1215.44,972.438 1215.36,972.997L1214.21,972.793C1214.35,972.027 1214.67,971.434 1215.17,971.013C1215.66,970.592 1216.28,970.381 1217.01,970.381C1217.52,970.381 1217.99,970.49 1218.42,970.708C1218.84,970.926 1219.17,971.223 1219.4,971.6C1219.62,971.977 1219.74,972.377 1219.74,972.8C1219.74,973.202 1219.63,973.568 1219.41,973.898C1219.2,974.228 1218.88,974.49 1218.45,974.685C1219.01,974.812 1219.43,975.075 1219.74,975.475C1220.04,975.875 1220.19,976.376 1220.19,976.977C1220.19,977.789 1219.9,978.478 1219.31,979.043C1218.71,979.608 1217.96,979.89 1217.06,979.89C1216.24,979.89 1215.56,979.647 1215.02,979.16C1214.48,978.673 1214.18,978.043 1214.1,977.269Z" style="fill:rgb(252,252,252);fill-rule:nonzero;"/>
            <path d="M1256.94,978.627L1256.94,979.725L1250.79,979.725C1250.78,979.45 1250.82,979.186 1250.92,978.932C1251.08,978.513 1251.33,978.1 1251.67,977.694C1252.02,977.288 1252.51,976.818 1253.17,976.285C1254.18,975.455 1254.86,974.798 1255.22,974.314C1255.57,973.829 1255.75,973.371 1255.75,972.939C1255.75,972.487 1255.59,972.105 1255.26,971.794C1254.94,971.483 1254.52,971.327 1254,971.327C1253.45,971.327 1253.01,971.492 1252.68,971.822C1252.35,972.152 1252.18,972.609 1252.18,973.193L1251,973.073C1251.08,972.197 1251.38,971.529 1251.91,971.07C1252.43,970.611 1253.14,970.381 1254.02,970.381C1254.92,970.381 1255.62,970.629 1256.14,971.124C1256.66,971.619 1256.92,972.233 1256.92,972.965C1256.92,973.337 1256.85,973.703 1256.69,974.063C1256.54,974.423 1256.29,974.801 1255.94,975.199C1255.58,975.597 1255,976.143 1254.17,976.837C1253.49,977.412 1253.05,977.803 1252.86,978.008C1252.66,978.213 1252.5,978.42 1252.37,978.627L1256.94,978.627Z" style="fill:rgb(252,252,252);fill-rule:nonzero;"/>
            <path d="M1299.3,979.725L1298.15,979.725L1298.15,972.444C1297.88,972.707 1297.52,972.969 1297.07,973.231C1296.62,973.494 1296.22,973.691 1295.87,973.822L1295.87,972.717C1296.51,972.417 1297.07,972.053 1297.55,971.625C1298.02,971.198 1298.36,970.783 1298.56,970.381L1299.3,970.381L1299.3,979.725Z" style="fill:rgb(252,252,252);fill-rule:nonzero;"/>
            <path d="M1359.2,979.725L1356.73,970.419L1358,970.419L1359.41,976.52C1359.56,977.159 1359.69,977.793 1359.81,978.424C1360.04,977.429 1360.18,976.856 1360.22,976.704L1362,970.419L1363.48,970.419L1364.81,975.129C1365.15,976.297 1365.39,977.395 1365.54,978.424C1365.65,977.836 1365.81,977.161 1366,976.399L1367.46,970.419L1368.7,970.419L1366.15,979.725L1364.96,979.725L1363,972.635C1362.83,972.042 1362.74,971.678 1362.71,971.543C1362.61,971.97 1362.52,972.334 1362.43,972.635L1360.46,979.725L1359.2,979.725Z" style="fill:rgb(252,252,252);fill-rule:nonzero;"/>
            <path d="M1368.28,979.725L1371.86,970.419L1373.18,970.419L1376.99,979.725L1375.59,979.725L1374.5,976.907L1370.61,976.907L1369.59,979.725L1368.28,979.725ZM1370.97,975.904L1374.12,975.904L1373.15,973.327C1372.86,972.544 1372.63,971.901 1372.49,971.397C1372.37,971.994 1372.21,972.586 1371.99,973.174L1370.97,975.904Z" style="fill:rgb(252,252,252);fill-rule:nonzero;"/>
            <path d="M1377.96,979.725L1377.96,970.419L1379.23,970.419L1384.11,977.726L1384.11,970.419L1385.29,970.419L1385.29,979.725L1384.03,979.725L1379.14,972.413L1379.14,979.725L1377.96,979.725Z" style="fill:rgb(252,252,252);fill-rule:nonzero;"/>
            <path d="M1453.47,978.729C1454.04,979.122 1454.57,979.41 1455.05,979.592L1454.69,980.449C1454.02,980.208 1453.36,979.827 1452.69,979.306C1452,979.691 1451.24,979.884 1450.4,979.884C1449.56,979.884 1448.8,979.681 1448.11,979.274C1447.43,978.868 1446.9,978.297 1446.53,977.561C1446.16,976.824 1445.97,975.995 1445.97,975.072C1445.97,974.154 1446.16,973.318 1446.53,972.565C1446.9,971.812 1447.43,971.238 1448.12,970.845C1448.81,970.451 1449.58,970.254 1450.43,970.254C1451.29,970.254 1452.06,970.459 1452.75,970.867C1453.44,971.275 1453.97,971.847 1454.33,972.581C1454.69,973.315 1454.87,974.143 1454.87,975.066C1454.87,975.832 1454.76,976.521 1454.53,977.132C1454.29,977.744 1453.94,978.276 1453.47,978.729ZM1450.76,977.154C1451.47,977.353 1452.06,977.649 1452.52,978.043C1453.24,977.383 1453.6,976.39 1453.6,975.066C1453.6,974.313 1453.48,973.655 1453.22,973.092C1452.96,972.529 1452.59,972.092 1452.1,971.781C1451.6,971.47 1451.05,971.314 1450.44,971.314C1449.52,971.314 1448.76,971.629 1448.15,972.257C1447.55,972.885 1447.24,973.824 1447.24,975.072C1447.24,976.283 1447.54,977.211 1448.14,977.859C1448.74,978.506 1449.51,978.83 1450.44,978.83C1450.88,978.83 1451.29,978.748 1451.68,978.583C1451.3,978.333 1450.89,978.155 1450.46,978.049L1450.76,977.154Z" style="fill:rgb(252,252,252);fill-rule:nonzero;"/>
            <path d="M1456.11,976.735L1457.27,976.634C1457.33,977.099 1457.46,977.481 1457.66,977.78C1457.86,978.078 1458.17,978.319 1458.59,978.503C1459.02,978.687 1459.49,978.779 1460.02,978.779C1460.49,978.779 1460.91,978.709 1461.27,978.57C1461.63,978.43 1461.89,978.239 1462.07,977.995C1462.24,977.752 1462.33,977.486 1462.33,977.199C1462.33,976.907 1462.25,976.652 1462.08,976.434C1461.91,976.216 1461.63,976.033 1461.24,975.885C1460.99,975.787 1460.44,975.636 1459.58,975.431C1458.73,975.226 1458.13,975.032 1457.79,974.85C1457.34,974.617 1457.01,974.329 1456.79,973.984C1456.58,973.639 1456.47,973.253 1456.47,972.825C1456.47,972.355 1456.6,971.916 1456.87,971.508C1457.13,971.1 1457.52,970.79 1458.04,970.578C1458.55,970.367 1459.12,970.261 1459.74,970.261C1460.43,970.261 1461.04,970.372 1461.57,970.594C1462.09,970.816 1462.5,971.143 1462.78,971.575C1463.07,972.006 1463.22,972.495 1463.24,973.041L1462.06,973.13C1462,972.542 1461.78,972.097 1461.41,971.797C1461.05,971.496 1460.51,971.346 1459.79,971.346C1459.05,971.346 1458.51,971.483 1458.16,971.756C1457.82,972.029 1457.65,972.358 1457.65,972.743C1457.65,973.077 1457.78,973.352 1458.02,973.568C1458.25,973.784 1458.87,974.005 1459.87,974.231C1460.87,974.458 1461.56,974.655 1461.93,974.825C1462.47,975.074 1462.87,975.391 1463.13,975.774C1463.39,976.157 1463.52,976.598 1463.52,977.097C1463.52,977.592 1463.38,978.059 1463.09,978.497C1462.81,978.935 1462.4,979.275 1461.87,979.519C1461.34,979.762 1460.74,979.884 1460.08,979.884C1459.24,979.884 1458.53,979.761 1457.96,979.516C1457.39,979.27 1456.95,978.901 1456.62,978.408C1456.3,977.915 1456.13,977.357 1456.11,976.735Z" style="fill:rgb(252,252,252);fill-rule:nonzero;"/>
            <path d="M1464.78,976.735L1465.94,976.634C1466,977.099 1466.13,977.481 1466.33,977.78C1466.53,978.078 1466.84,978.319 1467.26,978.503C1467.69,978.687 1468.16,978.779 1468.69,978.779C1469.16,978.779 1469.58,978.709 1469.94,978.57C1470.3,978.43 1470.56,978.239 1470.74,977.995C1470.91,977.752 1471,977.486 1471,977.199C1471,976.907 1470.92,976.652 1470.75,976.434C1470.58,976.216 1470.3,976.033 1469.91,975.885C1469.66,975.787 1469.11,975.636 1468.26,975.431C1467.4,975.226 1466.8,975.032 1466.46,974.85C1466.01,974.617 1465.68,974.329 1465.46,973.984C1465.25,973.639 1465.14,973.253 1465.14,972.825C1465.14,972.355 1465.27,971.916 1465.54,971.508C1465.8,971.1 1466.19,970.79 1466.71,970.578C1467.22,970.367 1467.79,970.261 1468.41,970.261C1469.1,970.261 1469.71,970.372 1470.24,970.594C1470.77,970.816 1471.17,971.143 1471.45,971.575C1471.74,972.006 1471.89,972.495 1471.91,973.041L1470.73,973.13C1470.67,972.542 1470.45,972.097 1470.09,971.797C1469.72,971.496 1469.18,971.346 1468.46,971.346C1467.72,971.346 1467.18,971.483 1466.84,971.756C1466.5,972.029 1466.33,972.358 1466.33,972.743C1466.33,973.077 1466.45,973.352 1466.69,973.568C1466.92,973.784 1467.54,974.005 1468.54,974.231C1469.54,974.458 1470.23,974.655 1470.6,974.825C1471.14,975.074 1471.55,975.391 1471.8,975.774C1472.06,976.157 1472.19,976.598 1472.19,977.097C1472.19,977.592 1472.05,978.059 1471.77,978.497C1471.48,978.935 1471.07,979.275 1470.54,979.519C1470.01,979.762 1469.41,979.884 1468.75,979.884C1467.91,979.884 1467.2,979.761 1466.63,979.516C1466.06,979.27 1465.62,978.901 1465.29,978.408C1464.97,977.915 1464.8,977.357 1464.78,976.735Z" style="fill:rgb(252,252,252);fill-rule:nonzero;"/>
        </g>
    </g>
</svg>
