<?xml version="1.0" encoding="UTF-8" standalone="no"?>
<!DOCTYPE svg PUBLIC "-//W3C//DTD SVG 1.1//EN" "http://www.w3.org/Graphics/SVG/1.1/DTD/svg11.dtd">
<svg width="100%" height="100%" viewBox="0 0 1280 1150" version="1.1" xmlns="http://www.w3.org/2000/svg" xmlns:xlink="http://www.w3.org/1999/xlink" xml:space="preserve" style="fill-rule:evenodd;clip-rule:evenodd;stroke-linecap:round;stroke-linejoin:round;stroke-miterlimit:1.41421;">
    <g id="Antenne">
        <path d="M596.842,146.048C598.148,134.335 629.626,134.428 631.468,146.048C631.468,146.048 632.361,305.275 631.468,454.318C630.385,635.257 637.612,655.762 637.612,708.667L591.006,708.667C591.098,673.43 595.064,566.875 594.763,454.318C594.366,305.649 596.488,148.735 596.842,146.048" style="fill:rgb(70,70,78);stroke-width:0.45px;stroke:rgb(53,52,58);"/>
        <path d="M596.842,146.048C598.148,134.335 629.626,134.428 631.468,146.048C632.004,150.27 630.686,154.042 628.26,158.546C625.819,163.078 623.038,167.23 619.462,170.845C615.315,175.037 613.301,175.612 608.833,170.845C605.538,167.329 602.57,163.212 599.901,158.546C597.855,154.669 596.51,150.594 596.842,146.048" style="fill:rgb(81,81,88);stroke-width:0.45px;stroke:rgb(53,52,58);"/>
        <path d="M619.462,666.208L619.462,170.845C615.315,175.037 613.301,175.612 608.833,170.845L608.833,666.208C605.066,681.947 599.707,696.525 591.006,708.667L591.006,764.895L637.612,764.895L637.612,708.667C627.142,695.172 622.264,680.844 619.462,666.208Z" style="fill:rgb(53,52,58);stroke-width:0.45px;stroke:rgb(53,52,58);"/>
    </g>
    <g id="Antenne1" transform="matrix(1,0,0,1,301.844,1.97283)">
        <path d="M596.842,146.048C598.148,134.335 629.626,134.428 631.468,146.048C631.468,146.048 632.361,305.275 631.468,454.318C630.385,635.257 637.612,655.762 637.612,708.667L591.006,708.667C591.098,673.43 595.064,566.875 594.763,454.318C594.366,305.649 596.488,148.735 596.842,146.048" style="fill:rgb(70,70,78);stroke-width:0.45px;stroke:rgb(53,52,58);"/>
        <path d="M596.842,146.048C598.148,134.335 629.626,134.428 631.468,146.048C632.004,150.27 630.686,154.042 628.26,158.546C625.819,163.078 623.038,167.23 619.462,170.845C615.315,175.037 613.301,175.612 608.833,170.845C605.538,167.329 602.57,163.212 599.901,158.546C597.855,154.669 596.51,150.594 596.842,146.048" style="fill:rgb(81,81,88);stroke-width:0.45px;stroke:rgb(53,52,58);"/>
        <path d="M619.462,666.208L619.462,170.845C615.315,175.037 613.301,175.612 608.833,170.845L608.833,666.208C605.066,681.947 599.707,696.525 591.006,708.667L591.006,764.895L637.612,764.895L637.612,708.667C627.142,695.172 622.264,680.844 619.462,666.208Z" style="fill:rgb(53,52,58);stroke-width:0.45px;stroke:rgb(53,52,58);"/>
    </g>
    <g id="Antenne2" transform="matrix(1,0,0,1,-300.491,-3.67987)">
        <path d="M596.842,146.048C598.148,134.335 629.626,134.428 631.468,146.048C631.468,146.048 632.361,305.275 631.468,454.318C630.385,635.257 637.612,655.762 637.612,708.667L591.006,708.667C591.098,673.43 595.064,566.875 594.763,454.318C594.366,305.649 596.488,148.735 596.842,146.048" style="fill:rgb(70,70,78);stroke-width:0.45px;stroke:rgb(53,52,58);"/>
        <path d="M596.842,146.048C598.148,134.335 629.626,134.428 631.468,146.048C632.004,150.27 630.686,154.042 628.26,158.546C625.819,163.078 623.038,167.23 619.462,170.845C615.315,175.037 613.301,175.612 608.833,170.845C605.538,167.329 602.57,163.212 599.901,158.546C597.855,154.669 596.51,150.594 596.842,146.048" style="fill:rgb(81,81,88);stroke-width:0.45px;stroke:rgb(53,52,58);"/>
        <path d="M619.462,666.208L619.462,170.845C615.315,175.037 613.301,175.612 608.833,170.845L608.833,666.208C605.066,681.947 599.707,696.525 591.006,708.667L591.006,764.895L637.612,764.895L637.612,708.667C627.142,695.172 622.264,680.844 619.462,666.208Z" style="fill:rgb(53,52,58);stroke-width:0.45px;stroke:rgb(53,52,58);"/>
    </g>
    <g id="gehäuse">
        <path d="M167.854,986.506C135.67,974.253 100.838,966.525 72.744,953.354L1165.52,953.354C1136.85,965.904 1105.6,974.143 1074.26,986.506C1057.06,992.508 1040.16,1000.07 1022.47,1006.94C997.148,1016.77 982.088,1018.47 950.8,1021.02C950.8,1021.02 897.29,1025.37 871.243,1024.95L382.687,1024.95C348.609,1024.95 317.545,1023.3 285.522,1021.02C254.031,1018.77 242.446,1017.85 215.396,1006.94C198.833,1000.26 186.083,992.985 167.854,986.506Z" style="fill:rgb(37,36,42);stroke-width:2px;stroke:black;"/>
        <g id="rillen">
            <path d="M1098.16,977.188C922.741,1009.09 323.926,1011.4 137.535,975.84L154.608,981.488C326.219,1017.54 968.265,1012.54 1086.59,981.488L1098.16,977.188Z" style="fill:black;stroke-width:0.35px;stroke:black;"/>
            <path d="M1063.49,991.005C888.071,1015.11 367.198,1018.85 180.809,991.005L192.262,996.404C364.793,1023.66 931.601,1019.41 1049.08,996.404L1063.49,991.005Z" style="fill:black;stroke-width:0.35px;stroke:black;"/>
            <path d="M1032.87,1002.58C857.603,1023.68 388.53,1025.71 201.978,1000.92L221.795,1009.32C394.243,1031.8 899.115,1028.01 1016.67,1009.32L1032.87,1002.58Z" style="fill:black;stroke-width:0.35px;stroke:black;"/>
        </g>
        <path d="M218.811,743.704C479.599,757.197 748.605,758.917 1029.43,743.704C1056.08,742.26 1082.96,750.615 1104.62,769.5C1138.38,798.948 1173.01,832.802 1194.9,872.523C1212.69,904.783 1217.8,930.316 1165.52,953.354C1123.6,971.829 1074.66,977.117 1022.44,981.108C746.347,1002.21 479.232,1001.86 218.811,981.108C159.1,976.349 101.243,967.601 72.744,953.354C60.354,947.16 17.167,926.55 40.691,878.526C57.893,843.408 92.042,803.205 126.441,769.5C142.809,753.462 171.482,741.255 218.811,743.704Z" style="fill:black;stroke-width:1px;stroke:black;"/>
        <g id="deckel">
            <path d="M129.285,769.5L1102.13,769.5C1135.89,798.948 1165.6,832.802 1187.5,872.523C1199.45,900.106 1194.27,915.526 1165.52,929.3C1124.21,949.096 1074.66,955.889 1022.44,959.88C746.347,980.977 479.232,980.634 218.811,959.88C159.1,955.121 100.819,944.516 72.744,929.3C47.006,915.35 41.274,892.269 51.049,872.523C68.484,837.304 94.886,803.205 129.285,769.5Z" style="fill:rgb(37,36,42);stroke-width:1px;stroke:black;"/>
            <path d="M129.285,769.5L1102.13,769.5C1135.89,798.948 1165.03,832.802 1186.93,872.523C1199.09,900.605 1188.43,915.925 1165.52,926.903C1124.21,946.699 1074.66,953.064 1022.44,957.054C746.347,978.152 479.232,977.809 218.811,957.054C159.1,952.296 100.819,942.119 72.744,926.903C49.68,914.403 43.076,889.35 51.406,872.523C68.841,837.304 94.886,803.205 129.285,769.5Z" style="fill:black;stroke-width:1px;stroke:black;"/>
            <path d="M218.811,743.704C479.599,757.197 748.605,758.917 1029.43,743.704C1056.08,742.26 1080.48,750.615 1102.13,769.5C1135.89,798.948 1164.56,832.802 1186.46,872.523C1196.35,895.374 1188.56,912.725 1165.52,923.762C1124.21,943.558 1074.66,950.415 1022.44,954.406C746.347,975.504 479.232,975.16 218.811,954.406C159.1,949.648 100.819,938.978 72.744,923.762C50.89,911.918 44.957,887.601 52.421,872.523C69.856,837.304 94.886,803.205 129.285,769.5C145.654,753.462 171.482,741.255 218.811,743.704Z" style="fill:rgb(37,36,42);stroke-width:1px;stroke:black;"/>
        </g>
    </g>
    <path d="M376.298,919.206C372.854,919.155 369.911,919.877 369.196,922.056L366.093,931.517C365.187,934.276 367.042,937.297 371.643,937.458C536.994,943.254 702.358,944.196 867.741,937.458C873.116,937.239 877.199,935.909 875.011,931.517L870.3,922.056C869.401,920.251 867.115,919.164 864.597,919.206C701.822,921.923 539.057,921.621 376.298,919.206Z" style="fill:rgb(50,50,50);stroke-width:2px;stroke:black;"/>
    <path d="M376.298,923.288C372.854,923.237 368.802,923.345 368.088,925.524L366.093,931.517C365.187,934.276 367.042,937.297 371.643,937.458C536.994,943.254 702.358,944.196 867.741,937.458C873.116,937.239 877.199,935.909 875.011,931.517L872.037,925.524C871.138,923.719 867.115,923.246 864.597,923.288C701.822,926.005 539.057,925.703 376.298,923.288Z" style="fill:black;stroke-width:2px;stroke:black;"/>
    <g id="led">
        <g id="power">
            <path d="M449.307,928.937C447.618,930.257 447.618,931.692 449.307,933.241C450.051,933.585 450.817,933.63 451.616,933.241C453.238,931.885 453.378,930.159 451.616,928.937" style="fill:none;stroke-width:0.8px;stroke:rgb(29,69,118);"/>
            <path d="M450.474,927.897L450.474,930.887" style="fill:none;stroke-width:0.8px;stroke:rgb(29,69,118);"/>
        </g>
        <g id="wifi">
            <path d="M487.491,930.588C490.694,928.177 494.017,928.101 497.474,930.588" style="fill:none;stroke-width:0.8px;stroke:rgb(29,69,118);"/>
            <path d="M489.333,932.256C491.494,930.349 493.656,930.465 495.819,932.256" style="fill:none;stroke-width:0.8px;stroke:rgb(29,69,118);"/>
            <path d="M491.11,933.817C491.97,932.724 492.963,932.724 494.088,933.817" style="fill:none;stroke-width:0.8px;stroke:rgb(29,69,118);"/>
        </g>
        <g transform="matrix(0.236085,0,0,0.236085,385.951,697.172)">
            <g transform="matrix(1.80806,0,0,1.50113,-511.81,-500.416)">
                <path d="M626.349,996.053L623.073,996.053L623.073,985.75L641.216,985.75L641.216,996.053L638.183,996.053" style="fill:none;stroke-width:2.04px;stroke:rgb(29,69,118);"/>
            </g>
            <g transform="matrix(1.80806,0,0,1.50113,-511.81,-500.416)">
                <path d="M626.295,1003.22L637.337,1003.22L632.352,1003.22L632.352,995.421" style="fill:none;stroke-width:2.04px;stroke:rgb(29,69,118);"/>
            </g>
        </g>
        <g transform="matrix(0.236085,0,0,0.236085,428.534,697.749)">
            <g transform="matrix(1.80806,0,0,1.50113,-511.81,-500.416)">
                <path d="M626.349,996.053L623.073,996.053L623.073,985.75L641.216,985.75L641.216,996.053L638.183,996.053" style="fill:none;stroke-width:2.04px;stroke:rgb(29,69,118);"/>
            </g>
            <g transform="matrix(1.80806,0,0,1.50113,-511.81,-500.416)">
                <path d="M626.295,1003.22L637.337,1003.22L632.352,1003.22L632.352,995.421" style="fill:none;stroke-width:2.04px;stroke:rgb(29,69,118);"/>
            </g>
        </g>
        <g transform="matrix(0.236085,0,0,0.236085,471.219,697.749)">
            <g transform="matrix(1.80806,0,0,1.50113,-511.81,-500.416)">
                <path d="M626.349,996.053L623.073,996.053L623.073,985.75L641.216,985.75L641.216,996.053L638.183,996.053" style="fill:none;stroke-width:2.04px;stroke:rgb(29,69,118);"/>
            </g>
            <g transform="matrix(1.80806,0,0,1.50113,-511.81,-500.416)">
                <path d="M626.295,1003.22L637.337,1003.22L632.352,1003.22L632.352,995.421" style="fill:none;stroke-width:2.04px;stroke:rgb(29,69,118);"/>
            </g>
        </g>
        <g transform="matrix(0.236085,0,0,0.236085,514.187,697.172)">
            <g transform="matrix(1.80806,0,0,1.50113,-511.81,-500.416)">
                <path d="M626.349,996.053L623.073,996.053L623.073,985.75L641.216,985.75L641.216,996.053L638.183,996.053" style="fill:none;stroke-width:2.04px;stroke:rgb(29,69,118);"/>
            </g>
            <g transform="matrix(1.80806,0,0,1.50113,-511.81,-500.416)">
                <path d="M626.295,1003.22L637.337,1003.22L632.352,1003.22L632.352,995.421" style="fill:none;stroke-width:2.04px;stroke:rgb(29,69,118);"/>
            </g>
        </g>
        <g id="online" transform="matrix(1,0,0,1,-1.96128,-0.437469)">
            <g transform="matrix(1.22584,0,0,1.4098,-160.001,-382.217)">
                <ellipse cx="707.774" cy="932.627" rx="2.55" ry="2.233" style="fill:none;stroke-width:0.34px;stroke:rgb(29,69,118);"/>
            </g>
            <g transform="matrix(0.824163,-0.566353,0.566353,0.824163,-401.85,565.255)">
                <ellipse cx="706.345" cy="928.899" rx="3.246" ry="0.936" style="fill:none;stroke-width:0.45px;stroke:rgb(29,69,118);"/>
            </g>
        </g>
        <g id="lock" transform="matrix(1,0,0,1,-0.729494,-0.768633)">
            <rect x="745.656" y="931.239" width="5.543" height="3.743" style="fill:rgb(29,69,118);stroke-width:0.45px;stroke:rgb(29,69,118);"/>
            <circle cx="748.534" cy="931.094" r="1.982" style="fill:none;stroke-width:0.45px;stroke:rgb(29,69,118);"/>
        </g>
    </g>
</svg>
