<?xml version="1.0" standalone="no"?>
<!DOCTYPE svg PUBLIC "-//W3C//DTD SVG 1.1//EN" "http://www.w3.org/Graphics/SVG/1.1/DTD/svg11.dtd">
<svg width="100%" height="100%" viewBox="0 0 1280 1150" version="1.1" xmlns="http://www.w3.org/2000/svg" xmlns:xlink="http://www.w3.org/1999/xlink" xml:space="preserve" style="fill-rule:evenodd;clip-rule:evenodd;stroke-linecap:round;stroke-linejoin:round;stroke-miterlimit:1.41421;">
    <g id="Ebene2">
        <g id="drunter" transform="matrix(-0.720338,4.0811e-16,-3.6433e-16,-0.643063,1144.39,1522.16)">
            <path d="M103.846,834.306L103.846,829.36L114.756,822.625L1211.53,822.625L1222.82,829.36L1222.82,834.306L103.846,834.306Z" style="fill:rgb(216,218,217);stroke-width:0.73px;stroke:black;"/>
            <path d="M103.842,829.36L1222.75,829.36" style="fill:rgb(216,218,217);stroke-width:0.73px;stroke:black;"/>
        </g>
        <g id="Boden" transform="matrix(-1.00645,5.70209e-16,-5.66554e-16,-1,1330.24,1808.28)">
            <path d="M103.846,834.306L103.846,829.36L114.756,822.625L1211.53,822.625L1222.82,829.36L1222.82,834.306L103.846,834.306Z" style="fill:rgb(216,218,217);stroke-width:0.5px;stroke:black;"/>
            <path d="M103.842,829.36L1222.75,829.36" style="fill:rgb(216,218,217);stroke-width:0.5px;stroke:black;"/>
        </g>
        <g id="standgummis">
            <path d="M177.751,985.947L177.751,993.432C177.676,995.655 178.866,996.692 181.105,996.747L240.337,996.747C242.813,996.858 244.149,995.831 244.109,993.432L244.109,985.947L177.751,985.947Z" style="fill:black;stroke-width:1px;stroke:black;"/>
            <g transform="matrix(1,-2.44929e-16,2.44929e-16,1,905.912,5.16626e-14)">
                <path d="M177.751,985.947L177.751,993.432C177.676,995.655 178.866,996.692 181.105,996.747L240.337,996.747C242.813,996.858 244.149,995.831 244.109,993.432L244.109,985.947L177.751,985.947Z" style="fill:black;stroke-width:1px;stroke:black;"/>
            </g>
        </g>
        <g id="Deckel">
            <path d="M103.846,834.306L103.846,829.36L114.756,822.625L1211.53,822.625L1222.82,829.36L1222.82,834.306L103.846,834.306Z" style="fill:rgb(216,218,217);stroke-width:0.5px;stroke-linecap:butt;stroke:black;"/>
            <path d="M103.842,829.36L1222.75,829.36" style="fill:rgb(216,218,217);stroke-width:0.5px;stroke:black;"/>
        </g>
        <rect x="88.185" y="841.627" width="1150.03" height="123.932" style="fill:rgb(51,51,51);stroke-width:0.5px;stroke:black;"/>
        <g id="Mittelrippen">
            <g id="Rippe">
                <g transform="matrix(0.934201,0,0,0.945756,5.38543,46.5774)">
                    <path d="M1325.87,861.927C1325.87,860.123 1324.39,858.66 1322.56,858.66L85.153,858.66C83.328,858.66 81.846,860.123 81.846,861.927L81.846,869.691C81.846,871.494 83.328,872.958 85.153,872.958L1322.56,872.958C1324.39,872.958 1325.87,871.494 1325.87,869.691L1325.87,861.927Z" style="fill:rgb(77,77,77);stroke-width:0.53px;stroke:black;"/>
                </g>
                <g transform="matrix(11.5618,0,0,2.93472,-864.167,-1666.66)">
                    <rect x="81.823" y="861.451" width="100.514" height="2.756" style="fill:rgb(51,51,51);stroke-width:0.06px;stroke:black;"/>
                </g>
            </g>
            <g id="Rippe1" transform="matrix(1,0,0,1,0,25.9614)">
                <g transform="matrix(0.934201,0,0,0.945756,5.38543,46.5774)">
                    <path d="M1325.87,861.927C1325.87,860.123 1324.39,858.66 1322.56,858.66L85.153,858.66C83.328,858.66 81.846,860.123 81.846,861.927L81.846,869.691C81.846,871.494 83.328,872.958 85.153,872.958L1322.56,872.958C1324.39,872.958 1325.87,871.494 1325.87,869.691L1325.87,861.927Z" style="fill:rgb(77,77,77);stroke-width:0.53px;stroke:black;"/>
                </g>
                <g transform="matrix(11.5618,0,0,2.93472,-864.167,-1666.66)">
                    <rect x="81.823" y="861.451" width="100.514" height="2.756" style="fill:rgb(51,51,51);stroke-width:0.06px;stroke:black;"/>
                </g>
            </g>
            <g id="Rippe2" transform="matrix(1,0,0,1,0,51.1811)">
                <g transform="matrix(0.934201,0,0,0.945756,5.38543,46.5774)">
                    <path d="M1325.87,861.927C1325.87,860.123 1324.39,858.66 1322.56,858.66L85.153,858.66C83.328,858.66 81.846,860.123 81.846,861.927L81.846,869.691C81.846,871.494 83.328,872.958 85.153,872.958L1322.56,872.958C1324.39,872.958 1325.87,871.494 1325.87,869.691L1325.87,861.927Z" style="fill:rgb(77,77,77);stroke-width:0.53px;stroke:black;"/>
                </g>
                <g transform="matrix(11.5618,0,0,2.93472,-864.167,-1666.66)">
                    <rect x="81.823" y="861.451" width="100.514" height="2.756" style="fill:rgb(51,51,51);stroke-width:0.06px;stroke:black;"/>
                </g>
            </g>
            <g id="Rippe3" transform="matrix(1,0,0,1,0,76.4851)">
                <g transform="matrix(0.934201,0,0,0.945756,5.38543,46.5774)">
                    <path d="M1325.87,861.927C1325.87,860.123 1324.39,858.66 1322.56,858.66L85.153,858.66C83.328,858.66 81.846,860.123 81.846,861.927L81.846,869.691C81.846,871.494 83.328,872.958 85.153,872.958L1322.56,872.958C1324.39,872.958 1325.87,871.494 1325.87,869.691L1325.87,861.927Z" style="fill:rgb(77,77,77);stroke-width:0.53px;stroke:black;"/>
                </g>
                <g transform="matrix(11.5618,0,0,2.93472,-864.167,-1666.66)">
                    <rect x="81.823" y="861.451" width="100.514" height="2.756" style="fill:rgb(51,51,51);stroke-width:0.06px;stroke:black;"/>
                </g>
            </g>
            <g id="Rippe4" transform="matrix(1,0,0,1,0,-24.1256)">
                <g transform="matrix(0.934201,0,0,0.945756,5.38543,46.5774)">
                    <path d="M1325.87,861.927C1325.87,860.123 1324.39,858.66 1322.56,858.66L85.153,858.66C83.328,858.66 81.846,860.123 81.846,861.927L81.846,869.691C81.846,871.494 83.328,872.958 85.153,872.958L1322.56,872.958C1324.39,872.958 1325.87,871.494 1325.87,869.691L1325.87,861.927Z" style="fill:rgb(77,77,77);stroke-width:0.53px;stroke:black;"/>
                </g>
                <g transform="matrix(11.5618,0,0,2.93472,-864.167,-1666.66)">
                    <rect x="81.823" y="861.451" width="100.514" height="2.756" style="fill:rgb(51,51,51);stroke-width:0.06px;stroke:black;"/>
                </g>
            </g>
            <g id="Rippe5" transform="matrix(1,0,0,1,0,101.804)">
                <g transform="matrix(0.934201,0,0,0.945756,5.38543,46.5774)">
                    <path d="M1325.87,861.927C1325.87,860.123 1324.39,858.66 1322.56,858.66L85.153,858.66C83.328,858.66 81.846,860.123 81.846,861.927L81.846,869.691C81.846,871.494 83.328,872.958 85.153,872.958L1322.56,872.958C1324.39,872.958 1325.87,871.494 1325.87,869.691L1325.87,861.927Z" style="fill:rgb(77,77,77);stroke-width:0.53px;stroke:black;"/>
                </g>
                <g transform="matrix(11.5618,0,0,2.93472,-864.167,-1666.66)">
                    <rect x="81.823" y="861.451" width="100.514" height="2.756" style="fill:rgb(51,51,51);stroke-width:0.06px;stroke:black;"/>
                </g>
            </g>
        </g>
        <rect id="Blende" x="263.294" y="845.061" width="800.976" height="117.543" style="fill:rgb(52,59,79);stroke-width:0.5px;stroke:black;"/>
    </g>
    <g id="Antennen 1043">
        <g id="new Antenne 1043" transform="matrix(1.26803,0,0,1.26803,-209.245,6.92844)">
            <path d="M652.036,619.119L703.126,619.119L700.344,526.551L655.39,526.551L652.036,619.119Z" style="fill:rgb(49,49,49);stroke-width:0.39px;stroke-linecap:butt;stroke:black;"/>
            <rect x="665.084" y="199.138" width="27.899" height="28.754" style="fill:rgb(49,49,49);stroke-width:0.39px;stroke-linecap:butt;stroke:black;"/>
            <path d="M649.084,733.319L650.988,616.958C669.108,618.552 687.221,618.824 705.323,616.958L708.576,733.319C708.675,736.851 707.533,740.021 703.908,740.021L654.293,740.021C651.034,740.021 649.022,737.092 649.084,733.319Z" style="fill:rgb(51,51,51);stroke-width:0.39px;stroke-linecap:butt;stroke:black;"/>
            <g transform="matrix(0.909618,0,0,0.788626,86.9669,-5.46395)">
                <path d="M618.082,936.798L683.33,936.798" style="fill:none;stroke-width:0.46px;stroke:black;"/>
            </g>
            <path d="M650.848,597.162L650.848,612.298C668.997,614.545 687.229,614.718 705.566,612.298L705.566,597.162C687.342,599.115 669.101,598.905 650.848,597.162Z" style="fill:rgb(49,49,49);stroke-width:0.39px;stroke-linecap:butt;stroke:black;"/>
            <path d="M663.141,341.639L694.434,341.639L694.434,223.461L663.746,223.461L663.141,341.639Z" style="fill:rgb(49,49,49);stroke-width:0.39px;stroke-linecap:butt;stroke:black;"/>
            <path d="M651.347,593.426C669.264,594.991 687.044,594.958 704.694,593.426L703.132,552.011C686.546,553.968 669.625,553.864 652.419,552.011L651.347,593.426Z" style="fill:rgb(49,49,49);stroke-width:0.39px;stroke-linecap:butt;stroke:black;"/>
            <path d="M653.079,547.908C669.797,549.558 686.475,549.685 703.103,547.908L702.503,533.319C686.288,534.981 669.99,534.936 653.614,533.319L653.079,547.908Z" style="fill:rgb(49,49,49);stroke-width:0.39px;stroke-linecap:butt;stroke:black;"/>
            <path d="M653.614,529.948C669.993,531.254 686.296,531.355 702.503,529.948L697.191,338.329C685.178,340.346 673.138,340.435 661.07,338.329L653.614,529.948Z" style="fill:rgb(49,49,49);stroke-width:0.39px;stroke-linecap:butt;stroke:black;"/>
            <rect x="663.746" y="205.104" width="30.688" height="14.659" style="fill:rgb(49,49,49);stroke-width:0.39px;stroke-linecap:butt;stroke:black;"/>
            <path d="M663.687,200.966L694.443,200.966L694.443,144.136C688.239,128.631 671.247,128.6 663.687,144.136L663.687,200.966Z" style="fill:rgb(49,49,49);stroke-width:0.39px;stroke-linecap:butt;stroke:black;"/>
        </g>
        <g id="new Antenne 10431" transform="matrix(1.26803,0,0,1.26803,248.216,6.92844)">
            <path d="M652.036,619.119L703.126,619.119L700.344,526.551L655.39,526.551L652.036,619.119Z" style="fill:rgb(49,49,49);stroke-width:0.39px;stroke-linecap:butt;stroke:black;"/>
            <rect x="665.084" y="199.138" width="27.899" height="28.754" style="fill:rgb(49,49,49);stroke-width:0.39px;stroke-linecap:butt;stroke:black;"/>
            <path d="M649.084,733.319L650.988,616.958C669.108,618.552 687.221,618.824 705.323,616.958L708.576,733.319C708.675,736.851 707.533,740.021 703.908,740.021L654.293,740.021C651.034,740.021 649.022,737.092 649.084,733.319Z" style="fill:rgb(51,51,51);stroke-width:0.39px;stroke-linecap:butt;stroke:black;"/>
            <g transform="matrix(0.909618,0,0,0.788626,86.9669,-5.46395)">
                <path d="M618.082,936.798L683.33,936.798" style="fill:none;stroke-width:0.46px;stroke:black;"/>
            </g>
            <path d="M650.848,597.162L650.848,612.298C668.997,614.545 687.229,614.718 705.566,612.298L705.566,597.162C687.342,599.115 669.101,598.905 650.848,597.162Z" style="fill:rgb(49,49,49);stroke-width:0.39px;stroke-linecap:butt;stroke:black;"/>
            <path d="M663.141,341.639L694.434,341.639L694.434,223.461L663.746,223.461L663.141,341.639Z" style="fill:rgb(49,49,49);stroke-width:0.39px;stroke-linecap:butt;stroke:black;"/>
            <path d="M651.347,593.426C669.264,594.991 687.044,594.958 704.694,593.426L703.132,552.011C686.546,553.968 669.625,553.864 652.419,552.011L651.347,593.426Z" style="fill:rgb(49,49,49);stroke-width:0.39px;stroke-linecap:butt;stroke:black;"/>
            <path d="M653.079,547.908C669.797,549.558 686.475,549.685 703.103,547.908L702.503,533.319C686.288,534.981 669.99,534.936 653.614,533.319L653.079,547.908Z" style="fill:rgb(49,49,49);stroke-width:0.39px;stroke-linecap:butt;stroke:black;"/>
            <path d="M653.614,529.948C669.993,531.254 686.296,531.355 702.503,529.948L697.191,338.329C685.178,340.346 673.138,340.435 661.07,338.329L653.614,529.948Z" style="fill:rgb(49,49,49);stroke-width:0.39px;stroke-linecap:butt;stroke:black;"/>
            <rect x="663.746" y="205.104" width="30.688" height="14.659" style="fill:rgb(49,49,49);stroke-width:0.39px;stroke-linecap:butt;stroke:black;"/>
            <path d="M663.687,200.966L694.443,200.966L694.443,144.136C688.239,128.631 671.247,128.6 663.687,144.136L663.687,200.966Z" style="fill:rgb(49,49,49);stroke-width:0.39px;stroke-linecap:butt;stroke:black;"/>
        </g>
        <g id="new Antenne 10432" transform="matrix(1.26803,0,0,1.26803,-644.355,6.92844)">
            <path d="M652.036,619.119L703.126,619.119L700.344,526.551L655.39,526.551L652.036,619.119Z" style="fill:rgb(49,49,49);stroke-width:0.39px;stroke-linecap:butt;stroke:black;"/>
            <rect x="665.084" y="199.138" width="27.899" height="28.754" style="fill:rgb(49,49,49);stroke-width:0.39px;stroke-linecap:butt;stroke:black;"/>
            <path d="M649.084,733.319L650.988,616.958C669.108,618.552 687.221,618.824 705.323,616.958L708.576,733.319C708.675,736.851 707.533,740.021 703.908,740.021L654.293,740.021C651.034,740.021 649.022,737.092 649.084,733.319Z" style="fill:rgb(51,51,51);stroke-width:0.39px;stroke-linecap:butt;stroke:black;"/>
            <g transform="matrix(0.909618,0,0,0.788626,86.9669,-5.46395)">
                <path d="M618.082,936.798L683.33,936.798" style="fill:none;stroke-width:0.46px;stroke:black;"/>
            </g>
            <path d="M650.848,597.162L650.848,612.298C668.997,614.545 687.229,614.718 705.566,612.298L705.566,597.162C687.342,599.115 669.101,598.905 650.848,597.162Z" style="fill:rgb(49,49,49);stroke-width:0.39px;stroke-linecap:butt;stroke:black;"/>
            <path d="M663.141,341.639L694.434,341.639L694.434,223.461L663.746,223.461L663.141,341.639Z" style="fill:rgb(49,49,49);stroke-width:0.39px;stroke-linecap:butt;stroke:black;"/>
            <path d="M651.347,593.426C669.264,594.991 687.044,594.958 704.694,593.426L703.132,552.011C686.546,553.968 669.625,553.864 652.419,552.011L651.347,593.426Z" style="fill:rgb(49,49,49);stroke-width:0.39px;stroke-linecap:butt;stroke:black;"/>
            <path d="M653.079,547.908C669.797,549.558 686.475,549.685 703.103,547.908L702.503,533.319C686.288,534.981 669.99,534.936 653.614,533.319L653.079,547.908Z" style="fill:rgb(49,49,49);stroke-width:0.39px;stroke-linecap:butt;stroke:black;"/>
            <path d="M653.614,529.948C669.993,531.254 686.296,531.355 702.503,529.948L697.191,338.329C685.178,340.346 673.138,340.435 661.07,338.329L653.614,529.948Z" style="fill:rgb(49,49,49);stroke-width:0.39px;stroke-linecap:butt;stroke:black;"/>
            <rect x="663.746" y="205.104" width="30.688" height="14.659" style="fill:rgb(49,49,49);stroke-width:0.39px;stroke-linecap:butt;stroke:black;"/>
            <path d="M663.687,200.966L694.443,200.966L694.443,144.136C688.239,128.631 671.247,128.6 663.687,144.136L663.687,200.966Z" style="fill:rgb(49,49,49);stroke-width:0.39px;stroke-linecap:butt;stroke:black;"/>
        </g>
    </g>
    <g id="WAN" transform="matrix(-1,3.67394e-16,-3.67394e-16,-1,1243.04,1892.02)">
        <path d="M430.126,958.534L520.049,958.534L520.049,1035.48L430.126,1035.48L430.126,958.534" style="fill:rgb(0,158,224);stroke-width:1px;stroke:black;"/>
        <path d="M463.538,961.757L487.377,961.757L487.377,969.841L494.601,969.841L494.601,977.802L508.571,977.802L508.571,989.68L513.332,989.68L513.332,1005.6L508.571,1005.6L508.571,1018.27L440.482,1018.27L440.482,1005.6L437.015,1005.6L437.015,989.68L440.482,989.68L440.482,977.802L455.182,977.802L455.182,969.841L463.538,969.841L463.538,961.757" style="fill:rgb(166,229,255);stroke-width:1px;stroke:black;"/>
        <rect x="436.816" y="989.68" width="9.385" height="15.92" style="fill:black;stroke-width:1px;stroke:black;"/>
        <g transform="matrix(1,0,0,1,67.0669,-0.0235958)">
            <rect x="436.816" y="989.68" width="9.385" height="15.92" style="fill:black;stroke-width:1px;stroke:black;"/>
        </g>
        <path d="M450.462,1000.22L450.462,1012.69" style="fill:none;stroke-width:1px;stroke:black;"/>
        <g transform="matrix(1,0,0,1,5.18811,0.142889)">
            <path d="M450.462,1000.22L450.462,1012.69" style="fill:none;stroke-width:1px;stroke:black;"/>
        </g>
        <g transform="matrix(1,0,0,1,10.8216,0.142889)">
            <path d="M450.462,1000.22L450.462,1012.69" style="fill:none;stroke-width:1px;stroke:black;"/>
        </g>
        <g transform="matrix(1,0,0,1,22.0044,0.291919)">
            <path d="M450.462,1000.07L450.462,1012.69" style="fill:none;stroke-width:1px;stroke:black;"/>
        </g>
        <g transform="matrix(1,0,0,1,27.0496,0.291919)">
            <path d="M450.462,1000.05L450.462,1012.69" style="fill:none;stroke-width:1px;stroke:black;"/>
        </g>
        <g transform="matrix(1,0,0,1,49.4509,0.192566)">
            <path d="M450.462,1000.16L450.462,1012.69" style="fill:none;stroke-width:1px;stroke:black;"/>
        </g>
        <path d="M466.922,1000.38L466.922,1018.21" style="fill:none;stroke-width:1px;stroke:black;"/>
        <g transform="matrix(1,0,0,1,16.0399,-0.0558162)">
            <path d="M466.922,1000.41L466.922,1018.27" style="fill:none;stroke-width:1px;stroke:black;"/>
        </g>
        <g transform="matrix(1,0,0,1,21.7443,-0.154611)">
            <path d="M466.922,1000.5L466.922,1018.4" style="fill:none;stroke-width:1px;stroke:black;"/>
        </g>
        <g transform="matrix(1,0,0,1,27.6257,-0.353316)">
            <path d="M466.922,1000.67L466.922,1018.4" style="fill:none;stroke-width:1px;stroke:black;"/>
        </g>
    </g>
    <g id="lan4" transform="matrix(-1,1.22465e-16,-1.22465e-16,-1,1130.04,1892.09)">
        <g transform="matrix(3.73365,0,0,1,-1085.67,-0.000264784)">
            <path d="M430.126,958.534L520.049,958.534L520.049,1035.48L430.126,1035.48L430.126,958.534" style="fill:rgb(255,180,0);stroke-width:0.37px;stroke:black;"/>
        </g>
        <g transform="matrix(1,0,0,1,93.3029,-0.747357)">
            <path d="M463.538,961.757L487.377,961.757L487.377,969.841L494.601,969.841L494.601,977.802L508.571,977.802L508.571,989.68L513.332,989.68L513.332,1005.6L508.571,1005.6L508.571,1018.27L440.482,1018.27L440.482,1005.6L437.015,1005.6L437.015,989.68L440.482,989.68L440.482,977.802L455.182,977.802L455.182,969.841L463.538,969.841L463.538,961.757" style="fill:rgb(255,225,153);stroke-width:1px;stroke:black;"/>
        </g>
        <g transform="matrix(1,0,0,1,172.876,-0.661805)">
            <path d="M463.538,961.757L487.377,961.757L487.377,969.841L494.601,969.841L494.601,977.802L508.571,977.802L508.571,989.68L513.332,989.68L513.332,1005.6L508.571,1005.6L508.571,1018.27L440.482,1018.27L440.482,1005.6L437.015,1005.6L437.015,989.68L440.482,989.68L440.482,977.802L455.182,977.802L455.182,969.841L463.538,969.841L463.538,961.757" style="fill:rgb(255,225,153);stroke-width:1px;stroke:black;"/>
        </g>
        <g transform="matrix(1,0,0,1,252.488,-0.755912)">
            <path d="M463.538,961.757L487.377,961.757L487.377,969.841L494.601,969.841L494.601,977.802L508.571,977.802L508.571,989.68L513.332,989.68L513.332,1005.6L508.571,1005.6L508.571,1018.27L440.482,1018.27L440.482,1005.6L437.015,1005.6L437.015,989.68L440.482,989.68L440.482,977.802L455.182,977.802L455.182,969.841L463.538,969.841L463.538,961.757" style="fill:rgb(255,225,153);stroke-width:1px;stroke:black;"/>
        </g>
        <g transform="matrix(1,0,0,1,332.053,-0.509522)">
            <path d="M463.538,961.757L487.377,961.757L487.377,969.841L494.601,969.841L494.601,977.802L508.571,977.802L508.571,989.68L513.332,989.68L513.332,1005.6L508.571,1005.6L508.571,1018.27L440.482,1018.27L440.482,1005.6L437.015,1005.6L437.015,989.68L440.482,989.68L440.482,977.802L455.182,977.802L455.182,969.841L463.538,969.841L463.538,961.757" style="fill:rgb(255,225,153);stroke-width:1px;stroke:black;"/>
        </g>
        <g transform="matrix(1,0,0,1,93.3029,-0.747357)">
            <rect x="436.816" y="989.68" width="9.385" height="15.92" style="fill:black;stroke-width:1px;stroke:black;"/>
        </g>
        <g transform="matrix(1,0,0,1,172.876,-0.661805)">
            <rect x="436.816" y="989.68" width="9.385" height="15.92" style="fill:black;stroke-width:1px;stroke:black;"/>
        </g>
        <g transform="matrix(1,0,0,1,252.488,-0.755912)">
            <rect x="436.816" y="989.68" width="9.385" height="15.92" style="fill:black;stroke-width:1px;stroke:black;"/>
        </g>
        <g transform="matrix(1,0,0,1,332.053,-0.509522)">
            <rect x="436.816" y="989.68" width="9.385" height="15.92" style="fill:black;stroke-width:1px;stroke:black;"/>
        </g>
        <g transform="matrix(1,0,0,1,160.37,-0.770952)">
            <rect x="436.816" y="989.68" width="9.385" height="15.92" style="fill:black;stroke-width:1px;stroke:black;"/>
        </g>
        <g transform="matrix(1,0,0,1,239.942,-0.685401)">
            <rect x="436.816" y="989.68" width="9.385" height="15.92" style="fill:black;stroke-width:1px;stroke:black;"/>
        </g>
        <g transform="matrix(1,0,0,1,319.555,-0.779508)">
            <rect x="436.816" y="989.68" width="9.385" height="15.92" style="fill:black;stroke-width:1px;stroke:black;"/>
        </g>
        <g transform="matrix(1,0,0,1,399.12,-0.533118)">
            <rect x="436.816" y="989.68" width="9.385" height="15.92" style="fill:black;stroke-width:1px;stroke:black;"/>
        </g>
        <g transform="matrix(1,0,0,1,93.3029,-0.747357)">
            <path d="M450.462,1000.22L450.462,1012.69" style="fill:none;stroke-width:1px;stroke:black;"/>
        </g>
        <g transform="matrix(1,0,0,1,172.876,-0.661805)">
            <path d="M450.462,1000.22L450.462,1012.69" style="fill:none;stroke-width:1px;stroke:black;"/>
        </g>
        <g transform="matrix(1,0,0,1,252.488,-0.755912)">
            <path d="M450.462,1000.22L450.462,1012.69" style="fill:none;stroke-width:1px;stroke:black;"/>
        </g>
        <g transform="matrix(1,0,0,1,332.053,-0.509522)">
            <path d="M450.462,1000.22L450.462,1012.69" style="fill:none;stroke-width:1px;stroke:black;"/>
        </g>
        <g transform="matrix(1,0,0,1,98.491,-0.604467)">
            <path d="M450.462,1000.22L450.462,1012.69" style="fill:none;stroke-width:1px;stroke:black;"/>
        </g>
        <g transform="matrix(1,0,0,1,178.064,-0.518915)">
            <path d="M450.462,1000.22L450.462,1012.69" style="fill:none;stroke-width:1px;stroke:black;"/>
        </g>
        <g transform="matrix(1,0,0,1,257.676,-0.613022)">
            <path d="M450.462,1000.22L450.462,1012.69" style="fill:none;stroke-width:1px;stroke:black;"/>
        </g>
        <g transform="matrix(1,0,0,1,337.242,-0.366633)">
            <path d="M450.462,1000.22L450.462,1012.69" style="fill:none;stroke-width:1px;stroke:black;"/>
        </g>
        <g transform="matrix(1,0,0,1,104.125,-0.604467)">
            <path d="M450.462,1000.22L450.462,1012.69" style="fill:none;stroke-width:1px;stroke:black;"/>
        </g>
        <g transform="matrix(1,0,0,1,183.697,-0.518915)">
            <path d="M450.462,1000.22L450.462,1012.69" style="fill:none;stroke-width:1px;stroke:black;"/>
        </g>
        <g transform="matrix(1,0,0,1,263.309,-0.613022)">
            <path d="M450.462,1000.22L450.462,1012.69" style="fill:none;stroke-width:1px;stroke:black;"/>
        </g>
        <g transform="matrix(1,0,0,1,342.875,-0.366633)">
            <path d="M450.462,1000.22L450.462,1012.69" style="fill:none;stroke-width:1px;stroke:black;"/>
        </g>
        <g transform="matrix(1,0,0,1,115.307,-0.455438)">
            <path d="M450.462,1000.07L450.462,1012.69" style="fill:none;stroke-width:1px;stroke:black;"/>
        </g>
        <g transform="matrix(1,0,0,1,194.88,-0.369886)">
            <path d="M450.462,1000.07L450.462,1012.69" style="fill:none;stroke-width:1px;stroke:black;"/>
        </g>
        <g transform="matrix(1,0,0,1,274.492,-0.463993)">
            <path d="M450.462,1000.07L450.462,1012.69" style="fill:none;stroke-width:1px;stroke:black;"/>
        </g>
        <g transform="matrix(1,0,0,1,354.058,-0.217604)">
            <path d="M450.462,1000.07L450.462,1012.69" style="fill:none;stroke-width:1px;stroke:black;"/>
        </g>
        <g transform="matrix(1,0,0,1,120.353,-0.455438)">
            <path d="M450.462,1000.05L450.462,1012.69" style="fill:none;stroke-width:1px;stroke:black;"/>
        </g>
        <g transform="matrix(1,0,0,1,199.925,-0.369886)">
            <path d="M450.462,1000.05L450.462,1012.69" style="fill:none;stroke-width:1px;stroke:black;"/>
        </g>
        <g transform="matrix(1,0,0,1,279.537,-0.463993)">
            <path d="M450.462,1000.05L450.462,1012.69" style="fill:none;stroke-width:1px;stroke:black;"/>
        </g>
        <g transform="matrix(1,0,0,1,359.103,-0.217604)">
            <path d="M450.462,1000.05L450.462,1012.69" style="fill:none;stroke-width:1px;stroke:black;"/>
        </g>
        <g transform="matrix(1,0,0,1,142.754,-0.554791)">
            <path d="M450.462,1000.16L450.462,1012.69" style="fill:none;stroke-width:1px;stroke:black;"/>
        </g>
        <g transform="matrix(1,0,0,1,222.326,-0.469239)">
            <path d="M450.462,1000.16L450.462,1012.69" style="fill:none;stroke-width:1px;stroke:black;"/>
        </g>
        <g transform="matrix(1,0,0,1,301.939,-0.563346)">
            <path d="M450.462,1000.16L450.462,1012.69" style="fill:none;stroke-width:1px;stroke:black;"/>
        </g>
        <g transform="matrix(1,0,0,1,381.504,-0.316957)">
            <path d="M450.462,1000.16L450.462,1012.69" style="fill:none;stroke-width:1px;stroke:black;"/>
        </g>
        <g transform="matrix(1,0,0,1,93.3029,-0.747357)">
            <path d="M466.922,1000.38L466.922,1018.21" style="fill:none;stroke-width:1px;stroke:black;"/>
        </g>
        <g transform="matrix(1,0,0,1,172.876,-0.661805)">
            <path d="M466.922,1000.38L466.922,1018.21" style="fill:none;stroke-width:1px;stroke:black;"/>
        </g>
        <g transform="matrix(1,0,0,1,252.488,-0.755912)">
            <path d="M466.922,1000.38L466.922,1018.21" style="fill:none;stroke-width:1px;stroke:black;"/>
        </g>
        <g transform="matrix(1,0,0,1,332.053,-0.509522)">
            <path d="M466.922,1000.38L466.922,1018.21" style="fill:none;stroke-width:1px;stroke:black;"/>
        </g>
        <g transform="matrix(1,0,0,1,109.343,-0.803173)">
            <path d="M466.922,1000.41L466.922,1018.27" style="fill:none;stroke-width:1px;stroke:black;"/>
        </g>
        <g transform="matrix(1,0,0,1,188.915,-0.717621)">
            <path d="M466.922,1000.41L466.922,1018.27" style="fill:none;stroke-width:1px;stroke:black;"/>
        </g>
        <g transform="matrix(1,0,0,1,268.528,-0.811728)">
            <path d="M466.922,1000.41L466.922,1018.27" style="fill:none;stroke-width:1px;stroke:black;"/>
        </g>
        <g transform="matrix(1,0,0,1,348.093,-0.565338)">
            <path d="M466.922,1000.41L466.922,1018.27" style="fill:none;stroke-width:1px;stroke:black;"/>
        </g>
        <g transform="matrix(1,0,0,1,115.047,-0.901967)">
            <path d="M466.922,1000.5L466.922,1018.4" style="fill:none;stroke-width:1px;stroke:black;"/>
        </g>
        <g transform="matrix(1,0,0,1,194.62,-0.816415)">
            <path d="M466.922,1000.5L466.922,1018.4" style="fill:none;stroke-width:1px;stroke:black;"/>
        </g>
        <g transform="matrix(1,0,0,1,274.232,-0.910523)">
            <path d="M466.922,1000.5L466.922,1018.4" style="fill:none;stroke-width:1px;stroke:black;"/>
        </g>
        <g transform="matrix(1,0,0,1,353.798,-0.664133)">
            <path d="M466.922,1000.5L466.922,1018.4" style="fill:none;stroke-width:1px;stroke:black;"/>
        </g>
        <g transform="matrix(1,0,0,1,120.929,-1.10067)">
            <path d="M466.922,1000.67L466.922,1018.4" style="fill:none;stroke-width:1px;stroke:black;"/>
        </g>
        <g transform="matrix(1,0,0,1,200.501,-1.01512)">
            <path d="M466.922,1000.67L466.922,1018.4" style="fill:none;stroke-width:1px;stroke:black;"/>
        </g>
        <g transform="matrix(1,0,0,1,280.113,-1.10923)">
            <path d="M466.922,1000.67L466.922,1018.4" style="fill:none;stroke-width:1px;stroke:black;"/>
        </g>
        <g transform="matrix(1,0,0,1,359.679,-0.862839)">
            <path d="M466.922,1000.67L466.922,1018.4" style="fill:none;stroke-width:1px;stroke:black;"/>
        </g>
    </g>
    <g id="ON/off" transform="matrix(1.53695,0,0,1.53695,441.936,-631.738)">
        <g transform="matrix(1,0,0,1,-0.627516,0.355553)">
            <ellipse cx="321.797" cy="999.854" rx="16.795" ry="16.434" style="fill:rgb(72,72,74);stroke-width:0.65px;stroke:black;"/>
        </g>
        <g transform="matrix(0.766109,0,0,0.766109,74.7377,234.386)">
            <ellipse cx="321.797" cy="999.854" rx="16.795" ry="16.434" style="fill:rgb(72,72,74);stroke-width:1.7px;stroke:black;"/>
        </g>
        <g transform="matrix(1,0,0,1,-0.0942289,0.933291)">
            <path d="M321.381,992.932L321.381,1006" style="fill:none;stroke-width:2.28px;stroke:black;"/>
        </g>
    </g>
    <g id="Power" transform="matrix(1,0,0,1,634.445,-99.7661)">
        <rect x="360.529" y="973.018" width="50.745" height="61.322" style="fill:rgb(72,72,74);stroke-width:3.5px;stroke:black;"/>
        <g transform="matrix(1,0,0,1,-0.754159,0.503051)">
            <ellipse cx="387.025" cy="998.035" rx="16.88" ry="17.207" style="fill:rgb(72,72,74);stroke-width:1px;stroke:black;"/>
        </g>
        <ellipse cx="386.992" cy="998.717" rx="8.879" ry="8.391" style="fill:rgb(99,100,102);stroke-width:1px;stroke:black;"/>
        <g transform="matrix(1,0,0,1,-0.111324,-0.214278)">
            <ellipse cx="387.249" cy="998.987" rx="5.203" ry="5.065" style="fill:rgb(216,217,218);stroke-width:3px;stroke:rgb(58,57,59);"/>
        </g>
        <path d="M378.699,1011.21L394.491,1011.21L394.491,1012.99L392.11,1014.15L380.447,1014.15L378.699,1013.38L378.699,1011.21Z" style="fill:rgb(47,45,46);stroke-width:0.1px;stroke:rgb(35,31,32);"/>
    </g>
    <g transform="matrix(1,0,0,1,-24.9276,-98.2019)">
        <g id="reset">
            <ellipse cx="882.113" cy="1013.72" rx="10.926" ry="10.594" style="fill:rgb(91,92,94);stroke-width:3.5px;stroke:rgb(35,31,32);"/>
        </g>
    </g>
    <g transform="matrix(0.89,0,0,1,-496.611,-26.4605)">
        <path d="M924.745,979.725L924.745,976.983L919.776,976.983L919.776,975.694L925.003,968.272L926.151,968.272L926.151,975.694L927.698,975.694L927.698,976.983L926.151,976.983L926.151,979.725L924.745,979.725ZM924.745,975.694L924.745,970.53L921.159,975.694L924.745,975.694Z" style="fill:rgb(216,218,217);fill-rule:nonzero;"/>
        <path d="M1005.59,976.702L1007,976.514C1007.16,977.311 1007.43,977.885 1007.82,978.237C1008.21,978.588 1008.68,978.764 1009.24,978.764C1009.9,978.764 1010.46,978.535 1010.91,978.077C1011.37,977.618 1011.6,977.051 1011.6,976.374C1011.6,975.728 1011.39,975.195 1010.96,974.776C1010.54,974.357 1010.01,974.147 1009.36,974.147C1009.09,974.147 1008.76,974.199 1008.36,974.303L1008.52,973.069C1008.61,973.079 1008.69,973.084 1008.75,973.084C1009.34,973.084 1009.88,972.928 1010.36,972.616C1010.84,972.303 1011.08,971.821 1011.08,971.17C1011.08,970.655 1010.91,970.228 1010.56,969.889C1010.21,969.551 1009.76,969.381 1009.21,969.381C1008.66,969.381 1008.2,969.553 1007.84,969.897C1007.48,970.241 1007.24,970.756 1007.14,971.444L1005.73,971.194C1005.9,970.251 1006.29,969.521 1006.9,969.002C1007.51,968.484 1008.27,968.225 1009.18,968.225C1009.8,968.225 1010.38,968.359 1010.9,968.627C1011.43,968.896 1011.83,969.262 1012.11,969.725C1012.39,970.189 1012.53,970.681 1012.53,971.202C1012.53,971.696 1012.39,972.147 1012.13,972.553C1011.86,972.959 1011.47,973.282 1010.95,973.522C1011.63,973.678 1012.15,974.002 1012.53,974.495C1012.9,974.987 1013.09,975.603 1013.09,976.342C1013.09,977.342 1012.73,978.19 1012,978.885C1011.27,979.581 1010.34,979.928 1009.23,979.928C1008.23,979.928 1007.39,979.629 1006.73,979.03C1006.06,978.431 1005.68,977.655 1005.59,976.702Z" style="fill:rgb(216,218,217);fill-rule:nonzero;"/>
        <path d="M1102.76,978.374L1102.76,979.725L1095.19,979.725C1095.18,979.387 1095.24,979.061 1095.36,978.749C1095.55,978.233 1095.86,977.725 1096.28,977.225C1096.7,976.725 1097.32,976.147 1098.12,975.491C1099.37,974.47 1100.21,973.661 1100.64,973.065C1101.08,972.469 1101.3,971.905 1101.3,971.374C1101.3,970.816 1101.1,970.346 1100.7,969.963C1100.3,969.581 1099.79,969.389 1099.14,969.389C1098.47,969.389 1097.92,969.592 1097.52,969.999C1097.11,970.405 1096.91,970.967 1096.9,971.686L1095.46,971.538C1095.56,970.459 1095.93,969.638 1096.57,969.073C1097.22,968.508 1098.09,968.225 1099.17,968.225C1100.27,968.225 1101.14,968.53 1101.79,969.139C1102.42,969.749 1102.75,970.504 1102.75,971.405C1102.75,971.863 1102.65,972.314 1102.46,972.756C1102.28,973.199 1101.97,973.665 1101.53,974.155C1101.1,974.644 1100.37,975.316 1099.36,976.17C1098.52,976.879 1097.98,977.359 1097.74,977.612C1097.5,977.864 1097.3,978.118 1097.14,978.374L1102.76,978.374Z" style="fill:rgb(216,218,217);fill-rule:nonzero;"/>
        <path d="M1190.46,979.725L1189.05,979.725L1189.05,970.764C1188.71,971.087 1188.27,971.41 1187.72,971.733C1187.17,972.056 1186.68,972.298 1186.24,972.459L1186.24,971.1C1187.03,970.73 1187.71,970.282 1188.3,969.756C1188.89,969.23 1189.31,968.72 1189.55,968.225L1190.46,968.225L1190.46,979.725Z" style="fill:rgb(216,218,217);fill-rule:nonzero;"/>
        <path d="M1408.2,979.725L1405.16,968.272L1406.72,968.272L1408.46,975.78C1408.65,976.566 1408.81,977.347 1408.94,978.124C1409.24,976.9 1409.41,976.194 1409.46,976.006L1411.64,968.272L1413.47,968.272L1415.11,974.069C1415.52,975.506 1415.82,976.858 1416,978.124C1416.14,977.4 1416.33,976.569 1416.57,975.631L1418.37,968.272L1419.89,968.272L1416.75,979.725L1415.29,979.725L1412.87,970.999C1412.67,970.269 1412.55,969.821 1412.51,969.655C1412.39,970.181 1412.28,970.629 1412.18,970.999L1409.75,979.725L1408.2,979.725Z" style="fill:rgb(216,218,217);fill-rule:nonzero;"/>
        <path d="M1419.38,979.725L1423.78,968.272L1425.41,968.272L1430.1,979.725L1428.37,979.725L1427.03,976.256L1422.24,976.256L1420.99,979.725L1419.38,979.725ZM1422.68,975.022L1426.57,975.022L1425.37,971.85C1425.01,970.887 1424.73,970.095 1424.56,969.475C1424.41,970.209 1424.2,970.939 1423.94,971.663L1422.68,975.022Z" style="fill:rgb(216,218,217);fill-rule:nonzero;"/>
        <path d="M1431.29,979.725L1431.29,968.272L1432.85,968.272L1438.86,977.264L1438.86,968.272L1440.32,968.272L1440.32,979.725L1438.76,979.725L1432.74,970.725L1432.74,979.725L1431.29,979.725Z" style="fill:rgb(216,218,217);fill-rule:nonzero;"/>
        <path d="M1479.77,979.725L1476.73,968.272L1478.28,968.272L1480.03,975.78C1480.21,976.566 1480.37,977.347 1480.51,978.124C1480.8,976.9 1480.97,976.194 1481.03,976.006L1483.2,968.272L1485.03,968.272L1486.67,974.069C1487.09,975.506 1487.38,976.858 1487.56,978.124C1487.71,977.4 1487.9,976.569 1488.13,975.631L1489.93,968.272L1491.45,968.272L1488.31,979.725L1486.85,979.725L1484.44,970.999C1484.24,970.269 1484.12,969.821 1484.08,969.655C1483.96,970.181 1483.85,970.629 1483.74,970.999L1481.31,979.725L1479.77,979.725Z" style="fill:rgb(216,218,217);fill-rule:nonzero;"/>
        <path d="M1492.87,979.725L1492.87,968.272L1497.19,968.272C1497.95,968.272 1498.53,968.308 1498.93,968.381C1499.49,968.475 1499.96,968.653 1500.35,968.916C1500.73,969.18 1501.03,969.548 1501.26,970.022C1501.5,970.496 1501.61,971.017 1501.61,971.584C1501.61,972.558 1501.3,973.383 1500.68,974.057C1500.06,974.732 1498.94,975.069 1497.32,975.069L1494.38,975.069L1494.38,979.725L1492.87,979.725ZM1494.38,973.717L1497.35,973.717C1498.33,973.717 1499.02,973.535 1499.43,973.17C1499.84,972.806 1500.05,972.293 1500.05,971.631C1500.05,971.152 1499.93,970.742 1499.68,970.401C1499.44,970.06 1499.12,969.834 1498.73,969.725C1498.47,969.657 1498,969.624 1497.31,969.624L1494.38,969.624L1494.38,973.717Z" style="fill:rgb(216,218,217);fill-rule:nonzero;"/>
        <path d="M1503.03,976.045L1504.45,975.92C1504.52,976.493 1504.68,976.963 1504.93,977.331C1505.17,977.698 1505.56,977.995 1506.08,978.221C1506.6,978.448 1507.19,978.561 1507.84,978.561C1508.42,978.561 1508.93,978.475 1509.37,978.303C1509.81,978.131 1510.14,977.896 1510.36,977.596C1510.57,977.297 1510.68,976.97 1510.68,976.616C1510.68,976.256 1510.58,975.943 1510.37,975.674C1510.16,975.406 1509.82,975.181 1509.34,974.999C1509.03,974.879 1508.35,974.693 1507.3,974.44C1506.25,974.187 1505.51,973.949 1505.09,973.725C1504.54,973.439 1504.13,973.083 1503.87,972.659C1503.6,972.234 1503.46,971.759 1503.46,971.233C1503.46,970.655 1503.63,970.114 1503.95,969.612C1504.28,969.109 1504.76,968.728 1505.39,968.467C1506.02,968.207 1506.72,968.077 1507.49,968.077C1508.34,968.077 1509.09,968.213 1509.74,968.487C1510.39,968.76 1510.89,969.163 1511.24,969.694C1511.59,970.225 1511.77,970.827 1511.8,971.499L1510.35,971.608C1510.27,970.884 1510,970.337 1509.55,969.967C1509.1,969.597 1508.44,969.413 1507.56,969.413C1506.64,969.413 1505.97,969.581 1505.55,969.916C1505.13,970.252 1504.92,970.657 1504.92,971.131C1504.92,971.543 1505.07,971.881 1505.37,972.147C1505.66,972.413 1506.42,972.685 1507.65,972.963C1508.89,973.242 1509.73,973.486 1510.19,973.694C1510.86,974.001 1511.35,974.39 1511.67,974.862C1511.98,975.333 1512.14,975.876 1512.14,976.491C1512.14,977.1 1511.97,977.674 1511.62,978.213C1511.27,978.752 1510.77,979.172 1510.12,979.471C1509.46,979.771 1508.73,979.92 1507.91,979.92C1506.87,979.92 1506,979.769 1505.3,979.467C1504.6,979.165 1504.05,978.711 1503.65,978.104C1503.26,977.497 1503.05,976.811 1503.03,976.045Z" style="fill:rgb(216,218,217);fill-rule:nonzero;"/>
        <path d="M1512.98,979.92L1516.3,968.077L1517.42,968.077L1514.11,979.92L1512.98,979.92Z" style="fill:rgb(216,218,217);fill-rule:nonzero;"/>
        <path d="M1518.68,979.725L1518.68,968.272L1523.76,968.272C1524.78,968.272 1525.56,968.375 1526.09,968.581C1526.62,968.786 1527.04,969.15 1527.36,969.67C1527.68,970.191 1527.84,970.767 1527.84,971.397C1527.84,972.209 1527.58,972.894 1527.05,973.452C1526.52,974.009 1525.71,974.363 1524.61,974.514C1525.01,974.707 1525.32,974.897 1525.53,975.084C1525.97,975.491 1526.39,975.999 1526.78,976.608L1528.78,979.725L1526.87,979.725L1525.35,977.342C1524.91,976.655 1524.55,976.129 1524.26,975.764C1523.97,975.4 1523.72,975.144 1523.49,974.999C1523.26,974.853 1523.03,974.751 1522.8,974.694C1522.63,974.657 1522.35,974.639 1521.95,974.639L1520.2,974.639L1520.2,979.725L1518.68,979.725ZM1520.2,973.327L1523.45,973.327C1524.15,973.327 1524.69,973.255 1525.08,973.112C1525.47,972.969 1525.77,972.739 1525.97,972.424C1526.17,972.109 1526.28,971.767 1526.28,971.397C1526.28,970.855 1526.08,970.41 1525.68,970.061C1525.29,969.712 1524.67,969.538 1523.82,969.538L1520.2,969.538L1520.2,973.327Z" style="fill:rgb(216,218,217);fill-rule:nonzero;"/>
        <path d="M1530.24,979.725L1530.24,968.272L1538.53,968.272L1538.53,969.624L1531.76,969.624L1531.76,973.131L1538.1,973.131L1538.1,974.475L1531.76,974.475L1531.76,978.374L1538.79,978.374L1538.79,979.725L1530.24,979.725Z" style="fill:rgb(216,218,217);fill-rule:nonzero;"/>
        <path d="M1540.37,976.045L1541.8,975.92C1541.87,976.493 1542.02,976.963 1542.27,977.331C1542.52,977.698 1542.9,977.995 1543.42,978.221C1543.94,978.448 1544.53,978.561 1545.18,978.561C1545.76,978.561 1546.27,978.475 1546.71,978.303C1547.15,978.131 1547.49,977.896 1547.7,977.596C1547.92,977.297 1548.03,976.97 1548.03,976.616C1548.03,976.256 1547.92,975.943 1547.71,975.674C1547.5,975.406 1547.16,975.181 1546.68,974.999C1546.37,974.879 1545.69,974.693 1544.64,974.44C1543.59,974.187 1542.85,973.949 1542.43,973.725C1541.88,973.439 1541.48,973.083 1541.21,972.659C1540.94,972.234 1540.81,971.759 1540.81,971.233C1540.81,970.655 1540.97,970.114 1541.3,969.612C1541.63,969.109 1542.11,968.728 1542.74,968.467C1543.37,968.207 1544.07,968.077 1544.84,968.077C1545.69,968.077 1546.43,968.213 1547.08,968.487C1547.73,968.76 1548.23,969.163 1548.58,969.694C1548.93,970.225 1549.12,970.827 1549.14,971.499L1547.69,971.608C1547.61,970.884 1547.35,970.337 1546.9,969.967C1546.45,969.597 1545.78,969.413 1544.9,969.413C1543.98,969.413 1543.32,969.581 1542.9,969.916C1542.48,970.252 1542.27,970.657 1542.27,971.131C1542.27,971.543 1542.42,971.881 1542.71,972.147C1543,972.413 1543.77,972.685 1545,972.963C1546.23,973.242 1547.08,973.486 1547.53,973.694C1548.2,974.001 1548.69,974.39 1549.01,974.862C1549.33,975.333 1549.49,975.876 1549.49,976.491C1549.49,977.1 1549.31,977.674 1548.96,978.213C1548.61,978.752 1548.11,979.172 1547.46,979.471C1546.81,979.771 1546.07,979.92 1545.25,979.92C1544.22,979.92 1543.35,979.769 1542.65,979.467C1541.95,979.165 1541.4,978.711 1541,978.104C1540.6,977.497 1540.39,976.811 1540.37,976.045Z" style="fill:rgb(216,218,217);fill-rule:nonzero;"/>
        <path d="M1551.59,979.725L1551.59,968.272L1559.87,968.272L1559.87,969.624L1553.1,969.624L1553.1,973.131L1559.44,973.131L1559.44,974.475L1553.1,974.475L1553.1,978.374L1560.13,978.374L1560.13,979.725L1551.59,979.725Z" style="fill:rgb(216,218,217);fill-rule:nonzero;"/>
        <path d="M1565.14,979.725L1565.14,969.624L1561.37,969.624L1561.37,968.272L1570.45,968.272L1570.45,969.624L1566.66,969.624L1566.66,979.725L1565.14,979.725Z" style="fill:rgb(216,218,217);fill-rule:nonzero;"/>
        <path d="M1584.55,974.147C1584.55,972.246 1585.06,970.758 1586.08,969.682C1587.1,968.607 1588.42,968.069 1590.04,968.069C1591.09,968.069 1592.05,968.321 1592.9,968.827C1593.75,969.332 1594.39,970.036 1594.84,970.94C1595.28,971.844 1595.51,972.868 1595.51,974.014C1595.51,975.176 1595.27,976.215 1594.8,977.131C1594.33,978.048 1593.67,978.742 1592.81,979.213C1591.95,979.685 1591.02,979.92 1590.03,979.92C1588.95,979.92 1587.99,979.66 1587.14,979.139C1586.29,978.618 1585.65,977.907 1585.21,977.006C1584.77,976.105 1584.55,975.152 1584.55,974.147ZM1586.11,974.17C1586.11,975.551 1586.49,976.638 1587.23,977.432C1587.97,978.226 1588.9,978.624 1590.02,978.624C1591.16,978.624 1592.1,978.222 1592.84,977.42C1593.57,976.618 1593.94,975.48 1593.94,974.006C1593.94,973.074 1593.79,972.26 1593.47,971.565C1593.15,970.87 1592.69,970.331 1592.09,969.948C1591.48,969.565 1590.8,969.374 1590.04,969.374C1588.97,969.374 1588.05,969.742 1587.28,970.479C1586.5,971.216 1586.11,972.446 1586.11,974.17Z" style="fill:rgb(216,218,217);fill-rule:nonzero;"/>
        <path d="M1597.44,979.725L1597.44,968.272L1599,968.272L1605.01,977.264L1605.01,968.272L1606.47,968.272L1606.47,979.725L1604.91,979.725L1598.9,970.725L1598.9,979.725L1597.44,979.725Z" style="fill:rgb(216,218,217);fill-rule:nonzero;"/>
        <path d="M1607.78,979.92L1611.1,968.077L1612.22,968.077L1608.91,979.92L1607.78,979.92Z" style="fill:rgb(216,218,217);fill-rule:nonzero;"/>
        <path d="M1613,974.147C1613,972.246 1613.51,970.758 1614.53,969.682C1615.55,968.607 1616.87,968.069 1618.48,968.069C1619.54,968.069 1620.49,968.321 1621.34,968.827C1622.19,969.332 1622.84,970.036 1623.28,970.94C1623.73,971.844 1623.95,972.868 1623.95,974.014C1623.95,975.176 1623.72,976.215 1623.25,977.131C1622.78,978.048 1622.11,978.742 1621.26,979.213C1620.4,979.685 1619.47,979.92 1618.47,979.92C1617.4,979.92 1616.43,979.66 1615.58,979.139C1614.73,978.618 1614.09,977.907 1613.65,977.006C1613.22,976.105 1613,975.152 1613,974.147ZM1614.56,974.17C1614.56,975.551 1614.93,976.638 1615.67,977.432C1616.41,978.226 1617.35,978.624 1618.47,978.624C1619.61,978.624 1620.55,978.222 1621.28,977.42C1622.02,976.618 1622.39,975.48 1622.39,974.006C1622.39,973.074 1622.23,972.26 1621.91,971.565C1621.6,970.87 1621.14,970.331 1620.53,969.948C1619.93,969.565 1619.25,969.374 1618.49,969.374C1617.42,969.374 1616.49,969.742 1615.72,970.479C1614.95,971.216 1614.56,972.446 1614.56,974.17Z" style="fill:rgb(216,218,217);fill-rule:nonzero;"/>
        <path d="M1625.98,979.725L1625.98,968.272L1633.71,968.272L1633.71,969.624L1627.5,969.624L1627.5,973.17L1632.87,973.17L1632.87,974.522L1627.5,974.522L1627.5,979.725L1625.98,979.725Z" style="fill:rgb(216,218,217);fill-rule:nonzero;"/>
        <path d="M1635.76,979.725L1635.76,968.272L1643.48,968.272L1643.48,969.624L1637.27,969.624L1637.27,973.17L1642.65,973.17L1642.65,974.522L1637.27,974.522L1637.27,979.725L1635.76,979.725Z" style="fill:rgb(216,218,217);fill-rule:nonzero;"/>
        <path d="M1675.57,979.725L1675.57,968.272L1679.89,968.272C1680.65,968.272 1681.23,968.308 1681.63,968.381C1682.19,968.475 1682.67,968.653 1683.05,968.916C1683.43,969.18 1683.73,969.548 1683.96,970.022C1684.19,970.496 1684.31,971.017 1684.31,971.584C1684.31,972.558 1684,973.383 1683.38,974.057C1682.76,974.732 1681.64,975.069 1680.02,975.069L1677.09,975.069L1677.09,979.725L1675.57,979.725ZM1677.09,973.717L1680.05,973.717C1681.03,973.717 1681.72,973.535 1682.13,973.17C1682.54,972.806 1682.75,972.293 1682.75,971.631C1682.75,971.152 1682.63,970.742 1682.39,970.401C1682.14,970.06 1681.82,969.834 1681.43,969.725C1681.17,969.657 1680.7,969.624 1680.01,969.624L1677.09,969.624L1677.09,973.717Z" style="fill:rgb(216,218,217);fill-rule:nonzero;"/>
        <path d="M1685.78,974.147C1685.78,972.246 1686.29,970.758 1687.31,969.682C1688.33,968.607 1689.65,968.069 1691.26,968.069C1692.32,968.069 1693.28,968.321 1694.12,968.827C1694.97,969.332 1695.62,970.036 1696.07,970.94C1696.51,971.844 1696.73,972.868 1696.73,974.014C1696.73,975.176 1696.5,976.215 1696.03,977.131C1695.56,978.048 1694.9,978.742 1694.04,979.213C1693.18,979.685 1692.25,979.92 1691.26,979.92C1690.18,979.92 1689.22,979.66 1688.37,979.139C1687.52,978.618 1686.87,977.907 1686.44,977.006C1686,976.105 1685.78,975.152 1685.78,974.147ZM1687.34,974.17C1687.34,975.551 1687.71,976.638 1688.46,977.432C1689.2,978.226 1690.13,978.624 1691.25,978.624C1692.39,978.624 1693.33,978.222 1694.07,977.42C1694.8,976.618 1695.17,975.48 1695.17,974.006C1695.17,973.074 1695.01,972.26 1694.7,971.565C1694.38,970.87 1693.92,970.331 1693.32,969.948C1692.71,969.565 1692.03,969.374 1691.27,969.374C1690.2,969.374 1689.28,969.742 1688.5,970.479C1687.73,971.216 1687.34,972.446 1687.34,974.17Z" style="fill:rgb(216,218,217);fill-rule:nonzero;"/>
        <path d="M1700.69,979.725L1697.65,968.272L1699.2,968.272L1700.94,975.78C1701.13,976.566 1701.29,977.347 1701.43,978.124C1701.72,976.9 1701.89,976.194 1701.94,976.006L1704.12,968.272L1705.95,968.272L1707.59,974.069C1708,975.506 1708.3,976.858 1708.48,978.124C1708.63,977.4 1708.82,976.569 1709.05,975.631L1710.85,968.272L1712.37,968.272L1709.23,979.725L1707.77,979.725L1705.36,970.999C1705.15,970.269 1705.04,969.821 1705,969.655C1704.88,970.181 1704.77,970.629 1704.66,970.999L1702.23,979.725L1700.69,979.725Z" style="fill:rgb(216,218,217);fill-rule:nonzero;"/>
        <path d="M1713.82,979.725L1713.82,968.272L1722.1,968.272L1722.1,969.624L1715.34,969.624L1715.34,973.131L1721.67,973.131L1721.67,974.475L1715.34,974.475L1715.34,978.374L1722.37,978.374L1722.37,979.725L1713.82,979.725Z" style="fill:rgb(216,218,217);fill-rule:nonzero;"/>
        <path d="M1724.48,979.725L1724.48,968.272L1729.56,968.272C1730.58,968.272 1731.36,968.375 1731.89,968.581C1732.42,968.786 1732.85,969.15 1733.16,969.67C1733.48,970.191 1733.64,970.767 1733.64,971.397C1733.64,972.209 1733.38,972.894 1732.85,973.452C1732.32,974.009 1731.51,974.363 1730.41,974.514C1730.81,974.707 1731.12,974.897 1731.33,975.084C1731.77,975.491 1732.19,975.999 1732.59,976.608L1734.58,979.725L1732.67,979.725L1731.15,977.342C1730.71,976.655 1730.35,976.129 1730.06,975.764C1729.78,975.4 1729.52,975.144 1729.29,974.999C1729.07,974.853 1728.84,974.751 1728.6,974.694C1728.43,974.657 1728.15,974.639 1727.76,974.639L1726,974.639L1726,979.725L1724.48,979.725ZM1726,973.327L1729.26,973.327C1729.95,973.327 1730.49,973.255 1730.88,973.112C1731.27,972.969 1731.57,972.739 1731.77,972.424C1731.98,972.109 1732.08,971.767 1732.08,971.397C1732.08,970.855 1731.88,970.41 1731.49,970.061C1731.09,969.712 1730.47,969.538 1729.62,969.538L1726,969.538L1726,973.327Z" style="fill:rgb(216,218,217);fill-rule:nonzero;"/>
    </g>
</svg>
