<?xml version="1.0" standalone="no"?>
<!DOCTYPE svg PUBLIC "-//W3C//DTD SVG 1.1//EN" "http://www.w3.org/Graphics/SVG/1.1/DTD/svg11.dtd">
<svg width="100%" height="100%" viewBox="0 0 1280 1150" version="1.1" xmlns="http://www.w3.org/2000/svg" xmlns:xlink="http://www.w3.org/1999/xlink" xml:space="preserve" style="fill-rule:evenodd;clip-rule:evenodd;stroke-linecap:round;stroke-linejoin:round;stroke-miterlimit:1.41421;">
    <g id="fuellung-seite">
        <path d="M83.377,518.594L83.377,793.582C83.035,809.171 103.713,822.497 131.796,833.931L610.647,1002.87C682.453,1027.23 750.645,1027.55 812.038,982.675L1184.45,704.137C1198.26,693.255 1205.47,679.686 1205.53,663.199L1205.53,410.783L83.377,518.594Z" style="fill:rgb(242,242,242);"/>
        <path d="M1207.03,409.279L1207.03,663.204L1207.02,663.6L1207.02,663.995L1207.01,664.389L1207,664.782L1206.99,665.174L1206.97,665.565L1206.95,665.955L1206.93,666.344L1206.91,666.732L1206.88,667.119L1206.85,667.505L1206.82,667.89L1206.78,668.273L1206.75,668.656L1206.7,669.038L1206.66,669.419L1206.62,669.798L1206.57,670.177L1206.52,670.555L1206.46,670.931L1206.41,671.307L1206.35,671.681L1206.29,672.055L1206.22,672.427L1206.15,672.799L1206.09,673.169L1206.01,673.538L1205.94,673.907L1205.86,674.274L1205.78,674.64L1205.7,675.006L1205.61,675.37L1205.52,675.733L1205.43,676.095L1205.34,676.455L1205.24,676.816L1205.14,677.174L1205.04,677.532L1204.94,677.889L1204.83,678.245L1204.72,678.599L1204.61,678.953L1204.49,679.305L1204.38,679.657L1204.26,680.007L1204.13,680.357L1204.01,680.705L1203.88,681.052L1203.75,681.398L1203.62,681.743L1203.48,682.087L1203.34,682.43L1203.2,682.772L1203.06,683.113L1202.91,683.452L1202.76,683.791L1202.61,684.128L1202.46,684.465L1202.3,684.8L1202.14,685.134L1201.98,685.468L1201.81,685.8L1201.65,686.131L1201.48,686.461L1201.31,686.789L1201.13,687.117L1200.95,687.444L1200.77,687.77L1200.59,688.094L1200.4,688.417L1200.22,688.74L1200.03,689.061L1199.83,689.381L1199.64,689.7L1199.44,690.018L1199.24,690.335L1199.04,690.651L1198.83,690.966L1198.62,691.279L1198.41,691.592L1198.2,691.903L1197.99,692.213L1197.77,692.523L1197.55,692.831L1197.32,693.138L1197.1,693.444L1196.87,693.748L1196.64,694.052L1196.4,694.355L1196.17,694.657L1195.93,694.957L1195.69,695.256L1195.45,695.555L1195.2,695.852L1194.95,696.148L1194.7,696.443L1194.45,696.737L1194.19,697.03L1193.93,697.322L1193.67,697.612L1193.41,697.902L1193.14,698.191L1192.88,698.478L1192.61,698.764L1192.33,699.05L1192.06,699.334L1191.78,699.617L1191.5,699.899L1191.22,700.18L1190.93,700.46L1190.64,700.739L1190.35,701.016L1190.06,701.293L1189.77,701.569L1189.47,701.843L1189.17,702.117L1188.87,702.389L1188.56,702.66L1188.25,702.931L1187.94,703.2L1187.63,703.468L1187.32,703.735L1187,704.001L1186.68,704.266L1186.36,704.529L1186.04,704.792L1185.71,705.054L1185.37,705.325L812.929,983.882L812.561,984.151L812.199,984.414L811.836,984.676L811.473,984.937L811.11,985.197L810.747,985.456L810.384,985.715L810.02,985.972L809.657,986.228L809.293,986.483L808.929,986.737L808.565,986.989L808.201,987.241L807.836,987.492L807.472,987.742L807.107,987.991L806.742,988.239L806.377,988.485L806.012,988.731L805.646,988.976L805.281,989.22L804.915,989.462L804.549,989.704L804.183,989.945L803.817,990.184L803.451,990.423L803.084,990.661L802.718,990.897L802.351,991.133L801.984,991.367L801.617,991.601L801.249,991.833L800.882,992.065L800.514,992.296L800.146,992.525L799.779,992.754L799.41,992.981L799.042,993.208L798.674,993.433L798.305,993.658L797.937,993.881L797.568,994.104L797.199,994.325L796.83,994.546L796.46,994.765L796.091,994.984L795.721,995.201L795.351,995.418L794.981,995.634L794.611,995.848L794.241,996.062L793.871,996.274L793.5,996.486L793.129,996.696L792.759,996.906L792.388,997.115L792.016,997.322L791.645,997.529L791.274,997.734L790.902,997.939L790.53,998.143L790.158,998.345L789.786,998.547L789.414,998.748L789.042,998.948L788.669,999.146L788.296,999.344L787.923,999.541L787.55,999.737L787.177,999.932L786.804,1000.13L786.431,1000.32L786.057,1000.51L785.683,1000.7L785.309,1000.89L784.935,1001.08L784.561,1001.27L784.187,1001.46L783.812,1001.64L783.438,1001.83L783.063,1002.01L782.688,1002.19L782.313,1002.38L781.938,1002.56L781.562,1002.74L781.187,1002.92L780.811,1003.1L780.435,1003.27L780.059,1003.45L779.683,1003.63L779.307,1003.8L778.93,1003.97L778.554,1004.15L778.177,1004.32L777.8,1004.49L777.423,1004.66L777.046,1004.83L776.669,1005L776.291,1005.16L775.914,1005.33L775.536,1005.49L775.158,1005.66L774.78,1005.82L774.402,1005.98L774.024,1006.14L773.645,1006.31L773.267,1006.47L772.888,1006.62L772.509,1006.78L772.13,1006.94L771.751,1007.09L771.371,1007.25L770.992,1007.4L770.612,1007.56L770.233,1007.71L769.853,1007.86L769.473,1008.01L769.093,1008.16L768.712,1008.31L768.332,1008.45L767.951,1008.6L767.571,1008.74L767.19,1008.89L766.809,1009.03L766.428,1009.18L766.046,1009.32L765.665,1009.46L765.283,1009.6L764.902,1009.74L764.52,1009.88L764.138,1010.01L763.756,1010.15L763.373,1010.28L762.991,1010.42L762.608,1010.55L762.226,1010.68L761.843,1010.82L761.46,1010.95L761.077,1011.08L760.693,1011.21L760.31,1011.33L759.927,1011.46L759.543,1011.59L759.159,1011.71L758.775,1011.84L758.391,1011.96L758.007,1012.08L757.623,1012.2L757.238,1012.32L756.854,1012.44L756.469,1012.56L756.084,1012.68L755.699,1012.8L755.314,1012.91L754.929,1013.03L754.543,1013.14L754.158,1013.26L753.772,1013.37L753.386,1013.48L753,1013.59L752.614,1013.7L752.228,1013.81L751.842,1013.92L751.455,1014.03L751.069,1014.13L750.682,1014.24L750.295,1014.34L749.908,1014.45L749.521,1014.55L749.134,1014.65L748.746,1014.75L748.359,1014.85L747.971,1014.95L747.583,1015.05L747.195,1015.15L746.807,1015.25L746.419,1015.34L746.031,1015.44L745.642,1015.53L745.254,1015.62L744.865,1015.72L744.476,1015.81L744.087,1015.9L743.698,1015.99L743.309,1016.08L742.92,1016.17L742.53,1016.25L742.141,1016.34L741.751,1016.43L741.361,1016.51L740.971,1016.59L740.581,1016.68L740.191,1016.76L739.8,1016.84L739.41,1016.92L739.019,1017L738.628,1017.08L738.237,1017.15L737.847,1017.23L737.455,1017.31L737.064,1017.38L736.673,1017.46L736.281,1017.53L735.89,1017.6L735.498,1017.68L735.106,1017.75L734.714,1017.82L734.322,1017.89L733.93,1017.95L733.537,1018.02L733.145,1018.09L732.752,1018.15L732.359,1018.22L731.967,1018.28L731.574,1018.35L731.181,1018.41L730.787,1018.47L730.394,1018.53L730,1018.59L729.607,1018.65L729.213,1018.71L728.819,1018.77L728.425,1018.82L728.031,1018.88L727.637,1018.93L727.243,1018.99L726.848,1019.04L726.454,1019.09L726.059,1019.14L725.664,1019.2L725.269,1019.25L724.874,1019.3L724.479,1019.34L724.084,1019.39L723.688,1019.44L723.293,1019.48L722.897,1019.53L722.502,1019.57L722.106,1019.62L721.71,1019.66L721.314,1019.7L720.917,1019.74L720.521,1019.78L720.124,1019.82L719.728,1019.86L719.331,1019.9L718.934,1019.94L718.537,1019.97L718.14,1020.01L717.743,1020.04L717.346,1020.08L716.949,1020.11L716.551,1020.14L716.153,1020.17L715.756,1020.2L715.358,1020.23L714.96,1020.26L714.562,1020.29L714.164,1020.32L713.765,1020.34L713.367,1020.37L712.968,1020.39L712.569,1020.42L712.171,1020.44L711.772,1020.46L711.373,1020.49L710.974,1020.51L710.575,1020.53L710.175,1020.55L709.776,1020.56L709.376,1020.58L708.977,1020.6L708.577,1020.62L708.177,1020.63L707.777,1020.64L707.377,1020.66L706.976,1020.67L706.576,1020.69L706.176,1020.7L705.775,1020.71L705.374,1020.72L704.974,1020.73L704.573,1020.74L704.172,1020.74L703.771,1020.75L703.369,1020.76L702.968,1020.76L702.566,1020.77L702.165,1020.77L701.763,1020.77L701.362,1020.77L700.96,1020.78L700.558,1020.78L700.155,1020.78L699.753,1020.78L699.351,1020.78L698.949,1020.77L698.546,1020.77L698.143,1020.77L697.74,1020.76L696.935,1020.75L696.128,1020.74L695.322,1020.72L694.515,1020.7L693.707,1020.68L692.899,1020.65L692.091,1020.62L691.282,1020.59L690.473,1020.55L689.663,1020.51L688.853,1020.47L688.042,1020.43L687.232,1020.38L686.42,1020.33L685.608,1020.28L684.796,1020.22L683.984,1020.17L683.171,1020.1L682.357,1020.04L681.544,1019.97L680.729,1019.9L679.915,1019.83L679.1,1019.75L678.285,1019.68L677.469,1019.59L676.653,1019.51L675.836,1019.42L675.019,1019.33L674.202,1019.24L673.384,1019.14L672.566,1019.05L671.747,1018.95L670.928,1018.84L670.109,1018.73L669.289,1018.62L668.469,1018.51L667.649,1018.4L666.828,1018.28L666.006,1018.16L665.185,1018.04L664.363,1017.91L663.54,1017.78L662.717,1017.65L661.894,1017.52L661.071,1017.38L660.247,1017.24L659.422,1017.1L658.598,1016.96L657.773,1016.81L656.947,1016.66L656.122,1016.5L655.295,1016.35L654.469,1016.19L653.642,1016.03L652.815,1015.87L651.987,1015.7L651.159,1015.53L650.331,1015.37L649.502,1015.19L648.673,1015.02L647.844,1014.84L647.014,1014.66L646.184,1014.47L645.353,1014.29L644.522,1014.1L643.691,1013.91L642.859,1013.71L642.028,1013.52L641.195,1013.32L640.363,1013.12L639.53,1012.91L638.696,1012.71L637.863,1012.5L637.029,1012.29L636.194,1012.08L635.36,1011.86L634.525,1011.64L633.689,1011.42L632.854,1011.2L632.018,1010.97L631.181,1010.75L630.344,1010.51L629.507,1010.28L628.67,1010.05L627.832,1009.81L626.994,1009.57L626.156,1009.33L625.317,1009.08L624.478,1008.84L623.639,1008.59L622.799,1008.34L621.959,1008.08L621.118,1007.83L620.278,1007.57L619.437,1007.31L618.595,1007.04L617.754,1006.78L616.912,1006.51L616.069,1006.24L615.227,1005.97L614.384,1005.7L613.541,1005.42L612.697,1005.14L611.853,1004.86L611.009,1004.58L610.157,1004.29L131.262,835.334L130.57,835.051L129.912,834.781L129.258,834.509L128.606,834.238L127.957,833.965L127.311,833.692L126.667,833.418L126.027,833.143L125.389,832.867L124.755,832.591L124.124,832.314L123.495,832.036L122.87,831.758L122.248,831.479L121.629,831.199L121.014,830.918L120.402,830.636L119.793,830.354L119.187,830.071L118.585,829.787L117.986,829.503L117.39,829.218L116.799,828.932L116.21,828.645L115.625,828.357L115.044,828.069L114.467,827.78L113.893,827.49L113.323,827.199L112.756,826.907L112.194,826.615L111.635,826.322L111.08,826.028L110.53,825.733L109.983,825.438L109.44,825.142L108.901,824.844L108.366,824.547L107.835,824.248L107.308,823.948L106.786,823.648L106.268,823.347L105.754,823.045L105.244,822.742L104.738,822.438L104.238,822.134L103.989,821.981L103.741,821.828L103.494,821.675L103.248,821.521L103.004,821.368L102.761,821.214L102.519,821.06L102.278,820.906L102.038,820.752L101.799,820.597L101.561,820.443L101.325,820.288L101.09,820.132L100.855,819.977L100.622,819.821L100.39,819.665L100.16,819.509L99.93,819.353L99.702,819.196L99.475,819.04L99.249,818.882L99.024,818.725L98.801,818.568L98.579,818.41L98.357,818.252L98.138,818.094L97.919,817.935L97.702,817.777L97.485,817.618L97.27,817.459L97.057,817.3L96.844,817.14L96.633,816.98L96.423,816.82L96.214,816.66L96.007,816.499L95.801,816.339L95.596,816.178L95.392,816.016L95.19,815.855L94.989,815.693L94.789,815.531L94.59,815.369L94.393,815.206L94.197,815.044L94.003,814.881L93.81,814.717L93.618,814.554L93.427,814.39L93.238,814.226L93.05,814.062L92.863,813.897L92.678,813.732L92.494,813.567L92.312,813.402L92.13,813.236L91.951,813.071L91.772,812.905L91.595,812.738L91.42,812.571L91.245,812.404L91.072,812.237L90.901,812.07L90.731,811.902L90.562,811.734L90.395,811.566L90.229,811.397L90.065,811.228L89.902,811.059L89.74,810.89L89.58,810.72L89.421,810.55L89.264,810.38L89.108,810.209L88.954,810.038L88.801,809.867L88.65,809.696L88.5,809.524L88.351,809.352L88.204,809.18L88.059,809.007L87.915,808.834L87.772,808.661L87.632,808.487L87.492,808.313L87.354,808.139L87.218,807.965L87.083,807.79L86.95,807.615L86.818,807.439L86.688,807.263L86.559,807.087L86.432,806.911L86.307,806.734L86.183,806.557L86.061,806.38L85.94,806.202L85.821,806.024L85.703,805.846L85.587,805.667L85.473,805.488L85.361,805.309L85.249,805.129L85.14,804.949L85.032,804.769L84.926,804.588L84.822,804.407L84.719,804.226L84.618,804.044L84.519,803.862L84.421,803.679L84.325,803.497L84.231,803.314L84.139,803.13L84.048,802.947L83.959,802.762L83.871,802.578L83.786,802.393L83.702,802.208L83.62,802.023L83.54,801.837L83.461,801.651L83.384,801.464L83.309,801.277L83.236,801.09L83.165,800.903L83.095,800.715L83.028,800.526L82.962,800.338L82.898,800.149L82.836,799.96L82.776,799.77L82.717,799.581L82.661,799.39L82.606,799.2L82.553,799.009L82.503,798.818L82.454,798.626L82.407,798.435L82.362,798.243L82.318,798.05L82.277,797.858L82.238,797.665L82.201,797.471L82.165,797.278L82.132,797.084L82.101,796.89L82.071,796.695L82.044,796.5L82.019,796.305L81.995,796.11L81.974,795.915L81.955,795.719L81.937,795.523L81.922,795.326L81.909,795.13L81.898,794.933L81.888,794.736L81.881,794.539L81.876,794.341L81.873,794.144L81.873,793.946L81.874,793.748L81.877,793.57L81.877,517.232L1206.88,409.146L1207.03,409.279ZM84.877,519.957L84.877,793.595L84.874,793.782L84.873,793.949L84.873,794.115L84.876,794.281L84.88,794.447L84.886,794.613L84.894,794.779L84.903,794.944L84.914,795.11L84.927,795.275L84.942,795.44L84.958,795.604L84.976,795.769L84.996,795.934L85.017,796.098L85.04,796.262L85.065,796.426L85.091,796.59L85.119,796.754L85.149,796.918L85.181,797.082L85.214,797.245L85.249,797.409L85.286,797.572L85.324,797.735L85.364,797.898L85.406,798.061L85.449,798.224L85.494,798.387L85.541,798.55L85.589,798.712L85.639,798.875L85.691,799.038L85.744,799.2L85.799,799.362L85.856,799.525L85.914,799.687L85.974,799.849L86.036,800.011L86.099,800.173L86.164,800.335L86.23,800.497L86.299,800.659L86.369,800.821L86.44,800.982L86.513,801.144L86.588,801.306L86.665,801.467L86.743,801.629L86.823,801.79L86.904,801.952L86.987,802.113L87.072,802.274L87.158,802.435L87.246,802.596L87.335,802.757L87.427,802.918L87.519,803.079L87.614,803.24L87.71,803.401L87.808,803.562L87.907,803.723L88.008,803.883L88.11,804.044L88.214,804.204L88.32,804.365L88.427,804.525L88.536,804.685L88.647,804.846L88.759,805.006L88.873,805.166L88.988,805.326L89.105,805.486L89.223,805.646L89.343,805.806L89.465,805.965L89.588,806.125L89.712,806.284L89.839,806.444L89.966,806.603L90.096,806.763L90.227,806.922L90.359,807.081L90.493,807.24L90.628,807.399L90.765,807.558L90.904,807.717L91.044,807.875L91.186,808.034L91.329,808.192L91.474,808.351L91.62,808.509L91.767,808.667L91.917,808.825L92.067,808.983L92.219,809.141L92.373,809.299L92.528,809.456L92.685,809.614L92.843,809.771L93.002,809.929L93.163,810.086L93.326,810.243L93.49,810.4L93.655,810.557L93.822,810.714L93.99,810.87L94.16,811.027L94.331,811.183L94.503,811.339L94.677,811.495L94.852,811.651L95.029,811.807L95.207,811.963L95.387,812.119L95.568,812.274L95.75,812.43L95.934,812.585L96.119,812.74L96.306,812.895L96.494,813.05L96.683,813.205L96.874,813.359L97.066,813.514L97.259,813.668L97.454,813.822L97.65,813.976L97.847,814.13L98.046,814.284L98.246,814.438L98.447,814.591L98.65,814.744L98.854,814.898L99.059,815.051L99.266,815.204L99.474,815.356L99.683,815.509L99.894,815.662L100.105,815.814L100.318,815.966L100.533,816.118L100.748,816.27L100.965,816.422L101.183,816.573L101.403,816.725L101.623,816.876L101.845,817.027L102.068,817.178L102.293,817.329L102.518,817.48L102.745,817.631L102.973,817.781L103.202,817.931L103.433,818.081L103.664,818.231L103.897,818.381L104.131,818.531L104.366,818.68L104.603,818.829L104.84,818.979L105.079,819.128L105.319,819.277L105.56,819.425L105.802,819.573L106.29,819.871L106.783,820.166L107.28,820.462L107.781,820.757L108.287,821.051L108.798,821.344L109.312,821.637L109.831,821.929L110.355,822.22L110.882,822.511L111.414,822.801L111.95,823.091L112.49,823.38L113.034,823.668L113.582,823.956L114.135,824.243L114.691,824.529L115.251,824.815L115.815,825.1L116.383,825.384L116.954,825.667L117.53,825.95L118.109,826.233L118.691,826.514L119.278,826.795L119.868,827.076L120.461,827.355L121.058,827.634L121.659,827.913L122.263,828.19L122.87,828.467L123.481,828.744L124.095,829.019L124.712,829.294L125.333,829.569L125.957,829.842L126.584,830.115L127.213,830.388L127.847,830.659L128.483,830.93L129.122,831.201L129.764,831.47L130.409,831.739L131.057,832.008L131.708,832.275L132.329,832.529L611.136,1001.45L611.967,1001.73L612.804,1002.01L613.642,1002.29L614.479,1002.57L615.316,1002.84L616.152,1003.12L616.988,1003.38L617.824,1003.65L618.659,1003.92L619.494,1004.18L620.328,1004.44L621.163,1004.7L621.996,1004.96L622.83,1005.21L623.663,1005.46L624.496,1005.71L625.328,1005.96L626.16,1006.2L626.992,1006.45L627.823,1006.69L628.654,1006.92L629.484,1007.16L630.314,1007.39L631.144,1007.62L631.973,1007.85L632.802,1008.08L633.631,1008.3L634.459,1008.52L635.287,1008.74L636.114,1008.96L636.941,1009.17L637.768,1009.38L638.594,1009.59L639.42,1009.8L640.246,1010L641.071,1010.2L641.895,1010.4L642.72,1010.6L643.544,1010.79L644.367,1010.98L645.19,1011.17L646.013,1011.36L646.835,1011.54L647.657,1011.73L648.478,1011.9L649.3,1012.08L650.12,1012.26L650.94,1012.43L651.76,1012.6L652.58,1012.76L653.399,1012.93L654.217,1013.09L655.036,1013.25L655.853,1013.4L656.671,1013.56L657.488,1013.71L658.304,1013.86L659.12,1014L659.936,1014.14L660.751,1014.28L661.566,1014.42L662.38,1014.56L663.194,1014.69L664.008,1014.82L664.821,1014.95L665.634,1015.07L666.446,1015.19L667.258,1015.31L668.069,1015.43L668.88,1015.54L669.691,1015.65L670.501,1015.76L671.311,1015.87L672.12,1015.97L672.929,1016.07L673.737,1016.17L674.545,1016.26L675.352,1016.35L676.159,1016.44L676.966,1016.53L677.772,1016.61L678.578,1016.69L679.383,1016.77L680.188,1016.84L680.992,1016.91L681.796,1016.98L682.599,1017.05L683.402,1017.11L684.205,1017.17L685.007,1017.23L685.808,1017.29L686.609,1017.34L687.41,1017.39L688.211,1017.43L689.01,1017.48L689.81,1017.52L690.608,1017.56L691.407,1017.59L692.205,1017.62L693.002,1017.65L693.799,1017.68L694.596,1017.7L695.392,1017.72L696.187,1017.74L696.982,1017.75L697.778,1017.76L698.174,1017.77L698.571,1017.77L698.968,1017.77L699.365,1017.78L699.761,1017.78L700.158,1017.78L700.554,1017.78L700.951,1017.78L701.347,1017.77L701.743,1017.77L702.139,1017.77L702.535,1017.77L702.93,1017.76L703.326,1017.76L703.721,1017.75L704.117,1017.74L704.512,1017.74L704.907,1017.73L705.302,1017.72L705.697,1017.71L706.092,1017.7L706.486,1017.69L706.881,1017.67L707.275,1017.66L707.67,1017.65L708.064,1017.63L708.458,1017.62L708.852,1017.6L709.245,1017.59L709.639,1017.57L710.033,1017.55L710.426,1017.53L710.819,1017.51L711.212,1017.49L711.605,1017.47L711.998,1017.45L712.391,1017.42L712.784,1017.4L713.176,1017.37L713.569,1017.35L713.961,1017.32L714.353,1017.3L714.745,1017.27L715.137,1017.24L715.529,1017.21L715.921,1017.18L716.313,1017.15L716.704,1017.12L717.095,1017.09L717.486,1017.05L717.878,1017.02L718.269,1016.98L718.659,1016.95L719.05,1016.91L719.441,1016.87L719.831,1016.84L720.221,1016.8L720.612,1016.76L721.002,1016.72L721.392,1016.68L721.781,1016.63L722.171,1016.59L722.561,1016.55L722.95,1016.5L723.339,1016.46L723.729,1016.41L724.118,1016.37L724.507,1016.32L724.895,1016.27L725.284,1016.22L725.673,1016.17L726.061,1016.12L726.45,1016.07L726.838,1016.01L727.226,1015.96L727.614,1015.91L728.002,1015.85L728.389,1015.8L728.777,1015.74L729.164,1015.68L729.552,1015.62L729.939,1015.57L730.326,1015.51L730.713,1015.45L731.1,1015.38L731.486,1015.32L731.873,1015.26L732.259,1015.2L732.646,1015.13L733.032,1015.06L733.418,1015L733.804,1014.93L734.19,1014.86L734.575,1014.79L734.961,1014.72L735.346,1014.65L735.731,1014.58L736.116,1014.51L736.501,1014.44L736.886,1014.36L737.271,1014.29L737.656,1014.21L738.04,1014.14L738.425,1014.06L738.809,1013.98L739.193,1013.9L739.577,1013.82L739.961,1013.74L740.344,1013.66L740.728,1013.58L741.112,1013.49L741.495,1013.41L741.878,1013.33L742.261,1013.24L742.644,1013.15L743.027,1013.07L743.41,1012.98L743.792,1012.89L744.174,1012.8L744.557,1012.71L744.939,1012.62L745.321,1012.52L745.703,1012.43L746.085,1012.34L746.466,1012.24L746.848,1012.14L747.229,1012.05L747.61,1011.95L747.992,1011.85L748.373,1011.75L748.753,1011.65L749.134,1011.55L749.515,1011.45L749.895,1011.35L750.275,1011.24L750.656,1011.14L751.036,1011.03L751.416,1010.92L751.795,1010.82L752.175,1010.71L752.555,1010.6L752.934,1010.49L753.313,1010.38L753.692,1010.27L754.071,1010.15L754.45,1010.04L754.829,1009.93L755.207,1009.81L755.586,1009.7L755.964,1009.58L756.343,1009.46L756.721,1009.34L757.099,1009.22L757.476,1009.1L757.854,1008.98L758.232,1008.86L758.609,1008.74L758.986,1008.61L759.363,1008.49L759.74,1008.36L760.117,1008.23L760.494,1008.11L760.871,1007.98L761.247,1007.85L761.623,1007.72L762,1007.59L762.376,1007.45L762.751,1007.32L763.127,1007.19L763.503,1007.05L763.878,1006.92L764.254,1006.78L764.629,1006.64L765.004,1006.5L765.379,1006.36L765.754,1006.22L766.129,1006.08L766.503,1005.94L766.878,1005.8L767.252,1005.65L767.626,1005.51L768,1005.36L768.374,1005.22L768.748,1005.07L769.121,1004.92L769.495,1004.77L769.868,1004.62L770.241,1004.47L770.615,1004.32L770.987,1004.16L771.36,1004.01L771.733,1003.86L772.105,1003.7L772.478,1003.54L772.85,1003.38L773.222,1003.23L773.594,1003.07L773.966,1002.9L774.338,1002.74L774.709,1002.58L775.081,1002.42L775.452,1002.25L775.823,1002.09L776.194,1001.92L776.565,1001.76L776.936,1001.59L777.306,1001.42L777.677,1001.25L778.047,1001.08L778.417,1000.91L778.787,1000.73L779.157,1000.56L779.527,1000.38L779.896,1000.21L780.266,1000.03L780.635,999.855L781.005,999.677L781.374,999.498L781.743,999.317L782.111,999.136L782.48,998.954L782.848,998.771L783.217,998.587L783.585,998.402L783.953,998.215L784.321,998.029L784.689,997.841L785.057,997.652L785.424,997.462L785.792,997.271L786.159,997.079L786.526,996.886L786.893,996.693L787.26,996.498L787.626,996.302L787.993,996.106L788.359,995.908L788.726,995.71L789.092,995.51L789.458,995.31L789.824,995.108L790.189,994.906L790.555,994.702L790.92,994.498L791.285,994.292L791.651,994.086L792.016,993.879L792.38,993.67L792.745,993.461L793.11,993.251L793.474,993.04L793.838,992.827L794.202,992.614L794.566,992.4L794.93,992.185L795.294,991.969L795.658,991.751L796.021,991.533L796.384,991.314L796.747,991.094L797.11,990.873L797.473,990.651L797.836,990.428L798.198,990.204L798.561,989.978L798.923,989.752L799.285,989.525L799.647,989.297L800.009,989.068L800.371,988.838L800.732,988.607L801.093,988.375L801.455,988.142L801.816,987.907L802.177,987.672L802.538,987.436L802.898,987.199L803.259,986.961L803.619,986.722L803.979,986.482L804.339,986.24L804.699,985.998L805.059,985.755L805.419,985.511L805.778,985.266L806.138,985.019L806.497,984.772L806.856,984.524L807.215,984.274L807.574,984.024L807.932,983.773L808.291,983.52L808.649,983.267L809.007,983.013L809.365,982.757L809.723,982.501L810.081,982.243L810.438,981.985L810.796,981.725L811.147,981.469L1183.54,702.948L1183.84,702.708L1184.15,702.457L1184.46,702.205L1184.77,701.952L1185.08,701.698L1185.38,701.443L1185.68,701.187L1185.98,700.93L1186.28,700.672L1186.57,700.414L1186.87,700.154L1187.15,699.894L1187.44,699.632L1187.73,699.37L1188.01,699.107L1188.29,698.843L1188.56,698.578L1188.84,698.312L1189.11,698.045L1189.38,697.777L1189.64,697.509L1189.91,697.239L1190.17,696.969L1190.43,696.697L1190.69,696.425L1190.94,696.152L1191.2,695.877L1191.45,695.602L1191.69,695.326L1191.94,695.049L1192.18,694.771L1192.42,694.493L1192.66,694.213L1192.89,693.932L1193.13,693.651L1193.36,693.368L1193.59,693.085L1193.81,692.8L1194.04,692.515L1194.26,692.229L1194.47,691.942L1194.69,691.654L1194.9,691.365L1195.11,691.075L1195.32,690.784L1195.53,690.492L1195.73,690.2L1195.93,689.906L1196.13,689.611L1196.33,689.316L1196.52,689.019L1196.71,688.722L1196.9,688.424L1197.09,688.124L1197.27,687.824L1197.45,687.523L1197.63,687.221L1197.81,686.918L1197.98,686.614L1198.15,686.308L1198.32,686.002L1198.49,685.696L1198.65,685.388L1198.81,685.079L1198.97,684.769L1199.13,684.458L1199.29,684.146L1199.44,683.833L1199.59,683.52L1199.73,683.205L1199.88,682.889L1200.02,682.573L1200.16,682.255L1200.3,681.936L1200.43,681.617L1200.56,681.296L1200.69,680.975L1200.82,680.652L1200.95,680.328L1201.07,680.004L1201.19,679.678L1201.31,679.351L1201.42,679.024L1201.53,678.695L1201.64,678.365L1201.75,678.035L1201.86,677.703L1201.96,677.37L1202.06,677.037L1202.16,676.702L1202.25,676.366L1202.35,676.029L1202.44,675.691L1202.52,675.352L1202.61,675.012L1202.69,674.671L1202.77,674.329L1202.85,673.986L1202.93,673.642L1203,673.297L1203.07,672.951L1203.14,672.603L1203.2,672.255L1203.27,671.905L1203.33,671.555L1203.39,671.203L1203.44,670.851L1203.49,670.497L1203.55,670.142L1203.59,669.786L1203.64,669.429L1203.68,669.071L1203.72,668.712L1203.76,668.352L1203.8,667.991L1203.83,667.628L1203.86,667.265L1203.89,666.9L1203.91,666.534L1203.93,666.168L1203.96,665.8L1203.97,665.431L1203.99,665.061L1204,664.69L1204.01,664.317L1204.02,663.944L1204.03,663.569L1204.03,663.194L1204.03,412.434L84.877,519.957Z" style="fill:black;"/>
    </g>
    <g id="Schieberegler">
        <path d="M122.287,686.546L208.27,717.386L208.27,793.883L122.287,763.476L122.287,686.546Z" style="fill:rgb(237,239,238);stroke-width:1px;stroke:black;"/>
        <path d="M130.199,689.504L208.27,717.386L208.27,782.935L130.199,755.956L130.199,689.504Z" style="fill:rgb(207,207,209);stroke-width:1px;stroke:black;"/>
        <path d="M144.66,694.632L208.27,717.386L208.27,771.578L144.66,749.483L144.66,694.632Z" style="fill:rgb(231,232,234);stroke-width:1px;stroke:black;"/>
        <path d="M147.509,695.861L208.27,717.386L208.27,762.568L147.509,740.427L147.509,695.861Z" style="fill:rgb(214,214,216);stroke-width:1px;stroke:black;"/>
        <g transform="matrix(1,0,0,1,0,41.2899)">
            <path d="M185.54,709.243L172.493,718.733L161.082,714.401L156.31,717.386L143.704,712.454L148.037,709.243L134.602,703.965L146.96,695.419L185.54,709.243Z" style="fill:none;stroke-width:1px;stroke:black;"/>
        </g>
        <path d="M185.54,709.288L185.54,750.533L172.558,759.875L161.119,755.741L156.333,758.533L156.333,709.288L185.54,709.288Z" style="fill:rgb(198,202,205);stroke-width:1px;stroke:black;"/>
        <path d="M161.082,714.551L161.082,755.691L172.543,759.999L172.543,718.711L161.082,714.551Z" style="fill:rgb(230,234,235);stroke-width:1px;stroke:black;"/>
        <path d="M134.602,703.96L134.602,745.566L144.143,748.984L144.143,753.675L156.277,758.623L156.277,717.358L144.143,712.396L147.991,709.197L134.602,703.96Z" style="fill:rgb(230,231,233);stroke-width:1px;stroke:black;"/>
        <path d="M143.719,712.527L143.719,753.705" style="fill:none;stroke-width:1px;stroke:black;"/>
        <path d="M185.54,709.243L172.493,718.733L161.082,714.401L156.31,717.386L143.704,712.454L148.037,709.243L134.602,703.965L146.96,695.419L185.54,709.243Z" style="fill:rgb(250,250,250);stroke-width:1px;stroke:black;"/>
    </g>
    <g id="USB" transform="matrix(1,0,0,1,56.5794,12.2292)">
        <path d="M360.47,817.206C364.791,823.877 368.904,831.07 376.451,837.415L439.852,859.995C446.316,859.09 454.636,854.026 460.271,847.875L460.271,828.866C460.271,824.747 457.727,821.721 452.366,820.026L369.726,791.263C362.046,788.589 360.47,790.783 360.47,795.762L360.47,817.206Z" style="fill:rgb(208,208,208);stroke-width:2px;stroke-linejoin:miter;stroke:black;"/>
        <path d="M445.12,842.284C449.32,842.074 453.719,838.679 457.836,834.724L457.836,824.75L446.629,821.548L445.12,842.284Z" style="fill:rgb(36,36,36);stroke-width:1.5px;stroke-linejoin:miter;stroke:black;"/>
        <path d="M369.726,811.272C373.63,817.477 377.954,823.834 383.578,829.348L441.388,849.854C447.19,847.168 453.15,842.648 457.824,837.391L457.824,823.101L455.36,821.204L369.726,791.24L369.726,811.272Z" style="fill:url(#_Linear1);stroke-width:1.5px;stroke-linejoin:miter;stroke:black;"/>
        <path d="M378.327,793.977L380.607,804.925L391.321,815.761L404.426,803.262L378.327,793.977Z" style="fill:rgb(50,50,50);stroke-width:1.5px;stroke-linejoin:miter;stroke:black;"/>
        <path d="M374.391,795.562C377.596,797.319 381.111,798.361 383.465,796.13L392.894,799.499C390.175,801.807 387.37,804.325 383.465,804.925C380.041,805.843 376.982,805.066 374.391,803.36L374.391,795.562Z" style="fill:rgb(118,117,115);stroke-width:1.5px;stroke-linejoin:miter;stroke:black;"/>
        <path d="M404.426,803.262L385.351,821.706L444.421,842.496L458.609,824.272L456.282,821.706L451.477,819.576L404.426,803.262Z" style="fill:rgb(65,65,65);stroke-width:1.5px;stroke-linejoin:miter;stroke:black;"/>
    </g>
    <g id="Lan-Buchsen" transform="matrix(1,0,0,1,-75.3115,-59.2599)">
        <g id="Lan-Buchse">
            <g transform="matrix(1,0,0,1.00362,-3.63911,-6.79775)">
                <path d="M335.073,829.381L422.368,765.046L452.229,775.556L455.903,795.936L422.368,862.204L335.073,829.381Z" style="fill:rgb(128,128,128);stroke-width:0.65px;stroke-linejoin:miter;stroke:black;"/>
            </g>
            <path d="M316.291,701.056L316.291,827.929L455.86,877.136L458.602,749.347L316.291,701.056Z" style="fill:rgb(217,217,217);stroke-width:3px;stroke:black;"/>
            <path d="M442.267,837.456L442.267,819.403L447.402,820.869L447.402,801.294L416.672,827.542L442.267,837.456Z" style="fill:rgb(128,128,128);stroke-width:0.65px;stroke-linejoin:miter;stroke:black;"/>
            <path d="M327.768,778.798L333.335,780.763L376.472,746.532L371.018,744.119L327.768,778.798Z" style="fill:rgb(128,128,128);stroke-width:0.65px;stroke-linejoin:miter;stroke:black;"/>
            <path d="M367.616,826.728L379.988,817.923L379.988,826.728L367.616,835.722L367.616,826.728Z" style="fill:rgb(89,89,89);stroke-width:0.65px;stroke-linejoin:miter;stroke:black;"/>
            <g transform="matrix(1,0,0,1.00362,-9.57108,-16.4892)">
                <path d="M367.378,819.278L425.518,773.906L429.874,775.367L378.522,815.172L378.522,827.876L367.378,835.746L367.378,819.278Z" style="fill:rgb(89,89,89);stroke-width:0.65px;stroke-linejoin:miter;stroke:black;"/>
            </g>
            <g id="(Kurve)" transform="matrix(1,0,0,1.00362,-33.973,-41.5059)">
                <path d="M367.378,819.278L410.525,785.333L425.666,790.456L367.378,835.746L367.378,819.278Z" style="fill:rgb(89,89,89);stroke-width:0.65px;stroke-linejoin:miter;stroke:black;"/>
            </g>
            <g transform="matrix(1,0,0,1.00362,-9.52382,-33.1298)">
                <path d="M342.219,827.876L400.956,782.21L425.511,790.502L367.378,835.746L342.219,827.876Z" style="fill:rgb(128,128,128);stroke-width:0.65px;stroke-linejoin:miter;stroke:black;"/>
            </g>
            <g transform="matrix(1,0,0,1.00362,-39.247,-60.5626)">
                <path d="M367.378,810.016L389.83,795.496L409.747,802.134L367.378,835.746L367.378,810.016Z" style="fill:rgb(89,89,89);stroke-width:0.65px;stroke-linejoin:miter;stroke:black;"/>
            </g>
            <path d="M357.417,822.601L367.928,826.458L379.962,817.96L368.774,814.457L357.417,822.601Z" style="fill:rgb(128,128,128);stroke-width:0.65px;stroke-linejoin:miter;stroke:black;"/>
            <g transform="matrix(1,0,0,1,1.12882,-28.0431)">
                <path d="M332.165,759.891L331.966,781.257L352.138,766.689L332.165,759.891Z" style="fill:rgb(77,77,77);stroke-width:0.65px;stroke-linejoin:miter;stroke:black;"/>
            </g>
            <path d="M326.996,779.236L332.247,781.082L332.247,798.855L356.671,806.379L356.671,822.774L367.144,826.608L367.144,835.542L406.428,849.084L406.428,839.059L416.839,842.728L416.839,827.84L442.461,837.4L442.461,819.403L447.63,821.026L447.63,791.815L442.461,790.207L442.461,768.055L332.247,730.174L332.247,752.379L326.996,750.056L326.996,779.236Z" style="fill:none;stroke-width:3px;stroke:black;"/>
            <path d="M369.078,835.763L398.943,813.562L423.06,821.84L446.325,801.98L416.656,827.239" style="fill:none;stroke-width:2px;stroke-linejoin:miter;stroke:black;"/>
        </g>
    </g>
    <g id="Deckel">
        <path d="M541.326,236.894C567.5,221.811 607.685,213.677 650.312,225.417L1142.57,361.001C1209.94,373.246 1225.24,418.959 1173.93,449.827L808.36,705.211C757.628,737.358 668.189,739.386 608.943,717.76L140.311,564.039C76.344,545.504 64.491,505.898 119.865,479.76L541.326,236.894Z" style="fill:rgb(242,242,242);stroke-width:3px;stroke:black;"/>
        <path d="M549.401,245.236C566.639,235.323 604.698,222.419 646.13,233.783L1135.01,367.88C1196.26,383.163 1206.7,411.107 1161.51,438.937L791.979,694.343C741.247,726.49 675.874,728.252 616.629,706.625L156.886,556.121C98.233,540.083 86.897,509.905 138.512,481.518L549.401,245.236Z" style="fill:rgb(208,213,217);stroke-width:3px;stroke:black;"/>
        <path d="M558.477,248.202C569.51,242.571 614.52,232.056 640.398,240.536L1133.07,372.665C1185.78,391.126 1192.2,412.383 1154.2,436.322L785.224,689.782C734.492,721.929 678.739,721.731 619.494,700.105L162.131,551.242C109.881,535.3 100.9,513.729 145.075,485.242L558.477,248.202Z" style="fill:rgb(178,183,187);stroke-width:3px;stroke:black;"/>
    </g>
    <g id="usb rechts">
        <path d="M806.305,789.797L806.305,873.174L915.488,795.7L875.412,786.028L806.305,789.797Z" style="fill:rgb(192,193,197);stroke-width:3px;stroke:black;"/>
        <path d="M806.305,789.797L875.407,786.029L915.488,795.7L915.488,718.049L806.305,789.797Z" style="fill:rgb(113,116,123);stroke-width:3px;stroke:black;"/>
        <path d="M806.305,844.952L891.136,789.797L891.136,734.211L806.305,789.797L806.305,844.952Z" style="fill:none;stroke-width:3px;stroke:black;"/>
        <path d="M806.305,789.797L806.305,845.133L890.932,789.797L890.932,734.14L806.305,789.797Z" style="fill:rgb(46,49,56);stroke-width:3px;stroke:black;"/>
        <g>
            <path d="M806.799,843.973L806.799,829.99L878.03,783.323C882.442,780.432 889.363,790.884 883.77,794.48L806.799,843.973Z" style="fill:rgb(235,231,228);stroke-width:1px;stroke:black;"/>
            <path d="M880.852,766.699C881.012,772.022 890.738,771.758 890.738,766.699L890.738,734.845L880.852,741.304L880.852,766.699" style="fill:rgb(235,231,228);stroke-width:1px;stroke:black;"/>
        </g>
        <path d="M806.439,789.265L821.837,806.463L806.439,815.227L806.439,789.265" style="fill:rgb(94,102,105);stroke-width:1px;stroke:black;"/>
        <path d="M820.313,780.748L835.642,797.97L851.113,787.608L835.642,770.491L820.313,780.748Z" style="fill:rgb(94,102,105);stroke-width:1px;stroke:black;"/>
        <path d="M806.305,789.797L806.305,873.174L915.488,795.7L915.488,718.049L806.305,789.797Z" style="fill:none;stroke-width:3px;stroke:black;"/>
    </g>
    <g transform="matrix(-1.60812e-16,-1,1,-1.60812e-16,-818.805,791.119)">
        <path d="M132.875,957.089L128.739,956.348C129.083,955.03 129.744,954.02 130.721,953.318C131.699,952.617 133.083,952.266 134.873,952.266C136.929,952.266 138.415,952.649 139.331,953.415C140.248,954.181 140.706,955.145 140.706,956.305C140.706,956.985 140.52,957.601 140.148,958.152C139.775,958.704 139.213,959.187 138.461,959.603C139.07,959.753 139.535,959.929 139.858,960.129C140.38,960.451 140.787,960.876 141.077,961.402C141.367,961.928 141.512,962.557 141.512,963.287C141.512,964.204 141.272,965.083 140.792,965.924C140.312,966.766 139.621,967.414 138.719,967.869C137.817,968.324 136.631,968.551 135.163,968.551C133.731,968.551 132.601,968.383 131.774,968.046C130.947,967.709 130.267,967.217 129.733,966.569C129.2,965.921 128.79,965.106 128.503,964.125L132.875,963.545C133.047,964.426 133.314,965.036 133.675,965.377C134.037,965.717 134.497,965.887 135.056,965.887C135.643,965.887 136.132,965.672 136.522,965.242C136.912,964.813 137.108,964.24 137.108,963.524C137.108,962.793 136.92,962.227 136.544,961.826C136.168,961.425 135.657,961.225 135.013,961.225C134.669,961.225 134.196,961.311 133.595,961.483L133.82,958.357C134.064,958.392 134.254,958.41 134.39,958.41C134.963,958.41 135.441,958.228 135.824,957.862C136.207,957.497 136.399,957.064 136.399,956.563C136.399,956.083 136.255,955.7 135.969,955.413C135.682,955.127 135.289,954.984 134.787,954.984C134.272,954.984 133.853,955.139 133.53,955.451C133.208,955.762 132.99,956.308 132.875,957.089Z" style="fill:rgb(114,116,115);fill-rule:nonzero;"/>
        <path d="M151.932,962.578L151.932,959.302L159.451,959.302L159.451,966.016C158.012,966.997 156.739,967.665 155.632,968.019C154.526,968.374 153.214,968.551 151.695,968.551C149.826,968.551 148.303,968.232 147.125,967.595C145.947,966.957 145.034,966.009 144.385,964.748C143.737,963.488 143.413,962.041 143.413,960.408C143.413,958.69 143.768,957.195 144.477,955.923C145.186,954.652 146.224,953.687 147.592,953.028C148.659,952.52 150.095,952.266 151.9,952.266C153.64,952.266 154.941,952.423 155.804,952.738C156.667,953.054 157.383,953.542 157.953,954.205C158.522,954.867 158.95,955.707 159.236,956.724L154.542,957.562C154.349,956.967 154.021,956.512 153.559,956.197C153.097,955.882 152.508,955.725 151.792,955.725C150.725,955.725 149.875,956.095 149.241,956.837C148.607,957.578 148.29,958.75 148.29,960.355C148.29,962.059 148.611,963.276 149.252,964.007C149.893,964.737 150.786,965.103 151.932,965.103C152.476,965.103 152.995,965.024 153.489,964.866C153.984,964.709 154.549,964.44 155.187,964.061L155.187,962.578L151.932,962.578Z" style="fill:rgb(114,116,115);fill-rule:nonzero;"/>
        <path d="M164.672,952.266L166.906,952.266L162.953,968.54L160.74,968.54L164.672,952.266Z" style="fill:rgb(114,116,115);fill-rule:nonzero;"/>
        <path d="M175.264,965.339L167.293,965.339L167.293,961.74L175.264,952.266L179.077,952.266L179.077,961.944L181.054,961.944L181.054,965.339L179.077,965.339L179.077,968.282L175.264,968.282L175.264,965.339ZM175.264,961.944L175.264,956.992L171.053,961.944L175.264,961.944Z" style="fill:rgb(114,116,115);fill-rule:nonzero;"/>
        <path d="M191.044,962.578L191.044,959.302L198.564,959.302L198.564,966.016C197.124,966.997 195.851,967.665 194.745,968.019C193.638,968.374 192.326,968.551 190.808,968.551C188.939,968.551 187.415,968.232 186.237,967.595C185.059,966.957 184.146,966.009 183.498,964.748C182.85,963.488 182.526,962.041 182.526,960.408C182.526,958.69 182.88,957.195 183.589,955.923C184.298,954.652 185.336,953.687 186.704,953.028C187.771,952.52 189.207,952.266 191.012,952.266C192.752,952.266 194.054,952.423 194.917,952.738C195.78,953.054 196.496,953.542 197.065,954.205C197.634,954.867 198.062,955.707 198.349,956.724L193.654,957.562C193.461,956.967 193.133,956.512 192.672,956.197C192.21,955.882 191.621,955.725 190.904,955.725C189.837,955.725 188.987,956.095 188.353,956.837C187.719,957.578 187.403,958.75 187.403,960.355C187.403,962.059 187.723,963.276 188.364,964.007C189.005,964.737 189.898,965.103 191.044,965.103C191.588,965.103 192.108,965.024 192.602,964.866C193.096,964.709 193.662,964.44 194.299,964.061L194.299,962.578L191.044,962.578Z" style="fill:rgb(114,116,115);fill-rule:nonzero;"/>
        <path d="M120.382,979.534L125.001,979.534L126.666,988.332L129.094,979.534L133.702,979.534L136.141,988.332L137.806,979.534L142.403,979.534L138.934,995.282L134.164,995.282L131.403,985.367L128.653,995.282L123.884,995.282L120.382,979.534Z" style="fill:rgb(114,116,115);fill-rule:nonzero;"/>
        <rect x="144.197" y="979.534" width="4.877" height="15.748" style="fill:rgb(114,116,115);fill-rule:nonzero;"/>
        <path d="M151.717,990.072L156.347,989.782C156.447,990.534 156.651,991.107 156.959,991.501C157.46,992.138 158.177,992.457 159.108,992.457C159.802,992.457 160.338,992.294 160.714,991.968C161.09,991.643 161.278,991.265 161.278,990.835C161.278,990.427 161.098,990.062 160.74,989.739C160.382,989.417 159.552,989.113 158.248,988.826C156.114,988.346 154.592,987.709 153.683,986.914C152.766,986.119 152.308,985.106 152.308,983.874C152.308,983.065 152.542,982.3 153.011,981.581C153.48,980.861 154.186,980.295 155.128,979.883C156.069,979.472 157.36,979.266 159,979.266C161.013,979.266 162.547,979.64 163.603,980.388C164.66,981.137 165.288,982.327 165.488,983.96L160.902,984.229C160.78,983.52 160.524,983.004 160.133,982.682C159.743,982.359 159.204,982.198 158.517,982.198C157.951,982.198 157.525,982.318 157.238,982.558C156.952,982.798 156.809,983.09 156.809,983.434C156.809,983.684 156.927,983.91 157.163,984.11C157.392,984.318 157.937,984.512 158.796,984.691C160.923,985.149 162.447,985.613 163.367,986.082C164.287,986.551 164.957,987.133 165.376,987.827C165.795,988.522 166.004,989.299 166.004,990.158C166.004,991.168 165.725,992.099 165.166,992.951C164.608,993.804 163.827,994.45 162.824,994.89C161.822,995.331 160.558,995.551 159.032,995.551C156.354,995.551 154.499,995.035 153.468,994.004C152.437,992.973 151.853,991.662 151.717,990.072Z" style="fill:rgb(114,116,115);fill-rule:nonzero;"/>
        <path d="M168.432,979.534L176.521,979.534C178.282,979.534 179.602,979.953 180.479,980.791C181.356,981.629 181.795,982.821 181.795,984.368C181.795,985.958 181.317,987.201 180.361,988.096C179.405,988.991 177.946,989.439 175.984,989.439L173.319,989.439L173.319,995.282L168.432,995.282L168.432,979.534ZM173.319,986.248L174.512,986.248C175.45,986.248 176.109,986.085 176.488,985.759C176.868,985.434 177.058,985.016 177.058,984.508C177.058,984.014 176.893,983.595 176.564,983.251C176.234,982.907 175.615,982.735 174.705,982.735L173.319,982.735L173.319,986.248Z" style="fill:rgb(114,116,115);fill-rule:nonzero;"/>
        <path d="M124.357,1019.68L118.814,1019.68L118.051,1022.28L113.077,1022.28L118.996,1006.53L124.303,1006.53L130.222,1022.28L125.13,1022.28L124.357,1019.68ZM123.336,1016.28L121.596,1010.62L119.866,1016.28L123.336,1016.28Z" style="fill:rgb(114,116,115);fill-rule:nonzero;"/>
        <path d="M131.758,1006.53L139.847,1006.53C141.609,1006.53 142.928,1006.95 143.805,1007.79C144.683,1008.63 145.121,1009.82 145.121,1011.37C145.121,1012.96 144.643,1014.2 143.687,1015.1C142.731,1015.99 141.272,1016.44 139.31,1016.44L136.646,1016.44L136.646,1022.28L131.758,1022.28L131.758,1006.53ZM136.646,1013.25L137.838,1013.25C138.776,1013.25 139.435,1013.09 139.815,1012.76C140.194,1012.43 140.384,1012.02 140.384,1011.51C140.384,1011.01 140.219,1010.6 139.89,1010.25C139.56,1009.91 138.941,1009.74 138.031,1009.74L136.646,1009.74L136.646,1013.25Z" style="fill:rgb(114,116,115);fill-rule:nonzero;"/>
    </g>
    <ellipse cx="196.727" cy="696.495" rx="5.115" ry="4.902" style="fill:rgb(114,116,115);"/>
    <g transform="matrix(1,0,0,1,-27.2898,-10.0997)">
        <ellipse cx="196.727" cy="696.495" rx="5.115" ry="4.902" style="fill:rgb(114,116,115);"/>
    </g>
    <g transform="matrix(1,0,0,1,-54.6257,-20.2469)">
        <ellipse cx="196.727" cy="696.495" rx="5.115" ry="4.902" style="fill:rgb(114,116,115);"/>
    </g>
    <g transform="matrix(0.944558,0.328346,0.049477,1.0759,-31.4553,-153.376)">
        <path d="M261.642,812.183L266.261,812.183L267.926,820.981L270.354,812.183L274.962,812.183L277.401,820.981L279.066,812.183L283.663,812.183L280.194,827.931L275.424,827.931L272.663,818.016L269.913,827.931L265.144,827.931L261.642,812.183Z" style="fill:rgb(114,116,115);fill-rule:nonzero;"/>
        <path d="M294.953,825.331L289.41,825.331L288.648,827.931L283.674,827.931L289.593,812.183L294.9,812.183L300.819,827.931L295.727,827.931L294.953,825.331ZM293.933,821.926L292.193,816.265L290.463,821.926L293.933,821.926Z" style="fill:rgb(114,116,115);fill-rule:nonzero;"/>
        <path d="M302.408,812.183L306.952,812.183L312.882,820.895L312.882,812.183L317.469,812.183L317.469,827.931L312.882,827.931L306.985,819.284L306.985,827.931L302.408,827.931L302.408,812.183Z" style="fill:rgb(114,116,115);fill-rule:nonzero;"/>
        <path d="M323.033,811.914L325.268,811.914L321.315,828.189L319.102,828.189L323.033,811.914Z" style="fill:rgb(114,116,115);fill-rule:nonzero;"/>
        <path d="M326.815,812.183L331.681,812.183L331.681,824.053L339.276,824.053L339.276,827.931L326.815,827.931L326.815,812.183Z" style="fill:rgb(114,116,115);fill-rule:nonzero;"/>
        <path d="M351.178,825.331L345.635,825.331L344.872,827.931L339.899,827.931L345.818,812.183L351.124,812.183L357.043,827.931L351.951,827.931L351.178,825.331ZM350.157,821.926L348.417,816.265L346.688,821.926L350.157,821.926Z" style="fill:rgb(114,116,115);fill-rule:nonzero;"/>
        <path d="M358.633,812.183L363.177,812.183L369.107,820.895L369.107,812.183L373.694,812.183L373.694,827.931L369.107,827.931L363.209,819.284L363.209,827.931L358.633,827.931L358.633,812.183Z" style="fill:rgb(114,116,115);fill-rule:nonzero;"/>
        <path d="M443.927,812.183L452.016,812.183C453.777,812.183 455.097,812.602 455.974,813.44C456.852,814.278 457.29,815.47 457.29,817.017C457.29,818.607 456.812,819.849 455.856,820.744C454.9,821.64 453.441,822.087 451.479,822.087L448.815,822.087L448.815,827.931L443.927,827.931L443.927,812.183ZM448.815,818.897L450.007,818.897C450.945,818.897 451.604,818.734 451.984,818.408C452.363,818.082 452.553,817.665 452.553,817.157C452.553,816.662 452.388,816.244 452.059,815.9C451.729,815.556 451.11,815.384 450.2,815.384L448.815,815.384L448.815,818.897Z" style="fill:rgb(114,116,115);fill-rule:nonzero;"/>
        <path d="M459.224,820.068C459.224,817.497 459.94,815.495 461.372,814.063C462.805,812.631 464.799,811.914 467.356,811.914C469.977,811.914 471.996,812.618 473.414,814.025C474.832,815.432 475.541,817.404 475.541,819.939C475.541,821.779 475.231,823.289 474.612,824.467C473.993,825.645 473.097,826.561 471.926,827.217C470.756,827.872 469.296,828.2 467.549,828.2C465.773,828.2 464.303,827.917 463.139,827.351C461.976,826.785 461.032,825.89 460.309,824.665C459.585,823.441 459.224,821.908 459.224,820.068ZM464.09,820.089C464.09,821.679 464.385,822.821 464.976,823.516C465.567,824.211 466.371,824.558 467.388,824.558C468.433,824.558 469.243,824.218 469.816,823.537C470.388,822.857 470.675,821.636 470.675,819.874C470.675,818.392 470.376,817.309 469.778,816.625C469.18,815.941 468.369,815.599 467.345,815.599C466.364,815.599 465.576,815.946 464.982,816.641C464.387,817.336 464.09,818.485 464.09,820.089Z" style="fill:rgb(114,116,115);fill-rule:nonzero;"/>
        <path d="M476.164,812.183L480.783,812.183L482.448,820.981L484.876,812.183L489.485,812.183L491.923,820.981L493.588,812.183L498.186,812.183L494.716,827.931L489.946,827.931L487.186,818.016L484.436,827.931L479.666,827.931L476.164,812.183Z" style="fill:rgb(114,116,115);fill-rule:nonzero;"/>
        <path d="M499.776,812.183L512.817,812.183L512.817,815.545L504.652,815.545L504.652,818.048L512.226,818.048L512.226,821.26L504.652,821.26L504.652,824.365L513.053,824.365L513.053,827.931L499.776,827.931L499.776,812.183Z" style="fill:rgb(114,116,115);fill-rule:nonzero;"/>
        <path d="M515.738,827.931L515.738,812.183L523.849,812.183C525.353,812.183 526.502,812.312 527.297,812.57C528.092,812.827 528.733,813.306 529.22,814.004C529.707,814.702 529.95,815.552 529.95,816.555C529.95,817.429 529.764,818.182 529.392,818.816C529.019,819.45 528.507,819.964 527.856,820.358C527.44,820.608 526.871,820.816 526.148,820.981C526.728,821.174 527.15,821.368 527.415,821.561C527.594,821.69 527.854,821.966 528.194,822.388C528.534,822.811 528.762,823.136 528.876,823.366L531.229,827.931L525.729,827.931L523.129,823.119C522.8,822.495 522.506,822.091 522.248,821.905C521.897,821.661 521.5,821.539 521.056,821.539L520.626,821.539L520.626,827.931L515.738,827.931ZM520.626,818.564L522.678,818.564C522.9,818.564 523.33,818.492 523.967,818.349C524.289,818.285 524.552,818.12 524.756,817.855C524.961,817.59 525.063,817.285 525.063,816.942C525.063,816.433 524.902,816.043 524.579,815.771C524.257,815.499 523.652,815.363 522.764,815.363L520.626,815.363L520.626,818.564Z" style="fill:rgb(114,116,115);fill-rule:nonzero;"/>
    </g>
    <g transform="matrix(0.82704,-0.562143,-0.0719206,1.25802,668.35,10.3239)">
        <path d="M266.798,816.738L262.662,815.996C263.006,814.679 263.667,813.669 264.644,812.967C265.622,812.265 267.006,811.914 268.796,811.914C270.851,811.914 272.337,812.298 273.254,813.064C274.171,813.83 274.629,814.793 274.629,815.953C274.629,816.634 274.443,817.25 274.07,817.801C273.698,818.353 273.136,818.836 272.384,819.251C272.993,819.402 273.458,819.577 273.78,819.778C274.303,820.1 274.71,820.524 275,821.051C275.29,821.577 275.435,822.205 275.435,822.936C275.435,823.853 275.195,824.732 274.715,825.573C274.235,826.415 273.544,827.063 272.642,827.517C271.739,827.972 270.554,828.2 269.086,828.2C267.654,828.2 266.524,828.031 265.697,827.695C264.87,827.358 264.189,826.866 263.656,826.218C263.122,825.57 262.712,824.755 262.426,823.774L266.798,823.194C266.97,824.075 267.237,824.685 267.598,825.025C267.96,825.365 268.42,825.535 268.979,825.535C269.566,825.535 270.055,825.321 270.445,824.891C270.835,824.461 271.03,823.888 271.03,823.172C271.03,822.442 270.842,821.876 270.466,821.475C270.09,821.074 269.58,820.873 268.936,820.873C268.592,820.873 268.119,820.959 267.518,821.131L267.743,818.005C267.987,818.041 268.177,818.059 268.313,818.059C268.886,818.059 269.364,817.876 269.747,817.511C270.13,817.146 270.321,816.713 270.321,816.211C270.321,815.731 270.178,815.348 269.892,815.062C269.605,814.775 269.211,814.632 268.71,814.632C268.194,814.632 267.776,814.788 267.453,815.099C267.131,815.411 266.913,815.957 266.798,816.738Z" style="fill:rgb(114,116,115);fill-rule:nonzero;"/>
        <path d="M285.855,822.227L285.855,818.951L293.374,818.951L293.374,825.664C291.935,826.646 290.662,827.313 289.555,827.668C288.449,828.022 287.137,828.2 285.618,828.2C283.749,828.2 282.226,827.881 281.048,827.244C279.869,826.606 278.956,825.657 278.308,824.397C277.66,823.136 277.336,821.69 277.336,820.057C277.336,818.338 277.691,816.843 278.4,815.572C279.109,814.301 280.147,813.336 281.515,812.677C282.582,812.169 284.018,811.914 285.822,811.914C287.563,811.914 288.864,812.072 289.727,812.387C290.59,812.702 291.306,813.191 291.876,813.853C292.445,814.516 292.873,815.355 293.159,816.372L288.465,817.21C288.272,816.616 287.944,816.161 287.482,815.846C287.02,815.531 286.431,815.373 285.715,815.373C284.648,815.373 283.798,815.744 283.164,816.485C282.53,817.226 282.213,818.399 282.213,820.003C282.213,821.708 282.534,822.925 283.174,823.656C283.815,824.386 284.709,824.751 285.855,824.751C286.399,824.751 286.918,824.673 287.412,824.515C287.906,824.357 288.472,824.089 289.11,823.709L289.11,822.227L285.855,822.227Z" style="fill:rgb(114,116,115);fill-rule:nonzero;"/>
        <path d="M298.595,811.914L300.829,811.914L296.876,828.189L294.663,828.189L298.595,811.914Z" style="fill:rgb(114,116,115);fill-rule:nonzero;"/>
        <path d="M309.187,824.988L301.216,824.988L301.216,821.389L309.187,811.914L313,811.914L313,821.593L314.977,821.593L314.977,824.988L313,824.988L313,827.931L309.187,827.931L309.187,824.988ZM309.187,821.593L309.187,816.641L304.976,821.593L309.187,821.593Z" style="fill:rgb(114,116,115);fill-rule:nonzero;"/>
        <path d="M324.967,822.227L324.967,818.951L332.486,818.951L332.486,825.664C331.047,826.646 329.774,827.313 328.668,827.668C327.561,828.022 326.249,828.2 324.731,828.2C322.861,828.2 321.338,827.881 320.16,827.244C318.982,826.606 318.069,825.657 317.421,824.397C316.772,823.136 316.448,821.69 316.448,820.057C316.448,818.338 316.803,816.843 317.512,815.572C318.221,814.301 319.259,813.336 320.627,812.677C321.694,812.169 323.13,811.914 324.935,811.914C326.675,811.914 327.977,812.072 328.84,812.387C329.702,812.702 330.419,813.191 330.988,813.853C331.557,814.516 331.985,815.355 332.272,816.372L327.577,817.21C327.384,816.616 327.056,816.161 326.594,815.846C326.132,815.531 325.543,815.373 324.827,815.373C323.76,815.373 322.91,815.744 322.276,816.485C321.642,817.226 321.325,818.399 321.325,820.003C321.325,821.708 321.646,822.925 322.287,823.656C322.928,824.386 323.821,824.751 324.967,824.751C325.511,824.751 326.03,824.673 326.525,824.515C327.019,824.357 327.584,824.089 328.222,823.709L328.222,822.227L324.967,822.227Z" style="fill:rgb(114,116,115);fill-rule:nonzero;"/>
        <path d="M352.961,812.183L357.817,812.183L357.817,821.572C357.817,822.503 357.672,823.382 357.381,824.209C357.091,825.036 356.637,825.759 356.017,826.379C355.398,826.998 354.748,827.433 354.068,827.684C353.122,828.035 351.987,828.21 350.662,828.21C349.896,828.21 349.06,828.157 348.154,828.049C347.248,827.942 346.491,827.729 345.882,827.41C345.273,827.091 344.716,826.638 344.212,826.051C343.707,825.464 343.361,824.859 343.175,824.236C342.874,823.233 342.724,822.345 342.724,821.572L342.724,812.183L347.579,812.183L347.579,821.797C347.579,822.657 347.817,823.328 348.294,823.811C348.77,824.295 349.43,824.536 350.276,824.536C351.113,824.536 351.77,824.298 352.247,823.822C352.723,823.346 352.961,822.671 352.961,821.797L352.961,812.183Z" style="fill:rgb(114,116,115);fill-rule:nonzero;"/>
        <path d="M360.191,822.721L364.82,822.431C364.921,823.183 365.125,823.756 365.433,824.15C365.934,824.787 366.65,825.106 367.581,825.106C368.276,825.106 368.811,824.943 369.187,824.617C369.563,824.291 369.751,823.913 369.751,823.484C369.751,823.076 369.572,822.71 369.214,822.388C368.856,822.066 368.025,821.761 366.722,821.475C364.588,820.995 363.066,820.358 362.156,819.563C361.24,818.768 360.781,817.755 360.781,816.523C360.781,815.714 361.016,814.949 361.485,814.229C361.954,813.51 362.659,812.944 363.601,812.532C364.543,812.12 365.834,811.914 367.474,811.914C369.486,811.914 371.02,812.289 372.077,813.037C373.133,813.785 373.762,814.976 373.962,816.609L369.375,816.877C369.253,816.168 368.997,815.653 368.607,815.33C368.217,815.008 367.678,814.847 366.99,814.847C366.425,814.847 365.999,814.967 365.712,815.207C365.426,815.447 365.282,815.739 365.282,816.082C365.282,816.333 365.401,816.559 365.637,816.759C365.866,816.967 366.41,817.16 367.27,817.339C369.397,817.798 370.92,818.261 371.84,818.73C372.761,819.199 373.43,819.781 373.849,820.476C374.268,821.171 374.478,821.948 374.478,822.807C374.478,823.817 374.198,824.748 373.64,825.6C373.081,826.452 372.301,827.098 371.298,827.539C370.295,827.979 369.031,828.2 367.506,828.2C364.828,828.2 362.973,827.684 361.942,826.653C360.91,825.621 360.327,824.311 360.191,822.721Z" style="fill:rgb(114,116,115);fill-rule:nonzero;"/>
        <path d="M376.938,812.183L386.047,812.183C387.565,812.183 388.731,812.559 389.544,813.311C390.356,814.063 390.763,814.994 390.763,816.104C390.763,817.035 390.473,817.833 389.893,818.499C389.506,818.943 388.94,819.294 388.195,819.552C389.327,819.824 390.159,820.292 390.693,820.954C391.227,821.616 391.493,822.449 391.493,823.452C391.493,824.268 391.304,825.002 390.924,825.654C390.544,826.305 390.025,826.821 389.366,827.201C388.958,827.437 388.342,827.609 387.519,827.716C386.423,827.859 385.696,827.931 385.338,827.931L376.938,827.931L376.938,812.183ZM381.847,818.36L383.963,818.36C384.722,818.36 385.25,818.229 385.548,817.968C385.845,817.706 385.993,817.328 385.993,816.834C385.993,816.376 385.845,816.018 385.548,815.76C385.25,815.502 384.733,815.373 383.995,815.373L381.847,815.373L381.847,818.36ZM381.847,824.547L384.328,824.547C385.166,824.547 385.757,824.399 386.101,824.101C386.444,823.804 386.616,823.405 386.616,822.904C386.616,822.438 386.446,822.064 386.106,821.781C385.766,821.498 385.17,821.357 384.318,821.357L381.847,821.357L381.847,824.547Z" style="fill:rgb(114,116,115);fill-rule:nonzero;"/>
    </g>
    <g id="ledS">
        <path d="M346.138,414.068C339.617,417.609 345.088,427.013 351.815,423.311L526.153,327.372C531.279,324.551 523.369,317.841 518.466,320.503L346.138,414.068Z" style="fill:rgb(92,123,30);stroke-width:1px;stroke:rgb(218,224,220);"/>
        <path d="M391.254,391.384L406.922,382.784C411.745,380.137 415.796,386.4 411.192,388.927L395.291,397.657C390.048,400.536 386.675,393.897 391.254,391.384Z" style="fill:rgb(178,210,65);stroke-width:1px;stroke:rgb(154,184,112);"/>
        <g transform="matrix(1,0,0,1,48.2511,-26.4288)">
            <path d="M391.254,391.384L406.922,382.784C411.745,380.137 415.796,386.4 411.192,388.927L395.291,397.657C390.048,400.536 386.675,393.897 391.254,391.384Z" style="fill:rgb(178,210,65);stroke-width:1px;stroke:rgb(154,184,112);"/>
        </g>
        <g transform="matrix(1,0,0,1,96.5533,-52.7467)">
            <path d="M391.254,391.384L406.922,382.784C411.745,380.137 415.796,386.4 411.192,388.927L395.291,397.657C390.048,400.536 386.675,393.897 391.254,391.384Z" style="fill:rgb(178,210,65);stroke-width:1px;stroke:rgb(154,184,112);"/>
        </g>
        <g transform="matrix(1,0,0,1,-42.3049,23.0912)">
            <path d="M391.254,391.384L406.922,382.784C411.745,380.137 415.796,386.4 411.192,388.927L395.291,397.657C390.048,400.536 386.675,393.897 391.254,391.384Z" style="fill:rgb(178,210,65);stroke-width:1px;stroke:rgb(154,184,112);"/>
        </g>
    </g>
    <g id="Reset">
        <g transform="matrix(1,0,0,1,-127.229,72.4648)">
            <path d="M346.138,414.068C339.617,417.609 345.088,427.013 351.815,423.311L454.337,368.021C459.463,365.2 452.665,356.059 447.762,358.721L346.138,414.068Z" style="fill:rgb(92,123,30);stroke-width:1px;stroke:rgb(218,224,220);"/>
        </g>
        <path d="M216.983,491.327L216.983,479.155L294.813,441.6L294.813,456.778L225.038,494.444C220.302,497.469 216.983,493.89 216.983,491.327Z" style="fill:rgb(66,98,25);stroke-width:1px;stroke:rgb(115,141,94);"/>
        <g transform="matrix(1,0,0,1,-172.107,84.1341)">
            <path d="M391.254,391.384L460.881,354.454C465.704,351.807 469.475,357.894 464.871,360.421L395.291,397.657C390.048,400.536 386.675,393.897 391.254,391.384Z" style="fill:rgb(178,210,65);stroke-width:1px;stroke:rgb(154,184,112);"/>
        </g>
    </g>
    <g transform="matrix(-0.875196,0.483768,-1.03806,-0.56881,886.091,556.067)">
        <path d="M197.507,401.054L201.287,401.054L202.649,408.252L204.635,401.054L208.406,401.054L210.401,408.252L211.763,401.054L215.525,401.054L212.686,413.939L208.784,413.939L206.525,405.827L204.275,413.939L200.373,413.939L197.507,401.054Z" style="fill:rgb(240,241,243);fill-rule:nonzero;"/>
        <path d="M216.817,401.054L223.435,401.054C224.876,401.054 225.956,401.397 226.674,402.082C227.392,402.768 227.751,403.744 227.751,405.009C227.751,406.31 227.359,407.327 226.577,408.059C225.795,408.791 224.601,409.158 222.996,409.158L220.816,409.158L220.816,413.939L216.817,413.939L216.817,401.054ZM220.816,406.547L221.792,406.547C222.559,406.547 223.098,406.414 223.409,406.147C223.719,405.881 223.875,405.54 223.875,405.123C223.875,404.719 223.74,404.376 223.47,404.095C223.201,403.814 222.694,403.673 221.95,403.673L220.816,403.673L220.816,406.547Z" style="fill:rgb(240,241,243);fill-rule:nonzero;"/>
        <path d="M229.139,409.676L232.927,409.439C233.009,410.054 233.176,410.523 233.428,410.845C233.838,411.367 234.424,411.627 235.186,411.627C235.754,411.627 236.192,411.494 236.5,411.227C236.808,410.961 236.961,410.652 236.961,410.3C236.961,409.966 236.815,409.667 236.522,409.404C236.229,409.14 235.549,408.891 234.483,408.657C232.737,408.264 231.492,407.743 230.748,407.092C229.998,406.442 229.623,405.613 229.623,404.605C229.623,403.943 229.814,403.317 230.198,402.728C230.582,402.14 231.159,401.677 231.93,401.34C232.7,401.003 233.756,400.834 235.098,400.834C236.745,400.834 238,401.141 238.864,401.753C239.729,402.365 240.243,403.339 240.407,404.675L236.654,404.895C236.554,404.315 236.345,403.893 236.025,403.629C235.706,403.366 235.265,403.234 234.703,403.234C234.24,403.234 233.891,403.332 233.657,403.528C233.422,403.725 233.305,403.963 233.305,404.245C233.305,404.45 233.402,404.634 233.595,404.798C233.783,404.968 234.228,405.126 234.931,405.273C236.671,405.648 237.918,406.027 238.671,406.411C239.424,406.795 239.972,407.271 240.314,407.839C240.657,408.408 240.829,409.043 240.829,409.747C240.829,410.573 240.6,411.334 240.143,412.032C239.686,412.729 239.047,413.258 238.227,413.618C237.407,413.978 236.373,414.159 235.125,414.159C232.933,414.159 231.416,413.737 230.572,412.893C229.728,412.049 229.251,410.977 229.139,409.676Z" style="fill:rgb(240,241,243);fill-rule:nonzero;"/>
        <path d="M244.74,400.834L246.568,400.834L243.334,414.15L241.523,414.15L244.74,400.834Z" style="fill:rgb(240,241,243);fill-rule:nonzero;"/>
        <path d="M247.886,413.939L247.886,401.054L254.522,401.054C255.752,401.054 256.693,401.16 257.343,401.371C257.994,401.581 258.518,401.973 258.917,402.544C259.315,403.115 259.514,403.811 259.514,404.631C259.514,405.346 259.362,405.963 259.057,406.481C258.752,407 258.334,407.42 257.8,407.743C257.46,407.948 256.995,408.118 256.403,408.252C256.877,408.411 257.223,408.569 257.44,408.727C257.586,408.832 257.799,409.058 258.077,409.404C258.355,409.749 258.542,410.016 258.635,410.204L260.56,413.939L256.06,413.939L253.933,410.001C253.664,409.492 253.423,409.161 253.212,409.008C252.925,408.809 252.6,408.709 252.237,408.709L251.885,408.709L251.885,413.939L247.886,413.939ZM251.885,406.275L253.564,406.275C253.746,406.275 254.097,406.216 254.619,406.099C254.882,406.046 255.098,405.912 255.265,405.695C255.432,405.478 255.515,405.229 255.515,404.948C255.515,404.532 255.383,404.212 255.12,403.99C254.856,403.767 254.361,403.656 253.634,403.656L251.885,403.656L251.885,406.275Z" style="fill:rgb(240,241,243);fill-rule:nonzero;"/>
        <path d="M261.826,401.054L272.496,401.054L272.496,403.805L265.816,403.805L265.816,405.853L272.012,405.853L272.012,408.481L265.816,408.481L265.816,411.021L272.689,411.021L272.689,413.939L261.826,413.939L261.826,401.054Z" style="fill:rgb(240,241,243);fill-rule:nonzero;"/>
        <path d="M274.139,409.676L277.927,409.439C278.009,410.054 278.176,410.523 278.428,410.845C278.838,411.367 279.424,411.627 280.186,411.627C280.754,411.627 281.192,411.494 281.5,411.227C281.808,410.961 281.961,410.652 281.961,410.3C281.961,409.966 281.815,409.667 281.522,409.404C281.229,409.14 280.549,408.891 279.483,408.657C277.737,408.264 276.492,407.743 275.748,407.092C274.998,406.442 274.623,405.613 274.623,404.605C274.623,403.943 274.814,403.317 275.198,402.728C275.582,402.14 276.159,401.677 276.93,401.34C277.7,401.003 278.756,400.834 280.098,400.834C281.745,400.834 283,401.141 283.864,401.753C284.729,402.365 285.243,403.339 285.407,404.675L281.654,404.895C281.554,404.315 281.345,403.893 281.025,403.629C280.706,403.366 280.265,403.234 279.703,403.234C279.24,403.234 278.891,403.332 278.657,403.528C278.422,403.725 278.305,403.963 278.305,404.245C278.305,404.45 278.402,404.634 278.595,404.798C278.783,404.968 279.228,405.126 279.931,405.273C281.671,405.648 282.918,406.027 283.671,406.411C284.424,406.795 284.972,407.271 285.314,407.839C285.657,408.408 285.829,409.043 285.829,409.747C285.829,410.573 285.6,411.334 285.143,412.032C284.686,412.729 284.047,413.258 283.227,413.618C282.407,413.978 281.373,414.159 280.125,414.159C277.933,414.159 276.416,413.737 275.572,412.893C274.728,412.049 274.251,410.977 274.139,409.676Z" style="fill:rgb(240,241,243);fill-rule:nonzero;"/>
        <path d="M287.824,401.054L298.494,401.054L298.494,403.805L291.814,403.805L291.814,405.853L298.01,405.853L298.01,408.481L291.814,408.481L291.814,411.021L298.687,411.021L298.687,413.939L287.824,413.939L287.824,401.054Z" style="fill:rgb(240,241,243);fill-rule:nonzero;"/>
        <path d="M299.926,401.054L312.029,401.054L312.029,404.236L307.968,404.236L307.968,413.939L303.987,413.939L303.987,404.236L299.926,404.236L299.926,401.054Z" style="fill:rgb(240,241,243);fill-rule:nonzero;"/>
    </g>
    <g id="anzeige" transform="matrix(1,0,0,1,-182.125,-602.947)">
        <g transform="matrix(0.958283,0.568434,-0.365434,0.61606,409.27,59.0575)">
            <path d="M532.5,1001.56C535.537,998.5 538.583,999.103 541.634,1001.56" style="fill:none;stroke-width:3px;stroke:rgb(240,241,243);"/>
            <path d="M529.218,994.65C534.394,990.708 539.528,990.83 544.623,994.65" style="fill:none;stroke-width:3px;stroke:rgb(240,241,243);"/>
            <path d="M526.539,988.847C533.32,983.95 540.233,983.383 547.33,988.847" style="fill:none;stroke-width:3px;stroke:rgb(240,241,243);"/>
        </g>
        <g transform="matrix(0.94227,0.522491,-0.540465,0.974685,457.986,-297.309)">
            <path d="M626.349,996.053L623.073,996.053L623.073,985.75L641.216,985.75L641.216,996.053L638.183,996.053" style="fill:none;stroke-width:3px;stroke:rgb(240,241,243);"/>
            <path d="M626.295,1003.22L637.337,1003.22L632.352,1003.22L632.352,995.421" style="fill:none;stroke-width:3px;stroke:rgb(240,241,243);"/>
        </g>
        <g id="Inet" transform="matrix(1.41288,0.818854,-1.12057,1.93348,679.854,-1570.01)">
            <g transform="matrix(1.27235,-0.227769,0.318368,1.77845,-475.111,-424.452)">
                <ellipse cx="729.346" cy="889.27" rx="6.378" ry="1.404" style="fill:none;stroke-width:0.82px;stroke:rgb(240,241,243);"/>
            </g>
            <g transform="matrix(1.09502,0,0,1.09781,-70.6185,8.19739)">
                <ellipse cx="737.796" cy="896.539" rx="5.426" ry="3.783" style="fill:none;stroke-width:1.16px;stroke:rgb(240,241,243);"/>
            </g>
        </g>
        <g id="power" transform="matrix(2.8943,1.65838,-1.27272,2.22123,557.222,-2022.59)">
            <g transform="matrix(0.74223,0,0,0.74223,119.215,252.802)">
                <circle cx="466.635" cy="978.914" r="4.395" style="fill:none;stroke-width:1.13px;stroke:rgb(240,241,243);"/>
            </g>
            <g transform="matrix(1,9.86076e-32,9.86076e-32,1.21477,-0.143123,-210.642)">
                <path d="M466.406,975.393C466.406,975.198 466.258,975.039 466.076,975.039L465.417,975.039C465.235,975.039 465.087,975.198 465.087,975.393L465.087,979.152C465.087,979.347 465.235,979.505 465.417,979.505L466.076,979.505C466.258,979.505 466.406,979.347 466.406,979.152L466.406,975.393Z" style="fill:rgb(178,183,187);stroke-width:0.78px;stroke:rgb(240,241,243);"/>
            </g>
        </g>
    </g>
    <defs>
        <linearGradient id="_Linear1" x1="0" y1="0" x2="1" y2="0" gradientUnits="userSpaceOnUse" gradientTransform="matrix(-14.6261,37.1089,-37.1089,-14.6261,410.508,794.984)"><stop offset="0%" style="stop-color:rgb(50,50,50);stop-opacity:1"/><stop offset="62%" style="stop-color:rgb(69,69,69);stop-opacity:1"/><stop offset="82%" style="stop-color:rgb(115,115,115);stop-opacity:1"/><stop offset="100%" style="stop-color:rgb(166,166,166);stop-opacity:1"/></linearGradient>
    </defs>
</svg>
