<?xml version="1.0" standalone="no"?>
<!DOCTYPE svg PUBLIC "-//W3C//DTD SVG 1.1//EN" "http://www.w3.org/Graphics/SVG/1.1/DTD/svg11.dtd">
<svg width="100%" height="100%" viewBox="0 0 1280 1150" version="1.1" xmlns="http://www.w3.org/2000/svg" xmlns:xlink="http://www.w3.org/1999/xlink" xml:space="preserve" style="fill-rule:evenodd;clip-rule:evenodd;stroke-linecap:round;stroke-linejoin:round;stroke-miterlimit:1.41421;">
    <path d="M121.408,335.592C125.954,323.747 132.037,316.06 139.002,310.758L549.844,311.795L549.844,319.406L556.837,319.406L556.837,311.795L755.778,318.771L755.778,819.201L556.837,828.941L556.837,823.752L549.844,823.752L549.844,828.941L137.538,828.107C127.335,819.571 119.865,808.27 116.814,792.498C103.303,642.087 105.626,489.686 121.408,335.592Z" style="fill:white;stroke-width:1px;stroke:black;"/>
    <path d="M108.373,562.147L166.049,562.147L166.049,573.078L108.373,573.078" style="fill:none;stroke-width:1px;stroke:black;"/>
    <path d="M549.844,824.046L549.844,319.325L556.837,319.325L556.837,823.752" style="fill:none;stroke-width:1px;stroke:black;"/>
    <g transform="matrix(1,0,0,1,12.2604,-21.2734)">
        <rect x="274.53" y="507.664" width="101.685" height="247.313" style="fill:rgb(35,44,50);stroke-width:1px;stroke:black;"/>
        <g transform="matrix(1,0,0,0.996934,2.11133,1.36677)">
            <rect x="149.439" y="507.888" width="122.859" height="248.12" style="fill:rgb(0,223,147);stroke-width:1px;stroke:black;"/>
        </g>
        <g transform="matrix(1.02205,0,0,0.991834,-8.91773,4.84263)">
            <rect x="376.668" y="506.868" width="208.635" height="249.442" style="fill:rgb(255,220,0);stroke-width:0.99px;stroke:black;"/>
        </g>
    </g>
    <g transform="matrix(1,0,0,1,3.58346,18.6431)">
        <text x="427.873px" y="523.751px" style="font-family:'Swiss911BT-ExtraCompressed';font-size:30px;fill:white;">INTERNET/L<tspan x="526.823px 538.703px " y="523.751px 523.751px ">AN</tspan></text>
    </g>
    <g id="Pol" transform="matrix(1,0,0,1,0,13.2341)">
        <rect x="996.042" y="445.55" width="89.892" height="37.135" style="fill:rgb(26,26,26);stroke-width:1px;stroke:black;"/>
        <g transform="matrix(1,0,0,0.954265,0,22.1871)">
            <path d="M962.839,440.734L998.053,440.734C996.921,455.586 997.14,470.383 998.053,485.122L962.839,485.122L962.839,440.734Z" style="fill:rgb(26,26,26);stroke-width:1.02px;stroke:black;"/>
        </g>
        <path d="M1084.51,442.639L1167.27,442.639C1189.07,442.965 1191.8,487.836 1167.27,487.564L1084.51,487.564L1084.51,442.639Z" style="fill:rgb(128,128,128);stroke-width:1px;stroke:black;"/>
    </g>
    <g id="Pol1" transform="matrix(1,0,0,1,0,210.773)">
        <rect x="996.042" y="445.55" width="89.892" height="37.135" style="fill:rgb(26,26,26);stroke-width:1px;stroke:black;"/>
        <g transform="matrix(1,0,0,0.954265,0,22.1871)">
            <path d="M962.839,440.734L998.053,440.734C996.921,455.586 997.14,470.383 998.053,485.122L962.839,485.122L962.839,440.734Z" style="fill:rgb(26,26,26);stroke-width:1.02px;stroke:black;"/>
        </g>
        <path d="M1084.51,442.639L1167.27,442.639C1189.07,442.965 1191.8,487.836 1167.27,487.564L1084.51,487.564L1084.51,442.639Z" style="fill:rgb(128,128,128);stroke-width:1px;stroke:black;"/>
    </g>
    <g transform="matrix(1,0,0,1,-114.828,103.069)">
        <text x="427.873px" y="523.751px" style="font-family:'Swiss911BT-ExtraCompressed';font-size:30px;fill:white;">RESET</text>
    </g>
    <path d="M755.84,359.894L956.149,365.677C960.745,365.812 962.908,367.982 963.019,371.842L961.766,765.124C961.745,771.455 958.405,773.675 953.558,774.027L755.84,779.351L755.84,359.894Z" style="fill:white;stroke-width:1px;stroke:black;"/>
    <path d="M961.766,708.744L755.84,708.744L755.84,443.697L962.266,443.697" style="fill:none;stroke-width:1px;stroke:black;"/>
    <g transform="matrix(2.0882,-6.3575e-07,5.70041e-07,1.87237,-499.505,-1241.42)">
        <g id="WAN">
            <g>
                <path d="M430.126,958.534L520.049,958.534L520.049,1035.48L430.126,1035.48L430.126,958.534" style="fill:white;stroke-width:0.5px;stroke:black;"/>
                <path d="M463.538,961.757L487.377,961.757L487.377,969.841L494.601,969.841L494.601,977.802L508.571,977.802L508.571,989.68L513.332,989.68L513.332,1005.6L508.571,1005.6L508.571,1018.27L440.482,1018.27L440.482,1005.6L437.015,1005.6L437.015,989.68L440.482,989.68L440.482,977.802L455.182,977.802L455.182,969.841L463.538,969.841L463.538,961.757" style="fill:white;stroke-width:0.5px;stroke:black;"/>
                <rect x="436.816" y="989.68" width="9.385" height="15.92" style="fill:black;stroke-width:0.5px;stroke:black;"/>
                <g transform="matrix(1,0,0,1,67.0669,-0.0235958)">
                    <rect x="436.816" y="989.68" width="9.385" height="15.92" style="fill:black;stroke-width:0.5px;stroke:black;"/>
                </g>
                <path d="M450.462,1000.22L450.462,1012.69" style="fill:none;stroke-width:0.5px;stroke:black;"/>
                <g transform="matrix(1,0,0,1,5.18811,0.142889)">
                    <path d="M450.462,1000.22L450.462,1012.69" style="fill:none;stroke-width:0.5px;stroke:black;"/>
                </g>
                <g transform="matrix(1,0,0,1,10.8216,0.142889)">
                    <path d="M450.462,1000.22L450.462,1012.69" style="fill:none;stroke-width:0.5px;stroke:black;"/>
                </g>
                <g transform="matrix(1,0,0,1,22.0044,0.291919)">
                    <path d="M450.462,1000.07L450.462,1012.69" style="fill:none;stroke-width:0.5px;stroke:black;"/>
                </g>
                <g transform="matrix(1,0,0,1,27.0496,0.291919)">
                    <path d="M450.462,1000.05L450.462,1012.69" style="fill:none;stroke-width:0.5px;stroke:black;"/>
                </g>
                <g transform="matrix(1,0,0,1,49.4509,0.192566)">
                    <path d="M450.462,1000.16L450.462,1012.69" style="fill:none;stroke-width:0.5px;stroke:black;"/>
                </g>
                <path d="M466.922,1000.38L466.922,1018.21" style="fill:none;stroke-width:0.5px;stroke:black;"/>
                <g transform="matrix(1,0,0,1,16.0399,-0.0558162)">
                    <path d="M466.922,1000.41L466.922,1018.27" style="fill:none;stroke-width:0.5px;stroke:black;"/>
                </g>
                <g transform="matrix(1,0,0,1,21.7443,-0.154611)">
                    <path d="M466.922,1000.5L466.922,1018.4" style="fill:none;stroke-width:0.5px;stroke:black;"/>
                </g>
                <g transform="matrix(1,0,0,1,27.6257,-0.353316)">
                    <path d="M466.922,1000.67L466.922,1018.4" style="fill:none;stroke-width:0.5px;stroke:black;"/>
                </g>
            </g>
        </g>
    </g>
    <g transform="matrix(1,0,0,1,-546.774,-365.653)">
        <g id="reset">
            <ellipse cx="882.113" cy="1013.72" rx="10.926" ry="10.594" style="fill:rgb(64,64,64);stroke-width:3.5px;stroke:rgb(35,31,32);"/>
        </g>
    </g>
    <g transform="matrix(2.02287,0,0,2.26418,-1437.47,-1645.56)">
        <g id="USB Port Hochkant">
            <g>
                <g transform="matrix(1.24266,0,0,1.04702,-187.856,-45.2159)">
                    <rect x="797.162" y="952.18" width="35.211" height="82.069" style="fill:rgb(49,49,49);stroke-width:0.41px;stroke:black;"/>
                </g>
                <g transform="matrix(0.939579,0,0,0.964472,49.6788,34.9392)">
                    <path d="M844.035,961.651C838.659,962.357 842.018,957.286 840.263,955.504C838.409,953.621 833.887,957.121 833.851,951.73L813.483,951.73C813.06,958.195 809.277,954.793 807.442,956.539C805.548,958.341 809.127,962.125 803.299,961.651L803.299,1027.15C809.777,1026.59 805.868,1031.08 807.46,1033.07C808.999,1034.99 813.556,1031.17 813.483,1037.02C813.483,1037.03 813.489,1037.05 813.5,1037.05C813.511,1037.06 813.526,1037.07 813.541,1037.07C814.735,1037.07 833.851,1037.07 833.851,1037.07C833.819,1031.53 837.723,1034.41 839.72,1033.19C841.739,1031.96 837.786,1027.04 844.035,1027.15L844.035,961.651Z" style="fill:rgb(130,115,92);stroke-width:1.47px;stroke:rgb(203,203,203);"/>
                </g>
                <g transform="matrix(0.939579,0,0,0.964472,49.6788,34.9392)">
                    <path d="M844.035,961.651C838.659,962.357 842.018,957.286 840.263,955.504C838.409,953.621 833.887,957.121 833.851,951.73L813.483,951.73C813.06,958.195 809.277,954.793 807.442,956.539C805.548,958.341 809.127,962.125 803.299,961.651L803.299,1027.15C809.777,1026.59 805.868,1031.08 807.46,1033.07C808.999,1034.99 813.556,1031.17 813.483,1037.02C813.483,1037.03 813.489,1037.05 813.5,1037.05C813.511,1037.06 813.526,1037.07 813.541,1037.07C814.735,1037.07 833.851,1037.07 833.851,1037.07C833.819,1031.53 837.723,1034.41 839.72,1033.19C841.739,1031.96 837.786,1027.04 844.035,1027.15L844.035,961.651Z" style="fill:rgb(130,115,92);stroke-width:1.47px;stroke:rgb(203,203,203);"/>
                </g>
                <g transform="matrix(1,0,0,1,-0.730877,0.338846)">
                    <rect x="822.968" y="966.895" width="5.718" height="8.772" style="fill:black;stroke-width:0.23px;stroke:black;"/>
                </g>
                <g transform="matrix(1,0,0,1,-0.794451,13.8694)">
                    <rect x="822.968" y="966.895" width="5.718" height="8.772" style="fill:black;stroke-width:0.23px;stroke:black;"/>
                </g>
                <g transform="matrix(1,0,0,1,-0.812951,26.3374)">
                    <rect x="822.968" y="966.895" width="5.718" height="8.772" style="fill:black;stroke-width:0.23px;stroke:black;"/>
                </g>
                <g transform="matrix(1,0,0,1,-0.864451,40.5344)">
                    <rect x="822.968" y="966.895" width="5.718" height="8.772" style="fill:black;stroke-width:0.23px;stroke:black;"/>
                </g>
                <g transform="matrix(1,0,0,1.03333,2.84217e-14,-34.1453)">
                    <rect x="814.95" y="963.194" width="9.175" height="61.293" style="fill:rgb(203,203,203);stroke-width:0.23px;stroke:black;"/>
                </g>
            </g>
        </g>
    </g>
</svg>
