<?xml version="1.0" standalone="no"?>
<!DOCTYPE svg PUBLIC "-//W3C//DTD SVG 1.1//EN" "http://www.w3.org/Graphics/SVG/1.1/DTD/svg11.dtd">
<svg width="100%" height="100%" viewBox="0 0 7112 6389" version="1.1" xmlns="http://www.w3.org/2000/svg" xmlns:xlink="http://www.w3.org/1999/xlink" xml:space="preserve" style="fill-rule:evenodd;clip-rule:evenodd;stroke-linecap:round;stroke-linejoin:round;stroke-miterlimit:1.41421;">
    <g transform="matrix(5.55556,0,0,5.55556,-0,-0)">
        <g id="Strom">
            <g id="Strom1">
                <g transform="matrix(1,0,0,1.01773,-0.0419862,-17.4783)">
                    <path d="M484.667,945.839C469.511,947.331 454.161,947.427 438.577,945.839L438.577,1031.4C446.252,1059.24 479.225,1059.47 484.667,1031.4L484.667,945.839Z" style="fill:rgb(166,166,166);stroke-width:1.98px;stroke:black;"/>
                </g>
                <g transform="matrix(1,0,0,0.997847,0,2.03791)">
                    <rect x="441.331" y="867.903" width="40.372" height="78.512" style="fill:white;stroke-width:2px;stroke:black;"/>
                </g>
                <g transform="matrix(1,0,0,1.00175,0,-1.44218)">
                    <rect x="438.314" y="825.858" width="47.813" height="42.103" style="fill:white;stroke-width:2px;stroke:black;"/>
                </g>
            </g>
            <g id="Strom2" transform="matrix(1,0,0,1,223.772,0)">
                <g transform="matrix(1,0,0,1.01773,-0.0419862,-17.4783)">
                    <path d="M484.667,945.839C469.511,947.331 454.161,947.427 438.577,945.839L438.577,1031.4C446.252,1059.24 479.225,1059.47 484.667,1031.4L484.667,945.839Z" style="fill:rgb(166,166,166);stroke-width:1.98px;stroke:black;"/>
                </g>
                <g transform="matrix(1,0,0,0.997847,0,2.03791)">
                    <rect x="441.331" y="867.903" width="40.372" height="78.512" style="fill:white;stroke-width:2px;stroke:black;"/>
                </g>
                <g transform="matrix(1,0,0,1.00175,0,-1.44218)">
                    <rect x="438.314" y="825.858" width="47.813" height="42.103" style="fill:white;stroke-width:2px;stroke:black;"/>
                </g>
            </g>
            <g transform="matrix(1.50591,0,0,1.30038,-183.631,-180.164)">
                <rect x="362.973" y="600.67" width="281.284" height="173.066" style="fill:white;stroke-width:2.13px;stroke:black;"/>
            </g>
            <g transform="matrix(1,0,0,0.997296,0,1.64518)">
                <rect x="428.802" y="600.919" width="286.498" height="225.649" style="fill:none;stroke-width:3px;stroke:black;"/>
            </g>
        </g>
        <g id="Hülle">
            <path d="M265.9,600.965L890.474,600.965C938.34,510.155 969.024,409.203 977.824,295.333C978.325,285.226 978.533,275.151 977.824,265.182C973.74,250.81 964.186,241.072 952.082,233.491C937.942,224.451 923.518,216.552 908.89,209.472C693.524,132.81 469.869,121.756 233.736,209.472C218.047,216.021 204.722,224.214 192.955,233.491C180.498,244.146 176.916,254.681 175.895,265.182C174.748,276.338 175.044,286.102 175.895,295.333C194.632,434.934 227.75,526.376 265.9,600.965Z" style="fill:white;stroke-width:3px;stroke:black;"/>
            <path d="M175.346,273.334C175.284,175.088 824.23,138.401 978.253,273.334" style="fill:none;stroke-width:3px;stroke:black;"/>
        </g>
        <g id="Taster beschriftungen">
            <g id="Lan1" transform="matrix(2.18854,5.36037e-16,-4.71611e-16,1.9255,-347.405,-1578.01)">
                <path d="M463.538,961.757L487.377,961.757L487.377,969.841L494.601,969.841L494.601,977.802L508.571,977.802L508.571,989.68L513.332,989.68L513.332,1005.6L508.571,1005.6L508.571,1018.27L440.482,1018.27L440.482,1005.6L437.015,1005.6L437.015,989.68L440.482,989.68L440.482,977.802L455.182,977.802L455.182,969.841L463.538,969.841L463.538,961.757" style="fill:none;stroke-width:0.97px;stroke:black;"/>
                <rect x="436.816" y="989.68" width="9.385" height="15.92" style="fill:black;stroke-width:0.97px;stroke:black;"/>
                <g transform="matrix(1,0,0,1,67.0669,-0.0235958)">
                    <rect x="436.816" y="989.68" width="9.385" height="15.92" style="fill:black;stroke-width:0.97px;stroke:black;"/>
                </g>
                <path d="M450.462,1000.22L450.462,1012.69" style="fill:none;stroke-width:0.97px;stroke:black;"/>
                <g transform="matrix(1,0,0,1,5.18811,0.142889)">
                    <path d="M450.462,1000.22L450.462,1012.69" style="fill:none;stroke-width:0.97px;stroke:black;"/>
                </g>
                <g transform="matrix(1,0,0,1,10.8216,0.142889)">
                    <path d="M450.462,1000.22L450.462,1012.69" style="fill:none;stroke-width:0.97px;stroke:black;"/>
                </g>
                <g transform="matrix(1,0,0,1,22.0044,0.291919)">
                    <path d="M450.462,1000.07L450.462,1012.69" style="fill:none;stroke-width:0.97px;stroke:black;"/>
                </g>
                <g transform="matrix(1,0,0,1,27.0496,0.291919)">
                    <path d="M450.462,1000.05L450.462,1012.69" style="fill:none;stroke-width:0.97px;stroke:black;"/>
                </g>
                <g transform="matrix(1,0,0,1,49.4509,0.192566)">
                    <path d="M450.462,1000.16L450.462,1012.69" style="fill:none;stroke-width:0.97px;stroke:black;"/>
                </g>
                <path d="M466.922,1000.38L466.922,1018.21" style="fill:none;stroke-width:0.97px;stroke:black;"/>
                <g transform="matrix(1,0,0,1,16.0399,-0.0558162)">
                    <path d="M466.922,1000.41L466.922,1018.27" style="fill:none;stroke-width:0.97px;stroke:black;"/>
                </g>
                <g transform="matrix(1,0,0,1,21.7443,-0.154611)">
                    <path d="M466.922,1000.5L466.922,1018.4" style="fill:none;stroke-width:0.97px;stroke:black;"/>
                </g>
                <g transform="matrix(1,0,0,1,27.6257,-0.353316)">
                    <path d="M466.922,1000.67L466.922,1018.4" style="fill:none;stroke-width:0.97px;stroke:black;"/>
                </g>
                <path d="M430.126,958.534L520.049,958.534L520.049,1035.48L430.126,1035.48L430.126,958.534" style="fill:none;stroke-width:0.97px;stroke:black;"/>
            </g>
            <g id="Beschriftung" transform="matrix(1,0,0,1,-61.6188,-1.63952)">
                <g id="reset" transform="matrix(1,0,0,1,156.229,-725.29)">
                    <path d="M415.947,1035.32L415.947,1032.57C415.947,1032.17 415.871,1031.91 415.718,1031.78C415.566,1031.65 415.259,1031.58 414.798,1031.58L414.798,1036.3L414.986,1036.3C415.345,1036.3 415.595,1036.23 415.736,1036.09C415.876,1035.94 415.947,1035.69 415.947,1035.32ZM411.341,1046.67L411.341,1029.39L415.372,1029.39C416.779,1029.39 417.798,1029.64 418.431,1030.13C419.064,1030.63 419.38,1031.42 419.38,1032.52L419.38,1034.34C419.38,1035.24 419.158,1035.94 418.712,1036.42C418.267,1036.9 417.603,1037.17 416.72,1037.22L416.72,1037.31C417.705,1037.37 418.394,1037.62 418.788,1038.04C419.183,1038.47 419.38,1039.19 419.38,1040.22L419.38,1044.61C419.38,1044.96 419.408,1045.32 419.462,1045.67C419.517,1046.03 419.595,1046.36 419.697,1046.67L416.287,1046.67C416.177,1046.38 416.093,1046.05 416.035,1045.68C415.976,1045.32 415.947,1044.93 415.947,1044.52L415.947,1043.88L415.947,1040.12C415.947,1039.64 415.855,1039.27 415.671,1039.03C415.488,1038.78 415.212,1038.66 414.845,1038.66L414.798,1038.66L414.798,1046.67L411.341,1046.67Z" style="fill:black;fill-rule:nonzero;"/>
                    <path d="M420.294,1046.67L420.294,1029.39L426.728,1029.39L426.728,1031.79L423.751,1031.79L423.751,1035.78L426.658,1035.78L426.658,1038.27L423.751,1038.27L423.751,1044.06L426.728,1044.06L426.728,1046.67L420.294,1046.67Z" style="fill:black;fill-rule:nonzero;"/>
                    <path d="M427.501,1032.5C427.501,1031.39 427.855,1030.54 428.562,1029.93C429.269,1029.32 430.259,1029.01 431.533,1029.01C432.814,1029.01 433.802,1029.32 434.497,1029.93C435.193,1030.55 435.54,1031.42 435.54,1032.57L435.54,1035.39L432.107,1035.39L432.107,1032.32C432.107,1032.01 432.064,1031.79 431.978,1031.67C431.892,1031.55 431.744,1031.49 431.533,1031.49C431.314,1031.49 431.16,1031.55 431.07,1031.68C430.98,1031.81 430.935,1032.02 430.935,1032.32L430.935,1033.85C430.935,1034.11 430.968,1034.34 431.035,1034.53C431.101,1034.72 431.208,1034.9 431.357,1035.09L434.673,1038.73C434.986,1039.07 435.208,1039.42 435.341,1039.8C435.474,1040.17 435.54,1040.77 435.54,1041.59L435.54,1043.6C435.54,1044.71 435.191,1045.57 434.492,1046.16C433.792,1046.76 432.798,1047.06 431.509,1047.06C430.189,1047.06 429.191,1046.75 428.515,1046.12C427.839,1045.5 427.501,1044.58 427.501,1043.36L427.501,1040.12L430.935,1040.12L430.935,1043.6C430.935,1043.9 430.98,1044.12 431.07,1044.25C431.16,1044.38 431.314,1044.45 431.533,1044.45C431.736,1044.45 431.882,1044.38 431.972,1044.26C432.062,1044.13 432.107,1043.91 432.107,1043.6L432.107,1041.78C432.107,1041.53 432.062,1041.29 431.972,1041.08C431.882,1040.86 431.728,1040.63 431.509,1040.38L428.392,1036.85C428.072,1036.5 427.843,1036.13 427.706,1035.77C427.57,1035.41 427.501,1034.92 427.501,1034.31L427.501,1034.05L427.501,1032.5Z" style="fill:black;fill-rule:nonzero;"/>
                    <path d="M436.501,1046.67L436.501,1029.39L442.935,1029.39L442.935,1031.79L439.958,1031.79L439.958,1035.78L442.865,1035.78L442.865,1038.27L439.958,1038.27L439.958,1044.06L442.935,1044.06L442.935,1046.67L436.501,1046.67Z" style="fill:black;fill-rule:nonzero;"/>
                    <path d="M445.63,1046.67L445.63,1031.84L443.415,1031.84L443.415,1029.39L451.29,1029.39L451.29,1031.84L449.052,1031.84L449.052,1046.67L445.63,1046.67Z" style="fill:black;fill-rule:nonzero;"/>
                </g>
                <g id="ETHERNET" transform="matrix(1,0,0,1,311.106,-592.355)">
                    <path d="M411.341,1046.67L411.341,1029.39L417.775,1029.39L417.775,1031.79L414.798,1031.79L414.798,1035.78L417.705,1035.78L417.705,1038.27L414.798,1038.27L414.798,1044.06L417.775,1044.06L417.775,1046.67L411.341,1046.67Z" style="fill:black;fill-rule:nonzero;"/>
                    <path d="M420.47,1046.67L420.47,1031.84L418.255,1031.84L418.255,1029.39L426.13,1029.39L426.13,1031.84L423.892,1031.84L423.892,1046.67L420.47,1046.67Z" style="fill:black;fill-rule:nonzero;"/>
                    <path d="M426.775,1046.67L426.775,1029.39L430.208,1029.39L430.208,1035.8L431.287,1035.8L431.287,1029.39L434.744,1029.39L434.744,1046.67L431.287,1046.67L431.287,1038.32L430.208,1038.32L430.208,1046.67L426.775,1046.67Z" style="fill:black;fill-rule:nonzero;"/>
                    <path d="M435.845,1046.67L435.845,1029.39L442.279,1029.39L442.279,1031.79L439.302,1031.79L439.302,1035.78L442.208,1035.78L442.208,1038.27L439.302,1038.27L439.302,1044.06L442.279,1044.06L442.279,1046.67L435.845,1046.67Z" style="fill:black;fill-rule:nonzero;"/>
                    <path d="M447.822,1035.32L447.822,1032.57C447.822,1032.17 447.746,1031.91 447.593,1031.78C447.441,1031.65 447.134,1031.58 446.673,1031.58L446.673,1036.3L446.861,1036.3C447.22,1036.3 447.47,1036.23 447.611,1036.09C447.751,1035.94 447.822,1035.69 447.822,1035.32ZM443.216,1046.67L443.216,1029.39L447.247,1029.39C448.654,1029.39 449.673,1029.64 450.306,1030.13C450.939,1030.63 451.255,1031.42 451.255,1032.52L451.255,1034.34C451.255,1035.24 451.033,1035.94 450.587,1036.42C450.142,1036.9 449.478,1037.17 448.595,1037.22L448.595,1037.31C449.58,1037.37 450.269,1037.62 450.663,1038.04C451.058,1038.47 451.255,1039.19 451.255,1040.22L451.255,1044.61C451.255,1044.96 451.283,1045.32 451.337,1045.67C451.392,1046.03 451.47,1046.36 451.572,1046.67L448.162,1046.67C448.052,1046.38 447.968,1046.05 447.91,1045.68C447.851,1045.32 447.822,1044.93 447.822,1044.52L447.822,1043.88L447.822,1040.12C447.822,1039.64 447.73,1039.27 447.546,1039.03C447.363,1038.78 447.087,1038.66 446.72,1038.66L446.673,1038.66L446.673,1046.67L443.216,1046.67Z" style="fill:black;fill-rule:nonzero;"/>
                    <path d="M452.146,1046.67L452.146,1029.39L456.88,1029.39L458.099,1036.71C458.208,1037.37 458.302,1038.1 458.38,1038.92C458.458,1039.73 458.525,1040.66 458.58,1041.71L458.72,1041.71C458.665,1040.49 458.624,1039.42 458.597,1038.51C458.57,1037.6 458.556,1036.95 458.556,1036.55L458.533,1029.39L461.24,1029.39L461.24,1046.67L457.185,1046.67L455.415,1037.29C455.345,1036.92 455.257,1036.37 455.152,1035.62C455.046,1034.88 454.939,1034.07 454.83,1033.19L454.736,1033.19C454.783,1033.9 454.82,1034.53 454.847,1035.07C454.874,1035.61 454.888,1036.05 454.888,1036.4L454.888,1046.67L452.146,1046.67Z" style="fill:black;fill-rule:nonzero;"/>
                    <path d="M462.341,1046.67L462.341,1029.39L468.775,1029.39L468.775,1031.79L465.798,1031.79L465.798,1035.78L468.705,1035.78L468.705,1038.27L465.798,1038.27L465.798,1044.06L468.775,1044.06L468.775,1046.67L462.341,1046.67Z" style="fill:black;fill-rule:nonzero;"/>
                    <path d="M471.47,1046.67L471.47,1031.84L469.255,1031.84L469.255,1029.39L477.13,1029.39L477.13,1031.84L474.892,1031.84L474.892,1046.67L471.47,1046.67Z" style="fill:black;fill-rule:nonzero;"/>
                </g>
            </g>
            <g transform="matrix(1,0,0,1,-357.553,-740.698)">
                <g id="Wifi">
                    <ellipse cx="882.113" cy="1013.72" rx="10.926" ry="10.594" style="fill:rgb(91,92,94);stroke-width:3.5px;stroke:rgb(35,31,32);"/>
                </g>
            </g>
        </g>
    </g>
</svg>
