<?xml version="1.0" encoding="UTF-8" standalone="no"?>
<!DOCTYPE svg PUBLIC "-//W3C//DTD SVG 1.1//EN" "http://www.w3.org/Graphics/SVG/1.1/DTD/svg11.dtd">
<svg width="100%" height="100%" viewBox="0 0 1280 1150" version="1.1" xmlns="http://www.w3.org/2000/svg" xmlns:xlink="http://www.w3.org/1999/xlink" xml:space="preserve" style="fill-rule:evenodd;clip-rule:evenodd;stroke-linecap:round;stroke-linejoin:round;stroke-miterlimit:1.41421;">
    <path d="M259.484,148.857L298.469,105.396L853.855,105.396L900.394,148.857L900.394,975.312L853.855,1015.45L307.345,1015.45L259.484,975.312L259.484,148.857Z" style="fill:rgb(0,120,65);stroke-width:4.5px;stroke:black;"/>
    <path d="M547.203,528.556L547.203,651.793L664.721,651.793L664.721,528.556L547.203,528.556" style="fill:rgb(48,47,46);stroke-width:3px;stroke-linecap:square;stroke:rgb(30,32,32);"/>
    <path d="M719.402,729.619L719.402,812.062L580.298,812.062L580.298,729.619L719.402,729.619" style="fill:none;stroke-width:2.5px;stroke:white;"/>
    <rect x="409.228" y="729.619" width="137.905" height="82.443" style="fill:none;stroke-width:2.5px;stroke:white;"/>
    <g>
        <g>
            <g transform="matrix(1,0,0,1,0,-0.664584)">
                <path d="M274.638,458.916L406.181,458.916" style="fill:none;stroke-width:3px;stroke-linecap:square;stroke:white;"/>
            </g>
            <g transform="matrix(1,0,0,1,0,27.8764)">
                <path d="M274.638,458.916L406.181,458.916" style="fill:none;stroke-width:3px;stroke-linecap:square;stroke:white;"/>
            </g>
            <g transform="matrix(1,0,0,1,0,13.4723)">
                <path d="M274.638,458.916L406.181,458.916" style="fill:none;stroke-width:3px;stroke-linecap:square;stroke:white;"/>
            </g>
            <g transform="matrix(1,0,0,1,0,42.0133)">
                <path d="M274.638,458.916L406.181,458.916" style="fill:none;stroke-width:3px;stroke-linecap:square;stroke:white;"/>
            </g>
            <g transform="matrix(1,0,0,1,0,6.51117)">
                <path d="M274.638,458.916L406.181,458.916" style="fill:none;stroke-width:3px;stroke-linecap:square;stroke:white;"/>
            </g>
            <g transform="matrix(1,0,0,1,0,35.0521)">
                <path d="M274.638,458.916L406.181,458.916" style="fill:none;stroke-width:3px;stroke-linecap:square;stroke:white;"/>
            </g>
            <g transform="matrix(1,0,0,1,0,20.6481)">
                <path d="M274.638,458.916L406.181,458.916" style="fill:none;stroke-width:3px;stroke-linecap:square;stroke:white;"/>
            </g>
            <g transform="matrix(1,0,0,1,0,49.189)">
                <path d="M274.638,458.916L406.181,458.916" style="fill:none;stroke-width:3px;stroke-linecap:square;stroke:white;"/>
            </g>
        </g>
        <g transform="matrix(1,0,0,1,0,89.1965)">
            <g transform="matrix(1,0,0,1,0,-0.664584)">
                <path d="M274.638,458.916L406.181,458.916" style="fill:none;stroke-width:3px;stroke-linecap:square;stroke:white;"/>
            </g>
            <g transform="matrix(1,0,0,1,0,27.8764)">
                <path d="M274.638,458.916L406.181,458.916" style="fill:none;stroke-width:3px;stroke-linecap:square;stroke:white;"/>
            </g>
            <g transform="matrix(1,0,0,1,0,13.4723)">
                <path d="M274.638,458.916L406.181,458.916" style="fill:none;stroke-width:3px;stroke-linecap:square;stroke:white;"/>
            </g>
            <g transform="matrix(1,0,0,1,0,42.0133)">
                <path d="M274.638,458.916L406.181,458.916" style="fill:none;stroke-width:3px;stroke-linecap:square;stroke:white;"/>
            </g>
            <g transform="matrix(1,0,0,1,0,6.51117)">
                <path d="M274.638,458.916L406.181,458.916" style="fill:none;stroke-width:3px;stroke-linecap:square;stroke:white;"/>
            </g>
            <g transform="matrix(1,0,0,1,0,35.0521)">
                <path d="M274.638,458.916L406.181,458.916" style="fill:none;stroke-width:3px;stroke-linecap:square;stroke:white;"/>
            </g>
            <g transform="matrix(1,0,0,1,0,20.6481)">
                <path d="M274.638,458.916L406.181,458.916" style="fill:none;stroke-width:3px;stroke-linecap:square;stroke:white;"/>
            </g>
            <g transform="matrix(1,0,0,1,0,49.189)">
                <path d="M274.638,458.916L406.181,458.916" style="fill:none;stroke-width:3px;stroke-linecap:square;stroke:white;"/>
            </g>
        </g>
        <g transform="matrix(1,0,0,1,0,55.5874)">
            <g transform="matrix(1,0,0,1,0,-0.664584)">
                <path d="M274.638,458.916L406.181,458.916" style="fill:none;stroke-width:3px;stroke-linecap:square;stroke:white;"/>
            </g>
            <g transform="matrix(1,0,0,1,0,26.8764)">
                <path d="M274.638,458.916L406.181,458.916" style="fill:none;stroke-width:3px;stroke-linecap:square;stroke:white;"/>
            </g>
            <g transform="matrix(1,0,0,1,0,13.4723)">
                <path d="M274.638,458.916L406.181,458.916" style="fill:none;stroke-width:3px;stroke-linecap:square;stroke:white;"/>
            </g>
            <g transform="matrix(1,0,0,1,0,6.51117)">
                <path d="M274.638,458.916L406.181,458.916" style="fill:none;stroke-width:3px;stroke-linecap:square;stroke:white;"/>
            </g>
            <g transform="matrix(1,0,0,1,0,20.6481)">
                <path d="M274.638,458.916L406.181,458.916" style="fill:none;stroke-width:3px;stroke-linecap:square;stroke:white;"/>
            </g>
        </g>
        <g transform="matrix(1,0,0,1,0,146.128)">
            <g transform="matrix(1,0,0,1,0,-0.664584)">
                <path d="M274.638,458.916L406.181,458.916" style="fill:none;stroke-width:3px;stroke-linecap:square;stroke:white;"/>
            </g>
            <g transform="matrix(1,0,0,1,0,27.8764)">
                <path d="M274.638,458.916L406.181,458.916" style="fill:none;stroke-width:3px;stroke-linecap:square;stroke:white;"/>
            </g>
            <g transform="matrix(1,0,0,1,0,13.4723)">
                <path d="M274.638,458.916L406.181,458.916" style="fill:none;stroke-width:3px;stroke-linecap:square;stroke:white;"/>
            </g>
            <g transform="matrix(1,0,0,1,0,42.0133)">
                <path d="M274.638,458.916L406.181,458.916" style="fill:none;stroke-width:3px;stroke-linecap:square;stroke:white;"/>
            </g>
            <g transform="matrix(1,0,0,1,0,63.6413)">
                <path d="M274.638,458.916L406.181,458.916" style="fill:none;stroke-width:3px;stroke-linecap:square;stroke:white;"/>
            </g>
            <g transform="matrix(1,0,0,1,0,6.51117)">
                <path d="M274.638,458.916L406.181,458.916" style="fill:none;stroke-width:3px;stroke-linecap:square;stroke:white;"/>
            </g>
            <g transform="matrix(1,0,0,1,0,35.0521)">
                <path d="M274.638,458.916L406.181,458.916" style="fill:none;stroke-width:3px;stroke-linecap:square;stroke:white;"/>
            </g>
            <g transform="matrix(1,0,0,1,0,56.6801)">
                <path d="M274.638,458.916L406.181,458.916" style="fill:none;stroke-width:3px;stroke-linecap:square;stroke:white;"/>
            </g>
            <g transform="matrix(1,0,0,1,0,20.6481)">
                <path d="M274.638,458.916L406.181,458.916" style="fill:none;stroke-width:3px;stroke-linecap:square;stroke:white;"/>
            </g>
            <g transform="matrix(1,0,0,1,0,49.189)">
                <path d="M274.638,458.916L406.181,458.916" style="fill:none;stroke-width:3px;stroke-linecap:square;stroke:white;"/>
            </g>
            <g transform="matrix(1,0,0,1,0,70.817)">
                <path d="M274.638,458.916L406.181,458.916" style="fill:none;stroke-width:3px;stroke-linecap:square;stroke:white;"/>
            </g>
        </g>
        <g transform="matrix(1,0,0,1.91301,-264.848,-563.56)">
            <path d="M547.203,528.556L547.203,651.793L664.721,651.793L664.721,528.556L547.203,528.556" style="fill:rgb(48,47,46);stroke-width:1.97px;stroke-linecap:square;stroke:rgb(30,32,32);"/>
        </g>
    </g>
    <g id="bohrungen">
        <g id="bohrung">
            <path d="M259.484,814.955C270.269,792.161 300.137,791.303 309.224,796.368C341.727,814.483 334.899,863.6 309.224,872.146C295.671,876.658 278.277,881.889 259.484,852.238" style="fill:rgb(236,170,33);stroke-width:0.75px;stroke:rgb(236,170,32);"/>
            <g transform="matrix(0.81894,0,0,0.889487,119.795,-112.15)">
                <ellipse cx="212.159" cy="1065.02" rx="22.216" ry="19.948" style="fill:white;stroke-width:6.43px;stroke-linecap:butt;stroke:rgb(0,120,65);"/>
            </g>
        </g>
        <g id="bohrung1">
            <path d="M810.807,105.396C757.492,138.733 838.995,219.268 872.953,149.844C877.079,141.408 877.698,132.258 872.953,124.142L852.927,105.396L810.807,105.396" style="fill:rgb(236,170,33);stroke-width:0.75px;stroke:rgb(236,170,32);"/>
            <g transform="matrix(0.81894,0,0,0.889487,659.635,-809.34)">
                <ellipse cx="212.159" cy="1065.02" rx="22.216" ry="19.948" style="fill:white;stroke-width:6.43px;stroke-linecap:butt;stroke:rgb(0,120,65);"/>
            </g>
        </g>
        <g id="bohrung2" transform="matrix(-1,0,0,1,1154.16,0)">
            <path d="M810.807,105.396C757.492,138.733 838.995,219.268 872.953,149.844C877.079,141.408 877.698,132.258 872.953,124.142L852.927,105.396L810.807,105.396" style="fill:rgb(236,170,33);stroke-width:0.75px;stroke:rgb(236,170,32);"/>
            <g transform="matrix(0.81894,0,0,0.889487,659.635,-809.34)">
                <ellipse cx="212.159" cy="1065.02" rx="22.216" ry="19.948" style="fill:white;stroke-width:6.43px;stroke-linecap:butt;stroke:rgb(0,120,65);"/>
            </g>
        </g>
    </g>
    <g>
        <g>
            <ellipse cx="863.169" cy="739.45" rx="7.909" ry="7.827" style="fill:black;stroke-width:1.5px;stroke:rgb(236,170,33);"/>
            <g transform="matrix(1,0,0,1,-56.2466,0)">
                <ellipse cx="863.169" cy="739.45" rx="7.909" ry="7.827" style="fill:black;stroke-width:1.5px;stroke:rgb(236,170,33);"/>
            </g>
            <g transform="matrix(1,0,0,1,-56.2466,28.2858)">
                <ellipse cx="863.169" cy="739.45" rx="7.909" ry="7.827" style="fill:black;stroke-width:1.5px;stroke:rgb(236,170,33);"/>
            </g>
            <g transform="matrix(1,0,0,1,-56.2466,55.1762)">
                <ellipse cx="863.169" cy="739.45" rx="7.909" ry="7.827" style="fill:black;stroke-width:1.5px;stroke:rgb(236,170,33);"/>
            </g>
            <g transform="matrix(1,0,0,1,-0.841832,55.1762)">
                <ellipse cx="863.169" cy="739.45" rx="7.909" ry="7.827" style="fill:black;stroke-width:1.5px;stroke:rgb(236,170,33);"/>
            </g>
        </g>
        <path d="M899.222,721.961L797.365,721.961L797.365,812.062L899.222,812.062" style="fill:none;stroke-width:2.5px;stroke:white;"/>
    </g>
    <g transform="matrix(1.2138,0,0,0.654343,-263.643,388.922)">
        <path d="M547.203,528.556L547.203,651.793L664.721,651.793L664.721,528.556L547.203,528.556" style="fill:rgb(48,47,46);stroke-width:3.08px;stroke-linecap:square;stroke:rgb(30,32,32);"/>
    </g>
    <g transform="matrix(1.2138,0,0,0.654343,-93.3822,388.922)">
        <path d="M547.203,528.556L547.203,651.793L664.721,651.793L664.721,528.556L547.203,528.556" style="fill:rgb(48,47,46);stroke-width:3.08px;stroke-linecap:square;stroke:rgb(30,32,32);"/>
    </g>
    <path d="M643.659,382.034L530.417,382.034L530.417,672.102L687.24,672.102L687.24,599.116L822.094,599.116L822.094,491.743" style="fill:none;stroke-width:10px;stroke-linecap:square;stroke:url(#_Linear1);"/>
    <path d="M668.964,382.034L750.989,382.034" style="fill:none;stroke-width:10px;stroke-linecap:square;stroke:rgb(236,170,34);"/>
    <path d="M771.977,382.034L822.094,382.034L822.094,471.423" style="fill:none;stroke-width:10px;stroke-linecap:square;stroke:rgb(236,170,34);"/>
    <path d="M259.484,148.857L298.469,105.396L853.855,105.396L900.394,148.857L900.394,975.312L853.855,1015.45L307.345,1015.45L259.484,975.312L259.484,148.857Z" style="fill:none;stroke-width:4.5px;stroke:black;"/>
    <g id="Taster">
        <path d="M321.673,396.715C321.673,393.11 318.747,390.183 315.142,390.183L302.078,390.183C298.474,390.183 295.547,393.11 295.547,396.715L295.547,434.879C295.547,438.484 298.474,441.411 302.078,441.411L315.142,441.411C318.747,441.411 321.673,438.484 321.673,434.879L321.673,396.715Z" style="fill:rgb(168,157,134);stroke-width:0.75px;stroke:rgb(168,157,134);"/>
        <circle cx="309.831" cy="417.146" r="7.891" style="fill:black;stroke-width:0.75px;stroke:rgb(60,57,51);"/>
    </g>
    <g transform="matrix(1,0,0,1,76.3367,-435.807)">
        <path d="M197.929,624.159L206.401,624.159L213.263,629.061L218.812,624.159L231.056,624.159L237.534,629.061L243.464,624.159L256.521,624.159L261.515,629.061L268.214,624.159L279.866,624.159L286.372,629.061L286.372,639.024L279.866,644.992L268.214,644.992L261.515,639.024L256.521,644.992L243.464,644.992L237.534,639.024L231.056,644.992L218.812,644.992L213.263,639.024L206.401,644.992L197.929,644.992L190.804,639.024L190.804,629.061L197.929,624.159Z" style="fill:rgb(35,36,31);stroke-width:2px;stroke:rgb(19,18,16);"/>
        <g transform="matrix(0.529822,0,0,0.494308,-3.08959,488.473)">
            <rect x="381.477" y="287.99" width="11.716" height="12.521" style="fill:rgb(193,173,112);stroke-width:1.95px;stroke-linecap:square;stroke-linejoin:miter;stroke:rgb(91,73,37);"/>
        </g>
        <g transform="matrix(0.529822,0,0,0.494308,45.8566,488.473)">
            <rect x="381.477" y="287.99" width="11.716" height="12.521" style="fill:rgb(193,173,112);stroke-width:1.95px;stroke-linecap:square;stroke-linejoin:miter;stroke:rgb(91,73,37);"/>
        </g>
        <g transform="matrix(0.529822,0,0,0.494308,19.7718,488.473)">
            <rect x="381.477" y="287.99" width="11.716" height="12.521" style="fill:rgb(193,173,112);stroke-width:1.95px;stroke-linecap:square;stroke-linejoin:miter;stroke:rgb(91,73,37);"/>
        </g>
        <g transform="matrix(0.529822,0,0,0.494308,68.718,488.473)">
            <rect x="381.477" y="287.99" width="11.716" height="12.521" style="fill:rgb(193,173,112);stroke-width:1.95px;stroke-linecap:square;stroke-linejoin:miter;stroke:rgb(91,73,37);"/>
        </g>
    </g>
    <g transform="matrix(1.18604,0,0,1.18604,230.551,87.7988)">
        <path d="M197.929,624.159L231.056,624.159L237.534,629.061L237.534,639.024L231.056,644.992L197.929,644.992L190.804,639.024L190.804,629.061L197.929,624.159Z" style="fill:rgb(35,36,31);stroke-width:1.69px;stroke:rgb(19,18,16);"/>
        <g transform="matrix(0.529822,0,0,0.494308,-3.08959,488.473)">
            <rect x="381.477" y="287.99" width="11.716" height="12.521" style="fill:rgb(193,173,112);stroke-width:1.65px;stroke-linecap:square;stroke-linejoin:miter;stroke:rgb(91,73,37);"/>
        </g>
        <g transform="matrix(0.529822,0,0,0.494308,19.7718,488.473)">
            <rect x="381.477" y="287.99" width="11.716" height="12.521" style="fill:rgb(193,173,112);stroke-width:1.65px;stroke-linecap:square;stroke-linejoin:miter;stroke:rgb(91,73,37);"/>
        </g>
    </g>
    <g transform="matrix(1.18604,0,0,1.18604,422.378,86.5537)">
        <path d="M197.929,624.159L231.056,624.159L237.534,629.061L237.534,639.024L231.056,644.992L197.929,644.992L190.804,639.024L190.804,629.061L197.929,624.159Z" style="fill:rgb(35,36,31);stroke-width:1.69px;stroke:rgb(19,18,16);"/>
        <g transform="matrix(0.529822,0,0,0.494308,-3.08959,488.473)">
            <rect x="381.477" y="287.99" width="11.716" height="12.521" style="fill:rgb(193,173,112);stroke-width:1.65px;stroke-linecap:square;stroke-linejoin:miter;stroke:rgb(91,73,37);"/>
        </g>
        <g transform="matrix(0.529822,0,0,0.494308,19.7718,488.473)">
            <rect x="381.477" y="287.99" width="11.716" height="12.521" style="fill:rgb(193,173,112);stroke-width:1.65px;stroke-linecap:square;stroke-linejoin:miter;stroke:rgb(91,73,37);"/>
        </g>
    </g>
    <g transform="matrix(1.18604,0,0,1.18604,608.905,86.5537)">
        <path d="M197.929,624.159L231.056,624.159L237.534,629.061L237.534,639.024L231.056,644.992L197.929,644.992L190.804,639.024L190.804,629.061L197.929,624.159Z" style="fill:rgb(35,36,31);stroke-width:1.69px;stroke:rgb(19,18,16);"/>
        <g transform="matrix(0.529822,0,0,0.494308,-3.08959,488.473)">
            <rect x="381.477" y="287.99" width="11.716" height="12.521" style="fill:rgb(193,173,112);stroke-width:1.65px;stroke-linecap:square;stroke-linejoin:miter;stroke:rgb(91,73,37);"/>
        </g>
        <g transform="matrix(0.529822,0,0,0.494308,19.7718,488.473)">
            <rect x="381.477" y="287.99" width="11.716" height="12.521" style="fill:rgb(193,173,112);stroke-width:1.65px;stroke-linecap:square;stroke-linejoin:miter;stroke:rgb(91,73,37);"/>
        </g>
    </g>
    <g transform="matrix(1.18604,0,0,1.18604,608.905,116.049)">
        <path d="M197.929,624.159L231.056,624.159L237.534,629.061L237.534,639.024L231.056,644.992L197.929,644.992L190.804,639.024L190.804,629.061L197.929,624.159Z" style="fill:rgb(35,36,31);stroke-width:1.69px;stroke:rgb(19,18,16);"/>
        <g transform="matrix(0.529822,0,0,0.494308,-3.08959,488.473)">
            <rect x="381.477" y="287.99" width="11.716" height="12.521" style="fill:rgb(193,173,112);stroke-width:1.65px;stroke-linecap:square;stroke-linejoin:miter;stroke:rgb(91,73,37);"/>
        </g>
        <g transform="matrix(0.529822,0,0,0.494308,19.7718,488.473)">
            <rect x="381.477" y="287.99" width="11.716" height="12.521" style="fill:rgb(193,173,112);stroke-width:1.65px;stroke-linecap:square;stroke-linejoin:miter;stroke:rgb(91,73,37);"/>
        </g>
    </g>
    <g id="usb">
        <rect x="503.352" y="74.755" width="147.042" height="140.057" style="fill:rgb(144,142,91);stroke-width:3px;stroke-linecap:square;stroke:rgb(92,89,64);"/>
        <path d="M514.261,224.849L503.47,214.854L650.434,214.854L650.434,224.849L514.261,224.849Z" style="fill:rgb(191,209,175);stroke-width:3px;stroke:rgb(92,89,64);"/>
        <path d="M521.935,144.261L529.211,89.285L546.83,89.285L555.498,144.261" style="fill:none;stroke-width:5px;stroke:black;"/>
        <g transform="matrix(1,0,0,1,67.4296,0)">
            <path d="M521.935,144.261L529.211,89.285L546.83,89.285L555.498,144.261" style="fill:none;stroke-width:5px;stroke:black;"/>
        </g>
    </g>
    <g id="lan">
        <g>
            <rect x="378.015" y="875.351" width="167.643" height="190.857" style="fill:rgb(51,51,51);stroke-width:3px;stroke:rgb(26,26,26);"/>
            <path d="M396.998,861.96L378.015,875.351L545.76,875.351L551.674,861.96L396.998,861.96Z" style="fill:rgb(38,38,38);stroke-width:3px;stroke:rgb(26,26,26);"/>
            <path d="M551.674,1055.09L545.76,1065.93L545.76,875.213L551.674,862.299L551.674,1055.09Z" style="fill:rgb(26,26,26);stroke-width:3px;stroke:rgb(26,26,26);"/>
        </g>
        <g transform="matrix(1,0,0,1,172.164,0)">
            <rect x="378.015" y="875.351" width="167.643" height="190.857" style="fill:rgb(51,51,51);stroke-width:3px;stroke:rgb(26,26,26);"/>
            <path d="M381.211,861.96L378.015,875.351L545.76,875.351L545.76,861.96L381.211,861.96Z" style="fill:rgb(38,38,38);stroke-width:3px;stroke:rgb(26,26,26);"/>
        </g>
    </g>
    <g transform="matrix(0.00525385,0.999986,-0.999986,0.00525385,1562.42,92.8254)">
        <g transform="matrix(1.18332,-4.96971e-18,2.82777e-18,1.08863,-146.557,-71.4071)">
            <path d="M899.222,721.961L797.365,721.961L797.365,812.062L899.222,812.062" style="fill:none;stroke-width:2.2px;stroke:white;"/>
        </g>
        <g transform="matrix(0.00525385,-0.999986,0.999986,0.00525385,-101.033,1561.91)">
            <rect x="757.943" y="899.114" width="92.864" height="166.351" style="fill:black;stroke-width:3px;stroke:rgb(26,26,26);"/>
            <path d="M756.54,929.872C756.635,888.966 847.565,884.871 848.389,929.872L834.864,952.206L771.796,952.206L756.54,929.872Z" style="fill:rgb(26,26,26);stroke-width:3px;stroke:rgb(26,26,26);"/>
            <path d="M756.54,929.872C779.787,939.034 823.812,939.36 848.389,929.872L848.389,1022.89C825.712,1032.52 783.412,1032.53 756.54,1022.89L756.54,929.872Z" style="fill:rgb(51,51,51);stroke-width:3px;stroke:black;"/>
            <g transform="matrix(1,0,0,0.218072,0,833.118)">
                <rect x="757.943" y="899.114" width="92.864" height="166.351" style="fill:rgb(51,51,51);stroke-width:4.15px;stroke:rgb(26,26,26);"/>
            </g>
        </g>
    </g>
    <defs>
        <linearGradient id="_Linear1" x1="0" y1="0" x2="1" y2="0" gradientUnits="userSpaceOnUse" gradientTransform="matrix(291.677,0,0,290.068,530.417,527.068)"><stop offset="0%" style="stop-color:white;stop-opacity:1"/><stop offset="12%" style="stop-color:white;stop-opacity:1"/><stop offset="25%" style="stop-color:white;stop-opacity:1"/><stop offset="27%" style="stop-color:rgb(236,170,34);stop-opacity:1"/><stop offset="37%" style="stop-color:rgb(236,170,34);stop-opacity:1"/><stop offset="39%" style="stop-color:white;stop-opacity:1"/><stop offset="63%" style="stop-color:white;stop-opacity:1"/><stop offset="64%" style="stop-color:rgb(236,170,34);stop-opacity:1"/><stop offset="100%" style="stop-color:rgb(236,170,33);stop-opacity:1"/></linearGradient>
    </defs>
</svg>
