<?xml version="1.0" encoding="UTF-8" standalone="no"?>
<!DOCTYPE svg PUBLIC "-//W3C//DTD SVG 1.1//EN" "http://www.w3.org/Graphics/SVG/1.1/DTD/svg11.dtd">
<svg width="100%" height="100%" viewBox="0 0 1280 1150" version="1.1" xmlns="http://www.w3.org/2000/svg" xmlns:xlink="http://www.w3.org/1999/xlink" xml:space="preserve" style="fill-rule:evenodd;clip-rule:evenodd;stroke-linecap:round;stroke-linejoin:round;stroke-miterlimit:1.41421;">
    <path d="M913.071,45.71C975.844,45.825 1033.81,100.229 1033.81,179.306L1033.81,961.93C1033.81,1041.15 967.527,1102.05 913.071,1102.05L405.719,1102.05C327.584,1102.05 267.607,1047.85 267.607,961.93L267.607,179.306C267.607,93.52 317.586,45.71 405.719,45.71L913.071,45.71" style="fill:rgb(232,232,232);stroke-width:3px;stroke:black;"/>
    <g id="power">
        <path d="M908.007,408.985L908.007,416.051" style="fill:none;stroke-width:1.5px;stroke:rgb(182,183,188);"/>
        <path d="M904.847,411.997C902.178,414.652 902.145,417.315 904.847,420.006C906.579,421.419 908.899,421.489 910.998,420.006C913.859,417.431 913.939,414.657 910.998,411.997" style="fill:none;stroke-width:1.5px;stroke:rgb(182,183,188);"/>
    </g>
    <g id="LEDS">
        <g transform="matrix(0.718624,-1.20881e-17,-1.20881e-17,0.767978,263.781,42.4802)">
            <ellipse cx="936.616" cy="182.05" rx="3.688" ry="3.465" style="fill:rgb(162,230,37);stroke-width:2.69px;stroke:rgb(144,223,0);"/>
        </g>
        <g transform="matrix(0.718624,-1.20881e-17,-1.20881e-17,0.767978,263.781,81.7637)">
            <ellipse cx="936.616" cy="182.05" rx="3.688" ry="3.465" style="fill:rgb(162,230,37);stroke-width:2.69px;stroke:rgb(144,223,0);"/>
        </g>
        <g transform="matrix(0.686684,-1.15509e-17,-1.15509e-17,0.733844,293.578,126.715)">
            <ellipse cx="936.616" cy="182.05" rx="3.688" ry="3.465" style="fill:rgb(162,230,37);stroke-width:2.81px;stroke:rgb(144,223,0);"/>
        </g>
        <g transform="matrix(0.686684,-1.15509e-17,-1.15509e-17,0.733844,293.578,165.711)">
            <ellipse cx="936.616" cy="182.05" rx="3.688" ry="3.465" style="fill:rgb(162,230,37);stroke-width:2.81px;stroke:rgb(144,223,0);"/>
        </g>
        <g transform="matrix(0.686684,-1.15509e-17,-1.15509e-17,0.733844,293.578,243.461)">
            <ellipse cx="936.616" cy="182.05" rx="3.688" ry="3.465" style="fill:rgb(162,230,37);stroke-width:2.81px;stroke:rgb(144,223,0);"/>
        </g>
        <g transform="matrix(0.686684,-1.15509e-17,-1.15509e-17,0.733844,293.578,283.215)">
            <ellipse cx="936.616" cy="182.05" rx="3.688" ry="3.465" style="fill:rgb(162,230,37);stroke-width:2.81px;stroke:rgb(144,223,0);"/>
        </g>
    </g>
    <g id="wifi-signal">
        <path d="M903.505,234.23L912.867,234.23" style="fill:none;stroke-width:2px;stroke:rgb(182,183,188);"/>
        <g transform="matrix(0.743683,0,0,0.743683,233.983,64.2715)">
            <path d="M903.505,234.23L912.867,234.23" style="fill:none;stroke-width:2.69px;stroke:rgb(182,183,188);"/>
        </g>
        <g transform="matrix(0.476695,0,0,0.476695,477.708,130.799)">
            <path d="M903.505,234.23L912.867,234.23" style="fill:none;stroke-width:4.2px;stroke:rgb(182,183,188);"/>
        </g>
        <g transform="matrix(0.248262,0,0,0.248262,686.237,188.367)">
            <path d="M903.505,234.23L912.867,234.23" style="fill:none;stroke-width:8.06px;stroke:rgb(182,183,188);"/>
        </g>
    </g>
    <g id="ethernet">
        <path d="M912.506,373.651L916.226,377.326L912.506,380.731" style="fill:none;stroke-width:2px;stroke:rgb(182,183,188);"/>
        <path d="M904.849,377.87L904.849,376.591" style="fill:none;stroke-width:1.5px;stroke-linecap:butt;stroke:rgb(182,183,188);"/>
        <g transform="matrix(1,0,0,1,3.00693,0)">
            <path d="M904.849,377.87L904.849,376.591" style="fill:none;stroke-width:1.5px;stroke-linecap:butt;stroke:rgb(182,183,188);"/>
        </g>
        <g transform="matrix(1,0,0,1,6.47868,0)">
            <path d="M904.849,377.87L904.849,376.591" style="fill:none;stroke-width:1.5px;stroke-linecap:butt;stroke:rgb(182,183,188);"/>
        </g>
        <path d="M903.204,373.689L900.058,377.326L903.204,380.747" style="fill:none;stroke-width:2px;stroke:rgb(182,183,188);"/>
    </g>
    <g id="meraki">
        <g transform="matrix(1,0,0,1,39.8218,-0.903961)">
            <path d="M583.611,1005.55L581.063,1005.55L581.063,996.546C581.063,995.11 580.977,994.059 580.805,993.392C580.633,992.724 580.259,992.163 579.683,991.708C579.107,991.254 578.349,991.026 577.409,991.026C576.468,991.026 575.584,991.329 574.755,991.936C573.926,992.542 573.35,993.366 573.026,994.408C572.703,995.449 572.541,996.99 572.541,999.033L572.541,1005.55L570.085,1005.55L570.085,997.092C570.085,995.434 569.999,994.241 569.827,993.513C569.655,992.785 569.276,992.189 568.69,991.724C568.103,991.259 567.365,991.026 566.476,991.026C565.586,991.026 564.742,991.304 563.943,991.86C563.145,992.416 562.553,993.144 562.169,994.044C561.785,994.943 561.593,996.434 561.593,998.517L561.593,1005.55L559.106,1005.55L559.106,989.025L561.593,989.025L561.593,991.36C563.008,989.52 564.777,988.6 566.9,988.6C568.053,988.6 569.099,988.908 570.039,989.525C570.979,990.142 571.652,991.016 572.056,992.148C572.743,990.996 573.603,990.116 574.634,989.51C575.665,988.903 576.757,988.6 577.909,988.6C579.486,988.6 580.831,989.156 581.943,990.268C583.055,991.38 583.611,993.473 583.611,996.546L583.611,1005.55Z" style="fill:black;fill-rule:nonzero;"/>
            <path d="M603.839,997.728L589.342,997.728C589.443,999.548 590.055,1001.01 591.177,1002.11C592.299,1003.21 593.639,1003.76 595.196,1003.76C597.844,1003.76 599.866,1002.46 601.261,999.851L603.384,1000.94C602.434,1002.7 601.312,1004 600.018,1004.84C598.724,1005.68 597.177,1006.1 595.377,1006.1C592.891,1006.1 590.839,1005.25 589.221,1003.54C587.604,1001.83 586.795,999.77 586.795,997.365C586.795,994.959 587.609,992.896 589.236,991.178C590.864,989.459 592.881,988.6 595.287,988.6C597.692,988.6 599.704,989.414 601.322,991.041C602.939,992.669 603.778,994.898 603.839,997.728ZM601.049,995.515C600.745,994.099 600.058,992.997 598.986,992.209C597.915,991.42 596.682,991.026 595.287,991.026C592.456,991.026 590.576,992.522 589.646,995.515L601.049,995.515Z" style="fill:black;fill-rule:nonzero;"/>
            <path d="M614.241,989.267L612.937,991.39C612.593,991.208 612.26,991.117 611.936,991.117C611.309,991.117 610.743,991.425 610.238,992.042C609.732,992.659 609.353,993.467 609.101,994.468C608.848,995.469 608.721,997.274 608.721,999.882L608.721,1005.55L606.174,1005.55L606.174,989.025L608.721,989.025L608.721,990.814C609.227,990.066 609.737,989.51 610.253,989.146C610.769,988.782 611.355,988.6 612.012,988.6C612.669,988.6 613.412,988.822 614.241,989.267Z" style="fill:black;fill-rule:nonzero;"/>
            <path d="M632.862,1005.55L630.405,1005.55L630.405,1003.13C628.606,1005.11 626.534,1006.1 624.188,1006.1C621.843,1006.1 619.836,1005.23 618.168,1003.51C616.5,1001.78 615.666,999.715 615.666,997.319C615.666,994.923 616.505,992.871 618.184,991.163C619.862,989.454 621.909,988.6 624.325,988.6C626.741,988.6 628.768,989.581 630.405,991.542L630.405,989.025L632.862,989.025L632.862,1005.55ZM624.37,1003.76C626.048,1003.76 627.494,1003.16 628.707,1001.94C629.92,1000.73 630.527,999.22 630.527,997.41C630.527,995.6 629.93,994.084 628.737,992.861C627.545,991.638 626.084,991.026 624.355,991.026C622.626,991.026 621.166,991.658 619.973,992.922C618.78,994.185 618.184,995.676 618.184,997.395C618.184,999.113 618.79,1000.6 620.003,1001.87C621.216,1003.13 622.672,1003.76 624.37,1003.76Z" style="fill:black;fill-rule:nonzero;"/>
            <path d="M650.088,1005.55L646.479,1005.55L638.715,998.578L638.715,1005.55L636.198,1005.55L636.198,982.807L638.715,982.807L638.715,995.272L645.842,989.055L649.572,989.025L640.474,996.91L650.088,1005.55Z" style="fill:black;fill-rule:nonzero;"/>
            <path d="M653.272,982.807C653.818,982.807 654.278,982.994 654.652,983.369C655.026,983.743 655.213,984.197 655.213,984.733C655.213,985.269 655.026,985.724 654.652,986.098C654.278,986.472 653.823,986.659 653.287,986.659C652.751,986.659 652.297,986.467 651.923,986.083C651.548,985.699 651.361,985.249 651.361,984.733C651.361,984.218 651.548,983.768 651.923,983.384C652.297,983 652.746,982.807 653.272,982.807ZM654.546,1005.55L652.029,1005.55L652.029,989.025L654.546,989.025L654.546,1005.55Z" style="fill:black;fill-rule:nonzero;"/>
        </g>
        <g transform="matrix(1,0,0,1,-4.11532,-0.209243)">
            <path d="M697.555,978.636C706.274,968.724 725.312,971.721 734.175,971.154C738.762,970.861 742.527,968.716 745.302,963.987C748.389,958.727 745.13,952.829 741.025,949.821C735.599,945.844 725.057,947.356 719.488,949.821C708.319,954.764 704.44,967.712 697.555,978.636Z" style="fill:rgb(108,127,138);stroke-width:2px;stroke:rgb(108,127,138);"/>
            <g transform="matrix(1,0,0,1,-0.70476,-1.55897)">
                <circle cx="727.134" cy="956.612" r="0.946" style="fill:white;stroke-width:2px;stroke:white;"/>
            </g>
            <g transform="matrix(1,0,0,1,-3.53374,-2.30895)">
                <path d="M726.016,962.628C725.852,969.343 741.852,968.975 741.857,962.628" style="fill:none;stroke-width:2px;stroke:white;"/>
            </g>
            <g transform="matrix(1,0,0,1,7.92268,-1.55897)">
                <circle cx="727.134" cy="956.612" r="0.946" style="fill:white;stroke-width:2px;stroke:white;"/>
            </g>
        </g>
    </g>
</svg>
