<?xml version="1.0" standalone="no"?>
<!DOCTYPE svg PUBLIC "-//W3C//DTD SVG 1.1//EN" "http://www.w3.org/Graphics/SVG/1.1/DTD/svg11.dtd">
<svg width="100%" height="100%" viewBox="0 0 1280 1150" version="1.1" xmlns="http://www.w3.org/2000/svg" xmlns:xlink="http://www.w3.org/1999/xlink" xml:space="preserve" style="fill-rule:evenodd;clip-rule:evenodd;stroke-linecap:round;stroke-linejoin:round;stroke-miterlimit:1.41421;">
    <g id="Hülle" transform="matrix(1,0,0,1,-19.8177,-48.606)">
        <g transform="matrix(1.65069,0,0,1.65069,-361.812,-259.979)">
            <path d="M431.08,287.918C399.727,287.918 375.83,311.254 375.83,336.303L375.83,755.055C375.83,783.377 388.744,792.437 413.212,792.437L804.381,792.437C827.239,792.437 841.763,783.061 841.763,755.055L841.763,336.303C841.763,302.513 825.286,287.918 793.379,287.918L431.08,287.918Z" style="fill:white;stroke-width:1.82px;stroke:black;"/>
        </g>
        <path d="M947.807,241.334C980.442,241.334 1001.62,252.558 1001.62,295.152L1001.62,992.051C1001.62,1011.57 994.693,1025.58 968.093,1025.58L320.4,1025.58C295.827,1025.58 286.869,1012.74 286.869,992.051L286.869,295.152C286.869,264.673 316.688,241.334 348.188,241.334L947.807,241.334Z" style="fill:rgb(217,217,217);stroke-width:7px;stroke:rgb(49,49,49);"/>
    </g>
    <g id="anzeige" transform="matrix(1,0,0,1,-167.183,-373.722)">
        <g transform="matrix(1.95723,0,-1.3593e-16,1.75398,-531.225,-819.642)">
            <path d="M532.5,1001.56C535.537,998.5 538.583,999.103 541.634,1001.56" style="fill:none;stroke-width:1.54px;stroke:rgb(240,241,243);"/>
            <path d="M529.218,994.65C534.394,990.708 539.528,990.83 544.623,994.65" style="fill:none;stroke-width:1.54px;stroke:rgb(240,241,243);"/>
            <path d="M526.539,988.847C533.32,983.95 540.233,983.383 547.33,988.847" style="fill:none;stroke-width:1.54px;stroke:rgb(240,241,243);"/>
        </g>
        <g transform="matrix(2.20926,-1.36589e-15,1.36589e-15,2.28526,-876.255,-1273.21)">
            <path d="M626.349,996.053L623.073,996.053L623.073,985.75L641.216,985.75L641.216,996.053L638.183,996.053" style="fill:none;stroke-width:1.33px;stroke:rgb(240,241,243);"/>
            <path d="M626.295,1003.22L637.337,1003.22L632.352,1003.22L632.352,995.421" style="fill:none;stroke-width:1.33px;stroke:rgb(240,241,243);"/>
        </g>
        <g id="Inet" transform="matrix(2.37756,-6.46563e-16,1.29313e-15,3.25362,-1232.94,-2382.96)">
            <g transform="matrix(1.27235,-0.227769,0.318368,1.77845,-475.111,-424.452)">
                <ellipse cx="729.346" cy="889.27" rx="6.378" ry="1.404" style="fill:none;stroke-width:0.56px;stroke:rgb(240,241,243);"/>
            </g>
            <g transform="matrix(1.09502,0,0,1.09781,-70.6185,8.19739)">
                <ellipse cx="737.796" cy="896.539" rx="5.426" ry="3.783" style="fill:none;stroke-width:0.8px;stroke:rgb(240,241,243);"/>
            </g>
        </g>
        <g id="power" transform="matrix(6.03392,-3.21319e-15,2.81154e-15,4.63073,-2291.65,-3764.6)">
            <g transform="matrix(0.74223,0,0,0.74223,119.215,252.802)">
                <circle cx="466.635" cy="978.914" r="4.395" style="fill:none;stroke-width:0.63px;stroke:rgb(240,241,243);"/>
            </g>
            <g transform="matrix(1,9.86076e-32,9.86076e-32,1.21477,-0.143123,-210.642)">
                <path d="M466.406,975.393C466.406,975.198 466.258,975.039 466.076,975.039L465.417,975.039C465.235,975.039 465.087,975.198 465.087,975.393L465.087,979.152C465.087,979.347 465.235,979.505 465.417,979.505L466.076,979.505C466.258,979.505 466.406,979.347 466.406,979.152L466.406,975.393Z" style="fill:rgb(217,217,217);stroke-width:0.43px;stroke:rgb(240,241,243);"/>
            </g>
        </g>
        <g transform="matrix(5.55112e-17,1,-1,5.55112e-17,930.087,897.652)">
            <path d="M197.504,396.759L202.543,396.759L204.36,406.357L207.008,396.759L212.036,396.759L214.696,406.357L216.512,396.759L221.528,396.759L217.743,413.939L212.54,413.939L209.528,403.123L206.528,413.939L201.325,413.939L197.504,396.759Z" style="fill:rgb(240,241,243);fill-rule:nonzero;"/>
            <path d="M223.251,396.759L232.075,396.759C233.997,396.759 235.436,397.216 236.393,398.13C237.35,399.044 237.829,400.345 237.829,402.033C237.829,403.767 237.307,405.123 236.264,406.099C235.221,407.076 233.629,407.564 231.489,407.564L228.583,407.564L228.583,413.939L223.251,413.939L223.251,396.759ZM228.583,404.083L229.883,404.083C230.907,404.083 231.626,403.906 232.04,403.55C232.454,403.195 232.661,402.74 232.661,402.185C232.661,401.646 232.481,401.189 232.122,400.814C231.762,400.439 231.086,400.251 230.094,400.251L228.583,400.251L228.583,404.083Z" style="fill:rgb(240,241,243);fill-rule:nonzero;"/>
            <path d="M239.68,408.255L244.731,407.939C244.84,408.759 245.063,409.384 245.399,409.814C245.946,410.509 246.727,410.857 247.743,410.857C248.501,410.857 249.084,410.679 249.495,410.324C249.905,409.968 250.11,409.556 250.11,409.087C250.11,408.642 249.915,408.244 249.524,407.892C249.133,407.54 248.227,407.208 246.805,406.896C244.477,406.373 242.817,405.677 241.825,404.81C240.825,403.943 240.325,402.837 240.325,401.494C240.325,400.611 240.581,399.777 241.092,398.992C241.604,398.206 242.374,397.589 243.401,397.14C244.428,396.691 245.836,396.466 247.626,396.466C249.821,396.466 251.495,396.874 252.647,397.691C253.799,398.507 254.485,399.806 254.704,401.587L249.7,401.88C249.567,401.107 249.288,400.544 248.862,400.193C248.436,399.841 247.848,399.665 247.098,399.665C246.481,399.665 246.016,399.796 245.704,400.058C245.391,400.32 245.235,400.638 245.235,401.013C245.235,401.287 245.364,401.533 245.622,401.751C245.872,401.978 246.465,402.189 247.403,402.384C249.723,402.884 251.385,403.39 252.389,403.902C253.393,404.414 254.124,405.048 254.581,405.806C255.038,406.564 255.266,407.412 255.266,408.349C255.266,409.451 254.961,410.466 254.352,411.396C253.743,412.326 252.891,413.031 251.797,413.511C250.704,413.992 249.325,414.232 247.661,414.232C244.739,414.232 242.715,413.669 241.59,412.544C240.465,411.419 239.829,409.99 239.68,408.255Z" style="fill:rgb(240,241,243);fill-rule:nonzero;"/>
            <path d="M260.481,396.466L262.918,396.466L258.606,414.22L256.192,414.22L260.481,396.466Z" style="fill:rgb(240,241,243);fill-rule:nonzero;"/>
            <path d="M264.676,413.939L264.676,396.759L273.524,396.759C275.165,396.759 276.418,396.9 277.286,397.181C278.153,397.462 278.852,397.984 279.383,398.746C279.915,399.507 280.18,400.435 280.18,401.529C280.18,402.482 279.977,403.304 279.571,403.996C279.165,404.687 278.606,405.248 277.895,405.677C277.442,405.951 276.821,406.177 276.032,406.357C276.665,406.568 277.126,406.779 277.415,406.99C277.61,407.13 277.893,407.431 278.264,407.892C278.635,408.353 278.883,408.708 279.008,408.958L281.575,413.939L275.575,413.939L272.739,408.689C272.379,408.009 272.059,407.568 271.778,407.365C271.395,407.099 270.961,406.966 270.477,406.966L270.008,406.966L270.008,413.939L264.676,413.939ZM270.008,403.72L272.247,403.72C272.489,403.72 272.958,403.642 273.653,403.486C274.004,403.415 274.292,403.236 274.514,402.947C274.737,402.658 274.848,402.326 274.848,401.951C274.848,401.396 274.672,400.97 274.321,400.673C273.969,400.376 273.309,400.228 272.34,400.228L270.008,400.228L270.008,403.72Z" style="fill:rgb(240,241,243);fill-rule:nonzero;"/>
            <path d="M283.262,396.759L297.489,396.759L297.489,400.427L288.583,400.427L288.583,403.158L296.844,403.158L296.844,406.662L288.583,406.662L288.583,410.048L297.747,410.048L297.747,413.939L283.262,413.939L283.262,396.759Z" style="fill:rgb(240,241,243);fill-rule:nonzero;"/>
            <path d="M299.68,408.255L304.731,407.939C304.84,408.759 305.063,409.384 305.399,409.814C305.946,410.509 306.727,410.857 307.743,410.857C308.501,410.857 309.084,410.679 309.495,410.324C309.905,409.968 310.11,409.556 310.11,409.087C310.11,408.642 309.915,408.244 309.524,407.892C309.133,407.54 308.227,407.208 306.805,406.896C304.477,406.373 302.817,405.677 301.825,404.81C300.825,403.943 300.325,402.837 300.325,401.494C300.325,400.611 300.581,399.777 301.092,398.992C301.604,398.206 302.374,397.589 303.401,397.14C304.428,396.691 305.836,396.466 307.626,396.466C309.821,396.466 311.495,396.874 312.647,397.691C313.799,398.507 314.485,399.806 314.704,401.587L309.7,401.88C309.567,401.107 309.288,400.544 308.862,400.193C308.436,399.841 307.848,399.665 307.098,399.665C306.481,399.665 306.016,399.796 305.704,400.058C305.391,400.32 305.235,400.638 305.235,401.013C305.235,401.287 305.364,401.533 305.622,401.751C305.872,401.978 306.465,402.189 307.403,402.384C309.723,402.884 311.385,403.39 312.389,403.902C313.393,404.414 314.124,405.048 314.581,405.806C315.038,406.564 315.266,407.412 315.266,408.349C315.266,409.451 314.961,410.466 314.352,411.396C313.743,412.326 312.891,413.031 311.797,413.511C310.704,413.992 309.325,414.232 307.661,414.232C304.739,414.232 302.715,413.669 301.59,412.544C300.465,411.419 299.829,409.99 299.68,408.255Z" style="fill:rgb(240,241,243);fill-rule:nonzero;"/>
            <path d="M317.926,396.759L332.153,396.759L332.153,400.427L323.247,400.427L323.247,403.158L331.508,403.158L331.508,406.662L323.247,406.662L323.247,410.048L332.411,410.048L332.411,413.939L317.926,413.939L317.926,396.759Z" style="fill:rgb(240,241,243);fill-rule:nonzero;"/>
            <path d="M334.063,396.759L350.2,396.759L350.2,401.001L344.786,401.001L344.786,413.939L339.477,413.939L339.477,401.001L334.063,401.001L334.063,396.759Z" style="fill:rgb(240,241,243);fill-rule:nonzero;"/>
        </g>
    </g>
    <g transform="matrix(1,0,0,1,0,17.9104)">
        <path d="M389.189,697.556L389.189,858.174C389.189,877.264 417.478,878.654 417.478,858.174L417.478,697.556C417.478,680.33 389.189,679.183 389.189,697.556Z" style="fill:rgb(92,123,30);stroke-width:4px;stroke:rgb(218,224,220);"/>
        <path d="M393.108,745.664L393.108,858.174C393.123,872.631 413.589,872.982 413.589,858.174L413.589,745.664C413.589,732.561 393.095,732.439 393.108,745.664Z" style="fill:rgb(178,210,65);stroke-width:4px;stroke:rgb(154,184,112);"/>
    </g>
    <g transform="matrix(1,0,0,1,0,-206.393)">
        <path d="M389.189,568.687L389.189,858.174C389.189,877.264 417.478,878.654 417.478,858.174L417.478,568.687C417.478,551.46 389.189,550.314 389.189,568.687Z" style="fill:rgb(92,123,30);stroke-width:4px;stroke:rgb(218,224,220);"/>
        <g transform="matrix(1,0,0,1,0,-1.65514)">
            <path d="M393.108,811.201L393.108,852.151C393.123,866.607 413.589,866.958 413.589,852.151L413.589,811.201C413.589,798.098 393.095,797.975 393.108,811.201Z" style="fill:rgb(178,210,65);stroke-width:4px;stroke:rgb(154,184,112);"/>
        </g>
        <g transform="matrix(1,0,0,1,0,-79.4185)">
            <path d="M393.108,811.201L393.108,852.151C393.123,866.607 413.589,866.958 413.589,852.151L413.589,811.201C413.589,798.098 393.095,797.975 393.108,811.201Z" style="fill:rgb(178,210,65);stroke-width:4px;stroke:rgb(154,184,112);"/>
        </g>
        <g transform="matrix(1,0,0,1,0,-157.331)">
            <path d="M393.108,811.201L393.108,852.151C393.123,866.607 413.589,866.958 413.589,852.151L413.589,811.201C413.589,798.098 393.095,797.975 393.108,811.201Z" style="fill:rgb(178,210,65);stroke-width:4px;stroke:rgb(154,184,112);"/>
        </g>
        <g transform="matrix(1,0,0,1,0,-234.199)">
            <path d="M393.108,811.201L393.108,852.151C393.123,866.607 413.589,866.958 413.589,852.151L413.589,811.201C413.589,798.098 393.095,797.975 393.108,811.201Z" style="fill:rgb(178,210,65);stroke-width:4px;stroke:rgb(154,184,112);"/>
        </g>
    </g>
</svg>
