<?xml version="1.0" encoding="UTF-8" standalone="no"?>
<!DOCTYPE svg PUBLIC "-//W3C//DTD SVG 1.1//EN" "http://www.w3.org/Graphics/SVG/1.1/DTD/svg11.dtd">
<svg width="100%" height="100%" viewBox="0 0 1280 1150" version="1.1" xmlns="http://www.w3.org/2000/svg" xmlns:xlink="http://www.w3.org/1999/xlink" xml:space="preserve" style="fill-rule:evenodd;clip-rule:evenodd;stroke-linecap:round;stroke-linejoin:round;stroke-miterlimit:1.41421;">
    <g id="openmesh-mr600-v1">
        <g transform="matrix(1.21892,0,0,1.12929,-47.1845,-31.8509)">
            <ellipse cx="563.499" cy="552.62" rx="399.74" ry="444.686" style="fill:rgb(219,219,219);stroke-width:3.83px;stroke:black;"/>
        </g>
        <g id="LED">
            <g transform="matrix(1,0,0,1,0.188652,0.956496)">
                <circle cx="497.487" cy="984.878" r="3.302" style="fill:black;stroke-width:4.5px;stroke:black;"/>
            </g>
            <g transform="matrix(1,0,0,1,73.1058,24.4726)">
                <circle cx="497.487" cy="984.878" r="3.302" style="fill:black;stroke-width:4.5px;stroke:black;"/>
            </g>
            <g transform="matrix(1,0,0,1,146.405,32.0253)">
                <circle cx="497.487" cy="984.878" r="3.302" style="fill:black;stroke-width:4.5px;stroke:black;"/>
            </g>
            <g transform="matrix(1,0,0,1,219.073,26.5229)">
                <circle cx="497.487" cy="984.878" r="3.302" style="fill:black;stroke-width:4.5px;stroke:black;"/>
            </g>
            <g transform="matrix(1,0,0,1,290.844,7.12077)">
                <circle cx="497.487" cy="984.878" r="3.302" style="fill:black;stroke-width:4.5px;stroke:black;"/>
            </g>
            <g transform="matrix(1,0,0,1,199.705,-815.533)">
                <circle cx="497.487" cy="984.878" r="3.302" style="fill:black;stroke-width:4.5px;stroke:black;"/>
            </g>
        </g>
        <g id="arrows" transform="matrix(1,0,0,1,-296.097,413.017)">
            <path d="M797.248,596.724L799.334,595.953C796.98,592.868 794.763,591.274 792.672,591.037C790.987,592.845 790.474,596.126 790.411,599.146L793.291,598.123C794.997,602.409 793.073,606.033 790.411,609.776C795.796,607.199 798.127,602.187 797.248,596.724Z" style="fill:rgb(159,164,169);stroke-width:0.9px;stroke:rgb(159,164,168);"/>
            <g transform="matrix(-1,3.21625e-16,-3.21625e-16,-1,1578.23,1201.72)">
                <path d="M797.248,596.724L799.334,595.953C796.98,592.868 794.763,591.274 792.672,591.037C790.987,592.845 790.474,596.126 790.411,599.146L793.291,598.123C794.997,602.409 793.073,606.033 790.411,609.776C795.796,607.199 798.127,602.187 797.248,596.724Z" style="fill:rgb(159,164,169);stroke-width:0.9px;stroke:rgb(159,164,168);"/>
            </g>
        </g>
        <g id="power" transform="matrix(1.78309,0,0,1.78309,-836.003,281.585)">
            <path d="M908.007,408.985L908.007,416.051" style="fill:none;stroke-width:0.84px;stroke:rgb(159,164,168);"/>
            <path d="M904.847,411.997C902.178,414.652 902.145,417.315 904.847,420.006C906.579,421.419 908.899,421.489 910.998,420.006C913.859,417.431 913.939,414.657 910.998,411.997" style="fill:none;stroke-width:0.84px;stroke:rgb(159,164,168);"/>
        </g>
        <g id="lan" transform="matrix(1,0,0,1,4.38424,-2.47108)">
            <g transform="matrix(0.541584,0,0,0.562151,443.049,480.922)">
                <circle cx="497.487" cy="984.878" r="3.302" style="fill:rgb(159,164,168);"/>
            </g>
            <g transform="matrix(0.541584,0,0,0.562151,437.545,493.558)">
                <circle cx="497.487" cy="984.878" r="3.302" style="fill:rgb(159,164,168);"/>
            </g>
            <g transform="matrix(0.541584,0,0,0.562151,446.201,493.558)">
                <circle cx="497.487" cy="984.878" r="3.302" style="fill:rgb(159,164,168);"/>
            </g>
            <path d="M706.953,1047.21L706.953,1041.3L715.628,1041.3L715.628,1047.21" style="fill:none;stroke-width:0.8px;stroke:rgb(159,164,168);"/>
            <path d="M712.67,1034.6L712.67,1041.3L705.055,1041.3L718.447,1041.3" style="fill:none;stroke-width:0.8px;stroke:rgb(159,164,168);"/>
        </g>
        <g transform="matrix(0.86,0,0,1,78.2047,0)">
            <path d="M566.599,1031.14L562.482,1031.14L561.953,1034.01C562.412,1033.89 562.845,1033.83 563.251,1033.83C564.287,1033.83 565.152,1034.2 565.846,1034.93C566.54,1035.66 566.888,1036.59 566.888,1037.72C566.888,1038.86 566.514,1039.83 565.766,1040.63C565.018,1041.44 564.02,1041.84 562.77,1041.84C561.809,1041.84 560.997,1041.55 560.335,1040.96C559.673,1040.37 559.272,1039.57 559.133,1038.54L560.527,1038.54C560.666,1039.18 560.949,1039.67 561.376,1040.02C561.804,1040.36 562.29,1040.53 562.834,1040.53C563.561,1040.53 564.185,1040.25 564.709,1039.7C565.232,1039.15 565.494,1038.47 565.494,1037.66C565.494,1036.93 565.267,1036.34 564.813,1035.87C564.359,1035.4 563.747,1035.16 562.978,1035.16C562.209,1035.16 561.312,1035.38 560.287,1035.82L561.408,1029.83L566.599,1029.83L566.599,1031.14Z" style="fill:rgb(159,164,169);fill-rule:nonzero;"/>
            <path d="M580.81,1035.82C580.778,1037.72 580.225,1039.2 579.152,1040.26C578.078,1041.31 576.666,1041.84 574.914,1041.84C572.906,1041.84 571.304,1041.22 570.108,1039.99C568.912,1038.76 568.313,1037.31 568.313,1035.66C568.313,1034 568.912,1032.57 570.108,1031.36C571.304,1030.14 572.847,1029.54 574.738,1029.54C575.763,1029.54 576.716,1029.73 577.598,1030.11C578.479,1030.49 579.341,1031.07 580.185,1031.84L579.128,1032.85C578.476,1032.22 577.771,1031.74 577.013,1031.4C576.255,1031.07 575.475,1030.9 574.674,1030.9C573.873,1030.9 573.077,1031.11 572.287,1031.54C571.496,1031.97 570.877,1032.54 570.428,1033.27C569.98,1034 569.755,1034.78 569.755,1035.62C569.755,1036.94 570.249,1038.08 571.237,1039.06C572.225,1040.04 573.462,1040.53 574.946,1040.53C576.046,1040.53 576.997,1040.23 577.798,1039.62C578.599,1039.02 579.09,1038.19 579.272,1037.15L575.619,1037.15L575.619,1035.82L580.81,1035.82Z" style="fill:rgb(159,164,169);fill-rule:nonzero;"/>
        </g>
        <g transform="matrix(0.86,0,0,1,145.823,7.79876)">
            <path d="M567.016,1041.55L558.829,1041.55L563.395,1036.62C564.164,1035.81 564.709,1035.17 565.029,1034.7C565.35,1034.23 565.51,1033.69 565.51,1033.09C565.51,1032.5 565.277,1031.97 564.813,1031.52C564.348,1031.08 563.771,1030.85 563.083,1030.85C562.394,1030.85 561.82,1031.09 561.36,1031.58C560.901,1032.07 560.639,1032.76 560.575,1033.65L559.246,1033.65C559.299,1032.39 559.699,1031.39 560.447,1030.65C561.195,1029.91 562.1,1029.54 563.163,1029.54C564.225,1029.54 565.107,1029.88 565.806,1030.57C566.506,1031.26 566.856,1032.1 566.856,1033.09C566.856,1033.82 566.663,1034.5 566.279,1035.13C565.894,1035.76 565.312,1036.49 564.532,1037.32L561.841,1040.22L567.016,1040.22L567.016,1041.55Z" style="fill:rgb(159,164,169);fill-rule:nonzero;"/>
            <path d="M569.9,1038.81C570.199,1038.81 570.452,1038.92 570.661,1039.13C570.869,1039.33 570.973,1039.59 570.973,1039.89C570.973,1040.2 570.869,1040.46 570.661,1040.66C570.452,1040.87 570.201,1040.98 569.908,1040.98C569.614,1040.98 569.36,1040.87 569.147,1040.66C568.933,1040.44 568.826,1040.19 568.826,1039.89C568.826,1039.59 568.933,1039.33 569.147,1039.13C569.36,1038.92 569.611,1038.81 569.9,1038.81Z" style="fill:rgb(159,164,169);fill-rule:nonzero;"/>
            <path d="M580.473,1038.88L579.08,1038.88L579.08,1041.55L577.718,1041.55L577.718,1038.88L572.094,1038.88L578.679,1029.54L579.08,1029.54L579.08,1037.55L580.473,1037.55L580.473,1038.88ZM577.718,1037.55L577.718,1033.22L574.658,1037.55L577.718,1037.55Z" style="fill:rgb(159,164,169);fill-rule:nonzero;"/>
            <path d="M594.123,1035.82C594.091,1037.72 593.539,1039.2 592.465,1040.26C591.392,1041.31 589.979,1041.84 588.228,1041.84C586.22,1041.84 584.617,1041.22 583.421,1039.99C582.225,1038.76 581.627,1037.31 581.627,1035.66C581.627,1034 582.225,1032.57 583.421,1031.36C584.617,1030.14 586.161,1029.54 588.051,1029.54C589.077,1029.54 590.03,1029.73 590.911,1030.11C591.792,1030.49 592.655,1031.07 593.498,1031.84L592.441,1032.85C591.79,1032.22 591.085,1031.74 590.326,1031.4C589.568,1031.07 588.788,1030.9 587.987,1030.9C587.186,1030.9 586.39,1031.11 585.6,1031.54C584.81,1031.97 584.19,1032.54 583.742,1033.27C583.293,1034 583.069,1034.78 583.069,1035.62C583.069,1036.94 583.563,1038.08 584.551,1039.06C585.539,1040.04 586.775,1040.53 588.26,1040.53C589.36,1040.53 590.31,1040.23 591.111,1039.62C591.912,1039.02 592.404,1038.19 592.585,1037.15L588.932,1037.15L588.932,1035.82L594.123,1035.82Z" style="fill:rgb(159,164,169);fill-rule:nonzero;"/>
        </g>
    </g>
</svg>
