<?xml version="1.0" standalone="no"?>
<!DOCTYPE svg PUBLIC "-//W3C//DTD SVG 1.1//EN" "http://www.w3.org/Graphics/SVG/1.1/DTD/svg11.dtd">
<svg width="100%" height="100%" viewBox="0 0 1280 1150" version="1.1" xmlns="http://www.w3.org/2000/svg" xmlns:xlink="http://www.w3.org/1999/xlink" xml:space="preserve" style="fill-rule:evenodd;clip-rule:evenodd;stroke-linecap:round;stroke-linejoin:round;stroke-miterlimit:1.41421;">
    <g id="Antennen" transform="matrix(1,0,0,1,0,175)">
        <g id="Antenne Links" transform="matrix(1,0,0,1,-84.2542,82.2321)">
            <g transform="matrix(1,0,0,1,0,-175)">
                <path d="M203.453,70.788C205.015,73.562 227.22,67.242 230.549,63.801L229.271,65.541C229.273,65.552 230.184,69.762 229.9,69.182L231.502,68.518C228.242,72.289 209.825,78.123 204.451,75.952L206.598,76.289C206.598,73.814 205.813,73.911 205.813,71.733" style="fill:rgb(51,51,51);stroke-width:4.5px;stroke:black;"/>
            </g>
            <g transform="matrix(2.01999,0,0,2.067,-605.16,-358.194)">
                <path d="M400.247,122.805C400.173,121.923 396.634,107.112 397.514,104.982C398.44,102.739 400.737,101.614 403.097,101.235C405.315,100.878 407.965,100.915 409.533,103.017C411.183,105.23 413.579,118.811 413.702,119.408C409.31,121.972 404.818,123.219 400.199,122.817" style="fill:rgb(51,51,51);stroke-width:2.2px;stroke:black;"/>
            </g>
            <g transform="matrix(1,0,0,1,0,-175)">
                <path d="M334.177,691.561C313.065,595.614 250.901,357.426 250.284,338.969C249.886,327.06 246.72,305.189 243.694,284.795C232.318,208.129 208.205,94.706 204.542,77.172C214.483,76.233 223.942,74.299 231.654,68.748L231.622,68.639C232.891,73.493 239.854,109.39 250.793,155.166C271.017,239.801 301.785,359.762 313.787,390.711C330.69,434.297 384.513,668.297 388.207,682.768C381.344,683.655 345.191,689.606 334.004,691.761" style="fill:rgb(51,51,51);stroke-width:4.5px;stroke:black;"/>
            </g>
        </g>
        <g id="Antenne mitte" transform="matrix(0.97356,0.22843,-0.22843,0.97356,417.799,16.0427)">
            <g transform="matrix(1,0,0,1,0,-175)">
                <path d="M203.453,70.788C205.015,73.562 227.22,67.242 230.549,63.801L229.271,65.541C229.273,65.552 230.184,69.762 229.9,69.182L231.502,68.518C228.242,72.289 209.825,78.123 204.451,75.952L206.598,76.289C206.598,73.814 205.813,73.911 205.813,71.733" style="fill:rgb(51,51,51);stroke-width:4.5px;stroke:black;"/>
            </g>
            <g transform="matrix(2.01999,0,0,2.067,-605.16,-358.194)">
                <path d="M400.247,122.805C400.173,121.923 396.634,107.112 397.514,104.982C398.44,102.739 400.737,101.614 403.097,101.235C405.315,100.878 407.965,100.915 409.533,103.017C411.183,105.23 413.579,118.811 413.702,119.408C409.31,121.972 404.818,123.219 400.199,122.817" style="fill:rgb(51,51,51);stroke-width:2.2px;stroke:black;"/>
            </g>
            <g transform="matrix(1,0,0,1,0,-175)">
                <path d="M334.177,691.561C313.065,595.614 250.901,357.426 250.284,338.969C249.886,327.06 246.72,305.189 243.694,284.795C232.318,208.129 208.205,94.706 204.542,77.172C214.483,76.233 223.942,74.299 231.654,68.748L231.622,68.639C232.891,73.493 239.854,109.39 250.793,155.166C271.017,239.801 301.785,359.762 313.787,390.711C330.69,434.297 384.513,668.297 388.207,682.768C381.344,683.655 345.191,689.606 334.004,691.761" style="fill:rgb(51,51,51);stroke-width:4.5px;stroke:black;"/>
            </g>
        </g>
        <g id="Antenne Rechts" transform="matrix(1,0,0,1,102.921,78.172)">
            <g transform="matrix(2.01999,0,0,2.067,-605.16,-358.194)">
                <path d="M825.993,126.38C821.824,126.336 818.276,125.279 815.223,123.412C815.269,123.051 817.745,111.671 819.129,107.12C819.349,106.394 820.681,104.068 823.357,104.709C824.199,104.911 826.921,105.331 827.875,105.986C829.704,107.244 829.633,109.036 829.615,109.499C829.327,116.928 825.993,126.714 825.993,126.38Z" style="fill:rgb(51,51,51);stroke-width:2.2px;stroke:black;"/>
            </g>
            <g transform="matrix(1,0,0,1,0,-175)">
                <path d="M1062.23,84.228C1062.55,84.168 1045.31,81.921 1040,76.976L1041.51,76.886C1041.61,76.886 1042.72,74.109 1042.84,73.98L1041.55,71.98C1053.14,78.617 1063.13,78.462 1063.12,78.462L1061.23,78.616C1061.02,79.401 1059.74,81.837 1059.74,82.8" style="fill:rgb(51,51,51);stroke-width:4.5px;stroke:black;"/>
            </g>
            <g transform="matrix(1,0,0,1,0,-175)">
                <path d="M884.619,682.128C901.439,684.479 918.439,687.212 935.65,690.395C937.436,674.43 1007.15,387.839 1009,373.226C1013.43,338.35 1013.21,313.982 1029.13,232.748C1045.72,148.073 1058.5,100.965 1062.1,84.821C1049.88,82.468 1043.33,79.986 1040.12,77.427L1039.96,77.139C1039.73,78.056 1001.47,250.116 980.715,299.43C959.261,350.404 884.716,681.962 884.533,681.649" style="fill:rgb(51,51,51);stroke-width:4.5px;stroke:black;"/>
            </g>
        </g>
    </g>
    <g id="Ebene3" transform="matrix(1.35644,0,0,1.00745,-221.955,166.779)">
        <g transform="matrix(2.01999,0,0,2.067,-605.16,-358.194)">
            <path d="M384.426,581.705C387.85,611.954 429.081,618.323 494.443,621.559C532.51,623.444 572.75,625.184 617.801,625.1C687.405,624.971 759.064,623.966 801.874,614.745C829.468,608.802 836.591,599.572 841.43,583.869" style="fill:rgb(51,51,51);stroke-width:1.85px;stroke:black;"/>
        </g>
        <g transform="matrix(2.01999,0,0,2.067,-605.16,-358.194)">
            <path d="M459.932,424.666C435.622,429.775 415.363,444.853 406.205,469.952C397.617,493.491 372.746,557.171 383.452,579.775C394.541,603.188 409.138,606.935 442.908,611.302C499.762,618.654 663.063,622.097 794.191,610.731C800.215,610.209 834.747,604.302 841.758,582.592C854.5,543.134 830.355,471.537 810.379,446.628C802.205,436.436 783.069,427.285 769.842,424.666" style="fill:rgb(51,51,51);stroke-width:1.85px;stroke:black;"/>
        </g>
        <g transform="matrix(2.01999,0,0,2.067,-605.16,-358.194)">
            <path d="M818.153,458.252C833.099,505.267 833.269,545.24 830.665,555.68C824.855,578.972 812.617,583.763 792.003,586.937C746.329,593.971 622.023,595.547 492.14,591.024C453.267,589.67 407.308,586.199 400.05,570.438C390.23,549.114 394.798,494.94 424.25,442.545" style="fill:rgb(51,51,51);stroke-width:1.85px;stroke:black;"/>
        </g>
    </g>
    <g id="Ebene5" transform="matrix(1.35644,0,0,1.00745,-221.955,166.779)">
        <g transform="matrix(2.13829,0,0,2.3016,-675.165,-467.793)">
            <path d="M761.082,429.298C724.101,417.26 576.766,418.633 574.981,418.521C569.391,418.172 515.227,419.387 471,428C451.664,431.765 422.237,454.424 420.055,537.067C419.863,544.335 417.636,555.171 446,560C470.106,564.104 627.781,566.003 652.444,565.805C673.805,565.633 769.169,564.99 782,561C813.289,551.27 808.18,538.861 805,496C801.139,443.957 761.082,429.298 761.082,429.298Z" style="fill:rgb(51,51,51);stroke-width:1.71px;stroke:black;"/>
        </g>
        <g transform="matrix(2.01999,0,0,2.067,-605.16,-358.194)">
            <path d="M762,429C725.019,416.962 575.849,417.76 575.131,417.694C569.555,417.177 515.227,419.387 471,428C451.664,431.765 421.742,454.334 421,537C420.935,544.207 426.929,558.44 446,560C458.007,560.982 627.337,564.198 652,564C673.361,563.829 770.538,563.464 782,561C812.373,554.471 808.563,530.469 805,496C799.633,444.078 762,429 762,429Z" style="fill:none;stroke-width:1.85px;stroke:black;"/>
        </g>
    </g>
    <g id="Ebene6" transform="matrix(1.35644,0,0,1.00745,-221.955,166.779)">
        <g transform="matrix(2.01999,0,0,2.067,-605.16,-358.194)">
            <path d="M745.061,430.752C745.061,430.752 771.111,434.968 775.543,443.454C804.653,499.195 796.945,548.74 784.4,550.109C714.159,557.777 546.983,554.526 522.298,553.941C451.402,552.262 435.256,552.029 433.351,532.225C429.961,496.984 444.811,465.922 451.213,452.955C461.607,431.9 489.914,429.555 504.555,427.388C547.069,421.095 677.887,418.985 745.061,430.752Z" style="fill:none;stroke-width:1.85px;stroke:black;"/>
        </g>
        <g transform="matrix(0.737223,0,0,0.992604,163.63,-165.546)">
            <path d="M388.273,935.756C222.321,935.377 183.01,932.531 179.112,914.221C167.186,860.814 180.039,805.975 222.584,747.369C244.284,725.626 310.779,716.128 388.273,709.637C557.242,698.971 726.17,697.297 895.037,709.637C961.403,713.306 1028.07,716.674 1067.22,747.369C1113.78,808.626 1118.06,868.639 1108.29,914.221C1084.61,933.245 1021.19,935.624 958.229,935.756C768.165,941.804 578.187,941.217 388.273,935.756Z" style="fill:none;stroke-width:4.5px;stroke:black;"/>
        </g>
    </g>
    <path d="M516.77,866.615C483.584,868.393 452.024,874.719 422.304,886.198C401.275,898.334 379.868,908.238 356.975,909.344C315.586,912.315 274.185,912.215 232.775,909.344C215.169,908.123 207.241,893.862 205.132,871.761C201.483,829.978 196.554,805.981 232.775,761.834C245.19,751.678 260.824,745.365 278.965,742.045C326.058,734.739 373.819,729.542 422.304,726.624C561.062,723.328 699.811,721.91 838.536,726.624C891.016,728.788 943.475,732.616 995.86,742.045C1062.42,754.528 1084.7,807.599 1084.42,871.761C1084.66,890.204 1083.41,904.111 1061.69,909.344C1021.04,911.181 980.331,911.181 939.575,909.344C915.429,907.346 893.9,899.847 875.299,886.198C851.073,874.025 825.221,868.191 798.276,866.615L516.77,866.615Z" style="fill:rgb(140,140,140);stroke-width:3px;stroke:black;"/>
    <g id="Anzeige" transform="matrix(1,0,0,1,5.67329,2.35944)">
        <clipPath id="_clip1">
            <path d="M449.554,906.713C576.23,907.713 702.726,908.309 828.244,906.713C846.747,902.549 855.624,897.182 839.96,888.752C827.699,883.002 814.664,880.447 801.151,879.869C697.844,878.303 594.55,878.724 491.262,879.869C473.419,881.167 460.444,884.139 449.554,888.752C433.895,894.376 432.084,900.321 449.554,906.713"/>
        </clipPath>
        <g clip-path="url(#_clip1)">
            <g id="leds anzeige" transform="matrix(1,0,0,1,0,-96.2592)">
                <g transform="matrix(0.562247,0,0,0.361457,248.385,633.435)">
                    <path d="M532.5,1001.56C535.537,998.5 538.583,999.103 541.634,1001.56" style="fill:none;stroke-width:3px;stroke:white;"/>
                    <path d="M529.218,994.65C534.394,990.708 539.528,990.83 544.623,994.65" style="fill:none;stroke-width:3px;stroke:white;"/>
                    <path d="M526.539,988.847C533.32,983.95 540.233,983.383 547.33,988.847" style="fill:none;stroke-width:3px;stroke:white;"/>
                </g>
                <g transform="matrix(0.562247,0,0,0.361457,211.181,633.481)">
                    <path d="M532.5,1001.56C535.537,998.5 538.583,999.103 541.634,1001.56" style="fill:none;stroke-width:3px;stroke:white;"/>
                    <path d="M529.218,994.65C534.394,990.708 539.528,990.83 544.623,994.65" style="fill:none;stroke-width:3px;stroke:white;"/>
                    <path d="M526.539,988.847C533.32,983.95 540.233,983.383 547.33,988.847" style="fill:none;stroke-width:3px;stroke:white;"/>
                </g>
                <g transform="matrix(0.790986,0,0,0.513869,87.2669,481.864)">
                    <path d="M626.349,996.053L623.073,996.053L623.073,985.75L641.216,985.75L641.216,996.053L638.183,996.053" style="fill:none;stroke-width:3px;stroke:white;"/>
                    <path d="M626.295,1003.22L637.337,1003.22L632.352,1003.22L632.352,995.421" style="fill:none;stroke-width:3px;stroke:white;"/>
                </g>
                <g transform="matrix(0.790986,0,0,0.513869,124.137,481.465)">
                    <path d="M626.349,996.053L623.073,996.053L623.073,985.75L641.216,985.75L641.216,996.053L638.183,996.053" style="fill:none;stroke-width:3px;stroke:white;"/>
                    <path d="M626.295,1003.22L637.337,1003.22L632.352,1003.22L632.352,995.421" style="fill:none;stroke-width:3px;stroke:white;"/>
                </g>
                <g transform="matrix(0.790986,0,0,0.513869,161.165,481.45)">
                    <path d="M626.349,996.053L623.073,996.053L623.073,985.75L641.216,985.75L641.216,996.053L638.183,996.053" style="fill:none;stroke-width:3px;stroke:white;"/>
                    <path d="M626.295,1003.22L637.337,1003.22L632.352,1003.22L632.352,995.421" style="fill:none;stroke-width:3px;stroke:white;"/>
                </g>
                <g transform="matrix(0.790986,0,0,0.513869,198.269,481.971)">
                    <path d="M626.349,996.053L623.073,996.053L623.073,985.75L641.216,985.75L641.216,996.053L638.183,996.053" style="fill:none;stroke-width:3px;stroke:white;"/>
                    <path d="M626.295,1003.22L637.337,1003.22L632.352,1003.22L632.352,995.421" style="fill:none;stroke-width:3px;stroke:white;"/>
                </g>
                <g id="USB" transform="matrix(1,0,0,1,0,271.259)">
                    <g transform="matrix(1,0,0,1,0,-175)">
                        <ellipse cx="764.536" cy="895.504" rx="2.312" ry="1.381" style="fill:white;stroke-width:0.45px;stroke:white;"/>
                    </g>
                    <g transform="matrix(1,0,0,1,-1.00903,-175.976)">
                        <path d="M765.466,896.846L765.466,897.482L764.489,896.504L765.466,895.527L765.466,896.162L780.858,896.162L780.858,895.527L781.836,896.504L780.858,897.482L780.858,896.846L765.466,896.846Z" style="fill:white;stroke-width:0.45px;stroke:white;"/>
                    </g>
                    <g transform="matrix(1,0,0,1,0,-175)">
                        <path d="M772.025,895.465C772.081,897.23 774.347,897.765 777.731,897.676" style="fill:none;stroke-width:0.75px;stroke:white;"/>
                    </g>
                    <g transform="matrix(-0.0132607,0.933818,-0.825188,-0.0117181,1522.81,4.00262)">
                        <path d="M775.814,892.159L776.798,893.73L774.83,893.73L775.814,892.159Z" style="fill:white;stroke-width:0.51px;stroke:white;"/>
                    </g>
                    <g transform="matrix(-0.0132607,0.933818,-0.825188,-0.0117181,1525.23,8.7317)">
                        <path d="M775.814,892.159L776.798,893.73L774.83,893.73L775.814,892.159Z" style="fill:white;stroke-width:0.51px;stroke:white;"/>
                    </g>
                    <g transform="matrix(1,0,0,1,0,-175)">
                        <path d="M769.886,895.341C769.669,893.452 771.721,892.799 775.327,892.992" style="fill:none;stroke-width:0.75px;stroke:white;"/>
                    </g>
                </g>
                <g id="Lock">
                    <g transform="matrix(1,0,0,1,0,96.2592)">
                        <rect x="803.72" y="895.022" width="12.343" height="4.453" style="fill:white;stroke-width:0.75px;stroke:white;"/>
                    </g>
                    <g transform="matrix(1,0,0,1,0,96.2592)">
                        <path d="M805.459,895.022C808.026,891.519 810.793,891.626 813.741,895.022" style="fill:none;stroke-width:0.75px;stroke:white;"/>
                    </g>
                </g>
                <g transform="matrix(1,0,0,1,3.40418,97.6193)">
                    <text x="503.569px" y="902.401px" style="font-family:'Arial-Black';font-size:3px;fill:white;">2.4 GHz</text>
                </g>
                <g transform="matrix(1,0,0,1,40.8407,97.5394)">
                    <text x="503.569px" y="902.401px" style="font-family:'Arial-Black';font-size:3px;fill:white;">5 GHz</text>
                </g>
                <g id="Inet">
                    <g transform="matrix(1.27235,-0.227769,0.318368,1.77845,-475.111,-424.452)">
                        <ellipse cx="729.346" cy="889.27" rx="6.378" ry="1.404" style="fill:none;stroke-width:0.48px;stroke:white;"/>
                    </g>
                    <g transform="matrix(1.09502,0,0,1.09781,-70.6185,8.19739)">
                        <ellipse cx="737.796" cy="896.539" rx="5.426" ry="3.783" style="fill:none;stroke-width:0.68px;stroke:white;"/>
                    </g>
                </g>
                <g id="power">
                    <g transform="matrix(0.708125,0,0,1.00146,138.624,95.4281)">
                        <ellipse cx="476.583" cy="896.646" rx="8.07" ry="3.397" style="fill:none;stroke-width:1.73px;stroke:white;"/>
                    </g>
                    <g transform="matrix(1.61904,0,0,1.35889,-294.642,-224.773)">
                        <path d="M476.64,893.301C476.64,893.127 476.522,892.986 476.376,892.986L475.847,892.986C475.702,892.986 475.583,893.127 475.583,893.301L475.583,896.765C475.583,896.938 475.702,897.08 475.847,897.08L476.376,897.08C476.522,897.08 476.64,896.938 476.64,896.765L476.64,893.301Z" style="fill:white;"/>
                        <path d="M476.404,892.656L476.431,892.658L476.458,892.662L476.485,892.668L476.511,892.675L476.537,892.684L476.562,892.694L476.587,892.706L476.611,892.719L476.635,892.733L476.658,892.749L476.679,892.765L476.7,892.783L476.721,892.803L476.741,892.823L476.759,892.844L476.777,892.866L476.794,892.89L476.81,892.914L476.825,892.939L476.84,892.966L476.853,892.993L476.864,893.02L476.875,893.049L476.885,893.079L476.894,893.109L476.901,893.14L476.907,893.171L476.912,893.203L476.915,893.235L476.918,893.268L476.918,893.297L476.918,896.769L476.918,896.798L476.915,896.83L476.912,896.863L476.907,896.895L476.901,896.926L476.894,896.957L476.885,896.987L476.875,897.016L476.865,897.045L476.853,897.073L476.84,897.1L476.825,897.126L476.81,897.152L476.794,897.176L476.777,897.199L476.759,897.222L476.741,897.243L476.721,897.263L476.7,897.282L476.679,897.3L476.657,897.317L476.635,897.333L476.611,897.347L476.587,897.36L476.563,897.371L476.537,897.382L476.511,897.391L476.485,897.398L476.458,897.403L476.431,897.407L476.403,897.41L476.379,897.411L475.844,897.411L475.82,897.41L475.792,897.407L475.765,897.403L475.739,897.398L475.712,897.391L475.686,897.382L475.661,897.371L475.636,897.36L475.612,897.347L475.589,897.333L475.566,897.317L475.544,897.3L475.523,897.282L475.502,897.263L475.483,897.243L475.464,897.222L475.446,897.199L475.429,897.176L475.413,897.151L475.398,897.126L475.384,897.1L475.371,897.073L475.359,897.045L475.348,897.016L475.338,896.987L475.33,896.957L475.322,896.926L475.316,896.895L475.311,896.863L475.308,896.83L475.306,896.797L475.305,896.769L475.305,893.297L475.306,893.268L475.308,893.235L475.311,893.203L475.316,893.171L475.322,893.14L475.33,893.109L475.338,893.079L475.348,893.049L475.359,893.021L475.371,892.993L475.384,892.966L475.398,892.939L475.413,892.914L475.429,892.89L475.446,892.866L475.464,892.844L475.483,892.823L475.502,892.803L475.523,892.783L475.544,892.765L475.566,892.749L475.589,892.733L475.612,892.719L475.636,892.706L475.661,892.694L475.686,892.684L475.712,892.675L475.738,892.668L475.765,892.662L475.792,892.658L475.82,892.656L475.844,892.655L476.379,892.655L476.404,892.656ZM475.847,892.986L475.834,892.986L475.82,892.988L475.807,892.99L475.794,892.992L475.781,892.996L475.769,893L475.757,893.005L475.745,893.011L475.733,893.017L475.721,893.024L475.71,893.032L475.7,893.04L475.689,893.049L475.679,893.058L475.67,893.068L475.661,893.078L475.652,893.089L475.644,893.101L475.636,893.113L475.628,893.125L475.621,893.138L475.615,893.151L475.609,893.164L475.604,893.178L475.599,893.193L475.595,893.207L475.591,893.222L475.589,893.237L475.586,893.253L475.585,893.269L475.583,893.285L475.583,893.301L475.583,896.765L475.583,896.781L475.585,896.797L475.586,896.813L475.589,896.828L475.591,896.843L475.595,896.858L475.599,896.873L475.604,896.887L475.609,896.901L475.615,896.915L475.621,896.928L475.628,896.941L475.636,896.953L475.644,896.965L475.652,896.976L475.661,896.987L475.67,896.998L475.679,897.008L475.689,897.017L475.7,897.026L475.71,897.034L475.721,897.041L475.733,897.048L475.745,897.055L475.757,897.06L475.769,897.065L475.781,897.07L475.794,897.073L475.807,897.076L475.82,897.078L475.834,897.079L475.847,897.08L476.376,897.08L476.39,897.079L476.403,897.078L476.416,897.076L476.429,897.073L476.442,897.07L476.454,897.065L476.467,897.06L476.479,897.055L476.49,897.048L476.502,897.041L476.513,897.034L476.524,897.026L476.534,897.017L476.544,897.008L476.554,896.998L476.563,896.987L476.571,896.976L476.58,896.965L476.588,896.953L476.595,896.941L476.602,896.928L476.608,896.915L476.614,896.901L476.619,896.887L476.624,896.873L476.628,896.858L476.632,896.843L476.635,896.828L476.637,896.813L476.639,896.797L476.64,896.781L476.64,896.765L476.64,893.301L476.64,893.285L476.639,893.269L476.637,893.253L476.635,893.237L476.632,893.222L476.628,893.207L476.624,893.193L476.619,893.178L476.614,893.164L476.608,893.151L476.602,893.138L476.595,893.125L476.588,893.113L476.58,893.101L476.571,893.089L476.563,893.078L476.554,893.068L476.544,893.058L476.534,893.049L476.524,893.04L476.513,893.032L476.502,893.024L476.49,893.017L476.479,893.011L476.467,893.005L476.454,893L476.442,892.996L476.429,892.992L476.416,892.99L476.403,892.988L476.39,892.986L476.376,892.986L475.847,892.986Z" style="fill:rgb(51,51,51);"/>
                    </g>
                </g>
            </g>
        </g>
        <path d="M449.554,906.713C576.23,907.713 702.726,908.309 828.244,906.713C846.747,902.549 855.624,897.182 839.96,888.752C827.699,883.002 814.664,880.447 801.151,879.869C697.844,878.303 594.55,878.724 491.262,879.869C473.419,881.167 460.444,884.139 449.554,888.752C433.895,894.376 432.084,900.321 449.554,906.713" style="fill:none;stroke-width:2.5px;stroke:black;"/>
    </g>
</svg>
