<?xml version="1.0" standalone="no"?>
<!DOCTYPE svg PUBLIC "-//W3C//DTD SVG 1.1//EN" "http://www.w3.org/Graphics/SVG/1.1/DTD/svg11.dtd">
<svg width="100%" height="100%" viewBox="0 0 1280 1150" version="1.1" xmlns="http://www.w3.org/2000/svg" xmlns:xlink="http://www.w3.org/1999/xlink" xml:space="preserve" style="fill-rule:evenodd;clip-rule:evenodd;stroke-linecap:round;stroke-linejoin:round;stroke-miterlimit:1.41421;">
    <g>
        <g transform="matrix(0.801098,0,0,0.801098,111.492,33.8783)">
            <g id="Antenne Links">
                <g>
                    <g transform="matrix(1,0,0,1,-774.378,-3.15595)">
                        <path d="M1016.53,124.619L1020.93,301.171L1038.98,522.435L1043.24,1048.51L1043.34,1047.87C1042.55,1048.66 1036.04,1054.15 1004.23,1054.77C972.911,1055.37 970.935,1051.94 967.466,1051.24L967.191,1051.3L967.191,524.062L984.513,301.705L982.747,124.897C994.27,123.665 1005.51,123.655 1016.53,124.619Z" style="fill:rgb(178,180,179);stroke-width:4.37px;stroke:black;"/>
                    </g>
                    <g transform="matrix(1,0,0,1,-774.378,-3.15595)">
                        <path d="M984.703,117.906L984.703,124.656L982.618,124.676C996.416,123.902 1007.78,123.949 1017.13,124.676L1014.86,123.88L1014.86,118.475L1016.74,117.906C1007.39,117.18 996.023,117.133 982.225,117.906L982.438,117.653C982.428,113.255 981.481,92.528 982.438,76.704C983.201,64.092 991.781,61.281 998.604,61.255C1007.64,61.221 1015.03,65.675 1015.74,76.704C1016.77,92.72 1017.06,113.91 1017.08,117.653" style="fill:rgb(178,180,179);stroke-width:4.37px;stroke:black;"/>
                    </g>
                </g>
            </g>
        </g>
        <g transform="matrix(0.801098,0,0,0.801098,777.614,33.8783)">
            <g id="Antenne Rechts">
                <g>
                    <g transform="matrix(1,0,0,1,-774.378,-3.15595)">
                        <path d="M1016.53,124.619L1020.93,301.171L1038.98,522.435L1043.24,1048.51L1043.34,1047.87C1042.55,1048.66 1036.04,1054.15 1004.23,1054.77C972.911,1055.37 970.935,1051.94 967.466,1051.24L967.191,1051.3L967.191,524.062L984.513,301.705L982.747,124.897C994.27,123.665 1005.51,123.655 1016.53,124.619Z" style="fill:rgb(178,180,179);stroke-width:4.37px;stroke:black;"/>
                    </g>
                    <g transform="matrix(1,0,0,1,-774.378,-3.15595)">
                        <path d="M984.703,117.906L984.703,124.656L982.618,124.676C996.416,123.902 1007.78,123.949 1017.13,124.676L1014.86,123.88L1014.86,118.475L1016.74,117.906C1007.39,117.18 996.023,117.133 982.225,117.906L982.438,117.653C982.428,113.255 981.481,92.528 982.438,76.704C983.201,64.092 991.781,61.281 998.604,61.255C1007.64,61.221 1015.03,65.675 1015.74,76.704C1016.77,92.72 1017.06,113.91 1017.08,117.653" style="fill:rgb(178,180,179);stroke-width:4.37px;stroke:black;"/>
                    </g>
                </g>
            </g>
        </g>
        <g id="front">
            <g id="Füsse">
                <path d="M962.639,1069.2L983.568,1069.2L983.568,1077.09C976.577,1079.61 969.602,1079.4 962.639,1077.09L962.639,1069.2Z" style="fill:rgb(64,64,64);stroke-width:2px;stroke:black;"/>
                <g transform="matrix(1,0,0,1,-664.54,0)">
                    <path d="M962.639,1069.2L983.568,1069.2L983.568,1077.09C976.577,1079.61 969.602,1079.4 962.639,1077.09L962.639,1069.2Z" style="fill:rgb(64,64,64);stroke-width:2px;stroke:black;"/>
                </g>
            </g>
            <g transform="matrix(8.70703,0,0,1,-1991.17,0)">
                <rect x="258.358" y="1001.32" width="89.597" height="68.05" style="fill:rgb(191,191,191);stroke-width:0.48px;stroke:black;"/>
            </g>
            <g id="Luftlöcher" transform="matrix(1,0,0,1,0,-0.861289)">
                <rect x="463.586" y="1061.07" width="8.691" height="8.024" style="fill:rgb(252,252,252);stroke-width:0.5px;stroke:black;"/>
                <g transform="matrix(1,0,0,0.849209,-14.5257,161.209)">
                    <rect x="463.586" y="1061.07" width="8.691" height="8.024" style="fill:rgb(252,252,252);stroke-width:0.54px;stroke:black;"/>
                </g>
                <g transform="matrix(1,0,0,0.743303,-29.2282,274.432)">
                    <rect x="463.586" y="1061.07" width="8.691" height="8.024" style="fill:rgb(252,252,252);stroke-width:0.57px;stroke:black;"/>
                </g>
                <g transform="matrix(1,0,0,0.743303,-43.412,274.432)">
                    <rect x="463.586" y="1061.07" width="8.691" height="8.024" style="fill:rgb(252,252,252);stroke-width:0.57px;stroke:black;"/>
                </g>
                <g transform="matrix(1,0,0,0.690351,-57.2497,331.043)">
                    <rect x="463.586" y="1061.07" width="8.691" height="8.024" style="fill:rgb(252,252,252);stroke-width:0.58px;stroke:black;"/>
                </g>
                <g transform="matrix(1,0,0,0.637398,-71.4626,387.655)">
                    <rect x="463.586" y="1061.07" width="8.691" height="8.024" style="fill:rgb(252,252,252);stroke-width:0.6px;stroke:black;"/>
                </g>
                <g transform="matrix(1,0,0,0.557969,-85.9443,472.572)">
                    <rect x="463.586" y="1061.07" width="8.691" height="8.024" style="fill:rgb(252,252,252);stroke-width:0.62px;stroke:black;"/>
                </g>
                <g transform="matrix(1,0,0,0.505016,-99.2252,529.183)">
                    <rect x="463.586" y="1061.07" width="8.691" height="8.024" style="fill:rgb(252,252,252);stroke-width:0.63px;stroke:black;"/>
                </g>
                <g transform="matrix(1,0,0,0.425587,-112.665,614.1)">
                    <rect x="463.586" y="1061.07" width="8.691" height="8.024" style="fill:rgb(252,252,252);stroke-width:0.65px;stroke:black;"/>
                </g>
                <g transform="matrix(1,0,0,0.354225,-128.799,690.392)">
                    <rect x="463.586" y="1061.07" width="8.691" height="8.024" style="fill:rgb(252,252,252);stroke-width:0.67px;stroke:black;"/>
                </g>
                <g transform="matrix(1,0,0,1,13.2535,0)">
                    <rect x="463.586" y="1061.07" width="8.691" height="8.024" style="fill:rgb(252,252,252);stroke-width:0.5px;stroke:black;"/>
                </g>
                <g transform="matrix(1,0,0,1,27.136,0)">
                    <rect x="463.586" y="1061.07" width="8.691" height="8.024" style="fill:rgb(252,252,252);stroke-width:0.5px;stroke:black;"/>
                </g>
                <g transform="matrix(1,0,0,1,41.812,0)">
                    <rect x="463.586" y="1061.07" width="8.691" height="8.024" style="fill:rgb(252,252,252);stroke-width:0.5px;stroke:black;"/>
                </g>
                <g transform="matrix(1,0,0,1,56.4497,0)">
                    <rect x="463.586" y="1061.07" width="8.691" height="8.024" style="fill:rgb(252,252,252);stroke-width:0.5px;stroke:black;"/>
                </g>
                <g transform="matrix(1,0,0,1,70.309,0)">
                    <rect x="463.586" y="1061.07" width="8.691" height="8.024" style="fill:rgb(252,252,252);stroke-width:0.5px;stroke:black;"/>
                </g>
                <g transform="matrix(1,0,0,1,84.7874,0)">
                    <rect x="463.586" y="1061.07" width="8.691" height="8.024" style="fill:rgb(252,252,252);stroke-width:0.5px;stroke:black;"/>
                </g>
                <g transform="matrix(1,0,0,1,98.8882,0)">
                    <rect x="463.586" y="1061.07" width="8.691" height="8.024" style="fill:rgb(252,252,252);stroke-width:0.5px;stroke:black;"/>
                </g>
                <g transform="matrix(1,0,0,1,113.101,0)">
                    <rect x="463.586" y="1061.07" width="8.691" height="8.024" style="fill:rgb(252,252,252);stroke-width:0.5px;stroke:black;"/>
                </g>
                <g transform="matrix(1,0,0,1,127.996,0)">
                    <rect x="463.586" y="1061.07" width="8.691" height="8.024" style="fill:rgb(252,252,252);stroke-width:0.5px;stroke:black;"/>
                </g>
                <g transform="matrix(1,0,0,1,141.058,0)">
                    <rect x="463.586" y="1061.07" width="8.691" height="8.024" style="fill:rgb(252,252,252);stroke-width:0.5px;stroke:black;"/>
                </g>
                <g transform="matrix(1,0,0,1,155.203,0)">
                    <rect x="463.586" y="1061.07" width="8.691" height="8.024" style="fill:rgb(252,252,252);stroke-width:0.5px;stroke:black;"/>
                </g>
                <g transform="matrix(1,0,0,1,169.608,0)">
                    <rect x="463.586" y="1061.07" width="8.691" height="8.024" style="fill:rgb(252,252,252);stroke-width:0.5px;stroke:black;"/>
                </g>
                <g transform="matrix(1,0,0,1,184.264,0)">
                    <rect x="463.586" y="1061.07" width="8.691" height="8.024" style="fill:rgb(252,252,252);stroke-width:0.5px;stroke:black;"/>
                </g>
                <g transform="matrix(1,0,0,1,198.312,0)">
                    <rect x="463.586" y="1061.07" width="8.691" height="8.024" style="fill:rgb(252,252,252);stroke-width:0.5px;stroke:black;"/>
                </g>
                <g transform="matrix(1,0,0,1,211.778,0)">
                    <rect x="463.586" y="1061.07" width="8.691" height="8.024" style="fill:rgb(252,252,252);stroke-width:0.5px;stroke:black;"/>
                </g>
                <g transform="matrix(1,0,0,1,226.4,0)">
                    <rect x="463.586" y="1061.07" width="8.691" height="8.024" style="fill:rgb(252,252,252);stroke-width:0.5px;stroke:black;"/>
                </g>
                <g transform="matrix(1,0,0,1,240.355,0)">
                    <rect x="463.586" y="1061.07" width="8.691" height="8.024" style="fill:rgb(252,252,252);stroke-width:0.5px;stroke:black;"/>
                </g>
                <g transform="matrix(1,0,0,1,255.085,0)">
                    <rect x="463.586" y="1061.07" width="8.691" height="8.024" style="fill:rgb(252,252,252);stroke-width:0.5px;stroke:black;"/>
                </g>
                <g transform="matrix(1,0,0,1,268.752,0)">
                    <rect x="463.586" y="1061.07" width="8.691" height="8.024" style="fill:rgb(252,252,252);stroke-width:0.5px;stroke:black;"/>
                </g>
                <g transform="matrix(1,0,0,1,283.296,0)">
                    <rect x="463.586" y="1061.07" width="8.691" height="8.024" style="fill:rgb(252,252,252);stroke-width:0.5px;stroke:black;"/>
                </g>
                <g transform="matrix(1,0,0,1,297.996,0)">
                    <rect x="463.586" y="1061.07" width="8.691" height="8.024" style="fill:rgb(252,252,252);stroke-width:0.5px;stroke:black;"/>
                </g>
                <g transform="matrix(1,0,0,1,312.017,0)">
                    <rect x="463.586" y="1061.07" width="8.691" height="8.024" style="fill:rgb(252,252,252);stroke-width:0.5px;stroke:black;"/>
                </g>
                <g transform="matrix(1,0,0,1,325.887,0)">
                    <rect x="463.586" y="1061.07" width="8.691" height="8.024" style="fill:rgb(252,252,252);stroke-width:0.5px;stroke:black;"/>
                </g>
                <g transform="matrix(1,0,0,1,340.425,0)">
                    <rect x="463.586" y="1061.07" width="8.691" height="8.024" style="fill:rgb(252,252,252);stroke-width:0.5px;stroke:black;"/>
                </g>
                <g transform="matrix(1,0,0,0.863171,354.723,146.283)">
                    <rect x="463.586" y="1061.07" width="8.691" height="8.024" style="fill:rgb(252,252,252);stroke-width:0.54px;stroke:black;"/>
                </g>
                <g transform="matrix(1,0,0,0.863171,368.025,146.283)">
                    <rect x="463.586" y="1061.07" width="8.691" height="8.024" style="fill:rgb(252,252,252);stroke-width:0.54px;stroke:black;"/>
                </g>
                <g transform="matrix(1,0,0,0.863171,381.677,146.283)">
                    <rect x="463.586" y="1061.07" width="8.691" height="8.024" style="fill:rgb(252,252,252);stroke-width:0.54px;stroke:black;"/>
                </g>
                <g transform="matrix(1,0,0,0.863171,395.53,146.283)">
                    <rect x="463.586" y="1061.07" width="8.691" height="8.024" style="fill:rgb(252,252,252);stroke-width:0.54px;stroke:black;"/>
                </g>
                <g transform="matrix(1,0,0,0.685903,409.848,335.798)">
                    <rect x="463.586" y="1061.07" width="8.691" height="8.024" style="fill:rgb(252,252,252);stroke-width:0.58px;stroke:black;"/>
                </g>
                <g transform="matrix(1,0,0,0.685903,424.12,335.798)">
                    <rect x="463.586" y="1061.07" width="8.691" height="8.024" style="fill:rgb(252,252,252);stroke-width:0.58px;stroke:black;"/>
                </g>
                <g transform="matrix(1,0,0,0.507602,436.222,526.419)">
                    <rect x="463.586" y="1061.07" width="8.691" height="8.024" style="fill:rgb(252,252,252);stroke-width:0.63px;stroke:black;"/>
                </g>
                <g transform="matrix(1,0,0,0.428173,450.891,611.335)">
                    <rect x="463.586" y="1061.07" width="8.691" height="8.024" style="fill:rgb(252,252,252);stroke-width:0.65px;stroke:black;"/>
                </g>
                <g transform="matrix(1,0,0,0.35681,464.634,687.628)">
                    <rect x="463.586" y="1061.07" width="8.691" height="8.024" style="fill:rgb(252,252,252);stroke-width:0.67px;stroke:black;"/>
                </g>
                <g transform="matrix(1,0,0,0.285448,478.631,763.921)">
                    <rect x="463.586" y="1061.07" width="8.691" height="8.024" style="fill:rgb(252,252,252);stroke-width:0.68px;stroke:black;"/>
                </g>
            </g>
        </g>
        <g id="Rumpf">
            <path id="rumpf" d="M333.664,799.678C532.503,769.021 730.251,760.501 925.651,799.678C957.438,806.702 989.474,817.784 1021.98,836.583C1044.07,852.231 1062.7,872.347 1073.72,902.292C1081.51,926.917 1087.58,952.223 1091.06,978.561C1092.41,1004.14 1089.26,1023.05 1080.14,1043.12C1064.77,1060.88 1051.71,1067.72 1040.08,1067.8C1028.85,1068.95 1017.63,1068.84 1006.43,1067.8C998.786,1067.6 974.814,1057.33 944.435,1043.12C898.108,1020.69 849.143,1010.66 798.591,1008.1C694.769,1003.19 591.058,1004.91 487.396,1009.57C429.266,1013.49 389.283,1023.7 342.918,1043.12C316.968,1054.97 294.621,1064.02 268.107,1067.8C259.407,1068.95 250.741,1069.1 242.125,1067.8C223.901,1064.93 209.45,1056.43 198.229,1043.12C185.797,1025.4 178.288,1004.67 179.61,978.561C180.836,953.205 183.691,927.811 191.83,902.292C202.163,870.894 225.168,843.411 268.107,822.087C289.844,811.598 311.706,803.487 333.664,799.678Z" style="fill:rgb(21,37,73);stroke-width:3px;stroke-linecap:butt;stroke:black;"/>
            <path d="M1031.15,1067.93C1004.93,1063.07 975.936,1051.8 952.056,1040.41C901.178,1012.7 832.58,1004.8 815.563,1003.41C739.966,997.222 560.97,996.738 484.412,1003.41C424.377,1008.64 394.852,1015.22 336.228,1040.41C309.569,1051.86 284.676,1063.12 258.504,1068.24" style="fill:none;stroke-width:2px;stroke:black;"/>
        </g>
        <g id="Anzeige" transform="matrix(1,0,0,1,32.809,35.7609)">
            <g transform="matrix(1,0,0,1,-32.809,-35.7609)">
                <path d="M430.441,988.203C419.628,989.192 420.367,975.03 430.441,974.286C572.808,963.773 715.266,959.794 857.715,974.286C867.437,975.275 870.11,989.646 857.715,988.203C715.303,971.63 572.741,975.187 430.441,988.203Z" style="fill:rgb(200,200,200);stroke-width:1px;stroke:black;"/>
            </g>
            <g transform="matrix(0.465419,0.0165662,-0.01065,0.299208,416.069,629.079)">
                <path d="M532.5,1001.56C535.537,998.5 538.583,999.103 541.634,1001.56" style="fill:none;stroke-width:3px;stroke:rgb(126,126,126);"/>
                <path d="M529.218,994.65C534.394,990.708 539.528,990.83 544.623,994.65" style="fill:none;stroke-width:3px;stroke:rgb(126,126,126);"/>
                <path d="M526.539,988.847C533.32,983.95 540.233,983.383 547.33,988.847" style="fill:none;stroke-width:3px;stroke:rgb(126,126,126);"/>
            </g>
            <g transform="matrix(0.598014,0.0483579,-0.0483579,0.598014,792.04,452.007)">
                <g transform="matrix(1.24829,0,0,1.24829,-967.084,-39.1563)">
                    <ellipse cx="763.819" cy="683.817" rx="1.006" ry="1.047" style="fill:rgb(126,126,126);stroke-width:1.34px;stroke-linecap:butt;stroke:rgb(126,126,126);"/>
                </g>
                <g transform="matrix(1.24829,0,0,1.24829,-967.084,-39.1563)">
                    <path d="M767.504,680.221C769.733,682.742 769.598,685.281 767.504,687.834" style="fill:none;stroke-width:1.34px;stroke-linecap:butt;stroke:rgb(126,126,126);"/>
                </g>
                <g transform="matrix(1.24829,0,0,2.04396,-960.318,-583.358)">
                    <path d="M767.504,680.221C769.733,682.742 769.598,685.281 767.504,687.834" style="fill:none;stroke-width:0.98px;stroke-linecap:butt;stroke:rgb(126,126,126);"/>
                </g>
            </g>
            <g transform="matrix(0.516725,-0.012659,0.00822399,0.335693,249.464,609.672)">
                <path d="M626.349,996.053L623.073,996.053L623.073,985.75L641.216,985.75L641.216,996.053L638.183,996.053" style="fill:none;stroke-width:3px;stroke:rgb(126,126,126);"/>
                <path d="M626.295,1003.22L637.337,1003.22L632.352,1003.22L632.352,995.421" style="fill:none;stroke-width:3px;stroke:rgb(126,126,126);"/>
            </g>
            <g transform="matrix(0.997903,-0.0647247,0.0541406,0.834721,-413.032,138.356)">
                <path d="M862.856,1021.29C862.582,1021.27 862.306,1021.27 862.031,1021.29L861.907,1021.95C861.645,1021.99 861.388,1022.05 861.14,1022.15L860.707,1021.65C860.456,1021.76 860.217,1021.9 859.993,1022.06L860.211,1022.69C860.004,1022.85 859.815,1023.04 859.65,1023.25L859.024,1023.03C858.863,1023.25 858.725,1023.49 858.611,1023.75L859.113,1024.18C859.017,1024.42 858.948,1024.68 858.908,1024.94L858.256,1025.07C858.229,1025.34 858.229,1025.62 858.256,1025.89L858.908,1026.02C858.948,1026.28 859.017,1026.54 859.113,1026.79L858.611,1027.22C858.725,1027.47 858.863,1027.71 859.024,1027.93L859.65,1027.71C859.815,1027.92 860.004,1028.11 860.211,1028.28L859.993,1028.9C860.217,1029.06 860.456,1029.2 860.707,1029.31L861.14,1028.81C861.388,1028.91 861.645,1028.98 861.907,1029.02L862.031,1029.67C862.306,1029.7 862.582,1029.7 862.856,1029.67L862.98,1029.02C863.243,1028.98 863.5,1028.91 863.747,1028.81L864.18,1029.31C864.431,1029.2 864.671,1029.06 864.895,1028.9L864.676,1028.28C864.884,1028.11 865.072,1027.92 865.238,1027.71L865.864,1027.93C866.025,1027.71 866.163,1027.47 866.276,1027.22L865.774,1026.79C865.871,1026.54 865.94,1026.28 865.98,1026.02L866.631,1025.89C866.658,1025.62 866.658,1025.34 866.631,1025.07L865.98,1024.94C865.94,1024.68 865.871,1024.42 865.774,1024.18L866.276,1023.75C866.163,1023.49 866.025,1023.25 865.864,1023.03L865.238,1023.25C865.072,1023.04 864.884,1022.85 864.676,1022.69L864.895,1022.06C864.671,1021.9 864.431,1021.76 864.18,1021.65L863.747,1022.15C863.5,1022.05 863.243,1021.99 862.98,1021.95L862.856,1021.29ZM862.444,1024.64C862.908,1024.64 863.285,1025.02 863.285,1025.48C863.285,1025.95 862.908,1026.32 862.444,1026.32C861.979,1026.32 861.602,1025.95 861.602,1025.48C861.602,1025.02 861.979,1024.64 862.444,1024.64Z" style="fill:rgb(126,126,126);stroke-width:0.76px;stroke:rgb(126,126,126);"/>
            </g>
            <g id="power" transform="matrix(0.997659,-0.0683883,0.0683883,0.997659,-95.717,-2.12457)">
                <g transform="matrix(0.74223,0,0,0.74223,119.215,252.802)">
                    <circle cx="466.635" cy="978.914" r="4.395" style="fill:none;stroke-width:0.94px;stroke:rgb(126,126,126);"/>
                </g>
                <g transform="matrix(1,0,0,1,-0.143123,-0.270002)">
                    <path d="M466.406,975.369C466.406,975.187 466.258,975.039 466.076,975.039L465.417,975.039C465.235,975.039 465.087,975.187 465.087,975.369L465.087,979.176C465.087,979.358 465.235,979.505 465.417,979.505L466.076,979.505C466.258,979.505 466.406,979.358 466.406,979.176L466.406,975.369Z" style="fill:rgb(126,126,126);stroke-width:0.7px;stroke:rgb(200,200,200);"/>
                </g>
            </g>
        </g>
    </g>
</svg>
