<?xml version="1.0" encoding="UTF-8" standalone="no"?>
<!DOCTYPE svg PUBLIC "-//W3C//DTD SVG 1.1//EN" "http://www.w3.org/Graphics/SVG/1.1/DTD/svg11.dtd">
<svg width="100%" height="100%" viewBox="0 0 1280 1150" version="1.1" xmlns="http://www.w3.org/2000/svg" xmlns:xlink="http://www.w3.org/1999/xlink" xml:space="preserve" xmlns:serif="http://www.serif.com/" style="fill-rule:evenodd;clip-rule:evenodd;stroke-linecap:round;stroke-linejoin:round;stroke-miterlimit:1.41421;">
    <path d="M1012,952L1030,951L1056,940L1080,400C670.65,340.658 370.032,363.267 180,420L208,965L242,968L1012,952Z" style="fill:rgb(223,224,229);stroke:rgb(125,126,131);stroke-width:1px;"/>
    <g>
        <g transform="matrix(0.998001,-0.0631939,0.0631939,0.998001,-27.8009,23.0193)">
            <path d="M373,442L327,442L325.353,460.461L373,460L373,442Z" style="stroke:black;stroke-width:1px;"/>
        </g>
        <path d="M637,427L958,425.5C982.533,425.385 1007.59,425.824 1032,428C1037.74,428.512 1042.2,435.102 1045.5,439L1045,448L637,445L637,427Z" style="stroke:rgb(125,126,131);stroke-width:1px;"/>
        <rect x="371" y="416" width="127" height="42" style="fill:rgb(223,224,229);stroke:black;stroke-width:1px;"/>
        <rect x="515" y="412" width="126" height="34" style="fill:rgb(223,224,229);stroke:black;stroke-width:1px;"/>
        <rect x="724" y="413" width="12" height="25" style="fill:rgb(223,224,229);stroke:rgb(125,126,131);stroke-width:1px;"/>
        <rect x="832" y="411" width="13" height="26" style="fill:rgb(223,224,229);stroke:rgb(125,126,131);stroke-width:1px;"/>
        <rect x="939" y="411" width="11" height="27" style="fill:rgb(223,224,229);stroke:rgb(125,126,131);stroke-width:1px;"/>
    </g>
    <path d="M230,980C412.866,1026.97 950.005,995.205 1017,958C1026.73,948.437 1029.05,937.752 1033,923C1049.67,860.835 1059.26,681.198 1059,452C1052.1,439.53 1041.28,434.824 1029,433C733.7,432.212 490.508,437.717 320,452C314.465,589.674 301.191,654.873 281.5,660C279.598,660.495 277.35,660.567 276.5,660C256.312,646.538 239.725,601.351 236,465C235.931,462.463 232.834,460.103 230,460C222.351,459.722 214.688,459.951 207,461C200.952,461.825 196.042,468.615 196,474.5C194.908,629.185 205.31,796.651 230,980Z" style="fill:rgb(152,24,49);stroke:black;stroke-width:1px;"/>
    <g id="Schlitze">
        <g>
            <g transform="matrix(1,0,0,1.1875,0,-104.438)">
                <path d="M1033,542.579C1033,541.475 1031.94,540.579 1030.62,540.579C799.734,538.642 569.174,541.867 339.375,557C338.064,557 337,557.896 337,559L337,563C337,564.104 338.064,565 339.375,565C568.487,552.456 799.031,547.672 1030.62,548.579C1031.94,548.579 1033,547.683 1033,546.579L1033,542.579Z" style="fill:none;stroke:rgb(136,10,32);stroke-width:0.91px;"/>
            </g>
            <g transform="matrix(1,0,0,1.1875,0,-124.604)">
                <path d="M1033,542.579C1033,541.475 1031.94,540.579 1030.62,540.579C799.734,538.642 569.174,541.867 339.375,557C338.064,557 337,557.896 337,559L337,563C337,564.104 338.064,565 339.375,565C568.487,552.456 799.031,547.672 1030.62,548.579C1031.94,548.579 1033,547.683 1033,546.579L1033,542.579Z" style="fill:none;stroke:rgb(136,10,32);stroke-width:0.91px;"/>
            </g>
            <g transform="matrix(1,0,0,1.1875,0,-144.583)">
                <path d="M1033,542.579C1033,541.475 1031.94,540.579 1030.62,540.579C799.734,538.642 569.174,541.867 339.375,557C338.064,557 337,557.896 337,559L337,563C337,564.104 338.064,565 339.375,565C568.487,552.456 799.031,547.672 1030.62,548.579C1031.94,548.579 1033,547.683 1033,546.579L1033,542.579Z" style="fill:none;stroke:rgb(136,10,32);stroke-width:0.91px;"/>
            </g>
            <path d="M391.85,491.475L400,497.711C401.436,498.809 401.936,500.022 401.73,501.009C380.933,502.21 360.148,503.485 339.375,504.836C338.064,504.836 337,503.771 337,502.461L337,497.711C337,496.4 338.064,495.336 339.375,495.336C356.862,493.968 374.354,492.682 391.85,491.475ZM533.45,483.35L542,490C544.245,491.746 545.314,493.053 544.964,493.893C521.842,494.859 498.733,495.911 475.638,497.052C474.542,496.146 475.681,494.414 479,492L487.77,485.622C502.994,484.811 518.22,484.054 533.45,483.35ZM627.844,479.63C761.936,475.235 896.224,474.497 1030.62,475.836C1031.94,475.836 1033,476.9 1033,478.211L1033,482.961C1033,484.271 1031.94,485.336 1030.62,485.336C893.723,484.699 757.188,486.424 621.099,491.018C616.364,491.083 614.745,490.546 619,487L627.844,479.63Z" style="fill:none;stroke:rgb(136,10,32);stroke-width:1px;"/>
            <path d="M374.226,472.213L380.307,481.768C366.658,482.589 353.014,483.443 339.375,484.33C338.064,484.33 337,483.266 337,481.955L337,477.205C337,475.894 338.064,474.83 339.375,474.83C350.99,473.922 362.607,473.05 374.226,472.213ZM518,464L523.274,474.319C513.877,474.734 496,475 496,475L502.39,464.355C507.544,464.092 512.848,464.117 518,464ZM643.752,458C772.556,454.054 901.539,454.044 1030.62,455.33C1031.94,455.33 1033,456.394 1033,457.705L1033,462.455C1033,463.766 1031.94,464.83 1030.62,464.83C899.329,464.22 640,468 640,468L643.752,458Z" style="fill:none;stroke:rgb(136,10,32);stroke-width:1px;"/>
        </g>
        <g id="Stege">
            <rect x="730" y="450" width="288" height="105" style="stroke:rgb(136,10,32);stroke-width:1px;"/>
            <g transform="matrix(0.866667,0,0,1,52,0)">
                <rect x="390" y="480.5" width="15" height="104.5" style="fill:rgb(145,24,52);stroke:rgb(136,10,32);stroke-width:1.07px;"/>
            </g>
            <g transform="matrix(0.866667,0,0,1.19617,163.851,-114.761)">
                <rect x="390" y="480.5" width="15" height="104.5" style="fill:rgb(145,24,52);stroke:rgb(136,10,32);stroke-width:0.96px;"/>
            </g>
            <g transform="matrix(0.866667,0,0,1.05263,280.753,-30.7895)">
                <rect x="390" y="480.5" width="15" height="104.5" style="fill:rgb(145,24,52);stroke:rgb(136,10,32);stroke-width:1.04px;"/>
            </g>
            <g transform="matrix(0.866667,0,0,1.05263,387,-55.7895)">
                <rect x="390" y="480.5" width="15" height="104.5" style="fill:rgb(145,24,52);stroke:rgb(136,10,32);stroke-width:1.04px;"/>
            </g>
            <g transform="matrix(0.866667,0,0,1.05263,494.34,-55.7895)">
                <rect x="390" y="480.5" width="15" height="104.5" style="fill:rgb(145,24,52);stroke:rgb(136,10,32);stroke-width:1.04px;"/>
            </g>
            <g transform="matrix(0.866667,0,0,1.05263,603.936,-55.7895)">
                <rect x="390" y="480.5" width="15" height="104.5" style="fill:rgb(145,24,52);stroke:rgb(136,10,32);stroke-width:1.04px;"/>
            </g>
        </g>
    </g>
    <g>
        <path d="M230,980C412.866,1026.97 950.005,995.205 1017,958C1026.73,948.437 1029.05,937.752 1033,923C1049.67,860.835 1059.26,681.198 1059,452C1052.1,439.53 1041.28,434.824 1029,433C733.7,432.212 490.508,437.717 320,452C314.465,589.674 301.191,654.873 281.5,660C279.598,660.495 277.35,660.567 276.5,660C256.312,646.538 239.725,601.351 236,465C235.931,462.463 232.834,460.103 230,460C222.351,459.722 214.688,459.951 207,461C200.952,461.825 196.042,468.615 196,474.5C194.908,629.185 205.31,796.651 230,980ZM1033,519.709C1033,518.398 1031.94,517.334 1030.62,517.334C799.734,515.034 569.174,518.863 339.375,536.834C338.064,536.834 337,537.898 337,539.209L337,543.959C337,545.269 338.064,546.334 339.375,546.334C568.487,531.438 799.031,525.757 1030.62,526.834C1031.94,526.834 1033,525.769 1033,524.459L1033,519.709ZM1033,499.729C1033,498.419 1031.94,497.354 1030.62,497.354C799.734,495.055 569.174,498.884 339.375,516.854C338.064,516.854 337,517.919 337,519.229L337,523.979C337,525.29 338.064,526.354 339.375,526.354C568.487,511.459 799.031,505.778 1030.62,506.854C1031.94,506.854 1033,505.79 1033,504.479L1033,499.729ZM391.85,491.475L400,497.711C401.436,498.809 401.936,500.022 401.73,501.009C380.933,502.21 360.148,503.485 339.375,504.836C338.064,504.836 337,503.771 337,502.461L337,497.711C337,496.4 338.064,495.336 339.375,495.336C356.862,493.968 374.354,492.682 391.85,491.475ZM533.45,483.35L542,490C544.245,491.746 545.314,493.053 544.964,493.893C521.842,494.859 498.733,495.911 475.638,497.052C474.542,496.146 475.681,494.414 479,492L487.77,485.622C502.994,484.811 518.22,484.054 533.45,483.35ZM627.844,479.63C761.936,475.235 896.224,474.497 1030.62,475.836C1031.94,475.836 1033,476.9 1033,478.211L1033,482.961C1033,484.271 1031.94,485.336 1030.62,485.336C893.723,484.699 757.188,486.424 621.099,491.018C616.364,491.083 614.745,490.546 619,487L627.844,479.63ZM374.226,472.213L380.307,481.768C366.658,482.589 353.014,483.443 339.375,484.33C338.064,484.33 337,483.266 337,481.955L337,477.205C337,475.894 338.064,474.83 339.375,474.83C350.99,473.922 362.607,473.05 374.226,472.213ZM518,464L523.274,474.319C513.877,474.734 496,475 496,475L502.39,464.355C507.544,464.092 512.848,464.117 518,464ZM643.752,458C772.556,454.054 901.539,454.044 1030.62,455.33C1031.94,455.33 1033,456.394 1033,457.705L1033,462.455C1033,463.766 1031.94,464.83 1030.62,464.83C899.329,464.22 640,468 640,468L643.752,458Z" style="fill:rgb(152,24,49);stroke:rgb(95,15,34);stroke-width:1px;"/>
    </g>
    <g id="Buttons">
        <g transform="matrix(1.10526,0,0,1.10526,95.9474,-56.5526)">
            <circle cx="437.5" cy="437.5" r="47.5" style="stroke:black;stroke-width:0.9px;"/>
        </g>
        <g transform="matrix(1.10526,0,0,1.10526,-47.5526,-50.5526)">
            <circle cx="437.5" cy="437.5" r="47.5" style="stroke:black;stroke-width:0.9px;"/>
        </g>
        <g transform="matrix(1,0,0,1,-1.5,-4.5)">
            <circle cx="437.5" cy="437.5" r="47.5" style="fill:rgb(238,238,240);stroke:black;stroke-width:1px;"/>
        </g>
        <g transform="matrix(1,0,0,1,142,-10.5)">
            <circle cx="437.5" cy="437.5" r="47.5" style="fill:rgb(238,238,240);stroke:black;stroke-width:1px;"/>
        </g>
        <g transform="matrix(1.52484,0,0,1,-285.279,-3)">
            <text x="543px" y="440px" style="font-family:'Swiss911BT-ExtraCompressed', 'Swiss911 XCm BT', sans-serif;font-stretch:condensed;font-size:27.769px;">WL<tspan x="568.817px 579.814px " y="440px 440px ">AN</tspan></text>
        </g>
        <g transform="matrix(1.52484,0,0,1,-420.302,2.99322)">
            <text x="543px" y="440px" style="font-family:'Swiss911BT-ExtraCompressed', 'Swiss911 XCm BT', sans-serif;font-stretch:condensed;font-size:27.769px;">WPS</text>
        </g>
    </g>
    <path d="M180,240C160.475,241.732 151.208,256.526 150,270C128.927,505.082 147.561,738.103 190,970C200.348,976.22 224.241,978.649 224,975C202.35,803.305 189.864,631.636 190,460C190.006,452.611 197.978,444.971 206,444C215.222,442.883 224.543,442.467 234,443C239.894,444.946 239.577,451.03 240,463C244.204,582.018 257.723,636.998 277,654C278.3,655.147 280.872,655.37 282,654C300.958,630.971 311.739,561.96 314,443C314.084,438.604 317.784,434.759 321,434.5L383,431C387.988,403.658 405.092,382.327 434,381C454.784,380.046 484.475,396.722 487,423L527,422C532.037,397.117 551.775,374.9 580,374.977C606.215,375.048 630.046,399.045 630,418C768.405,414.426 905.71,414.863 1042,419C1049.32,419.018 1061.96,430.558 1062,438C1062.92,635.399 1058.78,805.91 1041,904C1036.74,927.484 1032.47,945.141 1022,957C1076.81,948.1 1131.51,935.78 1186,917C1238.26,760.995 1256.59,551.613 1229,270C1227.67,256.457 1218.37,241.204 1205,240C863.352,209.245 521.686,209.692 180,240Z" style="fill:rgb(219,222,227);stroke:black;stroke-width:1px;"/>
    <path d="M434,1002.1C448.782,883.262 456.025,896.68 458,1003L434,1002.1Z" style="fill:rgb(73,61,81);stroke:rgb(95,15,34);stroke-width:1px;"/>
    <g transform="matrix(1,0,0,1,92,1.13687e-13)">
        <path d="M434,1003.53C448.782,884.702 456.025,897.115 458,1003.44L434,1003.53Z" style="fill:rgb(73,61,81);stroke:rgb(95,15,34);stroke-width:1px;"/>
    </g>
    <g transform="matrix(1,0,0,1,182.686,1.13687e-13)">
        <path d="M434.314,1002.26C449.096,883.423 456.025,895.219 458,1001.54L434.314,1002.26Z" style="fill:rgb(73,61,81);stroke:rgb(95,15,34);stroke-width:1px;"/>
    </g>
    <g transform="matrix(1,0,0,1,274,-3.53511)">
        <path d="M434,1002.21C448.782,883.372 456.025,894.561 458,1000.88L434,1002.21Z" style="fill:rgb(73,61,81);stroke:rgb(95,15,34);stroke-width:1px;"/>
    </g>
    <g transform="matrix(1,0,0,1,362,-13.5351)">
        <path d="M433.836,1006.53C448.618,887.702 456.025,898.215 458,1004.53L433.836,1006.53Z" style="fill:rgb(73,61,81);stroke:rgb(95,15,34);stroke-width:1px;"/>
    </g>
    <g transform="matrix(6.09261e-17,-0.994999,1.18062,7.2292e-17,-602.609,1368.66)">
        <text x="472px" y="900px" style="font-family:'ArialMT', 'Arial', sans-serif;font-size:20.827px;fill:white;">Power</text>
    </g>
    <g transform="matrix(6.6287e-17,-1.08255,1.18062,7.2292e-17,-508.811,1410.16)">
        <text x="472px" y="900px" style="font-family:'ArialMT', 'Arial', sans-serif;font-size:20.827px;fill:white;">Internet</text>
    </g>
    <g transform="matrix(6.19757e-17,-1.01214,1.18062,7.2292e-17,-416.755,1376.9)">
        <text x="472px" y="900px" style="font-family:'ArialMT', 'Arial', sans-serif;font-size:20.827px;fill:white;">WLAN</text>
    </g>
    <g transform="matrix(6.6287e-17,-1.08255,1.18062,7.2292e-17,-324.755,1406.97)">
        <text x="472px" y="900px" style="font-family:'ArialMT', 'Arial', sans-serif;font-size:20.827px;fill:white;">LAN</text>
    </g>
    <g transform="matrix(6.6287e-17,-1.08255,1.18062,7.2292e-17,-236.556,1398.07)">
        <text x="472px" y="900px" style="font-family:'ArialMT', 'Arial', sans-serif;font-size:20.827px;fill:white;">Info</text>
    </g>
    <g transform="matrix(1,0,0,1,0.282228,11.2593)">
        <path d="M1111,248C1098.67,348.331 1100.37,448.664 1111,549C1114.9,585.859 1128.12,597.012 1140,549C1163.97,452.146 1168.51,352.471 1140,248C1135.06,229.889 1113.83,224.973 1111,248Z" style="fill:rgb(97,99,111);stroke:rgb(55,53,53);stroke-width:3.5px;"/>
    </g>
    <g transform="matrix(-1,-1.22465e-16,1.22465e-16,-1,1402.38,826.741)">
        <path d="M1105.38,247.741C1088.36,394.782 1105.73,513.157 1111,549C1116.39,585.67 1142,598.095 1148,549C1160.12,449.842 1156.1,351.762 1140,248C1134.46,212.322 1110.52,203.367 1105.38,247.741Z" style="fill:rgb(97,99,111);stroke:rgb(55,53,53);stroke-width:3.5px;"/>
    </g>
</svg>
