<?xml version="1.0" standalone="no"?>
<!DOCTYPE svg PUBLIC "-//W3C//DTD SVG 1.1//EN" "http://www.w3.org/Graphics/SVG/1.1/DTD/svg11.dtd">
<svg width="100%" height="100%" viewBox="0 0 1280 1150" version="1.1" xmlns="http://www.w3.org/2000/svg" xmlns:xlink="http://www.w3.org/1999/xlink" xml:space="preserve" style="fill-rule:evenodd;clip-rule:evenodd;stroke-linejoin:round;stroke-miterlimit:1.41421;">
    <path d="M69.184,643.662L86.592,638.903L123.848,729.204C141.821,769.955 327.024,811.019 492.052,852.045L585.292,860.991L624.271,843.34L603.539,878.824C564.31,894.455 486.579,885.035 366.371,847.977L133.082,777.375C91.208,750.641 68.752,716.664 61.998,676.831C60.03,662.591 63.896,652.608 69.184,643.662Z" style="fill:rgb(232,232,232);stroke-width:0.4px;stroke:black;"/>
    <path d="M1195.36,400.306L1195.36,454.304L691.868,818.473L666.456,812.93L618.53,845.312C607.529,867.704 584.382,869.64 551.193,867.645C490.886,864.02 244.299,794.429 173.473,769.956C153.987,762.328 136.955,752.121 121.955,739.777C101.973,720.694 87.99,696.561 79.764,667.581C76.249,652.77 74.508,637.643 74.381,622.23L1195.36,400.306Z" style="fill:rgb(195,196,198);stroke-width:0.4px;stroke:black;"/>
    <g id="Tiefe">
        <path d="M692.474,753.867L692.474,768.62L685.948,771.506C686.294,766.43 685.025,763.636 682.509,762.602L692.474,753.867Z" style="fill:rgb(99,102,95);stroke-width:0.15px;stroke:black;"/>
        <path d="M690.839,769.488L712.583,754.666L712.226,764.107L696.312,774.749L690.839,769.488Z" style="fill:rgb(166,169,174);stroke-width:0.15px;stroke:black;"/>
        <path d="M785.51,705.613L787.503,713.333L758.735,733.05L751.96,728.663L785.51,705.613Z" style="fill:rgb(166,169,174);stroke-width:0.15px;stroke:black;"/>
    </g>
    <path d="M823.95,677.286L839.716,671.194L1203.09,426.614L1211.13,428.492C1212.71,434.002 1212.68,439.48 1211.13,444.862C1207.09,458.889 1198.8,470.737 1186.57,480.579C1163.89,498.078 1141.4,515.785 1117.65,532.291C950.028,652.264 781.296,770.878 608.644,882.414L608.644,871.207L649.402,806.663L687.647,772.448L696.992,771.916C699.051,776.536 693.959,794.772 693.06,799.553C692.595,806.839 696.836,805.082 705.086,799.553C738.708,777.022 772.055,754.253 803.818,730.117C820.463,715.048 829.107,695.889 823.95,677.286Z" style="fill:rgb(230,230,232);stroke-width:0.4px;stroke:black;"/>
    <path d="M635.047,824.214C633.76,818.55 632.943,812.671 637.782,804.196C647.875,790.272 659.127,781.909 676.446,770.524C682.017,766.862 689.48,766.726 691.472,768.54L648.787,811.81L635.047,824.214Z" style="fill:rgb(70,65,59);stroke-width:1px;stroke:rgb(79,73,66);"/>
    <path d="M1185.08,423.084L824.493,665.639L823.729,676.526L840.382,670.76L1195.68,430.466C1194.38,425.795 1190.91,423.264 1185.08,423.084Z" style="fill:rgb(70,65,59);stroke-width:0.15px;stroke:rgb(123,120,133);"/>
    <path d="M572.165,880.33C544.581,882.601 516.754,880.071 489.578,873.611C382.612,848.184 276.08,817.795 169.871,783.697C134.692,773.809 108.866,756.246 90.721,732.381C79.506,716.876 71.706,697.641 67.845,674.107C66.079,663.339 63.111,652.936 75.745,644.331L74.842,634.208C56.708,643.398 53.963,655.527 56.357,674.304C61.46,701.049 69.074,722.327 79.305,737.91C92,761.563 119.576,779.413 157.552,793.207C262.207,826.957 367.771,856.977 474.453,882.414C494.065,887.28 513.861,891.311 534.215,892.784C563.923,896.505 589.805,894.653 608.558,882.414C622.546,868.112 633.509,851.23 640.639,831.076C643.451,820.409 650.098,812.672 658.08,803.405C668.45,791.366 681.503,780.926 697,771.94C695.661,769.151 692.959,767.834 689.637,767.187C668.801,778.712 653.685,793.717 640.639,809.982L615.139,850.974C607.139,865.396 595.585,877.605 572.165,880.33Z" style="fill:rgb(250,250,250);stroke-width:0.4px;stroke:black;"/>
    <path d="M839.716,677.852L1202.42,432.447C1205.19,430.573 1207.71,428.946 1211.1,428.487C1206.38,422.936 1201.81,421.194 1195.46,425.438L827.541,671.194C818.092,677.505 828.397,685.511 839.716,677.852Z" style="fill:rgb(219,215,214);stroke-width:0.4px;stroke:black;"/>
    <path d="M681.578,277.904C703.442,264.738 729.375,259.747 761.003,264.869L1137.22,342.576C1167.38,349.65 1193.57,359.141 1207.56,376.037C1215.16,385.215 1215.99,393.546 1210.89,401.968C1163.97,440.183 889.065,619.662 666.096,766.962L628.084,761.684C444.799,698.734 255.761,648.217 58.168,616.19L58.168,611.975L67.646,604.245C265.196,494.663 466.084,385.459 681.578,277.904Z" style="fill:rgb(250,250,252);stroke-width:0.4px;stroke:black;"/>
    <path d="M65.88,610.498C48.795,610.546 55.346,623.388 65.88,624.641C96.915,628.332 127.938,633.635 159.253,639.946C270.461,665.579 381.04,693.819 491.169,723.92C543.277,738.263 591.911,754.298 636.016,772.539C651.369,778.613 666.551,775.794 681.578,764.878L1194.67,418.601C1200.84,413.392 1206.55,407.91 1211.16,401.774L674.194,756.933C658.409,767.33 641.647,762.335 641.647,762.335C641.008,761.96 541.262,722.459 495.934,711.81C495.934,711.81 217.659,637.544 168.704,628.371C134.144,620.409 99.979,615.223 65.88,610.498Z" style="fill:rgb(250,250,250);stroke-width:0.4px;stroke:black;"/>
    <path d="M373.937,729.044C368.198,727.571 367.225,729.741 367.225,735.073L367.225,798.259C367.225,803.633 372.927,806.692 378.062,808.054L505.956,841.956C513.554,843.97 517.877,839.977 517.498,832.828L514.327,773.057C514.062,768.056 512.101,764.499 505.956,762.922L373.937,729.044Z" style="fill:rgb(211,211,211);stroke-width:0.4px;stroke:black;"/>
    <path d="M497.989,835.54C503.627,830.195 509.789,830.979 517.338,834.37L514.427,774.024L384.315,731.89L375.009,729.522L375.009,740.849L368.923,745.349L368.923,774.638L379.935,784.936L380.323,794.717C385.021,801.435 390.514,803.703 395.393,803.275L497.989,835.54Z" style="fill:rgb(18,18,26);"/>
    <g id="usb buchs">
        <path d="M391.775,795.386L387.717,801.08C385.454,804.255 387.118,807.684 390.506,808.638L493.147,837.522C495.243,837.794 496.897,837.05 498.109,835.288L500.376,826.554L391.775,795.386Z" style="fill:rgb(193,191,197);stroke-width:0.4px;stroke:black;"/>
        <path d="M381.392,785.914C381.392,788.693 386.77,793.923 391.812,795.399L501.78,827.595C509.208,829.77 514.553,826.616 514.259,821.52L511.465,773.057C512.188,766.26 505.647,762.987 495.43,761.496L382.98,734.137C381.445,735.892 381.054,739.778 381.392,745.018L381.392,785.914Z" style="fill:rgb(193,191,197);stroke-width:0.4px;stroke:black;"/>
        <path d="M384.068,784.254C384.608,788.117 387.893,790.896 392.232,793.259L503.008,823.981L507.627,821.387L507.627,779.5L507.627,773.666C507.627,771.144 505.049,769.332 501.56,768.372L385.213,736.371C383.895,738.375 383.088,741.002 383.251,744.814L384.068,784.254Z" style="fill:rgb(38,24,20);stroke-width:0.4px;stroke:black;"/>
    </g>
    <g>
        <g id="stutzen">
            <path d="M430.898,744.738L395.788,766.583L503.457,794.905C490.746,804.106 493.804,809.025 503.457,812.153L510.077,807.602L510.077,766.583L430.898,744.738Z" style="fill:rgb(118,126,129);stroke-width:0.4px;stroke:black;"/>
            <path d="M395.788,784.232L503.457,812.153C494.604,808.085 490.567,805.242 503.457,794.905L395.788,766.595C394.738,772.601 395.788,784.232 395.788,784.232Z" style="fill:rgb(188,192,196);stroke-width:0.4px;stroke:black;"/>
            <path d="M511.024,789.172L503.457,794.905" style="fill:rgb(118,126,129);stroke-width:0.4px;stroke:black;"/>
            <path d="M496.688,801.13L395.326,774.2" style="fill:rgb(118,126,129);stroke-width:0.4px;stroke:black;"/>
        </g>
        <g id="kontakte">
            <g id="kontakt">
                <path d="M451.302,751.449L425.839,767.289L428.473,757.994L437.893,750.675L442.228,748.276L451.302,751.449Z" style="fill:rgb(22,17,19);stroke-width:0.4px;stroke:black;"/>
                <path d="M417.281,764.692L425.842,767.332L431.743,756.29L423.42,754.156L417.281,764.692Z" style="fill:rgb(71,54,47);stroke-width:0.4px;stroke:black;"/>
                <path d="M443.935,749.794L431.743,756.29L423.462,754.183L437.551,746.182L443.935,749.794Z" style="fill:rgb(38,24,20);stroke-width:0.4px;stroke:black;"/>
            </g>
            <g id="kontakt1" transform="matrix(1,0,0,1,23.425,6.66565)">
                <path d="M451.302,751.449L425.839,767.289L428.473,757.994L437.893,750.675L446.215,748.527L451.302,751.449Z" style="fill:rgb(22,17,19);stroke-width:0.4px;stroke:black;"/>
                <path d="M417.281,764.692L425.842,767.332L431.743,756.29L423.42,754.156L417.281,764.692Z" style="fill:rgb(71,54,47);stroke-width:0.4px;stroke:black;"/>
                <path d="M443.935,749.794L431.743,756.29L423.462,754.183L439.675,745.102L443.935,749.794Z" style="fill:rgb(38,24,20);stroke-width:0.4px;stroke:black;"/>
            </g>
            <g id="kontakt2" transform="matrix(1,0,0,1,44.2394,12.5613)">
                <path d="M451.302,751.449L425.839,767.289L428.473,757.994L437.893,750.675L448.127,747.688L451.302,751.449Z" style="fill:rgb(22,17,19);stroke-width:0.4px;stroke:black;"/>
                <path d="M417.281,764.692L425.842,767.332L431.743,756.29L423.42,754.156L417.281,764.692Z" style="fill:rgb(71,54,47);stroke-width:0.4px;stroke:black;"/>
                <path d="M443.935,749.794L431.743,756.29L423.462,754.183L439.675,745.102L443.935,749.794Z" style="fill:rgb(38,24,20);stroke-width:0.4px;stroke:black;"/>
            </g>
            <g id="kontakt3" transform="matrix(1,0,0,1,67.8032,17.9356)">
                <path d="M445.72,754.915L425.839,767.289L428.473,757.994L437.893,750.675L438.75,749.239L445.72,754.915Z" style="fill:rgb(22,17,19);stroke-width:0.4px;stroke:black;"/>
                <path d="M417.281,764.692L425.842,767.332L431.743,756.29L423.42,754.156L417.281,764.692Z" style="fill:rgb(71,54,47);stroke-width:0.4px;stroke:black;"/>
                <path d="M443.935,749.794L431.743,756.29L423.462,754.183L438.781,746.426L443.935,749.794Z" style="fill:rgb(38,24,20);stroke-width:0.4px;stroke:black;"/>
            </g>
        </g>
    </g>
    <path d="M509.469,785.475L508.347,773.243C506.783,766.892 498.192,767.312 491.71,764.816L494.064,759.785C497.915,760.879 503.958,762.085 507.554,763.469C512.404,765.337 514.28,767.936 514.272,771.528L514.925,785.475L509.469,785.475Z" style="fill:rgb(193,191,197);stroke-width:0.4px;stroke:black;"/>
    <path d="M498.108,760.83L427.289,742.733" style="fill:none;stroke-width:0.4px;stroke:black;"/>
    <g id="klemmen">
        <path d="M494.938,766.923C496.629,767.458 497.637,766.903 497.647,764.753C496.123,763.753 495.019,762.296 494.938,760.294L384.806,732.153C382.362,731.528 382.203,735.515 384.806,736.24L494.938,766.923" style="fill:rgb(193,191,197);stroke-width:0.4px;stroke:black;"/>
        <path d="M381.35,745.022L370.605,745.022C368.957,745.402 367.952,746.346 367.888,748.114L367.888,781.907C368.938,784.616 370.883,785.895 373.723,785.895L381.35,785.895L381.35,745.022Z" style="fill:rgb(193,191,197);stroke-width:0.4px;stroke:black;"/>
        <path d="M507.562,779.418C508.422,778.152 509.999,777.966 510.508,779.418C509.621,779.907 509.584,780.741 509.257,781.273C509.768,782.682 513.001,783.223 514.595,782.894L514.595,821.361C512.734,824.385 510.299,823.817 507.562,821.361L507.562,779.418Z" style="fill:rgb(193,191,197);stroke-width:0.4px;stroke:black;"/>
        <path d="M507.562,779.418C508.422,778.152 509.999,777.966 510.508,779.418C509.621,779.907 509.584,780.741 509.257,781.273C509.768,782.682 513.001,783.223 514.595,782.894L514.595,784.076C513.047,784.366 510.299,784.348 507.562,781.891L507.562,779.418Z" style="fill:rgb(193,191,197);stroke-width:0.4px;stroke:black;"/>
    </g>
    <g id="resetloch">
        <path d="M549.608,778.87C537.487,786.965 558.972,815.645 571.232,800.117C577.857,786.06 561.058,771.222 549.608,778.87Z" style="fill:rgb(128,128,128);stroke-width:0.4px;stroke:black;"/>
        <path d="M557.858,776.948C552.159,780.003 565.458,797.576 572.584,795.49C573.614,780.924 558.758,776.465 557.858,776.948Z" style="fill:black;"/>
    </g>
    <path d="M785.516,705.591C794.553,694.211 807.62,682.118 816.764,685.501C821.524,687.621 823.169,691.75 824.55,695.576C817.743,717.472 803.296,730.332 785.516,740.85C777.338,744.274 779.294,740.107 781.422,730.834C782.699,725.274 785.002,720.153 788.101,715.496L785.516,705.591Z" style="fill:rgb(101,102,106);stroke-width:0.4px;stroke:black;"/>
    <path d="M794.55,695.632C802.031,688.354 810.36,683.132 816.764,685.501C821.524,687.621 823.169,691.75 824.55,695.576C817.743,717.472 803.296,730.332 785.516,740.85C779.68,743.294 779.005,741.871 779.897,737.453L784.893,738.94L810.309,702.631L794.55,695.632Z" style="fill:rgb(101,102,106);stroke-width:0.4px;stroke:black;"/>
    <path d="M794.55,695.632L810.309,702.631L784.893,738.94L779.897,737.453C780.217,735.726 780.813,733.489 781.422,730.834C782.699,725.274 785.002,720.153 788.101,715.496L785.516,705.591C788.223,702.181 791.293,698.707 794.55,695.632Z" style="fill:rgb(183,183,185);stroke-width:0.4px;stroke:black;"/>
    <g transform="matrix(0.625125,-0.780524,0.780524,0.625125,-268.834,885.586)">
        <ellipse cx="795.326" cy="729.468" rx="22.313" ry="10.101" style="fill:rgb(197,196,201);stroke-width:0.4px;stroke:black;"/>
    </g>
    <path d="M745.091,728.589L749.754,731.563C751.078,732.381 750.376,733.901 749.754,735.231L743.273,748.895L738.382,752.311L738.382,733.43L745.091,728.589Z" style="fill:rgb(36,32,31);"/>
    <path d="M745.091,728.589L749.754,731.563C751.078,732.381 750.376,733.901 749.754,735.231L743.273,748.895L712.691,770.413L712.691,751.932L745.091,728.589Z" style="fill:none;stroke-width:0.4px;stroke:black;"/>
    <path d="M712.691,751.932L738.344,733.449L738.344,744.688L741.638,747.47L741.638,749.951L711.882,770.933L712.691,751.932Z" style="fill:rgb(60,46,45);stroke-width:0.4px;stroke:black;"/>
    <path d="M712.691,751.932L735.421,735.556L735.421,746.209L712.308,762.404L712.691,751.932Z" style="fill:rgb(39,30,29);stroke-width:0.4px;stroke:black;"/>
    <path d="M745.091,728.589L745.808,728.072C747.212,727.012 749.485,727.109 751.166,728.072L760.514,734.421C763.017,736.638 762.484,738.944 761.445,742.216C759.418,748.604 753.592,753.411 746.52,758.446L711.57,783.329C707.71,786.078 706.016,784.849 707.352,780.816L711.857,770.955L743.273,748.895L749.754,735.231C750.376,733.901 751.078,732.381 749.754,731.563L745.091,728.589Z" style="fill:rgb(94,95,99);stroke-width:0.4px;stroke:black;"/>
    <path d="M741.59,747.568L741.59,750.095L711.906,770.874L712.009,768.327L741.59,747.568Z" style="fill:rgb(95,86,89);stroke-width:0.4px;stroke:black;"/>
    <g id="(Ellipse)" transform="matrix(1.41962,0,0,1.14439,-312.966,-106)">
        <ellipse cx="744.182" cy="734.719" rx="2.934" ry="3.569" style="fill:rgb(232,232,232);stroke-width:0.31px;stroke:black;"/>
    </g>
    <g id="Lanblende">
        <path d="M171.812,739.624L292.793,769.858L288.765,680.246L252.395,680.246L171.812,739.624Z" style="fill:rgb(17,16,22);stroke-width:0.4px;stroke:black;"/>
        <path d="M171.764,662.327L171.764,685.361L186.203,677.44L187.681,710.005L176.123,716.955L176.123,738.279L256.042,681.886L256.042,667.467L245.001,664.611L245.001,660.346L206.581,650.807L206.581,654.819L197.237,652.337L197.237,669.12L171.764,662.327Z" style="fill:rgb(10,10,12);stroke-width:0.4px;stroke:black;"/>
        <path d="M171.764,662.327L171.764,685.361L186.203,677.44L187.681,710.005L176.123,716.955L176.123,738.279L288.189,767.324L288.189,773.004L167.781,742.564L163.71,657.877L191.596,647.458L206.581,650.809L206.581,654.819L197.237,652.337L197.237,669.12L171.764,662.327Z" style="fill:rgb(44,49,52);stroke-width:0.4px;stroke:black;"/>
        <path d="M253.549,662.327L253.549,666.821L245.001,664.611L245.001,660.346L253.549,662.327Z" style="fill:rgb(44,49,52);stroke-width:0.4px;stroke:black;"/>
        <path d="M169.659,741.392L169.659,750.006L161.437,756.802L297.028,792.402L286.827,780.1L285.517,771.506L169.659,741.392Z" style="fill:rgb(200,194,194);stroke-width:0.4px;stroke:black;"/>
        <path d="M192.06,667.743L192.06,647.601L157.096,639.815L160.777,755.588L168.782,749.25L165.81,660.692L192.06,667.743Z" style="fill:rgb(200,194,194);stroke-width:0.4px;stroke:black;"/>
        <path d="M187.727,709.975L176.159,716.916L170.71,716.916L170.71,685.382L171.791,685.382L177.585,682.15L177.585,711.736L187.727,709.975Z" style="fill:rgb(17,16,22);stroke-width:0.4px;stroke:black;"/>
        <path d="M170.715,716.928L177.678,711.711" style="fill:none;stroke-width:0.4px;stroke:black;"/>
        <g id="kontakte1">
            <g>
                <path d="M208.138,734.975C204.327,738.081 205.661,744.852 212.787,738.891L226.781,727.375L258.85,680.943L251.817,679.493L219.8,725.468L208.138,734.975Z" style="fill:rgb(38,34,35);stroke-width:0.4px;stroke:black;"/>
                <path d="M208.138,734.975C204.327,738.081 205.661,744.852 212.787,738.891L226.781,727.375L258.85,680.943L251.817,679.493L219.8,725.468L208.138,734.975Z" style="fill:rgb(38,34,35);stroke-width:0.4px;stroke:black;"/>
                <path d="M219.8,725.468L226.781,727.375" style="fill:none;stroke-width:0.4px;stroke:black;"/>
                <path d="M219.8,725.468L226.781,727.375" style="fill:none;stroke-width:0.4px;stroke:black;"/>
                <path d="M207.191,736.039C203.687,739.399 206.713,743.154 211.06,740.135C214.831,737.517 209.332,733.986 207.191,736.039Z" style="fill:rgb(232,222,210);stroke-width:0.4px;stroke:black;"/>
            </g>
            <g transform="matrix(1,0,0,1,10.0232,2.756)">
                <path d="M208.138,734.975C204.327,738.081 205.661,744.852 212.787,738.891L226.781,727.375L258.85,680.943L251.817,679.493L219.8,725.468L208.138,734.975Z" style="fill:rgb(38,34,35);stroke-width:0.4px;stroke:black;"/>
                <path d="M208.138,734.975C204.327,738.081 205.661,744.852 212.787,738.891L226.781,727.375L258.85,680.943L251.817,679.493L219.8,725.468L208.138,734.975Z" style="fill:rgb(38,34,35);stroke-width:0.4px;stroke:black;"/>
                <path d="M219.8,725.468L226.781,727.375" style="fill:none;stroke-width:0.4px;stroke:black;"/>
                <path d="M219.8,725.468L226.781,727.375" style="fill:none;stroke-width:0.4px;stroke:black;"/>
                <path d="M207.191,736.039C203.687,739.399 206.713,743.154 211.06,740.135C214.831,737.517 209.332,733.986 207.191,736.039Z" style="fill:rgb(232,222,210);stroke-width:0.4px;stroke:black;"/>
            </g>
            <g transform="matrix(1,0,0,1,19.4537,5.34149)">
                <path d="M208.138,734.975C204.327,738.081 205.661,744.852 212.787,738.891L226.781,727.375L258.85,680.943L251.817,679.493L219.8,725.468L208.138,734.975Z" style="fill:rgb(38,34,35);stroke-width:0.4px;stroke:black;"/>
                <path d="M208.138,734.975C204.327,738.081 205.661,744.852 212.787,738.891L226.781,727.375L258.85,680.943L251.817,679.493L219.8,725.468L208.138,734.975Z" style="fill:rgb(38,34,35);stroke-width:0.4px;stroke:black;"/>
                <path d="M219.8,725.468L226.781,727.375" style="fill:none;stroke-width:0.4px;stroke:black;"/>
                <path d="M219.8,725.468L226.781,727.375" style="fill:none;stroke-width:0.4px;stroke:black;"/>
                <path d="M207.191,736.039C203.687,739.399 206.713,743.154 211.06,740.135C214.831,737.517 209.332,733.986 207.191,736.039Z" style="fill:rgb(232,222,210);stroke-width:0.4px;stroke:black;"/>
            </g>
            <g transform="matrix(1,0,0,1,28.3223,7.73322)">
                <path d="M208.138,734.975C204.327,738.081 205.661,744.852 212.787,738.891L226.781,727.375L258.85,680.943L251.817,679.493L219.8,725.468L208.138,734.975Z" style="fill:rgb(38,34,35);stroke-width:0.4px;stroke:black;"/>
                <path d="M208.138,734.975C204.327,738.081 205.661,744.852 212.787,738.891L226.781,727.375L258.85,680.943L251.817,679.493L219.8,725.468L208.138,734.975Z" style="fill:rgb(38,34,35);stroke-width:0.4px;stroke:black;"/>
                <path d="M219.8,725.468L226.781,727.375" style="fill:none;stroke-width:0.4px;stroke:black;"/>
                <path d="M219.8,725.468L226.781,727.375" style="fill:none;stroke-width:0.4px;stroke:black;"/>
                <path d="M207.191,736.039C203.687,739.399 206.713,743.154 211.06,740.135C214.831,737.517 209.332,733.986 207.191,736.039Z" style="fill:rgb(232,222,210);stroke-width:0.4px;stroke:black;"/>
            </g>
            <g transform="matrix(1,0,0,1,37.9459,10.0602)">
                <path d="M208.138,734.975C204.327,738.081 205.661,744.852 212.787,738.891L226.781,727.375L253.082,689.294L251.817,679.493L219.8,725.468L208.138,734.975Z" style="fill:rgb(38,34,35);stroke-width:0.4px;stroke:black;"/>
                <path d="M219.8,725.468L226.781,727.375" style="fill:none;stroke-width:0.4px;stroke:black;"/>
                <path d="M219.8,725.468L226.781,727.375" style="fill:none;stroke-width:0.4px;stroke:black;"/>
                <path d="M207.191,736.039C203.687,739.399 206.713,743.154 211.06,740.135C214.831,737.517 209.332,733.986 207.191,736.039Z" style="fill:rgb(232,222,210);stroke-width:0.4px;stroke:black;"/>
            </g>
            <g transform="matrix(1,0,0,1,47.0653,12.5203)">
                <path d="M208.138,734.975C204.327,738.081 205.661,744.852 212.787,738.891L226.781,727.375L244.996,701.002L241.548,694.233L219.8,725.468L208.138,734.975Z" style="fill:rgb(38,34,35);stroke-width:0.4px;stroke:black;"/>
                <path d="M219.8,725.468L226.781,727.375" style="fill:none;stroke-width:0.4px;stroke:black;"/>
                <path d="M219.8,725.468L226.781,727.375" style="fill:none;stroke-width:0.4px;stroke:black;"/>
                <path d="M207.191,736.039C203.687,739.399 206.713,743.154 211.06,740.135C214.831,737.517 209.332,733.986 207.191,736.039Z" style="fill:rgb(232,222,210);stroke-width:0.4px;stroke:black;"/>
            </g>
            <g transform="matrix(1,0,0,1,56.7249,14.952)">
                <path d="M208.138,734.975C204.327,738.081 205.661,744.852 212.787,738.891L226.781,727.375L235.734,714.407L235.9,702.35L219.8,725.468L208.138,734.975Z" style="fill:rgb(38,34,35);stroke-width:0.4px;stroke:black;"/>
                <path d="M219.8,725.468L226.781,727.375" style="fill:none;stroke-width:0.4px;stroke:black;"/>
                <path d="M219.8,725.468L226.781,727.375" style="fill:none;stroke-width:0.4px;stroke:black;"/>
                <path d="M207.191,736.039C203.687,739.399 206.713,743.154 211.06,740.135C214.831,737.517 209.332,733.986 207.191,736.039Z" style="fill:rgb(232,222,210);stroke-width:0.4px;stroke:black;"/>
            </g>
            <g transform="matrix(1,0,0,1,68.1052,17.7847)">
                <path d="M208.138,734.975C204.327,738.081 205.661,744.852 212.787,738.891L226.781,727.375L219.8,725.468L208.138,734.975Z" style="fill:rgb(38,34,35);stroke-width:0.4px;stroke:black;"/>
                <path d="M208.138,734.975C204.327,738.081 205.661,744.852 212.787,738.891L226.781,727.375L219.8,725.468L208.138,734.975Z" style="fill:rgb(38,34,35);stroke-width:0.4px;stroke:black;"/>
                <path d="M219.8,725.468L226.781,727.375" style="fill:none;stroke-width:0.4px;stroke:black;"/>
                <path d="M219.8,725.468L226.781,727.375" style="fill:none;stroke-width:0.4px;stroke:black;"/>
                <path d="M207.191,736.039C203.687,739.399 206.713,743.154 211.06,740.135C214.831,737.517 209.332,733.986 207.191,736.039Z" style="fill:rgb(232,222,210);stroke-width:0.4px;stroke:black;"/>
            </g>
        </g>
        <path d="M253.549,662.327L253.549,681.52L284.291,689.426L287.64,779.633L297.083,791.104L292.54,671.945L253.549,662.327Z" style="fill:rgb(200,194,194);stroke-width:0.4px;stroke:black;"/>
    </g>
    <g>
        <path d="M112.137,697.279C112.497,699.19 110.827,699.585 108.763,699.01L98.461,696.141C95.494,695.315 94.017,692.882 94.017,689.901L94.017,680.69C94.017,677.614 95.576,676.478 97.578,677.267C97.435,677.753 97.367,678.311 97.367,678.954L97.367,688.165C97.367,691.145 98.844,693.579 101.811,694.405L112.113,697.274L112.137,697.279Z" style="fill:rgb(172,165,157);stroke-width:0.4px;stroke:black;"/>
        <g transform="matrix(1,0,0,1,3.35046,-1.7362)">
            <path d="M94.228,679.003C95.41,679.462 96.753,680.607 98.014,682.426L107.226,695.711C108.196,697.111 108.689,698.196 108.786,699.015L108.763,699.01L98.461,696.141C95.494,695.315 94.017,692.882 94.017,689.901L94.017,680.69C94.017,680.047 94.085,679.489 94.228,679.003Z" style="fill:rgb(193,200,206);stroke-width:0.4px;stroke:black;"/>
        </g>
    </g>
    <g transform="matrix(0.859537,0.230858,-0.00185219,1.03494,76.3517,-153.266)">
        <path d="M538.582,823.984L538.582,813.156L543.383,813.156C544.348,813.156 545.082,813.254 545.584,813.448C546.087,813.643 546.488,813.986 546.788,814.479C547.089,814.971 547.239,815.515 547.239,816.111C547.239,816.879 546.99,817.526 546.493,818.053C545.996,818.58 545.227,818.915 544.188,819.058C544.568,819.24 544.856,819.42 545.053,819.597C545.471,819.981 545.868,820.461 546.242,821.037L548.125,823.984L546.323,823.984L544.89,821.732C544.472,821.082 544.127,820.584 543.856,820.24C543.585,819.895 543.343,819.654 543.129,819.516C542.914,819.378 542.696,819.282 542.475,819.228C542.312,819.193 542.047,819.176 541.677,819.176L540.015,819.176L540.015,823.984L538.582,823.984ZM540.015,817.935L543.095,817.935C543.75,817.935 544.262,817.867 544.632,817.732C545.001,817.597 545.282,817.38 545.474,817.082C545.666,816.784 545.762,816.46 545.762,816.111C545.762,815.599 545.576,815.178 545.204,814.848C544.832,814.518 544.245,814.353 543.442,814.353L540.015,814.353L540.015,817.935Z" style="fill:rgb(150,150,150);fill-rule:nonzero;"/>
        <path d="M549.514,823.984L549.514,813.156L557.343,813.156L557.343,814.434L550.947,814.434L550.947,817.751L556.937,817.751L556.937,819.021L550.947,819.021L550.947,822.707L557.594,822.707L557.594,823.984L549.514,823.984Z" style="fill:rgb(150,150,150);fill-rule:nonzero;"/>
        <path d="M559.086,820.505L560.438,820.387C560.502,820.929 560.651,821.373 560.884,821.72C561.118,822.068 561.481,822.348 561.974,822.562C562.466,822.777 563.02,822.884 563.636,822.884C564.182,822.884 564.665,822.803 565.083,822.64C565.502,822.478 565.813,822.255 566.018,821.972C566.222,821.688 566.324,821.38 566.324,821.045C566.324,820.705 566.226,820.408 566.029,820.155C565.832,819.901 565.507,819.688 565.054,819.516C564.763,819.403 564.121,819.226 563.126,818.988C562.131,818.749 561.435,818.524 561.036,818.312C560.519,818.041 560.134,817.705 559.88,817.304C559.626,816.902 559.5,816.453 559.5,815.956C559.5,815.409 559.655,814.898 559.965,814.423C560.275,813.948 560.728,813.587 561.324,813.341C561.92,813.095 562.582,812.972 563.311,812.972C564.113,812.972 564.821,813.101 565.434,813.36C566.047,813.618 566.519,813.998 566.849,814.501C567.179,815.003 567.356,815.572 567.38,816.207L566.007,816.31C565.933,815.626 565.683,815.109 565.257,814.759C564.831,814.41 564.202,814.235 563.37,814.235C562.503,814.235 561.872,814.394 561.475,814.711C561.079,815.029 560.881,815.412 560.881,815.86C560.881,816.249 561.021,816.569 561.302,816.82C561.577,817.071 562.298,817.328 563.462,817.592C564.627,817.855 565.426,818.085 565.859,818.282C566.489,818.573 566.954,818.941 567.255,819.387C567.555,819.832 567.705,820.345 567.705,820.926C567.705,821.503 567.54,822.045 567.211,822.555C566.881,823.065 566.407,823.461 565.789,823.744C565.171,824.027 564.475,824.169 563.702,824.169C562.722,824.169 561.901,824.026 561.239,823.741C560.577,823.455 560.057,823.025 559.681,822.452C559.304,821.878 559.106,821.229 559.086,820.505Z" style="fill:rgb(150,150,150);fill-rule:nonzero;"/>
        <path d="M569.692,823.984L569.692,813.156L577.521,813.156L577.521,814.434L571.125,814.434L571.125,817.751L577.115,817.751L577.115,819.021L571.125,819.021L571.125,822.707L577.772,822.707L577.772,823.984L569.692,823.984Z" style="fill:rgb(150,150,150);fill-rule:nonzero;"/>
        <path d="M582.507,823.984L582.507,814.434L578.939,814.434L578.939,813.156L587.522,813.156L587.522,814.434L583.94,814.434L583.94,823.984L582.507,823.984Z" style="fill:rgb(150,150,150);fill-rule:nonzero;"/>
    </g>
    <g id="oben">
        <g id="online">
            <g transform="matrix(1.12955,-0.454057,0.353536,0.879484,-228.323,434.099)">
                <ellipse cx="869.574" cy="323.64" rx="5.761" ry="4.99" style="fill:none;stroke-width:0.92px;stroke-linecap:round;stroke:rgb(213,213,216);"/>
            </g>
            <ellipse cx="863.053" cy="323.228" rx="9.167" ry="3.429" style="fill:none;stroke-width:1px;stroke-linecap:round;stroke:rgb(213,213,216);"/>
        </g>
        <g id="LAN">
            <path d="M790.987,361.258L801.132,364.226L810.813,359.425L798.727,355.692" style="fill:none;stroke-width:1.5px;stroke-linecap:round;stroke:rgb(213,213,216);"/>
            <path d="M787.112,359.86L793.687,356.041L790.72,357.765L797.904,359.86" style="fill:none;stroke-width:1.5px;stroke-linecap:round;stroke:rgb(213,213,216);"/>
        </g>
        <g id="wifi">
            <path d="M827.602,338.048C828.631,339.55 827.651,340.698 822.254,341.066" style="fill:none;stroke-width:1px;stroke-linecap:round;stroke:rgb(213,213,216);"/>
            <g transform="matrix(1,0,0,1,6.72447,0)">
                <path d="M827.602,338.048C828.911,340.805 825.82,342.688 817.419,343.517" style="fill:none;stroke-width:1px;stroke-linecap:round;stroke:rgb(213,213,216);"/>
            </g>
            <g transform="matrix(1,0,0,1,12.8299,0)">
                <path d="M827.602,338.048C828.266,343.512 822.096,345.963 814.319,346.225" style="fill:none;stroke-width:1px;stroke-linecap:round;stroke:rgb(213,213,216);"/>
            </g>
        </g>
        <path d="M783.395,391.336C767.824,400.821 777.136,410.89 791.015,402.688L919.07,327.026C930.618,320.202 914.679,315.572 906.959,319.72C865.11,342.205 824.187,366.488 783.395,391.336Z" style="fill:rgb(48,129,154);stroke-width:2.5px;stroke:rgb(50,101,132);"/>
        <g id="power">
            <path d="M766.664,381.686C739.84,381.677 759.594,368.371 773.013,378.061" style="fill:none;stroke-width:1.5px;stroke-linecap:round;stroke:rgb(213,213,216);"/>
            <path d="M761.765,377.632L774.018,380.542" style="fill:none;stroke-width:1.5px;stroke-linecap:round;stroke:rgb(213,213,216);"/>
        </g>
    </g>
</svg>
