<?xml version="1.0" encoding="UTF-8" standalone="no"?>
<!DOCTYPE svg PUBLIC "-//W3C//DTD SVG 1.1//EN" "http://www.w3.org/Graphics/SVG/1.1/DTD/svg11.dtd">
<svg width="100%" height="100%" viewBox="0 0 1280 1150" version="1.1" xmlns="http://www.w3.org/2000/svg" xmlns:xlink="http://www.w3.org/1999/xlink" xml:space="preserve" style="fill-rule:evenodd;clip-rule:evenodd;stroke-linecap:round;stroke-linejoin:round;stroke-miterlimit:1.41421;">
    <g transform="matrix(0.81776,0,0,0.81776,116.789,1.05436)">
        <g id="_2-antennen-white">
            <g id="Antenne-Links">
                <g>
                    <g transform="matrix(1,0,0,1,-774.378,-3.15595)">
                        <path d="M1016.53,124.619L1020.93,301.171L1038.98,522.435L1043.24,1048.51L1043.34,1047.87C1042.55,1048.66 1036.04,1054.15 1004.23,1054.77C972.911,1055.37 970.935,1051.94 967.466,1051.24L967.191,1051.3L967.191,524.062L984.513,301.705L982.747,124.897C994.27,123.665 1005.51,123.655 1016.53,124.619Z" style="fill:white;stroke:black;stroke-width:4.28px;"/>
                    </g>
                    <g transform="matrix(1,0,0,1,-774.378,-3.15595)">
                        <path d="M984.703,117.906L984.703,124.656L982.618,124.676C996.416,123.902 1007.78,123.949 1017.13,124.676L1014.86,123.88L1014.86,118.475L1016.74,117.906C1007.39,117.18 996.023,117.133 982.225,117.906L982.438,117.653C982.428,113.255 981.481,92.528 982.438,76.704C983.201,64.092 991.781,61.281 998.604,61.255C1007.64,61.221 1015.03,65.675 1015.74,76.704C1016.77,92.72 1017.06,113.91 1017.08,117.653" style="fill:white;stroke:black;stroke-width:4.28px;"/>
                    </g>
                </g>
            </g>
        </g>
    </g>
    <g id="Frontgruppe">
        <path id="fill-gesammt" d="M215.161,1081.35C229.064,1073.85 243.963,1068.36 260.083,1067.36C510.586,1051.83 763.125,1053.53 1017.1,1067.36C1043.93,1068.82 1044.64,1069.81 1072.61,1081.35C1080.51,1084.62 1088.22,1085.71 1097.08,1085.71L1097.08,929.421L191.996,929.421L191.996,1085.71C200.128,1086.25 207.832,1084.71 215.161,1081.35Z" style="fill:rgb(118,122,123);stroke:black;stroke-width:3px;"/>
        <g id="Lüfungs-schlitze" transform="matrix(1,0,0,1,0,9.61194)">
            <g transform="matrix(0.889865,0,0,1,62.9319,-0.43865)">
                <rect x="564.048" y="947.842" width="9.541" height="37.146"/>
                <path d="M575.836,986.988L561.8,986.988L561.8,945.842L575.836,945.842L575.836,986.988ZM564.048,947.842L564.048,984.988L573.589,984.988L573.589,947.842L564.048,947.842Z" style="fill:rgb(51,51,51);"/>
            </g>
            <g transform="matrix(0.889865,0,0,1,124.406,-0.43865)">
                <rect x="564.048" y="947.842" width="9.541" height="37.146"/>
                <path d="M575.836,986.988L561.8,986.988L561.8,945.842L575.836,945.842L575.836,986.988ZM564.048,947.842L564.048,984.988L573.589,984.988L573.589,947.842L564.048,947.842Z" style="fill:rgb(51,51,51);"/>
            </g>
            <g transform="matrix(0.889865,0,0,1,184.303,-0.43865)">
                <rect x="564.048" y="947.842" width="9.541" height="37.146"/>
                <path d="M575.836,986.988L561.8,986.988L561.8,945.842L575.836,945.842L575.836,986.988ZM564.048,947.842L564.048,984.988L573.589,984.988L573.589,947.842L564.048,947.842Z" style="fill:rgb(51,51,51);"/>
            </g>
            <g transform="matrix(0.889865,0,0,1,77.777,-0.43865)">
                <rect x="564.048" y="947.842" width="9.541" height="37.146"/>
                <path d="M575.836,986.988L561.8,986.988L561.8,945.842L575.836,945.842L575.836,986.988ZM564.048,947.842L564.048,984.988L573.589,984.988L573.589,947.842L564.048,947.842Z" style="fill:rgb(51,51,51);"/>
            </g>
            <g transform="matrix(0.889865,0,0,1,139.251,-0.43865)">
                <rect x="564.048" y="947.842" width="9.541" height="37.146"/>
                <path d="M575.836,986.988L561.8,986.988L561.8,945.842L575.836,945.842L575.836,986.988ZM564.048,947.842L564.048,984.988L573.589,984.988L573.589,947.842L564.048,947.842Z" style="fill:rgb(51,51,51);"/>
            </g>
            <g transform="matrix(0.889865,0,0,1,199.148,-0.43865)">
                <rect x="564.048" y="947.842" width="9.541" height="37.146"/>
                <path d="M575.836,986.988L561.8,986.988L561.8,945.842L575.836,945.842L575.836,986.988ZM564.048,947.842L564.048,984.988L573.589,984.988L573.589,947.842L564.048,947.842Z" style="fill:rgb(51,51,51);"/>
            </g>
            <g transform="matrix(0.889865,0,0,1,92.8182,-0.43865)">
                <rect x="564.048" y="947.842" width="9.541" height="37.146"/>
                <path d="M575.836,986.988L561.8,986.988L561.8,945.842L575.836,945.842L575.836,986.988ZM564.048,947.842L564.048,984.988L573.589,984.988L573.589,947.842L564.048,947.842Z" style="fill:rgb(51,51,51);"/>
            </g>
            <g transform="matrix(0.889865,0,0,1,154.292,-0.43865)">
                <rect x="564.048" y="947.842" width="9.541" height="37.146"/>
                <path d="M575.836,986.988L561.8,986.988L561.8,945.842L575.836,945.842L575.836,986.988ZM564.048,947.842L564.048,984.988L573.589,984.988L573.589,947.842L564.048,947.842Z" style="fill:rgb(51,51,51);"/>
            </g>
            <g transform="matrix(0.889865,0,0,1,214.189,-0.43865)">
                <rect x="564.048" y="947.842" width="9.541" height="37.146"/>
                <path d="M575.836,986.988L561.8,986.988L561.8,945.842L575.836,945.842L575.836,986.988ZM564.048,947.842L564.048,984.988L573.589,984.988L573.589,947.842L564.048,947.842Z" style="fill:rgb(51,51,51);"/>
            </g>
            <g transform="matrix(0.889865,0,0,1,108.309,-0.43865)">
                <rect x="564.048" y="947.842" width="9.541" height="37.146"/>
                <path d="M575.836,986.988L561.8,986.988L561.8,945.842L575.836,945.842L575.836,986.988ZM564.048,947.842L564.048,984.988L573.589,984.988L573.589,947.842L564.048,947.842Z" style="fill:rgb(51,51,51);"/>
            </g>
            <g transform="matrix(0.889865,0,0,1,169.783,-0.43865)">
                <rect x="564.048" y="947.842" width="9.541" height="37.146"/>
                <path d="M575.836,986.988L561.8,986.988L561.8,945.842L575.836,945.842L575.836,986.988ZM564.048,947.842L564.048,984.988L573.589,984.988L573.589,947.842L564.048,947.842Z" style="fill:rgb(51,51,51);"/>
            </g>
            <g transform="matrix(0.889865,0,0,1,244.956,-0.43865)">
                <rect x="564.048" y="947.842" width="9.541" height="37.146"/>
                <path d="M575.836,986.988L561.8,986.988L561.8,945.842L575.836,945.842L575.836,986.988ZM564.048,947.842L564.048,984.988L573.589,984.988L573.589,947.842L564.048,947.842Z" style="fill:rgb(51,51,51);"/>
            </g>
            <g transform="matrix(0.889865,0,0,1,229.465,-0.43865)">
                <rect x="564.048" y="947.842" width="9.541" height="37.146"/>
                <path d="M575.836,986.988L561.8,986.988L561.8,945.842L575.836,945.842L575.836,986.988ZM564.048,947.842L564.048,984.988L573.589,984.988L573.589,947.842L564.048,947.842Z" style="fill:rgb(51,51,51);"/>
            </g>
            <g transform="matrix(0.889865,0,0,1,260.103,1.174)">
                <rect x="564.048" y="947.842" width="9.541" height="37.146"/>
                <path d="M575.836,986.988L561.8,986.988L561.8,945.842L575.836,945.842L575.836,986.988ZM564.048,947.842L564.048,984.988L573.589,984.988L573.589,947.842L564.048,947.842Z" style="fill:rgb(51,51,51);"/>
            </g>
            <g transform="matrix(0.889865,0,0,1,275.045,1.174)">
                <rect x="564.048" y="947.842" width="9.541" height="37.146"/>
                <path d="M575.836,986.988L561.8,986.988L561.8,945.842L575.836,945.842L575.836,986.988ZM564.048,947.842L564.048,984.988L573.589,984.988L573.589,947.842L564.048,947.842Z" style="fill:rgb(51,51,51);"/>
            </g>
            <g transform="matrix(0.889865,0,0,1,290.417,1.174)">
                <rect x="564.048" y="947.842" width="9.541" height="37.146"/>
                <path d="M575.836,986.988L561.8,986.988L561.8,945.842L575.836,945.842L575.836,986.988ZM564.048,947.842L564.048,984.988L573.589,984.988L573.589,947.842L564.048,947.842Z" style="fill:rgb(51,51,51);"/>
            </g>
            <g transform="matrix(0.889865,0,0,1,306.668,3.04886)">
                <rect x="564.048" y="947.842" width="9.541" height="37.146"/>
                <path d="M575.836,986.988L561.8,986.988L561.8,945.842L575.836,945.842L575.836,986.988ZM564.048,947.842L564.048,984.988L573.589,984.988L573.589,947.842L564.048,947.842Z" style="fill:rgb(51,51,51);"/>
            </g>
            <g transform="matrix(0.889865,0,0,1,321.208,4.91386)">
                <rect x="564.048" y="947.842" width="9.541" height="37.146"/>
                <path d="M575.836,986.988L561.8,986.988L561.8,945.842L575.836,945.842L575.836,986.988ZM564.048,947.842L564.048,984.988L573.589,984.988L573.589,947.842L564.048,947.842Z" style="fill:rgb(51,51,51);"/>
            </g>
            <g transform="matrix(0.889865,0,0,1,336.12,4.91386)">
                <rect x="564.048" y="947.842" width="9.541" height="37.146"/>
                <path d="M575.836,986.988L561.8,986.988L561.8,945.842L575.836,945.842L575.836,986.988ZM564.048,947.842L564.048,984.988L573.589,984.988L573.589,947.842L564.048,947.842Z" style="fill:rgb(51,51,51);"/>
            </g>
            <g transform="matrix(0.889865,0,0,1,350.776,7.30426)">
                <rect x="564.048" y="947.842" width="9.541" height="37.146"/>
                <path d="M575.836,986.988L561.8,986.988L561.8,945.842L575.836,945.842L575.836,986.988ZM564.048,947.842L564.048,984.988L573.589,984.988L573.589,947.842L564.048,947.842Z" style="fill:rgb(51,51,51);"/>
            </g>
            <g transform="matrix(0.889865,0,0,1,365.859,9.7607)">
                <rect x="564.048" y="947.842" width="9.541" height="37.146"/>
                <path d="M575.836,986.988L561.8,986.988L561.8,945.842L575.836,945.842L575.836,986.988ZM564.048,947.842L564.048,984.988L573.589,984.988L573.589,947.842L564.048,947.842Z" style="fill:rgb(51,51,51);"/>
            </g>
            <g transform="matrix(0.889865,0,0,1,381.264,13.4237)">
                <rect x="564.048" y="947.842" width="9.541" height="37.146"/>
                <path d="M575.836,986.988L561.8,986.988L561.8,945.842L575.836,945.842L575.836,986.988ZM564.048,947.842L564.048,984.988L573.589,984.988L573.589,947.842L564.048,947.842Z" style="fill:rgb(51,51,51);"/>
            </g>
            <g transform="matrix(0.889865,0,0,1,396.404,16.3395)">
                <rect x="564.048" y="947.842" width="9.541" height="37.146"/>
                <path d="M575.836,986.988L561.8,986.988L561.8,945.842L575.836,945.842L575.836,986.988ZM564.048,947.842L564.048,984.988L573.589,984.988L573.589,947.842L564.048,947.842Z" style="fill:rgb(51,51,51);"/>
            </g>
            <g transform="matrix(0.889865,0,0,1,410.59,20.5456)">
                <rect x="564.048" y="947.842" width="9.541" height="37.146"/>
                <path d="M575.836,986.988L561.8,986.988L561.8,945.842L575.836,945.842L575.836,986.988ZM564.048,947.842L564.048,984.988L573.589,984.988L573.589,947.842L564.048,947.842Z" style="fill:rgb(51,51,51);"/>
            </g>
            <g transform="matrix(0.889865,0,0,1,425.937,24.801)">
                <rect x="564.048" y="947.842" width="9.541" height="37.146"/>
                <path d="M575.836,986.988L561.8,986.988L561.8,945.842L575.836,945.842L575.836,986.988ZM564.048,947.842L564.048,984.988L573.589,984.988L573.589,947.842L564.048,947.842Z" style="fill:rgb(51,51,51);"/>
            </g>
            <g transform="matrix(0.889865,0,0,1,440.923,29.2032)">
                <rect x="564.048" y="947.842" width="9.541" height="37.146"/>
                <path d="M575.836,986.988L561.8,986.988L561.8,945.842L575.836,945.842L575.836,986.988ZM564.048,947.842L564.048,984.988L573.589,984.988L573.589,947.842L564.048,947.842Z" style="fill:rgb(51,51,51);"/>
            </g>
            <g transform="matrix(0.889865,0,0,1,456.29,33.3463)">
                <rect x="564.048" y="947.842" width="9.541" height="37.146"/>
                <path d="M575.836,986.988L561.8,986.988L561.8,945.842L575.836,945.842L575.836,986.988ZM564.048,947.842L564.048,984.988L573.589,984.988L573.589,947.842L564.048,947.842Z" style="fill:rgb(51,51,51);"/>
            </g>
            <g transform="matrix(0.889865,0,0,1,471.245,38.8673)">
                <rect x="564.048" y="947.842" width="9.541" height="37.146"/>
                <path d="M575.836,986.988L561.8,986.988L561.8,945.842L575.836,945.842L575.836,986.988ZM564.048,947.842L564.048,984.988L573.589,984.988L573.589,947.842L564.048,947.842Z" style="fill:rgb(51,51,51);"/>
            </g>
            <g transform="matrix(0.889865,0,0,1,486.231,43.2489)">
                <rect x="564.048" y="947.842" width="9.541" height="37.146"/>
                <path d="M575.836,986.988L561.8,986.988L561.8,945.842L575.836,945.842L575.836,986.988ZM564.048,947.842L564.048,984.988L573.589,984.988L573.589,947.842L564.048,947.842Z" style="fill:rgb(51,51,51);"/>
            </g>
            <g transform="matrix(0.889865,0,0,1,501.237,52.1983)">
                <rect x="564.048" y="947.842" width="9.541" height="37.146"/>
                <path d="M575.836,986.988L561.8,986.988L561.8,945.842L575.836,945.842L575.836,986.988ZM564.048,947.842L564.048,984.988L573.589,984.988L573.589,947.842L564.048,947.842Z" style="fill:rgb(51,51,51);"/>
            </g>
            <g transform="matrix(0.889865,0,0,1,516.619,61.3154)">
                <rect x="564.048" y="947.842" width="9.541" height="37.146"/>
                <path d="M575.836,986.988L561.8,986.988L561.8,945.842L575.836,945.842L575.836,986.988ZM564.048,947.842L564.048,984.988L573.589,984.988L573.589,947.842L564.048,947.842Z" style="fill:rgb(51,51,51);"/>
            </g>
            <g transform="matrix(0.889865,0,0,1,532.25,65.8507)">
                <rect x="564.048" y="947.842" width="9.541" height="37.146"/>
                <path d="M575.836,986.988L561.801,986.988L561.801,945.842L575.836,945.842L575.836,986.988ZM564.048,947.842L564.048,984.988L573.589,984.988L573.589,947.842L564.048,947.842Z" style="fill:rgb(51,51,51);"/>
            </g>
            <g transform="matrix(0.889865,0,0,1,547.673,71.5364)">
                <rect x="564.048" y="947.842" width="9.541" height="37.146"/>
                <path d="M575.836,986.988L561.801,986.988L561.801,945.842L575.836,945.842L575.836,986.988ZM564.048,947.842L564.048,984.988L573.589,984.988L573.589,947.842L564.048,947.842Z" style="fill:rgb(51,51,51);"/>
            </g>
            <g transform="matrix(-0.889865,0,0,1,1044.11,-0.43865)">
                <rect x="564.048" y="947.842" width="9.541" height="37.146"/>
                <path d="M561.8,986.988L575.836,986.988L575.836,945.842L561.8,945.842L561.8,986.988ZM573.589,947.842L573.589,984.988L564.048,984.988L564.048,947.842L573.589,947.842Z" style="fill:rgb(51,51,51);"/>
            </g>
            <g transform="matrix(-0.889865,0,0,1,1058.72,-0.43865)">
                <rect x="564.048" y="947.842" width="9.541" height="37.146"/>
                <path d="M561.8,986.988L575.836,986.988L575.836,945.842L561.8,945.842L561.8,986.988ZM573.589,947.842L573.589,984.988L564.048,984.988L564.048,947.842L573.589,947.842Z" style="fill:rgb(51,51,51);"/>
            </g>
            <g transform="matrix(-0.889865,0,0,1,1013.47,3.05449)">
                <rect x="564.048" y="947.842" width="9.541" height="37.146"/>
                <path d="M561.8,986.988L575.836,986.988L575.836,945.842L561.8,945.842L561.8,986.988ZM573.589,947.842L573.589,984.988L564.048,984.988L564.048,947.842L573.589,947.842Z" style="fill:rgb(51,51,51);"/>
            </g>
            <g transform="matrix(-0.889865,0,0,1,1028.67,3.05449)">
                <rect x="564.048" y="947.842" width="9.541" height="37.146"/>
                <path d="M561.8,986.988L575.836,986.988L575.836,945.842L561.8,945.842L561.8,986.988ZM573.589,947.842L573.589,984.988L564.048,984.988L564.048,947.842L573.589,947.842Z" style="fill:rgb(51,51,51);"/>
            </g>
            <g transform="matrix(-0.889865,0,0,1,998.525,3.05449)">
                <rect x="564.048" y="947.842" width="9.541" height="37.146"/>
                <path d="M561.8,986.988L575.836,986.988L575.836,945.842L561.8,945.842L561.8,986.988ZM573.589,947.842L573.589,984.988L564.048,984.988L564.048,947.842L573.589,947.842Z" style="fill:rgb(51,51,51);"/>
            </g>
            <g transform="matrix(-0.889865,0,0,1,983.154,3.05449)">
                <rect x="564.048" y="947.842" width="9.541" height="37.146"/>
                <path d="M561.8,986.988L575.836,986.988L575.836,945.842L561.8,945.842L561.8,986.988ZM573.589,947.842L573.589,984.988L564.048,984.988L564.048,947.842L573.589,947.842Z" style="fill:rgb(51,51,51);"/>
            </g>
            <g transform="matrix(-0.889865,0,0,1,966.902,4.92935)">
                <rect x="564.048" y="947.842" width="9.541" height="37.146"/>
                <path d="M561.8,986.988L575.836,986.988L575.836,945.842L561.8,945.842L561.8,986.988ZM573.589,947.842L573.589,984.988L564.048,984.988L564.048,947.842L573.589,947.842Z" style="fill:rgb(51,51,51);"/>
            </g>
            <g transform="matrix(-0.889865,0,0,1,952.363,6.79435)">
                <rect x="564.048" y="947.842" width="9.541" height="37.146"/>
                <path d="M561.8,986.988L575.836,986.988L575.836,945.842L561.8,945.842L561.8,986.988ZM573.589,947.842L573.589,984.988L564.048,984.988L564.048,947.842L573.589,947.842Z" style="fill:rgb(51,51,51);"/>
            </g>
            <g transform="matrix(-0.889865,0,0,1,937.45,6.79435)">
                <rect x="564.048" y="947.842" width="9.541" height="37.146"/>
                <path d="M561.8,986.988L575.836,986.988L575.836,945.842L561.8,945.842L561.8,986.988ZM573.589,947.842L573.589,984.988L564.048,984.988L564.048,947.842L573.589,947.842Z" style="fill:rgb(51,51,51);"/>
            </g>
            <g transform="matrix(-0.889865,0,0,1,922.795,9.18475)">
                <rect x="564.048" y="947.842" width="9.541" height="37.146"/>
                <path d="M561.8,986.988L575.836,986.988L575.836,945.842L561.8,945.842L561.8,986.988ZM573.589,947.842L573.589,984.988L564.048,984.988L564.048,947.842L573.589,947.842Z" style="fill:rgb(51,51,51);"/>
            </g>
            <g transform="matrix(-0.889865,0,0,1,907.711,11.6412)">
                <rect x="564.048" y="947.842" width="9.541" height="37.146"/>
                <path d="M561.8,986.988L575.836,986.988L575.836,945.842L561.8,945.842L561.8,986.988ZM573.589,947.842L573.589,984.988L564.048,984.988L564.048,947.842L573.589,947.842Z" style="fill:rgb(51,51,51);"/>
            </g>
            <g transform="matrix(-0.889865,0,0,1,892.306,15.3042)">
                <rect x="564.048" y="947.842" width="9.541" height="37.146"/>
                <path d="M561.8,986.988L575.836,986.988L575.836,945.842L561.8,945.842L561.8,986.988ZM573.589,947.842L573.589,984.988L564.048,984.988L564.048,947.842L573.589,947.842Z" style="fill:rgb(51,51,51);"/>
            </g>
            <g transform="matrix(-0.889865,0,0,1,877.166,18.2199)">
                <rect x="564.048" y="947.842" width="9.541" height="37.146"/>
                <path d="M561.8,986.988L575.836,986.988L575.836,945.842L561.8,945.842L561.8,986.988ZM573.589,947.842L573.589,984.988L564.048,984.988L564.048,947.842L573.589,947.842Z" style="fill:rgb(51,51,51);"/>
            </g>
            <g transform="matrix(-0.889865,0,0,1,862.98,22.4261)">
                <rect x="564.048" y="947.842" width="9.541" height="37.146"/>
                <path d="M561.8,986.988L575.836,986.988L575.836,945.842L561.8,945.842L561.8,986.988ZM573.589,947.842L573.589,984.988L564.048,984.988L564.048,947.842L573.589,947.842Z" style="fill:rgb(51,51,51);"/>
            </g>
            <g transform="matrix(-0.889865,0,0,1,847.634,26.6815)">
                <rect x="564.048" y="947.842" width="9.541" height="37.146"/>
                <path d="M561.8,986.988L575.836,986.988L575.836,945.842L561.8,945.842L561.8,986.988ZM573.589,947.842L573.589,984.988L564.048,984.988L564.048,947.842L573.589,947.842Z" style="fill:rgb(51,51,51);"/>
            </g>
            <g transform="matrix(-0.889865,0,0,1,832.648,31.0837)">
                <rect x="564.048" y="947.842" width="9.541" height="37.146"/>
                <path d="M561.8,986.988L575.836,986.988L575.836,945.842L561.8,945.842L561.8,986.988ZM573.589,947.842L573.589,984.988L564.048,984.988L564.048,947.842L573.589,947.842Z" style="fill:rgb(51,51,51);"/>
            </g>
            <g transform="matrix(-0.889865,0,0,1,817.28,39.0514)">
                <rect x="564.048" y="947.842" width="9.541" height="37.146"/>
                <path d="M561.8,986.988L575.836,986.988L575.836,945.842L561.8,945.842L561.8,986.988ZM573.589,947.842L573.589,984.988L564.048,984.988L564.048,947.842L573.589,947.842Z" style="fill:rgb(51,51,51);"/>
            </g>
            <g transform="matrix(-0.889865,0,0,1,802.326,44.0061)">
                <rect x="564.048" y="947.842" width="9.541" height="37.146"/>
                <path d="M561.8,986.988L575.836,986.988L575.836,945.842L561.8,945.842L561.8,986.988ZM573.589,947.842L573.589,984.988L564.048,984.988L564.048,947.842L573.589,947.842Z" style="fill:rgb(51,51,51);"/>
            </g>
            <g transform="matrix(-0.889865,0,0,1,787.34,49.7686)">
                <rect x="564.048" y="947.842" width="9.541" height="37.146"/>
                <path d="M561.8,986.988L575.836,986.988L575.836,945.842L561.8,945.842L561.8,986.988ZM573.589,947.842L573.589,984.988L564.048,984.988L564.048,947.842L573.589,947.842Z" style="fill:rgb(51,51,51);"/>
            </g>
            <g transform="matrix(-0.889865,0,0,1,772.333,54.0788)">
                <rect x="564.048" y="947.842" width="9.541" height="37.146"/>
                <path d="M561.8,986.988L575.836,986.988L575.836,945.842L561.8,945.842L561.8,986.988ZM573.589,947.842L573.589,984.988L564.048,984.988L564.048,947.842L573.589,947.842Z" style="fill:rgb(51,51,51);"/>
            </g>
            <g transform="matrix(-0.889865,0,0,1,756.951,63.1959)">
                <rect x="564.048" y="947.842" width="9.541" height="37.146"/>
                <path d="M561.8,986.988L575.836,986.988L575.836,945.842L561.8,945.842L561.8,986.988ZM573.589,947.842L573.589,984.988L564.048,984.988L564.048,947.842L573.589,947.842Z" style="fill:rgb(51,51,51);"/>
            </g>
            <g transform="matrix(-0.889865,0,0,1,741.321,67.7312)">
                <rect x="564.048" y="947.842" width="9.541" height="37.146"/>
                <path d="M561.8,986.988L575.836,986.988L575.836,945.842L561.8,945.842L561.8,986.988ZM573.589,947.842L573.589,984.988L564.048,984.988L564.048,947.842L573.589,947.842Z" style="fill:rgb(51,51,51);"/>
            </g>
            <g transform="matrix(-0.889865,0,0,1,725.897,73.4169)">
                <rect x="564.048" y="947.842" width="9.541" height="37.146"/>
                <path d="M561.8,986.988L575.836,986.988L575.836,945.842L561.8,945.842L561.8,986.988ZM573.589,947.842L573.589,984.988L564.048,984.988L564.048,947.842L573.589,947.842Z" style="fill:rgb(51,51,51);"/>
            </g>
        </g>
        <path id="filler" d="M215.161,1081.35C229.064,1073.85 243.963,1068.36 260.083,1067.36C510.586,1051.83 763.125,1053.53 1017.1,1067.36C1043.93,1068.82 1044.64,1069.81 1072.61,1081.35C1080.51,1084.62 1088.22,1085.71 1097.08,1085.71C1006.59,1023.46 912.582,993.487 816.263,989.638C687.122,984.477 512.854,982.998 448.712,989.638C350.603,999.794 266.284,1033.67 191.996,1085.71C200.128,1086.25 207.832,1084.71 215.161,1081.35Z" style="fill:rgb(118,122,123);stroke:rgb(52,53,53);stroke-width:3px;"/>
        <path id="oben-rahmen" d="M191.945,1085.78L175.071,1085.78C250.119,1011.54 345.332,980.447 448.712,965.648C514.349,956.252 710.946,956.106 816.263,965.648C913.879,974.492 1011.78,999.149 1110.05,1085.78L1097,1085.78C1020.13,1018.04 924.943,984.542 816.263,976.244C709.248,968.776 527.038,968.378 448.712,976.244C358.661,985.288 262.699,1021.58 191.945,1085.78Z" style="fill:rgb(231,232,233);stroke:black;stroke-width:3px;"/>
        <path id="unten-linie" d="M191.996,1085.71C200.128,1086.25 207.832,1084.71 215.161,1081.35C229.064,1073.85 243.963,1068.36 260.083,1067.36C510.586,1051.83 763.125,1053.53 1017.1,1067.36C1043.93,1068.82 1044.64,1069.81 1072.61,1081.35C1080.51,1084.62 1088.22,1085.71 1097.08,1085.71" style="fill:none;stroke:black;stroke-width:3px;"/>
    </g>
    <path d="M60.038,1048.8C76.924,1068.27 117.662,1079.8 175.071,1085.78C250.119,1011.54 345.332,980.447 448.712,965.648C514.349,956.252 710.946,956.106 816.263,965.648C913.879,974.492 1011.78,999.149 1110.05,1085.78C1152.41,1080.76 1195.91,1068.07 1223.06,1048.8L1135.73,903.873L1059.63,820.754L223.807,820.754L146.706,903.873L60.038,1048.8" style="fill:white;stroke:black;stroke-width:3px;"/>
    <g id="Deckel">
        <path id="Deckel1" d="M618.782,908.722C791.525,908.082 992.304,909.375 1040.13,865.051C1068.42,838.832 1063.12,813.12 1040.13,787.649C1015.64,760.531 963.54,744.704 911.961,742.183C729.729,733.278 547.484,733.838 365.229,742.183C303.251,745.021 260.553,761.057 239.501,787.649C217.813,815.114 218.045,840.897 239.501,865.051C275.813,905.929 480.504,905.431 618.782,908.722" style="fill:rgb(232,232,232);stroke:black;stroke-width:3px;"/>
        <g transform="matrix(1,0,0,1,0,2.14325)">
            <path d="M618.782,902.818C468.902,901.101 349.469,895.162 282.273,879.087C525.042,887.683 753.502,886.989 996.379,879.087C946.817,894.955 835.933,903.82 618.782,902.818Z" style="fill:rgb(118,122,123);stroke:black;stroke-width:3px;"/>
        </g>
        <g id="links-rechts">
            <path d="M1059.35,820.401C1055.35,805.764 1046.58,793.902 1035.79,783.213L1122.01,863.689L1135.76,903.945L1059.35,820.401Z" style="fill:rgb(221,221,219);stroke:black;stroke-width:3px;"/>
            <path d="M1160.83,944.422L1171.04,944.422L1122.01,863.689L1135.76,903.945L1160.83,944.422Z" style="fill:rgb(231,232,233);stroke:black;stroke-width:3px;"/>
            <g transform="matrix(-1,0,0,1,1282.52,0)">
                <path d="M1160.83,944.422L1171.04,944.422L1122.01,863.689L1135.76,903.945L1160.83,944.422Z" style="fill:rgb(231,232,233);stroke:black;stroke-width:3px;"/>
            </g>
            <g transform="matrix(-1,0,0,1,1282.51,0)">
                <path d="M1058.78,820.884C1056.52,806.896 1051.57,798.262 1039.11,783.213L1122.01,863.689L1135.76,903.945L1058.78,820.884Z" style="fill:rgb(221,221,219);stroke:black;stroke-width:3px;"/>
            </g>
        </g>
    </g>
    <g transform="matrix(0.997903,-0.0647247,0.0541406,0.834721,-275.464,95.8941)">
        <g id="led-anzeige">
            <path d="M862.856,1021.29C862.582,1021.27 862.306,1021.27 862.031,1021.29L861.907,1021.95C861.645,1021.99 861.388,1022.05 861.14,1022.15L860.707,1021.65C860.456,1021.76 860.217,1021.9 859.993,1022.06L860.211,1022.69C860.004,1022.85 859.815,1023.04 859.65,1023.25L859.024,1023.03C858.863,1023.25 858.725,1023.49 858.611,1023.75L859.113,1024.18C859.017,1024.42 858.948,1024.68 858.908,1024.94L858.256,1025.07C858.229,1025.34 858.229,1025.62 858.256,1025.89L858.908,1026.02C858.948,1026.28 859.017,1026.54 859.113,1026.79L858.611,1027.22C858.725,1027.47 858.863,1027.71 859.024,1027.93L859.65,1027.71C859.815,1027.92 860.004,1028.11 860.211,1028.28L859.993,1028.9C860.217,1029.06 860.456,1029.2 860.707,1029.31L861.14,1028.81C861.388,1028.91 861.645,1028.98 861.907,1029.02L862.031,1029.67C862.306,1029.7 862.582,1029.7 862.856,1029.67L862.98,1029.02C863.243,1028.98 863.5,1028.91 863.747,1028.81L864.18,1029.31C864.431,1029.2 864.671,1029.06 864.895,1028.9L864.676,1028.28C864.884,1028.11 865.072,1027.92 865.238,1027.71L865.864,1027.93C866.025,1027.71 866.163,1027.47 866.276,1027.22L865.774,1026.79C865.871,1026.54 865.94,1026.28 865.98,1026.02L866.631,1025.89C866.658,1025.62 866.658,1025.34 866.631,1025.07L865.98,1024.94C865.94,1024.68 865.871,1024.42 865.774,1024.18L866.276,1023.75C866.163,1023.49 866.025,1023.25 865.864,1023.03L865.238,1023.25C865.072,1023.04 864.884,1022.85 864.676,1022.69L864.895,1022.06C864.671,1021.9 864.431,1021.76 864.18,1021.65L863.747,1022.15C863.5,1022.05 863.243,1021.99 862.98,1021.95L862.856,1021.29ZM862.444,1024.64C862.908,1024.64 863.285,1025.02 863.285,1025.48C863.285,1025.95 862.908,1026.32 862.444,1026.32C861.979,1026.32 861.602,1025.95 861.602,1025.48C861.602,1025.02 861.979,1024.64 862.444,1024.64Z" style="fill:rgb(51,51,51);"/>
        </g>
    </g>
</svg>
