<?xml version="1.0" standalone="no"?>
<!DOCTYPE svg PUBLIC "-//W3C//DTD SVG 1.1//EN" "http://www.w3.org/Graphics/SVG/1.1/DTD/svg11.dtd">
<svg width="100%" height="100%" viewBox="0 0 1280 1150" version="1.1" xmlns="http://www.w3.org/2000/svg" xmlns:xlink="http://www.w3.org/1999/xlink" xml:space="preserve" style="fill-rule:evenodd;clip-rule:evenodd;stroke-linecap:round;stroke-linejoin:round;stroke-miterlimit:1.41421;">
    <g id="back 901ND" transform="matrix(1,0,0,1,-7.34323,131.744)">
        <g id="Füsse" transform="matrix(1.06553,0,0,1.12465,-58.8721,-245.226)">
            <g transform="matrix(1,0,0,1,26.9723,-0.553293)">
                <path d="M962.639,1069.2L983.568,1069.2L983.568,1077.09C976.577,1079.61 969.602,1079.4 962.639,1077.09L962.639,1069.2Z" style="fill:rgb(51,51,51);stroke-width:1.83px;stroke:black;"/>
            </g>
            <g transform="matrix(1,0,0,1,-664.54,0)">
                <path d="M962.639,1069.2L983.568,1069.2L983.568,1077.09C976.577,1079.61 969.602,1079.4 962.639,1077.09L962.639,1069.2Z" style="fill:rgb(51,51,51);stroke-width:1.83px;stroke:black;"/>
            </g>
        </g>
        <g id="rumpf">
            <g id="rumpfs außen" transform="matrix(1.06553,0,0,1.12465,-45.0948,-202.243)">
                <path d="M254.764,1030.64L213.301,1030.64C190.589,1024.3 179.105,1006.95 181.416,976.056C182.609,960.11 210.294,922.614 240.765,908.731C303.485,880.154 348.149,871.472 403.472,865.5C547.237,855.892 690.645,851.8 833.348,862.124C903.492,867.525 973.507,881.623 1035.84,908.731C1062.24,923.849 1087.26,943.34 1097.93,976.056C1106.57,1004.74 1096.15,1023.49 1072.83,1030.64L1025.04,1030.64L254.764,1030.64Z" style="fill:rgb(41,45,93);stroke-width:0.64px;stroke:black;"/>
            </g>
            <g id="rumpf innen" transform="matrix(1.06553,0,0,1.12465,-45.0948,-202.243)">
                <path d="M254.764,1030.64L213.301,1030.64C193.615,1020.12 192.098,994.611 192.896,976.056C193.583,960.08 219.027,931.347 249.498,917.464C312.218,888.887 348.149,882.432 403.472,876.46C547.237,866.851 690.645,862.918 833.348,873.243C903.492,878.644 964.928,888.416 1027.26,915.524C1053.66,930.642 1075.85,943.34 1086.52,976.056C1090.21,994.545 1090.1,1022.96 1072.83,1030.64L1025.04,1030.64L254.764,1030.64Z" style="fill:rgb(230,230,230);stroke-width:0.64px;stroke:black;"/>
            </g>
            <g transform="matrix(1.06553,0,0,1.12465,-45.0948,-202.243)">
                <path d="M258.534,1032.84L1022.11,1032.84C1042.11,972.318 1027.64,931.849 952.002,911.518C841.399,881.791 417.187,883.348 328.934,911.518C234.429,928.901 237.298,977.891 258.534,1032.84Z" style="fill:rgb(242,242,242);stroke-width:0.64px;stroke:black;"/>
            </g>
        </g>
        <g id="LüftungBack" transform="matrix(1,0,0,1,0,-0.838999)">
            <rect x="400.888" y="957.702" width="6.676" height="2.472" style="fill:rgb(51,51,51);stroke-width:0.7px;stroke:black;"/>
            <g transform="matrix(1,0,0,1,14.0644,0)">
                <rect x="400.888" y="957.702" width="6.676" height="2.472" style="fill:rgb(51,51,51);stroke-width:0.7px;stroke:black;"/>
            </g>
            <g transform="matrix(1,0,0,1,26.9949,0)">
                <rect x="400.888" y="957.702" width="6.676" height="2.472" style="fill:rgb(51,51,51);stroke-width:0.7px;stroke:black;"/>
            </g>
            <g transform="matrix(1,0,0,1,40.8265,0)">
                <rect x="400.888" y="957.702" width="6.676" height="2.472" style="fill:rgb(51,51,51);stroke-width:0.7px;stroke:black;"/>
            </g>
            <g transform="matrix(1,0,0,1,53.9452,0)">
                <rect x="400.888" y="957.702" width="6.676" height="2.472" style="fill:rgb(51,51,51);stroke-width:0.7px;stroke:black;"/>
            </g>
            <g transform="matrix(1,0,0,1,67.8013,0)">
                <rect x="400.888" y="957.702" width="6.676" height="2.472" style="fill:rgb(51,51,51);stroke-width:0.7px;stroke:black;"/>
            </g>
            <g transform="matrix(1,0,0,1,81.3522,0)">
                <rect x="400.888" y="957.702" width="6.676" height="2.472" style="fill:rgb(51,51,51);stroke-width:0.7px;stroke:black;"/>
            </g>
            <g transform="matrix(1,0,0,1,95.4084,0)">
                <rect x="400.888" y="957.702" width="6.676" height="2.472" style="fill:rgb(51,51,51);stroke-width:0.7px;stroke:black;"/>
            </g>
            <g transform="matrix(1,0,0,1,109.323,0)">
                <rect x="400.888" y="957.702" width="6.676" height="2.472" style="fill:rgb(51,51,51);stroke-width:0.7px;stroke:black;"/>
            </g>
            <g transform="matrix(1,0,0,1,122.055,0)">
                <rect x="400.888" y="957.702" width="6.676" height="2.472" style="fill:rgb(51,51,51);stroke-width:0.7px;stroke:black;"/>
            </g>
            <g transform="matrix(1,0,0,1,135.438,0)">
                <rect x="400.888" y="957.702" width="6.676" height="2.472" style="fill:rgb(51,51,51);stroke-width:0.7px;stroke:black;"/>
            </g>
            <g transform="matrix(1,0,0,1,149.62,0)">
                <rect x="400.888" y="957.702" width="6.676" height="2.472" style="fill:rgb(51,51,51);stroke-width:0.7px;stroke:black;"/>
            </g>
            <g transform="matrix(1,0,0,1,162.754,0)">
                <rect x="400.888" y="957.702" width="6.676" height="2.472" style="fill:rgb(51,51,51);stroke-width:0.7px;stroke:black;"/>
            </g>
            <g transform="matrix(1,0,0,1,177.916,0)">
                <rect x="400.888" y="957.702" width="6.676" height="2.472" style="fill:rgb(51,51,51);stroke-width:0.7px;stroke:black;"/>
            </g>
            <g transform="matrix(1,0,0,1,190.433,0)">
                <rect x="400.888" y="957.702" width="6.676" height="2.472" style="fill:rgb(51,51,51);stroke-width:0.7px;stroke:black;"/>
            </g>
            <g transform="matrix(1,0,0,1,203.703,0)">
                <rect x="400.888" y="957.702" width="6.676" height="2.472" style="fill:rgb(51,51,51);stroke-width:0.7px;stroke:black;"/>
            </g>
            <g transform="matrix(1,0,0,1,217,0)">
                <rect x="400.888" y="957.702" width="6.676" height="2.472" style="fill:rgb(51,51,51);stroke-width:0.7px;stroke:black;"/>
            </g>
            <g transform="matrix(1,0,0,1,230.845,0)">
                <rect x="400.888" y="957.702" width="6.676" height="2.472" style="fill:rgb(51,51,51);stroke-width:0.7px;stroke:black;"/>
            </g>
            <g transform="matrix(1,0,0,1,244.732,0)">
                <rect x="400.888" y="957.702" width="6.676" height="2.472" style="fill:rgb(51,51,51);stroke-width:0.7px;stroke:black;"/>
            </g>
            <g transform="matrix(1,0,0,1,257.662,0)">
                <rect x="400.888" y="957.702" width="6.676" height="2.472" style="fill:rgb(51,51,51);stroke-width:0.7px;stroke:black;"/>
            </g>
            <g transform="matrix(1,0,0,1,270.972,0)">
                <rect x="400.888" y="957.702" width="6.676" height="2.472" style="fill:rgb(51,51,51);stroke-width:0.7px;stroke:black;"/>
            </g>
            <g transform="matrix(1,0,0,1,284.579,0)">
                <rect x="400.888" y="957.702" width="6.676" height="2.472" style="fill:rgb(51,51,51);stroke-width:0.7px;stroke:black;"/>
            </g>
            <g transform="matrix(1,0,0,1,299.33,0)">
                <rect x="400.888" y="957.702" width="6.676" height="2.472" style="fill:rgb(51,51,51);stroke-width:0.7px;stroke:black;"/>
            </g>
            <g transform="matrix(1,0,0,1,311.923,0)">
                <rect x="400.888" y="957.702" width="6.676" height="2.472" style="fill:rgb(51,51,51);stroke-width:0.7px;stroke:black;"/>
            </g>
            <g transform="matrix(1,0,0,1,325.57,0)">
                <rect x="400.888" y="957.702" width="6.676" height="2.472" style="fill:rgb(51,51,51);stroke-width:0.7px;stroke:black;"/>
            </g>
            <g transform="matrix(1,0,0,1,339.641,0)">
                <rect x="400.888" y="957.702" width="6.676" height="2.472" style="fill:rgb(51,51,51);stroke-width:0.7px;stroke:black;"/>
            </g>
            <g transform="matrix(1,0,0,1,352.862,0)">
                <rect x="400.888" y="957.702" width="6.676" height="2.472" style="fill:rgb(51,51,51);stroke-width:0.7px;stroke:black;"/>
            </g>
            <g transform="matrix(1,0,0,1,366.385,0)">
                <rect x="400.888" y="957.702" width="6.676" height="2.472" style="fill:rgb(51,51,51);stroke-width:0.7px;stroke:black;"/>
            </g>
            <g transform="matrix(1,0,0,1,380.209,0)">
                <rect x="400.888" y="957.702" width="6.676" height="2.472" style="fill:rgb(51,51,51);stroke-width:0.7px;stroke:black;"/>
            </g>
            <g transform="matrix(1,0,0,1,393.734,0)">
                <rect x="400.888" y="957.702" width="6.676" height="2.472" style="fill:rgb(51,51,51);stroke-width:0.7px;stroke:black;"/>
            </g>
            <g transform="matrix(1,0,0,1,407.874,0)">
                <rect x="400.888" y="957.702" width="6.676" height="2.472" style="fill:rgb(51,51,51);stroke-width:0.7px;stroke:black;"/>
            </g>
            <g transform="matrix(1,0,0,1,420.695,0)">
                <rect x="400.888" y="957.702" width="6.676" height="2.472" style="fill:rgb(51,51,51);stroke-width:0.7px;stroke:black;"/>
            </g>
            <g transform="matrix(1,0,0,1,434.706,0)">
                <rect x="400.888" y="957.702" width="6.676" height="2.472" style="fill:rgb(51,51,51);stroke-width:0.7px;stroke:black;"/>
            </g>
            <g transform="matrix(1,0,0,1,448.196,0)">
                <rect x="400.888" y="957.702" width="6.676" height="2.472" style="fill:rgb(51,51,51);stroke-width:0.7px;stroke:black;"/>
            </g>
            <g transform="matrix(1,0,0,1,462.608,0)">
                <rect x="400.888" y="957.702" width="6.676" height="2.472" style="fill:rgb(51,51,51);stroke-width:0.7px;stroke:black;"/>
            </g>
            <g transform="matrix(1,0,0,1,476.348,0)">
                <rect x="400.888" y="957.702" width="6.676" height="2.472" style="fill:rgb(51,51,51);stroke-width:0.7px;stroke:black;"/>
            </g>
            <g transform="matrix(1,0,0,1,489.909,0)">
                <rect x="400.888" y="957.702" width="6.676" height="2.472" style="fill:rgb(51,51,51);stroke-width:0.7px;stroke:black;"/>
            </g>
            <g transform="matrix(1,0,0,1,503.567,0)">
                <rect x="400.888" y="957.702" width="6.676" height="2.472" style="fill:rgb(51,51,51);stroke-width:0.7px;stroke:black;"/>
            </g>
            <g transform="matrix(1,0,0,1,517.344,0)">
                <rect x="400.888" y="957.702" width="6.676" height="2.472" style="fill:rgb(51,51,51);stroke-width:0.7px;stroke:black;"/>
            </g>
            <g transform="matrix(1,0,0,1,530.76,0)">
                <rect x="400.888" y="957.702" width="6.676" height="2.472" style="fill:rgb(51,51,51);stroke-width:0.7px;stroke:black;"/>
            </g>
            <g transform="matrix(1,0,0,1,543.578,0)">
                <rect x="400.888" y="957.702" width="6.676" height="2.472" style="fill:rgb(51,51,51);stroke-width:0.7px;stroke:black;"/>
            </g>
            <g transform="matrix(1,0,0,1,558.145,0)">
                <rect x="400.888" y="957.702" width="6.676" height="2.472" style="fill:rgb(51,51,51);stroke-width:0.7px;stroke:black;"/>
            </g>
            <g transform="matrix(1,0,0,1,571.209,0)">
                <rect x="400.888" y="957.702" width="6.676" height="2.472" style="fill:rgb(51,51,51);stroke-width:0.7px;stroke:black;"/>
            </g>
            <g transform="matrix(1,0,0,1,584.131,0)">
                <rect x="400.888" y="957.702" width="6.676" height="2.472" style="fill:rgb(51,51,51);stroke-width:0.7px;stroke:black;"/>
            </g>
            <g transform="matrix(1,0,0,1,613.06,0)">
                <rect x="400.888" y="957.702" width="6.676" height="2.472" style="fill:rgb(51,51,51);stroke-width:0.7px;stroke:black;"/>
            </g>
            <g transform="matrix(1,0,0,1,597.684,0)">
                <rect x="400.888" y="957.702" width="6.676" height="2.472" style="fill:rgb(51,51,51);stroke-width:0.7px;stroke:black;"/>
            </g>
            <g transform="matrix(1,0,0,1,625.461,0)">
                <rect x="400.888" y="957.702" width="6.676" height="2.472" style="fill:rgb(51,51,51);stroke-width:0.7px;stroke:black;"/>
            </g>
            <g transform="matrix(1,0,0,1,-13.4413,0)">
                <rect x="400.888" y="957.702" width="6.676" height="2.472" style="fill:rgb(51,51,51);stroke-width:0.7px;stroke:black;"/>
            </g>
            <g transform="matrix(1,0,0,1,-26.981,0)">
                <rect x="400.888" y="957.702" width="6.676" height="2.472" style="fill:rgb(51,51,51);stroke-width:0.7px;stroke:black;"/>
            </g>
            <g transform="matrix(1,0,0,1,-26.981,0)">
                <rect x="400.888" y="957.702" width="6.676" height="2.472" style="fill:rgb(51,51,51);stroke-width:0.7px;stroke:black;"/>
            </g>
            <g transform="matrix(1,0,0,1,-40.5702,0)">
                <rect x="400.888" y="957.702" width="6.676" height="2.472" style="fill:rgb(51,51,51);stroke-width:0.7px;stroke:black;"/>
            </g>
            <g transform="matrix(1,0,0,1,-53.8955,0)">
                <rect x="400.888" y="957.702" width="6.676" height="2.472" style="fill:rgb(51,51,51);stroke-width:0.7px;stroke:black;"/>
            </g>
            <g transform="matrix(1,0,0,1,-67.2787,0)">
                <rect x="400.888" y="957.702" width="6.676" height="2.472" style="fill:rgb(51,51,51);stroke-width:0.7px;stroke:black;"/>
            </g>
            <g transform="matrix(1,0,0,1,-81.6865,0)">
                <rect x="400.888" y="957.702" width="6.676" height="2.472" style="fill:rgb(51,51,51);stroke-width:0.7px;stroke:black;"/>
            </g>
            <g transform="matrix(1,0,0,1,-95.016,0)">
                <rect x="400.888" y="957.702" width="6.676" height="2.472" style="fill:rgb(51,51,51);stroke-width:0.7px;stroke:black;"/>
            </g>
            <g transform="matrix(1,0,0,1,-95.016,0)">
                <rect x="400.888" y="957.702" width="6.676" height="2.472" style="fill:rgb(51,51,51);stroke-width:0.7px;stroke:black;"/>
            </g>
            <g transform="matrix(1,0,0,1,-107.749,0)">
                <rect x="400.888" y="957.702" width="6.676" height="2.472" style="fill:rgb(51,51,51);stroke-width:0.7px;stroke:black;"/>
            </g>
            <g transform="matrix(1,0,0,1,-121.264,0)">
                <rect x="400.888" y="957.702" width="6.676" height="2.472" style="fill:rgb(51,51,51);stroke-width:0.7px;stroke:black;"/>
            </g>
            <g transform="matrix(1,0,0,1,-135.317,0)">
                <rect x="400.888" y="957.702" width="6.676" height="2.472" style="fill:rgb(51,51,51);stroke-width:0.7px;stroke:black;"/>
            </g>
            <g transform="matrix(1,0,0,1,-148.517,0)">
                <rect x="400.888" y="957.702" width="6.676" height="2.472" style="fill:rgb(51,51,51);stroke-width:0.7px;stroke:black;"/>
            </g>
            <g transform="matrix(1,0,0,1,-163.327,0)">
                <rect x="400.888" y="957.702" width="6.676" height="2.472" style="fill:rgb(51,51,51);stroke-width:0.7px;stroke:black;"/>
            </g>
        </g>
        <g id="Antenne Links" transform="matrix(0.801098,0,0,0.801098,809.607,148.599)">
            <g transform="matrix(1.30125,0,0,1.30125,-925.112,-362.242)">
                <g transform="matrix(1,0,0,1,-774.378,-3.15595)">
                    <path d="M1016.53,124.619L1020.93,301.171L1038.98,522.435L1043.24,1048.51L1043.34,1047.87C1042.55,1048.66 1036.04,1054.15 1004.23,1054.77C972.911,1055.37 970.935,1051.94 967.466,1051.24L967.191,1051.3L967.191,524.062L984.513,301.705L982.747,124.897C994.27,123.665 1005.51,123.655 1016.53,124.619Z" style="fill:rgb(196,197,197);stroke-width:3.36px;stroke:black;"/>
                </g>
                <g transform="matrix(1,0,0,1,-774.378,-3.15595)">
                    <path d="M984.703,117.906L984.703,124.656L982.618,124.676C996.416,123.902 1007.78,123.949 1017.13,124.676L1014.86,123.88L1014.86,118.475L1016.74,117.906C1007.39,117.18 996.023,117.133 982.225,117.906L982.438,117.653C982.428,113.255 981.481,92.528 982.438,76.704C983.201,64.092 991.781,61.281 998.604,61.255C1007.64,61.221 1015.03,65.675 1015.74,76.704C1016.77,92.72 1017.06,113.91 1017.08,117.653" style="fill:rgb(196,197,197);stroke-width:3.36px;stroke:black;"/>
                </g>
            </g>
            <g transform="matrix(1.30125,0,0,1.30125,-119.607,-362.242)">
                <g transform="matrix(1,0,0,1,-774.378,-3.15595)">
                    <path d="M1016.53,124.619L1020.93,301.171L1038.98,522.435L1043.24,1048.51L1043.34,1047.87C1042.55,1048.66 1036.04,1054.15 1004.23,1054.77C972.911,1055.37 970.935,1051.94 967.466,1051.24L967.191,1051.3L967.191,524.062L984.513,301.705L982.747,124.897C994.27,123.665 1005.51,123.655 1016.53,124.619Z" style="fill:rgb(196,197,197);stroke-width:3.36px;stroke:black;"/>
                </g>
                <g transform="matrix(1,0,0,1,-774.378,-3.15595)">
                    <path d="M984.703,117.906L984.703,124.656L982.618,124.676C996.416,123.902 1007.78,123.949 1017.13,124.676L1014.86,123.88L1014.86,118.475L1016.74,117.906C1007.39,117.18 996.023,117.133 982.225,117.906L982.438,117.653C982.428,113.255 981.481,92.528 982.438,76.704C983.201,64.092 991.781,61.281 998.604,61.255C1007.64,61.221 1015.03,65.675 1015.74,76.704C1016.77,92.72 1017.06,113.91 1017.08,117.653" style="fill:rgb(196,197,197);stroke-width:3.36px;stroke:black;"/>
                </g>
            </g>
        </g>
        <g id="back" transform="matrix(-1,5.66554e-16,-5.66554e-16,-1,1564.29,1832.05)">
            <g id="WAN" transform="matrix(1,-2.44929e-16,2.44929e-16,1,461.196,-42.0161)">
                <path d="M430.126,958.534L520.049,958.534L520.049,1035.48L430.126,1035.48L430.126,958.534" style="fill:rgb(230,230,230);stroke-width:1px;stroke:black;"/>
                <path d="M463.538,961.757L487.377,961.757L487.377,969.841L494.601,969.841L494.601,977.802L508.571,977.802L508.571,989.68L513.332,989.68L513.332,1005.6L508.571,1005.6L508.571,1018.27L440.482,1018.27L440.482,1005.6L437.015,1005.6L437.015,989.68L440.482,989.68L440.482,977.802L455.182,977.802L455.182,969.841L463.538,969.841L463.538,961.757" style="fill:white;stroke-width:1px;stroke:black;"/>
                <rect x="436.816" y="989.68" width="9.385" height="15.92" style="fill:black;stroke-width:1px;stroke:black;"/>
                <g transform="matrix(1,0,0,1,67.0669,-0.0235958)">
                    <rect x="436.816" y="989.68" width="9.385" height="15.92" style="fill:black;stroke-width:1px;stroke:black;"/>
                </g>
                <path d="M450.462,1000.22L450.462,1012.69" style="fill:none;stroke-width:1px;stroke:black;"/>
                <g transform="matrix(1,0,0,1,5.18811,0.142889)">
                    <path d="M450.462,1000.22L450.462,1012.69" style="fill:none;stroke-width:1px;stroke:black;"/>
                </g>
                <g transform="matrix(1,0,0,1,10.8216,0.142889)">
                    <path d="M450.462,1000.22L450.462,1012.69" style="fill:none;stroke-width:1px;stroke:black;"/>
                </g>
                <g transform="matrix(1,0,0,1,22.0044,0.291919)">
                    <path d="M450.462,1000.07L450.462,1012.69" style="fill:none;stroke-width:1px;stroke:black;"/>
                </g>
                <g transform="matrix(1,0,0,1,27.0496,0.291919)">
                    <path d="M450.462,1000.05L450.462,1012.69" style="fill:none;stroke-width:1px;stroke:black;"/>
                </g>
                <g transform="matrix(1,0,0,1,49.4509,0.192566)">
                    <path d="M450.462,1000.16L450.462,1012.69" style="fill:none;stroke-width:1px;stroke:black;"/>
                </g>
                <path d="M466.922,1000.38L466.922,1018.21" style="fill:none;stroke-width:1px;stroke:black;"/>
                <g transform="matrix(1,0,0,1,16.0399,-0.0558162)">
                    <path d="M466.922,1000.41L466.922,1018.27" style="fill:none;stroke-width:1px;stroke:black;"/>
                </g>
                <g transform="matrix(1,0,0,1,21.7443,-0.154611)">
                    <path d="M466.922,1000.5L466.922,1018.4" style="fill:none;stroke-width:1px;stroke:black;"/>
                </g>
                <g transform="matrix(1,0,0,1,27.6257,-0.353316)">
                    <path d="M466.922,1000.67L466.922,1018.4" style="fill:none;stroke-width:1px;stroke:black;"/>
                </g>
            </g>
            <g id="Power" transform="matrix(-1,-5.66554e-16,5.66554e-16,-1,1448.11,1948.99)">
                <rect x="360.529" y="973.018" width="50.745" height="61.322" style="fill:rgb(72,72,74);stroke-width:3.5px;stroke:black;"/>
                <g transform="matrix(1,0,0,1,-0.754159,0.503051)">
                    <ellipse cx="387.025" cy="998.035" rx="16.88" ry="17.207" style="fill:rgb(72,72,74);stroke-width:1px;stroke:black;"/>
                </g>
                <ellipse cx="386.992" cy="998.717" rx="8.879" ry="8.391" style="fill:rgb(99,100,102);stroke-width:1px;stroke:black;"/>
                <g transform="matrix(1,0,0,1,-0.111324,-0.214278)">
                    <ellipse cx="387.249" cy="998.987" rx="5.203" ry="5.065" style="fill:rgb(216,217,218);stroke-width:3px;stroke:rgb(58,57,59);"/>
                </g>
                <path d="M378.699,1011.21L394.491,1011.21L394.491,1012.99L392.11,1014.15L380.447,1014.15L378.699,1013.38L378.699,1011.21Z" style="fill:rgb(47,45,46);stroke-width:0.1px;stroke:rgb(35,31,32);"/>
            </g>
            <g id="(Ellipse)" transform="matrix(-1,-5.66554e-16,5.66554e-16,-1,1564.29,1832.05)">
                <ellipse cx="863.208" cy="894.633" rx="8.951" ry="9.498" style="fill:black;stroke-width:0.4px;stroke-linecap:butt;stroke:black;"/>
            </g>
            <g transform="matrix(1,0,0,1,-72.5892,-76.5509)">
                <g id="reset">
                    <ellipse cx="882.113" cy="1013.72" rx="10.926" ry="10.594" style="fill:rgb(91,92,94);stroke-width:3.5px;stroke:rgb(35,31,32);"/>
                </g>
            </g>
        </g>
        <g transform="matrix(0.89,0,0,1,76.0054,0.866463)">
            <path d="M337.529,926.719C337.529,925.698 337.681,924.842 337.987,924.149C338.214,923.639 338.526,923.181 338.92,922.775C339.314,922.369 339.746,922.069 340.215,921.873C340.839,921.608 341.56,921.476 342.375,921.476C343.852,921.476 345.033,921.934 345.92,922.85C346.806,923.766 347.249,925.04 347.249,926.671C347.249,928.289 346.81,929.555 345.93,930.469C345.05,931.383 343.875,931.839 342.403,931.839C340.912,931.839 339.728,931.385 338.848,930.476C337.968,929.566 337.529,928.314 337.529,926.719ZM339.614,926.651C339.614,927.786 339.876,928.646 340.4,929.231C340.924,929.817 341.589,930.11 342.396,930.11C343.202,930.11 343.864,929.819 344.382,929.238C344.899,928.657 345.158,927.786 345.158,926.624C345.158,925.475 344.906,924.618 344.402,924.053C343.899,923.488 343.23,923.206 342.396,923.206C341.562,923.206 340.89,923.492 340.379,924.064C339.869,924.635 339.614,925.498 339.614,926.651Z" style="fill:rgb(252,252,252);fill-rule:nonzero;stroke-width:0.42px;stroke-linecap:butt;stroke:black;"/>
            <path d="M348.849,931.668L348.849,921.647L350.818,921.647L354.919,928.339L354.919,921.647L356.799,921.647L356.799,931.668L354.769,931.668L350.729,925.133L350.729,931.668L348.849,931.668Z" style="fill:rgb(252,252,252);fill-rule:nonzero;stroke-width:0.42px;stroke-linecap:butt;stroke:black;"/>
            <path d="M361.789,931.839L364.271,921.476L365.713,921.476L363.204,931.839L361.789,931.839Z" style="fill:rgb(252,252,252);fill-rule:nonzero;stroke-width:0.42px;stroke-linecap:butt;stroke:black;"/>
            <path d="M370.198,926.719C370.198,925.698 370.35,924.842 370.656,924.149C370.883,923.639 371.194,923.181 371.589,922.775C371.983,922.369 372.415,922.069 372.884,921.873C373.508,921.608 374.228,921.476 375.044,921.476C376.521,921.476 377.702,921.934 378.589,922.85C379.475,923.766 379.918,925.04 379.918,926.671C379.918,928.289 379.478,929.555 378.599,930.469C377.719,931.383 376.544,931.839 375.072,931.839C373.581,931.839 372.396,931.385 371.517,930.476C370.637,929.566 370.198,928.314 370.198,926.719ZM372.283,926.651C372.283,927.786 372.545,928.646 373.069,929.231C373.593,929.817 374.258,930.11 375.065,930.11C375.871,930.11 376.533,929.819 377.051,929.238C377.568,928.657 377.826,927.786 377.826,926.624C377.826,925.475 377.575,924.618 377.071,924.053C376.568,923.488 375.899,923.206 375.065,923.206C374.231,923.206 373.559,923.492 373.048,924.064C372.538,924.635 372.283,925.498 372.283,926.651Z" style="fill:rgb(252,252,252);fill-rule:nonzero;stroke-width:0.42px;stroke-linecap:butt;stroke:black;"/>
            <path d="M381.511,931.668L381.511,921.647L388.381,921.647L388.381,923.342L383.534,923.342L383.534,925.714L387.718,925.714L387.718,927.41L383.534,927.41L383.534,931.668L381.511,931.668Z" style="fill:rgb(252,252,252);fill-rule:nonzero;stroke-width:0.42px;stroke-linecap:butt;stroke:black;"/>
            <path d="M390.063,931.668L390.063,921.647L396.933,921.647L396.933,923.342L392.086,923.342L392.086,925.714L396.27,925.714L396.27,927.41L392.086,927.41L392.086,931.668L390.063,931.668Z" style="fill:rgb(252,252,252);fill-rule:nonzero;stroke-width:0.42px;stroke-linecap:butt;stroke:black;"/>
            <path d="M459.287,931.668L459.287,921.647L462.534,921.647C463.765,921.647 464.567,921.697 464.94,921.797C465.515,921.948 465.995,922.275 466.383,922.778C466.77,923.282 466.964,923.932 466.964,924.73C466.964,925.345 466.852,925.863 466.629,926.282C466.406,926.701 466.122,927.03 465.778,927.27C465.434,927.509 465.084,927.667 464.729,927.745C464.245,927.84 463.546,927.888 462.63,927.888L461.311,927.888L461.311,931.668L459.287,931.668ZM461.311,923.342L461.311,926.186L462.418,926.186C463.215,926.186 463.749,926.134 464.018,926.029C464.286,925.924 464.497,925.76 464.65,925.537C464.803,925.313 464.879,925.054 464.879,924.757C464.879,924.393 464.772,924.092 464.558,923.855C464.343,923.618 464.072,923.47 463.744,923.411C463.503,923.365 463.017,923.342 462.288,923.342L461.311,923.342Z" style="fill:rgb(252,252,252);fill-rule:nonzero;stroke-width:0.42px;stroke-linecap:butt;stroke:black;"/>
            <path d="M468.215,926.719C468.215,925.698 468.368,924.842 468.673,924.149C468.901,923.639 469.212,923.181 469.606,922.775C470,922.369 470.432,922.069 470.901,921.873C471.526,921.608 472.246,921.476 473.062,921.476C474.538,921.476 475.72,921.934 476.606,922.85C477.492,923.766 477.936,925.04 477.936,926.671C477.936,928.289 477.496,929.555 476.616,930.469C475.737,931.383 474.561,931.839 473.089,931.839C471.599,931.839 470.414,931.385 469.534,930.476C468.655,929.566 468.215,928.314 468.215,926.719ZM470.3,926.651C470.3,927.786 470.562,928.646 471.086,929.231C471.61,929.817 472.275,930.11 473.082,930.11C473.889,930.11 474.551,929.819 475.068,929.238C475.585,928.657 475.844,927.786 475.844,926.624C475.844,925.475 475.592,924.618 475.088,924.053C474.585,923.488 473.916,923.206 473.082,923.206C472.248,923.206 471.576,923.492 471.065,924.064C470.555,924.635 470.3,925.498 470.3,926.651Z" style="fill:rgb(252,252,252);fill-rule:nonzero;stroke-width:0.42px;stroke-linecap:butt;stroke:black;"/>
            <path d="M480.937,931.668L478.544,921.647L480.615,921.647L482.126,928.531L483.958,921.647L486.364,921.647L488.121,928.647L489.659,921.647L491.696,921.647L489.263,931.668L487.116,931.668L485.12,924.176L483.131,931.668L480.937,931.668Z" style="fill:rgb(252,252,252);fill-rule:nonzero;stroke-width:0.42px;stroke-linecap:butt;stroke:black;"/>
            <path d="M492.729,931.668L492.729,921.647L500.159,921.647L500.159,923.342L494.752,923.342L494.752,925.564L499.783,925.564L499.783,927.252L494.752,927.252L494.752,929.98L500.351,929.98L500.351,931.668L492.729,931.668Z" style="fill:rgb(252,252,252);fill-rule:nonzero;stroke-width:0.42px;stroke-linecap:butt;stroke:black;"/>
            <path d="M502.073,931.668L502.073,921.647L506.332,921.647C507.403,921.647 508.181,921.737 508.666,921.917C509.152,922.097 509.54,922.417 509.832,922.877C510.124,923.338 510.27,923.864 510.27,924.457C510.27,925.209 510.048,925.829 509.606,926.319C509.164,926.809 508.504,927.118 507.624,927.246C508.062,927.501 508.423,927.781 508.708,928.086C508.992,928.392 509.376,928.934 509.859,929.713L511.083,931.668L508.663,931.668L507.2,929.488C506.681,928.709 506.325,928.217 506.134,928.015C505.942,927.812 505.74,927.673 505.525,927.598C505.311,927.523 504.972,927.485 504.507,927.485L504.097,927.485L504.097,931.668L502.073,931.668ZM504.097,925.885L505.594,925.885C506.564,925.885 507.171,925.844 507.412,925.762C507.654,925.68 507.843,925.539 507.979,925.338C508.116,925.138 508.185,924.887 508.185,924.586C508.185,924.249 508.095,923.977 507.915,923.77C507.735,923.562 507.48,923.431 507.152,923.377C506.988,923.354 506.496,923.342 505.676,923.342L504.097,923.342L504.097,925.885Z" style="fill:rgb(252,252,252);fill-rule:nonzero;stroke-width:0.42px;stroke-linecap:butt;stroke:black;"/>
            <path d="M584.525,931.668L584.525,921.647L591.956,921.647L591.956,923.342L586.548,923.342L586.548,925.564L591.58,925.564L591.58,927.252L586.548,927.252L586.548,929.98L592.147,929.98L592.147,931.668L584.525,931.668Z" style="fill:rgb(252,252,252);fill-rule:nonzero;stroke-width:0.42px;stroke-linecap:butt;stroke:black;"/>
            <path d="M596.119,931.668L596.119,923.342L593.145,923.342L593.145,921.647L601.109,921.647L601.109,923.342L598.142,923.342L598.142,931.668L596.119,931.668Z" style="fill:rgb(252,252,252);fill-rule:nonzero;stroke-width:0.42px;stroke-linecap:butt;stroke:black;"/>
            <path d="M602.422,931.668L602.422,921.647L604.445,921.647L604.445,925.591L608.41,925.591L608.41,921.647L610.433,921.647L610.433,931.668L608.41,931.668L608.41,927.287L604.445,927.287L604.445,931.668L602.422,931.668Z" style="fill:rgb(252,252,252);fill-rule:nonzero;stroke-width:0.42px;stroke-linecap:butt;stroke:black;"/>
            <path d="M612.525,931.668L612.525,921.647L619.956,921.647L619.956,923.342L614.548,923.342L614.548,925.564L619.58,925.564L619.58,927.252L614.548,927.252L614.548,929.98L620.147,929.98L620.147,931.668L612.525,931.668Z" style="fill:rgb(252,252,252);fill-rule:nonzero;stroke-width:0.42px;stroke-linecap:butt;stroke:black;"/>
            <path d="M621.87,931.668L621.87,921.647L626.129,921.647C627.2,921.647 627.978,921.737 628.463,921.917C628.948,922.097 629.337,922.417 629.629,922.877C629.92,923.338 630.066,923.864 630.066,924.457C630.066,925.209 629.845,925.829 629.403,926.319C628.961,926.809 628.3,927.118 627.421,927.246C627.858,927.501 628.219,927.781 628.504,928.086C628.789,928.392 629.173,928.934 629.656,929.713L630.88,931.668L628.46,931.668L626.997,929.488C626.477,928.709 626.122,928.217 625.93,928.015C625.739,927.812 625.536,927.673 625.322,927.598C625.108,927.523 624.768,927.485 624.303,927.485L623.893,927.485L623.893,931.668L621.87,931.668ZM623.893,925.885L625.39,925.885C626.361,925.885 626.967,925.844 627.209,925.762C627.45,925.68 627.639,925.539 627.776,925.338C627.913,925.138 627.981,924.887 627.981,924.586C627.981,924.249 627.891,923.977 627.711,923.77C627.531,923.562 627.277,923.431 626.949,923.377C626.785,923.354 626.293,923.342 625.472,923.342L623.893,923.342L623.893,925.885Z" style="fill:rgb(252,252,252);fill-rule:nonzero;stroke-width:0.42px;stroke-linecap:butt;stroke:black;"/>
            <path d="M631.994,931.668L631.994,921.647L633.963,921.647L638.064,928.339L638.064,921.647L639.944,921.647L639.944,931.668L637.914,931.668L633.874,925.133L633.874,931.668L631.994,931.668Z" style="fill:rgb(252,252,252);fill-rule:nonzero;stroke-width:0.42px;stroke-linecap:butt;stroke:black;"/>
            <path d="M642.084,931.668L642.084,921.647L649.514,921.647L649.514,923.342L644.107,923.342L644.107,925.564L649.138,925.564L649.138,927.252L644.107,927.252L644.107,929.98L649.706,929.98L649.706,931.668L642.084,931.668Z" style="fill:rgb(252,252,252);fill-rule:nonzero;stroke-width:0.42px;stroke-linecap:butt;stroke:black;"/>
            <path d="M653.677,931.668L653.677,923.342L650.704,923.342L650.704,921.647L658.668,921.647L658.668,923.342L655.701,923.342L655.701,931.668L653.677,931.668Z" style="fill:rgb(252,252,252);fill-rule:nonzero;stroke-width:0.42px;stroke-linecap:butt;stroke:black;"/>
            <path d="M705.88,931.668L705.88,921.647L710.139,921.647C711.21,921.647 711.988,921.737 712.473,921.917C712.959,922.097 713.347,922.417 713.639,922.877C713.931,923.338 714.076,923.864 714.076,924.457C714.076,925.209 713.855,925.829 713.413,926.319C712.971,926.809 712.311,927.118 711.431,927.246C711.868,927.501 712.23,927.781 712.514,928.086C712.799,928.392 713.183,928.934 713.666,929.713L714.89,931.668L712.47,931.668L711.007,929.488C710.488,928.709 710.132,928.217 709.941,928.015C709.749,927.812 709.547,927.673 709.332,927.598C709.118,927.523 708.779,927.485 708.314,927.485L707.904,927.485L707.904,931.668L705.88,931.668ZM707.904,925.885L709.401,925.885C710.371,925.885 710.978,925.844 711.219,925.762C711.461,925.68 711.65,925.539 711.786,925.338C711.923,925.138 711.992,924.887 711.992,924.586C711.992,924.249 711.902,923.977 711.722,923.77C711.542,923.562 711.287,923.431 710.959,923.377C710.795,923.354 710.303,923.342 709.483,923.342L707.904,923.342L707.904,925.885Z" style="fill:rgb(252,252,252);fill-rule:nonzero;stroke-width:0.42px;stroke-linecap:butt;stroke:black;"/>
            <path d="M725.021,931.668L722.82,931.668L721.945,929.392L717.939,929.392L717.112,931.668L714.965,931.668L718.868,921.647L721.008,921.647L725.021,931.668ZM721.295,927.704L719.914,923.985L718.561,927.704L721.295,927.704Z" style="fill:rgb(252,252,252);fill-rule:nonzero;stroke-width:0.42px;stroke-linecap:butt;stroke:black;"/>
            <path d="M726.115,931.668L726.115,921.647L728.083,921.647L732.185,928.339L732.185,921.647L734.065,921.647L734.065,931.668L732.035,931.668L727.994,925.133L727.994,931.668L726.115,931.668Z" style="fill:rgb(252,252,252);fill-rule:nonzero;stroke-width:0.42px;stroke-linecap:butt;stroke:black;"/>
            <path d="M740.867,927.984L740.867,926.295L745.228,926.295L745.228,930.288C744.804,930.698 744.19,931.059 743.386,931.371C742.581,931.683 741.767,931.839 740.942,931.839C739.894,931.839 738.98,931.62 738.201,931.18C737.421,930.74 736.836,930.111 736.444,929.293C736.052,928.475 735.856,927.585 735.856,926.624C735.856,925.58 736.075,924.653 736.512,923.841C736.95,923.03 737.59,922.408 738.433,921.975C739.076,921.642 739.875,921.476 740.832,921.476C742.076,921.476 743.048,921.737 743.748,922.259C744.447,922.781 744.897,923.502 745.098,924.422L743.088,924.798C742.947,924.306 742.681,923.918 742.292,923.633C741.902,923.348 741.416,923.206 740.832,923.206C739.948,923.206 739.245,923.486 738.723,924.046C738.202,924.607 737.941,925.439 737.941,926.542C737.941,927.731 738.205,928.623 738.734,929.218C739.262,929.813 739.955,930.11 740.812,930.11C741.236,930.11 741.661,930.027 742.087,929.86C742.513,929.694 742.879,929.492 743.184,929.255L743.184,927.984L740.867,927.984Z" style="fill:rgb(252,252,252);fill-rule:nonzero;stroke-width:0.42px;stroke-linecap:butt;stroke:black;"/>
            <path d="M747.094,931.668L747.094,921.647L754.525,921.647L754.525,923.342L749.118,923.342L749.118,925.564L754.149,925.564L754.149,927.252L749.118,927.252L749.118,929.98L754.716,929.98L754.716,931.668L747.094,931.668Z" style="fill:rgb(252,252,252);fill-rule:nonzero;stroke-width:0.42px;stroke-linecap:butt;stroke:black;"/>
            <path d="M760.322,931.668L760.322,921.647L767.752,921.647L767.752,923.342L762.345,923.342L762.345,925.564L767.376,925.564L767.376,927.252L762.345,927.252L762.345,929.98L767.944,929.98L767.944,931.668L760.322,931.668Z" style="fill:rgb(252,252,252);fill-rule:nonzero;stroke-width:0.42px;stroke-linecap:butt;stroke:black;"/>
            <path d="M768.641,931.668L772.066,926.439L768.962,921.647L771.327,921.647L773.337,924.867L775.306,921.647L777.651,921.647L774.534,926.514L777.958,931.668L775.518,931.668L773.296,928.203L771.068,931.668L768.641,931.668Z" style="fill:rgb(252,252,252);fill-rule:nonzero;stroke-width:0.42px;stroke-linecap:butt;stroke:black;"/>
            <path d="M781.253,931.668L781.253,923.342L778.28,923.342L778.28,921.647L786.243,921.647L786.243,923.342L783.277,923.342L783.277,931.668L781.253,931.668Z" style="fill:rgb(252,252,252);fill-rule:nonzero;stroke-width:0.42px;stroke-linecap:butt;stroke:black;"/>
            <path d="M787.549,931.668L787.549,921.647L794.98,921.647L794.98,923.342L789.573,923.342L789.573,925.564L794.604,925.564L794.604,927.252L789.573,927.252L789.573,929.98L795.171,929.98L795.171,931.668L787.549,931.668Z" style="fill:rgb(252,252,252);fill-rule:nonzero;stroke-width:0.42px;stroke-linecap:butt;stroke:black;"/>
            <path d="M796.908,931.668L796.908,921.647L798.876,921.647L802.978,928.339L802.978,921.647L804.858,921.647L804.858,931.668L802.827,931.668L798.787,925.133L798.787,931.668L796.908,931.668Z" style="fill:rgb(252,252,252);fill-rule:nonzero;stroke-width:0.42px;stroke-linecap:butt;stroke:black;"/>
            <path d="M806.991,921.647L810.689,921.647C811.523,921.647 812.159,921.711 812.596,921.838C813.184,922.012 813.688,922.319 814.107,922.761C814.526,923.203 814.845,923.745 815.064,924.385C815.283,925.025 815.392,925.815 815.392,926.753C815.392,927.578 815.289,928.289 815.084,928.886C814.834,929.615 814.476,930.206 814.011,930.657C813.66,930.999 813.186,931.265 812.589,931.457C812.143,931.598 811.546,931.668 810.798,931.668L806.991,931.668L806.991,921.647ZM809.014,923.342L809.014,929.98L810.525,929.98C811.09,929.98 811.498,929.948 811.748,929.884C812.076,929.802 812.349,929.663 812.565,929.467C812.782,929.271 812.958,928.949 813.095,928.5C813.232,928.051 813.3,927.439 813.3,926.665C813.3,925.89 813.232,925.295 813.095,924.88C812.958,924.466 812.767,924.142 812.521,923.91C812.275,923.677 811.963,923.52 811.584,923.438C811.302,923.374 810.748,923.342 809.923,923.342L809.014,923.342Z" style="fill:rgb(252,252,252);fill-rule:nonzero;stroke-width:0.42px;stroke-linecap:butt;stroke:black;"/>
            <path d="M817.108,931.668L817.108,921.647L824.538,921.647L824.538,923.342L819.131,923.342L819.131,925.564L824.162,925.564L824.162,927.252L819.131,927.252L819.131,929.98L824.73,929.98L824.73,931.668L817.108,931.668Z" style="fill:rgb(252,252,252);fill-rule:nonzero;stroke-width:0.42px;stroke-linecap:butt;stroke:black;"/>
            <path d="M826.452,931.668L826.452,921.647L830.711,921.647C831.782,921.647 832.56,921.737 833.046,921.917C833.531,922.097 833.92,922.417 834.211,922.877C834.503,923.338 834.649,923.864 834.649,924.457C834.649,925.209 834.428,925.829 833.986,926.319C833.544,926.809 832.883,927.118 832.003,927.246C832.441,927.501 832.802,927.781 833.087,928.086C833.372,928.392 833.756,928.934 834.239,929.713L835.462,931.668L833.042,931.668L831.579,929.488C831.06,928.709 830.704,928.217 830.513,928.015C830.322,927.812 830.119,927.673 829.905,927.598C829.69,927.523 829.351,927.485 828.886,927.485L828.476,927.485L828.476,931.668L826.452,931.668ZM828.476,925.885L829.973,925.885C830.944,925.885 831.55,925.844 831.791,925.762C832.033,925.68 832.222,925.539 832.359,925.338C832.495,925.138 832.564,924.887 832.564,924.586C832.564,924.249 832.474,923.977 832.294,923.77C832.114,923.562 831.86,923.431 831.532,923.377C831.368,923.354 830.875,923.342 830.055,923.342L828.476,923.342L828.476,925.885Z" style="fill:rgb(252,252,252);fill-rule:nonzero;stroke-width:0.42px;stroke-linecap:butt;stroke:black;"/>
            <path d="M867.678,931.668L867.678,921.647L871.937,921.647C873.008,921.647 873.786,921.737 874.271,921.917C874.757,922.097 875.145,922.417 875.437,922.877C875.728,923.338 875.874,923.864 875.874,924.457C875.874,925.209 875.653,925.829 875.211,926.319C874.769,926.809 874.108,927.118 873.229,927.246C873.666,927.501 874.027,927.781 874.312,928.086C874.597,928.392 874.981,928.934 875.464,929.713L876.688,931.668L874.268,931.668L872.805,929.488C872.285,928.709 871.93,928.217 871.739,928.015C871.547,927.812 871.344,927.673 871.13,927.598C870.916,927.523 870.576,927.485 870.112,927.485L869.701,927.485L869.701,931.668L867.678,931.668ZM869.701,925.885L871.198,925.885C872.169,925.885 872.775,925.844 873.017,925.762C873.258,925.68 873.447,925.539 873.584,925.338C873.721,925.138 873.789,924.887 873.789,924.586C873.789,924.249 873.699,923.977 873.519,923.77C873.339,923.562 873.085,923.431 872.757,923.377C872.593,923.354 872.101,923.342 871.281,923.342L869.701,923.342L869.701,925.885Z" style="fill:rgb(252,252,252);fill-rule:nonzero;stroke-width:0.42px;stroke-linecap:butt;stroke:black;"/>
            <path d="M877.781,931.668L877.781,921.647L885.212,921.647L885.212,923.342L879.805,923.342L879.805,925.564L884.836,925.564L884.836,927.252L879.805,927.252L879.805,929.98L885.404,929.98L885.404,931.668L877.781,931.668Z" style="fill:rgb(252,252,252);fill-rule:nonzero;stroke-width:0.42px;stroke-linecap:butt;stroke:black;"/>
            <path d="M886.607,928.408L888.575,928.216C888.694,928.877 888.934,929.363 889.297,929.672C889.659,929.982 890.148,930.137 890.763,930.137C891.415,930.137 891.906,929.999 892.236,929.724C892.566,929.448 892.732,929.126 892.732,928.756C892.732,928.519 892.662,928.318 892.523,928.151C892.384,927.985 892.142,927.84 891.795,927.717C891.558,927.635 891.018,927.489 890.175,927.28C889.09,927.011 888.329,926.681 887.892,926.289C887.277,925.737 886.969,925.065 886.969,924.272C886.969,923.762 887.114,923.284 887.403,922.84C887.692,922.396 888.109,922.057 888.654,921.825C889.199,921.592 889.856,921.476 890.626,921.476C891.884,921.476 892.831,921.752 893.467,922.303C894.102,922.855 894.436,923.591 894.468,924.511L892.445,924.6C892.358,924.085 892.172,923.715 891.887,923.489C891.603,923.264 891.175,923.151 890.606,923.151C890.018,923.151 889.558,923.272 889.225,923.513C889.011,923.668 888.904,923.876 888.904,924.135C888.904,924.372 889.004,924.575 889.204,924.744C889.46,924.958 890.079,925.181 891.064,925.414C892.048,925.646 892.776,925.886 893.248,926.135C893.719,926.383 894.089,926.723 894.355,927.153C894.622,927.584 894.755,928.116 894.755,928.75C894.755,929.324 894.596,929.862 894.277,930.363C893.958,930.864 893.506,931.237 892.923,931.481C892.34,931.724 891.613,931.846 890.742,931.846C889.475,931.846 888.503,931.553 887.823,930.968C887.144,930.382 886.739,929.529 886.607,928.408Z" style="fill:rgb(252,252,252);fill-rule:nonzero;stroke-width:0.42px;stroke-linecap:butt;stroke:black;"/>
            <path d="M896.457,931.668L896.457,921.647L903.888,921.647L903.888,923.342L898.481,923.342L898.481,925.564L903.512,925.564L903.512,927.252L898.481,927.252L898.481,929.98L904.079,929.98L904.079,931.668L896.457,931.668Z" style="fill:rgb(252,252,252);fill-rule:nonzero;stroke-width:0.42px;stroke-linecap:butt;stroke:black;"/>
            <path d="M908.051,931.668L908.051,923.342L905.077,923.342L905.077,921.647L913.041,921.647L913.041,923.342L910.074,923.342L910.074,931.668L908.051,931.668Z" style="fill:rgb(252,252,252);fill-rule:nonzero;stroke-width:0.42px;stroke-linecap:butt;stroke:black;"/>
        </g>
        <g id="ON/off" transform="matrix(1.60608,0,0,1.59048,-111.728,-706.516)">
            <g transform="matrix(1,0,0,1,-0.627516,0.355553)">
                <ellipse cx="321.797" cy="999.854" rx="16.795" ry="16.434" style="fill:rgb(230,230,230);stroke-width:0.63px;stroke:black;"/>
            </g>
            <g transform="matrix(0.766109,0,0,0.766109,74.7377,234.386)">
                <ellipse cx="321.797" cy="999.854" rx="16.795" ry="16.434" style="fill:rgb(230,230,230);stroke-width:1.63px;stroke:black;"/>
            </g>
            <g transform="matrix(1,0,0,1,-0.0942289,0.933291)">
                <path d="M321.381,992.932L321.381,1006" style="fill:none;stroke-width:2.19px;stroke:black;"/>
            </g>
        </g>
    </g>
</svg>
