<?xml version="1.0" encoding="UTF-8" standalone="no"?>
<!DOCTYPE svg PUBLIC "-//W3C//DTD SVG 1.1//EN" "http://www.w3.org/Graphics/SVG/1.1/DTD/svg11.dtd">
<svg width="100%" height="100%" viewBox="0 0 1280 1150" version="1.1" xmlns="http://www.w3.org/2000/svg" xmlns:xlink="http://www.w3.org/1999/xlink" xml:space="preserve" style="fill-rule:evenodd;clip-rule:evenodd;stroke-linecap:round;stroke-linejoin:round;stroke-miterlimit:1.41421;">
    <g>
        <g id="fuesse" transform="matrix(0.995418,0,0,1,-20.1531,178.459)">
            <g id="fuss">
                <path d="M153.495,704.938C158.245,714.703 198.153,714.603 202.166,704.938L177.577,698.869L153.495,704.938Z" style="fill:rgb(41,41,41);stroke-width:0.9px;stroke:rgb(41,41,41);"/>
                <path d="M146.766,691.268L146.766,704.836C146.766,707.014 207.596,706.668 207.596,704.836L207.596,691.268L146.766,691.268Z" style="fill:rgb(186,187,189);stroke-width:0.9px;stroke:rgb(186,187,189);"/>
            </g>
            <g id="fuss1" transform="matrix(1,0,0,1,957.059,0)">
                <path d="M153.495,704.938C158.245,714.703 198.153,714.603 202.166,704.938L177.577,698.869L153.495,704.938Z" style="fill:rgb(41,41,41);stroke-width:0.9px;stroke:rgb(41,41,41);"/>
                <path d="M146.766,691.268L146.766,704.836C146.766,707.014 207.596,706.668 207.596,704.836L207.596,691.268L146.766,691.268Z" style="fill:rgb(186,187,189);stroke-width:0.9px;stroke:rgb(186,187,189);"/>
            </g>
        </g>
        <g>
            <path d="M26.114,711.888L147.537,711.888L147.537,834.608L46.63,834.608C41.974,829.403 39.136,823.154 37.955,815.953L26.114,711.888Z" style="fill:rgb(237,237,237);stroke-width:1px;stroke:black;"/>
            <path d="M26.114,711.888L147.537,711.888L149.985,702.791L43.309,702.791C36.965,702.791 30.452,707.495 26.114,711.888Z" style="fill:rgb(237,237,237);stroke-width:1px;stroke:black;"/>
            <path d="M83.812,873.309C98.191,880.376 123.224,878.629 150.96,879.117L147.537,834.608L46.63,834.608C59.762,848.277 68.677,865.872 83.812,873.309Z" style="fill:rgb(237,237,237);stroke-width:1px;stroke:black;"/>
        </g>
        <g>
            <g transform="matrix(-1.07932,0,0,1,1267.8,0)">
                <path d="M26.114,711.888L147.537,711.888L147.537,834.608L46.63,834.608C41.974,829.403 39.136,823.154 37.955,815.953L26.114,711.888Z" style="fill:rgb(237,237,237);stroke-width:0.96px;stroke:black;"/>
            </g>
            <g transform="matrix(-1.07932,0,0,1,1267.8,0)">
                <path d="M26.114,711.888L147.537,711.888L149.985,702.791L43.309,702.791C36.965,702.791 30.452,707.495 26.114,711.888Z" style="fill:rgb(237,237,237);stroke-width:0.96px;stroke:black;"/>
            </g>
            <g transform="matrix(-1.07932,0,0,1,1267.8,0)">
                <path d="M83.812,873.309C98.191,880.376 123.224,878.629 150.96,879.117L147.537,834.608L46.63,834.608C59.762,848.277 68.677,865.872 83.812,873.309Z" style="fill:rgb(237,237,237);stroke-width:0.96px;stroke:black;"/>
            </g>
        </g>
        <g>
            <rect x="147.537" y="711.888" width="961.025" height="122.72" style="fill:rgb(51,51,51);stroke-width:1px;stroke:black;"/>
            <path d="M1108.56,711.888L1105.92,702.791L1221.06,702.791C1208.98,694.899 1194.17,686.334 1173.44,686.334L104.423,686.334C78.395,686.334 57.825,692.243 43.309,702.791L149.985,702.791L147.537,711.888L1108.56,711.888Z" style="fill:rgb(13,13,13);stroke-width:1px;stroke:black;"/>
            <path d="M150.96,879.117L147.537,834.608L1108.56,834.608L1104.87,879.117L150.96,879.117Z" style="fill:rgb(26,26,26);stroke-width:1px;stroke:black;"/>
        </g>
        <g id="WAN" transform="matrix(-1.02761,3.77539e-16,-3.78527e-16,-1.0303,1290.2,1802.3)">
            <path d="M430.126,958.534L520.049,958.534L520.049,1035.48L430.126,1035.48L430.126,958.534" style="fill:rgb(255,238,29);stroke-width:0.97px;stroke:black;"/>
            <path d="M463.538,961.757L487.377,961.757L487.377,969.841L494.601,969.841L494.601,977.802L508.571,977.802L508.571,989.68L513.332,989.68L513.332,1005.6L508.571,1005.6L508.571,1018.27L440.482,1018.27L440.482,1005.6L437.015,1005.6L437.015,989.68L440.482,989.68L440.482,977.802L455.182,977.802L455.182,969.841L463.538,969.841L463.538,961.757" style="fill:rgb(181,114,1);stroke-width:0.97px;stroke:black;"/>
            <rect x="436.816" y="989.68" width="9.385" height="15.92" style="fill:black;stroke-width:0.97px;stroke:black;"/>
            <g transform="matrix(1,0,0,1,67.0669,-0.0235958)">
                <rect x="436.816" y="989.68" width="9.385" height="15.92" style="fill:black;stroke-width:0.97px;stroke:black;"/>
            </g>
            <path d="M450.462,1000.22L450.462,1012.69" style="fill:none;stroke-width:0.97px;stroke:black;"/>
            <g transform="matrix(1,0,0,1,5.18811,0.142889)">
                <path d="M450.462,1000.22L450.462,1012.69" style="fill:none;stroke-width:0.97px;stroke:black;"/>
            </g>
            <g transform="matrix(1,0,0,1,10.8216,0.142889)">
                <path d="M450.462,1000.22L450.462,1012.69" style="fill:none;stroke-width:0.97px;stroke:black;"/>
            </g>
            <g transform="matrix(1,0,0,1,22.0044,0.291919)">
                <path d="M450.462,1000.07L450.462,1012.69" style="fill:none;stroke-width:0.97px;stroke:black;"/>
            </g>
            <g transform="matrix(1,0,0,1,27.0496,0.291919)">
                <path d="M450.462,1000.05L450.462,1012.69" style="fill:none;stroke-width:0.97px;stroke:black;"/>
            </g>
            <g transform="matrix(1,0,0,1,49.4509,0.192566)">
                <path d="M450.462,1000.16L450.462,1012.69" style="fill:none;stroke-width:0.97px;stroke:black;"/>
            </g>
            <path d="M466.922,1000.38L466.922,1018.21" style="fill:none;stroke-width:0.97px;stroke:black;"/>
            <g transform="matrix(1,0,0,1,16.0399,-0.0558162)">
                <path d="M466.922,1000.41L466.922,1018.27" style="fill:none;stroke-width:0.97px;stroke:black;"/>
            </g>
            <g transform="matrix(1,0,0,1,21.7443,-0.154611)">
                <path d="M466.922,1000.5L466.922,1018.4" style="fill:none;stroke-width:0.97px;stroke:black;"/>
            </g>
            <g transform="matrix(1,0,0,1,27.6257,-0.353316)">
                <path d="M466.922,1000.67L466.922,1018.4" style="fill:none;stroke-width:0.97px;stroke:black;"/>
            </g>
        </g>
        <g id="lan4" transform="matrix(-1.04182,1.27586e-16,-1.26433e-16,-1.0324,1295.79,1804.28)">
            <g transform="matrix(3.73365,0,0,1,-1085.67,-0.000264784)">
                <path d="M430.126,958.534L520.049,958.534L520.049,1035.48L430.126,1035.48L430.126,958.534" style="fill:rgb(41,41,41);stroke-width:0.35px;stroke:black;"/>
            </g>
            <g transform="matrix(1,0,0,1,93.3029,-0.747357)">
                <path d="M463.538,961.757L487.377,961.757L487.377,969.841L494.601,969.841L494.601,977.802L508.571,977.802L508.571,989.68L513.332,989.68L513.332,1005.6L508.571,1005.6L508.571,1018.27L440.482,1018.27L440.482,1005.6L437.015,1005.6L437.015,989.68L440.482,989.68L440.482,977.802L455.182,977.802L455.182,969.841L463.538,969.841L463.538,961.757" style="fill:rgb(13,13,13);stroke-width:0.96px;stroke:black;"/>
            </g>
            <g transform="matrix(1,0,0,1,172.876,-0.661805)">
                <path d="M463.538,961.757L487.377,961.757L487.377,969.841L494.601,969.841L494.601,977.802L508.571,977.802L508.571,989.68L513.332,989.68L513.332,1005.6L508.571,1005.6L508.571,1018.27L440.482,1018.27L440.482,1005.6L437.015,1005.6L437.015,989.68L440.482,989.68L440.482,977.802L455.182,977.802L455.182,969.841L463.538,969.841L463.538,961.757" style="fill:rgb(13,13,13);stroke-width:0.96px;stroke:black;"/>
            </g>
            <g transform="matrix(1,0,0,1,252.488,-0.755912)">
                <path d="M463.538,961.757L487.377,961.757L487.377,969.841L494.601,969.841L494.601,977.802L508.571,977.802L508.571,989.68L513.332,989.68L513.332,1005.6L508.571,1005.6L508.571,1018.27L440.482,1018.27L440.482,1005.6L437.015,1005.6L437.015,989.68L440.482,989.68L440.482,977.802L455.182,977.802L455.182,969.841L463.538,969.841L463.538,961.757" style="fill:rgb(13,13,13);stroke-width:0.96px;stroke:black;"/>
            </g>
            <g transform="matrix(1,0,0,1,332.053,-0.509522)">
                <path d="M463.538,961.757L487.377,961.757L487.377,969.841L494.601,969.841L494.601,977.802L508.571,977.802L508.571,989.68L513.332,989.68L513.332,1005.6L508.571,1005.6L508.571,1018.27L440.482,1018.27L440.482,1005.6L437.015,1005.6L437.015,989.68L440.482,989.68L440.482,977.802L455.182,977.802L455.182,969.841L463.538,969.841L463.538,961.757" style="fill:rgb(13,13,13);stroke-width:0.96px;stroke:black;"/>
            </g>
            <g transform="matrix(1,0,0,1,93.3029,-0.747357)">
                <rect x="436.816" y="989.68" width="9.385" height="15.92" style="fill:black;stroke-width:0.96px;stroke:black;"/>
            </g>
            <g transform="matrix(1,0,0,1,172.876,-0.661805)">
                <rect x="436.816" y="989.68" width="9.385" height="15.92" style="fill:black;stroke-width:0.96px;stroke:black;"/>
            </g>
            <g transform="matrix(1,0,0,1,252.488,-0.755912)">
                <rect x="436.816" y="989.68" width="9.385" height="15.92" style="fill:black;stroke-width:0.96px;stroke:black;"/>
            </g>
            <g transform="matrix(1,0,0,1,332.053,-0.509522)">
                <rect x="436.816" y="989.68" width="9.385" height="15.92" style="fill:black;stroke-width:0.96px;stroke:black;"/>
            </g>
            <g transform="matrix(1,0,0,1,160.37,-0.770952)">
                <rect x="436.816" y="989.68" width="9.385" height="15.92" style="fill:black;stroke-width:0.96px;stroke:black;"/>
            </g>
            <g transform="matrix(1,0,0,1,239.942,-0.685401)">
                <rect x="436.816" y="989.68" width="9.385" height="15.92" style="fill:black;stroke-width:0.96px;stroke:black;"/>
            </g>
            <g transform="matrix(1,0,0,1,319.555,-0.779508)">
                <rect x="436.816" y="989.68" width="9.385" height="15.92" style="fill:black;stroke-width:0.96px;stroke:black;"/>
            </g>
            <g transform="matrix(1,0,0,1,399.12,-0.533118)">
                <rect x="436.816" y="989.68" width="9.385" height="15.92" style="fill:black;stroke-width:0.96px;stroke:black;"/>
            </g>
            <g transform="matrix(1,0,0,1,93.3029,-0.747357)">
                <path d="M450.462,1000.22L450.462,1012.69" style="fill:none;stroke-width:0.96px;stroke:black;"/>
            </g>
            <g transform="matrix(1,0,0,1,172.876,-0.661805)">
                <path d="M450.462,1000.22L450.462,1012.69" style="fill:none;stroke-width:0.96px;stroke:black;"/>
            </g>
            <g transform="matrix(1,0,0,1,252.488,-0.755912)">
                <path d="M450.462,1000.22L450.462,1012.69" style="fill:none;stroke-width:0.96px;stroke:black;"/>
            </g>
            <g transform="matrix(1,0,0,1,332.053,-0.509522)">
                <path d="M450.462,1000.22L450.462,1012.69" style="fill:none;stroke-width:0.96px;stroke:black;"/>
            </g>
            <g transform="matrix(1,0,0,1,98.491,-0.604467)">
                <path d="M450.462,1000.22L450.462,1012.69" style="fill:none;stroke-width:0.96px;stroke:black;"/>
            </g>
            <g transform="matrix(1,0,0,1,178.064,-0.518915)">
                <path d="M450.462,1000.22L450.462,1012.69" style="fill:none;stroke-width:0.96px;stroke:black;"/>
            </g>
            <g transform="matrix(1,0,0,1,257.676,-0.613022)">
                <path d="M450.462,1000.22L450.462,1012.69" style="fill:none;stroke-width:0.96px;stroke:black;"/>
            </g>
            <g transform="matrix(1,0,0,1,337.242,-0.366633)">
                <path d="M450.462,1000.22L450.462,1012.69" style="fill:none;stroke-width:0.96px;stroke:black;"/>
            </g>
            <g transform="matrix(1,0,0,1,104.125,-0.604467)">
                <path d="M450.462,1000.22L450.462,1012.69" style="fill:none;stroke-width:0.96px;stroke:black;"/>
            </g>
            <g transform="matrix(1,0,0,1,183.697,-0.518915)">
                <path d="M450.462,1000.22L450.462,1012.69" style="fill:none;stroke-width:0.96px;stroke:black;"/>
            </g>
            <g transform="matrix(1,0,0,1,263.309,-0.613022)">
                <path d="M450.462,1000.22L450.462,1012.69" style="fill:none;stroke-width:0.96px;stroke:black;"/>
            </g>
            <g transform="matrix(1,0,0,1,342.875,-0.366633)">
                <path d="M450.462,1000.22L450.462,1012.69" style="fill:none;stroke-width:0.96px;stroke:black;"/>
            </g>
            <g transform="matrix(1,0,0,1,115.307,-0.455438)">
                <path d="M450.462,1000.07L450.462,1012.69" style="fill:none;stroke-width:0.96px;stroke:black;"/>
            </g>
            <g transform="matrix(1,0,0,1,194.88,-0.369886)">
                <path d="M450.462,1000.07L450.462,1012.69" style="fill:none;stroke-width:0.96px;stroke:black;"/>
            </g>
            <g transform="matrix(1,0,0,1,274.492,-0.463993)">
                <path d="M450.462,1000.07L450.462,1012.69" style="fill:none;stroke-width:0.96px;stroke:black;"/>
            </g>
            <g transform="matrix(1,0,0,1,354.058,-0.217604)">
                <path d="M450.462,1000.07L450.462,1012.69" style="fill:none;stroke-width:0.96px;stroke:black;"/>
            </g>
            <g transform="matrix(1,0,0,1,120.353,-0.455438)">
                <path d="M450.462,1000.05L450.462,1012.69" style="fill:none;stroke-width:0.96px;stroke:black;"/>
            </g>
            <g transform="matrix(1,0,0,1,199.925,-0.369886)">
                <path d="M450.462,1000.05L450.462,1012.69" style="fill:none;stroke-width:0.96px;stroke:black;"/>
            </g>
            <g transform="matrix(1,0,0,1,279.537,-0.463993)">
                <path d="M450.462,1000.05L450.462,1012.69" style="fill:none;stroke-width:0.96px;stroke:black;"/>
            </g>
            <g transform="matrix(1,0,0,1,359.103,-0.217604)">
                <path d="M450.462,1000.05L450.462,1012.69" style="fill:none;stroke-width:0.96px;stroke:black;"/>
            </g>
            <g transform="matrix(1,0,0,1,142.754,-0.554791)">
                <path d="M450.462,1000.16L450.462,1012.69" style="fill:none;stroke-width:0.96px;stroke:black;"/>
            </g>
            <g transform="matrix(1,0,0,1,222.326,-0.469239)">
                <path d="M450.462,1000.16L450.462,1012.69" style="fill:none;stroke-width:0.96px;stroke:black;"/>
            </g>
            <g transform="matrix(1,0,0,1,301.939,-0.563346)">
                <path d="M450.462,1000.16L450.462,1012.69" style="fill:none;stroke-width:0.96px;stroke:black;"/>
            </g>
            <g transform="matrix(1,0,0,1,381.504,-0.316957)">
                <path d="M450.462,1000.16L450.462,1012.69" style="fill:none;stroke-width:0.96px;stroke:black;"/>
            </g>
            <g transform="matrix(1,0,0,1,93.3029,-0.747357)">
                <path d="M466.922,1000.38L466.922,1018.21" style="fill:none;stroke-width:0.96px;stroke:black;"/>
            </g>
            <g transform="matrix(1,0,0,1,172.876,-0.661805)">
                <path d="M466.922,1000.38L466.922,1018.21" style="fill:none;stroke-width:0.96px;stroke:black;"/>
            </g>
            <g transform="matrix(1,0,0,1,252.488,-0.755912)">
                <path d="M466.922,1000.38L466.922,1018.21" style="fill:none;stroke-width:0.96px;stroke:black;"/>
            </g>
            <g transform="matrix(1,0,0,1,332.053,-0.509522)">
                <path d="M466.922,1000.38L466.922,1018.21" style="fill:none;stroke-width:0.96px;stroke:black;"/>
            </g>
            <g transform="matrix(1,0,0,1,109.343,-0.803173)">
                <path d="M466.922,1000.41L466.922,1018.27" style="fill:none;stroke-width:0.96px;stroke:black;"/>
            </g>
            <g transform="matrix(1,0,0,1,188.915,-0.717621)">
                <path d="M466.922,1000.41L466.922,1018.27" style="fill:none;stroke-width:0.96px;stroke:black;"/>
            </g>
            <g transform="matrix(1,0,0,1,268.528,-0.811728)">
                <path d="M466.922,1000.41L466.922,1018.27" style="fill:none;stroke-width:0.96px;stroke:black;"/>
            </g>
            <g transform="matrix(1,0,0,1,348.093,-0.565338)">
                <path d="M466.922,1000.41L466.922,1018.27" style="fill:none;stroke-width:0.96px;stroke:black;"/>
            </g>
            <g transform="matrix(1,0,0,1,115.047,-0.901967)">
                <path d="M466.922,1000.5L466.922,1018.4" style="fill:none;stroke-width:0.96px;stroke:black;"/>
            </g>
            <g transform="matrix(1,0,0,1,194.62,-0.816415)">
                <path d="M466.922,1000.5L466.922,1018.4" style="fill:none;stroke-width:0.96px;stroke:black;"/>
            </g>
            <g transform="matrix(1,0,0,1,274.232,-0.910523)">
                <path d="M466.922,1000.5L466.922,1018.4" style="fill:none;stroke-width:0.96px;stroke:black;"/>
            </g>
            <g transform="matrix(1,0,0,1,353.798,-0.664133)">
                <path d="M466.922,1000.5L466.922,1018.4" style="fill:none;stroke-width:0.96px;stroke:black;"/>
            </g>
            <g transform="matrix(1,0,0,1,120.929,-1.10067)">
                <path d="M466.922,1000.67L466.922,1018.4" style="fill:none;stroke-width:0.96px;stroke:black;"/>
            </g>
            <g transform="matrix(1,0,0,1,200.501,-1.01512)">
                <path d="M466.922,1000.67L466.922,1018.4" style="fill:none;stroke-width:0.96px;stroke:black;"/>
            </g>
            <g transform="matrix(1,0,0,1,280.113,-1.10923)">
                <path d="M466.922,1000.67L466.922,1018.4" style="fill:none;stroke-width:0.96px;stroke:black;"/>
            </g>
            <g transform="matrix(1,0,0,1,359.679,-0.862839)">
                <path d="M466.922,1000.67L466.922,1018.4" style="fill:none;stroke-width:0.96px;stroke:black;"/>
            </g>
        </g>
        <g id="USB" transform="matrix(-1.60812e-16,-1,1,-1.60812e-16,-0.280265,1789.19)">
            <ellipse cx="1001.24" cy="888.581" rx="3.679" ry="3.487" style="fill:rgb(169,169,169);stroke-width:0.5px;stroke:rgb(169,169,169);"/>
            <g transform="matrix(1.54315,0,0,2.28726,-545.592,-1145.21)">
                <path d="M1004.08,889.674L1004.08,888.694L1021.41,888.694L1021.41,887.713L1023.84,889.184L1021.41,890.655L1021.41,889.674L1004.08,889.674Z" style="fill:rgb(169,169,169);stroke-width:0.26px;stroke:rgb(169,169,169);"/>
            </g>
            <g transform="matrix(1,0,0,1,-1.27214,2.98659)">
                <ellipse cx="1020.04" cy="880.37" rx="2.168" ry="2.058" style="fill:rgb(169,169,169);stroke-width:0.5px;stroke:rgb(169,169,169);"/>
            </g>
            <g transform="matrix(0.82732,0,0,0.82732,178.354,152.084)">
                <rect x="1018.22" y="895.706" width="4.584" height="4.584" style="fill:rgb(169,169,169);stroke-width:0.6px;stroke:rgb(169,169,169);"/>
            </g>
            <g transform="matrix(0.924345,0,0,0.613444,76.2441,343.32)">
                <path d="M1019.65,880.412L1013.76,880.412C1010.87,880.412 1007.76,884.702 1007.79,888.151" style="fill:none;stroke-width:1.91px;stroke:rgb(169,169,169);"/>
            </g>
            <g transform="matrix(0.737948,0,1.5291e-32,0.620278,268.24,337.763)">
                <path d="M1007.79,889.499C1007.92,892.064 1011.18,897.986 1014.93,897.986L1020.55,897.986" style="fill:none;stroke-width:2.2px;stroke:rgb(169,169,169);"/>
            </g>
        </g>
        <g id="USB-Port-Hochkant" transform="matrix(0.9583,0,0,1,136.143,-223.612)">
            <g transform="matrix(1.24266,0,0,1.04702,-187.856,-45.2159)">
                <rect x="797.162" y="952.18" width="35.211" height="82.069" style="fill:rgb(49,49,49);stroke-width:0.89px;stroke:black;"/>
            </g>
            <g transform="matrix(0.939579,0,0,0.964472,49.6788,34.9392)">
                <path d="M844.035,961.651C838.659,962.357 842.018,957.286 840.263,955.504C838.409,953.621 833.887,957.121 833.851,951.73L813.483,951.73C813.06,958.195 809.277,954.793 807.442,956.539C805.548,958.341 809.127,962.125 803.299,961.651L803.299,1027.15C809.777,1026.59 805.868,1031.08 807.46,1033.07C808.993,1034.98 813.523,1031.2 813.484,1036.95C813.484,1037.02 813.538,1037.07 813.605,1037.07C815.29,1037.07 833.851,1037.07 833.851,1037.07C833.819,1031.53 837.723,1034.41 839.72,1033.19C841.739,1031.96 837.786,1027.04 844.035,1027.15L844.035,961.651Z" style="fill:rgb(130,115,92);stroke-width:3.22px;stroke:rgb(203,203,203);"/>
            </g>
            <g transform="matrix(1,0,0,1,-0.730877,0.338846)">
                <rect x="822.968" y="966.895" width="5.718" height="8.772" style="fill:black;stroke-width:0.51px;stroke:black;"/>
            </g>
            <g transform="matrix(1,0,0,1,-0.794451,13.8694)">
                <rect x="822.968" y="966.895" width="5.718" height="8.772" style="fill:black;stroke-width:0.51px;stroke:black;"/>
            </g>
            <g transform="matrix(1,0,0,1,-0.812951,26.3374)">
                <rect x="822.968" y="966.895" width="5.718" height="8.772" style="fill:black;stroke-width:0.51px;stroke:black;"/>
            </g>
            <g transform="matrix(1,0,0,1,-0.864451,40.5344)">
                <rect x="822.968" y="966.895" width="5.718" height="8.772" style="fill:black;stroke-width:0.51px;stroke:black;"/>
            </g>
            <g transform="matrix(1,0,0,1.03333,0,-34.1453)">
                <rect x="814.95" y="963.194" width="9.175" height="61.293" style="fill:rgb(203,203,203);stroke-width:0.5px;stroke:black;"/>
            </g>
        </g>
        <g id="Power">
            <g id="dc-in">
                <path d="M311.688,737.131L346.911,737.131" style="fill:rgb(120,120,120);stroke-width:2.5px;stroke-linecap:square;stroke:rgb(145,145,145);"/>
                <g transform="matrix(0.201662,0,0,1,248.832,5.8783)">
                    <path d="M311.688,737.131L346.911,737.131" style="fill:rgb(120,120,120);stroke-width:3.47px;stroke-linecap:square;stroke:rgb(145,145,145);"/>
                </g>
                <g transform="matrix(0.23903,0,0,1,263.989,5.8783)">
                    <path d="M311.688,737.131L346.911,737.131" style="fill:rgb(120,120,120);stroke-width:3.44px;stroke-linecap:square;stroke:rgb(145,145,145);"/>
                </g>
                <g transform="matrix(0.222753,0,0,1,255.723,5.8783)">
                    <path d="M311.688,737.131L346.911,737.131" style="fill:rgb(120,120,120);stroke-width:3.45px;stroke-linecap:square;stroke:rgb(145,145,145);"/>
                </g>
                <g transform="matrix(0.89,0,0,1,34.3521,0)">
                    <path d="M313.38,733.58L313.38,723.484L316.858,723.484C317.644,723.484 318.243,723.532 318.656,723.628C319.234,723.762 319.728,724.003 320.137,724.352C320.669,724.801 321.068,725.377 321.332,726.077C321.596,726.777 321.728,727.577 321.728,728.477C321.728,729.244 321.638,729.923 321.459,730.516C321.28,731.108 321.05,731.598 320.77,731.986C320.49,732.374 320.184,732.679 319.851,732.902C319.518,733.125 319.116,733.293 318.646,733.408C318.175,733.523 317.634,733.58 317.024,733.58L313.38,733.58ZM314.716,732.389L316.872,732.389C317.538,732.389 318.06,732.327 318.439,732.203C318.818,732.079 319.12,731.904 319.345,731.68C319.661,731.363 319.908,730.937 320.085,730.402C320.262,729.867 320.35,729.218 320.35,728.456C320.35,727.4 320.177,726.589 319.83,726.022C319.484,725.455 319.062,725.075 318.566,724.882C318.208,724.744 317.632,724.675 316.838,724.675L314.716,724.675L314.716,732.389Z" style="fill:rgb(145,145,145);fill-rule:nonzero;"/>
                    <path d="M330.771,730.04L332.107,730.378C331.827,731.475 331.323,732.312 330.595,732.888C329.867,733.464 328.978,733.753 327.926,733.753C326.838,733.753 325.953,733.531 325.271,733.088C324.589,732.645 324.07,732.003 323.715,731.163C323.359,730.323 323.181,729.421 323.181,728.456C323.181,727.405 323.382,726.488 323.783,725.705C324.185,724.922 324.757,724.327 325.498,723.921C326.24,723.515 327.056,723.312 327.947,723.312C328.957,723.312 329.806,723.569 330.495,724.083C331.184,724.597 331.664,725.32 331.934,726.252L330.619,726.562C330.385,725.828 330.045,725.293 329.6,724.958C329.154,724.622 328.594,724.455 327.919,724.455C327.143,724.455 326.495,724.641 325.974,725.013C325.452,725.385 325.086,725.884 324.875,726.511C324.664,727.137 324.558,727.784 324.558,728.449C324.558,729.308 324.683,730.058 324.934,730.698C325.184,731.339 325.573,731.817 326.101,732.134C326.629,732.451 327.201,732.609 327.816,732.609C328.564,732.609 329.198,732.393 329.717,731.962C330.236,731.53 330.587,730.89 330.771,730.04Z" style="fill:rgb(145,145,145);fill-rule:nonzero;"/>
                    <rect x="337.899" y="723.484" width="1.336" height="10.097" style="fill:rgb(145,145,145);fill-rule:nonzero;"/>
                    <path d="M341.577,733.58L341.577,723.484L342.947,723.484L348.25,731.411L348.25,723.484L349.531,723.484L349.531,733.58L348.161,733.58L342.858,725.646L342.858,733.58L341.577,733.58Z" style="fill:rgb(145,145,145);fill-rule:nonzero;"/>
                </g>
            </g>
            <g>
                <circle cx="329.539" cy="777.09" r="19.414" style="fill:black;stroke-width:0.95px;stroke-linecap:square;stroke:black;"/>
                <g transform="matrix(0.768402,0,0,0.768402,73.3412,181.386)">
                    <circle cx="316.835" cy="786.655" r="2.325" style="fill:rgb(161,161,161);stroke-width:1.24px;stroke-linecap:square;stroke:black;"/>
                </g>
                <g transform="matrix(0.931517,0,0,1,22.9149,0)">
                    <path d="M328.79,751.606C344.19,751.606 356.693,762.936 356.693,776.892C356.693,790.847 344.19,802.178 328.79,802.178C313.389,802.178 300.886,790.847 300.886,776.892C300.886,762.936 313.389,751.606 328.79,751.606ZM328.79,759.873C339.155,759.873 347.571,767.499 347.571,776.892C347.571,786.285 339.155,793.911 328.79,793.911C318.424,793.911 310.009,786.285 310.009,776.892C310.009,767.499 318.424,759.873 328.79,759.873Z" style="fill:rgb(41,41,41);stroke-width:0.98px;stroke-linecap:square;stroke:black;"/>
                </g>
                <circle cx="335.716" cy="773.755" r="9.131" style="fill:rgb(41,41,41);stroke-width:0.95px;stroke-linecap:square;stroke:black;"/>
                <path d="M326.965,773.221L333.39,769.167C336.9,766.951 343.126,774.644 339.737,776.776L331.591,781.901L326.965,773.221Z" style="fill:black;stroke-width:0.95px;stroke-linecap:square;stroke:black;"/>
                <circle cx="330.654" cy="776.808" r="5.268" style="fill:rgb(126,120,120);stroke-width:0.95px;stroke-linecap:square;stroke:black;"/>
            </g>
        </g>
        <g>
            <g transform="matrix(0.917472,0,0,0.954713,20.8923,34.5204)">
                <ellipse cx="245.406" cy="777.181" rx="41.255" ry="39.381" style="fill:none;stroke-width:5.34px;stroke:black;"/>
            </g>
            <path d="M245.418,757.83L245.418,775.824" style="fill:none;stroke-width:4px;stroke:black;"/>
            <path d="M239.576,764.894C235.074,767.562 232.184,771.029 231.976,775.824C232,785.819 237.252,789.343 245.418,789.332C254.357,789.32 258.117,784.102 258,775.824C258.143,770.944 254.827,767.745 250.793,764.894" style="fill:none;stroke-width:4px;stroke:black;"/>
        </g>
        <g transform="matrix(0.793163,-2.45102e-32,4.93038e-32,1.451,82.2471,-325.808)">
            <rect x="402.933" y="719.957" width="444.679" height="10.14" style="fill:rgb(135,135,135);stroke-width:0.86px;stroke:black;"/>
        </g>
        <g transform="matrix(0.89,0,0,1,50.275,0)">
            <path d="M456.37,731.037L454.586,731.037L454.586,724.312C453.934,724.922 453.165,725.373 452.28,725.665L452.28,724.046C452.746,723.893 453.252,723.604 453.798,723.179C454.344,722.753 454.719,722.257 454.922,721.69L456.37,721.69L456.37,731.037Z" style="fill:white;fill-rule:nonzero;"/>
            <path d="M549.6,729.38L549.6,731.037L543.345,731.037C543.413,730.411 543.616,729.817 543.955,729.256C544.293,728.695 544.962,727.951 545.961,727.024C546.766,726.275 547.259,725.767 547.441,725.5C547.686,725.132 547.809,724.768 547.809,724.408C547.809,724.01 547.702,723.704 547.488,723.49C547.275,723.276 546.979,723.169 546.603,723.169C546.23,723.169 545.934,723.282 545.714,723.506C545.493,723.73 545.366,724.103 545.333,724.624L543.555,724.446C543.66,723.464 543.993,722.759 544.552,722.331C545.11,721.904 545.809,721.69 546.647,721.69C547.566,721.69 548.288,721.937 548.812,722.433C549.337,722.928 549.6,723.544 549.6,724.281C549.6,724.7 549.525,725.099 549.374,725.478C549.224,725.857 548.986,726.253 548.66,726.668C548.444,726.943 548.055,727.339 547.492,727.856C546.929,728.372 546.572,728.715 546.422,728.884C546.271,729.054 546.15,729.219 546.057,729.38L549.6,729.38Z" style="fill:white;fill-rule:nonzero;"/>
            <path d="M638.893,728.567L640.62,728.357C640.675,728.798 640.823,729.134 641.064,729.367C641.306,729.6 641.598,729.716 641.941,729.716C642.309,729.716 642.619,729.577 642.871,729.297C643.123,729.018 643.249,728.641 643.249,728.167C643.249,727.718 643.128,727.363 642.887,727.1C642.646,726.838 642.351,726.706 642.004,726.706C641.776,726.706 641.503,726.751 641.185,726.84L641.382,725.386C641.865,725.398 642.233,725.294 642.487,725.071C642.741,724.849 642.868,724.554 642.868,724.185C642.868,723.872 642.775,723.622 642.589,723.436C642.402,723.25 642.155,723.157 641.846,723.157C641.541,723.157 641.28,723.263 641.064,723.474C640.849,723.686 640.717,723.995 640.671,724.401L639.026,724.122C639.14,723.559 639.313,723.109 639.544,722.773C639.774,722.436 640.096,722.171 640.509,721.979C640.922,721.786 641.384,721.69 641.896,721.69C642.773,721.69 643.475,721.969 644.005,722.528C644.441,722.985 644.659,723.502 644.659,724.077C644.659,724.895 644.212,725.546 643.319,726.033C643.852,726.148 644.279,726.404 644.598,726.802C644.918,727.2 645.078,727.68 645.078,728.243C645.078,729.06 644.779,729.757 644.182,730.332C643.585,730.908 642.843,731.196 641.954,731.196C641.111,731.196 640.413,730.954 639.858,730.469C639.303,729.984 638.982,729.35 638.893,728.567Z" style="fill:white;fill-rule:nonzero;"/>
            <path d="M737.838,731.037L737.838,729.164L734.028,729.164L734.028,727.602L738.066,721.69L739.565,721.69L739.565,727.595L740.721,727.595L740.721,729.164L739.565,729.164L739.565,731.037L737.838,731.037ZM737.838,727.595L737.838,724.414L735.698,727.595L737.838,727.595Z" style="fill:white;fill-rule:nonzero;"/>
        </g>
        <g transform="matrix(1,0,0,1.06144,0,-44.1637)">
            <rect x="756.398" y="718.827" width="93.194" height="13.859" style="fill:rgb(236,205,0);stroke-width:0.92px;stroke-linecap:square;stroke:black;"/>
        </g>
        <rect x="776.565" y="720.63" width="1.941" height="9.612" style="fill:black;fill-rule:nonzero;"/>
        <path d="M786.675,730.242L784.833,730.242L784.833,726.688C784.833,725.936 784.793,725.45 784.715,725.229C784.636,725.009 784.508,724.837 784.331,724.715C784.154,724.592 783.941,724.531 783.692,724.531C783.373,724.531 783.087,724.618 782.833,724.793C782.58,724.968 782.406,725.2 782.312,725.488C782.218,725.777 782.171,726.31 782.171,727.088L782.171,730.242L780.328,730.242L780.328,723.279L782.04,723.279L782.04,724.302C782.647,723.515 783.412,723.121 784.334,723.121C784.741,723.121 785.113,723.195 785.449,723.341C785.786,723.487 786.04,723.674 786.213,723.902C786.386,724.129 786.506,724.387 786.574,724.675C786.641,724.964 786.675,725.377 786.675,725.914L786.675,730.242Z" style="fill:black;fill-rule:nonzero;"/>
        <path d="M791.737,723.279L791.737,724.747L790.478,724.747L790.478,727.554C790.478,728.122 790.49,728.453 790.514,728.547C790.538,728.641 790.593,728.718 790.678,728.78C790.763,728.841 790.867,728.871 790.989,728.871C791.16,728.871 791.407,728.812 791.73,728.694L791.888,730.124C791.459,730.307 790.974,730.399 790.432,730.399C790.1,730.399 789.8,730.343 789.534,730.232C789.267,730.12 789.072,729.976 788.947,729.799C788.822,729.622 788.736,729.383 788.688,729.081C788.649,728.867 788.629,728.434 788.629,727.783L788.629,724.747L787.783,724.747L787.783,723.279L788.629,723.279L788.629,721.895L790.478,720.82L790.478,723.279L791.737,723.279Z" style="fill:black;fill-rule:nonzero;"/>
        <path d="M797.048,728.026L798.883,728.334C798.647,729.007 798.275,729.519 797.766,729.871C797.256,730.223 796.619,730.399 795.854,730.399C794.644,730.399 793.747,730.004 793.166,729.212C792.707,728.579 792.478,727.779 792.478,726.813C792.478,725.659 792.779,724.755 793.383,724.102C793.986,723.448 794.748,723.121 795.671,723.121C796.707,723.121 797.524,723.463 798.123,724.147C798.722,724.832 799.008,725.879 798.982,727.291L794.366,727.291C794.379,727.838 794.528,728.263 794.812,728.567C795.096,728.87 795.45,729.022 795.874,729.022C796.162,729.022 796.405,728.944 796.602,728.786C796.798,728.629 796.947,728.375 797.048,728.026ZM797.153,726.164C797.139,725.63 797.002,725.225 796.739,724.947C796.477,724.67 796.158,724.531 795.782,724.531C795.38,724.531 795.048,724.677 794.786,724.97C794.523,725.263 794.394,725.661 794.399,726.164L797.153,726.164Z" style="fill:black;fill-rule:nonzero;"/>
        <path d="M802.247,730.242L800.405,730.242L800.405,723.279L802.116,723.279L802.116,724.269C802.409,723.801 802.672,723.493 802.906,723.344C803.14,723.196 803.405,723.121 803.703,723.121C804.122,723.121 804.526,723.237 804.915,723.469L804.345,725.075C804.035,724.874 803.746,724.774 803.48,724.774C803.222,724.774 803.003,724.845 802.824,724.987C802.645,725.129 802.504,725.386 802.401,725.757C802.298,726.129 802.247,726.907 802.247,728.091L802.247,730.242Z" style="fill:black;fill-rule:nonzero;"/>
        <path d="M812.042,730.242L810.2,730.242L810.2,726.688C810.2,725.936 810.161,725.45 810.082,725.229C810.003,725.009 809.875,724.837 809.698,724.715C809.521,724.592 809.308,724.531 809.059,724.531C808.74,724.531 808.454,724.618 808.2,724.793C807.947,724.968 807.773,725.2 807.679,725.488C807.585,725.777 807.538,726.31 807.538,727.088L807.538,730.242L805.696,730.242L805.696,723.279L807.407,723.279L807.407,724.302C808.015,723.515 808.779,723.121 809.702,723.121C810.108,723.121 810.48,723.195 810.816,723.341C811.153,723.487 811.408,723.674 811.58,723.902C811.753,724.129 811.873,724.387 811.941,724.675C812.009,724.964 812.042,725.377 812.042,725.914L812.042,730.242Z" style="fill:black;fill-rule:nonzero;"/>
        <path d="M817.943,728.026L819.779,728.334C819.543,729.007 819.17,729.519 818.661,729.871C818.152,730.223 817.515,730.399 816.75,730.399C815.539,730.399 814.643,730.004 814.062,729.212C813.603,728.579 813.373,727.779 813.373,726.813C813.373,725.659 813.675,724.755 814.278,724.102C814.881,723.448 815.644,723.121 816.566,723.121C817.602,723.121 818.42,723.463 819.019,724.147C819.617,724.832 819.904,725.879 819.877,727.291L815.262,727.291C815.275,727.838 815.423,728.263 815.708,728.567C815.992,728.87 816.346,729.022 816.77,729.022C817.058,729.022 817.301,728.944 817.497,728.786C817.694,728.629 817.843,728.375 817.943,728.026ZM818.048,726.164C818.035,725.63 817.897,725.225 817.635,724.947C817.373,724.67 817.054,724.531 816.678,724.531C816.276,724.531 815.944,724.677 815.681,724.97C815.419,725.263 815.29,725.661 815.294,726.164L818.048,726.164Z" style="fill:black;fill-rule:nonzero;"/>
        <path d="M824.572,723.279L824.572,724.747L823.313,724.747L823.313,727.554C823.313,728.122 823.325,728.453 823.349,728.547C823.373,728.641 823.428,728.718 823.513,728.78C823.598,728.841 823.702,728.871 823.825,728.871C823.995,728.871 824.242,728.812 824.565,728.694L824.723,730.124C824.294,730.307 823.809,730.399 823.267,730.399C822.935,730.399 822.636,730.343 822.369,730.232C822.102,730.12 821.907,729.976 821.782,729.799C821.658,729.622 821.571,729.383 821.523,729.081C821.484,728.867 821.464,728.434 821.464,727.783L821.464,724.747L820.618,724.747L820.618,723.279L821.464,723.279L821.464,721.895L823.313,720.82L823.313,723.279L824.572,723.279Z" style="fill:black;fill-rule:nonzero;"/>
    </g>
</svg>
