<?xml version="1.0" encoding="UTF-8" standalone="no"?>
<!DOCTYPE svg PUBLIC "-//W3C//DTD SVG 1.1//EN" "http://www.w3.org/Graphics/SVG/1.1/DTD/svg11.dtd">
<svg width="100%" height="100%" viewBox="0 0 1280 1150" version="1.1" xmlns="http://www.w3.org/2000/svg" xmlns:xlink="http://www.w3.org/1999/xlink" xml:space="preserve" style="fill-rule:evenodd;clip-rule:evenodd;stroke-linecap:round;stroke-linejoin:round;stroke-miterlimit:1.41421;">
    <path d="M121.408,335.592C125.954,323.747 132.037,316.06 139.002,310.758L549.844,311.795L549.844,319.406L556.837,319.406L556.837,311.795L755.778,318.771L755.778,819.201L556.837,828.941L556.837,823.752L549.844,823.752L549.844,828.941L137.538,828.107C127.335,819.571 119.865,808.27 116.814,792.498C103.303,642.087 105.626,489.686 121.408,335.592Z" style="fill:white;stroke-width:1px;stroke:black;"/>
    <path d="M108.373,562.147L166.049,562.147L166.049,573.078L108.373,573.078" style="fill:none;stroke-width:1px;stroke:black;"/>
    <path d="M549.844,824.046L549.844,319.325L556.837,319.325L556.837,823.752" style="fill:none;stroke-width:1px;stroke:black;"/>
    <g transform="matrix(1,0,0,1,12.2604,-21.2734)">
        <rect x="274.53" y="507.664" width="101.685" height="247.313" style="fill:rgb(35,44,50);stroke-width:1px;stroke:black;"/>
        <g transform="matrix(1,0,0,0.996934,2.11133,1.36677)">
            <rect x="149.439" y="507.888" width="122.859" height="248.12" style="fill:rgb(0,223,147);stroke-width:1px;stroke:black;"/>
        </g>
        <g transform="matrix(1.02205,0,0,0.991834,-8.91773,4.84263)">
            <rect x="376.668" y="506.868" width="208.635" height="249.442" style="fill:rgb(255,220,0);stroke-width:0.99px;stroke:black;"/>
        </g>
    </g>
    <g transform="matrix(1,0,0,1,3.58346,18.6431)">
        <rect x="428.532" y="502.145" width="4.321" height="21.606" style="fill:white;fill-rule:nonzero;"/>
        <path d="M434.201,523.751L434.201,502.145L440.119,502.145L441.642,511.3C441.779,512.12 441.896,513.038 441.994,514.054C442.091,515.07 442.174,516.232 442.243,517.54L442.419,517.54C442.35,516.017 442.299,514.686 442.265,513.549C442.231,512.411 442.214,511.593 442.214,511.095L442.184,502.145L445.568,502.145L445.568,523.751L440.5,523.751L438.288,512.018C438.2,511.559 438.09,510.866 437.958,509.938C437.826,509.01 437.692,507.995 437.555,506.891L437.438,506.891C437.497,507.789 437.543,508.576 437.577,509.249C437.612,509.923 437.629,510.475 437.629,510.905L437.629,523.751L434.201,523.751Z" style="fill:white;fill-rule:nonzero;"/>
        <path d="M449.142,523.751L449.142,505.206L446.374,505.206L446.374,502.145L456.217,502.145L456.217,505.206L453.42,505.206L453.42,523.751L449.142,523.751Z" style="fill:white;fill-rule:nonzero;"/>
        <path d="M457.023,523.751L457.023,502.145L465.065,502.145L465.065,505.148L461.344,505.148L461.344,510.128L464.977,510.128L464.977,513.248L461.344,513.248L461.344,520.485L465.065,520.485L465.065,523.751L457.023,523.751Z" style="fill:white;fill-rule:nonzero;"/>
        <path d="M471.994,509.557L471.994,506.115C471.994,505.626 471.899,505.299 471.708,505.133C471.518,504.967 471.134,504.884 470.558,504.884L470.558,510.787L470.793,510.787C471.242,510.787 471.554,510.697 471.73,510.516C471.906,510.336 471.994,510.016 471.994,509.557ZM466.237,523.751L466.237,502.145L471.276,502.145C473.034,502.145 474.308,502.455 475.099,503.075C475.89,503.695 476.286,504.689 476.286,506.056L476.286,508.327C476.286,509.459 476.007,510.328 475.451,510.934C474.894,511.539 474.064,511.871 472.961,511.93L472.961,512.047C474.191,512.125 475.053,512.431 475.546,512.963C476.039,513.495 476.286,514.401 476.286,515.68L476.286,521.173C476.286,521.613 476.32,522.055 476.388,522.499C476.457,522.943 476.554,523.361 476.681,523.751L472.419,523.751C472.282,523.38 472.177,522.968 472.104,522.514C472.03,522.059 471.994,521.574 471.994,521.056L471.994,520.265L471.994,515.563C471.994,514.957 471.879,514.501 471.65,514.193C471.42,513.886 471.076,513.732 470.617,513.732L470.558,513.732L470.558,523.751L466.237,523.751Z" style="fill:white;fill-rule:nonzero;"/>
        <path d="M477.399,523.751L477.399,502.145L483.317,502.145L484.841,511.3C484.977,512.12 485.094,513.038 485.192,514.054C485.29,515.07 485.373,516.232 485.441,517.54L485.617,517.54C485.549,516.017 485.497,514.686 485.463,513.549C485.429,512.411 485.412,511.593 485.412,511.095L485.382,502.145L488.766,502.145L488.766,523.751L483.698,523.751L481.486,512.018C481.398,511.559 481.288,510.866 481.156,509.938C481.025,509.01 480.89,507.995 480.754,506.891L480.636,506.891C480.695,507.789 480.741,508.576 480.776,509.249C480.81,509.923 480.827,510.475 480.827,510.905L480.827,523.751L477.399,523.751Z" style="fill:white;fill-rule:nonzero;"/>
        <path d="M490.143,523.751L490.143,502.145L498.185,502.145L498.185,505.148L494.465,505.148L494.465,510.128L498.097,510.128L498.097,513.248L494.465,513.248L494.465,520.485L498.185,520.485L498.185,523.751L490.143,523.751Z" style="fill:white;fill-rule:nonzero;"/>
        <path d="M501.554,523.751L501.554,505.206L498.786,505.206L498.786,502.145L508.63,502.145L508.63,505.206L505.832,505.206L505.832,523.751L501.554,523.751Z" style="fill:white;fill-rule:nonzero;"/>
        <path d="M511.632,526.535L509.406,526.535L514.152,501.676L516.364,501.676L511.632,526.535Z" style="fill:white;fill-rule:nonzero;"/>
        <path d="M517.77,523.751L517.77,502.145L522.091,502.145L522.091,520.485L525.812,520.485L525.812,523.751L517.77,523.751Z" style="fill:white;fill-rule:nonzero;"/>
        <path d="M526.999,523.751L530.456,502.145L535.978,502.145L538.527,523.751L534.059,523.751L533.634,517.995L531.496,517.995L530.939,523.751L526.999,523.751ZM531.833,514.816L533.429,514.816L532.946,508.224C532.917,507.853 532.892,507.184 532.873,506.217C532.863,505.797 532.858,505.47 532.858,505.236L532.697,505.236C532.658,506.066 532.624,506.727 532.594,507.221C532.565,507.714 532.541,508.038 532.521,508.195L531.833,514.816Z" style="fill:white;fill-rule:nonzero;"/>
        <path d="M539.362,523.751L539.362,502.145L545.28,502.145L546.803,511.3C546.94,512.12 547.057,513.038 547.155,514.054C547.253,515.07 547.336,516.232 547.404,517.54L547.58,517.54C547.511,516.017 547.46,514.686 547.426,513.549C547.392,512.411 547.375,511.593 547.375,511.095L547.345,502.145L550.729,502.145L550.729,523.751L545.661,523.751L543.449,512.018C543.361,511.559 543.251,510.866 543.119,509.938C542.987,509.01 542.853,507.995 542.716,506.891L542.599,506.891C542.658,507.789 542.704,508.576 542.738,509.249C542.773,509.923 542.79,510.475 542.79,510.905L542.79,523.751L539.362,523.751Z" style="fill:white;fill-rule:nonzero;"/>
    </g>
    <g id="Pol" transform="matrix(1,0,0,1,0,13.2341)">
        <rect x="996.042" y="445.55" width="89.892" height="37.135" style="fill:rgb(26,26,26);stroke-width:1px;stroke:black;"/>
        <g transform="matrix(1,0,0,0.954265,0,22.1871)">
            <path d="M962.839,440.734L998.053,440.734C996.921,455.586 997.14,470.383 998.053,485.122L962.839,485.122L962.839,440.734Z" style="fill:rgb(26,26,26);stroke-width:1.02px;stroke:black;"/>
        </g>
        <path d="M1084.51,442.639L1167.27,442.639C1189.07,442.965 1191.8,487.836 1167.27,487.564L1084.51,487.564L1084.51,442.639Z" style="fill:rgb(128,128,128);stroke-width:1px;stroke:black;"/>
    </g>
    <g id="Pol1" transform="matrix(1,0,0,1,0,210.773)">
        <rect x="996.042" y="445.55" width="89.892" height="37.135" style="fill:rgb(26,26,26);stroke-width:1px;stroke:black;"/>
        <g transform="matrix(1,0,0,0.954265,0,22.1871)">
            <path d="M962.839,440.734L998.053,440.734C996.921,455.586 997.14,470.383 998.053,485.122L962.839,485.122L962.839,440.734Z" style="fill:rgb(26,26,26);stroke-width:1.02px;stroke:black;"/>
        </g>
        <path d="M1084.51,442.639L1167.27,442.639C1189.07,442.965 1191.8,487.836 1167.27,487.564L1084.51,487.564L1084.51,442.639Z" style="fill:rgb(128,128,128);stroke-width:1px;stroke:black;"/>
    </g>
    <g transform="matrix(1,0,0,1,-114.828,103.069)">
        <path d="M434.318,509.557L434.318,506.115C434.318,505.626 434.223,505.299 434.032,505.133C433.842,504.967 433.459,504.884 432.882,504.884L432.882,510.787L433.117,510.787C433.566,510.787 433.879,510.697 434.054,510.516C434.23,510.336 434.318,510.016 434.318,509.557ZM428.561,523.751L428.561,502.145L433.6,502.145C435.358,502.145 436.632,502.455 437.424,503.075C438.215,503.695 438.61,504.689 438.61,506.056L438.61,508.327C438.61,509.459 438.332,510.328 437.775,510.934C437.218,511.539 436.388,511.871 435.285,511.93L435.285,512.047C436.515,512.125 437.377,512.431 437.87,512.963C438.363,513.495 438.61,514.401 438.61,515.68L438.61,521.173C438.61,521.613 438.644,522.055 438.713,522.499C438.781,522.943 438.879,523.361 439.006,523.751L434.743,523.751C434.606,523.38 434.501,522.968 434.428,522.514C434.355,522.059 434.318,521.574 434.318,521.056L434.318,520.265L434.318,515.563C434.318,514.957 434.203,514.501 433.974,514.193C433.744,513.886 433.4,513.732 432.941,513.732L432.882,513.732L432.882,523.751L428.561,523.751Z" style="fill:white;fill-rule:nonzero;"/>
        <path d="M439.753,523.751L439.753,502.145L447.795,502.145L447.795,505.148L444.074,505.148L444.074,510.128L447.707,510.128L447.707,513.248L444.074,513.248L444.074,520.485L447.795,520.485L447.795,523.751L439.753,523.751Z" style="fill:white;fill-rule:nonzero;"/>
        <path d="M448.761,506.027C448.761,504.65 449.203,503.58 450.087,502.819C450.971,502.057 452.209,501.676 453.8,501.676C455.402,501.676 456.637,502.059 457.507,502.826C458.376,503.593 458.81,504.689 458.81,506.115L458.81,509.645L454.518,509.645L454.518,505.807C454.518,505.416 454.465,505.145 454.357,504.994C454.25,504.843 454.064,504.767 453.8,504.767C453.527,504.767 453.334,504.848 453.222,505.009C453.11,505.17 453.053,505.436 453.053,505.807L453.053,507.726C453.053,508.048 453.095,508.329 453.178,508.568C453.261,508.807 453.395,509.039 453.581,509.264L457.726,513.82C458.117,514.24 458.395,514.684 458.561,515.153C458.727,515.621 458.81,516.369 458.81,517.394L458.81,519.913C458.81,521.3 458.373,522.367 457.499,523.114C456.625,523.861 455.382,524.235 453.771,524.235C452.121,524.235 450.873,523.844 450.028,523.063C449.184,522.282 448.761,521.129 448.761,519.606L448.761,515.563L453.053,515.563L453.053,519.913C453.053,520.285 453.11,520.553 453.222,520.719C453.334,520.885 453.527,520.968 453.8,520.968C454.054,520.968 454.237,520.888 454.35,520.726C454.462,520.565 454.518,520.294 454.518,519.913L454.518,517.628C454.518,517.316 454.462,517.025 454.35,516.757C454.237,516.488 454.045,516.198 453.771,515.885L449.875,511.476C449.474,511.027 449.189,510.575 449.018,510.121C448.847,509.667 448.761,509.059 448.761,508.297L448.761,507.975L448.761,506.027Z" style="fill:white;fill-rule:nonzero;"/>
        <path d="M460.011,523.751L460.011,502.145L468.053,502.145L468.053,505.148L464.333,505.148L464.333,510.128L467.966,510.128L467.966,513.248L464.333,513.248L464.333,520.485L468.053,520.485L468.053,523.751L460.011,523.751Z" style="fill:white;fill-rule:nonzero;"/>
        <path d="M471.423,523.751L471.423,505.206L468.654,505.206L468.654,502.145L478.498,502.145L478.498,505.206L475.7,505.206L475.7,523.751L471.423,523.751Z" style="fill:white;fill-rule:nonzero;"/>
    </g>
    <path d="M755.84,359.894L956.149,365.677C960.745,365.812 962.908,367.982 963.019,371.842L961.766,765.124C961.745,771.455 958.405,773.675 953.558,774.027L755.84,779.351L755.84,359.894Z" style="fill:white;stroke-width:1px;stroke:black;"/>
    <path d="M961.766,708.744L755.84,708.744L755.84,443.697L962.266,443.697" style="fill:none;stroke-width:1px;stroke:black;"/>
    <g transform="matrix(2.0882,-6.3575e-07,5.70041e-07,1.87237,-499.505,-1241.42)">
        <g id="WAN">
            <g>
                <path d="M430.126,958.534L520.049,958.534L520.049,1035.48L430.126,1035.48L430.126,958.534" style="fill:white;stroke-width:0.5px;stroke:black;"/>
                <path d="M463.538,961.757L487.377,961.757L487.377,969.841L494.601,969.841L494.601,977.802L508.571,977.802L508.571,989.68L513.332,989.68L513.332,1005.6L508.571,1005.6L508.571,1018.27L440.482,1018.27L440.482,1005.6L437.015,1005.6L437.015,989.68L440.482,989.68L440.482,977.802L455.182,977.802L455.182,969.841L463.538,969.841L463.538,961.757" style="fill:white;stroke-width:0.5px;stroke:black;"/>
                <rect x="436.816" y="989.68" width="9.385" height="15.92" style="fill:black;stroke-width:0.5px;stroke:black;"/>
                <g transform="matrix(1,0,0,1,67.0669,-0.0235958)">
                    <rect x="436.816" y="989.68" width="9.385" height="15.92" style="fill:black;stroke-width:0.5px;stroke:black;"/>
                </g>
                <path d="M450.462,1000.22L450.462,1012.69" style="fill:none;stroke-width:0.5px;stroke:black;"/>
                <g transform="matrix(1,0,0,1,5.18811,0.142889)">
                    <path d="M450.462,1000.22L450.462,1012.69" style="fill:none;stroke-width:0.5px;stroke:black;"/>
                </g>
                <g transform="matrix(1,0,0,1,10.8216,0.142889)">
                    <path d="M450.462,1000.22L450.462,1012.69" style="fill:none;stroke-width:0.5px;stroke:black;"/>
                </g>
                <g transform="matrix(1,0,0,1,22.0044,0.291919)">
                    <path d="M450.462,1000.07L450.462,1012.69" style="fill:none;stroke-width:0.5px;stroke:black;"/>
                </g>
                <g transform="matrix(1,0,0,1,27.0496,0.291919)">
                    <path d="M450.462,1000.05L450.462,1012.69" style="fill:none;stroke-width:0.5px;stroke:black;"/>
                </g>
                <g transform="matrix(1,0,0,1,49.4509,0.192566)">
                    <path d="M450.462,1000.16L450.462,1012.69" style="fill:none;stroke-width:0.5px;stroke:black;"/>
                </g>
                <path d="M466.922,1000.38L466.922,1018.21" style="fill:none;stroke-width:0.5px;stroke:black;"/>
                <g transform="matrix(1,0,0,1,16.0399,-0.0558162)">
                    <path d="M466.922,1000.41L466.922,1018.27" style="fill:none;stroke-width:0.5px;stroke:black;"/>
                </g>
                <g transform="matrix(1,0,0,1,21.7443,-0.154611)">
                    <path d="M466.922,1000.5L466.922,1018.4" style="fill:none;stroke-width:0.5px;stroke:black;"/>
                </g>
                <g transform="matrix(1,0,0,1,27.6257,-0.353316)">
                    <path d="M466.922,1000.67L466.922,1018.4" style="fill:none;stroke-width:0.5px;stroke:black;"/>
                </g>
            </g>
        </g>
    </g>
    <g transform="matrix(1,0,0,1,-546.774,-365.653)">
        <g id="reset">
            <ellipse cx="882.113" cy="1013.72" rx="10.926" ry="10.594" style="fill:rgb(64,64,64);stroke-width:3.5px;stroke:rgb(35,31,32);"/>
        </g>
    </g>
    <g transform="matrix(2.02287,0,0,2.26418,-1437.47,-1645.56)">
        <g id="USB-Port-Hochkant">
            <g>
                <g transform="matrix(1.24266,0,0,1.04702,-187.856,-45.2159)">
                    <rect x="797.162" y="952.18" width="35.211" height="82.069" style="fill:rgb(49,49,49);stroke-width:0.41px;stroke:black;"/>
                </g>
                <g transform="matrix(0.939579,0,0,0.964472,49.6788,34.9392)">
                    <path d="M844.035,961.651C838.659,962.357 842.018,957.286 840.263,955.504C838.409,953.621 833.887,957.121 833.851,951.73L813.483,951.73C813.06,958.195 809.277,954.793 807.442,956.539C805.548,958.341 809.127,962.125 803.299,961.651L803.299,1027.15C809.777,1026.59 805.868,1031.08 807.46,1033.07C808.999,1034.99 813.556,1031.17 813.483,1037.02C813.483,1037.03 813.489,1037.05 813.5,1037.05C813.511,1037.06 813.526,1037.07 813.541,1037.07C814.735,1037.07 833.851,1037.07 833.851,1037.07C833.819,1031.53 837.723,1034.41 839.72,1033.19C841.739,1031.96 837.786,1027.04 844.035,1027.15L844.035,961.651Z" style="fill:rgb(130,115,92);stroke-width:1.47px;stroke:rgb(203,203,203);"/>
                </g>
                <g transform="matrix(0.939579,0,0,0.964472,49.6788,34.9392)">
                    <path d="M844.035,961.651C838.659,962.357 842.018,957.286 840.263,955.504C838.409,953.621 833.887,957.121 833.851,951.73L813.483,951.73C813.06,958.195 809.277,954.793 807.442,956.539C805.548,958.341 809.127,962.125 803.299,961.651L803.299,1027.15C809.777,1026.59 805.868,1031.08 807.46,1033.07C808.999,1034.99 813.556,1031.17 813.483,1037.02C813.483,1037.03 813.489,1037.05 813.5,1037.05C813.511,1037.06 813.526,1037.07 813.541,1037.07C814.735,1037.07 833.851,1037.07 833.851,1037.07C833.819,1031.53 837.723,1034.41 839.72,1033.19C841.739,1031.96 837.786,1027.04 844.035,1027.15L844.035,961.651Z" style="fill:rgb(130,115,92);stroke-width:1.47px;stroke:rgb(203,203,203);"/>
                </g>
                <g transform="matrix(1,0,0,1,-0.730877,0.338846)">
                    <rect x="822.968" y="966.895" width="5.718" height="8.772" style="fill:black;stroke-width:0.23px;stroke:black;"/>
                </g>
                <g transform="matrix(1,0,0,1,-0.794451,13.8694)">
                    <rect x="822.968" y="966.895" width="5.718" height="8.772" style="fill:black;stroke-width:0.23px;stroke:black;"/>
                </g>
                <g transform="matrix(1,0,0,1,-0.812951,26.3374)">
                    <rect x="822.968" y="966.895" width="5.718" height="8.772" style="fill:black;stroke-width:0.23px;stroke:black;"/>
                </g>
                <g transform="matrix(1,0,0,1,-0.864451,40.5344)">
                    <rect x="822.968" y="966.895" width="5.718" height="8.772" style="fill:black;stroke-width:0.23px;stroke:black;"/>
                </g>
                <g transform="matrix(1,0,0,1.03333,2.84217e-14,-34.1453)">
                    <rect x="814.95" y="963.194" width="9.175" height="61.293" style="fill:rgb(203,203,203);stroke-width:0.23px;stroke:black;"/>
                </g>
            </g>
        </g>
    </g>
</svg>
