<?xml version="1.0" standalone="no"?>
<!DOCTYPE svg PUBLIC "-//W3C//DTD SVG 1.1//EN" "http://www.w3.org/Graphics/SVG/1.1/DTD/svg11.dtd">
<svg width="100%" height="100%" viewBox="0 0 1280 1150" version="1.1" xmlns="http://www.w3.org/2000/svg" xmlns:xlink="http://www.w3.org/1999/xlink" xml:space="preserve" style="fill-rule:evenodd;clip-rule:evenodd;stroke-linecap:round;stroke-linejoin:round;stroke-miterlimit:1.41421;">
    <g id="Antenne rechts">
        <g transform="matrix(1.02894,0,0,0.896261,-24.388,42.8095)">
            <rect x="824.251" y="373.007" width="30.241" height="36.613" style="fill:rgb(14,14,14);stroke-width:0.83px;stroke:rgb(37,37,37);"/>
        </g>
        <path d="M837.283,402.883L837.283,378.72L840.849,378.72L840.849,402.883L837.283,402.883" style="fill:rgb(217,217,217);stroke-width:0.8px;stroke:rgb(122,122,122);"/>
        <path d="M828.087,142.598L828.087,129.646L848.556,129.646L848.556,142.598L828.087,142.598" style="fill:rgb(77,77,77);stroke-width:0.8px;stroke:rgb(37,37,37);stroke-opacity:0.992157;"/>
        <path d="M830.924,413.1L830.924,385.423L835.661,385.423L835.661,400.59L843.011,400.59L843.011,385.423L848.323,385.423L848.323,413.1L830.924,413.1Z" style="fill:rgb(77,77,77);stroke-width:0.8px;stroke:rgb(37,37,37);stroke-opacity:0.992157;"/>
        <path d="M823.718,409.938C827.089,409.938 829.462,407.829 829.462,400.59L829.462,380.398L850.362,380.398L850.362,400.59C850.362,407.972 852.027,409.938 854.841,409.938L854.841,322.621L850.362,244.453L850.362,141.762C842.317,138.115 834.238,138.416 826.135,141.762L826.135,244.453L823.718,322.621L823.718,409.938Z" style="fill:rgb(77,77,77);stroke-width:0.8px;stroke:rgb(37,37,37);stroke-opacity:0.992157;"/>
        <g transform="matrix(1,0,0,1,0,1.44107)">
            <path d="M829.462,378.959L850.362,378.959C850.362,373.372 847.063,370.273 840.15,370.247C832.708,370.218 829.571,373.55 829.462,378.959" style="fill:rgb(88,88,88);stroke-width:0.8px;stroke:rgb(37,37,37);"/>
        </g>
        <g transform="matrix(1,0,0,1,0,-4.23326)">
            <path d="M826.135,137.586L826.135,117.494C826.135,113.276 831.714,108.087 839.294,108.042C846.355,108 850.362,112.961 850.362,117.494L850.362,137.586C842.505,133.823 834.412,134.133 826.135,137.586Z" style="fill:rgb(77,77,77);stroke-width:0.8px;stroke:rgb(37,37,37);stroke-opacity:0.992157;"/>
        </g>
        <path d="M850.362,135.789L850.362,138.337C841.996,135.284 834,135.643 826.257,138.337L826.257,135.789C834.873,132.6 842.892,132.687 850.362,135.789" style="fill:rgb(77,77,77);stroke-width:0.8px;stroke:rgb(37,37,37);stroke-opacity:0.992157;"/>
        <path d="M823.669,432.657L855.247,436.736L855.247,412.853C844.703,408.205 834.176,407.905 823.669,412.853L823.669,432.657" style="fill:rgb(77,77,77);stroke-width:0.8px;stroke:rgb(37,37,37);stroke-opacity:0.992157;"/>
    </g>
    <g id="Antenne links" transform="matrix(1,0,0,1,-441.435,0)">
        <g transform="matrix(1.02894,0,0,0.896261,-24.388,42.8095)">
            <rect x="824.251" y="373.007" width="30.241" height="36.613" style="fill:rgb(14,14,14);stroke-width:0.83px;stroke:rgb(37,37,37);"/>
        </g>
        <path d="M837.283,402.883L837.283,378.72L840.849,378.72L840.849,402.883L837.283,402.883" style="fill:rgb(217,217,217);stroke-width:0.8px;stroke:rgb(122,122,122);"/>
        <path d="M828.087,142.598L828.087,129.646L848.556,129.646L848.556,142.598L828.087,142.598" style="fill:rgb(77,77,77);stroke-width:0.8px;stroke:rgb(37,37,37);stroke-opacity:0.992157;"/>
        <path d="M830.924,413.1L830.924,385.423L835.661,385.423L835.661,400.59L843.011,400.59L843.011,385.423L848.323,385.423L848.323,413.1L830.924,413.1Z" style="fill:rgb(77,77,77);stroke-width:0.8px;stroke:rgb(37,37,37);stroke-opacity:0.992157;"/>
        <path d="M823.718,409.938C827.089,409.938 829.462,407.829 829.462,400.59L829.462,380.398L850.362,380.398L850.362,400.59C850.362,407.972 852.027,409.938 854.841,409.938L854.841,322.621L850.362,244.453L850.362,141.762C842.317,138.115 834.238,138.416 826.135,141.762L826.135,244.453L823.718,322.621L823.718,409.938Z" style="fill:rgb(77,77,77);stroke-width:0.8px;stroke:rgb(37,37,37);stroke-opacity:0.992157;"/>
        <g transform="matrix(1,0,0,1,0,1.44107)">
            <path d="M829.462,378.959L850.362,378.959C850.362,373.372 847.063,370.273 840.15,370.247C832.708,370.218 829.571,373.55 829.462,378.959" style="fill:rgb(88,88,88);stroke-width:0.8px;stroke:rgb(37,37,37);"/>
        </g>
        <g transform="matrix(1,0,0,1,0,-4.23326)">
            <path d="M826.135,137.586L826.135,117.494C826.135,113.276 831.714,108.087 839.294,108.042C846.355,108 850.362,112.961 850.362,117.494L850.362,137.586C842.505,133.823 834.412,134.133 826.135,137.586Z" style="fill:rgb(77,77,77);stroke-width:0.8px;stroke:rgb(37,37,37);stroke-opacity:0.992157;"/>
        </g>
        <path d="M850.362,135.789L850.362,138.337C841.996,135.284 834,135.643 826.257,138.337L826.257,135.789C834.873,132.6 842.892,132.687 850.362,135.789" style="fill:rgb(77,77,77);stroke-width:0.8px;stroke:rgb(37,37,37);stroke-opacity:0.992157;"/>
        <path d="M823.669,432.657L855.247,428.66L855.247,412.853C844.703,408.205 834.176,407.905 823.669,412.853L823.669,432.657" style="fill:rgb(77,77,77);stroke-width:0.8px;stroke:rgb(37,37,37);stroke-opacity:0.992157;"/>
    </g>
    <path d="M395.515,986.371C555.074,1014.7 710.187,1013.14 861.55,986.371C888.66,981.577 911.739,950.755 925.753,906.878C965.145,783.547 991.292,659.651 992.346,534.687C992.794,481.504 973.645,454.825 925.753,446.207C714.588,414.445 504.343,405.878 293.718,446.207C248.721,454.823 241.913,493.312 242.006,534.687C242.296,662.766 264.413,786.575 304.455,906.878C324.15,966.048 350.804,978.434 395.515,986.371Z" style="fill:rgb(26,26,26);stroke-width:3px;stroke:black;"/>
    <path d="M433.296,979.194C547.107,992.729 660.482,988.096 774.576,986.371C838.494,985.405 842.967,940.023 874.632,751.216C882.765,695.481 886.749,640.429 883.776,586.653C880.253,522.947 832.875,499.632 766.57,494.144C634.693,483.228 541.348,484.674 473.008,494.144C385.499,506.269 354.762,508.834 346.806,586.653C340.877,644.646 338.672,710.052 346.806,751.216C380.943,923.957 385.237,973.479 433.296,979.194Z" style="fill:rgb(13,13,13);stroke-width:3px;stroke:black;"/>
    <path d="M442.333,893.825C555.492,893.314 668.674,894.605 781.897,899.038C797.677,899.656 806.214,904.495 801.913,917.349C798.97,926.146 795.1,934.792 789.341,943.132C782.037,953.71 771.666,957.593 757.405,958.535C664.685,964.654 571.957,962.342 479.226,954.689C460.111,953.111 443.682,953.188 435.734,943.132C427.101,932.21 420.662,920.339 419.152,906.339C416.896,899.135 422.233,893.916 442.333,893.825Z" style="fill:rgb(37,37,37);fill-opacity:0.901961;stroke-width:0.8px;stroke:black;"/>
    <g id="wifi">
        <path d="M656.811,927.325C664.02,921.069 670.245,920.591 675.487,925.891" style="fill:none;stroke-width:0.8px;stroke:rgb(0,212,207);stroke-opacity:0.992157;"/>
        <path d="M660.283,932.194C664.016,927.689 668.205,926.341 673.15,930.246" style="fill:none;stroke-width:0.8px;stroke:rgb(0,212,207);stroke-opacity:0.992157;"/>
        <path d="M663.204,935.806C665.957,932.601 668.309,931.929 670.104,934.782" style="fill:none;stroke-width:0.8px;stroke:rgb(0,212,207);stroke-opacity:0.992157;"/>
    </g>
    <g id="lan LED">
        <g transform="matrix(1,0,0,1,62.967,1.22769)">
            <path d="M487.347,931.629L492.166,931.629L492.166,933.106L497.069,933.583L497.069,935.866L481.879,935.866L481.879,933.583L487.347,933.106L487.347,931.629" style="fill:rgb(0,212,207);fill-opacity:0.901961;"/>
            <path d="M495.46,928.832C497.501,928.813 498.271,927.943 498.271,926.138L498.271,919.664C498.271,917.466 498.256,916.082 495.46,916.082L484.331,916.082C481.596,916.082 481.489,916.866 481.489,919.664L481.489,926.138C481.489,927.887 482.498,928.819 484.331,928.832" style="fill:none;stroke-width:0.8px;stroke:rgb(0,212,207);"/>
            <g transform="matrix(1,0,0,1,-62.967,-1.22769)">
                <path d="M550.961,921.236C548.579,926.113 550.61,927.292 555.246,926.288L555.246,921.236L555.246,930.05" style="fill:none;stroke-width:0.8px;stroke:rgb(0,212,207);stroke-opacity:0.992157;"/>
            </g>
        </g>
        <g transform="matrix(1,0,0,1,31.3661,0.123577)">
            <path d="M487.347,931.629L492.166,931.629L492.166,933.106L497.069,933.583L497.069,935.866L481.879,935.866L481.879,933.583L487.347,933.106L487.347,931.629" style="fill:rgb(0,212,207);fill-opacity:0.901961;"/>
            <path d="M495.46,928.832C497.501,928.813 498.271,927.943 498.271,926.138L498.271,919.664C498.271,917.466 498.256,916.082 495.46,916.082L484.331,916.082C481.596,916.082 481.489,916.866 481.489,919.664L481.489,926.138C481.489,927.887 482.498,928.819 484.331,928.832" style="fill:none;stroke-width:0.8px;stroke:rgb(0,212,207);"/>
            <g transform="matrix(1,0,0,1,-31.3661,-0.123577)">
                <path d="M519.063,922.058C519.082,919.735 523.554,919.694 523.521,922.058C523.493,924.006 522.976,924.462 521.733,924.505C523.003,924.461 523.521,924.991 523.521,927.099C523.521,929.308 519.157,929.307 519.063,927.099" style="fill:none;stroke-width:0.8px;stroke:rgb(0,212,207);stroke-opacity:0.992157;"/>
            </g>
        </g>
        <g>
            <path d="M487.347,931.629L492.166,931.629L492.166,933.106L497.069,933.583L497.069,935.866L481.879,935.866L481.879,933.583L487.347,933.106L487.347,931.629" style="fill:rgb(0,212,207);fill-opacity:0.901961;"/>
            <path d="M495.46,928.832C497.501,928.813 498.271,927.943 498.271,926.138L498.271,919.664C498.271,917.466 498.256,916.082 495.46,916.082L484.331,916.082C481.596,916.082 481.489,916.866 481.489,919.664L481.489,926.138C481.489,927.887 482.498,928.819 484.331,928.832" style="fill:none;stroke-width:0.8px;stroke:rgb(0,212,207);"/>
            <path d="M487.553,920.952C492.152,919.115 494.869,923.104 490.411,924.619C488.348,925.097 487.395,926.395 487.553,928.512L492.418,928.512" style="fill:none;stroke-width:0.8px;stroke:rgb(0,212,207);stroke-opacity:0.992157;"/>
        </g>
        <g transform="matrix(1,0,0,1,-32.0206,-1.04264)">
            <path d="M487.347,931.629L492.166,931.629L492.166,933.106L497.069,933.583L497.069,935.866L481.879,935.866L481.879,933.583L487.347,933.106L487.347,931.629" style="fill:rgb(0,212,207);fill-opacity:0.901961;"/>
            <path d="M495.46,928.832C497.501,928.813 498.271,927.943 498.271,926.138L498.271,919.664C498.271,917.466 498.256,916.082 495.46,916.082L484.331,916.082C481.596,916.082 481.489,916.866 481.489,919.664L481.489,926.138C481.489,927.887 482.498,928.819 484.331,928.832" style="fill:none;stroke-width:0.8px;stroke:rgb(0,212,207);"/>
            <g transform="matrix(1,0,0,1,32.0206,1.04264)">
                <path d="M456.982,922.065L458.248,920.757L458.248,927.538" style="fill:none;stroke-width:0.8px;stroke:rgb(0,212,207);stroke-opacity:0.992157;"/>
            </g>
        </g>
    </g>
    <g id="uplink">
        <path d="M713.755,937.497C715.261,936.584 716.645,935.502 717.65,933.891" style="fill:none;stroke-width:0.8px;stroke:rgb(0,212,207);"/>
        <path d="M716.751,927.284C711.856,919.63 699.829,924.09 710.197,935.181" style="fill:none;stroke-width:0.8px;stroke:rgb(0,212,207);"/>
        <path d="M714.531,920.609C732.648,917.226 702.914,954.092 704.776,933.389" style="fill:none;stroke-width:0.8px;stroke:rgb(0,212,207);"/>
    </g>
    <g id="power">
        <path d="M762.413,925.499C766.703,942.728 747.803,940.113 753.192,925.499" style="fill:none;stroke-width:0.8px;stroke:rgb(0,212,207);"/>
        <path d="M757.894,920.474L757.894,930.802" style="fill:none;stroke-width:0.8px;stroke:rgb(0,212,207);"/>
    </g>
    <g>
        <path d="M597.715,941.676C605.44,942.119 613.202,942.178 621.017,941.676C624.7,941.439 626.088,939.769 626.841,936.45L630.426,920.643C631.288,916.845 629.916,915.391 625.483,914.787C609.526,912.609 603.788,912.641 591.984,914.787C588.5,915.42 586.522,916.123 587.737,920.643L591.984,936.45C592.815,939.543 593.931,941.459 597.715,941.676Z" style="fill:none;stroke-width:0.8px;stroke:black;"/>
        <g>
            <path d="M614.746,923.416L616.615,923.416C615.898,920.746 613.928,919.1 611.057,918.189C609.342,920.609 609.073,923.058 610.001,925.533L611.83,924.025C612.966,927.094 612.013,930.213 610.001,933.358C613.755,931.479 616.876,929.183 614.746,923.416Z" style="fill:rgb(217,217,217);stroke-width:0.8px;stroke:black;"/>
            <g transform="matrix(-1,3.21625e-16,-3.21625e-16,-1,1218.18,1852.28)">
                <path d="M614.746,923.416L616.615,923.416C615.898,920.746 613.928,919.1 611.057,918.189C609.342,920.609 609.073,923.058 610.001,925.533L611.83,924.025C612.966,927.094 612.013,930.213 610.001,933.358C613.755,931.479 616.876,929.183 614.746,923.416Z" style="fill:rgb(217,217,217);stroke-width:0.8px;stroke:black;"/>
            </g>
        </g>
    </g>
</svg>
