<?xml version="1.0" encoding="UTF-8" standalone="no"?>
<!DOCTYPE svg PUBLIC "-//W3C//DTD SVG 1.1//EN" "http://www.w3.org/Graphics/SVG/1.1/DTD/svg11.dtd">
<svg width="100%" height="100%" viewBox="0 0 1280 1150" version="1.1" xmlns="http://www.w3.org/2000/svg" xmlns:xlink="http://www.w3.org/1999/xlink" xml:space="preserve" style="fill-rule:evenodd;clip-rule:evenodd;stroke-linejoin:round;stroke-miterlimit:1.41421;">
    <g id="Antennen-1043">
        <g id="new-Antenne-1043">
            <path d="M652.036,619.119L703.126,619.119L700.344,526.551L655.39,526.551L652.036,619.119Z" style="fill:rgb(49,49,49);stroke-width:0.5px;stroke:black;"/>
            <rect x="665.084" y="199.138" width="27.899" height="28.754" style="fill:rgb(49,49,49);stroke-width:0.5px;stroke:black;"/>
            <path d="M649.243,689.441L650.988,616.958C669.108,618.552 687.221,618.824 705.323,616.958L707.183,689.441L649.243,689.441Z" style="fill:rgb(49,49,49);stroke-width:0.5px;stroke:black;"/>
            <path d="M650.848,597.162L650.848,612.298C668.997,614.545 687.229,614.718 705.566,612.298L705.566,597.162C687.342,599.115 669.101,598.905 650.848,597.162Z" style="fill:rgb(49,49,49);stroke-width:0.5px;stroke:black;"/>
            <path d="M663.141,341.639L694.434,341.639L694.434,223.461L663.746,223.461L663.141,341.639Z" style="fill:rgb(49,49,49);stroke-width:0.5px;stroke:black;"/>
            <path d="M651.347,593.426C669.264,594.991 687.044,594.958 704.694,593.426L703.132,552.011C686.546,553.968 669.625,553.864 652.419,552.011L651.347,593.426Z" style="fill:rgb(49,49,49);stroke-width:0.5px;stroke:black;"/>
            <path d="M653.079,547.908C669.797,549.558 686.475,549.685 703.103,547.908L702.503,533.319C686.288,534.981 669.99,534.936 653.614,533.319L653.079,547.908Z" style="fill:rgb(49,49,49);stroke-width:0.5px;stroke:black;"/>
            <path d="M653.614,529.948C669.993,531.254 686.296,531.355 702.503,529.948L697.191,338.329C685.178,340.346 673.138,340.435 661.07,338.329L653.614,529.948Z" style="fill:rgb(49,49,49);stroke-width:0.5px;stroke:black;"/>
            <rect x="663.746" y="205.104" width="30.688" height="14.659" style="fill:rgb(49,49,49);stroke-width:0.5px;stroke:black;"/>
            <path d="M663.687,200.966L694.443,200.966L694.443,144.136C688.239,128.631 671.247,128.6 663.687,144.136L663.687,200.966Z" style="fill:rgb(49,49,49);stroke-width:0.5px;stroke:black;"/>
        </g>
        <g id="new-Antenne-10431" transform="matrix(0.965926,-0.258819,0.258819,0.965926,-524.481,206.115)">
            <path d="M652.036,619.119L703.126,619.119L700.344,526.551L655.39,526.551L652.036,619.119Z" style="fill:rgb(49,49,49);stroke-width:0.5px;stroke:black;"/>
            <rect x="665.084" y="199.138" width="27.899" height="28.754" style="fill:rgb(49,49,49);stroke-width:0.5px;stroke:black;"/>
            <path d="M649.243,689.441L650.988,616.958C669.108,618.552 687.221,618.824 705.323,616.958L707.183,689.441L649.243,689.441Z" style="fill:rgb(49,49,49);stroke-width:0.5px;stroke:black;"/>
            <path d="M650.848,597.162L650.848,612.298C668.997,614.545 687.229,614.718 705.566,612.298L705.566,597.162C687.342,599.115 669.101,598.905 650.848,597.162Z" style="fill:rgb(49,49,49);stroke-width:0.5px;stroke:black;"/>
            <path d="M663.141,341.639L694.434,341.639L694.434,223.461L663.746,223.461L663.141,341.639Z" style="fill:rgb(49,49,49);stroke-width:0.5px;stroke:black;"/>
            <path d="M651.347,593.426C669.264,594.991 687.044,594.958 704.694,593.426L703.132,552.011C686.546,553.968 669.625,553.864 652.419,552.011L651.347,593.426Z" style="fill:rgb(49,49,49);stroke-width:0.5px;stroke:black;"/>
            <path d="M653.079,547.908C669.797,549.558 686.475,549.685 703.103,547.908L702.503,533.319C686.288,534.981 669.99,534.936 653.614,533.319L653.079,547.908Z" style="fill:rgb(49,49,49);stroke-width:0.5px;stroke:black;"/>
            <path d="M653.614,529.948C669.993,531.254 686.296,531.355 702.503,529.948L697.191,338.329C685.178,340.346 673.138,340.435 661.07,338.329L653.614,529.948Z" style="fill:rgb(49,49,49);stroke-width:0.5px;stroke:black;"/>
            <rect x="663.746" y="205.104" width="30.688" height="14.659" style="fill:rgb(49,49,49);stroke-width:0.5px;stroke:black;"/>
            <path d="M663.687,200.966L694.443,200.966L694.443,144.136C688.239,128.631 671.247,128.6 663.687,144.136L663.687,200.966Z" style="fill:rgb(49,49,49);stroke-width:0.5px;stroke:black;"/>
        </g>
        <g id="new-Antenne-1043rechts" transform="matrix(0.965926,0.258819,-0.258819,0.965926,549.457,-145.553)">
            <path d="M652.036,619.119L703.126,619.119L700.344,526.551L655.39,526.551L652.036,619.119Z" style="fill:rgb(49,49,49);stroke-width:0.5px;stroke:black;"/>
            <rect x="665.084" y="199.138" width="27.899" height="28.754" style="fill:rgb(49,49,49);stroke-width:0.5px;stroke:black;"/>
            <path d="M649.243,689.441L650.988,616.958C669.108,618.552 687.221,618.824 705.323,616.958L707.183,689.441L649.243,689.441Z" style="fill:rgb(49,49,49);stroke-width:0.5px;stroke:black;"/>
            <path d="M650.848,597.162L650.848,612.298C668.997,614.545 687.229,614.718 705.566,612.298L705.566,597.162C687.342,599.115 669.101,598.905 650.848,597.162Z" style="fill:rgb(49,49,49);stroke-width:0.5px;stroke:black;"/>
            <path d="M663.141,341.639L694.434,341.639L694.434,223.461L663.746,223.461L663.141,341.639Z" style="fill:rgb(49,49,49);stroke-width:0.5px;stroke:black;"/>
            <path d="M651.347,593.426C669.264,594.991 687.044,594.958 704.694,593.426L703.132,552.011C686.546,553.968 669.625,553.864 652.419,552.011L651.347,593.426Z" style="fill:rgb(49,49,49);stroke-width:0.5px;stroke:black;"/>
            <path d="M653.079,547.908C669.797,549.558 686.475,549.685 703.103,547.908L702.503,533.319C686.288,534.981 669.99,534.936 653.614,533.319L653.079,547.908Z" style="fill:rgb(49,49,49);stroke-width:0.5px;stroke:black;"/>
            <path d="M653.614,529.948C669.993,531.254 686.296,531.355 702.503,529.948L697.191,338.329C685.178,340.346 673.138,340.435 661.07,338.329L653.614,529.948Z" style="fill:rgb(49,49,49);stroke-width:0.5px;stroke:black;"/>
            <rect x="663.746" y="205.104" width="30.688" height="14.659" style="fill:rgb(49,49,49);stroke-width:0.5px;stroke:black;"/>
            <path d="M663.687,200.966L694.443,200.966L694.443,144.136C688.239,128.631 671.247,128.6 663.687,144.136L663.687,200.966Z" style="fill:rgb(49,49,49);stroke-width:0.5px;stroke:black;"/>
        </g>
    </g>
    <g id="rippen">
        <g id="rippen-rechts">
            <g>
                <g transform="matrix(0.761096,0,0,0.761096,298.965,294.449)">
                    <path d="M1241.6,892.412L1249.01,906.328L1245.96,913.821L1241.6,913.821L1238.99,892.412L1241.6,892.412Z" style="fill:rgb(51,51,51);stroke-width:0.66px;stroke:black;"/>
                </g>
                <g transform="matrix(0.761096,0,0,0.761096,298.965,294.449)">
                    <path d="M1240.09,909.578C1243.88,909.985 1246.97,909.1 1249.01,906.328L1249.01,915.716C1247.37,918.684 1244.24,918.992 1240.7,919.071L1240.09,909.578Z" style="fill:rgb(51,51,51);stroke-width:0.66px;stroke:black;"/>
                </g>
            </g>
            <g>
                <g transform="matrix(0.895834,0,0,0.895834,130.986,146.98)">
                    <path d="M1241.6,892.412L1249.01,906.328L1245.96,913.821L1241.6,913.821L1238.99,892.412L1241.6,892.412Z" style="fill:rgb(51,51,51);stroke-width:0.56px;stroke:black;"/>
                </g>
                <g transform="matrix(0.895834,0,0,0.895834,130.986,146.98)">
                    <path d="M1240.09,909.578C1243.88,909.985 1246.97,909.1 1249.01,906.328L1249.01,915.716C1247.37,918.684 1244.24,918.992 1240.7,919.071L1240.09,909.578Z" style="fill:rgb(51,51,51);stroke-width:0.56px;stroke:black;"/>
                </g>
            </g>
            <g>
                <g transform="matrix(1,0,0,1,0.455564,25.8628)">
                    <path d="M1241.6,892.412L1249.01,906.328L1245.96,913.821L1241.6,913.821L1238.99,892.412L1241.6,892.412Z" style="fill:rgb(51,51,51);stroke-width:0.5px;stroke:black;"/>
                </g>
                <g transform="matrix(1,0,0,1,0.455564,25.8628)">
                    <path d="M1240.09,909.578C1243.88,909.985 1246.97,909.1 1249.01,906.328L1249.01,915.716C1247.37,918.684 1244.24,918.992 1240.7,919.071L1240.09,909.578Z" style="fill:rgb(51,51,51);stroke-width:0.5px;stroke:black;"/>
                </g>
            </g>
            <g>
                <path d="M1241.6,892.412L1249.01,906.328L1245.96,913.821L1241.6,913.821L1238.99,892.412L1241.6,892.412Z" style="fill:rgb(51,51,51);stroke-width:0.5px;stroke:black;"/>
                <path d="M1240.09,909.578C1243.88,909.985 1246.97,909.1 1249.01,906.328L1249.01,915.716C1247.37,918.684 1244.24,918.992 1240.7,919.071L1240.09,909.578Z" style="fill:rgb(51,51,51);stroke-width:0.5px;stroke:black;"/>
            </g>
            <g>
                <path d="M1240.14,866.776L1248.99,881.994L1246.04,886.95L1238.92,886.95L1236.59,866.776L1240.14,866.776Z" style="fill:rgb(51,51,51);stroke-width:0.5px;stroke:black;"/>
                <g transform="matrix(1,0,0,0.896026,0,92.9608)">
                    <path d="M1238.87,883.847C1242.7,884.399 1246.01,883.065 1249.01,880.617L1249.01,890.531C1247.98,892.652 1244.86,893.758 1240.14,894.081L1238.87,883.847Z" style="fill:rgb(51,51,51);stroke-width:0.53px;stroke:black;"/>
                </g>
            </g>
            <g>
                <path d="M1140.2,705.009C1150,707.551 1157.58,712.8 1162.64,721.13L1248.94,858.06L1247.88,863.427L1243.69,864.809L1235.73,863.571L1140.2,705.009Z" style="fill:rgb(51,51,51);stroke-width:0.5px;stroke:black;"/>
                <g transform="matrix(1,0,0,1.34688,0,-298.374)">
                    <path d="M1237.42,867.999C1242.73,868.034 1247.04,867.325 1248.94,864.835C1249.06,864.122 1248.95,858.906 1248.94,858.597C1246.75,862.143 1241.98,863.061 1235.99,862.642" style="fill:rgb(51,51,51);stroke-width:0.42px;stroke:black;"/>
                </g>
            </g>
        </g>
        <g id="rippen-rechts1" transform="matrix(-1,0,0,1,1328.52,0)">
            <g>
                <g transform="matrix(0.761096,0,0,0.761096,298.965,294.449)">
                    <path d="M1241.6,892.412L1249.01,906.328L1245.96,913.821L1241.6,913.821L1238.99,892.412L1241.6,892.412Z" style="fill:rgb(51,51,51);stroke-width:0.66px;stroke:black;"/>
                </g>
                <g transform="matrix(0.761096,0,0,0.761096,298.965,294.449)">
                    <path d="M1240.09,909.578C1243.88,909.985 1246.97,909.1 1249.01,906.328L1249.01,915.716C1247.37,918.684 1244.24,918.992 1240.7,919.071L1240.09,909.578Z" style="fill:rgb(51,51,51);stroke-width:0.66px;stroke:black;"/>
                </g>
            </g>
            <g>
                <g transform="matrix(0.895834,0,0,0.895834,130.986,146.98)">
                    <path d="M1241.6,892.412L1249.01,906.328L1245.96,913.821L1241.6,913.821L1238.99,892.412L1241.6,892.412Z" style="fill:rgb(51,51,51);stroke-width:0.56px;stroke:black;"/>
                </g>
                <g transform="matrix(0.895834,0,0,0.895834,130.986,146.98)">
                    <path d="M1240.09,909.578C1243.88,909.985 1246.97,909.1 1249.01,906.328L1249.01,915.716C1247.37,918.684 1244.24,918.992 1240.7,919.071L1240.09,909.578Z" style="fill:rgb(51,51,51);stroke-width:0.56px;stroke:black;"/>
                </g>
            </g>
            <g>
                <g transform="matrix(1,0,0,1,0.455564,25.8628)">
                    <path d="M1241.6,892.412L1249.01,906.328L1245.96,913.821L1241.6,913.821L1238.99,892.412L1241.6,892.412Z" style="fill:rgb(51,51,51);stroke-width:0.5px;stroke:black;"/>
                </g>
                <g transform="matrix(1,0,0,1,0.455564,25.8628)">
                    <path d="M1240.09,909.578C1243.88,909.985 1246.97,909.1 1249.01,906.328L1249.01,915.716C1247.37,918.684 1244.24,918.992 1240.7,919.071L1240.09,909.578Z" style="fill:rgb(51,51,51);stroke-width:0.5px;stroke:black;"/>
                </g>
            </g>
            <g>
                <path d="M1241.6,892.412L1249.01,906.328L1245.96,913.821L1241.6,913.821L1238.99,892.412L1241.6,892.412Z" style="fill:rgb(51,51,51);stroke-width:0.5px;stroke:black;"/>
                <path d="M1240.09,909.578C1243.88,909.985 1246.97,909.1 1249.01,906.328L1249.01,915.716C1247.37,918.684 1244.24,918.992 1240.7,919.071L1240.09,909.578Z" style="fill:rgb(51,51,51);stroke-width:0.5px;stroke:black;"/>
            </g>
            <g>
                <path d="M1240.14,866.776L1248.99,881.994L1246.04,886.95L1238.92,886.95L1236.59,866.776L1240.14,866.776Z" style="fill:rgb(51,51,51);stroke-width:0.5px;stroke:black;"/>
                <g transform="matrix(1,0,0,0.896026,0,92.9608)">
                    <path d="M1238.87,883.847C1242.7,884.399 1246.01,883.065 1249.01,880.617L1249.01,890.531C1247.98,892.652 1244.86,893.758 1240.14,894.081L1238.87,883.847Z" style="fill:rgb(51,51,51);stroke-width:0.53px;stroke:black;"/>
                </g>
            </g>
            <g>
                <path d="M1140.2,705.009C1150,707.551 1157.58,712.8 1162.64,721.13L1248.94,858.06L1247.88,863.427L1243.69,864.809L1235.73,863.571L1140.2,705.009Z" style="fill:rgb(51,51,51);stroke-width:0.5px;stroke:black;"/>
                <g transform="matrix(1,0,0,1.34688,0,-298.374)">
                    <path d="M1237.42,867.999C1242.73,868.034 1247.04,867.325 1248.94,864.835C1249.06,864.122 1248.95,858.906 1248.94,858.597C1246.75,862.143 1241.98,863.061 1235.99,862.642" style="fill:rgb(51,51,51);stroke-width:0.42px;stroke:black;"/>
                </g>
            </g>
        </g>
    </g>
    <g id="Router">
        <g id="Plaste-weis">
            <path d="M84.296,981.947C86.513,932.857 87.593,880.051 96.522,852.897L191.308,703.716C195.01,697.889 223.422,689.309 242.194,688.874L1062.77,688.874C1102.56,689.162 1132.19,692.715 1138.68,703.716L1228.06,846.708C1231.44,852.7 1234.16,858.892 1236.37,865.237C1240.57,904.026 1241.72,942.997 1243.22,981.947L1230.41,996.746L98.354,996.746L84.296,981.947Z" style="fill:white;stroke-width:3px;stroke-linecap:round;stroke:black;"/>
            <path d="M259.697,986.318L94.282,986.318C89.968,986.135 86.672,984.601 84.22,981.947L84.22,1002.75C84.22,1005.88 92.109,1013.63 94.282,1013.63L259.697,1013.63L259.697,986.318Z" style="fill:white;stroke-width:3px;stroke-linecap:round;stroke:black;"/>
            <g transform="matrix(-1,0,0,1,1327.35,0)">
                <path d="M259.697,986.318L94.282,986.318C89.968,986.135 86.672,984.601 84.22,981.947L84.22,1002.75C84.22,1005.88 92.109,1013.63 94.282,1013.63L259.697,1013.63L259.697,986.318Z" style="fill:white;stroke-width:3px;stroke-linecap:round;stroke:black;"/>
            </g>
        </g>
        <g id="QSS">
            <path d="M1223.29,928.479C1223.29,923.226 1219.03,918.961 1213.78,918.961L1114.87,918.961C1109.61,918.961 1105.35,923.226 1105.35,928.479L1105.35,972.96C1105.35,978.213 1109.61,982.477 1114.87,982.477L1213.78,982.477C1219.03,982.477 1223.29,978.213 1223.29,972.96L1223.29,928.479Z" style="fill:rgb(64,200,43);stroke-width:0.65px;stroke-linecap:round;stroke:black;"/>
            <g transform="matrix(1.33865,0,0,1.33865,-401.703,-321.167)">
                <g id="wifi-rechts" transform="matrix(-0.704681,3.9924e-16,-3.9924e-16,-0.704681,2013.69,1606.97)">
                    <g transform="matrix(-1.41908,-8.03987e-16,8.03987e-16,-1.41908,2871.77,2280.43)">
                        <path d="M1202.71,930.356L1207.17,928.522C1210.69,933.877 1210.77,939.326 1207.17,945.148C1207.17,945.148 1202.71,943.355 1202.71,943.355C1205.52,938.803 1205.45,934.543 1202.71,930.356" style="fill:rgb(252,252,252);stroke-width:0.49px;stroke-linecap:round;stroke:rgb(252,252,252);"/>
                    </g>
                    <g transform="matrix(1.22273,0,0,1.13864,-262.476,-131.913)">
                        <path d="M1165.04,941.731C1161.05,948.191 1161.14,954.236 1165.04,960.178" style="fill:none;stroke-width:0.58px;stroke-linecap:round;stroke:black;"/>
                    </g>
                    <g transform="matrix(1.28019,0,0,1.27899,-332.767,-265.276)">
                        <path d="M1165.04,941.731C1161.05,948.191 1161.14,954.236 1165.04,960.178" style="fill:none;stroke-width:0.54px;stroke-linecap:round;stroke:black;"/>
                    </g>
                    <path d="M1165.04,941.731C1161.05,948.191 1161.14,954.236 1165.04,960.178" style="fill:none;stroke-width:0.69px;stroke-linecap:round;stroke:black;"/>
                </g>
                <g id="wifi-rechts1" transform="matrix(0.704681,0,0,0.704681,363.276,266.694)">
                    <g transform="matrix(-1.41908,-8.03987e-16,8.03987e-16,-1.41908,2871.77,2280.43)">
                        <path d="M1202.71,930.356L1207.17,928.522C1210.69,933.877 1210.77,939.326 1207.17,945.148C1207.17,945.148 1202.71,943.355 1202.71,943.355C1205.52,938.803 1205.45,934.543 1202.71,930.356" style="fill:rgb(252,252,252);stroke-width:0.49px;stroke-linecap:round;stroke:rgb(252,252,252);"/>
                    </g>
                    <g transform="matrix(1.22273,0,0,1.13864,-262.476,-131.913)">
                        <path d="M1165.04,941.731C1161.05,948.191 1161.14,954.236 1165.04,960.178" style="fill:none;stroke-width:0.58px;stroke-linecap:round;stroke:black;"/>
                    </g>
                    <g transform="matrix(1.28019,0,0,1.27899,-332.767,-265.276)">
                        <path d="M1165.04,941.731C1161.05,948.191 1161.14,954.236 1165.04,960.178" style="fill:none;stroke-width:0.54px;stroke-linecap:round;stroke:black;"/>
                    </g>
                    <path d="M1165.04,941.731C1161.05,948.191 1161.14,954.236 1165.04,960.178" style="fill:none;stroke-width:0.69px;stroke-linecap:round;stroke:black;"/>
                </g>
                <path d="M1204.85,962.346C1204.85,960.693 1203.51,959.351 1201.86,959.351L1169.69,959.351C1168.04,959.351 1166.7,960.693 1166.7,962.346L1166.7,968.334C1166.7,969.986 1168.04,971.328 1169.69,971.328L1201.86,971.328C1203.51,971.328 1204.85,969.986 1204.85,968.334L1204.85,962.346Z" style="fill:black;stroke-width:0.37px;stroke:black;"/>
                <g transform="matrix(1,0,0,1,-28.9811,6.78968)">
                    <g transform="matrix(1.15,0,0,0.95,-179.389,47.5169)">
                        <path d="M1196.92,950.338L1196.06,941.695L1197.8,941.695L1198,944.994C1198.02,945.283 1198.04,945.601 1198.05,945.946C1198.06,946.292 1198.08,946.791 1198.1,947.443L1198.16,947.443C1198.19,947.057 1198.21,946.694 1198.24,946.356C1198.27,946.019 1198.3,945.734 1198.33,945.504L1198.78,941.695L1200.61,941.695L1200.97,945.773C1200.97,945.84 1200.99,946.064 1201.02,946.444C1201.05,946.825 1201.08,947.158 1201.1,947.443L1201.16,947.443C1201.17,946.967 1201.19,946.525 1201.21,946.119C1201.24,945.713 1201.26,945.32 1201.29,944.941L1201.56,941.695L1203.01,941.695L1202.07,950.338L1200.08,950.338L1199.65,945.703C1199.63,945.539 1199.62,945.349 1199.6,945.132C1199.59,944.915 1199.58,944.635 1199.57,944.291L1199.5,944.291L1198.89,950.338L1196.92,950.338Z" style="fill:white;fill-rule:nonzero;stroke-width:0.28px;stroke:rgb(49,49,49);"/>
                        <path d="M1203.44,950.338L1203.44,943.424L1204.96,943.424L1204.96,950.338L1203.44,950.338ZM1203.44,943.008L1203.44,941.695L1204.96,941.695L1204.96,943.008L1203.44,943.008Z" style="fill:white;fill-rule:nonzero;stroke-width:0.28px;stroke:rgb(49,49,49);"/>
                        <path d="M1205.47,950.338L1205.47,943.424L1206.97,943.424L1206.97,944.004L1206.99,944.004C1207.12,943.762 1207.27,943.583 1207.45,943.468C1207.63,943.353 1207.84,943.295 1208.08,943.295C1208.41,943.295 1208.66,943.394 1208.83,943.591C1208.99,943.788 1209.08,944.082 1209.08,944.473L1209.08,947.145L1207.54,947.145L1207.54,944.977C1207.54,944.816 1207.52,944.708 1207.48,944.651C1207.44,944.595 1207.37,944.566 1207.26,944.566C1207.17,944.566 1207.1,944.6 1207.06,944.666C1207.01,944.732 1206.99,944.836 1206.99,944.977L1206.99,950.338L1205.47,950.338Z" style="fill:white;fill-rule:nonzero;stroke-width:0.28px;stroke:rgb(49,49,49);"/>
                        <path d="M1211.16,944.76L1211.16,946.066L1211.71,946.066L1211.71,944.76C1211.71,944.607 1211.69,944.499 1211.65,944.435C1211.6,944.37 1211.53,944.338 1211.44,944.338C1211.34,944.338 1211.27,944.37 1211.23,944.435C1211.18,944.499 1211.16,944.607 1211.16,944.76ZM1211.16,948.943C1211.16,949.096 1211.18,949.204 1211.23,949.269C1211.27,949.333 1211.34,949.365 1211.44,949.365C1211.53,949.365 1211.6,949.333 1211.65,949.269C1211.69,949.204 1211.71,949.096 1211.71,948.943L1211.71,947.648L1213.24,947.648L1213.24,948.932C1213.24,949.432 1213.08,949.819 1212.76,950.095C1212.45,950.37 1212.01,950.508 1211.44,950.508C1210.79,950.508 1210.33,950.359 1210.05,950.063C1209.78,949.766 1209.64,949.258 1209.64,948.539L1209.64,945.229C1209.64,944.502 1209.77,943.992 1210.05,943.699C1210.32,943.406 1210.78,943.26 1211.42,943.26C1211.99,943.26 1212.43,943.392 1212.76,943.655C1213.08,943.919 1213.24,944.283 1213.24,944.748L1213.24,947.098L1211.16,947.098L1211.16,948.943Z" style="fill:white;fill-rule:nonzero;stroke-width:0.28px;stroke:rgb(49,49,49);"/>
                    </g>
                    <g transform="matrix(0.55,0,0,0.95,547.242,47.5169)">
                        <rect x="1216.72" y="928.731" width="3.809" height="21.606" style="fill:white;fill-rule:nonzero;stroke-width:0.38px;stroke:rgb(49,49,49);"/>
                    </g>
                    <g transform="matrix(1.15,0,0,0.95,-182.832,47.5169)">
                        <path d="M1220.63,944.76L1220.63,946.066L1221.18,946.066L1221.18,944.76C1221.18,944.607 1221.16,944.499 1221.12,944.435C1221.08,944.37 1221.01,944.338 1220.91,944.338C1220.81,944.338 1220.74,944.37 1220.7,944.435C1220.65,944.499 1220.63,944.607 1220.63,944.76ZM1220.63,948.943C1220.63,949.096 1220.65,949.204 1220.7,949.269C1220.74,949.333 1220.81,949.365 1220.91,949.365C1221.01,949.365 1221.08,949.333 1221.12,949.269C1221.16,949.204 1221.18,949.096 1221.18,948.943L1221.18,947.648L1222.71,947.648L1222.71,948.932C1222.71,949.432 1222.55,949.819 1222.24,950.095C1221.92,950.37 1221.48,950.508 1220.91,950.508C1220.27,950.508 1219.8,950.359 1219.53,950.063C1219.25,949.766 1219.11,949.258 1219.11,948.539L1219.11,945.229C1219.11,944.502 1219.25,943.992 1219.52,943.699C1219.79,943.406 1220.25,943.26 1220.9,943.26C1221.46,943.26 1221.91,943.392 1222.23,943.655C1222.55,943.919 1222.71,944.283 1222.71,944.748L1222.71,947.098L1220.63,947.098L1220.63,948.943Z" style="fill:white;fill-rule:nonzero;stroke-width:0.28px;stroke:rgb(49,49,49);"/>
                        <path d="M1226.75,948.908C1226.75,949.424 1226.6,949.819 1226.29,950.095C1225.98,950.37 1225.53,950.508 1224.95,950.508C1224.38,950.508 1223.94,950.369 1223.62,950.092C1223.3,949.815 1223.14,949.428 1223.14,948.932L1223.14,947.648L1224.68,947.648L1224.68,948.943C1224.68,949.096 1224.7,949.204 1224.74,949.269C1224.78,949.333 1224.86,949.365 1224.95,949.365C1225.05,949.365 1225.12,949.333 1225.16,949.269C1225.21,949.204 1225.23,949.096 1225.23,948.943L1225.23,948.322C1225.23,948.041 1224.97,947.697 1224.47,947.291C1224.36,947.205 1224.27,947.137 1224.21,947.086L1224.2,947.074C1223.49,946.492 1223.14,945.908 1223.14,945.322L1223.14,944.707C1223.14,944.25 1223.3,943.895 1223.62,943.641C1223.93,943.387 1224.37,943.26 1224.94,943.26C1225.52,943.26 1225.96,943.393 1226.28,943.658C1226.59,943.924 1226.75,944.299 1226.75,944.783L1226.75,945.838L1225.23,945.838L1225.23,944.76C1225.23,944.607 1225.21,944.499 1225.16,944.435C1225.12,944.37 1225.05,944.338 1224.95,944.338C1224.86,944.338 1224.78,944.37 1224.74,944.435C1224.7,944.499 1224.68,944.607 1224.68,944.76L1224.68,945.129C1224.68,945.441 1224.92,945.785 1225.41,946.16C1225.52,946.246 1225.61,946.315 1225.67,946.365C1226.15,946.752 1226.45,947.054 1226.57,947.271C1226.69,947.487 1226.75,947.77 1226.75,948.117L1226.75,948.908Z" style="fill:white;fill-rule:nonzero;stroke-width:0.28px;stroke:rgb(49,49,49);"/>
                        <path d="M1230.75,948.908C1230.75,949.424 1230.59,949.819 1230.28,950.095C1229.98,950.37 1229.53,950.508 1228.95,950.508C1228.38,950.508 1227.93,950.369 1227.62,950.092C1227.3,949.815 1227.14,949.428 1227.14,948.932L1227.14,947.648L1228.67,947.648L1228.67,948.943C1228.67,949.096 1228.69,949.204 1228.74,949.269C1228.78,949.333 1228.85,949.365 1228.95,949.365C1229.05,949.365 1229.12,949.333 1229.16,949.269C1229.2,949.204 1229.22,949.096 1229.22,948.943L1229.22,948.322C1229.22,948.041 1228.97,947.697 1228.46,947.291C1228.35,947.205 1228.27,947.137 1228.2,947.086L1228.19,947.074C1227.49,946.492 1227.14,945.908 1227.14,945.322L1227.14,944.707C1227.14,944.25 1227.3,943.895 1227.61,943.641C1227.93,943.387 1228.37,943.26 1228.94,943.26C1229.51,943.26 1229.96,943.393 1230.27,943.658C1230.59,943.924 1230.75,944.299 1230.75,944.783L1230.75,945.838L1229.22,945.838L1229.22,944.76C1229.22,944.607 1229.2,944.499 1229.16,944.435C1229.12,944.37 1229.05,944.338 1228.95,944.338C1228.85,944.338 1228.78,944.37 1228.74,944.435C1228.69,944.499 1228.67,944.607 1228.67,944.76L1228.67,945.129C1228.67,945.441 1228.92,945.785 1229.4,946.16C1229.52,946.246 1229.61,946.315 1229.67,946.365C1230.15,946.752 1230.45,947.054 1230.57,947.271C1230.69,947.487 1230.75,947.77 1230.75,948.117L1230.75,948.908Z" style="fill:white;fill-rule:nonzero;stroke-width:0.28px;stroke:rgb(49,49,49);"/>
                    </g>
                    <g transform="matrix(1.15,0,0,0.95,-180.296,48.1169)">
                        <path d="M1202.2,955.74C1202.2,954.936 1202.36,954.362 1202.67,954.021C1202.99,953.679 1203.5,953.508 1204.22,953.508C1204.94,953.508 1205.45,953.677 1205.77,954.015C1206.08,954.353 1206.24,954.928 1206.24,955.74L1206.24,960.299C1206.24,961.107 1206.08,961.682 1205.77,962.022C1205.46,962.361 1204.94,962.531 1204.22,962.531C1203.5,962.531 1202.98,962.361 1202.67,962.022C1202.36,961.682 1202.2,961.107 1202.2,960.299L1202.2,955.74ZM1203.93,955.16L1203.93,960.803C1203.93,960.955 1203.96,961.064 1204,961.128C1204.05,961.192 1204.12,961.225 1204.22,961.225C1204.33,961.225 1204.41,961.191 1204.45,961.125C1204.5,961.059 1204.52,960.951 1204.52,960.803L1204.52,955.16C1204.52,955.008 1204.5,954.9 1204.45,954.838C1204.41,954.775 1204.33,954.744 1204.22,954.744C1204.12,954.744 1204.05,954.777 1204,954.844C1203.96,954.91 1203.93,955.016 1203.93,955.16Z" style="fill:white;fill-rule:nonzero;stroke-width:0.28px;stroke:rgb(49,49,49);"/>
                        <path d="M1206.73,962.338L1206.73,955.424L1208.23,955.424L1208.23,956.004L1208.25,956.004C1208.38,955.762 1208.54,955.583 1208.71,955.468C1208.89,955.353 1209.1,955.295 1209.34,955.295C1209.67,955.295 1209.92,955.394 1210.09,955.591C1210.26,955.788 1210.34,956.082 1210.34,956.473L1210.34,962.338L1208.8,962.338L1208.8,956.977C1208.8,956.816 1208.78,956.708 1208.74,956.651C1208.7,956.595 1208.63,956.566 1208.53,956.566C1208.43,956.566 1208.36,956.6 1208.32,956.666C1208.27,956.732 1208.25,956.836 1208.25,956.977L1208.25,962.338L1206.73,962.338Z" style="fill:white;fill-rule:nonzero;stroke-width:0.28px;stroke:rgb(49,49,49);"/>
                        <path d="M1211.72,963.451L1210.83,963.451L1212.73,953.508L1213.61,953.508L1211.72,963.451Z" style="fill:white;fill-rule:nonzero;stroke-width:0.28px;stroke:rgb(49,49,49);"/>
                        <path d="M1214.13,955.74C1214.13,954.936 1214.29,954.362 1214.6,954.021C1214.91,953.679 1215.43,953.508 1216.14,953.508C1216.86,953.508 1217.38,953.677 1217.69,954.015C1218,954.353 1218.16,954.928 1218.16,955.74L1218.16,960.299C1218.16,961.107 1218.01,961.682 1217.69,962.022C1217.38,962.361 1216.87,962.531 1216.14,962.531C1215.42,962.531 1214.9,962.361 1214.6,962.022C1214.28,961.682 1214.13,961.107 1214.13,960.299L1214.13,955.74ZM1215.86,955.16L1215.86,960.803C1215.86,960.955 1215.88,961.064 1215.92,961.128C1215.97,961.192 1216.04,961.225 1216.14,961.225C1216.25,961.225 1216.33,961.191 1216.38,961.125C1216.42,961.059 1216.44,960.951 1216.44,960.803L1216.44,955.16C1216.44,955.008 1216.42,954.9 1216.38,954.838C1216.33,954.775 1216.25,954.744 1216.14,954.744C1216.04,954.744 1215.97,954.777 1215.92,954.844C1215.88,954.91 1215.86,955.016 1215.86,955.16Z" style="fill:white;fill-rule:nonzero;stroke-width:0.28px;stroke:rgb(49,49,49);"/>
                        <path d="M1218.89,962.338L1218.89,956.52L1218.52,956.52L1218.52,955.424L1218.89,955.424L1218.89,954.768C1218.89,954.432 1218.99,954.169 1219.2,953.98C1219.4,953.79 1219.68,953.695 1220.05,953.695L1220.91,953.695L1220.91,954.779C1220.73,954.779 1220.6,954.8 1220.53,954.841C1220.45,954.882 1220.42,954.953 1220.42,955.055L1220.42,955.424L1220.91,955.424L1220.91,956.52L1220.42,956.52L1220.42,962.338L1218.89,962.338Z" style="fill:white;fill-rule:nonzero;stroke-width:0.28px;stroke:rgb(49,49,49);"/>
                        <path d="M1221.42,962.338L1221.42,956.52L1221.05,956.52L1221.05,955.424L1221.42,955.424L1221.42,954.768C1221.42,954.432 1221.53,954.169 1221.73,953.98C1221.93,953.79 1222.21,953.695 1222.58,953.695L1223.44,953.695L1223.44,954.779C1223.26,954.779 1223.13,954.8 1223.06,954.841C1222.98,954.882 1222.95,954.953 1222.95,955.055L1222.95,955.424L1223.44,955.424L1223.44,956.52L1222.95,956.52L1222.95,962.338L1221.42,962.338Z" style="fill:white;fill-rule:nonzero;stroke-width:0.28px;stroke:rgb(49,49,49);"/>
                    </g>
                </g>
            </g>
            <g id="ON-off" transform="matrix(1.17447,0,0,1.17447,753.45,-223.957)">
                <g transform="matrix(1,0,0,1,-0.627516,0.355553)">
                    <ellipse cx="321.797" cy="999.854" rx="16.795" ry="16.434" style="fill:rgb(72,72,74);stroke-width:0.85px;stroke-linecap:round;stroke:black;"/>
                </g>
                <g transform="matrix(0.766109,0,0,0.766109,74.7377,234.386)">
                    <ellipse cx="321.797" cy="999.854" rx="16.795" ry="16.434" style="fill:rgb(72,72,74);stroke-width:2.22px;stroke-linecap:round;stroke:black;"/>
                </g>
                <g transform="matrix(1,0,0,1,-0.0942289,0.933291)">
                    <path d="M321.381,992.932L321.381,1006" style="fill:none;stroke-width:2.98px;stroke-linecap:round;stroke:black;"/>
                </g>
            </g>
        </g>
        <path d="M97.426,852.496C96.783,841.411 1230.34,844.994 1231.06,852.496" style="fill:none;stroke-width:3px;stroke-linecap:round;stroke:black;"/>
    </g>
    <g id="Front">
        <g transform="matrix(1.00334,0,0,1.02921,-2.41872,-29.4677)">
            <path d="M1077.9,918.634C1077.9,899.173 1061.7,883.372 1041.73,883.372L288.417,883.372C268.454,883.372 252.246,899.173 252.246,918.634L252.246,973.432C252.246,992.893 268.454,1008.69 288.417,1008.69L1041.73,1008.69C1061.7,1008.69 1077.9,992.893 1077.9,973.432L1077.9,918.634Z" style="fill:rgb(51,51,51);"/>
        </g>
        <path d="M1079.17,966.72C1079.17,956.578 1070.94,948.343 1060.8,948.343L269.032,948.343C258.89,948.343 250.656,956.578 250.656,966.72L250.656,1003.47C250.656,1013.61 258.89,1021.85 269.032,1021.85L1060.8,1021.85C1070.94,1021.85 1079.17,1013.61 1079.17,1003.47L1079.17,966.72Z" style="fill:rgb(51,51,51);"/>
        <g transform="matrix(1,0,0,1.76392,0,-718.176)">
            <path d="M936.461,944.183C936.461,941.941 933.25,940.121 929.296,940.121L405.838,940.121C401.883,940.121 398.673,941.941 398.673,944.183L398.673,946.328C398.673,948.57 401.883,950.391 405.838,950.391L929.296,950.391C933.25,950.391 936.461,948.57 936.461,946.328L936.461,944.183Z" style="fill:rgb(54,129,35);stroke-width:0.7px;stroke:black;"/>
        </g>
        <g>
            <circle cx="433.52" cy="948.693" r="6.161" style="fill:rgb(175,239,159);stroke-width:0.5px;stroke:black;"/>
            <g transform="matrix(1,0,0,1,73.6398,0)">
                <circle cx="433.52" cy="948.693" r="6.161" style="fill:rgb(175,239,159);stroke-width:0.5px;stroke:black;"/>
            </g>
            <g transform="matrix(1,0,0,1,142.378,0)">
                <circle cx="433.52" cy="948.693" r="6.161" style="fill:rgb(175,239,159);stroke-width:0.5px;stroke:black;"/>
            </g>
            <g transform="matrix(1,0,0,1,205.911,0)">
                <circle cx="433.52" cy="948.693" r="6.161" style="fill:rgb(175,239,159);stroke-width:0.5px;stroke:black;"/>
            </g>
            <g transform="matrix(1,0,0,1,350.331,0)">
                <circle cx="433.52" cy="948.693" r="6.161" style="fill:rgb(175,239,159);stroke-width:0.5px;stroke:black;"/>
            </g>
            <g transform="matrix(1,0,0,1,275.44,0)">
                <circle cx="433.52" cy="948.693" r="6.161" style="fill:rgb(175,239,159);stroke-width:0.5px;stroke:black;"/>
            </g>
            <g transform="matrix(1,0,0,1,315.425,0)">
                <circle cx="433.52" cy="948.693" r="6.161" style="fill:rgb(175,239,159);stroke-width:0.5px;stroke:black;"/>
            </g>
            <g transform="matrix(1,0,0,1,382.409,0)">
                <circle cx="433.52" cy="948.693" r="6.161" style="fill:rgb(175,239,159);stroke-width:0.5px;stroke:black;"/>
            </g>
            <g transform="matrix(1,0,0,1,454.823,0)">
                <circle cx="433.52" cy="948.693" r="6.161" style="fill:rgb(175,239,159);stroke-width:0.5px;stroke:black;"/>
            </g>
        </g>
        <g transform="matrix(1.00077,0,0,0.844315,1.86022,149.748)">
            <path d="M962.231,946.943C962.231,938.71 956.591,932.026 949.645,932.026L377.334,932.026C370.388,932.026 364.749,938.71 364.749,946.943C364.749,955.177 370.388,961.861 377.334,961.861L949.645,961.861C956.591,961.861 962.231,955.177 962.231,946.943Z" style="fill:none;stroke-width:0.54px;stroke:black;"/>
        </g>
    </g>
    <g id="Beschriftung">
        <g transform="matrix(0.89,0,0,1,97.9836,3.91336)">
            <path d="M923.721,979.725L923.721,969.624L919.948,969.624L919.948,968.272L929.026,968.272L929.026,969.624L925.237,969.624L925.237,979.725L923.721,979.725Z" style="fill:rgb(252,252,252);fill-rule:nonzero;"/>
            <path d="M930.518,979.725L930.518,968.272L932.034,968.272L932.034,978.374L937.675,978.374L937.675,979.725L930.518,979.725Z" style="fill:rgb(252,252,252);fill-rule:nonzero;"/>
            <rect x="938.753" y="974.874" width="4.32" height="1.414" style="fill:rgb(252,252,252);fill-rule:nonzero;"/>
            <path d="M946.807,979.725L943.768,968.272L945.323,968.272L947.065,975.78C947.253,976.566 947.414,977.347 947.55,978.124C947.841,976.9 948.013,976.194 948.065,976.006L950.245,968.272L952.073,968.272L953.714,974.069C954.125,975.506 954.422,976.858 954.604,978.124C954.75,977.4 954.94,976.569 955.175,975.631L956.971,968.272L958.495,968.272L955.354,979.725L953.893,979.725L951.479,970.999C951.276,970.269 951.156,969.821 951.12,969.655C951,970.181 950.888,970.629 950.784,970.999L948.354,979.725L946.807,979.725Z" style="fill:rgb(252,252,252);fill-rule:nonzero;"/>
            <path d="M959.932,979.725L959.932,968.272L965.011,968.272C966.031,968.272 966.807,968.375 967.339,968.581C967.87,968.786 968.294,969.15 968.612,969.67C968.93,970.191 969.089,970.767 969.089,971.397C969.089,972.209 968.826,972.894 968.3,973.452C967.774,974.009 966.961,974.363 965.862,974.514C966.263,974.707 966.568,974.897 966.776,975.084C967.219,975.491 967.638,975.999 968.034,976.608L970.026,979.725L968.12,979.725L966.604,977.342C966.162,976.655 965.797,976.129 965.511,975.764C965.224,975.4 964.968,975.144 964.741,974.999C964.514,974.853 964.284,974.751 964.05,974.694C963.878,974.657 963.596,974.639 963.206,974.639L961.448,974.639L961.448,979.725L959.932,979.725ZM961.448,973.327L964.706,973.327C965.399,973.327 965.94,973.255 966.331,973.112C966.721,972.969 967.018,972.739 967.221,972.424C967.425,972.109 967.526,971.767 967.526,971.397C967.526,970.855 967.33,970.41 966.936,970.061C966.543,969.712 965.922,969.538 965.073,969.538L961.448,969.538L961.448,973.327Z" style="fill:rgb(252,252,252);fill-rule:nonzero;"/>
            <path d="M971.104,977.077L972.456,976.952C972.57,977.587 972.789,978.048 973.112,978.334C973.435,978.621 973.849,978.764 974.354,978.764C974.787,978.764 975.165,978.665 975.491,978.467C975.817,978.269 976.083,978.005 976.292,977.674C976.5,977.344 976.675,976.897 976.815,976.334C976.956,975.772 977.026,975.199 977.026,974.616C977.026,974.553 977.024,974.459 977.018,974.334C976.737,974.782 976.353,975.146 975.866,975.424C975.379,975.703 974.852,975.842 974.284,975.842C973.336,975.842 972.534,975.499 971.878,974.811C971.221,974.124 970.893,973.217 970.893,972.092C970.893,970.931 971.236,969.996 971.921,969.288C972.606,968.579 973.464,968.225 974.495,968.225C975.24,968.225 975.921,968.426 976.538,968.827C977.155,969.228 977.624,969.799 977.944,970.541C978.264,971.284 978.425,972.358 978.425,973.764C978.425,975.228 978.266,976.393 977.948,977.26C977.63,978.127 977.158,978.788 976.53,979.241C975.902,979.694 975.167,979.92 974.323,979.92C973.427,979.92 972.695,979.672 972.128,979.174C971.56,978.677 971.219,977.978 971.104,977.077ZM976.862,972.022C976.862,971.215 976.647,970.574 976.218,970.1C975.788,969.626 975.271,969.389 974.667,969.389C974.042,969.389 973.498,969.644 973.034,970.155C972.57,970.665 972.339,971.327 972.339,972.139C972.339,972.868 972.559,973.461 972.999,973.916C973.439,974.372 973.982,974.6 974.628,974.6C975.279,974.6 975.814,974.372 976.233,973.916C976.652,973.461 976.862,972.829 976.862,972.022Z" style="fill:rgb(252,252,252);fill-rule:nonzero;"/>
            <path d="M984.3,979.725L984.3,976.983L979.331,976.983L979.331,975.694L984.557,968.272L985.706,968.272L985.706,975.694L987.253,975.694L987.253,976.983L985.706,976.983L985.706,979.725L984.3,979.725ZM984.3,975.694L984.3,970.53L980.714,975.694L984.3,975.694Z" style="fill:rgb(252,252,252);fill-rule:nonzero;"/>
            <path d="M988.69,974.077C988.69,972.722 988.83,971.633 989.108,970.807C989.387,969.982 989.801,969.345 990.35,968.897C990.9,968.449 991.591,968.225 992.425,968.225C993.039,968.225 993.578,968.349 994.042,968.596C994.505,968.844 994.888,969.2 995.19,969.666C995.492,970.133 995.729,970.7 995.901,971.37C996.073,972.039 996.159,972.941 996.159,974.077C996.159,975.42 996.021,976.505 995.745,977.331C995.469,978.156 995.056,978.794 994.507,979.245C993.957,979.695 993.263,979.92 992.425,979.92C991.32,979.92 990.453,979.525 989.823,978.733C989.068,977.78 988.69,976.228 988.69,974.077ZM990.136,974.077C990.136,975.957 990.356,977.208 990.796,977.831C991.236,978.453 991.779,978.764 992.425,978.764C993.07,978.764 993.613,978.452 994.053,977.827C994.494,977.202 994.714,975.952 994.714,974.077C994.714,972.191 994.494,970.939 994.053,970.319C993.613,969.699 993.065,969.389 992.409,969.389C991.763,969.389 991.248,969.663 990.862,970.209C990.378,970.907 990.136,972.196 990.136,974.077Z" style="fill:rgb(252,252,252);fill-rule:nonzero;"/>
            <path d="M998.143,979.725L998.143,968.272L999.698,968.272L1005.71,977.264L1005.71,968.272L1007.17,968.272L1007.17,979.725L1005.61,979.725L999.596,970.725L999.596,979.725L998.143,979.725Z" style="fill:rgb(252,252,252);fill-rule:nonzero;"/>
        </g>
        <g transform="matrix(0.89,0,0,1,-504.71,3.57615)">
            <path d="M920.245,976.702L921.651,976.514C921.813,977.311 922.087,977.885 922.475,978.237C922.863,978.588 923.336,978.764 923.893,978.764C924.555,978.764 925.113,978.535 925.569,978.077C926.025,977.618 926.253,977.051 926.253,976.374C926.253,975.728 926.042,975.195 925.62,974.776C925.198,974.357 924.662,974.147 924.011,974.147C923.745,974.147 923.414,974.199 923.018,974.303L923.175,973.069C923.268,973.079 923.344,973.084 923.401,973.084C924,973.084 924.539,972.928 925.018,972.616C925.498,972.303 925.737,971.821 925.737,971.17C925.737,970.655 925.563,970.228 925.214,969.889C924.865,969.551 924.414,969.381 923.862,969.381C923.315,969.381 922.859,969.553 922.495,969.897C922.13,970.241 921.896,970.756 921.792,971.444L920.386,971.194C920.557,970.251 920.948,969.521 921.557,969.002C922.167,968.484 922.925,968.225 923.831,968.225C924.456,968.225 925.031,968.359 925.557,968.627C926.083,968.896 926.486,969.262 926.764,969.725C927.043,970.189 927.182,970.681 927.182,971.202C927.182,971.696 927.05,972.147 926.784,972.553C926.518,972.959 926.125,973.282 925.604,973.522C926.281,973.678 926.807,974.002 927.182,974.495C927.557,974.987 927.745,975.603 927.745,976.342C927.745,977.342 927.38,978.19 926.651,978.885C925.922,979.581 925,979.928 923.886,979.928C922.88,979.928 922.046,979.629 921.382,979.03C920.718,978.431 920.339,977.655 920.245,976.702Z" style="fill:rgb(252,252,252);fill-rule:nonzero;"/>
            <path d="M929.136,974.077C929.136,972.722 929.275,971.633 929.553,970.807C929.832,969.982 930.246,969.345 930.796,968.897C931.345,968.449 932.037,968.225 932.87,968.225C933.484,968.225 934.024,968.349 934.487,968.596C934.951,968.844 935.333,969.2 935.636,969.666C935.938,970.133 936.175,970.7 936.346,971.37C936.518,972.039 936.604,972.941 936.604,974.077C936.604,975.42 936.466,976.505 936.19,977.331C935.914,978.156 935.501,978.794 934.952,979.245C934.402,979.695 933.708,979.92 932.87,979.92C931.766,979.92 930.899,979.525 930.268,978.733C929.513,977.78 929.136,976.228 929.136,974.077ZM930.581,974.077C930.581,975.957 930.801,977.208 931.241,977.831C931.681,978.453 932.224,978.764 932.87,978.764C933.516,978.764 934.059,978.452 934.499,977.827C934.939,977.202 935.159,975.952 935.159,974.077C935.159,972.191 934.939,970.939 934.499,970.319C934.059,969.699 933.511,969.389 932.854,969.389C932.208,969.389 931.693,969.663 931.307,970.209C930.823,970.907 930.581,972.196 930.581,974.077Z" style="fill:rgb(252,252,252);fill-rule:nonzero;"/>
            <path d="M938.034,974.077C938.034,972.722 938.173,971.633 938.452,970.807C938.731,969.982 939.145,969.345 939.694,968.897C940.244,968.449 940.935,968.225 941.768,968.225C942.383,968.225 942.922,968.349 943.386,968.596C943.849,968.844 944.232,969.2 944.534,969.666C944.836,970.133 945.073,970.7 945.245,971.37C945.417,972.039 945.503,972.941 945.503,974.077C945.503,975.42 945.365,976.505 945.089,977.331C944.813,978.156 944.4,978.794 943.85,979.245C943.301,979.695 942.607,979.92 941.768,979.92C940.664,979.92 939.797,979.525 939.167,978.733C938.412,977.78 938.034,976.228 938.034,974.077ZM939.479,974.077C939.479,975.957 939.699,977.208 940.139,977.831C940.58,978.453 941.123,978.764 941.768,978.764C942.414,978.764 942.957,978.452 943.397,977.827C943.837,977.202 944.057,975.952 944.057,974.077C944.057,972.191 943.837,970.939 943.397,970.319C942.957,969.699 942.409,969.389 941.753,969.389C941.107,969.389 940.591,969.663 940.206,970.209C939.721,970.907 939.479,972.196 939.479,974.077Z" style="fill:rgb(252,252,252);fill-rule:nonzero;"/>
            <path d="M947.456,979.725L947.456,968.272L949.737,968.272L952.448,976.381C952.698,977.137 952.88,977.702 952.995,978.077C953.125,977.66 953.328,977.048 953.604,976.241L956.346,968.272L958.386,968.272L958.386,979.725L956.925,979.725L956.925,970.139L953.596,979.725L952.229,979.725L948.917,969.975L948.917,979.725L947.456,979.725Z" style="fill:rgb(252,252,252);fill-rule:nonzero;"/>
            <path d="M961.948,979.725L960.643,979.725L960.643,968.272L962.05,968.272L962.05,972.358C962.643,971.613 963.401,971.241 964.323,971.241C964.833,971.241 965.317,971.344 965.772,971.549C966.228,971.755 966.603,972.044 966.897,972.416C967.192,972.789 967.422,973.238 967.589,973.764C967.755,974.29 967.839,974.853 967.839,975.452C967.839,976.874 967.487,977.972 966.784,978.749C966.081,979.525 965.237,979.913 964.253,979.913C963.274,979.913 962.505,979.504 961.948,978.686L961.948,979.725ZM961.932,975.514C961.932,976.509 962.068,977.228 962.339,977.67C962.781,978.394 963.38,978.756 964.136,978.756C964.75,978.756 965.281,978.489 965.729,977.956C966.177,977.422 966.401,976.626 966.401,975.569C966.401,974.486 966.186,973.686 965.757,973.17C965.327,972.655 964.807,972.397 964.198,972.397C963.583,972.397 963.052,972.664 962.604,973.198C962.156,973.732 961.932,974.504 961.932,975.514Z" style="fill:rgb(252,252,252);fill-rule:nonzero;"/>
            <path d="M969.55,982.905L969.55,971.428L970.831,971.428L970.831,972.506C971.133,972.084 971.474,971.768 971.854,971.557C972.234,971.346 972.695,971.241 973.237,971.241C973.945,971.241 974.57,971.423 975.112,971.788C975.654,972.152 976.063,972.666 976.339,973.331C976.615,973.995 976.753,974.722 976.753,975.514C976.753,976.363 976.6,977.127 976.296,977.807C975.991,978.487 975.548,979.008 974.968,979.37C974.387,979.732 973.776,979.913 973.136,979.913C972.667,979.913 972.246,979.814 971.874,979.616C971.501,979.418 971.195,979.168 970.956,978.866L970.956,982.905L969.55,982.905ZM970.823,975.624C970.823,976.691 971.039,977.48 971.471,977.991C971.904,978.501 972.427,978.756 973.042,978.756C973.667,978.756 974.202,978.492 974.647,977.963C975.093,977.435 975.315,976.616 975.315,975.506C975.315,974.449 975.098,973.657 974.663,973.131C974.228,972.605 973.708,972.342 973.104,972.342C972.505,972.342 971.975,972.622 971.514,973.182C971.053,973.742 970.823,974.556 970.823,975.624Z" style="fill:rgb(252,252,252);fill-rule:nonzero;"/>
            <path d="M977.886,977.249L979.276,977.03C979.354,977.587 979.572,978.014 979.928,978.311C980.285,978.608 980.784,978.756 981.425,978.756C982.07,978.756 982.55,978.625 982.862,978.362C983.175,978.099 983.331,977.79 983.331,977.436C983.331,977.118 983.193,976.868 982.917,976.686C982.724,976.561 982.245,976.402 981.479,976.209C980.448,975.949 979.733,975.724 979.335,975.534C978.936,975.344 978.634,975.081 978.428,974.745C978.223,974.409 978.12,974.038 978.12,973.631C978.12,973.262 978.205,972.919 978.374,972.604C978.543,972.289 978.774,972.027 979.065,971.819C979.284,971.657 979.582,971.521 979.96,971.409C980.337,971.297 980.742,971.241 981.175,971.241C981.826,971.241 982.397,971.334 982.889,971.522C983.382,971.709 983.745,971.963 983.979,972.284C984.214,972.604 984.375,973.032 984.464,973.569L983.089,973.756C983.026,973.329 982.845,972.996 982.546,972.756C982.246,972.517 981.823,972.397 981.276,972.397C980.63,972.397 980.169,972.504 979.893,972.717C979.617,972.931 979.479,973.181 979.479,973.467C979.479,973.65 979.537,973.814 979.651,973.959C979.766,974.111 979.945,974.236 980.19,974.334C980.331,974.387 980.745,974.506 981.432,974.694C982.427,974.959 983.121,975.177 983.514,975.346C983.908,975.515 984.216,975.762 984.44,976.084C984.664,976.407 984.776,976.808 984.776,977.288C984.776,977.756 984.639,978.198 984.366,978.612C984.093,979.026 983.698,979.346 983.182,979.573C982.667,979.799 982.083,979.913 981.432,979.913C980.354,979.913 979.533,979.689 978.968,979.241C978.402,978.793 978.042,978.129 977.886,977.249Z" style="fill:rgb(252,252,252);fill-rule:nonzero;"/>
            <path d="M993.073,979.725L990.034,968.272L991.589,968.272L993.331,975.78C993.518,976.566 993.68,977.347 993.815,978.124C994.107,976.9 994.279,976.194 994.331,976.006L996.511,968.272L998.339,968.272L999.979,974.069C1000.39,975.506 1000.69,976.858 1000.87,978.124C1001.02,977.4 1001.21,976.569 1001.44,975.631L1003.24,968.272L1004.76,968.272L1001.62,979.725L1000.16,979.725L997.745,970.999C997.542,970.269 997.422,969.821 997.386,969.655C997.266,970.181 997.154,970.629 997.05,970.999L994.62,979.725L993.073,979.725Z" style="fill:rgb(252,252,252);fill-rule:nonzero;"/>
            <path d="M1006,969.889L1006,968.272L1007.41,968.272L1007.41,969.889L1006,969.889ZM1006,979.725L1006,971.428L1007.41,971.428L1007.41,979.725L1006,979.725Z" style="fill:rgb(252,252,252);fill-rule:nonzero;"/>
            <path d="M1009.53,979.725L1009.53,971.428L1010.8,971.428L1010.8,972.686C1011.12,972.097 1011.42,971.709 1011.69,971.522C1011.97,971.334 1012.27,971.241 1012.6,971.241C1013.07,971.241 1013.55,971.392 1014.04,971.694L1013.56,972.999C1013.21,972.795 1012.87,972.694 1012.53,972.694C1012.22,972.694 1011.94,972.786 1011.7,972.971C1011.45,973.156 1011.28,973.413 1011.18,973.741C1011.02,974.241 1010.94,974.788 1010.94,975.381L1010.94,979.725L1009.53,979.725Z" style="fill:rgb(252,252,252);fill-rule:nonzero;"/>
            <path d="M1020.56,977.053L1022.01,977.233C1021.78,978.082 1021.36,978.741 1020.74,979.209C1020.12,979.678 1019.33,979.913 1018.36,979.913C1017.15,979.913 1016.19,979.539 1015.48,978.791C1014.76,978.044 1014.41,976.996 1014.41,975.647C1014.41,974.251 1014.77,973.168 1015.49,972.397C1016.21,971.626 1017.14,971.241 1018.28,971.241C1019.39,971.241 1020.3,971.618 1021,972.374C1021.71,973.129 1022.06,974.191 1022.06,975.561C1022.06,975.644 1022.06,975.769 1022.05,975.936L1015.86,975.936C1015.91,976.847 1016.17,977.545 1016.64,978.03C1017.1,978.514 1017.68,978.756 1018.37,978.756C1018.89,978.756 1019.33,978.621 1019.69,978.35C1020.06,978.079 1020.34,977.647 1020.56,977.053ZM1015.94,974.78L1020.57,974.78C1020.51,974.082 1020.33,973.558 1020.04,973.209C1019.59,972.668 1019.01,972.397 1018.3,972.397C1017.65,972.397 1017.11,972.613 1016.67,973.045C1016.23,973.478 1015.99,974.056 1015.94,974.78Z" style="fill:rgb(252,252,252);fill-rule:nonzero;"/>
            <rect x="1023.75" y="968.272" width="1.406" height="11.453" style="fill:rgb(252,252,252);fill-rule:nonzero;"/>
            <path d="M1033.01,977.053L1034.46,977.233C1034.23,978.082 1033.81,978.741 1033.19,979.209C1032.57,979.678 1031.78,979.913 1030.82,979.913C1029.6,979.913 1028.64,979.539 1027.93,978.791C1027.22,978.044 1026.86,976.996 1026.86,975.647C1026.86,974.251 1027.22,973.168 1027.94,972.397C1028.66,971.626 1029.59,971.241 1030.74,971.241C1031.85,971.241 1032.75,971.618 1033.46,972.374C1034.16,973.129 1034.51,974.191 1034.51,975.561C1034.51,975.644 1034.51,975.769 1034.5,975.936L1028.32,975.936C1028.37,976.847 1028.62,977.545 1029.09,978.03C1029.55,978.514 1030.13,978.756 1030.82,978.756C1031.34,978.756 1031.78,978.621 1032.14,978.35C1032.51,978.079 1032.8,977.647 1033.01,977.053ZM1028.39,974.78L1033.03,974.78C1032.96,974.082 1032.79,973.558 1032.5,973.209C1032.05,972.668 1031.47,972.397 1030.75,972.397C1030.11,972.397 1029.56,972.613 1029.12,973.045C1028.68,973.478 1028.44,974.056 1028.39,974.78Z" style="fill:rgb(252,252,252);fill-rule:nonzero;"/>
            <path d="M1035.67,977.249L1037.06,977.03C1037.14,977.587 1037.35,978.014 1037.71,978.311C1038.07,978.608 1038.57,978.756 1039.21,978.756C1039.85,978.756 1040.33,978.625 1040.64,978.362C1040.96,978.099 1041.11,977.79 1041.11,977.436C1041.11,977.118 1040.97,976.868 1040.7,976.686C1040.51,976.561 1040.03,976.402 1039.26,976.209C1038.23,975.949 1037.51,975.724 1037.12,975.534C1036.72,975.344 1036.41,975.081 1036.21,974.745C1036,974.409 1035.9,974.038 1035.9,973.631C1035.9,973.262 1035.99,972.919 1036.15,972.604C1036.32,972.289 1036.56,972.027 1036.85,971.819C1037.07,971.657 1037.36,971.521 1037.74,971.409C1038.12,971.297 1038.52,971.241 1038.96,971.241C1039.61,971.241 1040.18,971.334 1040.67,971.522C1041.16,971.709 1041.53,971.963 1041.76,972.284C1042,972.604 1042.16,973.032 1042.25,973.569L1040.87,973.756C1040.81,973.329 1040.63,972.996 1040.33,972.756C1040.03,972.517 1039.6,972.397 1039.06,972.397C1038.41,972.397 1037.95,972.504 1037.67,972.717C1037.4,972.931 1037.26,973.181 1037.26,973.467C1037.26,973.65 1037.32,973.814 1037.43,973.959C1037.55,974.111 1037.73,974.236 1037.97,974.334C1038.11,974.387 1038.53,974.506 1039.21,974.694C1040.21,974.959 1040.9,975.177 1041.3,975.346C1041.69,975.515 1042,975.762 1042.22,976.084C1042.44,976.407 1042.56,976.808 1042.56,977.288C1042.56,977.756 1042.42,978.198 1042.15,978.612C1041.87,979.026 1041.48,979.346 1040.96,979.573C1040.45,979.799 1039.87,979.913 1039.21,979.913C1038.14,979.913 1037.31,979.689 1036.75,979.241C1036.18,978.793 1035.82,978.129 1035.67,977.249Z" style="fill:rgb(252,252,252);fill-rule:nonzero;"/>
            <path d="M1043.67,977.249L1045.06,977.03C1045.14,977.587 1045.35,978.014 1045.71,978.311C1046.07,978.608 1046.57,978.756 1047.21,978.756C1047.85,978.756 1048.33,978.625 1048.64,978.362C1048.96,978.099 1049.11,977.79 1049.11,977.436C1049.11,977.118 1048.97,976.868 1048.7,976.686C1048.51,976.561 1048.03,976.402 1047.26,976.209C1046.23,975.949 1045.51,975.724 1045.12,975.534C1044.72,975.344 1044.41,975.081 1044.21,974.745C1044,974.409 1043.9,974.038 1043.9,973.631C1043.9,973.262 1043.99,972.919 1044.15,972.604C1044.32,972.289 1044.56,972.027 1044.85,971.819C1045.07,971.657 1045.36,971.521 1045.74,971.409C1046.12,971.297 1046.52,971.241 1046.96,971.241C1047.61,971.241 1048.18,971.334 1048.67,971.522C1049.16,971.709 1049.53,971.963 1049.76,972.284C1050,972.604 1050.16,973.032 1050.25,973.569L1048.87,973.756C1048.81,973.329 1048.63,972.996 1048.33,972.756C1048.03,972.517 1047.6,972.397 1047.06,972.397C1046.41,972.397 1045.95,972.504 1045.67,972.717C1045.4,972.931 1045.26,973.181 1045.26,973.467C1045.26,973.65 1045.32,973.814 1045.43,973.959C1045.55,974.111 1045.73,974.236 1045.97,974.334C1046.11,974.387 1046.53,974.506 1047.21,974.694C1048.21,974.959 1048.9,975.177 1049.3,975.346C1049.69,975.515 1050,975.762 1050.22,976.084C1050.44,976.407 1050.56,976.808 1050.56,977.288C1050.56,977.756 1050.42,978.198 1050.15,978.612C1049.87,979.026 1049.48,979.346 1048.96,979.573C1048.45,979.799 1047.87,979.913 1047.21,979.913C1046.14,979.913 1045.31,979.689 1044.75,979.241C1044.18,978.793 1043.82,978.129 1043.67,977.249Z" style="fill:rgb(252,252,252);fill-rule:nonzero;"/>
            <path d="M1056.84,979.725L1056.84,968.272L1058.39,968.272L1064.41,977.264L1064.41,968.272L1065.86,968.272L1065.86,979.725L1064.31,979.725L1058.29,970.725L1058.29,979.725L1056.84,979.725Z" style="fill:rgb(252,252,252);fill-rule:nonzero;"/>
            <path d="M1072.88,979.725L1072.88,968.272L1077.96,968.272C1078.98,968.272 1079.75,968.375 1080.28,968.581C1080.82,968.786 1081.24,969.15 1081.56,969.67C1081.88,970.191 1082.03,970.767 1082.03,971.397C1082.03,972.209 1081.77,972.894 1081.25,973.452C1080.72,974.009 1079.91,974.363 1078.81,974.514C1079.21,974.707 1079.51,974.897 1079.72,975.084C1080.16,975.491 1080.58,975.999 1080.98,976.608L1082.97,979.725L1081.07,979.725L1079.55,977.342C1079.11,976.655 1078.74,976.129 1078.46,975.764C1078.17,975.4 1077.91,975.144 1077.69,974.999C1077.46,974.853 1077.23,974.751 1077,974.694C1076.82,974.657 1076.54,974.639 1076.15,974.639L1074.39,974.639L1074.39,979.725L1072.88,979.725ZM1074.39,973.327L1077.65,973.327C1078.34,973.327 1078.89,973.255 1079.28,973.112C1079.67,972.969 1079.96,972.739 1080.17,972.424C1080.37,972.109 1080.47,971.767 1080.47,971.397C1080.47,970.855 1080.28,970.41 1079.88,970.061C1079.49,969.712 1078.87,969.538 1078.02,969.538L1074.39,969.538L1074.39,973.327Z" style="fill:rgb(252,252,252);fill-rule:nonzero;"/>
            <path d="M1083.71,975.577C1083.71,974.04 1084.13,972.902 1084.99,972.163C1085.7,971.548 1086.57,971.241 1087.6,971.241C1088.74,971.241 1089.67,971.614 1090.39,972.362C1091.12,973.109 1091.48,974.142 1091.48,975.459C1091.48,976.527 1091.32,977.367 1091,977.979C1090.68,978.591 1090.21,979.066 1089.6,979.405C1088.99,979.743 1088.32,979.913 1087.6,979.913C1086.43,979.913 1085.5,979.54 1084.78,978.795C1084.06,978.051 1083.71,976.978 1083.71,975.577ZM1085.15,975.577C1085.15,976.639 1085.38,977.435 1085.85,977.963C1086.31,978.492 1086.89,978.756 1087.6,978.756C1088.29,978.756 1088.88,978.491 1089.34,977.959C1089.8,977.428 1090.03,976.618 1090.03,975.53C1090.03,974.504 1089.8,973.726 1089.34,973.198C1088.87,972.669 1088.29,972.405 1087.6,972.405C1086.89,972.405 1086.31,972.668 1085.85,973.194C1085.38,973.72 1085.15,974.514 1085.15,975.577Z" style="fill:rgb(252,252,252);fill-rule:nonzero;"/>
            <path d="M1098.57,979.725L1098.57,978.506C1097.92,979.444 1097.04,979.913 1095.93,979.913C1095.44,979.913 1094.99,979.819 1094.56,979.631C1094.14,979.444 1093.82,979.208 1093.62,978.924C1093.41,978.64 1093.27,978.293 1093.18,977.881C1093.12,977.605 1093.1,977.168 1093.1,976.569L1093.1,971.428L1094.5,971.428L1094.5,976.03C1094.5,976.764 1094.53,977.259 1094.59,977.514C1094.68,977.884 1094.87,978.174 1095.15,978.385C1095.44,978.596 1095.79,978.702 1096.21,978.702C1096.64,978.702 1097.03,978.594 1097.4,978.377C1097.77,978.161 1098.03,977.867 1098.19,977.495C1098.34,977.122 1098.42,976.582 1098.42,975.874L1098.42,971.428L1099.82,971.428L1099.82,979.725L1098.57,979.725Z" style="fill:rgb(252,252,252);fill-rule:nonzero;"/>
            <path d="M1105.1,978.467L1105.3,979.709C1104.9,979.793 1104.55,979.834 1104.24,979.834C1103.73,979.834 1103.33,979.754 1103.05,979.592C1102.77,979.431 1102.57,979.219 1102.46,978.956C1102.34,978.693 1102.28,978.139 1102.28,977.295L1102.28,972.522L1101.25,972.522L1101.25,971.428L1102.28,971.428L1102.28,969.374L1103.68,968.53L1103.68,971.428L1105.1,971.428L1105.1,972.522L1103.68,972.522L1103.68,977.374C1103.68,977.775 1103.71,978.032 1103.76,978.147C1103.81,978.262 1103.89,978.353 1104,978.42C1104.11,978.488 1104.27,978.522 1104.48,978.522C1104.64,978.522 1104.84,978.504 1105.1,978.467Z" style="fill:rgb(252,252,252);fill-rule:nonzero;"/>
            <path d="M1112.15,977.053L1113.6,977.233C1113.38,978.082 1112.95,978.741 1112.33,979.209C1111.71,979.678 1110.92,979.913 1109.96,979.913C1108.74,979.913 1107.78,979.539 1107.07,978.791C1106.36,978.044 1106,976.996 1106,975.647C1106,974.251 1106.36,973.168 1107.08,972.397C1107.8,971.626 1108.73,971.241 1109.88,971.241C1110.99,971.241 1111.89,971.618 1112.6,972.374C1113.3,973.129 1113.65,974.191 1113.65,975.561C1113.65,975.644 1113.65,975.769 1113.64,975.936L1107.46,975.936C1107.51,976.847 1107.77,977.545 1108.23,978.03C1108.69,978.514 1109.27,978.756 1109.96,978.756C1110.48,978.756 1110.92,978.621 1111.28,978.35C1111.65,978.079 1111.94,977.647 1112.15,977.053ZM1107.53,974.78L1112.17,974.78C1112.1,974.082 1111.93,973.558 1111.64,973.209C1111.19,972.668 1110.61,972.397 1109.89,972.397C1109.25,972.397 1108.7,972.613 1108.26,973.045C1107.82,973.478 1107.58,974.056 1107.53,974.78Z" style="fill:rgb(252,252,252);fill-rule:nonzero;"/>
            <path d="M1115.35,979.725L1115.35,971.428L1116.62,971.428L1116.62,972.686C1116.94,972.097 1117.24,971.709 1117.51,971.522C1117.79,971.334 1118.09,971.241 1118.42,971.241C1118.89,971.241 1119.37,971.392 1119.86,971.694L1119.38,972.999C1119.03,972.795 1118.69,972.694 1118.35,972.694C1118.04,972.694 1117.76,972.786 1117.52,972.971C1117.27,973.156 1117.1,973.413 1117,973.741C1116.84,974.241 1116.76,974.788 1116.76,975.381L1116.76,979.725L1115.35,979.725Z" style="fill:rgb(252,252,252);fill-rule:nonzero;"/>
        </g>
        <g transform="matrix(0.89,0,0,1,-401.463,-51.3217)">
            <path d="M920.576,979.725L920.576,970.419L924.086,970.419C924.704,970.419 925.176,970.449 925.502,970.508C925.959,970.584 926.342,970.729 926.651,970.943C926.96,971.157 927.208,971.456 927.397,971.841C927.585,972.226 927.679,972.65 927.679,973.111C927.679,973.902 927.427,974.572 926.924,975.12C926.42,975.668 925.51,975.942 924.194,975.942L921.807,975.942L921.807,979.725L920.576,979.725ZM921.807,974.844L924.213,974.844C925.009,974.844 925.574,974.696 925.908,974.399C926.242,974.103 926.409,973.686 926.409,973.149C926.409,972.76 926.311,972.426 926.114,972.149C925.918,971.872 925.658,971.689 925.337,971.6C925.129,971.545 924.746,971.518 924.188,971.518L921.807,971.518L921.807,974.844Z" style="fill:rgb(252,252,252);fill-rule:nonzero;"/>
            <path d="M930.872,979.725L928.403,970.419L929.666,970.419L931.081,976.52C931.234,977.159 931.365,977.793 931.475,978.424C931.712,977.429 931.852,976.856 931.894,976.704L933.665,970.419L935.15,970.419L936.483,975.129C936.817,976.297 937.059,977.395 937.207,978.424C937.325,977.836 937.48,977.161 937.67,976.399L939.13,970.419L940.368,970.419L937.816,979.725L936.629,979.725L934.668,972.635C934.503,972.042 934.405,971.678 934.376,971.543C934.278,971.97 934.187,972.334 934.103,972.635L932.129,979.725L930.872,979.725Z" style="fill:rgb(252,252,252);fill-rule:nonzero;"/>
            <path d="M941.536,979.725L941.536,970.419L945.662,970.419C946.491,970.419 947.122,970.503 947.553,970.67C947.985,970.837 948.33,971.132 948.588,971.556C948.846,971.979 948.975,972.446 948.975,972.958C948.975,973.619 948.762,974.175 948.334,974.628C947.907,975.081 947.247,975.368 946.354,975.491C946.68,975.648 946.927,975.802 947.096,975.955C947.456,976.285 947.797,976.697 948.118,977.192L949.737,979.725L948.188,979.725L946.957,977.789C946.597,977.23 946.301,976.803 946.068,976.507C945.835,976.211 945.627,976.003 945.443,975.885C945.259,975.766 945.072,975.684 944.881,975.637C944.741,975.608 944.513,975.593 944.196,975.593L942.767,975.593L942.767,979.725L941.536,979.725ZM942.767,974.526L945.414,974.526C945.977,974.526 946.417,974.468 946.735,974.352C947.052,974.235 947.293,974.049 947.458,973.793C947.623,973.537 947.706,973.259 947.706,972.958C947.706,972.518 947.546,972.157 947.227,971.873C946.907,971.59 946.402,971.448 945.713,971.448L942.767,971.448L942.767,974.526Z" style="fill:rgb(252,252,252);fill-rule:nonzero;"/>
            <path d="M1001.06,976.735L1002.22,976.634C1002.27,977.099 1002.4,977.481 1002.6,977.78C1002.8,978.078 1003.12,978.319 1003.54,978.503C1003.96,978.687 1004.44,978.779 1004.97,978.779C1005.44,978.779 1005.85,978.709 1006.21,978.57C1006.57,978.43 1006.84,978.239 1007.01,977.995C1007.19,977.752 1007.28,977.486 1007.28,977.199C1007.28,976.907 1007.19,976.652 1007.02,976.434C1006.85,976.216 1006.57,976.033 1006.19,975.885C1005.94,975.787 1005.38,975.636 1004.53,975.431C1003.67,975.226 1003.07,975.032 1002.73,974.85C1002.29,974.617 1001.96,974.329 1001.74,973.984C1001.52,973.639 1001.41,973.253 1001.41,972.825C1001.41,972.355 1001.55,971.916 1001.81,971.508C1002.08,971.1 1002.47,970.79 1002.98,970.578C1003.49,970.367 1004.06,970.261 1004.69,970.261C1005.38,970.261 1005.99,970.372 1006.51,970.594C1007.04,970.816 1007.44,971.143 1007.73,971.575C1008.01,972.006 1008.16,972.495 1008.18,973.041L1007,973.13C1006.94,972.542 1006.73,972.097 1006.36,971.797C1005.99,971.496 1005.45,971.346 1004.74,971.346C1003.99,971.346 1003.45,971.483 1003.11,971.756C1002.77,972.029 1002.6,972.358 1002.6,972.743C1002.6,973.077 1002.72,973.352 1002.96,973.568C1003.2,973.784 1003.82,974.005 1004.82,974.231C1005.82,974.458 1006.5,974.655 1006.88,974.825C1007.42,975.074 1007.82,975.391 1008.08,975.774C1008.34,976.157 1008.46,976.598 1008.46,977.097C1008.46,977.592 1008.32,978.059 1008.04,978.497C1007.75,978.935 1007.35,979.275 1006.82,979.519C1006.28,979.762 1005.69,979.884 1005.02,979.884C1004.18,979.884 1003.48,979.761 1002.91,979.516C1002.34,979.27 1001.89,978.901 1001.57,978.408C1001.24,977.915 1001.07,977.357 1001.06,976.735Z" style="fill:rgb(252,252,252);fill-rule:nonzero;"/>
            <path d="M1012.77,979.725L1012.77,975.783L1009.18,970.419L1010.68,970.419L1012.51,973.225C1012.85,973.75 1013.17,974.275 1013.46,974.799C1013.74,974.313 1014.08,973.765 1014.48,973.155L1016.28,970.419L1017.71,970.419L1014,975.783L1014,979.725L1012.77,979.725Z" style="fill:rgb(252,252,252);fill-rule:nonzero;"/>
            <path d="M1018.4,976.735L1019.56,976.634C1019.61,977.099 1019.74,977.481 1019.94,977.78C1020.14,978.078 1020.46,978.319 1020.88,978.503C1021.3,978.687 1021.78,978.779 1022.31,978.779C1022.78,978.779 1023.19,978.709 1023.55,978.57C1023.91,978.43 1024.18,978.239 1024.36,977.995C1024.53,977.752 1024.62,977.486 1024.62,977.199C1024.62,976.907 1024.53,976.652 1024.36,976.434C1024.19,976.216 1023.92,976.033 1023.53,975.885C1023.28,975.787 1022.73,975.636 1021.87,975.431C1021.01,975.226 1020.42,975.032 1020.07,974.85C1019.63,974.617 1019.3,974.329 1019.08,973.984C1018.86,973.639 1018.75,973.253 1018.75,972.825C1018.75,972.355 1018.89,971.916 1019.15,971.508C1019.42,971.1 1019.81,970.79 1020.32,970.578C1020.83,970.367 1021.4,970.261 1022.03,970.261C1022.72,970.261 1023.33,970.372 1023.85,970.594C1024.38,970.816 1024.79,971.143 1025.07,971.575C1025.35,972.006 1025.51,972.495 1025.53,973.041L1024.35,973.13C1024.28,972.542 1024.07,972.097 1023.7,971.797C1023.34,971.496 1022.79,971.346 1022.08,971.346C1021.34,971.346 1020.79,971.483 1020.45,971.756C1020.11,972.029 1019.94,972.358 1019.94,972.743C1019.94,973.077 1020.06,973.352 1020.3,973.568C1020.54,973.784 1021.16,974.005 1022.16,974.231C1023.16,974.458 1023.85,974.655 1024.22,974.825C1024.76,975.074 1025.16,975.391 1025.42,975.774C1025.68,976.157 1025.81,976.598 1025.81,977.097C1025.81,977.592 1025.66,978.059 1025.38,978.497C1025.1,978.935 1024.69,979.275 1024.16,979.519C1023.63,979.762 1023.03,979.884 1022.37,979.884C1021.52,979.884 1020.82,979.761 1020.25,979.516C1019.68,979.27 1019.23,978.901 1018.91,978.408C1018.59,977.915 1018.42,977.357 1018.4,976.735Z" style="fill:rgb(252,252,252);fill-rule:nonzero;"/>
            <path d="M1076.06,979.725L1073.59,970.419L1074.85,970.419L1076.27,976.52C1076.42,977.159 1076.55,977.793 1076.66,978.424C1076.9,977.429 1077.04,976.856 1077.08,976.704L1078.85,970.419L1080.33,970.419L1081.67,975.129C1082,976.297 1082.24,977.395 1082.39,978.424C1082.51,977.836 1082.66,977.161 1082.85,976.399L1084.31,970.419L1085.55,970.419L1083,979.725L1081.81,979.725L1079.85,972.635C1079.69,972.042 1079.59,971.678 1079.56,971.543C1079.46,971.97 1079.37,972.334 1079.29,972.635L1077.31,979.725L1076.06,979.725Z" style="fill:rgb(252,252,252);fill-rule:nonzero;"/>
            <path d="M1086.65,979.725L1086.65,970.419L1087.88,970.419L1087.88,978.627L1092.46,978.627L1092.46,979.725L1086.65,979.725Z" style="fill:rgb(252,252,252);fill-rule:nonzero;"/>
            <path d="M1092.91,979.725L1096.48,970.419L1097.81,970.419L1101.62,979.725L1100.21,979.725L1099.13,976.907L1095.24,976.907L1094.22,979.725L1092.91,979.725ZM1095.59,975.904L1098.75,975.904L1097.78,973.327C1097.48,972.544 1097.26,971.901 1097.12,971.397C1097,971.994 1096.83,972.586 1096.62,973.174L1095.59,975.904Z" style="fill:rgb(252,252,252);fill-rule:nonzero;"/>
            <path d="M1102.59,979.725L1102.59,970.419L1103.85,970.419L1108.74,977.726L1108.74,970.419L1109.92,970.419L1109.92,979.725L1108.66,979.725L1103.77,972.413L1103.77,979.725L1102.59,979.725Z" style="fill:rgb(252,252,252);fill-rule:nonzero;"/>
            <path d="M1160.57,979.725L1158.1,970.419L1159.36,970.419L1160.78,976.52C1160.93,977.159 1161.06,977.793 1161.17,978.424C1161.41,977.429 1161.55,976.856 1161.59,976.704L1163.36,970.419L1164.85,970.419L1166.18,975.129C1166.51,976.297 1166.75,977.395 1166.9,978.424C1167.02,977.836 1167.17,977.161 1167.37,976.399L1168.83,970.419L1170.06,970.419L1167.51,979.725L1166.32,979.725L1164.36,972.635C1164.2,972.042 1164.1,971.678 1164.07,971.543C1163.97,971.97 1163.88,972.334 1163.8,972.635L1161.82,979.725L1160.57,979.725Z" style="fill:rgb(252,252,252);fill-rule:nonzero;"/>
            <path d="M1169.65,979.725L1173.22,970.419L1174.55,970.419L1178.36,979.725L1176.95,979.725L1175.87,976.907L1171.98,976.907L1170.95,979.725L1169.65,979.725ZM1172.33,975.904L1175.49,975.904L1174.52,973.327C1174.22,972.544 1174,971.901 1173.86,971.397C1173.74,971.994 1173.57,972.586 1173.35,973.174L1172.33,975.904Z" style="fill:rgb(252,252,252);fill-rule:nonzero;"/>
            <path d="M1179.33,979.725L1179.33,970.419L1180.59,970.419L1185.48,977.726L1185.48,970.419L1186.66,970.419L1186.66,979.725L1185.4,979.725L1180.51,972.413L1180.51,979.725L1179.33,979.725Z" style="fill:rgb(252,252,252);fill-rule:nonzero;"/>
            <path d="M1251.62,979.725L1250.48,979.725L1250.48,972.444C1250.21,972.707 1249.85,972.969 1249.4,973.231C1248.95,973.494 1248.55,973.691 1248.2,973.822L1248.2,972.717C1248.84,972.417 1249.39,972.053 1249.87,971.625C1250.35,971.198 1250.69,970.783 1250.89,970.381L1251.62,970.381L1251.62,979.725Z" style="fill:rgb(252,252,252);fill-rule:nonzero;"/>
            <path d="M1293.77,978.627L1293.77,979.725L1287.62,979.725C1287.62,979.45 1287.66,979.186 1287.76,978.932C1287.91,978.513 1288.16,978.1 1288.51,977.694C1288.85,977.288 1289.35,976.818 1290,976.285C1291.02,975.455 1291.7,974.798 1292.05,974.314C1292.41,973.829 1292.59,973.371 1292.59,972.939C1292.59,972.487 1292.42,972.105 1292.1,971.794C1291.78,971.483 1291.36,971.327 1290.84,971.327C1290.29,971.327 1289.85,971.492 1289.52,971.822C1289.18,972.152 1289.02,972.609 1289.01,973.193L1287.84,973.073C1287.92,972.197 1288.22,971.529 1288.75,971.07C1289.27,970.611 1289.98,970.381 1290.86,970.381C1291.75,970.381 1292.46,970.629 1292.98,971.124C1293.5,971.619 1293.76,972.233 1293.76,972.965C1293.76,973.337 1293.68,973.703 1293.53,974.063C1293.38,974.423 1293.13,974.801 1292.77,975.199C1292.42,975.597 1291.83,976.143 1291.01,976.837C1290.33,977.412 1289.89,977.803 1289.69,978.008C1289.5,978.213 1289.34,978.42 1289.21,978.627L1293.77,978.627Z" style="fill:rgb(252,252,252);fill-rule:nonzero;"/>
            <path d="M1328.23,977.269L1329.37,977.116C1329.5,977.764 1329.72,978.23 1330.04,978.516C1330.35,978.802 1330.74,978.944 1331.19,978.944C1331.73,978.944 1332.18,978.758 1332.55,978.386C1332.92,978.013 1333.11,977.552 1333.11,977.002C1333.11,976.477 1332.93,976.045 1332.59,975.704C1332.25,975.363 1331.81,975.193 1331.29,975.193C1331.07,975.193 1330.8,975.235 1330.48,975.32L1330.61,974.317C1330.68,974.325 1330.74,974.33 1330.79,974.33C1331.28,974.33 1331.71,974.203 1332.1,973.949C1332.49,973.695 1332.69,973.303 1332.69,972.774C1332.69,972.355 1332.55,972.008 1332.26,971.733C1331.98,971.458 1331.61,971.321 1331.16,971.321C1330.72,971.321 1330.35,971.46 1330.05,971.74C1329.76,972.019 1329.57,972.438 1329.48,972.997L1328.34,972.793C1328.48,972.027 1328.8,971.434 1329.29,971.013C1329.79,970.592 1330.4,970.381 1331.14,970.381C1331.65,970.381 1332.11,970.49 1332.54,970.708C1332.97,970.926 1333.3,971.223 1333.52,971.6C1333.75,971.977 1333.86,972.377 1333.86,972.8C1333.86,973.202 1333.75,973.568 1333.54,973.898C1333.32,974.228 1333,974.49 1332.58,974.685C1333.13,974.812 1333.56,975.075 1333.86,975.475C1334.17,975.875 1334.32,976.376 1334.32,976.977C1334.32,977.789 1334.02,978.478 1333.43,979.043C1332.84,979.608 1332.09,979.89 1331.18,979.89C1330.37,979.89 1329.69,979.647 1329.15,979.16C1328.61,978.673 1328.3,978.043 1328.23,977.269Z" style="fill:rgb(252,252,252);fill-rule:nonzero;"/>
            <path d="M1368.72,979.725L1368.72,977.497L1364.68,977.497L1364.68,976.45L1368.93,970.419L1369.86,970.419L1369.86,976.45L1371.12,976.45L1371.12,977.497L1369.86,977.497L1369.86,979.725L1368.72,979.725ZM1368.72,976.45L1368.72,972.254L1365.81,976.45L1368.72,976.45Z" style="fill:rgb(252,252,252);fill-rule:nonzero;"/>
            <path d="M1436.49,979.725L1434.02,970.419L1435.28,970.419L1436.7,976.52C1436.85,977.159 1436.98,977.793 1437.09,978.424C1437.33,977.429 1437.47,976.856 1437.51,976.704L1439.28,970.419L1440.77,970.419L1442.1,975.129C1442.43,976.297 1442.68,977.395 1442.82,978.424C1442.94,977.836 1443.1,977.161 1443.29,976.399L1444.75,970.419L1445.99,970.419L1443.43,979.725L1442.25,979.725L1440.29,972.635C1440.12,972.042 1440.02,971.678 1439.99,971.543C1439.89,971.97 1439.8,972.334 1439.72,972.635L1437.75,979.725L1436.49,979.725Z" style="fill:rgb(252,252,252);fill-rule:nonzero;"/>
            <path d="M1447.13,979.725L1447.13,970.419L1450.64,970.419C1451.26,970.419 1451.73,970.449 1452.06,970.508C1452.52,970.584 1452.9,970.729 1453.21,970.943C1453.52,971.157 1453.77,971.456 1453.95,971.841C1454.14,972.226 1454.24,972.65 1454.24,973.111C1454.24,973.902 1453.99,974.572 1453.48,975.12C1452.98,975.668 1452.07,975.942 1450.75,975.942L1448.37,975.942L1448.37,979.725L1447.13,979.725ZM1448.37,974.844L1450.77,974.844C1451.57,974.844 1452.13,974.696 1452.47,974.399C1452.8,974.103 1452.97,973.686 1452.97,973.149C1452.97,972.76 1452.87,972.426 1452.67,972.149C1452.48,971.872 1452.22,971.689 1451.89,971.6C1451.69,971.545 1451.3,971.518 1450.75,971.518L1448.37,971.518L1448.37,974.844Z" style="fill:rgb(252,252,252);fill-rule:nonzero;"/>
            <path d="M1455.39,976.735L1456.55,976.634C1456.6,977.099 1456.73,977.481 1456.93,977.78C1457.13,978.078 1457.44,978.319 1457.87,978.503C1458.29,978.687 1458.77,978.779 1459.3,978.779C1459.77,978.779 1460.18,978.709 1460.54,978.57C1460.9,978.43 1461.17,978.239 1461.34,977.995C1461.52,977.752 1461.61,977.486 1461.61,977.199C1461.61,976.907 1461.52,976.652 1461.35,976.434C1461.18,976.216 1460.9,976.033 1460.52,975.885C1460.27,975.787 1459.71,975.636 1458.86,975.431C1458,975.226 1457.4,975.032 1457.06,974.85C1456.62,974.617 1456.29,974.329 1456.07,973.984C1455.85,973.639 1455.74,973.253 1455.74,972.825C1455.74,972.355 1455.87,971.916 1456.14,971.508C1456.41,971.1 1456.8,970.79 1457.31,970.578C1457.82,970.367 1458.39,970.261 1459.02,970.261C1459.71,970.261 1460.32,970.372 1460.84,970.594C1461.37,970.816 1461.77,971.143 1462.06,971.575C1462.34,972.006 1462.49,972.495 1462.51,973.041L1461.33,973.13C1461.27,972.542 1461.06,972.097 1460.69,971.797C1460.32,971.496 1459.78,971.346 1459.07,971.346C1458.32,971.346 1457.78,971.483 1457.44,971.756C1457.1,972.029 1456.93,972.358 1456.93,972.743C1456.93,973.077 1457.05,973.352 1457.29,973.568C1457.53,973.784 1458.15,974.005 1459.15,974.231C1460.15,974.458 1460.83,974.655 1461.21,974.825C1461.75,975.074 1462.15,975.391 1462.41,975.774C1462.66,976.157 1462.79,976.598 1462.79,977.097C1462.79,977.592 1462.65,978.059 1462.37,978.497C1462.09,978.935 1461.68,979.275 1461.15,979.519C1460.62,979.762 1460.02,979.884 1459.35,979.884C1458.51,979.884 1457.81,979.761 1457.24,979.516C1456.67,979.27 1456.22,978.901 1455.9,978.408C1455.57,977.915 1455.4,977.357 1455.39,976.735Z" style="fill:rgb(252,252,252);fill-rule:nonzero;"/>
        </g>
        <g transform="matrix(0.89,0,0,1,-145.413,-50.2949)">
            <path d="M920.119,977.269L921.262,977.116C921.393,977.764 921.616,978.23 921.931,978.516C922.246,978.802 922.63,978.944 923.083,978.944C923.621,978.944 924.075,978.758 924.445,978.386C924.815,978.013 925,977.552 925,977.002C925,976.477 924.829,976.045 924.486,975.704C924.143,975.363 923.707,975.193 923.178,975.193C922.963,975.193 922.694,975.235 922.372,975.32L922.499,974.317C922.575,974.325 922.637,974.33 922.683,974.33C923.17,974.33 923.608,974.203 923.997,973.949C924.387,973.695 924.581,973.303 924.581,972.774C924.581,972.355 924.44,972.008 924.156,971.733C923.873,971.458 923.506,971.321 923.058,971.321C922.614,971.321 922.243,971.46 921.947,971.74C921.651,972.019 921.46,972.438 921.376,972.997L920.233,972.793C920.373,972.027 920.69,971.434 921.185,971.013C921.68,970.592 922.296,970.381 923.033,970.381C923.54,970.381 924.008,970.49 924.435,970.708C924.863,970.926 925.19,971.223 925.416,971.6C925.642,971.977 925.756,972.377 925.756,972.8C925.756,973.202 925.648,973.568 925.432,973.898C925.216,974.228 924.897,974.49 924.473,974.685C925.024,974.812 925.451,975.075 925.756,975.475C926.06,975.875 926.213,976.376 926.213,976.977C926.213,977.789 925.916,978.478 925.324,979.043C924.732,979.608 923.983,979.89 923.077,979.89C922.26,979.89 921.582,979.647 921.043,979.16C920.503,978.673 920.195,978.043 920.119,977.269Z" style="fill:rgb(252,252,252);fill-rule:nonzero;"/>
        </g>
    </g>
</svg>
