<?xml version="1.0" standalone="no"?><!DOCTYPE svg PUBLIC "-//W3C//DTD SVG 1.1//EN" "http://www.w3.org/Graphics/SVG/1.1/DTD/svg11.dtd"><svg width="100%" height="100%" viewBox="0 0 1280 1150" version="1.1" xmlns="http://www.w3.org/2000/svg" xmlns:xlink="http://www.w3.org/1999/xlink" xml:space="preserve" style="fill-rule:evenodd;clip-rule:evenodd;stroke-linecap:round;stroke-linejoin:round;stroke-miterlimit:1.41421;"><g id="linksanbau"><rect x="112.262" y="641.536" width="18.874" height="221.754" style="fill:#363636;stroke-width:2px;stroke:#000;"/><path d="M36.263,645.676l-6.379,6.215l0,200.406l6.379,6.082" style="fill:#8f9392;stroke-width:2px;stroke:#000;"/><rect x="36.28" y="625.873" width="80.029" height="251.747" style="fill:#e7e7e7;stroke-width:2px;stroke:#000;"/></g><g id="rechts"><rect x="1147.54" y="641.536" width="18.874" height="221.754" style="fill:#363636;stroke-width:2px;stroke:#000;"/><path d="M1242.42,645.676l6.379,6.215l0,200.406l-6.379,6.082" style="fill:#8f9392;stroke-width:2px;stroke:#000;"/><rect x="1162.37" y="625.873" width="80.029" height="251.747" style="fill:#e7e7e7;stroke-width:2px;stroke:#000;"/></g><g id="füsse"><path d="M157.034,874.589c5.75,1.614 11.537,2.988 16.001,6.904c2.195,1.926 4.811,3.239 9.022,3.239l201.904,0c3.222,0 5.902,-1.805 8.132,-3.239c6.223,-4.6 12.594,-5.398 18.938,-6.904l-253.997,0Z" style="fill:#6c6d6c;stroke-width:1px;stroke:#000;"/><path d="M871.505,874.589c5.751,1.614 11.538,2.988 16.001,6.904c2.195,1.926 4.811,3.239 9.022,3.239l201.904,0c3.223,0 5.902,-1.805 8.132,-3.239c6.223,-4.6 12.594,-5.398 18.938,-6.904l-253.997,0Z" style="fill:#6c6d6c;stroke-width:1px;stroke:#000;"/></g><path d="M138.743,734.202l52.486,0c0,77.399 10.766,92.216 42.445,92.216l809.281,0c35.29,0 43.652,-16.346 43.652,-92.216l53.765,0l0,138.745c0,1.975 -1.341,3.564 -2.647,4.888l-995.381,0c-2.109,-1.315 -3.601,-2.783 -3.601,-4.888l0,-138.745Z" style="fill:#b5b5b3;stroke-width:2px;stroke:#000;"/><path d="M138.743,734.202l52.486,0c0,77.399 10.766,92.216 42.445,92.216l809.281,0c35.29,0 43.652,-16.346 43.652,-92.216l53.765,0l0,143.633l17.286,0l0,-251.983l-1036.5,0l0,251.983l17.584,0l0,-143.633Z" style="fill:#e7e7e7;stroke-width:2px;stroke:#000;"/><path d="M233.674,670.022c-16.094,0 -28.187,8.402 -30.505,31.109c-2.43,23.797 -1.868,47.623 0,71.461c1.816,23.18 12.88,31.951 30.505,31.951l807.23,0c22.203,0 32.759,-11.804 34.545,-31.951c2.105,-23.752 2.254,-47.568 0,-71.461c-2.177,-23.078 -17.244,-31.109 -34.545,-31.109l-807.23,0Z" style="fill:#ccccca;stroke-width:2px;stroke:#000;"/><g id="Beschriftung"><g id="lan-Ports"><circle cx="486.444" cy="840.446" r="2.625" style="fill:#6c6d6c;"/><circle cx="501.547" cy="840.446" r="2.625" style="fill:#6c6d6c;"/><circle cx="678.489" cy="840.446" r="2.625" style="fill:#6c6d6c;"/></g><g id="USB"><circle cx="355.487" cy="840.281" r="1.685" style="fill:#6c6d6c;"/><path d="M337.943,841.109l0,1.156l-1.78,-1.779l1.78,-1.78l0,1.157l17.659,0l0,1.246l-17.659,0Z" style="fill:#6c6d6c;"/><path d="M341.146,837.892l5.471,0c1.251,0 2.471,0.602 2.471,2.512l1.478,0c0,-1.785 -0.931,-3.789 -3.949,-3.789l-2.525,0l0,-1.318c-1.364,0.585 -2.346,1.45 -2.946,2.595Z" style="fill:#6c6d6c;"/><path d="M340.162,842.974l5.471,0c1.251,0 2.471,-0.601 2.471,-2.511l1.478,0c0,1.784 -0.932,3.788 -3.949,3.788l-2.525,0l0,1.318c-1.365,-0.585 -2.347,-1.45 -2.946,-2.595Z" style="fill:#6c6d6c;"/></g><g id="power"><rect x="986.674" y="837.261" width="18.602" height="2.238" style="fill:#6c6d6c;"/><rect x="986.672" y="841.869" width="4.951" height="2.069" style="fill:#6c6d6c;"/><rect x="1000.27" y="841.869" width="4.951" height="2.069" style="fill:#6c6d6c;"/><rect x="993.644" y="841.869" width="4.951" height="2.069" style="fill:#6c6d6c;"/></g><path d="M248.905,847.196l0,-13.212l3.599,0c1.141,0 2.016,0.28 2.624,0.839c0.608,0.559 0.912,1.372 0.912,2.437c0,1.762 -0.801,3.011 -2.403,3.749l3.969,6.187l-2.073,0l-3.382,-5.589l-1.575,0l0,5.589l-1.671,0ZM250.576,840.206l0.547,0c2.121,0 3.181,-0.925 3.181,-2.776c0,-1.363 -0.889,-2.045 -2.667,-2.045l-1.061,0l0,4.821Z" style="fill:#6c6d6c;fill-rule:nonzero;"/><path d="M265.753,846.883c-1.061,0.357 -1.968,0.536 -2.724,0.536c-1.285,0 -2.334,-0.475 -3.145,-1.424c-0.812,-0.949 -1.217,-2.18 -1.217,-3.691c0,-1.47 0.357,-2.675 1.072,-3.616c0.715,-0.94 1.63,-1.41 2.744,-1.41c1.055,0 1.871,0.417 2.446,1.25c0.576,0.833 0.864,2.017 0.864,3.553l-0.008,0.544l-5.503,0c0.23,2.303 1.245,3.455 3.045,3.455c0.658,0 1.467,-0.197 2.426,-0.589l0,1.392ZM260.354,841.304l3.848,0c0,-1.803 -0.605,-2.705 -1.815,-2.705c-1.216,0 -1.894,0.902 -2.033,2.705Z" style="fill:#6c6d6c;fill-rule:nonzero;"/><path d="M270.839,847.419c-0.724,0 -1.602,-0.188 -2.636,-0.562l0,-1.616c1.034,0.571 1.934,0.857 2.7,0.857c0.455,0 0.833,-0.137 1.133,-0.411c0.3,-0.274 0.45,-0.616 0.45,-1.027c0,-0.601 -0.421,-1.098 -1.262,-1.49l-0.924,-0.438c-1.366,-0.631 -2.048,-1.538 -2.048,-2.722c0,-0.846 0.269,-1.511 0.807,-1.996c0.538,-0.485 1.276,-0.727 2.213,-0.727c0.488,0 1.09,0.074 1.808,0.223l0.33,0.071l0,1.464c-0.884,-0.291 -1.586,-0.437 -2.105,-0.437c-1.018,0 -1.527,0.411 -1.527,1.232c0,0.53 0.386,0.976 1.157,1.339l0.763,0.357c0.863,0.405 1.473,0.832 1.832,1.281c0.359,0.449 0.538,1.01 0.538,1.683c0,0.851 -0.302,1.55 -0.908,2.098c-0.605,0.547 -1.379,0.821 -2.321,0.821Z" style="fill:#6c6d6c;fill-rule:nonzero;"/><path d="M283.308,846.883c-1.061,0.357 -1.969,0.536 -2.724,0.536c-1.285,0 -2.334,-0.475 -3.145,-1.424c-0.812,-0.949 -1.218,-2.18 -1.218,-3.691c0,-1.47 0.358,-2.675 1.073,-3.616c0.715,-0.94 1.63,-1.41 2.744,-1.41c1.055,0 1.87,0.417 2.446,1.25c0.576,0.833 0.864,2.017 0.864,3.553l-0.008,0.544l-5.504,0c0.231,2.303 1.246,3.455 3.045,3.455c0.659,0 1.468,-0.197 2.427,-0.589l0,1.392ZM277.909,841.304l3.848,0c0,-1.803 -0.605,-2.705 -1.816,-2.705c-1.216,0 -1.893,0.902 -2.032,2.705Z" style="fill:#6c6d6c;fill-rule:nonzero;"/><path d="M288.699,847.419c-0.804,0 -1.43,-0.256 -1.88,-0.768c-0.45,-0.512 -0.675,-1.223 -0.675,-2.133l0,-5.696l-1.093,0l0,-1.321l1.093,0l0,-1.759l1.583,-0.169l0,1.928l2.281,0l0,1.321l-2.281,0l0,5.374c0,1.268 0.492,1.902 1.478,1.902c0.209,0 0.463,-0.039 0.763,-0.116l0,1.214c-0.487,0.149 -0.91,0.223 -1.269,0.223Z" style="fill:#6c6d6c;fill-rule:nonzero;"/><rect x="834.759" y="833.984" width="1.687" height="13.212" style="fill:#6c6d6c;fill-rule:nonzero;"/><path d="M839.556,847.196l0,-9.695l1.583,0l0,1.821c0.835,-1.357 1.858,-2.035 3.069,-2.035c0.755,0 1.357,0.266 1.807,0.799c0.45,0.532 0.675,1.248 0.675,2.147l0,6.963l-1.583,0l0,-6.392c0,-0.72 -0.095,-1.233 -0.285,-1.54c-0.19,-0.306 -0.505,-0.46 -0.944,-0.46c-0.969,0 -1.882,0.706 -2.739,2.116l0,6.276l-1.583,0Z" style="fill:#6c6d6c;fill-rule:nonzero;"/><path d="M852.387,847.419c-0.804,0 -1.431,-0.256 -1.881,-0.768c-0.449,-0.512 -0.674,-1.223 -0.674,-2.133l0,-5.696l-1.093,0l0,-1.321l1.093,0l0,-1.759l1.582,-0.169l0,1.928l2.282,0l0,1.321l-2.282,0l0,5.374c0,1.268 0.493,1.902 1.479,1.902c0.209,0 0.463,-0.039 0.763,-0.116l0,1.214c-0.488,0.149 -0.911,0.223 -1.269,0.223Z" style="fill:#6c6d6c;fill-rule:nonzero;"/><path d="M862.317,846.883c-1.061,0.357 -1.969,0.536 -2.724,0.536c-1.285,0 -2.334,-0.475 -3.145,-1.424c-0.812,-0.949 -1.217,-2.18 -1.217,-3.691c0,-1.47 0.357,-2.675 1.072,-3.616c0.715,-0.94 1.63,-1.41 2.744,-1.41c1.055,0 1.871,0.417 2.446,1.25c0.576,0.833 0.864,2.017 0.864,3.553l-0.008,0.544l-5.504,0c0.231,2.303 1.246,3.455 3.045,3.455c0.659,0 1.468,-0.197 2.427,-0.589l0,1.392ZM856.918,841.304l3.848,0c0,-1.803 -0.605,-2.705 -1.816,-2.705c-1.215,0 -1.893,0.902 -2.032,2.705Z" style="fill:#6c6d6c;fill-rule:nonzero;"/><path d="M865.089,847.196l0,-9.695l1.582,0l0,1.821c0.627,-1.357 1.538,-2.035 2.732,-2.035c0.161,0 0.329,0.015 0.506,0.044l0,1.643c-0.273,-0.101 -0.514,-0.152 -0.723,-0.152c-1.002,0 -1.84,0.661 -2.515,1.982l0,6.392l-1.582,0Z" style="fill:#6c6d6c;fill-rule:nonzero;"/><path d="M871.821,847.196l0,-9.695l1.583,0l0,1.821c0.836,-1.357 1.859,-2.035 3.069,-2.035c0.755,0 1.358,0.266 1.808,0.799c0.45,0.532 0.675,1.248 0.675,2.147l0,6.963l-1.583,0l0,-6.392c0,-0.72 -0.095,-1.233 -0.285,-1.54c-0.19,-0.306 -0.505,-0.46 -0.944,-0.46c-0.97,0 -1.883,0.706 -2.74,2.116l0,6.276l-1.583,0Z" style="fill:#6c6d6c;fill-rule:nonzero;"/><path d="M888.428,846.883c-1.06,0.357 -1.968,0.536 -2.724,0.536c-1.285,0 -2.334,-0.475 -3.145,-1.424c-0.811,-0.949 -1.217,-2.18 -1.217,-3.691c0,-1.47 0.357,-2.675 1.072,-3.616c0.715,-0.94 1.63,-1.41 2.744,-1.41c1.055,0 1.871,0.417 2.447,1.25c0.575,0.833 0.863,2.017 0.863,3.553l-0.008,0.544l-5.503,0c0.23,2.303 1.245,3.455 3.045,3.455c0.659,0 1.467,-0.197 2.426,-0.589l0,1.392ZM883.029,841.304l3.848,0c0,-1.803 -0.605,-2.705 -1.815,-2.705c-1.216,0 -1.894,0.902 -2.033,2.705Z" style="fill:#6c6d6c;fill-rule:nonzero;"/><path d="M893.819,847.419c-0.803,0 -1.43,-0.256 -1.88,-0.768c-0.45,-0.512 -0.675,-1.223 -0.675,-2.133l0,-5.696l-1.093,0l0,-1.321l1.093,0l0,-1.759l1.583,-0.169l0,1.928l2.282,0l0,1.321l-2.282,0l0,5.374c0,1.268 0.493,1.902 1.478,1.902c0.209,0 0.463,-0.039 0.763,-0.116l0,1.214c-0.487,0.149 -0.91,0.223 -1.269,0.223Z" style="fill:#6c6d6c;fill-rule:nonzero;"/></g><g id="usb"><path d="M374.732,693.182c0,-3.818 -3.1,-6.918 -6.919,-6.918l-39.385,0c-3.819,0 -6.919,3.1 -6.919,6.918l0,101.107c0,3.819 3.1,6.919 6.919,6.919l39.385,0c3.819,0 6.919,-3.1 6.919,-6.919l0,-101.107Z" style="fill:#2a2a2a;stroke-width:0.9px;stroke:#000;"/><rect x="321.659" y="696.149" width="3.812" height="98.203" style="fill:#919296;stroke-width:0.9px;stroke:#000;"/><rect x="370.426" y="696.149" width="4.352" height="98.203" style="fill:#919296;stroke-width:0.9px;stroke:#000;"/><path d="M325.553,701.259l44.905,0l0,-5.07l4.34,0l0,-3.274c0,-3.069 -2.762,-6.368 -6.76,-6.626l-39.506,0c-3.843,0 -7.001,2.548 -7.001,6.626l0,3.274l4.022,0l0,5.07Z" style="fill:#2f2f32;stroke-width:0.9px;stroke:#000;"/><rect x="325.553" y="691.547" width="44.905" height="9.712" style="fill:#0f1016;stroke-width:0.9px;stroke:#000;"/><rect x="330.535" y="686.269" width="34.97" height="3.712" style="fill:#94959a;stroke-width:0.9px;stroke:#000;"/><g id="kontakte"><g><path d="M340.854,784.333c3.44,-1.194 6.753,-1.986 9.814,-1.981l0,-7.892c-5.404,0.362 -7.91,1.234 -9.814,2.213l0,7.66Z" style="fill:#68696f;stroke-width:0.9px;stroke:#000;"/><path d="M340.76,784.361c3.452,-1.195 6.776,-1.986 9.847,-1.981l0,1.018c-2.593,0.382 -4.947,0.863 -6.719,1.393c1.753,1.044 5.08,1.705 6.719,1.969l0,1.27c-3.754,-0.604 -7.091,-1.755 -9.847,-3.669Z" style="fill:#b0b1b6;stroke-width:0.65px;stroke:#000;"/></g><g><path d="M340.854,762.71c3.368,-1.278 6.611,-2.126 9.607,-2.12l0,-8.446c-5.289,0.386 -7.743,1.321 -9.607,2.368l0,8.198Z" style="fill:#68696f;stroke-width:0.9px;stroke:#000;"/><path d="M340.78,762.797c3.445,-1.194 6.762,-1.986 9.827,-1.981l0,1.018c-2.588,0.382 -4.937,0.863 -6.705,1.394c1.75,1.043 5.07,1.705 6.705,1.969l0,1.269c-3.746,-0.603 -7.076,-1.755 -9.827,-3.669Z" style="fill:#b0b1b6;stroke-width:0.65px;stroke:#000;"/></g><g><path d="M340.854,745.203c3.473,-1.194 6.818,-1.986 9.908,-1.981l0,-7.892c-5.455,0.362 -7.985,1.235 -9.908,2.214l0,7.659Z" style="fill:#68696f;stroke-width:0.9px;stroke:#000;"/><path d="M340.854,745.381c3.419,-1.195 6.711,-1.986 9.753,-1.982l0,1.018c-2.568,0.383 -4.9,0.863 -6.655,1.394c1.737,1.044 5.032,1.705 6.655,1.969l0,1.269c-3.718,-0.603 -7.023,-1.754 -9.753,-3.668Z" style="fill:#b0b1b6;stroke-width:0.65px;stroke:#000;"/></g><g><path d="M340.854,725.841c3.419,-1.194 6.711,-1.986 9.753,-1.981l0,-7.892c-5.37,0.362 -7.86,1.235 -9.753,2.214l0,7.659Z" style="fill:#68696f;stroke-width:0.9px;stroke:#000;"/><path d="M340.854,725.841c3.419,-1.194 6.711,-1.986 9.753,-1.981l0,1.018c-2.568,0.382 -4.9,0.863 -6.655,1.394c1.737,1.043 5.032,1.705 6.655,1.969l0,1.269c-3.718,-0.603 -7.023,-1.755 -9.753,-3.669Z" style="fill:#b0b1b6;stroke-width:0.65px;stroke:#000;"/></g></g><g><path d="M350.833,795.487l10.666,0l0,-4.916l-10.666,0l0,4.916" style="fill:#37373b;stroke-width:0.9px;stroke:#000;"/><rect x="350.833" y="704.33" width="10.666" height="86.878" style="fill:#919297;stroke-width:0.9px;stroke:#000;"/></g></g><g id="lan"><g><path d="M434.692,683.833c-3.453,0 -5.326,2.181 -5.326,5.326l0,96.472c0,3.238 1.947,5.211 5.326,5.211l121.8,0c2.478,0 5.211,-2.008 5.211,-5.211l0,-96.472c0,-2.68 -2.321,-5.326 -5.326,-5.326l-121.685,0Z" style="fill:#989795;stroke-width:2px;stroke:#000;"/><rect x="431.939" y="769.698" width="26.972" height="17.458" style="fill:#b4b4b2;stroke-width:1.5px;stroke-linejoin:miter;stroke:#000;"/><path d="M455.759,687.494l0,18.129l-12.217,0l0,17.56l-5.222,0l0,24.3l5.222,0l0,17.995l23.989,0l0,16.671l9.69,0l0,8.428l36.526,0l0,-8.428l9.821,0l0,-16.671l24.676,0l0,-17.995l4.077,0l0,-24.3l-4.077,0l0,-17.56l-12.218,0l0,-18.129l-80.267,0Z" style="fill:#71706e;stroke-width:1.5px;stroke-linejoin:miter;stroke:#000;"/><rect x="438.474" y="723.19" width="5.094" height="12.283" style="fill:#43423f;stroke-width:1.5px;stroke-linejoin:miter;stroke:#000;"/><rect x="548.246" y="723.21" width="3.997" height="12.263" style="fill:#43423f;stroke-width:1.5px;stroke-linejoin:miter;stroke:#000;"/><g><path d="M455.759,687.494l0,18.129l-12.217,0l0,11.028l104.702,0l0,-11.028l-12.218,0l0,-18.129l-80.267,0Z" style="fill:#4a4946;stroke-width:1.5px;stroke-linejoin:miter;stroke:#000;"/><path d="M455.759,710.788l0,-5.165l-12.217,0l0,11.182l104.702,0l0,-11.182l-12.218,0l0,5.165l-80.267,0Z" style="fill:#43423f;stroke-width:1.5px;stroke-linejoin:miter;stroke:#000;"/><rect x="455.759" y="687.55" width="80.267" height="23.238" style="fill:#7c7b78;stroke-width:1.5px;stroke-linejoin:miter;stroke:#000;"/><path d="M455.759,691.649l80.267,0" style="fill:none;stroke-width:1px;stroke-linejoin:miter;stroke:#000;"/><rect x="455.759" y="695.88" width="80.267" height="9.742" style="fill:#111110;stroke-width:1.5px;stroke-linejoin:miter;stroke:#000;"/></g><path d="M529.721,736.012l-6.148,0l0,15.712l-2.635,0l0,-15.712l-6.147,0l0,15.712l-2.765,0l0,-15.712l-6.316,0l0,15.712l-2.485,0l0,-15.712l-6.437,0l0,15.712l-3.407,0l0,-15.712l-5.664,0l0,15.712l-3.218,0l0,-15.712l-5.765,0l0,15.712l-3.278,0l0,-15.712l-5.728,0l0,15.712l-3.392,0l0,-15.712l-4.089,0l0,29.466l5.284,0l0,16.671l9.69,0l0,8.872l36.526,0l0,-8.872l9.821,0l0,-16.671l6.153,0l0,-29.466Z" style="fill:#575755;stroke-width:1.5px;stroke-linejoin:miter;stroke:#000;"/><rect x="477.292" y="782.149" width="36.431" height="5.249" style="fill:#11110f;stroke-width:1.5px;stroke-linejoin:miter;stroke:#000;"/><path d="M529.721,736.012l-6.148,0l0,15.712l-2.635,0l0,-15.712l-6.147,0l0,15.712l-2.765,0l0,-15.712l-6.316,0l0,15.712l-2.485,0l0,-15.712l-6.437,0l0,15.712l-3.407,0l0,-15.712l-5.664,0l0,15.712l-3.218,0l0,-15.712l-5.765,0l0,15.712l-3.278,0l0,-15.712l-5.728,0l0,15.712l-3.392,0l0,-15.712l-4.089,0l0,13.142l4.089,0l0,2.57l3.392,0l0,-2.57l5.728,0l0,2.57l3.278,0l0,-2.57l5.765,0l0,2.57l3.218,0l0,-2.57l5.664,0l0,2.57l3.407,0l0,-2.57l6.437,0l0,2.57l2.485,0l0,-2.57l6.316,0l0,2.57l2.765,0l0,-2.57l6.147,0l0,2.57l2.635,0l0,-2.57l6.148,0l0,-13.142Z" style="fill:#21211f;stroke-width:1.5px;stroke-linejoin:miter;stroke:#000;"/><path d="M451.193,717.554c0,8.276 4.632,12.974 11.268,12.974l66.852,0c6.281,0 11.374,-4.832 11.374,-12.974l-89.494,0Z" style="fill:#4b4b4b;"/><g id="kontakte1"><g id="kontakt"><path d="M462.331,695.074l0,46.757c0,1.15 4.022,1.015 4.022,0l0,-46.757l-4.022,0Z" style="fill:#52514f;stroke-width:1px;stroke-linejoin:miter;stroke:#000;"/><path d="M462.331,694.557l0,9.507c1.367,1.093 2.738,1.015 4.022,0l0,-9.507c0,-2.033 -4.022,-2.099 -4.022,0Z" style="fill:#929292;stroke-width:1px;stroke-linejoin:miter;stroke:#000;"/></g><g id="kontakt1"><path d="M470.658,695.074l0,46.757c0,1.15 4.021,1.015 4.021,0l0,-46.757l-4.021,0Z" style="fill:#52514f;stroke-width:1px;stroke-linejoin:miter;stroke:#000;"/><path d="M470.658,694.557l0,9.507c1.367,1.093 2.738,1.015 4.021,0l0,-9.507c0,-2.033 -4.021,-2.099 -4.021,0Z" style="fill:#929292;stroke-width:1px;stroke-linejoin:miter;stroke:#000;"/></g><g id="kontakt2"><path d="M479.637,695.074l0,46.757c0,1.15 4.021,1.015 4.021,0l0,-46.757l-4.021,0Z" style="fill:#52514f;stroke-width:1px;stroke-linejoin:miter;stroke:#000;"/><path d="M479.637,694.557l0,9.507c1.367,1.093 2.738,1.015 4.021,0l0,-9.507c0,-2.033 -4.021,-2.099 -4.021,0Z" style="fill:#929292;stroke-width:1px;stroke-linejoin:miter;stroke:#000;"/></g><g id="kontakt3"><path d="M488.651,695.074l0,46.757c0,1.15 4.021,1.015 4.021,0l0,-46.757l-4.021,0Z" style="fill:#52514f;stroke-width:1px;stroke-linejoin:miter;stroke:#000;"/><path d="M488.651,694.557l0,9.507c1.366,1.093 2.737,1.015 4.021,0l0,-9.507c0,-2.033 -4.021,-2.099 -4.021,0Z" style="fill:#929292;stroke-width:1px;stroke-linejoin:miter;stroke:#000;"/></g><g id="kontakt4"><path d="M498.168,695.074l0,46.757c0,1.15 4.021,1.015 4.021,0l0,-46.757l-4.021,0Z" style="fill:#52514f;stroke-width:1px;stroke-linejoin:miter;stroke:#000;"/><path d="M498.168,694.557l0,9.507c1.366,1.093 2.737,1.015 4.021,0l0,-9.507c0,-2.033 -4.021,-2.099 -4.021,0Z" style="fill:#929292;stroke-width:1px;stroke-linejoin:miter;stroke:#000;"/></g><g id="kontakt5"><path d="M507.41,695.074l0,46.757c0,1.15 4.021,1.015 4.021,0l0,-46.757l-4.021,0Z" style="fill:#52514f;stroke-width:1px;stroke-linejoin:miter;stroke:#000;"/><path d="M507.41,694.557l0,9.507c1.367,1.093 2.738,1.015 4.021,0l0,-9.507c0,-2.033 -4.021,-2.099 -4.021,0Z" style="fill:#929292;stroke-width:1px;stroke-linejoin:miter;stroke:#000;"/></g><g id="kontakt6"><path d="M516.406,695.074l0,46.757c0,1.15 4.021,1.015 4.021,0l0,-46.757l-4.021,0Z" style="fill:#52514f;stroke-width:1px;stroke-linejoin:miter;stroke:#000;"/><path d="M516.406,694.557l0,9.507c1.366,1.093 2.737,1.015 4.021,0l0,-9.507c0,-2.033 -4.021,-2.099 -4.021,0Z" style="fill:#929292;stroke-width:1px;stroke-linejoin:miter;stroke:#000;"/></g><g id="kontakt7"><path d="M525.28,695.074l0,46.757c0,1.15 4.021,1.015 4.021,0l0,-46.757l-4.021,0Z" style="fill:#52514f;stroke-width:1px;stroke-linejoin:miter;stroke:#000;"/><path d="M525.28,694.557l0,9.507c1.367,1.093 2.738,1.015 4.021,0l0,-9.507c0,-2.033 -4.021,-2.099 -4.021,0Z" style="fill:#929292;stroke-width:1px;stroke-linejoin:miter;stroke:#000;"/></g></g></g><g><path d="M618.82,683.833c-3.454,0 -5.326,2.181 -5.326,5.326l0,96.472c0,3.238 1.947,5.211 5.326,5.211l121.8,0c2.477,0 5.21,-2.008 5.21,-5.211l0,-96.472c0,-2.68 -2.321,-5.326 -5.326,-5.326l-121.684,0Z" style="fill:#989795;stroke-width:2px;stroke:#000;"/><rect x="616.066" y="769.698" width="26.972" height="17.458" style="fill:#b4b4b2;stroke-width:1.5px;stroke-linejoin:miter;stroke:#000;"/><path d="M639.886,687.494l0,18.129l-12.217,0l0,17.56l-5.222,0l0,24.3l5.222,0l0,17.995l23.989,0l0,16.671l9.69,0l0,8.428l36.527,0l0,-8.428l9.821,0l0,-16.671l24.675,0l0,-17.995l4.077,0l0,-24.3l-4.077,0l0,-17.56l-12.217,0l0,-18.129l-80.268,0Z" style="fill:#71706e;stroke-width:1.5px;stroke-linejoin:miter;stroke:#000;"/><rect x="622.601" y="723.19" width="5.094" height="12.283" style="fill:#43423f;stroke-width:1.5px;stroke-linejoin:miter;stroke:#000;"/><rect x="732.373" y="723.21" width="3.997" height="12.263" style="fill:#43423f;stroke-width:1.5px;stroke-linejoin:miter;stroke:#000;"/><g><path d="M639.886,687.494l0,18.129l-12.217,0l0,11.028l104.702,0l0,-11.028l-12.217,0l0,-18.129l-80.268,0Z" style="fill:#4a4946;stroke-width:1.5px;stroke-linejoin:miter;stroke:#000;"/><path d="M639.886,710.788l0,-5.165l-12.217,0l0,11.182l104.702,0l0,-11.182l-12.217,0l0,5.165l-80.268,0Z" style="fill:#43423f;stroke-width:1.5px;stroke-linejoin:miter;stroke:#000;"/><rect x="639.886" y="687.55" width="80.267" height="23.238" style="fill:#7c7b78;stroke-width:1.5px;stroke-linejoin:miter;stroke:#000;"/><path d="M639.886,691.649l80.268,0" style="fill:none;stroke-width:1px;stroke-linejoin:miter;stroke:#000;"/><rect x="639.886" y="695.88" width="80.267" height="9.742" style="fill:#111110;stroke-width:1.5px;stroke-linejoin:miter;stroke:#000;"/></g><path d="M713.848,736.012l-6.148,0l0,15.712l-2.635,0l0,-15.712l-6.147,0l0,15.712l-2.765,0l0,-15.712l-6.316,0l0,15.712l-2.484,0l0,-15.712l-6.438,0l0,15.712l-3.407,0l0,-15.712l-5.664,0l0,15.712l-3.218,0l0,-15.712l-5.765,0l0,15.712l-3.278,0l0,-15.712l-5.728,0l0,15.712l-3.392,0l0,-15.712l-4.088,0l0,29.466l5.283,0l0,16.671l9.69,0l0,8.872l36.527,0l0,-8.872l9.821,0l0,-16.671l6.152,0l0,-29.466Z" style="fill:#575755;stroke-width:1.5px;stroke-linejoin:miter;stroke:#000;"/><rect x="661.419" y="782.149" width="36.431" height="5.249" style="fill:#11110f;stroke-width:1.5px;stroke-linejoin:miter;stroke:#000;"/><path d="M713.848,736.012l-6.148,0l0,15.712l-2.635,0l0,-15.712l-6.147,0l0,15.712l-2.765,0l0,-15.712l-6.316,0l0,15.712l-2.484,0l0,-15.712l-6.438,0l0,15.712l-3.407,0l0,-15.712l-5.664,0l0,15.712l-3.218,0l0,-15.712l-5.765,0l0,15.712l-3.278,0l0,-15.712l-5.728,0l0,15.712l-3.392,0l0,-15.712l-4.088,0l0,13.142l4.088,0l0,2.57l3.392,0l0,-2.57l5.728,0l0,2.57l3.278,0l0,-2.57l5.765,0l0,2.57l3.218,0l0,-2.57l5.664,0l0,2.57l3.407,0l0,-2.57l6.438,0l0,2.57l2.484,0l0,-2.57l6.316,0l0,2.57l2.765,0l0,-2.57l6.147,0l0,2.57l2.635,0l0,-2.57l6.148,0l0,-13.142Z" style="fill:#21211f;stroke-width:1.5px;stroke-linejoin:miter;stroke:#000;"/><path d="M635.32,717.554c0,8.276 4.632,12.974 11.268,12.974l66.853,0c6.28,0 11.374,-4.832 11.374,-12.974l-89.495,0Z" style="fill:#4b4b4b;"/><g id="kontakte2"><g id="kontakt8"><path d="M646.459,695.074l0,46.757c0,1.15 4.021,1.015 4.021,0l0,-46.757l-4.021,0Z" style="fill:#52514f;stroke-width:1px;stroke-linejoin:miter;stroke:#000;"/><path d="M646.459,694.557l0,9.507c1.366,1.093 2.737,1.015 4.021,0l0,-9.507c0,-2.033 -4.021,-2.099 -4.021,0Z" style="fill:#929292;stroke-width:1px;stroke-linejoin:miter;stroke:#000;"/></g><g id="kontakt9"><path d="M654.786,695.074l0,46.757c0,1.15 4.021,1.015 4.021,0l0,-46.757l-4.021,0Z" style="fill:#52514f;stroke-width:1px;stroke-linejoin:miter;stroke:#000;"/><path d="M654.786,694.557l0,9.507c1.366,1.093 2.737,1.015 4.021,0l0,-9.507c0,-2.033 -4.021,-2.099 -4.021,0Z" style="fill:#929292;stroke-width:1px;stroke-linejoin:miter;stroke:#000;"/></g><g id="kontakt10"><path d="M663.764,695.074l0,46.757c0,1.15 4.022,1.015 4.022,0l0,-46.757l-4.022,0Z" style="fill:#52514f;stroke-width:1px;stroke-linejoin:miter;stroke:#000;"/><path d="M663.764,694.557l0,9.507c1.367,1.093 2.738,1.015 4.022,0l0,-9.507c0,-2.033 -4.022,-2.099 -4.022,0Z" style="fill:#929292;stroke-width:1px;stroke-linejoin:miter;stroke:#000;"/></g><g id="kontakt11"><path d="M672.778,695.074l0,46.757c0,1.15 4.021,1.015 4.021,0l0,-46.757l-4.021,0Z" style="fill:#52514f;stroke-width:1px;stroke-linejoin:miter;stroke:#000;"/><path d="M672.778,694.557l0,9.507c1.367,1.093 2.738,1.015 4.021,0l0,-9.507c0,-2.033 -4.021,-2.099 -4.021,0Z" style="fill:#929292;stroke-width:1px;stroke-linejoin:miter;stroke:#000;"/></g><g id="kontakt12"><path d="M682.295,695.074l0,46.757c0,1.15 4.021,1.015 4.021,0l0,-46.757l-4.021,0Z" style="fill:#52514f;stroke-width:1px;stroke-linejoin:miter;stroke:#000;"/><path d="M682.295,694.557l0,9.507c1.367,1.093 2.738,1.015 4.021,0l0,-9.507c0,-2.033 -4.021,-2.099 -4.021,0Z" style="fill:#929292;stroke-width:1px;stroke-linejoin:miter;stroke:#000;"/></g><g id="kontakt13"><path d="M691.537,695.074l0,46.757c0,1.15 4.022,1.015 4.022,0l0,-46.757l-4.022,0Z" style="fill:#52514f;stroke-width:1px;stroke-linejoin:miter;stroke:#000;"/><path d="M691.537,694.557l0,9.507c1.367,1.093 2.738,1.015 4.022,0l0,-9.507c0,-2.033 -4.022,-2.099 -4.022,0Z" style="fill:#929292;stroke-width:1px;stroke-linejoin:miter;stroke:#000;"/></g><g id="kontakt14"><path d="M700.533,695.074l0,46.757c0,1.15 4.021,1.015 4.021,0l0,-46.757l-4.021,0Z" style="fill:#52514f;stroke-width:1px;stroke-linejoin:miter;stroke:#000;"/><path d="M700.533,694.557l0,9.507c1.367,1.093 2.738,1.015 4.021,0l0,-9.507c0,-2.033 -4.021,-2.099 -4.021,0Z" style="fill:#929292;stroke-width:1px;stroke-linejoin:miter;stroke:#000;"/></g><g id="kontakt15"><path d="M709.407,695.074l0,46.757c0,1.15 4.021,1.015 4.021,0l0,-46.757l-4.021,0Z" style="fill:#52514f;stroke-width:1px;stroke-linejoin:miter;stroke:#000;"/><path d="M709.407,694.557l0,9.507c1.367,1.093 2.738,1.015 4.021,0l0,-9.507c0,-2.033 -4.021,-2.099 -4.021,0Z" style="fill:#929292;stroke-width:1px;stroke-linejoin:miter;stroke:#000;"/></g></g></g><g><path d="M802.635,683.833c-3.454,0 -5.327,2.181 -5.327,5.326l0,96.472c0,3.238 1.948,5.211 5.327,5.211l121.8,0c2.477,0 5.21,-2.008 5.21,-5.211l0,-96.472c0,-2.68 -2.321,-5.326 -5.326,-5.326l-121.684,0Z" style="fill:#2b588b;stroke-width:2px;stroke:#000;"/><rect x="799.881" y="769.698" width="26.972" height="17.458" style="fill:#3e71af;stroke-width:1.5px;stroke-linejoin:miter;stroke:#000;"/><rect x="898.615" y="769.698" width="26.972" height="17.458" style="fill:#3e71af;stroke-width:1.5px;stroke-linejoin:miter;stroke:#000;"/><path d="M823.701,687.494l0,18.129l-12.217,0l0,17.56l-5.222,0l0,24.3l5.222,0l0,17.995l23.989,0l0,16.671l9.69,0l0,8.428l36.526,0l0,-8.428l9.821,0l0,-16.671l24.676,0l0,-17.995l4.077,0l0,-24.3l-4.077,0l0,-17.56l-12.217,0l0,-18.129l-80.268,0Z" style="fill:#132f62;stroke-width:1.5px;stroke-linejoin:miter;stroke:#000;"/><rect x="806.416" y="723.19" width="5.094" height="12.283" style="fill:#000c3a;stroke-width:1.5px;stroke-linejoin:miter;stroke:#000;"/><rect x="916.188" y="723.21" width="3.997" height="12.263" style="fill:#000c3a;stroke-width:1.5px;stroke-linejoin:miter;stroke:#000;"/><g><path d="M823.701,687.494l0,18.129l-12.217,0l0,11.028l104.702,0l0,-11.028l-12.217,0l0,-18.129l-80.268,0Z" style="fill:#4a4946;stroke-width:1.5px;stroke-linejoin:miter;stroke:#000;"/><path d="M823.701,710.788l0,-5.165l-12.217,0l0,11.182l104.702,0l0,-11.182l-12.217,0l0,5.165l-80.268,0Z" style="fill:#000d39;stroke-width:1.5px;stroke-linejoin:miter;stroke:#000;"/><rect x="823.701" y="687.55" width="80.267" height="23.238" style="fill:#243a65;stroke-width:1.5px;stroke-linejoin:miter;stroke:#000;"/><path d="M823.701,691.649l80.268,0" style="fill:none;stroke-width:1px;stroke-linejoin:miter;stroke:#000;"/><rect x="823.701" y="695.88" width="80.267" height="9.742" style="fill:#111110;stroke-width:1.5px;stroke-linejoin:miter;stroke:#000;"/></g><path d="M897.663,736.012l-6.148,0l0,15.712l-2.635,0l0,-15.712l-6.147,0l0,15.712l-2.765,0l0,-15.712l-6.316,0l0,15.712l-2.484,0l0,-15.712l-6.438,0l0,15.712l-3.407,0l0,-15.712l-5.664,0l0,15.712l-3.218,0l0,-15.712l-5.765,0l0,15.712l-3.278,0l0,-15.712l-5.728,0l0,15.712l-3.392,0l0,-15.712l-4.089,0l0,29.466l5.284,0l0,16.671l9.69,0l0,8.872l36.526,0l0,-8.872l9.821,0l0,-16.671l6.153,0l0,-29.466Z" style="fill:#0c234e;stroke-width:1.5px;stroke-linejoin:miter;stroke:#000;"/><rect x="845.234" y="782.149" width="36.431" height="5.249" style="fill:#11110f;stroke-width:1.5px;stroke-linejoin:miter;stroke:#000;"/><path d="M897.663,736.012l-6.148,0l0,15.712l-2.635,0l0,-15.712l-6.147,0l0,15.712l-2.765,0l0,-15.712l-6.316,0l0,15.712l-2.484,0l0,-15.712l-6.438,0l0,15.712l-3.407,0l0,-15.712l-5.664,0l0,15.712l-3.218,0l0,-15.712l-5.765,0l0,15.712l-3.278,0l0,-15.712l-5.728,0l0,15.712l-3.392,0l0,-15.712l-4.089,0l0,13.142l4.089,0l0,2.57l3.392,0l0,-2.57l5.728,0l0,2.57l3.278,0l0,-2.57l5.765,0l0,2.57l3.218,0l0,-2.57l5.664,0l0,2.57l3.407,0l0,-2.57l6.438,0l0,2.57l2.484,0l0,-2.57l6.316,0l0,2.57l2.765,0l0,-2.57l6.147,0l0,2.57l2.635,0l0,-2.57l6.148,0l0,-13.142Z" style="fill:#000510;stroke-width:1.5px;stroke-linejoin:miter;stroke:#000;"/><path d="M819.135,717.554c0,8.276 4.632,12.974 11.268,12.974l66.852,0c6.281,0 11.374,-4.832 11.374,-12.974l-89.494,0Z" style="fill:#0a1b42;"/><g id="kontakte3"><g id="kontakt16"><path d="M830.273,695.074l0,46.757c0,1.15 4.022,1.015 4.022,0l0,-46.757l-4.022,0Z" style="fill:#52514f;stroke-width:1px;stroke-linejoin:miter;stroke:#000;"/><path d="M830.273,694.557l0,9.507c1.367,1.093 2.738,1.015 4.022,0l0,-9.507c0,-2.033 -4.022,-2.099 -4.022,0Z" style="fill:#929292;stroke-width:1px;stroke-linejoin:miter;stroke:#000;"/></g><g id="kontakt17"><path d="M838.6,695.074l0,46.757c0,1.15 4.022,1.015 4.022,0l0,-46.757l-4.022,0Z" style="fill:#52514f;stroke-width:1px;stroke-linejoin:miter;stroke:#000;"/><path d="M838.6,694.557l0,9.507c1.367,1.093 2.738,1.015 4.022,0l0,-9.507c0,-2.033 -4.022,-2.099 -4.022,0Z" style="fill:#929292;stroke-width:1px;stroke-linejoin:miter;stroke:#000;"/></g><g id="kontakt18"><path d="M847.579,695.074l0,46.757c0,1.15 4.021,1.015 4.021,0l0,-46.757l-4.021,0Z" style="fill:#52514f;stroke-width:1px;stroke-linejoin:miter;stroke:#000;"/><path d="M847.579,694.557l0,9.507c1.367,1.093 2.738,1.015 4.021,0l0,-9.507c0,-2.033 -4.021,-2.099 -4.021,0Z" style="fill:#929292;stroke-width:1px;stroke-linejoin:miter;stroke:#000;"/></g><g id="kontakt19"><path d="M856.593,695.074l0,46.757c0,1.15 4.021,1.015 4.021,0l0,-46.757l-4.021,0Z" style="fill:#52514f;stroke-width:1px;stroke-linejoin:miter;stroke:#000;"/><path d="M856.593,694.557l0,9.507c1.366,1.093 2.737,1.015 4.021,0l0,-9.507c0,-2.033 -4.021,-2.099 -4.021,0Z" style="fill:#929292;stroke-width:1px;stroke-linejoin:miter;stroke:#000;"/></g><g id="kontakt20"><path d="M866.11,695.074l0,46.757c0,1.15 4.021,1.015 4.021,0l0,-46.757l-4.021,0Z" style="fill:#52514f;stroke-width:1px;stroke-linejoin:miter;stroke:#000;"/><path d="M866.11,694.557l0,9.507c1.366,1.093 2.737,1.015 4.021,0l0,-9.507c0,-2.033 -4.021,-2.099 -4.021,0Z" style="fill:#929292;stroke-width:1px;stroke-linejoin:miter;stroke:#000;"/></g><g id="kontakt21"><path d="M875.352,695.074l0,46.757c0,1.15 4.021,1.015 4.021,0l0,-46.757l-4.021,0Z" style="fill:#52514f;stroke-width:1px;stroke-linejoin:miter;stroke:#000;"/><path d="M875.352,694.557l0,9.507c1.367,1.093 2.738,1.015 4.021,0l0,-9.507c0,-2.033 -4.021,-2.099 -4.021,0Z" style="fill:#929292;stroke-width:1px;stroke-linejoin:miter;stroke:#000;"/></g><g id="kontakt22"><path d="M884.348,695.074l0,46.757c0,1.15 4.021,1.015 4.021,0l0,-46.757l-4.021,0Z" style="fill:#52514f;stroke-width:1px;stroke-linejoin:miter;stroke:#000;"/><path d="M884.348,694.557l0,9.507c1.366,1.093 2.737,1.015 4.021,0l0,-9.507c0,-2.033 -4.021,-2.099 -4.021,0Z" style="fill:#929292;stroke-width:1px;stroke-linejoin:miter;stroke:#000;"/></g><g id="kontakt23"><path d="M893.222,695.074l0,46.757c0,1.15 4.021,1.015 4.021,0l0,-46.757l-4.021,0Z" style="fill:#52514f;stroke-width:1px;stroke-linejoin:miter;stroke:#000;"/><path d="M893.222,694.557l0,9.507c1.367,1.093 2.738,1.015 4.021,0l0,-9.507c0,-2.033 -4.021,-2.099 -4.021,0Z" style="fill:#929292;stroke-width:1px;stroke-linejoin:miter;stroke:#000;"/></g></g></g></g><g id="power1"><path d="M966.523,743.088c-3.142,-22.658 11.98,-38.057 30.635,-38.25c17.905,-0.184 32.852,14.964 29.966,38.25c-4.031,32.523 -56.233,31.494 -60.601,0Z" style="fill:#ababa8;stroke-width:0.9px;stroke:#000;"/><path d="M969.478,741.769c0.717,-15.715 9.025,-30.371 27.68,-30.564c17.905,-0.184 26.299,13.347 27.232,30.564c-4.031,33.676 -50.382,33.255 -54.912,0Z" style="fill:#5f5f5d;stroke-width:0.9px;stroke:#000;"/><path d="M969.478,741.769c10.609,-26.731 44.658,-27.152 54.912,0c-4.031,33.676 -50.382,33.255 -54.912,0Z" style="fill:#72716f;stroke-width:0.9px;stroke:#000;"/><g><path d="M988.559,739.742l16.963,0l0,13.112c-4.373,7.072 -14.222,6.724 -16.963,0l0,-13.112Z" style="fill:#575656;stroke-width:0.9px;stroke-linejoin:miter;stroke:#000;"/><path d="M988.559,739.742c-0.346,12.189 17.474,11.469 16.963,0c-0.494,-11.078 -16.671,-10.298 -16.963,0Z" style="fill:#a1a09f;stroke-width:0.9px;stroke-linejoin:miter;stroke:#000;"/><ellipse cx="997.031" cy="739.897" rx="5.492" ry="4.108" style="fill:#7b7b7b;stroke-width:0.9px;stroke-linejoin:miter;stroke:#000;"/></g></g><g id="reset"><ellipse cx="268.131" cy="740.421" rx="9.912" ry="10.166" style="fill:#7b7b7b;stroke-width:0.9px;stroke:#000;"/><ellipse cx="268.093" cy="741.868" rx="9.291" ry="8.853" style="fill:#000;stroke-width:0.9px;stroke:#000;"/></g></svg>