<?xml version="1.0" standalone="no"?>
<!DOCTYPE svg PUBLIC "-//W3C//DTD SVG 1.1//EN" "http://www.w3.org/Graphics/SVG/1.1/DTD/svg11.dtd">
<svg width="100%" height="100%" viewBox="0 0 7112 6389" version="1.1" xmlns="http://www.w3.org/2000/svg" xmlns:xlink="http://www.w3.org/1999/xlink" xml:space="preserve" style="fill-rule:evenodd;clip-rule:evenodd;stroke-linecap:round;stroke-linejoin:round;stroke-miterlimit:1.41421;">
    <g transform="matrix(5.55556,0,0,5.55556,-0,-0)">
        <g id="Hülle" transform="matrix(1.21498,0,0,1,-118.409,6.44044)">
            <path d="M107.574,967.609C108.393,949.882 115.927,930.27 138.014,929.154C138.306,929.14 140.176,917.687 166.992,915.41C168.025,915.323 177.378,905.591 196.186,906.62C220.56,907.953 245.162,899.598 268.787,892.921C293.547,885.924 400.795,874.774 651.017,873.669C684.717,873.52 938.894,879.293 967.009,892.921C998.897,908.378 1048.83,895.395 1078.48,915.41C1079.75,916.266 1089.83,911.136 1104.98,929.154C1105.06,929.252 1131.78,928.969 1137.78,967.609C1139.86,981.07 1073.62,1058.46 1033.07,1066.4C995.821,1073.7 976.43,1076.53 950.875,1076.6C938.538,1076.64 530.693,1081.34 324.123,1076.6C285.238,1075.71 222.811,1076.26 187.828,1056.84C148.692,1035.11 117.752,989.547 114.447,984.348C111.934,980.395 107.574,967.609 107.574,967.609Z" style="fill:rgb(64,64,64);stroke-width:2.7px;stroke:black;"/>
            <path d="M108.108,968.184L197.281,968.184L197.281,948.792L436.05,948.792C440.493,948.792 965.8,948.718 970.394,948.792" style="fill:none;stroke-width:2.7px;stroke:black;"/>
            <path d="M197.213,968.193C194.772,1080.46 296.422,1063.71 661.863,1065.79C910.067,1067.2 1046.88,1068.39 1041.62,968.44" style="fill:none;stroke-width:2.7px;stroke:black;"/>
            <path d="M1137.38,968.435L1041.57,968.435L1041.57,948.792L970.394,948.792" style="fill:none;stroke-width:2.7px;stroke:black;"/>
        </g>
        <g id="WAN" transform="matrix(1,0,0,1,44.9982,6.44669)">
            <path d="M430.126,958.534L520.049,958.534L520.049,1035.48L430.126,1035.48L430.126,958.534" style="fill:rgb(0,158,224);stroke-width:1px;stroke:black;"/>
            <path d="M463.538,961.757L487.377,961.757L487.377,969.841L494.601,969.841L494.601,977.802L508.571,977.802L508.571,989.68L513.332,989.68L513.332,1005.6L508.571,1005.6L508.571,1018.27L440.482,1018.27L440.482,1005.6L437.015,1005.6L437.015,989.68L440.482,989.68L440.482,977.802L455.182,977.802L455.182,969.841L463.538,969.841L463.538,961.757" style="fill:rgb(166,229,255);stroke-width:1px;stroke:black;"/>
            <rect x="436.816" y="989.68" width="9.385" height="15.92" style="fill:black;stroke-width:1px;stroke:black;"/>
            <g transform="matrix(1,0,0,1,67.0669,-0.0235958)">
                <rect x="436.816" y="989.68" width="9.385" height="15.92" style="fill:black;stroke-width:1px;stroke:black;"/>
            </g>
            <path d="M450.462,1000.22L450.462,1012.69" style="fill:none;stroke-width:1px;stroke:black;"/>
            <g transform="matrix(1,0,0,1,5.18811,0.142889)">
                <path d="M450.462,1000.22L450.462,1012.69" style="fill:none;stroke-width:1px;stroke:black;"/>
            </g>
            <g transform="matrix(1,0,0,1,10.8216,0.142889)">
                <path d="M450.462,1000.22L450.462,1012.69" style="fill:none;stroke-width:1px;stroke:black;"/>
            </g>
            <g transform="matrix(1,0,0,1,22.0044,0.291919)">
                <path d="M450.462,1000.07L450.462,1012.69" style="fill:none;stroke-width:1px;stroke:black;"/>
            </g>
            <g transform="matrix(1,0,0,1,27.0496,0.291919)">
                <path d="M450.462,1000.05L450.462,1012.69" style="fill:none;stroke-width:1px;stroke:black;"/>
            </g>
            <g transform="matrix(1,0,0,1,49.4509,0.192566)">
                <path d="M450.462,1000.16L450.462,1012.69" style="fill:none;stroke-width:1px;stroke:black;"/>
            </g>
            <path d="M466.922,1000.38L466.922,1018.21" style="fill:none;stroke-width:1px;stroke:black;"/>
            <g transform="matrix(1,0,0,1,16.0399,-0.0558162)">
                <path d="M466.922,1000.41L466.922,1018.27" style="fill:none;stroke-width:1px;stroke:black;"/>
            </g>
            <g transform="matrix(1,0,0,1,21.7443,-0.154611)">
                <path d="M466.922,1000.5L466.922,1018.4" style="fill:none;stroke-width:1px;stroke:black;"/>
            </g>
            <g transform="matrix(1,0,0,1,27.6257,-0.353316)">
                <path d="M466.922,1000.67L466.922,1018.4" style="fill:none;stroke-width:1px;stroke:black;"/>
            </g>
        </g>
        <g id="lan4" transform="matrix(1,0,0,1,156.434,6.24833)">
            <g transform="matrix(3.73365,0,0,1,-1085.67,-0.000264784)">
                <path d="M430.126,958.534L520.049,958.534L520.049,1035.48L430.126,1035.48L430.126,958.534" style="fill:rgb(255,180,0);stroke-width:0.37px;stroke:black;"/>
            </g>
            <g transform="matrix(1,0,0,1,93.3029,-0.747357)">
                <path d="M463.538,961.757L487.377,961.757L487.377,969.841L494.601,969.841L494.601,977.802L508.571,977.802L508.571,989.68L513.332,989.68L513.332,1005.6L508.571,1005.6L508.571,1018.27L440.482,1018.27L440.482,1005.6L437.015,1005.6L437.015,989.68L440.482,989.68L440.482,977.802L455.182,977.802L455.182,969.841L463.538,969.841L463.538,961.757" style="fill:rgb(255,225,153);stroke-width:1px;stroke:black;"/>
            </g>
            <g transform="matrix(1,0,0,1,172.876,-0.661805)">
                <path d="M463.538,961.757L487.377,961.757L487.377,969.841L494.601,969.841L494.601,977.802L508.571,977.802L508.571,989.68L513.332,989.68L513.332,1005.6L508.571,1005.6L508.571,1018.27L440.482,1018.27L440.482,1005.6L437.015,1005.6L437.015,989.68L440.482,989.68L440.482,977.802L455.182,977.802L455.182,969.841L463.538,969.841L463.538,961.757" style="fill:rgb(255,225,153);stroke-width:1px;stroke:black;"/>
            </g>
            <g transform="matrix(1,0,0,1,252.488,-0.755912)">
                <path d="M463.538,961.757L487.377,961.757L487.377,969.841L494.601,969.841L494.601,977.802L508.571,977.802L508.571,989.68L513.332,989.68L513.332,1005.6L508.571,1005.6L508.571,1018.27L440.482,1018.27L440.482,1005.6L437.015,1005.6L437.015,989.68L440.482,989.68L440.482,977.802L455.182,977.802L455.182,969.841L463.538,969.841L463.538,961.757" style="fill:rgb(255,225,153);stroke-width:1px;stroke:black;"/>
            </g>
            <g transform="matrix(1,0,0,1,332.053,-0.509522)">
                <path d="M463.538,961.757L487.377,961.757L487.377,969.841L494.601,969.841L494.601,977.802L508.571,977.802L508.571,989.68L513.332,989.68L513.332,1005.6L508.571,1005.6L508.571,1018.27L440.482,1018.27L440.482,1005.6L437.015,1005.6L437.015,989.68L440.482,989.68L440.482,977.802L455.182,977.802L455.182,969.841L463.538,969.841L463.538,961.757" style="fill:rgb(255,225,153);stroke-width:1px;stroke:black;"/>
            </g>
            <g transform="matrix(1,0,0,1,93.3029,-0.747357)">
                <rect x="436.816" y="989.68" width="9.385" height="15.92" style="fill:black;stroke-width:1px;stroke:black;"/>
            </g>
            <g transform="matrix(1,0,0,1,172.876,-0.661805)">
                <rect x="436.816" y="989.68" width="9.385" height="15.92" style="fill:black;stroke-width:1px;stroke:black;"/>
            </g>
            <g transform="matrix(1,0,0,1,252.488,-0.755912)">
                <rect x="436.816" y="989.68" width="9.385" height="15.92" style="fill:black;stroke-width:1px;stroke:black;"/>
            </g>
            <g transform="matrix(1,0,0,1,332.053,-0.509522)">
                <rect x="436.816" y="989.68" width="9.385" height="15.92" style="fill:black;stroke-width:1px;stroke:black;"/>
            </g>
            <g transform="matrix(1,0,0,1,160.37,-0.770952)">
                <rect x="436.816" y="989.68" width="9.385" height="15.92" style="fill:black;stroke-width:1px;stroke:black;"/>
            </g>
            <g transform="matrix(1,0,0,1,239.942,-0.685401)">
                <rect x="436.816" y="989.68" width="9.385" height="15.92" style="fill:black;stroke-width:1px;stroke:black;"/>
            </g>
            <g transform="matrix(1,0,0,1,319.555,-0.779508)">
                <rect x="436.816" y="989.68" width="9.385" height="15.92" style="fill:black;stroke-width:1px;stroke:black;"/>
            </g>
            <g transform="matrix(1,0,0,1,399.12,-0.533118)">
                <rect x="436.816" y="989.68" width="9.385" height="15.92" style="fill:black;stroke-width:1px;stroke:black;"/>
            </g>
            <g transform="matrix(1,0,0,1,93.3029,-0.747357)">
                <path d="M450.462,1000.22L450.462,1012.69" style="fill:none;stroke-width:1px;stroke:black;"/>
            </g>
            <g transform="matrix(1,0,0,1,172.876,-0.661805)">
                <path d="M450.462,1000.22L450.462,1012.69" style="fill:none;stroke-width:1px;stroke:black;"/>
            </g>
            <g transform="matrix(1,0,0,1,252.488,-0.755912)">
                <path d="M450.462,1000.22L450.462,1012.69" style="fill:none;stroke-width:1px;stroke:black;"/>
            </g>
            <g transform="matrix(1,0,0,1,332.053,-0.509522)">
                <path d="M450.462,1000.22L450.462,1012.69" style="fill:none;stroke-width:1px;stroke:black;"/>
            </g>
            <g transform="matrix(1,0,0,1,98.491,-0.604467)">
                <path d="M450.462,1000.22L450.462,1012.69" style="fill:none;stroke-width:1px;stroke:black;"/>
            </g>
            <g transform="matrix(1,0,0,1,178.064,-0.518915)">
                <path d="M450.462,1000.22L450.462,1012.69" style="fill:none;stroke-width:1px;stroke:black;"/>
            </g>
            <g transform="matrix(1,0,0,1,257.676,-0.613022)">
                <path d="M450.462,1000.22L450.462,1012.69" style="fill:none;stroke-width:1px;stroke:black;"/>
            </g>
            <g transform="matrix(1,0,0,1,337.242,-0.366633)">
                <path d="M450.462,1000.22L450.462,1012.69" style="fill:none;stroke-width:1px;stroke:black;"/>
            </g>
            <g transform="matrix(1,0,0,1,104.125,-0.604467)">
                <path d="M450.462,1000.22L450.462,1012.69" style="fill:none;stroke-width:1px;stroke:black;"/>
            </g>
            <g transform="matrix(1,0,0,1,183.697,-0.518915)">
                <path d="M450.462,1000.22L450.462,1012.69" style="fill:none;stroke-width:1px;stroke:black;"/>
            </g>
            <g transform="matrix(1,0,0,1,263.309,-0.613022)">
                <path d="M450.462,1000.22L450.462,1012.69" style="fill:none;stroke-width:1px;stroke:black;"/>
            </g>
            <g transform="matrix(1,0,0,1,342.875,-0.366633)">
                <path d="M450.462,1000.22L450.462,1012.69" style="fill:none;stroke-width:1px;stroke:black;"/>
            </g>
            <g transform="matrix(1,0,0,1,115.307,-0.455438)">
                <path d="M450.462,1000.07L450.462,1012.69" style="fill:none;stroke-width:1px;stroke:black;"/>
            </g>
            <g transform="matrix(1,0,0,1,194.88,-0.369886)">
                <path d="M450.462,1000.07L450.462,1012.69" style="fill:none;stroke-width:1px;stroke:black;"/>
            </g>
            <g transform="matrix(1,0,0,1,274.492,-0.463993)">
                <path d="M450.462,1000.07L450.462,1012.69" style="fill:none;stroke-width:1px;stroke:black;"/>
            </g>
            <g transform="matrix(1,0,0,1,354.058,-0.217604)">
                <path d="M450.462,1000.07L450.462,1012.69" style="fill:none;stroke-width:1px;stroke:black;"/>
            </g>
            <g transform="matrix(1,0,0,1,120.353,-0.455438)">
                <path d="M450.462,1000.05L450.462,1012.69" style="fill:none;stroke-width:1px;stroke:black;"/>
            </g>
            <g transform="matrix(1,0,0,1,199.925,-0.369886)">
                <path d="M450.462,1000.05L450.462,1012.69" style="fill:none;stroke-width:1px;stroke:black;"/>
            </g>
            <g transform="matrix(1,0,0,1,279.537,-0.463993)">
                <path d="M450.462,1000.05L450.462,1012.69" style="fill:none;stroke-width:1px;stroke:black;"/>
            </g>
            <g transform="matrix(1,0,0,1,359.103,-0.217604)">
                <path d="M450.462,1000.05L450.462,1012.69" style="fill:none;stroke-width:1px;stroke:black;"/>
            </g>
            <g transform="matrix(1,0,0,1,142.754,-0.554791)">
                <path d="M450.462,1000.16L450.462,1012.69" style="fill:none;stroke-width:1px;stroke:black;"/>
            </g>
            <g transform="matrix(1,0,0,1,222.326,-0.469239)">
                <path d="M450.462,1000.16L450.462,1012.69" style="fill:none;stroke-width:1px;stroke:black;"/>
            </g>
            <g transform="matrix(1,0,0,1,301.939,-0.563346)">
                <path d="M450.462,1000.16L450.462,1012.69" style="fill:none;stroke-width:1px;stroke:black;"/>
            </g>
            <g transform="matrix(1,0,0,1,381.504,-0.316957)">
                <path d="M450.462,1000.16L450.462,1012.69" style="fill:none;stroke-width:1px;stroke:black;"/>
            </g>
            <g transform="matrix(1,0,0,1,93.3029,-0.747357)">
                <path d="M466.922,1000.38L466.922,1018.21" style="fill:none;stroke-width:1px;stroke:black;"/>
            </g>
            <g transform="matrix(1,0,0,1,172.876,-0.661805)">
                <path d="M466.922,1000.38L466.922,1018.21" style="fill:none;stroke-width:1px;stroke:black;"/>
            </g>
            <g transform="matrix(1,0,0,1,252.488,-0.755912)">
                <path d="M466.922,1000.38L466.922,1018.21" style="fill:none;stroke-width:1px;stroke:black;"/>
            </g>
            <g transform="matrix(1,0,0,1,332.053,-0.509522)">
                <path d="M466.922,1000.38L466.922,1018.21" style="fill:none;stroke-width:1px;stroke:black;"/>
            </g>
            <g transform="matrix(1,0,0,1,109.343,-0.803173)">
                <path d="M466.922,1000.41L466.922,1018.27" style="fill:none;stroke-width:1px;stroke:black;"/>
            </g>
            <g transform="matrix(1,0,0,1,188.915,-0.717621)">
                <path d="M466.922,1000.41L466.922,1018.27" style="fill:none;stroke-width:1px;stroke:black;"/>
            </g>
            <g transform="matrix(1,0,0,1,268.528,-0.811728)">
                <path d="M466.922,1000.41L466.922,1018.27" style="fill:none;stroke-width:1px;stroke:black;"/>
            </g>
            <g transform="matrix(1,0,0,1,348.093,-0.565338)">
                <path d="M466.922,1000.41L466.922,1018.27" style="fill:none;stroke-width:1px;stroke:black;"/>
            </g>
            <g transform="matrix(1,0,0,1,115.047,-0.901967)">
                <path d="M466.922,1000.5L466.922,1018.4" style="fill:none;stroke-width:1px;stroke:black;"/>
            </g>
            <g transform="matrix(1,0,0,1,194.62,-0.816415)">
                <path d="M466.922,1000.5L466.922,1018.4" style="fill:none;stroke-width:1px;stroke:black;"/>
            </g>
            <g transform="matrix(1,0,0,1,274.232,-0.910523)">
                <path d="M466.922,1000.5L466.922,1018.4" style="fill:none;stroke-width:1px;stroke:black;"/>
            </g>
            <g transform="matrix(1,0,0,1,353.798,-0.664133)">
                <path d="M466.922,1000.5L466.922,1018.4" style="fill:none;stroke-width:1px;stroke:black;"/>
            </g>
            <g transform="matrix(1,0,0,1,120.929,-1.10067)">
                <path d="M466.922,1000.67L466.922,1018.4" style="fill:none;stroke-width:1px;stroke:black;"/>
            </g>
            <g transform="matrix(1,0,0,1,200.501,-1.01512)">
                <path d="M466.922,1000.67L466.922,1018.4" style="fill:none;stroke-width:1px;stroke:black;"/>
            </g>
            <g transform="matrix(1,0,0,1,280.113,-1.10923)">
                <path d="M466.922,1000.67L466.922,1018.4" style="fill:none;stroke-width:1px;stroke:black;"/>
            </g>
            <g transform="matrix(1,0,0,1,359.679,-0.862839)">
                <path d="M466.922,1000.67L466.922,1018.4" style="fill:none;stroke-width:1px;stroke:black;"/>
            </g>
        </g>
        <g id="Beschriftung">
            <g transform="matrix(1,0,0,1,-175.785,10.0869)">
                <path d="M413.154,1042.05L413.154,1040.21C413.154,1040.03 413.122,1039.91 413.06,1039.85C412.997,1039.79 412.874,1039.76 412.692,1039.76L412.627,1039.76L412.627,1042.49L412.724,1042.49C412.889,1042.49 413.002,1042.45 413.062,1042.39C413.123,1042.32 413.154,1042.21 413.154,1042.05ZM411.043,1046.67L411.043,1038.75L412.891,1038.75C413.524,1038.75 413.989,1038.87 414.284,1039.1C414.58,1039.33 414.727,1039.69 414.727,1040.19L414.727,1041.88C414.727,1042.49 414.582,1042.93 414.29,1043.19C413.998,1043.45 413.506,1043.59 412.815,1043.59L412.627,1043.59L412.627,1046.67L411.043,1046.67Z" style="fill:black;fill-rule:nonzero;"/>
                <path d="M415.071,1040.63C415.071,1039.89 415.214,1039.36 415.501,1039.05C415.787,1038.74 416.26,1038.58 416.919,1038.58C417.578,1038.58 418.05,1038.74 418.337,1039.05C418.623,1039.36 418.767,1039.88 418.767,1040.63L418.767,1044.81C418.767,1045.55 418.624,1046.07 418.34,1046.38C418.055,1046.7 417.581,1046.85 416.919,1046.85C416.256,1046.85 415.783,1046.7 415.498,1046.38C415.214,1046.07 415.071,1045.55 415.071,1044.81L415.071,1040.63ZM416.656,1040.1L416.656,1045.27C416.656,1045.41 416.676,1045.51 416.717,1045.57C416.759,1045.62 416.826,1045.65 416.919,1045.65C417.019,1045.65 417.09,1045.62 417.131,1045.56C417.172,1045.5 417.193,1045.4 417.193,1045.27L417.193,1040.1C417.193,1039.95 417.172,1039.86 417.131,1039.8C417.09,1039.74 417.019,1039.71 416.919,1039.71C416.826,1039.71 416.759,1039.74 416.717,1039.81C416.676,1039.87 416.656,1039.96 416.656,1040.1Z" style="fill:black;fill-rule:nonzero;"/>
                <path d="M419.9,1046.67L419.11,1038.75L420.7,1038.75L420.888,1041.78C420.906,1042.04 420.921,1042.33 420.934,1042.65C420.946,1042.97 420.962,1043.42 420.979,1044.02L421.033,1044.02C421.058,1043.67 421.084,1043.34 421.111,1043.03C421.138,1042.71 421.164,1042.45 421.189,1042.24L421.602,1038.75L423.278,1038.75L423.606,1042.49C423.609,1042.55 423.626,1042.76 423.654,1043.11C423.683,1043.45 423.708,1043.76 423.729,1044.02L423.783,1044.02C423.797,1043.58 423.814,1043.18 423.834,1042.81C423.854,1042.43 423.876,1042.08 423.901,1041.73L424.148,1038.75L425.475,1038.75L424.621,1046.67L422.795,1046.67L422.397,1042.43C422.383,1042.28 422.37,1042.1 422.357,1041.9C422.345,1041.7 422.333,1041.45 422.322,1041.13L422.263,1041.13L421.705,1046.67L419.9,1046.67Z" style="fill:black;fill-rule:nonzero;"/>
                <path d="M425.894,1046.67L425.894,1038.75L428.843,1038.75L428.843,1039.85L427.478,1039.85L427.478,1041.68L428.81,1041.68L428.81,1042.82L427.478,1042.82L427.478,1045.48L428.843,1045.48L428.843,1046.67L425.894,1046.67Z" style="fill:black;fill-rule:nonzero;"/>
                <path d="M431.383,1041.47L431.383,1040.21C431.383,1040.03 431.348,1039.91 431.278,1039.85C431.209,1039.79 431.068,1039.76 430.857,1039.76L430.857,1041.92L430.943,1041.92C431.107,1041.92 431.222,1041.89 431.287,1041.82C431.351,1041.76 431.383,1041.64 431.383,1041.47ZM429.272,1046.67L429.272,1038.75L431.12,1038.75C431.765,1038.75 432.232,1038.87 432.522,1039.09C432.812,1039.32 432.957,1039.68 432.957,1040.19L432.957,1041.02C432.957,1041.43 432.855,1041.75 432.651,1041.97C432.447,1042.2 432.142,1042.32 431.738,1042.34L431.738,1042.38C432.189,1042.41 432.505,1042.52 432.686,1042.72C432.867,1042.91 432.957,1043.25 432.957,1043.71L432.957,1045.73C432.957,1045.89 432.969,1046.05 432.995,1046.21C433.02,1046.38 433.055,1046.53 433.102,1046.67L431.539,1046.67C431.489,1046.54 431.45,1046.39 431.423,1046.22C431.397,1046.05 431.383,1045.88 431.383,1045.69L431.383,1045.4L431.383,1043.67C431.383,1043.45 431.341,1043.28 431.257,1043.17C431.173,1043.06 431.047,1043 430.878,1043L430.857,1043L430.857,1046.67L429.272,1046.67Z" style="fill:black;fill-rule:nonzero;"/>
                <path d="M485.089,1040.63C485.089,1039.89 485.232,1039.36 485.519,1039.05C485.805,1038.74 486.278,1038.58 486.937,1038.58C487.596,1038.58 488.068,1038.74 488.355,1039.05C488.641,1039.36 488.785,1039.88 488.785,1040.63L488.785,1044.81C488.785,1045.55 488.642,1046.07 488.358,1046.38C488.073,1046.7 487.599,1046.85 486.937,1046.85C486.274,1046.85 485.801,1046.7 485.516,1046.38C485.232,1046.07 485.089,1045.55 485.089,1044.81L485.089,1040.63ZM486.674,1040.1L486.674,1045.27C486.674,1045.41 486.694,1045.51 486.736,1045.57C486.777,1045.62 486.844,1045.65 486.937,1045.65C487.037,1045.65 487.108,1045.62 487.149,1045.56C487.19,1045.5 487.211,1045.4 487.211,1045.27L487.211,1040.1C487.211,1039.95 487.19,1039.86 487.149,1039.8C487.108,1039.74 487.037,1039.71 486.937,1039.71C486.844,1039.71 486.777,1039.74 486.736,1039.81C486.694,1039.87 486.674,1039.96 486.674,1040.1Z" style="fill:black;fill-rule:nonzero;"/>
                <path d="M489.246,1046.67L489.246,1038.75L491.416,1038.75L491.975,1042.11C492.025,1042.41 492.068,1042.75 492.104,1043.12C492.14,1043.49 492.17,1043.92 492.195,1044.4L492.26,1044.4C492.235,1043.84 492.216,1043.35 492.203,1042.93C492.191,1042.52 492.184,1042.22 492.184,1042.03L492.174,1038.75L493.414,1038.75L493.414,1046.67L491.556,1046.67L490.745,1042.37C490.713,1042.2 490.673,1041.95 490.624,1041.61C490.576,1041.27 490.527,1040.9 490.476,1040.49L490.434,1040.49C490.455,1040.82 490.472,1041.11 490.485,1041.36C490.497,1041.6 490.503,1041.81 490.503,1041.96L490.503,1046.67L489.246,1046.67Z" style="fill:black;fill-rule:nonzero;"/>
                <path d="M494.725,1047.69L493.909,1047.69L495.649,1038.58L496.46,1038.58L494.725,1047.69Z" style="fill:black;fill-rule:nonzero;"/>
                <path d="M496.933,1040.63C496.933,1039.89 497.076,1039.36 497.362,1039.05C497.649,1038.74 498.121,1038.58 498.78,1038.58C499.439,1038.58 499.912,1038.74 500.198,1039.05C500.485,1039.36 500.628,1039.88 500.628,1040.63L500.628,1044.81C500.628,1045.55 500.486,1046.07 500.201,1046.38C499.916,1046.7 499.443,1046.85 498.78,1046.85C498.118,1046.85 497.644,1046.7 497.36,1046.38C497.075,1046.07 496.933,1045.55 496.933,1044.81L496.933,1040.63ZM498.517,1040.1L498.517,1045.27C498.517,1045.41 498.538,1045.51 498.579,1045.57C498.62,1045.62 498.687,1045.65 498.78,1045.65C498.88,1045.65 498.951,1045.62 498.992,1045.56C499.034,1045.5 499.054,1045.4 499.054,1045.27L499.054,1040.1C499.054,1039.95 499.034,1039.86 498.992,1039.8C498.951,1039.74 498.88,1039.71 498.78,1039.71C498.687,1039.71 498.62,1039.74 498.579,1039.81C498.538,1039.87 498.517,1039.96 498.517,1040.1Z" style="fill:black;fill-rule:nonzero;"/>
                <path d="M501.122,1046.67L501.122,1038.75L504.071,1038.75L504.071,1039.85L502.706,1039.85L502.706,1041.68L504.038,1041.68L504.038,1042.82L502.706,1042.82L502.706,1046.67L501.122,1046.67Z" style="fill:black;fill-rule:nonzero;"/>
                <path d="M504.49,1046.67L504.49,1038.75L507.438,1038.75L507.438,1039.85L506.074,1039.85L506.074,1041.68L507.406,1041.68L507.406,1042.82L506.074,1042.82L506.074,1046.67L504.49,1046.67Z" style="fill:black;fill-rule:nonzero;"/>
                <path d="M556.673,1041.47L556.673,1040.21C556.673,1040.03 556.638,1039.91 556.568,1039.85C556.498,1039.79 556.358,1039.76 556.146,1039.76L556.146,1041.92L556.232,1041.92C556.397,1041.92 556.512,1041.89 556.576,1041.82C556.641,1041.76 556.673,1041.64 556.673,1041.47ZM554.562,1046.67L554.562,1038.75L556.41,1038.75C557.054,1038.75 557.521,1038.87 557.811,1039.09C558.101,1039.32 558.246,1039.68 558.246,1040.19L558.246,1041.02C558.246,1041.43 558.144,1041.75 557.94,1041.97C557.736,1042.2 557.432,1042.32 557.027,1042.34L557.027,1042.38C557.478,1042.41 557.794,1042.52 557.975,1042.72C558.156,1042.91 558.246,1043.25 558.246,1043.71L558.246,1045.73C558.246,1045.89 558.259,1046.05 558.284,1046.21C558.309,1046.38 558.345,1046.53 558.392,1046.67L556.829,1046.67C556.778,1046.54 556.74,1046.39 556.713,1046.22C556.686,1046.05 556.673,1045.88 556.673,1045.69L556.673,1045.4L556.673,1043.67C556.673,1043.45 556.631,1043.28 556.547,1043.17C556.462,1043.06 556.336,1043 556.168,1043L556.146,1043L556.146,1046.67L554.562,1046.67Z" style="fill:black;fill-rule:nonzero;"/>
                <path d="M558.665,1046.67L558.665,1038.75L561.614,1038.75L561.614,1039.85L560.25,1039.85L560.25,1041.68L561.582,1041.68L561.582,1042.82L560.25,1042.82L560.25,1045.48L561.614,1045.48L561.614,1046.67L558.665,1046.67Z" style="fill:black;fill-rule:nonzero;"/>
                <path d="M561.969,1040.17C561.969,1039.67 562.131,1039.28 562.455,1039C562.779,1038.72 563.233,1038.58 563.816,1038.58C564.404,1038.58 564.857,1038.72 565.175,1039C565.494,1039.28 565.653,1039.68 565.653,1040.21L565.653,1041.5L564.08,1041.5L564.08,1040.1C564.08,1039.95 564.06,1039.85 564.02,1039.8C563.981,1039.74 563.913,1039.71 563.816,1039.71C563.716,1039.71 563.645,1039.74 563.604,1039.8C563.563,1039.86 563.542,1039.96 563.542,1040.1L563.542,1040.8C563.542,1040.92 563.558,1041.02 563.588,1041.11C563.618,1041.19 563.668,1041.28 563.736,1041.36L565.256,1043.03C565.399,1043.19 565.501,1043.35 565.562,1043.52C565.623,1043.69 565.653,1043.97 565.653,1044.34L565.653,1045.27C565.653,1045.78 565.493,1046.17 565.173,1046.44C564.852,1046.71 564.396,1046.85 563.806,1046.85C563.2,1046.85 562.743,1046.71 562.433,1046.42C562.124,1046.14 561.969,1045.71 561.969,1045.15L561.969,1043.67L563.542,1043.67L563.542,1045.27C563.542,1045.4 563.563,1045.5 563.604,1045.56C563.645,1045.62 563.716,1045.65 563.816,1045.65C563.909,1045.65 563.977,1045.62 564.018,1045.57C564.059,1045.51 564.08,1045.41 564.08,1045.27L564.08,1044.43C564.08,1044.32 564.059,1044.21 564.018,1044.11C563.977,1044.01 563.906,1043.9 563.806,1043.79L562.377,1042.17C562.23,1042.01 562.125,1041.84 562.063,1041.68C562,1041.51 561.969,1041.29 561.969,1041.01L561.969,1040.89L561.969,1040.17Z" style="fill:black;fill-rule:nonzero;"/>
                <path d="M566.094,1046.67L566.094,1038.75L569.042,1038.75L569.042,1039.85L567.678,1039.85L567.678,1041.68L569.01,1041.68L569.01,1042.82L567.678,1042.82L567.678,1045.48L569.042,1045.48L569.042,1046.67L566.094,1046.67Z" style="fill:black;fill-rule:nonzero;"/>
                <path d="M570.278,1046.67L570.278,1039.88L569.263,1039.88L569.263,1038.75L572.872,1038.75L572.872,1039.88L571.846,1039.88L571.846,1046.67L570.278,1046.67Z" style="fill:black;fill-rule:nonzero;"/>
                <path d="M613.532,1038.75L613.532,1044.82C613.532,1045.55 613.389,1046.08 613.105,1046.39C612.82,1046.7 612.346,1046.85 611.684,1046.85C611.022,1046.85 610.548,1046.7 610.263,1046.39C609.979,1046.08 609.836,1045.55 609.836,1044.82L609.836,1038.75L611.41,1038.75L611.41,1045.27C611.41,1045.4 611.432,1045.5 611.475,1045.56C611.517,1045.62 611.587,1045.65 611.684,1045.65C611.781,1045.65 611.849,1045.62 611.888,1045.57C611.927,1045.51 611.947,1045.41 611.947,1045.27L611.947,1038.75L613.532,1038.75Z" style="fill:black;fill-rule:nonzero;"/>
                <path d="M613.951,1040.17C613.951,1039.67 614.113,1039.28 614.437,1039C614.761,1038.72 615.215,1038.58 615.798,1038.58C616.385,1038.58 616.838,1038.72 617.157,1039C617.476,1039.28 617.635,1039.68 617.635,1040.21L617.635,1041.5L616.061,1041.5L616.061,1040.1C616.061,1039.95 616.042,1039.85 616.002,1039.8C615.963,1039.74 615.895,1039.71 615.798,1039.71C615.698,1039.71 615.627,1039.74 615.586,1039.8C615.545,1039.86 615.524,1039.96 615.524,1040.1L615.524,1040.8C615.524,1040.92 615.54,1041.02 615.57,1041.11C615.6,1041.19 615.65,1041.28 615.718,1041.36L617.238,1043.03C617.381,1043.19 617.483,1043.35 617.544,1043.52C617.605,1043.69 617.635,1043.97 617.635,1044.34L617.635,1045.27C617.635,1045.78 617.475,1046.17 617.154,1046.44C616.834,1046.71 616.378,1046.85 615.788,1046.85C615.182,1046.85 614.725,1046.71 614.415,1046.42C614.105,1046.14 613.951,1045.71 613.951,1045.15L613.951,1043.67L615.524,1043.67L615.524,1045.27C615.524,1045.4 615.545,1045.5 615.586,1045.56C615.627,1045.62 615.698,1045.65 615.798,1045.65C615.891,1045.65 615.958,1045.62 616,1045.57C616.041,1045.51 616.061,1045.41 616.061,1045.27L616.061,1044.43C616.061,1044.32 616.041,1044.21 616,1044.11C615.958,1044.01 615.888,1043.9 615.788,1043.79L614.359,1042.17C614.212,1042.01 614.107,1041.84 614.045,1041.68C613.982,1041.51 613.951,1041.29 613.951,1041.01L613.951,1040.89L613.951,1040.17Z" style="fill:black;fill-rule:nonzero;"/>
                <path d="M620.186,1045.11L620.186,1043.45C620.186,1043.29 620.153,1043.18 620.087,1043.11C620.021,1043.04 619.907,1043.01 619.746,1043.01L619.66,1043.01L619.66,1045.55L619.746,1045.55C619.907,1045.55 620.021,1045.52 620.087,1045.45C620.153,1045.39 620.186,1045.27 620.186,1045.11ZM620.186,1041.47L620.186,1040.21C620.186,1040.03 620.153,1039.91 620.087,1039.85C620.021,1039.79 619.878,1039.76 619.66,1039.76L619.66,1041.93C619.875,1041.93 620.016,1041.9 620.084,1041.84C620.152,1041.78 620.186,1041.65 620.186,1041.47ZM618.076,1046.67L618.076,1038.75L619.923,1038.75C620.543,1038.75 621.004,1038.86 621.306,1039.09C621.609,1039.31 621.76,1039.65 621.76,1040.11L621.76,1041.04C621.76,1041.47 621.671,1041.78 621.492,1041.98C621.313,1042.18 620.996,1042.33 620.541,1042.41L620.541,1042.46C620.953,1042.49 621.259,1042.62 621.459,1042.83C621.66,1043.04 621.76,1043.34 621.76,1043.74L621.76,1044.96C621.76,1045.58 621.613,1046.03 621.32,1046.29C621.026,1046.55 620.525,1046.67 619.816,1046.67L618.076,1046.67Z" style="fill:black;fill-rule:nonzero;"/>
                <path d="M688.776,1046.67L687.986,1038.75L689.576,1038.75L689.764,1041.78C689.782,1042.04 689.797,1042.33 689.81,1042.65C689.822,1042.97 689.837,1043.42 689.855,1044.02L689.909,1044.02C689.934,1043.67 689.96,1043.34 689.987,1043.03C690.014,1042.71 690.04,1042.45 690.065,1042.24L690.478,1038.75L692.154,1038.75L692.482,1042.49C692.485,1042.55 692.502,1042.76 692.53,1043.11C692.559,1043.45 692.584,1043.76 692.605,1044.02L692.659,1044.02C692.673,1043.58 692.69,1043.18 692.71,1042.81C692.73,1042.43 692.752,1042.08 692.777,1041.73L693.024,1038.75L694.351,1038.75L693.497,1046.67L691.671,1046.67L691.273,1042.43C691.259,1042.28 691.246,1042.1 691.233,1041.9C691.221,1041.7 691.209,1041.45 691.198,1041.13L691.139,1041.13L690.58,1046.67L688.776,1046.67Z" style="fill:black;fill-rule:nonzero;"/>
                <path d="M694.389,1046.67L695.656,1038.75L697.681,1038.75L698.616,1046.67L696.977,1046.67L696.822,1044.56L696.038,1044.56L695.833,1046.67L694.389,1046.67ZM696.161,1043.4L696.746,1043.4L696.569,1040.98C696.559,1040.85 696.55,1040.6 696.542,1040.25C696.539,1040.09 696.537,1039.97 696.537,1039.88L696.478,1039.88C696.464,1040.19 696.451,1040.43 696.44,1040.61C696.43,1040.79 696.421,1040.91 696.413,1040.97L696.161,1043.4Z" style="fill:black;fill-rule:nonzero;"/>
                <path d="M698.922,1046.67L698.922,1038.75L701.092,1038.75L701.65,1042.11C701.7,1042.41 701.743,1042.75 701.779,1043.12C701.815,1043.49 701.845,1043.92 701.871,1044.4L701.935,1044.4C701.91,1043.84 701.891,1043.35 701.879,1042.93C701.866,1042.52 701.86,1042.22 701.86,1042.03L701.849,1038.75L703.09,1038.75L703.09,1046.67L701.231,1046.67L700.42,1042.37C700.388,1042.2 700.348,1041.95 700.299,1041.61C700.251,1041.27 700.202,1040.9 700.152,1040.49L700.109,1040.49C700.13,1040.82 700.147,1041.11 700.16,1041.36C700.172,1041.6 700.179,1041.81 700.179,1041.96L700.179,1046.67L698.922,1046.67Z" style="fill:black;fill-rule:nonzero;"/>
                <path d="M903.202,1046.67L903.202,1040.62L902.332,1040.62L902.332,1039.65L902.37,1039.65C902.674,1039.65 902.929,1039.58 903.135,1039.41C903.341,1039.26 903.474,1039.04 903.535,1038.75L904.776,1038.75L904.776,1046.67L903.202,1046.67Z" style="fill:black;fill-rule:nonzero;"/>
                <path d="M980.272,1040.1C980.272,1039.96 980.251,1039.86 980.208,1039.8C980.165,1039.73 980.099,1039.7 980.009,1039.7C979.913,1039.7 979.844,1039.73 979.805,1039.79C979.766,1039.85 979.746,1039.95 979.746,1040.1L979.746,1041.54L978.183,1041.54L978.183,1040.63C978.183,1039.88 978.325,1039.36 978.61,1039.05C978.895,1038.74 979.368,1038.58 980.031,1038.58C980.65,1038.58 981.113,1038.73 981.419,1039.03C981.725,1039.34 981.878,1039.79 981.878,1040.41C981.878,1041.12 981.499,1042.06 980.74,1043.21C980.593,1043.44 980.482,1043.62 980.407,1043.74C980.138,1044.16 979.955,1044.49 979.859,1044.73C979.762,1044.97 979.714,1045.2 979.714,1045.4C979.714,1045.41 979.716,1045.44 979.719,1045.47C979.723,1045.5 979.725,1045.52 979.725,1045.53L981.889,1045.53L981.889,1046.67L978.172,1046.67L978.172,1045.36C978.172,1045.04 978.23,1044.72 978.344,1044.4C978.459,1044.08 978.691,1043.65 979.042,1043.11C979.121,1042.99 979.234,1042.81 979.381,1042.59C979.975,1041.69 980.272,1041.06 980.272,1040.71L980.272,1040.1Z" style="fill:black;fill-rule:nonzero;"/>
                <path d="M1059.03,1043.56L1060.61,1043.56L1060.61,1045.27C1060.61,1045.4 1060.63,1045.5 1060.67,1045.56C1060.71,1045.62 1060.78,1045.65 1060.88,1045.65C1060.97,1045.65 1061.04,1045.62 1061.08,1045.57C1061.12,1045.51 1061.14,1045.41 1061.14,1045.27L1061.14,1043.78C1061.14,1043.6 1061.1,1043.45 1061,1043.33C1060.91,1043.21 1060.79,1043.16 1060.65,1043.16L1060.1,1043.16L1060.1,1042.01L1060.65,1042.01C1060.81,1042.01 1060.93,1041.96 1061.01,1041.85C1061.1,1041.74 1061.14,1041.58 1061.14,1041.38L1061.14,1040.1C1061.14,1039.96 1061.12,1039.87 1061.08,1039.81C1061.04,1039.74 1060.97,1039.71 1060.88,1039.71C1060.78,1039.71 1060.71,1039.74 1060.67,1039.8C1060.63,1039.86 1060.61,1039.95 1060.61,1040.1L1060.61,1041.56L1059.03,1041.56L1059.03,1040.63C1059.03,1039.88 1059.17,1039.35 1059.46,1039.04C1059.74,1038.73 1060.21,1038.58 1060.87,1038.58C1061.48,1038.58 1061.94,1038.72 1062.25,1038.99C1062.56,1039.27 1062.72,1039.68 1062.72,1040.22L1062.72,1041.13C1062.72,1041.52 1062.62,1041.82 1062.43,1042.06C1062.23,1042.29 1061.94,1042.46 1061.54,1042.56C1061.94,1042.61 1062.24,1042.74 1062.43,1042.95C1062.62,1043.16 1062.72,1043.46 1062.72,1043.85L1062.72,1045.24C1062.72,1045.75 1062.56,1046.15 1062.24,1046.43C1061.92,1046.71 1061.46,1046.85 1060.87,1046.85C1060.21,1046.85 1059.74,1046.7 1059.46,1046.38C1059.17,1046.07 1059.03,1045.55 1059.03,1044.81L1059.03,1043.56Z" style="fill:black;fill-rule:nonzero;"/>
                <path d="M1139.14,1046.67L1139.14,1044.71L1137.06,1044.71L1137.06,1043.59L1138.57,1038.75L1140.71,1038.75L1140.71,1043.59L1141.19,1043.59L1141.19,1044.71L1140.71,1044.71L1140.71,1046.67L1139.14,1046.67ZM1138.27,1043.59L1139.19,1043.59L1139.2,1041.21C1139.2,1041.1 1139.21,1040.92 1139.23,1040.65C1139.25,1040.38 1139.27,1040.08 1139.3,1039.75L1139.2,1039.75C1139.13,1040.17 1139.01,1040.7 1138.86,1041.32C1138.71,1041.94 1138.51,1042.7 1138.27,1043.59Z" style="fill:black;fill-rule:nonzero;"/>
            </g>
            <g transform="matrix(1,0,0,1,626.359,5.62667)">
                <path d="M412.584,1040.1L412.584,1045.27C412.584,1045.41 412.605,1045.51 412.646,1045.57C412.687,1045.62 412.754,1045.65 412.848,1045.65C412.948,1045.65 413.019,1045.62 413.06,1045.56C413.101,1045.5 413.121,1045.4 413.121,1045.27L413.121,1040.1C413.121,1039.95 413.101,1039.86 413.06,1039.8C413.019,1039.74 412.948,1039.71 412.848,1039.71C412.754,1039.71 412.687,1039.74 412.646,1039.81C412.605,1039.87 412.584,1039.96 412.584,1040.1ZM411,1040.63C411,1039.89 411.143,1039.36 411.43,1039.05C411.716,1038.74 412.189,1038.58 412.848,1038.58C413.506,1038.58 413.979,1038.74 414.266,1039.05C414.552,1039.36 414.695,1039.88 414.695,1040.63L414.695,1044.82C414.695,1045.36 414.627,1045.76 414.491,1046.04C414.355,1046.31 414.122,1046.52 413.793,1046.67C413.793,1046.76 413.812,1046.82 413.849,1046.86C413.887,1046.9 413.945,1046.92 414.024,1046.92L414.663,1046.92L414.663,1048.07L413.685,1048.07C413.481,1048.07 413.324,1047.97 413.213,1047.77C413.102,1047.57 413.046,1047.28 413.046,1046.9L413.046,1046.85C412.985,1046.86 412.93,1046.86 412.88,1046.86C412.83,1046.86 412.781,1046.86 412.735,1046.86C412.137,1046.86 411.698,1046.7 411.419,1046.37C411.14,1046.05 411,1045.53 411,1044.82L411,1040.63Z" style="fill:black;fill-rule:nonzero;"/>
                <path d="M415.093,1040.17C415.093,1039.67 415.255,1039.28 415.579,1039C415.903,1038.72 416.357,1038.58 416.94,1038.58C417.528,1038.58 417.981,1038.72 418.299,1039C418.618,1039.28 418.777,1039.68 418.777,1040.21L418.777,1041.5L417.204,1041.5L417.204,1040.1C417.204,1039.95 417.184,1039.85 417.144,1039.8C417.105,1039.74 417.037,1039.71 416.94,1039.71C416.84,1039.71 416.769,1039.74 416.728,1039.8C416.687,1039.86 416.666,1039.96 416.666,1040.1L416.666,1040.8C416.666,1040.92 416.682,1041.02 416.712,1041.11C416.743,1041.19 416.792,1041.28 416.86,1041.36L418.38,1043.03C418.523,1043.19 418.625,1043.35 418.686,1043.52C418.747,1043.69 418.777,1043.97 418.777,1044.34L418.777,1045.27C418.777,1045.78 418.617,1046.17 418.297,1046.44C417.976,1046.71 417.52,1046.85 416.93,1046.85C416.324,1046.85 415.867,1046.71 415.557,1046.42C415.248,1046.14 415.093,1045.71 415.093,1045.15L415.093,1043.67L416.666,1043.67L416.666,1045.27C416.666,1045.4 416.687,1045.5 416.728,1045.56C416.769,1045.62 416.84,1045.65 416.94,1045.65C417.033,1045.65 417.101,1045.62 417.142,1045.57C417.183,1045.51 417.204,1045.41 417.204,1045.27L417.204,1044.43C417.204,1044.32 417.183,1044.21 417.142,1044.11C417.101,1044.01 417.03,1043.9 416.93,1043.79L415.501,1042.17C415.354,1042.01 415.249,1041.84 415.187,1041.68C415.124,1041.51 415.093,1041.29 415.093,1041.01L415.093,1040.89L415.093,1040.17Z" style="fill:black;fill-rule:nonzero;"/>
                <path d="M419.142,1040.17C419.142,1039.67 419.305,1039.28 419.629,1039C419.953,1038.72 420.406,1038.58 420.99,1038.58C421.577,1038.58 422.03,1038.72 422.349,1039C422.668,1039.28 422.827,1039.68 422.827,1040.21L422.827,1041.5L421.253,1041.5L421.253,1040.1C421.253,1039.95 421.234,1039.85 421.194,1039.8C421.155,1039.74 421.087,1039.71 420.99,1039.71C420.89,1039.71 420.819,1039.74 420.778,1039.8C420.737,1039.86 420.716,1039.96 420.716,1040.1L420.716,1040.8C420.716,1040.92 420.731,1041.02 420.762,1041.11C420.792,1041.19 420.842,1041.28 420.91,1041.36L422.43,1043.03C422.573,1043.19 422.675,1043.35 422.736,1043.52C422.797,1043.69 422.827,1043.97 422.827,1044.34L422.827,1045.27C422.827,1045.78 422.667,1046.17 422.346,1046.44C422.026,1046.71 421.57,1046.85 420.979,1046.85C420.374,1046.85 419.917,1046.71 419.607,1046.42C419.297,1046.14 419.142,1045.71 419.142,1045.15L419.142,1043.67L420.716,1043.67L420.716,1045.27C420.716,1045.4 420.737,1045.5 420.778,1045.56C420.819,1045.62 420.89,1045.65 420.99,1045.65C421.083,1045.65 421.15,1045.62 421.192,1045.57C421.233,1045.51 421.253,1045.41 421.253,1045.27L421.253,1044.43C421.253,1044.32 421.233,1044.21 421.192,1044.11C421.15,1044.01 421.08,1043.9 420.979,1043.79L419.551,1042.17C419.404,1042.01 419.299,1041.84 419.236,1041.68C419.174,1041.51 419.142,1041.29 419.142,1041.01L419.142,1040.89L419.142,1040.17Z" style="fill:black;fill-rule:nonzero;"/>
            </g>
        </g>
        <g id="ON/off" transform="matrix(1.53695,0,0,1.53695,-173.57,-529.687)">
            <g transform="matrix(1,0,0,1,-0.627516,0.355553)">
                <ellipse cx="321.797" cy="999.854" rx="16.795" ry="16.434" style="fill:rgb(72,72,74);stroke-width:0.65px;stroke:black;"/>
            </g>
            <g transform="matrix(0.766109,0,0,0.766109,74.7377,234.386)">
                <ellipse cx="321.797" cy="999.854" rx="16.795" ry="16.434" style="fill:rgb(72,72,74);stroke-width:1.7px;stroke:black;"/>
            </g>
            <g transform="matrix(1,0,0,1,-0.0942289,0.933291)">
                <path d="M321.381,992.932L321.381,1006" style="fill:none;stroke-width:2.28px;stroke:black;"/>
            </g>
        </g>
        <g id="Power" transform="matrix(1,0,0,1,-135.707,5.76736)">
            <rect x="360.529" y="973.018" width="50.745" height="61.322" style="fill:rgb(72,72,74);stroke-width:3.5px;stroke:black;"/>
            <g transform="matrix(1,0,0,1,-0.754159,0.503051)">
                <ellipse cx="387.025" cy="998.035" rx="16.88" ry="17.207" style="fill:rgb(72,72,74);stroke-width:1px;stroke:black;"/>
            </g>
            <ellipse cx="386.992" cy="998.717" rx="8.879" ry="8.391" style="fill:rgb(99,100,102);stroke-width:1px;stroke:black;"/>
            <g transform="matrix(1,0,0,1,-0.111324,-0.214278)">
                <ellipse cx="387.249" cy="998.987" rx="5.203" ry="5.065" style="fill:rgb(216,217,218);stroke-width:3px;stroke:rgb(58,57,59);"/>
            </g>
            <path d="M378.699,1011.21L394.491,1011.21L394.491,1012.99L392.11,1014.15L380.447,1014.15L378.699,1013.38L378.699,1011.21Z" style="fill:rgb(47,45,46);stroke-width:0.1px;stroke:rgb(35,31,32);"/>
        </g>
        <g transform="matrix(1,0,0,1,-494.1,4.29221)">
            <g id="reset">
                <ellipse cx="882.113" cy="1013.72" rx="10.926" ry="10.594" style="fill:rgb(108,108,108);stroke-width:3.5px;stroke:rgb(35,31,32);"/>
            </g>
        </g>
        <g transform="matrix(1,0,0,1,161.7,3.14191)">
            <g id="Wifi">
                <ellipse cx="882.113" cy="1013.72" rx="10.926" ry="10.594" style="fill:rgb(91,92,94);stroke-width:3.5px;stroke:rgb(35,31,32);"/>
            </g>
        </g>
        <g id="3 Antennen black">
            <g transform="matrix(1.03478,0.184499,-0.134503,0.754369,1027.06,222.565)">
                <g id="Antenne Rechts">
                    <g>
                        <g transform="matrix(1,0,0,1,-774.378,-3.15595)">
                            <path d="M1016.53,124.619L1020.93,301.171L1038.98,522.435L1043.24,1048.51L1043.34,1047.87C1042.55,1048.66 1036.04,1054.15 1004.23,1054.77C972.911,1055.37 970.935,1051.94 967.466,1051.24L967.191,1051.3L967.191,524.062L984.513,301.705L982.747,124.897C994.27,123.665 1005.51,123.655 1016.53,124.619Z" style="fill:rgb(64,64,64);stroke-width:3.81px;stroke:black;"/>
                        </g>
                        <g transform="matrix(1,0,0,1,-774.378,-3.15595)">
                            <path d="M984.703,117.906L984.703,124.656L982.618,124.676C996.416,123.902 1007.78,123.949 1017.13,124.676L1014.86,123.88L1014.86,118.475L1016.74,117.906C1007.39,117.18 996.023,117.133 982.225,117.906L982.438,117.653C982.428,113.255 981.481,92.528 982.438,76.704C983.201,64.092 991.781,61.281 998.604,61.255C1007.64,61.221 1015.03,65.675 1015.74,76.704C1016.77,92.72 1017.06,113.91 1017.08,117.653" style="fill:rgb(64,64,64);stroke-width:3.81px;stroke:black;"/>
                        </g>
                    </g>
                </g>
            </g>
            <g transform="matrix(1.0511,0,0,0.766266,389.718,252.746)">
                <g id="Antenne Mitte">
                    <g>
                        <g transform="matrix(1,0,0,1,-774.378,-3.15595)">
                            <path d="M1016.53,124.619L1020.93,301.171L1038.98,522.435L1043.24,1048.51L1043.34,1047.87C1042.55,1048.66 1036.04,1054.15 1004.23,1054.77C972.911,1055.37 970.935,1051.94 967.466,1051.24L967.191,1051.3L967.191,524.062L984.513,301.705L982.747,124.897C994.27,123.665 1005.51,123.655 1016.53,124.619Z" style="fill:rgb(64,64,64);stroke-width:3.81px;stroke:black;"/>
                        </g>
                        <g transform="matrix(1,0,0,1,-774.378,-3.15595)">
                            <path d="M984.703,117.906L984.703,124.656L982.618,124.676C996.416,123.902 1007.78,123.949 1017.13,124.676L1014.86,123.88L1014.86,118.475L1016.74,117.906C1007.39,117.18 996.023,117.133 982.225,117.906L982.438,117.653C982.428,113.255 981.481,92.528 982.438,76.704C983.201,64.092 991.781,61.281 998.604,61.255C1007.64,61.221 1015.03,65.675 1015.74,76.704C1016.77,92.72 1017.06,113.91 1017.08,117.653" style="fill:rgb(64,64,64);stroke-width:3.81px;stroke:black;"/>
                        </g>
                    </g>
                </g>
            </g>
            <g transform="matrix(1.03897,-0.15916,0.116031,0.75743,-200.518,295.038)">
                <g id="Antenne Links">
                    <g>
                        <g transform="matrix(1,0,0,1,-774.378,-3.15595)">
                            <path d="M1016.53,124.619L1020.93,301.171L1038.98,522.435L1043.24,1048.51L1043.34,1047.87C1042.55,1048.66 1036.04,1054.15 1004.23,1054.77C972.911,1055.37 970.935,1051.94 967.466,1051.24L967.191,1051.3L967.191,524.062L984.513,301.705L982.747,124.897C994.27,123.665 1005.51,123.655 1016.53,124.619Z" style="fill:rgb(64,64,64);stroke-width:3.81px;stroke:black;"/>
                        </g>
                        <g transform="matrix(1,0,0,1,-774.378,-3.15595)">
                            <path d="M984.703,117.906L984.703,124.656L982.618,124.676C996.416,123.902 1007.78,123.949 1017.13,124.676L1014.86,123.88L1014.86,118.475L1016.74,117.906C1007.39,117.18 996.023,117.133 982.225,117.906L982.438,117.653C982.428,113.255 981.481,92.528 982.438,76.704C983.201,64.092 991.781,61.281 998.604,61.255C1007.64,61.221 1015.03,65.675 1015.74,76.704C1016.77,92.72 1017.06,113.91 1017.08,117.653" style="fill:rgb(64,64,64);stroke-width:3.81px;stroke:black;"/>
                        </g>
                    </g>
                </g>
            </g>
        </g>
        <g id="USB Port Hochkant" transform="matrix(1,0,0,1,-383.693,8.40487)">
            <g transform="matrix(1.24266,0,0,1.04702,-187.856,-45.2159)">
                <rect x="797.162" y="952.18" width="35.211" height="82.069" style="fill:rgb(49,49,49);stroke-width:0.87px;stroke:black;"/>
            </g>
            <g transform="matrix(0.939579,0,0,0.964472,49.6788,34.9392)">
                <path d="M844.035,961.651C838.659,962.357 842.018,957.286 840.263,955.504C838.409,953.621 833.887,957.121 833.851,951.73L813.483,951.73C813.06,958.195 809.277,954.793 807.442,956.539C805.548,958.341 809.127,962.125 803.299,961.651L803.299,1027.15C809.777,1026.59 805.868,1031.08 807.46,1033.07C808.993,1034.98 813.523,1031.2 813.484,1036.95C813.484,1037.02 813.536,1037.07 813.6,1037.07C815.252,1037.07 833.851,1037.07 833.851,1037.07C833.819,1031.53 837.723,1034.41 839.72,1033.19C841.739,1031.96 837.786,1027.04 844.035,1027.15L844.035,961.651Z" style="fill:rgb(130,115,92);stroke-width:3.15px;stroke:rgb(203,203,203);"/>
            </g>
            <g transform="matrix(1,0,0,1,-0.730877,0.338846)">
                <rect x="822.968" y="966.895" width="5.718" height="8.772" style="fill:black;stroke-width:0.5px;stroke:black;"/>
            </g>
            <g transform="matrix(1,0,0,1,-0.794451,13.8694)">
                <rect x="822.968" y="966.895" width="5.718" height="8.772" style="fill:black;stroke-width:0.5px;stroke:black;"/>
            </g>
            <g transform="matrix(1,0,0,1,-0.812951,26.3374)">
                <rect x="822.968" y="966.895" width="5.718" height="8.772" style="fill:black;stroke-width:0.5px;stroke:black;"/>
            </g>
            <g transform="matrix(1,0,0,1,-0.864451,40.5344)">
                <rect x="822.968" y="966.895" width="5.718" height="8.772" style="fill:black;stroke-width:0.5px;stroke:black;"/>
            </g>
            <g transform="matrix(1,0,0,1.03333,0,-34.1453)">
                <rect x="814.95" y="963.194" width="9.175" height="61.293" style="fill:rgb(203,203,203);stroke-width:0.49px;stroke:black;"/>
            </g>
        </g>
    </g>
</svg>
