<?xml version="1.0" standalone="no"?>
<!DOCTYPE svg PUBLIC "-//W3C//DTD SVG 1.1//EN" "http://www.w3.org/Graphics/SVG/1.1/DTD/svg11.dtd">
<svg width="100%" height="100%" viewBox="0 0 1280 1150" version="1.1" xmlns="http://www.w3.org/2000/svg" xmlns:xlink="http://www.w3.org/1999/xlink" xml:space="preserve" style="fill-rule:evenodd;clip-rule:evenodd;stroke-linejoin:round;stroke-miterlimit:1.41421;">
    <g id="Antennen 1043">
        <g id="new Antenne 1043">
            <path d="M652.036,619.119L703.126,619.119L700.344,526.551L655.39,526.551L652.036,619.119Z" style="fill:rgb(49,49,49);stroke-width:0.5px;stroke:black;"/>
            <rect x="665.084" y="199.138" width="27.899" height="28.754" style="fill:rgb(49,49,49);stroke-width:0.5px;stroke:black;"/>
            <path d="M649.243,689.441L650.988,616.958C669.108,618.552 687.221,618.824 705.323,616.958L707.183,689.441L649.243,689.441Z" style="fill:rgb(49,49,49);stroke-width:0.5px;stroke:black;"/>
            <path d="M650.848,597.162L650.848,612.298C668.997,614.545 687.229,614.718 705.566,612.298L705.566,597.162C687.342,599.115 669.101,598.905 650.848,597.162Z" style="fill:rgb(49,49,49);stroke-width:0.5px;stroke:black;"/>
            <path d="M663.141,341.639L694.434,341.639L694.434,223.461L663.746,223.461L663.141,341.639Z" style="fill:rgb(49,49,49);stroke-width:0.5px;stroke:black;"/>
            <path d="M651.347,593.426C669.264,594.991 687.044,594.958 704.694,593.426L703.132,552.011C686.546,553.968 669.625,553.864 652.419,552.011L651.347,593.426Z" style="fill:rgb(49,49,49);stroke-width:0.5px;stroke:black;"/>
            <path d="M653.079,547.908C669.797,549.558 686.475,549.685 703.103,547.908L702.503,533.319C686.288,534.981 669.99,534.936 653.614,533.319L653.079,547.908Z" style="fill:rgb(49,49,49);stroke-width:0.5px;stroke:black;"/>
            <path d="M653.614,529.948C669.993,531.254 686.296,531.355 702.503,529.948L697.191,338.329C685.178,340.346 673.138,340.435 661.07,338.329L653.614,529.948Z" style="fill:rgb(49,49,49);stroke-width:0.5px;stroke:black;"/>
            <rect x="663.746" y="205.104" width="30.688" height="14.659" style="fill:rgb(49,49,49);stroke-width:0.5px;stroke:black;"/>
            <path d="M663.687,200.966L694.443,200.966L694.443,144.136C688.239,128.631 671.247,128.6 663.687,144.136L663.687,200.966Z" style="fill:rgb(49,49,49);stroke-width:0.5px;stroke:black;"/>
        </g>
        <g id="new Antenne 10431" transform="matrix(0.965926,-0.258819,0.258819,0.965926,-524.481,206.115)">
            <path d="M652.036,619.119L703.126,619.119L700.344,526.551L655.39,526.551L652.036,619.119Z" style="fill:rgb(49,49,49);stroke-width:0.5px;stroke:black;"/>
            <rect x="665.084" y="199.138" width="27.899" height="28.754" style="fill:rgb(49,49,49);stroke-width:0.5px;stroke:black;"/>
            <path d="M649.243,689.441L650.988,616.958C669.108,618.552 687.221,618.824 705.323,616.958L707.183,689.441L649.243,689.441Z" style="fill:rgb(49,49,49);stroke-width:0.5px;stroke:black;"/>
            <path d="M650.848,597.162L650.848,612.298C668.997,614.545 687.229,614.718 705.566,612.298L705.566,597.162C687.342,599.115 669.101,598.905 650.848,597.162Z" style="fill:rgb(49,49,49);stroke-width:0.5px;stroke:black;"/>
            <path d="M663.141,341.639L694.434,341.639L694.434,223.461L663.746,223.461L663.141,341.639Z" style="fill:rgb(49,49,49);stroke-width:0.5px;stroke:black;"/>
            <path d="M651.347,593.426C669.264,594.991 687.044,594.958 704.694,593.426L703.132,552.011C686.546,553.968 669.625,553.864 652.419,552.011L651.347,593.426Z" style="fill:rgb(49,49,49);stroke-width:0.5px;stroke:black;"/>
            <path d="M653.079,547.908C669.797,549.558 686.475,549.685 703.103,547.908L702.503,533.319C686.288,534.981 669.99,534.936 653.614,533.319L653.079,547.908Z" style="fill:rgb(49,49,49);stroke-width:0.5px;stroke:black;"/>
            <path d="M653.614,529.948C669.993,531.254 686.296,531.355 702.503,529.948L697.191,338.329C685.178,340.346 673.138,340.435 661.07,338.329L653.614,529.948Z" style="fill:rgb(49,49,49);stroke-width:0.5px;stroke:black;"/>
            <rect x="663.746" y="205.104" width="30.688" height="14.659" style="fill:rgb(49,49,49);stroke-width:0.5px;stroke:black;"/>
            <path d="M663.687,200.966L694.443,200.966L694.443,144.136C688.239,128.631 671.247,128.6 663.687,144.136L663.687,200.966Z" style="fill:rgb(49,49,49);stroke-width:0.5px;stroke:black;"/>
        </g>
        <g id="new Antenne 1043rechts" transform="matrix(0.965926,0.258819,-0.258819,0.965926,549.457,-145.553)">
            <path d="M652.036,619.119L703.126,619.119L700.344,526.551L655.39,526.551L652.036,619.119Z" style="fill:rgb(49,49,49);stroke-width:0.5px;stroke:black;"/>
            <rect x="665.084" y="199.138" width="27.899" height="28.754" style="fill:rgb(49,49,49);stroke-width:0.5px;stroke:black;"/>
            <path d="M649.243,689.441L650.988,616.958C669.108,618.552 687.221,618.824 705.323,616.958L707.183,689.441L649.243,689.441Z" style="fill:rgb(49,49,49);stroke-width:0.5px;stroke:black;"/>
            <path d="M650.848,597.162L650.848,612.298C668.997,614.545 687.229,614.718 705.566,612.298L705.566,597.162C687.342,599.115 669.101,598.905 650.848,597.162Z" style="fill:rgb(49,49,49);stroke-width:0.5px;stroke:black;"/>
            <path d="M663.141,341.639L694.434,341.639L694.434,223.461L663.746,223.461L663.141,341.639Z" style="fill:rgb(49,49,49);stroke-width:0.5px;stroke:black;"/>
            <path d="M651.347,593.426C669.264,594.991 687.044,594.958 704.694,593.426L703.132,552.011C686.546,553.968 669.625,553.864 652.419,552.011L651.347,593.426Z" style="fill:rgb(49,49,49);stroke-width:0.5px;stroke:black;"/>
            <path d="M653.079,547.908C669.797,549.558 686.475,549.685 703.103,547.908L702.503,533.319C686.288,534.981 669.99,534.936 653.614,533.319L653.079,547.908Z" style="fill:rgb(49,49,49);stroke-width:0.5px;stroke:black;"/>
            <path d="M653.614,529.948C669.993,531.254 686.296,531.355 702.503,529.948L697.191,338.329C685.178,340.346 673.138,340.435 661.07,338.329L653.614,529.948Z" style="fill:rgb(49,49,49);stroke-width:0.5px;stroke:black;"/>
            <rect x="663.746" y="205.104" width="30.688" height="14.659" style="fill:rgb(49,49,49);stroke-width:0.5px;stroke:black;"/>
            <path d="M663.687,200.966L694.443,200.966L694.443,144.136C688.239,128.631 671.247,128.6 663.687,144.136L663.687,200.966Z" style="fill:rgb(49,49,49);stroke-width:0.5px;stroke:black;"/>
        </g>
    </g>
    <g id="rippen">
        <g id="rippen rechts">
            <g>
                <g transform="matrix(0.761096,0,0,0.761096,298.965,294.449)">
                    <path d="M1241.6,892.412L1249.01,906.328L1245.96,913.821L1241.6,913.821L1238.99,892.412L1241.6,892.412Z" style="fill:rgb(51,51,51);stroke-width:0.66px;stroke:black;"/>
                </g>
                <g transform="matrix(0.761096,0,0,0.761096,298.965,294.449)">
                    <path d="M1240.09,909.578C1243.88,909.985 1246.97,909.1 1249.01,906.328L1249.01,915.716C1247.37,918.684 1244.24,918.992 1240.7,919.071L1240.09,909.578Z" style="fill:rgb(51,51,51);stroke-width:0.66px;stroke:black;"/>
                </g>
            </g>
            <g>
                <g transform="matrix(0.895834,0,0,0.895834,130.986,146.98)">
                    <path d="M1241.6,892.412L1249.01,906.328L1245.96,913.821L1241.6,913.821L1238.99,892.412L1241.6,892.412Z" style="fill:rgb(51,51,51);stroke-width:0.56px;stroke:black;"/>
                </g>
                <g transform="matrix(0.895834,0,0,0.895834,130.986,146.98)">
                    <path d="M1240.09,909.578C1243.88,909.985 1246.97,909.1 1249.01,906.328L1249.01,915.716C1247.37,918.684 1244.24,918.992 1240.7,919.071L1240.09,909.578Z" style="fill:rgb(51,51,51);stroke-width:0.56px;stroke:black;"/>
                </g>
            </g>
            <g>
                <g transform="matrix(1,0,0,1,0.455564,25.8628)">
                    <path d="M1241.6,892.412L1249.01,906.328L1245.96,913.821L1241.6,913.821L1238.99,892.412L1241.6,892.412Z" style="fill:rgb(51,51,51);stroke-width:0.5px;stroke:black;"/>
                </g>
                <g transform="matrix(1,0,0,1,0.455564,25.8628)">
                    <path d="M1240.09,909.578C1243.88,909.985 1246.97,909.1 1249.01,906.328L1249.01,915.716C1247.37,918.684 1244.24,918.992 1240.7,919.071L1240.09,909.578Z" style="fill:rgb(51,51,51);stroke-width:0.5px;stroke:black;"/>
                </g>
            </g>
            <g>
                <path d="M1241.6,892.412L1249.01,906.328L1245.96,913.821L1241.6,913.821L1238.99,892.412L1241.6,892.412Z" style="fill:rgb(51,51,51);stroke-width:0.5px;stroke:black;"/>
                <path d="M1240.09,909.578C1243.88,909.985 1246.97,909.1 1249.01,906.328L1249.01,915.716C1247.37,918.684 1244.24,918.992 1240.7,919.071L1240.09,909.578Z" style="fill:rgb(51,51,51);stroke-width:0.5px;stroke:black;"/>
            </g>
            <g>
                <path d="M1240.14,866.776L1248.99,881.994L1246.04,886.95L1238.92,886.95L1236.59,866.776L1240.14,866.776Z" style="fill:rgb(51,51,51);stroke-width:0.5px;stroke:black;"/>
                <g transform="matrix(1,0,0,0.896026,0,92.9608)">
                    <path d="M1238.87,883.847C1242.7,884.399 1246.01,883.065 1249.01,880.617L1249.01,890.531C1247.98,892.652 1244.86,893.758 1240.14,894.081L1238.87,883.847Z" style="fill:rgb(51,51,51);stroke-width:0.53px;stroke:black;"/>
                </g>
            </g>
            <g>
                <path d="M1140.2,705.009C1150,707.551 1157.58,712.8 1162.64,721.13L1248.94,858.06L1247.88,863.427L1243.69,864.809L1235.73,863.571L1140.2,705.009Z" style="fill:rgb(51,51,51);stroke-width:0.5px;stroke:black;"/>
                <g transform="matrix(1,0,0,1.34688,0,-298.374)">
                    <path d="M1237.42,867.999C1242.73,868.034 1247.04,867.325 1248.94,864.835C1249.06,864.122 1248.95,858.906 1248.94,858.597C1246.75,862.143 1241.98,863.061 1235.99,862.642" style="fill:rgb(51,51,51);stroke-width:0.42px;stroke:black;"/>
                </g>
            </g>
        </g>
        <g id="rippen rechts1" transform="matrix(-1,0,0,1,1328.52,0)">
            <g>
                <g transform="matrix(0.761096,0,0,0.761096,298.965,294.449)">
                    <path d="M1241.6,892.412L1249.01,906.328L1245.96,913.821L1241.6,913.821L1238.99,892.412L1241.6,892.412Z" style="fill:rgb(51,51,51);stroke-width:0.66px;stroke:black;"/>
                </g>
                <g transform="matrix(0.761096,0,0,0.761096,298.965,294.449)">
                    <path d="M1240.09,909.578C1243.88,909.985 1246.97,909.1 1249.01,906.328L1249.01,915.716C1247.37,918.684 1244.24,918.992 1240.7,919.071L1240.09,909.578Z" style="fill:rgb(51,51,51);stroke-width:0.66px;stroke:black;"/>
                </g>
            </g>
            <g>
                <g transform="matrix(0.895834,0,0,0.895834,130.986,146.98)">
                    <path d="M1241.6,892.412L1249.01,906.328L1245.96,913.821L1241.6,913.821L1238.99,892.412L1241.6,892.412Z" style="fill:rgb(51,51,51);stroke-width:0.56px;stroke:black;"/>
                </g>
                <g transform="matrix(0.895834,0,0,0.895834,130.986,146.98)">
                    <path d="M1240.09,909.578C1243.88,909.985 1246.97,909.1 1249.01,906.328L1249.01,915.716C1247.37,918.684 1244.24,918.992 1240.7,919.071L1240.09,909.578Z" style="fill:rgb(51,51,51);stroke-width:0.56px;stroke:black;"/>
                </g>
            </g>
            <g>
                <g transform="matrix(1,0,0,1,0.455564,25.8628)">
                    <path d="M1241.6,892.412L1249.01,906.328L1245.96,913.821L1241.6,913.821L1238.99,892.412L1241.6,892.412Z" style="fill:rgb(51,51,51);stroke-width:0.5px;stroke:black;"/>
                </g>
                <g transform="matrix(1,0,0,1,0.455564,25.8628)">
                    <path d="M1240.09,909.578C1243.88,909.985 1246.97,909.1 1249.01,906.328L1249.01,915.716C1247.37,918.684 1244.24,918.992 1240.7,919.071L1240.09,909.578Z" style="fill:rgb(51,51,51);stroke-width:0.5px;stroke:black;"/>
                </g>
            </g>
            <g>
                <path d="M1241.6,892.412L1249.01,906.328L1245.96,913.821L1241.6,913.821L1238.99,892.412L1241.6,892.412Z" style="fill:rgb(51,51,51);stroke-width:0.5px;stroke:black;"/>
                <path d="M1240.09,909.578C1243.88,909.985 1246.97,909.1 1249.01,906.328L1249.01,915.716C1247.37,918.684 1244.24,918.992 1240.7,919.071L1240.09,909.578Z" style="fill:rgb(51,51,51);stroke-width:0.5px;stroke:black;"/>
            </g>
            <g>
                <path d="M1240.14,866.776L1248.99,881.994L1246.04,886.95L1238.92,886.95L1236.59,866.776L1240.14,866.776Z" style="fill:rgb(51,51,51);stroke-width:0.5px;stroke:black;"/>
                <g transform="matrix(1,0,0,0.896026,0,92.9608)">
                    <path d="M1238.87,883.847C1242.7,884.399 1246.01,883.065 1249.01,880.617L1249.01,890.531C1247.98,892.652 1244.86,893.758 1240.14,894.081L1238.87,883.847Z" style="fill:rgb(51,51,51);stroke-width:0.53px;stroke:black;"/>
                </g>
            </g>
            <g>
                <path d="M1140.2,705.009C1150,707.551 1157.58,712.8 1162.64,721.13L1248.94,858.06L1247.88,863.427L1243.69,864.809L1235.73,863.571L1140.2,705.009Z" style="fill:rgb(51,51,51);stroke-width:0.5px;stroke:black;"/>
                <g transform="matrix(1,0,0,1.34688,0,-298.374)">
                    <path d="M1237.42,867.999C1242.73,868.034 1247.04,867.325 1248.94,864.835C1249.06,864.122 1248.95,858.906 1248.94,858.597C1246.75,862.143 1241.98,863.061 1235.99,862.642" style="fill:rgb(51,51,51);stroke-width:0.42px;stroke:black;"/>
                </g>
            </g>
        </g>
    </g>
    <g id="Router">
        <g id="Plaste weis">
            <path d="M84.296,981.947C86.513,932.857 87.593,880.051 96.522,852.897L191.308,703.716C195.01,697.889 223.422,689.309 242.194,688.874L1062.77,688.874C1102.56,689.162 1132.19,692.715 1138.68,703.716L1228.06,846.708C1231.44,852.7 1234.16,858.892 1236.37,865.237C1240.57,904.026 1241.72,942.997 1243.22,981.947L1230.41,996.746L98.354,996.746L84.296,981.947Z" style="fill:white;stroke-width:3px;stroke-linecap:round;stroke:black;"/>
            <path d="M259.697,986.318L94.282,986.318C89.968,986.135 86.672,984.601 84.22,981.947L84.22,1002.75C84.22,1005.88 92.109,1013.63 94.282,1013.63L259.697,1013.63L259.697,986.318Z" style="fill:white;stroke-width:3px;stroke-linecap:round;stroke:black;"/>
            <g transform="matrix(-1,0,0,1,1327.35,0)">
                <path d="M259.697,986.318L94.282,986.318C89.968,986.135 86.672,984.601 84.22,981.947L84.22,1002.75C84.22,1005.88 92.109,1013.63 94.282,1013.63L259.697,1013.63L259.697,986.318Z" style="fill:white;stroke-width:3px;stroke-linecap:round;stroke:black;"/>
            </g>
        </g>
        <g id="QSS">
            <path d="M1223.29,928.479C1223.29,923.226 1219.03,918.961 1213.78,918.961L1114.87,918.961C1109.61,918.961 1105.35,923.226 1105.35,928.479L1105.35,972.96C1105.35,978.213 1109.61,982.477 1114.87,982.477L1213.78,982.477C1219.03,982.477 1223.29,978.213 1223.29,972.96L1223.29,928.479Z" style="fill:rgb(64,200,43);stroke-width:0.65px;stroke-linecap:round;stroke:black;"/>
            <g id="wifi-links">
                <path d="M1165.04,941.731C1161.05,948.191 1161.14,954.236 1165.04,960.178" style="fill:none;stroke-width:0.65px;stroke-linecap:round;stroke:black;"/>
                <g transform="matrix(1.22273,0,0,1.13864,-262.476,-131.913)">
                    <path d="M1165.04,941.731C1161.05,948.191 1161.14,954.236 1165.04,960.178" style="fill:none;stroke-width:0.55px;stroke-linecap:round;stroke:black;"/>
                </g>
                <g transform="matrix(1.28019,0,0,1.27899,-332.767,-265.276)">
                    <path d="M1165.04,941.731C1161.05,948.191 1161.14,954.236 1165.04,960.178" style="fill:none;stroke-width:0.51px;stroke-linecap:round;stroke:black;"/>
                </g>
            </g>
            <g id="wifi-rechts" transform="matrix(-1,5.66554e-16,-5.66554e-16,-1,2372.96,1902.65)">
                <path d="M1165.04,941.731C1161.05,948.191 1161.14,954.236 1165.04,960.178" style="fill:none;stroke-width:0.65px;stroke-linecap:round;stroke:black;"/>
                <g transform="matrix(1.22273,0,0,1.13864,-262.476,-131.913)">
                    <path d="M1165.04,941.731C1161.05,948.191 1161.14,954.236 1165.04,960.178" style="fill:none;stroke-width:0.55px;stroke-linecap:round;stroke:black;"/>
                </g>
                <g transform="matrix(1.28019,0,0,1.27899,-332.767,-265.276)">
                    <path d="M1165.04,941.731C1161.05,948.191 1161.14,954.236 1165.04,960.178" style="fill:none;stroke-width:0.51px;stroke-linecap:round;stroke:black;"/>
                </g>
            </g>
            <g transform="matrix(1.15,0,0,0.95,-178.764,57.5675)">
                <text x="1171.92px" y="950.338px" style="font-family:'Swiss911BT-ExtraCompressed';font-size:28px;fill:white;stroke-width:0.38px;stroke:rgb(49,49,49);">QSS</text>
            </g>
            <g id="ON/off" transform="matrix(1.17447,0,0,1.17447,753.45,-223.957)">
                <g transform="matrix(1,0,0,1,-0.627516,0.355553)">
                    <ellipse cx="321.797" cy="999.854" rx="16.795" ry="16.434" style="fill:rgb(72,72,74);stroke-width:0.85px;stroke-linecap:round;stroke:black;"/>
                </g>
                <g transform="matrix(0.766109,0,0,0.766109,74.7377,234.386)">
                    <ellipse cx="321.797" cy="999.854" rx="16.795" ry="16.434" style="fill:rgb(72,72,74);stroke-width:2.22px;stroke-linecap:round;stroke:black;"/>
                </g>
                <g transform="matrix(1,0,0,1,-0.0942289,0.933291)">
                    <path d="M321.381,992.932L321.381,1006" style="fill:none;stroke-width:2.98px;stroke-linecap:round;stroke:black;"/>
                </g>
            </g>
        </g>
        <path d="M97.426,852.496C96.783,841.411 1230.34,844.994 1231.06,852.496" style="fill:none;stroke-width:3px;stroke-linecap:round;stroke:black;"/>
        <g id="Front">
            <g transform="matrix(1.00334,0,0,1.02921,-2.41872,-29.4677)">
                <path d="M1077.9,918.634C1077.9,899.173 1061.7,883.372 1041.73,883.372L288.417,883.372C268.454,883.372 252.246,899.173 252.246,918.634L252.246,973.432C252.246,992.893 268.454,1008.69 288.417,1008.69L1041.73,1008.69C1061.7,1008.69 1077.9,992.893 1077.9,973.432L1077.9,918.634Z" style="fill:rgb(51,51,51);"/>
            </g>
            <path d="M1079.17,966.72C1079.17,956.578 1070.94,948.343 1060.8,948.343L269.032,948.343C258.89,948.343 250.656,956.578 250.656,966.72L250.656,1003.47C250.656,1013.61 258.89,1021.85 269.032,1021.85L1060.8,1021.85C1070.94,1021.85 1079.17,1013.61 1079.17,1003.47L1079.17,966.72Z" style="fill:rgb(51,51,51);"/>
            <g transform="matrix(1,0,0,1.76392,0,-718.176)">
                <path d="M936.461,944.183C936.461,941.941 933.25,940.121 929.296,940.121L405.838,940.121C401.883,940.121 398.673,941.941 398.673,944.183L398.673,946.328C398.673,948.57 401.883,950.391 405.838,950.391L929.296,950.391C933.25,950.391 936.461,948.57 936.461,946.328L936.461,944.183Z" style="fill:rgb(54,129,35);stroke-width:0.7px;stroke:black;"/>
            </g>
            <g>
                <circle cx="433.52" cy="948.693" r="6.161" style="fill:rgb(175,239,159);stroke-width:0.5px;stroke:black;"/>
                <g transform="matrix(1,0,0,1,76.3442,0)">
                    <circle cx="433.52" cy="948.693" r="6.161" style="fill:rgb(175,239,159);stroke-width:0.5px;stroke:black;"/>
                </g>
                <g transform="matrix(1,0,0,1,148.4,0)">
                    <circle cx="433.52" cy="948.693" r="6.161" style="fill:rgb(175,239,159);stroke-width:0.5px;stroke:black;"/>
                </g>
                <g transform="matrix(1,0,0,1,214.262,0)">
                    <circle cx="433.52" cy="948.693" r="6.161" style="fill:rgb(175,239,159);stroke-width:0.5px;stroke:black;"/>
                </g>
                <g transform="matrix(1,0,0,1,250.149,0)">
                    <circle cx="433.52" cy="948.693" r="6.161" style="fill:rgb(175,239,159);stroke-width:0.5px;stroke:black;"/>
                </g>
                <g transform="matrix(1,0,0,1,285.169,0)">
                    <circle cx="433.52" cy="948.693" r="6.161" style="fill:rgb(175,239,159);stroke-width:0.5px;stroke:black;"/>
                </g>
                <g transform="matrix(1,0,0,1,324.581,0)">
                    <circle cx="433.52" cy="948.693" r="6.161" style="fill:rgb(175,239,159);stroke-width:0.5px;stroke:black;"/>
                </g>
                <g transform="matrix(1,0,0,1,390.303,0)">
                    <circle cx="433.52" cy="948.693" r="6.161" style="fill:rgb(175,239,159);stroke-width:0.5px;stroke:black;"/>
                </g>
                <g transform="matrix(1,0,0,1,431.431,0)">
                    <circle cx="433.52" cy="948.693" r="6.161" style="fill:rgb(175,239,159);stroke-width:0.5px;stroke:black;"/>
                </g>
                <g transform="matrix(1,0,0,1,468.965,0)">
                    <circle cx="433.52" cy="948.693" r="6.161" style="fill:rgb(175,239,159);stroke-width:0.5px;stroke:black;"/>
                </g>
            </g>
            <g transform="matrix(1.00077,0,0,0.844315,1.86022,149.748)">
                <path d="M962.231,946.943C962.231,938.71 956.591,932.026 949.645,932.026L377.334,932.026C370.388,932.026 364.749,938.71 364.749,946.943C364.749,955.177 370.388,961.861 377.334,961.861L949.645,961.861C956.591,961.861 962.231,955.177 962.231,946.943Z" style="fill:none;stroke-width:0.54px;stroke:black;"/>
            </g>
        </g>
    </g>
    <g id="Beschriftung">
        <g transform="matrix(0.89,0,0,1,97.9836,3.91336)">
            <text x="919.573px" y="979.725px" style="font-family:'ArialMT';font-size:16px;fill:rgb(252,252,252);">TL<tspan x="937.578px 942.023px " y="979.725px 979.725px "> -</tspan> WR1043ND</text>
        </g>
        <g transform="matrix(0.89,0,0,1,-504.71,3.57615)">
            <text x="919.573px" y="979.725px" style="font-family:'ArialMT';font-size:16px;fill:rgb(252,252,252);">Wireless N Gigabit Router</text>
        </g>
        <g transform="matrix(0.89,0,0,1,-396.139,-51.3217)">
            <text x="919.573px" y="979.725px" style="font-family:'ArialMT';font-size:13px;fill:rgb(252,252,252);">PWR <tspan x="960.022px 1000.47px " y="979.725px 979.725px "> S</tspan>YS <tspan x="1040.92px 1081.37px " y="979.725px 979.725px "> W</tspan>LAN <tspan x="1121.82px 1162.27px " y="979.725px 979.725px ">  </tspan>  4 <tspan x="1202.72px " y="979.725px "> </tspan>  3 <tspan x="1243.17px " y="979.725px "> </tspan> 2 <tspan x="1283.62px " y="979.725px "> </tspan>  1   <tspan x="1324.07px 1364.52px 1376.25px 1384.92px 1394.3px 1404.97px " y="979.725px 979.725px 979.725px 979.725px 979.725px 979.725px "> WAN U</tspan>SB <tspan x="1445.42px " y="979.725px ">Q</tspan>SS</text>
        </g>
    </g>
</svg>
